<?xml version="1.0" encoding="UTF-8" standalone="no"?>
<!DOCTYPE svg PUBLIC "-//W3C//DTD SVG 1.1//EN"
 "http://www.w3.org/Graphics/SVG/1.1/DTD/svg11.dtd">
<!-- Generated by graphviz version 2.38.0 (20140413.2041)
 -->
<!-- Title: include/common.h Pages: 1 -->
<svg width="752pt" height="302pt"
 viewBox="0.00 0.00 752.06 302.00" xmlns="http://www.w3.org/2000/svg" xmlns:xlink="http://www.w3.org/1999/xlink">
<g id="graph0" class="graph" transform="scale(1 1) rotate(0) translate(4 298)">
<title>include/common.h</title>
<!-- Node1 -->
<g id="node1" class="node"><title>Node1</title>
<g id="a_node1"><a xlink:title=" ">
<polygon fill="#bfbfbf" stroke="black" points="362.564,-275.5 362.564,-293.5 455.564,-293.5 455.564,-275.5 362.564,-275.5"/>
<text text-anchor="middle" x="409.064" y="-282.3" font-family="Calibri" font-size="9.00">include/common.h</text>
</a>
</g>
</g>
<!-- Node2 -->
<g id="node2" class="node"><title>Node2</title>
<g id="a_node2"><a xlink:href="extratypes_8h.html" target="_top" xlink:title=" ">
<polygon fill="none" stroke="black" points="281.564,-165.5 281.564,-183.5 382.564,-183.5 382.564,-165.5 281.564,-165.5"/>
<text text-anchor="middle" x="332.064" y="-172.3" font-family="Calibri" font-size="9.00">include/extratypes.h</text>
</a>
</g>
</g>
<!-- Node1&#45;&gt;Node2 -->
<g id="edge1" class="edge"><title>Node1&#45;&gt;Node2</title>
<path fill="none" stroke="midnightblue" d="M380.82,-270.631C367.658,-263.215 352.971,-252.636 344.064,-239 332.775,-221.717 331.515,-196.474 331.699,-183.642"/>
<polygon fill="midnightblue" stroke="midnightblue" points="379.549,-273.917 390.029,-275.47 382.805,-267.72 379.549,-273.917"/>
</g>
<!-- Node3 -->
<g id="node3" class="node"><title>Node3</title>
<g id="a_node3"><a xlink:href="font5x8_8h.html" target="_top" xlink:title="Definition of 5x8 font characters for use by OLED displays for ATU&#45;100 EXT PIC16F1938.">
<polygon fill="none" stroke="black" points="12.0641,-110.5 12.0641,-128.5 100.064,-128.5 100.064,-110.5 12.0641,-110.5"/>
<text text-anchor="middle" x="56.0641" y="-117.3" font-family="Calibri" font-size="9.00">include/font5x8.h</text>
</a>
</g>
</g>
<!-- Node1&#45;&gt;Node3 -->
<g id="edge16" class="edge"><title>Node1&#45;&gt;Node3</title>
<path fill="none" stroke="midnightblue" d="M352.53,-279.778C282.306,-272.366 162.452,-250.208 86.0641,-184 68.9268,-169.147 60.8553,-142.356 57.7226,-128.815"/>
<polygon fill="midnightblue" stroke="midnightblue" points="352.224,-283.265 362.52,-280.769 352.914,-276.299 352.224,-283.265"/>
</g>
<!-- Node4 -->
<g id="node4" class="node"><title>Node4</title>
<g id="a_node4"><a xlink:href="oled__control_8c.html" target="_top" xlink:title="OLED/LCD control routines for ATU&#45;100 EXT PIC16F1938.">
<polygon fill="none" stroke="black" points="83.5641,-55.5 83.5641,-73.5 172.564,-73.5 172.564,-55.5 83.5641,-55.5"/>
<text text-anchor="middle" x="128.064" y="-62.3" font-family="Calibri" font-size="9.00">src/oled_control.c</text>
</a>
</g>
</g>
<!-- Node1&#45;&gt;Node4 -->
<g id="edge31" class="edge"><title>Node1&#45;&gt;Node4</title>
<path fill="none" stroke="midnightblue" d="M352.313,-283.856C255.481,-280.865 62.9951,-258.218 3.06406,-129 -13.5783,-93.1173 41.2733,-77.203 83.5606,-70.3646"/>
<polygon fill="midnightblue" stroke="midnightblue" points="352.422,-287.36 362.506,-284.109 352.596,-280.362 352.422,-287.36"/>
</g>
<!-- Node5 -->
<g id="node5" class="node"><title>Node5</title>
<g id="a_node5"><a xlink:href="main_8h.html" target="_top" xlink:title="ATU&#45;100 EXT firmware definitions for PIC16F1938 main program.">
<polygon fill="none" stroke="black" points="444.064,-55.5 444.064,-73.5 524.064,-73.5 524.064,-55.5 444.064,-55.5"/>
<text text-anchor="middle" x="484.064" y="-62.3" font-family="Calibri" font-size="9.00">include/main.h</text>
</a>
</g>
</g>
<!-- Node1&#45;&gt;Node5 -->
<g id="edge17" class="edge"><title>Node1&#45;&gt;Node5</title>
<path fill="none" stroke="midnightblue" d="M438.893,-270.652C452.022,-263.368 466.218,-252.895 474.064,-239 505.662,-183.039 491.602,-100.091 485.987,-73.8042"/>
<polygon fill="midnightblue" stroke="midnightblue" points="436.934,-267.723 429.628,-275.396 440.125,-273.954 436.934,-267.723"/>
</g>
<!-- Node6 -->
<g id="node6" class="node"><title>Node6</title>
<g id="a_node6"><a xlink:href="main_8c.html" target="_top" xlink:title="ATU&#45;100 EXT firmware for PIC16F1938 main program.">
<polygon fill="none" stroke="black" points="489.564,-0.5 489.564,-18.5 548.564,-18.5 548.564,-0.5 489.564,-0.5"/>
<text text-anchor="middle" x="519.064" y="-7.3" font-family="Calibri" font-size="9.00">src/main.c</text>
</a>
</g>
</g>
<!-- Node1&#45;&gt;Node6 -->
<g id="edge30" class="edge"><title>Node1&#45;&gt;Node6</title>
<path fill="none" stroke="midnightblue" d="M465.726,-277.067C561.258,-264.629 744.064,-233.28 744.064,-175.5 744.064,-175.5 744.064,-175.5 744.064,-118.5 744.064,-32.9243 610.147,-15.1089 548.942,-11.4354"/>
<polygon fill="midnightblue" stroke="midnightblue" points="465.122,-273.616 455.644,-278.352 466.007,-280.56 465.122,-273.616"/>
</g>
<!-- Node7 -->
<g id="node7" class="node"><title>Node7</title>
<g id="a_node7"><a xlink:href="oled__control_8h.html" target="_top" xlink:title="OLED/LCD control definitions for ATU&#45;100 EXT PIC16F1938.">
<polygon fill="none" stroke="black" points="156.064,-110.5 156.064,-128.5 266.064,-128.5 266.064,-110.5 156.064,-110.5"/>
<text text-anchor="middle" x="211.064" y="-117.3" font-family="Calibri" font-size="9.00">include/oled_control.h</text>
</a>
</g>
</g>
<!-- Node1&#45;&gt;Node7 -->
<g id="edge18" class="edge"><title>Node1&#45;&gt;Node7</title>
<path fill="none" stroke="midnightblue" d="M379.615,-271.381C344.235,-255.615 284.812,-225.146 246.064,-184 230.185,-167.138 219.051,-141.711 214.044,-128.742"/>
<polygon fill="midnightblue" stroke="midnightblue" points="378.354,-274.649 388.919,-275.434 381.149,-268.232 378.354,-274.649"/>
</g>
<!-- Node8 -->
<g id="node8" class="node"><title>Node8</title>
<g id="a_node8"><a xlink:href="pic__init_8h.html" target="_top" xlink:title="PIC microcontroller initialization definitions for ATU&#45;100 EXT PIC16F1938.">
<polygon fill="none" stroke="black" points="512.564,-110.5 512.564,-128.5 601.564,-128.5 601.564,-110.5 512.564,-110.5"/>
<text text-anchor="middle" x="557.064" y="-117.3" font-family="Calibri" font-size="9.00">include/pic_init.h</text>
</a>
</g>
</g>
<!-- Node1&#45;&gt;Node8 -->
<g id="edge19" class="edge"><title>Node1&#45;&gt;Node8</title>
<path fill="none" stroke="midnightblue" d="M451.043,-272.185C470.159,-265.246 491.859,-254.621 507.064,-239 539.148,-206.039 551.973,-149.393 555.759,-128.523"/>
<polygon fill="midnightblue" stroke="midnightblue" points="449.673,-268.954 441.33,-275.484 451.924,-275.582 449.673,-268.954"/>
</g>
<!-- Node9 -->
<g id="node9" class="node"><title>Node9</title>
<g id="a_node9"><a xlink:href="pic__init_8c.html" target="_top" xlink:title="PIC microcontroller initialization routines for ATU&#45;100 EXT PIC16F1938.">
<polygon fill="none" stroke="black" points="589.064,-55.5 589.064,-73.5 657.064,-73.5 657.064,-55.5 589.064,-55.5"/>
<text text-anchor="middle" x="623.064" y="-62.3" font-family="Calibri" font-size="9.00">src/pic_init.c</text>
</a>
</g>
</g>
<!-- Node1&#45;&gt;Node9 -->
<g id="edge32" class="edge"><title>Node1&#45;&gt;Node9</title>
<path fill="none" stroke="midnightblue" d="M452.623,-272.593C476.234,-265.399 505.176,-254.422 528.064,-239 583.106,-201.912 604.978,-190.846 629.064,-129 636.378,-110.22 630.26,-86.0481 626.112,-73.6427"/>
<polygon fill="midnightblue" stroke="midnightblue" points="451.48,-269.28 442.863,-275.446 453.444,-275.999 451.48,-269.28"/>
</g>
<!-- Node10 -->
<g id="node10" class="node"><title>Node10</title>
<g id="a_node10"><a xlink:href="preprocessor_8h.html" target="_top" xlink:title=" ">
<polygon fill="none" stroke="black" points="353.064,-220.5 353.064,-238.5 465.064,-238.5 465.064,-220.5 353.064,-220.5"/>
<text text-anchor="middle" x="409.064" y="-227.3" font-family="Calibri" font-size="9.00">include/preprocessor.h</text>
</a>
</g>
</g>
<!-- Node1&#45;&gt;Node10 -->
<g id="edge20" class="edge"><title>Node1&#45;&gt;Node10</title>
<path fill="none" stroke="midnightblue" d="M402.608,-265.175C401.935,-256.094 402.417,-245.595 404.055,-238.55"/>
<polygon fill="midnightblue" stroke="midnightblue" points="399.16,-265.795 404.002,-275.219 406.094,-264.833 399.16,-265.795"/>
</g>
<!-- Node2&#45;&gt;Node3 -->
<g id="edge2" class="edge"><title>Node2&#45;&gt;Node3</title>
<path fill="none" stroke="midnightblue" d="M280.314,-163.562C227.572,-153.434 146.775,-137.919 97.9239,-128.538"/>
<polygon fill="midnightblue" stroke="midnightblue" points="279.665,-167.002 290.146,-165.45 280.985,-160.127 279.665,-167.002"/>
</g>
<!-- Node2&#45;&gt;Node4 -->
<g id="edge14" class="edge"><title>Node2&#45;&gt;Node4</title>
<path fill="none" stroke="midnightblue" d="M321.01,-156.723C310.721,-142.36 294.135,-122.133 275.064,-110 243.905,-90.1764 203.435,-78.7775 172.848,-72.4898"/>
<polygon fill="midnightblue" stroke="midnightblue" points="318.271,-158.918 326.824,-165.171 324.037,-154.949 318.271,-158.918"/>
</g>
<!-- Node2&#45;&gt;Node5 -->
<g id="edge4" class="edge"><title>Node2&#45;&gt;Node5</title>
<path fill="none" stroke="midnightblue" d="M344.979,-157.492C356.721,-143.668 375.07,-123.799 394.064,-110 415.781,-94.223 443.939,-81.3242 462.929,-73.55"/>
<polygon fill="midnightblue" stroke="midnightblue" points="342.267,-155.28 338.575,-165.211 347.654,-159.75 342.267,-155.28"/>
</g>
<!-- Node2&#45;&gt;Node6 -->
<g id="edge13" class="edge"><title>Node2&#45;&gt;Node6</title>
<path fill="none" stroke="midnightblue" d="M339.801,-156.019C346.228,-142.612 356.217,-124.077 368.064,-110 405.766,-65.202 468.676,-32.868 500.055,-18.6134"/>
<polygon fill="midnightblue" stroke="midnightblue" points="336.444,-154.943 335.442,-165.49 342.802,-157.869 336.444,-154.943"/>
</g>
<!-- Node2&#45;&gt;Node7 -->
<g id="edge6" class="edge"><title>Node2&#45;&gt;Node7</title>
<path fill="none" stroke="midnightblue" d="M304.481,-161.418C281.562,-151.379 249.584,-137.372 229.614,-128.625"/>
<polygon fill="midnightblue" stroke="midnightblue" points="303.123,-164.644 313.687,-165.45 305.931,-158.232 303.123,-164.644"/>
</g>
<!-- Node2&#45;&gt;Node8 -->
<g id="edge9" class="edge"><title>Node2&#45;&gt;Node8</title>
<path fill="none" stroke="midnightblue" d="M376.143,-163.117C419.159,-152.984 483.695,-137.783 522.939,-128.538"/>
<polygon fill="midnightblue" stroke="midnightblue" points="375.168,-159.751 366.237,-165.45 376.773,-166.564 375.168,-159.751"/>
</g>
<!-- Node2&#45;&gt;Node9 -->
<g id="edge15" class="edge"><title>Node2&#45;&gt;Node9</title>
<path fill="none" stroke="midnightblue" d="M363.117,-161.964C397.38,-149.236 454.153,-128.15 503.064,-110 537.436,-97.2449 577.351,-82.4457 601.385,-73.5361"/>
<polygon fill="midnightblue" stroke="midnightblue" points="361.813,-158.714 353.658,-165.478 364.251,-165.276 361.813,-158.714"/>
</g>
<!-- Node3&#45;&gt;Node4 -->
<g id="edge3" class="edge"><title>Node3&#45;&gt;Node4</title>
<path fill="none" stroke="midnightblue" d="M75.0944,-104.492C88.4653,-94.6491 105.886,-81.8255 117.026,-73.6253"/>
<polygon fill="midnightblue" stroke="midnightblue" points="72.9778,-101.704 66.9993,-110.45 77.1276,-107.341 72.9778,-101.704"/>
</g>
<!-- Node5&#45;&gt;Node6 -->
<g id="edge5" class="edge"><title>Node5&#45;&gt;Node6</title>
<path fill="none" stroke="midnightblue" d="M495.186,-46.6576C501.393,-37.2587 508.84,-25.9821 513.748,-18.5496"/>
<polygon fill="midnightblue" stroke="midnightblue" points="492.123,-44.9454 489.533,-55.2188 497.964,-48.8028 492.123,-44.9454"/>
</g>
<!-- Node7&#45;&gt;Node4 -->
<g id="edge8" class="edge"><title>Node7&#45;&gt;Node4</title>
<path fill="none" stroke="midnightblue" d="M190.002,-105.051C174.48,-95.1393 153.875,-81.9817 140.789,-73.6253"/>
<polygon fill="midnightblue" stroke="midnightblue" points="188.146,-108.018 198.458,-110.45 191.914,-102.119 188.146,-108.018"/>
</g>
<!-- Node7&#45;&gt;Node6 -->
<g id="edge7" class="edge"><title>Node7&#45;&gt;Node6</title>
<path fill="none" stroke="midnightblue" d="M230.245,-104.548C250.941,-90.1263 285.344,-67.945 318.064,-55 376.39,-31.9242 449.211,-19.5736 489.241,-14.088"/>
<polygon fill="midnightblue" stroke="midnightblue" points="228.143,-101.749 222.007,-110.386 232.19,-107.46 228.143,-101.749"/>
</g>
<!-- Node8&#45;&gt;Node5 -->
<g id="edge10" class="edge"><title>Node8&#45;&gt;Node5</title>
<path fill="none" stroke="midnightblue" d="M537.769,-104.492C524.213,-94.6491 506.55,-81.8255 495.256,-73.6253"/>
<polygon fill="midnightblue" stroke="midnightblue" points="535.828,-107.408 545.977,-110.45 539.941,-101.743 535.828,-107.408"/>
</g>
<!-- Node8&#45;&gt;Node6 -->
<g id="edge11" class="edge"><title>Node8&#45;&gt;Node6</title>
<path fill="none" stroke="midnightblue" d="M550.867,-100.887C542.543,-77.231 528.09,-36.1538 521.953,-18.7118"/>
<polygon fill="midnightblue" stroke="midnightblue" points="547.587,-102.111 554.208,-110.382 554.19,-99.7876 547.587,-102.111"/>
</g>
<!-- Node8&#45;&gt;Node9 -->
<g id="edge12" class="edge"><title>Node8&#45;&gt;Node9</title>
<path fill="none" stroke="midnightblue" d="M575.213,-103.926C587.371,-94.1622 602.929,-81.6693 612.946,-73.6253"/>
<polygon fill="midnightblue" stroke="midnightblue" points="572.694,-101.46 567.088,-110.45 577.077,-106.918 572.694,-101.46"/>
</g>
<!-- Node10&#45;&gt;Node1 -->
<g id="edge21" class="edge"><title>Node10&#45;&gt;Node1</title>
<path fill="none" stroke="midnightblue" d="M415.498,-248.529C416.196,-257.577 415.739,-268.099 414.127,-275.219"/>
<polygon fill="midnightblue" stroke="midnightblue" points="418.951,-247.955 414.073,-238.55 412.022,-248.944 418.951,-247.955"/>
</g>
<!-- Node10&#45;&gt;Node2 -->
<g id="edge22" class="edge"><title>Node10&#45;&gt;Node2</title>
<path fill="none" stroke="midnightblue" d="M389.12,-214.772C374.768,-204.894 355.896,-191.904 343.869,-183.625"/>
<polygon fill="midnightblue" stroke="midnightblue" points="387.148,-217.664 397.369,-220.45 391.117,-211.898 387.148,-217.664"/>
</g>
<!-- Node10&#45;&gt;Node3 -->
<g id="edge23" class="edge"><title>Node10&#45;&gt;Node3</title>
<path fill="none" stroke="midnightblue" d="M342.82,-223.666C268.283,-217.333 152.579,-204.552 114.064,-184 89.2994,-170.785 69.628,-142.734 60.925,-128.764"/>
<polygon fill="midnightblue" stroke="midnightblue" points="342.797,-227.176 353.052,-224.517 343.377,-220.2 342.797,-227.176"/>
</g>
<!-- Node10&#45;&gt;Node4 -->
<g id="edge28" class="edge"><title>Node10&#45;&gt;Node4</title>
<path fill="none" stroke="midnightblue" d="M342.658,-221.976C282.014,-212.299 194.764,-188.323 147.064,-129 133.796,-112.499 129.786,-86.9141 128.579,-73.8277"/>
<polygon fill="midnightblue" stroke="midnightblue" points="342.494,-225.49 352.904,-223.515 343.535,-218.568 342.494,-225.49"/>
</g>
<!-- Node10&#45;&gt;Node5 -->
<g id="edge24" class="edge"><title>Node10&#45;&gt;Node5</title>
<path fill="none" stroke="midnightblue" d="M417.228,-210.757C433.365,-175.685 468.784,-98.7088 480.338,-73.5971"/>
<polygon fill="midnightblue" stroke="midnightblue" points="413.887,-209.645 412.886,-220.193 420.246,-212.571 413.887,-209.645"/>
</g>
<!-- Node10&#45;&gt;Node6 -->
<g id="edge27" class="edge"><title>Node10&#45;&gt;Node6</title>
<path fill="none" stroke="midnightblue" d="M473.24,-218.421C504.195,-211.719 541.033,-200.935 571.064,-184 627.332,-152.27 647.215,-135.786 666.064,-74 681.233,-24.276 595.804,-13.313 548.651,-11.0156"/>
<polygon fill="midnightblue" stroke="midnightblue" points="472.495,-215.001 463.412,-220.456 473.914,-221.855 472.495,-215.001"/>
</g>
<!-- Node10&#45;&gt;Node7 -->
<g id="edge25" class="edge"><title>Node10&#45;&gt;Node7</title>
<path fill="none" stroke="midnightblue" d="M356.951,-217.99C330.203,-211.053 297.901,-200.19 272.064,-184 247.97,-168.902 226.686,-142.222 216.848,-128.76"/>
<polygon fill="midnightblue" stroke="midnightblue" points="356.357,-221.448 366.906,-220.459 358.043,-214.654 356.357,-221.448"/>
</g>
<!-- Node10&#45;&gt;Node8 -->
<g id="edge26" class="edge"><title>Node10&#45;&gt;Node8</title>
<path fill="none" stroke="midnightblue" d="M428.564,-214.27C459.96,-191.36 520.725,-147.018 545.811,-128.712"/>
<polygon fill="midnightblue" stroke="midnightblue" points="426.203,-211.66 420.188,-220.382 430.329,-217.315 426.203,-211.66"/>
</g>
<!-- Node10&#45;&gt;Node9 -->
<g id="edge29" class="edge"><title>Node10&#45;&gt;Node9</title>
<path fill="none" stroke="midnightblue" d="M456.814,-217.782C503.222,-204.804 572.091,-178.279 610.064,-129 622.702,-112.599 623.889,-86.9702 623.557,-73.8514"/>
<polygon fill="midnightblue" stroke="midnightblue" points="455.732,-214.449 446.982,-220.424 457.548,-221.209 455.732,-214.449"/>
</g>
</g>
</svg>
