<?xml version="1.0" encoding="UTF-8" standalone="no"?>
<!DOCTYPE svg PUBLIC "-//W3C//DTD SVG 1.1//EN"
 "http://www.w3.org/Graphics/SVG/1.1/DTD/svg11.dtd">
<!-- Generated by graphviz version 2.38.0 (20140413.2041)
 -->
<!-- Title: include/common.h Pages: 1 -->
<svg width="314pt" height="137pt"
 viewBox="0.00 0.00 314.00 137.00" xmlns="http://www.w3.org/2000/svg" xmlns:xlink="http://www.w3.org/1999/xlink">
<g id="graph0" class="graph" transform="scale(1 1) rotate(0) translate(4 133)">
<title>include/common.h</title>
<!-- Node1 -->
<g id="node1" class="node"><title>Node1</title>
<g id="a_node1"><a xlink:title=" ">
<polygon fill="#bfbfbf" stroke="black" points="139.5,-110.5 139.5,-128.5 232.5,-128.5 232.5,-110.5 139.5,-110.5"/>
<text text-anchor="middle" x="186" y="-117.3" font-family="Calibri" font-size="9.00">include/common.h</text>
</a>
</g>
</g>
<!-- Node2 -->
<g id="node2" class="node"><title>Node2</title>
<g id="a_node2"><a xlink:title=" ">
<polygon fill="none" stroke="#bfbfbf" points="74,-0.5 74,-18.5 106,-18.5 106,-0.5 74,-0.5"/>
<text text-anchor="middle" x="90" y="-7.3" font-family="Calibri" font-size="9.00">xc.h</text>
</a>
</g>
</g>
<!-- Node1&#45;&gt;Node2 -->
<g id="edge1" class="edge"><title>Node1&#45;&gt;Node2</title>
<path fill="none" stroke="midnightblue" d="M139.235,-117.71C106.245,-114.396 64.1342,-104.007 42,-74 29.3103,-56.7967 49.4816,-37.1987 67.4347,-24.3811"/>
<polygon fill="midnightblue" stroke="midnightblue" points="69.5737,-27.1605 75.9162,-18.6738 65.6657,-21.3529 69.5737,-27.1605"/>
</g>
<!-- Node3 -->
<g id="node3" class="node"><title>Node3</title>
<g id="a_node3"><a xlink:title=" ">
<polygon fill="none" stroke="#bfbfbf" points="0,-0.5 0,-18.5 56,-18.5 56,-0.5 0,-0.5"/>
<text text-anchor="middle" x="28" y="-7.3" font-family="Calibri" font-size="9.00">stdbool.h</text>
</a>
</g>
</g>
<!-- Node1&#45;&gt;Node3 -->
<g id="edge2" class="edge"><title>Node1&#45;&gt;Node3</title>
<path fill="none" stroke="midnightblue" d="M139.445,-117.762C105.192,-114.556 60.3506,-104.281 35,-74 24.6543,-61.6421 23.7982,-42.8539 24.992,-28.917"/>
<polygon fill="midnightblue" stroke="midnightblue" points="28.5147,-28.9625 26.3136,-18.5988 21.5714,-28.0731 28.5147,-28.9625"/>
</g>
<!-- Node4 -->
<g id="node4" class="node"><title>Node4</title>
<g id="a_node4"><a xlink:title=" ">
<polygon fill="none" stroke="#bfbfbf" points="124,-0.5 124,-18.5 174,-18.5 174,-0.5 124,-0.5"/>
<text text-anchor="middle" x="149" y="-7.3" font-family="Calibri" font-size="9.00">stddef.h</text>
</a>
</g>
</g>
<!-- Node1&#45;&gt;Node4 -->
<g id="edge3" class="edge"><title>Node1&#45;&gt;Node4</title>
<path fill="none" stroke="midnightblue" d="M199.634,-110.43C217.638,-98.6992 245.661,-76.0346 233,-55 222.301,-37.2238 201.852,-26.175 183.81,-19.5332"/>
<polygon fill="midnightblue" stroke="midnightblue" points="184.705,-16.1419 174.111,-16.2819 182.48,-22.7789 184.705,-16.1419"/>
</g>
<!-- Node5 -->
<g id="node5" class="node"><title>Node5</title>
<g id="a_node5"><a xlink:title=" ">
<polygon fill="none" stroke="#bfbfbf" points="258,-0.5 258,-18.5 306,-18.5 306,-0.5 258,-0.5"/>
<text text-anchor="middle" x="282" y="-7.3" font-family="Calibri" font-size="9.00">stdint.h</text>
</a>
</g>
</g>
<!-- Node1&#45;&gt;Node5 -->
<g id="edge4" class="edge"><title>Node1&#45;&gt;Node5</title>
<path fill="none" stroke="midnightblue" d="M227.377,-110.479C247.823,-104.204 270.696,-93.1821 283,-74 291.557,-60.6593 290.189,-42.2787 287.344,-28.7247"/>
<polygon fill="midnightblue" stroke="midnightblue" points="290.649,-27.5199 284.792,-18.6912 283.865,-29.2454 290.649,-27.5199"/>
</g>
<!-- Node6 -->
<g id="node6" class="node"><title>Node6</title>
<g id="a_node6"><a xlink:title=" ">
<polygon fill="none" stroke="#bfbfbf" points="192,-0.5 192,-18.5 240,-18.5 240,-0.5 192,-0.5"/>
<text text-anchor="middle" x="216" y="-7.3" font-family="Calibri" font-size="9.00">stdlib.h</text>
</a>
</g>
</g>
<!-- Node1&#45;&gt;Node6 -->
<g id="edge5" class="edge"><title>Node1&#45;&gt;Node6</title>
<path fill="none" stroke="midnightblue" d="M216.196,-110.421C234.373,-103.83 256.053,-92.5046 267,-74 278.013,-55.3843 257.655,-36.3431 239.485,-24.0317"/>
<polygon fill="midnightblue" stroke="midnightblue" points="241.203,-20.9765 230.888,-18.5598 237.445,-26.8819 241.203,-20.9765"/>
</g>
<!-- Node7 -->
<g id="node7" class="node"><title>Node7</title>
<g id="a_node7"><a xlink:href="eeprom__map_8h.html" target="_top" xlink:title=" ">
<polygon fill="none" stroke="black" points="51,-55.5 51,-73.5 129,-73.5 129,-55.5 51,-55.5"/>
<text text-anchor="middle" x="90" y="-62.3" font-family="Calibri" font-size="9.00">eeprom_map.h</text>
</a>
</g>
</g>
<!-- Node1&#45;&gt;Node7 -->
<g id="edge6" class="edge"><title>Node1&#45;&gt;Node7</title>
<path fill="none" stroke="midnightblue" d="M171.42,-110.45C156.054,-101.968 131.619,-88.477 113.522,-78.486"/>
<polygon fill="midnightblue" stroke="midnightblue" points="115.164,-75.3945 104.718,-73.6253 111.78,-81.5226 115.164,-75.3945"/>
</g>
<!-- Node8 -->
<g id="node8" class="node"><title>Node8</title>
<g id="a_node8"><a xlink:href="preprocessor_8h.html" target="_top" xlink:title=" ">
<polygon fill="none" stroke="black" points="147.5,-55.5 147.5,-73.5 224.5,-73.5 224.5,-55.5 147.5,-55.5"/>
<text text-anchor="middle" x="186" y="-62.3" font-family="Calibri" font-size="9.00">preprocessor.h</text>
</a>
</g>
</g>
<!-- Node1&#45;&gt;Node8 -->
<g id="edge12" class="edge"><title>Node1&#45;&gt;Node8</title>
<path fill="none" stroke="midnightblue" d="M180.938,-110.219C179.325,-103.099 178.868,-92.5775 179.566,-83.5289"/>
<polygon fill="midnightblue" stroke="midnightblue" points="183.043,-83.9438 180.991,-73.5496 176.113,-82.9547 183.043,-83.9438"/>
</g>
<!-- Node7&#45;&gt;Node2 -->
<g id="edge7" class="edge"><title>Node7&#45;&gt;Node2</title>
<path fill="none" stroke="midnightblue" d="M90,-55.2188C90,-48.1769 90,-37.8083 90,-28.8277"/>
<polygon fill="midnightblue" stroke="midnightblue" points="93.5001,-28.5495 90,-18.5496 86.5001,-28.5496 93.5001,-28.5495"/>
</g>
<!-- Node7&#45;&gt;Node3 -->
<g id="edge8" class="edge"><title>Node7&#45;&gt;Node3</title>
<path fill="none" stroke="midnightblue" d="M80.5835,-55.4504C71.2063,-47.4345 56.5984,-34.9471 45.1568,-25.1663"/>
<polygon fill="midnightblue" stroke="midnightblue" points="47.3806,-22.4627 37.5051,-18.6253 42.8321,-27.7836 47.3806,-22.4627"/>
</g>
<!-- Node7&#45;&gt;Node4 -->
<g id="edge9" class="edge"><title>Node7&#45;&gt;Node4</title>
<path fill="none" stroke="midnightblue" d="M98.9608,-55.4504C107.798,-47.5123 121.516,-35.1891 132.355,-25.4519"/>
<polygon fill="midnightblue" stroke="midnightblue" points="134.855,-27.9118 139.955,-18.6253 130.177,-22.7043 134.855,-27.9118"/>
</g>
<!-- Node7&#45;&gt;Node5 -->
<g id="edge10" class="edge"><title>Node7&#45;&gt;Node5</title>
<path fill="none" stroke="midnightblue" d="M119.161,-55.4504C153.777,-45.8949 211.411,-29.9855 248.015,-19.8812"/>
<polygon fill="midnightblue" stroke="midnightblue" points="249.037,-23.2301 257.745,-17.1953 247.175,-16.4824 249.037,-23.2301"/>
</g>
<!-- Node7&#45;&gt;Node6 -->
<g id="edge11" class="edge"><title>Node7&#45;&gt;Node6</title>
<path fill="none" stroke="midnightblue" d="M109.137,-55.4504C129.951,-46.6951 163.447,-32.6055 187.389,-22.5346"/>
<polygon fill="midnightblue" stroke="midnightblue" points="188.823,-25.7289 196.683,-18.6253 186.108,-19.2765 188.823,-25.7289"/>
</g>
<!-- Node8&#45;&gt;Node1 -->
<g id="edge18" class="edge"><title>Node8&#45;&gt;Node1</title>
<path fill="none" stroke="midnightblue" d="M191.009,-73.5496C192.647,-80.5949 193.129,-91.0945 192.456,-100.175"/>
<polygon fill="midnightblue" stroke="midnightblue" points="188.97,-99.8326 191.063,-110.219 195.904,-100.795 188.97,-99.8326"/>
</g>
<!-- Node8&#45;&gt;Node2 -->
<g id="edge13" class="edge"><title>Node8&#45;&gt;Node2</title>
<path fill="none" stroke="midnightblue" d="M171.42,-55.4504C156.054,-46.9675 131.619,-33.477 113.522,-23.486"/>
<polygon fill="midnightblue" stroke="midnightblue" points="115.164,-20.3945 104.718,-18.6253 111.78,-26.5226 115.164,-20.3945"/>
</g>
<!-- Node8&#45;&gt;Node3 -->
<g id="edge14" class="edge"><title>Node8&#45;&gt;Node3</title>
<path fill="none" stroke="midnightblue" d="M162.003,-55.4504C135.245,-46.4745 91.7729,-31.8922 61.6309,-21.7813"/>
<polygon fill="midnightblue" stroke="midnightblue" points="62.5572,-18.4004 51.9633,-18.5383 60.331,-25.0369 62.5572,-18.4004"/>
</g>
<!-- Node8&#45;&gt;Node4 -->
<g id="edge15" class="edge"><title>Node8&#45;&gt;Node4</title>
<path fill="none" stroke="midnightblue" d="M180.219,-55.2188C174.92,-47.6292 166.924,-36.1753 160.351,-26.7597"/>
<polygon fill="midnightblue" stroke="midnightblue" points="163.214,-24.7457 154.62,-18.5496 157.474,-28.7527 163.214,-24.7457"/>
</g>
<!-- Node8&#45;&gt;Node5 -->
<g id="edge16" class="edge"><title>Node8&#45;&gt;Node5</title>
<path fill="none" stroke="midnightblue" d="M200.58,-55.4504C215.946,-46.9675 240.381,-33.477 258.478,-23.486"/>
<polygon fill="midnightblue" stroke="midnightblue" points="260.22,-26.5226 267.282,-18.6253 256.836,-20.3945 260.22,-26.5226"/>
</g>
<!-- Node8&#45;&gt;Node6 -->
<g id="edge17" class="edge"><title>Node8&#45;&gt;Node6</title>
<path fill="none" stroke="midnightblue" d="M190.688,-55.2188C194.895,-47.7856 201.2,-36.646 206.465,-27.3446"/>
<polygon fill="midnightblue" stroke="midnightblue" points="209.564,-28.9763 211.444,-18.5496 203.472,-25.528 209.564,-28.9763"/>
</g>
</g>
</svg>
