<?xml version="1.0" encoding="UTF-8" standalone="no"?>
<!DOCTYPE svg PUBLIC "-//W3C//DTD SVG 1.1//EN"
 "http://www.w3.org/Graphics/SVG/1.1/DTD/svg11.dtd">
<!-- Generated by graphviz version 2.38.0 (20140413.2041)
 -->
<!-- Title: include/extratypes.h Pages: 1 -->
<!--zoomable 247 -->
<svg id="main" version="1.1" xmlns="http://www.w3.org/2000/svg" xmlns:xlink="http://www.w3.org/1999/xlink" xml:space="preserve" onload="init(evt)">
<style type="text/css"><![CDATA[
.edge:hover path { stroke: red; }
.edge:hover polygon { stroke: red; fill: red; }
]]></style>
<script type="text/javascript"><![CDATA[
var edges = document.getElementsByTagName('g');
if (edges && edges.length) {
  for (var i=0;i<edges.length;i++) {
    if (edges[i].id.substr(0,4)=='edge') {
      edges[i].setAttribute('class','edge');
    }
  }
}
]]></script>
        <defs>
                <circle id="rim" cx="0" cy="0" r="7"/>
                <circle id="rim2" cx="0" cy="0" r="3.5"/>
                <g id="zoomPlus">
                        <use xlink:href="#rim" fill="#404040">
                                <set attributeName="fill" to="#808080" begin="zoomplus.mouseover" end="zoomplus.mouseout"/>
                        </use>
                        <path d="M-4,0h8M0,-4v8" fill="none" stroke="white" stroke-width="1.5" pointer-events="none"/>
                </g>
                <g id="zoomMin">
                        <use xlink:href="#rim" fill="#404040">
                                <set attributeName="fill" to="#808080" begin="zoomminus.mouseover" end="zoomminus.mouseout"/>
                        </use>
                        <path d="M-4,0h8" fill="none" stroke="white" stroke-width="1.5" pointer-events="none"/>
                </g>
                <g id="dirArrow">
                        <path fill="none" stroke="white" stroke-width="1.5" d="M0,-3.0v7 M-2.5,-0.5L0,-3.0L2.5,-0.5"/>
                </g>
               <g id="resetDef">
                       <use xlink:href="#rim2" fill="#404040">
                               <set attributeName="fill" to="#808080" begin="reset.mouseover" end="reset.mouseout"/>
                       </use>
               </g>
        </defs>

<script type="text/javascript">
var viewWidth = 535;
var viewHeight = 247;
var sectionId = 'dynsection-0';
</script>
<script xlink:href="svgpan.js"/>
<svg id="graph" class="graph">
<g id="viewport">
<title>include/extratypes.h</title>
<!-- Node1 -->
<g id="node1" class="node"><title>Node1</title>
<g id="a_node1"><a xlink:title=" ">
<polygon fill="#bfbfbf" stroke="black" points="266.5,-220.5 266.5,-238.5 367.5,-238.5 367.5,-220.5 266.5,-220.5"/>
<text text-anchor="middle" x="317" y="-227.3" font-family="Calibri" font-size="9.00">include/extratypes.h</text>
</a>
</g>
</g>
<!-- Node2 -->
<g id="node2" class="node"><title>Node2</title>
<g id="a_node2"><a xlink:title=" ">
<polygon fill="none" stroke="#bfbfbf" points="126,-0.5 126,-18.5 158,-18.5 158,-0.5 126,-0.5"/>
<text text-anchor="middle" x="142" y="-7.3" font-family="Calibri" font-size="9.00">xc.h</text>
</a>
</g>
</g>
<!-- Node1&#45;&gt;Node2 -->
<g id="edge1" class="edge"><title>Node1&#45;&gt;Node2</title>
<path fill="none" stroke="midnightblue" d="M301.634,-220.459C266.328,-200.985 180.002,-147.432 148,-74 141.773,-59.7105 140.579,-41.9362 140.767,-28.83"/>
<polygon fill="midnightblue" stroke="midnightblue" points="144.269,-28.8582 141.196,-18.7189 137.275,-28.5617 144.269,-28.8582"/>
</g>
<!-- Node3 -->
<g id="node3" class="node"><title>Node3</title>
<g id="a_node3"><a xlink:title=" ">
<polygon fill="none" stroke="#bfbfbf" points="0,-0.5 0,-18.5 56,-18.5 56,-0.5 0,-0.5"/>
<text text-anchor="middle" x="28" y="-7.3" font-family="Calibri" font-size="9.00">stdbool.h</text>
</a>
</g>
</g>
<!-- Node1&#45;&gt;Node3 -->
<g id="edge2" class="edge"><title>Node1&#45;&gt;Node3</title>
<path fill="none" stroke="midnightblue" d="M294.729,-220.375C274.283,-212.462 243.531,-199.397 219,-184 144.461,-137.217 71.8493,-60.068 42.099,-26.7047"/>
<polygon fill="midnightblue" stroke="midnightblue" points="44.4201,-24.0452 35.1794,-18.8624 39.1711,-28.6765 44.4201,-24.0452"/>
</g>
<!-- Node4 -->
<g id="node4" class="node"><title>Node4</title>
<g id="a_node4"><a xlink:title=" ">
<polygon fill="none" stroke="#bfbfbf" points="303,-0.5 303,-18.5 353,-18.5 353,-0.5 303,-0.5"/>
<text text-anchor="middle" x="328" y="-7.3" font-family="Calibri" font-size="9.00">stddef.h</text>
</a>
</g>
</g>
<!-- Node1&#45;&gt;Node4 -->
<g id="edge3" class="edge"><title>Node1&#45;&gt;Node4</title>
<path fill="none" stroke="midnightblue" d="M347.196,-220.421C365.373,-213.83 387.053,-202.505 398,-184 430.336,-129.34 372.442,-56.9637 343.286,-25.8201"/>
<polygon fill="midnightblue" stroke="midnightblue" points="345.699,-23.2798 336.243,-18.5008 340.655,-28.1334 345.699,-23.2798"/>
</g>
<!-- Node5 -->
<g id="node5" class="node"><title>Node5</title>
<g id="a_node5"><a xlink:title=" ">
<polygon fill="none" stroke="#bfbfbf" points="404,-0.5 404,-18.5 452,-18.5 452,-0.5 404,-0.5"/>
<text text-anchor="middle" x="428" y="-7.3" font-family="Calibri" font-size="9.00">stdint.h</text>
</a>
</g>
</g>
<!-- Node1&#45;&gt;Node5 -->
<g id="edge4" class="edge"><title>Node1&#45;&gt;Node5</title>
<path fill="none" stroke="midnightblue" d="M358.163,-220.497C378.994,-214.209 402.639,-203.17 416,-184 449.194,-136.375 439.297,-62.4224 432.311,-28.5514"/>
<polygon fill="midnightblue" stroke="midnightblue" points="435.707,-27.6992 430.12,-18.6973 428.874,-29.2186 435.707,-27.6992"/>
</g>
<!-- Node6 -->
<g id="node6" class="node"><title>Node6</title>
<g id="a_node6"><a xlink:title=" ">
<polygon fill="none" stroke="#bfbfbf" points="479,-0.5 479,-18.5 527,-18.5 527,-0.5 479,-0.5"/>
<text text-anchor="middle" x="503" y="-7.3" font-family="Calibri" font-size="9.00">stdlib.h</text>
</a>
</g>
</g>
<!-- Node1&#45;&gt;Node6 -->
<g id="edge5" class="edge"><title>Node1&#45;&gt;Node6</title>
<path fill="none" stroke="midnightblue" d="M364.074,-220.474C388.26,-214.189 416.636,-203.159 436,-184 480.338,-140.133 495.912,-63.6845 500.886,-28.7986"/>
<polygon fill="midnightblue" stroke="midnightblue" points="504.384,-29.0338 502.192,-18.6682 497.442,-28.1382 504.384,-29.0338"/>
</g>
<!-- Node7 -->
<g id="node7" class="node"><title>Node7</title>
<g id="a_node7"><a xlink:href="eeprom__map_8h.html" target="_top" xlink:title=" ">
<polygon fill="none" stroke="black" points="189,-55.5 189,-73.5 267,-73.5 267,-55.5 189,-55.5"/>
<text text-anchor="middle" x="228" y="-62.3" font-family="Calibri" font-size="9.00">eeprom_map.h</text>
</a>
</g>
</g>
<!-- Node1&#45;&gt;Node7 -->
<g id="edge6" class="edge"><title>Node1&#45;&gt;Node7</title>
<path fill="none" stroke="midnightblue" d="M311.556,-220.462C300.397,-203.815 274.432,-164.178 256,-129 248.136,-113.992 240.463,-96.3114 235.144,-83.4229"/>
<polygon fill="midnightblue" stroke="midnightblue" points="238.278,-81.8391 231.277,-73.8875 231.792,-84.4698 238.278,-81.8391"/>
</g>
<!-- Node8 -->
<g id="node8" class="node"><title>Node8</title>
<g id="a_node8"><a xlink:href="preprocessor_8h.html" target="_top" xlink:title=" ">
<polygon fill="none" stroke="black" points="312.5,-165.5 312.5,-183.5 389.5,-183.5 389.5,-165.5 312.5,-165.5"/>
<text text-anchor="middle" x="351" y="-172.3" font-family="Calibri" font-size="9.00">preprocessor.h</text>
</a>
</g>
</g>
<!-- Node1&#45;&gt;Node8 -->
<g id="edge12" class="edge"><title>Node1&#45;&gt;Node8</title>
<path fill="none" stroke="midnightblue" d="M322.313,-220.219C327.131,-212.707 334.378,-201.411 340.382,-192.052"/>
<polygon fill="midnightblue" stroke="midnightblue" points="343.382,-193.856 345.836,-183.55 337.491,-190.077 343.382,-193.856"/>
</g>
<!-- Node9 -->
<g id="node9" class="node"><title>Node9</title>
<g id="a_node9"><a xlink:href="common_8h.html" target="_top" xlink:title=" ">
<polygon fill="none" stroke="black" points="265.5,-110.5 265.5,-128.5 324.5,-128.5 324.5,-110.5 265.5,-110.5"/>
<text text-anchor="middle" x="295" y="-117.3" font-family="Calibri" font-size="9.00">common.h</text>
</a>
</g>
</g>
<!-- Node1&#45;&gt;Node9 -->
<g id="edge26" class="edge"><title>Node1&#45;&gt;Node9</title>
<path fill="none" stroke="midnightblue" d="M313.974,-220.417C310.783,-211.59 305.835,-196.976 303,-184 299.732,-169.04 297.664,-151.784 296.451,-139.04"/>
<polygon fill="midnightblue" stroke="midnightblue" points="299.915,-138.462 295.568,-128.8 292.941,-139.064 299.915,-138.462"/>
</g>
<!-- Node7&#45;&gt;Node2 -->
<g id="edge7" class="edge"><title>Node7&#45;&gt;Node2</title>
<path fill="none" stroke="midnightblue" d="M214.938,-55.4504C201.426,-47.1232 180.084,-33.9704 163.97,-24.0394"/>
<polygon fill="midnightblue" stroke="midnightblue" points="165.534,-20.8922 155.184,-18.6253 161.861,-26.8515 165.534,-20.8922"/>
</g>
<!-- Node7&#45;&gt;Node3 -->
<g id="edge8" class="edge"><title>Node7&#45;&gt;Node3</title>
<path fill="none" stroke="midnightblue" d="M197.624,-55.4504C162.314,-46.0933 104.013,-30.6434 65.8037,-20.518"/>
<polygon fill="midnightblue" stroke="midnightblue" points="66.6354,-17.1176 56.0725,-17.9392 64.8422,-23.8841 66.6354,-17.1176"/>
</g>
<!-- Node7&#45;&gt;Node4 -->
<g id="edge9" class="edge"><title>Node7&#45;&gt;Node4</title>
<path fill="none" stroke="midnightblue" d="M243.188,-55.4504C259.267,-46.9286 284.881,-33.3532 303.757,-23.3487"/>
<polygon fill="midnightblue" stroke="midnightblue" points="305.473,-26.4008 312.669,-18.6253 302.194,-20.2158 305.473,-26.4008"/>
</g>
<!-- Node7&#45;&gt;Node5 -->
<g id="edge10" class="edge"><title>Node7&#45;&gt;Node5</title>
<path fill="none" stroke="midnightblue" d="M258.376,-55.4504C294.834,-45.789 355.803,-29.6322 393.859,-19.5475"/>
<polygon fill="midnightblue" stroke="midnightblue" points="395.175,-22.8194 403.945,-16.8745 393.382,-16.0529 395.175,-22.8194"/>
</g>
<!-- Node7&#45;&gt;Node6 -->
<g id="edge11" class="edge"><title>Node7&#45;&gt;Node6</title>
<path fill="none" stroke="midnightblue" d="M267.19,-56.151C313.512,-47.4331 392.912,-32.3914 461,-19 463.491,-18.5101 466.064,-17.9997 468.653,-17.4831"/>
<polygon fill="midnightblue" stroke="midnightblue" points="469.464,-20.8902 478.579,-15.4894 468.086,-14.0273 469.464,-20.8902"/>
</g>
<!-- Node8&#45;&gt;Node2 -->
<g id="edge13" class="edge"><title>Node8&#45;&gt;Node2</title>
<path fill="none" stroke="midnightblue" d="M318.831,-165.491C276.187,-153.175 201.612,-125.434 161,-74 150.749,-61.0176 146.02,-42.5929 143.843,-28.9314"/>
<polygon fill="midnightblue" stroke="midnightblue" points="147.288,-28.2764 142.55,-18.8 140.344,-29.1627 147.288,-28.2764"/>
</g>
<!-- Node8&#45;&gt;Node3 -->
<g id="edge14" class="edge"><title>Node8&#45;&gt;Node3</title>
<path fill="none" stroke="midnightblue" d="M312.425,-165.968C280.504,-158.896 234.485,-146.73 197,-129 157.995,-110.552 152.341,-98.7534 117,-74 93.0372,-57.2161 65.6668,-37.6239 47.6787,-24.6892"/>
<polygon fill="midnightblue" stroke="midnightblue" points="49.3558,-21.584 39.1951,-18.5822 45.2662,-27.2651 49.3558,-21.584"/>
</g>
<!-- Node8&#45;&gt;Node4 -->
<g id="edge15" class="edge"><title>Node8&#45;&gt;Node4</title>
<path fill="none" stroke="midnightblue" d="M349.828,-165.193C346.275,-140.013 335.565,-64.1144 330.591,-28.8621"/>
<polygon fill="midnightblue" stroke="midnightblue" points="334.005,-28.01 329.143,-18.5971 327.074,-28.9881 334.005,-28.01"/>
</g>
<!-- Node8&#45;&gt;Node5 -->
<g id="edge16" class="edge"><title>Node8&#45;&gt;Node5</title>
<path fill="none" stroke="midnightblue" d="M354.924,-165.193C366.922,-139.794 403.298,-62.7906 419.756,-27.9517"/>
<polygon fill="midnightblue" stroke="midnightblue" points="423.068,-29.134 424.175,-18.5971 416.739,-26.144 423.068,-29.134"/>
</g>
<!-- Node8&#45;&gt;Node6 -->
<g id="edge17" class="edge"><title>Node8&#45;&gt;Node6</title>
<path fill="none" stroke="midnightblue" d="M358.747,-165.193C382.84,-139.356 456.729,-60.12 488.371,-26.1878"/>
<polygon fill="midnightblue" stroke="midnightblue" points="491.189,-28.2977 495.449,-18.5971 486.07,-23.5237 491.189,-28.2977"/>
</g>
<!-- Node8&#45;&gt;Node9 -->
<g id="edge18" class="edge"><title>Node8&#45;&gt;Node9</title>
<path fill="none" stroke="midnightblue" d="M337.485,-165.45C327.554,-157.746 314.639,-145.91 305.476,-136.318"/>
<polygon fill="midnightblue" stroke="midnightblue" points="307.848,-133.72 298.558,-128.625 302.643,-138.401 307.848,-133.72"/>
</g>
<!-- Node9&#45;&gt;Node2 -->
<g id="edge19" class="edge"><title>Node9&#45;&gt;Node2</title>
<path fill="none" stroke="midnightblue" d="M265.305,-112.697C240.286,-106.573 204.716,-94.8342 180,-74 165.44,-61.7271 155.002,-42.3794 148.793,-28.2633"/>
<polygon fill="midnightblue" stroke="midnightblue" points="151.902,-26.6187 144.871,-18.6923 145.424,-29.2727 151.902,-26.6187"/>
</g>
<!-- Node9&#45;&gt;Node3 -->
<g id="edge20" class="edge"><title>Node9&#45;&gt;Node3</title>
<path fill="none" stroke="midnightblue" d="M267.435,-110.449C240.088,-102.205 197.152,-88.5668 161,-74 122.108,-58.3289 78.5082,-36.7004 52.165,-23.1632"/>
<polygon fill="midnightblue" stroke="midnightblue" points="53.7712,-20.0536 43.281,-18.5679 50.5551,-26.271 53.7712,-20.0536"/>
</g>
<!-- Node9&#45;&gt;Node4 -->
<g id="edge21" class="edge"><title>Node9&#45;&gt;Node4</title>
<path fill="none" stroke="midnightblue" d="M297.48,-110.382C302.76,-93.104 315.219,-52.3294 322.481,-28.5629"/>
<polygon fill="midnightblue" stroke="midnightblue" points="325.916,-29.2981 325.491,-18.7118 319.221,-27.2525 325.916,-29.2981"/>
</g>
<!-- Node9&#45;&gt;Node5 -->
<g id="edge22" class="edge"><title>Node9&#45;&gt;Node5</title>
<path fill="none" stroke="midnightblue" d="M304.997,-110.382C327.334,-92.244 381.558,-48.2122 409.964,-25.1455"/>
<polygon fill="midnightblue" stroke="midnightblue" points="412.331,-27.7325 417.887,-18.7118 407.918,-22.2985 412.331,-27.7325"/>
</g>
<!-- Node9&#45;&gt;Node6 -->
<g id="edge23" class="edge"><title>Node9&#45;&gt;Node6</title>
<path fill="none" stroke="midnightblue" d="M310.634,-110.382C346.558,-91.7293 435.222,-45.6924 478.476,-23.2335"/>
<polygon fill="midnightblue" stroke="midnightblue" points="480.206,-26.2789 487.469,-18.5644 476.981,-20.0664 480.206,-26.2789"/>
</g>
<!-- Node9&#45;&gt;Node7 -->
<g id="edge24" class="edge"><title>Node9&#45;&gt;Node7</title>
<path fill="none" stroke="midnightblue" d="M284.824,-110.45C274.592,-102.357 258.598,-89.7042 246.181,-79.8822"/>
<polygon fill="midnightblue" stroke="midnightblue" points="248.286,-77.0844 238.272,-73.6253 243.943,-82.5744 248.286,-77.0844"/>
</g>
<!-- Node9&#45;&gt;Node8 -->
<g id="edge25" class="edge"><title>Node9&#45;&gt;Node8</title>
<path fill="none" stroke="midnightblue" d="M308.515,-128.55C318.394,-136.214 331.227,-147.967 340.381,-157.533"/>
<polygon fill="midnightblue" stroke="midnightblue" points="338.016,-160.137 347.313,-165.219 343.214,-155.449 338.016,-160.137"/>
</g>
</g>
</svg>
        <g id="navigator" transform="translate(0 0)" fill="#404254">
                <rect fill="#f2f5e9" fill-opacity="0.5" stroke="#606060" stroke-width=".5" x="0" y="0" width="60" height="60"/>
                <use id="zoomplus" xlink:href="#zoomPlus" x="17" y="9" onmousedown="handleZoom(evt,'in')"/>
                <use id="zoomminus" xlink:href="#zoomMin" x="42" y="9" onmousedown="handleZoom(evt,'out')"/>
                <use id="reset" xlink:href="#resetDef" x="30" y="36" onmousedown="handleReset()"/>
                <g id="arrowUp" xlink:href="#dirArrow" transform="translate(30 24)" onmousedown="handlePan(0,-1)">
                  <use xlink:href="#rim" fill="#404040">
                        <set attributeName="fill" to="#808080" begin="arrowUp.mouseover" end="arrowUp.mouseout"/>
                  </use>
                  <path fill="none" stroke="white" stroke-width="1.5" d="M0,-3.0v7 M-2.5,-0.5L0,-3.0L2.5,-0.5"/>
                </g>
                <g id="arrowRight" xlink:href="#dirArrow" transform="rotate(90) translate(36 -43)" onmousedown="handlePan(1,0)">
                  <use xlink:href="#rim" fill="#404040">
                        <set attributeName="fill" to="#808080" begin="arrowRight.mouseover" end="arrowRight.mouseout"/>
                  </use>
                  <path fill="none" stroke="white" stroke-width="1.5" d="M0,-3.0v7 M-2.5,-0.5L0,-3.0L2.5,-0.5"/>
                </g>
                <g id="arrowDown" xlink:href="#dirArrow" transform="rotate(180) translate(-30 -48)" onmousedown="handlePan(0,1)">
                  <use xlink:href="#rim" fill="#404040">
                        <set attributeName="fill" to="#808080" begin="arrowDown.mouseover" end="arrowDown.mouseout"/>
                  </use>
                  <path fill="none" stroke="white" stroke-width="1.5" d="M0,-3.0v7 M-2.5,-0.5L0,-3.0L2.5,-0.5"/>
                </g>
                <g id="arrowLeft" xlink:href="#dirArrow" transform="rotate(270) translate(-36 17)" onmousedown="handlePan(-1,0)">
                  <use xlink:href="#rim" fill="#404040">
                        <set attributeName="fill" to="#808080" begin="arrowLeft.mouseover" end="arrowLeft.mouseout"/>
                  </use>
                  <path fill="none" stroke="white" stroke-width="1.5" d="M0,-3.0v7 M-2.5,-0.5L0,-3.0L2.5,-0.5"/>
                </g>
        </g>
        <svg viewBox="0 0 15 15" width="100%" height="30px" preserveAspectRatio="xMaxYMin meet">
         <g id="arrow_out" transform="scale(0.3 0.3)">
          <a xlink:href="extratypes_8h__incl_org.svg" target="_base">
           <rect id="button" ry="5" rx="5" y="6" x="6" height="38" width="38"
                fill="#f2f5e9" fill-opacity="0.5" stroke="#606060" stroke-width="1.0"/>
           <path id="arrow"
             d="M 11.500037,31.436501 C 11.940474,20.09759 22.043105,11.32322 32.158766,21.979434 L 37.068811,17.246167 C 37.068811,17.246167 37.088388,32 37.088388,32 L 22.160133,31.978069 C 22.160133,31.978069 26.997745,27.140456 26.997745,27.140456 C 18.528582,18.264221 13.291696,25.230495 11.500037,31.436501 z"
             style="fill:#404040;"/>
          </a>
         </g>
        </svg>
</svg>
