<?xml version="1.0" encoding="UTF-8" standalone="no"?>
<!DOCTYPE svg PUBLIC "-//W3C//DTD SVG 1.1//EN"
 "http://www.w3.org/Graphics/SVG/1.1/DTD/svg11.dtd">
<!-- Generated by graphviz version 2.38.0 (20140413.2041)
 -->
<!-- Title: correction Pages: 1 -->
<!--zoomable 179 -->
<svg id="main" version="1.1" xmlns="http://www.w3.org/2000/svg" xmlns:xlink="http://www.w3.org/1999/xlink" xml:space="preserve" onload="init(evt)">
<style type="text/css"><![CDATA[
.edge:hover path { stroke: red; }
.edge:hover polygon { stroke: red; fill: red; }
]]></style>
<script type="text/javascript"><![CDATA[
var edges = document.getElementsByTagName('g');
if (edges && edges.length) {
  for (var i=0;i<edges.length;i++) {
    if (edges[i].id.substr(0,4)=='edge') {
      edges[i].setAttribute('class','edge');
    }
  }
}
]]></script>
        <defs>
                <circle id="rim" cx="0" cy="0" r="7"/>
                <circle id="rim2" cx="0" cy="0" r="3.5"/>
                <g id="zoomPlus">
                        <use xlink:href="#rim" fill="#404040">
                                <set attributeName="fill" to="#808080" begin="zoomplus.mouseover" end="zoomplus.mouseout"/>
                        </use>
                        <path d="M-4,0h8M0,-4v8" fill="none" stroke="white" stroke-width="1.5" pointer-events="none"/>
                </g>
                <g id="zoomMin">
                        <use xlink:href="#rim" fill="#404040">
                                <set attributeName="fill" to="#808080" begin="zoomminus.mouseover" end="zoomminus.mouseout"/>
                        </use>
                        <path d="M-4,0h8" fill="none" stroke="white" stroke-width="1.5" pointer-events="none"/>
                </g>
                <g id="dirArrow">
                        <path fill="none" stroke="white" stroke-width="1.5" d="M0,-3.0v7 M-2.5,-0.5L0,-3.0L2.5,-0.5"/>
                </g>
               <g id="resetDef">
                       <use xlink:href="#rim2" fill="#404040">
                               <set attributeName="fill" to="#808080" begin="reset.mouseover" end="reset.mouseout"/>
                       </use>
               </g>
        </defs>

<script type="text/javascript">
var viewWidth = 506;
var viewHeight = 179;
var sectionId = 'dynsection-13';
</script>
<script xlink:href="svgpan.js"/>
<svg id="graph" class="graph">
<g id="viewport">
<title>correction</title>
<!-- Node173 -->
<g id="node1" class="node"><title>Node173</title>
<polygon fill="#bfbfbf" stroke="black" points="0,-76.5 0,-94.5 57,-94.5 57,-76.5 0,-76.5"/>
<text text-anchor="middle" x="28.5" y="-83.3" font-family="Calibri" font-size="9.00">correction</text>
</g>
<!-- Node174 -->
<g id="node2" class="node"><title>Node174</title>
<g id="a_node2"><a xlink:href="main__main_8h.html#ab37ca657b79c6b9176cb63e9d812a182" target="_top" xlink:title="get_pwr">
<polygon fill="none" stroke="black" points="93,-76.5 93,-94.5 142,-94.5 142,-76.5 93,-76.5"/>
<text text-anchor="middle" x="117.5" y="-83.3" font-family="Calibri" font-size="9.00">get_pwr</text>
</a>
</g>
</g>
<!-- Node173&#45;&gt;Node174 -->
<g id="edge1" class="edge"><title>Node173&#45;&gt;Node174</title>
<path fill="none" stroke="midnightblue" d="M67.0982,-85.5C75.8799,-85.5 84.9885,-85.5 92.9565,-85.5"/>
<polygon fill="midnightblue" stroke="midnightblue" points="67.0274,-82.0001 57.0273,-85.5 67.0273,-89.0001 67.0274,-82.0001"/>
</g>
<!-- Node175 -->
<g id="node3" class="node"><title>Node175</title>
<g id="a_node3"><a xlink:href="main__main_8h.html#a6c26e075660bdd7a54df984ec3fc7ff4" target="_top" xlink:title="get_swr">
<polygon fill="none" stroke="black" points="178,-76.5 178,-94.5 226,-94.5 226,-76.5 178,-76.5"/>
<text text-anchor="middle" x="202" y="-83.3" font-family="Calibri" font-size="9.00">get_swr</text>
</a>
</g>
</g>
<!-- Node174&#45;&gt;Node175 -->
<g id="edge2" class="edge"><title>Node174&#45;&gt;Node175</title>
<path fill="none" stroke="midnightblue" d="M152.436,-85.5C160.953,-85.5 169.899,-85.5 177.76,-85.5"/>
<polygon fill="midnightblue" stroke="midnightblue" points="152.362,-82.0001 142.362,-85.5 152.362,-89.0001 152.362,-82.0001"/>
</g>
<!-- Node176 -->
<g id="node4" class="node"><title>Node176</title>
<g id="a_node4"><a xlink:href="main__main_8h.html#a740ef1b33bb02cd952ad7d8708999472" target="_top" xlink:title="coarse_cap">
<polygon fill="none" stroke="black" points="262,-152.5 262,-170.5 324,-170.5 324,-152.5 262,-152.5"/>
<text text-anchor="middle" x="293" y="-159.3" font-family="Calibri" font-size="9.00">coarse_cap</text>
</a>
</g>
</g>
<!-- Node175&#45;&gt;Node176 -->
<g id="edge3" class="edge"><title>Node175&#45;&gt;Node176</title>
<path fill="none" stroke="midnightblue" d="M220.991,-101.754C232.579,-112.124 248.034,-125.77 262,-137.5 267.925,-142.476 274.64,-147.87 280.213,-152.282"/>
<polygon fill="midnightblue" stroke="midnightblue" points="223.092,-98.9365 213.314,-94.8572 218.414,-104.144 223.092,-98.9365"/>
</g>
<!-- Node177 -->
<g id="node5" class="node"><title>Node177</title>
<g id="a_node5"><a xlink:href="main__main_8h.html#a5c7c60c7d70cf76cc52e87722bb0f614" target="_top" xlink:title="coarse_tune">
<polygon fill="none" stroke="black" points="360,-114.5 360,-132.5 427,-132.5 427,-114.5 360,-114.5"/>
<text text-anchor="middle" x="393.5" y="-121.3" font-family="Calibri" font-size="9.00">coarse_tune</text>
</a>
</g>
</g>
<!-- Node175&#45;&gt;Node177 -->
<g id="edge6" class="edge"><title>Node175&#45;&gt;Node177</title>
<path fill="none" stroke="midnightblue" d="M236.085,-93.6648C244.517,-95.6591 253.577,-97.7274 262,-99.5 295.25,-106.498 333.507,-113.399 359.963,-117.992"/>
<polygon fill="midnightblue" stroke="midnightblue" points="236.737,-90.2221 226.197,-91.2937 235.105,-97.0291 236.737,-90.2221"/>
</g>
<!-- Node178 -->
<g id="node6" class="node"><title>Node178</title>
<g id="a_node6"><a xlink:href="main__main_8h.html#a1849f2e5bd63d11a7b9549470e287d17" target="_top" xlink:title="tune">
<polygon fill="none" stroke="black" points="463,-57.5 463,-75.5 498,-75.5 498,-57.5 463,-57.5"/>
<text text-anchor="middle" x="480.5" y="-64.3" font-family="Calibri" font-size="9.00">tune</text>
</a>
</g>
</g>
<!-- Node175&#45;&gt;Node178 -->
<g id="edge11" class="edge"><title>Node175&#45;&gt;Node178</title>
<path fill="none" stroke="midnightblue" d="M236.086,-83.2265C295.502,-79.1436 418.239,-70.7096 462.838,-67.6449"/>
<polygon fill="midnightblue" stroke="midnightblue" points="235.835,-79.7353 226.099,-83.9128 236.315,-86.7189 235.835,-79.7353"/>
</g>
<!-- Node179 -->
<g id="node7" class="node"><title>Node179</title>
<g id="a_node7"><a xlink:href="main__main_8h.html#ab518a3d2c723f12d3af3024a195606ce" target="_top" xlink:title="sharp_cap">
<polygon fill="none" stroke="black" points="364,-38.5 364,-56.5 423,-56.5 423,-38.5 364,-38.5"/>
<text text-anchor="middle" x="393.5" y="-45.3" font-family="Calibri" font-size="9.00">sharp_cap</text>
</a>
</g>
</g>
<!-- Node175&#45;&gt;Node179 -->
<g id="edge7" class="edge"><title>Node175&#45;&gt;Node179</title>
<path fill="none" stroke="midnightblue" d="M236.085,-77.3352C244.517,-75.3409 253.577,-73.2726 262,-71.5 296.941,-64.1466 337.411,-56.8995 363.905,-52.3256"/>
<polygon fill="midnightblue" stroke="midnightblue" points="235.105,-73.9709 226.197,-79.7063 236.737,-80.7779 235.105,-73.9709"/>
</g>
<!-- Node180 -->
<g id="node8" class="node"><title>Node180</title>
<g id="a_node8"><a xlink:href="main__main_8h.html#a72210b3ed1d5691c5bbda8c7f1e97197" target="_top" xlink:title="sharp_ind">
<polygon fill="none" stroke="black" points="264,-0.5 264,-18.5 322,-18.5 322,-0.5 264,-0.5"/>
<text text-anchor="middle" x="293" y="-7.3" font-family="Calibri" font-size="9.00">sharp_ind</text>
</a>
</g>
</g>
<!-- Node175&#45;&gt;Node180 -->
<g id="edge9" class="edge"><title>Node175&#45;&gt;Node180</title>
<path fill="none" stroke="midnightblue" d="M220.991,-69.2456C232.579,-58.8761 248.034,-45.2296 262,-33.5 267.925,-28.524 274.64,-23.1298 280.213,-18.718"/>
<polygon fill="midnightblue" stroke="midnightblue" points="218.414,-66.8562 213.314,-76.1428 223.092,-72.0635 218.414,-66.8562"/>
</g>
<!-- Node176&#45;&gt;Node177 -->
<g id="edge4" class="edge"><title>Node176&#45;&gt;Node177</title>
<path fill="none" stroke="midnightblue" d="M326.959,-148.785C340.728,-143.473 356.411,-137.423 368.983,-132.573"/>
<polygon fill="midnightblue" stroke="midnightblue" points="325.413,-145.63 317.343,-152.495 327.933,-152.161 325.413,-145.63"/>
</g>
<!-- Node177&#45;&gt;Node178 -->
<g id="edge5" class="edge"><title>Node177&#45;&gt;Node178</title>
<path fill="none" stroke="midnightblue" d="M416.694,-108.617C432.28,-98.1652 452.63,-84.5189 465.877,-75.6353"/>
<polygon fill="midnightblue" stroke="midnightblue" points="414.513,-105.865 408.157,-114.342 418.412,-111.679 414.513,-105.865"/>
</g>
<!-- Node179&#45;&gt;Node178 -->
<g id="edge8" class="edge"><title>Node179&#45;&gt;Node178</title>
<path fill="none" stroke="midnightblue" d="M433.056,-56.1184C443.443,-58.4401 454.146,-60.8326 462.656,-62.7349"/>
<polygon fill="midnightblue" stroke="midnightblue" points="433.8,-52.6984 423.277,-53.9325 432.273,-59.5298 433.8,-52.6984"/>
</g>
<!-- Node180&#45;&gt;Node178 -->
<g id="edge10" class="edge"><title>Node180&#45;&gt;Node178</title>
<path fill="none" stroke="midnightblue" d="M332.314,-10.1161C359.594,-11.7015 396.647,-16.228 427,-28.5 443.69,-35.2479 460.025,-48.4047 469.93,-57.3233"/>
<polygon fill="midnightblue" stroke="midnightblue" points="332.159,-6.605 322.005,-9.629 331.829,-13.5972 332.159,-6.605"/>
</g>
</g>
</svg>
        <g id="navigator" transform="translate(0 0)" fill="#404254">
                <rect fill="#f2f5e9" fill-opacity="0.5" stroke="#606060" stroke-width=".5" x="0" y="0" width="60" height="60"/>
                <use id="zoomplus" xlink:href="#zoomPlus" x="17" y="9" onmousedown="handleZoom(evt,'in')"/>
                <use id="zoomminus" xlink:href="#zoomMin" x="42" y="9" onmousedown="handleZoom(evt,'out')"/>
                <use id="reset" xlink:href="#resetDef" x="30" y="36" onmousedown="handleReset()"/>
                <g id="arrowUp" xlink:href="#dirArrow" transform="translate(30 24)" onmousedown="handlePan(0,-1)">
                  <use xlink:href="#rim" fill="#404040">
                        <set attributeName="fill" to="#808080" begin="arrowUp.mouseover" end="arrowUp.mouseout"/>
                  </use>
                  <path fill="none" stroke="white" stroke-width="1.5" d="M0,-3.0v7 M-2.5,-0.5L0,-3.0L2.5,-0.5"/>
                </g>
                <g id="arrowRight" xlink:href="#dirArrow" transform="rotate(90) translate(36 -43)" onmousedown="handlePan(1,0)">
                  <use xlink:href="#rim" fill="#404040">
                        <set attributeName="fill" to="#808080" begin="arrowRight.mouseover" end="arrowRight.mouseout"/>
                  </use>
                  <path fill="none" stroke="white" stroke-width="1.5" d="M0,-3.0v7 M-2.5,-0.5L0,-3.0L2.5,-0.5"/>
                </g>
                <g id="arrowDown" xlink:href="#dirArrow" transform="rotate(180) translate(-30 -48)" onmousedown="handlePan(0,1)">
                  <use xlink:href="#rim" fill="#404040">
                        <set attributeName="fill" to="#808080" begin="arrowDown.mouseover" end="arrowDown.mouseout"/>
                  </use>
                  <path fill="none" stroke="white" stroke-width="1.5" d="M0,-3.0v7 M-2.5,-0.5L0,-3.0L2.5,-0.5"/>
                </g>
                <g id="arrowLeft" xlink:href="#dirArrow" transform="rotate(270) translate(-36 17)" onmousedown="handlePan(-1,0)">
                  <use xlink:href="#rim" fill="#404040">
                        <set attributeName="fill" to="#808080" begin="arrowLeft.mouseover" end="arrowLeft.mouseout"/>
                  </use>
                  <path fill="none" stroke="white" stroke-width="1.5" d="M0,-3.0v7 M-2.5,-0.5L0,-3.0L2.5,-0.5"/>
                </g>
        </g>
        <svg viewBox="0 0 15 15" width="100%" height="30px" preserveAspectRatio="xMaxYMin meet">
         <g id="arrow_out" transform="scale(0.3 0.3)">
          <a xlink:href="main__main_8h_ab19e6e081315a9a200394b74d10de395_icgraph_org.svg" target="_base">
           <rect id="button" ry="5" rx="5" y="6" x="6" height="38" width="38"
                fill="#f2f5e9" fill-opacity="0.5" stroke="#606060" stroke-width="1.0"/>
           <path id="arrow"
             d="M 11.500037,31.436501 C 11.940474,20.09759 22.043105,11.32322 32.158766,21.979434 L 37.068811,17.246167 C 37.068811,17.246167 37.088388,32 37.088388,32 L 22.160133,31.978069 C 22.160133,31.978069 26.997745,27.140456 26.997745,27.140456 C 18.528582,18.264221 13.291696,25.230495 11.500037,31.436501 z"
             style="fill:#404040;"/>
          </a>
         </g>
        </svg>
</svg>
