<?xml version="1.0" encoding="UTF-8" standalone="no"?>
<!DOCTYPE svg PUBLIC "-//W3C//DTD SVG 1.1//EN"
 "http://www.w3.org/Graphics/SVG/1.1/DTD/svg11.dtd">
<!-- Generated by graphviz version 2.38.0 (20140413.2041)
 -->
<!-- Title: lcd_prep Pages: 1 -->
<!--zoomable 170 -->
<svg id="main" version="1.1" xmlns="http://www.w3.org/2000/svg" xmlns:xlink="http://www.w3.org/1999/xlink" xml:space="preserve" onload="init(evt)">
<style type="text/css"><![CDATA[
.edge:hover path { stroke: red; }
.edge:hover polygon { stroke: red; fill: red; }
]]></style>
<script type="text/javascript"><![CDATA[
var edges = document.getElementsByTagName('g');
if (edges && edges.length) {
  for (var i=0;i<edges.length;i++) {
    if (edges[i].id.substr(0,4)=='edge') {
      edges[i].setAttribute('class','edge');
    }
  }
}
]]></script>
        <defs>
                <circle id="rim" cx="0" cy="0" r="7"/>
                <circle id="rim2" cx="0" cy="0" r="3.5"/>
                <g id="zoomPlus">
                        <use xlink:href="#rim" fill="#404040">
                                <set attributeName="fill" to="#808080" begin="zoomplus.mouseover" end="zoomplus.mouseout"/>
                        </use>
                        <path d="M-4,0h8M0,-4v8" fill="none" stroke="white" stroke-width="1.5" pointer-events="none"/>
                </g>
                <g id="zoomMin">
                        <use xlink:href="#rim" fill="#404040">
                                <set attributeName="fill" to="#808080" begin="zoomminus.mouseover" end="zoomminus.mouseout"/>
                        </use>
                        <path d="M-4,0h8" fill="none" stroke="white" stroke-width="1.5" pointer-events="none"/>
                </g>
                <g id="dirArrow">
                        <path fill="none" stroke="white" stroke-width="1.5" d="M0,-3.0v7 M-2.5,-0.5L0,-3.0L2.5,-0.5"/>
                </g>
               <g id="resetDef">
                       <use xlink:href="#rim2" fill="#404040">
                               <set attributeName="fill" to="#808080" begin="reset.mouseover" end="reset.mouseout"/>
                       </use>
               </g>
        </defs>

<script type="text/javascript">
var viewWidth = 567;
var viewHeight = 170;
var sectionId = 'dynsection-22';
</script>
<script xlink:href="svgpan.js"/>
<svg id="graph" class="graph">
<g id="viewport">
<title>lcd_prep</title>
<!-- Node277 -->
<g id="node1" class="node"><title>Node277</title>
<polygon fill="#bfbfbf" stroke="black" points="0,-69.7254 0,-87.7254 52,-87.7254 52,-69.7254 0,-69.7254"/>
<text text-anchor="middle" x="26" y="-76.5254" font-family="Calibri" font-size="9.00">lcd_prep</text>
</g>
<!-- Node278 -->
<g id="node2" class="node"><title>Node278</title>
<g id="a_node2"><a xlink:href="main_8c.html#a6911b3f075cdf1d54cb14f17f6e5ef6b" target="_top" xlink:title="lcd_ind">
<polygon fill="none" stroke="black" points="88,-50.7254 88,-68.7254 135,-68.7254 135,-50.7254 88,-50.7254"/>
<text text-anchor="middle" x="111.5" y="-57.5254" font-family="Calibri" font-size="9.00">lcd_ind</text>
</a>
</g>
</g>
<!-- Node277&#45;&gt;Node278 -->
<g id="edge1" class="edge"><title>Node277&#45;&gt;Node278</title>
<path fill="none" stroke="midnightblue" d="M52.0528,-73.0247C60.2012,-71.1706 69.3656,-69.0853 77.9784,-67.1255"/>
<polygon fill="midnightblue" stroke="midnightblue" points="78.7677,-70.5354 87.7419,-64.9039 77.2145,-63.7099 78.7677,-70.5354"/>
</g>
<!-- Node279 -->
<g id="node3" class="node"><title>Node279</title>
<g id="a_node3"><a xlink:href="oled__control_8c.html#a9d56c6c2e653b24a0caf505492ad818a" target="_top" xlink:title="led_wr_str">
<polygon fill="none" stroke="black" points="171,-69.7254 171,-87.7254 230,-87.7254 230,-69.7254 171,-69.7254"/>
<text text-anchor="middle" x="200.5" y="-76.5254" font-family="Calibri" font-size="9.00">led_wr_str</text>
</a>
</g>
</g>
<!-- Node277&#45;&gt;Node279 -->
<g id="edge14" class="edge"><title>Node277&#45;&gt;Node279</title>
<path fill="none" stroke="midnightblue" d="M52.083,-78.7254C80.5822,-78.7254 127.438,-78.7254 160.668,-78.7254"/>
<polygon fill="midnightblue" stroke="midnightblue" points="160.938,-82.2255 170.938,-78.7254 160.938,-75.2255 160.938,-82.2255"/>
</g>
<!-- Node278&#45;&gt;Node279 -->
<g id="edge2" class="edge"><title>Node278&#45;&gt;Node279</title>
<path fill="none" stroke="midnightblue" d="M135.358,-64.7174C143.174,-66.4243 152.148,-68.3841 160.858,-70.2863"/>
<polygon fill="midnightblue" stroke="midnightblue" points="160.361,-73.7602 170.877,-72.4744 161.854,-66.9213 160.361,-73.7602"/>
</g>
<!-- Node280 -->
<g id="node4" class="node"><title>Node280</title>
<g id="a_node4"><a xlink:href="oled__control_8c.html#a7c3a2e5f1fed76dc27692132a2574d27" target="_top" xlink:title="oled_wr_str">
<polygon fill="none" stroke="black" points="266,-88.7254 266,-106.725 331,-106.725 331,-88.7254 266,-88.7254"/>
<text text-anchor="middle" x="298.5" y="-95.5254" font-family="Calibri" font-size="9.00">oled_wr_str</text>
</a>
</g>
</g>
<!-- Node279&#45;&gt;Node280 -->
<g id="edge3" class="edge"><title>Node279&#45;&gt;Node280</title>
<path fill="none" stroke="midnightblue" d="M230.043,-84.3745C238.147,-85.9785 247.142,-87.7586 255.852,-89.4826"/>
<polygon fill="midnightblue" stroke="midnightblue" points="255.388,-92.9584 265.877,-91.4666 256.747,-86.0916 255.388,-92.9584"/>
</g>
<!-- Node285 -->
<g id="node9" class="node"><title>Node285</title>
<g id="a_node9"><a xlink:href="oled__control_8c.html#ad25764a33e482f4e9db2701198e02551" target="_top" xlink:title="led_send">
<polygon fill="none" stroke="black" points="271,-31.7254 271,-49.7254 326,-49.7254 326,-31.7254 271,-31.7254"/>
<text text-anchor="middle" x="298.5" y="-38.5254" font-family="Calibri" font-size="9.00">led_send</text>
</a>
</g>
</g>
<!-- Node279&#45;&gt;Node285 -->
<g id="edge10" class="edge"><title>Node279&#45;&gt;Node285</title>
<path fill="none" stroke="midnightblue" d="M224.251,-69.7199C236.476,-64.8808 251.755,-58.8326 265.192,-53.514"/>
<polygon fill="midnightblue" stroke="midnightblue" points="266.57,-56.7328 274.58,-49.7979 263.994,-50.2241 266.57,-56.7328"/>
</g>
<!-- Node281 -->
<g id="node5" class="node"><title>Node281</title>
<g id="a_node5"><a xlink:href="oled__control_8c.html#ab7f6b5c6c1483f6286f2de5786c028d9" target="_top" xlink:title="Soft_I2C_Start">
<polygon fill="none" stroke="black" points="485,-126.725 485,-144.725 557,-144.725 557,-126.725 485,-126.725"/>
<text text-anchor="middle" x="521" y="-133.525" font-family="Calibri" font-size="9.00">Soft_I2C_Start</text>
</a>
</g>
</g>
<!-- Node280&#45;&gt;Node281 -->
<g id="edge4" class="edge"><title>Node280&#45;&gt;Node281</title>
<path fill="none" stroke="midnightblue" d="M306.588,-106.857C317.727,-120.372 340.783,-145.137 367,-154.725 407.036,-169.368 456.474,-158.438 488.12,-148.087"/>
<polygon fill="midnightblue" stroke="midnightblue" points="489.418,-151.342 497.735,-144.779 487.141,-144.722 489.418,-151.342"/>
</g>
<!-- Node282 -->
<g id="node6" class="node"><title>Node282</title>
<g id="a_node6"><a xlink:href="oled__control_8c.html#a73610916645f17c19124e697b005f694" target="_top" xlink:title="Soft_I2C_Write">
<polygon fill="none" stroke="black" points="483,-88.7254 483,-106.725 559,-106.725 559,-88.7254 483,-88.7254"/>
<text text-anchor="middle" x="521" y="-95.5254" font-family="Calibri" font-size="9.00">Soft_I2C_Write</text>
</a>
</g>
</g>
<!-- Node280&#45;&gt;Node282 -->
<g id="edge5" class="edge"><title>Node280&#45;&gt;Node282</title>
<path fill="none" stroke="midnightblue" d="M331.092,-97.7254C368.166,-97.7254 430.001,-97.7254 472.776,-97.7254"/>
<polygon fill="midnightblue" stroke="midnightblue" points="472.944,-101.225 482.944,-97.7254 472.944,-94.2255 472.944,-101.225"/>
</g>
<!-- Node283 -->
<g id="node7" class="node"><title>Node283</title>
<g id="a_node7"><a xlink:href="oled__control_8c.html#a6df77e8ec83c50ed6a5ddaf54aa3a9c2" target="_top" xlink:title="set_addressing">
<polygon fill="none" stroke="black" points="367,-126.725 367,-144.725 447,-144.725 447,-126.725 367,-126.725"/>
<text text-anchor="middle" x="407" y="-133.525" font-family="Calibri" font-size="9.00">set_addressing</text>
</a>
</g>
</g>
<!-- Node280&#45;&gt;Node283 -->
<g id="edge6" class="edge"><title>Node280&#45;&gt;Node283</title>
<path fill="none" stroke="midnightblue" d="M324.739,-106.731C338.565,-111.664 355.912,-117.853 371.024,-123.246"/>
<polygon fill="midnightblue" stroke="midnightblue" points="369.978,-126.589 380.573,-126.653 372.331,-119.996 369.978,-126.589"/>
</g>
<!-- Node284 -->
<g id="node8" class="node"><title>Node284</title>
<g id="a_node8"><a xlink:href="oled__control_8c.html#a16eb842aa672ca44820ae6d5f9933425" target="_top" xlink:title="Soft_I2C_Stop">
<polygon fill="none" stroke="black" points="371.5,-50.7254 371.5,-68.7254 442.5,-68.7254 442.5,-50.7254 371.5,-50.7254"/>
<text text-anchor="middle" x="407" y="-57.5254" font-family="Calibri" font-size="9.00">Soft_I2C_Stop</text>
</a>
</g>
</g>
<!-- Node280&#45;&gt;Node284 -->
<g id="edge9" class="edge"><title>Node280&#45;&gt;Node284</title>
<path fill="none" stroke="midnightblue" d="M324.739,-88.7199C338.565,-83.7869 355.912,-77.5972 371.024,-72.205"/>
<polygon fill="midnightblue" stroke="midnightblue" points="372.331,-75.455 380.573,-68.7979 369.978,-68.8621 372.331,-75.455"/>
</g>
<!-- Node283&#45;&gt;Node281 -->
<g id="edge7" class="edge"><title>Node283&#45;&gt;Node281</title>
<path fill="none" stroke="midnightblue" d="M447.172,-135.725C456.064,-135.725 465.579,-135.725 474.701,-135.725"/>
<polygon fill="midnightblue" stroke="midnightblue" points="474.779,-139.225 484.779,-135.725 474.779,-132.225 474.779,-139.225"/>
</g>
<!-- Node283&#45;&gt;Node282 -->
<g id="edge8" class="edge"><title>Node283&#45;&gt;Node282</title>
<path fill="none" stroke="midnightblue" d="M434.542,-126.72C449.22,-121.74 467.673,-115.479 483.671,-110.051"/>
<polygon fill="midnightblue" stroke="midnightblue" points="484.915,-113.325 493.26,-106.798 482.666,-106.696 484.915,-113.325"/>
</g>
<!-- Node285&#45;&gt;Node281 -->
<g id="edge11" class="edge"><title>Node285&#45;&gt;Node281</title>
<path fill="none" stroke="midnightblue" d="M326.078,-32.7754C357.552,-25.04 410.322,-17.5146 447,-40.7254 478.583,-60.712 456.998,-89.877 483,-116.725 484.551,-118.327 486.266,-119.818 488.083,-121.203"/>
<polygon fill="midnightblue" stroke="midnightblue" points="486.201,-124.154 496.509,-126.602 489.977,-118.26 486.201,-124.154"/>
</g>
<!-- Node285&#45;&gt;Node282 -->
<g id="edge12" class="edge"><title>Node285&#45;&gt;Node282</title>
<path fill="none" stroke="midnightblue" d="M314.019,-31.5056C341.29,-15.4519 401.517,13.9465 447,-7.72536 478.045,-22.5177 500.177,-57.6799 511.459,-79.4157"/>
<polygon fill="midnightblue" stroke="midnightblue" points="508.427,-81.1823 515.994,-88.5981 514.704,-78.0822 508.427,-81.1823"/>
</g>
<!-- Node285&#45;&gt;Node284 -->
<g id="edge13" class="edge"><title>Node285&#45;&gt;Node284</title>
<path fill="none" stroke="midnightblue" d="M326.1,-45.4709C336.785,-47.3772 349.4,-49.6277 361.411,-51.7704"/>
<polygon fill="midnightblue" stroke="midnightblue" points="360.842,-55.2243 371.302,-53.5351 362.072,-48.3331 360.842,-55.2243"/>
</g>
</g>
</svg>
        <g id="navigator" transform="translate(0 0)" fill="#404254">
                <rect fill="#f2f5e9" fill-opacity="0.5" stroke="#606060" stroke-width=".5" x="0" y="0" width="60" height="60"/>
                <use id="zoomplus" xlink:href="#zoomPlus" x="17" y="9" onmousedown="handleZoom(evt,'in')"/>
                <use id="zoomminus" xlink:href="#zoomMin" x="42" y="9" onmousedown="handleZoom(evt,'out')"/>
                <use id="reset" xlink:href="#resetDef" x="30" y="36" onmousedown="handleReset()"/>
                <g id="arrowUp" xlink:href="#dirArrow" transform="translate(30 24)" onmousedown="handlePan(0,-1)">
                  <use xlink:href="#rim" fill="#404040">
                        <set attributeName="fill" to="#808080" begin="arrowUp.mouseover" end="arrowUp.mouseout"/>
                  </use>
                  <path fill="none" stroke="white" stroke-width="1.5" d="M0,-3.0v7 M-2.5,-0.5L0,-3.0L2.5,-0.5"/>
                </g>
                <g id="arrowRight" xlink:href="#dirArrow" transform="rotate(90) translate(36 -43)" onmousedown="handlePan(1,0)">
                  <use xlink:href="#rim" fill="#404040">
                        <set attributeName="fill" to="#808080" begin="arrowRight.mouseover" end="arrowRight.mouseout"/>
                  </use>
                  <path fill="none" stroke="white" stroke-width="1.5" d="M0,-3.0v7 M-2.5,-0.5L0,-3.0L2.5,-0.5"/>
                </g>
                <g id="arrowDown" xlink:href="#dirArrow" transform="rotate(180) translate(-30 -48)" onmousedown="handlePan(0,1)">
                  <use xlink:href="#rim" fill="#404040">
                        <set attributeName="fill" to="#808080" begin="arrowDown.mouseover" end="arrowDown.mouseout"/>
                  </use>
                  <path fill="none" stroke="white" stroke-width="1.5" d="M0,-3.0v7 M-2.5,-0.5L0,-3.0L2.5,-0.5"/>
                </g>
                <g id="arrowLeft" xlink:href="#dirArrow" transform="rotate(270) translate(-36 17)" onmousedown="handlePan(-1,0)">
                  <use xlink:href="#rim" fill="#404040">
                        <set attributeName="fill" to="#808080" begin="arrowLeft.mouseover" end="arrowLeft.mouseout"/>
                  </use>
                  <path fill="none" stroke="white" stroke-width="1.5" d="M0,-3.0v7 M-2.5,-0.5L0,-3.0L2.5,-0.5"/>
                </g>
        </g>
        <svg viewBox="0 0 15 15" width="100%" height="30px" preserveAspectRatio="xMaxYMin meet">
         <g id="arrow_out" transform="scale(0.3 0.3)">
          <a xlink:href="main__main_8h_a5b51833f12193accc58a0162848dc02e_cgraph_org.svg" target="_base">
           <rect id="button" ry="5" rx="5" y="6" x="6" height="38" width="38"
                fill="#f2f5e9" fill-opacity="0.5" stroke="#606060" stroke-width="1.0"/>
           <path id="arrow"
             d="M 11.500037,31.436501 C 11.940474,20.09759 22.043105,11.32322 32.158766,21.979434 L 37.068811,17.246167 C 37.068811,17.246167 37.088388,32 37.088388,32 L 22.160133,31.978069 C 22.160133,31.978069 26.997745,27.140456 26.997745,27.140456 C 18.528582,18.264221 13.291696,25.230495 11.500037,31.436501 z"
             style="fill:#404040;"/>
          </a>
         </g>
        </svg>
</svg>
