<?xml version="1.0" encoding="UTF-8" standalone="no"?>
<!DOCTYPE svg PUBLIC "-//W3C//DTD SVG 1.1//EN"
 "http://www.w3.org/Graphics/SVG/1.1/DTD/svg11.dtd">
<!-- Generated by graphviz version 2.38.0 (20140413.2041)
 -->
<!-- Title: get_forward Pages: 1 -->
<!--zoomable 179 -->
<svg id="main" version="1.1" xmlns="http://www.w3.org/2000/svg" xmlns:xlink="http://www.w3.org/1999/xlink" xml:space="preserve" onload="init(evt)">
<style type="text/css"><![CDATA[
.edge:hover path { stroke: red; }
.edge:hover polygon { stroke: red; fill: red; }
]]></style>
<script type="text/javascript"><![CDATA[
var edges = document.getElementsByTagName('g');
if (edges && edges.length) {
  for (var i=0;i<edges.length;i++) {
    if (edges[i].id.substr(0,4)=='edge') {
      edges[i].setAttribute('class','edge');
    }
  }
}
]]></script>
        <defs>
                <circle id="rim" cx="0" cy="0" r="7"/>
                <circle id="rim2" cx="0" cy="0" r="3.5"/>
                <g id="zoomPlus">
                        <use xlink:href="#rim" fill="#404040">
                                <set attributeName="fill" to="#808080" begin="zoomplus.mouseover" end="zoomplus.mouseout"/>
                        </use>
                        <path d="M-4,0h8M0,-4v8" fill="none" stroke="white" stroke-width="1.5" pointer-events="none"/>
                </g>
                <g id="zoomMin">
                        <use xlink:href="#rim" fill="#404040">
                                <set attributeName="fill" to="#808080" begin="zoomminus.mouseover" end="zoomminus.mouseout"/>
                        </use>
                        <path d="M-4,0h8" fill="none" stroke="white" stroke-width="1.5" pointer-events="none"/>
                </g>
                <g id="dirArrow">
                        <path fill="none" stroke="white" stroke-width="1.5" d="M0,-3.0v7 M-2.5,-0.5L0,-3.0L2.5,-0.5"/>
                </g>
               <g id="resetDef">
                       <use xlink:href="#rim2" fill="#404040">
                               <set attributeName="fill" to="#808080" begin="reset.mouseover" end="reset.mouseout"/>
                       </use>
               </g>
        </defs>

<script type="text/javascript">
var viewWidth = 514;
var viewHeight = 179;
var sectionId = 'dynsection-14';
</script>
<script xlink:href="svgpan.js"/>
<svg id="graph" class="graph">
<g id="viewport">
<title>get_forward</title>
<!-- Node184 -->
<g id="node1" class="node"><title>Node184</title>
<polygon fill="#bfbfbf" stroke="black" points="0,-76.5 0,-94.5 65,-94.5 65,-76.5 0,-76.5"/>
<text text-anchor="middle" x="32.5" y="-83.3" font-family="Calibri" font-size="9.00">get_forward</text>
</g>
<!-- Node185 -->
<g id="node2" class="node"><title>Node185</title>
<g id="a_node2"><a xlink:href="main__main_8h.html#ab37ca657b79c6b9176cb63e9d812a182" target="_top" xlink:title="get_pwr">
<polygon fill="none" stroke="black" points="101,-76.5 101,-94.5 150,-94.5 150,-76.5 101,-76.5"/>
<text text-anchor="middle" x="125.5" y="-83.3" font-family="Calibri" font-size="9.00">get_pwr</text>
</a>
</g>
</g>
<!-- Node184&#45;&gt;Node185 -->
<g id="edge1" class="edge"><title>Node184&#45;&gt;Node185</title>
<path fill="none" stroke="midnightblue" d="M75.1917,-85.5C83.9533,-85.5 92.9046,-85.5 100.734,-85.5"/>
<polygon fill="midnightblue" stroke="midnightblue" points="75.072,-82.0001 65.072,-85.5 75.072,-89.0001 75.072,-82.0001"/>
</g>
<!-- Node186 -->
<g id="node3" class="node"><title>Node186</title>
<g id="a_node3"><a xlink:href="main__main_8h.html#a6c26e075660bdd7a54df984ec3fc7ff4" target="_top" xlink:title="get_swr">
<polygon fill="none" stroke="black" points="186,-76.5 186,-94.5 234,-94.5 234,-76.5 186,-76.5"/>
<text text-anchor="middle" x="210" y="-83.3" font-family="Calibri" font-size="9.00">get_swr</text>
</a>
</g>
</g>
<!-- Node185&#45;&gt;Node186 -->
<g id="edge2" class="edge"><title>Node185&#45;&gt;Node186</title>
<path fill="none" stroke="midnightblue" d="M160.436,-85.5C168.953,-85.5 177.899,-85.5 185.76,-85.5"/>
<polygon fill="midnightblue" stroke="midnightblue" points="160.362,-82.0001 150.362,-85.5 160.362,-89.0001 160.362,-82.0001"/>
</g>
<!-- Node187 -->
<g id="node4" class="node"><title>Node187</title>
<g id="a_node4"><a xlink:href="main__main_8h.html#a740ef1b33bb02cd952ad7d8708999472" target="_top" xlink:title="coarse_cap">
<polygon fill="none" stroke="black" points="270,-152.5 270,-170.5 332,-170.5 332,-152.5 270,-152.5"/>
<text text-anchor="middle" x="301" y="-159.3" font-family="Calibri" font-size="9.00">coarse_cap</text>
</a>
</g>
</g>
<!-- Node186&#45;&gt;Node187 -->
<g id="edge3" class="edge"><title>Node186&#45;&gt;Node187</title>
<path fill="none" stroke="midnightblue" d="M228.991,-101.754C240.579,-112.124 256.034,-125.77 270,-137.5 275.925,-142.476 282.64,-147.87 288.213,-152.282"/>
<polygon fill="midnightblue" stroke="midnightblue" points="231.092,-98.9365 221.314,-94.8572 226.414,-104.144 231.092,-98.9365"/>
</g>
<!-- Node188 -->
<g id="node5" class="node"><title>Node188</title>
<g id="a_node5"><a xlink:href="main__main_8h.html#a5c7c60c7d70cf76cc52e87722bb0f614" target="_top" xlink:title="coarse_tune">
<polygon fill="none" stroke="black" points="368,-114.5 368,-132.5 435,-132.5 435,-114.5 368,-114.5"/>
<text text-anchor="middle" x="401.5" y="-121.3" font-family="Calibri" font-size="9.00">coarse_tune</text>
</a>
</g>
</g>
<!-- Node186&#45;&gt;Node188 -->
<g id="edge6" class="edge"><title>Node186&#45;&gt;Node188</title>
<path fill="none" stroke="midnightblue" d="M244.085,-93.6648C252.517,-95.6591 261.577,-97.7274 270,-99.5 303.25,-106.498 341.507,-113.399 367.963,-117.992"/>
<polygon fill="midnightblue" stroke="midnightblue" points="244.737,-90.2221 234.197,-91.2937 243.105,-97.0291 244.737,-90.2221"/>
</g>
<!-- Node189 -->
<g id="node6" class="node"><title>Node189</title>
<g id="a_node6"><a xlink:href="main__main_8h.html#a1849f2e5bd63d11a7b9549470e287d17" target="_top" xlink:title="tune">
<polygon fill="none" stroke="black" points="471,-57.5 471,-75.5 506,-75.5 506,-57.5 471,-57.5"/>
<text text-anchor="middle" x="488.5" y="-64.3" font-family="Calibri" font-size="9.00">tune</text>
</a>
</g>
</g>
<!-- Node186&#45;&gt;Node189 -->
<g id="edge11" class="edge"><title>Node186&#45;&gt;Node189</title>
<path fill="none" stroke="midnightblue" d="M244.086,-83.2265C303.502,-79.1436 426.239,-70.7096 470.838,-67.6449"/>
<polygon fill="midnightblue" stroke="midnightblue" points="243.835,-79.7353 234.099,-83.9128 244.315,-86.7189 243.835,-79.7353"/>
</g>
<!-- Node190 -->
<g id="node7" class="node"><title>Node190</title>
<g id="a_node7"><a xlink:href="main__main_8h.html#ab518a3d2c723f12d3af3024a195606ce" target="_top" xlink:title="sharp_cap">
<polygon fill="none" stroke="black" points="372,-38.5 372,-56.5 431,-56.5 431,-38.5 372,-38.5"/>
<text text-anchor="middle" x="401.5" y="-45.3" font-family="Calibri" font-size="9.00">sharp_cap</text>
</a>
</g>
</g>
<!-- Node186&#45;&gt;Node190 -->
<g id="edge7" class="edge"><title>Node186&#45;&gt;Node190</title>
<path fill="none" stroke="midnightblue" d="M244.085,-77.3352C252.517,-75.3409 261.577,-73.2726 270,-71.5 304.941,-64.1466 345.411,-56.8995 371.905,-52.3256"/>
<polygon fill="midnightblue" stroke="midnightblue" points="243.105,-73.9709 234.197,-79.7063 244.737,-80.7779 243.105,-73.9709"/>
</g>
<!-- Node191 -->
<g id="node8" class="node"><title>Node191</title>
<g id="a_node8"><a xlink:href="main__main_8h.html#a72210b3ed1d5691c5bbda8c7f1e97197" target="_top" xlink:title="sharp_ind">
<polygon fill="none" stroke="black" points="272,-0.5 272,-18.5 330,-18.5 330,-0.5 272,-0.5"/>
<text text-anchor="middle" x="301" y="-7.3" font-family="Calibri" font-size="9.00">sharp_ind</text>
</a>
</g>
</g>
<!-- Node186&#45;&gt;Node191 -->
<g id="edge9" class="edge"><title>Node186&#45;&gt;Node191</title>
<path fill="none" stroke="midnightblue" d="M228.991,-69.2456C240.579,-58.8761 256.034,-45.2296 270,-33.5 275.925,-28.524 282.64,-23.1298 288.213,-18.718"/>
<polygon fill="midnightblue" stroke="midnightblue" points="226.414,-66.8562 221.314,-76.1428 231.092,-72.0635 226.414,-66.8562"/>
</g>
<!-- Node187&#45;&gt;Node188 -->
<g id="edge4" class="edge"><title>Node187&#45;&gt;Node188</title>
<path fill="none" stroke="midnightblue" d="M334.959,-148.785C348.728,-143.473 364.411,-137.423 376.983,-132.573"/>
<polygon fill="midnightblue" stroke="midnightblue" points="333.413,-145.63 325.343,-152.495 335.933,-152.161 333.413,-145.63"/>
</g>
<!-- Node188&#45;&gt;Node189 -->
<g id="edge5" class="edge"><title>Node188&#45;&gt;Node189</title>
<path fill="none" stroke="midnightblue" d="M424.694,-108.617C440.28,-98.1652 460.63,-84.5189 473.877,-75.6353"/>
<polygon fill="midnightblue" stroke="midnightblue" points="422.513,-105.865 416.157,-114.342 426.412,-111.679 422.513,-105.865"/>
</g>
<!-- Node190&#45;&gt;Node189 -->
<g id="edge8" class="edge"><title>Node190&#45;&gt;Node189</title>
<path fill="none" stroke="midnightblue" d="M441.056,-56.1184C451.443,-58.4401 462.146,-60.8326 470.656,-62.7349"/>
<polygon fill="midnightblue" stroke="midnightblue" points="441.8,-52.6984 431.277,-53.9325 440.273,-59.5298 441.8,-52.6984"/>
</g>
<!-- Node191&#45;&gt;Node189 -->
<g id="edge10" class="edge"><title>Node191&#45;&gt;Node189</title>
<path fill="none" stroke="midnightblue" d="M340.314,-10.1161C367.594,-11.7015 404.647,-16.228 435,-28.5 451.69,-35.2479 468.025,-48.4047 477.93,-57.3233"/>
<polygon fill="midnightblue" stroke="midnightblue" points="340.159,-6.605 330.005,-9.629 339.829,-13.5972 340.159,-6.605"/>
</g>
</g>
</svg>
        <g id="navigator" transform="translate(0 0)" fill="#404254">
                <rect fill="#f2f5e9" fill-opacity="0.5" stroke="#606060" stroke-width=".5" x="0" y="0" width="60" height="60"/>
                <use id="zoomplus" xlink:href="#zoomPlus" x="17" y="9" onmousedown="handleZoom(evt,'in')"/>
                <use id="zoomminus" xlink:href="#zoomMin" x="42" y="9" onmousedown="handleZoom(evt,'out')"/>
                <use id="reset" xlink:href="#resetDef" x="30" y="36" onmousedown="handleReset()"/>
                <g id="arrowUp" xlink:href="#dirArrow" transform="translate(30 24)" onmousedown="handlePan(0,-1)">
                  <use xlink:href="#rim" fill="#404040">
                        <set attributeName="fill" to="#808080" begin="arrowUp.mouseover" end="arrowUp.mouseout"/>
                  </use>
                  <path fill="none" stroke="white" stroke-width="1.5" d="M0,-3.0v7 M-2.5,-0.5L0,-3.0L2.5,-0.5"/>
                </g>
                <g id="arrowRight" xlink:href="#dirArrow" transform="rotate(90) translate(36 -43)" onmousedown="handlePan(1,0)">
                  <use xlink:href="#rim" fill="#404040">
                        <set attributeName="fill" to="#808080" begin="arrowRight.mouseover" end="arrowRight.mouseout"/>
                  </use>
                  <path fill="none" stroke="white" stroke-width="1.5" d="M0,-3.0v7 M-2.5,-0.5L0,-3.0L2.5,-0.5"/>
                </g>
                <g id="arrowDown" xlink:href="#dirArrow" transform="rotate(180) translate(-30 -48)" onmousedown="handlePan(0,1)">
                  <use xlink:href="#rim" fill="#404040">
                        <set attributeName="fill" to="#808080" begin="arrowDown.mouseover" end="arrowDown.mouseout"/>
                  </use>
                  <path fill="none" stroke="white" stroke-width="1.5" d="M0,-3.0v7 M-2.5,-0.5L0,-3.0L2.5,-0.5"/>
                </g>
                <g id="arrowLeft" xlink:href="#dirArrow" transform="rotate(270) translate(-36 17)" onmousedown="handlePan(-1,0)">
                  <use xlink:href="#rim" fill="#404040">
                        <set attributeName="fill" to="#808080" begin="arrowLeft.mouseover" end="arrowLeft.mouseout"/>
                  </use>
                  <path fill="none" stroke="white" stroke-width="1.5" d="M0,-3.0v7 M-2.5,-0.5L0,-3.0L2.5,-0.5"/>
                </g>
        </g>
        <svg viewBox="0 0 15 15" width="100%" height="30px" preserveAspectRatio="xMaxYMin meet">
         <g id="arrow_out" transform="scale(0.3 0.3)">
          <a xlink:href="main__main_8h_acfd46f8711e9c1c20fffdfc8bdaa0ddd_icgraph_org.svg" target="_base">
           <rect id="button" ry="5" rx="5" y="6" x="6" height="38" width="38"
                fill="#f2f5e9" fill-opacity="0.5" stroke="#606060" stroke-width="1.0"/>
           <path id="arrow"
             d="M 11.500037,31.436501 C 11.940474,20.09759 22.043105,11.32322 32.158766,21.979434 L 37.068811,17.246167 C 37.068811,17.246167 37.088388,32 37.088388,32 L 22.160133,31.978069 C 22.160133,31.978069 26.997745,27.140456 26.997745,27.140456 C 18.528582,18.264221 13.291696,25.230495 11.500037,31.436501 z"
             style="fill:#404040;"/>
          </a>
         </g>
        </svg>
</svg>
