<?xml version="1.0" encoding="UTF-8" standalone="no"?>
<!DOCTYPE svg PUBLIC "-//W3C//DTD SVG 1.1//EN"
 "http://www.w3.org/Graphics/SVG/1.1/DTD/svg11.dtd">
<!-- Generated by graphviz version 2.38.0 (20140413.2041)
 -->
<!-- Title: get_swr Pages: 1 -->
<svg width="328pt" height="179pt"
 viewBox="0.00 0.00 328.00 179.00" xmlns="http://www.w3.org/2000/svg" xmlns:xlink="http://www.w3.org/1999/xlink">
<g id="graph0" class="graph" transform="scale(1 1) rotate(0) translate(4 175)">
<title>get_swr</title>
<!-- Node240 -->
<g id="node1" class="node"><title>Node240</title>
<polygon fill="#bfbfbf" stroke="black" points="0,-76.5 0,-94.5 48,-94.5 48,-76.5 0,-76.5"/>
<text text-anchor="middle" x="24" y="-83.3" font-family="Calibri" font-size="9.00">get_swr</text>
</g>
<!-- Node241 -->
<g id="node2" class="node"><title>Node241</title>
<g id="a_node2"><a xlink:href="main__main_8h.html#a740ef1b33bb02cd952ad7d8708999472" target="_top" xlink:title="coarse_cap">
<polygon fill="none" stroke="black" points="84,-152.5 84,-170.5 146,-170.5 146,-152.5 84,-152.5"/>
<text text-anchor="middle" x="115" y="-159.3" font-family="Calibri" font-size="9.00">coarse_cap</text>
</a>
</g>
</g>
<!-- Node240&#45;&gt;Node241 -->
<g id="edge1" class="edge"><title>Node240&#45;&gt;Node241</title>
<path fill="none" stroke="midnightblue" d="M42.9914,-101.754C54.579,-112.124 70.034,-125.77 84,-137.5 89.9247,-142.476 96.6399,-147.87 102.213,-152.282"/>
<polygon fill="midnightblue" stroke="midnightblue" points="45.0919,-98.9365 35.3139,-94.8572 40.4139,-104.144 45.0919,-98.9365"/>
</g>
<!-- Node242 -->
<g id="node3" class="node"><title>Node242</title>
<g id="a_node3"><a xlink:href="main__main_8h.html#a5c7c60c7d70cf76cc52e87722bb0f614" target="_top" xlink:title="coarse_tune">
<polygon fill="none" stroke="black" points="182,-114.5 182,-132.5 249,-132.5 249,-114.5 182,-114.5"/>
<text text-anchor="middle" x="215.5" y="-121.3" font-family="Calibri" font-size="9.00">coarse_tune</text>
</a>
</g>
</g>
<!-- Node240&#45;&gt;Node242 -->
<g id="edge4" class="edge"><title>Node240&#45;&gt;Node242</title>
<path fill="none" stroke="midnightblue" d="M58.0851,-93.6648C66.517,-95.6591 75.5775,-97.7274 84,-99.5 117.25,-106.498 155.507,-113.399 181.963,-117.992"/>
<polygon fill="midnightblue" stroke="midnightblue" points="58.7374,-90.2221 48.1969,-91.2937 57.1051,-97.0291 58.7374,-90.2221"/>
</g>
<!-- Node243 -->
<g id="node4" class="node"><title>Node243</title>
<g id="a_node4"><a xlink:href="main__main_8h.html#a1849f2e5bd63d11a7b9549470e287d17" target="_top" xlink:title="tune">
<polygon fill="none" stroke="black" points="285,-57.5 285,-75.5 320,-75.5 320,-57.5 285,-57.5"/>
<text text-anchor="middle" x="302.5" y="-64.3" font-family="Calibri" font-size="9.00">tune</text>
</a>
</g>
</g>
<!-- Node240&#45;&gt;Node243 -->
<g id="edge9" class="edge"><title>Node240&#45;&gt;Node243</title>
<path fill="none" stroke="midnightblue" d="M58.0856,-83.2265C117.502,-79.1436 240.239,-70.7096 284.838,-67.6449"/>
<polygon fill="midnightblue" stroke="midnightblue" points="57.8352,-79.7353 48.0987,-83.9128 58.3151,-86.7189 57.8352,-79.7353"/>
</g>
<!-- Node244 -->
<g id="node5" class="node"><title>Node244</title>
<g id="a_node5"><a xlink:href="main__main_8h.html#ab518a3d2c723f12d3af3024a195606ce" target="_top" xlink:title="sharp_cap">
<polygon fill="none" stroke="black" points="186,-38.5 186,-56.5 245,-56.5 245,-38.5 186,-38.5"/>
<text text-anchor="middle" x="215.5" y="-45.3" font-family="Calibri" font-size="9.00">sharp_cap</text>
</a>
</g>
</g>
<!-- Node240&#45;&gt;Node244 -->
<g id="edge5" class="edge"><title>Node240&#45;&gt;Node244</title>
<path fill="none" stroke="midnightblue" d="M58.0851,-77.3352C66.517,-75.3409 75.5775,-73.2726 84,-71.5 118.941,-64.1466 159.411,-56.8995 185.905,-52.3256"/>
<polygon fill="midnightblue" stroke="midnightblue" points="57.1051,-73.9709 48.1969,-79.7063 58.7374,-80.7779 57.1051,-73.9709"/>
</g>
<!-- Node245 -->
<g id="node6" class="node"><title>Node245</title>
<g id="a_node6"><a xlink:href="main__main_8h.html#a72210b3ed1d5691c5bbda8c7f1e97197" target="_top" xlink:title="sharp_ind">
<polygon fill="none" stroke="black" points="86,-0.5 86,-18.5 144,-18.5 144,-0.5 86,-0.5"/>
<text text-anchor="middle" x="115" y="-7.3" font-family="Calibri" font-size="9.00">sharp_ind</text>
</a>
</g>
</g>
<!-- Node240&#45;&gt;Node245 -->
<g id="edge7" class="edge"><title>Node240&#45;&gt;Node245</title>
<path fill="none" stroke="midnightblue" d="M42.9914,-69.2456C54.579,-58.8761 70.034,-45.2296 84,-33.5 89.9247,-28.524 96.6399,-23.1298 102.213,-18.718"/>
<polygon fill="midnightblue" stroke="midnightblue" points="40.4139,-66.8562 35.3139,-76.1428 45.0919,-72.0635 40.4139,-66.8562"/>
</g>
<!-- Node241&#45;&gt;Node242 -->
<g id="edge2" class="edge"><title>Node241&#45;&gt;Node242</title>
<path fill="none" stroke="midnightblue" d="M148.959,-148.785C162.728,-143.473 178.411,-137.423 190.983,-132.573"/>
<polygon fill="midnightblue" stroke="midnightblue" points="147.413,-145.63 139.343,-152.495 149.933,-152.161 147.413,-145.63"/>
</g>
<!-- Node242&#45;&gt;Node243 -->
<g id="edge3" class="edge"><title>Node242&#45;&gt;Node243</title>
<path fill="none" stroke="midnightblue" d="M238.694,-108.617C254.28,-98.1652 274.63,-84.5189 287.877,-75.6353"/>
<polygon fill="midnightblue" stroke="midnightblue" points="236.513,-105.865 230.157,-114.342 240.412,-111.679 236.513,-105.865"/>
</g>
<!-- Node244&#45;&gt;Node243 -->
<g id="edge6" class="edge"><title>Node244&#45;&gt;Node243</title>
<path fill="none" stroke="midnightblue" d="M255.056,-56.1184C265.443,-58.4401 276.146,-60.8326 284.656,-62.7349"/>
<polygon fill="midnightblue" stroke="midnightblue" points="255.8,-52.6984 245.277,-53.9325 254.273,-59.5298 255.8,-52.6984"/>
</g>
<!-- Node245&#45;&gt;Node243 -->
<g id="edge8" class="edge"><title>Node245&#45;&gt;Node243</title>
<path fill="none" stroke="midnightblue" d="M154.314,-10.1161C181.594,-11.7015 218.647,-16.228 249,-28.5 265.69,-35.2479 282.025,-48.4047 291.93,-57.3233"/>
<polygon fill="midnightblue" stroke="midnightblue" points="154.159,-6.605 144.005,-9.629 153.829,-13.5972 154.159,-6.605"/>
</g>
</g>
</svg>
