<?xml version="1.0" encoding="UTF-8" standalone="no"?>
<!DOCTYPE svg PUBLIC "-//W3C//DTD SVG 1.1//EN"
 "http://www.w3.org/Graphics/SVG/1.1/DTD/svg11.dtd">
<!-- Generated by graphviz version 2.38.0 (20140413.2041)
 -->
<!-- Title: set_ind Pages: 1 -->
<!--zoomable 683 -->
<svg id="main" version="1.1" xmlns="http://www.w3.org/2000/svg" xmlns:xlink="http://www.w3.org/1999/xlink" xml:space="preserve" onload="init(evt)">
<style type="text/css"><![CDATA[
.edge:hover path { stroke: red; }
.edge:hover polygon { stroke: red; fill: red; }
]]></style>
<script type="text/javascript"><![CDATA[
var edges = document.getElementsByTagName('g');
if (edges && edges.length) {
  for (var i=0;i<edges.length;i++) {
    if (edges[i].id.substr(0,4)=='edge') {
      edges[i].setAttribute('class','edge');
    }
  }
}
]]></script>
        <defs>
                <circle id="rim" cx="0" cy="0" r="7"/>
                <circle id="rim2" cx="0" cy="0" r="3.5"/>
                <g id="zoomPlus">
                        <use xlink:href="#rim" fill="#404040">
                                <set attributeName="fill" to="#808080" begin="zoomplus.mouseover" end="zoomplus.mouseout"/>
                        </use>
                        <path d="M-4,0h8M0,-4v8" fill="none" stroke="white" stroke-width="1.5" pointer-events="none"/>
                </g>
                <g id="zoomMin">
                        <use xlink:href="#rim" fill="#404040">
                                <set attributeName="fill" to="#808080" begin="zoomminus.mouseover" end="zoomminus.mouseout"/>
                        </use>
                        <path d="M-4,0h8" fill="none" stroke="white" stroke-width="1.5" pointer-events="none"/>
                </g>
                <g id="dirArrow">
                        <path fill="none" stroke="white" stroke-width="1.5" d="M0,-3.0v7 M-2.5,-0.5L0,-3.0L2.5,-0.5"/>
                </g>
               <g id="resetDef">
                       <use xlink:href="#rim2" fill="#404040">
                               <set attributeName="fill" to="#808080" begin="reset.mouseover" end="reset.mouseout"/>
                       </use>
               </g>
        </defs>

<script type="text/javascript">
var viewWidth = 985;
var viewHeight = 683;
var sectionId = 'dynsection-35';
</script>
<script xlink:href="svgpan.js"/>
<svg id="graph" class="graph">
<g id="viewport">
<title>set_ind</title>
<!-- Node1 -->
<g id="node1" class="node"><title>Node1</title>
<g id="a_node1"><a xlink:title=" ">
<polygon fill="#bfbfbf" stroke="black" points="930,-380.5 930,-398.5 977,-398.5 977,-380.5 930,-380.5"/>
<text text-anchor="middle" x="953.5" y="-387.3" font-family="Calibri" font-size="9.00">set_ind</text>
</a>
</g>
</g>
<!-- Node2 -->
<g id="node2" class="node"><title>Node2</title>
<g id="a_node2"><a xlink:href="main_8h.html#a9dff326a6079fe726285b11ee837ad60" target="_top" xlink:title=" ">
<polygon fill="none" stroke="black" points="838,-133.5 838,-151.5 894,-151.5 894,-133.5 838,-133.5"/>
<text text-anchor="middle" x="866" y="-140.3" font-family="Calibri" font-size="9.00">atu_reset</text>
</a>
</g>
</g>
<!-- Node1&#45;&gt;Node2 -->
<g id="edge1" class="edge"><title>Node1&#45;&gt;Node2</title>
<path fill="none" stroke="midnightblue" d="M948.887,-370.332C941.526,-333.433 922.999,-250.44 894,-185.5 888.465,-173.105 879.819,-160.062 873.807,-151.636"/>
<polygon fill="midnightblue" stroke="midnightblue" points="945.467,-371.084 950.811,-380.232 952.338,-369.748 945.467,-371.084"/>
</g>
<!-- Node4 -->
<g id="node4" class="node"><title>Node4</title>
<g id="a_node4"><a xlink:href="main_8c.html#a1c9e5d54d8cf7f3d041aa2e0b330b3dd" target="_top" xlink:title="Handle the process of the buttons being pressed.">
<polygon fill="none" stroke="black" points="74,-513.5 74,-531.5 139,-531.5 139,-513.5 74,-513.5"/>
<text text-anchor="middle" x="106.5" y="-520.3" font-family="Calibri" font-size="9.00">button_proc</text>
</a>
</g>
</g>
<!-- Node1&#45;&gt;Node4 -->
<g id="edge25" class="edge"><title>Node1&#45;&gt;Node4</title>
<path fill="none" stroke="midnightblue" d="M948.099,-408.548C940.883,-436.235 924.226,-487.942 894,-521.5 848.03,-572.537 828.688,-598.5 760,-598.5 760,-598.5 760,-598.5 363.5,-598.5 270.313,-598.5 165.642,-551.648 124.968,-531.517"/>
<polygon fill="midnightblue" stroke="midnightblue" points="951.56,-409.13 950.554,-398.583 944.763,-407.455 951.56,-409.13"/>
</g>
<!-- Node5 -->
<g id="node5" class="node"><title>Node5</title>
<g id="a_node5"><a xlink:href="main_8c.html#acdef7a1fd863a6d3770c1268cb06add3" target="_top" xlink:title=" ">
<polygon fill="none" stroke="black" points="0,-589.5 0,-607.5 38,-607.5 38,-589.5 0,-589.5"/>
<text text-anchor="middle" x="19" y="-596.3" font-family="Calibri" font-size="9.00">main</text>
</a>
</g>
</g>
<!-- Node1&#45;&gt;Node5 -->
<g id="edge35" class="edge"><title>Node1&#45;&gt;Node5</title>
<path fill="none" stroke="midnightblue" d="M950.571,-408.548C944.875,-461.057 926.465,-606.193 894,-639.5 851.036,-683.579 821.554,-674.5 760,-674.5 760,-674.5 760,-674.5 201.5,-674.5 142.496,-674.5 127.028,-663.375 74,-637.5 57.5789,-629.487 40.8579,-616.509 30.4623,-607.747"/>
<polygon fill="midnightblue" stroke="midnightblue" points="954.055,-408.877 951.62,-398.566 947.094,-408.146 954.055,-408.877"/>
</g>
<!-- Node8 -->
<g id="node8" class="node"><title>Node8</title>
<g id="a_node8"><a xlink:href="main_8h.html#a5c7c60c7d70cf76cc52e87722bb0f614" target="_top" xlink:title=" ">
<polygon fill="none" stroke="black" points="428,-266.5 428,-284.5 495,-284.5 495,-266.5 428,-266.5"/>
<text text-anchor="middle" x="461.5" y="-273.3" font-family="Calibri" font-size="9.00">coarse_tune</text>
</a>
</g>
</g>
<!-- Node1&#45;&gt;Node8 -->
<g id="edge28" class="edge"><title>Node1&#45;&gt;Node8</title>
<path fill="none" stroke="midnightblue" d="M939.806,-372.223C911.745,-336.225 840.512,-256.5 760,-256.5 760,-256.5 760,-256.5 653.5,-256.5 597.683,-256.5 533.14,-264.634 495.185,-270.258"/>
<polygon fill="midnightblue" stroke="midnightblue" points="937.151,-374.515 945.989,-380.358 942.724,-370.279 937.151,-374.515"/>
</g>
<!-- Node9 -->
<g id="node9" class="node"><title>Node9</title>
<g id="a_node9"><a xlink:href="main_8h.html#a454a7687c8039514766571b23516ca9c" target="_top" xlink:title=" ">
<polygon fill="none" stroke="black" points="337,-228.5 337,-246.5 392,-246.5 392,-228.5 337,-228.5"/>
<text text-anchor="middle" x="364.5" y="-235.3" font-family="Calibri" font-size="9.00">sub_tune</text>
</a>
</g>
</g>
<!-- Node1&#45;&gt;Node9 -->
<g id="edge37" class="edge"><title>Node1&#45;&gt;Node9</title>
<path fill="none" stroke="midnightblue" d="M953.34,-370.117C954.39,-323.033 951.057,-200.83 894,-123.5 853.349,-68.4061 828.468,-47.5 760,-47.5 760,-47.5 760,-47.5 561,-47.5 455.929,-47.5 386.072,-190.383 369.369,-228.336"/>
<polygon fill="midnightblue" stroke="midnightblue" points="949.84,-370.058 953.019,-380.165 956.837,-370.282 949.84,-370.058"/>
</g>
<!-- Node13 -->
<g id="node13" class="node"><title>Node13</title>
<g id="a_node13"><a xlink:href="main_8h.html#a72210b3ed1d5691c5bbda8c7f1e97197" target="_top" xlink:title=" ">
<polygon fill="none" stroke="black" points="533,-171.5 533,-189.5 591,-189.5 591,-171.5 533,-171.5"/>
<text text-anchor="middle" x="562" y="-178.3" font-family="Calibri" font-size="9.00">sharp_ind</text>
</a>
</g>
</g>
<!-- Node1&#45;&gt;Node13 -->
<g id="edge36" class="edge"><title>Node1&#45;&gt;Node13</title>
<path fill="none" stroke="midnightblue" d="M950.628,-369.893C946.474,-337.95 933.478,-274.99 894,-242.5 803.941,-168.381 653.23,-172.131 591.092,-177.396"/>
<polygon fill="midnightblue" stroke="midnightblue" points="947.186,-370.602 951.791,-380.144 954.141,-369.813 947.186,-370.602"/>
</g>
<!-- Node15 -->
<g id="node15" class="node"><title>Node15</title>
<g id="a_node15"><a xlink:href="main_8c.html#ac445892220ccb3b4b337dd3e764bd6c6" target="_top" xlink:title="Handle the process of the buttons being pressed (in test mode)">
<polygon fill="none" stroke="black" points="716,-627.5 716,-645.5 802,-645.5 802,-627.5 716,-627.5"/>
<text text-anchor="middle" x="759" y="-634.3" font-family="Calibri" font-size="9.00">button_proc_test</text>
</a>
</g>
</g>
<!-- Node1&#45;&gt;Node15 -->
<g id="edge26" class="edge"><title>Node1&#45;&gt;Node15</title>
<path fill="none" stroke="midnightblue" d="M950.098,-408.835C943.62,-457.765 924.214,-584.592 894,-612.5 869.521,-635.111 831.356,-640.095 802.008,-640.01"/>
<polygon fill="midnightblue" stroke="midnightblue" points="953.602,-409.025 951.405,-398.661 946.659,-408.133 953.602,-409.025"/>
</g>
<!-- Node16 -->
<g id="node16" class="node"><title>Node16</title>
<g id="a_node16"><a xlink:href="main_8c.html#ae5a14b4884e85f47ad8a4a716f13203a" target="_top" xlink:title=" ">
<polygon fill="none" stroke="black" points="842,-494.5 842,-512.5 890,-512.5 890,-494.5 842,-494.5"/>
<text text-anchor="middle" x="866" y="-501.3" font-family="Calibri" font-size="9.00">lcd_pwr</text>
</a>
</g>
</g>
<!-- Node1&#45;&gt;Node16 -->
<g id="edge29" class="edge"><title>Node1&#45;&gt;Node16</title>
<path fill="none" stroke="midnightblue" d="M939.436,-406.918C921.018,-431.475 888.081,-475.392 873.855,-494.361"/>
<polygon fill="midnightblue" stroke="midnightblue" points="942.303,-408.929 945.503,-398.829 936.703,-404.729 942.303,-408.929"/>
</g>
<!-- Node3 -->
<g id="node3" class="node"><title>Node3</title>
<g id="a_node3"><a xlink:href="main_8c.html#a11724d8cce81ed96bec12a004ea3ea7a" target="_top" xlink:title=" ">
<polygon fill="none" stroke="black" points="727,-380.5 727,-398.5 791,-398.5 791,-380.5 727,-380.5"/>
<text text-anchor="middle" x="759" y="-387.3" font-family="Calibri" font-size="9.00">show_reset</text>
</a>
</g>
</g>
<!-- Node2&#45;&gt;Node3 -->
<g id="edge2" class="edge"><title>Node2&#45;&gt;Node3</title>
<path fill="none" stroke="midnightblue" d="M857.123,-161.031C836.113,-210.452 779.299,-344.102 763.897,-380.334"/>
<polygon fill="midnightblue" stroke="midnightblue" points="860.447,-162.156 861.138,-151.584 854.005,-159.417 860.447,-162.156"/>
</g>
<!-- Node2&#45;&gt;Node9 -->
<g id="edge21" class="edge"><title>Node2&#45;&gt;Node9</title>
<path fill="none" stroke="midnightblue" d="M827.731,-141.258C765.57,-139.933 637.078,-140.379 531,-161.5 483.44,-170.969 471.607,-176.286 428,-197.5 409.696,-206.404 390.179,-219.554 377.918,-228.317"/>
<polygon fill="midnightblue" stroke="midnightblue" points="827.755,-144.76 837.836,-141.502 827.924,-137.762 827.755,-144.76"/>
</g>
<!-- Node10 -->
<g id="node10" class="node"><title>Node10</title>
<g id="a_node10"><a xlink:href="main_8h.html#a1849f2e5bd63d11a7b9549470e287d17" target="_top" xlink:title=" ">
<polygon fill="none" stroke="black" points="266,-256.5 266,-274.5 301,-274.5 301,-256.5 266,-256.5"/>
<text text-anchor="middle" x="283.5" y="-263.3" font-family="Calibri" font-size="9.00">tune</text>
</a>
</g>
</g>
<!-- Node2&#45;&gt;Node10 -->
<g id="edge24" class="edge"><title>Node2&#45;&gt;Node10</title>
<path fill="none" stroke="midnightblue" d="M836.211,-129.434C796.439,-112.607 722.044,-85.5 655.5,-85.5 655.5,-85.5 655.5,-85.5 460.5,-85.5 363.91,-85.5 302.924,-219.646 288.053,-256.326"/>
<polygon fill="midnightblue" stroke="midnightblue" points="834.983,-132.716 845.551,-133.468 837.758,-126.29 834.983,-132.716"/>
</g>
<!-- Node14 -->
<g id="node14" class="node"><title>Node14</title>
<g id="a_node14"><a xlink:href="main_8c.html#a7a367b10f22edd310a36627b6c941255" target="_top" xlink:title=" ">
<polygon fill="none" stroke="black" points="629,-0.5 629,-18.5 680,-18.5 680,-0.5 629,-0.5"/>
<text text-anchor="middle" x="654.5" y="-7.3" font-family="Calibri" font-size="9.00">test_init</text>
</a>
</g>
</g>
<!-- Node2&#45;&gt;Node14 -->
<g id="edge22" class="edge"><title>Node2&#45;&gt;Node14</title>
<path fill="none" stroke="midnightblue" d="M853.116,-125.17C841.584,-109.426 822.814,-86.4438 802,-71.5 763.413,-43.7952 710.545,-25.331 680.005,-16.1966"/>
<polygon fill="midnightblue" stroke="midnightblue" points="850.383,-127.365 859.03,-133.487 856.088,-123.309 850.383,-127.365"/>
</g>
<!-- Node3&#45;&gt;Node4 -->
<g id="edge3" class="edge"><title>Node3&#45;&gt;Node4</title>
<path fill="none" stroke="midnightblue" d="M730.828,-402.78C693.802,-419.623 625.003,-446.5 563,-446.5 563,-446.5 563,-446.5 282.5,-446.5 215.922,-446.5 146.01,-493.352 119.043,-513.483"/>
<polygon fill="midnightblue" stroke="midnightblue" points="732.373,-405.922 739.965,-398.532 729.421,-399.574 732.373,-405.922"/>
</g>
<!-- Node6 -->
<g id="node6" class="node"><title>Node6</title>
<g id="a_node6"><a xlink:href="main_8h.html#ad7eb7423e0b17ccfba1ae42f3a3274e0" target="_top" xlink:title=" ">
<polygon fill="none" stroke="black" points="630.5,-323.5 630.5,-341.5 678.5,-341.5 678.5,-323.5 630.5,-323.5"/>
<text text-anchor="middle" x="654.5" y="-330.3" font-family="Calibri" font-size="9.00">get_swr</text>
</a>
</g>
</g>
<!-- Node3&#45;&gt;Node6 -->
<g id="edge5" class="edge"><title>Node3&#45;&gt;Node6</title>
<path fill="none" stroke="midnightblue" d="M732.545,-375.345C713.593,-364.805 688.276,-350.726 671.928,-341.635"/>
<polygon fill="midnightblue" stroke="midnightblue" points="731.091,-378.541 741.532,-380.342 734.493,-372.423 731.091,-378.541"/>
</g>
<!-- Node4&#45;&gt;Node5 -->
<g id="edge4" class="edge"><title>Node4&#45;&gt;Node5</title>
<path fill="none" stroke="midnightblue" d="M87.5611,-538.446C70.124,-553.945 44.2644,-576.932 30.1305,-589.495"/>
<polygon fill="midnightblue" stroke="midnightblue" points="90.2074,-540.776 95.3563,-531.517 85.5569,-535.544 90.2074,-540.776"/>
</g>
<!-- Node7 -->
<g id="node7" class="node"><title>Node7</title>
<g id="a_node7"><a xlink:href="main_8h.html#a740ef1b33bb02cd952ad7d8708999472" target="_top" xlink:title=" ">
<polygon fill="none" stroke="black" points="531,-285.5 531,-303.5 593,-303.5 593,-285.5 531,-285.5"/>
<text text-anchor="middle" x="562" y="-292.3" font-family="Calibri" font-size="9.00">coarse_cap</text>
</a>
</g>
</g>
<!-- Node6&#45;&gt;Node7 -->
<g id="edge6" class="edge"><title>Node6&#45;&gt;Node7</title>
<path fill="none" stroke="midnightblue" d="M622.479,-319.475C610.009,-314.239 595.934,-308.329 584.607,-303.573"/>
<polygon fill="midnightblue" stroke="midnightblue" points="621.478,-322.85 632.053,-323.495 624.188,-316.396 621.478,-322.85"/>
</g>
<!-- Node6&#45;&gt;Node8 -->
<g id="edge12" class="edge"><title>Node6&#45;&gt;Node8</title>
<path fill="none" stroke="midnightblue" d="M620.278,-330.088C595.216,-327.554 560.269,-322.478 531,-312.5 528.249,-311.562 498.273,-295.182 478.897,-284.534"/>
<polygon fill="midnightblue" stroke="midnightblue" points="620.088,-333.585 630.369,-331.026 620.735,-326.615 620.088,-333.585"/>
</g>
<!-- Node6&#45;&gt;Node9 -->
<g id="edge19" class="edge"><title>Node6&#45;&gt;Node9</title>
<path fill="none" stroke="midnightblue" d="M639.978,-315.298C628.795,-302.301 611.752,-285.11 593,-275.5 526.537,-241.441 436.171,-236.839 392.003,-236.851"/>
<polygon fill="midnightblue" stroke="midnightblue" points="637.37,-317.636 646.44,-323.112 642.764,-313.176 637.37,-317.636"/>
</g>
<!-- Node6&#45;&gt;Node10 -->
<g id="edge20" class="edge"><title>Node6&#45;&gt;Node10</title>
<path fill="none" stroke="midnightblue" d="M630.893,-346.817C619.908,-352.945 606.243,-359.397 593,-362.5 566.171,-368.787 558.244,-366.635 531,-362.5 441.639,-348.938 418.197,-341.203 337,-301.5 321.71,-294.024 305.818,-282.515 295.58,-274.53"/>
<polygon fill="midnightblue" stroke="midnightblue" points="632.922,-349.685 639.779,-341.607 629.382,-343.646 632.922,-349.685"/>
</g>
<!-- Node12 -->
<g id="node12" class="node"><title>Node12</title>
<g id="a_node12"><a xlink:href="main_8h.html#ab518a3d2c723f12d3af3024a195606ce" target="_top" xlink:title=" ">
<polygon fill="none" stroke="black" points="432,-303.5 432,-321.5 491,-321.5 491,-303.5 432,-303.5"/>
<text text-anchor="middle" x="461.5" y="-310.3" font-family="Calibri" font-size="9.00">sharp_cap</text>
</a>
</g>
</g>
<!-- Node6&#45;&gt;Node12 -->
<g id="edge13" class="edge"><title>Node6&#45;&gt;Node12</title>
<path fill="none" stroke="midnightblue" d="M620.191,-342.407C595.35,-348.329 560.724,-353.471 531,-346.5 510.577,-341.71 489.271,-329.882 475.951,-321.527"/>
<polygon fill="midnightblue" stroke="midnightblue" points="621.371,-345.718 630.195,-339.855 619.64,-338.936 621.371,-345.718"/>
</g>
<!-- Node6&#45;&gt;Node13 -->
<g id="edge16" class="edge"><title>Node6&#45;&gt;Node13</title>
<path fill="none" stroke="midnightblue" d="M647.572,-313.486C638.702,-287.096 620.071,-238.754 593,-204.5 588.534,-198.848 582.496,-193.694 577.009,-189.623"/>
<polygon fill="midnightblue" stroke="midnightblue" points="644.356,-314.915 650.772,-323.346 651.014,-312.754 644.356,-314.915"/>
</g>
<!-- Node7&#45;&gt;Node8 -->
<g id="edge7" class="edge"><title>Node7&#45;&gt;Node8</title>
<path fill="none" stroke="midnightblue" d="M521.051,-286.794C512.441,-285.133 503.437,-283.397 495.145,-281.797"/>
<polygon fill="midnightblue" stroke="midnightblue" points="520.43,-290.239 530.912,-288.696 521.755,-283.365 520.43,-290.239"/>
</g>
<!-- Node8&#45;&gt;Node9 -->
<g id="edge8" class="edge"><title>Node8&#45;&gt;Node9</title>
<path fill="none" stroke="midnightblue" d="M428.325,-262.63C415.139,-257.356 400.189,-251.376 388.181,-246.573"/>
<polygon fill="midnightblue" stroke="midnightblue" points="427.402,-266.03 437.986,-266.495 430.001,-259.531 427.402,-266.03"/>
</g>
<!-- Node9&#45;&gt;Node10 -->
<g id="edge9" class="edge"><title>Node9&#45;&gt;Node10</title>
<path fill="none" stroke="midnightblue" d="M328.409,-249.937C318.931,-253.296 309.111,-256.777 301.166,-259.593"/>
<polygon fill="midnightblue" stroke="midnightblue" points="329.813,-253.153 338.069,-246.514 327.474,-246.555 329.813,-253.153"/>
</g>
<!-- Node11 -->
<g id="node11" class="node"><title>Node11</title>
<g id="a_node11"><a xlink:href="main_8c.html#af18ed7edda7874a97cacaa11a2759260" target="_top" xlink:title=" ">
<polygon fill="none" stroke="black" points="175,-399.5 175,-417.5 230,-417.5 230,-399.5 175,-399.5"/>
<text text-anchor="middle" x="202.5" y="-406.3" font-family="Calibri" font-size="9.00">btn_push</text>
</a>
</g>
</g>
<!-- Node10&#45;&gt;Node11 -->
<g id="edge10" class="edge"><title>Node10&#45;&gt;Node11</title>
<path fill="none" stroke="midnightblue" d="M272.424,-283.739C255.379,-314.593 221.456,-375.997 208.6,-399.269"/>
<polygon fill="midnightblue" stroke="midnightblue" points="275.544,-285.328 277.317,-274.883 269.417,-281.943 275.544,-285.328"/>
</g>
<!-- Node11&#45;&gt;Node4 -->
<g id="edge11" class="edge"><title>Node11&#45;&gt;Node4</title>
<path fill="none" stroke="midnightblue" d="M182.677,-424.721C180.019,-427.245 177.384,-429.885 175,-432.5 149.868,-460.069 124.664,-496.599 113.484,-513.372"/>
<polygon fill="midnightblue" stroke="midnightblue" points="185.432,-426.946 190.485,-417.634 180.728,-421.763 185.432,-426.946"/>
</g>
<!-- Node12&#45;&gt;Node9 -->
<g id="edge14" class="edge"><title>Node12&#45;&gt;Node9</title>
<path fill="none" stroke="midnightblue" d="M434.688,-298.063C432.387,-296.581 430.126,-295.049 428,-293.5 407.749,-278.74 386.497,-258.535 374.73,-246.864"/>
<polygon fill="midnightblue" stroke="midnightblue" points="433.195,-301.252 443.558,-303.458 436.833,-295.271 433.195,-301.252"/>
</g>
<!-- Node12&#45;&gt;Node10 -->
<g id="edge15" class="edge"><title>Node12&#45;&gt;Node10</title>
<path fill="none" stroke="midnightblue" d="M421.745,-302.151C384.194,-292.123 328.999,-277.383 301.448,-270.026"/>
<polygon fill="midnightblue" stroke="midnightblue" points="421.266,-305.645 431.831,-304.844 423.072,-298.882 421.266,-305.645"/>
</g>
<!-- Node13&#45;&gt;Node9 -->
<g id="edge17" class="edge"><title>Node13&#45;&gt;Node9</title>
<path fill="none" stroke="midnightblue" d="M523.192,-191.523C484.724,-202.739 426.083,-219.836 392.203,-229.714"/>
<polygon fill="midnightblue" stroke="midnightblue" points="524.369,-194.826 532.99,-188.667 522.41,-188.106 524.369,-194.826"/>
</g>
<!-- Node13&#45;&gt;Node10 -->
<g id="edge18" class="edge"><title>Node13&#45;&gt;Node10</title>
<path fill="none" stroke="midnightblue" d="M522.496,-180.027C475.996,-180.98 396.609,-187.582 337,-218.5 318.539,-228.076 301.445,-245.66 292.044,-256.393"/>
<polygon fill="midnightblue" stroke="midnightblue" points="522.783,-183.524 532.739,-179.898 522.695,-176.524 522.783,-183.524"/>
</g>
<!-- Node14&#45;&gt;Node5 -->
<g id="edge23" class="edge"><title>Node14&#45;&gt;Node5</title>
<path fill="none" stroke="midnightblue" d="M618.669,-9.5C580.382,-9.5 517.058,-9.5 462.5,-9.5 462.5,-9.5 462.5,-9.5 201.5,-9.5 74.7028,-9.5 27.1202,-514.315 20.7556,-589.248"/>
<polygon fill="midnightblue" stroke="midnightblue" points="618.775,-13.0001 628.775,-9.5 618.775,-6.0001 618.775,-13.0001"/>
</g>
<!-- Node15&#45;&gt;Node5 -->
<g id="edge27" class="edge"><title>Node15&#45;&gt;Node5</title>
<path fill="none" stroke="midnightblue" d="M705.647,-636.5C666.386,-636.5 611.325,-636.5 563,-636.5 563,-636.5 563,-636.5 201.5,-636.5 140.493,-636.5 70.3526,-615.678 38.0291,-604.86"/>
<polygon fill="midnightblue" stroke="midnightblue" points="705.777,-640 715.777,-636.5 705.777,-633 705.777,-640"/>
</g>
<!-- Node16&#45;&gt;Node3 -->
<g id="edge34" class="edge"><title>Node16&#45;&gt;Node3</title>
<path fill="none" stroke="midnightblue" d="M849.548,-486.723C827.05,-462.297 786.042,-417.774 768.418,-398.639"/>
<polygon fill="midnightblue" stroke="midnightblue" points="847.058,-489.187 856.407,-494.171 852.207,-484.444 847.058,-489.187"/>
</g>
<!-- Node16&#45;&gt;Node4 -->
<g id="edge31" class="edge"><title>Node16&#45;&gt;Node4</title>
<path fill="none" stroke="midnightblue" d="M831.779,-508.383C790.536,-514.012 717.989,-522.5 655.5,-522.5 655.5,-522.5 655.5,-522.5 282.5,-522.5 232.37,-522.5 174.162,-522.5 139.114,-522.5"/>
<polygon fill="midnightblue" stroke="midnightblue" points="832.39,-511.831 841.811,-506.985 831.424,-504.898 832.39,-511.831"/>
</g>
<!-- Node16&#45;&gt;Node5 -->
<g id="edge33" class="edge"><title>Node16&#45;&gt;Node5</title>
<path fill="none" stroke="midnightblue" d="M837.274,-516.824C826.452,-521.64 813.824,-526.798 802,-530.5 738.574,-550.359 721.962,-560.5 655.5,-560.5 655.5,-560.5 655.5,-560.5 363.5,-560.5 238.402,-560.5 89.2216,-585.707 38.1686,-595.061"/>
<polygon fill="midnightblue" stroke="midnightblue" points="838.989,-519.888 846.63,-512.548 836.08,-513.522 838.989,-519.888"/>
</g>
<!-- Node16&#45;&gt;Node11 -->
<g id="edge30" class="edge"><title>Node16&#45;&gt;Node11</title>
<path fill="none" stroke="midnightblue" d="M831.779,-498.617C790.536,-492.988 717.989,-484.5 655.5,-484.5 655.5,-484.5 655.5,-484.5 363.5,-484.5 301.688,-484.5 238.305,-437.648 213.923,-417.517"/>
<polygon fill="midnightblue" stroke="midnightblue" points="831.424,-502.102 841.811,-500.015 832.39,-495.169 831.424,-502.102"/>
</g>
<!-- Node16&#45;&gt;Node15 -->
<g id="edge32" class="edge"><title>Node16&#45;&gt;Node15</title>
<path fill="none" stroke="midnightblue" d="M851.574,-520.506C829.122,-548.945 784.703,-605.209 767.268,-627.294"/>
<polygon fill="midnightblue" stroke="midnightblue" points="854.334,-522.659 857.783,-512.642 848.839,-518.322 854.334,-522.659"/>
</g>
</g>
</svg>
        <g id="navigator" transform="translate(0 0)" fill="#404254">
                <rect fill="#f2f5e9" fill-opacity="0.5" stroke="#606060" stroke-width=".5" x="0" y="0" width="60" height="60"/>
                <use id="zoomplus" xlink:href="#zoomPlus" x="17" y="9" onmousedown="handleZoom(evt,'in')"/>
                <use id="zoomminus" xlink:href="#zoomMin" x="42" y="9" onmousedown="handleZoom(evt,'out')"/>
                <use id="reset" xlink:href="#resetDef" x="30" y="36" onmousedown="handleReset()"/>
                <g id="arrowUp" xlink:href="#dirArrow" transform="translate(30 24)" onmousedown="handlePan(0,-1)">
                  <use xlink:href="#rim" fill="#404040">
                        <set attributeName="fill" to="#808080" begin="arrowUp.mouseover" end="arrowUp.mouseout"/>
                  </use>
                  <path fill="none" stroke="white" stroke-width="1.5" d="M0,-3.0v7 M-2.5,-0.5L0,-3.0L2.5,-0.5"/>
                </g>
                <g id="arrowRight" xlink:href="#dirArrow" transform="rotate(90) translate(36 -43)" onmousedown="handlePan(1,0)">
                  <use xlink:href="#rim" fill="#404040">
                        <set attributeName="fill" to="#808080" begin="arrowRight.mouseover" end="arrowRight.mouseout"/>
                  </use>
                  <path fill="none" stroke="white" stroke-width="1.5" d="M0,-3.0v7 M-2.5,-0.5L0,-3.0L2.5,-0.5"/>
                </g>
                <g id="arrowDown" xlink:href="#dirArrow" transform="rotate(180) translate(-30 -48)" onmousedown="handlePan(0,1)">
                  <use xlink:href="#rim" fill="#404040">
                        <set attributeName="fill" to="#808080" begin="arrowDown.mouseover" end="arrowDown.mouseout"/>
                  </use>
                  <path fill="none" stroke="white" stroke-width="1.5" d="M0,-3.0v7 M-2.5,-0.5L0,-3.0L2.5,-0.5"/>
                </g>
                <g id="arrowLeft" xlink:href="#dirArrow" transform="rotate(270) translate(-36 17)" onmousedown="handlePan(-1,0)">
                  <use xlink:href="#rim" fill="#404040">
                        <set attributeName="fill" to="#808080" begin="arrowLeft.mouseover" end="arrowLeft.mouseout"/>
                  </use>
                  <path fill="none" stroke="white" stroke-width="1.5" d="M0,-3.0v7 M-2.5,-0.5L0,-3.0L2.5,-0.5"/>
                </g>
        </g>
        <svg viewBox="0 0 15 15" width="100%" height="30px" preserveAspectRatio="xMaxYMin meet">
         <g id="arrow_out" transform="scale(0.3 0.3)">
          <a xlink:href="main_8h_aecc83cd8bceb4bc24be844732ead2c2c_icgraph_org.svg" target="_base">
           <rect id="button" ry="5" rx="5" y="6" x="6" height="38" width="38"
                fill="#f2f5e9" fill-opacity="0.5" stroke="#606060" stroke-width="1.0"/>
           <path id="arrow"
             d="M 11.500037,31.436501 C 11.940474,20.09759 22.043105,11.32322 32.158766,21.979434 L 37.068811,17.246167 C 37.068811,17.246167 37.088388,32 37.088388,32 L 22.160133,31.978069 C 22.160133,31.978069 26.997745,27.140456 26.997745,27.140456 C 18.528582,18.264221 13.291696,25.230495 11.500037,31.436501 z"
             style="fill:#404040;"/>
          </a>
         </g>
        </svg>
</svg>
