<?xml version="1.0" encoding="UTF-8" standalone="no"?>
<!DOCTYPE svg PUBLIC "-//W3C//DTD SVG 1.1//EN"
 "http://www.w3.org/Graphics/SVG/1.1/DTD/svg11.dtd">
<!-- Generated by graphviz version 2.38.0 (20140413.2041)
 -->
<!-- Title: button_delay Pages: 1 -->
<!--zoomable 398 -->
<svg id="main" version="1.1" xmlns="http://www.w3.org/2000/svg" xmlns:xlink="http://www.w3.org/1999/xlink" xml:space="preserve" onload="init(evt)">
<style type="text/css"><![CDATA[
.edge:hover path { stroke: red; }
.edge:hover polygon { stroke: red; fill: red; }
]]></style>
<script type="text/javascript"><![CDATA[
var edges = document.getElementsByTagName('g');
if (edges && edges.length) {
  for (var i=0;i<edges.length;i++) {
    if (edges[i].id.substr(0,4)=='edge') {
      edges[i].setAttribute('class','edge');
    }
  }
}
]]></script>
        <defs>
                <circle id="rim" cx="0" cy="0" r="7"/>
                <circle id="rim2" cx="0" cy="0" r="3.5"/>
                <g id="zoomPlus">
                        <use xlink:href="#rim" fill="#404040">
                                <set attributeName="fill" to="#808080" begin="zoomplus.mouseover" end="zoomplus.mouseout"/>
                        </use>
                        <path d="M-4,0h8M0,-4v8" fill="none" stroke="white" stroke-width="1.5" pointer-events="none"/>
                </g>
                <g id="zoomMin">
                        <use xlink:href="#rim" fill="#404040">
                                <set attributeName="fill" to="#808080" begin="zoomminus.mouseover" end="zoomminus.mouseout"/>
                        </use>
                        <path d="M-4,0h8" fill="none" stroke="white" stroke-width="1.5" pointer-events="none"/>
                </g>
                <g id="dirArrow">
                        <path fill="none" stroke="white" stroke-width="1.5" d="M0,-3.0v7 M-2.5,-0.5L0,-3.0L2.5,-0.5"/>
                </g>
               <g id="resetDef">
                       <use xlink:href="#rim2" fill="#404040">
                               <set attributeName="fill" to="#808080" begin="reset.mouseover" end="reset.mouseout"/>
                       </use>
               </g>
        </defs>

<script type="text/javascript">
var viewWidth = 1014;
var viewHeight = 398;
var sectionId = 'dynsection-3';
</script>
<script xlink:href="svgpan.js"/>
<svg id="graph" class="graph">
<g id="viewport">
<title>button_delay</title>
<!-- Node1 -->
<g id="node1" class="node"><title>Node1</title>
<g id="a_node1"><a xlink:title=" ">
<polygon fill="#bfbfbf" stroke="black" points="935,-133.5 935,-151.5 1006,-151.5 1006,-133.5 935,-133.5"/>
<text text-anchor="middle" x="970.5" y="-140.3" font-family="Calibri" font-size="9.00">button_delay</text>
</a>
</g>
</g>
<!-- Node2 -->
<g id="node2" class="node"><title>Node2</title>
<g id="a_node2"><a xlink:href="main_8c.html#ae5a14b4884e85f47ad8a4a716f13203a" target="_top" xlink:title=" ">
<polygon fill="none" stroke="black" points="851,-133.5 851,-151.5 899,-151.5 899,-133.5 851,-133.5"/>
<text text-anchor="middle" x="875" y="-140.3" font-family="Calibri" font-size="9.00">lcd_pwr</text>
</a>
</g>
</g>
<!-- Node1&#45;&gt;Node2 -->
<g id="edge1" class="edge"><title>Node1&#45;&gt;Node2</title>
<path fill="none" stroke="midnightblue" d="M924.948,-142.5C915.987,-142.5 906.917,-142.5 899.061,-142.5"/>
<polygon fill="midnightblue" stroke="midnightblue" points="924.95,-146 934.95,-142.5 924.95,-139 924.95,-146"/>
</g>
<!-- Node3 -->
<g id="node3" class="node"><title>Node3</title>
<g id="a_node3"><a xlink:href="main_8c.html#af18ed7edda7874a97cacaa11a2759260" target="_top" xlink:title=" ">
<polygon fill="none" stroke="black" points="175,-247.5 175,-265.5 230,-265.5 230,-247.5 175,-247.5"/>
<text text-anchor="middle" x="202.5" y="-254.3" font-family="Calibri" font-size="9.00">btn_push</text>
</a>
</g>
</g>
<!-- Node2&#45;&gt;Node3 -->
<g id="edge2" class="edge"><title>Node2&#45;&gt;Node3</title>
<path fill="none" stroke="midnightblue" d="M866.698,-161.299C845.383,-212.653 778.042,-351.5 673,-351.5 673,-351.5 673,-351.5 363.5,-351.5 296.628,-351.5 233.289,-289.387 211.492,-265.609"/>
<polygon fill="midnightblue" stroke="midnightblue" points="870.054,-162.334 870.544,-151.75 863.561,-159.718 870.054,-162.334"/>
</g>
<!-- Node4 -->
<g id="node4" class="node"><title>Node4</title>
<g id="a_node4"><a xlink:href="main_8c.html#a1c9e5d54d8cf7f3d041aa2e0b330b3dd" target="_top" xlink:title="Handle the process of the buttons being pressed.">
<polygon fill="none" stroke="black" points="74,-76.5 74,-94.5 139,-94.5 139,-76.5 74,-76.5"/>
<text text-anchor="middle" x="106.5" y="-83.3" font-family="Calibri" font-size="9.00">button_proc</text>
</a>
</g>
</g>
<!-- Node2&#45;&gt;Node4 -->
<g id="edge5" class="edge"><title>Node2&#45;&gt;Node4</title>
<path fill="none" stroke="midnightblue" d="M855.442,-126.821C821.548,-99.8408 746.342,-47.5 673,-47.5 673,-47.5 673,-47.5 282.5,-47.5 228.093,-47.5 166.293,-65.2574 132.632,-76.4945"/>
<polygon fill="midnightblue" stroke="midnightblue" points="853.545,-129.789 863.509,-133.391 857.965,-124.362 853.545,-129.789"/>
</g>
<!-- Node5 -->
<g id="node5" class="node"><title>Node5</title>
<g id="a_node5"><a xlink:href="main_8c.html#acdef7a1fd863a6d3770c1268cb06add3" target="_top" xlink:title=" ">
<polygon fill="none" stroke="black" points="0,-76.5 0,-94.5 38,-94.5 38,-76.5 0,-76.5"/>
<text text-anchor="middle" x="19" y="-83.3" font-family="Calibri" font-size="9.00">main</text>
</a>
</g>
</g>
<!-- Node2&#45;&gt;Node5 -->
<g id="edge8" class="edge"><title>Node2&#45;&gt;Node5</title>
<path fill="none" stroke="midnightblue" d="M871.295,-161.612C865.832,-194.188 850.806,-261.146 815,-304.5 768.161,-361.212 746.554,-389.5 673,-389.5 673,-389.5 673,-389.5 201.5,-389.5 60.4294,-389.5 26.4253,-145.18 20.897,-94.5981"/>
<polygon fill="midnightblue" stroke="midnightblue" points="874.771,-162.036 872.847,-151.618 867.854,-160.962 874.771,-162.036"/>
</g>
<!-- Node6 -->
<g id="node6" class="node"><title>Node6</title>
<g id="a_node6"><a xlink:href="main_8c.html#ac445892220ccb3b4b337dd3e764bd6c6" target="_top" xlink:title="Handle the process of the buttons being pressed (in test mode)">
<polygon fill="none" stroke="black" points="629,-0.5 629,-18.5 715,-18.5 715,-0.5 629,-0.5"/>
<text text-anchor="middle" x="672" y="-7.3" font-family="Calibri" font-size="9.00">button_proc_test</text>
</a>
</g>
</g>
<!-- Node2&#45;&gt;Node6 -->
<g id="edge6" class="edge"><title>Node2&#45;&gt;Node6</title>
<path fill="none" stroke="midnightblue" d="M869.334,-123.659C862.129,-98.7735 845.793,-55.5322 815,-33.5 786.126,-12.8409 745.594,-7.71623 715.221,-7.24881"/>
<polygon fill="midnightblue" stroke="midnightblue" points="865.97,-124.627 871.951,-133.372 872.73,-122.806 865.97,-124.627"/>
</g>
<!-- Node7 -->
<g id="node7" class="node"><title>Node7</title>
<g id="a_node7"><a xlink:href="main_8c.html#a11724d8cce81ed96bec12a004ea3ea7a" target="_top" xlink:title=" ">
<polygon fill="none" stroke="black" points="751,-133.5 751,-151.5 815,-151.5 815,-133.5 751,-133.5"/>
<text text-anchor="middle" x="783" y="-140.3" font-family="Calibri" font-size="9.00">show_reset</text>
</a>
</g>
</g>
<!-- Node2&#45;&gt;Node7 -->
<g id="edge9" class="edge"><title>Node2&#45;&gt;Node7</title>
<path fill="none" stroke="midnightblue" d="M840.68,-142.5C832.356,-142.5 823.46,-142.5 815.241,-142.5"/>
<polygon fill="midnightblue" stroke="midnightblue" points="840.823,-146 850.823,-142.5 840.823,-139 840.823,-146"/>
</g>
<!-- Node3&#45;&gt;Node4 -->
<g id="edge3" class="edge"><title>Node3&#45;&gt;Node4</title>
<path fill="none" stroke="midnightblue" d="M191.51,-238.327C171.584,-202.078 127.53,-121.938 112.579,-94.7392"/>
<polygon fill="midnightblue" stroke="midnightblue" points="188.562,-240.229 196.446,-247.306 194.696,-236.857 188.562,-240.229"/>
</g>
<!-- Node4&#45;&gt;Node5 -->
<g id="edge4" class="edge"><title>Node4&#45;&gt;Node5</title>
<path fill="none" stroke="midnightblue" d="M63.658,-85.5C54.7022,-85.5 45.6933,-85.5 38.2043,-85.5"/>
<polygon fill="midnightblue" stroke="midnightblue" points="63.663,-89.0001 73.663,-85.5 63.6629,-82.0001 63.663,-89.0001"/>
</g>
<!-- Node6&#45;&gt;Node5 -->
<g id="edge7" class="edge"><title>Node6&#45;&gt;Node5</title>
<path fill="none" stroke="midnightblue" d="M618.635,-9.5C576.468,-9.5 515.671,-9.5 462.5,-9.5 462.5,-9.5 462.5,-9.5 201.5,-9.5 132.836,-9.5 60.1064,-56.3517 32.025,-76.4834"/>
<polygon fill="midnightblue" stroke="midnightblue" points="618.671,-13.0001 628.671,-9.5 618.671,-6.0001 618.671,-13.0001"/>
</g>
<!-- Node7&#45;&gt;Node4 -->
<g id="edge10" class="edge"><title>Node7&#45;&gt;Node4</title>
<path fill="none" stroke="midnightblue" d="M752.374,-129.648C710.863,-112.837 632.652,-85.5 563,-85.5 563,-85.5 563,-85.5 282.5,-85.5 232.37,-85.5 174.162,-85.5 139.114,-85.5"/>
<polygon fill="midnightblue" stroke="midnightblue" points="751.048,-132.887 761.627,-133.468 753.72,-126.416 751.048,-132.887"/>
</g>
<!-- Node8 -->
<g id="node8" class="node"><title>Node8</title>
<g id="a_node8"><a xlink:href="main_8h.html#ad7eb7423e0b17ccfba1ae42f3a3274e0" target="_top" xlink:title=" ">
<polygon fill="none" stroke="black" points="648,-190.5 648,-208.5 696,-208.5 696,-190.5 648,-190.5"/>
<text text-anchor="middle" x="672" y="-197.3" font-family="Calibri" font-size="9.00">get_swr</text>
</a>
</g>
</g>
<!-- Node7&#45;&gt;Node8 -->
<g id="edge11" class="edge"><title>Node7&#45;&gt;Node8</title>
<path fill="none" stroke="midnightblue" d="M755.481,-156.368C735.27,-166.937 708.013,-181.191 690.469,-190.365"/>
<polygon fill="midnightblue" stroke="midnightblue" points="757.248,-159.394 764.487,-151.658 754.004,-153.191 757.248,-159.394"/>
</g>
<!-- Node9 -->
<g id="node9" class="node"><title>Node9</title>
<g id="a_node9"><a xlink:href="main_8h.html#a740ef1b33bb02cd952ad7d8708999472" target="_top" xlink:title=" ">
<polygon fill="none" stroke="black" points="531,-152.5 531,-170.5 593,-170.5 593,-152.5 531,-152.5"/>
<text text-anchor="middle" x="562" y="-159.3" font-family="Calibri" font-size="9.00">coarse_cap</text>
</a>
</g>
</g>
<!-- Node8&#45;&gt;Node9 -->
<g id="edge12" class="edge"><title>Node8&#45;&gt;Node9</title>
<path fill="none" stroke="midnightblue" d="M638.378,-188.022C622.486,-182.43 603.647,-175.802 588.779,-170.57"/>
<polygon fill="midnightblue" stroke="midnightblue" points="637.236,-191.331 647.831,-191.348 639.56,-184.727 637.236,-191.331"/>
</g>
<!-- Node10 -->
<g id="node10" class="node"><title>Node10</title>
<g id="a_node10"><a xlink:href="main_8h.html#a5c7c60c7d70cf76cc52e87722bb0f614" target="_top" xlink:title=" ">
<polygon fill="none" stroke="black" points="428,-190.5 428,-208.5 495,-208.5 495,-190.5 428,-190.5"/>
<text text-anchor="middle" x="461.5" y="-197.3" font-family="Calibri" font-size="9.00">coarse_tune</text>
</a>
</g>
</g>
<!-- Node8&#45;&gt;Node10 -->
<g id="edge17" class="edge"><title>Node8&#45;&gt;Node10</title>
<path fill="none" stroke="midnightblue" d="M637.82,-199.5C598.733,-199.5 534.206,-199.5 495.29,-199.5"/>
<polygon fill="midnightblue" stroke="midnightblue" points="637.89,-203 647.89,-199.5 637.89,-196 637.89,-203"/>
</g>
<!-- Node11 -->
<g id="node11" class="node"><title>Node11</title>
<g id="a_node11"><a xlink:href="main_8h.html#a454a7687c8039514766571b23516ca9c" target="_top" xlink:title=" ">
<polygon fill="none" stroke="black" points="337,-228.5 337,-246.5 392,-246.5 392,-228.5 337,-228.5"/>
<text text-anchor="middle" x="364.5" y="-235.3" font-family="Calibri" font-size="9.00">sub_tune</text>
</a>
</g>
</g>
<!-- Node8&#45;&gt;Node11 -->
<g id="edge24" class="edge"><title>Node8&#45;&gt;Node11</title>
<path fill="none" stroke="midnightblue" d="M637.827,-206.002C624.004,-208.568 607.762,-211.399 593,-213.5 520.652,-223.795 434.777,-231.689 392.196,-235.316"/>
<polygon fill="midnightblue" stroke="midnightblue" points="638.685,-209.402 647.862,-204.107 637.387,-202.523 638.685,-209.402"/>
</g>
<!-- Node12 -->
<g id="node12" class="node"><title>Node12</title>
<g id="a_node12"><a xlink:href="main_8h.html#a1849f2e5bd63d11a7b9549470e287d17" target="_top" xlink:title=" ">
<polygon fill="none" stroke="black" points="266,-247.5 266,-265.5 301,-265.5 301,-247.5 266,-247.5"/>
<text text-anchor="middle" x="283.5" y="-254.3" font-family="Calibri" font-size="9.00">tune</text>
</a>
</g>
</g>
<!-- Node8&#45;&gt;Node12 -->
<g id="edge25" class="edge"><title>Node8&#45;&gt;Node12</title>
<path fill="none" stroke="midnightblue" d="M658.047,-216.806C644.013,-234.238 619.98,-260.501 593,-274.5 491.989,-326.914 446.28,-311.253 337,-279.5 324.578,-275.89 311.233,-270.016 301.107,-265.107"/>
<polygon fill="midnightblue" stroke="midnightblue" points="661.051,-218.646 664.437,-208.607 655.53,-214.343 661.051,-218.646"/>
</g>
<!-- Node13 -->
<g id="node13" class="node"><title>Node13</title>
<g id="a_node13"><a xlink:href="main_8h.html#ab518a3d2c723f12d3af3024a195606ce" target="_top" xlink:title=" ">
<polygon fill="none" stroke="black" points="432,-153.5 432,-171.5 491,-171.5 491,-153.5 432,-153.5"/>
<text text-anchor="middle" x="461.5" y="-160.3" font-family="Calibri" font-size="9.00">sharp_cap</text>
</a>
</g>
</g>
<!-- Node8&#45;&gt;Node13 -->
<g id="edge18" class="edge"><title>Node8&#45;&gt;Node13</title>
<path fill="none" stroke="midnightblue" d="M655.289,-183.263C640.661,-169.407 617.484,-150.493 593,-142.5 555.741,-130.337 510.031,-143.347 483.784,-153.327"/>
<polygon fill="midnightblue" stroke="midnightblue" points="652.904,-185.827 662.49,-190.34 657.81,-180.834 652.904,-185.827"/>
</g>
<!-- Node14 -->
<g id="node14" class="node"><title>Node14</title>
<g id="a_node14"><a xlink:href="main_8h.html#a72210b3ed1d5691c5bbda8c7f1e97197" target="_top" xlink:title=" ">
<polygon fill="none" stroke="black" points="432.5,-266.5 432.5,-284.5 490.5,-284.5 490.5,-266.5 432.5,-266.5"/>
<text text-anchor="middle" x="461.5" y="-273.3" font-family="Calibri" font-size="9.00">sharp_ind</text>
</a>
</g>
</g>
<!-- Node8&#45;&gt;Node14 -->
<g id="edge21" class="edge"><title>Node8&#45;&gt;Node14</title>
<path fill="none" stroke="midnightblue" d="M652.201,-215.242C637.129,-227.036 614.94,-242.611 593,-251.5 559.373,-265.124 517.727,-271.068 490.657,-273.626"/>
<polygon fill="midnightblue" stroke="midnightblue" points="654.596,-217.808 660.197,-208.815 650.21,-212.352 654.596,-217.808"/>
</g>
<!-- Node9&#45;&gt;Node10 -->
<g id="edge13" class="edge"><title>Node9&#45;&gt;Node10</title>
<path fill="none" stroke="midnightblue" d="M528.041,-174.215C514.272,-179.527 498.589,-185.577 486.017,-190.427"/>
<polygon fill="midnightblue" stroke="midnightblue" points="529.587,-177.37 537.657,-170.505 527.067,-170.839 529.587,-177.37"/>
</g>
<!-- Node10&#45;&gt;Node11 -->
<g id="edge14" class="edge"><title>Node10&#45;&gt;Node11</title>
<path fill="none" stroke="midnightblue" d="M428.325,-212.37C415.139,-217.644 400.189,-223.624 388.181,-228.427"/>
<polygon fill="midnightblue" stroke="midnightblue" points="430.001,-215.469 437.986,-208.505 427.402,-208.97 430.001,-215.469"/>
</g>
<!-- Node11&#45;&gt;Node12 -->
<g id="edge15" class="edge"><title>Node11&#45;&gt;Node12</title>
<path fill="none" stroke="midnightblue" d="M326.778,-246.332C317.78,-248.496 308.589,-250.706 301.085,-252.511"/>
<polygon fill="midnightblue" stroke="midnightblue" points="327.85,-249.674 336.754,-243.933 326.213,-242.868 327.85,-249.674"/>
</g>
<!-- Node12&#45;&gt;Node3 -->
<g id="edge16" class="edge"><title>Node12&#45;&gt;Node3</title>
<path fill="none" stroke="midnightblue" d="M255.568,-256.5C247.367,-256.5 238.36,-256.5 230.177,-256.5"/>
<polygon fill="midnightblue" stroke="midnightblue" points="255.746,-260 265.746,-256.5 255.746,-253 255.746,-260"/>
</g>
<!-- Node13&#45;&gt;Node11 -->
<g id="edge19" class="edge"><title>Node13&#45;&gt;Node11</title>
<path fill="none" stroke="midnightblue" d="M433.163,-177.016C431.387,-178.149 429.651,-179.315 428,-180.5 407.242,-195.401 385.828,-216.379 374.24,-228.288"/>
<polygon fill="midnightblue" stroke="midnightblue" points="435.346,-179.791 442.162,-171.679 431.775,-173.77 435.346,-179.791"/>
</g>
<!-- Node13&#45;&gt;Node12 -->
<g id="edge20" class="edge"><title>Node13&#45;&gt;Node12</title>
<path fill="none" stroke="midnightblue" d="M427.048,-175.524C401.678,-185.907 366.295,-201.488 337,-218.5 322.016,-227.202 306.061,-239.185 295.726,-247.354"/>
<polygon fill="midnightblue" stroke="midnightblue" points="428.623,-178.662 436.584,-171.672 426.001,-172.172 428.623,-178.662"/>
</g>
<!-- Node14&#45;&gt;Node11 -->
<g id="edge22" class="edge"><title>Node14&#45;&gt;Node11</title>
<path fill="none" stroke="midnightblue" d="M428.325,-262.63C415.139,-257.356 400.189,-251.376 388.181,-246.573"/>
<polygon fill="midnightblue" stroke="midnightblue" points="427.402,-266.03 437.986,-266.495 430.001,-259.531 427.402,-266.03"/>
</g>
<!-- Node14&#45;&gt;Node12 -->
<g id="edge23" class="edge"><title>Node14&#45;&gt;Node12</title>
<path fill="none" stroke="midnightblue" d="M422.097,-271.354C384.36,-267.28 328.557,-261.256 301.055,-258.287"/>
<polygon fill="midnightblue" stroke="midnightblue" points="421.905,-274.854 432.223,-272.447 422.656,-267.894 421.905,-274.854"/>
</g>
</g>
</svg>
        <g id="navigator" transform="translate(0 0)" fill="#404254">
                <rect fill="#f2f5e9" fill-opacity="0.5" stroke="#606060" stroke-width=".5" x="0" y="0" width="60" height="60"/>
                <use id="zoomplus" xlink:href="#zoomPlus" x="17" y="9" onmousedown="handleZoom(evt,'in')"/>
                <use id="zoomminus" xlink:href="#zoomMin" x="42" y="9" onmousedown="handleZoom(evt,'out')"/>
                <use id="reset" xlink:href="#resetDef" x="30" y="36" onmousedown="handleReset()"/>
                <g id="arrowUp" xlink:href="#dirArrow" transform="translate(30 24)" onmousedown="handlePan(0,-1)">
                  <use xlink:href="#rim" fill="#404040">
                        <set attributeName="fill" to="#808080" begin="arrowUp.mouseover" end="arrowUp.mouseout"/>
                  </use>
                  <path fill="none" stroke="white" stroke-width="1.5" d="M0,-3.0v7 M-2.5,-0.5L0,-3.0L2.5,-0.5"/>
                </g>
                <g id="arrowRight" xlink:href="#dirArrow" transform="rotate(90) translate(36 -43)" onmousedown="handlePan(1,0)">
                  <use xlink:href="#rim" fill="#404040">
                        <set attributeName="fill" to="#808080" begin="arrowRight.mouseover" end="arrowRight.mouseout"/>
                  </use>
                  <path fill="none" stroke="white" stroke-width="1.5" d="M0,-3.0v7 M-2.5,-0.5L0,-3.0L2.5,-0.5"/>
                </g>
                <g id="arrowDown" xlink:href="#dirArrow" transform="rotate(180) translate(-30 -48)" onmousedown="handlePan(0,1)">
                  <use xlink:href="#rim" fill="#404040">
                        <set attributeName="fill" to="#808080" begin="arrowDown.mouseover" end="arrowDown.mouseout"/>
                  </use>
                  <path fill="none" stroke="white" stroke-width="1.5" d="M0,-3.0v7 M-2.5,-0.5L0,-3.0L2.5,-0.5"/>
                </g>
                <g id="arrowLeft" xlink:href="#dirArrow" transform="rotate(270) translate(-36 17)" onmousedown="handlePan(-1,0)">
                  <use xlink:href="#rim" fill="#404040">
                        <set attributeName="fill" to="#808080" begin="arrowLeft.mouseover" end="arrowLeft.mouseout"/>
                  </use>
                  <path fill="none" stroke="white" stroke-width="1.5" d="M0,-3.0v7 M-2.5,-0.5L0,-3.0L2.5,-0.5"/>
                </g>
        </g>
        <svg viewBox="0 0 15 15" width="100%" height="30px" preserveAspectRatio="xMaxYMin meet">
         <g id="arrow_out" transform="scale(0.3 0.3)">
          <a xlink:href="main_8c_a593218c5fe00b499d494826fc0aa5279_icgraph_org.svg" target="_base">
           <rect id="button" ry="5" rx="5" y="6" x="6" height="38" width="38"
                fill="#f2f5e9" fill-opacity="0.5" stroke="#606060" stroke-width="1.0"/>
           <path id="arrow"
             d="M 11.500037,31.436501 C 11.940474,20.09759 22.043105,11.32322 32.158766,21.979434 L 37.068811,17.246167 C 37.068811,17.246167 37.088388,32 37.088388,32 L 22.160133,31.978069 C 22.160133,31.978069 26.997745,27.140456 26.997745,27.140456 C 18.528582,18.264221 13.291696,25.230495 11.500037,31.436501 z"
             style="fill:#404040;"/>
          </a>
         </g>
        </svg>
</svg>
