<?xml version="1.0" encoding="UTF-8" standalone="no"?>
<!DOCTYPE svg PUBLIC "-//W3C//DTD SVG 1.1//EN"
 "http://www.w3.org/Graphics/SVG/1.1/DTD/svg11.dtd">
<!-- Generated by graphviz version 2.38.0 (20140413.2041)
 -->
<!-- Title: button_proc Pages: 1 -->
<!--zoomable 1023 -->
<svg id="main" version="1.1" xmlns="http://www.w3.org/2000/svg" xmlns:xlink="http://www.w3.org/1999/xlink" xml:space="preserve" onload="init(evt)">
<style type="text/css"><![CDATA[
.edge:hover path { stroke: red; }
.edge:hover polygon { stroke: red; fill: red; }
]]></style>
<script type="text/javascript"><![CDATA[
var edges = document.getElementsByTagName('g');
if (edges && edges.length) {
  for (var i=0;i<edges.length;i++) {
    if (edges[i].id.substr(0,4)=='edge') {
      edges[i].setAttribute('class','edge');
    }
  }
}
]]></script>
        <defs>
                <circle id="rim" cx="0" cy="0" r="7"/>
                <circle id="rim2" cx="0" cy="0" r="3.5"/>
                <g id="zoomPlus">
                        <use xlink:href="#rim" fill="#404040">
                                <set attributeName="fill" to="#808080" begin="zoomplus.mouseover" end="zoomplus.mouseout"/>
                        </use>
                        <path d="M-4,0h8M0,-4v8" fill="none" stroke="white" stroke-width="1.5" pointer-events="none"/>
                </g>
                <g id="zoomMin">
                        <use xlink:href="#rim" fill="#404040">
                                <set attributeName="fill" to="#808080" begin="zoomminus.mouseover" end="zoomminus.mouseout"/>
                        </use>
                        <path d="M-4,0h8" fill="none" stroke="white" stroke-width="1.5" pointer-events="none"/>
                </g>
                <g id="dirArrow">
                        <path fill="none" stroke="white" stroke-width="1.5" d="M0,-3.0v7 M-2.5,-0.5L0,-3.0L2.5,-0.5"/>
                </g>
               <g id="resetDef">
                       <use xlink:href="#rim2" fill="#404040">
                               <set attributeName="fill" to="#808080" begin="reset.mouseover" end="reset.mouseout"/>
                       </use>
               </g>
        </defs>

<script type="text/javascript">
var viewWidth = 1139;
var viewHeight = 1023;
var sectionId = 'dynsection-7';
</script>
<script xlink:href="svgpan.js"/>
<svg id="graph" class="graph">
<g id="viewport">
<title>button_proc</title>
<!-- Node1 -->
<g id="node1" class="node"><title>Node1</title>
<g id="a_node1"><a xlink:title="Handle the process of the buttons being pressed.">
<polygon fill="#bfbfbf" stroke="black" points="0,-207.5 0,-225.5 65,-225.5 65,-207.5 0,-207.5"/>
<text text-anchor="middle" x="32.5" y="-214.3" font-family="Calibri" font-size="9.00">button_proc</text>
</a>
</g>
</g>
<!-- Node2 -->
<g id="node2" class="node"><title>Node2</title>
<g id="a_node2"><a xlink:href="main_8c.html#af18ed7edda7874a97cacaa11a2759260" target="_top" xlink:title=" ">
<polygon fill="none" stroke="black" points="101,-283.5 101,-301.5 156,-301.5 156,-283.5 101,-283.5"/>
<text text-anchor="middle" x="128.5" y="-290.3" font-family="Calibri" font-size="9.00">btn_push</text>
</a>
</g>
</g>
<!-- Node1&#45;&gt;Node2 -->
<g id="edge1" class="edge"><title>Node1&#45;&gt;Node2</title>
<path fill="none" stroke="midnightblue" d="M44.6522,-225.517C60.4112,-238.258 89.4085,-261.703 108.574,-277.198"/>
<polygon fill="midnightblue" stroke="midnightblue" points="106.385,-279.93 116.362,-283.495 110.787,-274.486 106.385,-279.93"/>
</g>
<!-- Node3 -->
<g id="node3" class="node"><title>Node3</title>
<g id="a_node3"><a xlink:href="main_8c.html#a6911b3f075cdf1d54cb14f17f6e5ef6b" target="_top" xlink:title=" ">
<polygon fill="none" stroke="black" points="955,-699.5 955,-717.5 1002,-717.5 1002,-699.5 955,-699.5"/>
<text text-anchor="middle" x="978.5" y="-706.3" font-family="Calibri" font-size="9.00">lcd_ind</text>
</a>
</g>
</g>
<!-- Node1&#45;&gt;Node3 -->
<g id="edge65" class="edge"><title>Node1&#45;&gt;Node3</title>
<path fill="none" stroke="midnightblue" d="M33.3971,-225.561C32.6993,-299.195 30.6106,-800.06 101,-929.5 130.098,-983.009 147.591,-1014.5 208.5,-1014.5 208.5,-1014.5 208.5,-1014.5 768,-1014.5 835.608,-1014.5 858.709,-994.43 902,-942.5 956.7,-876.885 972.017,-770.864 976.097,-727.703"/>
<polygon fill="midnightblue" stroke="midnightblue" points="979.587,-727.972 976.942,-717.712 972.612,-727.382 979.587,-727.972"/>
</g>
<!-- Node4 -->
<g id="node4" class="node"><title>Node4</title>
<g id="a_node4"><a xlink:href="oled__control_8h.html#ab272af1010175ba1166b08b8b3df6874" target="_top" xlink:title=" ">
<polygon fill="none" stroke="black" points="1063.5,-207.5 1063.5,-225.5 1122.5,-225.5 1122.5,-207.5 1063.5,-207.5"/>
<text text-anchor="middle" x="1093" y="-214.3" font-family="Calibri" font-size="9.00">led_wr_str</text>
</a>
</g>
</g>
<!-- Node1&#45;&gt;Node4 -->
<g id="edge67" class="edge"><title>Node1&#45;&gt;Node4</title>
<path fill="none" stroke="midnightblue" d="M40.4142,-207.141C51.669,-192.471 75.2926,-163.938 101,-146.5 143.723,-117.519 156.875,-102.5 208.5,-102.5 208.5,-102.5 208.5,-102.5 867.5,-102.5 937.869,-102.5 958.016,-113.391 1019,-148.5 1042.3,-161.916 1064.19,-184.069 1077.81,-199.427"/>
<polygon fill="midnightblue" stroke="midnightblue" points="1075.3,-201.876 1084.48,-207.162 1080.6,-197.304 1075.3,-201.876"/>
</g>
<!-- Node5 -->
<g id="node5" class="node"><title>Node5</title>
<g id="a_node5"><a xlink:href="main_8c.html#ae5a14b4884e85f47ad8a4a716f13203a" target="_top" xlink:title=" ">
<polygon fill="none" stroke="black" points="743,-207.5 743,-225.5 791,-225.5 791,-207.5 743,-207.5"/>
<text text-anchor="middle" x="767" y="-214.3" font-family="Calibri" font-size="9.00">lcd_pwr</text>
</a>
</g>
</g>
<!-- Node1&#45;&gt;Node5 -->
<g id="edge66" class="edge"><title>Node1&#45;&gt;Node5</title>
<path fill="none" stroke="midnightblue" d="M58.6319,-207.495C92.2927,-196.257 154.093,-178.5 208.5,-178.5 208.5,-178.5 208.5,-178.5 388.5,-178.5 422.487,-178.5 647.042,-203.199 732.796,-212.772"/>
<polygon fill="midnightblue" stroke="midnightblue" points="732.45,-216.255 742.777,-213.888 733.228,-209.299 732.45,-216.255"/>
</g>
<!-- Node7 -->
<g id="node7" class="node"><title>Node7</title>
<g id="a_node7"><a xlink:href="oled__control_8c.html#a5febfdc847aa6f3bc3f3c8f7818b8699" target="_top" xlink:title=" ">
<polygon fill="none" stroke="black" points="835.5,-55.5 835.5,-73.5 897.5,-73.5 897.5,-55.5 835.5,-55.5"/>
<text text-anchor="middle" x="866.5" y="-62.3" font-family="Calibri" font-size="9.00">display_on</text>
</a>
</g>
</g>
<!-- Node1&#45;&gt;Node7 -->
<g id="edge64" class="edge"><title>Node1&#45;&gt;Node7</title>
<path fill="none" stroke="midnightblue" d="M35.5133,-207.355C41.2303,-183.659 59.8813,-119.927 101,-88.5 139.895,-58.7731 159.546,-64.5 208.5,-64.5 208.5,-64.5 208.5,-64.5 672,-64.5 724.929,-64.5 786.001,-64.5 825.145,-64.5"/>
<polygon fill="midnightblue" stroke="midnightblue" points="825.335,-68.0001 835.335,-64.5 825.335,-61.0001 825.335,-68.0001"/>
</g>
<!-- Node18 -->
<g id="node18" class="node"><title>Node18</title>
<g id="a_node18"><a xlink:href="main_8h.html#a2a7963b9b09696c6654b96c67900c6ea" target="_top" xlink:title=" ">
<polygon fill="none" stroke="black" points="842.5,-701.5 842.5,-719.5 890.5,-719.5 890.5,-701.5 842.5,-701.5"/>
<text text-anchor="middle" x="866.5" y="-708.3" font-family="Calibri" font-size="9.00">set_cap</text>
</a>
</g>
</g>
<!-- Node1&#45;&gt;Node18 -->
<g id="edge68" class="edge"><title>Node1&#45;&gt;Node18</title>
<path fill="none" stroke="midnightblue" d="M33.6108,-225.612C34.5825,-295.582 43.0645,-748.132 101,-869.5 130.04,-930.335 141.089,-976.5 208.5,-976.5 208.5,-976.5 208.5,-976.5 388.5,-976.5 587.927,-976.5 639.098,-910.862 795,-786.5 813.957,-771.378 814.481,-763.254 831,-745.5 836.754,-739.316 843.217,-732.681 848.98,-726.868"/>
<polygon fill="midnightblue" stroke="midnightblue" points="851.68,-729.118 856.273,-719.571 846.729,-724.17 851.68,-729.118"/>
</g>
<!-- Node19 -->
<g id="node19" class="node"><title>Node19</title>
<g id="a_node19"><a xlink:href="main_8h.html#aecc83cd8bceb4bc24be844732ead2c2c" target="_top" xlink:title=" ">
<polygon fill="none" stroke="black" points="843,-530.5 843,-548.5 890,-548.5 890,-530.5 843,-530.5"/>
<text text-anchor="middle" x="866.5" y="-537.3" font-family="Calibri" font-size="9.00">set_ind</text>
</a>
</g>
</g>
<!-- Node1&#45;&gt;Node19 -->
<g id="edge69" class="edge"><title>Node1&#45;&gt;Node19</title>
<path fill="none" stroke="midnightblue" d="M33.6736,-225.629C35.5005,-309.207 54.3728,-938.5 208.5,-938.5 208.5,-938.5 208.5,-938.5 388.5,-938.5 629.248,-938.5 812.502,-635.769 855.76,-557.693"/>
<polygon fill="midnightblue" stroke="midnightblue" points="859.014,-559.038 860.733,-548.583 852.869,-555.684 859.014,-559.038"/>
</g>
<!-- Node20 -->
<g id="node20" class="node"><title>Node20</title>
<g id="a_node20"><a xlink:href="main_8h.html#ae0c1e0ec712704e43db40473f103d621" target="_top" xlink:title="Set the state of the switch.">
<polygon fill="none" stroke="black" points="844,-282.5 844,-300.5 889,-300.5 889,-282.5 844,-282.5"/>
<text text-anchor="middle" x="866.5" y="-289.3" font-family="Calibri" font-size="9.00">set_sw</text>
</a>
</g>
</g>
<!-- Node1&#45;&gt;Node20 -->
<g id="edge70" class="edge"><title>Node1&#45;&gt;Node20</title>
<path fill="none" stroke="midnightblue" d="M45.0427,-207.483C72.01,-187.352 141.922,-140.5 208.5,-140.5 208.5,-140.5 208.5,-140.5 388.5,-140.5 570.934,-140.5 647.727,-89.8291 795,-197.5 824.848,-219.322 805.596,-245.635 831,-272.5 832.374,-273.953 833.885,-275.322 835.483,-276.608"/>
<polygon fill="midnightblue" stroke="midnightblue" points="833.725,-279.644 843.972,-282.337 837.641,-273.842 833.725,-279.644"/>
</g>
<!-- Node25 -->
<g id="node25" class="node"><title>Node25</title>
<g id="a_node25"><a xlink:href="main_8c.html#a11724d8cce81ed96bec12a004ea3ea7a" target="_top" xlink:title=" ">
<polygon fill="none" stroke="black" points="639,-321.5 639,-339.5 703,-339.5 703,-321.5 639,-321.5"/>
<text text-anchor="middle" x="671" y="-328.3" font-family="Calibri" font-size="9.00">show_reset</text>
</a>
</g>
</g>
<!-- Node1&#45;&gt;Node25 -->
<g id="edge71" class="edge"><title>Node1&#45;&gt;Node25</title>
<path fill="none" stroke="midnightblue" d="M65.1142,-216.5C100.162,-216.5 158.37,-216.5 208.5,-216.5 208.5,-216.5 208.5,-216.5 291.5,-216.5 428.993,-216.5 583.101,-286.322 643.607,-316.679"/>
<polygon fill="midnightblue" stroke="midnightblue" points="642.323,-319.953 652.823,-321.364 645.494,-313.712 642.323,-319.953"/>
</g>
<!-- Node2&#45;&gt;Node3 -->
<g id="edge2" class="edge"><title>Node2&#45;&gt;Node3</title>
<path fill="none" stroke="midnightblue" d="M129.855,-301.567C133.056,-377.2 159.885,-900.5 289.5,-900.5 289.5,-900.5 289.5,-900.5 388.5,-900.5 518.091,-900.5 540.409,-976.5 670,-976.5 670,-976.5 670,-976.5 768,-976.5 894.482,-976.5 955.963,-788.926 972.678,-727.628"/>
<polygon fill="midnightblue" stroke="midnightblue" points="976.124,-728.287 975.284,-717.725 969.355,-726.505 976.124,-728.287"/>
</g>
<!-- Node2&#45;&gt;Node4 -->
<g id="edge28" class="edge"><title>Node2&#45;&gt;Node4</title>
<path fill="none" stroke="midnightblue" d="M147.646,-283.447C214.966,-250.724 457.501,-140.5 670,-140.5 670,-140.5 670,-140.5 867.5,-140.5 944.07,-140.5 1027.94,-180.655 1068.04,-202.589"/>
<polygon fill="midnightblue" stroke="midnightblue" points="1066.38,-205.669 1076.82,-207.483 1069.79,-199.556 1066.38,-205.669"/>
</g>
<!-- Node2&#45;&gt;Node5 -->
<g id="edge4" class="edge"><title>Node2&#45;&gt;Node5</title>
<path fill="none" stroke="midnightblue" d="M156.268,-290.917C238.453,-285.777 494.228,-267.694 703,-230.5 712.721,-228.768 723.214,-226.57 732.797,-224.431"/>
<polygon fill="midnightblue" stroke="midnightblue" points="733.787,-227.795 742.758,-222.159 732.23,-220.971 733.787,-227.795"/>
</g>
<!-- Node22 -->
<g id="node22" class="node"><title>Node22</title>
<g id="a_node22"><a xlink:href="main_8h.html#a1849f2e5bd63d11a7b9549470e287d17" target="_top" xlink:title=" ">
<polygon fill="none" stroke="black" points="192,-530.5 192,-548.5 227,-548.5 227,-530.5 192,-530.5"/>
<text text-anchor="middle" x="209.5" y="-537.3" font-family="Calibri" font-size="9.00">tune</text>
</a>
</g>
</g>
<!-- Node2&#45;&gt;Node22 -->
<g id="edge29" class="edge"><title>Node2&#45;&gt;Node22</title>
<path fill="none" stroke="midnightblue" d="M132.405,-301.584C143.922,-337.591 186.51,-470.747 202.437,-520.544"/>
<polygon fill="midnightblue" stroke="midnightblue" points="199.188,-521.875 205.568,-530.334 205.855,-519.743 199.188,-521.875"/>
</g>
<!-- Node3&#45;&gt;Node4 -->
<g id="edge3" class="edge"><title>Node3&#45;&gt;Node4</title>
<path fill="none" stroke="midnightblue" d="M981.647,-699.111C995.196,-639.857 1068.88,-317.597 1087.65,-235.525"/>
<polygon fill="midnightblue" stroke="midnightblue" points="1091.1,-236.12 1089.92,-225.591 1084.28,-234.559 1091.1,-236.12"/>
</g>
<!-- Node5&#45;&gt;Node4 -->
<g id="edge21" class="edge"><title>Node5&#45;&gt;Node4</title>
<path fill="none" stroke="midnightblue" d="M791.266,-211.601C835.68,-202.944 935.556,-186.819 1019,-197.5 1030.64,-198.989 1043.07,-201.763 1054.31,-204.739"/>
<polygon fill="midnightblue" stroke="midnightblue" points="1053.68,-208.195 1064.25,-207.499 1055.55,-201.451 1053.68,-208.195"/>
</g>
<!-- Node6 -->
<g id="node6" class="node"><title>Node6</title>
<g id="a_node6"><a xlink:href="main_8c.html#a593218c5fe00b499d494826fc0aa5279" target="_top" xlink:title=" ">
<polygon fill="none" stroke="black" points="831,-245.5 831,-263.5 902,-263.5 902,-245.5 831,-245.5"/>
<text text-anchor="middle" x="866.5" y="-252.3" font-family="Calibri" font-size="9.00">button_delay</text>
</a>
</g>
</g>
<!-- Node5&#45;&gt;Node6 -->
<g id="edge5" class="edge"><title>Node5&#45;&gt;Node6</title>
<path fill="none" stroke="midnightblue" d="M791.106,-225.505C803.522,-230.345 819.041,-236.393 832.687,-241.711"/>
<polygon fill="midnightblue" stroke="midnightblue" points="831.633,-245.057 842.222,-245.427 834.175,-238.535 831.633,-245.057"/>
</g>
<!-- Node5&#45;&gt;Node7 -->
<g id="edge6" class="edge"><title>Node5&#45;&gt;Node7</title>
<path fill="none" stroke="midnightblue" d="M773.807,-207.447C789.553,-182.899 833.275,-114.738 854.139,-82.212"/>
<polygon fill="midnightblue" stroke="midnightblue" points="857.147,-84.0048 859.6,-73.6978 851.255,-80.2253 857.147,-84.0048"/>
</g>
<!-- Node13 -->
<g id="node13" class="node"><title>Node13</title>
<g id="a_node13"><a xlink:href="main_8h.html#ab37ca657b79c6b9176cb63e9d812a182" target="_top" xlink:title=" ">
<polygon fill="none" stroke="black" points="842,-396.5 842,-414.5 891,-414.5 891,-396.5 842,-396.5"/>
<text text-anchor="middle" x="866.5" y="-403.3" font-family="Calibri" font-size="9.00">get_pwr</text>
</a>
</g>
</g>
<!-- Node5&#45;&gt;Node13 -->
<g id="edge15" class="edge"><title>Node5&#45;&gt;Node13</title>
<path fill="none" stroke="midnightblue" d="M769.205,-225.65C773.218,-252.944 788.38,-335.015 831,-385.5 832.488,-387.262 834.172,-388.905 835.978,-390.428"/>
<polygon fill="midnightblue" stroke="midnightblue" points="834.23,-393.477 844.427,-396.353 838.249,-387.746 834.23,-393.477"/>
</g>
<!-- Node17 -->
<g id="node17" class="node"><title>Node17</title>
<g id="a_node17"><a xlink:href="main_8c.html#aa8fd50019a763561abc6621bb224417f" target="_top" xlink:title=" ">
<polygon fill="none" stroke="black" points="955,-207.5 955,-225.5 1002,-225.5 1002,-207.5 955,-207.5"/>
<text text-anchor="middle" x="978.5" y="-214.3" font-family="Calibri" font-size="9.00">lcd_swr</text>
</a>
</g>
</g>
<!-- Node5&#45;&gt;Node17 -->
<g id="edge19" class="edge"><title>Node5&#45;&gt;Node17</title>
<path fill="none" stroke="midnightblue" d="M791.221,-216.5C828.541,-216.5 901.996,-216.5 944.667,-216.5"/>
<polygon fill="midnightblue" stroke="midnightblue" points="944.812,-220 954.812,-216.5 944.812,-213 944.812,-220"/>
</g>
<!-- Node5&#45;&gt;Node18 -->
<g id="edge22" class="edge"><title>Node5&#45;&gt;Node18</title>
<path fill="none" stroke="midnightblue" d="M769.572,-225.749C776.368,-265.563 804.094,-426.278 831,-557.5 840.898,-605.775 854.043,-662.259 860.898,-691.219"/>
<polygon fill="midnightblue" stroke="midnightblue" points="857.556,-692.293 863.273,-701.213 864.366,-690.675 857.556,-692.293"/>
</g>
<!-- Node5&#45;&gt;Node19 -->
<g id="edge23" class="edge"><title>Node5&#45;&gt;Node19</title>
<path fill="none" stroke="midnightblue" d="M770.813,-225.818C784.187,-270.124 841.455,-459.844 859.813,-520.661"/>
<polygon fill="midnightblue" stroke="midnightblue" points="856.528,-521.89 862.769,-530.452 863.23,-519.867 856.528,-521.89"/>
</g>
<!-- Node5&#45;&gt;Node20 -->
<g id="edge24" class="edge"><title>Node5&#45;&gt;Node20</title>
<path fill="none" stroke="midnightblue" d="M778.368,-225.722C796.205,-241.588 830.823,-272.375 831,-272.5 833.356,-274.164 835.873,-275.796 838.433,-277.361"/>
<polygon fill="midnightblue" stroke="midnightblue" points="836.722,-280.415 847.134,-282.373 840.216,-274.349 836.722,-280.415"/>
</g>
<!-- Node21 -->
<g id="node21" class="node"><title>Node21</title>
<g id="a_node21"><a xlink:href="main_8c.html#a4ae0d4fa97fc0ca3611813fee4f9af7c" target="_top" xlink:title=" ">
<polygon fill="none" stroke="black" points="837.5,-358.5 837.5,-376.5 895.5,-376.5 895.5,-358.5 837.5,-358.5"/>
<text text-anchor="middle" x="866.5" y="-365.3" font-family="Calibri" font-size="9.00">show_pwr</text>
</a>
</g>
</g>
<!-- Node5&#45;&gt;Node21 -->
<g id="edge25" class="edge"><title>Node5&#45;&gt;Node21</title>
<path fill="none" stroke="midnightblue" d="M774.099,-225.946C790.043,-250.638 833.164,-317.42 853.966,-349.638"/>
<polygon fill="midnightblue" stroke="midnightblue" points="851.286,-351.939 859.651,-358.442 857.167,-348.142 851.286,-351.939"/>
</g>
<!-- Node8 -->
<g id="node8" class="node"><title>Node8</title>
<g id="a_node8"><a xlink:href="oled__control_8c.html#a5a5d7ef6b1877aaf94c1f4b7fc0f2d2d" target="_top" xlink:title=" ">
<polygon fill="none" stroke="black" points="951,-55.5 951,-73.5 1006,-73.5 1006,-55.5 951,-55.5"/>
<text text-anchor="middle" x="978.5" y="-62.3" font-family="Calibri" font-size="9.00">led_send</text>
</a>
</g>
</g>
<!-- Node7&#45;&gt;Node8 -->
<g id="edge7" class="edge"><title>Node7&#45;&gt;Node8</title>
<path fill="none" stroke="midnightblue" d="M897.558,-64.5C910.839,-64.5 926.581,-64.5 940.569,-64.5"/>
<polygon fill="midnightblue" stroke="midnightblue" points="940.855,-68.0001 950.855,-64.5 940.854,-61.0001 940.855,-68.0001"/>
</g>
<!-- Node12 -->
<g id="node12" class="node"><title>Node12</title>
<g id="a_node12"><a xlink:href="oled__control_8c.html#ad141ed038278a6fcad6c307932f01ec8" target="_top" xlink:title=" ">
<polygon fill="none" stroke="black" points="938,-18.5 938,-36.5 1019,-36.5 1019,-18.5 938,-18.5"/>
<text text-anchor="middle" x="978.5" y="-25.3" font-family="Calibri" font-size="9.00">send_command</text>
</a>
</g>
</g>
<!-- Node7&#45;&gt;Node12 -->
<g id="edge11" class="edge"><title>Node7&#45;&gt;Node12</title>
<path fill="none" stroke="midnightblue" d="M894.409,-55.4488C908.392,-50.7454 925.686,-44.9282 940.87,-39.8209"/>
<polygon fill="midnightblue" stroke="midnightblue" points="942.125,-43.0916 950.488,-36.586 939.893,-36.4568 942.125,-43.0916"/>
</g>
<!-- Node9 -->
<g id="node9" class="node"><title>Node9</title>
<g id="a_node9"><a xlink:href="oled__control_8c.html#ab7f6b5c6c1483f6286f2de5786c028d9" target="_top" xlink:title=" ">
<polygon fill="none" stroke="black" points="1057,-0.5 1057,-18.5 1129,-18.5 1129,-0.5 1057,-0.5"/>
<text text-anchor="middle" x="1093" y="-7.3" font-family="Calibri" font-size="9.00">Soft_I2C_Start</text>
</a>
</g>
</g>
<!-- Node8&#45;&gt;Node9 -->
<g id="edge8" class="edge"><title>Node8&#45;&gt;Node9</title>
<path fill="none" stroke="midnightblue" d="M998.415,-55.4741C1004.95,-52.338 1012.3,-48.784 1019,-45.5 1035.06,-37.6227 1038.96,-35.4129 1055,-27.5 1057.95,-26.0465 1061.03,-24.5341 1064.1,-23.031"/>
<polygon fill="midnightblue" stroke="midnightblue" points="1065.7,-26.1455 1073.16,-18.6176 1062.64,-19.8532 1065.7,-26.1455"/>
</g>
<!-- Node10 -->
<g id="node10" class="node"><title>Node10</title>
<g id="a_node10"><a xlink:href="oled__control_8c.html#a16eb842aa672ca44820ae6d5f9933425" target="_top" xlink:title=" ">
<polygon fill="none" stroke="black" points="1057.5,-74.5 1057.5,-92.5 1128.5,-92.5 1128.5,-74.5 1057.5,-74.5"/>
<text text-anchor="middle" x="1093" y="-81.3" font-family="Calibri" font-size="9.00">Soft_I2C_Stop</text>
</a>
</g>
</g>
<!-- Node8&#45;&gt;Node10 -->
<g id="edge9" class="edge"><title>Node8&#45;&gt;Node10</title>
<path fill="none" stroke="midnightblue" d="M1006.16,-69.0027C1018.5,-71.0867 1033.5,-73.6192 1047.48,-75.9808"/>
<polygon fill="midnightblue" stroke="midnightblue" points="1046.99,-79.4471 1057.43,-77.6613 1048.15,-72.5448 1046.99,-79.4471"/>
</g>
<!-- Node11 -->
<g id="node11" class="node"><title>Node11</title>
<g id="a_node11"><a xlink:href="oled__control_8c.html#a73610916645f17c19124e697b005f694" target="_top" xlink:title=" ">
<polygon fill="none" stroke="black" points="1055,-37.5 1055,-55.5 1131,-55.5 1131,-37.5 1055,-37.5"/>
<text text-anchor="middle" x="1093" y="-44.3" font-family="Calibri" font-size="9.00">Soft_I2C_Write</text>
</a>
</g>
</g>
<!-- Node8&#45;&gt;Node11 -->
<g id="edge10" class="edge"><title>Node8&#45;&gt;Node11</title>
<path fill="none" stroke="midnightblue" d="M1006.16,-60.2343C1017.76,-58.3785 1031.7,-56.1474 1044.95,-54.0282"/>
<polygon fill="midnightblue" stroke="midnightblue" points="1045.57,-57.4735 1054.89,-52.4375 1044.46,-50.5615 1045.57,-57.4735"/>
</g>
<!-- Node12&#45;&gt;Node9 -->
<g id="edge12" class="edge"><title>Node12&#45;&gt;Node9</title>
<path fill="none" stroke="midnightblue" d="M1019.16,-21.1539C1028.08,-19.7272 1037.61,-18.2028 1046.73,-16.7426"/>
<polygon fill="midnightblue" stroke="midnightblue" points="1047.49,-20.166 1056.81,-15.1299 1046.39,-13.2539 1047.49,-20.166"/>
</g>
<!-- Node12&#45;&gt;Node10 -->
<g id="edge13" class="edge"><title>Node12&#45;&gt;Node10</title>
<path fill="none" stroke="midnightblue" d="M1000.11,-36.6179C1006.22,-39.3971 1012.91,-42.5096 1019,-45.5 1035.24,-53.4766 1038.95,-56.1455 1055,-64.5 1058.33,-66.2361 1061.84,-68.0518 1065.32,-69.8431"/>
<polygon fill="midnightblue" stroke="midnightblue" points="1063.79,-72.9957 1074.29,-74.4558 1067,-66.7704 1063.79,-72.9957"/>
</g>
<!-- Node12&#45;&gt;Node11 -->
<g id="edge14" class="edge"><title>Node12&#45;&gt;Node11</title>
<path fill="none" stroke="midnightblue" d="M1019.16,-34.1987C1027.53,-35.6116 1036.43,-37.1154 1045.04,-38.5688"/>
<polygon fill="midnightblue" stroke="midnightblue" points="1044.51,-42.0291 1054.95,-40.2433 1045.68,-35.1268 1044.51,-42.0291"/>
</g>
<!-- Node14 -->
<g id="node14" class="node"><title>Node14</title>
<g id="a_node14"><a xlink:href="main_8h.html#ab19e6e081315a9a200394b74d10de395" target="_top" xlink:title=" ">
<polygon fill="none" stroke="black" points="950,-470.5 950,-488.5 1007,-488.5 1007,-470.5 950,-470.5"/>
<text text-anchor="middle" x="978.5" y="-477.3" font-family="Calibri" font-size="9.00">correction</text>
</a>
</g>
</g>
<!-- Node13&#45;&gt;Node14 -->
<g id="edge16" class="edge"><title>Node13&#45;&gt;Node14</title>
<path fill="none" stroke="midnightblue" d="M881.167,-414.531C887.6,-418.901 895.31,-424.315 902,-429.5 918.689,-442.435 920.334,-448.935 938,-460.5 940.801,-462.334 943.807,-464.099 946.863,-465.764"/>
<polygon fill="midnightblue" stroke="midnightblue" points="945.533,-469.014 956.032,-470.431 948.708,-462.775 945.533,-469.014"/>
</g>
<!-- Node15 -->
<g id="node15" class="node"><title>Node15</title>
<g id="a_node15"><a xlink:href="main_8h.html#acfd46f8711e9c1c20fffdfc8bdaa0ddd" target="_top" xlink:title=" ">
<polygon fill="none" stroke="black" points="946,-433.5 946,-451.5 1011,-451.5 1011,-433.5 946,-433.5"/>
<text text-anchor="middle" x="978.5" y="-440.3" font-family="Calibri" font-size="9.00">get_forward</text>
</a>
</g>
</g>
<!-- Node13&#45;&gt;Node15 -->
<g id="edge17" class="edge"><title>Node13&#45;&gt;Node15</title>
<path fill="none" stroke="midnightblue" d="M891.098,-413.437C905.526,-418.291 924.291,-424.603 940.646,-430.104"/>
<polygon fill="midnightblue" stroke="midnightblue" points="939.863,-433.533 950.457,-433.404 942.094,-426.898 939.863,-433.533"/>
</g>
<!-- Node16 -->
<g id="node16" class="node"><title>Node16</title>
<g id="a_node16"><a xlink:href="main_8h.html#aa6b9a2b3d88f578ba6a9fefd911eae75" target="_top" xlink:title=" ">
<polygon fill="none" stroke="black" points="946.5,-396.5 946.5,-414.5 1010.5,-414.5 1010.5,-396.5 946.5,-396.5"/>
<text text-anchor="middle" x="978.5" y="-403.3" font-family="Calibri" font-size="9.00">get_reverse</text>
</a>
</g>
</g>
<!-- Node13&#45;&gt;Node16 -->
<g id="edge18" class="edge"><title>Node13&#45;&gt;Node16</title>
<path fill="none" stroke="midnightblue" d="M891.098,-405.5C904.228,-405.5 920.95,-405.5 936.178,-405.5"/>
<polygon fill="midnightblue" stroke="midnightblue" points="936.42,-409 946.419,-405.5 936.419,-402 936.42,-409"/>
</g>
<!-- Node17&#45;&gt;Node4 -->
<g id="edge20" class="edge"><title>Node17&#45;&gt;Node4</title>
<path fill="none" stroke="midnightblue" d="M1002.27,-216.5C1016.83,-216.5 1036.11,-216.5 1053.07,-216.5"/>
<polygon fill="midnightblue" stroke="midnightblue" points="1053.26,-220 1063.26,-216.5 1053.26,-213 1053.26,-220"/>
</g>
<!-- Node21&#45;&gt;Node3 -->
<g id="edge26" class="edge"><title>Node21&#45;&gt;Node3</title>
<path fill="none" stroke="midnightblue" d="M890.382,-376.542C894.77,-379.18 898.942,-382.468 902,-386.5 920.739,-411.208 961.616,-623.514 973.924,-689.209"/>
<polygon fill="midnightblue" stroke="midnightblue" points="970.547,-690.195 975.821,-699.384 977.428,-688.912 970.547,-690.195"/>
</g>
<!-- Node21&#45;&gt;Node4 -->
<g id="edge27" class="edge"><title>Node21&#45;&gt;Node4</title>
<path fill="none" stroke="midnightblue" d="M895.546,-369.925C928.103,-371.296 982.045,-368.952 1019,-343.5 1057.09,-317.267 1077.9,-264.214 1086.76,-235.686"/>
<polygon fill="midnightblue" stroke="midnightblue" points="1090.22,-236.321 1089.67,-225.741 1083.5,-234.356 1090.22,-236.321"/>
</g>
<!-- Node22&#45;&gt;Node3 -->
<g id="edge42" class="edge"><title>Node22&#45;&gt;Node3</title>
<path fill="none" stroke="midnightblue" d="M211.032,-548.818C214.6,-601.778 239.62,-862.5 386.5,-862.5 386.5,-862.5 386.5,-862.5 489,-862.5 674.145,-862.5 881.259,-760.633 952.138,-722.598"/>
<polygon fill="midnightblue" stroke="midnightblue" points="954.098,-725.517 961.219,-717.672 950.76,-719.364 954.098,-725.517"/>
</g>
<!-- Node23 -->
<g id="node23" class="node"><title>Node23</title>
<g id="a_node23"><a xlink:href="main_8h.html#a9dff326a6079fe726285b11ee837ad60" target="_top" xlink:title=" ">
<polygon fill="none" stroke="black" points="739,-625.5 739,-643.5 795,-643.5 795,-625.5 739,-625.5"/>
<text text-anchor="middle" x="767" y="-632.3" font-family="Calibri" font-size="9.00">atu_reset</text>
</a>
</g>
</g>
<!-- Node22&#45;&gt;Node23 -->
<g id="edge30" class="edge"><title>Node22&#45;&gt;Node23</title>
<path fill="none" stroke="midnightblue" d="M212.54,-548.707C221.343,-585.809 259.965,-724.375 354,-766.5 499.719,-831.778 687.535,-697.614 747.045,-650.233"/>
<polygon fill="midnightblue" stroke="midnightblue" points="749.598,-652.67 755.173,-643.66 745.196,-647.227 749.598,-652.67"/>
</g>
<!-- Node24 -->
<g id="node24" class="node"><title>Node24</title>
<g id="a_node24"><a xlink:href="main_8h.html#ad7eb7423e0b17ccfba1ae42f3a3274e0" target="_top" xlink:title=" ">
<polygon fill="none" stroke="black" points="555,-435.5 555,-453.5 603,-453.5 603,-435.5 555,-435.5"/>
<text text-anchor="middle" x="579" y="-442.3" font-family="Calibri" font-size="9.00">get_swr</text>
</a>
</g>
</g>
<!-- Node22&#45;&gt;Node24 -->
<g id="edge33" class="edge"><title>Node22&#45;&gt;Node24</title>
<path fill="none" stroke="midnightblue" d="M216.563,-530.49C225.391,-518.023 242.935,-495.572 263,-482.5 339.074,-432.941 367.296,-432.519 457,-418.5 484.225,-414.245 492.036,-412.822 519,-418.5 530.621,-420.947 542.743,-425.831 552.955,-430.712"/>
<polygon fill="midnightblue" stroke="midnightblue" points="551.577,-433.937 562.082,-435.312 554.727,-427.686 551.577,-433.937"/>
</g>
<!-- Node26 -->
<g id="node26" class="node"><title>Node26</title>
<g id="a_node26"><a xlink:href="main_8h.html#ab518a3d2c723f12d3af3024a195606ce" target="_top" xlink:title=" ">
<polygon fill="none" stroke="black" points="358,-739.5 358,-757.5 417,-757.5 417,-739.5 358,-739.5"/>
<text text-anchor="middle" x="387.5" y="-746.3" font-family="Calibri" font-size="9.00">sharp_cap</text>
</a>
</g>
</g>
<!-- Node22&#45;&gt;Node26 -->
<g id="edge43" class="edge"><title>Node22&#45;&gt;Node26</title>
<path fill="none" stroke="midnightblue" d="M216.297,-548.681C234.397,-576.932 292.35,-664.291 354,-724.5 357.161,-727.587 360.735,-730.609 364.327,-733.41"/>
<polygon fill="midnightblue" stroke="midnightblue" points="362.427,-736.357 372.554,-739.472 366.579,-730.722 362.427,-736.357"/>
</g>
<!-- Node27 -->
<g id="node27" class="node"><title>Node27</title>
<g id="a_node27"><a xlink:href="main_8h.html#a72210b3ed1d5691c5bbda8c7f1e97197" target="_top" xlink:title=" ">
<polygon fill="none" stroke="black" points="459,-435.5 459,-453.5 517,-453.5 517,-435.5 459,-435.5"/>
<text text-anchor="middle" x="488" y="-442.3" font-family="Calibri" font-size="9.00">sharp_ind</text>
</a>
</g>
</g>
<!-- Node22&#45;&gt;Node27 -->
<g id="edge46" class="edge"><title>Node22&#45;&gt;Node27</title>
<path fill="none" stroke="midnightblue" d="M226.325,-530.428C252.218,-515.949 305.609,-487.612 354,-471.5 385.181,-461.118 421.868,-454.034 448.804,-449.736"/>
<polygon fill="midnightblue" stroke="midnightblue" points="449.628,-453.151 458.979,-448.171 448.563,-446.232 449.628,-453.151"/>
</g>
<!-- Node28 -->
<g id="node28" class="node"><title>Node28</title>
<g id="a_node28"><a xlink:href="main_8h.html#a454a7687c8039514766571b23516ca9c" target="_top" xlink:title=" ">
<polygon fill="none" stroke="black" points="263,-530.5 263,-548.5 318,-548.5 318,-530.5 263,-530.5"/>
<text text-anchor="middle" x="290.5" y="-537.3" font-family="Calibri" font-size="9.00">sub_tune</text>
</a>
</g>
</g>
<!-- Node22&#45;&gt;Node28 -->
<g id="edge49" class="edge"><title>Node22&#45;&gt;Node28</title>
<path fill="none" stroke="midnightblue" d="M227.254,-539.5C234.676,-539.5 243.724,-539.5 252.596,-539.5"/>
<polygon fill="midnightblue" stroke="midnightblue" points="252.823,-543 262.823,-539.5 252.823,-536 252.823,-543"/>
</g>
<!-- Node23&#45;&gt;Node18 -->
<g id="edge31" class="edge"><title>Node23&#45;&gt;Node18</title>
<path fill="none" stroke="midnightblue" d="M779.567,-643.517C795.913,-656.258 825.99,-679.703 845.87,-695.198"/>
<polygon fill="midnightblue" stroke="midnightblue" points="843.909,-698.108 853.948,-701.495 848.212,-692.587 843.909,-698.108"/>
</g>
<!-- Node23&#45;&gt;Node19 -->
<g id="edge32" class="edge"><title>Node23&#45;&gt;Node19</title>
<path fill="none" stroke="midnightblue" d="M777.349,-625.391C793.759,-609.402 827.961,-576.077 848.605,-555.962"/>
<polygon fill="midnightblue" stroke="midnightblue" points="851.317,-558.206 856.036,-548.721 846.431,-553.193 851.317,-558.206"/>
</g>
<!-- Node24&#45;&gt;Node13 -->
<g id="edge34" class="edge"><title>Node24&#45;&gt;Node13</title>
<path fill="none" stroke="midnightblue" d="M603.364,-441.308C653.763,-434.424 772.874,-418.153 831.584,-410.133"/>
<polygon fill="midnightblue" stroke="midnightblue" points="832.379,-413.557 841.814,-408.736 831.432,-406.621 832.379,-413.557"/>
</g>
<!-- Node24&#45;&gt;Node21 -->
<g id="edge35" class="edge"><title>Node24&#45;&gt;Node21</title>
<path fill="none" stroke="midnightblue" d="M603.121,-436.183C613.952,-432.41 627.07,-428.017 639,-424.5 704.672,-405.14 782.247,-386.522 827.454,-376.089"/>
<polygon fill="midnightblue" stroke="midnightblue" points="828.445,-379.453 837.409,-373.804 826.879,-372.63 828.445,-379.453"/>
</g>
<!-- Node24&#45;&gt;Node25 -->
<g id="edge36" class="edge"><title>Node24&#45;&gt;Node25</title>
<path fill="none" stroke="midnightblue" d="M584.653,-435.376C593.638,-418.296 614.65,-380.841 639,-354.5 641.779,-351.493 644.964,-348.575 648.211,-345.868"/>
<polygon fill="midnightblue" stroke="midnightblue" points="650.463,-348.55 656.211,-339.65 646.168,-343.023 650.463,-348.55"/>
</g>
<!-- Node25&#45;&gt;Node3 -->
<g id="edge38" class="edge"><title>Node25&#45;&gt;Node3</title>
<path fill="none" stroke="midnightblue" d="M687.69,-339.554C728.478,-363.822 839.046,-434.359 902,-520.5 941.888,-575.079 964.439,-653.674 973.202,-689.459"/>
<polygon fill="midnightblue" stroke="midnightblue" points="969.865,-690.559 975.567,-699.489 976.678,-688.953 969.865,-690.559"/>
</g>
<!-- Node25&#45;&gt;Node4 -->
<g id="edge40" class="edge"><title>Node25&#45;&gt;Node4</title>
<path fill="none" stroke="midnightblue" d="M703.149,-331.198C747.976,-331.413 832.887,-328.86 902,-309.5 966.004,-291.571 1034.47,-252.511 1069.1,-231.158"/>
<polygon fill="midnightblue" stroke="midnightblue" points="1071.32,-233.904 1077.94,-225.638 1067.61,-227.967 1071.32,-233.904"/>
</g>
<!-- Node25&#45;&gt;Node5 -->
<g id="edge39" class="edge"><title>Node25&#45;&gt;Node5</title>
<path fill="none" stroke="midnightblue" d="M679.692,-321.171C695.469,-302.037 731.696,-258.102 751.839,-233.675"/>
<polygon fill="midnightblue" stroke="midnightblue" points="754.803,-235.581 758.464,-225.639 749.402,-231.128 754.803,-235.581"/>
</g>
<!-- Node25&#45;&gt;Node20 -->
<g id="edge41" class="edge"><title>Node25&#45;&gt;Node20</title>
<path fill="none" stroke="midnightblue" d="M703.007,-323.947C714.329,-321.574 727.239,-318.891 739,-316.5 771.393,-309.915 808.502,-302.609 834.111,-297.605"/>
<polygon fill="midnightblue" stroke="midnightblue" points="834.854,-301.026 843.998,-295.675 833.513,-294.156 834.854,-301.026"/>
</g>
<!-- Node25&#45;&gt;Node23 -->
<g id="edge37" class="edge"><title>Node25&#45;&gt;Node23</title>
<path fill="none" stroke="midnightblue" d="M674.813,-339.598C687.814,-381.642 742.202,-557.536 760.193,-615.721"/>
<polygon fill="midnightblue" stroke="midnightblue" points="756.9,-616.918 763.198,-625.437 763.587,-614.85 756.9,-616.918"/>
</g>
<!-- Node26&#45;&gt;Node18 -->
<g id="edge45" class="edge"><title>Node26&#45;&gt;Node18</title>
<path fill="none" stroke="midnightblue" d="M415.773,-757.505C452.288,-768.743 519.28,-786.5 578,-786.5 578,-786.5 578,-786.5 672,-786.5 727.698,-786.5 744.01,-784.911 795,-762.5 815.063,-753.682 834.876,-738.316 848.364,-726.567"/>
<polygon fill="midnightblue" stroke="midnightblue" points="850.788,-729.095 855.891,-719.81 846.111,-723.886 850.788,-729.095"/>
</g>
<!-- Node26&#45;&gt;Node24 -->
<g id="edge44" class="edge"><title>Node26&#45;&gt;Node24</title>
<path fill="none" stroke="midnightblue" d="M400.359,-739.407C425.629,-719.45 485.222,-669.21 519,-614.5 549.83,-564.564 567.183,-496.376 574.237,-463.611"/>
<polygon fill="midnightblue" stroke="midnightblue" points="577.712,-464.088 576.308,-453.587 570.857,-462.672 577.712,-464.088"/>
</g>
<!-- Node27&#45;&gt;Node19 -->
<g id="edge48" class="edge"><title>Node27&#45;&gt;Node19</title>
<path fill="none" stroke="midnightblue" d="M517.131,-452.738C528.792,-456.005 542.493,-459.653 555,-462.5 660.74,-486.566 691.71,-473.464 795,-506.5 810.537,-511.469 827.095,-519.089 840.258,-525.755"/>
<polygon fill="midnightblue" stroke="midnightblue" points="838.692,-528.885 849.179,-530.388 841.918,-522.673 838.692,-528.885"/>
</g>
<!-- Node27&#45;&gt;Node24 -->
<g id="edge47" class="edge"><title>Node27&#45;&gt;Node24</title>
<path fill="none" stroke="midnightblue" d="M517.16,-444.5C525.872,-444.5 535.553,-444.5 544.585,-444.5"/>
<polygon fill="midnightblue" stroke="midnightblue" points="544.791,-448 554.791,-444.5 544.791,-441 544.791,-448"/>
</g>
<!-- Node28&#45;&gt;Node18 -->
<g id="edge59" class="edge"><title>Node28&#45;&gt;Node18</title>
<path fill="none" stroke="midnightblue" d="M294.406,-548.737C301.353,-569.373 320.857,-619.594 354,-647.5 391.326,-678.927 409.468,-674.473 457,-685.5 579.735,-713.973 613.171,-708.047 739,-714.5 770.49,-716.115 806.424,-714.662 831.926,-713.074"/>
<polygon fill="midnightblue" stroke="midnightblue" points="832.428,-716.549 842.174,-712.394 831.964,-709.564 832.428,-716.549"/>
</g>
<!-- Node28&#45;&gt;Node19 -->
<g id="edge60" class="edge"><title>Node28&#45;&gt;Node19</title>
<path fill="none" stroke="midnightblue" d="M318.034,-539.5C412.051,-539.5 729.194,-539.5 832.6,-539.5"/>
<polygon fill="midnightblue" stroke="midnightblue" points="832.756,-543 842.756,-539.5 832.756,-536 832.756,-543"/>
</g>
<!-- Node28&#45;&gt;Node20 -->
<g id="edge61" class="edge"><title>Node28&#45;&gt;Node20</title>
<path fill="none" stroke="midnightblue" d="M294.497,-530.369C301.632,-509.95 321.494,-460.145 354,-431.5 497.89,-304.698 746.291,-291.559 833.843,-291.064"/>
<polygon fill="midnightblue" stroke="midnightblue" points="833.941,-294.564 843.94,-291.061 833.939,-287.564 833.941,-294.564"/>
</g>
<!-- Node28&#45;&gt;Node23 -->
<g id="edge50" class="edge"><title>Node28&#45;&gt;Node23</title>
<path fill="none" stroke="midnightblue" d="M298.146,-548.642C320.836,-578.69 398.741,-672.5 487,-672.5 487,-672.5 487,-672.5 580,-672.5 632.721,-672.5 692.178,-657.663 729.368,-646.532"/>
<polygon fill="midnightblue" stroke="midnightblue" points="730.708,-649.782 739.243,-643.505 728.657,-643.089 730.708,-649.782"/>
</g>
<!-- Node28&#45;&gt;Node24 -->
<g id="edge58" class="edge"><title>Node28&#45;&gt;Node24</title>
<path fill="none" stroke="midnightblue" d="M297.868,-530.478C308.242,-516.323 330.052,-488.733 354,-471.5 394.694,-442.216 407.966,-435.952 457,-425.5 483.95,-419.755 491.778,-421.225 519,-425.5 527.863,-426.892 537.212,-429.393 545.789,-432.132"/>
<polygon fill="midnightblue" stroke="midnightblue" points="544.834,-435.504 555.428,-435.406 547.085,-428.876 544.834,-435.504"/>
</g>
<!-- Node28&#45;&gt;Node26 -->
<g id="edge62" class="edge"><title>Node28&#45;&gt;Node26</title>
<path fill="none" stroke="midnightblue" d="M292.65,-548.871C296.578,-577.67 311.642,-666.437 354,-724.5 356.284,-727.631 359.096,-730.528 362.101,-733.147"/>
<polygon fill="midnightblue" stroke="midnightblue" points="360.209,-736.106 370.28,-739.397 364.46,-730.544 360.209,-736.106"/>
</g>
<!-- Node28&#45;&gt;Node27 -->
<g id="edge63" class="edge"><title>Node28&#45;&gt;Node27</title>
<path fill="none" stroke="midnightblue" d="M308.096,-530.45C320.625,-523.688 338.285,-514.306 354,-506.5 389.155,-489.038 430.171,-470.137 457.259,-457.854"/>
<polygon fill="midnightblue" stroke="midnightblue" points="458.902,-460.952 466.571,-453.643 456.017,-454.574 458.902,-460.952"/>
</g>
<!-- Node29 -->
<g id="node29" class="node"><title>Node29</title>
<g id="a_node29"><a xlink:href="main_8h.html#a5c7c60c7d70cf76cc52e87722bb0f614" target="_top" xlink:title=" ">
<polygon fill="none" stroke="black" points="354,-549.5 354,-567.5 421,-567.5 421,-549.5 354,-549.5"/>
<text text-anchor="middle" x="387.5" y="-556.3" font-family="Calibri" font-size="9.00">coarse_tune</text>
</a>
</g>
</g>
<!-- Node28&#45;&gt;Node29 -->
<g id="edge51" class="edge"><title>Node28&#45;&gt;Node29</title>
<path fill="none" stroke="midnightblue" d="M318.216,-544.843C326.184,-546.437 335.123,-548.225 343.843,-549.969"/>
<polygon fill="midnightblue" stroke="midnightblue" points="343.415,-553.452 353.907,-551.981 344.788,-546.588 343.415,-553.452"/>
</g>
<!-- Node29&#45;&gt;Node18 -->
<g id="edge56" class="edge"><title>Node29&#45;&gt;Node18</title>
<path fill="none" stroke="midnightblue" d="M396.873,-567.561C408.939,-580.058 432.477,-602.409 457,-614.5 586.274,-678.239 759.717,-700.797 831.848,-707.756"/>
<polygon fill="midnightblue" stroke="midnightblue" points="831.856,-711.272 842.136,-708.708 832.501,-704.302 831.856,-711.272"/>
</g>
<!-- Node29&#45;&gt;Node19 -->
<g id="edge57" class="edge"><title>Node29&#45;&gt;Node19</title>
<path fill="none" stroke="midnightblue" d="M421.026,-558.5C458.773,-558.5 522.894,-558.5 578,-558.5 578,-558.5 578,-558.5 672,-558.5 728.772,-558.5 794.467,-550.299 832.857,-544.673"/>
<polygon fill="midnightblue" stroke="midnightblue" points="833.559,-548.107 842.93,-543.163 832.522,-541.184 833.559,-548.107"/>
</g>
<!-- Node29&#45;&gt;Node24 -->
<g id="edge55" class="edge"><title>Node29&#45;&gt;Node24</title>
<path fill="none" stroke="midnightblue" d="M403.687,-549.364C436.617,-529.553 514.797,-482.522 554.293,-458.761"/>
<polygon fill="midnightblue" stroke="midnightblue" points="556.239,-461.676 563.003,-453.522 552.63,-455.678 556.239,-461.676"/>
</g>
<!-- Node30 -->
<g id="node30" class="node"><title>Node30</title>
<g id="a_node30"><a xlink:href="main_8h.html#a740ef1b33bb02cd952ad7d8708999472" target="_top" xlink:title=" ">
<polygon fill="none" stroke="black" points="457,-587.5 457,-605.5 519,-605.5 519,-587.5 457,-587.5"/>
<text text-anchor="middle" x="488" y="-594.3" font-family="Calibri" font-size="9.00">coarse_cap</text>
</a>
</g>
</g>
<!-- Node29&#45;&gt;Node30 -->
<g id="edge52" class="edge"><title>Node29&#45;&gt;Node30</title>
<path fill="none" stroke="midnightblue" d="M411.843,-567.505C424.387,-572.345 440.064,-578.393 453.851,-583.711"/>
<polygon fill="midnightblue" stroke="midnightblue" points="452.894,-587.094 463.483,-587.427 455.413,-580.563 452.894,-587.094"/>
</g>
<!-- Node30&#45;&gt;Node18 -->
<g id="edge54" class="edge"><title>Node30&#45;&gt;Node18</title>
<path fill="none" stroke="midnightblue" d="M519.07,-590.484C576.637,-580.585 704.709,-566.503 795,-615.5 826.152,-632.405 847.341,-669.688 857.843,-692.193"/>
<polygon fill="midnightblue" stroke="midnightblue" points="854.659,-693.646 861.914,-701.367 861.057,-690.807 854.659,-693.646"/>
</g>
<!-- Node30&#45;&gt;Node24 -->
<g id="edge53" class="edge"><title>Node30&#45;&gt;Node24</title>
<path fill="none" stroke="midnightblue" d="M494.301,-587.447C508.612,-563.005 548.242,-495.322 567.383,-462.633"/>
<polygon fill="midnightblue" stroke="midnightblue" points="570.582,-464.096 572.614,-453.698 564.541,-460.559 570.582,-464.096"/>
</g>
</g>
</svg>
        <g id="navigator" transform="translate(0 0)" fill="#404254">
                <rect fill="#f2f5e9" fill-opacity="0.5" stroke="#606060" stroke-width=".5" x="0" y="0" width="60" height="60"/>
                <use id="zoomplus" xlink:href="#zoomPlus" x="17" y="9" onmousedown="handleZoom(evt,'in')"/>
                <use id="zoomminus" xlink:href="#zoomMin" x="42" y="9" onmousedown="handleZoom(evt,'out')"/>
                <use id="reset" xlink:href="#resetDef" x="30" y="36" onmousedown="handleReset()"/>
                <g id="arrowUp" xlink:href="#dirArrow" transform="translate(30 24)" onmousedown="handlePan(0,-1)">
                  <use xlink:href="#rim" fill="#404040">
                        <set attributeName="fill" to="#808080" begin="arrowUp.mouseover" end="arrowUp.mouseout"/>
                  </use>
                  <path fill="none" stroke="white" stroke-width="1.5" d="M0,-3.0v7 M-2.5,-0.5L0,-3.0L2.5,-0.5"/>
                </g>
                <g id="arrowRight" xlink:href="#dirArrow" transform="rotate(90) translate(36 -43)" onmousedown="handlePan(1,0)">
                  <use xlink:href="#rim" fill="#404040">
                        <set attributeName="fill" to="#808080" begin="arrowRight.mouseover" end="arrowRight.mouseout"/>
                  </use>
                  <path fill="none" stroke="white" stroke-width="1.5" d="M0,-3.0v7 M-2.5,-0.5L0,-3.0L2.5,-0.5"/>
                </g>
                <g id="arrowDown" xlink:href="#dirArrow" transform="rotate(180) translate(-30 -48)" onmousedown="handlePan(0,1)">
                  <use xlink:href="#rim" fill="#404040">
                        <set attributeName="fill" to="#808080" begin="arrowDown.mouseover" end="arrowDown.mouseout"/>
                  </use>
                  <path fill="none" stroke="white" stroke-width="1.5" d="M0,-3.0v7 M-2.5,-0.5L0,-3.0L2.5,-0.5"/>
                </g>
                <g id="arrowLeft" xlink:href="#dirArrow" transform="rotate(270) translate(-36 17)" onmousedown="handlePan(-1,0)">
                  <use xlink:href="#rim" fill="#404040">
                        <set attributeName="fill" to="#808080" begin="arrowLeft.mouseover" end="arrowLeft.mouseout"/>
                  </use>
                  <path fill="none" stroke="white" stroke-width="1.5" d="M0,-3.0v7 M-2.5,-0.5L0,-3.0L2.5,-0.5"/>
                </g>
        </g>
        <svg viewBox="0 0 15 15" width="100%" height="30px" preserveAspectRatio="xMaxYMin meet">
         <g id="arrow_out" transform="scale(0.3 0.3)">
          <a xlink:href="main_8h_a1c9e5d54d8cf7f3d041aa2e0b330b3dd_cgraph_org.svg" target="_base">
           <rect id="button" ry="5" rx="5" y="6" x="6" height="38" width="38"
                fill="#f2f5e9" fill-opacity="0.5" stroke="#606060" stroke-width="1.0"/>
           <path id="arrow"
             d="M 11.500037,31.436501 C 11.940474,20.09759 22.043105,11.32322 32.158766,21.979434 L 37.068811,17.246167 C 37.068811,17.246167 37.088388,32 37.088388,32 L 22.160133,31.978069 C 22.160133,31.978069 26.997745,27.140456 26.997745,27.140456 C 18.528582,18.264221 13.291696,25.230495 11.500037,31.436501 z"
             style="fill:#404040;"/>
          </a>
         </g>
        </svg>
</svg>
