<?xml version="1.0" encoding="UTF-8" standalone="no"?>
<!DOCTYPE svg PUBLIC "-//W3C//DTD SVG 1.1//EN"
 "http://www.w3.org/Graphics/SVG/1.1/DTD/svg11.dtd">
<!-- Generated by graphviz version 2.38.0 (20140413.2041)
 -->
<!-- Title: show_reset Pages: 1 -->
<svg width="500pt" height="402pt"
 viewBox="0.00 0.00 500.00 401.64" xmlns="http://www.w3.org/2000/svg" xmlns:xlink="http://www.w3.org/1999/xlink">
<g id="graph0" class="graph" transform="scale(1 1) rotate(0) translate(4 397.638)">
<title>show_reset</title>
<!-- Node1 -->
<g id="node1" class="node"><title>Node1</title>
<g id="a_node1"><a xlink:title=" ">
<polygon fill="#bfbfbf" stroke="black" points="0,-316.5 0,-334.5 64,-334.5 64,-316.5 0,-316.5"/>
<text text-anchor="middle" x="32" y="-323.3" font-family="Calibri" font-size="9.00">show_reset</text>
</a>
</g>
</g>
<!-- Node2 -->
<g id="node2" class="node"><title>Node2</title>
<g id="a_node2"><a xlink:href="main_8h.html#a9dff326a6079fe726285b11ee837ad60" target="_top" xlink:title=" ">
<polygon fill="none" stroke="black" points="100,-316.5 100,-334.5 156,-334.5 156,-316.5 100,-316.5"/>
<text text-anchor="middle" x="128" y="-323.3" font-family="Calibri" font-size="9.00">atu_reset</text>
</a>
</g>
</g>
<!-- Node1&#45;&gt;Node2 -->
<g id="edge1" class="edge"><title>Node1&#45;&gt;Node2</title>
<path fill="none" stroke="midnightblue" d="M64.0396,-325.5C72.2517,-325.5 81.2013,-325.5 89.7075,-325.5"/>
<polygon fill="midnightblue" stroke="midnightblue" points="89.7837,-329 99.7837,-325.5 89.7837,-322 89.7837,-329"/>
</g>
<!-- Node5 -->
<g id="node5" class="node"><title>Node5</title>
<g id="a_node5"><a xlink:href="main_8c.html#a6911b3f075cdf1d54cb14f17f6e5ef6b" target="_top" xlink:title=" ">
<polygon fill="none" stroke="black" points="316,-299.5 316,-317.5 363,-317.5 363,-299.5 316,-299.5"/>
<text text-anchor="middle" x="339.5" y="-306.3" font-family="Calibri" font-size="9.00">lcd_ind</text>
</a>
</g>
</g>
<!-- Node1&#45;&gt;Node5 -->
<g id="edge4" class="edge"><title>Node1&#45;&gt;Node5</title>
<path fill="none" stroke="midnightblue" d="M52.2346,-334.501C92.3131,-351.985 187.326,-386.777 263,-362.5 286.089,-355.093 308.119,-337.737 322.359,-324.687"/>
<polygon fill="midnightblue" stroke="midnightblue" points="324.964,-327.04 329.791,-317.609 320.136,-321.971 324.964,-327.04"/>
</g>
<!-- Node6 -->
<g id="node6" class="node"><title>Node6</title>
<g id="a_node6"><a xlink:href="oled__control_8h.html#ab272af1010175ba1166b08b8b3df6874" target="_top" xlink:title=" ">
<polygon fill="none" stroke="black" points="424.5,-261.5 424.5,-279.5 483.5,-279.5 483.5,-261.5 424.5,-261.5"/>
<text text-anchor="middle" x="454" y="-268.3" font-family="Calibri" font-size="9.00">led_wr_str</text>
</a>
</g>
</g>
<!-- Node1&#45;&gt;Node6 -->
<g id="edge30" class="edge"><title>Node1&#45;&gt;Node6</title>
<path fill="none" stroke="midnightblue" d="M41.9786,-334.688C53.9785,-346.299 76.4774,-365.815 100,-374.5 168.023,-399.616 192.232,-397.304 263,-381.5 333.205,-365.822 402.926,-313.155 434.893,-286.395"/>
<polygon fill="midnightblue" stroke="midnightblue" points="437.539,-288.738 442.877,-279.586 432.997,-283.411 437.539,-288.738"/>
</g>
<!-- Node7 -->
<g id="node7" class="node"><title>Node7</title>
<g id="a_node7"><a xlink:href="main_8c.html#ae5a14b4884e85f47ad8a4a716f13203a" target="_top" xlink:title=" ">
<polygon fill="none" stroke="black" points="104,-204.5 104,-222.5 152,-222.5 152,-204.5 104,-204.5"/>
<text text-anchor="middle" x="128" y="-211.3" font-family="Calibri" font-size="9.00">lcd_pwr</text>
</a>
</g>
</g>
<!-- Node1&#45;&gt;Node7 -->
<g id="edge6" class="edge"><title>Node1&#45;&gt;Node7</title>
<path fill="none" stroke="midnightblue" d="M40.6924,-316.335C56.3912,-297.63 92.338,-254.799 112.538,-230.731"/>
<polygon fill="midnightblue" stroke="midnightblue" points="115.453,-232.702 119.201,-222.792 110.092,-228.202 115.453,-232.702"/>
</g>
<!-- Node20 -->
<g id="node20" class="node"><title>Node20</title>
<g id="a_node20"><a xlink:href="main_8h.html#ae0c1e0ec712704e43db40473f103d621" target="_top" xlink:title="Set the state of the switch.">
<polygon fill="none" stroke="black" points="205,-36.5 205,-54.5 250,-54.5 250,-36.5 205,-36.5"/>
<text text-anchor="middle" x="227.5" y="-43.3" font-family="Calibri" font-size="9.00">set_sw</text>
</a>
</g>
</g>
<!-- Node1&#45;&gt;Node20 -->
<g id="edge31" class="edge"><title>Node1&#45;&gt;Node20</title>
<path fill="none" stroke="midnightblue" d="M36.1449,-316.494C49.3258,-279.951 103.575,-141.01 192,-63.5 193.327,-62.3366 194.743,-61.2232 196.215,-60.1617"/>
<polygon fill="midnightblue" stroke="midnightblue" points="198.405,-62.9209 205.043,-54.663 194.705,-56.9792 198.405,-62.9209"/>
</g>
<!-- Node3 -->
<g id="node3" class="node"><title>Node3</title>
<g id="a_node3"><a xlink:href="main_8h.html#a2a7963b9b09696c6654b96c67900c6ea" target="_top" xlink:title=" ">
<polygon fill="none" stroke="black" points="203.5,-335.5 203.5,-353.5 251.5,-353.5 251.5,-335.5 203.5,-335.5"/>
<text text-anchor="middle" x="227.5" y="-342.3" font-family="Calibri" font-size="9.00">set_cap</text>
</a>
</g>
</g>
<!-- Node2&#45;&gt;Node3 -->
<g id="edge2" class="edge"><title>Node2&#45;&gt;Node3</title>
<path fill="none" stroke="midnightblue" d="M156.159,-330.793C167.664,-333.035 181.18,-335.668 193.273,-338.025"/>
<polygon fill="midnightblue" stroke="midnightblue" points="192.963,-341.53 203.448,-340.008 194.302,-334.66 192.963,-341.53"/>
</g>
<!-- Node4 -->
<g id="node4" class="node"><title>Node4</title>
<g id="a_node4"><a xlink:href="main_8h.html#aecc83cd8bceb4bc24be844732ead2c2c" target="_top" xlink:title=" ">
<polygon fill="none" stroke="black" points="204,-298.5 204,-316.5 251,-316.5 251,-298.5 204,-298.5"/>
<text text-anchor="middle" x="227.5" y="-305.3" font-family="Calibri" font-size="9.00">set_ind</text>
</a>
</g>
</g>
<!-- Node2&#45;&gt;Node4 -->
<g id="edge3" class="edge"><title>Node2&#45;&gt;Node4</title>
<path fill="none" stroke="midnightblue" d="M156.159,-320.486C167.869,-318.324 181.661,-315.778 193.916,-313.516"/>
<polygon fill="midnightblue" stroke="midnightblue" points="194.571,-316.954 203.769,-311.696 193.3,-310.07 194.571,-316.954"/>
</g>
<!-- Node5&#45;&gt;Node6 -->
<g id="edge5" class="edge"><title>Node5&#45;&gt;Node6</title>
<path fill="none" stroke="midnightblue" d="M363.266,-300.81C378.509,-295.662 398.909,-288.771 416.406,-282.861"/>
<polygon fill="midnightblue" stroke="midnightblue" points="417.958,-286.031 426.312,-279.515 415.718,-279.399 417.958,-286.031"/>
</g>
<!-- Node7&#45;&gt;Node3 -->
<g id="edge24" class="edge"><title>Node7&#45;&gt;Node3</title>
<path fill="none" stroke="midnightblue" d="M132.176,-222.725C139.683,-243.399 160.308,-294.092 192,-325.5 193.457,-326.944 195.046,-328.31 196.717,-329.598"/>
<polygon fill="midnightblue" stroke="midnightblue" points="195.23,-332.808 205.511,-335.367 199.07,-326.955 195.23,-332.808"/>
</g>
<!-- Node7&#45;&gt;Node4 -->
<g id="edge25" class="edge"><title>Node7&#45;&gt;Node4</title>
<path fill="none" stroke="midnightblue" d="M135.073,-222.752C145.378,-237.927 167.561,-268.421 192,-288.5 193.988,-290.133 196.137,-291.697 198.356,-293.176"/>
<polygon fill="midnightblue" stroke="midnightblue" points="196.704,-296.267 207.075,-298.431 200.317,-290.271 196.704,-296.267"/>
</g>
<!-- Node7&#45;&gt;Node6 -->
<g id="edge23" class="edge"><title>Node7&#45;&gt;Node6</title>
<path fill="none" stroke="midnightblue" d="M152.042,-217.554C207.047,-227.23 346.493,-251.763 414.509,-263.728"/>
<polygon fill="midnightblue" stroke="midnightblue" points="413.943,-267.183 424.398,-265.468 415.156,-260.288 413.943,-267.183"/>
</g>
<!-- Node8 -->
<g id="node8" class="node"><title>Node8</title>
<g id="a_node8"><a xlink:href="main_8c.html#a593218c5fe00b499d494826fc0aa5279" target="_top" xlink:title=" ">
<polygon fill="none" stroke="black" points="192,-110.5 192,-128.5 263,-128.5 263,-110.5 192,-110.5"/>
<text text-anchor="middle" x="227.5" y="-117.3" font-family="Calibri" font-size="9.00">button_delay</text>
</a>
</g>
</g>
<!-- Node7&#45;&gt;Node8 -->
<g id="edge7" class="edge"><title>Node7&#45;&gt;Node8</title>
<path fill="none" stroke="midnightblue" d="M134.994,-204.055C145.185,-188.578 167.208,-157.539 192,-137.5 193.576,-136.226 195.257,-135.003 196.996,-133.838"/>
<polygon fill="midnightblue" stroke="midnightblue" points="199.154,-136.626 205.962,-128.508 195.577,-130.609 199.154,-136.626"/>
</g>
<!-- Node9 -->
<g id="node9" class="node"><title>Node9</title>
<g id="a_node9"><a xlink:href="oled__control_8c.html#a5febfdc847aa6f3bc3f3c8f7818b8699" target="_top" xlink:title=" ">
<polygon fill="none" stroke="black" points="196.5,-147.5 196.5,-165.5 258.5,-165.5 258.5,-147.5 196.5,-147.5"/>
<text text-anchor="middle" x="227.5" y="-154.3" font-family="Calibri" font-size="9.00">display_on</text>
</a>
</g>
</g>
<!-- Node7&#45;&gt;Node9 -->
<g id="edge8" class="edge"><title>Node7&#45;&gt;Node9</title>
<path fill="none" stroke="midnightblue" d="M144.665,-204.342C160.159,-195.284 184.095,-181.291 202.085,-170.774"/>
<polygon fill="midnightblue" stroke="midnightblue" points="204.007,-173.704 210.874,-165.635 200.474,-167.661 204.007,-173.704"/>
</g>
<!-- Node15 -->
<g id="node15" class="node"><title>Node15</title>
<g id="a_node15"><a xlink:href="main_8h.html#ab37ca657b79c6b9176cb63e9d812a182" target="_top" xlink:title=" ">
<polygon fill="none" stroke="black" points="203,-73.5 203,-91.5 252,-91.5 252,-73.5 203,-73.5"/>
<text text-anchor="middle" x="227.5" y="-80.3" font-family="Calibri" font-size="9.00">get_pwr</text>
</a>
</g>
</g>
<!-- Node7&#45;&gt;Node15 -->
<g id="edge17" class="edge"><title>Node7&#45;&gt;Node15</title>
<path fill="none" stroke="midnightblue" d="M131.993,-204.453C139.256,-183.687 159.637,-131.978 192,-100.5 193.232,-99.3018 194.56,-98.164 195.952,-97.0864"/>
<polygon fill="midnightblue" stroke="midnightblue" points="197.948,-99.9635 204.415,-91.5721 194.126,-94.0985 197.948,-99.9635"/>
</g>
<!-- Node19 -->
<g id="node19" class="node"><title>Node19</title>
<g id="a_node19"><a xlink:href="main_8c.html#aa8fd50019a763561abc6621bb224417f" target="_top" xlink:title=" ">
<polygon fill="none" stroke="black" points="316,-185.5 316,-203.5 363,-203.5 363,-185.5 316,-185.5"/>
<text text-anchor="middle" x="339.5" y="-192.3" font-family="Calibri" font-size="9.00">lcd_swr</text>
</a>
</g>
</g>
<!-- Node7&#45;&gt;Node19 -->
<g id="edge21" class="edge"><title>Node7&#45;&gt;Node19</title>
<path fill="none" stroke="midnightblue" d="M152.221,-211.394C189.541,-208.009 262.996,-201.348 305.667,-197.478"/>
<polygon fill="midnightblue" stroke="midnightblue" points="306.169,-200.947 315.812,-196.558 305.537,-193.975 306.169,-200.947"/>
</g>
<!-- Node7&#45;&gt;Node20 -->
<g id="edge26" class="edge"><title>Node7&#45;&gt;Node20</title>
<path fill="none" stroke="midnightblue" d="M130.619,-204.217C135.493,-178.737 152.222,-106.736 192,-63.5 193.338,-62.0458 194.821,-60.6889 196.397,-59.426"/>
<polygon fill="midnightblue" stroke="midnightblue" points="198.398,-62.2991 204.831,-53.8807 194.553,-56.45 198.398,-62.2991"/>
</g>
<!-- Node21 -->
<g id="node21" class="node"><title>Node21</title>
<g id="a_node21"><a xlink:href="main_8c.html#a4ae0d4fa97fc0ca3611813fee4f9af7c" target="_top" xlink:title=" ">
<polygon fill="none" stroke="black" points="198.5,-261.5 198.5,-279.5 256.5,-279.5 256.5,-261.5 198.5,-261.5"/>
<text text-anchor="middle" x="227.5" y="-268.3" font-family="Calibri" font-size="9.00">show_pwr</text>
</a>
</g>
</g>
<!-- Node7&#45;&gt;Node21 -->
<g id="edge27" class="edge"><title>Node7&#45;&gt;Node21</title>
<path fill="none" stroke="midnightblue" d="M144.665,-222.658C160.159,-231.716 184.095,-245.709 202.085,-256.226"/>
<polygon fill="midnightblue" stroke="midnightblue" points="200.474,-259.339 210.874,-261.365 204.007,-253.296 200.474,-259.339"/>
</g>
<!-- Node10 -->
<g id="node10" class="node"><title>Node10</title>
<g id="a_node10"><a xlink:href="oled__control_8c.html#a5a5d7ef6b1877aaf94c1f4b7fc0f2d2d" target="_top" xlink:title=" ">
<polygon fill="none" stroke="black" points="312,-148.5 312,-166.5 367,-166.5 367,-148.5 312,-148.5"/>
<text text-anchor="middle" x="339.5" y="-155.3" font-family="Calibri" font-size="9.00">led_send</text>
</a>
</g>
</g>
<!-- Node9&#45;&gt;Node10 -->
<g id="edge9" class="edge"><title>Node9&#45;&gt;Node10</title>
<path fill="none" stroke="midnightblue" d="M258.558,-156.773C271.839,-156.894 287.581,-157.037 301.569,-157.164"/>
<polygon fill="midnightblue" stroke="midnightblue" points="301.823,-160.667 311.855,-157.258 301.887,-153.667 301.823,-160.667"/>
</g>
<!-- Node14 -->
<g id="node14" class="node"><title>Node14</title>
<g id="a_node14"><a xlink:href="oled__control_8c.html#ad141ed038278a6fcad6c307932f01ec8" target="_top" xlink:title=" ">
<polygon fill="none" stroke="black" points="299,-111.5 299,-129.5 380,-129.5 380,-111.5 299,-111.5"/>
<text text-anchor="middle" x="339.5" y="-118.3" font-family="Calibri" font-size="9.00">send_command</text>
</a>
</g>
</g>
<!-- Node9&#45;&gt;Node14 -->
<g id="edge13" class="edge"><title>Node9&#45;&gt;Node14</title>
<path fill="none" stroke="midnightblue" d="M256.258,-147.416C269.806,-142.982 286.305,-137.582 300.96,-132.786"/>
<polygon fill="midnightblue" stroke="midnightblue" points="302.336,-136.018 310.751,-129.581 300.159,-129.365 302.336,-136.018"/>
</g>
<!-- Node11 -->
<g id="node11" class="node"><title>Node11</title>
<g id="a_node11"><a xlink:href="oled__control_8c.html#ab7f6b5c6c1483f6286f2de5786c028d9" target="_top" xlink:title=" ">
<polygon fill="none" stroke="black" points="418,-93.5 418,-111.5 490,-111.5 490,-93.5 418,-93.5"/>
<text text-anchor="middle" x="454" y="-100.3" font-family="Calibri" font-size="9.00">Soft_I2C_Start</text>
</a>
</g>
</g>
<!-- Node10&#45;&gt;Node11 -->
<g id="edge10" class="edge"><title>Node10&#45;&gt;Node11</title>
<path fill="none" stroke="midnightblue" d="M359.415,-148.474C365.947,-145.338 373.304,-141.784 380,-138.5 396.061,-130.623 399.957,-128.413 416,-120.5 418.947,-119.046 422.03,-117.534 425.104,-116.031"/>
<polygon fill="midnightblue" stroke="midnightblue" points="426.703,-119.145 434.158,-111.618 423.635,-112.853 426.703,-119.145"/>
</g>
<!-- Node12 -->
<g id="node12" class="node"><title>Node12</title>
<g id="a_node12"><a xlink:href="oled__control_8c.html#a16eb842aa672ca44820ae6d5f9933425" target="_top" xlink:title=" ">
<polygon fill="none" stroke="black" points="418.5,-167.5 418.5,-185.5 489.5,-185.5 489.5,-167.5 418.5,-167.5"/>
<text text-anchor="middle" x="454" y="-174.3" font-family="Calibri" font-size="9.00">Soft_I2C_Stop</text>
</a>
</g>
</g>
<!-- Node10&#45;&gt;Node12 -->
<g id="edge11" class="edge"><title>Node10&#45;&gt;Node12</title>
<path fill="none" stroke="midnightblue" d="M367.161,-162.003C379.5,-164.087 394.495,-166.619 408.478,-168.981"/>
<polygon fill="midnightblue" stroke="midnightblue" points="407.986,-172.447 418.429,-170.661 409.152,-165.545 407.986,-172.447"/>
</g>
<!-- Node13 -->
<g id="node13" class="node"><title>Node13</title>
<g id="a_node13"><a xlink:href="oled__control_8c.html#a73610916645f17c19124e697b005f694" target="_top" xlink:title=" ">
<polygon fill="none" stroke="black" points="416,-130.5 416,-148.5 492,-148.5 492,-130.5 416,-130.5"/>
<text text-anchor="middle" x="454" y="-137.3" font-family="Calibri" font-size="9.00">Soft_I2C_Write</text>
</a>
</g>
</g>
<!-- Node10&#45;&gt;Node13 -->
<g id="edge12" class="edge"><title>Node10&#45;&gt;Node13</title>
<path fill="none" stroke="midnightblue" d="M367.161,-153.234C378.759,-151.379 392.704,-149.147 405.949,-147.028"/>
<polygon fill="midnightblue" stroke="midnightblue" points="406.569,-150.474 415.891,-145.438 405.463,-143.561 406.569,-150.474"/>
</g>
<!-- Node14&#45;&gt;Node11 -->
<g id="edge14" class="edge"><title>Node14&#45;&gt;Node11</title>
<path fill="none" stroke="midnightblue" d="M380.163,-114.154C389.08,-112.727 398.608,-111.203 407.734,-109.743"/>
<polygon fill="midnightblue" stroke="midnightblue" points="408.491,-113.166 417.813,-108.13 407.385,-106.254 408.491,-113.166"/>
</g>
<!-- Node14&#45;&gt;Node12 -->
<g id="edge15" class="edge"><title>Node14&#45;&gt;Node12</title>
<path fill="none" stroke="midnightblue" d="M361.107,-129.618C367.223,-132.397 373.912,-135.51 380,-138.5 396.238,-146.477 399.953,-149.145 416,-157.5 419.335,-159.236 422.843,-161.052 426.317,-162.843"/>
<polygon fill="midnightblue" stroke="midnightblue" points="424.794,-165.996 435.288,-167.456 427.995,-159.77 424.794,-165.996"/>
</g>
<!-- Node14&#45;&gt;Node13 -->
<g id="edge16" class="edge"><title>Node14&#45;&gt;Node13</title>
<path fill="none" stroke="midnightblue" d="M380.163,-127.199C388.53,-128.612 397.433,-130.115 406.039,-131.569"/>
<polygon fill="midnightblue" stroke="midnightblue" points="405.511,-135.029 415.954,-133.243 406.676,-128.127 405.511,-135.029"/>
</g>
<!-- Node16 -->
<g id="node16" class="node"><title>Node16</title>
<g id="a_node16"><a xlink:href="main_8h.html#ab19e6e081315a9a200394b74d10de395" target="_top" xlink:title=" ">
<polygon fill="none" stroke="black" points="311,-0.5 311,-18.5 368,-18.5 368,-0.5 311,-0.5"/>
<text text-anchor="middle" x="339.5" y="-7.3" font-family="Calibri" font-size="9.00">correction</text>
</a>
</g>
</g>
<!-- Node15&#45;&gt;Node16 -->
<g id="edge18" class="edge"><title>Node15&#45;&gt;Node16</title>
<path fill="none" stroke="midnightblue" d="M247.357,-73.362C252.609,-70.4894 258.189,-67.1147 263,-63.5 281.09,-49.9073 280.408,-40.3973 299,-27.5 301.113,-26.0342 303.365,-24.6393 305.68,-23.3225"/>
<polygon fill="midnightblue" stroke="midnightblue" points="307.48,-26.3326 314.771,-18.6458 304.278,-20.108 307.48,-26.3326"/>
</g>
<!-- Node17 -->
<g id="node17" class="node"><title>Node17</title>
<g id="a_node17"><a xlink:href="main_8h.html#acfd46f8711e9c1c20fffdfc8bdaa0ddd" target="_top" xlink:title=" ">
<polygon fill="none" stroke="black" points="307,-74.5 307,-92.5 372,-92.5 372,-74.5 307,-74.5"/>
<text text-anchor="middle" x="339.5" y="-81.3" font-family="Calibri" font-size="9.00">get_forward</text>
</a>
</g>
</g>
<!-- Node15&#45;&gt;Node17 -->
<g id="edge19" class="edge"><title>Node15&#45;&gt;Node17</title>
<path fill="none" stroke="midnightblue" d="M252.098,-82.7145C265.023,-82.832 281.428,-82.9812 296.463,-83.1178"/>
<polygon fill="midnightblue" stroke="midnightblue" points="296.562,-86.6188 306.593,-83.2099 296.626,-79.6191 296.562,-86.6188"/>
</g>
<!-- Node18 -->
<g id="node18" class="node"><title>Node18</title>
<g id="a_node18"><a xlink:href="main_8h.html#aa6b9a2b3d88f578ba6a9fefd911eae75" target="_top" xlink:title=" ">
<polygon fill="none" stroke="black" points="307.5,-37.5 307.5,-55.5 371.5,-55.5 371.5,-37.5 307.5,-37.5"/>
<text text-anchor="middle" x="339.5" y="-44.3" font-family="Calibri" font-size="9.00">get_reverse</text>
</a>
</g>
</g>
<!-- Node15&#45;&gt;Node18 -->
<g id="edge20" class="edge"><title>Node15&#45;&gt;Node18</title>
<path fill="none" stroke="midnightblue" d="M252.098,-74.7771C266.317,-70.1234 284.748,-64.0914 300.933,-58.7946"/>
<polygon fill="midnightblue" stroke="midnightblue" points="302.247,-62.0473 310.662,-55.6105 300.07,-55.3946 302.247,-62.0473"/>
</g>
<!-- Node19&#45;&gt;Node6 -->
<g id="edge22" class="edge"><title>Node19&#45;&gt;Node6</title>
<path fill="none" stroke="midnightblue" d="M356.045,-203.589C363.388,-207.972 372.227,-213.38 380,-218.5 398.079,-230.408 418.068,-244.731 432.551,-255.327"/>
<polygon fill="midnightblue" stroke="midnightblue" points="430.662,-258.283 440.791,-261.388 434.809,-252.644 430.662,-258.283"/>
</g>
<!-- Node21&#45;&gt;Node5 -->
<g id="edge28" class="edge"><title>Node21&#45;&gt;Node5</title>
<path fill="none" stroke="midnightblue" d="M254.568,-279.505C270.037,-284.849 289.773,-291.667 306.22,-297.349"/>
<polygon fill="midnightblue" stroke="midnightblue" points="305.373,-300.759 315.968,-300.716 307.659,-294.143 305.373,-300.759"/>
</g>
<!-- Node21&#45;&gt;Node6 -->
<g id="edge29" class="edge"><title>Node21&#45;&gt;Node6</title>
<path fill="none" stroke="midnightblue" d="M256.933,-270.5C296.802,-270.5 369.448,-270.5 414.24,-270.5"/>
<polygon fill="midnightblue" stroke="midnightblue" points="414.444,-274 424.444,-270.5 414.444,-267 414.444,-274"/>
</g>
</g>
</svg>
