<?xml version="1.0" encoding="UTF-8" standalone="no"?>
<!DOCTYPE svg PUBLIC "-//W3C//DTD SVG 1.1//EN"
 "http://www.w3.org/Graphics/SVG/1.1/DTD/svg11.dtd">
<!-- Generated by graphviz version 2.38.0 (20140413.2041)
 -->
<!-- Title: set_cap Pages: 1 -->
<svg width="328pt" height="179pt"
 viewBox="0.00 0.00 328.00 179.00" xmlns="http://www.w3.org/2000/svg" xmlns:xlink="http://www.w3.org/1999/xlink">
<g id="graph0" class="graph" transform="scale(1 1) rotate(0) translate(4 175)">
<title>set_cap</title>
<!-- Node326 -->
<g id="node1" class="node"><title>Node326</title>
<polygon fill="#bfbfbf" stroke="black" points="0,-76.5 0,-94.5 48,-94.5 48,-76.5 0,-76.5"/>
<text text-anchor="middle" x="24" y="-83.3" font-family="Calibri" font-size="9.00">set_cap</text>
</g>
<!-- Node327 -->
<g id="node2" class="node"><title>Node327</title>
<g id="a_node2"><a xlink:href="main__main_8h.html#a9dff326a6079fe726285b11ee837ad60" target="_top" xlink:title="atu_reset">
<polygon fill="none" stroke="black" points="187.5,-152.5 187.5,-170.5 243.5,-170.5 243.5,-152.5 187.5,-152.5"/>
<text text-anchor="middle" x="215.5" y="-159.3" font-family="Calibri" font-size="9.00">atu_reset</text>
</a>
</g>
</g>
<!-- Node326&#45;&gt;Node327 -->
<g id="edge1" class="edge"><title>Node326&#45;&gt;Node327</title>
<path fill="none" stroke="midnightblue" d="M39.45,-102.367C50.4577,-114.089 66.6369,-129.067 84,-137.5 117.258,-153.653 160.109,-158.986 187.452,-160.716"/>
<polygon fill="midnightblue" stroke="midnightblue" points="42.0027,-99.9719 32.7046,-94.8929 36.806,-104.662 42.0027,-99.9719"/>
</g>
<!-- Node328 -->
<g id="node3" class="node"><title>Node328</title>
<g id="a_node3"><a xlink:href="main__main_8h.html#a1849f2e5bd63d11a7b9549470e287d17" target="_top" xlink:title="tune">
<polygon fill="none" stroke="black" points="285,-95.5 285,-113.5 320,-113.5 320,-95.5 285,-95.5"/>
<text text-anchor="middle" x="302.5" y="-102.3" font-family="Calibri" font-size="9.00">tune</text>
</a>
</g>
</g>
<!-- Node326&#45;&gt;Node328 -->
<g id="edge9" class="edge"><title>Node326&#45;&gt;Node328</title>
<path fill="none" stroke="midnightblue" d="M57.9798,-97.4083C66.3571,-99.9189 75.4185,-102.2 84,-103.5 158.11,-114.728 248.059,-109.145 284.727,-106.071"/>
<polygon fill="midnightblue" stroke="midnightblue" points="58.7696,-93.9866 48.1789,-94.2827 56.6427,-100.656 58.7696,-93.9866"/>
</g>
<!-- Node329 -->
<g id="node4" class="node"><title>Node329</title>
<g id="a_node4"><a xlink:href="main__main_8h.html#a740ef1b33bb02cd952ad7d8708999472" target="_top" xlink:title="coarse_cap">
<polygon fill="none" stroke="black" points="84,-76.5 84,-94.5 146,-94.5 146,-76.5 84,-76.5"/>
<text text-anchor="middle" x="115" y="-83.3" font-family="Calibri" font-size="9.00">coarse_cap</text>
</a>
</g>
</g>
<!-- Node326&#45;&gt;Node329 -->
<g id="edge3" class="edge"><title>Node326&#45;&gt;Node329</title>
<path fill="none" stroke="midnightblue" d="M58.4949,-85.5C66.7811,-85.5 75.6105,-85.5 83.7328,-85.5"/>
<polygon fill="midnightblue" stroke="midnightblue" points="58.3837,-82.0001 48.3837,-85.5 58.3837,-89.0001 58.3837,-82.0001"/>
</g>
<!-- Node330 -->
<g id="node5" class="node"><title>Node330</title>
<g id="a_node5"><a xlink:href="main__main_8h.html#a5c7c60c7d70cf76cc52e87722bb0f614" target="_top" xlink:title="coarse_tune">
<polygon fill="none" stroke="black" points="182,-76.5 182,-94.5 249,-94.5 249,-76.5 182,-76.5"/>
<text text-anchor="middle" x="215.5" y="-83.3" font-family="Calibri" font-size="9.00">coarse_tune</text>
</a>
</g>
</g>
<!-- Node326&#45;&gt;Node330 -->
<g id="edge6" class="edge"><title>Node326&#45;&gt;Node330</title>
<path fill="none" stroke="midnightblue" d="M57.2113,-73.132C65.7884,-70.3926 75.1366,-67.892 84,-66.5 111.222,-62.2249 118.696,-62.7835 146,-66.5 160.185,-68.4308 175.58,-72.513 188.175,-76.4004"/>
<polygon fill="midnightblue" stroke="midnightblue" points="55.9154,-69.8757 47.5721,-76.4056 58.1664,-76.504 55.9154,-69.8757"/>
</g>
<!-- Node331 -->
<g id="node6" class="node"><title>Node331</title>
<g id="a_node6"><a xlink:href="main__main_8h.html#ab518a3d2c723f12d3af3024a195606ce" target="_top" xlink:title="sharp_cap">
<polygon fill="none" stroke="black" points="85.5,-0.5 85.5,-18.5 144.5,-18.5 144.5,-0.5 85.5,-0.5"/>
<text text-anchor="middle" x="115" y="-7.3" font-family="Calibri" font-size="9.00">sharp_cap</text>
</a>
</g>
</g>
<!-- Node326&#45;&gt;Node331 -->
<g id="edge7" class="edge"><title>Node326&#45;&gt;Node331</title>
<path fill="none" stroke="midnightblue" d="M42.9914,-69.2456C54.579,-58.8761 70.034,-45.2296 84,-33.5 89.9247,-28.524 96.6399,-23.1298 102.213,-18.718"/>
<polygon fill="midnightblue" stroke="midnightblue" points="40.4139,-66.8562 35.3139,-76.1428 45.0919,-72.0635 40.4139,-66.8562"/>
</g>
<!-- Node327&#45;&gt;Node328 -->
<g id="edge2" class="edge"><title>Node327&#45;&gt;Node328</title>
<path fill="none" stroke="midnightblue" d="M238.694,-146.617C254.28,-136.165 274.63,-122.519 287.877,-113.635"/>
<polygon fill="midnightblue" stroke="midnightblue" points="236.513,-143.865 230.157,-152.342 240.412,-149.679 236.513,-143.865"/>
</g>
<!-- Node329&#45;&gt;Node330 -->
<g id="edge4" class="edge"><title>Node329&#45;&gt;Node330</title>
<path fill="none" stroke="midnightblue" d="M156.23,-85.5C164.755,-85.5 173.653,-85.5 181.855,-85.5"/>
<polygon fill="midnightblue" stroke="midnightblue" points="156.088,-82.0001 146.088,-85.5 156.088,-89.0001 156.088,-82.0001"/>
</g>
<!-- Node330&#45;&gt;Node328 -->
<g id="edge5" class="edge"><title>Node330&#45;&gt;Node328</title>
<path fill="none" stroke="midnightblue" d="M258.982,-94.9959C268.145,-97.0441 277.309,-99.0925 284.77,-100.76"/>
<polygon fill="midnightblue" stroke="midnightblue" points="259.643,-91.5574 249.12,-92.7916 258.116,-98.3888 259.643,-91.5574"/>
</g>
<!-- Node331&#45;&gt;Node328 -->
<g id="edge8" class="edge"><title>Node331&#45;&gt;Node328</title>
<path fill="none" stroke="midnightblue" d="M151.108,-22.0913C178.524,-32.5003 217.176,-48.4599 249,-66.5 264.074,-75.0451 280.011,-87.0607 290.317,-95.2791"/>
<polygon fill="midnightblue" stroke="midnightblue" points="152.142,-18.7411 141.549,-18.514 149.688,-25.2971 152.142,-18.7411"/>
</g>
</g>
</svg>
