<?xml version="1.0" encoding="UTF-8" standalone="no"?>
<!DOCTYPE svg PUBLIC "-//W3C//DTD SVG 1.1//EN"
 "http://www.w3.org/Graphics/SVG/1.1/DTD/svg11.dtd">
<!-- Generated by graphviz version 2.38.0 (20140413.2041)
 -->
<!-- Title: show_loss Pages: 1 -->
<svg width="492pt" height="170pt"
 viewBox="0.00 0.00 492.00 170.19" xmlns="http://www.w3.org/2000/svg" xmlns:xlink="http://www.w3.org/1999/xlink">
<g id="graph0" class="graph" transform="scale(1 1) rotate(0) translate(4 166.194)">
<title>show_loss</title>
<!-- Node1 -->
<g id="node1" class="node"><title>Node1</title>
<g id="a_node1"><a xlink:title=" ">
<polygon fill="#bfbfbf" stroke="black" points="0,-83.4684 0,-101.468 60,-101.468 60,-83.4684 0,-83.4684"/>
<text text-anchor="middle" x="30" y="-90.2684" font-family="Calibri" font-size="9.00">show_loss</text>
</a>
</g>
</g>
<!-- Node2 -->
<g id="node2" class="node"><title>Node2</title>
<g id="a_node2"><a xlink:href="oled__control_8c.html#a1c8eef09adf01c9a7e3c6188f25c3c48" target="_top" xlink:title=" ">
<polygon fill="none" stroke="black" points="96,-83.4684 96,-101.468 155,-101.468 155,-83.4684 96,-83.4684"/>
<text text-anchor="middle" x="125.5" y="-90.2684" font-family="Calibri" font-size="9.00">led_wr_str</text>
</a>
</g>
</g>
<!-- Node1&#45;&gt;Node2 -->
<g id="edge1" class="edge"><title>Node1&#45;&gt;Node2</title>
<path fill="none" stroke="midnightblue" d="M60.0715,-92.4684C68.1511,-92.4684 77.057,-92.4684 85.6025,-92.4684"/>
<polygon fill="midnightblue" stroke="midnightblue" points="85.7677,-95.9685 95.7677,-92.4684 85.7676,-88.9685 85.7677,-95.9685"/>
</g>
<!-- Node3 -->
<g id="node3" class="node"><title>Node3</title>
<g id="a_node3"><a xlink:href="oled__control_8c.html#a3d35666326cc069eda3b63c70983fdbc" target="_top" xlink:title=" ">
<polygon fill="none" stroke="black" points="196,-112.468 196,-130.468 251,-130.468 251,-112.468 196,-112.468"/>
<text text-anchor="middle" x="223.5" y="-119.268" font-family="Calibri" font-size="9.00">led_send</text>
</a>
</g>
</g>
<!-- Node2&#45;&gt;Node3 -->
<g id="edge2" class="edge"><title>Node2&#45;&gt;Node3</title>
<path fill="none" stroke="midnightblue" d="M155.043,-101.091C164.844,-104.052 175.948,-107.406 186.276,-110.526"/>
<polygon fill="midnightblue" stroke="midnightblue" points="185.288,-113.884 195.873,-113.425 187.313,-107.183 185.288,-113.884"/>
</g>
<!-- Node7 -->
<g id="node7" class="node"><title>Node7</title>
<g id="a_node7"><a xlink:href="oled__control_8c.html#a6e85fd05697e2238e4d9babf1c952772" target="_top" xlink:title=" ">
<polygon fill="none" stroke="black" points="191,-55.4684 191,-73.4684 256,-73.4684 256,-55.4684 191,-55.4684"/>
<text text-anchor="middle" x="223.5" y="-62.2684" font-family="Calibri" font-size="9.00">oled_wr_str</text>
</a>
</g>
</g>
<!-- Node2&#45;&gt;Node7 -->
<g id="edge6" class="edge"><title>Node2&#45;&gt;Node7</title>
<path fill="none" stroke="midnightblue" d="M155.043,-84.1433C163.486,-81.6809 172.895,-78.9366 181.942,-76.2977"/>
<polygon fill="midnightblue" stroke="midnightblue" points="182.935,-79.6541 191.555,-73.494 180.975,-72.9341 182.935,-79.6541"/>
</g>
<!-- Node4 -->
<g id="node4" class="node"><title>Node4</title>
<g id="a_node4"><a xlink:href="oled__control_8c.html#ab7f6b5c6c1483f6286f2de5786c028d9" target="_top" xlink:title=" ">
<polygon fill="none" stroke="black" points="410,-17.4684 410,-35.4684 482,-35.4684 482,-17.4684 410,-17.4684"/>
<text text-anchor="middle" x="446" y="-24.2684" font-family="Calibri" font-size="9.00">Soft_I2C_Start</text>
</a>
</g>
</g>
<!-- Node3&#45;&gt;Node4 -->
<g id="edge3" class="edge"><title>Node3&#45;&gt;Node4</title>
<path fill="none" stroke="midnightblue" d="M251.057,-129.386C282.511,-137.09 335.263,-144.585 372,-121.468 403.295,-101.777 382.49,-73.2336 408,-46.4684 409.807,-44.5722 411.835,-42.8146 413.985,-41.1941"/>
<polygon fill="midnightblue" stroke="midnightblue" points="416.151,-43.9628 422.682,-35.6199 412.374,-38.0694 416.151,-43.9628"/>
</g>
<!-- Node5 -->
<g id="node5" class="node"><title>Node5</title>
<g id="a_node5"><a xlink:href="oled__control_8c.html#a16eb842aa672ca44820ae6d5f9933425" target="_top" xlink:title=" ">
<polygon fill="none" stroke="black" points="296.5,-93.4684 296.5,-111.468 367.5,-111.468 367.5,-93.4684 296.5,-93.4684"/>
<text text-anchor="middle" x="332" y="-100.268" font-family="Calibri" font-size="9.00">Soft_I2C_Stop</text>
</a>
</g>
</g>
<!-- Node3&#45;&gt;Node5 -->
<g id="edge4" class="edge"><title>Node3&#45;&gt;Node5</title>
<path fill="none" stroke="midnightblue" d="M251.1,-116.723C261.785,-114.817 274.4,-112.566 286.411,-110.423"/>
<polygon fill="midnightblue" stroke="midnightblue" points="287.072,-113.861 296.302,-108.659 285.842,-106.97 287.072,-113.861"/>
</g>
<!-- Node6 -->
<g id="node6" class="node"><title>Node6</title>
<g id="a_node6"><a xlink:href="oled__control_8c.html#a73610916645f17c19124e697b005f694" target="_top" xlink:title=" ">
<polygon fill="none" stroke="black" points="408,-55.4684 408,-73.4684 484,-73.4684 484,-55.4684 408,-55.4684"/>
<text text-anchor="middle" x="446" y="-62.2684" font-family="Calibri" font-size="9.00">Soft_I2C_Write</text>
</a>
</g>
</g>
<!-- Node3&#45;&gt;Node6 -->
<g id="edge5" class="edge"><title>Node3&#45;&gt;Node6</title>
<path fill="none" stroke="midnightblue" d="M239.019,-130.688C266.29,-146.742 326.517,-176.14 372,-154.468 403.045,-139.676 425.177,-104.514 436.459,-82.7782"/>
<polygon fill="midnightblue" stroke="midnightblue" points="439.704,-84.1117 440.994,-73.5957 433.427,-81.0115 439.704,-84.1117"/>
</g>
<!-- Node7&#45;&gt;Node4 -->
<g id="edge10" class="edge"><title>Node7&#45;&gt;Node4</title>
<path fill="none" stroke="midnightblue" d="M231.588,-55.3372C242.727,-41.8215 265.783,-17.0571 292,-7.46845 332.036,7.17429 381.474,-3.75588 413.12,-14.1072"/>
<polygon fill="midnightblue" stroke="midnightblue" points="412.141,-17.4715 422.735,-17.4146 414.418,-10.8521 412.141,-17.4715"/>
</g>
<!-- Node7&#45;&gt;Node5 -->
<g id="edge11" class="edge"><title>Node7&#45;&gt;Node5</title>
<path fill="none" stroke="midnightblue" d="M249.739,-73.4739C263.565,-78.407 280.912,-84.5966 296.024,-89.9888"/>
<polygon fill="midnightblue" stroke="midnightblue" points="294.978,-93.3317 305.573,-93.3959 297.331,-86.7389 294.978,-93.3317"/>
</g>
<!-- Node7&#45;&gt;Node6 -->
<g id="edge12" class="edge"><title>Node7&#45;&gt;Node6</title>
<path fill="none" stroke="midnightblue" d="M256.092,-64.4684C293.166,-64.4684 355.001,-64.4684 397.776,-64.4684"/>
<polygon fill="midnightblue" stroke="midnightblue" points="397.944,-67.9685 407.944,-64.4684 397.944,-60.9685 397.944,-67.9685"/>
</g>
<!-- Node8 -->
<g id="node8" class="node"><title>Node8</title>
<g id="a_node8"><a xlink:href="oled__control_8c.html#a3cf32ac4d3d7c92be54c385c1ed8cc76" target="_top" xlink:title=" ">
<polygon fill="none" stroke="black" points="292,-17.4684 292,-35.4684 372,-35.4684 372,-17.4684 292,-17.4684"/>
<text text-anchor="middle" x="332" y="-24.2684" font-family="Calibri" font-size="9.00">set_addressing</text>
</a>
</g>
</g>
<!-- Node7&#45;&gt;Node8 -->
<g id="edge7" class="edge"><title>Node7&#45;&gt;Node8</title>
<path fill="none" stroke="midnightblue" d="M249.739,-55.463C263.565,-50.5299 280.912,-44.3403 296.024,-38.9481"/>
<polygon fill="midnightblue" stroke="midnightblue" points="297.331,-42.198 305.573,-35.541 294.978,-35.6051 297.331,-42.198"/>
</g>
<!-- Node8&#45;&gt;Node4 -->
<g id="edge8" class="edge"><title>Node8&#45;&gt;Node4</title>
<path fill="none" stroke="midnightblue" d="M372.172,-26.4684C381.064,-26.4684 390.579,-26.4684 399.701,-26.4684"/>
<polygon fill="midnightblue" stroke="midnightblue" points="399.779,-29.9685 409.779,-26.4684 399.779,-22.9685 399.779,-29.9685"/>
</g>
<!-- Node8&#45;&gt;Node6 -->
<g id="edge9" class="edge"><title>Node8&#45;&gt;Node6</title>
<path fill="none" stroke="midnightblue" d="M359.542,-35.4739C374.22,-40.4539 392.673,-46.7146 408.671,-52.1427"/>
<polygon fill="midnightblue" stroke="midnightblue" points="407.666,-55.4973 418.26,-55.3959 409.915,-48.8685 407.666,-55.4973"/>
</g>
</g>
</svg>
