<?xml version="1.0" encoding="UTF-8" standalone="no"?>
<!DOCTYPE svg PUBLIC "-//W3C//DTD SVG 1.1//EN"
 "http://www.w3.org/Graphics/SVG/1.1/DTD/svg11.dtd">
<!-- Generated by graphviz version 2.38.0 (20140413.2041)
 -->
<!-- Title: lcd_prep Pages: 1 -->
<svg width="223pt" height="46pt"
 viewBox="0.00 0.00 223.00 46.00" xmlns="http://www.w3.org/2000/svg" xmlns:xlink="http://www.w3.org/1999/xlink">
<g id="graph0" class="graph" transform="scale(1 1) rotate(0) translate(4 42)">
<title>lcd_prep</title>
<!-- Node286 -->
<g id="node1" class="node"><title>Node286</title>
<polygon fill="#bfbfbf" stroke="black" points="0,-19.5 0,-37.5 52,-37.5 52,-19.5 0,-19.5"/>
<text text-anchor="middle" x="26" y="-26.3" font-family="Calibri" font-size="9.00">lcd_prep</text>
</g>
<!-- Node287 -->
<g id="node2" class="node"><title>Node287</title>
<g id="a_node2"><a xlink:href="main_8c.html#acdef7a1fd863a6d3770c1268cb06add3" target="_top" xlink:title="main">
<polygon fill="none" stroke="black" points="177,-19.5 177,-37.5 215,-37.5 215,-19.5 177,-19.5"/>
<text text-anchor="middle" x="196" y="-26.3" font-family="Calibri" font-size="9.00">main</text>
</a>
</g>
</g>
<!-- Node286&#45;&gt;Node287 -->
<g id="edge1" class="edge"><title>Node286&#45;&gt;Node287</title>
<path fill="none" stroke="midnightblue" d="M62.4241,-28.5C97.4519,-28.5 149.649,-28.5 176.923,-28.5"/>
<polygon fill="midnightblue" stroke="midnightblue" points="62.1513,-25.0001 52.1513,-28.5 62.1513,-32.0001 62.1513,-25.0001"/>
</g>
<!-- Node288 -->
<g id="node3" class="node"><title>Node288</title>
<g id="a_node3"><a xlink:href="main_8c.html#a5eca6549371bdbac746144deefa131ca" target="_top" xlink:title="Test_init">
<polygon fill="none" stroke="black" points="88,-0.5 88,-18.5 141,-18.5 141,-0.5 88,-0.5"/>
<text text-anchor="middle" x="114.5" y="-7.3" font-family="Calibri" font-size="9.00">Test_init</text>
</a>
</g>
</g>
<!-- Node286&#45;&gt;Node288 -->
<g id="edge2" class="edge"><title>Node286&#45;&gt;Node288</title>
<path fill="none" stroke="midnightblue" d="M61.9256,-20.8285C70.6223,-18.9182 79.7857,-16.9055 87.9366,-15.1151"/>
<polygon fill="midnightblue" stroke="midnightblue" points="61.0356,-17.4404 52.0194,-23.0044 62.5375,-24.2775 61.0356,-17.4404"/>
</g>
<!-- Node288&#45;&gt;Node287 -->
<g id="edge3" class="edge"><title>Node288&#45;&gt;Node287</title>
<path fill="none" stroke="midnightblue" d="M150.943,-17.9707C159.865,-20.103 169.08,-22.3053 176.761,-24.141"/>
<polygon fill="midnightblue" stroke="midnightblue" points="151.632,-14.5367 141.092,-15.6163 150.004,-21.345 151.632,-14.5367"/>
</g>
</g>
</svg>
