<?xml version="1.0" encoding="UTF-8" standalone="no"?>
<!DOCTYPE svg PUBLIC "-//W3C//DTD SVG 1.1//EN"
 "http://www.w3.org/Graphics/SVG/1.1/DTD/svg11.dtd">
<!-- Generated by graphviz version 2.38.0 (20140413.2041)
 -->
<!-- Title: atu_reset Pages: 1 -->
<svg width="148pt" height="64pt"
 viewBox="0.00 0.00 148.00 64.00" xmlns="http://www.w3.org/2000/svg" xmlns:xlink="http://www.w3.org/1999/xlink">
<g id="graph0" class="graph" transform="scale(1 1) rotate(0) translate(4 60)">
<title>atu_reset</title>
<!-- Node0 -->
<g id="node1" class="node"><title>Node0</title>
<polygon fill="#bfbfbf" stroke="black" points="0,-18.5 0,-36.5 56,-36.5 56,-18.5 0,-18.5"/>
<text text-anchor="middle" x="28" y="-25.3" font-family="Calibri" font-size="9.00">atu_reset</text>
</g>
<!-- Node1 -->
<g id="node2" class="node"><title>Node1</title>
<g id="a_node2"><a xlink:href="main__main_8h.html#a452291def610d28ec8eee31b70d56054" target="_top" xlink:title="set_cap">
<polygon fill="none" stroke="black" points="92,-37.5 92,-55.5 140,-55.5 140,-37.5 92,-37.5"/>
<text text-anchor="middle" x="116" y="-44.3" font-family="Calibri" font-size="9.00">set_cap</text>
</a>
</g>
</g>
<!-- Node0&#45;&gt;Node1 -->
<g id="edge1" class="edge"><title>Node0&#45;&gt;Node1</title>
<path fill="none" stroke="midnightblue" d="M56.2109,-33.5117C64.3274,-35.3049 73.3155,-37.2906 81.7713,-39.1588"/>
<polygon fill="midnightblue" stroke="midnightblue" points="81.2075,-42.6186 91.7272,-41.3583 82.7177,-35.7834 81.2075,-42.6186"/>
</g>
<!-- Node2 -->
<g id="node3" class="node"><title>Node2</title>
<g id="a_node3"><a xlink:href="main__main_8h.html#a1f2ddaf3b672288a70778abe6e145b9c" target="_top" xlink:title="set_ind">
<polygon fill="none" stroke="black" points="92.5,-0.5 92.5,-18.5 139.5,-18.5 139.5,-0.5 92.5,-0.5"/>
<text text-anchor="middle" x="116" y="-7.3" font-family="Calibri" font-size="9.00">set_ind</text>
</a>
</g>
</g>
<!-- Node0&#45;&gt;Node2 -->
<g id="edge2" class="edge"><title>Node0&#45;&gt;Node2</title>
<path fill="none" stroke="midnightblue" d="M56.2109,-21.8047C64.5581,-20.0576 73.8271,-18.1176 82.4909,-16.3042"/>
<polygon fill="midnightblue" stroke="midnightblue" points="83.2212,-19.7273 92.292,-14.2528 81.7871,-12.8758 83.2212,-19.7273"/>
</g>
</g>
</svg>
