<?xml version="1.0" encoding="UTF-8" standalone="no"?>
<!DOCTYPE svg PUBLIC "-//W3C//DTD SVG 1.1//EN"
 "http://www.w3.org/Graphics/SVG/1.1/DTD/svg11.dtd">
<!-- Generated by graphviz version 2.38.0 (20140413.2041)
 -->
<!-- Title: sub_tune Pages: 1 -->
<!--zoomable 637 -->
<svg id="main" version="1.1" xmlns="http://www.w3.org/2000/svg" xmlns:xlink="http://www.w3.org/1999/xlink" xml:space="preserve" onload="init(evt)">
<style type="text/css"><![CDATA[
.edge:hover path { stroke: red; }
.edge:hover polygon { stroke: red; fill: red; }
]]></style>
<script type="text/javascript"><![CDATA[
var edges = document.getElementsByTagName('g');
if (edges && edges.length) {
  for (var i=0;i<edges.length;i++) {
    if (edges[i].id.substr(0,4)=='edge') {
      edges[i].setAttribute('class','edge');
    }
  }
}
]]></script>
        <defs>
                <circle id="rim" cx="0" cy="0" r="7"/>
                <circle id="rim2" cx="0" cy="0" r="3.5"/>
                <g id="zoomPlus">
                        <use xlink:href="#rim" fill="#404040">
                                <set attributeName="fill" to="#808080" begin="zoomplus.mouseover" end="zoomplus.mouseout"/>
                        </use>
                        <path d="M-4,0h8M0,-4v8" fill="none" stroke="white" stroke-width="1.5" pointer-events="none"/>
                </g>
                <g id="zoomMin">
                        <use xlink:href="#rim" fill="#404040">
                                <set attributeName="fill" to="#808080" begin="zoomminus.mouseover" end="zoomminus.mouseout"/>
                        </use>
                        <path d="M-4,0h8" fill="none" stroke="white" stroke-width="1.5" pointer-events="none"/>
                </g>
                <g id="dirArrow">
                        <path fill="none" stroke="white" stroke-width="1.5" d="M0,-3.0v7 M-2.5,-0.5L0,-3.0L2.5,-0.5"/>
                </g>
               <g id="resetDef">
                       <use xlink:href="#rim2" fill="#404040">
                               <set attributeName="fill" to="#808080" begin="reset.mouseover" end="reset.mouseout"/>
                       </use>
               </g>
        </defs>

<script type="text/javascript">
var viewWidth = 1173;
var viewHeight = 637;
var sectionId = 'dynsection-48';
</script>
<script xlink:href="svgpan.js"/>
<svg id="graph" class="graph">
<g id="viewport">
<title>sub_tune</title>
<!-- Node1 -->
<g id="node1" class="node"><title>Node1</title>
<g id="a_node1"><a xlink:title=" ">
<polygon fill="#bfbfbf" stroke="black" points="0,-372.5 0,-390.5 55,-390.5 55,-372.5 0,-372.5"/>
<text text-anchor="middle" x="27.5" y="-379.3" font-family="Calibri" font-size="9.00">sub_tune</text>
</a>
</g>
</g>
<!-- Node2 -->
<g id="node2" class="node"><title>Node2</title>
<g id="a_node2"><a xlink:href="main_8h.html#a9dff326a6079fe726285b11ee837ad60" target="_top" xlink:title=" ">
<polygon fill="none" stroke="black" points="476,-467.5 476,-485.5 532,-485.5 532,-467.5 476,-467.5"/>
<text text-anchor="middle" x="504" y="-474.3" font-family="Calibri" font-size="9.00">atu_reset</text>
</a>
</g>
</g>
<!-- Node1&#45;&gt;Node2 -->
<g id="edge1" class="edge"><title>Node1&#45;&gt;Node2</title>
<path fill="none" stroke="midnightblue" d="M31.0833,-390.524C37.5916,-411.698 56.6423,-464.998 91,-494.5 128.019,-526.287 145.966,-523.922 194,-532.5 296.062,-550.727 416.999,-510.974 472.452,-489.322"/>
<polygon fill="midnightblue" stroke="midnightblue" points="474.031,-492.461 482.025,-485.508 471.44,-485.958 474.031,-492.461"/>
</g>
<!-- Node4 -->
<g id="node4" class="node"><title>Node4</title>
<g id="a_node4"><a xlink:href="main_8h.html#a2a7963b9b09696c6654b96c67900c6ea" target="_top" xlink:title=" ">
<polygon fill="none" stroke="black" points="579.5,-505.5 579.5,-523.5 627.5,-523.5 627.5,-505.5 579.5,-505.5"/>
<text text-anchor="middle" x="603.5" y="-512.3" font-family="Calibri" font-size="9.00">set_cap</text>
</a>
</g>
</g>
<!-- Node1&#45;&gt;Node4 -->
<g id="edge56" class="edge"><title>Node1&#45;&gt;Node4</title>
<path fill="none" stroke="midnightblue" d="M30.7552,-390.584C42.4125,-435.146 100.13,-628.5 224,-628.5 224,-628.5 224,-628.5 409,-628.5 484.521,-628.5 556.532,-563.24 587.113,-531.473"/>
<polygon fill="midnightblue" stroke="midnightblue" points="589.997,-533.515 594.291,-523.829 584.894,-528.722 589.997,-533.515"/>
</g>
<!-- Node5 -->
<g id="node5" class="node"><title>Node5</title>
<g id="a_node5"><a xlink:href="main_8h.html#aecc83cd8bceb4bc24be844732ead2c2c" target="_top" xlink:title=" ">
<polygon fill="none" stroke="black" points="580,-417.5 580,-435.5 627,-435.5 627,-417.5 580,-417.5"/>
<text text-anchor="middle" x="603.5" y="-424.3" font-family="Calibri" font-size="9.00">set_ind</text>
</a>
</g>
</g>
<!-- Node1&#45;&gt;Node5 -->
<g id="edge57" class="edge"><title>Node1&#45;&gt;Node5</title>
<path fill="none" stroke="midnightblue" d="M55.2996,-385.764C92.8926,-391.366 163.471,-400.5 224,-400.5 224,-400.5 224,-400.5 409,-400.5 466.008,-400.5 531.629,-411.722 569.94,-419.421"/>
<polygon fill="midnightblue" stroke="midnightblue" points="569.492,-422.902 579.991,-421.487 570.901,-416.045 569.492,-422.902"/>
</g>
<!-- Node6 -->
<g id="node6" class="node"><title>Node6</title>
<g id="a_node6"><a xlink:href="main_8h.html#a5c7c60c7d70cf76cc52e87722bb0f614" target="_top" xlink:title=" ">
<polygon fill="none" stroke="black" points="91,-467.5 91,-485.5 158,-485.5 158,-467.5 91,-467.5"/>
<text text-anchor="middle" x="124.5" y="-474.3" font-family="Calibri" font-size="9.00">coarse_tune</text>
</a>
</g>
</g>
<!-- Node1&#45;&gt;Node6 -->
<g id="edge7" class="edge"><title>Node1&#45;&gt;Node6</title>
<path fill="none" stroke="midnightblue" d="M37.609,-390.609C53.5985,-406.598 86.9231,-439.923 107.038,-460.038"/>
<polygon fill="midnightblue" stroke="midnightblue" points="104.733,-462.683 114.279,-467.279 109.683,-457.733 104.733,-462.683"/>
</g>
<!-- Node8 -->
<g id="node8" class="node"><title>Node8</title>
<g id="a_node8"><a xlink:href="main_8h.html#ad7eb7423e0b17ccfba1ae42f3a3274e0" target="_top" xlink:title=" ">
<polygon fill="none" stroke="black" points="292,-353.5 292,-371.5 340,-371.5 340,-353.5 292,-353.5"/>
<text text-anchor="middle" x="316" y="-360.3" font-family="Calibri" font-size="9.00">get_swr</text>
</a>
</g>
</g>
<!-- Node1&#45;&gt;Node8 -->
<g id="edge55" class="edge"><title>Node1&#45;&gt;Node8</title>
<path fill="none" stroke="midnightblue" d="M52.3854,-372.409C93.7983,-357.789 181.629,-331.82 256,-343.5 264.863,-344.892 274.212,-347.393 282.789,-350.132"/>
<polygon fill="midnightblue" stroke="midnightblue" points="281.834,-353.504 292.428,-353.406 284.085,-346.876 281.834,-353.504"/>
</g>
<!-- Node28 -->
<g id="node28" class="node"><title>Node28</title>
<g id="a_node28"><a xlink:href="main_8h.html#aa3ee146d5fca99f368e8ddb5d5dd72cb" target="_top" xlink:title="Set the state of the switch.">
<polygon fill="none" stroke="black" points="581,-376.5 581,-394.5 626,-394.5 626,-376.5 581,-376.5"/>
<text text-anchor="middle" x="603.5" y="-383.3" font-family="Calibri" font-size="9.00">set_sw</text>
</a>
</g>
</g>
<!-- Node1&#45;&gt;Node28 -->
<g id="edge58" class="edge"><title>Node1&#45;&gt;Node28</title>
<path fill="none" stroke="midnightblue" d="M31.6544,-372.408C38.8514,-353.12 58.4245,-308.107 91,-286.5 129.793,-260.77 147.643,-271.74 194,-267.5 305.864,-257.269 333.713,-289.15 440,-325.5 486.031,-341.243 538.774,-361.047 571.366,-373.495"/>
<polygon fill="midnightblue" stroke="midnightblue" points="570.213,-376.801 580.804,-377.109 572.717,-370.264 570.213,-376.801"/>
</g>
<!-- Node29 -->
<g id="node29" class="node"><title>Node29</title>
<g id="a_node29"><a xlink:href="main_8h.html#ab518a3d2c723f12d3af3024a195606ce" target="_top" xlink:title=" ">
<polygon fill="none" stroke="black" points="195.5,-353.5 195.5,-371.5 254.5,-371.5 254.5,-353.5 195.5,-353.5"/>
<text text-anchor="middle" x="225" y="-360.3" font-family="Calibri" font-size="9.00">sharp_cap</text>
</a>
</g>
</g>
<!-- Node1&#45;&gt;Node29 -->
<g id="edge59" class="edge"><title>Node1&#45;&gt;Node29</title>
<path fill="none" stroke="midnightblue" d="M55.2735,-378.898C88.825,-375.637 146.581,-370.024 185.032,-366.287"/>
<polygon fill="midnightblue" stroke="midnightblue" points="185.715,-369.737 195.33,-365.286 185.038,-362.77 185.715,-369.737"/>
</g>
<!-- Node30 -->
<g id="node30" class="node"><title>Node30</title>
<g id="a_node30"><a xlink:href="main_8h.html#a72210b3ed1d5691c5bbda8c7f1e97197" target="_top" xlink:title=" ">
<polygon fill="none" stroke="black" points="196,-277.5 196,-295.5 254,-295.5 254,-277.5 196,-277.5"/>
<text text-anchor="middle" x="225" y="-284.3" font-family="Calibri" font-size="9.00">sharp_ind</text>
</a>
</g>
</g>
<!-- Node1&#45;&gt;Node30 -->
<g id="edge62" class="edge"><title>Node1&#45;&gt;Node30</title>
<path fill="none" stroke="midnightblue" d="M33.6954,-372.344C43.0093,-356.851 64.1125,-325.673 91,-310.5 120.082,-294.089 157.933,-288.508 185.816,-286.786"/>
<polygon fill="midnightblue" stroke="midnightblue" points="186.154,-290.274 195.975,-286.301 185.82,-283.282 186.154,-290.274"/>
</g>
<!-- Node3 -->
<g id="node3" class="node"><title>Node3</title>
<g id="a_node3"><a xlink:href="main_8h.html#a85fb3ccca120f3b843a1dc7567908a04" target="_top" xlink:title=" ">
<polygon fill="none" stroke="black" points="679.5,-440.5 679.5,-458.5 735.5,-458.5 735.5,-440.5 679.5,-440.5"/>
<text text-anchor="middle" x="707.5" y="-447.3" font-family="Calibri" font-size="9.00">delay_ms</text>
</a>
</g>
</g>
<!-- Node2&#45;&gt;Node3 -->
<g id="edge2" class="edge"><title>Node2&#45;&gt;Node3</title>
<path fill="none" stroke="midnightblue" d="M532.175,-472.859C567.577,-468.115 629.627,-459.801 669.354,-454.477"/>
<polygon fill="midnightblue" stroke="midnightblue" points="669.988,-457.924 679.434,-453.127 669.058,-450.986 669.988,-457.924"/>
</g>
<!-- Node2&#45;&gt;Node4 -->
<g id="edge3" class="edge"><title>Node2&#45;&gt;Node4</title>
<path fill="none" stroke="midnightblue" d="M528.106,-485.505C540.522,-490.345 556.041,-496.393 569.687,-501.711"/>
<polygon fill="midnightblue" stroke="midnightblue" points="568.633,-505.057 579.222,-505.427 571.175,-498.535 568.633,-505.057"/>
</g>
<!-- Node2&#45;&gt;Node5 -->
<g id="edge5" class="edge"><title>Node2&#45;&gt;Node5</title>
<path fill="none" stroke="midnightblue" d="M522.883,-467.329C537.589,-459.788 558.661,-448.982 575.433,-440.381"/>
<polygon fill="midnightblue" stroke="midnightblue" points="577.429,-443.29 584.73,-435.613 574.235,-437.061 577.429,-443.29"/>
</g>
<!-- Node4&#45;&gt;Node3 -->
<g id="edge4" class="edge"><title>Node4&#45;&gt;Node3</title>
<path fill="none" stroke="midnightblue" d="M618.683,-505.462C635.487,-494.753 663.71,-476.768 683.618,-464.082"/>
<polygon fill="midnightblue" stroke="midnightblue" points="685.557,-466.997 692.109,-458.671 681.795,-461.093 685.557,-466.997"/>
</g>
<!-- Node5&#45;&gt;Node3 -->
<g id="edge6" class="edge"><title>Node5&#45;&gt;Node3</title>
<path fill="none" stroke="midnightblue" d="M627.137,-431.604C639.511,-434.395 655.151,-437.921 669.269,-441.105"/>
<polygon fill="midnightblue" stroke="midnightblue" points="668.687,-444.561 679.212,-443.347 670.227,-437.733 668.687,-444.561"/>
</g>
<!-- Node6&#45;&gt;Node4 -->
<g id="edge53" class="edge"><title>Node6&#45;&gt;Node4</title>
<path fill="none" stroke="midnightblue" d="M133.233,-485.676C144.879,-498.751 168.306,-522.288 194,-532.5 333.687,-588.021 384.88,-575.334 532,-544.5 547.562,-541.239 563.961,-534.482 577.023,-528.206"/>
<polygon fill="midnightblue" stroke="midnightblue" points="578.917,-531.172 586.293,-523.566 575.784,-524.913 578.917,-531.172"/>
</g>
<!-- Node6&#45;&gt;Node5 -->
<g id="edge54" class="edge"><title>Node6&#45;&gt;Node5</title>
<path fill="none" stroke="midnightblue" d="M158.286,-473.063C245.474,-463.924 482.337,-439.096 569.626,-429.946"/>
<polygon fill="midnightblue" stroke="midnightblue" points="570.165,-433.409 579.745,-428.885 569.435,-426.447 570.165,-433.409"/>
</g>
<!-- Node7 -->
<g id="node7" class="node"><title>Node7</title>
<g id="a_node7"><a xlink:href="main_8h.html#a740ef1b33bb02cd952ad7d8708999472" target="_top" xlink:title=" ">
<polygon fill="none" stroke="black" points="194,-505.5 194,-523.5 256,-523.5 256,-505.5 194,-505.5"/>
<text text-anchor="middle" x="225" y="-512.3" font-family="Calibri" font-size="9.00">coarse_cap</text>
</a>
</g>
</g>
<!-- Node6&#45;&gt;Node7 -->
<g id="edge8" class="edge"><title>Node6&#45;&gt;Node7</title>
<path fill="none" stroke="midnightblue" d="M148.843,-485.505C161.387,-490.345 177.064,-496.393 190.851,-501.711"/>
<polygon fill="midnightblue" stroke="midnightblue" points="189.894,-505.094 200.483,-505.427 192.413,-498.563 189.894,-505.094"/>
</g>
<!-- Node6&#45;&gt;Node8 -->
<g id="edge52" class="edge"><title>Node6&#45;&gt;Node8</title>
<path fill="none" stroke="midnightblue" d="M140.687,-467.364C173.617,-447.553 251.797,-400.522 291.293,-376.761"/>
<polygon fill="midnightblue" stroke="midnightblue" points="293.239,-379.676 300.003,-371.522 289.63,-373.678 293.239,-379.676"/>
</g>
<!-- Node7&#45;&gt;Node4 -->
<g id="edge51" class="edge"><title>Node7&#45;&gt;Node4</title>
<path fill="none" stroke="midnightblue" d="M256.044,-518.728C310.961,-525.821 431.177,-538.414 532,-528.5 544.391,-527.282 557.832,-524.886 569.622,-522.417"/>
<polygon fill="midnightblue" stroke="midnightblue" points="570.472,-525.814 579.491,-520.255 568.974,-518.976 570.472,-525.814"/>
</g>
<!-- Node7&#45;&gt;Node8 -->
<g id="edge9" class="edge"><title>Node7&#45;&gt;Node8</title>
<path fill="none" stroke="midnightblue" d="M231.301,-505.447C245.612,-481.005 285.242,-413.322 304.383,-380.633"/>
<polygon fill="midnightblue" stroke="midnightblue" points="307.582,-382.096 309.614,-371.698 301.541,-378.559 307.582,-382.096"/>
</g>
<!-- Node9 -->
<g id="node9" class="node"><title>Node9</title>
<g id="a_node9"><a xlink:href="main_8h.html#ab37ca657b79c6b9176cb63e9d812a182" target="_top" xlink:title=" ">
<polygon fill="none" stroke="black" points="579,-55.5 579,-73.5 628,-73.5 628,-55.5 579,-55.5"/>
<text text-anchor="middle" x="603.5" y="-62.3" font-family="Calibri" font-size="9.00">get_pwr</text>
</a>
</g>
</g>
<!-- Node8&#45;&gt;Node9 -->
<g id="edge10" class="edge"><title>Node8&#45;&gt;Node9</title>
<path fill="none" stroke="midnightblue" d="M317.528,-353.323C319.651,-324.356 329.846,-233.586 376,-179.5 427.849,-118.741 519.705,-86.3924 569.007,-72.6665"/>
<polygon fill="midnightblue" stroke="midnightblue" points="570.105,-75.9956 578.852,-70.0167 568.286,-69.2362 570.105,-75.9956"/>
</g>
<!-- Node13 -->
<g id="node13" class="node"><title>Node13</title>
<g id="a_node13"><a xlink:href="main_8c.html#a4ae0d4fa97fc0ca3611813fee4f9af7c" target="_top" xlink:title=" ">
<polygon fill="none" stroke="black" points="574.5,-149.5 574.5,-167.5 632.5,-167.5 632.5,-149.5 574.5,-149.5"/>
<text text-anchor="middle" x="603.5" y="-156.3" font-family="Calibri" font-size="9.00">show_pwr</text>
</a>
</g>
</g>
<!-- Node8&#45;&gt;Node13 -->
<g id="edge14" class="edge"><title>Node8&#45;&gt;Node13</title>
<path fill="none" stroke="midnightblue" d="M318.241,-353.473C322.103,-328.739 336.139,-259.158 376,-220.5 427.231,-170.815 514.303,-160.089 564.247,-158.274"/>
<polygon fill="midnightblue" stroke="midnightblue" points="564.409,-161.771 574.315,-158.011 564.227,-154.773 564.409,-161.771"/>
</g>
<!-- Node22 -->
<g id="node22" class="node"><title>Node22</title>
<g id="a_node22"><a xlink:href="main_8c.html#a11724d8cce81ed96bec12a004ea3ea7a" target="_top" xlink:title=" ">
<polygon fill="none" stroke="black" points="376,-230.5 376,-248.5 440,-248.5 440,-230.5 376,-230.5"/>
<text text-anchor="middle" x="408" y="-237.3" font-family="Calibri" font-size="9.00">show_reset</text>
</a>
</g>
</g>
<!-- Node8&#45;&gt;Node22 -->
<g id="edge29" class="edge"><title>Node8&#45;&gt;Node22</title>
<path fill="none" stroke="midnightblue" d="M323.765,-353.255C338.758,-332.765 374.981,-283.26 394.325,-256.822"/>
<polygon fill="midnightblue" stroke="midnightblue" points="397.321,-258.655 400.401,-248.518 391.672,-254.522 397.321,-258.655"/>
</g>
<!-- Node10 -->
<g id="node10" class="node"><title>Node10</title>
<g id="a_node10"><a xlink:href="main_8h.html#ab19e6e081315a9a200394b74d10de395" target="_top" xlink:title=" ">
<polygon fill="none" stroke="black" points="679,-37.5 679,-55.5 736,-55.5 736,-37.5 679,-37.5"/>
<text text-anchor="middle" x="707.5" y="-44.3" font-family="Calibri" font-size="9.00">correction</text>
</a>
</g>
</g>
<!-- Node9&#45;&gt;Node10 -->
<g id="edge11" class="edge"><title>Node9&#45;&gt;Node10</title>
<path fill="none" stroke="midnightblue" d="M628.157,-60.3252C640.257,-58.19 655.271,-55.5404 668.909,-53.1337"/>
<polygon fill="midnightblue" stroke="midnightblue" points="669.759,-56.5379 678.998,-51.3533 668.542,-49.6445 669.759,-56.5379"/>
</g>
<!-- Node11 -->
<g id="node11" class="node"><title>Node11</title>
<g id="a_node11"><a xlink:href="main_8h.html#acfd46f8711e9c1c20fffdfc8bdaa0ddd" target="_top" xlink:title=" ">
<polygon fill="none" stroke="black" points="675,-0.5 675,-18.5 740,-18.5 740,-0.5 675,-0.5"/>
<text text-anchor="middle" x="707.5" y="-7.3" font-family="Calibri" font-size="9.00">get_forward</text>
</a>
</g>
</g>
<!-- Node9&#45;&gt;Node11 -->
<g id="edge12" class="edge"><title>Node9&#45;&gt;Node11</title>
<path fill="none" stroke="midnightblue" d="M621.343,-55.4179C637.511,-46.7001 662.154,-33.4122 680.778,-23.3699"/>
<polygon fill="midnightblue" stroke="midnightblue" points="682.491,-26.4225 689.632,-18.5956 679.169,-20.2611 682.491,-26.4225"/>
</g>
<!-- Node12 -->
<g id="node12" class="node"><title>Node12</title>
<g id="a_node12"><a xlink:href="main_8h.html#aa6b9a2b3d88f578ba6a9fefd911eae75" target="_top" xlink:title=" ">
<polygon fill="none" stroke="black" points="675.5,-74.5 675.5,-92.5 739.5,-92.5 739.5,-74.5 675.5,-74.5"/>
<text text-anchor="middle" x="707.5" y="-81.3" font-family="Calibri" font-size="9.00">get_reverse</text>
</a>
</g>
</g>
<!-- Node9&#45;&gt;Node12 -->
<g id="edge13" class="edge"><title>Node9&#45;&gt;Node12</title>
<path fill="none" stroke="midnightblue" d="M628.157,-68.9067C639.209,-70.9655 652.694,-73.4773 665.339,-75.8328"/>
<polygon fill="midnightblue" stroke="midnightblue" points="664.766,-79.2862 675.238,-77.6767 666.048,-72.4046 664.766,-79.2862"/>
</g>
<!-- Node14 -->
<g id="node14" class="node"><title>Node14</title>
<g id="a_node14"><a xlink:href="main_8c.html#a6911b3f075cdf1d54cb14f17f6e5ef6b" target="_top" xlink:title=" ">
<polygon fill="none" stroke="black" points="684,-111.5 684,-129.5 731,-129.5 731,-111.5 684,-111.5"/>
<text text-anchor="middle" x="707.5" y="-118.3" font-family="Calibri" font-size="9.00">lcd_ind</text>
</a>
</g>
</g>
<!-- Node13&#45;&gt;Node14 -->
<g id="edge15" class="edge"><title>Node13&#45;&gt;Node14</title>
<path fill="none" stroke="midnightblue" d="M628.673,-149.495C642.266,-144.43 659.415,-138.041 674.153,-132.551"/>
<polygon fill="midnightblue" stroke="midnightblue" points="675.75,-135.691 683.898,-128.92 673.306,-129.132 675.75,-135.691"/>
</g>
<!-- Node15 -->
<g id="node15" class="node"><title>Node15</title>
<g id="a_node15"><a xlink:href="oled__control_8c.html#a1c8eef09adf01c9a7e3c6188f25c3c48" target="_top" xlink:title=" ">
<polygon fill="none" stroke="black" points="776,-192.5 776,-210.5 835,-210.5 835,-192.5 776,-192.5"/>
<text text-anchor="middle" x="805.5" y="-199.3" font-family="Calibri" font-size="9.00">led_wr_str</text>
</a>
</g>
</g>
<!-- Node13&#45;&gt;Node15 -->
<g id="edge28" class="edge"><title>Node13&#45;&gt;Node15</title>
<path fill="none" stroke="midnightblue" d="M632.713,-162.561C660.252,-166.744 703.255,-173.862 740,-182.5 748.752,-184.557 758.076,-187.097 766.835,-189.641"/>
<polygon fill="midnightblue" stroke="midnightblue" points="765.841,-192.997 776.424,-192.491 767.836,-186.287 765.841,-192.997"/>
</g>
<!-- Node14&#45;&gt;Node15 -->
<g id="edge16" class="edge"><title>Node14&#45;&gt;Node15</title>
<path fill="none" stroke="midnightblue" d="M720.928,-129.642C726.79,-134.037 733.836,-139.439 740,-144.5 756.296,-157.879 774.222,-173.825 787.031,-185.444"/>
<polygon fill="midnightblue" stroke="midnightblue" points="784.893,-188.232 794.641,-192.385 789.61,-183.06 784.893,-188.232"/>
</g>
<!-- Node16 -->
<g id="node16" class="node"><title>Node16</title>
<g id="a_node16"><a xlink:href="oled__control_8c.html#a3d35666326cc069eda3b63c70983fdbc" target="_top" xlink:title=" ">
<polygon fill="none" stroke="black" points="985,-259.5 985,-277.5 1040,-277.5 1040,-259.5 985,-259.5"/>
<text text-anchor="middle" x="1012.5" y="-266.3" font-family="Calibri" font-size="9.00">led_send</text>
</a>
</g>
</g>
<!-- Node15&#45;&gt;Node16 -->
<g id="edge17" class="edge"><title>Node15&#45;&gt;Node16</title>
<path fill="none" stroke="midnightblue" d="M834.147,-210.536C870.619,-222.456 934.893,-243.462 975.231,-256.646"/>
<polygon fill="midnightblue" stroke="midnightblue" points="974.347,-260.039 984.939,-259.819 976.522,-253.386 974.347,-260.039"/>
</g>
<!-- Node20 -->
<g id="node20" class="node"><title>Node20</title>
<g id="a_node20"><a xlink:href="oled__control_8c.html#a6e85fd05697e2238e4d9babf1c952772" target="_top" xlink:title=" ">
<polygon fill="none" stroke="black" points="871,-192.5 871,-210.5 936,-210.5 936,-192.5 871,-192.5"/>
<text text-anchor="middle" x="903.5" y="-199.3" font-family="Calibri" font-size="9.00">oled_wr_str</text>
</a>
</g>
</g>
<!-- Node15&#45;&gt;Node20 -->
<g id="edge21" class="edge"><title>Node15&#45;&gt;Node20</title>
<path fill="none" stroke="midnightblue" d="M835.043,-201.5C843.147,-201.5 852.142,-201.5 860.852,-201.5"/>
<polygon fill="midnightblue" stroke="midnightblue" points="860.877,-205 870.877,-201.5 860.877,-198 860.877,-205"/>
</g>
<!-- Node17 -->
<g id="node17" class="node"><title>Node17</title>
<g id="a_node17"><a xlink:href="oled__control_8c.html#ab7f6b5c6c1483f6286f2de5786c028d9" target="_top" xlink:title=" ">
<polygon fill="none" stroke="black" points="1091,-240.5 1091,-258.5 1163,-258.5 1163,-240.5 1091,-240.5"/>
<text text-anchor="middle" x="1127" y="-247.3" font-family="Calibri" font-size="9.00">Soft_I2C_Start</text>
</a>
</g>
</g>
<!-- Node16&#45;&gt;Node17 -->
<g id="edge18" class="edge"><title>Node16&#45;&gt;Node17</title>
<path fill="none" stroke="midnightblue" d="M1040.16,-263.997C1052.17,-261.968 1066.7,-259.515 1080.37,-257.207"/>
<polygon fill="midnightblue" stroke="midnightblue" points="1081.31,-260.597 1090.59,-255.481 1080.14,-253.695 1081.31,-260.597"/>
</g>
<!-- Node18 -->
<g id="node18" class="node"><title>Node18</title>
<g id="a_node18"><a xlink:href="oled__control_8c.html#a16eb842aa672ca44820ae6d5f9933425" target="_top" xlink:title=" ">
<polygon fill="none" stroke="black" points="1091.5,-296.5 1091.5,-314.5 1162.5,-314.5 1162.5,-296.5 1091.5,-296.5"/>
<text text-anchor="middle" x="1127" y="-303.3" font-family="Calibri" font-size="9.00">Soft_I2C_Stop</text>
</a>
</g>
</g>
<!-- Node16&#45;&gt;Node18 -->
<g id="edge19" class="edge"><title>Node16&#45;&gt;Node18</title>
<path fill="none" stroke="midnightblue" d="M1040.16,-277.268C1054.69,-282.047 1072.9,-288.036 1088.8,-293.267"/>
<polygon fill="midnightblue" stroke="midnightblue" points="1087.76,-296.609 1098.36,-296.408 1089.95,-289.959 1087.76,-296.609"/>
</g>
<!-- Node19 -->
<g id="node19" class="node"><title>Node19</title>
<g id="a_node19"><a xlink:href="oled__control_8c.html#a73610916645f17c19124e697b005f694" target="_top" xlink:title=" ">
<polygon fill="none" stroke="black" points="1089,-193.5 1089,-211.5 1165,-211.5 1165,-193.5 1089,-193.5"/>
<text text-anchor="middle" x="1127" y="-200.3" font-family="Calibri" font-size="9.00">Soft_I2C_Write</text>
</a>
</g>
</g>
<!-- Node16&#45;&gt;Node19 -->
<g id="edge20" class="edge"><title>Node16&#45;&gt;Node19</title>
<path fill="none" stroke="midnightblue" d="M1029.14,-259.323C1047.95,-248.29 1079.72,-229.649 1101.73,-216.741"/>
<polygon fill="midnightblue" stroke="midnightblue" points="1103.64,-219.678 1110.49,-211.599 1100.09,-213.64 1103.64,-219.678"/>
</g>
<!-- Node20&#45;&gt;Node17 -->
<g id="edge25" class="edge"><title>Node20&#45;&gt;Node17</title>
<path fill="none" stroke="midnightblue" d="M936.236,-208.377C974.11,-216.585 1037.71,-230.367 1080.73,-239.691"/>
<polygon fill="midnightblue" stroke="midnightblue" points="1080.15,-243.145 1090.66,-241.842 1081.63,-236.303 1080.15,-243.145"/>
</g>
<!-- Node20&#45;&gt;Node18 -->
<g id="edge26" class="edge"><title>Node20&#45;&gt;Node18</title>
<path fill="none" stroke="midnightblue" d="M908.134,-210.651C918.71,-236.766 950.105,-310.591 972,-323.5 1011.09,-346.544 1065.47,-331.438 1098.06,-318.43"/>
<polygon fill="midnightblue" stroke="midnightblue" points="1099.56,-321.596 1107.43,-314.505 1096.85,-315.139 1099.56,-321.596"/>
</g>
<!-- Node20&#45;&gt;Node19 -->
<g id="edge27" class="edge"><title>Node20&#45;&gt;Node19</title>
<path fill="none" stroke="midnightblue" d="M921.116,-192.438C934.434,-185.717 953.834,-177.118 972,-173.5 1007.31,-166.468 1017.64,-166.734 1053,-173.5 1068.95,-176.552 1085.86,-183.041 1099.38,-189.108"/>
<polygon fill="midnightblue" stroke="midnightblue" points="1098.03,-192.338 1108.57,-193.396 1100.99,-185.995 1098.03,-192.338"/>
</g>
<!-- Node21 -->
<g id="node21" class="node"><title>Node21</title>
<g id="a_node21"><a xlink:href="oled__control_8c.html#a3cf32ac4d3d7c92be54c385c1ed8cc76" target="_top" xlink:title=" ">
<polygon fill="none" stroke="black" points="972.5,-183.5 972.5,-201.5 1052.5,-201.5 1052.5,-183.5 972.5,-183.5"/>
<text text-anchor="middle" x="1012.5" y="-190.3" font-family="Calibri" font-size="9.00">set_addressing</text>
</a>
</g>
</g>
<!-- Node20&#45;&gt;Node21 -->
<g id="edge22" class="edge"><title>Node20&#45;&gt;Node21</title>
<path fill="none" stroke="midnightblue" d="M936.025,-198.848C944.177,-198.163 953.154,-197.408 961.985,-196.665"/>
<polygon fill="midnightblue" stroke="midnightblue" points="962.555,-200.129 972.227,-195.803 961.969,-193.154 962.555,-200.129"/>
</g>
<!-- Node21&#45;&gt;Node17 -->
<g id="edge23" class="edge"><title>Node21&#45;&gt;Node17</title>
<path fill="none" stroke="midnightblue" d="M1031.33,-201.532C1049.49,-210.733 1077.88,-225.12 1098.84,-235.74"/>
<polygon fill="midnightblue" stroke="midnightblue" points="1097.38,-238.924 1107.88,-240.322 1100.55,-232.68 1097.38,-238.924"/>
</g>
<!-- Node21&#45;&gt;Node19 -->
<g id="edge24" class="edge"><title>Node21&#45;&gt;Node19</title>
<path fill="none" stroke="midnightblue" d="M1052.53,-195.969C1061.02,-196.724 1070.08,-197.529 1078.84,-198.308"/>
<polygon fill="midnightblue" stroke="midnightblue" points="1078.66,-201.806 1088.93,-199.205 1079.28,-194.833 1078.66,-201.806"/>
</g>
<!-- Node22&#45;&gt;Node2 -->
<g id="edge30" class="edge"><title>Node22&#45;&gt;Node2</title>
<path fill="none" stroke="midnightblue" d="M412.57,-248.501C426.413,-283.403 476.713,-410.223 495.688,-458.064"/>
<polygon fill="midnightblue" stroke="midnightblue" points="492.486,-459.485 499.426,-467.49 498.993,-456.904 492.486,-459.485"/>
</g>
<!-- Node22&#45;&gt;Node14 -->
<g id="edge31" class="edge"><title>Node22&#45;&gt;Node14</title>
<path fill="none" stroke="midnightblue" d="M418.338,-230.123C430.726,-218.034 453.644,-196.864 476,-182.5 513.973,-158.103 524.709,-152.267 568,-139.5 603.298,-129.09 645.37,-124.346 673.809,-122.209"/>
<polygon fill="midnightblue" stroke="midnightblue" points="674.261,-125.686 683.998,-121.51 673.783,-118.702 674.261,-125.686"/>
</g>
<!-- Node22&#45;&gt;Node15 -->
<g id="edge49" class="edge"><title>Node22&#45;&gt;Node15</title>
<path fill="none" stroke="midnightblue" d="M429.369,-230.389C442.419,-225.011 459.873,-218.656 476,-215.5 579,-195.34 703.499,-196.917 765.484,-199.406"/>
<polygon fill="midnightblue" stroke="midnightblue" points="765.456,-202.908 775.598,-199.843 765.759,-195.915 765.456,-202.908"/>
</g>
<!-- Node23 -->
<g id="node23" class="node"><title>Node23</title>
<g id="a_node23"><a xlink:href="main_8c.html#ae5a14b4884e85f47ad8a4a716f13203a" target="_top" xlink:title=" ">
<polygon fill="none" stroke="black" points="480,-225.5 480,-243.5 528,-243.5 528,-225.5 480,-225.5"/>
<text text-anchor="middle" x="504" y="-232.3" font-family="Calibri" font-size="9.00">lcd_pwr</text>
</a>
</g>
</g>
<!-- Node22&#45;&gt;Node23 -->
<g id="edge32" class="edge"><title>Node22&#45;&gt;Node23</title>
<path fill="none" stroke="midnightblue" d="M440.04,-237.849C449.543,-237.343 460.035,-236.785 469.684,-236.272"/>
<polygon fill="midnightblue" stroke="midnightblue" points="469.937,-239.764 479.737,-235.737 469.565,-232.774 469.937,-239.764"/>
</g>
<!-- Node22&#45;&gt;Node28 -->
<g id="edge50" class="edge"><title>Node22&#45;&gt;Node28</title>
<path fill="none" stroke="midnightblue" d="M440.095,-247.647C467.16,-256.075 506.02,-271.565 532,-296.5 557.24,-320.725 543.616,-341.414 568,-366.5 569.43,-367.971 570.998,-369.358 572.653,-370.661"/>
<polygon fill="midnightblue" stroke="midnightblue" points="571.14,-373.857 581.408,-376.469 575.01,-368.024 571.14,-373.857"/>
</g>
<!-- Node23&#45;&gt;Node4 -->
<g id="edge44" class="edge"><title>Node23&#45;&gt;Node4</title>
<path fill="none" stroke="midnightblue" d="M507.224,-243.898C514.419,-273.775 538.328,-369.049 568,-444.5 575.102,-462.56 585.057,-482.324 592.449,-496.232"/>
<polygon fill="midnightblue" stroke="midnightblue" points="589.47,-498.08 597.301,-505.215 595.629,-494.753 589.47,-498.08"/>
</g>
<!-- Node23&#45;&gt;Node5 -->
<g id="edge45" class="edge"><title>Node23&#45;&gt;Node5</title>
<path fill="none" stroke="midnightblue" d="M507.596,-243.647C516.588,-274.902 547.005,-376.989 568,-403.5 570.327,-406.438 573.134,-409.132 576.13,-411.56"/>
<polygon fill="midnightblue" stroke="midnightblue" points="574.119,-414.425 584.302,-417.351 578.166,-408.713 574.119,-414.425"/>
</g>
<!-- Node23&#45;&gt;Node9 -->
<g id="edge40" class="edge"><title>Node23&#45;&gt;Node9</title>
<path fill="none" stroke="midnightblue" d="M510.242,-225.36C525.716,-198.379 571.407,-118.713 592.103,-82.6274"/>
<polygon fill="midnightblue" stroke="midnightblue" points="595.293,-84.101 597.232,-73.6851 589.221,-80.6184 595.293,-84.101"/>
</g>
<!-- Node23&#45;&gt;Node13 -->
<g id="edge48" class="edge"><title>Node23&#45;&gt;Node13</title>
<path fill="none" stroke="midnightblue" d="M516.567,-225.483C532.913,-212.742 562.99,-189.297 582.87,-173.802"/>
<polygon fill="midnightblue" stroke="midnightblue" points="585.212,-176.413 590.948,-167.505 580.909,-170.892 585.212,-176.413"/>
</g>
<!-- Node23&#45;&gt;Node15 -->
<g id="edge43" class="edge"><title>Node23&#45;&gt;Node15</title>
<path fill="none" stroke="midnightblue" d="M528.047,-232.431C570.18,-228.584 662.438,-219.869 740,-210.5 748.379,-209.488 757.356,-208.301 765.869,-207.127"/>
<polygon fill="midnightblue" stroke="midnightblue" points="766.535,-210.568 775.953,-205.714 765.564,-203.635 766.535,-210.568"/>
</g>
<!-- Node24 -->
<g id="node24" class="node"><title>Node24</title>
<g id="a_node24"><a xlink:href="main_8c.html#a593218c5fe00b499d494826fc0aa5279" target="_top" xlink:title=" ">
<polygon fill="none" stroke="black" points="568,-339.5 568,-357.5 639,-357.5 639,-339.5 568,-339.5"/>
<text text-anchor="middle" x="603.5" y="-346.3" font-family="Calibri" font-size="9.00">button_delay</text>
</a>
</g>
</g>
<!-- Node23&#45;&gt;Node24 -->
<g id="edge33" class="edge"><title>Node23&#45;&gt;Node24</title>
<path fill="none" stroke="midnightblue" d="M516.868,-243.519C521.914,-247.721 527.628,-253.002 532,-258.5 552.795,-284.654 545.689,-299.627 568,-324.5 570.905,-327.738 574.328,-330.77 577.871,-333.516"/>
<polygon fill="midnightblue" stroke="midnightblue" points="575.976,-336.463 586.166,-339.366 580.011,-330.743 575.976,-336.463"/>
</g>
<!-- Node25 -->
<g id="node25" class="node"><title>Node25</title>
<g id="a_node25"><a xlink:href="oled__control_8c.html#a5febfdc847aa6f3bc3f3c8f7818b8699" target="_top" xlink:title=" ">
<polygon fill="none" stroke="black" points="872.5,-296.5 872.5,-314.5 934.5,-314.5 934.5,-296.5 872.5,-296.5"/>
<text text-anchor="middle" x="903.5" y="-303.3" font-family="Calibri" font-size="9.00">display_on</text>
</a>
</g>
</g>
<!-- Node23&#45;&gt;Node25 -->
<g id="edge34" class="edge"><title>Node23&#45;&gt;Node25</title>
<path fill="none" stroke="midnightblue" d="M518.415,-243.591C530.78,-251.563 549.903,-262.885 568,-269.5 669.072,-306.446 797.921,-308.859 862.213,-307.309"/>
<polygon fill="midnightblue" stroke="midnightblue" points="862.439,-310.804 872.334,-307.018 862.238,-303.806 862.439,-310.804"/>
</g>
<!-- Node27 -->
<g id="node27" class="node"><title>Node27</title>
<g id="a_node27"><a xlink:href="main_8c.html#aa8fd50019a763561abc6621bb224417f" target="_top" xlink:title=" ">
<polygon fill="none" stroke="black" points="684,-263.5 684,-281.5 731,-281.5 731,-263.5 684,-263.5"/>
<text text-anchor="middle" x="707.5" y="-270.3" font-family="Calibri" font-size="9.00">lcd_swr</text>
</a>
</g>
</g>
<!-- Node23&#45;&gt;Node27 -->
<g id="edge41" class="edge"><title>Node23&#45;&gt;Node27</title>
<path fill="none" stroke="midnightblue" d="M528.282,-239.948C540.143,-242.654 554.81,-245.893 568,-248.5 604.088,-255.632 645.698,-262.687 673.814,-267.282"/>
<polygon fill="midnightblue" stroke="midnightblue" points="673.458,-270.77 683.89,-268.918 674.58,-263.86 673.458,-270.77"/>
</g>
<!-- Node23&#45;&gt;Node28 -->
<g id="edge46" class="edge"><title>Node23&#45;&gt;Node28</title>
<path fill="none" stroke="midnightblue" d="M517.9,-243.62C522.883,-247.69 528.271,-252.845 532,-258.5 559.853,-300.74 535.615,-327.625 568,-366.5 569.313,-368.076 570.792,-369.544 572.38,-370.907"/>
<polygon fill="midnightblue" stroke="midnightblue" points="570.756,-374.04 580.966,-376.866 574.747,-368.289 570.756,-374.04"/>
</g>
<!-- Node25&#45;&gt;Node16 -->
<g id="edge35" class="edge"><title>Node25&#45;&gt;Node16</title>
<path fill="none" stroke="midnightblue" d="M930.675,-296.449C944.147,-291.79 960.779,-286.039 975.447,-280.967"/>
<polygon fill="midnightblue" stroke="midnightblue" points="976.917,-284.162 985.224,-277.586 974.629,-277.546 976.917,-284.162"/>
</g>
<!-- Node26 -->
<g id="node26" class="node"><title>Node26</title>
<g id="a_node26"><a xlink:href="oled__control_8c.html#a78a346ba6e89c3140dd554a46e56c719" target="_top" xlink:title=" ">
<polygon fill="none" stroke="black" points="972,-296.5 972,-314.5 1053,-314.5 1053,-296.5 972,-296.5"/>
<text text-anchor="middle" x="1012.5" y="-303.3" font-family="Calibri" font-size="9.00">send_command</text>
</a>
</g>
</g>
<!-- Node25&#45;&gt;Node26 -->
<g id="edge36" class="edge"><title>Node25&#45;&gt;Node26</title>
<path fill="none" stroke="midnightblue" d="M934.59,-305.5C942.944,-305.5 952.245,-305.5 961.413,-305.5"/>
<polygon fill="midnightblue" stroke="midnightblue" points="961.649,-309 971.649,-305.5 961.649,-302 961.649,-309"/>
</g>
<!-- Node26&#45;&gt;Node17 -->
<g id="edge37" class="edge"><title>Node26&#45;&gt;Node17</title>
<path fill="none" stroke="midnightblue" d="M1032.43,-296.495C1038.96,-293.361 1046.31,-289.802 1053,-286.5 1068.42,-278.883 1085.58,-270.196 1099.39,-263.154"/>
<polygon fill="midnightblue" stroke="midnightblue" points="1101.04,-266.242 1108.35,-258.575 1097.85,-260.009 1101.04,-266.242"/>
</g>
<!-- Node26&#45;&gt;Node18 -->
<g id="edge38" class="edge"><title>Node26&#45;&gt;Node18</title>
<path fill="none" stroke="midnightblue" d="M1053.16,-305.5C1062.17,-305.5 1071.8,-305.5 1081.02,-305.5"/>
<polygon fill="midnightblue" stroke="midnightblue" points="1081.18,-309 1091.18,-305.5 1081.18,-302 1081.18,-309"/>
</g>
<!-- Node26&#45;&gt;Node19 -->
<g id="edge39" class="edge"><title>Node26&#45;&gt;Node19</title>
<path fill="none" stroke="midnightblue" d="M1037.78,-296.418C1043.15,-293.731 1048.55,-290.431 1053,-286.5 1075.17,-266.903 1068.89,-252.206 1089,-230.5 1093.28,-225.881 1098.39,-221.473 1103.43,-217.577"/>
<polygon fill="midnightblue" stroke="midnightblue" points="1105.67,-220.277 1111.69,-211.557 1101.55,-214.621 1105.67,-220.277"/>
</g>
<!-- Node27&#45;&gt;Node15 -->
<g id="edge42" class="edge"><title>Node27&#45;&gt;Node15</title>
<path fill="none" stroke="midnightblue" d="M721.05,-263.218C737.093,-251.353 765.073,-230.659 784.174,-216.533"/>
<polygon fill="midnightblue" stroke="midnightblue" points="786.291,-219.32 792.25,-210.56 782.129,-213.692 786.291,-219.32"/>
</g>
<!-- Node28&#45;&gt;Node3 -->
<g id="edge47" class="edge"><title>Node28&#45;&gt;Node3</title>
<path fill="none" stroke="midnightblue" d="M619.114,-394.67C635.853,-405.173 663.504,-422.522 683.219,-434.892"/>
<polygon fill="midnightblue" stroke="midnightblue" points="681.582,-437.997 691.913,-440.347 685.303,-432.068 681.582,-437.997"/>
</g>
<!-- Node29&#45;&gt;Node4 -->
<g id="edge61" class="edge"><title>Node29&#45;&gt;Node4</title>
<path fill="none" stroke="midnightblue" d="M239.376,-371.63C275.641,-395.913 379.601,-462.415 476,-494.5 506.594,-504.683 543.121,-509.747 569.04,-512.224"/>
<polygon fill="midnightblue" stroke="midnightblue" points="568.839,-515.72 579.106,-513.107 569.451,-508.746 568.839,-515.72"/>
</g>
<!-- Node29&#45;&gt;Node8 -->
<g id="edge60" class="edge"><title>Node29&#45;&gt;Node8</title>
<path fill="none" stroke="midnightblue" d="M254.65,-362.5C263.27,-362.5 272.802,-362.5 281.696,-362.5"/>
<polygon fill="midnightblue" stroke="midnightblue" points="281.751,-366 291.751,-362.5 281.751,-359 281.751,-366"/>
</g>
<!-- Node30&#45;&gt;Node5 -->
<g id="edge64" class="edge"><title>Node30&#45;&gt;Node5</title>
<path fill="none" stroke="midnightblue" d="M254.122,-293.657C308.872,-308.03 433.075,-342.8 532,-386.5 548.525,-393.8 566.205,-403.837 579.726,-412.031"/>
<polygon fill="midnightblue" stroke="midnightblue" points="578.008,-415.083 588.357,-417.352 581.682,-409.125 578.008,-415.083"/>
</g>
<!-- Node30&#45;&gt;Node8 -->
<g id="edge63" class="edge"><title>Node30&#45;&gt;Node8</title>
<path fill="none" stroke="midnightblue" d="M237.787,-295.718C243.36,-300.13 250.075,-305.524 256,-310.5 269.966,-322.23 285.421,-335.876 297.009,-346.246"/>
<polygon fill="midnightblue" stroke="midnightblue" points="294.908,-349.064 304.686,-353.143 299.586,-343.856 294.908,-349.064"/>
</g>
</g>
</svg>
        <g id="navigator" transform="translate(0 0)" fill="#404254">
                <rect fill="#f2f5e9" fill-opacity="0.5" stroke="#606060" stroke-width=".5" x="0" y="0" width="60" height="60"/>
                <use id="zoomplus" xlink:href="#zoomPlus" x="17" y="9" onmousedown="handleZoom(evt,'in')"/>
                <use id="zoomminus" xlink:href="#zoomMin" x="42" y="9" onmousedown="handleZoom(evt,'out')"/>
                <use id="reset" xlink:href="#resetDef" x="30" y="36" onmousedown="handleReset()"/>
                <g id="arrowUp" xlink:href="#dirArrow" transform="translate(30 24)" onmousedown="handlePan(0,-1)">
                  <use xlink:href="#rim" fill="#404040">
                        <set attributeName="fill" to="#808080" begin="arrowUp.mouseover" end="arrowUp.mouseout"/>
                  </use>
                  <path fill="none" stroke="white" stroke-width="1.5" d="M0,-3.0v7 M-2.5,-0.5L0,-3.0L2.5,-0.5"/>
                </g>
                <g id="arrowRight" xlink:href="#dirArrow" transform="rotate(90) translate(36 -43)" onmousedown="handlePan(1,0)">
                  <use xlink:href="#rim" fill="#404040">
                        <set attributeName="fill" to="#808080" begin="arrowRight.mouseover" end="arrowRight.mouseout"/>
                  </use>
                  <path fill="none" stroke="white" stroke-width="1.5" d="M0,-3.0v7 M-2.5,-0.5L0,-3.0L2.5,-0.5"/>
                </g>
                <g id="arrowDown" xlink:href="#dirArrow" transform="rotate(180) translate(-30 -48)" onmousedown="handlePan(0,1)">
                  <use xlink:href="#rim" fill="#404040">
                        <set attributeName="fill" to="#808080" begin="arrowDown.mouseover" end="arrowDown.mouseout"/>
                  </use>
                  <path fill="none" stroke="white" stroke-width="1.5" d="M0,-3.0v7 M-2.5,-0.5L0,-3.0L2.5,-0.5"/>
                </g>
                <g id="arrowLeft" xlink:href="#dirArrow" transform="rotate(270) translate(-36 17)" onmousedown="handlePan(-1,0)">
                  <use xlink:href="#rim" fill="#404040">
                        <set attributeName="fill" to="#808080" begin="arrowLeft.mouseover" end="arrowLeft.mouseout"/>
                  </use>
                  <path fill="none" stroke="white" stroke-width="1.5" d="M0,-3.0v7 M-2.5,-0.5L0,-3.0L2.5,-0.5"/>
                </g>
        </g>
        <svg viewBox="0 0 15 15" width="100%" height="30px" preserveAspectRatio="xMaxYMin meet">
         <g id="arrow_out" transform="scale(0.3 0.3)">
          <a xlink:href="main_8h_a454a7687c8039514766571b23516ca9c_cgraph_org.svg" target="_base">
           <rect id="button" ry="5" rx="5" y="6" x="6" height="38" width="38"
                fill="#f2f5e9" fill-opacity="0.5" stroke="#606060" stroke-width="1.0"/>
           <path id="arrow"
             d="M 11.500037,31.436501 C 11.940474,20.09759 22.043105,11.32322 32.158766,21.979434 L 37.068811,17.246167 C 37.068811,17.246167 37.088388,32 37.088388,32 L 22.160133,31.978069 C 22.160133,31.978069 26.997745,27.140456 26.997745,27.140456 C 18.528582,18.264221 13.291696,25.230495 11.500037,31.436501 z"
             style="fill:#404040;"/>
          </a>
         </g>
        </svg>
</svg>
