<?xml version="1.0" encoding="UTF-8" standalone="no"?>
<!DOCTYPE svg PUBLIC "-//W3C//DTD SVG 1.1//EN"
 "http://www.w3.org/Graphics/SVG/1.1/DTD/svg11.dtd">
<!-- Generated by graphviz version 2.38.0 (20140413.2041)
 -->
<!-- Title: show_reset Pages: 1 -->
<svg width="797pt" height="380pt"
 viewBox="0.00 0.00 797.00 380.13" xmlns="http://www.w3.org/2000/svg" xmlns:xlink="http://www.w3.org/1999/xlink">
<g id="graph0" class="graph" transform="scale(1 1) rotate(0) translate(4 376.134)">
<title>show_reset</title>
<!-- Node287 -->
<g id="node1" class="node"><title>Node287</title>
<polygon fill="#bfbfbf" stroke="black" points="0,-208.5 0,-226.5 64,-226.5 64,-208.5 0,-208.5"/>
<text text-anchor="middle" x="32" y="-215.3" font-family="Calibri" font-size="9.00">show_reset</text>
</g>
<!-- Node288 -->
<g id="node2" class="node"><title>Node288</title>
<g id="a_node2"><a xlink:href="main_8h.html#a9dff326a6079fe726285b11ee837ad60" target="_top" xlink:title="atu_reset">
<polygon fill="none" stroke="black" points="100,-301.5 100,-319.5 156,-319.5 156,-301.5 100,-301.5"/>
<text text-anchor="middle" x="128" y="-308.3" font-family="Calibri" font-size="9.00">atu_reset</text>
</a>
</g>
</g>
<!-- Node287&#45;&gt;Node288 -->
<g id="edge1" class="edge"><title>Node287&#45;&gt;Node288</title>
<path fill="none" stroke="midnightblue" d="M42.3567,-226.757C58.2632,-242.494 90.7703,-274.656 110.547,-294.222"/>
<polygon fill="midnightblue" stroke="midnightblue" points="108.111,-296.735 117.681,-301.28 113.034,-291.759 108.111,-296.735"/>
</g>
<!-- Node291 -->
<g id="node5" class="node"><title>Node291</title>
<g id="a_node5"><a xlink:href="main_8c.html#a6911b3f075cdf1d54cb14f17f6e5ef6b" target="_top" xlink:title="lcd_ind">
<polygon fill="none" stroke="black" points="308,-339.5 308,-357.5 355,-357.5 355,-339.5 308,-339.5"/>
<text text-anchor="middle" x="331.5" y="-346.3" font-family="Calibri" font-size="9.00">lcd_ind</text>
</a>
</g>
</g>
<!-- Node287&#45;&gt;Node291 -->
<g id="edge4" class="edge"><title>Node287&#45;&gt;Node291</title>
<path fill="none" stroke="midnightblue" d="M36.1966,-226.587C43.9499,-247.404 65.6806,-299.018 100,-328.5 156.426,-376.972 189.244,-376.165 263,-366.5 274.693,-364.968 287.241,-362.003 298.308,-358.914"/>
<polygon fill="midnightblue" stroke="midnightblue" points="299.374,-362.249 307.988,-356.081 297.408,-355.531 299.374,-362.249"/>
</g>
<!-- Node292 -->
<g id="node6" class="node"><title>Node292</title>
<g id="a_node6"><a xlink:href="oled__control_8c.html#a9d56c6c2e653b24a0caf505492ad818a" target="_top" xlink:title="led_wr_str">
<polygon fill="none" stroke="black" points="400,-152.5 400,-170.5 459,-170.5 459,-152.5 400,-152.5"/>
<text text-anchor="middle" x="429.5" y="-159.3" font-family="Calibri" font-size="9.00">led_wr_str</text>
</a>
</g>
</g>
<!-- Node287&#45;&gt;Node292 -->
<g id="edge37" class="edge"><title>Node287&#45;&gt;Node292</title>
<path fill="none" stroke="midnightblue" d="M45.3438,-208.338C71.0226,-189.901 132.748,-148.779 192,-133.5 266.028,-114.411 289.354,-114.99 364,-131.5 378.272,-134.657 393.135,-141.307 404.991,-147.546"/>
<polygon fill="midnightblue" stroke="midnightblue" points="403.337,-150.631 413.786,-152.387 406.713,-144.499 403.337,-150.631"/>
</g>
<!-- Node299 -->
<g id="node13" class="node"><title>Node299</title>
<g id="a_node13"><a xlink:href="main_8c.html#ae5a14b4884e85f47ad8a4a716f13203a" target="_top" xlink:title="lcd_pwr">
<polygon fill="none" stroke="black" points="104,-208.5 104,-226.5 152,-226.5 152,-208.5 104,-208.5"/>
<text text-anchor="middle" x="128" y="-215.3" font-family="Calibri" font-size="9.00">lcd_pwr</text>
</a>
</g>
</g>
<!-- Node287&#45;&gt;Node299 -->
<g id="edge17" class="edge"><title>Node287&#45;&gt;Node299</title>
<path fill="none" stroke="midnightblue" d="M64.0396,-217.5C73.5435,-217.5 84.0353,-217.5 93.6841,-217.5"/>
<polygon fill="midnightblue" stroke="midnightblue" points="93.7367,-221 103.737,-217.5 93.7367,-214 93.7367,-221"/>
</g>
<!-- Node309 -->
<g id="node23" class="node"><title>Node309</title>
<g id="a_node23"><a xlink:href="main_8h.html#ae0c1e0ec712704e43db40473f103d621" target="_top" xlink:title="Set the state of the switch. ">
<polygon fill="none" stroke="black" points="105.5,-0.5 105.5,-18.5 150.5,-18.5 150.5,-0.5 105.5,-0.5"/>
<text text-anchor="middle" x="128" y="-7.3" font-family="Calibri" font-size="9.00">set_sw</text>
</a>
</g>
</g>
<!-- Node287&#45;&gt;Node309 -->
<g id="edge38" class="edge"><title>Node287&#45;&gt;Node309</title>
<path fill="none" stroke="midnightblue" d="M34.6684,-208.345C40.131,-180.179 59.5026,-93.1185 100,-33.5 101.903,-30.6985 104.205,-28.011 106.652,-25.5141"/>
<polygon fill="midnightblue" stroke="midnightblue" points="109.133,-27.9884 114.178,-18.6716 104.424,-22.809 109.133,-27.9884"/>
</g>
<!-- Node289 -->
<g id="node3" class="node"><title>Node289</title>
<g id="a_node3"><a xlink:href="main_8h.html#a2a7963b9b09696c6654b96c67900c6ea" target="_top" xlink:title="set_cap">
<polygon fill="none" stroke="black" points="203.5,-301.5 203.5,-319.5 251.5,-319.5 251.5,-301.5 203.5,-301.5"/>
<text text-anchor="middle" x="227.5" y="-308.3" font-family="Calibri" font-size="9.00">set_cap</text>
</a>
</g>
</g>
<!-- Node288&#45;&gt;Node289 -->
<g id="edge2" class="edge"><title>Node288&#45;&gt;Node289</title>
<path fill="none" stroke="midnightblue" d="M156.159,-310.5C167.664,-310.5 181.18,-310.5 193.273,-310.5"/>
<polygon fill="midnightblue" stroke="midnightblue" points="193.448,-314 203.448,-310.5 193.448,-307 193.448,-314"/>
</g>
<!-- Node290 -->
<g id="node4" class="node"><title>Node290</title>
<g id="a_node4"><a xlink:href="main_8h.html#aecc83cd8bceb4bc24be844732ead2c2c" target="_top" xlink:title="set_ind">
<polygon fill="none" stroke="black" points="204,-338.5 204,-356.5 251,-356.5 251,-338.5 204,-338.5"/>
<text text-anchor="middle" x="227.5" y="-345.3" font-family="Calibri" font-size="9.00">set_ind</text>
</a>
</g>
</g>
<!-- Node288&#45;&gt;Node290 -->
<g id="edge3" class="edge"><title>Node288&#45;&gt;Node290</title>
<path fill="none" stroke="midnightblue" d="M153.101,-319.646C165.535,-324.364 180.871,-330.184 194.304,-335.282"/>
<polygon fill="midnightblue" stroke="midnightblue" points="193.09,-338.565 203.681,-338.84 195.573,-332.02 193.09,-338.565"/>
</g>
<!-- Node291&#45;&gt;Node292 -->
<g id="edge5" class="edge"><title>Node291&#45;&gt;Node292</title>
<path fill="none" stroke="midnightblue" d="M347.738,-339.42C353.443,-335.423 359.6,-330.309 364,-324.5 398.355,-279.145 416.931,-213.101 424.453,-180.776"/>
<polygon fill="midnightblue" stroke="midnightblue" points="427.908,-181.359 426.66,-170.838 421.075,-179.841 427.908,-181.359"/>
</g>
<!-- Node293 -->
<g id="node7" class="node"><title>Node293</title>
<g id="a_node7"><a xlink:href="oled__control_8c.html#a7c3a2e5f1fed76dc27692132a2574d27" target="_top" xlink:title="oled_wr_str">
<polygon fill="none" stroke="black" points="495,-152.5 495,-170.5 560,-170.5 560,-152.5 495,-152.5"/>
<text text-anchor="middle" x="527.5" y="-159.3" font-family="Calibri" font-size="9.00">oled_wr_str</text>
</a>
</g>
</g>
<!-- Node292&#45;&gt;Node293 -->
<g id="edge6" class="edge"><title>Node292&#45;&gt;Node293</title>
<path fill="none" stroke="midnightblue" d="M459.043,-161.5C467.147,-161.5 476.142,-161.5 484.852,-161.5"/>
<polygon fill="midnightblue" stroke="midnightblue" points="484.877,-165 494.877,-161.5 484.877,-158 484.877,-165"/>
</g>
<!-- Node298 -->
<g id="node12" class="node"><title>Node298</title>
<g id="a_node12"><a xlink:href="oled__control_8c.html#ad25764a33e482f4e9db2701198e02551" target="_top" xlink:title="led_send">
<polygon fill="none" stroke="black" points="609,-113.5 609,-131.5 664,-131.5 664,-113.5 609,-113.5"/>
<text text-anchor="middle" x="636.5" y="-120.3" font-family="Calibri" font-size="9.00">led_send</text>
</a>
</g>
</g>
<!-- Node292&#45;&gt;Node298 -->
<g id="edge13" class="edge"><title>Node292&#45;&gt;Node298</title>
<path fill="none" stroke="midnightblue" d="M457.894,-152.475C469.275,-148.976 482.68,-145.177 495,-142.5 529.799,-134.94 570.09,-129.541 598.579,-126.273"/>
<polygon fill="midnightblue" stroke="midnightblue" points="599.332,-129.711 608.883,-125.125 598.557,-122.754 599.332,-129.711"/>
</g>
<!-- Node294 -->
<g id="node8" class="node"><title>Node294</title>
<g id="a_node8"><a xlink:href="oled__control_8c.html#ab7f6b5c6c1483f6286f2de5786c028d9" target="_top" xlink:title="Soft_I2C_Start">
<polygon fill="none" stroke="black" points="715,-123.5 715,-141.5 787,-141.5 787,-123.5 715,-123.5"/>
<text text-anchor="middle" x="751" y="-130.3" font-family="Calibri" font-size="9.00">Soft_I2C_Start</text>
</a>
</g>
</g>
<!-- Node293&#45;&gt;Node294 -->
<g id="edge7" class="edge"><title>Node293&#45;&gt;Node294</title>
<path fill="none" stroke="midnightblue" d="M560.236,-157.345C598.11,-152.386 661.71,-144.059 704.734,-138.426"/>
<polygon fill="midnightblue" stroke="midnightblue" points="705.201,-141.895 714.662,-137.127 704.292,-134.955 705.201,-141.895"/>
</g>
<!-- Node295 -->
<g id="node9" class="node"><title>Node295</title>
<g id="a_node9"><a xlink:href="oled__control_8c.html#a73610916645f17c19124e697b005f694" target="_top" xlink:title="Soft_I2C_Write">
<polygon fill="none" stroke="black" points="713,-179.5 713,-197.5 789,-197.5 789,-179.5 713,-179.5"/>
<text text-anchor="middle" x="751" y="-186.3" font-family="Calibri" font-size="9.00">Soft_I2C_Write</text>
</a>
</g>
</g>
<!-- Node293&#45;&gt;Node295 -->
<g id="edge8" class="edge"><title>Node293&#45;&gt;Node295</title>
<path fill="none" stroke="midnightblue" d="M536.037,-170.752C547.408,-183.893 570.365,-207.378 596,-216.5 638.738,-231.707 691.222,-215.176 722.568,-201.832"/>
<polygon fill="midnightblue" stroke="midnightblue" points="724.247,-204.916 731.963,-197.656 721.404,-198.519 724.247,-204.916"/>
</g>
<!-- Node296 -->
<g id="node10" class="node"><title>Node296</title>
<g id="a_node10"><a xlink:href="oled__control_8c.html#a6df77e8ec83c50ed6a5ddaf54aa3a9c2" target="_top" xlink:title="set_addressing">
<polygon fill="none" stroke="black" points="596.5,-189.5 596.5,-207.5 676.5,-207.5 676.5,-189.5 596.5,-189.5"/>
<text text-anchor="middle" x="636.5" y="-196.3" font-family="Calibri" font-size="9.00">set_addressing</text>
</a>
</g>
</g>
<!-- Node293&#45;&gt;Node296 -->
<g id="edge9" class="edge"><title>Node293&#45;&gt;Node296</title>
<path fill="none" stroke="midnightblue" d="M554.675,-170.551C568.147,-175.21 584.779,-180.961 599.447,-186.033"/>
<polygon fill="midnightblue" stroke="midnightblue" points="598.629,-189.454 609.224,-189.414 600.917,-182.838 598.629,-189.454"/>
</g>
<!-- Node297 -->
<g id="node11" class="node"><title>Node297</title>
<g id="a_node11"><a xlink:href="oled__control_8c.html#a16eb842aa672ca44820ae6d5f9933425" target="_top" xlink:title="Soft_I2C_Stop">
<polygon fill="none" stroke="black" points="715.5,-76.5 715.5,-94.5 786.5,-94.5 786.5,-76.5 715.5,-76.5"/>
<text text-anchor="middle" x="751" y="-83.3" font-family="Calibri" font-size="9.00">Soft_I2C_Stop</text>
</a>
</g>
</g>
<!-- Node293&#45;&gt;Node297 -->
<g id="edge12" class="edge"><title>Node293&#45;&gt;Node297</title>
<path fill="none" stroke="midnightblue" d="M533.635,-152.182C546,-130.136 577.752,-75.9196 596,-66.5 635.916,-45.8954 689.171,-60.1944 721.452,-72.669"/>
<polygon fill="midnightblue" stroke="midnightblue" points="720.177,-75.9286 730.759,-76.4412 722.806,-69.4412 720.177,-75.9286"/>
</g>
<!-- Node296&#45;&gt;Node294 -->
<g id="edge10" class="edge"><title>Node296&#45;&gt;Node294</title>
<path fill="none" stroke="midnightblue" d="M653.143,-189.323C671.949,-178.29 703.724,-159.649 725.726,-146.741"/>
<polygon fill="midnightblue" stroke="midnightblue" points="727.636,-149.678 734.49,-141.599 724.094,-143.64 727.636,-149.678"/>
</g>
<!-- Node296&#45;&gt;Node295 -->
<g id="edge11" class="edge"><title>Node296&#45;&gt;Node295</title>
<path fill="none" stroke="midnightblue" d="M676.531,-195.031C685.015,-194.276 694.078,-193.471 702.838,-192.692"/>
<polygon fill="midnightblue" stroke="midnightblue" points="703.28,-196.167 712.931,-191.795 702.66,-189.194 703.28,-196.167"/>
</g>
<!-- Node298&#45;&gt;Node294 -->
<g id="edge14" class="edge"><title>Node298&#45;&gt;Node294</title>
<path fill="none" stroke="midnightblue" d="M664.161,-124.87C676.173,-125.938 690.703,-127.229 704.365,-128.444"/>
<polygon fill="midnightblue" stroke="midnightblue" points="704.317,-131.953 714.588,-129.352 704.937,-124.98 704.317,-131.953"/>
</g>
<!-- Node298&#45;&gt;Node295 -->
<g id="edge15" class="edge"><title>Node298&#45;&gt;Node295</title>
<path fill="none" stroke="midnightblue" d="M653.143,-131.677C671.949,-142.71 703.724,-161.351 725.726,-174.259"/>
<polygon fill="midnightblue" stroke="midnightblue" points="724.094,-177.36 734.49,-179.401 727.636,-171.322 724.094,-177.36"/>
</g>
<!-- Node298&#45;&gt;Node297 -->
<g id="edge16" class="edge"><title>Node298&#45;&gt;Node297</title>
<path fill="none" stroke="midnightblue" d="M664.161,-113.732C678.689,-108.953 696.899,-102.964 712.804,-97.7334"/>
<polygon fill="midnightblue" stroke="midnightblue" points="713.95,-101.041 722.356,-94.5919 711.763,-94.3915 713.95,-101.041"/>
</g>
<!-- Node299&#45;&gt;Node289 -->
<g id="edge32" class="edge"><title>Node299&#45;&gt;Node289</title>
<path fill="none" stroke="midnightblue" d="M135.101,-226.622C145.446,-241.585 167.686,-271.658 192,-291.5 193.993,-293.127 196.146,-294.686 198.368,-296.161"/>
<polygon fill="midnightblue" stroke="midnightblue" points="196.719,-299.254 207.092,-301.411 200.328,-293.256 196.719,-299.254"/>
</g>
<!-- Node299&#45;&gt;Node290 -->
<g id="edge33" class="edge"><title>Node299&#45;&gt;Node290</title>
<path fill="none" stroke="midnightblue" d="M132.198,-226.641C139.75,-247.129 160.463,-297.365 192,-328.5 193.46,-329.941 195.051,-331.306 196.723,-332.591"/>
<polygon fill="midnightblue" stroke="midnightblue" points="195.239,-335.803 205.522,-338.356 199.076,-329.948 195.239,-335.803"/>
</g>
<!-- Node299&#45;&gt;Node292 -->
<g id="edge31" class="edge"><title>Node299&#45;&gt;Node292</title>
<path fill="none" stroke="midnightblue" d="M136.453,-208.235C147.257,-195.495 168.558,-172.858 192,-161.5 261.213,-127.965 287.878,-131.521 364,-142.5 373.947,-143.935 384.499,-146.553 394.123,-149.397"/>
<polygon fill="midnightblue" stroke="midnightblue" points="393.165,-152.764 403.753,-152.402 395.25,-146.082 393.165,-152.764"/>
</g>
<!-- Node300 -->
<g id="node14" class="node"><title>Node300</title>
<g id="a_node14"><a xlink:href="main_8c.html#a593218c5fe00b499d494826fc0aa5279" target="_top" xlink:title="button_delay">
<polygon fill="none" stroke="black" points="192,-264.5 192,-282.5 263,-282.5 263,-264.5 192,-264.5"/>
<text text-anchor="middle" x="227.5" y="-271.3" font-family="Calibri" font-size="9.00">button_delay</text>
</a>
</g>
</g>
<!-- Node299&#45;&gt;Node300 -->
<g id="edge18" class="edge"><title>Node299&#45;&gt;Node300</title>
<path fill="none" stroke="midnightblue" d="M144.208,-226.59C156.926,-234.154 175.572,-245.155 192,-254.5 194.853,-256.123 197.849,-257.805 200.834,-259.468"/>
<polygon fill="midnightblue" stroke="midnightblue" points="199.157,-262.54 209.602,-264.315 202.544,-256.414 199.157,-262.54"/>
</g>
<!-- Node301 -->
<g id="node15" class="node"><title>Node301</title>
<g id="a_node15"><a xlink:href="oled__control_8c.html#a2c663a2db505aa3f2271f6cf4bae1521" target="_top" xlink:title="dysp_on">
<polygon fill="none" stroke="black" points="502.5,-76.5 502.5,-94.5 552.5,-94.5 552.5,-76.5 502.5,-76.5"/>
<text text-anchor="middle" x="527.5" y="-83.3" font-family="Calibri" font-size="9.00">dysp_on</text>
</a>
</g>
</g>
<!-- Node299&#45;&gt;Node301 -->
<g id="edge19" class="edge"><title>Node299&#45;&gt;Node301</title>
<path fill="none" stroke="midnightblue" d="M134.658,-208.236C146.983,-188.376 176.396,-142.746 192,-133.5 288.618,-76.2509 427.775,-77.7799 491.83,-82.1938"/>
<polygon fill="midnightblue" stroke="midnightblue" points="491.934,-85.7117 502.17,-82.978 492.464,-78.7317 491.934,-85.7117"/>
</g>
<!-- Node303 -->
<g id="node17" class="node"><title>Node303</title>
<g id="a_node17"><a xlink:href="main_8h.html#ab37ca657b79c6b9176cb63e9d812a182" target="_top" xlink:title="get_pwr">
<polygon fill="none" stroke="black" points="203,-190.5 203,-208.5 252,-208.5 252,-190.5 203,-190.5"/>
<text text-anchor="middle" x="227.5" y="-197.3" font-family="Calibri" font-size="9.00">get_pwr</text>
</a>
</g>
</g>
<!-- Node299&#45;&gt;Node303 -->
<g id="edge25" class="edge"><title>Node299&#45;&gt;Node303</title>
<path fill="none" stroke="midnightblue" d="M152.106,-213.234C164.312,-210.981 179.516,-208.174 192.992,-205.686"/>
<polygon fill="midnightblue" stroke="midnightblue" points="193.684,-209.118 202.882,-203.86 192.413,-202.234 193.684,-209.118"/>
</g>
<!-- Node307 -->
<g id="node21" class="node"><title>Node307</title>
<g id="a_node21"><a xlink:href="main_8c.html#aa8fd50019a763561abc6621bb224417f" target="_top" xlink:title="lcd_swr">
<polygon fill="none" stroke="black" points="308,-152.5 308,-170.5 355,-170.5 355,-152.5 308,-152.5"/>
<text text-anchor="middle" x="331.5" y="-159.3" font-family="Calibri" font-size="9.00">lcd_swr</text>
</a>
</g>
</g>
<!-- Node299&#45;&gt;Node307 -->
<g id="edge29" class="edge"><title>Node299&#45;&gt;Node307</title>
<path fill="none" stroke="midnightblue" d="M141.304,-208.271C153.504,-199.62 173.064,-187.064 192,-180.5 226.771,-168.447 268.941,-164.006 297.546,-162.389"/>
<polygon fill="midnightblue" stroke="midnightblue" points="297.981,-165.872 307.802,-161.897 297.646,-158.88 297.981,-165.872"/>
</g>
<!-- Node308 -->
<g id="node22" class="node"><title>Node308</title>
<g id="a_node22"><a xlink:href="main_8c.html#a4ae0d4fa97fc0ca3611813fee4f9af7c" target="_top" xlink:title="show_pwr">
<polygon fill="none" stroke="black" points="198.5,-227.5 198.5,-245.5 256.5,-245.5 256.5,-227.5 198.5,-227.5"/>
<text text-anchor="middle" x="227.5" y="-234.3" font-family="Calibri" font-size="9.00">show_pwr</text>
</a>
</g>
</g>
<!-- Node299&#45;&gt;Node308 -->
<g id="edge34" class="edge"><title>Node299&#45;&gt;Node308</title>
<path fill="none" stroke="midnightblue" d="M152.106,-222.003C162.929,-224.112 176.109,-226.68 188.351,-229.066"/>
<polygon fill="midnightblue" stroke="midnightblue" points="187.857,-232.535 198.342,-231.013 189.196,-225.665 187.857,-232.535"/>
</g>
<!-- Node301&#45;&gt;Node298 -->
<g id="edge24" class="edge"><title>Node301&#45;&gt;Node298</title>
<path fill="none" stroke="midnightblue" d="M552.513,-93.8035C566.362,-98.5924 584.045,-104.707 599.526,-110.06"/>
<polygon fill="midnightblue" stroke="midnightblue" points="598.725,-113.487 609.32,-113.447 601.012,-106.871 598.725,-113.487"/>
</g>
<!-- Node302 -->
<g id="node16" class="node"><title>Node302</title>
<g id="a_node16"><a xlink:href="oled__control_8c.html#ad141ed038278a6fcad6c307932f01ec8" target="_top" xlink:title="send_command">
<polygon fill="none" stroke="black" points="596,-76.5 596,-94.5 677,-94.5 677,-76.5 596,-76.5"/>
<text text-anchor="middle" x="636.5" y="-83.3" font-family="Calibri" font-size="9.00">send_command</text>
</a>
</g>
</g>
<!-- Node301&#45;&gt;Node302 -->
<g id="edge20" class="edge"><title>Node301&#45;&gt;Node302</title>
<path fill="none" stroke="midnightblue" d="M552.513,-85.5C562.33,-85.5 574.073,-85.5 585.594,-85.5"/>
<polygon fill="midnightblue" stroke="midnightblue" points="585.606,-89.0001 595.606,-85.5 585.606,-82.0001 585.606,-89.0001"/>
</g>
<!-- Node302&#45;&gt;Node294 -->
<g id="edge21" class="edge"><title>Node302&#45;&gt;Node294</title>
<path fill="none" stroke="midnightblue" d="M659.191,-94.5621C676.155,-101.649 699.966,-111.597 718.95,-119.528"/>
<polygon fill="midnightblue" stroke="midnightblue" points="717.799,-122.84 728.375,-123.466 720.498,-116.381 717.799,-122.84"/>
</g>
<!-- Node302&#45;&gt;Node295 -->
<g id="edge22" class="edge"><title>Node302&#45;&gt;Node295</title>
<path fill="none" stroke="midnightblue" d="M662.391,-94.5907C667.496,-97.0572 672.637,-100.027 677,-103.5 697.585,-119.889 695.792,-130.595 713,-150.5 719.406,-157.91 726.877,-165.723 733.421,-172.325"/>
<polygon fill="midnightblue" stroke="midnightblue" points="731,-174.853 740.559,-179.421 735.935,-169.889 731,-174.853"/>
</g>
<!-- Node302&#45;&gt;Node297 -->
<g id="edge23" class="edge"><title>Node302&#45;&gt;Node297</title>
<path fill="none" stroke="midnightblue" d="M677.163,-85.5C686.172,-85.5 695.804,-85.5 705.016,-85.5"/>
<polygon fill="midnightblue" stroke="midnightblue" points="705.182,-89.0001 715.182,-85.5 705.182,-82.0001 705.182,-89.0001"/>
</g>
<!-- Node304 -->
<g id="node18" class="node"><title>Node304</title>
<g id="a_node18"><a xlink:href="main_8h.html#ab19e6e081315a9a200394b74d10de395" target="_top" xlink:title="correction">
<polygon fill="none" stroke="black" points="303,-263.5 303,-281.5 360,-281.5 360,-263.5 303,-263.5"/>
<text text-anchor="middle" x="331.5" y="-270.3" font-family="Calibri" font-size="9.00">correction</text>
</a>
</g>
</g>
<!-- Node303&#45;&gt;Node304 -->
<g id="edge26" class="edge"><title>Node303&#45;&gt;Node304</title>
<path fill="none" stroke="midnightblue" d="M248.459,-208.6C253.389,-211.197 258.534,-214.222 263,-217.5 281.242,-230.888 281.181,-239.554 299,-253.5 300.839,-254.939 302.795,-256.355 304.797,-257.724"/>
<polygon fill="midnightblue" stroke="midnightblue" points="303.337,-260.944 313.652,-263.363 307.097,-255.039 303.337,-260.944"/>
</g>
<!-- Node305 -->
<g id="node19" class="node"><title>Node305</title>
<g id="a_node19"><a xlink:href="main_8h.html#acfd46f8711e9c1c20fffdfc8bdaa0ddd" target="_top" xlink:title="get_forward">
<polygon fill="none" stroke="black" points="299,-226.5 299,-244.5 364,-244.5 364,-226.5 299,-226.5"/>
<text text-anchor="middle" x="331.5" y="-233.3" font-family="Calibri" font-size="9.00">get_forward</text>
</a>
</g>
</g>
<!-- Node303&#45;&gt;Node305 -->
<g id="edge27" class="edge"><title>Node303&#45;&gt;Node305</title>
<path fill="none" stroke="midnightblue" d="M252.157,-207.85C264.972,-212.373 281.057,-218.05 295.313,-223.081"/>
<polygon fill="midnightblue" stroke="midnightblue" points="294.232,-226.411 304.827,-226.439 296.562,-219.81 294.232,-226.411"/>
</g>
<!-- Node306 -->
<g id="node20" class="node"><title>Node306</title>
<g id="a_node20"><a xlink:href="main_8h.html#aa6b9a2b3d88f578ba6a9fefd911eae75" target="_top" xlink:title="get_reverse">
<polygon fill="none" stroke="black" points="299.5,-189.5 299.5,-207.5 363.5,-207.5 363.5,-189.5 299.5,-189.5"/>
<text text-anchor="middle" x="331.5" y="-196.3" font-family="Calibri" font-size="9.00">get_reverse</text>
</a>
</g>
</g>
<!-- Node303&#45;&gt;Node306 -->
<g id="edge28" class="edge"><title>Node303&#45;&gt;Node306</title>
<path fill="none" stroke="midnightblue" d="M252.157,-199.268C263.1,-199.161 276.427,-199.03 288.963,-198.907"/>
<polygon fill="midnightblue" stroke="midnightblue" points="289.273,-202.404 299.238,-198.806 289.204,-195.405 289.273,-202.404"/>
</g>
<!-- Node307&#45;&gt;Node292 -->
<g id="edge30" class="edge"><title>Node307&#45;&gt;Node292</title>
<path fill="none" stroke="midnightblue" d="M355.251,-161.5C365.543,-161.5 378,-161.5 389.7,-161.5"/>
<polygon fill="midnightblue" stroke="midnightblue" points="389.713,-165 399.713,-161.5 389.713,-158 389.713,-165"/>
</g>
<!-- Node308&#45;&gt;Node291 -->
<g id="edge35" class="edge"><title>Node308&#45;&gt;Node291</title>
<path fill="none" stroke="midnightblue" d="M251.033,-245.683C255.341,-248.117 259.571,-251.05 263,-254.5 287.665,-279.31 276.533,-297.683 299,-324.5 301.608,-327.613 304.689,-330.567 307.886,-333.269"/>
<polygon fill="midnightblue" stroke="midnightblue" points="305.811,-336.089 315.87,-339.417 310.082,-330.543 305.811,-336.089"/>
</g>
<!-- Node308&#45;&gt;Node292 -->
<g id="edge36" class="edge"><title>Node308&#45;&gt;Node292</title>
<path fill="none" stroke="midnightblue" d="M248.459,-245.6C253.389,-248.197 258.534,-251.222 263,-254.5 281.242,-267.888 278.095,-281.841 299,-290.5 325.69,-301.555 339.426,-305.688 364,-290.5 403.285,-266.221 419.443,-209.967 425.407,-180.414"/>
<polygon fill="midnightblue" stroke="midnightblue" points="428.86,-180.984 427.22,-170.517 421.975,-179.722 428.86,-180.984"/>
</g>
</g>
</svg>
