<?xml version="1.0" encoding="UTF-8" standalone="no"?>
<!DOCTYPE svg PUBLIC "-//W3C//DTD SVG 1.1//EN"
 "http://www.w3.org/Graphics/SVG/1.1/DTD/svg11.dtd">
<!-- Generated by graphviz version 2.38.0 (20140413.2041)
 -->
<!-- Title: set_ind Pages: 1 -->
<svg width="229pt" height="140pt"
 viewBox="0.00 0.00 229.00 140.00" xmlns="http://www.w3.org/2000/svg" xmlns:xlink="http://www.w3.org/1999/xlink">
<g id="graph0" class="graph" transform="scale(1 1) rotate(0) translate(4 136)">
<title>set_ind</title>
<!-- Node333 -->
<g id="node1" class="node"><title>Node333</title>
<polygon fill="#bfbfbf" stroke="black" points="0,-56.5 0,-74.5 47,-74.5 47,-56.5 0,-56.5"/>
<text text-anchor="middle" x="23.5" y="-63.3" font-family="Calibri" font-size="9.00">set_ind</text>
</g>
<!-- Node334 -->
<g id="node2" class="node"><title>Node334</title>
<g id="a_node2"><a xlink:href="main__main_8h.html#a9dff326a6079fe726285b11ee837ad60" target="_top" xlink:title="atu_reset">
<polygon fill="none" stroke="black" points="88.5,-113.5 88.5,-131.5 144.5,-131.5 144.5,-113.5 88.5,-113.5"/>
<text text-anchor="middle" x="116.5" y="-120.3" font-family="Calibri" font-size="9.00">atu_reset</text>
</a>
</g>
</g>
<!-- Node333&#45;&gt;Node334 -->
<g id="edge1" class="edge"><title>Node333&#45;&gt;Node334</title>
<path fill="none" stroke="midnightblue" d="M47.7937,-80.0906C64.5389,-90.5793 86.6004,-104.398 100.916,-113.365"/>
<polygon fill="midnightblue" stroke="midnightblue" points="49.4534,-77.0003 39.1207,-74.658 45.7375,-82.9326 49.4534,-77.0003"/>
</g>
<!-- Node335 -->
<g id="node3" class="node"><title>Node335</title>
<g id="a_node3"><a xlink:href="main__main_8h.html#a1849f2e5bd63d11a7b9549470e287d17" target="_top" xlink:title="tune">
<polygon fill="none" stroke="black" points="186,-56.5 186,-74.5 221,-74.5 221,-56.5 186,-56.5"/>
<text text-anchor="middle" x="203.5" y="-63.3" font-family="Calibri" font-size="9.00">tune</text>
</a>
</g>
</g>
<!-- Node333&#45;&gt;Node335 -->
<g id="edge7" class="edge"><title>Node333&#45;&gt;Node335</title>
<path fill="none" stroke="midnightblue" d="M57.1146,-65.5C95.184,-65.5 156.655,-65.5 185.949,-65.5"/>
<polygon fill="midnightblue" stroke="midnightblue" points="57.0439,-62.0001 47.0438,-65.5 57.0438,-69.0001 57.0439,-62.0001"/>
</g>
<!-- Node336 -->
<g id="node4" class="node"><title>Node336</title>
<g id="a_node4"><a xlink:href="main__main_8h.html#a5c7c60c7d70cf76cc52e87722bb0f614" target="_top" xlink:title="coarse_tune">
<polygon fill="none" stroke="black" points="83,-37.5 83,-55.5 150,-55.5 150,-37.5 83,-37.5"/>
<text text-anchor="middle" x="116.5" y="-44.3" font-family="Calibri" font-size="9.00">coarse_tune</text>
</a>
</g>
</g>
<!-- Node333&#45;&gt;Node336 -->
<g id="edge3" class="edge"><title>Node333&#45;&gt;Node336</title>
<path fill="none" stroke="midnightblue" d="M57.2553,-58.661C65.6055,-56.9175 74.5786,-55.044 82.92,-53.3024"/>
<polygon fill="midnightblue" stroke="midnightblue" points="56.5367,-55.2355 47.4631,-60.7055 57.9674,-62.0877 56.5367,-55.2355"/>
</g>
<!-- Node337 -->
<g id="node5" class="node"><title>Node337</title>
<g id="a_node5"><a xlink:href="main__main_8h.html#a72210b3ed1d5691c5bbda8c7f1e97197" target="_top" xlink:title="sharp_ind">
<polygon fill="none" stroke="black" points="87.5,-0.5 87.5,-18.5 145.5,-18.5 145.5,-0.5 87.5,-0.5"/>
<text text-anchor="middle" x="116.5" y="-7.3" font-family="Calibri" font-size="9.00">sharp_ind</text>
</a>
</g>
</g>
<!-- Node333&#45;&gt;Node337 -->
<g id="edge5" class="edge"><title>Node333&#45;&gt;Node337</title>
<path fill="none" stroke="midnightblue" d="M47.2705,-50.8391C58.0474,-43.9671 71.1289,-35.7211 83,-28.5 88.3605,-25.2392 94.271,-21.7522 99.5651,-18.6671"/>
<polygon fill="midnightblue" stroke="midnightblue" points="45.3737,-47.8976 38.8372,-56.2358 49.1468,-53.7938 45.3737,-47.8976"/>
</g>
<!-- Node334&#45;&gt;Node335 -->
<g id="edge2" class="edge"><title>Node334&#45;&gt;Node335</title>
<path fill="none" stroke="midnightblue" d="M139.694,-107.617C155.28,-97.1652 175.63,-83.5189 188.877,-74.6353"/>
<polygon fill="midnightblue" stroke="midnightblue" points="137.513,-104.865 131.157,-113.342 141.412,-110.679 137.513,-104.865"/>
</g>
<!-- Node336&#45;&gt;Node335 -->
<g id="edge4" class="edge"><title>Node336&#45;&gt;Node335</title>
<path fill="none" stroke="midnightblue" d="M159.982,-55.9959C169.145,-58.0441 178.309,-60.0925 185.77,-61.7604"/>
<polygon fill="midnightblue" stroke="midnightblue" points="160.643,-52.5574 150.12,-53.7916 159.116,-59.3888 160.643,-52.5574"/>
</g>
<!-- Node337&#45;&gt;Node335 -->
<g id="edge6" class="edge"><title>Node337&#45;&gt;Node335</title>
<path fill="none" stroke="midnightblue" d="M142.299,-23.7031C144.918,-25.2906 147.526,-26.9092 150,-28.5 164.068,-37.5467 179.675,-48.6947 190.187,-56.3756"/>
<polygon fill="midnightblue" stroke="midnightblue" points="143.92,-20.5956 133.532,-18.5114 140.353,-26.6186 143.92,-20.5956"/>
</g>
</g>
</svg>
