<?xml version="1.0" encoding="UTF-8" standalone="no"?>
<!DOCTYPE svg PUBLIC "-//W3C//DTD SVG 1.1//EN"
 "http://www.w3.org/Graphics/SVG/1.1/DTD/svg11.dtd">
<!-- Generated by graphviz version 2.38.0 (20140413.2041)
 -->
<!-- Title: tune Pages: 1 -->
<svg width="947pt" height="633pt"
 viewBox="0.00 0.00 947.00 633.00" xmlns="http://www.w3.org/2000/svg" xmlns:xlink="http://www.w3.org/1999/xlink">
<g id="graph0" class="graph" transform="scale(1 1) rotate(0) translate(4 629)">
<title>tune</title>
<!-- Node1 -->
<g id="node1" class="node"><title>Node1</title>
<g id="a_node1"><a xlink:title=" ">
<polygon fill="#bfbfbf" stroke="black" points="0,-160 0,-178 35,-178 35,-160 0,-160"/>
<text text-anchor="middle" x="17.5" y="-166.8" font-family="Calibri" font-size="9.00">tune</text>
</a>
</g>
</g>
<!-- Node2 -->
<g id="node2" class="node"><title>Node2</title>
<g id="a_node2"><a xlink:href="main_8h.html#a9dff326a6079fe726285b11ee837ad60" target="_top" xlink:title=" ">
<polygon fill="none" stroke="black" points="547,-540 547,-558 603,-558 603,-540 547,-540"/>
<text text-anchor="middle" x="575" y="-546.8" font-family="Calibri" font-size="9.00">atu_reset</text>
</a>
</g>
</g>
<!-- Node1&#45;&gt;Node2 -->
<g id="edge1" class="edge"><title>Node1&#45;&gt;Node2</title>
<path fill="none" stroke="midnightblue" d="M19.9103,-178.109C30.1087,-242.377 95.0031,-625 194.5,-625 194.5,-625 194.5,-625 297,-625 390.773,-625 496.244,-583.993 545.63,-562.223"/>
<polygon fill="midnightblue" stroke="midnightblue" points="547.322,-565.3 555.016,-558.017 544.459,-558.912 547.322,-565.3"/>
</g>
<!-- Node5 -->
<g id="node5" class="node"><title>Node5</title>
<g id="a_node5"><a xlink:href="main_8h.html#ad7eb7423e0b17ccfba1ae42f3a3274e0" target="_top" xlink:title=" ">
<polygon fill="none" stroke="black" points="363,-236 363,-254 411,-254 411,-236 363,-236"/>
<text text-anchor="middle" x="387" y="-242.8" font-family="Calibri" font-size="9.00">get_swr</text>
</a>
</g>
</g>
<!-- Node1&#45;&gt;Node5 -->
<g id="edge4" class="edge"><title>Node1&#45;&gt;Node5</title>
<path fill="none" stroke="midnightblue" d="M35.3195,-168.596C56.5309,-168.287 94.0886,-168.405 126,-172 216.513,-182.196 241.538,-180.493 327,-212 339.776,-216.71 353.089,-223.928 363.829,-230.414"/>
<polygon fill="midnightblue" stroke="midnightblue" points="362.19,-233.517 372.526,-235.844 365.897,-227.579 362.19,-233.517"/>
</g>
<!-- Node11 -->
<g id="node11" class="node"><title>Node11</title>
<g id="a_node11"><a xlink:href="main_8c.html#a6911b3f075cdf1d54cb14f17f6e5ef6b" target="_top" xlink:title=" ">
<polygon fill="none" stroke="black" points="763,-77 763,-95 810,-95 810,-77 763,-77"/>
<text text-anchor="middle" x="786.5" y="-83.8" font-family="Calibri" font-size="9.00">lcd_ind</text>
</a>
</g>
</g>
<!-- Node1&#45;&gt;Node11 -->
<g id="edge37" class="edge"><title>Node1&#45;&gt;Node11</title>
<path fill="none" stroke="midnightblue" d="M22.4336,-159.914C38.3084,-124.811 101.305,-0 194.5,-0 194.5,-0 194.5,-0 576,-0 649.94,-0 728.304,-46.4112 764.69,-71.0445"/>
<polygon fill="midnightblue" stroke="midnightblue" points="762.792,-73.9874 773.008,-76.7965 766.773,-68.23 762.792,-73.9874"/>
</g>
<!-- Node24 -->
<g id="node24" class="node"><title>Node24</title>
<g id="a_node24"><a xlink:href="main_8h.html#ab518a3d2c723f12d3af3024a195606ce" target="_top" xlink:title=" ">
<polygon fill="none" stroke="black" points="166,-236 166,-254 225,-254 225,-236 166,-236"/>
<text text-anchor="middle" x="195.5" y="-242.8" font-family="Calibri" font-size="9.00">sharp_cap</text>
</a>
</g>
</g>
<!-- Node1&#45;&gt;Node24 -->
<g id="edge38" class="edge"><title>Node1&#45;&gt;Node24</title>
<path fill="none" stroke="midnightblue" d="M35.0577,-176.15C64.5933,-188.904 126.767,-215.751 164.15,-231.895"/>
<polygon fill="midnightblue" stroke="midnightblue" points="162.97,-235.197 173.538,-235.948 165.745,-228.77 162.97,-235.197"/>
</g>
<!-- Node25 -->
<g id="node25" class="node"><title>Node25</title>
<g id="a_node25"><a xlink:href="main_8h.html#a72210b3ed1d5691c5bbda8c7f1e97197" target="_top" xlink:title=" ">
<polygon fill="none" stroke="black" points="267,-274 267,-292 325,-292 325,-274 267,-274"/>
<text text-anchor="middle" x="296" y="-280.8" font-family="Calibri" font-size="9.00">sharp_ind</text>
</a>
</g>
</g>
<!-- Node1&#45;&gt;Node25 -->
<g id="edge41" class="edge"><title>Node1&#45;&gt;Node25</title>
<path fill="none" stroke="midnightblue" d="M35.1794,-170.578C72.3003,-174.693 163.613,-188.188 229,-226 248.103,-237.047 266.847,-253.991 279.449,-266.537"/>
<polygon fill="midnightblue" stroke="midnightblue" points="276.954,-268.991 286.45,-273.688 281.955,-264.094 276.954,-268.991"/>
</g>
<!-- Node26 -->
<g id="node26" class="node"><title>Node26</title>
<g id="a_node26"><a xlink:href="main_8h.html#a454a7687c8039514766571b23516ca9c" target="_top" xlink:title=" ">
<polygon fill="none" stroke="black" points="71,-274 71,-292 126,-292 126,-274 71,-274"/>
<text text-anchor="middle" x="98.5" y="-280.8" font-family="Calibri" font-size="9.00">sub_tune</text>
</a>
</g>
</g>
<!-- Node1&#45;&gt;Node26 -->
<g id="edge44" class="edge"><title>Node1&#45;&gt;Node26</title>
<path fill="none" stroke="midnightblue" d="M24.9649,-178.329C38.1661,-197.379 68.4035,-241.013 85.3748,-265.503"/>
<polygon fill="midnightblue" stroke="midnightblue" points="82.5939,-267.635 91.1666,-273.861 88.3474,-263.648 82.5939,-267.635"/>
</g>
<!-- Node3 -->
<g id="node3" class="node"><title>Node3</title>
<g id="a_node3"><a xlink:href="main_8h.html#a2a7963b9b09696c6654b96c67900c6ea" target="_top" xlink:title=" ">
<polygon fill="none" stroke="black" points="650.5,-483 650.5,-501 698.5,-501 698.5,-483 650.5,-483"/>
<text text-anchor="middle" x="674.5" y="-489.8" font-family="Calibri" font-size="9.00">set_cap</text>
</a>
</g>
</g>
<!-- Node2&#45;&gt;Node3 -->
<g id="edge2" class="edge"><title>Node2&#45;&gt;Node3</title>
<path fill="none" stroke="midnightblue" d="M591.665,-539.842C607.159,-530.784 631.095,-516.791 649.085,-506.274"/>
<polygon fill="midnightblue" stroke="midnightblue" points="651.007,-509.204 657.874,-501.135 647.474,-503.161 651.007,-509.204"/>
</g>
<!-- Node4 -->
<g id="node4" class="node"><title>Node4</title>
<g id="a_node4"><a xlink:href="main_8h.html#aecc83cd8bceb4bc24be844732ead2c2c" target="_top" xlink:title=" ">
<polygon fill="none" stroke="black" points="651,-406 651,-424 698,-424 698,-406 651,-406"/>
<text text-anchor="middle" x="674.5" y="-412.8" font-family="Calibri" font-size="9.00">set_ind</text>
</a>
</g>
</g>
<!-- Node2&#45;&gt;Node4 -->
<g id="edge3" class="edge"><title>Node2&#45;&gt;Node4</title>
<path fill="none" stroke="midnightblue" d="M582.702,-539.79C598.774,-517.701 639.73,-461.412 660.702,-432.59"/>
<polygon fill="midnightblue" stroke="midnightblue" points="663.698,-434.42 666.752,-424.275 658.038,-430.302 663.698,-434.42"/>
</g>
<!-- Node6 -->
<g id="node6" class="node"><title>Node6</title>
<g id="a_node6"><a xlink:href="main_8h.html#ab37ca657b79c6b9176cb63e9d812a182" target="_top" xlink:title=" ">
<polygon fill="none" stroke="black" points="650,-369 650,-387 699,-387 699,-369 650,-369"/>
<text text-anchor="middle" x="674.5" y="-375.8" font-family="Calibri" font-size="9.00">get_pwr</text>
</a>
</g>
</g>
<!-- Node5&#45;&gt;Node6 -->
<g id="edge5" class="edge"><title>Node5&#45;&gt;Node6</title>
<path fill="none" stroke="midnightblue" d="M411.313,-243.726C453.831,-242.621 544.932,-246.029 603,-290 630.576,-310.881 614.818,-334.268 639,-359 640.434,-360.467 642.006,-361.851 643.663,-363.151"/>
<polygon fill="midnightblue" stroke="midnightblue" points="642.154,-366.35 652.424,-368.953 646.019,-360.513 642.154,-366.35"/>
</g>
<!-- Node10 -->
<g id="node10" class="node"><title>Node10</title>
<g id="a_node10"><a xlink:href="main_8c.html#a4ae0d4fa97fc0ca3611813fee4f9af7c" target="_top" xlink:title=" ">
<polygon fill="none" stroke="black" points="645.5,-105 645.5,-123 703.5,-123 703.5,-105 645.5,-105"/>
<text text-anchor="middle" x="674.5" y="-111.8" font-family="Calibri" font-size="9.00">show_pwr</text>
</a>
</g>
</g>
<!-- Node5&#45;&gt;Node10 -->
<g id="edge9" class="edge"><title>Node5&#45;&gt;Node10</title>
<path fill="none" stroke="midnightblue" d="M395.48,-235.938C405.878,-223.876 425.823,-202.609 447,-190 507.965,-153.702 588.589,-131.979 635.378,-121.56"/>
<polygon fill="midnightblue" stroke="midnightblue" points="636.359,-124.928 645.39,-119.388 634.875,-118.087 636.359,-124.928"/>
</g>
<!-- Node13 -->
<g id="node13" class="node"><title>Node13</title>
<g id="a_node13"><a xlink:href="main_8c.html#a11724d8cce81ed96bec12a004ea3ea7a" target="_top" xlink:title=" ">
<polygon fill="none" stroke="black" points="447,-200 447,-218 511,-218 511,-200 447,-200"/>
<text text-anchor="middle" x="479" y="-206.8" font-family="Calibri" font-size="9.00">show_reset</text>
</a>
</g>
</g>
<!-- Node5&#45;&gt;Node13 -->
<g id="edge13" class="edge"><title>Node5&#45;&gt;Node13</title>
<path fill="none" stroke="midnightblue" d="M410.711,-235.916C421.37,-231.652 434.261,-226.496 445.895,-221.842"/>
<polygon fill="midnightblue" stroke="midnightblue" points="447.312,-225.045 455.296,-218.081 444.712,-218.546 447.312,-225.045"/>
</g>
<!-- Node7 -->
<g id="node7" class="node"><title>Node7</title>
<g id="a_node7"><a xlink:href="main_8h.html#ab19e6e081315a9a200394b74d10de395" target="_top" xlink:title=" ">
<polygon fill="none" stroke="black" points="758,-424 758,-442 815,-442 815,-424 758,-424"/>
<text text-anchor="middle" x="786.5" y="-430.8" font-family="Calibri" font-size="9.00">correction</text>
</a>
</g>
</g>
<!-- Node6&#45;&gt;Node7 -->
<g id="edge6" class="edge"><title>Node6&#45;&gt;Node7</title>
<path fill="none" stroke="midnightblue" d="M693.115,-387.142C707.341,-394.489 727.9,-405.027 746,-414 749.579,-415.774 753.352,-417.62 757.088,-419.433"/>
<polygon fill="midnightblue" stroke="midnightblue" points="755.641,-422.621 766.168,-423.814 758.682,-416.317 755.641,-422.621"/>
</g>
<!-- Node8 -->
<g id="node8" class="node"><title>Node8</title>
<g id="a_node8"><a xlink:href="main_8h.html#acfd46f8711e9c1c20fffdfc8bdaa0ddd" target="_top" xlink:title=" ">
<polygon fill="none" stroke="black" points="754,-387 754,-405 819,-405 819,-387 754,-387"/>
<text text-anchor="middle" x="786.5" y="-393.8" font-family="Calibri" font-size="9.00">get_forward</text>
</a>
</g>
</g>
<!-- Node6&#45;&gt;Node8 -->
<g id="edge7" class="edge"><title>Node6&#45;&gt;Node8</title>
<path fill="none" stroke="midnightblue" d="M699.098,-381.861C712.023,-383.977 728.428,-386.661 743.463,-389.121"/>
<polygon fill="midnightblue" stroke="midnightblue" points="743.159,-392.618 753.593,-390.779 744.29,-385.71 743.159,-392.618"/>
</g>
<!-- Node9 -->
<g id="node9" class="node"><title>Node9</title>
<g id="a_node9"><a xlink:href="main_8h.html#aa6b9a2b3d88f578ba6a9fefd911eae75" target="_top" xlink:title=" ">
<polygon fill="none" stroke="black" points="754.5,-461 754.5,-479 818.5,-479 818.5,-461 754.5,-461"/>
<text text-anchor="middle" x="786.5" y="-467.8" font-family="Calibri" font-size="9.00">get_reverse</text>
</a>
</g>
</g>
<!-- Node6&#45;&gt;Node9 -->
<g id="edge8" class="edge"><title>Node6&#45;&gt;Node9</title>
<path fill="none" stroke="midnightblue" d="M697.04,-387.07C701.608,-389.566 706.195,-392.553 710,-396 731.652,-415.614 724.032,-431.741 746,-451 747.953,-452.712 750.087,-454.305 752.319,-455.781"/>
<polygon fill="midnightblue" stroke="midnightblue" points="750.823,-458.957 761.24,-460.892 754.303,-452.884 750.823,-458.957"/>
</g>
<!-- Node10&#45;&gt;Node11 -->
<g id="edge10" class="edge"><title>Node10&#45;&gt;Node11</title>
<path fill="none" stroke="midnightblue" d="M703.542,-106.862C718.58,-103.034 737.19,-98.297 752.874,-94.3047"/>
<polygon fill="midnightblue" stroke="midnightblue" points="753.864,-97.6646 762.691,-91.8059 752.137,-90.8809 753.864,-97.6646"/>
</g>
<!-- Node12 -->
<g id="node12" class="node"><title>Node12</title>
<g id="a_node12"><a xlink:href="oled__control_8h.html#ab272af1010175ba1166b08b8b3df6874" target="_top" xlink:title=" ">
<polygon fill="none" stroke="black" points="871.5,-180 871.5,-198 930.5,-198 930.5,-180 871.5,-180"/>
<text text-anchor="middle" x="901" y="-186.8" font-family="Calibri" font-size="9.00">led_wr_str</text>
</a>
</g>
</g>
<!-- Node10&#45;&gt;Node12 -->
<g id="edge12" class="edge"><title>Node10&#45;&gt;Node12</title>
<path fill="none" stroke="midnightblue" d="M702.58,-123.047C742.696,-136.449 818.019,-161.612 863.134,-176.684"/>
<polygon fill="midnightblue" stroke="midnightblue" points="862.23,-180.072 872.824,-179.921 864.448,-173.433 862.23,-180.072"/>
</g>
<!-- Node11&#45;&gt;Node12 -->
<g id="edge11" class="edge"><title>Node11&#45;&gt;Node12</title>
<path fill="none" stroke="midnightblue" d="M797.484,-95.1406C816.533,-112.581 858.295,-150.817 882.224,-172.725"/>
<polygon fill="midnightblue" stroke="midnightblue" points="880.138,-175.561 889.877,-179.732 884.865,-170.398 880.138,-175.561"/>
</g>
<!-- Node13&#45;&gt;Node2 -->
<g id="edge14" class="edge"><title>Node13&#45;&gt;Node2</title>
<path fill="none" stroke="midnightblue" d="M482.514,-218.094C495.074,-263.522 551.109,-466.202 568.699,-529.826"/>
<polygon fill="midnightblue" stroke="midnightblue" points="565.396,-531.013 571.434,-539.718 572.143,-529.147 565.396,-531.013"/>
</g>
<!-- Node13&#45;&gt;Node11 -->
<g id="edge15" class="edge"><title>Node13&#45;&gt;Node11</title>
<path fill="none" stroke="midnightblue" d="M488.576,-199.923C510.803,-177.116 573.147,-117.622 639,-95 676.511,-82.114 722.564,-81.5704 752.906,-83.1244"/>
<polygon fill="midnightblue" stroke="midnightblue" points="752.747,-86.6211 762.944,-83.7447 753.178,-79.6344 752.747,-86.6211"/>
</g>
<!-- Node13&#45;&gt;Node12 -->
<g id="edge35" class="edge"><title>Node13&#45;&gt;Node12</title>
<path fill="none" stroke="midnightblue" d="M511.225,-207.513C586.625,-203.923 778.5,-194.786 861.153,-190.85"/>
<polygon fill="midnightblue" stroke="midnightblue" points="861.551,-194.335 871.373,-190.363 861.218,-187.343 861.551,-194.335"/>
</g>
<!-- Node14 -->
<g id="node14" class="node"><title>Node14</title>
<g id="a_node14"><a xlink:href="main_8c.html#ae5a14b4884e85f47ad8a4a716f13203a" target="_top" xlink:title=" ">
<polygon fill="none" stroke="black" points="551,-219 551,-237 599,-237 599,-219 551,-219"/>
<text text-anchor="middle" x="575" y="-225.8" font-family="Calibri" font-size="9.00">lcd_pwr</text>
</a>
</g>
</g>
<!-- Node13&#45;&gt;Node14 -->
<g id="edge16" class="edge"><title>Node13&#45;&gt;Node14</title>
<path fill="none" stroke="midnightblue" d="M511.04,-215.274C520.543,-217.195 531.035,-219.316 540.684,-221.266"/>
<polygon fill="midnightblue" stroke="midnightblue" points="540.241,-224.747 550.737,-223.298 541.628,-217.886 540.241,-224.747"/>
</g>
<!-- Node23 -->
<g id="node23" class="node"><title>Node23</title>
<g id="a_node23"><a xlink:href="main_8h.html#ae0c1e0ec712704e43db40473f103d621" target="_top" xlink:title="Set the state of the switch.">
<polygon fill="none" stroke="black" points="652,-142 652,-160 697,-160 697,-142 652,-142"/>
<text text-anchor="middle" x="674.5" y="-148.8" font-family="Calibri" font-size="9.00">set_sw</text>
</a>
</g>
</g>
<!-- Node13&#45;&gt;Node23 -->
<g id="edge36" class="edge"><title>Node13&#45;&gt;Node23</title>
<path fill="none" stroke="midnightblue" d="M495.473,-199.919C508.741,-192.494 528.577,-182.236 547,-176 578.31,-165.402 615.586,-158.712 641.529,-154.948"/>
<polygon fill="midnightblue" stroke="midnightblue" points="642.138,-158.398 651.562,-153.557 641.176,-151.464 642.138,-158.398"/>
</g>
<!-- Node14&#45;&gt;Node3 -->
<g id="edge31" class="edge"><title>Node14&#45;&gt;Node3</title>
<path fill="none" stroke="midnightblue" d="M578.037,-237.262C584.678,-266.688 607.123,-360.382 639,-433 645.334,-447.43 654.382,-462.768 661.623,-474.187"/>
<polygon fill="midnightblue" stroke="midnightblue" points="658.801,-476.269 667.181,-482.752 664.673,-472.458 658.801,-476.269"/>
</g>
<!-- Node14&#45;&gt;Node4 -->
<g id="edge32" class="edge"><title>Node14&#45;&gt;Node4</title>
<path fill="none" stroke="midnightblue" d="M580.268,-237.144C585.806,-249.152 595.631,-270.947 603,-290 620.948,-336.404 607.047,-357.863 639,-396 640.147,-397.369 641.42,-398.657 642.78,-399.865"/>
<polygon fill="midnightblue" stroke="midnightblue" points="641.097,-402.965 651.267,-405.937 645.17,-397.272 641.097,-402.965"/>
</g>
<!-- Node14&#45;&gt;Node6 -->
<g id="edge27" class="edge"><title>Node14&#45;&gt;Node6</title>
<path fill="none" stroke="midnightblue" d="M588.892,-237.125C593.874,-241.196 599.263,-246.351 603,-252 630.68,-293.849 606.831,-320.494 639,-359 640.145,-360.371 641.416,-361.66 642.775,-362.869"/>
<polygon fill="midnightblue" stroke="midnightblue" points="641.09,-365.968 651.258,-368.944 645.166,-360.277 641.09,-365.968"/>
</g>
<!-- Node14&#45;&gt;Node10 -->
<g id="edge34" class="edge"><title>Node14&#45;&gt;Node10</title>
<path fill="none" stroke="midnightblue" d="M579.985,-218.972C588.489,-200.562 610.027,-158.215 639,-132 640.309,-130.816 641.71,-129.686 643.17,-128.611"/>
<polygon fill="midnightblue" stroke="midnightblue" points="645.367,-131.364 651.963,-123.073 641.636,-125.441 645.367,-131.364"/>
</g>
<!-- Node14&#45;&gt;Node12 -->
<g id="edge30" class="edge"><title>Node14&#45;&gt;Node12</title>
<path fill="none" stroke="midnightblue" d="M586.357,-237.206C603.821,-252.706 637.394,-282.398 639,-283 668.545,-294.082 678.833,-287.934 710,-283 764.001,-274.45 778.611,-270.451 827,-245 847.799,-234.06 868.802,-217.199 882.906,-204.835"/>
<polygon fill="midnightblue" stroke="midnightblue" points="885.248,-207.436 890.358,-198.154 880.576,-202.223 885.248,-207.436"/>
</g>
<!-- Node15 -->
<g id="node15" class="node"><title>Node15</title>
<g id="a_node15"><a xlink:href="main_8c.html#a593218c5fe00b499d494826fc0aa5279" target="_top" xlink:title=" ">
<polygon fill="none" stroke="black" points="639,-256 639,-274 710,-274 710,-256 639,-256"/>
<text text-anchor="middle" x="674.5" y="-262.8" font-family="Calibri" font-size="9.00">button_delay</text>
</a>
</g>
</g>
<!-- Node14&#45;&gt;Node15 -->
<g id="edge17" class="edge"><title>Node14&#45;&gt;Node15</title>
<path fill="none" stroke="midnightblue" d="M599.106,-236.768C611.341,-241.411 626.588,-247.198 640.088,-252.321"/>
<polygon fill="midnightblue" stroke="midnightblue" points="638.95,-255.632 649.542,-255.908 641.434,-249.088 638.95,-255.632"/>
</g>
<!-- Node16 -->
<g id="node16" class="node"><title>Node16</title>
<g id="a_node16"><a xlink:href="oled__control_8c.html#a5febfdc847aa6f3bc3f3c8f7818b8699" target="_top" xlink:title=" ">
<polygon fill="none" stroke="black" points="643.5,-332 643.5,-350 705.5,-350 705.5,-332 643.5,-332"/>
<text text-anchor="middle" x="674.5" y="-338.8" font-family="Calibri" font-size="9.00">display_on</text>
</a>
</g>
</g>
<!-- Node14&#45;&gt;Node16 -->
<g id="edge18" class="edge"><title>Node14&#45;&gt;Node16</title>
<path fill="none" stroke="midnightblue" d="M587.852,-237.033C592.894,-241.237 598.611,-246.516 603,-252 623.636,-277.782 616.87,-292.489 639,-317 641.915,-320.229 645.344,-323.256 648.889,-326"/>
<polygon fill="midnightblue" stroke="midnightblue" points="646.995,-328.947 657.185,-331.849 651.029,-323.226 646.995,-328.947"/>
</g>
<!-- Node22 -->
<g id="node22" class="node"><title>Node22</title>
<g id="a_node22"><a xlink:href="main_8c.html#aa8fd50019a763561abc6621bb224417f" target="_top" xlink:title=" ">
<polygon fill="none" stroke="black" points="763,-218 763,-236 810,-236 810,-218 763,-218"/>
<text text-anchor="middle" x="786.5" y="-224.8" font-family="Calibri" font-size="9.00">lcd_swr</text>
</a>
</g>
</g>
<!-- Node14&#45;&gt;Node22 -->
<g id="edge28" class="edge"><title>Node14&#45;&gt;Node22</title>
<path fill="none" stroke="midnightblue" d="M599.221,-227.889C636.541,-227.711 709.996,-227.36 752.667,-227.157"/>
<polygon fill="midnightblue" stroke="midnightblue" points="752.829,-230.656 762.812,-227.108 752.796,-223.656 752.829,-230.656"/>
</g>
<!-- Node14&#45;&gt;Node23 -->
<g id="edge33" class="edge"><title>Node14&#45;&gt;Node23</title>
<path fill="none" stroke="midnightblue" d="M587.567,-218.865C603.913,-205.956 633.99,-182.203 653.87,-166.503"/>
<polygon fill="midnightblue" stroke="midnightblue" points="656.269,-169.068 661.948,-160.123 651.931,-163.574 656.269,-169.068"/>
</g>
<!-- Node17 -->
<g id="node17" class="node"><title>Node17</title>
<g id="a_node17"><a xlink:href="oled__control_8c.html#a5a5d7ef6b1877aaf94c1f4b7fc0f2d2d" target="_top" xlink:title=" ">
<polygon fill="none" stroke="black" points="759,-350 759,-368 814,-368 814,-350 759,-350"/>
<text text-anchor="middle" x="786.5" y="-356.8" font-family="Calibri" font-size="9.00">led_send</text>
</a>
</g>
</g>
<!-- Node16&#45;&gt;Node17 -->
<g id="edge19" class="edge"><title>Node16&#45;&gt;Node17</title>
<path fill="none" stroke="midnightblue" d="M705.558,-345.919C718.969,-348.113 734.89,-350.718 748.98,-353.024"/>
<polygon fill="midnightblue" stroke="midnightblue" points="748.421,-356.479 758.855,-354.64 749.551,-349.571 748.421,-356.479"/>
</g>
<!-- Node21 -->
<g id="node21" class="node"><title>Node21</title>
<g id="a_node21"><a xlink:href="oled__control_8c.html#ad141ed038278a6fcad6c307932f01ec8" target="_top" xlink:title=" ">
<polygon fill="none" stroke="black" points="746,-313 746,-331 827,-331 827,-313 746,-313"/>
<text text-anchor="middle" x="786.5" y="-319.8" font-family="Calibri" font-size="9.00">send_command</text>
</a>
</g>
</g>
<!-- Node16&#45;&gt;Node21 -->
<g id="edge23" class="edge"><title>Node16&#45;&gt;Node21</title>
<path fill="none" stroke="midnightblue" d="M705.558,-335.808C715.006,-334.176 725.7,-332.329 736.122,-330.529"/>
<polygon fill="midnightblue" stroke="midnightblue" points="736.723,-333.977 745.982,-328.826 735.532,-327.079 736.723,-333.977"/>
</g>
<!-- Node18 -->
<g id="node18" class="node"><title>Node18</title>
<g id="a_node18"><a xlink:href="oled__control_8c.html#ab7f6b5c6c1483f6286f2de5786c028d9" target="_top" xlink:title=" ">
<polygon fill="none" stroke="black" points="865,-368 865,-386 937,-386 937,-368 865,-368"/>
<text text-anchor="middle" x="901" y="-374.8" font-family="Calibri" font-size="9.00">Soft_I2C_Start</text>
</a>
</g>
</g>
<!-- Node17&#45;&gt;Node18 -->
<g id="edge20" class="edge"><title>Node17&#45;&gt;Node18</title>
<path fill="none" stroke="midnightblue" d="M814.161,-363.266C826.173,-365.188 840.703,-367.512 854.365,-369.698"/>
<polygon fill="midnightblue" stroke="midnightblue" points="854.16,-373.21 864.588,-371.334 855.266,-366.298 854.16,-373.21"/>
</g>
<!-- Node19 -->
<g id="node19" class="node"><title>Node19</title>
<g id="a_node19"><a xlink:href="oled__control_8c.html#a16eb842aa672ca44820ae6d5f9933425" target="_top" xlink:title=" ">
<polygon fill="none" stroke="black" points="865.5,-331 865.5,-349 936.5,-349 936.5,-331 865.5,-331"/>
<text text-anchor="middle" x="901" y="-337.8" font-family="Calibri" font-size="9.00">Soft_I2C_Stop</text>
</a>
</g>
</g>
<!-- Node17&#45;&gt;Node19 -->
<g id="edge21" class="edge"><title>Node17&#45;&gt;Node19</title>
<path fill="none" stroke="midnightblue" d="M814.161,-354.497C826.5,-352.413 841.495,-349.881 855.478,-347.519"/>
<polygon fill="midnightblue" stroke="midnightblue" points="856.152,-350.955 865.429,-345.839 854.986,-344.053 856.152,-350.955"/>
</g>
<!-- Node20 -->
<g id="node20" class="node"><title>Node20</title>
<g id="a_node20"><a xlink:href="oled__control_8c.html#a73610916645f17c19124e697b005f694" target="_top" xlink:title=" ">
<polygon fill="none" stroke="black" points="863,-294 863,-312 939,-312 939,-294 863,-294"/>
<text text-anchor="middle" x="901" y="-300.8" font-family="Calibri" font-size="9.00">Soft_I2C_Write</text>
</a>
</g>
</g>
<!-- Node17&#45;&gt;Node20 -->
<g id="edge22" class="edge"><title>Node17&#45;&gt;Node20</title>
<path fill="none" stroke="midnightblue" d="M806.858,-349.866C813.291,-346.783 820.477,-343.289 827,-340 843.155,-331.855 846.863,-329.181 863,-321 865.931,-319.514 869.003,-317.981 872.071,-316.466"/>
<polygon fill="midnightblue" stroke="midnightblue" points="873.675,-319.578 881.118,-312.038 870.597,-313.29 873.675,-319.578"/>
</g>
<!-- Node21&#45;&gt;Node18 -->
<g id="edge24" class="edge"><title>Node21&#45;&gt;Node18</title>
<path fill="none" stroke="midnightblue" d="M808.077,-331.181C814.191,-333.962 820.888,-337.06 827,-340 835.805,-344.235 856.218,-354.599 873.226,-363.284"/>
<polygon fill="midnightblue" stroke="midnightblue" points="871.732,-366.451 882.229,-367.886 874.918,-360.218 871.732,-366.451"/>
</g>
<!-- Node21&#45;&gt;Node19 -->
<g id="edge25" class="edge"><title>Node21&#45;&gt;Node19</title>
<path fill="none" stroke="midnightblue" d="M827.163,-328.346C836.172,-329.788 845.804,-331.329 855.016,-332.803"/>
<polygon fill="midnightblue" stroke="midnightblue" points="854.755,-336.305 865.182,-334.429 855.861,-329.393 854.755,-336.305"/>
</g>
<!-- Node21&#45;&gt;Node20 -->
<g id="edge26" class="edge"><title>Node21&#45;&gt;Node20</title>
<path fill="none" stroke="midnightblue" d="M827.163,-315.301C835.53,-313.888 844.433,-312.385 853.039,-310.931"/>
<polygon fill="midnightblue" stroke="midnightblue" points="853.676,-314.373 862.954,-309.257 852.511,-307.471 853.676,-314.373"/>
</g>
<!-- Node22&#45;&gt;Node12 -->
<g id="edge29" class="edge"><title>Node22&#45;&gt;Node12</title>
<path fill="none" stroke="midnightblue" d="M810.266,-219.31C825.509,-214.162 845.909,-207.271 863.406,-201.361"/>
<polygon fill="midnightblue" stroke="midnightblue" points="864.958,-204.531 873.312,-198.015 862.718,-197.899 864.958,-204.531"/>
</g>
<!-- Node24&#45;&gt;Node3 -->
<g id="edge40" class="edge"><title>Node24&#45;&gt;Node3</title>
<path fill="none" stroke="midnightblue" d="M200.167,-254.164C216.021,-292.117 282.574,-435 386,-435 386,-435 386,-435 480,-435 541.564,-435 609.82,-461.877 646.548,-478.72"/>
<polygon fill="midnightblue" stroke="midnightblue" points="645.071,-481.893 655.611,-482.968 648.042,-475.555 645.071,-481.893"/>
</g>
<!-- Node24&#45;&gt;Node5 -->
<g id="edge39" class="edge"><title>Node24&#45;&gt;Node5</title>
<path fill="none" stroke="midnightblue" d="M225.281,-245C259.583,-245 316.786,-245 352.891,-245"/>
<polygon fill="midnightblue" stroke="midnightblue" points="352.924,-248.5 362.923,-245 352.923,-241.5 352.924,-248.5"/>
</g>
<!-- Node25&#45;&gt;Node4 -->
<g id="edge43" class="edge"><title>Node25&#45;&gt;Node4</title>
<path fill="none" stroke="midnightblue" d="M325.382,-279.251C383.333,-273.16 517.036,-267.282 603,-328 630.931,-347.729 615.02,-371.621 639,-396 640.439,-397.462 642.014,-398.843 643.674,-400.141"/>
<polygon fill="midnightblue" stroke="midnightblue" points="642.169,-403.342 652.441,-405.937 646.029,-397.502 642.169,-403.342"/>
</g>
<!-- Node25&#45;&gt;Node5 -->
<g id="edge42" class="edge"><title>Node25&#45;&gt;Node5</title>
<path fill="none" stroke="midnightblue" d="M318.092,-273.995C329.205,-269.249 343.042,-263.342 355.32,-258.099"/>
<polygon fill="midnightblue" stroke="midnightblue" points="356.929,-261.218 364.751,-254.073 354.18,-254.78 356.929,-261.218"/>
</g>
<!-- Node26&#45;&gt;Node2 -->
<g id="edge45" class="edge"><title>Node26&#45;&gt;Node2</title>
<path fill="none" stroke="midnightblue" d="M101.382,-292.156C111.575,-338.93 164.616,-549 295,-549 295,-549 295,-549 388,-549 439.433,-549 498.867,-549 536.435,-549"/>
<polygon fill="midnightblue" stroke="midnightblue" points="536.893,-552.5 546.893,-549 536.893,-545.5 536.893,-552.5"/>
</g>
<!-- Node26&#45;&gt;Node3 -->
<g id="edge54" class="edge"><title>Node26&#45;&gt;Node3</title>
<path fill="none" stroke="midnightblue" d="M99.6535,-292.145C100.655,-324.736 108.052,-436.89 162,-505 194.485,-546.013 214.46,-548.469 265,-562 410.128,-600.854 465.103,-626.633 603,-567 629.818,-555.403 651.137,-528.027 663.042,-509.757"/>
<polygon fill="midnightblue" stroke="midnightblue" points="666.077,-511.505 668.389,-501.165 660.134,-507.806 666.077,-511.505"/>
</g>
<!-- Node26&#45;&gt;Node4 -->
<g id="edge55" class="edge"><title>Node26&#45;&gt;Node4</title>
<path fill="none" stroke="midnightblue" d="M126.015,-288.959C223.023,-310.766 555.457,-385.551 603,-397 615.443,-399.997 629.08,-403.441 641.017,-406.509"/>
<polygon fill="midnightblue" stroke="midnightblue" points="640.439,-409.974 650.996,-409.088 642.19,-403.197 640.439,-409.974"/>
</g>
<!-- Node26&#45;&gt;Node5 -->
<g id="edge53" class="edge"><title>Node26&#45;&gt;Node5</title>
<path fill="none" stroke="midnightblue" d="M105.901,-273.886C116.003,-260.393 137.078,-235.658 162,-226 226.147,-201.142 308.156,-219.524 353.017,-233.385"/>
<polygon fill="midnightblue" stroke="midnightblue" points="352.207,-236.801 362.798,-236.52 354.343,-230.135 352.207,-236.801"/>
</g>
<!-- Node26&#45;&gt;Node23 -->
<g id="edge56" class="edge"><title>Node26&#45;&gt;Node23</title>
<path fill="none" stroke="midnightblue" d="M105.355,-273.733C115.332,-258.587 136.995,-228.378 162,-210 249.276,-145.855 277.687,-114 386,-114 386,-114 386,-114 480,-114 537.993,-114 604.051,-130.232 642.049,-141.193"/>
<polygon fill="midnightblue" stroke="midnightblue" points="641.411,-144.654 651.993,-144.127 643.392,-137.94 641.411,-144.654"/>
</g>
<!-- Node26&#45;&gt;Node24 -->
<g id="edge57" class="edge"><title>Node26&#45;&gt;Node24</title>
<path fill="none" stroke="midnightblue" d="M122.014,-273.995C134.111,-269.155 149.232,-263.107 162.528,-257.789"/>
<polygon fill="midnightblue" stroke="midnightblue" points="163.834,-261.036 171.819,-254.073 161.234,-254.537 163.834,-261.036"/>
</g>
<!-- Node26&#45;&gt;Node25 -->
<g id="edge58" class="edge"><title>Node26&#45;&gt;Node25</title>
<path fill="none" stroke="midnightblue" d="M126.274,-283C160.016,-283 218.24,-283 256.688,-283"/>
<polygon fill="midnightblue" stroke="midnightblue" points="256.971,-286.5 266.971,-283 256.971,-279.5 256.971,-286.5"/>
</g>
<!-- Node27 -->
<g id="node27" class="node"><title>Node27</title>
<g id="a_node27"><a xlink:href="main_8h.html#a5c7c60c7d70cf76cc52e87722bb0f614" target="_top" xlink:title=" ">
<polygon fill="none" stroke="black" points="162,-388 162,-406 229,-406 229,-388 162,-388"/>
<text text-anchor="middle" x="195.5" y="-394.8" font-family="Calibri" font-size="9.00">coarse_tune</text>
</a>
</g>
</g>
<!-- Node26&#45;&gt;Node27 -->
<g id="edge46" class="edge"><title>Node26&#45;&gt;Node27</title>
<path fill="none" stroke="midnightblue" d="M107.274,-292.329C123.289,-311.547 160.153,-355.783 180.455,-380.146"/>
<polygon fill="midnightblue" stroke="midnightblue" points="177.793,-382.419 186.884,-387.861 183.171,-377.938 177.793,-382.419"/>
</g>
<!-- Node27&#45;&gt;Node3 -->
<g id="edge51" class="edge"><title>Node27&#45;&gt;Node3</title>
<path fill="none" stroke="midnightblue" d="M200.214,-406.058C208.601,-425.262 230.965,-470.019 265,-491 311.4,-519.603 331.493,-511 386,-511 386,-511 386,-511 480,-511 536.464,-511 601.754,-502.888 640.228,-497.265"/>
<polygon fill="midnightblue" stroke="midnightblue" points="640.967,-500.694 650.339,-495.754 639.932,-493.77 640.967,-500.694"/>
</g>
<!-- Node27&#45;&gt;Node4 -->
<g id="edge52" class="edge"><title>Node27&#45;&gt;Node4</title>
<path fill="none" stroke="midnightblue" d="M229.026,-397C266.773,-397 330.894,-397 386,-397 386,-397 386,-397 480,-397 536.744,-397 602.448,-404.769 640.847,-410.099"/>
<polygon fill="midnightblue" stroke="midnightblue" points="640.53,-413.589 650.923,-411.529 641.514,-406.659 640.53,-413.589"/>
</g>
<!-- Node27&#45;&gt;Node5 -->
<g id="edge50" class="edge"><title>Node27&#45;&gt;Node5</title>
<path fill="none" stroke="midnightblue" d="M209.877,-387.986C233.983,-371.564 286.016,-335.295 327,-301 342.136,-288.334 358.329,-272.809 369.914,-261.32"/>
<polygon fill="midnightblue" stroke="midnightblue" points="372.539,-263.645 377.129,-254.096 367.586,-258.698 372.539,-263.645"/>
</g>
<!-- Node28 -->
<g id="node28" class="node"><title>Node28</title>
<g id="a_node28"><a xlink:href="main_8h.html#a740ef1b33bb02cd952ad7d8708999472" target="_top" xlink:title=" ">
<polygon fill="none" stroke="black" points="265,-464 265,-482 327,-482 327,-464 265,-464"/>
<text text-anchor="middle" x="296" y="-470.8" font-family="Calibri" font-size="9.00">coarse_cap</text>
</a>
</g>
</g>
<!-- Node27&#45;&gt;Node28 -->
<g id="edge47" class="edge"><title>Node27&#45;&gt;Node28</title>
<path fill="none" stroke="midnightblue" d="M208.186,-406.017C224.7,-418.758 255.085,-442.203 275.168,-457.698"/>
<polygon fill="midnightblue" stroke="midnightblue" points="273.274,-460.657 283.329,-463.995 277.55,-455.115 273.274,-460.657"/>
</g>
<!-- Node28&#45;&gt;Node3 -->
<g id="edge49" class="edge"><title>Node28&#45;&gt;Node3</title>
<path fill="none" stroke="midnightblue" d="M327.174,-474.523C396.552,-478.024 567.021,-486.627 639.742,-490.296"/>
<polygon fill="midnightblue" stroke="midnightblue" points="639.978,-493.813 650.142,-490.821 640.331,-486.822 639.978,-493.813"/>
</g>
<!-- Node28&#45;&gt;Node5 -->
<g id="edge48" class="edge"><title>Node28&#45;&gt;Node5</title>
<path fill="none" stroke="midnightblue" d="M300.599,-463.78C313.934,-429.617 360.688,-309.843 378.778,-263.502"/>
<polygon fill="midnightblue" stroke="midnightblue" points="382.078,-264.673 382.454,-254.085 375.557,-262.128 382.078,-264.673"/>
</g>
</g>
</svg>
