<?xml version="1.0" encoding="UTF-8" standalone="no"?>
<!DOCTYPE svg PUBLIC "-//W3C//DTD SVG 1.1//EN"
 "http://www.w3.org/Graphics/SVG/1.1/DTD/svg11.dtd">
<!-- Generated by graphviz version 2.38.0 (20140413.2041)
 -->
<!-- Title: Test_init Pages: 1 -->
<svg width="661pt" height="215pt"
 viewBox="0.00 0.00 661.00 215.00" xmlns="http://www.w3.org/2000/svg" xmlns:xlink="http://www.w3.org/1999/xlink">
<g id="graph0" class="graph" transform="scale(1 1) rotate(0) translate(4 211)">
<title>Test_init</title>
<!-- Node321 -->
<g id="node1" class="node"><title>Node321</title>
<polygon fill="#bfbfbf" stroke="black" points="0,-57.5 0,-75.5 53,-75.5 53,-57.5 0,-57.5"/>
<text text-anchor="middle" x="26.5" y="-64.3" font-family="Calibri" font-size="9.00">Test_init</text>
</g>
<!-- Node322 -->
<g id="node2" class="node"><title>Node322</title>
<g id="a_node2"><a xlink:href="main_8h.html#a9dff326a6079fe726285b11ee837ad60" target="_top" xlink:title="atu_reset">
<polygon fill="none" stroke="black" points="89,-151.5 89,-169.5 145,-169.5 145,-151.5 89,-151.5"/>
<text text-anchor="middle" x="117" y="-158.3" font-family="Calibri" font-size="9.00">atu_reset</text>
</a>
</g>
</g>
<!-- Node321&#45;&gt;Node322 -->
<g id="edge1" class="edge"><title>Node321&#45;&gt;Node322</title>
<path fill="none" stroke="midnightblue" d="M35.9858,-75.5131C50.8153,-91.2643 81.6513,-124.017 100.415,-143.947"/>
<polygon fill="midnightblue" stroke="midnightblue" points="98.0067,-146.494 107.41,-151.376 103.103,-141.696 98.0067,-146.494"/>
</g>
<!-- Node325 -->
<g id="node5" class="node"><title>Node325</title>
<g id="a_node5"><a xlink:href="main_8c.html#a46f52cccc77b5d2d91f35334046bc8eb" target="_top" xlink:title="lcd_prep">
<polygon fill="none" stroke="black" points="91,-76.5 91,-94.5 143,-94.5 143,-76.5 91,-76.5"/>
<text text-anchor="middle" x="117" y="-83.3" font-family="Calibri" font-size="9.00">lcd_prep</text>
</a>
</g>
</g>
<!-- Node321&#45;&gt;Node325 -->
<g id="edge4" class="edge"><title>Node321&#45;&gt;Node325</title>
<path fill="none" stroke="midnightblue" d="M53.0979,-71.9956C61.7954,-73.8629 71.6698,-75.9828 80.9747,-77.9804"/>
<polygon fill="midnightblue" stroke="midnightblue" points="80.2534,-81.4053 90.7653,-80.0824 81.7228,-74.5612 80.2534,-81.4053"/>
</g>
<!-- Node327 -->
<g id="node7" class="node"><title>Node327</title>
<g id="a_node7"><a xlink:href="oled__control_8c.html#a9d56c6c2e653b24a0caf505492ad818a" target="_top" xlink:title="led_wr_str">
<polygon fill="none" stroke="black" points="265,-76.5 265,-94.5 324,-94.5 324,-76.5 265,-76.5"/>
<text text-anchor="middle" x="294.5" y="-83.3" font-family="Calibri" font-size="9.00">led_wr_str</text>
</a>
</g>
</g>
<!-- Node321&#45;&gt;Node327 -->
<g id="edge19" class="edge"><title>Node321&#45;&gt;Node327</title>
<path fill="none" stroke="midnightblue" d="M53.2018,-65.5612C77.0266,-64.9136 113.445,-64.4895 145,-66.5 182.473,-68.8875 224.944,-74.6311 254.838,-79.1827"/>
<polygon fill="midnightblue" stroke="midnightblue" points="254.44,-82.6628 264.858,-80.7354 255.512,-75.7453 254.44,-82.6628"/>
</g>
<!-- Node334 -->
<g id="node14" class="node"><title>Node334</title>
<g id="a_node14"><a xlink:href="main_8h.html#ae0c1e0ec712704e43db40473f103d621" target="_top" xlink:title="Set the state of the switch. ">
<polygon fill="none" stroke="black" points="94.5,-0.5 94.5,-18.5 139.5,-18.5 139.5,-0.5 94.5,-0.5"/>
<text text-anchor="middle" x="117" y="-7.3" font-family="Calibri" font-size="9.00">set_sw</text>
</a>
</g>
</g>
<!-- Node321&#45;&gt;Node334 -->
<g id="edge20" class="edge"><title>Node321&#45;&gt;Node334</title>
<path fill="none" stroke="midnightblue" d="M41.7191,-57.342C55.6536,-48.3671 77.1111,-34.5471 93.3875,-24.064"/>
<polygon fill="midnightblue" stroke="midnightblue" points="95.3043,-26.9926 101.816,-18.6353 91.5139,-21.1076 95.3043,-26.9926"/>
</g>
<!-- Node323 -->
<g id="node3" class="node"><title>Node323</title>
<g id="a_node3"><a xlink:href="main_8h.html#a2a7963b9b09696c6654b96c67900c6ea" target="_top" xlink:title="set_cap">
<polygon fill="none" stroke="black" points="181,-151.5 181,-169.5 229,-169.5 229,-151.5 181,-151.5"/>
<text text-anchor="middle" x="205" y="-158.3" font-family="Calibri" font-size="9.00">set_cap</text>
</a>
</g>
</g>
<!-- Node322&#45;&gt;Node323 -->
<g id="edge2" class="edge"><title>Node322&#45;&gt;Node323</title>
<path fill="none" stroke="midnightblue" d="M145.211,-160.5C153.238,-160.5 162.118,-160.5 170.492,-160.5"/>
<polygon fill="midnightblue" stroke="midnightblue" points="170.727,-164 180.727,-160.5 170.727,-157 170.727,-164"/>
</g>
<!-- Node324 -->
<g id="node4" class="node"><title>Node324</title>
<g id="a_node4"><a xlink:href="main_8h.html#aecc83cd8bceb4bc24be844732ead2c2c" target="_top" xlink:title="set_ind">
<polygon fill="none" stroke="black" points="181.5,-188.5 181.5,-206.5 228.5,-206.5 228.5,-188.5 181.5,-188.5"/>
<text text-anchor="middle" x="205" y="-195.3" font-family="Calibri" font-size="9.00">set_ind</text>
</a>
</g>
</g>
<!-- Node322&#45;&gt;Node324 -->
<g id="edge3" class="edge"><title>Node322&#45;&gt;Node324</title>
<path fill="none" stroke="midnightblue" d="M139.258,-169.646C149.673,-174.127 162.396,-179.601 173.799,-184.506"/>
<polygon fill="midnightblue" stroke="midnightblue" points="172.417,-187.722 182.986,-188.459 175.183,-181.292 172.417,-187.722"/>
</g>
<!-- Node326 -->
<g id="node6" class="node"><title>Node326</title>
<g id="a_node6"><a xlink:href="main_8c.html#a6911b3f075cdf1d54cb14f17f6e5ef6b" target="_top" xlink:title="lcd_ind">
<polygon fill="none" stroke="black" points="181.5,-114.5 181.5,-132.5 228.5,-132.5 228.5,-114.5 181.5,-114.5"/>
<text text-anchor="middle" x="205" y="-121.3" font-family="Calibri" font-size="9.00">lcd_ind</text>
</a>
</g>
</g>
<!-- Node325&#45;&gt;Node326 -->
<g id="edge5" class="edge"><title>Node325&#45;&gt;Node326</title>
<path fill="none" stroke="midnightblue" d="M138.381,-94.5055C149.013,-99.2036 162.225,-105.041 174.001,-110.245"/>
<polygon fill="midnightblue" stroke="midnightblue" points="172.906,-113.587 183.467,-114.427 175.735,-107.184 172.906,-113.587"/>
</g>
<!-- Node325&#45;&gt;Node327 -->
<g id="edge18" class="edge"><title>Node325&#45;&gt;Node327</title>
<path fill="none" stroke="midnightblue" d="M143.145,-85.5C172.349,-85.5 220.857,-85.5 254.857,-85.5"/>
<polygon fill="midnightblue" stroke="midnightblue" points="254.906,-89.0001 264.906,-85.5 254.906,-82.0001 254.906,-89.0001"/>
</g>
<!-- Node326&#45;&gt;Node327 -->
<g id="edge6" class="edge"><title>Node326&#45;&gt;Node327</title>
<path fill="none" stroke="midnightblue" d="M226.736,-114.495C237.663,-109.749 251.266,-103.842 263.337,-98.5992"/>
<polygon fill="midnightblue" stroke="midnightblue" points="264.831,-101.766 272.609,-94.5725 262.043,-95.3457 264.831,-101.766"/>
</g>
<!-- Node328 -->
<g id="node8" class="node"><title>Node328</title>
<g id="a_node8"><a xlink:href="oled__control_8c.html#a7c3a2e5f1fed76dc27692132a2574d27" target="_top" xlink:title="oled_wr_str">
<polygon fill="none" stroke="black" points="360,-95.5 360,-113.5 425,-113.5 425,-95.5 360,-95.5"/>
<text text-anchor="middle" x="392.5" y="-102.3" font-family="Calibri" font-size="9.00">oled_wr_str</text>
</a>
</g>
</g>
<!-- Node327&#45;&gt;Node328 -->
<g id="edge7" class="edge"><title>Node327&#45;&gt;Node328</title>
<path fill="none" stroke="midnightblue" d="M324.043,-91.1492C332.147,-92.7531 341.142,-94.5333 349.852,-96.2572"/>
<polygon fill="midnightblue" stroke="midnightblue" points="349.388,-99.7331 359.877,-98.2413 350.747,-92.8663 349.388,-99.7331"/>
</g>
<!-- Node333 -->
<g id="node13" class="node"><title>Node333</title>
<g id="a_node13"><a xlink:href="oled__control_8c.html#ad25764a33e482f4e9db2701198e02551" target="_top" xlink:title="led_send">
<polygon fill="none" stroke="black" points="365,-38.5 365,-56.5 420,-56.5 420,-38.5 365,-38.5"/>
<text text-anchor="middle" x="392.5" y="-45.3" font-family="Calibri" font-size="9.00">led_send</text>
</a>
</g>
</g>
<!-- Node327&#45;&gt;Node333 -->
<g id="edge14" class="edge"><title>Node327&#45;&gt;Node333</title>
<path fill="none" stroke="midnightblue" d="M318.251,-76.4945C330.476,-71.6555 345.755,-65.6072 359.192,-60.2886"/>
<polygon fill="midnightblue" stroke="midnightblue" points="360.57,-63.5074 368.58,-56.5725 357.994,-56.9987 360.57,-63.5074"/>
</g>
<!-- Node329 -->
<g id="node9" class="node"><title>Node329</title>
<g id="a_node9"><a xlink:href="oled__control_8c.html#ab7f6b5c6c1483f6286f2de5786c028d9" target="_top" xlink:title="Soft_I2C_Start">
<polygon fill="none" stroke="black" points="579,-133.5 579,-151.5 651,-151.5 651,-133.5 579,-133.5"/>
<text text-anchor="middle" x="615" y="-140.3" font-family="Calibri" font-size="9.00">Soft_I2C_Start</text>
</a>
</g>
</g>
<!-- Node328&#45;&gt;Node329 -->
<g id="edge8" class="edge"><title>Node328&#45;&gt;Node329</title>
<path fill="none" stroke="midnightblue" d="M400.588,-113.631C411.727,-127.147 434.783,-151.911 461,-161.5 501.036,-176.143 550.474,-165.213 582.12,-154.861"/>
<polygon fill="midnightblue" stroke="midnightblue" points="583.418,-158.116 591.735,-151.554 581.141,-151.497 583.418,-158.116"/>
</g>
<!-- Node330 -->
<g id="node10" class="node"><title>Node330</title>
<g id="a_node10"><a xlink:href="oled__control_8c.html#a73610916645f17c19124e697b005f694" target="_top" xlink:title="Soft_I2C_Write">
<polygon fill="none" stroke="black" points="577,-95.5 577,-113.5 653,-113.5 653,-95.5 577,-95.5"/>
<text text-anchor="middle" x="615" y="-102.3" font-family="Calibri" font-size="9.00">Soft_I2C_Write</text>
</a>
</g>
</g>
<!-- Node328&#45;&gt;Node330 -->
<g id="edge9" class="edge"><title>Node328&#45;&gt;Node330</title>
<path fill="none" stroke="midnightblue" d="M425.092,-104.5C462.166,-104.5 524.001,-104.5 566.776,-104.5"/>
<polygon fill="midnightblue" stroke="midnightblue" points="566.944,-108 576.944,-104.5 566.944,-101 566.944,-108"/>
</g>
<!-- Node331 -->
<g id="node11" class="node"><title>Node331</title>
<g id="a_node11"><a xlink:href="oled__control_8c.html#a6df77e8ec83c50ed6a5ddaf54aa3a9c2" target="_top" xlink:title="set_addressing">
<polygon fill="none" stroke="black" points="461,-133.5 461,-151.5 541,-151.5 541,-133.5 461,-133.5"/>
<text text-anchor="middle" x="501" y="-140.3" font-family="Calibri" font-size="9.00">set_addressing</text>
</a>
</g>
</g>
<!-- Node328&#45;&gt;Node331 -->
<g id="edge10" class="edge"><title>Node328&#45;&gt;Node331</title>
<path fill="none" stroke="midnightblue" d="M418.739,-113.505C432.565,-118.439 449.912,-124.628 465.024,-130.02"/>
<polygon fill="midnightblue" stroke="midnightblue" points="463.978,-133.363 474.573,-133.427 466.331,-126.77 463.978,-133.363"/>
</g>
<!-- Node332 -->
<g id="node12" class="node"><title>Node332</title>
<g id="a_node12"><a xlink:href="oled__control_8c.html#a16eb842aa672ca44820ae6d5f9933425" target="_top" xlink:title="Soft_I2C_Stop">
<polygon fill="none" stroke="black" points="465.5,-57.5 465.5,-75.5 536.5,-75.5 536.5,-57.5 465.5,-57.5"/>
<text text-anchor="middle" x="501" y="-64.3" font-family="Calibri" font-size="9.00">Soft_I2C_Stop</text>
</a>
</g>
</g>
<!-- Node328&#45;&gt;Node332 -->
<g id="edge13" class="edge"><title>Node328&#45;&gt;Node332</title>
<path fill="none" stroke="midnightblue" d="M418.739,-95.4945C432.565,-90.5615 449.912,-84.3719 465.024,-78.9796"/>
<polygon fill="midnightblue" stroke="midnightblue" points="466.331,-82.2296 474.573,-75.5725 463.978,-75.6367 466.331,-82.2296"/>
</g>
<!-- Node331&#45;&gt;Node329 -->
<g id="edge11" class="edge"><title>Node331&#45;&gt;Node329</title>
<path fill="none" stroke="midnightblue" d="M541.172,-142.5C550.064,-142.5 559.579,-142.5 568.701,-142.5"/>
<polygon fill="midnightblue" stroke="midnightblue" points="568.779,-146 578.779,-142.5 568.779,-139 568.779,-146"/>
</g>
<!-- Node331&#45;&gt;Node330 -->
<g id="edge12" class="edge"><title>Node331&#45;&gt;Node330</title>
<path fill="none" stroke="midnightblue" d="M528.542,-133.495C543.22,-128.515 561.673,-122.254 577.671,-116.826"/>
<polygon fill="midnightblue" stroke="midnightblue" points="578.915,-120.1 587.26,-113.573 576.666,-113.471 578.915,-120.1"/>
</g>
<!-- Node333&#45;&gt;Node329 -->
<g id="edge15" class="edge"><title>Node333&#45;&gt;Node329</title>
<path fill="none" stroke="midnightblue" d="M420.078,-39.5501C451.552,-31.8146 504.322,-24.2892 541,-47.5 572.583,-67.4866 550.998,-96.6516 577,-123.5 578.551,-125.102 580.266,-126.593 582.083,-127.978"/>
<polygon fill="midnightblue" stroke="midnightblue" points="580.201,-130.929 590.509,-133.376 583.977,-125.035 580.201,-130.929"/>
</g>
<!-- Node333&#45;&gt;Node330 -->
<g id="edge16" class="edge"><title>Node333&#45;&gt;Node330</title>
<path fill="none" stroke="midnightblue" d="M408.019,-38.2803C435.29,-22.2266 495.517,7.17186 541,-14.5 572.045,-29.2923 594.177,-64.4545 605.459,-86.1903"/>
<polygon fill="midnightblue" stroke="midnightblue" points="602.427,-87.9569 609.994,-95.3727 608.704,-84.8568 602.427,-87.9569"/>
</g>
<!-- Node333&#45;&gt;Node332 -->
<g id="edge17" class="edge"><title>Node333&#45;&gt;Node332</title>
<path fill="none" stroke="midnightblue" d="M420.1,-52.2455C430.785,-54.1518 443.4,-56.4023 455.411,-58.5451"/>
<polygon fill="midnightblue" stroke="midnightblue" points="454.842,-61.9989 465.302,-60.3097 456.072,-55.1077 454.842,-61.9989"/>
</g>
</g>
</svg>
