<?xml version="1.0" encoding="UTF-8" standalone="no"?>
<!DOCTYPE svg PUBLIC "-//W3C//DTD SVG 1.1//EN"
 "http://www.w3.org/Graphics/SVG/1.1/DTD/svg11.dtd">
<!-- Generated by graphviz version 2.38.0 (20140413.2041)
 -->
<!-- Title: lcd_pwr Pages: 1 -->
<svg width="689pt" height="328pt"
 viewBox="0.00 0.00 689.00 328.00" xmlns="http://www.w3.org/2000/svg" xmlns:xlink="http://www.w3.org/1999/xlink">
<g id="graph0" class="graph" transform="scale(1 1) rotate(0) translate(4 324)">
<title>lcd_pwr</title>
<!-- Node152 -->
<g id="node1" class="node"><title>Node152</title>
<polygon fill="#bfbfbf" stroke="black" points="0,-168.5 0,-186.5 48,-186.5 48,-168.5 0,-168.5"/>
<text text-anchor="middle" x="24" y="-175.3" font-family="Calibri" font-size="9.00">lcd_pwr</text>
</g>
<!-- Node153 -->
<g id="node2" class="node"><title>Node153</title>
<g id="a_node2"><a xlink:href="main_8c.html#a593218c5fe00b499d494826fc0aa5279" target="_top" xlink:title="button_delay">
<polygon fill="none" stroke="black" points="84,-301.5 84,-319.5 155,-319.5 155,-301.5 84,-301.5"/>
<text text-anchor="middle" x="119.5" y="-308.3" font-family="Calibri" font-size="9.00">button_delay</text>
</a>
</g>
</g>
<!-- Node152&#45;&gt;Node153 -->
<g id="edge1" class="edge"><title>Node152&#45;&gt;Node153</title>
<path fill="none" stroke="midnightblue" d="M28.2274,-186.557C35.6384,-206.42 55.4581,-254.579 84,-286.5 86.8997,-289.743 90.3203,-292.777 93.8616,-295.524"/>
<polygon fill="midnightblue" stroke="midnightblue" points="91.967,-298.471 102.156,-301.375 96.0019,-292.751 91.967,-298.471"/>
</g>
<!-- Node154 -->
<g id="node3" class="node"><title>Node154</title>
<g id="a_node3"><a xlink:href="oled__control_8c.html#a2c663a2db505aa3f2271f6cf4bae1521" target="_top" xlink:title="dysp_on">
<polygon fill="none" stroke="black" points="394.5,-263.5 394.5,-281.5 444.5,-281.5 444.5,-263.5 394.5,-263.5"/>
<text text-anchor="middle" x="419.5" y="-270.3" font-family="Calibri" font-size="9.00">dysp_on</text>
</a>
</g>
</g>
<!-- Node152&#45;&gt;Node154 -->
<g id="edge2" class="edge"><title>Node152&#45;&gt;Node154</title>
<path fill="none" stroke="midnightblue" d="M34.0555,-186.809C44.8861,-197.326 64.0659,-214.072 84,-222.5 187.018,-266.053 321.922,-272.475 384.227,-272.91"/>
<polygon fill="midnightblue" stroke="midnightblue" points="384.284,-276.41 394.291,-272.931 384.299,-269.41 384.284,-276.41"/>
</g>
<!-- Node160 -->
<g id="node9" class="node"><title>Node160</title>
<g id="a_node9"><a xlink:href="main_8h.html#ab37ca657b79c6b9176cb63e9d812a182" target="_top" xlink:title="get_pwr">
<polygon fill="none" stroke="black" points="95,-93.5 95,-111.5 144,-111.5 144,-93.5 95,-93.5"/>
<text text-anchor="middle" x="119.5" y="-100.3" font-family="Calibri" font-size="9.00">get_pwr</text>
</a>
</g>
</g>
<!-- Node152&#45;&gt;Node160 -->
<g id="edge11" class="edge"><title>Node152&#45;&gt;Node160</title>
<path fill="none" stroke="midnightblue" d="M36.4649,-168.304C52.1113,-155.753 80.3645,-133.09 99.2789,-117.918"/>
<polygon fill="midnightblue" stroke="midnightblue" points="101.623,-120.525 107.233,-111.537 97.2428,-115.064 101.623,-120.525"/>
</g>
<!-- Node164 -->
<g id="node13" class="node"><title>Node164</title>
<g id="a_node13"><a xlink:href="main_8c.html#aa8fd50019a763561abc6621bb224417f" target="_top" xlink:title="lcd_swr">
<polygon fill="none" stroke="black" points="200,-187.5 200,-205.5 247,-205.5 247,-187.5 200,-187.5"/>
<text text-anchor="middle" x="223.5" y="-194.3" font-family="Calibri" font-size="9.00">lcd_swr</text>
</a>
</g>
</g>
<!-- Node152&#45;&gt;Node164 -->
<g id="edge15" class="edge"><title>Node152&#45;&gt;Node164</title>
<path fill="none" stroke="midnightblue" d="M48.0423,-179.717C83.0701,-183.086 149.859,-189.512 189.866,-193.361"/>
<polygon fill="midnightblue" stroke="midnightblue" points="189.619,-196.853 199.908,-194.327 190.289,-189.885 189.619,-196.853"/>
</g>
<!-- Node165 -->
<g id="node14" class="node"><title>Node165</title>
<g id="a_node14"><a xlink:href="oled__control_8c.html#a9d56c6c2e653b24a0caf505492ad818a" target="_top" xlink:title="led_wr_str">
<polygon fill="none" stroke="black" points="292,-187.5 292,-205.5 351,-205.5 351,-187.5 292,-187.5"/>
<text text-anchor="middle" x="321.5" y="-194.3" font-family="Calibri" font-size="9.00">led_wr_str</text>
</a>
</g>
</g>
<!-- Node152&#45;&gt;Node165 -->
<g id="edge25" class="edge"><title>Node152&#45;&gt;Node165</title>
<path fill="none" stroke="midnightblue" d="M44.8228,-186.561C56.0953,-191.373 70.5974,-196.999 84,-200.5 158.244,-219.893 180.051,-226.454 256,-215.5 265.947,-214.065 276.499,-211.447 286.123,-208.603"/>
<polygon fill="midnightblue" stroke="midnightblue" points="287.25,-211.918 295.753,-205.598 285.165,-205.236 287.25,-211.918"/>
</g>
<!-- Node168 -->
<g id="node17" class="node"><title>Node168</title>
<g id="a_node17"><a xlink:href="main_8h.html#a2a7963b9b09696c6654b96c67900c6ea" target="_top" xlink:title="set_cap">
<polygon fill="none" stroke="black" points="95.5,-56.5 95.5,-74.5 143.5,-74.5 143.5,-56.5 95.5,-56.5"/>
<text text-anchor="middle" x="119.5" y="-63.3" font-family="Calibri" font-size="9.00">set_cap</text>
</a>
</g>
</g>
<!-- Node152&#45;&gt;Node168 -->
<g id="edge26" class="edge"><title>Node152&#45;&gt;Node168</title>
<path fill="none" stroke="midnightblue" d="M28.9494,-168.248C37.0251,-150.214 56.9706,-109.905 84,-84.5 85.6598,-82.94 87.4718,-81.4642 89.3683,-80.0772"/>
<polygon fill="midnightblue" stroke="midnightblue" points="91.4542,-82.8985 98.0139,-74.5785 87.6975,-76.9919 91.4542,-82.8985"/>
</g>
<!-- Node169 -->
<g id="node18" class="node"><title>Node169</title>
<g id="a_node18"><a xlink:href="main_8h.html#aecc83cd8bceb4bc24be844732ead2c2c" target="_top" xlink:title="set_ind">
<polygon fill="none" stroke="black" points="96,-19.5 96,-37.5 143,-37.5 143,-19.5 96,-19.5"/>
<text text-anchor="middle" x="119.5" y="-26.3" font-family="Calibri" font-size="9.00">set_ind</text>
</a>
</g>
</g>
<!-- Node152&#45;&gt;Node169 -->
<g id="edge27" class="edge"><title>Node152&#45;&gt;Node169</title>
<path fill="none" stroke="midnightblue" d="M27.063,-168.181C32.5825,-145.126 49.6567,-84.6081 84,-47.5 85.3585,-46.0321 86.857,-44.6516 88.4457,-43.3577"/>
<polygon fill="midnightblue" stroke="midnightblue" points="90.6066,-46.121 96.911,-37.606 86.6726,-40.331 90.6066,-46.121"/>
</g>
<!-- Node170 -->
<g id="node19" class="node"><title>Node170</title>
<g id="a_node19"><a xlink:href="main_8c.html#a4ae0d4fa97fc0ca3611813fee4f9af7c" target="_top" xlink:title="show_pwr">
<polygon fill="none" stroke="black" points="90.5,-149.5 90.5,-167.5 148.5,-167.5 148.5,-149.5 90.5,-149.5"/>
<text text-anchor="middle" x="119.5" y="-156.3" font-family="Calibri" font-size="9.00">show_pwr</text>
</a>
</g>
</g>
<!-- Node152&#45;&gt;Node170 -->
<g id="edge28" class="edge"><title>Node152&#45;&gt;Node170</title>
<path fill="none" stroke="midnightblue" d="M48.1124,-172.803C57.8836,-170.818 69.5244,-168.452 80.4983,-166.222"/>
<polygon fill="midnightblue" stroke="midnightblue" points="81.2135,-169.649 90.3162,-164.227 79.8194,-162.789 81.2135,-169.649"/>
</g>
<!-- Node155 -->
<g id="node4" class="node"><title>Node155</title>
<g id="a_node4"><a xlink:href="oled__control_8c.html#ad141ed038278a6fcad6c307932f01ec8" target="_top" xlink:title="send_command">
<polygon fill="none" stroke="black" points="488,-263.5 488,-281.5 569,-281.5 569,-263.5 488,-263.5"/>
<text text-anchor="middle" x="528.5" y="-270.3" font-family="Calibri" font-size="9.00">send_command</text>
</a>
</g>
</g>
<!-- Node154&#45;&gt;Node155 -->
<g id="edge3" class="edge"><title>Node154&#45;&gt;Node155</title>
<path fill="none" stroke="midnightblue" d="M444.513,-272.5C454.33,-272.5 466.073,-272.5 477.594,-272.5"/>
<polygon fill="midnightblue" stroke="midnightblue" points="477.606,-276 487.606,-272.5 477.606,-269 477.606,-276"/>
</g>
<!-- Node159 -->
<g id="node8" class="node"><title>Node159</title>
<g id="a_node8"><a xlink:href="oled__control_8c.html#ad25764a33e482f4e9db2701198e02551" target="_top" xlink:title="led_send">
<polygon fill="none" stroke="black" points="501,-226.5 501,-244.5 556,-244.5 556,-226.5 501,-226.5"/>
<text text-anchor="middle" x="528.5" y="-233.3" font-family="Calibri" font-size="9.00">led_send</text>
</a>
</g>
</g>
<!-- Node154&#45;&gt;Node159 -->
<g id="edge7" class="edge"><title>Node154&#45;&gt;Node159</title>
<path fill="none" stroke="midnightblue" d="M444.513,-264.196C458.362,-259.408 476.045,-253.293 491.526,-247.94"/>
<polygon fill="midnightblue" stroke="midnightblue" points="493.012,-251.129 501.32,-244.553 490.725,-244.513 493.012,-251.129"/>
</g>
<!-- Node156 -->
<g id="node5" class="node"><title>Node156</title>
<g id="a_node5"><a xlink:href="oled__control_8c.html#ab7f6b5c6c1483f6286f2de5786c028d9" target="_top" xlink:title="Soft_I2C_Start">
<polygon fill="none" stroke="black" points="607,-207.5 607,-225.5 679,-225.5 679,-207.5 607,-207.5"/>
<text text-anchor="middle" x="643" y="-214.3" font-family="Calibri" font-size="9.00">Soft_I2C_Start</text>
</a>
</g>
</g>
<!-- Node155&#45;&gt;Node156 -->
<g id="edge4" class="edge"><title>Node155&#45;&gt;Node156</title>
<path fill="none" stroke="midnightblue" d="M550.097,-263.36C556.212,-260.581 562.904,-257.473 569,-254.5 584.86,-246.765 602.407,-237.649 616.322,-230.285"/>
<polygon fill="midnightblue" stroke="midnightblue" points="618.124,-233.291 625.31,-225.505 614.837,-227.111 618.124,-233.291"/>
</g>
<!-- Node157 -->
<g id="node6" class="node"><title>Node157</title>
<g id="a_node6"><a xlink:href="oled__control_8c.html#a73610916645f17c19124e697b005f694" target="_top" xlink:title="Soft_I2C_Write">
<polygon fill="none" stroke="black" points="605,-160.5 605,-178.5 681,-178.5 681,-160.5 605,-160.5"/>
<text text-anchor="middle" x="643" y="-167.3" font-family="Calibri" font-size="9.00">Soft_I2C_Write</text>
</a>
</g>
</g>
<!-- Node155&#45;&gt;Node157 -->
<g id="edge5" class="edge"><title>Node155&#45;&gt;Node157</title>
<path fill="none" stroke="midnightblue" d="M555.026,-263.474C559.978,-261.029 564.898,-258.051 569,-254.5 591.37,-235.135 585.078,-220.376 605,-198.5 609.365,-193.706 614.584,-189.096 619.706,-185.015"/>
<polygon fill="midnightblue" stroke="midnightblue" points="622.19,-187.526 628.068,-178.711 617.976,-181.937 622.19,-187.526"/>
</g>
<!-- Node158 -->
<g id="node7" class="node"><title>Node158</title>
<g id="a_node7"><a xlink:href="oled__control_8c.html#a16eb842aa672ca44820ae6d5f9933425" target="_top" xlink:title="Soft_I2C_Stop">
<polygon fill="none" stroke="black" points="607.5,-263.5 607.5,-281.5 678.5,-281.5 678.5,-263.5 607.5,-263.5"/>
<text text-anchor="middle" x="643" y="-270.3" font-family="Calibri" font-size="9.00">Soft_I2C_Stop</text>
</a>
</g>
</g>
<!-- Node155&#45;&gt;Node158 -->
<g id="edge6" class="edge"><title>Node155&#45;&gt;Node158</title>
<path fill="none" stroke="midnightblue" d="M569.163,-272.5C578.172,-272.5 587.804,-272.5 597.016,-272.5"/>
<polygon fill="midnightblue" stroke="midnightblue" points="597.182,-276 607.182,-272.5 597.182,-269 597.182,-276"/>
</g>
<!-- Node159&#45;&gt;Node156 -->
<g id="edge8" class="edge"><title>Node159&#45;&gt;Node156</title>
<path fill="none" stroke="midnightblue" d="M556.161,-230.997C568.173,-228.968 582.703,-226.515 596.365,-224.207"/>
<polygon fill="midnightblue" stroke="midnightblue" points="597.31,-227.597 606.588,-222.481 596.144,-220.695 597.31,-227.597"/>
</g>
<!-- Node159&#45;&gt;Node157 -->
<g id="edge9" class="edge"><title>Node159&#45;&gt;Node157</title>
<path fill="none" stroke="midnightblue" d="M545.143,-226.323C563.949,-215.29 595.724,-196.649 617.726,-183.741"/>
<polygon fill="midnightblue" stroke="midnightblue" points="619.636,-186.678 626.49,-178.599 616.094,-180.64 619.636,-186.678"/>
</g>
<!-- Node159&#45;&gt;Node158 -->
<g id="edge10" class="edge"><title>Node159&#45;&gt;Node158</title>
<path fill="none" stroke="midnightblue" d="M556.161,-244.268C570.689,-249.047 588.899,-255.036 604.804,-260.267"/>
<polygon fill="midnightblue" stroke="midnightblue" points="603.763,-263.609 614.356,-263.408 605.95,-256.959 603.763,-263.609"/>
</g>
<!-- Node161 -->
<g id="node10" class="node"><title>Node161</title>
<g id="a_node10"><a xlink:href="main_8h.html#ab19e6e081315a9a200394b74d10de395" target="_top" xlink:title="correction">
<polygon fill="none" stroke="black" points="195,-74.5 195,-92.5 252,-92.5 252,-74.5 195,-74.5"/>
<text text-anchor="middle" x="223.5" y="-81.3" font-family="Calibri" font-size="9.00">correction</text>
</a>
</g>
</g>
<!-- Node160&#45;&gt;Node161 -->
<g id="edge12" class="edge"><title>Node160&#45;&gt;Node161</title>
<path fill="none" stroke="midnightblue" d="M144.157,-98.0933C156.257,-95.8394 171.271,-93.0426 184.909,-90.5023"/>
<polygon fill="midnightblue" stroke="midnightblue" points="185.808,-93.895 194.998,-88.6229 184.526,-87.0134 185.808,-93.895"/>
</g>
<!-- Node162 -->
<g id="node11" class="node"><title>Node162</title>
<g id="a_node11"><a xlink:href="main_8h.html#acfd46f8711e9c1c20fffdfc8bdaa0ddd" target="_top" xlink:title="get_forward">
<polygon fill="none" stroke="black" points="191,-37.5 191,-55.5 256,-55.5 256,-37.5 191,-37.5"/>
<text text-anchor="middle" x="223.5" y="-44.3" font-family="Calibri" font-size="9.00">get_forward</text>
</a>
</g>
</g>
<!-- Node160&#45;&gt;Node162 -->
<g id="edge13" class="edge"><title>Node160&#45;&gt;Node162</title>
<path fill="none" stroke="midnightblue" d="M138.108,-93.4505C143.544,-90.6203 149.536,-87.4624 155,-84.5 169.226,-76.7873 184.991,-67.9297 197.706,-60.7074"/>
<polygon fill="midnightblue" stroke="midnightblue" points="199.802,-63.5411 206.758,-55.5493 196.337,-57.4591 199.802,-63.5411"/>
</g>
<!-- Node163 -->
<g id="node12" class="node"><title>Node163</title>
<g id="a_node12"><a xlink:href="main_8h.html#aa6b9a2b3d88f578ba6a9fefd911eae75" target="_top" xlink:title="get_reverse">
<polygon fill="none" stroke="black" points="191.5,-0.5 191.5,-18.5 255.5,-18.5 255.5,-0.5 191.5,-0.5"/>
<text text-anchor="middle" x="223.5" y="-7.3" font-family="Calibri" font-size="9.00">get_reverse</text>
</a>
</g>
</g>
<!-- Node160&#45;&gt;Node163 -->
<g id="edge14" class="edge"><title>Node160&#45;&gt;Node163</title>
<path fill="none" stroke="midnightblue" d="M142.081,-93.4756C146.648,-90.9772 151.223,-87.9779 155,-84.5 177.042,-64.204 169.35,-48.214 191,-27.5 192.109,-26.4386 193.293,-25.4162 194.527,-24.4349"/>
<polygon fill="midnightblue" stroke="midnightblue" points="196.838,-27.0961 203.139,-18.5791 192.902,-21.3073 196.838,-27.0961"/>
</g>
<!-- Node164&#45;&gt;Node165 -->
<g id="edge16" class="edge"><title>Node164&#45;&gt;Node165</title>
<path fill="none" stroke="midnightblue" d="M247.251,-196.5C257.543,-196.5 270,-196.5 281.7,-196.5"/>
<polygon fill="midnightblue" stroke="midnightblue" points="281.713,-200 291.713,-196.5 281.713,-193 281.713,-200"/>
</g>
<!-- Node165&#45;&gt;Node159 -->
<g id="edge24" class="edge"><title>Node165&#45;&gt;Node159</title>
<path fill="none" stroke="midnightblue" d="M349.894,-205.525C361.275,-209.024 374.68,-212.823 387,-215.5 421.799,-223.06 462.09,-228.459 490.579,-231.727"/>
<polygon fill="midnightblue" stroke="midnightblue" points="490.557,-235.246 500.883,-232.875 491.332,-228.289 490.557,-235.246"/>
</g>
<!-- Node166 -->
<g id="node15" class="node"><title>Node166</title>
<g id="a_node15"><a xlink:href="oled__control_8c.html#a7c3a2e5f1fed76dc27692132a2574d27" target="_top" xlink:title="oled_wr_str">
<polygon fill="none" stroke="black" points="387,-187.5 387,-205.5 452,-205.5 452,-187.5 387,-187.5"/>
<text text-anchor="middle" x="419.5" y="-194.3" font-family="Calibri" font-size="9.00">oled_wr_str</text>
</a>
</g>
</g>
<!-- Node165&#45;&gt;Node166 -->
<g id="edge17" class="edge"><title>Node165&#45;&gt;Node166</title>
<path fill="none" stroke="midnightblue" d="M351.043,-196.5C359.147,-196.5 368.142,-196.5 376.852,-196.5"/>
<polygon fill="midnightblue" stroke="midnightblue" points="376.877,-200 386.877,-196.5 376.877,-193 376.877,-200"/>
</g>
<!-- Node166&#45;&gt;Node156 -->
<g id="edge18" class="edge"><title>Node166&#45;&gt;Node156</title>
<path fill="none" stroke="midnightblue" d="M452.236,-199.366C490.03,-202.778 553.441,-208.504 596.462,-212.388"/>
<polygon fill="midnightblue" stroke="midnightblue" points="596.387,-215.896 606.662,-213.309 597.017,-208.924 596.387,-215.896"/>
</g>
<!-- Node166&#45;&gt;Node157 -->
<g id="edge19" class="edge"><title>Node166&#45;&gt;Node157</title>
<path fill="none" stroke="midnightblue" d="M428.037,-187.248C439.408,-174.107 462.365,-150.622 488,-141.5 530.738,-126.293 583.222,-142.824 614.568,-156.168"/>
<polygon fill="midnightblue" stroke="midnightblue" points="613.404,-159.481 623.963,-160.344 616.247,-153.084 613.404,-159.481"/>
</g>
<!-- Node166&#45;&gt;Node158 -->
<g id="edge23" class="edge"><title>Node166&#45;&gt;Node158</title>
<path fill="none" stroke="midnightblue" d="M425.635,-205.818C438,-227.864 469.752,-282.08 488,-291.5 527.916,-312.105 581.171,-297.806 613.452,-285.331"/>
<polygon fill="midnightblue" stroke="midnightblue" points="614.806,-288.559 622.759,-281.559 612.177,-282.071 614.806,-288.559"/>
</g>
<!-- Node167 -->
<g id="node16" class="node"><title>Node167</title>
<g id="a_node16"><a xlink:href="oled__control_8c.html#a6df77e8ec83c50ed6a5ddaf54aa3a9c2" target="_top" xlink:title="set_addressing">
<polygon fill="none" stroke="black" points="488.5,-150.5 488.5,-168.5 568.5,-168.5 568.5,-150.5 488.5,-150.5"/>
<text text-anchor="middle" x="528.5" y="-157.3" font-family="Calibri" font-size="9.00">set_addressing</text>
</a>
</g>
</g>
<!-- Node166&#45;&gt;Node167 -->
<g id="edge20" class="edge"><title>Node166&#45;&gt;Node167</title>
<path fill="none" stroke="midnightblue" d="M446.675,-187.449C460.147,-182.79 476.779,-177.039 491.447,-171.967"/>
<polygon fill="midnightblue" stroke="midnightblue" points="492.917,-175.162 501.224,-168.586 490.629,-168.546 492.917,-175.162"/>
</g>
<!-- Node167&#45;&gt;Node156 -->
<g id="edge21" class="edge"><title>Node167&#45;&gt;Node156</title>
<path fill="none" stroke="midnightblue" d="M547.326,-168.532C565.486,-177.733 593.881,-192.12 614.841,-202.74"/>
<polygon fill="midnightblue" stroke="midnightblue" points="613.383,-205.924 623.885,-207.322 616.546,-199.68 613.383,-205.924"/>
</g>
<!-- Node167&#45;&gt;Node157 -->
<g id="edge22" class="edge"><title>Node167&#45;&gt;Node157</title>
<path fill="none" stroke="midnightblue" d="M568.531,-162.969C577.015,-163.724 586.078,-164.529 594.838,-165.308"/>
<polygon fill="midnightblue" stroke="midnightblue" points="594.66,-168.806 604.931,-166.205 595.28,-161.833 594.66,-168.806"/>
</g>
<!-- Node170&#45;&gt;Node165 -->
<g id="edge29" class="edge"><title>Node170&#45;&gt;Node165</title>
<path fill="none" stroke="midnightblue" d="M148.711,-161.616C176.248,-164.904 219.249,-170.692 256,-178.5 264.501,-180.306 273.536,-182.592 282.07,-184.924"/>
<polygon fill="midnightblue" stroke="midnightblue" points="281.22,-188.321 291.794,-187.656 283.114,-181.581 281.22,-188.321"/>
</g>
<!-- Node171 -->
<g id="node20" class="node"><title>Node171</title>
<g id="a_node20"><a xlink:href="main_8c.html#a6911b3f075cdf1d54cb14f17f6e5ef6b" target="_top" xlink:title="lcd_ind">
<polygon fill="none" stroke="black" points="200,-111.5 200,-129.5 247,-129.5 247,-111.5 200,-111.5"/>
<text text-anchor="middle" x="223.5" y="-118.3" font-family="Calibri" font-size="9.00">lcd_ind</text>
</a>
</g>
</g>
<!-- Node170&#45;&gt;Node171 -->
<g id="edge30" class="edge"><title>Node170&#45;&gt;Node171</title>
<path fill="none" stroke="midnightblue" d="M144.673,-149.495C158.266,-144.43 175.415,-138.041 190.153,-132.551"/>
<polygon fill="midnightblue" stroke="midnightblue" points="191.75,-135.691 199.898,-128.92 189.306,-129.132 191.75,-135.691"/>
</g>
<!-- Node171&#45;&gt;Node165 -->
<g id="edge31" class="edge"><title>Node171&#45;&gt;Node165</title>
<path fill="none" stroke="midnightblue" d="M236.526,-129.54C242.423,-134.005 249.615,-139.495 256,-144.5 271.269,-156.468 288.352,-170.259 301.1,-180.63"/>
<polygon fill="midnightblue" stroke="midnightblue" points="299.195,-183.593 309.157,-187.2 303.619,-178.168 299.195,-183.593"/>
</g>
</g>
</svg>
