<?xml version="1.0" encoding="UTF-8" standalone="no"?>
<!DOCTYPE svg PUBLIC "-//W3C//DTD SVG 1.1//EN"
 "http://www.w3.org/Graphics/SVG/1.1/DTD/svg11.dtd">
<!-- Generated by graphviz version 2.38.0 (20140413.2041)
 -->
<!-- Title: coarse_cap Pages: 1 -->
<!--zoomable 383 -->
<svg id="main" version="1.1" xmlns="http://www.w3.org/2000/svg" xmlns:xlink="http://www.w3.org/1999/xlink" xml:space="preserve" onload="init(evt)">
<style type="text/css"><![CDATA[
.edge:hover path { stroke: red; }
.edge:hover polygon { stroke: red; fill: red; }
]]></style>
<script type="text/javascript"><![CDATA[
var edges = document.getElementsByTagName('g');
if (edges && edges.length) {
  for (var i=0;i<edges.length;i++) {
    if (edges[i].id.substr(0,4)=='edge') {
      edges[i].setAttribute('class','edge');
    }
  }
}
]]></script>
        <defs>
                <circle id="rim" cx="0" cy="0" r="7"/>
                <circle id="rim2" cx="0" cy="0" r="3.5"/>
                <g id="zoomPlus">
                        <use xlink:href="#rim" fill="#404040">
                                <set attributeName="fill" to="#808080" begin="zoomplus.mouseover" end="zoomplus.mouseout"/>
                        </use>
                        <path d="M-4,0h8M0,-4v8" fill="none" stroke="white" stroke-width="1.5" pointer-events="none"/>
                </g>
                <g id="zoomMin">
                        <use xlink:href="#rim" fill="#404040">
                                <set attributeName="fill" to="#808080" begin="zoomminus.mouseover" end="zoomminus.mouseout"/>
                        </use>
                        <path d="M-4,0h8" fill="none" stroke="white" stroke-width="1.5" pointer-events="none"/>
                </g>
                <g id="dirArrow">
                        <path fill="none" stroke="white" stroke-width="1.5" d="M0,-3.0v7 M-2.5,-0.5L0,-3.0L2.5,-0.5"/>
                </g>
               <g id="resetDef">
                       <use xlink:href="#rim2" fill="#404040">
                               <set attributeName="fill" to="#808080" begin="reset.mouseover" end="reset.mouseout"/>
                       </use>
               </g>
        </defs>

<script type="text/javascript">
var viewWidth = 682;
var viewHeight = 383;
var sectionId = 'dynsection-11';
</script>
<script xlink:href="svgpan.js"/>
<svg id="graph" class="graph">
<g id="viewport">
<title>coarse_cap</title>
<!-- Node1 -->
<g id="node1" class="node"><title>Node1</title>
<g id="a_node1"><a xlink:title=" ">
<polygon fill="#bfbfbf" stroke="black" points="0,-219.204 0,-237.204 62,-237.204 62,-219.204 0,-219.204"/>
<text text-anchor="middle" x="31" y="-226.004" font-family="Calibri" font-size="9.00">coarse_cap</text>
</a>
</g>
</g>
<!-- Node2 -->
<g id="node2" class="node"><title>Node2</title>
<g id="a_node2"><a xlink:href="main_8h.html#ad7eb7423e0b17ccfba1ae42f3a3274e0" target="_top" xlink:title=" ">
<polygon fill="none" stroke="black" points="98,-50.2043 98,-68.2043 146,-68.2043 146,-50.2043 98,-50.2043"/>
<text text-anchor="middle" x="122" y="-57.0043" font-family="Calibri" font-size="9.00">get_swr</text>
</a>
</g>
</g>
<!-- Node1&#45;&gt;Node2 -->
<g id="edge1" class="edge"><title>Node1&#45;&gt;Node2</title>
<path fill="none" stroke="midnightblue" d="M36.785,-219.118C50.9103,-192.296 92.6181,-113.098 111.51,-77.225"/>
<polygon fill="midnightblue" stroke="midnightblue" points="114.628,-78.8143 116.191,-68.3354 108.435,-75.5526 114.628,-78.8143"/>
</g>
<!-- Node12 -->
<g id="node12" class="node"><title>Node12</title>
<g id="a_node12"><a xlink:href="main_8h.html#a2a7963b9b09696c6654b96c67900c6ea" target="_top" xlink:title=" ">
<polygon fill="none" stroke="black" points="385.5,-356.204 385.5,-374.204 433.5,-374.204 433.5,-356.204 385.5,-356.204"/>
<text text-anchor="middle" x="409.5" y="-363.004" font-family="Calibri" font-size="9.00">set_cap</text>
</a>
</g>
</g>
<!-- Node1&#45;&gt;Node12 -->
<g id="edge36" class="edge"><title>Node1&#45;&gt;Node12</title>
<path fill="none" stroke="midnightblue" d="M47.4659,-237.344C85.7811,-259.556 188.758,-316.641 282,-345.204 312.83,-354.649 349.325,-359.811 375.173,-362.512"/>
<polygon fill="midnightblue" stroke="midnightblue" points="374.915,-366.003 385.208,-363.493 375.596,-359.037 374.915,-366.003"/>
</g>
<!-- Node3 -->
<g id="node3" class="node"><title>Node3</title>
<g id="a_node3"><a xlink:href="main_8h.html#ab37ca657b79c6b9176cb63e9d812a182" target="_top" xlink:title=" ">
<polygon fill="none" stroke="black" points="385,-93.2043 385,-111.204 434,-111.204 434,-93.2043 385,-93.2043"/>
<text text-anchor="middle" x="409.5" y="-100.004" font-family="Calibri" font-size="9.00">get_pwr</text>
</a>
</g>
</g>
<!-- Node2&#45;&gt;Node3 -->
<g id="edge2" class="edge"><title>Node2&#45;&gt;Node3</title>
<path fill="none" stroke="midnightblue" d="M146.169,-61.6852C170.928,-64.4169 211.308,-69.1032 246,-74.2043 290.725,-80.7806 342.103,-89.8975 374.909,-95.9186"/>
<polygon fill="midnightblue" stroke="midnightblue" points="374.407,-99.3849 384.876,-97.7575 375.677,-92.5011 374.407,-99.3849"/>
</g>
<!-- Node7 -->
<g id="node7" class="node"><title>Node7</title>
<g id="a_node7"><a xlink:href="main_8c.html#a4ae0d4fa97fc0ca3611813fee4f9af7c" target="_top" xlink:title=" ">
<polygon fill="none" stroke="black" points="380.5,-17.2043 380.5,-35.2043 438.5,-35.2043 438.5,-17.2043 380.5,-17.2043"/>
<text text-anchor="middle" x="409.5" y="-24.0043" font-family="Calibri" font-size="9.00">show_pwr</text>
</a>
</g>
</g>
<!-- Node2&#45;&gt;Node7 -->
<g id="edge6" class="edge"><title>Node2&#45;&gt;Node7</title>
<path fill="none" stroke="midnightblue" d="M130.661,-50.1417C140.964,-38.7348 160.49,-19.7246 182,-12.2043 245.273,9.91724 324.484,-3.5477 370.503,-15.0693"/>
<polygon fill="midnightblue" stroke="midnightblue" points="369.794,-18.5013 380.353,-17.6338 371.558,-11.7272 369.794,-18.5013"/>
</g>
<!-- Node10 -->
<g id="node10" class="node"><title>Node10</title>
<g id="a_node10"><a xlink:href="main_8c.html#a11724d8cce81ed96bec12a004ea3ea7a" target="_top" xlink:title=" ">
<polygon fill="none" stroke="black" points="182,-84.2043 182,-102.204 246,-102.204 246,-84.2043 182,-84.2043"/>
<text text-anchor="middle" x="214" y="-91.0043" font-family="Calibri" font-size="9.00">show_reset</text>
</a>
</g>
</g>
<!-- Node2&#45;&gt;Node10 -->
<g id="edge10" class="edge"><title>Node2&#45;&gt;Node10</title>
<path fill="none" stroke="midnightblue" d="M146.177,-67.9601C156.328,-71.7951 168.435,-76.3685 179.536,-80.5624"/>
<polygon fill="midnightblue" stroke="midnightblue" points="178.368,-83.8623 188.959,-84.1222 180.841,-77.314 178.368,-83.8623"/>
</g>
<!-- Node4 -->
<g id="node4" class="node"><title>Node4</title>
<g id="a_node4"><a xlink:href="main_8h.html#ab19e6e081315a9a200394b74d10de395" target="_top" xlink:title=" ">
<polygon fill="none" stroke="black" points="493,-166.204 493,-184.204 550,-184.204 550,-166.204 493,-166.204"/>
<text text-anchor="middle" x="521.5" y="-173.004" font-family="Calibri" font-size="9.00">correction</text>
</a>
</g>
</g>
<!-- Node3&#45;&gt;Node4 -->
<g id="edge3" class="edge"><title>Node3&#45;&gt;Node4</title>
<path fill="none" stroke="midnightblue" d="M430.459,-111.304C435.389,-113.902 440.534,-116.927 445,-120.204 463.242,-133.593 462.543,-143.115 481,-156.204 483.526,-157.995 486.246,-159.697 489.036,-161.293"/>
<polygon fill="midnightblue" stroke="midnightblue" points="487.547,-164.464 498.029,-166.007 490.797,-158.264 487.547,-164.464"/>
</g>
<!-- Node5 -->
<g id="node5" class="node"><title>Node5</title>
<g id="a_node5"><a xlink:href="main_8h.html#acfd46f8711e9c1c20fffdfc8bdaa0ddd" target="_top" xlink:title=" ">
<polygon fill="none" stroke="black" points="489,-129.204 489,-147.204 554,-147.204 554,-129.204 489,-129.204"/>
<text text-anchor="middle" x="521.5" y="-136.004" font-family="Calibri" font-size="9.00">get_forward</text>
</a>
</g>
</g>
<!-- Node3&#45;&gt;Node5 -->
<g id="edge4" class="edge"><title>Node3&#45;&gt;Node5</title>
<path fill="none" stroke="midnightblue" d="M434.098,-109.927C448.317,-114.581 466.748,-120.613 482.933,-125.91"/>
<polygon fill="midnightblue" stroke="midnightblue" points="482.07,-129.31 492.662,-129.094 484.247,-122.657 482.07,-129.31"/>
</g>
<!-- Node6 -->
<g id="node6" class="node"><title>Node6</title>
<g id="a_node6"><a xlink:href="main_8h.html#aa6b9a2b3d88f578ba6a9fefd911eae75" target="_top" xlink:title=" ">
<polygon fill="none" stroke="black" points="489.5,-92.2043 489.5,-110.204 553.5,-110.204 553.5,-92.2043 489.5,-92.2043"/>
<text text-anchor="middle" x="521.5" y="-99.0043" font-family="Calibri" font-size="9.00">get_reverse</text>
</a>
</g>
</g>
<!-- Node3&#45;&gt;Node6 -->
<g id="edge5" class="edge"><title>Node3&#45;&gt;Node6</title>
<path fill="none" stroke="midnightblue" d="M434.098,-101.99C447.228,-101.87 463.95,-101.718 479.178,-101.58"/>
<polygon fill="midnightblue" stroke="midnightblue" points="479.452,-105.078 489.419,-101.487 479.388,-98.078 479.452,-105.078"/>
</g>
<!-- Node8 -->
<g id="node8" class="node"><title>Node8</title>
<g id="a_node8"><a xlink:href="main_8c.html#a6911b3f075cdf1d54cb14f17f6e5ef6b" target="_top" xlink:title=" ">
<polygon fill="none" stroke="black" points="498,-55.2043 498,-73.2043 545,-73.2043 545,-55.2043 498,-55.2043"/>
<text text-anchor="middle" x="521.5" y="-62.0043" font-family="Calibri" font-size="9.00">lcd_ind</text>
</a>
</g>
</g>
<!-- Node7&#45;&gt;Node8 -->
<g id="edge7" class="edge"><title>Node7&#45;&gt;Node8</title>
<path fill="none" stroke="midnightblue" d="M436.568,-35.2098C452.037,-40.5533 471.773,-47.3712 488.22,-53.053"/>
<polygon fill="midnightblue" stroke="midnightblue" points="487.373,-56.4635 497.968,-56.4206 489.659,-49.8471 487.373,-56.4635"/>
</g>
<!-- Node9 -->
<g id="node9" class="node"><title>Node9</title>
<g id="a_node9"><a xlink:href="oled__control_8h.html#ab272af1010175ba1166b08b8b3df6874" target="_top" xlink:title=" ">
<polygon fill="none" stroke="black" points="606.5,-55.2043 606.5,-73.2043 665.5,-73.2043 665.5,-55.2043 606.5,-55.2043"/>
<text text-anchor="middle" x="636" y="-62.0043" font-family="Calibri" font-size="9.00">led_wr_str</text>
</a>
</g>
</g>
<!-- Node7&#45;&gt;Node9 -->
<g id="edge9" class="edge"><title>Node7&#45;&gt;Node9</title>
<path fill="none" stroke="midnightblue" d="M438.594,-28.6261C469.138,-31.5149 519.306,-37.0071 562,-45.2043 573.324,-47.3785 585.493,-50.3046 596.588,-53.2083"/>
<polygon fill="midnightblue" stroke="midnightblue" points="595.853,-56.635 606.419,-55.8464 597.668,-49.8742 595.853,-56.635"/>
</g>
<!-- Node8&#45;&gt;Node9 -->
<g id="edge8" class="edge"><title>Node8&#45;&gt;Node9</title>
<path fill="none" stroke="midnightblue" d="M545.266,-64.2043C559.835,-64.2043 579.114,-64.2043 596.068,-64.2043"/>
<polygon fill="midnightblue" stroke="midnightblue" points="596.261,-67.7044 606.261,-64.2043 596.261,-60.7044 596.261,-67.7044"/>
</g>
<!-- Node10&#45;&gt;Node8 -->
<g id="edge14" class="edge"><title>Node10&#45;&gt;Node8</title>
<path fill="none" stroke="midnightblue" d="M246.258,-90.2371C304.239,-84.7331 427.942,-72.9905 487.333,-67.3527"/>
<polygon fill="midnightblue" stroke="midnightblue" points="488.019,-70.8034 497.644,-66.374 487.358,-63.8347 488.019,-70.8034"/>
</g>
<!-- Node10&#45;&gt;Node9 -->
<g id="edge34" class="edge"><title>Node10&#45;&gt;Node9</title>
<path fill="none" stroke="midnightblue" d="M226.893,-84.0233C252.217,-65.1242 314.065,-22.3747 374,-7.20429 459.423,14.4174 561.804,-27.4468 608.926,-50.4752"/>
<polygon fill="midnightblue" stroke="midnightblue" points="607.607,-53.729 618.116,-55.0737 610.739,-47.4689 607.607,-53.729"/>
</g>
<!-- Node11 -->
<g id="node11" class="node"><title>Node11</title>
<g id="a_node11"><a xlink:href="main_8h.html#a9dff326a6079fe726285b11ee837ad60" target="_top" xlink:title=" ">
<polygon fill="none" stroke="black" points="282,-318.204 282,-336.204 338,-336.204 338,-318.204 282,-318.204"/>
<text text-anchor="middle" x="310" y="-325.004" font-family="Calibri" font-size="9.00">atu_reset</text>
</a>
</g>
</g>
<!-- Node10&#45;&gt;Node11 -->
<g id="edge11" class="edge"><title>Node10&#45;&gt;Node11</title>
<path fill="none" stroke="midnightblue" d="M218.685,-102.377C232.665,-137.178 282.593,-261.467 301.59,-308.758"/>
<polygon fill="midnightblue" stroke="midnightblue" points="298.365,-310.12 305.341,-318.095 304.861,-307.511 298.365,-310.12"/>
</g>
<!-- Node14 -->
<g id="node14" class="node"><title>Node14</title>
<g id="a_node14"><a xlink:href="main_8c.html#ae5a14b4884e85f47ad8a4a716f13203a" target="_top" xlink:title=" ">
<polygon fill="none" stroke="black" points="286,-187.204 286,-205.204 334,-205.204 334,-187.204 286,-187.204"/>
<text text-anchor="middle" x="310" y="-194.004" font-family="Calibri" font-size="9.00">lcd_pwr</text>
</a>
</g>
</g>
<!-- Node10&#45;&gt;Node14 -->
<g id="edge15" class="edge"><title>Node10&#45;&gt;Node14</title>
<path fill="none" stroke="midnightblue" d="M223.342,-102.345C239.119,-119.633 273.545,-157.355 293.62,-179.351"/>
<polygon fill="midnightblue" stroke="midnightblue" points="291.215,-181.909 300.542,-186.936 296.386,-177.19 291.215,-181.909"/>
</g>
<!-- Node23 -->
<g id="node23" class="node"><title>Node23</title>
<g id="a_node23"><a xlink:href="main_8h.html#ae0c1e0ec712704e43db40473f103d621" target="_top" xlink:title="Set the state of the switch.">
<polygon fill="none" stroke="black" points="387,-130.204 387,-148.204 432,-148.204 432,-130.204 387,-130.204"/>
<text text-anchor="middle" x="409.5" y="-137.004" font-family="Calibri" font-size="9.00">set_sw</text>
</a>
</g>
</g>
<!-- Node10&#45;&gt;Node23 -->
<g id="edge35" class="edge"><title>Node10&#45;&gt;Node23</title>
<path fill="none" stroke="midnightblue" d="M246.089,-100.595C281.968,-109.124 340.659,-123.077 376.796,-131.667"/>
<polygon fill="midnightblue" stroke="midnightblue" points="376.256,-135.137 386.795,-134.044 377.875,-128.326 376.256,-135.137"/>
</g>
<!-- Node11&#45;&gt;Node12 -->
<g id="edge12" class="edge"><title>Node11&#45;&gt;Node12</title>
<path fill="none" stroke="midnightblue" d="M334.106,-336.21C346.522,-341.049 362.041,-347.097 375.687,-352.416"/>
<polygon fill="midnightblue" stroke="midnightblue" points="374.633,-355.761 385.222,-356.132 377.175,-349.239 374.633,-355.761"/>
</g>
<!-- Node13 -->
<g id="node13" class="node"><title>Node13</title>
<g id="a_node13"><a xlink:href="main_8h.html#aecc83cd8bceb4bc24be844732ead2c2c" target="_top" xlink:title=" ">
<polygon fill="none" stroke="black" points="386,-319.204 386,-337.204 433,-337.204 433,-319.204 386,-319.204"/>
<text text-anchor="middle" x="409.5" y="-326.004" font-family="Calibri" font-size="9.00">set_ind</text>
</a>
</g>
</g>
<!-- Node11&#45;&gt;Node13 -->
<g id="edge13" class="edge"><title>Node11&#45;&gt;Node13</title>
<path fill="none" stroke="midnightblue" d="M338.159,-327.483C349.752,-327.602 363.385,-327.742 375.548,-327.866"/>
<polygon fill="midnightblue" stroke="midnightblue" points="375.734,-331.368 385.769,-327.971 375.806,-324.369 375.734,-331.368"/>
</g>
<!-- Node14&#45;&gt;Node3 -->
<g id="edge26" class="edge"><title>Node14&#45;&gt;Node3</title>
<path fill="none" stroke="midnightblue" d="M316.994,-186.759C327.185,-171.283 349.208,-140.243 374,-120.204 375.576,-118.93 377.257,-117.708 378.996,-116.542"/>
<polygon fill="midnightblue" stroke="midnightblue" points="381.154,-119.33 387.962,-111.212 377.577,-113.313 381.154,-119.33"/>
</g>
<!-- Node14&#45;&gt;Node7 -->
<g id="edge33" class="edge"><title>Node14&#45;&gt;Node7</title>
<path fill="none" stroke="midnightblue" d="M315.954,-187.061C326.445,-167.755 351.767,-121.461 374,-83.2043 381.642,-70.0544 390.535,-55.376 397.378,-44.2081"/>
<polygon fill="midnightblue" stroke="midnightblue" points="400.523,-45.7756 402.781,-35.4242 394.56,-42.1082 400.523,-45.7756"/>
</g>
<!-- Node14&#45;&gt;Node9 -->
<g id="edge29" class="edge"><title>Node14&#45;&gt;Node9</title>
<path fill="none" stroke="midnightblue" d="M322.224,-205.326C334.21,-214.428 354.171,-227.812 374,-233.204 400.515,-240.415 551.455,-237.281 562,-230.204 612.244,-196.485 628.192,-119.828 633.02,-83.7136"/>
<polygon fill="midnightblue" stroke="midnightblue" points="636.527,-83.8604 634.226,-73.5184 629.575,-83.0379 636.527,-83.8604"/>
</g>
<!-- Node14&#45;&gt;Node12 -->
<g id="edge30" class="edge"><title>Node14&#45;&gt;Node12</title>
<path fill="none" stroke="midnightblue" d="M312.67,-205.44C317.677,-230.801 334.711,-302.524 374,-346.204 375.338,-347.691 376.82,-349.087 378.396,-350.392"/>
<polygon fill="midnightblue" stroke="midnightblue" points="376.603,-353.405 386.83,-356.172 380.56,-347.632 376.603,-353.405"/>
</g>
<!-- Node14&#45;&gt;Node13 -->
<g id="edge31" class="edge"><title>Node14&#45;&gt;Node13</title>
<path fill="none" stroke="midnightblue" d="M314.153,-205.512C321.615,-226.374 342.153,-277.522 374,-309.204 375.454,-310.651 377.042,-312.02 378.711,-313.309"/>
<polygon fill="midnightblue" stroke="midnightblue" points="377.221,-316.517 387.501,-319.082 381.064,-310.666 377.221,-316.517"/>
</g>
<!-- Node15 -->
<g id="node15" class="node"><title>Node15</title>
<g id="a_node15"><a xlink:href="main_8c.html#a593218c5fe00b499d494826fc0aa5279" target="_top" xlink:title=" ">
<polygon fill="none" stroke="black" points="374,-206.204 374,-224.204 445,-224.204 445,-206.204 374,-206.204"/>
<text text-anchor="middle" x="409.5" y="-213.004" font-family="Calibri" font-size="9.00">button_delay</text>
</a>
</g>
</g>
<!-- Node14&#45;&gt;Node15 -->
<g id="edge16" class="edge"><title>Node14&#45;&gt;Node15</title>
<path fill="none" stroke="midnightblue" d="M334.106,-200.707C342.975,-202.435 353.428,-204.472 363.65,-206.464"/>
<polygon fill="midnightblue" stroke="midnightblue" points="363.243,-209.951 373.728,-208.428 364.582,-203.08 363.243,-209.951"/>
</g>
<!-- Node16 -->
<g id="node16" class="node"><title>Node16</title>
<g id="a_node16"><a xlink:href="oled__control_8c.html#a5febfdc847aa6f3bc3f3c8f7818b8699" target="_top" xlink:title=" ">
<polygon fill="none" stroke="black" points="378.5,-282.204 378.5,-300.204 440.5,-300.204 440.5,-282.204 378.5,-282.204"/>
<text text-anchor="middle" x="409.5" y="-289.004" font-family="Calibri" font-size="9.00">display_on</text>
</a>
</g>
</g>
<!-- Node14&#45;&gt;Node16 -->
<g id="edge17" class="edge"><title>Node14&#45;&gt;Node16</title>
<path fill="none" stroke="midnightblue" d="M318.129,-205.579C329.196,-219.802 351.579,-247.284 374,-267.204 377.532,-270.342 381.484,-273.428 385.418,-276.288"/>
<polygon fill="midnightblue" stroke="midnightblue" points="383.618,-279.299 393.831,-282.118 387.606,-273.545 383.618,-279.299"/>
</g>
<!-- Node22 -->
<g id="node22" class="node"><title>Node22</title>
<g id="a_node22"><a xlink:href="main_8c.html#aa8fd50019a763561abc6621bb224417f" target="_top" xlink:title=" ">
<polygon fill="none" stroke="black" points="498,-203.204 498,-221.204 545,-221.204 545,-203.204 498,-203.204"/>
<text text-anchor="middle" x="521.5" y="-210.004" font-family="Calibri" font-size="9.00">lcd_swr</text>
</a>
</g>
</g>
<!-- Node14&#45;&gt;Node22 -->
<g id="edge27" class="edge"><title>Node14&#45;&gt;Node22</title>
<path fill="none" stroke="midnightblue" d="M334.316,-194.736C361.11,-193.389 406.361,-192.155 445,-196.204 459.195,-197.692 474.649,-200.712 487.857,-203.731"/>
<polygon fill="midnightblue" stroke="midnightblue" points="487.362,-207.211 497.901,-206.123 488.984,-200.402 487.362,-207.211"/>
</g>
<!-- Node14&#45;&gt;Node23 -->
<g id="edge32" class="edge"><title>Node14&#45;&gt;Node23</title>
<path fill="none" stroke="midnightblue" d="M326.665,-187.046C342.159,-177.988 366.095,-163.995 384.085,-153.478"/>
<polygon fill="midnightblue" stroke="midnightblue" points="386.007,-156.408 392.874,-148.34 382.474,-150.365 386.007,-156.408"/>
</g>
<!-- Node17 -->
<g id="node17" class="node"><title>Node17</title>
<g id="a_node17"><a xlink:href="oled__control_8c.html#a5a5d7ef6b1877aaf94c1f4b7fc0f2d2d" target="_top" xlink:title=" ">
<polygon fill="none" stroke="black" points="494,-319.204 494,-337.204 549,-337.204 549,-319.204 494,-319.204"/>
<text text-anchor="middle" x="521.5" y="-326.004" font-family="Calibri" font-size="9.00">led_send</text>
</a>
</g>
</g>
<!-- Node16&#45;&gt;Node17 -->
<g id="edge18" class="edge"><title>Node16&#45;&gt;Node17</title>
<path fill="none" stroke="midnightblue" d="M437.409,-300.256C451.496,-304.994 468.945,-310.863 484.21,-315.998"/>
<polygon fill="midnightblue" stroke="midnightblue" points="483.275,-319.376 493.869,-319.247 485.506,-312.741 483.275,-319.376"/>
</g>
<!-- Node21 -->
<g id="node21" class="node"><title>Node21</title>
<g id="a_node21"><a xlink:href="oled__control_8c.html#ad141ed038278a6fcad6c307932f01ec8" target="_top" xlink:title=" ">
<polygon fill="none" stroke="black" points="481,-282.204 481,-300.204 562,-300.204 562,-282.204 481,-282.204"/>
<text text-anchor="middle" x="521.5" y="-289.004" font-family="Calibri" font-size="9.00">send_command</text>
</a>
</g>
</g>
<!-- Node16&#45;&gt;Node21 -->
<g id="edge22" class="edge"><title>Node16&#45;&gt;Node21</title>
<path fill="none" stroke="midnightblue" d="M440.558,-291.204C449.909,-291.204 460.48,-291.204 470.8,-291.204"/>
<polygon fill="midnightblue" stroke="midnightblue" points="470.982,-294.704 480.982,-291.204 470.982,-287.704 470.982,-294.704"/>
</g>
<!-- Node18 -->
<g id="node18" class="node"><title>Node18</title>
<g id="a_node18"><a xlink:href="oled__control_8c.html#ab7f6b5c6c1483f6286f2de5786c028d9" target="_top" xlink:title=" ">
<polygon fill="none" stroke="black" points="600,-337.204 600,-355.204 672,-355.204 672,-337.204 600,-337.204"/>
<text text-anchor="middle" x="636" y="-344.004" font-family="Calibri" font-size="9.00">Soft_I2C_Start</text>
</a>
</g>
</g>
<!-- Node17&#45;&gt;Node18 -->
<g id="edge19" class="edge"><title>Node17&#45;&gt;Node18</title>
<path fill="none" stroke="midnightblue" d="M549.161,-332.47C561.173,-334.392 575.703,-336.717 589.365,-338.903"/>
<polygon fill="midnightblue" stroke="midnightblue" points="589.16,-342.414 599.588,-340.538 590.266,-335.502 589.16,-342.414"/>
</g>
<!-- Node19 -->
<g id="node19" class="node"><title>Node19</title>
<g id="a_node19"><a xlink:href="oled__control_8c.html#a16eb842aa672ca44820ae6d5f9933425" target="_top" xlink:title=" ">
<polygon fill="none" stroke="black" points="600.5,-300.204 600.5,-318.204 671.5,-318.204 671.5,-300.204 600.5,-300.204"/>
<text text-anchor="middle" x="636" y="-307.004" font-family="Calibri" font-size="9.00">Soft_I2C_Stop</text>
</a>
</g>
</g>
<!-- Node17&#45;&gt;Node19 -->
<g id="edge20" class="edge"><title>Node17&#45;&gt;Node19</title>
<path fill="none" stroke="midnightblue" d="M549.161,-323.702C561.5,-321.618 576.495,-319.085 590.478,-316.723"/>
<polygon fill="midnightblue" stroke="midnightblue" points="591.152,-320.159 600.429,-315.043 589.986,-313.257 591.152,-320.159"/>
</g>
<!-- Node20 -->
<g id="node20" class="node"><title>Node20</title>
<g id="a_node20"><a xlink:href="oled__control_8c.html#a73610916645f17c19124e697b005f694" target="_top" xlink:title=" ">
<polygon fill="none" stroke="black" points="598,-263.204 598,-281.204 674,-281.204 674,-263.204 598,-263.204"/>
<text text-anchor="middle" x="636" y="-270.004" font-family="Calibri" font-size="9.00">Soft_I2C_Write</text>
</a>
</g>
</g>
<!-- Node17&#45;&gt;Node20 -->
<g id="edge21" class="edge"><title>Node17&#45;&gt;Node20</title>
<path fill="none" stroke="midnightblue" d="M541.858,-319.07C548.291,-315.987 555.477,-312.493 562,-309.204 578.155,-301.06 581.863,-298.385 598,-290.204 600.931,-288.718 604.003,-287.185 607.071,-285.67"/>
<polygon fill="midnightblue" stroke="midnightblue" points="608.675,-288.782 616.118,-281.242 605.597,-282.495 608.675,-288.782"/>
</g>
<!-- Node21&#45;&gt;Node18 -->
<g id="edge23" class="edge"><title>Node21&#45;&gt;Node18</title>
<path fill="none" stroke="midnightblue" d="M543.077,-300.386C549.191,-303.167 555.888,-306.264 562,-309.204 570.805,-313.44 591.218,-323.803 608.226,-332.488"/>
<polygon fill="midnightblue" stroke="midnightblue" points="606.732,-335.655 617.229,-337.09 609.918,-329.422 606.732,-335.655"/>
</g>
<!-- Node21&#45;&gt;Node19 -->
<g id="edge24" class="edge"><title>Node21&#45;&gt;Node19</title>
<path fill="none" stroke="midnightblue" d="M562.163,-297.55C571.172,-298.992 580.804,-300.533 590.016,-302.007"/>
<polygon fill="midnightblue" stroke="midnightblue" points="589.755,-305.509 600.182,-303.633 590.861,-298.597 589.755,-305.509"/>
</g>
<!-- Node21&#45;&gt;Node20 -->
<g id="edge25" class="edge"><title>Node21&#45;&gt;Node20</title>
<path fill="none" stroke="midnightblue" d="M562.163,-284.506C570.53,-283.093 579.433,-281.589 588.039,-280.136"/>
<polygon fill="midnightblue" stroke="midnightblue" points="588.676,-283.577 597.954,-278.461 587.511,-276.675 588.676,-283.577"/>
</g>
<!-- Node22&#45;&gt;Node9 -->
<g id="edge28" class="edge"><title>Node22&#45;&gt;Node9</title>
<path fill="none" stroke="midnightblue" d="M545.299,-204.111C551.195,-201.286 557.221,-197.675 562,-193.204 596.009,-161.389 618.416,-110.087 628.629,-82.7505"/>
<polygon fill="midnightblue" stroke="midnightblue" points="631.961,-83.8272 632.049,-73.2327 625.373,-81.4595 631.961,-83.8272"/>
</g>
</g>
</svg>
        <g id="navigator" transform="translate(0 0)" fill="#404254">
                <rect fill="#f2f5e9" fill-opacity="0.5" stroke="#606060" stroke-width=".5" x="0" y="0" width="60" height="60"/>
                <use id="zoomplus" xlink:href="#zoomPlus" x="17" y="9" onmousedown="handleZoom(evt,'in')"/>
                <use id="zoomminus" xlink:href="#zoomMin" x="42" y="9" onmousedown="handleZoom(evt,'out')"/>
                <use id="reset" xlink:href="#resetDef" x="30" y="36" onmousedown="handleReset()"/>
                <g id="arrowUp" xlink:href="#dirArrow" transform="translate(30 24)" onmousedown="handlePan(0,-1)">
                  <use xlink:href="#rim" fill="#404040">
                        <set attributeName="fill" to="#808080" begin="arrowUp.mouseover" end="arrowUp.mouseout"/>
                  </use>
                  <path fill="none" stroke="white" stroke-width="1.5" d="M0,-3.0v7 M-2.5,-0.5L0,-3.0L2.5,-0.5"/>
                </g>
                <g id="arrowRight" xlink:href="#dirArrow" transform="rotate(90) translate(36 -43)" onmousedown="handlePan(1,0)">
                  <use xlink:href="#rim" fill="#404040">
                        <set attributeName="fill" to="#808080" begin="arrowRight.mouseover" end="arrowRight.mouseout"/>
                  </use>
                  <path fill="none" stroke="white" stroke-width="1.5" d="M0,-3.0v7 M-2.5,-0.5L0,-3.0L2.5,-0.5"/>
                </g>
                <g id="arrowDown" xlink:href="#dirArrow" transform="rotate(180) translate(-30 -48)" onmousedown="handlePan(0,1)">
                  <use xlink:href="#rim" fill="#404040">
                        <set attributeName="fill" to="#808080" begin="arrowDown.mouseover" end="arrowDown.mouseout"/>
                  </use>
                  <path fill="none" stroke="white" stroke-width="1.5" d="M0,-3.0v7 M-2.5,-0.5L0,-3.0L2.5,-0.5"/>
                </g>
                <g id="arrowLeft" xlink:href="#dirArrow" transform="rotate(270) translate(-36 17)" onmousedown="handlePan(-1,0)">
                  <use xlink:href="#rim" fill="#404040">
                        <set attributeName="fill" to="#808080" begin="arrowLeft.mouseover" end="arrowLeft.mouseout"/>
                  </use>
                  <path fill="none" stroke="white" stroke-width="1.5" d="M0,-3.0v7 M-2.5,-0.5L0,-3.0L2.5,-0.5"/>
                </g>
        </g>
        <svg viewBox="0 0 15 15" width="100%" height="30px" preserveAspectRatio="xMaxYMin meet">
         <g id="arrow_out" transform="scale(0.3 0.3)">
          <a xlink:href="main_8h_a740ef1b33bb02cd952ad7d8708999472_cgraph_org.svg" target="_base">
           <rect id="button" ry="5" rx="5" y="6" x="6" height="38" width="38"
                fill="#f2f5e9" fill-opacity="0.5" stroke="#606060" stroke-width="1.0"/>
           <path id="arrow"
             d="M 11.500037,31.436501 C 11.940474,20.09759 22.043105,11.32322 32.158766,21.979434 L 37.068811,17.246167 C 37.068811,17.246167 37.088388,32 37.088388,32 L 22.160133,31.978069 C 22.160133,31.978069 26.997745,27.140456 26.997745,27.140456 C 18.528582,18.264221 13.291696,25.230495 11.500037,31.436501 z"
             style="fill:#404040;"/>
          </a>
         </g>
        </svg>
</svg>
