<?xml version="1.0" encoding="UTF-8" standalone="no"?>
<!DOCTYPE svg PUBLIC "-//W3C//DTD SVG 1.1//EN"
 "http://www.w3.org/Graphics/SVG/1.1/DTD/svg11.dtd">
<!-- Generated by graphviz version 2.38.0 (20140413.2041)
 -->
<!-- Title: btn_push Pages: 1 -->
<!--zoomable 692 -->
<svg id="main" version="1.1" xmlns="http://www.w3.org/2000/svg" xmlns:xlink="http://www.w3.org/1999/xlink" xml:space="preserve" onload="init(evt)">
<style type="text/css"><![CDATA[
.edge:hover path { stroke: red; }
.edge:hover polygon { stroke: red; fill: red; }
]]></style>
<script type="text/javascript"><![CDATA[
var edges = document.getElementsByTagName('g');
if (edges && edges.length) {
  for (var i=0;i<edges.length;i++) {
    if (edges[i].id.substr(0,4)=='edge') {
      edges[i].setAttribute('class','edge');
    }
  }
}
]]></script>
        <defs>
                <circle id="rim" cx="0" cy="0" r="7"/>
                <circle id="rim2" cx="0" cy="0" r="3.5"/>
                <g id="zoomPlus">
                        <use xlink:href="#rim" fill="#404040">
                                <set attributeName="fill" to="#808080" begin="zoomplus.mouseover" end="zoomplus.mouseout"/>
                        </use>
                        <path d="M-4,0h8M0,-4v8" fill="none" stroke="white" stroke-width="1.5" pointer-events="none"/>
                </g>
                <g id="zoomMin">
                        <use xlink:href="#rim" fill="#404040">
                                <set attributeName="fill" to="#808080" begin="zoomminus.mouseover" end="zoomminus.mouseout"/>
                        </use>
                        <path d="M-4,0h8" fill="none" stroke="white" stroke-width="1.5" pointer-events="none"/>
                </g>
                <g id="dirArrow">
                        <path fill="none" stroke="white" stroke-width="1.5" d="M0,-3.0v7 M-2.5,-0.5L0,-3.0L2.5,-0.5"/>
                </g>
               <g id="resetDef">
                       <use xlink:href="#rim2" fill="#404040">
                               <set attributeName="fill" to="#808080" begin="reset.mouseover" end="reset.mouseout"/>
                       </use>
               </g>
        </defs>

<script type="text/javascript">
var viewWidth = 1335;
var viewHeight = 692;
var sectionId = 'dynsection-4';
</script>
<script xlink:href="svgpan.js"/>
<svg id="graph" class="graph">
<g id="viewport">
<title>btn_push</title>
<!-- Node1 -->
<g id="node1" class="node"><title>Node1</title>
<g id="a_node1"><a xlink:title=" ">
<polygon fill="#bfbfbf" stroke="black" points="0,-57 0,-75 55,-75 55,-57 0,-57"/>
<text text-anchor="middle" x="27.5" y="-63.8" font-family="Calibri" font-size="9.00">btn_push</text>
</a>
</g>
</g>
<!-- Node2 -->
<g id="node2" class="node"><title>Node2</title>
<g id="a_node2"><a xlink:href="main_8c.html#a6911b3f075cdf1d54cb14f17f6e5ef6b" target="_top" xlink:title=" ">
<polygon fill="none" stroke="black" points="846,-68 846,-86 893,-86 893,-68 846,-68"/>
<text text-anchor="middle" x="869.5" y="-74.8" font-family="Calibri" font-size="9.00">lcd_ind</text>
</a>
</g>
</g>
<!-- Node1&#45;&gt;Node2 -->
<g id="edge1" class="edge"><title>Node1&#45;&gt;Node2</title>
<path fill="none" stroke="midnightblue" d="M55.1448,-58.4228C86.7008,-50.1305 140.983,-38 188.5,-38 188.5,-38 188.5,-38 667,-38 727.64,-38 796.706,-55.2357 836.196,-66.791"/>
<polygon fill="midnightblue" stroke="midnightblue" points="835.227,-70.1545 845.811,-69.6644 837.232,-63.4476 835.227,-70.1545"/>
</g>
<!-- Node3 -->
<g id="node3" class="node"><title>Node3</title>
<g id="a_node3"><a xlink:href="oled__control_8c.html#a1c8eef09adf01c9a7e3c6188f25c3c48" target="_top" xlink:title=" ">
<polygon fill="none" stroke="black" points="938,-144 938,-162 997,-162 997,-144 938,-144"/>
<text text-anchor="middle" x="967.5" y="-150.8" font-family="Calibri" font-size="9.00">led_wr_str</text>
</a>
</g>
</g>
<!-- Node1&#45;&gt;Node3 -->
<g id="edge38" class="edge"><title>Node1&#45;&gt;Node3</title>
<path fill="none" stroke="midnightblue" d="M41.0418,-56.823C67.1041,-38.688 129.605,-0 188.5,-0 188.5,-0 188.5,-0 766.5,-0 832.007,-0 851.452,-16.3328 902,-58 927.91,-79.3582 947.647,-113.737 958.118,-134.757"/>
<polygon fill="midnightblue" stroke="midnightblue" points="955.018,-136.386 962.5,-143.886 961.328,-133.357 955.018,-136.386"/>
</g>
<!-- Node10 -->
<g id="node10" class="node"><title>Node10</title>
<g id="a_node10"><a xlink:href="main_8c.html#ae5a14b4884e85f47ad8a4a716f13203a" target="_top" xlink:title=" ">
<polygon fill="none" stroke="black" points="642,-257 642,-275 690,-275 690,-257 642,-257"/>
<text text-anchor="middle" x="666" y="-263.8" font-family="Calibri" font-size="9.00">lcd_pwr</text>
</a>
</g>
</g>
<!-- Node1&#45;&gt;Node10 -->
<g id="edge14" class="edge"><title>Node1&#45;&gt;Node10</title>
<path fill="none" stroke="midnightblue" d="M55.1268,-73.8478C86.6657,-82.4363 140.932,-95 188.5,-95 188.5,-95 188.5,-95 388,-95 504.564,-95 613.104,-205.995 650.889,-249.136"/>
<polygon fill="midnightblue" stroke="midnightblue" points="648.31,-251.505 657.484,-256.806 653.618,-246.942 648.31,-251.505"/>
</g>
<!-- Node24 -->
<g id="node24" class="node"><title>Node24</title>
<g id="a_node24"><a xlink:href="main_8h.html#a1849f2e5bd63d11a7b9549470e287d17" target="_top" xlink:title=" ">
<polygon fill="none" stroke="black" points="91,-257 91,-275 126,-275 126,-257 91,-257"/>
<text text-anchor="middle" x="108.5" y="-263.8" font-family="Calibri" font-size="9.00">tune</text>
</a>
</g>
</g>
<!-- Node1&#45;&gt;Node24 -->
<g id="edge39" class="edge"><title>Node1&#45;&gt;Node24</title>
<path fill="none" stroke="midnightblue" d="M32.0997,-75.1133C44.2065,-105.763 83.616,-205.534 100.122,-247.322"/>
<polygon fill="midnightblue" stroke="midnightblue" points="96.95,-248.818 103.879,-256.833 103.461,-246.247 96.95,-248.818"/>
</g>
<!-- Node2&#45;&gt;Node3 -->
<g id="edge2" class="edge"><title>Node2&#45;&gt;Node3</title>
<path fill="none" stroke="midnightblue" d="M882.526,-86.0404C888.423,-90.5052 895.615,-95.9953 902,-101 917.269,-112.968 934.352,-126.759 947.1,-137.13"/>
<polygon fill="midnightblue" stroke="midnightblue" points="945.195,-140.093 955.157,-143.7 949.619,-134.668 945.195,-140.093"/>
</g>
<!-- Node4 -->
<g id="node4" class="node"><title>Node4</title>
<g id="a_node4"><a xlink:href="oled__control_8c.html#a3d35666326cc069eda3b63c70983fdbc" target="_top" xlink:title=" ">
<polygon fill="none" stroke="black" points="1147,-211 1147,-229 1202,-229 1202,-211 1147,-211"/>
<text text-anchor="middle" x="1174.5" y="-217.8" font-family="Calibri" font-size="9.00">led_send</text>
</a>
</g>
</g>
<!-- Node3&#45;&gt;Node4 -->
<g id="edge3" class="edge"><title>Node3&#45;&gt;Node4</title>
<path fill="none" stroke="midnightblue" d="M996.147,-162.036C1032.62,-173.956 1096.89,-194.962 1137.23,-208.146"/>
<polygon fill="midnightblue" stroke="midnightblue" points="1136.35,-211.539 1146.94,-211.319 1138.52,-204.886 1136.35,-211.539"/>
</g>
<!-- Node8 -->
<g id="node8" class="node"><title>Node8</title>
<g id="a_node8"><a xlink:href="oled__control_8c.html#a6e85fd05697e2238e4d9babf1c952772" target="_top" xlink:title=" ">
<polygon fill="none" stroke="black" points="1033,-144 1033,-162 1098,-162 1098,-144 1033,-144"/>
<text text-anchor="middle" x="1065.5" y="-150.8" font-family="Calibri" font-size="9.00">oled_wr_str</text>
</a>
</g>
</g>
<!-- Node3&#45;&gt;Node8 -->
<g id="edge7" class="edge"><title>Node3&#45;&gt;Node8</title>
<path fill="none" stroke="midnightblue" d="M997.043,-153C1005.15,-153 1014.14,-153 1022.85,-153"/>
<polygon fill="midnightblue" stroke="midnightblue" points="1022.88,-156.5 1032.88,-153 1022.88,-149.5 1022.88,-156.5"/>
</g>
<!-- Node5 -->
<g id="node5" class="node"><title>Node5</title>
<g id="a_node5"><a xlink:href="oled__control_8c.html#ab7f6b5c6c1483f6286f2de5786c028d9" target="_top" xlink:title=" ">
<polygon fill="none" stroke="black" points="1253,-145 1253,-163 1325,-163 1325,-145 1253,-145"/>
<text text-anchor="middle" x="1289" y="-151.8" font-family="Calibri" font-size="9.00">Soft_I2C_Start</text>
</a>
</g>
</g>
<!-- Node4&#45;&gt;Node5 -->
<g id="edge4" class="edge"><title>Node4&#45;&gt;Node5</title>
<path fill="none" stroke="midnightblue" d="M1191.14,-210.823C1209.95,-199.79 1241.72,-181.149 1263.73,-168.241"/>
<polygon fill="midnightblue" stroke="midnightblue" points="1265.64,-171.178 1272.49,-163.099 1262.09,-165.14 1265.64,-171.178"/>
</g>
<!-- Node6 -->
<g id="node6" class="node"><title>Node6</title>
<g id="a_node6"><a xlink:href="oled__control_8c.html#a16eb842aa672ca44820ae6d5f9933425" target="_top" xlink:title=" ">
<polygon fill="none" stroke="black" points="1253.5,-248 1253.5,-266 1324.5,-266 1324.5,-248 1253.5,-248"/>
<text text-anchor="middle" x="1289" y="-254.8" font-family="Calibri" font-size="9.00">Soft_I2C_Stop</text>
</a>
</g>
</g>
<!-- Node4&#45;&gt;Node6 -->
<g id="edge5" class="edge"><title>Node4&#45;&gt;Node6</title>
<path fill="none" stroke="midnightblue" d="M1202.16,-228.768C1216.69,-233.547 1234.9,-239.536 1250.8,-244.767"/>
<polygon fill="midnightblue" stroke="midnightblue" points="1249.76,-248.109 1260.36,-247.908 1251.95,-241.459 1249.76,-248.109"/>
</g>
<!-- Node7 -->
<g id="node7" class="node"><title>Node7</title>
<g id="a_node7"><a xlink:href="oled__control_8c.html#a73610916645f17c19124e697b005f694" target="_top" xlink:title=" ">
<polygon fill="none" stroke="black" points="1251,-192 1251,-210 1327,-210 1327,-192 1251,-192"/>
<text text-anchor="middle" x="1289" y="-198.8" font-family="Calibri" font-size="9.00">Soft_I2C_Write</text>
</a>
</g>
</g>
<!-- Node4&#45;&gt;Node7 -->
<g id="edge6" class="edge"><title>Node4&#45;&gt;Node7</title>
<path fill="none" stroke="midnightblue" d="M1202.16,-215.497C1213.76,-213.538 1227.7,-211.183 1240.95,-208.946"/>
<polygon fill="midnightblue" stroke="midnightblue" points="1241.61,-212.384 1250.89,-207.267 1240.45,-205.482 1241.61,-212.384"/>
</g>
<!-- Node8&#45;&gt;Node5 -->
<g id="edge11" class="edge"><title>Node8&#45;&gt;Node5</title>
<path fill="none" stroke="midnightblue" d="M1083.12,-143.938C1096.43,-137.217 1115.83,-128.618 1134,-125 1169.31,-117.968 1179.64,-118.234 1215,-125 1230.95,-128.052 1247.86,-134.541 1261.38,-140.608"/>
<polygon fill="midnightblue" stroke="midnightblue" points="1260.03,-143.838 1270.57,-144.896 1262.99,-137.495 1260.03,-143.838"/>
</g>
<!-- Node8&#45;&gt;Node6 -->
<g id="edge12" class="edge"><title>Node8&#45;&gt;Node6</title>
<path fill="none" stroke="midnightblue" d="M1070.13,-162.151C1080.71,-188.266 1112.11,-262.091 1134,-275 1173.09,-298.044 1227.47,-282.938 1260.06,-269.93"/>
<polygon fill="midnightblue" stroke="midnightblue" points="1261.56,-273.096 1269.43,-266.005 1258.85,-266.639 1261.56,-273.096"/>
</g>
<!-- Node8&#45;&gt;Node7 -->
<g id="edge13" class="edge"><title>Node8&#45;&gt;Node7</title>
<path fill="none" stroke="midnightblue" d="M1098.24,-159.877C1135.56,-167.965 1197.86,-181.465 1240.83,-190.779"/>
<polygon fill="midnightblue" stroke="midnightblue" points="1240.26,-194.236 1250.78,-192.933 1241.74,-187.395 1240.26,-194.236"/>
</g>
<!-- Node9 -->
<g id="node9" class="node"><title>Node9</title>
<g id="a_node9"><a xlink:href="oled__control_8c.html#a3cf32ac4d3d7c92be54c385c1ed8cc76" target="_top" xlink:title=" ">
<polygon fill="none" stroke="black" points="1134.5,-135 1134.5,-153 1214.5,-153 1214.5,-135 1134.5,-135"/>
<text text-anchor="middle" x="1174.5" y="-141.8" font-family="Calibri" font-size="9.00">set_addressing</text>
</a>
</g>
</g>
<!-- Node8&#45;&gt;Node9 -->
<g id="edge8" class="edge"><title>Node8&#45;&gt;Node9</title>
<path fill="none" stroke="midnightblue" d="M1098.02,-150.348C1106.18,-149.663 1115.15,-148.908 1123.98,-148.165"/>
<polygon fill="midnightblue" stroke="midnightblue" points="1124.56,-151.629 1134.23,-147.303 1123.97,-144.654 1124.56,-151.629"/>
</g>
<!-- Node9&#45;&gt;Node5 -->
<g id="edge9" class="edge"><title>Node9&#45;&gt;Node5</title>
<path fill="none" stroke="midnightblue" d="M1214.53,-147.469C1223.57,-148.273 1233.26,-149.134 1242.55,-149.96"/>
<polygon fill="midnightblue" stroke="midnightblue" points="1242.53,-153.472 1252.8,-150.871 1243.15,-146.5 1242.53,-153.472"/>
</g>
<!-- Node9&#45;&gt;Node7 -->
<g id="edge10" class="edge"><title>Node9&#45;&gt;Node7</title>
<path fill="none" stroke="midnightblue" d="M1193.33,-153.032C1211.49,-162.233 1239.88,-176.62 1260.84,-187.24"/>
<polygon fill="midnightblue" stroke="midnightblue" points="1259.38,-190.424 1269.88,-191.822 1262.55,-184.18 1259.38,-190.424"/>
</g>
<!-- Node10&#45;&gt;Node3 -->
<g id="edge28" class="edge"><title>Node10&#45;&gt;Node3</title>
<path fill="none" stroke="midnightblue" d="M688.541,-275.075C739.723,-295.995 866.958,-344.03 902,-320 951.265,-286.216 962.912,-209.028 965.658,-172.653"/>
<polygon fill="midnightblue" stroke="midnightblue" points="969.169,-172.575 966.273,-162.383 962.181,-172.156 969.169,-172.575"/>
</g>
<!-- Node11 -->
<g id="node11" class="node"><title>Node11</title>
<g id="a_node11"><a xlink:href="main_8c.html#a593218c5fe00b499d494826fc0aa5279" target="_top" xlink:title=" ">
<polygon fill="none" stroke="black" points="730,-333 730,-351 801,-351 801,-333 730,-333"/>
<text text-anchor="middle" x="765.5" y="-339.8" font-family="Calibri" font-size="9.00">button_delay</text>
</a>
</g>
</g>
<!-- Node10&#45;&gt;Node11 -->
<g id="edge15" class="edge"><title>Node10&#45;&gt;Node11</title>
<path fill="none" stroke="midnightblue" d="M677.486,-275.105C689.817,-285.706 711.017,-303.601 730,-318 734.004,-321.037 738.351,-324.177 742.566,-327.145"/>
<polygon fill="midnightblue" stroke="midnightblue" points="740.668,-330.088 750.882,-332.907 744.655,-324.334 740.668,-330.088"/>
</g>
<!-- Node12 -->
<g id="node12" class="node"><title>Node12</title>
<g id="a_node12"><a xlink:href="oled__control_8c.html#a5febfdc847aa6f3bc3f3c8f7818b8699" target="_top" xlink:title=" ">
<polygon fill="none" stroke="black" points="1034.5,-248 1034.5,-266 1096.5,-266 1096.5,-248 1034.5,-248"/>
<text text-anchor="middle" x="1065.5" y="-254.8" font-family="Calibri" font-size="9.00">display_on</text>
</a>
</g>
</g>
<!-- Node10&#45;&gt;Node12 -->
<g id="edge16" class="edge"><title>Node10&#45;&gt;Node12</title>
<path fill="none" stroke="midnightblue" d="M681.236,-275.177C685.7,-278.524 690.398,-282.581 694,-287 716.858,-315.039 699.28,-340.897 730,-360 756.797,-376.663 769.626,-363.377 801,-360 846.678,-355.083 858.665,-353.253 902,-338 953.468,-319.884 1009.63,-289.235 1040.6,-271.283"/>
<polygon fill="midnightblue" stroke="midnightblue" points="1042.51,-274.221 1049.38,-266.148 1038.98,-268.18 1042.51,-274.221"/>
</g>
<!-- Node14 -->
<g id="node14" class="node"><title>Node14</title>
<g id="a_node14"><a xlink:href="main_8h.html#ab37ca657b79c6b9176cb63e9d812a182" target="_top" xlink:title=" ">
<polygon fill="none" stroke="black" points="741,-219 741,-237 790,-237 790,-219 741,-219"/>
<text text-anchor="middle" x="765.5" y="-225.8" font-family="Calibri" font-size="9.00">get_pwr</text>
</a>
</g>
</g>
<!-- Node10&#45;&gt;Node14 -->
<g id="edge22" class="edge"><title>Node10&#45;&gt;Node14</title>
<path fill="none" stroke="midnightblue" d="M690.106,-256.995C702.522,-252.155 718.041,-246.107 731.687,-240.789"/>
<polygon fill="midnightblue" stroke="midnightblue" points="733.175,-243.965 741.222,-237.073 730.633,-237.443 733.175,-243.965"/>
</g>
<!-- Node18 -->
<g id="node18" class="node"><title>Node18</title>
<g id="a_node18"><a xlink:href="main_8c.html#aa8fd50019a763561abc6621bb224417f" target="_top" xlink:title=" ">
<polygon fill="none" stroke="black" points="846,-293 846,-311 893,-311 893,-293 846,-293"/>
<text text-anchor="middle" x="869.5" y="-299.8" font-family="Calibri" font-size="9.00">lcd_swr</text>
</a>
</g>
</g>
<!-- Node10&#45;&gt;Node18 -->
<g id="edge26" class="edge"><title>Node10&#45;&gt;Node18</title>
<path fill="none" stroke="midnightblue" d="M690.115,-270.13C725.966,-276.535 795.096,-288.886 835.971,-296.188"/>
<polygon fill="midnightblue" stroke="midnightblue" points="835.503,-299.66 845.963,-297.974 836.734,-292.769 835.503,-299.66"/>
</g>
<!-- Node19 -->
<g id="node19" class="node"><title>Node19</title>
<g id="a_node19"><a xlink:href="main_8h.html#a2a7963b9b09696c6654b96c67900c6ea" target="_top" xlink:title=" ">
<polygon fill="none" stroke="black" points="741.5,-523 741.5,-541 789.5,-541 789.5,-523 741.5,-523"/>
<text text-anchor="middle" x="765.5" y="-529.8" font-family="Calibri" font-size="9.00">set_cap</text>
</a>
</g>
</g>
<!-- Node10&#45;&gt;Node19 -->
<g id="edge29" class="edge"><title>Node10&#45;&gt;Node19</title>
<path fill="none" stroke="midnightblue" d="M669.022,-275.354C675.616,-305.072 697.938,-399.691 730,-473 736.315,-487.439 745.363,-502.776 752.609,-514.193"/>
<polygon fill="midnightblue" stroke="midnightblue" points="749.789,-516.277 758.172,-522.756 755.659,-512.463 749.789,-516.277"/>
</g>
<!-- Node21 -->
<g id="node21" class="node"><title>Node21</title>
<g id="a_node21"><a xlink:href="main_8h.html#aecc83cd8bceb4bc24be844732ead2c2c" target="_top" xlink:title=" ">
<polygon fill="none" stroke="black" points="742,-446 742,-464 789,-464 789,-446 742,-446"/>
<text text-anchor="middle" x="765.5" y="-452.8" font-family="Calibri" font-size="9.00">set_ind</text>
</a>
</g>
</g>
<!-- Node10&#45;&gt;Node21 -->
<g id="edge31" class="edge"><title>Node10&#45;&gt;Node21</title>
<path fill="none" stroke="midnightblue" d="M671.284,-275.138C676.84,-287.139 686.685,-308.927 694,-328 712.119,-375.241 697.615,-397.125 730,-436 731.143,-437.373 732.413,-438.663 733.77,-439.873"/>
<polygon fill="midnightblue" stroke="midnightblue" points="732.083,-442.97 742.25,-445.951 736.161,-437.281 732.083,-442.97"/>
</g>
<!-- Node22 -->
<g id="node22" class="node"><title>Node22</title>
<g id="a_node22"><a xlink:href="main_8h.html#aa3ee146d5fca99f368e8ddb5d5dd72cb" target="_top" xlink:title="Set the state of the switch.">
<polygon fill="none" stroke="black" points="743,-409 743,-427 788,-427 788,-409 743,-409"/>
<text text-anchor="middle" x="765.5" y="-415.8" font-family="Calibri" font-size="9.00">set_sw</text>
</a>
</g>
</g>
<!-- Node10&#45;&gt;Node22 -->
<g id="edge33" class="edge"><title>Node10&#45;&gt;Node22</title>
<path fill="none" stroke="midnightblue" d="M679.867,-275.141C684.846,-279.215 690.239,-284.367 694,-290 721.16,-330.679 700.472,-355.005 730,-394 732.457,-397.245 735.481,-400.215 738.709,-402.876"/>
<polygon fill="midnightblue" stroke="midnightblue" points="736.791,-405.808 746.944,-408.835 740.894,-400.137 736.791,-405.808"/>
</g>
<!-- Node23 -->
<g id="node23" class="node"><title>Node23</title>
<g id="a_node23"><a xlink:href="main_8c.html#a4ae0d4fa97fc0ca3611813fee4f9af7c" target="_top" xlink:title=" ">
<polygon fill="none" stroke="black" points="736.5,-143 736.5,-161 794.5,-161 794.5,-143 736.5,-143"/>
<text text-anchor="middle" x="765.5" y="-149.8" font-family="Calibri" font-size="9.00">show_pwr</text>
</a>
</g>
</g>
<!-- Node10&#45;&gt;Node23 -->
<g id="edge35" class="edge"><title>Node10&#45;&gt;Node23</title>
<path fill="none" stroke="midnightblue" d="M674.979,-256.671C691.415,-237.453 729.249,-193.217 750.085,-168.854"/>
<polygon fill="midnightblue" stroke="midnightblue" points="752.844,-171.014 756.683,-161.139 747.524,-166.464 752.844,-171.014"/>
</g>
<!-- Node12&#45;&gt;Node4 -->
<g id="edge17" class="edge"><title>Node12&#45;&gt;Node4</title>
<path fill="none" stroke="midnightblue" d="M1092.68,-247.949C1106.15,-243.29 1122.78,-237.539 1137.45,-232.467"/>
<polygon fill="midnightblue" stroke="midnightblue" points="1138.92,-235.662 1147.22,-229.086 1136.63,-229.046 1138.92,-235.662"/>
</g>
<!-- Node13 -->
<g id="node13" class="node"><title>Node13</title>
<g id="a_node13"><a xlink:href="oled__control_8c.html#a78a346ba6e89c3140dd554a46e56c719" target="_top" xlink:title=" ">
<polygon fill="none" stroke="black" points="1134,-248 1134,-266 1215,-266 1215,-248 1134,-248"/>
<text text-anchor="middle" x="1174.5" y="-254.8" font-family="Calibri" font-size="9.00">send_command</text>
</a>
</g>
</g>
<!-- Node12&#45;&gt;Node13 -->
<g id="edge18" class="edge"><title>Node12&#45;&gt;Node13</title>
<path fill="none" stroke="midnightblue" d="M1096.59,-257C1104.94,-257 1114.25,-257 1123.41,-257"/>
<polygon fill="midnightblue" stroke="midnightblue" points="1123.65,-260.5 1133.65,-257 1123.65,-253.5 1123.65,-260.5"/>
</g>
<!-- Node13&#45;&gt;Node5 -->
<g id="edge19" class="edge"><title>Node13&#45;&gt;Node5</title>
<path fill="none" stroke="midnightblue" d="M1199.78,-247.918C1205.15,-245.231 1210.55,-241.931 1215,-238 1237.17,-218.403 1230.89,-203.706 1251,-182 1255.28,-177.381 1260.39,-172.973 1265.43,-169.077"/>
<polygon fill="midnightblue" stroke="midnightblue" points="1267.67,-171.777 1273.69,-163.057 1263.55,-166.121 1267.67,-171.777"/>
</g>
<!-- Node13&#45;&gt;Node6 -->
<g id="edge20" class="edge"><title>Node13&#45;&gt;Node6</title>
<path fill="none" stroke="midnightblue" d="M1215.16,-257C1224.17,-257 1233.8,-257 1243.02,-257"/>
<polygon fill="midnightblue" stroke="midnightblue" points="1243.18,-260.5 1253.18,-257 1243.18,-253.5 1243.18,-260.5"/>
</g>
<!-- Node13&#45;&gt;Node7 -->
<g id="edge21" class="edge"><title>Node13&#45;&gt;Node7</title>
<path fill="none" stroke="midnightblue" d="M1194.43,-247.995C1200.96,-244.861 1208.31,-241.302 1215,-238 1230.42,-230.383 1247.58,-221.696 1261.39,-214.654"/>
<polygon fill="midnightblue" stroke="midnightblue" points="1263.04,-217.742 1270.35,-210.075 1259.85,-211.509 1263.04,-217.742"/>
</g>
<!-- Node15 -->
<g id="node15" class="node"><title>Node15</title>
<g id="a_node15"><a xlink:href="main_8h.html#ab19e6e081315a9a200394b74d10de395" target="_top" xlink:title=" ">
<polygon fill="none" stroke="black" points="841,-182 841,-200 898,-200 898,-182 841,-182"/>
<text text-anchor="middle" x="869.5" y="-188.8" font-family="Calibri" font-size="9.00">correction</text>
</a>
</g>
</g>
<!-- Node14&#45;&gt;Node15 -->
<g id="edge23" class="edge"><title>Node14&#45;&gt;Node15</title>
<path fill="none" stroke="midnightblue" d="M790.157,-219.418C803.163,-214.701 819.538,-208.761 833.95,-203.533"/>
<polygon fill="midnightblue" stroke="midnightblue" points="835.341,-206.752 843.548,-200.051 832.954,-200.171 835.341,-206.752"/>
</g>
<!-- Node16 -->
<g id="node16" class="node"><title>Node16</title>
<g id="a_node16"><a xlink:href="main_8h.html#acfd46f8711e9c1c20fffdfc8bdaa0ddd" target="_top" xlink:title=" ">
<polygon fill="none" stroke="black" points="837,-256 837,-274 902,-274 902,-256 837,-256"/>
<text text-anchor="middle" x="869.5" y="-262.8" font-family="Calibri" font-size="9.00">get_forward</text>
</a>
</g>
</g>
<!-- Node14&#45;&gt;Node16 -->
<g id="edge24" class="edge"><title>Node14&#45;&gt;Node16</title>
<path fill="none" stroke="midnightblue" d="M790.157,-236.582C803.163,-241.299 819.538,-247.239 833.95,-252.467"/>
<polygon fill="midnightblue" stroke="midnightblue" points="832.954,-255.829 843.548,-255.949 835.341,-249.248 832.954,-255.829"/>
</g>
<!-- Node17 -->
<g id="node17" class="node"><title>Node17</title>
<g id="a_node17"><a xlink:href="main_8h.html#aa6b9a2b3d88f578ba6a9fefd911eae75" target="_top" xlink:title=" ">
<polygon fill="none" stroke="black" points="837.5,-219 837.5,-237 901.5,-237 901.5,-219 837.5,-219"/>
<text text-anchor="middle" x="869.5" y="-225.8" font-family="Calibri" font-size="9.00">get_reverse</text>
</a>
</g>
</g>
<!-- Node14&#45;&gt;Node17 -->
<g id="edge25" class="edge"><title>Node14&#45;&gt;Node17</title>
<path fill="none" stroke="midnightblue" d="M790.157,-228C801.1,-228 814.427,-228 826.963,-228"/>
<polygon fill="midnightblue" stroke="midnightblue" points="827.238,-231.5 837.238,-228 827.238,-224.5 827.238,-231.5"/>
</g>
<!-- Node18&#45;&gt;Node3 -->
<g id="edge27" class="edge"><title>Node18&#45;&gt;Node3</title>
<path fill="none" stroke="midnightblue" d="M889.458,-292.938C893.945,-290.186 898.452,-286.852 902,-283 932.603,-249.772 951.978,-199.32 960.841,-172.069"/>
<polygon fill="midnightblue" stroke="midnightblue" points="964.272,-172.821 963.907,-162.233 957.59,-170.738 964.272,-172.821"/>
</g>
<!-- Node20 -->
<g id="node20" class="node"><title>Node20</title>
<g id="a_node20"><a xlink:href="main_8h.html#a85fb3ccca120f3b843a1dc7567908a04" target="_top" xlink:title=" ">
<polygon fill="none" stroke="black" points="841.5,-484 841.5,-502 897.5,-502 897.5,-484 841.5,-484"/>
<text text-anchor="middle" x="869.5" y="-490.8" font-family="Calibri" font-size="9.00">delay_ms</text>
</a>
</g>
</g>
<!-- Node19&#45;&gt;Node20 -->
<g id="edge30" class="edge"><title>Node19&#45;&gt;Node20</title>
<path fill="none" stroke="midnightblue" d="M789.645,-523.15C803.146,-517.988 820.403,-511.39 835.329,-505.683"/>
<polygon fill="midnightblue" stroke="midnightblue" points="836.648,-508.926 844.738,-502.085 834.148,-502.388 836.648,-508.926"/>
</g>
<!-- Node21&#45;&gt;Node20 -->
<g id="edge32" class="edge"><title>Node21&#45;&gt;Node20</title>
<path fill="none" stroke="midnightblue" d="M789.137,-463.433C802.522,-468.42 819.727,-474.83 834.695,-480.406"/>
<polygon fill="midnightblue" stroke="midnightblue" points="833.553,-483.715 844.145,-483.927 835.997,-477.156 833.553,-483.715"/>
</g>
<!-- Node22&#45;&gt;Node20 -->
<g id="edge34" class="edge"><title>Node22&#45;&gt;Node20</title>
<path fill="none" stroke="midnightblue" d="M785.913,-427.175C790.954,-429.813 796.288,-432.838 801,-436 819.352,-448.316 838.429,-464.826 851.602,-476.907"/>
<polygon fill="midnightblue" stroke="midnightblue" points="849.278,-479.525 858.981,-483.78 854.049,-474.403 849.278,-479.525"/>
</g>
<!-- Node23&#45;&gt;Node2 -->
<g id="edge36" class="edge"><title>Node23&#45;&gt;Node2</title>
<path fill="none" stroke="midnightblue" d="M780.021,-142.775C786.422,-138.362 794.148,-132.969 801,-128 810.011,-121.465 832.016,-104.789 848.468,-92.272"/>
<polygon fill="midnightblue" stroke="midnightblue" points="850.631,-95.0241 856.467,-86.1813 846.39,-89.4548 850.631,-95.0241"/>
</g>
<!-- Node23&#45;&gt;Node3 -->
<g id="edge37" class="edge"><title>Node23&#45;&gt;Node3</title>
<path fill="none" stroke="midnightblue" d="M794.808,-145.561C807.617,-142.963 822.995,-140.28 837,-139 865.769,-136.37 873.276,-135.919 902,-139 910.424,-139.904 919.362,-141.453 927.815,-143.2"/>
<polygon fill="midnightblue" stroke="midnightblue" points="927.299,-146.67 937.818,-145.399 928.802,-139.833 927.299,-146.67"/>
</g>
<!-- Node24&#45;&gt;Node2 -->
<g id="edge53" class="edge"><title>Node24&#45;&gt;Node2</title>
<path fill="none" stroke="midnightblue" d="M115.261,-256.858C134.985,-226.81 203.157,-133 285.5,-133 285.5,-133 285.5,-133 388,-133 541.036,-133 577.987,-110.67 730,-93 766.243,-88.787 807.826,-83.9879 835.893,-80.7537"/>
<polygon fill="midnightblue" stroke="midnightblue" points="836.415,-84.2168 845.949,-79.5952 835.614,-77.2628 836.415,-84.2168"/>
</g>
<!-- Node25 -->
<g id="node25" class="node"><title>Node25</title>
<g id="a_node25"><a xlink:href="main_8h.html#a9dff326a6079fe726285b11ee837ad60" target="_top" xlink:title=" ">
<polygon fill="none" stroke="black" points="638,-561 638,-579 694,-579 694,-561 638,-561"/>
<text text-anchor="middle" x="666" y="-567.8" font-family="Calibri" font-size="9.00">atu_reset</text>
</a>
</g>
</g>
<!-- Node24&#45;&gt;Node25 -->
<g id="edge40" class="edge"><title>Node24&#45;&gt;Node25</title>
<path fill="none" stroke="midnightblue" d="M110.007,-275.03C112.203,-309.49 122.646,-435.529 162,-530 195.738,-610.989 197.765,-684 285.5,-684 285.5,-684 285.5,-684 479,-684 552.359,-684 621.187,-618.74 650.345,-586.973"/>
<polygon fill="midnightblue" stroke="midnightblue" points="653.125,-589.115 657.187,-579.329 647.909,-584.446 653.125,-589.115"/>
</g>
<!-- Node26 -->
<g id="node26" class="node"><title>Node26</title>
<g id="a_node26"><a xlink:href="main_8h.html#ad7eb7423e0b17ccfba1ae42f3a3274e0" target="_top" xlink:title=" ">
<polygon fill="none" stroke="black" points="454,-257 454,-275 502,-275 502,-257 454,-257"/>
<text text-anchor="middle" x="478" y="-263.8" font-family="Calibri" font-size="9.00">get_swr</text>
</a>
</g>
</g>
<!-- Node24&#45;&gt;Node26 -->
<g id="edge44" class="edge"><title>Node24&#45;&gt;Node26</title>
<path fill="none" stroke="midnightblue" d="M126.138,-260.752C172.82,-246.812 308.751,-211.602 418,-237 430.597,-239.929 443.602,-245.946 454.185,-251.745"/>
<polygon fill="midnightblue" stroke="midnightblue" points="452.732,-254.947 463.143,-256.913 456.23,-248.884 452.732,-254.947"/>
</g>
<!-- Node28 -->
<g id="node28" class="node"><title>Node28</title>
<g id="a_node28"><a xlink:href="main_8h.html#ab518a3d2c723f12d3af3024a195606ce" target="_top" xlink:title=" ">
<polygon fill="none" stroke="black" points="257,-637 257,-655 316,-655 316,-637 257,-637"/>
<text text-anchor="middle" x="286.5" y="-643.8" font-family="Calibri" font-size="9.00">sharp_cap</text>
</a>
</g>
</g>
<!-- Node24&#45;&gt;Node28 -->
<g id="edge54" class="edge"><title>Node24&#45;&gt;Node28</title>
<path fill="none" stroke="midnightblue" d="M111.028,-275.04C118.73,-318.271 156.786,-506.573 253,-622 255.603,-625.123 258.694,-628.063 261.918,-630.741"/>
<polygon fill="midnightblue" stroke="midnightblue" points="259.908,-633.609 270.005,-636.819 264.114,-628.013 259.908,-633.609"/>
</g>
<!-- Node29 -->
<g id="node29" class="node"><title>Node29</title>
<g id="a_node29"><a xlink:href="main_8h.html#a72210b3ed1d5691c5bbda8c7f1e97197" target="_top" xlink:title=" ">
<polygon fill="none" stroke="black" points="358,-257 358,-275 416,-275 416,-257 358,-257"/>
<text text-anchor="middle" x="387" y="-263.8" font-family="Calibri" font-size="9.00">sharp_ind</text>
</a>
</g>
</g>
<!-- Node24&#45;&gt;Node29 -->
<g id="edge57" class="edge"><title>Node24&#45;&gt;Node29</title>
<path fill="none" stroke="midnightblue" d="M126.38,-266C169.85,-266 286.491,-266 347.545,-266"/>
<polygon fill="midnightblue" stroke="midnightblue" points="347.913,-269.5 357.913,-266 347.913,-262.5 347.913,-269.5"/>
</g>
<!-- Node30 -->
<g id="node30" class="node"><title>Node30</title>
<g id="a_node30"><a xlink:href="main_8h.html#a454a7687c8039514766571b23516ca9c" target="_top" xlink:title=" ">
<polygon fill="none" stroke="black" points="162,-409 162,-427 217,-427 217,-409 162,-409"/>
<text text-anchor="middle" x="189.5" y="-415.8" font-family="Calibri" font-size="9.00">sub_tune</text>
</a>
</g>
</g>
<!-- Node24&#45;&gt;Node30 -->
<g id="edge60" class="edge"><title>Node24&#45;&gt;Node30</title>
<path fill="none" stroke="midnightblue" d="M114.205,-275.053C126.909,-299.495 162.086,-367.178 179.076,-399.867"/>
<polygon fill="midnightblue" stroke="midnightblue" points="176.002,-401.543 183.72,-408.802 182.213,-398.315 176.002,-401.543"/>
</g>
<!-- Node25&#45;&gt;Node19 -->
<g id="edge42" class="edge"><title>Node25&#45;&gt;Node19</title>
<path fill="none" stroke="midnightblue" d="M690.106,-560.995C702.522,-556.155 718.041,-550.107 731.687,-544.789"/>
<polygon fill="midnightblue" stroke="midnightblue" points="733.175,-547.965 741.222,-541.073 730.633,-541.443 733.175,-547.965"/>
</g>
<!-- Node25&#45;&gt;Node20 -->
<g id="edge41" class="edge"><title>Node25&#45;&gt;Node20</title>
<path fill="none" stroke="midnightblue" d="M694.148,-570.235C722.116,-569.516 766.388,-565.653 801,-550 821.832,-540.579 841.29,-522.804 853.91,-509.597"/>
<polygon fill="midnightblue" stroke="midnightblue" points="856.634,-511.806 860.836,-502.08 851.486,-507.063 856.634,-511.806"/>
</g>
<!-- Node25&#45;&gt;Node21 -->
<g id="edge43" class="edge"><title>Node25&#45;&gt;Node21</title>
<path fill="none" stroke="midnightblue" d="M674.651,-560.976C690.874,-541.841 728.959,-496.92 749.962,-472.148"/>
<polygon fill="midnightblue" stroke="midnightblue" points="752.817,-474.192 756.614,-464.301 747.478,-469.666 752.817,-474.192"/>
</g>
<!-- Node26&#45;&gt;Node14 -->
<g id="edge45" class="edge"><title>Node26&#45;&gt;Node14</title>
<path fill="none" stroke="midnightblue" d="M502.217,-257.171C512.956,-253.44 525.971,-249.409 538,-247 605.381,-233.508 685.899,-229.58 730.502,-228.447"/>
<polygon fill="midnightblue" stroke="midnightblue" points="730.855,-231.94 740.775,-228.22 730.701,-224.942 730.855,-231.94"/>
</g>
<!-- Node26&#45;&gt;Node23 -->
<g id="edge46" class="edge"><title>Node26&#45;&gt;Node23</title>
<path fill="none" stroke="midnightblue" d="M491.889,-256.731C518.069,-238.362 579.924,-197.284 638,-176 666.685,-165.487 700.796,-159.359 726.364,-155.93"/>
<polygon fill="midnightblue" stroke="midnightblue" points="726.927,-159.387 736.41,-154.662 726.05,-152.442 726.927,-159.387"/>
</g>
<!-- Node27 -->
<g id="node27" class="node"><title>Node27</title>
<g id="a_node27"><a xlink:href="main_8c.html#a11724d8cce81ed96bec12a004ea3ea7a" target="_top" xlink:title=" ">
<polygon fill="none" stroke="black" points="538,-257 538,-275 602,-275 602,-257 538,-257"/>
<text text-anchor="middle" x="570" y="-263.8" font-family="Calibri" font-size="9.00">show_reset</text>
</a>
</g>
</g>
<!-- Node26&#45;&gt;Node27 -->
<g id="edge47" class="edge"><title>Node26&#45;&gt;Node27</title>
<path fill="none" stroke="midnightblue" d="M502.177,-266C509.964,-266 518.9,-266 527.651,-266"/>
<polygon fill="midnightblue" stroke="midnightblue" points="527.759,-269.5 537.759,-266 527.759,-262.5 527.759,-269.5"/>
</g>
<!-- Node27&#45;&gt;Node2 -->
<g id="edge49" class="edge"><title>Node27&#45;&gt;Node2</title>
<path fill="none" stroke="midnightblue" d="M575.732,-256.922C585.337,-239.252 608.712,-199.881 638,-176 698.849,-126.385 788.301,-97.5546 835.897,-84.8391"/>
<polygon fill="midnightblue" stroke="midnightblue" points="836.873,-88.2019 845.671,-82.2986 835.112,-81.4271 836.873,-88.2019"/>
</g>
<!-- Node27&#45;&gt;Node3 -->
<g id="edge51" class="edge"><title>Node27&#45;&gt;Node3</title>
<path fill="none" stroke="midnightblue" d="M591.937,-256.967C636.272,-238.207 743.26,-194.87 837,-172 867.074,-164.663 901.813,-159.754 927.735,-156.767"/>
<polygon fill="midnightblue" stroke="midnightblue" points="928.358,-160.219 937.912,-155.64 927.587,-153.262 928.358,-160.219"/>
</g>
<!-- Node27&#45;&gt;Node10 -->
<g id="edge50" class="edge"><title>Node27&#45;&gt;Node10</title>
<path fill="none" stroke="midnightblue" d="M602.04,-266C611.543,-266 622.035,-266 631.684,-266"/>
<polygon fill="midnightblue" stroke="midnightblue" points="631.737,-269.5 641.737,-266 631.737,-262.5 631.737,-269.5"/>
</g>
<!-- Node27&#45;&gt;Node22 -->
<g id="edge52" class="edge"><title>Node27&#45;&gt;Node22</title>
<path fill="none" stroke="midnightblue" d="M600.113,-275.021C627.13,-284.595 667.111,-301.97 694,-328 718.007,-351.24 707.689,-369.127 730,-394 732.905,-397.238 736.328,-400.27 739.871,-403.016"/>
<polygon fill="midnightblue" stroke="midnightblue" points="737.976,-405.963 748.166,-408.866 742.011,-400.243 737.976,-405.963"/>
</g>
<!-- Node27&#45;&gt;Node25 -->
<g id="edge48" class="edge"><title>Node27&#45;&gt;Node25</title>
<path fill="none" stroke="midnightblue" d="M573.813,-275.098C586.814,-317.142 641.202,-493.036 659.193,-551.221"/>
<polygon fill="midnightblue" stroke="midnightblue" points="655.9,-552.418 662.198,-560.937 662.587,-550.35 655.9,-552.418"/>
</g>
<!-- Node28&#45;&gt;Node19 -->
<g id="edge56" class="edge"><title>Node28&#45;&gt;Node19</title>
<path fill="none" stroke="midnightblue" d="M316.073,-646C353.168,-646 419.92,-646 477,-646 477,-646 477,-646 571,-646 626.698,-646 646.502,-651.089 694,-622 722.51,-604.54 744.023,-571.094 755.405,-550.257"/>
<polygon fill="midnightblue" stroke="midnightblue" points="758.627,-551.649 760.164,-541.166 752.425,-548.402 758.627,-551.649"/>
</g>
<!-- Node28&#45;&gt;Node26 -->
<g id="edge55" class="edge"><title>Node28&#45;&gt;Node26</title>
<path fill="none" stroke="midnightblue" d="M287.978,-636.594C290.152,-601.943 301.517,-479.266 356,-399 375.42,-370.39 394.135,-377.022 418,-352 438.126,-330.898 456.281,-302.309 466.978,-284.006"/>
<polygon fill="midnightblue" stroke="midnightblue" points="470.067,-285.656 471.992,-275.237 463.99,-282.181 470.067,-285.656"/>
</g>
<!-- Node29&#45;&gt;Node21 -->
<g id="edge59" class="edge"><title>Node29&#45;&gt;Node21</title>
<path fill="none" stroke="midnightblue" d="M415.175,-275.095C470.356,-294.226 598.398,-342.025 694,-404 711.963,-415.645 712.515,-423.649 730,-436 732.356,-437.664 734.873,-439.296 737.433,-440.861"/>
<polygon fill="midnightblue" stroke="midnightblue" points="735.722,-443.915 746.134,-445.873 739.216,-437.849 735.722,-443.915"/>
</g>
<!-- Node29&#45;&gt;Node26 -->
<g id="edge58" class="edge"><title>Node29&#45;&gt;Node26</title>
<path fill="none" stroke="midnightblue" d="M416.16,-266C424.872,-266 434.553,-266 443.585,-266"/>
<polygon fill="midnightblue" stroke="midnightblue" points="443.791,-269.5 453.791,-266 443.791,-262.5 443.791,-269.5"/>
</g>
<!-- Node30&#45;&gt;Node19 -->
<g id="edge70" class="edge"><title>Node30&#45;&gt;Node19</title>
<path fill="none" stroke="midnightblue" d="M197.659,-427.161C203.238,-434.49 211.016,-445.138 217,-455 235.354,-485.247 229.045,-499.963 253,-526 300.018,-577.104 316.557,-608 386,-608 386,-608 386,-608 571,-608 626.315,-608 643.416,-611.383 694,-589 715.455,-579.506 735.827,-561.743 749.104,-548.559"/>
<polygon fill="midnightblue" stroke="midnightblue" points="751.937,-550.666 756.399,-541.057 746.918,-545.786 751.937,-550.666"/>
</g>
<!-- Node30&#45;&gt;Node21 -->
<g id="edge71" class="edge"><title>Node30&#45;&gt;Node21</title>
<path fill="none" stroke="midnightblue" d="M214.457,-408.903C225.935,-405.017 239.987,-400.934 253,-399 433.124,-372.226 650.712,-423.599 731.891,-445.641"/>
<polygon fill="midnightblue" stroke="midnightblue" points="731.414,-449.14 741.985,-448.423 733.274,-442.392 731.414,-449.14"/>
</g>
<!-- Node30&#45;&gt;Node22 -->
<g id="edge72" class="edge"><title>Node30&#45;&gt;Node22</title>
<path fill="none" stroke="midnightblue" d="M215.692,-427.001C226.949,-430.566 240.477,-434.233 253,-436 433.198,-461.432 652.447,-434.651 732.933,-422.923"/>
<polygon fill="midnightblue" stroke="midnightblue" points="733.541,-426.371 742.918,-421.44 732.513,-419.447 733.541,-426.371"/>
</g>
<!-- Node30&#45;&gt;Node25 -->
<g id="edge61" class="edge"><title>Node30&#45;&gt;Node25</title>
<path fill="none" stroke="midnightblue" d="M199.046,-427.053C230.319,-459.776 339.138,-570 386,-570 386,-570 386,-570 479,-570 530.433,-570 589.867,-570 627.435,-570"/>
<polygon fill="midnightblue" stroke="midnightblue" points="627.893,-573.5 637.893,-570 627.893,-566.5 627.893,-573.5"/>
</g>
<!-- Node30&#45;&gt;Node26 -->
<g id="edge69" class="edge"><title>Node30&#45;&gt;Node26</title>
<path fill="none" stroke="midnightblue" d="M192.328,-408.915C197.535,-385.31 214.614,-321.423 253,-286 308.378,-234.897 343.558,-235.309 418,-247 426.863,-248.392 436.212,-250.893 444.789,-253.632"/>
<polygon fill="midnightblue" stroke="midnightblue" points="443.834,-257.004 454.428,-256.906 446.085,-250.376 443.834,-257.004"/>
</g>
<!-- Node30&#45;&gt;Node28 -->
<g id="edge73" class="edge"><title>Node30&#45;&gt;Node28</title>
<path fill="none" stroke="midnightblue" d="M192.571,-427.478C200.487,-463.138 229.565,-588.895 253,-622 255.239,-625.163 258.025,-628.079 261.019,-630.706"/>
<polygon fill="midnightblue" stroke="midnightblue" points="259.123,-633.663 269.191,-636.961 263.377,-628.104 259.123,-633.663"/>
</g>
<!-- Node30&#45;&gt;Node29 -->
<g id="edge74" class="edge"><title>Node30&#45;&gt;Node29</title>
<path fill="none" stroke="midnightblue" d="M194.755,-408.904C203.436,-391.201 224.774,-351.775 253,-328 281.149,-304.29 319.883,-287.595 348.291,-277.549"/>
<polygon fill="midnightblue" stroke="midnightblue" points="349.545,-280.82 357.874,-274.273 347.28,-274.196 349.545,-280.82"/>
</g>
<!-- Node31 -->
<g id="node31" class="node"><title>Node31</title>
<g id="a_node31"><a xlink:href="main_8h.html#a5c7c60c7d70cf76cc52e87722bb0f614" target="_top" xlink:title=" ">
<polygon fill="none" stroke="black" points="253,-409 253,-427 320,-427 320,-409 253,-409"/>
<text text-anchor="middle" x="286.5" y="-415.8" font-family="Calibri" font-size="9.00">coarse_tune</text>
</a>
</g>
</g>
<!-- Node30&#45;&gt;Node31 -->
<g id="edge62" class="edge"><title>Node30&#45;&gt;Node31</title>
<path fill="none" stroke="midnightblue" d="M217.216,-418C225.184,-418 234.123,-418 242.843,-418"/>
<polygon fill="midnightblue" stroke="midnightblue" points="242.907,-421.5 252.907,-418 242.907,-414.5 242.907,-421.5"/>
</g>
<!-- Node31&#45;&gt;Node19 -->
<g id="edge67" class="edge"><title>Node31&#45;&gt;Node19</title>
<path fill="none" stroke="midnightblue" d="M295.498,-427.329C319.785,-454.556 395.989,-532 477,-532 477,-532 477,-532 571,-532 627.193,-532 692.566,-532 731.131,-532"/>
<polygon fill="midnightblue" stroke="midnightblue" points="731.267,-535.5 741.267,-532 731.267,-528.5 731.267,-535.5"/>
</g>
<!-- Node31&#45;&gt;Node21 -->
<g id="edge68" class="edge"><title>Node31&#45;&gt;Node21</title>
<path fill="none" stroke="midnightblue" d="M316.55,-427.08C328.63,-430.476 342.873,-433.993 356,-436 494.231,-457.135 661.57,-456.995 731.399,-455.807"/>
<polygon fill="midnightblue" stroke="midnightblue" points="731.818,-459.299 741.75,-455.61 731.685,-452.301 731.818,-459.299"/>
</g>
<!-- Node31&#45;&gt;Node26 -->
<g id="edge66" class="edge"><title>Node31&#45;&gt;Node26</title>
<path fill="none" stroke="midnightblue" d="M298.787,-408.947C330.047,-383.873 418.04,-313.292 457.466,-281.668"/>
<polygon fill="midnightblue" stroke="midnightblue" points="459.922,-284.185 465.533,-275.198 455.542,-278.725 459.922,-284.185"/>
</g>
<!-- Node32 -->
<g id="node32" class="node"><title>Node32</title>
<g id="a_node32"><a xlink:href="main_8h.html#a740ef1b33bb02cd952ad7d8708999472" target="_top" xlink:title=" ">
<polygon fill="none" stroke="black" points="356,-409 356,-427 418,-427 418,-409 356,-409"/>
<text text-anchor="middle" x="387" y="-415.8" font-family="Calibri" font-size="9.00">coarse_cap</text>
</a>
</g>
</g>
<!-- Node31&#45;&gt;Node32 -->
<g id="edge63" class="edge"><title>Node31&#45;&gt;Node32</title>
<path fill="none" stroke="midnightblue" d="M320.026,-418C328.232,-418 337.142,-418 345.681,-418"/>
<polygon fill="midnightblue" stroke="midnightblue" points="345.841,-421.5 355.841,-418 345.841,-414.5 345.841,-421.5"/>
</g>
<!-- Node32&#45;&gt;Node19 -->
<g id="edge65" class="edge"><title>Node32&#45;&gt;Node19</title>
<path fill="none" stroke="midnightblue" d="M417.858,-427.041C487.151,-448.022 658.496,-499.903 731.115,-521.891"/>
<polygon fill="midnightblue" stroke="midnightblue" points="730.504,-525.363 741.089,-524.912 732.533,-518.664 730.504,-525.363"/>
</g>
<!-- Node32&#45;&gt;Node26 -->
<g id="edge64" class="edge"><title>Node32&#45;&gt;Node26</title>
<path fill="none" stroke="midnightblue" d="M402.036,-408.899C407.528,-404.831 413.561,-399.673 418,-394 444.785,-359.771 462.805,-311.419 471.328,-285.021"/>
<polygon fill="midnightblue" stroke="midnightblue" points="474.768,-285.745 474.397,-275.157 468.084,-283.666 474.768,-285.745"/>
</g>
</g>
</svg>
        <g id="navigator" transform="translate(0 0)" fill="#404254">
                <rect fill="#f2f5e9" fill-opacity="0.5" stroke="#606060" stroke-width=".5" x="0" y="0" width="60" height="60"/>
                <use id="zoomplus" xlink:href="#zoomPlus" x="17" y="9" onmousedown="handleZoom(evt,'in')"/>
                <use id="zoomminus" xlink:href="#zoomMin" x="42" y="9" onmousedown="handleZoom(evt,'out')"/>
                <use id="reset" xlink:href="#resetDef" x="30" y="36" onmousedown="handleReset()"/>
                <g id="arrowUp" xlink:href="#dirArrow" transform="translate(30 24)" onmousedown="handlePan(0,-1)">
                  <use xlink:href="#rim" fill="#404040">
                        <set attributeName="fill" to="#808080" begin="arrowUp.mouseover" end="arrowUp.mouseout"/>
                  </use>
                  <path fill="none" stroke="white" stroke-width="1.5" d="M0,-3.0v7 M-2.5,-0.5L0,-3.0L2.5,-0.5"/>
                </g>
                <g id="arrowRight" xlink:href="#dirArrow" transform="rotate(90) translate(36 -43)" onmousedown="handlePan(1,0)">
                  <use xlink:href="#rim" fill="#404040">
                        <set attributeName="fill" to="#808080" begin="arrowRight.mouseover" end="arrowRight.mouseout"/>
                  </use>
                  <path fill="none" stroke="white" stroke-width="1.5" d="M0,-3.0v7 M-2.5,-0.5L0,-3.0L2.5,-0.5"/>
                </g>
                <g id="arrowDown" xlink:href="#dirArrow" transform="rotate(180) translate(-30 -48)" onmousedown="handlePan(0,1)">
                  <use xlink:href="#rim" fill="#404040">
                        <set attributeName="fill" to="#808080" begin="arrowDown.mouseover" end="arrowDown.mouseout"/>
                  </use>
                  <path fill="none" stroke="white" stroke-width="1.5" d="M0,-3.0v7 M-2.5,-0.5L0,-3.0L2.5,-0.5"/>
                </g>
                <g id="arrowLeft" xlink:href="#dirArrow" transform="rotate(270) translate(-36 17)" onmousedown="handlePan(-1,0)">
                  <use xlink:href="#rim" fill="#404040">
                        <set attributeName="fill" to="#808080" begin="arrowLeft.mouseover" end="arrowLeft.mouseout"/>
                  </use>
                  <path fill="none" stroke="white" stroke-width="1.5" d="M0,-3.0v7 M-2.5,-0.5L0,-3.0L2.5,-0.5"/>
                </g>
        </g>
        <svg viewBox="0 0 15 15" width="100%" height="30px" preserveAspectRatio="xMaxYMin meet">
         <g id="arrow_out" transform="scale(0.3 0.3)">
          <a xlink:href="main_8h_ae9b379f911db06ddd04a15d876ac0732_cgraph_org.svg" target="_base">
           <rect id="button" ry="5" rx="5" y="6" x="6" height="38" width="38"
                fill="#f2f5e9" fill-opacity="0.5" stroke="#606060" stroke-width="1.0"/>
           <path id="arrow"
             d="M 11.500037,31.436501 C 11.940474,20.09759 22.043105,11.32322 32.158766,21.979434 L 37.068811,17.246167 C 37.068811,17.246167 37.088388,32 37.088388,32 L 22.160133,31.978069 C 22.160133,31.978069 26.997745,27.140456 26.997745,27.140456 C 18.528582,18.264221 13.291696,25.230495 11.500037,31.436501 z"
             style="fill:#404040;"/>
          </a>
         </g>
        </svg>
</svg>
