<?xml version="1.0" encoding="UTF-8" standalone="no"?>
<!DOCTYPE svg PUBLIC "-//W3C//DTD SVG 1.1//EN"
 "http://www.w3.org/Graphics/SVG/1.1/DTD/svg11.dtd">
<!-- Generated by graphviz version 2.38.0 (20140413.2041)
 -->
<!-- Title: atu_reset Pages: 1 -->
<svg width="880pt" height="360pt"
 viewBox="0.00 0.00 880.00 359.50" xmlns="http://www.w3.org/2000/svg" xmlns:xlink="http://www.w3.org/1999/xlink">
<g id="graph0" class="graph" transform="scale(1 1) rotate(0) translate(4 355.5)">
<title>atu_reset</title>
<!-- Node1 -->
<g id="node1" class="node"><title>Node1</title>
<g id="a_node1"><a xlink:title=" ">
<polygon fill="#bfbfbf" stroke="black" points="816,-57.5 816,-75.5 872,-75.5 872,-57.5 816,-57.5"/>
<text text-anchor="middle" x="844" y="-64.3" font-family="Calibri" font-size="9.00">atu_reset</text>
</a>
</g>
</g>
<!-- Node2 -->
<g id="node2" class="node"><title>Node2</title>
<g id="a_node2"><a xlink:href="main_8c.html#a11724d8cce81ed96bec12a004ea3ea7a" target="_top" xlink:title=" ">
<polygon fill="none" stroke="black" points="716,-209.5 716,-227.5 780,-227.5 780,-209.5 716,-209.5"/>
<text text-anchor="middle" x="748" y="-216.3" font-family="Calibri" font-size="9.00">show_reset</text>
</a>
</g>
</g>
<!-- Node1&#45;&gt;Node2 -->
<g id="edge1" class="edge"><title>Node1&#45;&gt;Node2</title>
<path fill="none" stroke="midnightblue" d="M831.905,-84.4402C811.775,-116.992 769.909,-184.69 754.688,-209.302"/>
<polygon fill="midnightblue" stroke="midnightblue" points="835.118,-85.8991 837.401,-75.5531 829.165,-82.2172 835.118,-85.8991"/>
</g>
<!-- Node8 -->
<g id="node8" class="node"><title>Node8</title>
<g id="a_node8"><a xlink:href="main_8h.html#a454a7687c8039514766571b23516ca9c" target="_top" xlink:title=" ">
<polygon fill="none" stroke="black" points="337,-152.5 337,-170.5 392,-170.5 392,-152.5 337,-152.5"/>
<text text-anchor="middle" x="364.5" y="-159.3" font-family="Calibri" font-size="9.00">sub_tune</text>
</a>
</g>
</g>
<!-- Node1&#45;&gt;Node8 -->
<g id="edge20" class="edge"><title>Node1&#45;&gt;Node8</title>
<path fill="none" stroke="midnightblue" d="M805.731,-72.5158C767.975,-78.0817 707.837,-85.5 655.5,-85.5 655.5,-85.5 655.5,-85.5 561,-85.5 501.289,-85.5 482.007,-79.0314 428,-104.5 404.091,-115.775 382.905,-139.374 372.433,-152.393"/>
<polygon fill="midnightblue" stroke="midnightblue" points="806.396,-75.9552 815.762,-71.0027 805.352,-69.0336 806.396,-75.9552"/>
</g>
<!-- Node9 -->
<g id="node9" class="node"><title>Node9</title>
<g id="a_node9"><a xlink:href="main_8h.html#a1849f2e5bd63d11a7b9549470e287d17" target="_top" xlink:title=" ">
<polygon fill="none" stroke="black" points="266,-152.5 266,-170.5 301,-170.5 301,-152.5 266,-152.5"/>
<text text-anchor="middle" x="283.5" y="-159.3" font-family="Calibri" font-size="9.00">tune</text>
</a>
</g>
</g>
<!-- Node1&#45;&gt;Node9 -->
<g id="edge23" class="edge"><title>Node1&#45;&gt;Node9</title>
<path fill="none" stroke="midnightblue" d="M805.731,-60.4842C767.975,-54.9183 707.837,-47.5 655.5,-47.5 655.5,-47.5 655.5,-47.5 460.5,-47.5 383.685,-47.5 313.931,-124.944 291.782,-152.171"/>
<polygon fill="midnightblue" stroke="midnightblue" points="805.352,-63.9664 815.762,-61.9973 806.396,-57.0448 805.352,-63.9664"/>
</g>
<!-- Node13 -->
<g id="node13" class="node"><title>Node13</title>
<g id="a_node13"><a xlink:href="main_8c.html#a7a367b10f22edd310a36627b6c941255" target="_top" xlink:title=" ">
<polygon fill="none" stroke="black" points="629,-0.5 629,-18.5 680,-18.5 680,-0.5 629,-0.5"/>
<text text-anchor="middle" x="654.5" y="-7.3" font-family="Calibri" font-size="9.00">test_init</text>
</a>
</g>
</g>
<!-- Node1&#45;&gt;Node13 -->
<g id="edge21" class="edge"><title>Node1&#45;&gt;Node13</title>
<path fill="none" stroke="midnightblue" d="M819.565,-52.1281C808.013,-45.5958 793.658,-38.2772 780,-33.5 746.547,-21.799 705.929,-15.3231 680.39,-12.1282"/>
<polygon fill="midnightblue" stroke="midnightblue" points="818.131,-55.3434 828.533,-57.3571 821.657,-49.2963 818.131,-55.3434"/>
</g>
<!-- Node3 -->
<g id="node3" class="node"><title>Node3</title>
<g id="a_node3"><a xlink:href="main_8c.html#a1c9e5d54d8cf7f3d041aa2e0b330b3dd" target="_top" xlink:title="Handle the process of the buttons being pressed.">
<polygon fill="none" stroke="black" points="74,-152.5 74,-170.5 139,-170.5 139,-152.5 74,-152.5"/>
<text text-anchor="middle" x="106.5" y="-159.3" font-family="Calibri" font-size="9.00">button_proc</text>
</a>
</g>
</g>
<!-- Node2&#45;&gt;Node3 -->
<g id="edge2" class="edge"><title>Node2&#45;&gt;Node3</title>
<path fill="none" stroke="midnightblue" d="M735.045,-235.777C708.571,-271.775 641.123,-351.5 563,-351.5 563,-351.5 563,-351.5 282.5,-351.5 182.942,-351.5 124.453,-208.617 110.672,-170.664"/>
<polygon fill="midnightblue" stroke="midnightblue" points="737.894,-237.809 740.874,-227.642 732.204,-233.732 737.894,-237.809"/>
</g>
<!-- Node5 -->
<g id="node5" class="node"><title>Node5</title>
<g id="a_node5"><a xlink:href="main_8h.html#ad7eb7423e0b17ccfba1ae42f3a3274e0" target="_top" xlink:title=" ">
<polygon fill="none" stroke="black" points="630.5,-209.5 630.5,-227.5 678.5,-227.5 678.5,-209.5 630.5,-209.5"/>
<text text-anchor="middle" x="654.5" y="-216.3" font-family="Calibri" font-size="9.00">get_swr</text>
</a>
</g>
</g>
<!-- Node2&#45;&gt;Node5 -->
<g id="edge4" class="edge"><title>Node2&#45;&gt;Node5</title>
<path fill="none" stroke="midnightblue" d="M705.481,-218.5C696.209,-218.5 686.704,-218.5 678.506,-218.5"/>
<polygon fill="midnightblue" stroke="midnightblue" points="705.767,-222 715.767,-218.5 705.767,-215 705.767,-222"/>
</g>
<!-- Node4 -->
<g id="node4" class="node"><title>Node4</title>
<g id="a_node4"><a xlink:href="main_8c.html#acdef7a1fd863a6d3770c1268cb06add3" target="_top" xlink:title=" ">
<polygon fill="none" stroke="black" points="0,-76.5 0,-94.5 38,-94.5 38,-76.5 0,-76.5"/>
<text text-anchor="middle" x="19" y="-83.3" font-family="Calibri" font-size="9.00">main</text>
</a>
</g>
</g>
<!-- Node3&#45;&gt;Node4 -->
<g id="edge3" class="edge"><title>Node3&#45;&gt;Node4</title>
<path fill="none" stroke="midnightblue" d="M87.5611,-145.554C70.124,-130.055 44.2644,-107.068 30.1305,-94.5049"/>
<polygon fill="midnightblue" stroke="midnightblue" points="85.5569,-148.456 95.3563,-152.483 90.2074,-143.224 85.5569,-148.456"/>
</g>
<!-- Node6 -->
<g id="node6" class="node"><title>Node6</title>
<g id="a_node6"><a xlink:href="main_8h.html#a740ef1b33bb02cd952ad7d8708999472" target="_top" xlink:title=" ">
<polygon fill="none" stroke="black" points="531,-228.5 531,-246.5 593,-246.5 593,-228.5 531,-228.5"/>
<text text-anchor="middle" x="562" y="-235.3" font-family="Calibri" font-size="9.00">coarse_cap</text>
</a>
</g>
</g>
<!-- Node5&#45;&gt;Node6 -->
<g id="edge5" class="edge"><title>Node5&#45;&gt;Node6</title>
<path fill="none" stroke="midnightblue" d="M620.166,-225.498C611.29,-227.362 601.755,-229.364 593.064,-231.188"/>
<polygon fill="midnightblue" stroke="midnightblue" points="621.127,-228.873 630.194,-223.393 619.688,-222.022 621.127,-228.873"/>
</g>
<!-- Node7 -->
<g id="node7" class="node"><title>Node7</title>
<g id="a_node7"><a xlink:href="main_8h.html#a5c7c60c7d70cf76cc52e87722bb0f614" target="_top" xlink:title=" ">
<polygon fill="none" stroke="black" points="428,-190.5 428,-208.5 495,-208.5 495,-190.5 428,-190.5"/>
<text text-anchor="middle" x="461.5" y="-197.3" font-family="Calibri" font-size="9.00">coarse_tune</text>
</a>
</g>
</g>
<!-- Node5&#45;&gt;Node7 -->
<g id="edge11" class="edge"><title>Node5&#45;&gt;Node7</title>
<path fill="none" stroke="midnightblue" d="M620.246,-215.192C585.129,-211.699 530.117,-206.226 495.209,-202.754"/>
<polygon fill="midnightblue" stroke="midnightblue" points="620.164,-218.701 630.461,-216.208 620.857,-211.735 620.164,-218.701"/>
</g>
<!-- Node5&#45;&gt;Node8 -->
<g id="edge18" class="edge"><title>Node5&#45;&gt;Node8</title>
<path fill="none" stroke="midnightblue" d="M620.263,-210.18C611.409,-207.985 601.846,-205.635 593,-203.5 549.509,-193.006 538.95,-188.866 495,-180.5 459.73,-173.786 418.668,-168.122 392.397,-164.77"/>
<polygon fill="midnightblue" stroke="midnightblue" points="619.697,-213.646 630.246,-212.662 621.386,-206.853 619.697,-213.646"/>
</g>
<!-- Node5&#45;&gt;Node9 -->
<g id="edge19" class="edge"><title>Node5&#45;&gt;Node9</title>
<path fill="none" stroke="midnightblue" d="M640.6,-235.349C629.568,-248.265 612.424,-265.092 593,-272.5 567.253,-282.319 558.453,-274.881 531,-272.5 440.82,-264.679 411.675,-261.659 337,-210.5 319.72,-198.662 302.51,-181.259 292.72,-170.693"/>
<polygon fill="midnightblue" stroke="midnightblue" points="643.337,-237.531 646.93,-227.564 637.906,-233.115 643.337,-237.531"/>
</g>
<!-- Node11 -->
<g id="node11" class="node"><title>Node11</title>
<g id="a_node11"><a xlink:href="main_8h.html#ab518a3d2c723f12d3af3024a195606ce" target="_top" xlink:title=" ">
<polygon fill="none" stroke="black" points="432,-227.5 432,-245.5 491,-245.5 491,-227.5 432,-227.5"/>
<text text-anchor="middle" x="461.5" y="-234.3" font-family="Calibri" font-size="9.00">sharp_cap</text>
</a>
</g>
</g>
<!-- Node5&#45;&gt;Node11 -->
<g id="edge12" class="edge"><title>Node5&#45;&gt;Node11</title>
<path fill="none" stroke="midnightblue" d="M634.582,-233.83C623.254,-242.004 608.149,-251.235 593,-255.5 556.196,-265.862 511.875,-254.619 485.507,-245.55"/>
<polygon fill="midnightblue" stroke="midnightblue" points="636.927,-236.444 642.785,-227.616 632.7,-230.864 636.927,-236.444"/>
</g>
<!-- Node12 -->
<g id="node12" class="node"><title>Node12</title>
<g id="a_node12"><a xlink:href="main_8h.html#a72210b3ed1d5691c5bbda8c7f1e97197" target="_top" xlink:title=" ">
<polygon fill="none" stroke="black" points="432.5,-114.5 432.5,-132.5 490.5,-132.5 490.5,-114.5 432.5,-114.5"/>
<text text-anchor="middle" x="461.5" y="-121.3" font-family="Calibri" font-size="9.00">sharp_ind</text>
</a>
</g>
</g>
<!-- Node5&#45;&gt;Node12 -->
<g id="edge15" class="edge"><title>Node5&#45;&gt;Node12</title>
<path fill="none" stroke="midnightblue" d="M643.265,-200.61C632.822,-184.082 615.043,-160.223 593,-147.5 561.178,-129.133 518.35,-124.336 490.585,-123.33"/>
<polygon fill="midnightblue" stroke="midnightblue" points="640.379,-202.601 648.543,-209.354 646.372,-198.984 640.379,-202.601"/>
</g>
<!-- Node6&#45;&gt;Node7 -->
<g id="edge6" class="edge"><title>Node6&#45;&gt;Node7</title>
<path fill="none" stroke="midnightblue" d="M528.041,-224.785C514.272,-219.473 498.589,-213.423 486.017,-208.573"/>
<polygon fill="midnightblue" stroke="midnightblue" points="527.067,-228.161 537.657,-228.495 529.587,-221.63 527.067,-228.161"/>
</g>
<!-- Node7&#45;&gt;Node8 -->
<g id="edge7" class="edge"><title>Node7&#45;&gt;Node8</title>
<path fill="none" stroke="midnightblue" d="M428.325,-186.63C415.139,-181.356 400.189,-175.376 388.181,-170.573"/>
<polygon fill="midnightblue" stroke="midnightblue" points="427.402,-190.03 437.986,-190.495 430.001,-183.531 427.402,-190.03"/>
</g>
<!-- Node8&#45;&gt;Node9 -->
<g id="edge8" class="edge"><title>Node8&#45;&gt;Node9</title>
<path fill="none" stroke="midnightblue" d="M326.487,-161.5C317.583,-161.5 308.509,-161.5 301.085,-161.5"/>
<polygon fill="midnightblue" stroke="midnightblue" points="326.754,-165 336.754,-161.5 326.754,-158 326.754,-165"/>
</g>
<!-- Node10 -->
<g id="node10" class="node"><title>Node10</title>
<g id="a_node10"><a xlink:href="main_8c.html#af18ed7edda7874a97cacaa11a2759260" target="_top" xlink:title=" ">
<polygon fill="none" stroke="black" points="175,-152.5 175,-170.5 230,-170.5 230,-152.5 175,-152.5"/>
<text text-anchor="middle" x="202.5" y="-159.3" font-family="Calibri" font-size="9.00">btn_push</text>
</a>
</g>
</g>
<!-- Node9&#45;&gt;Node10 -->
<g id="edge9" class="edge"><title>Node9&#45;&gt;Node10</title>
<path fill="none" stroke="midnightblue" d="M255.568,-161.5C247.367,-161.5 238.36,-161.5 230.177,-161.5"/>
<polygon fill="midnightblue" stroke="midnightblue" points="255.746,-165 265.746,-161.5 255.746,-158 255.746,-165"/>
</g>
<!-- Node10&#45;&gt;Node3 -->
<g id="edge10" class="edge"><title>Node10&#45;&gt;Node3</title>
<path fill="none" stroke="midnightblue" d="M164.545,-161.5C156.183,-161.5 147.376,-161.5 139.25,-161.5"/>
<polygon fill="midnightblue" stroke="midnightblue" points="164.815,-165 174.815,-161.5 164.815,-158 164.815,-165"/>
</g>
<!-- Node11&#45;&gt;Node8 -->
<g id="edge13" class="edge"><title>Node11&#45;&gt;Node8</title>
<path fill="none" stroke="midnightblue" d="M434.688,-222.063C432.387,-220.581 430.126,-219.049 428,-217.5 407.749,-202.74 386.497,-182.535 374.73,-170.864"/>
<polygon fill="midnightblue" stroke="midnightblue" points="433.195,-225.252 443.558,-227.458 436.833,-219.271 433.195,-225.252"/>
</g>
<!-- Node11&#45;&gt;Node9 -->
<g id="edge14" class="edge"><title>Node11&#45;&gt;Node9</title>
<path fill="none" stroke="midnightblue" d="M429.872,-223.448C392.474,-207.512 330.572,-181.133 301.095,-168.572"/>
<polygon fill="midnightblue" stroke="midnightblue" points="428.699,-226.753 439.27,-227.453 431.443,-220.313 428.699,-226.753"/>
</g>
<!-- Node12&#45;&gt;Node8 -->
<g id="edge16" class="edge"><title>Node12&#45;&gt;Node8</title>
<path fill="none" stroke="midnightblue" d="M428.325,-136.37C415.139,-141.644 400.189,-147.624 388.181,-152.427"/>
<polygon fill="midnightblue" stroke="midnightblue" points="430.001,-139.469 437.986,-132.505 427.402,-132.97 430.001,-139.469"/>
</g>
<!-- Node12&#45;&gt;Node9 -->
<g id="edge17" class="edge"><title>Node12&#45;&gt;Node9</title>
<path fill="none" stroke="midnightblue" d="M422.21,-127.442C397.622,-130.45 365.139,-135.316 337,-142.5 324.791,-145.617 311.443,-150.468 301.262,-154.488"/>
<polygon fill="midnightblue" stroke="midnightblue" points="422.705,-130.908 432.229,-126.265 421.889,-123.956 422.705,-130.908"/>
</g>
<!-- Node13&#45;&gt;Node4 -->
<g id="edge22" class="edge"><title>Node13&#45;&gt;Node4</title>
<path fill="none" stroke="midnightblue" d="M618.669,-9.5C580.382,-9.5 517.058,-9.5 462.5,-9.5 462.5,-9.5 462.5,-9.5 201.5,-9.5 132.836,-9.5 60.1064,-56.3517 32.025,-76.4834"/>
<polygon fill="midnightblue" stroke="midnightblue" points="618.775,-13.0001 628.775,-9.5 618.775,-6.0001 618.775,-13.0001"/>
</g>
</g>
</svg>
