<?xml version="1.0" encoding="UTF-8" standalone="no"?>
<!DOCTYPE svg PUBLIC "-//W3C//DTD SVG 1.1//EN"
 "http://www.w3.org/Graphics/SVG/1.1/DTD/svg11.dtd">
<!-- Generated by graphviz version 2.38.0 (20140413.2041)
 -->
<!-- Title: sharp_cap Pages: 1 -->
<svg width="495pt" height="46pt"
 viewBox="0.00 0.00 495.00 46.00" xmlns="http://www.w3.org/2000/svg" xmlns:xlink="http://www.w3.org/1999/xlink">
<g id="graph0" class="graph" transform="scale(1 1) rotate(0) translate(4 42)">
<title>sharp_cap</title>
<!-- Node1 -->
<g id="node1" class="node"><title>Node1</title>
<g id="a_node1"><a xlink:title=" ">
<polygon fill="#bfbfbf" stroke="black" points="428,-0.5 428,-18.5 487,-18.5 487,-0.5 428,-0.5"/>
<text text-anchor="middle" x="457.5" y="-7.3" font-family="Calibri" font-size="9.00">sharp_cap</text>
</a>
</g>
</g>
<!-- Node2 -->
<g id="node2" class="node"><title>Node2</title>
<g id="a_node2"><a xlink:href="main_8h.html#a454a7687c8039514766571b23516ca9c" target="_top" xlink:title=" ">
<polygon fill="none" stroke="black" points="337,-19.5 337,-37.5 392,-37.5 392,-19.5 337,-19.5"/>
<text text-anchor="middle" x="364.5" y="-26.3" font-family="Calibri" font-size="9.00">sub_tune</text>
</a>
</g>
</g>
<!-- Node1&#45;&gt;Node2 -->
<g id="edge1" class="edge"><title>Node1&#45;&gt;Node2</title>
<path fill="none" stroke="midnightblue" d="M417.823,-17.5754C409.208,-19.3741 400.259,-21.2426 392.249,-22.9149"/>
<polygon fill="midnightblue" stroke="midnightblue" points="418.633,-20.9818 427.707,-15.5117 417.203,-14.1295 418.633,-20.9818"/>
</g>
<!-- Node3 -->
<g id="node3" class="node"><title>Node3</title>
<g id="a_node3"><a xlink:href="main_8h.html#a1849f2e5bd63d11a7b9549470e287d17" target="_top" xlink:title=" ">
<polygon fill="none" stroke="black" points="266,-0.5 266,-18.5 301,-18.5 301,-0.5 266,-0.5"/>
<text text-anchor="middle" x="283.5" y="-7.3" font-family="Calibri" font-size="9.00">tune</text>
</a>
</g>
</g>
<!-- Node1&#45;&gt;Node3 -->
<g id="edge6" class="edge"><title>Node1&#45;&gt;Node3</title>
<path fill="none" stroke="midnightblue" d="M417.411,-9.5C380.885,-9.5 328.092,-9.5 301.365,-9.5"/>
<polygon fill="midnightblue" stroke="midnightblue" points="417.711,-13.0001 427.711,-9.5 417.711,-6.0001 417.711,-13.0001"/>
</g>
<!-- Node2&#45;&gt;Node3 -->
<g id="edge2" class="edge"><title>Node2&#45;&gt;Node3</title>
<path fill="none" stroke="midnightblue" d="M326.778,-19.6681C317.78,-17.5041 308.589,-15.2936 301.085,-13.4888"/>
<polygon fill="midnightblue" stroke="midnightblue" points="326.213,-23.132 336.754,-22.0675 327.85,-16.326 326.213,-23.132"/>
</g>
<!-- Node4 -->
<g id="node4" class="node"><title>Node4</title>
<g id="a_node4"><a xlink:href="main_8c.html#af18ed7edda7874a97cacaa11a2759260" target="_top" xlink:title=" ">
<polygon fill="none" stroke="black" points="175,-0.5 175,-18.5 230,-18.5 230,-0.5 175,-0.5"/>
<text text-anchor="middle" x="202.5" y="-7.3" font-family="Calibri" font-size="9.00">btn_push</text>
</a>
</g>
</g>
<!-- Node3&#45;&gt;Node4 -->
<g id="edge3" class="edge"><title>Node3&#45;&gt;Node4</title>
<path fill="none" stroke="midnightblue" d="M255.568,-9.5C247.367,-9.5 238.36,-9.5 230.177,-9.5"/>
<polygon fill="midnightblue" stroke="midnightblue" points="255.746,-13.0001 265.746,-9.5 255.746,-6.0001 255.746,-13.0001"/>
</g>
<!-- Node5 -->
<g id="node5" class="node"><title>Node5</title>
<g id="a_node5"><a xlink:href="main_8c.html#a1c9e5d54d8cf7f3d041aa2e0b330b3dd" target="_top" xlink:title="Handle the process of the buttons being pressed.">
<polygon fill="none" stroke="black" points="74,-0.5 74,-18.5 139,-18.5 139,-0.5 74,-0.5"/>
<text text-anchor="middle" x="106.5" y="-7.3" font-family="Calibri" font-size="9.00">button_proc</text>
</a>
</g>
</g>
<!-- Node4&#45;&gt;Node5 -->
<g id="edge4" class="edge"><title>Node4&#45;&gt;Node5</title>
<path fill="none" stroke="midnightblue" d="M164.545,-9.5C156.183,-9.5 147.376,-9.5 139.25,-9.5"/>
<polygon fill="midnightblue" stroke="midnightblue" points="164.815,-13.0001 174.815,-9.5 164.815,-6.0001 164.815,-13.0001"/>
</g>
<!-- Node6 -->
<g id="node6" class="node"><title>Node6</title>
<g id="a_node6"><a xlink:href="main_8c.html#acdef7a1fd863a6d3770c1268cb06add3" target="_top" xlink:title=" ">
<polygon fill="none" stroke="black" points="0,-0.5 0,-18.5 38,-18.5 38,-0.5 0,-0.5"/>
<text text-anchor="middle" x="19" y="-7.3" font-family="Calibri" font-size="9.00">main</text>
</a>
</g>
</g>
<!-- Node5&#45;&gt;Node6 -->
<g id="edge5" class="edge"><title>Node5&#45;&gt;Node6</title>
<path fill="none" stroke="midnightblue" d="M63.658,-9.5C54.7022,-9.5 45.6933,-9.5 38.2043,-9.5"/>
<polygon fill="midnightblue" stroke="midnightblue" points="63.663,-13.0001 73.663,-9.5 63.6629,-6.0001 63.663,-13.0001"/>
</g>
</g>
</svg>
