<?xml version="1.0" encoding="UTF-8" standalone="no"?>
<!DOCTYPE svg PUBLIC "-//W3C//DTD SVG 1.1//EN"
 "http://www.w3.org/Graphics/SVG/1.1/DTD/svg11.dtd">
<!-- Generated by graphviz version 2.38.0 (20140413.2041)
 -->
<!-- Title: lcd_prep Pages: 1 -->
<svg width="221pt" height="46pt"
 viewBox="0.00 0.00 221.00 46.00" xmlns="http://www.w3.org/2000/svg" xmlns:xlink="http://www.w3.org/1999/xlink">
<g id="graph0" class="graph" transform="scale(1 1) rotate(0) translate(4 42)">
<title>lcd_prep</title>
<!-- Node1 -->
<g id="node1" class="node"><title>Node1</title>
<g id="a_node1"><a xlink:title=" ">
<polygon fill="#bfbfbf" stroke="black" points="161,-19.5 161,-37.5 213,-37.5 213,-19.5 161,-19.5"/>
<text text-anchor="middle" x="187" y="-26.3" font-family="Calibri" font-size="9.00">lcd_prep</text>
</a>
</g>
</g>
<!-- Node2 -->
<g id="node2" class="node"><title>Node2</title>
<g id="a_node2"><a xlink:href="main_8c.html#acdef7a1fd863a6d3770c1268cb06add3" target="_top" xlink:title=" ">
<polygon fill="none" stroke="black" points="0,-19.5 0,-37.5 38,-37.5 38,-19.5 0,-19.5"/>
<text text-anchor="middle" x="19" y="-26.3" font-family="Calibri" font-size="9.00">main</text>
</a>
</g>
</g>
<!-- Node1&#45;&gt;Node2 -->
<g id="edge1" class="edge"><title>Node1&#45;&gt;Node2</title>
<path fill="none" stroke="midnightblue" d="M150.677,-28.5C116.237,-28.5 65.2254,-28.5 38.2547,-28.5"/>
<polygon fill="midnightblue" stroke="midnightblue" points="150.788,-32.0001 160.788,-28.5 150.788,-25.0001 150.788,-32.0001"/>
</g>
<!-- Node3 -->
<g id="node3" class="node"><title>Node3</title>
<g id="a_node3"><a xlink:href="main_8c.html#a7a367b10f22edd310a36627b6c941255" target="_top" xlink:title=" ">
<polygon fill="none" stroke="black" points="74,-0.5 74,-18.5 125,-18.5 125,-0.5 74,-0.5"/>
<text text-anchor="middle" x="99.5" y="-7.3" font-family="Calibri" font-size="9.00">test_init</text>
</a>
</g>
</g>
<!-- Node1&#45;&gt;Node3 -->
<g id="edge2" class="edge"><title>Node1&#45;&gt;Node3</title>
<path fill="none" stroke="midnightblue" d="M150.957,-20.7128C142.32,-18.7933 133.248,-16.7773 125.216,-14.9924"/>
<polygon fill="midnightblue" stroke="midnightblue" points="150.288,-24.1494 160.81,-22.9021 151.807,-17.3161 150.288,-24.1494"/>
</g>
<!-- Node3&#45;&gt;Node2 -->
<g id="edge3" class="edge"><title>Node3&#45;&gt;Node2</title>
<path fill="none" stroke="midnightblue" d="M63.8974,-17.8752C55.0414,-20.0186 45.8653,-22.2396 38.2068,-24.0933"/>
<polygon fill="midnightblue" stroke="midnightblue" points="64.7661,-21.266 73.6621,-15.5117 63.1194,-14.4625 64.7661,-21.266"/>
</g>
</g>
</svg>
