<?xml version="1.0" encoding="UTF-8" standalone="no"?>
<!DOCTYPE svg PUBLIC "-//W3C//DTD SVG 1.1//EN"
 "http://www.w3.org/Graphics/SVG/1.1/DTD/svg11.dtd">
<!-- Generated by graphviz version 2.38.0 (20140413.2041)
 -->
<!-- Title: coarse_tune Pages: 1 -->
<svg width="503pt" height="27pt"
 viewBox="0.00 0.00 503.00 27.00" xmlns="http://www.w3.org/2000/svg" xmlns:xlink="http://www.w3.org/1999/xlink">
<g id="graph0" class="graph" transform="scale(1 1) rotate(0) translate(4 23)">
<title>coarse_tune</title>
<!-- Node1 -->
<g id="node1" class="node"><title>Node1</title>
<g id="a_node1"><a xlink:title=" ">
<polygon fill="#bfbfbf" stroke="black" points="428,-0.5 428,-18.5 495,-18.5 495,-0.5 428,-0.5"/>
<text text-anchor="middle" x="461.5" y="-7.3" font-family="Calibri" font-size="9.00">coarse_tune</text>
</a>
</g>
</g>
<!-- Node2 -->
<g id="node2" class="node"><title>Node2</title>
<g id="a_node2"><a xlink:href="main_8h.html#a454a7687c8039514766571b23516ca9c" target="_top" xlink:title=" ">
<polygon fill="none" stroke="black" points="337,-0.5 337,-18.5 392,-18.5 392,-0.5 337,-0.5"/>
<text text-anchor="middle" x="364.5" y="-7.3" font-family="Calibri" font-size="9.00">sub_tune</text>
</a>
</g>
</g>
<!-- Node1&#45;&gt;Node2 -->
<g id="edge1" class="edge"><title>Node1&#45;&gt;Node2</title>
<path fill="none" stroke="midnightblue" d="M417.785,-9.5C409.104,-9.5 400.207,-9.5 392.271,-9.5"/>
<polygon fill="midnightblue" stroke="midnightblue" points="417.806,-13.0001 427.806,-9.5 417.806,-6.0001 417.806,-13.0001"/>
</g>
<!-- Node3 -->
<g id="node3" class="node"><title>Node3</title>
<g id="a_node3"><a xlink:href="main_8h.html#a1849f2e5bd63d11a7b9549470e287d17" target="_top" xlink:title=" ">
<polygon fill="none" stroke="black" points="266,-0.5 266,-18.5 301,-18.5 301,-0.5 266,-0.5"/>
<text text-anchor="middle" x="283.5" y="-7.3" font-family="Calibri" font-size="9.00">tune</text>
</a>
</g>
</g>
<!-- Node2&#45;&gt;Node3 -->
<g id="edge2" class="edge"><title>Node2&#45;&gt;Node3</title>
<path fill="none" stroke="midnightblue" d="M326.487,-9.5C317.583,-9.5 308.509,-9.5 301.085,-9.5"/>
<polygon fill="midnightblue" stroke="midnightblue" points="326.754,-13.0001 336.754,-9.5 326.754,-6.0001 326.754,-13.0001"/>
</g>
<!-- Node4 -->
<g id="node4" class="node"><title>Node4</title>
<g id="a_node4"><a xlink:href="main_8c.html#af18ed7edda7874a97cacaa11a2759260" target="_top" xlink:title=" ">
<polygon fill="none" stroke="black" points="175,-0.5 175,-18.5 230,-18.5 230,-0.5 175,-0.5"/>
<text text-anchor="middle" x="202.5" y="-7.3" font-family="Calibri" font-size="9.00">btn_push</text>
</a>
</g>
</g>
<!-- Node3&#45;&gt;Node4 -->
<g id="edge3" class="edge"><title>Node3&#45;&gt;Node4</title>
<path fill="none" stroke="midnightblue" d="M255.568,-9.5C247.367,-9.5 238.36,-9.5 230.177,-9.5"/>
<polygon fill="midnightblue" stroke="midnightblue" points="255.746,-13.0001 265.746,-9.5 255.746,-6.0001 255.746,-13.0001"/>
</g>
<!-- Node5 -->
<g id="node5" class="node"><title>Node5</title>
<g id="a_node5"><a xlink:href="main_8c.html#a1c9e5d54d8cf7f3d041aa2e0b330b3dd" target="_top" xlink:title="Handle the process of the buttons being pressed.">
<polygon fill="none" stroke="black" points="74,-0.5 74,-18.5 139,-18.5 139,-0.5 74,-0.5"/>
<text text-anchor="middle" x="106.5" y="-7.3" font-family="Calibri" font-size="9.00">button_proc</text>
</a>
</g>
</g>
<!-- Node4&#45;&gt;Node5 -->
<g id="edge4" class="edge"><title>Node4&#45;&gt;Node5</title>
<path fill="none" stroke="midnightblue" d="M164.545,-9.5C156.183,-9.5 147.376,-9.5 139.25,-9.5"/>
<polygon fill="midnightblue" stroke="midnightblue" points="164.815,-13.0001 174.815,-9.5 164.815,-6.0001 164.815,-13.0001"/>
</g>
<!-- Node6 -->
<g id="node6" class="node"><title>Node6</title>
<g id="a_node6"><a xlink:href="main_8c.html#acdef7a1fd863a6d3770c1268cb06add3" target="_top" xlink:title=" ">
<polygon fill="none" stroke="black" points="0,-0.5 0,-18.5 38,-18.5 38,-0.5 0,-0.5"/>
<text text-anchor="middle" x="19" y="-7.3" font-family="Calibri" font-size="9.00">main</text>
</a>
</g>
</g>
<!-- Node5&#45;&gt;Node6 -->
<g id="edge5" class="edge"><title>Node5&#45;&gt;Node6</title>
<path fill="none" stroke="midnightblue" d="M63.658,-9.5C54.7022,-9.5 45.6933,-9.5 38.2043,-9.5"/>
<polygon fill="midnightblue" stroke="midnightblue" points="63.663,-13.0001 73.663,-9.5 63.6629,-6.0001 63.663,-13.0001"/>
</g>
</g>
</svg>
