<?xml version="1.0" encoding="UTF-8" standalone="no"?>
<!DOCTYPE svg PUBLIC "-//W3C//DTD SVG 1.1//EN"
 "http://www.w3.org/Graphics/SVG/1.1/DTD/svg11.dtd">
<!-- Generated by graphviz version 2.38.0 (20140413.2041)
 -->
<!-- Title: get_pwr Pages: 1 -->
<svg width="158pt" height="101pt"
 viewBox="0.00 0.00 158.00 101.00" xmlns="http://www.w3.org/2000/svg" xmlns:xlink="http://www.w3.org/1999/xlink">
<g id="graph0" class="graph" transform="scale(1 1) rotate(0) translate(4 97)">
<title>get_pwr</title>
<!-- Node192 -->
<g id="node1" class="node"><title>Node192</title>
<polygon fill="#bfbfbf" stroke="black" points="0,-37.5 0,-55.5 49,-55.5 49,-37.5 0,-37.5"/>
<text text-anchor="middle" x="24.5" y="-44.3" font-family="Calibri" font-size="9.00">get_pwr</text>
</g>
<!-- Node193 -->
<g id="node2" class="node"><title>Node193</title>
<g id="a_node2"><a xlink:href="main__main_8h.html#ab19e6e081315a9a200394b74d10de395" target="_top" xlink:title="correction">
<polygon fill="none" stroke="black" points="89,-74.5 89,-92.5 146,-92.5 146,-74.5 89,-74.5"/>
<text text-anchor="middle" x="117.5" y="-81.3" font-family="Calibri" font-size="9.00">correction</text>
</a>
</g>
</g>
<!-- Node192&#45;&gt;Node193 -->
<g id="edge1" class="edge"><title>Node192&#45;&gt;Node193</title>
<path fill="none" stroke="midnightblue" d="M47.9944,-55.6461C59.1245,-60.1715 72.7469,-65.7103 84.9042,-70.6533"/>
<polygon fill="midnightblue" stroke="midnightblue" points="83.6825,-73.9348 94.2644,-74.4591 86.3191,-67.4503 83.6825,-73.9348"/>
</g>
<!-- Node194 -->
<g id="node3" class="node"><title>Node194</title>
<g id="a_node3"><a xlink:href="main__main_8h.html#acfd46f8711e9c1c20fffdfc8bdaa0ddd" target="_top" xlink:title="get_forward">
<polygon fill="none" stroke="black" points="85,-37.5 85,-55.5 150,-55.5 150,-37.5 85,-37.5"/>
<text text-anchor="middle" x="117.5" y="-44.3" font-family="Calibri" font-size="9.00">get_forward</text>
</a>
</g>
</g>
<!-- Node192&#45;&gt;Node194 -->
<g id="edge2" class="edge"><title>Node192&#45;&gt;Node194</title>
<path fill="none" stroke="midnightblue" d="M49.4092,-46.5C57.2061,-46.5 66.1042,-46.5 74.8145,-46.5"/>
<polygon fill="midnightblue" stroke="midnightblue" points="74.8762,-50.0001 84.8762,-46.5 74.8761,-43.0001 74.8762,-50.0001"/>
</g>
<!-- Node195 -->
<g id="node4" class="node"><title>Node195</title>
<g id="a_node4"><a xlink:href="main__main_8h.html#aa6b9a2b3d88f578ba6a9fefd911eae75" target="_top" xlink:title="get_reverse">
<polygon fill="none" stroke="black" points="85.5,-0.5 85.5,-18.5 149.5,-18.5 149.5,-0.5 85.5,-0.5"/>
<text text-anchor="middle" x="117.5" y="-7.3" font-family="Calibri" font-size="9.00">get_reverse</text>
</a>
</g>
</g>
<!-- Node192&#45;&gt;Node195 -->
<g id="edge3" class="edge"><title>Node192&#45;&gt;Node195</title>
<path fill="none" stroke="midnightblue" d="M47.9944,-37.3539C59.1245,-32.8285 72.7469,-27.2897 84.9042,-22.3467"/>
<polygon fill="midnightblue" stroke="midnightblue" points="86.3191,-25.5497 94.2644,-18.5409 83.6825,-19.0652 86.3191,-25.5497"/>
</g>
</g>
</svg>
