<?xml version="1.0" encoding="UTF-8" standalone="no"?>
<!DOCTYPE svg PUBLIC "-//W3C//DTD SVG 1.1//EN"
 "http://www.w3.org/Graphics/SVG/1.1/DTD/svg11.dtd">
<!-- Generated by graphviz version 2.38.0 (20140413.2041)
 -->
<!-- Title: tune Pages: 1 -->
<!--zoomable 728 -->
<svg id="main" version="1.1" xmlns="http://www.w3.org/2000/svg" xmlns:xlink="http://www.w3.org/1999/xlink" xml:space="preserve" onload="init(evt)">
<style type="text/css"><![CDATA[
.edge:hover path { stroke: red; }
.edge:hover polygon { stroke: red; fill: red; }
]]></style>
<script type="text/javascript"><![CDATA[
var edges = document.getElementsByTagName('g');
if (edges && edges.length) {
  for (var i=0;i<edges.length;i++) {
    if (edges[i].id.substr(0,4)=='edge') {
      edges[i].setAttribute('class','edge');
    }
  }
}
]]></script>
        <defs>
                <circle id="rim" cx="0" cy="0" r="7"/>
                <circle id="rim2" cx="0" cy="0" r="3.5"/>
                <g id="zoomPlus">
                        <use xlink:href="#rim" fill="#404040">
                                <set attributeName="fill" to="#808080" begin="zoomplus.mouseover" end="zoomplus.mouseout"/>
                        </use>
                        <path d="M-4,0h8M0,-4v8" fill="none" stroke="white" stroke-width="1.5" pointer-events="none"/>
                </g>
                <g id="zoomMin">
                        <use xlink:href="#rim" fill="#404040">
                                <set attributeName="fill" to="#808080" begin="zoomminus.mouseover" end="zoomminus.mouseout"/>
                        </use>
                        <path d="M-4,0h8" fill="none" stroke="white" stroke-width="1.5" pointer-events="none"/>
                </g>
                <g id="dirArrow">
                        <path fill="none" stroke="white" stroke-width="1.5" d="M0,-3.0v7 M-2.5,-0.5L0,-3.0L2.5,-0.5"/>
                </g>
               <g id="resetDef">
                       <use xlink:href="#rim2" fill="#404040">
                               <set attributeName="fill" to="#808080" begin="reset.mouseover" end="reset.mouseout"/>
                       </use>
               </g>
        </defs>

<script type="text/javascript">
var viewWidth = 1244;
var viewHeight = 728;
var sectionId = 'dynsection-52';
</script>
<script xlink:href="svgpan.js"/>
<svg id="graph" class="graph">
<g id="viewport">
<title>tune</title>
<!-- Node1 -->
<g id="node1" class="node"><title>Node1</title>
<g id="a_node1"><a xlink:title=" ">
<polygon fill="#bfbfbf" stroke="black" points="0,-398.165 0,-416.165 35,-416.165 35,-398.165 0,-398.165"/>
<text text-anchor="middle" x="17.5" y="-404.965" font-family="Calibri" font-size="9.00">tune</text>
</a>
</g>
</g>
<!-- Node2 -->
<g id="node2" class="node"><title>Node2</title>
<g id="a_node2"><a xlink:href="main_8h.html#a9dff326a6079fe726285b11ee837ad60" target="_top" xlink:title=" ">
<polygon fill="none" stroke="black" points="547,-75.1649 547,-93.1649 603,-93.1649 603,-75.1649 547,-75.1649"/>
<text text-anchor="middle" x="575" y="-81.9649" font-family="Calibri" font-size="9.00">atu_reset</text>
</a>
</g>
</g>
<!-- Node1&#45;&gt;Node2 -->
<g id="edge1" class="edge"><title>Node1&#45;&gt;Node2</title>
<path fill="none" stroke="midnightblue" d="M18.2349,-398.082C17.0065,-338.69 18.0944,-8.16494 194.5,-8.16494 194.5,-8.16494 194.5,-8.16494 297,-8.16494 390.773,-8.16494 496.244,-49.1718 545.63,-70.9424"/>
<polygon fill="midnightblue" stroke="midnightblue" points="544.459,-74.2531 555.016,-75.1483 547.322,-67.8651 544.459,-74.2531"/>
</g>
<!-- Node6 -->
<g id="node6" class="node"><title>Node6</title>
<g id="a_node6"><a xlink:href="main_8h.html#ad7eb7423e0b17ccfba1ae42f3a3274e0" target="_top" xlink:title=" ">
<polygon fill="none" stroke="black" points="363,-417.165 363,-435.165 411,-435.165 411,-417.165 363,-417.165"/>
<text text-anchor="middle" x="387" y="-423.965" font-family="Calibri" font-size="9.00">get_swr</text>
</a>
</g>
</g>
<!-- Node1&#45;&gt;Node6 -->
<g id="edge7" class="edge"><title>Node1&#45;&gt;Node6</title>
<path fill="none" stroke="midnightblue" d="M35.1469,-415.131C45.2875,-419.651 58.6327,-425.017 71,-428.165 181.706,-456.345 215.05,-473.905 327,-451.165 338.401,-448.849 350.333,-444.253 360.46,-439.627"/>
<polygon fill="midnightblue" stroke="midnightblue" points="362.048,-442.747 369.539,-435.255 359.011,-436.44 362.048,-442.747"/>
</g>
<!-- Node12 -->
<g id="node12" class="node"><title>Node12</title>
<g id="a_node12"><a xlink:href="main_8c.html#a6911b3f075cdf1d54cb14f17f6e5ef6b" target="_top" xlink:title=" ">
<polygon fill="none" stroke="black" points="755,-588.165 755,-606.165 802,-606.165 802,-588.165 755,-588.165"/>
<text text-anchor="middle" x="778.5" y="-594.965" font-family="Calibri" font-size="9.00">lcd_ind</text>
</a>
</g>
</g>
<!-- Node1&#45;&gt;Node12 -->
<g id="edge49" class="edge"><title>Node1&#45;&gt;Node12</title>
<path fill="none" stroke="midnightblue" d="M20.6679,-416.385C31.2955,-459.04 81.9891,-635.165 194.5,-635.165 194.5,-635.165 194.5,-635.165 576,-635.165 636.585,-635.165 705.669,-618.371 745.177,-607.112"/>
<polygon fill="midnightblue" stroke="midnightblue" points="746.173,-610.467 754.797,-604.312 744.217,-603.746 746.173,-610.467"/>
</g>
<!-- Node27 -->
<g id="node27" class="node"><title>Node27</title>
<g id="a_node27"><a xlink:href="main_8h.html#ab518a3d2c723f12d3af3024a195606ce" target="_top" xlink:title=" ">
<polygon fill="none" stroke="black" points="166,-379.165 166,-397.165 225,-397.165 225,-379.165 166,-379.165"/>
<text text-anchor="middle" x="195.5" y="-385.965" font-family="Calibri" font-size="9.00">sharp_cap</text>
</a>
</g>
</g>
<!-- Node1&#45;&gt;Node27 -->
<g id="edge50" class="edge"><title>Node1&#45;&gt;Node27</title>
<path fill="none" stroke="midnightblue" d="M35.0577,-405.377C62.4339,-402.422 117.85,-396.44 155.576,-392.367"/>
<polygon fill="midnightblue" stroke="midnightblue" points="156.143,-395.826 165.71,-391.273 155.392,-388.867 156.143,-395.826"/>
</g>
<!-- Node28 -->
<g id="node28" class="node"><title>Node28</title>
<g id="a_node28"><a xlink:href="main_8h.html#a72210b3ed1d5691c5bbda8c7f1e97197" target="_top" xlink:title=" ">
<polygon fill="none" stroke="black" points="267,-379.165 267,-397.165 325,-397.165 325,-379.165 267,-379.165"/>
<text text-anchor="middle" x="296" y="-385.965" font-family="Calibri" font-size="9.00">sharp_ind</text>
</a>
</g>
</g>
<!-- Node1&#45;&gt;Node28 -->
<g id="edge53" class="edge"><title>Node1&#45;&gt;Node28</title>
<path fill="none" stroke="midnightblue" d="M35.0229,-409.144C45.347,-410.28 58.9279,-411.591 71,-412.165 141.194,-415.5 159.65,-417.515 229,-406.165 238.296,-404.644 248.167,-402.337 257.364,-399.878"/>
<polygon fill="midnightblue" stroke="midnightblue" points="258.332,-403.242 267.021,-397.18 256.448,-396.5 258.332,-403.242"/>
</g>
<!-- Node29 -->
<g id="node29" class="node"><title>Node29</title>
<g id="a_node29"><a xlink:href="main_8h.html#a454a7687c8039514766571b23516ca9c" target="_top" xlink:title=" ">
<polygon fill="none" stroke="black" points="71,-303.165 71,-321.165 126,-321.165 126,-303.165 71,-303.165"/>
<text text-anchor="middle" x="98.5" y="-309.965" font-family="Calibri" font-size="9.00">sub_tune</text>
</a>
</g>
</g>
<!-- Node1&#45;&gt;Node29 -->
<g id="edge56" class="edge"><title>Node1&#45;&gt;Node29</title>
<path fill="none" stroke="midnightblue" d="M26.0749,-398.056C39.2537,-382.208 66.594,-349.33 83.3641,-329.164"/>
<polygon fill="midnightblue" stroke="midnightblue" points="86.1292,-331.313 89.832,-321.386 80.747,-326.837 86.1292,-331.313"/>
</g>
<!-- Node3 -->
<g id="node3" class="node"><title>Node3</title>
<g id="a_node3"><a xlink:href="main_8h.html#a85fb3ccca120f3b843a1dc7567908a04" target="_top" xlink:title=" ">
<polygon fill="none" stroke="black" points="750.5,-208.165 750.5,-226.165 806.5,-226.165 806.5,-208.165 750.5,-208.165"/>
<text text-anchor="middle" x="778.5" y="-214.965" font-family="Calibri" font-size="9.00">delay_ms</text>
</a>
</g>
</g>
<!-- Node2&#45;&gt;Node3 -->
<g id="edge2" class="edge"><title>Node2&#45;&gt;Node3</title>
<path fill="none" stroke="midnightblue" d="M603.22,-91.8239C631.643,-100.679 676.645,-117.182 710,-141.165 732.728,-157.507 753.206,-182.776 765.496,-199.635"/>
<polygon fill="midnightblue" stroke="midnightblue" points="762.806,-201.892 771.444,-208.026 768.516,-197.844 762.806,-201.892"/>
</g>
<!-- Node4 -->
<g id="node4" class="node"><title>Node4</title>
<g id="a_node4"><a xlink:href="main_8h.html#a2a7963b9b09696c6654b96c67900c6ea" target="_top" xlink:title=" ">
<polygon fill="none" stroke="black" points="650.5,-151.165 650.5,-169.165 698.5,-169.165 698.5,-151.165 650.5,-151.165"/>
<text text-anchor="middle" x="674.5" y="-157.965" font-family="Calibri" font-size="9.00">set_cap</text>
</a>
</g>
</g>
<!-- Node2&#45;&gt;Node4 -->
<g id="edge3" class="edge"><title>Node2&#45;&gt;Node4</title>
<path fill="none" stroke="midnightblue" d="M587.567,-93.1816C603.913,-105.923 633.99,-129.368 653.87,-144.863"/>
<polygon fill="midnightblue" stroke="midnightblue" points="651.909,-147.773 661.948,-151.16 656.212,-142.252 651.909,-147.773"/>
</g>
<!-- Node5 -->
<g id="node5" class="node"><title>Node5</title>
<g id="a_node5"><a xlink:href="main_8h.html#aecc83cd8bceb4bc24be844732ead2c2c" target="_top" xlink:title=" ">
<polygon fill="none" stroke="black" points="651,-227.165 651,-245.165 698,-245.165 698,-227.165 651,-227.165"/>
<text text-anchor="middle" x="674.5" y="-233.965" font-family="Calibri" font-size="9.00">set_ind</text>
</a>
</g>
</g>
<!-- Node2&#45;&gt;Node5 -->
<g id="edge5" class="edge"><title>Node2&#45;&gt;Node5</title>
<path fill="none" stroke="midnightblue" d="M581.807,-93.218C597.553,-117.766 641.275,-185.927 662.139,-218.453"/>
<polygon fill="midnightblue" stroke="midnightblue" points="659.255,-220.44 667.6,-226.967 665.147,-216.66 659.255,-220.44"/>
</g>
<!-- Node4&#45;&gt;Node3 -->
<g id="edge4" class="edge"><title>Node4&#45;&gt;Node3</title>
<path fill="none" stroke="midnightblue" d="M691.888,-169.323C708.171,-178.422 733.367,-192.503 752.216,-203.036"/>
<polygon fill="midnightblue" stroke="midnightblue" points="750.716,-206.207 761.153,-208.03 754.131,-200.096 750.716,-206.207"/>
</g>
<!-- Node5&#45;&gt;Node3 -->
<g id="edge6" class="edge"><title>Node5&#45;&gt;Node3</title>
<path fill="none" stroke="midnightblue" d="M698.137,-231.948C710.511,-229.643 726.151,-226.73 740.269,-224.1"/>
<polygon fill="midnightblue" stroke="midnightblue" points="741.022,-227.52 750.212,-222.248 739.74,-220.639 741.022,-227.52"/>
</g>
<!-- Node7 -->
<g id="node7" class="node"><title>Node7</title>
<g id="a_node7"><a xlink:href="main_8h.html#ab37ca657b79c6b9176cb63e9d812a182" target="_top" xlink:title=" ">
<polygon fill="none" stroke="black" points="650,-664.165 650,-682.165 699,-682.165 699,-664.165 650,-664.165"/>
<text text-anchor="middle" x="674.5" y="-670.965" font-family="Calibri" font-size="9.00">get_pwr</text>
</a>
</g>
</g>
<!-- Node6&#45;&gt;Node7 -->
<g id="edge8" class="edge"><title>Node6&#45;&gt;Node7</title>
<path fill="none" stroke="midnightblue" d="M397.444,-435.458C408.962,-446.714 429.109,-466.156 447,-482.165 521.837,-549.131 614.263,-625.043 653.923,-657.309"/>
<polygon fill="midnightblue" stroke="midnightblue" points="652.017,-660.269 661.986,-663.857 656.43,-654.836 652.017,-660.269"/>
</g>
<!-- Node11 -->
<g id="node11" class="node"><title>Node11</title>
<g id="a_node11"><a xlink:href="main_8c.html#a4ae0d4fa97fc0ca3611813fee4f9af7c" target="_top" xlink:title=" ">
<polygon fill="none" stroke="black" points="645.5,-550.165 645.5,-568.165 703.5,-568.165 703.5,-550.165 645.5,-550.165"/>
<text text-anchor="middle" x="674.5" y="-556.965" font-family="Calibri" font-size="9.00">show_pwr</text>
</a>
</g>
</g>
<!-- Node6&#45;&gt;Node11 -->
<g id="edge12" class="edge"><title>Node6&#45;&gt;Node11</title>
<path fill="none" stroke="midnightblue" d="M407.624,-435.307C457.047,-458.33 586.826,-518.788 644.805,-545.797"/>
<polygon fill="midnightblue" stroke="midnightblue" points="643.574,-549.085 654.117,-550.135 646.53,-542.74 643.574,-549.085"/>
</g>
<!-- Node20 -->
<g id="node20" class="node"><title>Node20</title>
<g id="a_node20"><a xlink:href="main_8c.html#a11724d8cce81ed96bec12a004ea3ea7a" target="_top" xlink:title=" ">
<polygon fill="none" stroke="black" points="447,-417.165 447,-435.165 511,-435.165 511,-417.165 447,-417.165"/>
<text text-anchor="middle" x="479" y="-423.965" font-family="Calibri" font-size="9.00">show_reset</text>
</a>
</g>
</g>
<!-- Node6&#45;&gt;Node20 -->
<g id="edge27" class="edge"><title>Node6&#45;&gt;Node20</title>
<path fill="none" stroke="midnightblue" d="M411.177,-426.165C418.964,-426.165 427.9,-426.165 436.651,-426.165"/>
<polygon fill="midnightblue" stroke="midnightblue" points="436.759,-429.665 446.759,-426.165 436.759,-422.665 436.759,-429.665"/>
</g>
<!-- Node8 -->
<g id="node8" class="node"><title>Node8</title>
<g id="a_node8"><a xlink:href="main_8h.html#ab19e6e081315a9a200394b74d10de395" target="_top" xlink:title=" ">
<polygon fill="none" stroke="black" points="750,-664.165 750,-682.165 807,-682.165 807,-664.165 750,-664.165"/>
<text text-anchor="middle" x="778.5" y="-670.965" font-family="Calibri" font-size="9.00">correction</text>
</a>
</g>
</g>
<!-- Node7&#45;&gt;Node8 -->
<g id="edge9" class="edge"><title>Node7&#45;&gt;Node8</title>
<path fill="none" stroke="midnightblue" d="M699.157,-673.165C711.257,-673.165 726.271,-673.165 739.909,-673.165"/>
<polygon fill="midnightblue" stroke="midnightblue" points="739.998,-676.665 749.998,-673.165 739.998,-669.665 739.998,-676.665"/>
</g>
<!-- Node9 -->
<g id="node9" class="node"><title>Node9</title>
<g id="a_node9"><a xlink:href="main_8h.html#acfd46f8711e9c1c20fffdfc8bdaa0ddd" target="_top" xlink:title=" ">
<polygon fill="none" stroke="black" points="746,-627.165 746,-645.165 811,-645.165 811,-627.165 746,-627.165"/>
<text text-anchor="middle" x="778.5" y="-633.965" font-family="Calibri" font-size="9.00">get_forward</text>
</a>
</g>
</g>
<!-- Node7&#45;&gt;Node9 -->
<g id="edge10" class="edge"><title>Node7&#45;&gt;Node9</title>
<path fill="none" stroke="midnightblue" d="M699.157,-664.583C712.163,-659.865 728.538,-653.926 742.95,-648.698"/>
<polygon fill="midnightblue" stroke="midnightblue" points="744.341,-651.916 752.548,-645.216 741.954,-645.336 744.341,-651.916"/>
</g>
<!-- Node10 -->
<g id="node10" class="node"><title>Node10</title>
<g id="a_node10"><a xlink:href="main_8h.html#aa6b9a2b3d88f578ba6a9fefd911eae75" target="_top" xlink:title=" ">
<polygon fill="none" stroke="black" points="746.5,-701.165 746.5,-719.165 810.5,-719.165 810.5,-701.165 746.5,-701.165"/>
<text text-anchor="middle" x="778.5" y="-707.965" font-family="Calibri" font-size="9.00">get_reverse</text>
</a>
</g>
</g>
<!-- Node7&#45;&gt;Node10 -->
<g id="edge11" class="edge"><title>Node7&#45;&gt;Node10</title>
<path fill="none" stroke="midnightblue" d="M699.157,-681.746C712.163,-686.464 728.538,-692.404 742.95,-697.632"/>
<polygon fill="midnightblue" stroke="midnightblue" points="741.954,-700.994 752.548,-701.114 744.341,-694.413 741.954,-700.994"/>
</g>
<!-- Node11&#45;&gt;Node12 -->
<g id="edge13" class="edge"><title>Node11&#45;&gt;Node12</title>
<path fill="none" stroke="midnightblue" d="M699.673,-568.17C713.266,-573.235 730.415,-579.624 745.153,-585.114"/>
<polygon fill="midnightblue" stroke="midnightblue" points="744.306,-588.533 754.898,-588.745 746.75,-581.974 744.306,-588.533"/>
</g>
<!-- Node13 -->
<g id="node13" class="node"><title>Node13</title>
<g id="a_node13"><a xlink:href="oled__control_8c.html#a1c8eef09adf01c9a7e3c6188f25c3c48" target="_top" xlink:title=" ">
<polygon fill="none" stroke="black" points="847,-493.165 847,-511.165 906,-511.165 906,-493.165 847,-493.165"/>
<text text-anchor="middle" x="876.5" y="-499.965" font-family="Calibri" font-size="9.00">led_wr_str</text>
</a>
</g>
</g>
<!-- Node11&#45;&gt;Node13 -->
<g id="edge26" class="edge"><title>Node11&#45;&gt;Node13</title>
<path fill="none" stroke="midnightblue" d="M703.732,-558.06C731.658,-556.264 775.277,-551.548 811,-539.165 826.357,-533.841 842.21,-524.804 854.357,-516.995"/>
<polygon fill="midnightblue" stroke="midnightblue" points="856.465,-519.796 862.853,-511.343 852.588,-513.967 856.465,-519.796"/>
</g>
<!-- Node12&#45;&gt;Node13 -->
<g id="edge14" class="edge"><title>Node12&#45;&gt;Node13</title>
<path fill="none" stroke="midnightblue" d="M792.492,-588.094C798.345,-583.801 805.224,-578.463 811,-573.165 829.672,-556.04 848.932,-534.193 861.485,-519.285"/>
<polygon fill="midnightblue" stroke="midnightblue" points="864.342,-521.324 868.047,-511.398 858.961,-516.847 864.342,-521.324"/>
</g>
<!-- Node14 -->
<g id="node14" class="node"><title>Node14</title>
<g id="a_node14"><a xlink:href="oled__control_8c.html#a3d35666326cc069eda3b63c70983fdbc" target="_top" xlink:title=" ">
<polygon fill="none" stroke="black" points="1056,-454.165 1056,-472.165 1111,-472.165 1111,-454.165 1056,-454.165"/>
<text text-anchor="middle" x="1083.5" y="-460.965" font-family="Calibri" font-size="9.00">led_send</text>
</a>
</g>
</g>
<!-- Node13&#45;&gt;Node14 -->
<g id="edge15" class="edge"><title>Node13&#45;&gt;Node14</title>
<path fill="none" stroke="midnightblue" d="M904.894,-493.14C916.275,-489.641 929.68,-485.842 942,-483.165 976.799,-475.604 1017.09,-470.206 1045.58,-466.938"/>
<polygon fill="midnightblue" stroke="midnightblue" points="1046.33,-470.376 1055.88,-465.79 1045.56,-463.419 1046.33,-470.376"/>
</g>
<!-- Node18 -->
<g id="node18" class="node"><title>Node18</title>
<g id="a_node18"><a xlink:href="oled__control_8c.html#a6e85fd05697e2238e4d9babf1c952772" target="_top" xlink:title=" ">
<polygon fill="none" stroke="black" points="942,-493.165 942,-511.165 1007,-511.165 1007,-493.165 942,-493.165"/>
<text text-anchor="middle" x="974.5" y="-499.965" font-family="Calibri" font-size="9.00">oled_wr_str</text>
</a>
</g>
</g>
<!-- Node13&#45;&gt;Node18 -->
<g id="edge19" class="edge"><title>Node13&#45;&gt;Node18</title>
<path fill="none" stroke="midnightblue" d="M906.043,-502.165C914.147,-502.165 923.142,-502.165 931.852,-502.165"/>
<polygon fill="midnightblue" stroke="midnightblue" points="931.877,-505.665 941.877,-502.165 931.877,-498.665 931.877,-505.665"/>
</g>
<!-- Node15 -->
<g id="node15" class="node"><title>Node15</title>
<g id="a_node15"><a xlink:href="oled__control_8c.html#ab7f6b5c6c1483f6286f2de5786c028d9" target="_top" xlink:title=" ">
<polygon fill="none" stroke="black" points="1162,-520.165 1162,-538.165 1234,-538.165 1234,-520.165 1162,-520.165"/>
<text text-anchor="middle" x="1198" y="-526.965" font-family="Calibri" font-size="9.00">Soft_I2C_Start</text>
</a>
</g>
</g>
<!-- Node14&#45;&gt;Node15 -->
<g id="edge16" class="edge"><title>Node14&#45;&gt;Node15</title>
<path fill="none" stroke="midnightblue" d="M1100.14,-472.342C1118.95,-483.375 1150.72,-502.016 1172.73,-514.924"/>
<polygon fill="midnightblue" stroke="midnightblue" points="1171.09,-518.025 1181.49,-520.066 1174.64,-511.987 1171.09,-518.025"/>
</g>
<!-- Node16 -->
<g id="node16" class="node"><title>Node16</title>
<g id="a_node16"><a xlink:href="oled__control_8c.html#a16eb842aa672ca44820ae6d5f9933425" target="_top" xlink:title=" ">
<polygon fill="none" stroke="black" points="1162.5,-417.165 1162.5,-435.165 1233.5,-435.165 1233.5,-417.165 1162.5,-417.165"/>
<text text-anchor="middle" x="1198" y="-423.965" font-family="Calibri" font-size="9.00">Soft_I2C_Stop</text>
</a>
</g>
</g>
<!-- Node14&#45;&gt;Node16 -->
<g id="edge17" class="edge"><title>Node14&#45;&gt;Node16</title>
<path fill="none" stroke="midnightblue" d="M1111.16,-454.396C1125.69,-449.618 1143.9,-443.629 1159.8,-438.398"/>
<polygon fill="midnightblue" stroke="midnightblue" points="1160.95,-441.706 1169.36,-435.257 1158.76,-435.056 1160.95,-441.706"/>
</g>
<!-- Node17 -->
<g id="node17" class="node"><title>Node17</title>
<g id="a_node17"><a xlink:href="oled__control_8c.html#a73610916645f17c19124e697b005f694" target="_top" xlink:title=" ">
<polygon fill="none" stroke="black" points="1160,-464.165 1160,-482.165 1236,-482.165 1236,-464.165 1160,-464.165"/>
<text text-anchor="middle" x="1198" y="-470.965" font-family="Calibri" font-size="9.00">Soft_I2C_Write</text>
</a>
</g>
</g>
<!-- Node14&#45;&gt;Node17 -->
<g id="edge18" class="edge"><title>Node14&#45;&gt;Node17</title>
<path fill="none" stroke="midnightblue" d="M1111.16,-465.535C1122.65,-466.556 1136.43,-467.781 1149.56,-468.948"/>
<polygon fill="midnightblue" stroke="midnightblue" points="1149.62,-472.467 1159.89,-469.866 1150.24,-465.495 1149.62,-472.467"/>
</g>
<!-- Node18&#45;&gt;Node15 -->
<g id="edge23" class="edge"><title>Node18&#45;&gt;Node15</title>
<path fill="none" stroke="midnightblue" d="M983.037,-511.417C994.408,-524.558 1017.36,-548.043 1043,-557.165 1085.74,-572.372 1138.22,-555.841 1169.57,-542.497"/>
<polygon fill="midnightblue" stroke="midnightblue" points="1171.25,-545.581 1178.96,-538.321 1168.4,-539.184 1171.25,-545.581"/>
</g>
<!-- Node18&#45;&gt;Node16 -->
<g id="edge24" class="edge"><title>Node18&#45;&gt;Node16</title>
<path fill="none" stroke="midnightblue" d="M980.635,-492.847C993,-470.801 1024.75,-416.585 1043,-407.165 1082.92,-386.56 1136.17,-400.859 1168.45,-413.334"/>
<polygon fill="midnightblue" stroke="midnightblue" points="1167.18,-416.594 1177.76,-417.106 1169.81,-410.106 1167.18,-416.594"/>
</g>
<!-- Node18&#45;&gt;Node17 -->
<g id="edge25" class="edge"><title>Node18&#45;&gt;Node17</title>
<path fill="none" stroke="midnightblue" d="M1007.24,-498.01C1044.56,-493.124 1106.86,-484.967 1149.83,-479.34"/>
<polygon fill="midnightblue" stroke="midnightblue" points="1150.31,-482.807 1159.78,-478.039 1149.41,-475.866 1150.31,-482.807"/>
</g>
<!-- Node19 -->
<g id="node19" class="node"><title>Node19</title>
<g id="a_node19"><a xlink:href="oled__control_8c.html#a3cf32ac4d3d7c92be54c385c1ed8cc76" target="_top" xlink:title=" ">
<polygon fill="none" stroke="black" points="1043.5,-530.165 1043.5,-548.165 1123.5,-548.165 1123.5,-530.165 1043.5,-530.165"/>
<text text-anchor="middle" x="1083.5" y="-536.965" font-family="Calibri" font-size="9.00">set_addressing</text>
</a>
</g>
</g>
<!-- Node18&#45;&gt;Node19 -->
<g id="edge20" class="edge"><title>Node18&#45;&gt;Node19</title>
<path fill="none" stroke="midnightblue" d="M1001.68,-511.216C1015.15,-515.875 1031.78,-521.626 1046.45,-526.698"/>
<polygon fill="midnightblue" stroke="midnightblue" points="1045.63,-530.119 1056.22,-530.079 1047.92,-523.503 1045.63,-530.119"/>
</g>
<!-- Node19&#45;&gt;Node15 -->
<g id="edge21" class="edge"><title>Node19&#45;&gt;Node15</title>
<path fill="none" stroke="midnightblue" d="M1123.53,-535.695C1132.57,-534.892 1142.26,-534.031 1151.55,-533.205"/>
<polygon fill="midnightblue" stroke="midnightblue" points="1152.15,-536.665 1161.8,-532.294 1151.53,-529.693 1152.15,-536.665"/>
</g>
<!-- Node19&#45;&gt;Node17 -->
<g id="edge22" class="edge"><title>Node19&#45;&gt;Node17</title>
<path fill="none" stroke="midnightblue" d="M1100.14,-529.988C1118.95,-518.955 1150.72,-500.314 1172.73,-487.406"/>
<polygon fill="midnightblue" stroke="midnightblue" points="1174.64,-490.343 1181.49,-482.264 1171.09,-484.305 1174.64,-490.343"/>
</g>
<!-- Node20&#45;&gt;Node2 -->
<g id="edge28" class="edge"><title>Node20&#45;&gt;Node2</title>
<path fill="none" stroke="midnightblue" d="M482.514,-417.017C495.101,-371.222 551.355,-166.555 568.814,-103.033"/>
<polygon fill="midnightblue" stroke="midnightblue" points="572.246,-103.752 571.522,-93.182 565.496,-101.897 572.246,-103.752"/>
</g>
<!-- Node20&#45;&gt;Node12 -->
<g id="edge29" class="edge"><title>Node20&#45;&gt;Node12</title>
<path fill="none" stroke="midnightblue" d="M486.312,-435.273C505.576,-462.264 566.724,-542.117 639,-577.165 672.487,-593.403 715.49,-597.369 744.63,-597.936"/>
<polygon fill="midnightblue" stroke="midnightblue" points="744.67,-601.436 754.695,-598.007 744.72,-594.436 744.67,-601.436"/>
</g>
<!-- Node20&#45;&gt;Node13 -->
<g id="edge47" class="edge"><title>Node20&#45;&gt;Node13</title>
<path fill="none" stroke="midnightblue" d="M511.33,-421.979C556.019,-416.948 640.369,-410.941 710,-426.165 764.025,-437.976 821.482,-469.125 852.463,-487.674"/>
<polygon fill="midnightblue" stroke="midnightblue" points="850.834,-490.779 861.195,-492.99 854.474,-484.8 850.834,-490.779"/>
</g>
<!-- Node21 -->
<g id="node21" class="node"><title>Node21</title>
<g id="a_node21"><a xlink:href="main_8c.html#ae5a14b4884e85f47ad8a4a716f13203a" target="_top" xlink:title=" ">
<polygon fill="none" stroke="black" points="551,-455.165 551,-473.165 599,-473.165 599,-455.165 551,-455.165"/>
<text text-anchor="middle" x="575" y="-461.965" font-family="Calibri" font-size="9.00">lcd_pwr</text>
</a>
</g>
</g>
<!-- Node20&#45;&gt;Node21 -->
<g id="edge30" class="edge"><title>Node20&#45;&gt;Node21</title>
<path fill="none" stroke="midnightblue" d="M502.277,-435.17C514.131,-439.963 528.918,-445.94 541.981,-451.221"/>
<polygon fill="midnightblue" stroke="midnightblue" points="540.975,-454.589 551.557,-455.092 543.598,-448.1 540.975,-454.589"/>
</g>
<!-- Node26 -->
<g id="node26" class="node"><title>Node26</title>
<g id="a_node26"><a xlink:href="main_8h.html#aa3ee146d5fca99f368e8ddb5d5dd72cb" target="_top" xlink:title="Set the state of the switch.">
<polygon fill="none" stroke="black" points="652,-322.165 652,-340.165 697,-340.165 697,-322.165 652,-322.165"/>
<text text-anchor="middle" x="674.5" y="-328.965" font-family="Calibri" font-size="9.00">set_sw</text>
</a>
</g>
</g>
<!-- Node20&#45;&gt;Node26 -->
<g id="edge48" class="edge"><title>Node20&#45;&gt;Node26</title>
<path fill="none" stroke="midnightblue" d="M498.554,-417.056C532.722,-400.281 605.755,-364.425 645.808,-344.76"/>
<polygon fill="midnightblue" stroke="midnightblue" points="647.569,-347.795 655.003,-340.246 644.484,-341.512 647.569,-347.795"/>
</g>
<!-- Node21&#45;&gt;Node4 -->
<g id="edge42" class="edge"><title>Node21&#45;&gt;Node4</title>
<path fill="none" stroke="midnightblue" d="M577.356,-454.88C582.419,-421.624 601.868,-305.729 639,-217.165 644.812,-203.304 653.612,-188.829 660.869,-177.934"/>
<polygon fill="midnightblue" stroke="midnightblue" points="663.963,-179.613 666.736,-169.387 658.191,-175.651 663.963,-179.613"/>
</g>
<!-- Node21&#45;&gt;Node5 -->
<g id="edge43" class="edge"><title>Node21&#45;&gt;Node5</title>
<path fill="none" stroke="midnightblue" d="M579.729,-454.867C589.311,-431.038 615.683,-365.882 639,-312.165 647.532,-292.509 657.719,-270.203 664.801,-254.866"/>
<polygon fill="midnightblue" stroke="midnightblue" points="668.122,-256.025 669.151,-245.481 661.771,-253.082 668.122,-256.025"/>
</g>
<!-- Node21&#45;&gt;Node7 -->
<g id="edge38" class="edge"><title>Node21&#45;&gt;Node7</title>
<path fill="none" stroke="midnightblue" d="M580.315,-473.415C595.228,-505.381 644.771,-611.582 664.893,-654.715"/>
<polygon fill="midnightblue" stroke="midnightblue" points="661.835,-656.439 669.235,-664.022 668.179,-653.48 661.835,-656.439"/>
</g>
<!-- Node21&#45;&gt;Node11 -->
<g id="edge46" class="edge"><title>Node21&#45;&gt;Node11</title>
<path fill="none" stroke="midnightblue" d="M583.129,-473.539C594.196,-487.763 616.579,-515.244 639,-535.165 642.532,-538.303 646.484,-541.389 650.418,-544.248"/>
<polygon fill="midnightblue" stroke="midnightblue" points="648.618,-547.259 658.831,-550.079 652.606,-541.506 648.618,-547.259"/>
</g>
<!-- Node21&#45;&gt;Node13 -->
<g id="edge41" class="edge"><title>Node21&#45;&gt;Node13</title>
<path fill="none" stroke="midnightblue" d="M599.004,-467.084C650.126,-473.57 773.639,-489.241 836.839,-497.26"/>
<polygon fill="midnightblue" stroke="midnightblue" points="836.449,-500.738 846.81,-498.525 837.33,-493.794 836.449,-500.738"/>
</g>
<!-- Node22 -->
<g id="node22" class="node"><title>Node22</title>
<g id="a_node22"><a xlink:href="main_8c.html#a593218c5fe00b499d494826fc0aa5279" target="_top" xlink:title=" ">
<polygon fill="none" stroke="black" points="639,-436.165 639,-454.165 710,-454.165 710,-436.165 639,-436.165"/>
<text text-anchor="middle" x="674.5" y="-442.965" font-family="Calibri" font-size="9.00">button_delay</text>
</a>
</g>
</g>
<!-- Node21&#45;&gt;Node22 -->
<g id="edge31" class="edge"><title>Node21&#45;&gt;Node22</title>
<path fill="none" stroke="midnightblue" d="M599.106,-459.662C607.975,-457.934 618.428,-455.897 628.65,-453.905"/>
<polygon fill="midnightblue" stroke="midnightblue" points="629.582,-457.289 638.728,-451.941 628.243,-450.418 629.582,-457.289"/>
</g>
<!-- Node23 -->
<g id="node23" class="node"><title>Node23</title>
<g id="a_node23"><a xlink:href="oled__control_8c.html#a5febfdc847aa6f3bc3f3c8f7818b8699" target="_top" xlink:title=" ">
<polygon fill="none" stroke="black" points="943.5,-417.165 943.5,-435.165 1005.5,-435.165 1005.5,-417.165 943.5,-417.165"/>
<text text-anchor="middle" x="974.5" y="-423.965" font-family="Calibri" font-size="9.00">display_on</text>
</a>
</g>
</g>
<!-- Node21&#45;&gt;Node23 -->
<g id="edge32" class="edge"><title>Node21&#45;&gt;Node23</title>
<path fill="none" stroke="midnightblue" d="M586.742,-455.145C598.639,-445.796 618.819,-431.78 639,-426.165 741.815,-397.558 869.389,-410.022 933.194,-419.333"/>
<polygon fill="midnightblue" stroke="midnightblue" points="932.832,-422.818 943.242,-420.851 933.877,-415.896 932.832,-422.818"/>
</g>
<!-- Node25 -->
<g id="node25" class="node"><title>Node25</title>
<g id="a_node25"><a xlink:href="main_8c.html#aa8fd50019a763561abc6621bb224417f" target="_top" xlink:title=" ">
<polygon fill="none" stroke="black" points="755,-512.165 755,-530.165 802,-530.165 802,-512.165 755,-512.165"/>
<text text-anchor="middle" x="778.5" y="-518.965" font-family="Calibri" font-size="9.00">lcd_swr</text>
</a>
</g>
</g>
<!-- Node21&#45;&gt;Node25 -->
<g id="edge39" class="edge"><title>Node21&#45;&gt;Node25</title>
<path fill="none" stroke="midnightblue" d="M590.438,-473.393C602.846,-480.908 621.461,-491.215 639,-497.165 674.041,-509.052 716.161,-515.277 744.681,-518.378"/>
<polygon fill="midnightblue" stroke="midnightblue" points="744.6,-521.887 754.903,-519.418 745.309,-514.923 744.6,-521.887"/>
</g>
<!-- Node21&#45;&gt;Node26 -->
<g id="edge44" class="edge"><title>Node21&#45;&gt;Node26</title>
<path fill="none" stroke="midnightblue" d="M582.702,-455.023C598.774,-433.099 639.73,-377.231 660.702,-348.623"/>
<polygon fill="midnightblue" stroke="midnightblue" points="663.662,-350.505 666.752,-340.371 658.016,-346.366 663.662,-350.505"/>
</g>
<!-- Node23&#45;&gt;Node14 -->
<g id="edge33" class="edge"><title>Node23&#45;&gt;Node14</title>
<path fill="none" stroke="midnightblue" d="M1001.68,-435.216C1015.15,-439.875 1031.78,-445.626 1046.45,-450.698"/>
<polygon fill="midnightblue" stroke="midnightblue" points="1045.63,-454.119 1056.22,-454.079 1047.92,-447.503 1045.63,-454.119"/>
</g>
<!-- Node24 -->
<g id="node24" class="node"><title>Node24</title>
<g id="a_node24"><a xlink:href="oled__control_8c.html#a78a346ba6e89c3140dd554a46e56c719" target="_top" xlink:title=" ">
<polygon fill="none" stroke="black" points="1043,-417.165 1043,-435.165 1124,-435.165 1124,-417.165 1043,-417.165"/>
<text text-anchor="middle" x="1083.5" y="-423.965" font-family="Calibri" font-size="9.00">send_command</text>
</a>
</g>
</g>
<!-- Node23&#45;&gt;Node24 -->
<g id="edge34" class="edge"><title>Node23&#45;&gt;Node24</title>
<path fill="none" stroke="midnightblue" d="M1005.59,-426.165C1013.94,-426.165 1023.25,-426.165 1032.41,-426.165"/>
<polygon fill="midnightblue" stroke="midnightblue" points="1032.65,-429.665 1042.65,-426.165 1032.65,-422.665 1032.65,-429.665"/>
</g>
<!-- Node24&#45;&gt;Node15 -->
<g id="edge35" class="edge"><title>Node24&#45;&gt;Node15</title>
<path fill="none" stroke="midnightblue" d="M1109.39,-435.256C1114.5,-437.722 1119.64,-440.692 1124,-444.165 1144.59,-460.553 1142.79,-471.26 1160,-491.165 1166.41,-498.575 1173.88,-506.388 1180.42,-512.99"/>
<polygon fill="midnightblue" stroke="midnightblue" points="1178,-515.518 1187.56,-520.086 1182.94,-510.554 1178,-515.518"/>
</g>
<!-- Node24&#45;&gt;Node16 -->
<g id="edge36" class="edge"><title>Node24&#45;&gt;Node16</title>
<path fill="none" stroke="midnightblue" d="M1124.16,-426.165C1133.17,-426.165 1142.8,-426.165 1152.02,-426.165"/>
<polygon fill="midnightblue" stroke="midnightblue" points="1152.18,-429.665 1162.18,-426.165 1152.18,-422.665 1152.18,-429.665"/>
</g>
<!-- Node24&#45;&gt;Node17 -->
<g id="edge37" class="edge"><title>Node24&#45;&gt;Node17</title>
<path fill="none" stroke="midnightblue" d="M1106.19,-435.227C1123.16,-442.314 1146.97,-452.262 1165.95,-460.193"/>
<polygon fill="midnightblue" stroke="midnightblue" points="1164.8,-463.505 1175.38,-464.131 1167.5,-457.046 1164.8,-463.505"/>
</g>
<!-- Node25&#45;&gt;Node13 -->
<g id="edge40" class="edge"><title>Node25&#45;&gt;Node13</title>
<path fill="none" stroke="midnightblue" d="M802.251,-516.662C812.543,-514.625 825,-512.16 836.7,-509.844"/>
<polygon fill="midnightblue" stroke="midnightblue" points="837.583,-513.237 846.713,-507.862 836.224,-506.371 837.583,-513.237"/>
</g>
<!-- Node26&#45;&gt;Node3 -->
<g id="edge45" class="edge"><title>Node26&#45;&gt;Node3</title>
<path fill="none" stroke="midnightblue" d="M683.847,-321.836C701.042,-302.618 740.622,-258.382 762.42,-234.019"/>
<polygon fill="midnightblue" stroke="midnightblue" points="765.263,-236.091 769.323,-226.304 760.046,-231.423 765.263,-236.091"/>
</g>
<!-- Node27&#45;&gt;Node4 -->
<g id="edge52" class="edge"><title>Node27&#45;&gt;Node4</title>
<path fill="none" stroke="midnightblue" d="M215.493,-379.086C289.313,-343.801 557.394,-215.662 645.341,-173.625"/>
<polygon fill="midnightblue" stroke="midnightblue" points="646.94,-176.74 654.452,-169.269 643.921,-170.424 646.94,-176.74"/>
</g>
<!-- Node27&#45;&gt;Node6 -->
<g id="edge51" class="edge"><title>Node27&#45;&gt;Node6</title>
<path fill="none" stroke="midnightblue" d="M225.02,-396.295C237.265,-399.62 251.773,-403.34 265,-406.165 294.384,-412.44 328.14,-417.874 352.52,-421.488"/>
<polygon fill="midnightblue" stroke="midnightblue" points="352.282,-424.99 362.683,-422.969 353.292,-418.063 352.282,-424.99"/>
</g>
<!-- Node28&#45;&gt;Node5 -->
<g id="edge55" class="edge"><title>Node28&#45;&gt;Node5</title>
<path fill="none" stroke="midnightblue" d="M325.19,-382.147C380.582,-369.644 506.611,-337.818 603,-288.165 622.258,-278.244 641.911,-263.265 655.558,-251.928"/>
<polygon fill="midnightblue" stroke="midnightblue" points="657.866,-254.559 663.221,-245.417 653.334,-249.225 657.866,-254.559"/>
</g>
<!-- Node28&#45;&gt;Node6 -->
<g id="edge54" class="edge"><title>Node28&#45;&gt;Node6</title>
<path fill="none" stroke="midnightblue" d="M318.092,-397.17C329.205,-401.916 343.042,-407.823 355.32,-413.066"/>
<polygon fill="midnightblue" stroke="midnightblue" points="354.18,-416.385 364.751,-417.092 356.929,-409.947 354.18,-416.385"/>
</g>
<!-- Node29&#45;&gt;Node2 -->
<g id="edge57" class="edge"><title>Node29&#45;&gt;Node2</title>
<path fill="none" stroke="midnightblue" d="M102.245,-302.945C115.567,-260.29 177.68,-84.1649 295,-84.1649 295,-84.1649 295,-84.1649 388,-84.1649 439.433,-84.1649 498.867,-84.1649 536.435,-84.1649"/>
<polygon fill="midnightblue" stroke="midnightblue" points="536.893,-87.665 546.893,-84.1649 536.893,-80.665 536.893,-87.665"/>
</g>
<!-- Node29&#45;&gt;Node4 -->
<g id="edge66" class="edge"><title>Node29&#45;&gt;Node4</title>
<path fill="none" stroke="midnightblue" d="M99.2565,-303.053C98.9179,-270.682 102.35,-160.172 162,-104.165 305.445,30.5198 427.232,23.277 603,-65.1649 634.661,-81.096 655.673,-118.718 666.005,-141.548"/>
<polygon fill="midnightblue" stroke="midnightblue" points="662.843,-143.054 670.001,-150.865 669.276,-140.295 662.843,-143.054"/>
</g>
<!-- Node29&#45;&gt;Node5 -->
<g id="edge67" class="edge"><title>Node29&#45;&gt;Node5</title>
<path fill="none" stroke="midnightblue" d="M112.559,-303.148C143.029,-283.017 221.805,-236.165 295,-236.165 295,-236.165 295,-236.165 388,-236.165 479.583,-236.165 587.692,-236.165 640.762,-236.165"/>
<polygon fill="midnightblue" stroke="midnightblue" points="640.924,-239.665 650.924,-236.165 640.923,-232.665 640.924,-239.665"/>
</g>
<!-- Node29&#45;&gt;Node6 -->
<g id="edge65" class="edge"><title>Node29&#45;&gt;Node6</title>
<path fill="none" stroke="midnightblue" d="M102.81,-321.43C110.181,-340.63 129.875,-384.753 162,-406.165 219.992,-444.818 306.016,-439.292 352.787,-432.403"/>
<polygon fill="midnightblue" stroke="midnightblue" points="353.366,-435.855 362.696,-430.835 352.272,-428.941 353.366,-435.855"/>
</g>
<!-- Node29&#45;&gt;Node26 -->
<g id="edge68" class="edge"><title>Node29&#45;&gt;Node26</title>
<path fill="none" stroke="midnightblue" d="M126.053,-316.598C186.978,-326.622 335.448,-350.165 386,-350.165 386,-350.165 386,-350.165 480,-350.165 537.235,-350.165 603.539,-341.83 641.79,-336.201"/>
<polygon fill="midnightblue" stroke="midnightblue" points="642.436,-339.643 651.804,-334.694 641.395,-332.721 642.436,-339.643"/>
</g>
<!-- Node29&#45;&gt;Node27 -->
<g id="edge69" class="edge"><title>Node29&#45;&gt;Node27</title>
<path fill="none" stroke="midnightblue" d="M109.963,-321.187C122.254,-331.71 143.34,-349.532 162,-364.165 165.701,-367.068 169.694,-370.096 173.571,-372.986"/>
<polygon fill="midnightblue" stroke="midnightblue" points="171.589,-375.873 181.716,-378.987 175.741,-370.238 171.589,-375.873"/>
</g>
<!-- Node29&#45;&gt;Node28 -->
<g id="edge70" class="edge"><title>Node29&#45;&gt;Node28</title>
<path fill="none" stroke="midnightblue" d="M122.694,-321.182C157.38,-334.666 222.903,-360.137 262.392,-375.489"/>
<polygon fill="midnightblue" stroke="midnightblue" points="261.247,-378.799 271.836,-379.16 263.784,-372.274 261.247,-378.799"/>
</g>
<!-- Node30 -->
<g id="node30" class="node"><title>Node30</title>
<g id="a_node30"><a xlink:href="main_8h.html#a5c7c60c7d70cf76cc52e87722bb0f614" target="_top" xlink:title=" ">
<polygon fill="none" stroke="black" points="162,-189.165 162,-207.165 229,-207.165 229,-189.165 162,-189.165"/>
<text text-anchor="middle" x="195.5" y="-195.965" font-family="Calibri" font-size="9.00">coarse_tune</text>
</a>
</g>
</g>
<!-- Node29&#45;&gt;Node30 -->
<g id="edge58" class="edge"><title>Node29&#45;&gt;Node30</title>
<path fill="none" stroke="midnightblue" d="M104.494,-303.015C114.12,-285.89 136.552,-248.364 162,-222.165 165.024,-219.052 168.485,-216.042 171.994,-213.266"/>
<polygon fill="midnightblue" stroke="midnightblue" points="174.131,-216.039 180.09,-207.279 169.969,-210.411 174.131,-216.039"/>
</g>
<!-- Node30&#45;&gt;Node4 -->
<g id="edge63" class="edge"><title>Node30&#45;&gt;Node4</title>
<path fill="none" stroke="midnightblue" d="M204.319,-189.112C216.07,-176.161 239.628,-152.644 265,-141.165 314.597,-118.725 331.563,-122.165 386,-122.165 386,-122.165 386,-122.165 480,-122.165 537.11,-122.165 601.955,-138.3 640.204,-149.543"/>
<polygon fill="midnightblue" stroke="midnightblue" points="639.674,-153.038 650.258,-152.566 641.69,-146.335 639.674,-153.038"/>
</g>
<!-- Node30&#45;&gt;Node5 -->
<g id="edge64" class="edge"><title>Node30&#45;&gt;Node5</title>
<path fill="none" stroke="midnightblue" d="M229.026,-198.165C266.773,-198.165 330.894,-198.165 386,-198.165 386,-198.165 386,-198.165 480,-198.165 537.423,-198.165 602.666,-214.478 640.83,-225.727"/>
<polygon fill="midnightblue" stroke="midnightblue" points="640.263,-229.212 650.848,-228.748 642.284,-222.51 640.263,-229.212"/>
</g>
<!-- Node30&#45;&gt;Node6 -->
<g id="edge62" class="edge"><title>Node30&#45;&gt;Node6</title>
<path fill="none" stroke="midnightblue" d="M204.163,-207.385C232.916,-241.979 334.632,-364.361 372.052,-409.383"/>
<polygon fill="midnightblue" stroke="midnightblue" points="369.365,-411.626 378.449,-417.08 374.749,-407.152 369.365,-411.626"/>
</g>
<!-- Node31 -->
<g id="node31" class="node"><title>Node31</title>
<g id="a_node31"><a xlink:href="main_8h.html#a740ef1b33bb02cd952ad7d8708999472" target="_top" xlink:title=" ">
<polygon fill="none" stroke="black" points="265,-151.165 265,-169.165 327,-169.165 327,-151.165 265,-151.165"/>
<text text-anchor="middle" x="296" y="-157.965" font-family="Calibri" font-size="9.00">coarse_cap</text>
</a>
</g>
</g>
<!-- Node30&#45;&gt;Node31 -->
<g id="edge59" class="edge"><title>Node30&#45;&gt;Node31</title>
<path fill="none" stroke="midnightblue" d="M219.843,-189.159C232.387,-184.32 248.064,-178.272 261.851,-172.954"/>
<polygon fill="midnightblue" stroke="midnightblue" points="263.413,-176.102 271.483,-169.237 260.894,-169.571 263.413,-176.102"/>
</g>
<!-- Node31&#45;&gt;Node4 -->
<g id="edge61" class="edge"><title>Node31&#45;&gt;Node4</title>
<path fill="none" stroke="midnightblue" d="M327.174,-160.165C396.552,-160.165 567.021,-160.165 639.742,-160.165"/>
<polygon fill="midnightblue" stroke="midnightblue" points="640.142,-163.665 650.142,-160.165 640.141,-156.665 640.142,-163.665"/>
</g>
<!-- Node31&#45;&gt;Node6 -->
<g id="edge60" class="edge"><title>Node31&#45;&gt;Node6</title>
<path fill="none" stroke="midnightblue" d="M300.064,-169.321C312.848,-207.53 362.092,-354.71 379.697,-407.328"/>
<polygon fill="midnightblue" stroke="midnightblue" points="376.457,-408.674 382.949,-417.047 383.095,-406.453 376.457,-408.674"/>
</g>
</g>
</svg>
        <g id="navigator" transform="translate(0 0)" fill="#404254">
                <rect fill="#f2f5e9" fill-opacity="0.5" stroke="#606060" stroke-width=".5" x="0" y="0" width="60" height="60"/>
                <use id="zoomplus" xlink:href="#zoomPlus" x="17" y="9" onmousedown="handleZoom(evt,'in')"/>
                <use id="zoomminus" xlink:href="#zoomMin" x="42" y="9" onmousedown="handleZoom(evt,'out')"/>
                <use id="reset" xlink:href="#resetDef" x="30" y="36" onmousedown="handleReset()"/>
                <g id="arrowUp" xlink:href="#dirArrow" transform="translate(30 24)" onmousedown="handlePan(0,-1)">
                  <use xlink:href="#rim" fill="#404040">
                        <set attributeName="fill" to="#808080" begin="arrowUp.mouseover" end="arrowUp.mouseout"/>
                  </use>
                  <path fill="none" stroke="white" stroke-width="1.5" d="M0,-3.0v7 M-2.5,-0.5L0,-3.0L2.5,-0.5"/>
                </g>
                <g id="arrowRight" xlink:href="#dirArrow" transform="rotate(90) translate(36 -43)" onmousedown="handlePan(1,0)">
                  <use xlink:href="#rim" fill="#404040">
                        <set attributeName="fill" to="#808080" begin="arrowRight.mouseover" end="arrowRight.mouseout"/>
                  </use>
                  <path fill="none" stroke="white" stroke-width="1.5" d="M0,-3.0v7 M-2.5,-0.5L0,-3.0L2.5,-0.5"/>
                </g>
                <g id="arrowDown" xlink:href="#dirArrow" transform="rotate(180) translate(-30 -48)" onmousedown="handlePan(0,1)">
                  <use xlink:href="#rim" fill="#404040">
                        <set attributeName="fill" to="#808080" begin="arrowDown.mouseover" end="arrowDown.mouseout"/>
                  </use>
                  <path fill="none" stroke="white" stroke-width="1.5" d="M0,-3.0v7 M-2.5,-0.5L0,-3.0L2.5,-0.5"/>
                </g>
                <g id="arrowLeft" xlink:href="#dirArrow" transform="rotate(270) translate(-36 17)" onmousedown="handlePan(-1,0)">
                  <use xlink:href="#rim" fill="#404040">
                        <set attributeName="fill" to="#808080" begin="arrowLeft.mouseover" end="arrowLeft.mouseout"/>
                  </use>
                  <path fill="none" stroke="white" stroke-width="1.5" d="M0,-3.0v7 M-2.5,-0.5L0,-3.0L2.5,-0.5"/>
                </g>
        </g>
        <svg viewBox="0 0 15 15" width="100%" height="30px" preserveAspectRatio="xMaxYMin meet">
         <g id="arrow_out" transform="scale(0.3 0.3)">
          <a xlink:href="main_8h_a1849f2e5bd63d11a7b9549470e287d17_cgraph_org.svg" target="_base">
           <rect id="button" ry="5" rx="5" y="6" x="6" height="38" width="38"
                fill="#f2f5e9" fill-opacity="0.5" stroke="#606060" stroke-width="1.0"/>
           <path id="arrow"
             d="M 11.500037,31.436501 C 11.940474,20.09759 22.043105,11.32322 32.158766,21.979434 L 37.068811,17.246167 C 37.068811,17.246167 37.088388,32 37.088388,32 L 22.160133,31.978069 C 22.160133,31.978069 26.997745,27.140456 26.997745,27.140456 C 18.528582,18.264221 13.291696,25.230495 11.500037,31.436501 z"
             style="fill:#404040;"/>
          </a>
         </g>
        </svg>
</svg>
