<?xml version="1.0" encoding="UTF-8" standalone="no"?>
<!DOCTYPE svg PUBLIC "-//W3C//DTD SVG 1.1//EN"
 "http://www.w3.org/Graphics/SVG/1.1/DTD/svg11.dtd">
<!-- Generated by graphviz version 2.38.0 (20140413.2041)
 -->
<!-- Title: btn_push Pages: 1 -->
<svg width="238pt" height="27pt"
 viewBox="0.00 0.00 238.00 27.00" xmlns="http://www.w3.org/2000/svg" xmlns:xlink="http://www.w3.org/1999/xlink">
<g id="graph0" class="graph" transform="scale(1 1) rotate(0) translate(4 23)">
<title>btn_push</title>
<!-- Node38 -->
<g id="node1" class="node"><title>Node38</title>
<polygon fill="#bfbfbf" stroke="black" points="0,-0.5 0,-18.5 55,-18.5 55,-0.5 0,-0.5"/>
<text text-anchor="middle" x="27.5" y="-7.3" font-family="Calibri" font-size="9.00">btn_push</text>
</g>
<!-- Node39 -->
<g id="node2" class="node"><title>Node39</title>
<g id="a_node2"><a xlink:href="main__main_8h.html#a1c9e5d54d8cf7f3d041aa2e0b330b3dd" target="_top" xlink:title="button_proc">
<polygon fill="none" stroke="black" points="91,-0.5 91,-18.5 156,-18.5 156,-0.5 91,-0.5"/>
<text text-anchor="middle" x="123.5" y="-7.3" font-family="Calibri" font-size="9.00">button_proc</text>
</a>
</g>
</g>
<!-- Node38&#45;&gt;Node39 -->
<g id="edge1" class="edge"><title>Node38&#45;&gt;Node39</title>
<path fill="none" stroke="midnightblue" d="M65.4546,-9.5C73.8169,-9.5 82.6242,-9.5 90.7496,-9.5"/>
<polygon fill="midnightblue" stroke="midnightblue" points="65.1852,-6.0001 55.1852,-9.5 65.1852,-13.0001 65.1852,-6.0001"/>
</g>
<!-- Node40 -->
<g id="node3" class="node"><title>Node40</title>
<g id="a_node3"><a xlink:href="main_8c.html#acdef7a1fd863a6d3770c1268cb06add3" target="_top" xlink:title="main">
<polygon fill="none" stroke="black" points="192,-0.5 192,-18.5 230,-18.5 230,-0.5 192,-0.5"/>
<text text-anchor="middle" x="211" y="-7.3" font-family="Calibri" font-size="9.00">main</text>
</a>
</g>
</g>
<!-- Node39&#45;&gt;Node40 -->
<g id="edge2" class="edge"><title>Node39&#45;&gt;Node40</title>
<path fill="none" stroke="midnightblue" d="M166.342,-9.5C175.298,-9.5 184.307,-9.5 191.796,-9.5"/>
<polygon fill="midnightblue" stroke="midnightblue" points="166.337,-6.0001 156.337,-9.5 166.337,-13.0001 166.337,-6.0001"/>
</g>
</g>
</svg>
