<?xml version="1.0" encoding="UTF-8" standalone="no"?>
<!DOCTYPE svg PUBLIC "-//W3C//DTD SVG 1.1//EN"
 "http://www.w3.org/Graphics/SVG/1.1/DTD/svg11.dtd">
<!-- Generated by graphviz version 2.38.0 (20140413.2041)
 -->
<!-- Title: tune Pages: 1 -->
<svg width="1162pt" height="564pt"
 viewBox="0.00 0.00 1162.00 564.44" xmlns="http://www.w3.org/2000/svg" xmlns:xlink="http://www.w3.org/1999/xlink">
<g id="graph0" class="graph" transform="scale(1 1) rotate(0) translate(4 560.436)">
<title>tune</title>
<!-- Node439 -->
<g id="node1" class="node"><title>Node439</title>
<polygon fill="#bfbfbf" stroke="black" points="0,-411.495 0,-429.495 35,-429.495 35,-411.495 0,-411.495"/>
<text text-anchor="middle" x="17.5" y="-418.295" font-family="Calibri" font-size="9.00">tune</text>
</g>
<!-- Node440 -->
<g id="node2" class="node"><title>Node440</title>
<g id="a_node2"><a xlink:href="main__main_8h.html#a9dff326a6079fe726285b11ee837ad60" target="_top" xlink:title="atu_reset">
<polygon fill="none" stroke="black" points="76.5,-506.495 76.5,-524.495 132.5,-524.495 132.5,-506.495 76.5,-506.495"/>
<text text-anchor="middle" x="104.5" y="-513.295" font-family="Calibri" font-size="9.00">atu_reset</text>
</a>
</g>
</g>
<!-- Node439&#45;&gt;Node440 -->
<g id="edge1" class="edge"><title>Node439&#45;&gt;Node440</title>
<path fill="none" stroke="midnightblue" d="M24.1771,-429.919C33.0554,-444.207 51.2648,-471.772 71,-491.495 74.0698,-494.563 77.5542,-497.55 81.0736,-500.315"/>
<polygon fill="midnightblue" stroke="midnightblue" points="79.0484,-503.171 89.17,-506.302 83.2102,-497.542 79.0484,-503.171"/>
</g>
<!-- Node441 -->
<g id="node3" class="node"><title>Node441</title>
<g id="a_node3"><a xlink:href="main__main_8h.html#a452291def610d28ec8eee31b70d56054" target="_top" xlink:title="set_cap">
<polygon fill="none" stroke="black" points="272,-430.495 272,-448.495 320,-448.495 320,-430.495 272,-430.495"/>
<text text-anchor="middle" x="296" y="-437.295" font-family="Calibri" font-size="9.00">set_cap</text>
</a>
</g>
</g>
<!-- Node439&#45;&gt;Node441 -->
<g id="edge55" class="edge"><title>Node439&#45;&gt;Node441</title>
<path fill="none" stroke="midnightblue" d="M19.5136,-429.65C22.5488,-452.096 33.7984,-509.758 71,-533.495 133.076,-573.103 172.865,-556.392 236,-518.495 259.777,-504.223 277.088,-476.378 286.595,-457.854"/>
<polygon fill="midnightblue" stroke="midnightblue" points="289.837,-459.19 291.065,-448.667 283.542,-456.128 289.837,-459.19"/>
</g>
<!-- Node442 -->
<g id="node4" class="node"><title>Node442</title>
<g id="a_node4"><a xlink:href="main__main_8h.html#a1f2ddaf3b672288a70778abe6e145b9c" target="_top" xlink:title="set_ind">
<polygon fill="none" stroke="black" points="181.5,-468.495 181.5,-486.495 228.5,-486.495 228.5,-468.495 181.5,-468.495"/>
<text text-anchor="middle" x="205" y="-475.295" font-family="Calibri" font-size="9.00">set_ind</text>
</a>
</g>
</g>
<!-- Node439&#45;&gt;Node442 -->
<g id="edge56" class="edge"><title>Node439&#45;&gt;Node442</title>
<path fill="none" stroke="midnightblue" d="M28.502,-429.726C38.483,-438.378 54.6491,-450.934 71,-457.495 103.331,-470.468 143.151,-475.113 170.749,-476.73"/>
<polygon fill="midnightblue" stroke="midnightblue" points="170.891,-480.241 181.048,-477.227 171.228,-473.249 170.891,-480.241"/>
</g>
<!-- Node443 -->
<g id="node5" class="node"><title>Node443</title>
<g id="a_node5"><a xlink:href="main__main_8h.html#a5c7c60c7d70cf76cc52e87722bb0f614" target="_top" xlink:title="coarse_tune">
<polygon fill="none" stroke="black" points="71,-393.495 71,-411.495 138,-411.495 138,-393.495 71,-393.495"/>
<text text-anchor="middle" x="104.5" y="-400.295" font-family="Calibri" font-size="9.00">coarse_tune</text>
</a>
</g>
</g>
<!-- Node439&#45;&gt;Node443 -->
<g id="edge4" class="edge"><title>Node439&#45;&gt;Node443</title>
<path fill="none" stroke="midnightblue" d="M35.2933,-416.939C42.7547,-415.359 51.9094,-413.42 61.0603,-411.482"/>
<polygon fill="midnightblue" stroke="midnightblue" points="61.8504,-414.892 70.9083,-409.397 60.4002,-408.044 61.8504,-414.892"/>
</g>
<!-- Node445 -->
<g id="node7" class="node"><title>Node445</title>
<g id="a_node7"><a xlink:href="main__main_8h.html#a6c26e075660bdd7a54df984ec3fc7ff4" target="_top" xlink:title="get_swr">
<polygon fill="none" stroke="black" points="272,-317.495 272,-335.495 320,-335.495 320,-317.495 272,-317.495"/>
<text text-anchor="middle" x="296" y="-324.295" font-family="Calibri" font-size="9.00">get_swr</text>
</a>
</g>
</g>
<!-- Node439&#45;&gt;Node445 -->
<g id="edge54" class="edge"><title>Node439&#45;&gt;Node445</title>
<path fill="none" stroke="midnightblue" d="M21.6854,-411.267C28.189,-393.761 44.6455,-355.596 71,-334.495 129.519,-287.641 162.754,-283.531 236,-299.495 247.966,-302.103 260.409,-307.365 270.767,-312.557"/>
<polygon fill="midnightblue" stroke="midnightblue" points="269.141,-315.656 279.618,-317.227 272.407,-309.465 269.141,-315.656"/>
</g>
<!-- Node473 -->
<g id="node35" class="node"><title>Node473</title>
<g id="a_node35"><a xlink:href="main__main_8h.html#a7fabcf58bfa6934174ec4bbd177894b5" target="_top" xlink:title="set_sw">
<polygon fill="none" stroke="black" points="82,-356.495 82,-374.495 127,-374.495 127,-356.495 82,-356.495"/>
<text text-anchor="middle" x="104.5" y="-363.295" font-family="Calibri" font-size="9.00">set_sw</text>
</a>
</g>
</g>
<!-- Node439&#45;&gt;Node473 -->
<g id="edge57" class="edge"><title>Node439&#45;&gt;Node473</title>
<path fill="none" stroke="midnightblue" d="M30.7595,-411.286C41.2389,-403.554 56.8274,-392.377 71,-383.495 73.1519,-382.146 75.4108,-380.786 77.6927,-379.451"/>
<polygon fill="midnightblue" stroke="midnightblue" points="79.4584,-382.473 86.4308,-374.496 76.0056,-376.384 79.4584,-382.473"/>
</g>
<!-- Node474 -->
<g id="node36" class="node"><title>Node474</title>
<g id="a_node36"><a xlink:href="main__main_8h.html#ab518a3d2c723f12d3af3024a195606ce" target="_top" xlink:title="sharp_cap">
<polygon fill="none" stroke="black" points="175.5,-355.495 175.5,-373.495 234.5,-373.495 234.5,-355.495 175.5,-355.495"/>
<text text-anchor="middle" x="205" y="-362.295" font-family="Calibri" font-size="9.00">sharp_cap</text>
</a>
</g>
</g>
<!-- Node439&#45;&gt;Node474 -->
<g id="edge58" class="edge"><title>Node439&#45;&gt;Node474</title>
<path fill="none" stroke="midnightblue" d="M21.7654,-411.276C28.2019,-394.7 44.2702,-360.305 71,-346.495 104.002,-329.444 147.479,-340.611 175.586,-351.462"/>
<polygon fill="midnightblue" stroke="midnightblue" points="174.617,-354.847 185.198,-355.393 177.267,-348.368 174.617,-354.847"/>
</g>
<!-- Node475 -->
<g id="node37" class="node"><title>Node475</title>
<g id="a_node37"><a xlink:href="main__main_8h.html#a72210b3ed1d5691c5bbda8c7f1e97197" target="_top" xlink:title="sharp_ind">
<polygon fill="none" stroke="black" points="75.5,-430.495 75.5,-448.495 133.5,-448.495 133.5,-430.495 75.5,-430.495"/>
<text text-anchor="middle" x="104.5" y="-437.295" font-family="Calibri" font-size="9.00">sharp_ind</text>
</a>
</g>
</g>
<!-- Node439&#45;&gt;Node475 -->
<g id="edge61" class="edge"><title>Node439&#45;&gt;Node475</title>
<path fill="none" stroke="midnightblue" d="M35.2933,-424.249C43.9461,-426.183 54.8761,-428.626 65.4367,-430.987"/>
<polygon fill="midnightblue" stroke="midnightblue" points="64.8395,-434.439 75.3622,-433.205 66.3666,-427.608 64.8395,-434.439"/>
</g>
<!-- Node440&#45;&gt;Node441 -->
<g id="edge2" class="edge"><title>Node440&#45;&gt;Node441</title>
<path fill="none" stroke="midnightblue" d="M132.642,-515.981C160.058,-515.435 202.966,-511.685 236,-495.495 254.34,-486.506 270.789,-469.801 281.629,-456.966"/>
<polygon fill="midnightblue" stroke="midnightblue" points="284.631,-458.82 288.193,-448.842 279.186,-454.421 284.631,-458.82"/>
</g>
<!-- Node440&#45;&gt;Node442 -->
<g id="edge3" class="edge"><title>Node440&#45;&gt;Node442</title>
<path fill="none" stroke="midnightblue" d="M128.843,-506.489C141.57,-501.58 157.523,-495.425 171.453,-490.051"/>
<polygon fill="midnightblue" stroke="midnightblue" points="173.094,-493.169 181.164,-486.305 170.575,-486.639 173.094,-493.169"/>
</g>
<!-- Node443&#45;&gt;Node441 -->
<g id="edge52" class="edge"><title>Node443&#45;&gt;Node441</title>
<path fill="none" stroke="midnightblue" d="M138.131,-411.155C149.445,-414.007 162.24,-417.068 174,-419.495 203.426,-425.568 237.178,-431.023 261.546,-434.696"/>
<polygon fill="midnightblue" stroke="midnightblue" points="261.296,-438.197 271.702,-436.206 262.326,-431.273 261.296,-438.197"/>
</g>
<!-- Node443&#45;&gt;Node442 -->
<g id="edge53" class="edge"><title>Node443&#45;&gt;Node442</title>
<path fill="none" stroke="midnightblue" d="M123.844,-411.666C128.592,-414.304 133.603,-417.33 138,-420.495 155.616,-433.175 157.516,-439.374 174,-453.495 177.213,-456.248 180.676,-459.11 184.068,-461.858"/>
<polygon fill="midnightblue" stroke="midnightblue" points="182.171,-464.822 192.169,-468.329 186.539,-459.353 182.171,-464.822"/>
</g>
<!-- Node444 -->
<g id="node6" class="node"><title>Node444</title>
<g id="a_node6"><a xlink:href="main__main_8h.html#a740ef1b33bb02cd952ad7d8708999472" target="_top" xlink:title="coarse_cap">
<polygon fill="none" stroke="black" points="174,-392.495 174,-410.495 236,-410.495 236,-392.495 174,-392.495"/>
<text text-anchor="middle" x="205" y="-399.295" font-family="Calibri" font-size="9.00">coarse_cap</text>
</a>
</g>
</g>
<!-- Node443&#45;&gt;Node444 -->
<g id="edge5" class="edge"><title>Node443&#45;&gt;Node444</title>
<path fill="none" stroke="midnightblue" d="M138.026,-402.165C146.232,-402.081 155.142,-401.991 163.681,-401.904"/>
<polygon fill="midnightblue" stroke="midnightblue" points="163.877,-405.402 173.841,-401.801 163.806,-398.403 163.877,-405.402"/>
</g>
<!-- Node443&#45;&gt;Node445 -->
<g id="edge51" class="edge"><title>Node443&#45;&gt;Node445</title>
<path fill="none" stroke="midnightblue" d="M125.379,-393.298C129.897,-390.584 134.415,-387.301 138,-383.495 162.259,-357.741 143.852,-331.011 174,-312.495 201.963,-295.321 240.484,-304.111 266.49,-313.699"/>
<polygon fill="midnightblue" stroke="midnightblue" points="265.209,-316.956 275.796,-317.36 267.771,-310.442 265.209,-316.956"/>
</g>
<!-- Node444&#45;&gt;Node441 -->
<g id="edge50" class="edge"><title>Node444&#45;&gt;Node441</title>
<path fill="none" stroke="midnightblue" d="M227.092,-410.5C238.205,-415.245 252.042,-421.153 264.32,-426.396"/>
<polygon fill="midnightblue" stroke="midnightblue" points="263.18,-429.714 273.751,-430.422 265.929,-423.277 263.18,-429.714"/>
</g>
<!-- Node444&#45;&gt;Node445 -->
<g id="edge6" class="edge"><title>Node444&#45;&gt;Node445</title>
<path fill="none" stroke="midnightblue" d="M221.653,-392.385C226.393,-389.415 231.526,-385.981 236,-382.495 251.568,-370.364 267.721,-354.789 279.181,-343.146"/>
<polygon fill="midnightblue" stroke="midnightblue" points="281.852,-345.419 286.301,-335.804 276.827,-340.546 281.852,-345.419"/>
</g>
<!-- Node446 -->
<g id="node8" class="node"><title>Node446</title>
<g id="a_node8"><a xlink:href="main__main_8h.html#ab37ca657b79c6b9176cb63e9d812a182" target="_top" xlink:title="get_pwr">
<polygon fill="none" stroke="black" points="363.5,-374.495 363.5,-392.495 412.5,-392.495 412.5,-374.495 363.5,-374.495"/>
<text text-anchor="middle" x="388" y="-381.295" font-family="Calibri" font-size="9.00">get_pwr</text>
</a>
</g>
</g>
<!-- Node445&#45;&gt;Node446 -->
<g id="edge7" class="edge"><title>Node445&#45;&gt;Node446</title>
<path fill="none" stroke="midnightblue" d="M311.46,-335.653C325.631,-344.628 347.452,-358.448 364.004,-368.931"/>
<polygon fill="midnightblue" stroke="midnightblue" points="362.255,-371.966 372.576,-374.36 366,-366.052 362.255,-371.966"/>
</g>
<!-- Node450 -->
<g id="node12" class="node"><title>Node450</title>
<g id="a_node12"><a xlink:href="main__main_8h.html#ad9d02e37f1f201576a9d93fd36fc4768" target="_top" xlink:title="show_reset">
<polygon fill="none" stroke="black" points="356,-242.495 356,-260.495 420,-260.495 420,-242.495 356,-242.495"/>
<text text-anchor="middle" x="388" y="-249.295" font-family="Calibri" font-size="9.00">show_reset</text>
</a>
</g>
</g>
<!-- Node445&#45;&gt;Node450 -->
<g id="edge11" class="edge"><title>Node445&#45;&gt;Node450</title>
<path fill="none" stroke="midnightblue" d="M308.036,-317.298C322.961,-304.861 349.803,-282.492 368.004,-267.325"/>
<polygon fill="midnightblue" stroke="midnightblue" points="370.714,-269.623 376.155,-260.532 366.232,-264.245 370.714,-269.623"/>
</g>
<!-- Node447 -->
<g id="node9" class="node"><title>Node447</title>
<g id="a_node9"><a xlink:href="main__main_8h.html#ab19e6e081315a9a200394b74d10de395" target="_top" xlink:title="correction">
<polygon fill="none" stroke="black" points="460,-430.495 460,-448.495 517,-448.495 517,-430.495 460,-430.495"/>
<text text-anchor="middle" x="488.5" y="-437.295" font-family="Calibri" font-size="9.00">correction</text>
</a>
</g>
</g>
<!-- Node446&#45;&gt;Node447 -->
<g id="edge8" class="edge"><title>Node446&#45;&gt;Node447</title>
<path fill="none" stroke="midnightblue" d="M405.265,-392.742C420.9,-401.631 444.742,-415.186 462.735,-425.415"/>
<polygon fill="midnightblue" stroke="midnightblue" points="461.114,-428.52 471.537,-430.42 464.574,-422.435 461.114,-428.52"/>
</g>
<!-- Node448 -->
<g id="node10" class="node"><title>Node448</title>
<g id="a_node10"><a xlink:href="main__main_8h.html#acfd46f8711e9c1c20fffdfc8bdaa0ddd" target="_top" xlink:title="get_forward">
<polygon fill="none" stroke="black" points="456,-393.495 456,-411.495 521,-411.495 521,-393.495 456,-393.495"/>
<text text-anchor="middle" x="488.5" y="-400.295" font-family="Calibri" font-size="9.00">get_forward</text>
</a>
</g>
</g>
<!-- Node446&#45;&gt;Node448 -->
<g id="edge9" class="edge"><title>Node446&#45;&gt;Node448</title>
<path fill="none" stroke="midnightblue" d="M412.593,-388.046C422.63,-389.982 434.639,-392.298 446.071,-394.503"/>
<polygon fill="midnightblue" stroke="midnightblue" points="445.422,-397.943 455.904,-396.4 446.748,-391.069 445.422,-397.943"/>
</g>
<!-- Node449 -->
<g id="node11" class="node"><title>Node449</title>
<g id="a_node11"><a xlink:href="main__main_8h.html#aa6b9a2b3d88f578ba6a9fefd911eae75" target="_top" xlink:title="get_reverse">
<polygon fill="none" stroke="black" points="456.5,-356.495 456.5,-374.495 520.5,-374.495 520.5,-356.495 456.5,-356.495"/>
<text text-anchor="middle" x="488.5" y="-363.295" font-family="Calibri" font-size="9.00">get_reverse</text>
</a>
</g>
</g>
<!-- Node446&#45;&gt;Node449 -->
<g id="edge10" class="edge"><title>Node446&#45;&gt;Node449</title>
<path fill="none" stroke="midnightblue" d="M412.593,-379.183C422.718,-377.333 434.849,-375.116 446.371,-373.011"/>
<polygon fill="midnightblue" stroke="midnightblue" points="447.066,-376.442 456.274,-371.201 445.807,-369.556 447.066,-376.442"/>
</g>
<!-- Node451 -->
<g id="node13" class="node"><title>Node451</title>
<g id="a_node13"><a xlink:href="main_8h.html#a9dff326a6079fe726285b11ee837ad60" target="_top" xlink:title="atu_reset">
<polygon fill="none" stroke="black" points="460.5,-261.495 460.5,-279.495 516.5,-279.495 516.5,-261.495 460.5,-261.495"/>
<text text-anchor="middle" x="488.5" y="-268.295" font-family="Calibri" font-size="9.00">atu_reset</text>
</a>
</g>
</g>
<!-- Node450&#45;&gt;Node451 -->
<g id="edge12" class="edge"><title>Node450&#45;&gt;Node451</title>
<path fill="none" stroke="midnightblue" d="M420.166,-257.507C429.704,-259.346 440.292,-261.389 450.194,-263.299"/>
<polygon fill="midnightblue" stroke="midnightblue" points="449.711,-266.77 460.193,-265.228 451.037,-259.897 449.711,-266.77"/>
</g>
<!-- Node454 -->
<g id="node16" class="node"><title>Node454</title>
<g id="a_node16"><a xlink:href="main_8c.html#a6911b3f075cdf1d54cb14f17f6e5ef6b" target="_top" xlink:title="lcd_ind">
<polygon fill="none" stroke="black" points="673,-244.495 673,-262.495 720,-262.495 720,-244.495 673,-244.495"/>
<text text-anchor="middle" x="696.5" y="-251.295" font-family="Calibri" font-size="9.00">lcd_ind</text>
</a>
</g>
</g>
<!-- Node450&#45;&gt;Node454 -->
<g id="edge15" class="edge"><title>Node450&#45;&gt;Node454</title>
<path fill="none" stroke="midnightblue" d="M402.503,-260.648C415.617,-269.118 436.369,-281.434 456,-288.495 528.371,-314.524 555.426,-332.952 628,-307.495 649.109,-300.09 668.521,-283 681.055,-270.014"/>
<polygon fill="midnightblue" stroke="midnightblue" points="683.707,-272.302 687.925,-262.583 678.567,-267.551 683.707,-272.302"/>
</g>
<!-- Node455 -->
<g id="node17" class="node"><title>Node455</title>
<g id="a_node17"><a xlink:href="oled__control_8c.html#a9d56c6c2e653b24a0caf505492ad818a" target="_top" xlink:title="led_wr_str">
<polygon fill="none" stroke="black" points="765,-149.495 765,-167.495 824,-167.495 824,-149.495 765,-149.495"/>
<text text-anchor="middle" x="794.5" y="-156.295" font-family="Calibri" font-size="9.00">led_wr_str</text>
</a>
</g>
</g>
<!-- Node450&#45;&gt;Node455 -->
<g id="edge48" class="edge"><title>Node450&#45;&gt;Node455</title>
<path fill="none" stroke="midnightblue" d="M395.161,-242.283C406.615,-225.31 432.194,-188.124 456,-158.495 498.19,-105.985 500.922,-82.8123 557,-45.4948 598.891,-17.6181 614.377,-16.8323 664,-8.49484 692.49,-3.70813 704.873,7.39368 729,-8.49484 773.685,-37.9215 787.54,-105.496 791.736,-138.969"/>
<polygon fill="midnightblue" stroke="midnightblue" points="788.295,-139.704 792.852,-149.269 795.255,-138.95 788.295,-139.704"/>
</g>
<!-- Node462 -->
<g id="node24" class="node"><title>Node462</title>
<g id="a_node24"><a xlink:href="main_8c.html#ae5a14b4884e85f47ad8a4a716f13203a" target="_top" xlink:title="lcd_pwr">
<polygon fill="none" stroke="black" points="464.5,-168.495 464.5,-186.495 512.5,-186.495 512.5,-168.495 464.5,-168.495"/>
<text text-anchor="middle" x="488.5" y="-175.295" font-family="Calibri" font-size="9.00">lcd_pwr</text>
</a>
</g>
</g>
<!-- Node450&#45;&gt;Node462 -->
<g id="edge28" class="edge"><title>Node450&#45;&gt;Node462</title>
<path fill="none" stroke="midnightblue" d="M401.078,-242.421C417.546,-230.049 447.27,-207.718 467.196,-192.749"/>
<polygon fill="midnightblue" stroke="midnightblue" points="469.43,-195.448 475.323,-186.643 465.226,-189.851 469.43,-195.448"/>
</g>
<!-- Node472 -->
<g id="node34" class="node"><title>Node472</title>
<g id="a_node34"><a xlink:href="main_8h.html#ae0c1e0ec712704e43db40473f103d621" target="_top" xlink:title="Set the state of the switch. ">
<polygon fill="none" stroke="black" points="466,-224.495 466,-242.495 511,-242.495 511,-224.495 466,-224.495"/>
<text text-anchor="middle" x="488.5" y="-231.295" font-family="Calibri" font-size="9.00">set_sw</text>
</a>
</g>
</g>
<!-- Node450&#45;&gt;Node472 -->
<g id="edge49" class="edge"><title>Node450&#45;&gt;Node472</title>
<path fill="none" stroke="midnightblue" d="M420.166,-245.8C431.558,-243.718 444.45,-241.362 455.881,-239.273"/>
<polygon fill="midnightblue" stroke="midnightblue" points="456.676,-242.686 465.884,-237.445 455.417,-235.8 456.676,-242.686"/>
</g>
<!-- Node452 -->
<g id="node14" class="node"><title>Node452</title>
<g id="a_node14"><a xlink:href="main_8h.html#a2a7963b9b09696c6654b96c67900c6ea" target="_top" xlink:title="set_cap">
<polygon fill="none" stroke="black" points="568.5,-280.495 568.5,-298.495 616.5,-298.495 616.5,-280.495 568.5,-280.495"/>
<text text-anchor="middle" x="592.5" y="-287.295" font-family="Calibri" font-size="9.00">set_cap</text>
</a>
</g>
</g>
<!-- Node451&#45;&gt;Node452 -->
<g id="edge13" class="edge"><title>Node451&#45;&gt;Node452</title>
<path fill="none" stroke="midnightblue" d="M516.566,-275.537C529.453,-277.937 544.976,-280.829 558.543,-283.356"/>
<polygon fill="midnightblue" stroke="midnightblue" points="557.989,-286.813 568.461,-285.203 559.271,-279.931 557.989,-286.813"/>
</g>
<!-- Node453 -->
<g id="node15" class="node"><title>Node453</title>
<g id="a_node15"><a xlink:href="main_8h.html#aecc83cd8bceb4bc24be844732ead2c2c" target="_top" xlink:title="set_ind">
<polygon fill="none" stroke="black" points="569,-243.495 569,-261.495 616,-261.495 616,-243.495 569,-243.495"/>
<text text-anchor="middle" x="592.5" y="-250.295" font-family="Calibri" font-size="9.00">set_ind</text>
</a>
</g>
</g>
<!-- Node451&#45;&gt;Node453 -->
<g id="edge14" class="edge"><title>Node451&#45;&gt;Node453</title>
<path fill="none" stroke="midnightblue" d="M516.566,-265.718C529.547,-263.428 545.203,-260.665 558.84,-258.258"/>
<polygon fill="midnightblue" stroke="midnightblue" points="559.558,-261.686 568.798,-256.501 558.341,-254.792 559.558,-261.686"/>
</g>
<!-- Node454&#45;&gt;Node455 -->
<g id="edge16" class="edge"><title>Node454&#45;&gt;Node455</title>
<path fill="none" stroke="midnightblue" d="M710.492,-244.424C716.345,-240.131 723.224,-234.792 729,-229.495 747.672,-212.37 766.932,-190.523 779.485,-175.615"/>
<polygon fill="midnightblue" stroke="midnightblue" points="782.342,-177.654 786.047,-167.727 776.961,-173.177 782.342,-177.654"/>
</g>
<!-- Node456 -->
<g id="node18" class="node"><title>Node456</title>
<g id="a_node18"><a xlink:href="oled__control_8c.html#a7c3a2e5f1fed76dc27692132a2574d27" target="_top" xlink:title="oled_wr_str">
<polygon fill="none" stroke="black" points="860,-149.495 860,-167.495 925,-167.495 925,-149.495 860,-149.495"/>
<text text-anchor="middle" x="892.5" y="-156.295" font-family="Calibri" font-size="9.00">oled_wr_str</text>
</a>
</g>
</g>
<!-- Node455&#45;&gt;Node456 -->
<g id="edge17" class="edge"><title>Node455&#45;&gt;Node456</title>
<path fill="none" stroke="midnightblue" d="M824.043,-158.495C832.147,-158.495 841.142,-158.495 849.852,-158.495"/>
<polygon fill="midnightblue" stroke="midnightblue" points="849.877,-161.995 859.877,-158.495 849.877,-154.995 849.877,-161.995"/>
</g>
<!-- Node461 -->
<g id="node23" class="node"><title>Node461</title>
<g id="a_node23"><a xlink:href="oled__control_8c.html#ad25764a33e482f4e9db2701198e02551" target="_top" xlink:title="led_send">
<polygon fill="none" stroke="black" points="974,-91.4948 974,-109.495 1029,-109.495 1029,-91.4948 974,-91.4948"/>
<text text-anchor="middle" x="1001.5" y="-98.2948" font-family="Calibri" font-size="9.00">led_send</text>
</a>
</g>
</g>
<!-- Node455&#45;&gt;Node461 -->
<g id="edge24" class="edge"><title>Node455&#45;&gt;Node461</title>
<path fill="none" stroke="midnightblue" d="M824.049,-149.98C835.247,-146.668 848.215,-142.866 860,-139.495 895.224,-129.419 935.526,-118.271 963.906,-110.483"/>
<polygon fill="midnightblue" stroke="midnightblue" points="965.072,-113.793 973.792,-107.774 963.222,-107.042 965.072,-113.793"/>
</g>
<!-- Node457 -->
<g id="node19" class="node"><title>Node457</title>
<g id="a_node19"><a xlink:href="oled__control_8c.html#ab7f6b5c6c1483f6286f2de5786c028d9" target="_top" xlink:title="Soft_I2C_Start">
<polygon fill="none" stroke="black" points="1080,-101.495 1080,-119.495 1152,-119.495 1152,-101.495 1080,-101.495"/>
<text text-anchor="middle" x="1116" y="-108.295" font-family="Calibri" font-size="9.00">Soft_I2C_Start</text>
</a>
</g>
</g>
<!-- Node456&#45;&gt;Node457 -->
<g id="edge18" class="edge"><title>Node456&#45;&gt;Node457</title>
<path fill="none" stroke="midnightblue" d="M925.236,-151.618C963.11,-143.41 1026.71,-129.628 1069.73,-120.304"/>
<polygon fill="midnightblue" stroke="midnightblue" points="1070.63,-123.691 1079.66,-118.153 1069.15,-116.85 1070.63,-123.691"/>
</g>
<!-- Node458 -->
<g id="node20" class="node"><title>Node458</title>
<g id="a_node20"><a xlink:href="oled__control_8c.html#a73610916645f17c19124e697b005f694" target="_top" xlink:title="Soft_I2C_Write">
<polygon fill="none" stroke="black" points="1078,-157.495 1078,-175.495 1154,-175.495 1154,-157.495 1078,-157.495"/>
<text text-anchor="middle" x="1116" y="-164.295" font-family="Calibri" font-size="9.00">Soft_I2C_Write</text>
</a>
</g>
</g>
<!-- Node456&#45;&gt;Node458 -->
<g id="edge19" class="edge"><title>Node456&#45;&gt;Node458</title>
<path fill="none" stroke="midnightblue" d="M906.16,-167.711C919.171,-176.567 940.384,-189.341 961,-194.495 995.925,-203.226 1006.6,-201.051 1042,-194.495 1057.68,-191.591 1074.34,-185.455 1087.78,-179.666"/>
<polygon fill="midnightblue" stroke="midnightblue" points="1089.25,-182.845 1096.94,-175.562 1086.38,-176.457 1089.25,-182.845"/>
</g>
<!-- Node459 -->
<g id="node21" class="node"><title>Node459</title>
<g id="a_node21"><a xlink:href="oled__control_8c.html#a6df77e8ec83c50ed6a5ddaf54aa3a9c2" target="_top" xlink:title="set_addressing">
<polygon fill="none" stroke="black" points="961.5,-167.495 961.5,-185.495 1041.5,-185.495 1041.5,-167.495 961.5,-167.495"/>
<text text-anchor="middle" x="1001.5" y="-174.295" font-family="Calibri" font-size="9.00">set_addressing</text>
</a>
</g>
</g>
<!-- Node456&#45;&gt;Node459 -->
<g id="edge20" class="edge"><title>Node456&#45;&gt;Node459</title>
<path fill="none" stroke="midnightblue" d="M925.025,-163.798C933.266,-165.184 942.349,-166.712 951.273,-168.214"/>
<polygon fill="midnightblue" stroke="midnightblue" points="950.785,-171.681 961.227,-169.888 951.946,-164.778 950.785,-171.681"/>
</g>
<!-- Node460 -->
<g id="node22" class="node"><title>Node460</title>
<g id="a_node22"><a xlink:href="oled__control_8c.html#a16eb842aa672ca44820ae6d5f9933425" target="_top" xlink:title="Soft_I2C_Stop">
<polygon fill="none" stroke="black" points="1080.5,-54.4948 1080.5,-72.4948 1151.5,-72.4948 1151.5,-54.4948 1080.5,-54.4948"/>
<text text-anchor="middle" x="1116" y="-61.2948" font-family="Calibri" font-size="9.00">Soft_I2C_Stop</text>
</a>
</g>
</g>
<!-- Node456&#45;&gt;Node460 -->
<g id="edge23" class="edge"><title>Node456&#45;&gt;Node460</title>
<path fill="none" stroke="midnightblue" d="M897.537,-149.224C908.646,-124.195 940.218,-56.3412 961,-44.4948 1000.45,-22.007 1054.72,-37.3708 1087.18,-50.4892"/>
<polygon fill="midnightblue" stroke="midnightblue" points="1085.94,-53.7661 1096.52,-54.444 1088.68,-47.3206 1085.94,-53.7661"/>
</g>
<!-- Node459&#45;&gt;Node457 -->
<g id="edge21" class="edge"><title>Node459&#45;&gt;Node457</title>
<path fill="none" stroke="midnightblue" d="M1018.14,-167.318C1036.95,-156.285 1068.72,-137.644 1090.73,-124.736"/>
<polygon fill="midnightblue" stroke="midnightblue" points="1092.64,-127.673 1099.49,-119.594 1089.09,-121.635 1092.64,-127.673"/>
</g>
<!-- Node459&#45;&gt;Node458 -->
<g id="edge22" class="edge"><title>Node459&#45;&gt;Node458</title>
<path fill="none" stroke="midnightblue" d="M1041.53,-173.025C1050.02,-172.271 1059.08,-171.466 1067.84,-170.687"/>
<polygon fill="midnightblue" stroke="midnightblue" points="1068.28,-174.162 1077.93,-169.79 1067.66,-167.189 1068.28,-174.162"/>
</g>
<!-- Node461&#45;&gt;Node457 -->
<g id="edge25" class="edge"><title>Node461&#45;&gt;Node457</title>
<path fill="none" stroke="midnightblue" d="M1029.16,-102.865C1041.17,-103.932 1055.7,-105.224 1069.37,-106.438"/>
<polygon fill="midnightblue" stroke="midnightblue" points="1069.32,-109.948 1079.59,-107.347 1069.94,-102.975 1069.32,-109.948"/>
</g>
<!-- Node461&#45;&gt;Node458 -->
<g id="edge26" class="edge"><title>Node461&#45;&gt;Node458</title>
<path fill="none" stroke="midnightblue" d="M1018.14,-109.672C1036.95,-120.705 1068.72,-139.346 1090.73,-152.254"/>
<polygon fill="midnightblue" stroke="midnightblue" points="1089.09,-155.354 1099.49,-157.396 1092.64,-149.317 1089.09,-155.354"/>
</g>
<!-- Node461&#45;&gt;Node460 -->
<g id="edge27" class="edge"><title>Node461&#45;&gt;Node460</title>
<path fill="none" stroke="midnightblue" d="M1029.16,-91.7264C1043.69,-86.9482 1061.9,-80.9592 1077.8,-75.7282"/>
<polygon fill="midnightblue" stroke="midnightblue" points="1078.95,-79.0359 1087.36,-72.5868 1076.76,-72.3863 1078.95,-79.0359"/>
</g>
<!-- Node462&#45;&gt;Node452 -->
<g id="edge34" class="edge"><title>Node462&#45;&gt;Node452</title>
<path fill="none" stroke="midnightblue" d="M497.885,-186.639C504.448,-193.96 513.661,-204.603 521,-214.495 538.63,-238.257 535.38,-250.296 557,-270.495 558.664,-272.05 560.48,-273.522 562.379,-274.906"/>
<polygon fill="midnightblue" stroke="midnightblue" points="560.712,-277.994 571.03,-280.399 564.464,-272.084 560.712,-277.994"/>
</g>
<!-- Node462&#45;&gt;Node453 -->
<g id="edge33" class="edge"><title>Node462&#45;&gt;Node453</title>
<path fill="none" stroke="midnightblue" d="M499.542,-186.864C512.325,-198.54 535.355,-218.751 557,-233.495 559.437,-235.155 562.032,-236.795 564.663,-238.374"/>
<polygon fill="midnightblue" stroke="midnightblue" points="563.145,-241.538 573.566,-243.453 566.614,-235.458 563.145,-241.538"/>
</g>
<!-- Node462&#45;&gt;Node455 -->
<g id="edge47" class="edge"><title>Node462&#45;&gt;Node455</title>
<path fill="none" stroke="midnightblue" d="M512.581,-174.175C545.919,-169.563 609.531,-161.451 664,-158.495 694.485,-156.84 729.065,-156.941 754.819,-157.4"/>
<polygon fill="midnightblue" stroke="midnightblue" points="754.858,-160.902 764.928,-157.607 755.002,-153.903 754.858,-160.902"/>
</g>
<!-- Node463 -->
<g id="node25" class="node"><title>Node463</title>
<g id="a_node25"><a xlink:href="main_8h.html#ab37ca657b79c6b9176cb63e9d812a182" target="_top" xlink:title="get_pwr">
<polygon fill="none" stroke="black" points="568,-55.4948 568,-73.4948 617,-73.4948 617,-55.4948 568,-55.4948"/>
<text text-anchor="middle" x="592.5" y="-62.2948" font-family="Calibri" font-size="9.00">get_pwr</text>
</a>
</g>
</g>
<!-- Node462&#45;&gt;Node463 -->
<g id="edge29" class="edge"><title>Node462&#45;&gt;Node463</title>
<path fill="none" stroke="midnightblue" d="M494.105,-168.3C503.663,-149.97 527.26,-108.419 557,-82.4948 558.33,-81.3351 559.749,-80.2246 561.223,-79.1654"/>
<polygon fill="midnightblue" stroke="midnightblue" points="563.412,-81.9257 570.057,-73.6736 559.716,-75.9807 563.412,-81.9257"/>
</g>
<!-- Node467 -->
<g id="node29" class="node"><title>Node467</title>
<g id="a_node29"><a xlink:href="oled__control_8c.html#a2c663a2db505aa3f2271f6cf4bae1521" target="_top" xlink:title="dysp_on">
<polygon fill="none" stroke="black" points="867.5,-54.4948 867.5,-72.4948 917.5,-72.4948 917.5,-54.4948 867.5,-54.4948"/>
<text text-anchor="middle" x="892.5" y="-61.2948" font-family="Calibri" font-size="9.00">dysp_on</text>
</a>
</g>
</g>
<!-- Node462&#45;&gt;Node467 -->
<g id="edge35" class="edge"><title>Node462&#45;&gt;Node467</title>
<path fill="none" stroke="midnightblue" d="M496.314,-168.457C503.09,-159.224 513.527,-144.321 521,-130.495 540.508,-94.4035 527.025,-73.5064 557,-45.4948 593.764,-11.1389 614.377,-16.8323 664,-8.49484 737.796,3.90409 823.146,-29.9965 865.24,-50.0011"/>
<polygon fill="midnightblue" stroke="midnightblue" points="863.74,-53.1636 874.263,-54.3944 866.804,-46.87 863.74,-53.1636"/>
</g>
<!-- Node469 -->
<g id="node31" class="node"><title>Node469</title>
<g id="a_node31"><a xlink:href="main_8c.html#a593218c5fe00b499d494826fc0aa5279" target="_top" xlink:title="button_delay">
<polygon fill="none" stroke="black" points="557,-92.4948 557,-110.495 628,-110.495 628,-92.4948 557,-92.4948"/>
<text text-anchor="middle" x="592.5" y="-99.2948" font-family="Calibri" font-size="9.00">button_delay</text>
</a>
</g>
</g>
<!-- Node462&#45;&gt;Node469 -->
<g id="edge41" class="edge"><title>Node462&#45;&gt;Node469</title>
<path fill="none" stroke="midnightblue" d="M500.837,-168.491C514.146,-157.984 536.95,-140.179 557,-125.495 561.054,-122.526 565.424,-119.417 569.647,-116.459"/>
<polygon fill="midnightblue" stroke="midnightblue" points="571.738,-119.268 577.958,-110.691 567.747,-113.517 571.738,-119.268"/>
</g>
<!-- Node470 -->
<g id="node32" class="node"><title>Node470</title>
<g id="a_node32"><a xlink:href="main_8c.html#aa8fd50019a763561abc6621bb224417f" target="_top" xlink:title="lcd_swr">
<polygon fill="none" stroke="black" points="673,-168.495 673,-186.495 720,-186.495 720,-168.495 673,-168.495"/>
<text text-anchor="middle" x="696.5" y="-175.295" font-family="Calibri" font-size="9.00">lcd_swr</text>
</a>
</g>
</g>
<!-- Node462&#45;&gt;Node470 -->
<g id="edge42" class="edge"><title>Node462&#45;&gt;Node470</title>
<path fill="none" stroke="midnightblue" d="M512.73,-177.495C549.416,-177.495 620.89,-177.495 662.762,-177.495"/>
<polygon fill="midnightblue" stroke="midnightblue" points="662.982,-180.995 672.981,-177.495 662.981,-173.995 662.982,-180.995"/>
</g>
<!-- Node471 -->
<g id="node33" class="node"><title>Node471</title>
<g id="a_node33"><a xlink:href="main_8c.html#a4ae0d4fa97fc0ca3611813fee4f9af7c" target="_top" xlink:title="show_pwr">
<polygon fill="none" stroke="black" points="563.5,-206.495 563.5,-224.495 621.5,-224.495 621.5,-206.495 563.5,-206.495"/>
<text text-anchor="middle" x="592.5" y="-213.295" font-family="Calibri" font-size="9.00">show_pwr</text>
</a>
</g>
</g>
<!-- Node462&#45;&gt;Node471 -->
<g id="edge44" class="edge"><title>Node462&#45;&gt;Node471</title>
<path fill="none" stroke="midnightblue" d="M512.645,-186.118C525.826,-191.028 542.588,-197.273 557.265,-202.741"/>
<polygon fill="midnightblue" stroke="midnightblue" points="556.431,-206.165 567.024,-206.376 558.875,-199.605 556.431,-206.165"/>
</g>
<!-- Node464 -->
<g id="node26" class="node"><title>Node464</title>
<g id="a_node26"><a xlink:href="main_8h.html#ab19e6e081315a9a200394b74d10de395" target="_top" xlink:title="correction">
<polygon fill="none" stroke="black" points="668,-92.4948 668,-110.495 725,-110.495 725,-92.4948 668,-92.4948"/>
<text text-anchor="middle" x="696.5" y="-99.2948" font-family="Calibri" font-size="9.00">correction</text>
</a>
</g>
</g>
<!-- Node463&#45;&gt;Node464 -->
<g id="edge30" class="edge"><title>Node463&#45;&gt;Node464</title>
<path fill="none" stroke="midnightblue" d="M617.157,-73.0764C630.163,-77.7943 646.538,-83.7341 660.95,-88.9619"/>
<polygon fill="midnightblue" stroke="midnightblue" points="659.954,-92.3237 670.548,-92.4436 662.341,-85.7433 659.954,-92.3237"/>
</g>
<!-- Node465 -->
<g id="node27" class="node"><title>Node465</title>
<g id="a_node27"><a xlink:href="main_8h.html#acfd46f8711e9c1c20fffdfc8bdaa0ddd" target="_top" xlink:title="get_forward">
<polygon fill="none" stroke="black" points="664,-55.4948 664,-73.4948 729,-73.4948 729,-55.4948 664,-55.4948"/>
<text text-anchor="middle" x="696.5" y="-62.2948" font-family="Calibri" font-size="9.00">get_forward</text>
</a>
</g>
</g>
<!-- Node463&#45;&gt;Node465 -->
<g id="edge31" class="edge"><title>Node463&#45;&gt;Node465</title>
<path fill="none" stroke="midnightblue" d="M617.157,-64.4948C628.008,-64.4948 641.203,-64.4948 653.647,-64.4948"/>
<polygon fill="midnightblue" stroke="midnightblue" points="653.855,-67.9949 663.855,-64.4948 653.855,-60.9949 653.855,-67.9949"/>
</g>
<!-- Node466 -->
<g id="node28" class="node"><title>Node466</title>
<g id="a_node28"><a xlink:href="main_8h.html#aa6b9a2b3d88f578ba6a9fefd911eae75" target="_top" xlink:title="get_reverse">
<polygon fill="none" stroke="black" points="664.5,-18.4948 664.5,-36.4948 728.5,-36.4948 728.5,-18.4948 664.5,-18.4948"/>
<text text-anchor="middle" x="696.5" y="-25.2948" font-family="Calibri" font-size="9.00">get_reverse</text>
</a>
</g>
</g>
<!-- Node463&#45;&gt;Node466 -->
<g id="edge32" class="edge"><title>Node463&#45;&gt;Node466</title>
<path fill="none" stroke="midnightblue" d="M617.157,-55.9133C630.163,-51.1954 646.538,-45.2556 660.95,-40.0278"/>
<polygon fill="midnightblue" stroke="midnightblue" points="662.341,-43.2464 670.548,-36.5461 659.954,-36.6659 662.341,-43.2464"/>
</g>
<!-- Node467&#45;&gt;Node461 -->
<g id="edge40" class="edge"><title>Node467&#45;&gt;Node461</title>
<path fill="none" stroke="midnightblue" d="M917.513,-71.7984C931.362,-76.5873 949.045,-82.7019 964.526,-88.0553"/>
<polygon fill="midnightblue" stroke="midnightblue" points="963.725,-91.4815 974.32,-91.4418 966.012,-84.8658 963.725,-91.4815"/>
</g>
<!-- Node468 -->
<g id="node30" class="node"><title>Node468</title>
<g id="a_node30"><a xlink:href="oled__control_8c.html#ad141ed038278a6fcad6c307932f01ec8" target="_top" xlink:title="send_command">
<polygon fill="none" stroke="black" points="961,-54.4948 961,-72.4948 1042,-72.4948 1042,-54.4948 961,-54.4948"/>
<text text-anchor="middle" x="1001.5" y="-61.2948" font-family="Calibri" font-size="9.00">send_command</text>
</a>
</g>
</g>
<!-- Node467&#45;&gt;Node468 -->
<g id="edge36" class="edge"><title>Node467&#45;&gt;Node468</title>
<path fill="none" stroke="midnightblue" d="M917.513,-63.4948C927.33,-63.4948 939.073,-63.4948 950.594,-63.4948"/>
<polygon fill="midnightblue" stroke="midnightblue" points="950.606,-66.9949 960.606,-63.4948 950.606,-59.9949 950.606,-66.9949"/>
</g>
<!-- Node468&#45;&gt;Node457 -->
<g id="edge37" class="edge"><title>Node468&#45;&gt;Node457</title>
<path fill="none" stroke="midnightblue" d="M1024.19,-72.5569C1041.16,-79.6442 1064.97,-89.5918 1083.95,-97.5228"/>
<polygon fill="midnightblue" stroke="midnightblue" points="1082.8,-100.835 1093.38,-101.461 1085.5,-94.3761 1082.8,-100.835"/>
</g>
<!-- Node468&#45;&gt;Node458 -->
<g id="edge38" class="edge"><title>Node468&#45;&gt;Node458</title>
<path fill="none" stroke="midnightblue" d="M1027.39,-72.5855C1032.5,-75.052 1037.64,-78.0214 1042,-81.4948 1062.59,-97.8834 1060.79,-108.589 1078,-128.495 1084.41,-135.905 1091.88,-143.718 1098.42,-150.32"/>
<polygon fill="midnightblue" stroke="midnightblue" points="1096,-152.848 1105.56,-157.416 1100.94,-147.884 1096,-152.848"/>
</g>
<!-- Node468&#45;&gt;Node460 -->
<g id="edge39" class="edge"><title>Node468&#45;&gt;Node460</title>
<path fill="none" stroke="midnightblue" d="M1042.16,-63.4948C1051.17,-63.4948 1060.8,-63.4948 1070.02,-63.4948"/>
<polygon fill="midnightblue" stroke="midnightblue" points="1070.18,-66.9949 1080.18,-63.4948 1070.18,-59.9949 1070.18,-66.9949"/>
</g>
<!-- Node470&#45;&gt;Node455 -->
<g id="edge43" class="edge"><title>Node470&#45;&gt;Node455</title>
<path fill="none" stroke="midnightblue" d="M720.251,-172.992C730.543,-170.955 743,-168.49 754.7,-166.174"/>
<polygon fill="midnightblue" stroke="midnightblue" points="755.583,-169.567 764.713,-164.192 754.224,-162.7 755.583,-169.567"/>
</g>
<!-- Node471&#45;&gt;Node454 -->
<g id="edge46" class="edge"><title>Node471&#45;&gt;Node454</title>
<path fill="none" stroke="midnightblue" d="M617.673,-224.5C631.266,-229.565 648.415,-235.953 663.153,-241.444"/>
<polygon fill="midnightblue" stroke="midnightblue" points="662.306,-244.863 672.898,-245.075 664.75,-238.304 662.306,-244.863"/>
</g>
<!-- Node471&#45;&gt;Node455 -->
<g id="edge45" class="edge"><title>Node471&#45;&gt;Node455</title>
<path fill="none" stroke="midnightblue" d="M621.732,-214.39C649.658,-212.594 693.277,-207.878 729,-195.495 744.357,-190.171 760.21,-181.134 772.357,-173.324"/>
<polygon fill="midnightblue" stroke="midnightblue" points="774.465,-176.126 780.853,-167.673 770.588,-170.297 774.465,-176.126"/>
</g>
<!-- Node474&#45;&gt;Node441 -->
<g id="edge60" class="edge"><title>Node474&#45;&gt;Node441</title>
<path fill="none" stroke="midnightblue" d="M222.635,-373.56C227.11,-376.241 231.855,-379.316 236,-382.495 251.977,-394.749 268.301,-410.852 279.716,-422.816"/>
<polygon fill="midnightblue" stroke="midnightblue" points="277.377,-425.438 286.77,-430.339 282.483,-420.65 277.377,-425.438"/>
</g>
<!-- Node474&#45;&gt;Node445 -->
<g id="edge59" class="edge"><title>Node474&#45;&gt;Node445</title>
<path fill="none" stroke="midnightblue" d="M227.092,-355.489C238.205,-350.744 252.042,-344.836 264.32,-339.594"/>
<polygon fill="midnightblue" stroke="midnightblue" points="265.929,-342.713 273.751,-335.567 263.18,-336.275 265.929,-342.713"/>
</g>
<!-- Node475&#45;&gt;Node442 -->
<g id="edge63" class="edge"><title>Node475&#45;&gt;Node442</title>
<path fill="none" stroke="midnightblue" d="M128.843,-448.5C141.57,-453.41 157.523,-459.564 171.453,-464.939"/>
<polygon fill="midnightblue" stroke="midnightblue" points="170.575,-468.351 181.164,-468.685 173.094,-461.82 170.575,-468.351"/>
</g>
<!-- Node475&#45;&gt;Node445 -->
<g id="edge62" class="edge"><title>Node475&#45;&gt;Node445</title>
<path fill="none" stroke="midnightblue" d="M125.438,-430.353C129.954,-427.637 134.456,-424.34 138,-420.495 163.058,-393.306 144.332,-367.561 174,-345.495 199.043,-326.868 235.146,-323.354 261.393,-323.747"/>
<polygon fill="midnightblue" stroke="midnightblue" points="261.511,-327.253 271.626,-324.103 261.754,-320.258 261.511,-327.253"/>
</g>
</g>
</svg>
