<?xml version="1.0" encoding="UTF-8" standalone="no"?>
<!DOCTYPE svg PUBLIC "-//W3C//DTD SVG 1.1//EN"
 "http://www.w3.org/Graphics/SVG/1.1/DTD/svg11.dtd">
<!-- Generated by graphviz version 2.38.0 (20140413.2041)
 -->
<!-- Title: lcd_ind Pages: 1 -->
<svg width="479pt" height="170pt"
 viewBox="0.00 0.00 479.00 170.19" xmlns="http://www.w3.org/2000/svg" xmlns:xlink="http://www.w3.org/1999/xlink">
<g id="graph0" class="graph" transform="scale(1 1) rotate(0) translate(4 166.194)">
<title>lcd_ind</title>
<!-- Node1 -->
<g id="node1" class="node"><title>Node1</title>
<g id="a_node1"><a xlink:title=" ">
<polygon fill="#bfbfbf" stroke="black" points="0,-83.4684 0,-101.468 47,-101.468 47,-83.4684 0,-83.4684"/>
<text text-anchor="middle" x="23.5" y="-90.2684" font-family="Calibri" font-size="9.00">lcd_ind</text>
</a>
</g>
</g>
<!-- Node2 -->
<g id="node2" class="node"><title>Node2</title>
<g id="a_node2"><a xlink:href="oled__control_8c.html#a1c8eef09adf01c9a7e3c6188f25c3c48" target="_top" xlink:title=" ">
<polygon fill="none" stroke="black" points="83,-83.4684 83,-101.468 142,-101.468 142,-83.4684 83,-83.4684"/>
<text text-anchor="middle" x="112.5" y="-90.2684" font-family="Calibri" font-size="9.00">led_wr_str</text>
</a>
</g>
</g>
<!-- Node1&#45;&gt;Node2 -->
<g id="edge1" class="edge"><title>Node1&#45;&gt;Node2</title>
<path fill="none" stroke="midnightblue" d="M47.3582,-92.4684C55.1743,-92.4684 64.1478,-92.4684 72.8581,-92.4684"/>
<polygon fill="midnightblue" stroke="midnightblue" points="72.8774,-95.9685 82.8774,-92.4684 72.8773,-88.9685 72.8774,-95.9685"/>
</g>
<!-- Node3 -->
<g id="node3" class="node"><title>Node3</title>
<g id="a_node3"><a xlink:href="oled__control_8c.html#a3d35666326cc069eda3b63c70983fdbc" target="_top" xlink:title=" ">
<polygon fill="none" stroke="black" points="183,-112.468 183,-130.468 238,-130.468 238,-112.468 183,-112.468"/>
<text text-anchor="middle" x="210.5" y="-119.268" font-family="Calibri" font-size="9.00">led_send</text>
</a>
</g>
</g>
<!-- Node2&#45;&gt;Node3 -->
<g id="edge2" class="edge"><title>Node2&#45;&gt;Node3</title>
<path fill="none" stroke="midnightblue" d="M142.043,-101.091C151.844,-104.052 162.948,-107.406 173.276,-110.526"/>
<polygon fill="midnightblue" stroke="midnightblue" points="172.288,-113.884 182.873,-113.425 174.313,-107.183 172.288,-113.884"/>
</g>
<!-- Node7 -->
<g id="node7" class="node"><title>Node7</title>
<g id="a_node7"><a xlink:href="oled__control_8c.html#a6e85fd05697e2238e4d9babf1c952772" target="_top" xlink:title=" ">
<polygon fill="none" stroke="black" points="178,-55.4684 178,-73.4684 243,-73.4684 243,-55.4684 178,-55.4684"/>
<text text-anchor="middle" x="210.5" y="-62.2684" font-family="Calibri" font-size="9.00">oled_wr_str</text>
</a>
</g>
</g>
<!-- Node2&#45;&gt;Node7 -->
<g id="edge6" class="edge"><title>Node2&#45;&gt;Node7</title>
<path fill="none" stroke="midnightblue" d="M142.043,-84.1433C150.486,-81.6809 159.895,-78.9366 168.942,-76.2977"/>
<polygon fill="midnightblue" stroke="midnightblue" points="169.935,-79.6541 178.555,-73.494 167.975,-72.9341 169.935,-79.6541"/>
</g>
<!-- Node4 -->
<g id="node4" class="node"><title>Node4</title>
<g id="a_node4"><a xlink:href="oled__control_8c.html#ab7f6b5c6c1483f6286f2de5786c028d9" target="_top" xlink:title=" ">
<polygon fill="none" stroke="black" points="397,-17.4684 397,-35.4684 469,-35.4684 469,-17.4684 397,-17.4684"/>
<text text-anchor="middle" x="433" y="-24.2684" font-family="Calibri" font-size="9.00">Soft_I2C_Start</text>
</a>
</g>
</g>
<!-- Node3&#45;&gt;Node4 -->
<g id="edge3" class="edge"><title>Node3&#45;&gt;Node4</title>
<path fill="none" stroke="midnightblue" d="M238.057,-129.386C269.511,-137.09 322.263,-144.585 359,-121.468 390.295,-101.777 369.49,-73.2336 395,-46.4684 396.807,-44.5722 398.835,-42.8146 400.985,-41.1941"/>
<polygon fill="midnightblue" stroke="midnightblue" points="403.151,-43.9628 409.682,-35.6199 399.374,-38.0694 403.151,-43.9628"/>
</g>
<!-- Node5 -->
<g id="node5" class="node"><title>Node5</title>
<g id="a_node5"><a xlink:href="oled__control_8c.html#a16eb842aa672ca44820ae6d5f9933425" target="_top" xlink:title=" ">
<polygon fill="none" stroke="black" points="283.5,-93.4684 283.5,-111.468 354.5,-111.468 354.5,-93.4684 283.5,-93.4684"/>
<text text-anchor="middle" x="319" y="-100.268" font-family="Calibri" font-size="9.00">Soft_I2C_Stop</text>
</a>
</g>
</g>
<!-- Node3&#45;&gt;Node5 -->
<g id="edge4" class="edge"><title>Node3&#45;&gt;Node5</title>
<path fill="none" stroke="midnightblue" d="M238.1,-116.723C248.785,-114.817 261.4,-112.566 273.411,-110.423"/>
<polygon fill="midnightblue" stroke="midnightblue" points="274.072,-113.861 283.302,-108.659 272.842,-106.97 274.072,-113.861"/>
</g>
<!-- Node6 -->
<g id="node6" class="node"><title>Node6</title>
<g id="a_node6"><a xlink:href="oled__control_8c.html#a73610916645f17c19124e697b005f694" target="_top" xlink:title=" ">
<polygon fill="none" stroke="black" points="395,-55.4684 395,-73.4684 471,-73.4684 471,-55.4684 395,-55.4684"/>
<text text-anchor="middle" x="433" y="-62.2684" font-family="Calibri" font-size="9.00">Soft_I2C_Write</text>
</a>
</g>
</g>
<!-- Node3&#45;&gt;Node6 -->
<g id="edge5" class="edge"><title>Node3&#45;&gt;Node6</title>
<path fill="none" stroke="midnightblue" d="M226.019,-130.688C253.29,-146.742 313.517,-176.14 359,-154.468 390.045,-139.676 412.177,-104.514 423.459,-82.7782"/>
<polygon fill="midnightblue" stroke="midnightblue" points="426.704,-84.1117 427.994,-73.5957 420.427,-81.0115 426.704,-84.1117"/>
</g>
<!-- Node7&#45;&gt;Node4 -->
<g id="edge10" class="edge"><title>Node7&#45;&gt;Node4</title>
<path fill="none" stroke="midnightblue" d="M218.588,-55.3372C229.727,-41.8215 252.783,-17.0571 279,-7.46845 319.036,7.17429 368.474,-3.75588 400.12,-14.1072"/>
<polygon fill="midnightblue" stroke="midnightblue" points="399.141,-17.4715 409.735,-17.4146 401.418,-10.8521 399.141,-17.4715"/>
</g>
<!-- Node7&#45;&gt;Node5 -->
<g id="edge11" class="edge"><title>Node7&#45;&gt;Node5</title>
<path fill="none" stroke="midnightblue" d="M236.739,-73.4739C250.565,-78.407 267.912,-84.5966 283.024,-89.9888"/>
<polygon fill="midnightblue" stroke="midnightblue" points="281.978,-93.3317 292.573,-93.3959 284.331,-86.7389 281.978,-93.3317"/>
</g>
<!-- Node7&#45;&gt;Node6 -->
<g id="edge12" class="edge"><title>Node7&#45;&gt;Node6</title>
<path fill="none" stroke="midnightblue" d="M243.092,-64.4684C280.166,-64.4684 342.001,-64.4684 384.776,-64.4684"/>
<polygon fill="midnightblue" stroke="midnightblue" points="384.944,-67.9685 394.944,-64.4684 384.944,-60.9685 384.944,-67.9685"/>
</g>
<!-- Node8 -->
<g id="node8" class="node"><title>Node8</title>
<g id="a_node8"><a xlink:href="oled__control_8c.html#a3cf32ac4d3d7c92be54c385c1ed8cc76" target="_top" xlink:title=" ">
<polygon fill="none" stroke="black" points="279,-17.4684 279,-35.4684 359,-35.4684 359,-17.4684 279,-17.4684"/>
<text text-anchor="middle" x="319" y="-24.2684" font-family="Calibri" font-size="9.00">set_addressing</text>
</a>
</g>
</g>
<!-- Node7&#45;&gt;Node8 -->
<g id="edge7" class="edge"><title>Node7&#45;&gt;Node8</title>
<path fill="none" stroke="midnightblue" d="M236.739,-55.463C250.565,-50.5299 267.912,-44.3403 283.024,-38.9481"/>
<polygon fill="midnightblue" stroke="midnightblue" points="284.331,-42.198 292.573,-35.541 281.978,-35.6051 284.331,-42.198"/>
</g>
<!-- Node8&#45;&gt;Node4 -->
<g id="edge8" class="edge"><title>Node8&#45;&gt;Node4</title>
<path fill="none" stroke="midnightblue" d="M359.172,-26.4684C368.064,-26.4684 377.579,-26.4684 386.701,-26.4684"/>
<polygon fill="midnightblue" stroke="midnightblue" points="386.779,-29.9685 396.779,-26.4684 386.779,-22.9685 386.779,-29.9685"/>
</g>
<!-- Node8&#45;&gt;Node6 -->
<g id="edge9" class="edge"><title>Node8&#45;&gt;Node6</title>
<path fill="none" stroke="midnightblue" d="M346.542,-35.4739C361.22,-40.4539 379.673,-46.7146 395.671,-52.1427"/>
<polygon fill="midnightblue" stroke="midnightblue" points="394.666,-55.4973 405.26,-55.3959 396.915,-48.8685 394.666,-55.4973"/>
</g>
</g>
</svg>
