<?xml version="1.0" encoding="UTF-8" standalone="no"?>
<!DOCTYPE svg PUBLIC "-//W3C//DTD SVG 1.1//EN"
 "http://www.w3.org/Graphics/SVG/1.1/DTD/svg11.dtd">
<!-- Generated by graphviz version 2.38.0 (20140413.2041)
 -->
<!-- Title: btn_push Pages: 1 -->
<svg width="1038pt" height="757pt"
 viewBox="0.00 0.00 1038.00 756.50" xmlns="http://www.w3.org/2000/svg" xmlns:xlink="http://www.w3.org/1999/xlink">
<g id="graph0" class="graph" transform="scale(1 1) rotate(0) translate(4 752.5)">
<title>btn_push</title>
<!-- Node1 -->
<g id="node1" class="node"><title>Node1</title>
<g id="a_node1"><a xlink:title=" ">
<polygon fill="#bfbfbf" stroke="black" points="0,-86 0,-104 55,-104 55,-86 0,-86"/>
<text text-anchor="middle" x="27.5" y="-92.8" font-family="Calibri" font-size="9.00">btn_push</text>
</a>
</g>
</g>
<!-- Node2 -->
<g id="node2" class="node"><title>Node2</title>
<g id="a_node2"><a xlink:href="main_8c.html#a6911b3f075cdf1d54cb14f17f6e5ef6b" target="_top" xlink:title=" ">
<polygon fill="none" stroke="black" points="854,-371 854,-389 901,-389 901,-371 854,-371"/>
<text text-anchor="middle" x="877.5" y="-377.8" font-family="Calibri" font-size="9.00">lcd_ind</text>
</a>
</g>
</g>
<!-- Node1&#45;&gt;Node2 -->
<g id="edge1" class="edge"><title>Node1&#45;&gt;Node2</title>
<path fill="none" stroke="midnightblue" d="M43.3138,-85.842C70.8342,-69.7294 132.178,-38 188.5,-38 188.5,-38 188.5,-38 667,-38 731.377,-38 758.586,-44.5703 801,-93 871.069,-173.006 877.228,-310.588 876.986,-360.878"/>
<polygon fill="midnightblue" stroke="midnightblue" points="873.485,-360.923 876.84,-370.973 880.484,-361.024 873.485,-360.923"/>
</g>
<!-- Node3 -->
<g id="node3" class="node"><title>Node3</title>
<g id="a_node3"><a xlink:href="oled__control_8h.html#ab272af1010175ba1166b08b8b3df6874" target="_top" xlink:title=" ">
<polygon fill="none" stroke="black" points="962.5,-429 962.5,-447 1021.5,-447 1021.5,-429 962.5,-429"/>
<text text-anchor="middle" x="992" y="-435.8" font-family="Calibri" font-size="9.00">led_wr_str</text>
</a>
</g>
</g>
<!-- Node1&#45;&gt;Node3 -->
<g id="edge27" class="edge"><title>Node1&#45;&gt;Node3</title>
<path fill="none" stroke="midnightblue" d="M36.4917,-85.891C58.2888,-62.1133 121.628,-0 188.5,-0 188.5,-0 188.5,-0 766.5,-0 957.663,-0 986.162,-334.496 990.31,-418.861"/>
<polygon fill="midnightblue" stroke="midnightblue" points="986.813,-419.012 990.741,-428.852 993.807,-418.71 986.813,-419.012"/>
</g>
<!-- Node4 -->
<g id="node4" class="node"><title>Node4</title>
<g id="a_node4"><a xlink:href="main_8c.html#ae5a14b4884e85f47ad8a4a716f13203a" target="_top" xlink:title=" ">
<polygon fill="none" stroke="black" points="642,-637 642,-655 690,-655 690,-637 642,-637"/>
<text text-anchor="middle" x="666" y="-643.8" font-family="Calibri" font-size="9.00">lcd_pwr</text>
</a>
</g>
</g>
<!-- Node1&#45;&gt;Node4 -->
<g id="edge3" class="edge"><title>Node1&#45;&gt;Node4</title>
<path fill="none" stroke="midnightblue" d="M29.0933,-104.104C34.0021,-175.744 70.7098,-646 188.5,-646 188.5,-646 188.5,-646 479,-646 532.344,-646 594.293,-646 631.529,-646"/>
<polygon fill="midnightblue" stroke="midnightblue" points="631.802,-649.5 641.802,-646 631.802,-642.5 631.802,-649.5"/>
</g>
<!-- Node21 -->
<g id="node21" class="node"><title>Node21</title>
<g id="a_node21"><a xlink:href="main_8h.html#a1849f2e5bd63d11a7b9549470e287d17" target="_top" xlink:title=" ">
<polygon fill="none" stroke="black" points="91,-143 91,-161 126,-161 126,-143 91,-143"/>
<text text-anchor="middle" x="108.5" y="-149.8" font-family="Calibri" font-size="9.00">tune</text>
</a>
</g>
</g>
<!-- Node1&#45;&gt;Node21 -->
<g id="edge28" class="edge"><title>Node1&#45;&gt;Node21</title>
<path fill="none" stroke="midnightblue" d="M41.1927,-104.158C53.4011,-112.967 72.0785,-126.443 86.5029,-136.85"/>
<polygon fill="midnightblue" stroke="midnightblue" points="84.6813,-139.852 94.8388,-142.865 88.7772,-134.175 84.6813,-139.852"/>
</g>
<!-- Node2&#45;&gt;Node3 -->
<g id="edge2" class="edge"><title>Node2&#45;&gt;Node3</title>
<path fill="none" stroke="midnightblue" d="M896.078,-389.063C914.299,-398.456 943.012,-413.26 964.091,-424.127"/>
<polygon fill="midnightblue" stroke="midnightblue" points="962.682,-427.338 973.174,-428.81 965.89,-421.116 962.682,-427.338"/>
</g>
<!-- Node4&#45;&gt;Node3 -->
<g id="edge20" class="edge"><title>Node4&#45;&gt;Node3</title>
<path fill="none" stroke="midnightblue" d="M690.208,-651.574C738.089,-661.628 849.099,-677.296 918,-626 973.213,-584.895 986.676,-496.052 989.951,-457.032"/>
<polygon fill="midnightblue" stroke="midnightblue" points="993.444,-457.248 990.653,-447.027 986.461,-456.758 993.444,-457.248"/>
</g>
<!-- Node5 -->
<g id="node5" class="node"><title>Node5</title>
<g id="a_node5"><a xlink:href="main_8c.html#a593218c5fe00b499d494826fc0aa5279" target="_top" xlink:title=" ">
<polygon fill="none" stroke="black" points="730,-561 730,-579 801,-579 801,-561 730,-561"/>
<text text-anchor="middle" x="765.5" y="-567.8" font-family="Calibri" font-size="9.00">button_delay</text>
</a>
</g>
</g>
<!-- Node4&#45;&gt;Node5 -->
<g id="edge4" class="edge"><title>Node4&#45;&gt;Node5</title>
<path fill="none" stroke="midnightblue" d="M677.486,-636.895C689.817,-626.294 711.017,-608.399 730,-594 734.004,-590.963 738.351,-587.823 742.566,-584.855"/>
<polygon fill="midnightblue" stroke="midnightblue" points="744.655,-587.666 750.882,-579.093 740.668,-581.912 744.655,-587.666"/>
</g>
<!-- Node6 -->
<g id="node6" class="node"><title>Node6</title>
<g id="a_node6"><a xlink:href="oled__control_8c.html#a5febfdc847aa6f3bc3f3c8f7818b8699" target="_top" xlink:title=" ">
<polygon fill="none" stroke="black" points="734.5,-675 734.5,-693 796.5,-693 796.5,-675 734.5,-675"/>
<text text-anchor="middle" x="765.5" y="-681.8" font-family="Calibri" font-size="9.00">display_on</text>
</a>
</g>
</g>
<!-- Node4&#45;&gt;Node6 -->
<g id="edge5" class="edge"><title>Node4&#45;&gt;Node6</title>
<path fill="none" stroke="midnightblue" d="M690.106,-655.005C702.522,-659.845 718.041,-665.893 731.687,-671.211"/>
<polygon fill="midnightblue" stroke="midnightblue" points="730.633,-674.557 741.222,-674.927 733.175,-668.035 730.633,-674.557"/>
</g>
<!-- Node12 -->
<g id="node12" class="node"><title>Node12</title>
<g id="a_node12"><a xlink:href="main_8h.html#ab37ca657b79c6b9176cb63e9d812a182" target="_top" xlink:title=" ">
<polygon fill="none" stroke="black" points="741,-524 741,-542 790,-542 790,-524 741,-524"/>
<text text-anchor="middle" x="765.5" y="-530.8" font-family="Calibri" font-size="9.00">get_pwr</text>
</a>
</g>
</g>
<!-- Node4&#45;&gt;Node12 -->
<g id="edge14" class="edge"><title>Node4&#45;&gt;Node12</title>
<path fill="none" stroke="midnightblue" d="M679.219,-636.817C684.211,-632.663 689.788,-627.464 694,-622 715.6,-593.979 705.128,-576.162 730,-551 731.069,-549.919 732.216,-548.889 733.42,-547.909"/>
<polygon fill="midnightblue" stroke="midnightblue" points="735.609,-550.655 741.951,-542.168 731.701,-544.847 735.609,-550.655"/>
</g>
<!-- Node16 -->
<g id="node16" class="node"><title>Node16</title>
<g id="a_node16"><a xlink:href="main_8c.html#aa8fd50019a763561abc6621bb224417f" target="_top" xlink:title=" ">
<polygon fill="none" stroke="black" points="854,-599 854,-617 901,-617 901,-599 854,-599"/>
<text text-anchor="middle" x="877.5" y="-605.8" font-family="Calibri" font-size="9.00">lcd_swr</text>
</a>
</g>
</g>
<!-- Node4&#45;&gt;Node16 -->
<g id="edge18" class="edge"><title>Node4&#45;&gt;Node16</title>
<path fill="none" stroke="midnightblue" d="M690.272,-640.5C702.13,-637.781 716.798,-634.546 730,-632 768.767,-624.523 813.595,-617.401 843.35,-612.886"/>
<polygon fill="midnightblue" stroke="midnightblue" points="844.223,-616.294 853.591,-611.345 843.182,-609.372 844.223,-616.294"/>
</g>
<!-- Node17 -->
<g id="node17" class="node"><title>Node17</title>
<g id="a_node17"><a xlink:href="main_8h.html#a2a7963b9b09696c6654b96c67900c6ea" target="_top" xlink:title=" ">
<polygon fill="none" stroke="black" points="741.5,-276 741.5,-294 789.5,-294 789.5,-276 741.5,-276"/>
<text text-anchor="middle" x="765.5" y="-282.8" font-family="Calibri" font-size="9.00">set_cap</text>
</a>
</g>
</g>
<!-- Node4&#45;&gt;Node17 -->
<g id="edge21" class="edge"><title>Node4&#45;&gt;Node17</title>
<path fill="none" stroke="midnightblue" d="M669.508,-636.714C682.413,-588.932 741.418,-370.464 759.329,-304.145"/>
<polygon fill="midnightblue" stroke="midnightblue" points="762.78,-304.792 762.008,-294.225 756.022,-302.966 762.78,-304.792"/>
</g>
<!-- Node18 -->
<g id="node18" class="node"><title>Node18</title>
<g id="a_node18"><a xlink:href="main_8h.html#aecc83cd8bceb4bc24be844732ead2c2c" target="_top" xlink:title=" ">
<polygon fill="none" stroke="black" points="742,-450 742,-468 789,-468 789,-450 742,-450"/>
<text text-anchor="middle" x="765.5" y="-456.8" font-family="Calibri" font-size="9.00">set_ind</text>
</a>
</g>
</g>
<!-- Node4&#45;&gt;Node18 -->
<g id="edge22" class="edge"><title>Node4&#45;&gt;Node18</title>
<path fill="none" stroke="midnightblue" d="M680.404,-636.796C685.34,-632.782 690.561,-627.689 694,-622 728.353,-565.176 688.941,-529.185 730,-477 730.966,-475.772 732.039,-474.619 733.192,-473.538"/>
<polygon fill="midnightblue" stroke="midnightblue" points="735.622,-476.1 741.669,-467.4 731.516,-470.43 735.622,-476.1"/>
</g>
<!-- Node19 -->
<g id="node19" class="node"><title>Node19</title>
<g id="a_node19"><a xlink:href="main_8h.html#ae0c1e0ec712704e43db40473f103d621" target="_top" xlink:title="Set the state of the switch.">
<polygon fill="none" stroke="black" points="743,-712 743,-730 788,-730 788,-712 743,-712"/>
<text text-anchor="middle" x="765.5" y="-718.8" font-family="Calibri" font-size="9.00">set_sw</text>
</a>
</g>
</g>
<!-- Node4&#45;&gt;Node19 -->
<g id="edge23" class="edge"><title>Node4&#45;&gt;Node19</title>
<path fill="none" stroke="midnightblue" d="M677.368,-655.222C695.205,-671.088 729.823,-701.875 730,-702 732.356,-703.664 734.873,-705.296 737.433,-706.861"/>
<polygon fill="midnightblue" stroke="midnightblue" points="735.722,-709.915 746.134,-711.873 739.216,-703.849 735.722,-709.915"/>
</g>
<!-- Node20 -->
<g id="node20" class="node"><title>Node20</title>
<g id="a_node20"><a xlink:href="main_8c.html#a4ae0d4fa97fc0ca3611813fee4f9af7c" target="_top" xlink:title=" ">
<polygon fill="none" stroke="black" points="736.5,-487 736.5,-505 794.5,-505 794.5,-487 736.5,-487"/>
<text text-anchor="middle" x="765.5" y="-493.8" font-family="Calibri" font-size="9.00">show_pwr</text>
</a>
</g>
</g>
<!-- Node4&#45;&gt;Node20 -->
<g id="edge24" class="edge"><title>Node4&#45;&gt;Node20</title>
<path fill="none" stroke="midnightblue" d="M679.9,-636.88C684.883,-632.81 690.271,-627.655 694,-622 721.853,-579.76 697.18,-552.508 730,-514 730.838,-513.017 731.744,-512.08 732.702,-511.188"/>
<polygon fill="midnightblue" stroke="midnightblue" points="734.849,-513.953 740.831,-505.208 730.701,-508.314 734.849,-513.953"/>
</g>
<!-- Node7 -->
<g id="node7" class="node"><title>Node7</title>
<g id="a_node7"><a xlink:href="oled__control_8c.html#a5a5d7ef6b1877aaf94c1f4b7fc0f2d2d" target="_top" xlink:title=" ">
<polygon fill="none" stroke="black" points="850,-675 850,-693 905,-693 905,-675 850,-675"/>
<text text-anchor="middle" x="877.5" y="-681.8" font-family="Calibri" font-size="9.00">led_send</text>
</a>
</g>
</g>
<!-- Node6&#45;&gt;Node7 -->
<g id="edge6" class="edge"><title>Node6&#45;&gt;Node7</title>
<path fill="none" stroke="midnightblue" d="M796.558,-684C809.839,-684 825.581,-684 839.569,-684"/>
<polygon fill="midnightblue" stroke="midnightblue" points="839.855,-687.5 849.855,-684 839.854,-680.5 839.855,-687.5"/>
</g>
<!-- Node11 -->
<g id="node11" class="node"><title>Node11</title>
<g id="a_node11"><a xlink:href="oled__control_8c.html#ad141ed038278a6fcad6c307932f01ec8" target="_top" xlink:title=" ">
<polygon fill="none" stroke="black" points="837,-712 837,-730 918,-730 918,-712 837,-712"/>
<text text-anchor="middle" x="877.5" y="-718.8" font-family="Calibri" font-size="9.00">send_command</text>
</a>
</g>
</g>
<!-- Node6&#45;&gt;Node11 -->
<g id="edge10" class="edge"><title>Node6&#45;&gt;Node11</title>
<path fill="none" stroke="midnightblue" d="M793.409,-693.051C807.392,-697.755 824.686,-703.572 839.87,-708.679"/>
<polygon fill="midnightblue" stroke="midnightblue" points="838.893,-712.043 849.488,-711.914 841.125,-705.408 838.893,-712.043"/>
</g>
<!-- Node8 -->
<g id="node8" class="node"><title>Node8</title>
<g id="a_node8"><a xlink:href="oled__control_8c.html#ab7f6b5c6c1483f6286f2de5786c028d9" target="_top" xlink:title=" ">
<polygon fill="none" stroke="black" points="956,-693 956,-711 1028,-711 1028,-693 956,-693"/>
<text text-anchor="middle" x="992" y="-699.8" font-family="Calibri" font-size="9.00">Soft_I2C_Start</text>
</a>
</g>
</g>
<!-- Node7&#45;&gt;Node8 -->
<g id="edge7" class="edge"><title>Node7&#45;&gt;Node8</title>
<path fill="none" stroke="midnightblue" d="M905.161,-688.266C917.173,-690.188 931.703,-692.512 945.365,-694.698"/>
<polygon fill="midnightblue" stroke="midnightblue" points="945.16,-698.21 955.588,-696.334 946.266,-691.298 945.16,-698.21"/>
</g>
<!-- Node9 -->
<g id="node9" class="node"><title>Node9</title>
<g id="a_node9"><a xlink:href="oled__control_8c.html#a16eb842aa672ca44820ae6d5f9933425" target="_top" xlink:title=" ">
<polygon fill="none" stroke="black" points="956.5,-656 956.5,-674 1027.5,-674 1027.5,-656 956.5,-656"/>
<text text-anchor="middle" x="992" y="-662.8" font-family="Calibri" font-size="9.00">Soft_I2C_Stop</text>
</a>
</g>
</g>
<!-- Node7&#45;&gt;Node9 -->
<g id="edge8" class="edge"><title>Node7&#45;&gt;Node9</title>
<path fill="none" stroke="midnightblue" d="M905.161,-679.497C917.5,-677.413 932.495,-674.881 946.478,-672.519"/>
<polygon fill="midnightblue" stroke="midnightblue" points="947.152,-675.955 956.429,-670.839 945.986,-669.053 947.152,-675.955"/>
</g>
<!-- Node10 -->
<g id="node10" class="node"><title>Node10</title>
<g id="a_node10"><a xlink:href="oled__control_8c.html#a73610916645f17c19124e697b005f694" target="_top" xlink:title=" ">
<polygon fill="none" stroke="black" points="954,-730 954,-748 1030,-748 1030,-730 954,-730"/>
<text text-anchor="middle" x="992" y="-736.8" font-family="Calibri" font-size="9.00">Soft_I2C_Write</text>
</a>
</g>
</g>
<!-- Node7&#45;&gt;Node10 -->
<g id="edge9" class="edge"><title>Node7&#45;&gt;Node10</title>
<path fill="none" stroke="midnightblue" d="M899.077,-693.181C905.191,-695.962 911.888,-699.06 918,-702 926.805,-706.235 947.218,-716.599 964.226,-725.284"/>
<polygon fill="midnightblue" stroke="midnightblue" points="962.732,-728.451 973.229,-729.886 965.918,-722.218 962.732,-728.451"/>
</g>
<!-- Node11&#45;&gt;Node8 -->
<g id="edge11" class="edge"><title>Node11&#45;&gt;Node8</title>
<path fill="none" stroke="midnightblue" d="M918.163,-714.301C927.08,-712.795 936.608,-711.186 945.734,-709.645"/>
<polygon fill="midnightblue" stroke="midnightblue" points="946.535,-713.059 955.813,-707.943 945.37,-706.157 946.535,-713.059"/>
</g>
<!-- Node11&#45;&gt;Node9 -->
<g id="edge12" class="edge"><title>Node11&#45;&gt;Node9</title>
<path fill="none" stroke="midnightblue" d="M897.858,-711.866C904.291,-708.783 911.477,-705.289 918,-702 934.155,-693.855 937.863,-691.181 954,-683 956.931,-681.514 960.003,-679.981 963.071,-678.466"/>
<polygon fill="midnightblue" stroke="midnightblue" points="964.675,-681.578 972.118,-674.038 961.597,-675.29 964.675,-681.578"/>
</g>
<!-- Node11&#45;&gt;Node10 -->
<g id="edge13" class="edge"><title>Node11&#45;&gt;Node10</title>
<path fill="none" stroke="midnightblue" d="M918.163,-727.346C926.53,-728.685 935.433,-730.109 944.039,-731.486"/>
<polygon fill="midnightblue" stroke="midnightblue" points="943.526,-734.949 953.954,-733.073 944.632,-728.037 943.526,-734.949"/>
</g>
<!-- Node13 -->
<g id="node13" class="node"><title>Node13</title>
<g id="a_node13"><a xlink:href="main_8h.html#ab19e6e081315a9a200394b74d10de395" target="_top" xlink:title=" ">
<polygon fill="none" stroke="black" points="849,-524 849,-542 906,-542 906,-524 849,-524"/>
<text text-anchor="middle" x="877.5" y="-530.8" font-family="Calibri" font-size="9.00">correction</text>
</a>
</g>
</g>
<!-- Node12&#45;&gt;Node13 -->
<g id="edge15" class="edge"><title>Node12&#45;&gt;Node13</title>
<path fill="none" stroke="midnightblue" d="M790.098,-533C804.183,-533 822.401,-533 838.474,-533"/>
<polygon fill="midnightblue" stroke="midnightblue" points="838.662,-536.5 848.662,-533 838.662,-529.5 838.662,-536.5"/>
</g>
<!-- Node14 -->
<g id="node14" class="node"><title>Node14</title>
<g id="a_node14"><a xlink:href="main_8h.html#acfd46f8711e9c1c20fffdfc8bdaa0ddd" target="_top" xlink:title=" ">
<polygon fill="none" stroke="black" points="845,-487 845,-505 910,-505 910,-487 845,-487"/>
<text text-anchor="middle" x="877.5" y="-493.8" font-family="Calibri" font-size="9.00">get_forward</text>
</a>
</g>
</g>
<!-- Node12&#45;&gt;Node14 -->
<g id="edge16" class="edge"><title>Node12&#45;&gt;Node14</title>
<path fill="none" stroke="midnightblue" d="M790.098,-525.063C804.526,-520.209 823.291,-513.897 839.646,-508.396"/>
<polygon fill="midnightblue" stroke="midnightblue" points="841.094,-511.602 849.457,-505.096 838.863,-504.967 841.094,-511.602"/>
</g>
<!-- Node15 -->
<g id="node15" class="node"><title>Node15</title>
<g id="a_node15"><a xlink:href="main_8h.html#aa6b9a2b3d88f578ba6a9fefd911eae75" target="_top" xlink:title=" ">
<polygon fill="none" stroke="black" points="845.5,-561 845.5,-579 909.5,-579 909.5,-561 845.5,-561"/>
<text text-anchor="middle" x="877.5" y="-567.8" font-family="Calibri" font-size="9.00">get_reverse</text>
</a>
</g>
</g>
<!-- Node12&#45;&gt;Node15 -->
<g id="edge17" class="edge"><title>Node12&#45;&gt;Node15</title>
<path fill="none" stroke="midnightblue" d="M790.098,-540.937C804.526,-545.791 823.291,-552.103 839.646,-557.604"/>
<polygon fill="midnightblue" stroke="midnightblue" points="838.863,-561.033 849.457,-560.904 841.094,-554.398 838.863,-561.033"/>
</g>
<!-- Node16&#45;&gt;Node3 -->
<g id="edge19" class="edge"><title>Node16&#45;&gt;Node3</title>
<path fill="none" stroke="midnightblue" d="M901.076,-599.693C907.105,-596.69 913.255,-592.821 918,-588 955.637,-549.764 977.029,-488.319 985.979,-457.277"/>
<polygon fill="midnightblue" stroke="midnightblue" points="989.442,-457.885 988.72,-447.315 982.692,-456.028 989.442,-457.885"/>
</g>
<!-- Node20&#45;&gt;Node2 -->
<g id="edge25" class="edge"><title>Node20&#45;&gt;Node2</title>
<path fill="none" stroke="midnightblue" d="M786.377,-486.844C791.414,-484.056 796.631,-480.728 801,-477 828.468,-453.562 852.608,-418.732 865.821,-397.808"/>
<polygon fill="midnightblue" stroke="midnightblue" points="868.974,-399.362 871.245,-389.013 863.017,-395.687 868.974,-399.362"/>
</g>
<!-- Node20&#45;&gt;Node3 -->
<g id="edge26" class="edge"><title>Node20&#45;&gt;Node3</title>
<path fill="none" stroke="midnightblue" d="M794.605,-488.321C807.509,-484.822 823.019,-480.654 837,-477 876.197,-466.755 921.116,-455.427 952.285,-447.631"/>
<polygon fill="midnightblue" stroke="midnightblue" points="953.446,-450.949 962.3,-445.13 951.75,-444.157 953.446,-450.949"/>
</g>
<!-- Node21&#45;&gt;Node2 -->
<g id="edge41" class="edge"><title>Node21&#45;&gt;Node2</title>
<path fill="none" stroke="midnightblue" d="M121.117,-142.983C148.256,-122.852 218.602,-76 285.5,-76 285.5,-76 285.5,-76 667,-76 806.057,-76 859.884,-294.328 873.07,-360.937"/>
<polygon fill="midnightblue" stroke="midnightblue" points="869.658,-361.729 874.959,-370.902 876.535,-360.425 869.658,-361.729"/>
</g>
<!-- Node22 -->
<g id="node22" class="node"><title>Node22</title>
<g id="a_node22"><a xlink:href="main_8h.html#a9dff326a6079fe726285b11ee837ad60" target="_top" xlink:title=" ">
<polygon fill="none" stroke="black" points="638,-333 638,-351 694,-351 694,-333 638,-333"/>
<text text-anchor="middle" x="666" y="-339.8" font-family="Calibri" font-size="9.00">atu_reset</text>
</a>
</g>
</g>
<!-- Node21&#45;&gt;Node22 -->
<g id="edge29" class="edge"><title>Node21&#45;&gt;Node22</title>
<path fill="none" stroke="midnightblue" d="M126.23,-145.895C157.209,-135.153 225.794,-114 285.5,-114 285.5,-114 285.5,-114 388,-114 519.931,-114 623.176,-270.09 654.884,-323.969"/>
<polygon fill="midnightblue" stroke="midnightblue" points="651.937,-325.864 659.963,-332.78 658.001,-322.368 651.937,-325.864"/>
</g>
<!-- Node23 -->
<g id="node23" class="node"><title>Node23</title>
<g id="a_node23"><a xlink:href="main_8h.html#ad7eb7423e0b17ccfba1ae42f3a3274e0" target="_top" xlink:title=" ">
<polygon fill="none" stroke="black" points="454,-409 454,-427 502,-427 502,-409 454,-409"/>
<text text-anchor="middle" x="478" y="-415.8" font-family="Calibri" font-size="9.00">get_swr</text>
</a>
</g>
</g>
<!-- Node21&#45;&gt;Node23 -->
<g id="edge32" class="edge"><title>Node21&#45;&gt;Node23</title>
<path fill="none" stroke="midnightblue" d="M118.716,-161.116C149.97,-191.708 255.585,-292.464 356,-358 384.776,-376.78 420.258,-393.721 445.338,-404.774"/>
<polygon fill="midnightblue" stroke="midnightblue" points="444.169,-408.082 454.736,-408.855 446.957,-401.661 444.169,-408.082"/>
</g>
<!-- Node25 -->
<g id="node25" class="node"><title>Node25</title>
<g id="a_node25"><a xlink:href="main_8h.html#ab518a3d2c723f12d3af3024a195606ce" target="_top" xlink:title=" ">
<polygon fill="none" stroke="black" points="257,-143 257,-161 316,-161 316,-143 257,-143"/>
<text text-anchor="middle" x="286.5" y="-149.8" font-family="Calibri" font-size="9.00">sharp_cap</text>
</a>
</g>
</g>
<!-- Node21&#45;&gt;Node25 -->
<g id="edge42" class="edge"><title>Node21&#45;&gt;Node25</title>
<path fill="none" stroke="midnightblue" d="M126.058,-152C153.434,-152 208.85,-152 246.576,-152"/>
<polygon fill="midnightblue" stroke="midnightblue" points="246.71,-155.5 256.71,-152 246.71,-148.5 246.71,-155.5"/>
</g>
<!-- Node26 -->
<g id="node26" class="node"><title>Node26</title>
<g id="a_node26"><a xlink:href="main_8h.html#a72210b3ed1d5691c5bbda8c7f1e97197" target="_top" xlink:title=" ">
<polygon fill="none" stroke="black" points="358,-580 358,-598 416,-598 416,-580 358,-580"/>
<text text-anchor="middle" x="387" y="-586.8" font-family="Calibri" font-size="9.00">sharp_ind</text>
</a>
</g>
</g>
<!-- Node21&#45;&gt;Node26 -->
<g id="edge45" class="edge"><title>Node21&#45;&gt;Node26</title>
<path fill="none" stroke="midnightblue" d="M109.113,-161.063C107.451,-212.953 106.7,-473.659 253,-577 280.322,-596.299 319.093,-597.656 347.729,-595.165"/>
<polygon fill="midnightblue" stroke="midnightblue" points="348.206,-598.634 357.781,-594.099 347.468,-591.673 348.206,-598.634"/>
</g>
<!-- Node27 -->
<g id="node27" class="node"><title>Node27</title>
<g id="a_node27"><a xlink:href="main_8h.html#a454a7687c8039514766571b23516ca9c" target="_top" xlink:title=" ">
<polygon fill="none" stroke="black" points="162,-352 162,-370 217,-370 217,-352 162,-352"/>
<text text-anchor="middle" x="189.5" y="-358.8" font-family="Calibri" font-size="9.00">sub_tune</text>
</a>
</g>
</g>
<!-- Node21&#45;&gt;Node27 -->
<g id="edge48" class="edge"><title>Node21&#45;&gt;Node27</title>
<path fill="none" stroke="midnightblue" d="M112.996,-161.25C125.054,-193.149 165.053,-298.968 181.423,-342.276"/>
<polygon fill="midnightblue" stroke="midnightblue" points="178.234,-343.74 185.044,-351.857 184.782,-341.265 178.234,-343.74"/>
</g>
<!-- Node22&#45;&gt;Node17 -->
<g id="edge30" class="edge"><title>Node22&#45;&gt;Node17</title>
<path fill="none" stroke="midnightblue" d="M682.665,-332.842C698.159,-323.784 722.095,-309.791 740.085,-299.274"/>
<polygon fill="midnightblue" stroke="midnightblue" points="742.007,-302.204 748.874,-294.135 738.474,-296.161 742.007,-302.204"/>
</g>
<!-- Node22&#45;&gt;Node18 -->
<g id="edge31" class="edge"><title>Node22&#45;&gt;Node18</title>
<path fill="none" stroke="midnightblue" d="M674.651,-351.181C690.955,-370.745 729.337,-416.804 750.272,-441.927"/>
<polygon fill="midnightblue" stroke="midnightblue" points="747.794,-444.42 756.885,-449.862 753.172,-439.939 747.794,-444.42"/>
</g>
<!-- Node23&#45;&gt;Node12 -->
<g id="edge33" class="edge"><title>Node23&#45;&gt;Node12</title>
<path fill="none" stroke="midnightblue" d="M490.129,-427.223C501.551,-436.319 520.131,-450.112 538,-459 603.118,-491.388 685.618,-514.191 730.916,-525.299"/>
<polygon fill="midnightblue" stroke="midnightblue" points="730.256,-528.74 740.798,-527.681 731.897,-521.935 730.256,-528.74"/>
</g>
<!-- Node23&#45;&gt;Node20 -->
<g id="edge34" class="edge"><title>Node23&#45;&gt;Node20</title>
<path fill="none" stroke="midnightblue" d="M502.199,-425.296C513.047,-428.651 526.156,-432.626 538,-436 603.876,-454.767 681.084,-474.804 726.216,-486.321"/>
<polygon fill="midnightblue" stroke="midnightblue" points="725.604,-489.777 736.159,-488.853 727.332,-482.993 725.604,-489.777"/>
</g>
<!-- Node24 -->
<g id="node24" class="node"><title>Node24</title>
<g id="a_node24"><a xlink:href="main_8c.html#a11724d8cce81ed96bec12a004ea3ea7a" target="_top" xlink:title=" ">
<polygon fill="none" stroke="black" points="538,-409 538,-427 602,-427 602,-409 538,-409"/>
<text text-anchor="middle" x="570" y="-415.8" font-family="Calibri" font-size="9.00">show_reset</text>
</a>
</g>
</g>
<!-- Node23&#45;&gt;Node24 -->
<g id="edge35" class="edge"><title>Node23&#45;&gt;Node24</title>
<path fill="none" stroke="midnightblue" d="M502.177,-418C509.964,-418 518.9,-418 527.651,-418"/>
<polygon fill="midnightblue" stroke="midnightblue" points="527.759,-421.5 537.759,-418 527.759,-414.5 527.759,-421.5"/>
</g>
<!-- Node24&#45;&gt;Node2 -->
<g id="edge37" class="edge"><title>Node24&#45;&gt;Node2</title>
<path fill="none" stroke="midnightblue" d="M602.234,-410.759C613.463,-408.345 626.256,-405.813 638,-404 711.069,-392.722 797.586,-385.539 843.695,-382.198"/>
<polygon fill="midnightblue" stroke="midnightblue" points="843.981,-385.687 853.708,-381.488 843.486,-378.705 843.981,-385.687"/>
</g>
<!-- Node24&#45;&gt;Node3 -->
<g id="edge39" class="edge"><title>Node24&#45;&gt;Node3</title>
<path fill="none" stroke="midnightblue" d="M602.225,-419.487C677.625,-423.077 869.5,-432.214 952.153,-436.15"/>
<polygon fill="midnightblue" stroke="midnightblue" points="952.218,-439.657 962.373,-436.637 952.551,-432.665 952.218,-439.657"/>
</g>
<!-- Node24&#45;&gt;Node4 -->
<g id="edge38" class="edge"><title>Node24&#45;&gt;Node4</title>
<path fill="none" stroke="midnightblue" d="M574.801,-427.22C588.886,-461.383 638.266,-581.157 657.372,-627.498"/>
<polygon fill="midnightblue" stroke="midnightblue" points="654.207,-629.004 661.254,-636.915 660.679,-626.336 654.207,-629.004"/>
</g>
<!-- Node24&#45;&gt;Node19 -->
<g id="edge40" class="edge"><title>Node24&#45;&gt;Node19</title>
<path fill="none" stroke="midnightblue" d="M570.85,-427.311C570.773,-462.66 575.057,-590.276 638,-664 662.378,-692.553 703.961,-707.467 732.764,-714.765"/>
<polygon fill="midnightblue" stroke="midnightblue" points="732.205,-718.229 742.742,-717.121 733.814,-711.416 732.205,-718.229"/>
</g>
<!-- Node24&#45;&gt;Node22 -->
<g id="edge36" class="edge"><title>Node24&#45;&gt;Node22</title>
<path fill="none" stroke="midnightblue" d="M582.152,-408.983C597.911,-396.242 626.909,-372.797 646.074,-357.302"/>
<polygon fill="midnightblue" stroke="midnightblue" points="648.287,-360.014 653.862,-351.005 643.885,-354.57 648.287,-360.014"/>
</g>
<!-- Node25&#45;&gt;Node17 -->
<g id="edge44" class="edge"><title>Node25&#45;&gt;Node17</title>
<path fill="none" stroke="midnightblue" d="M316.095,-145.472C386.156,-131.115 569.714,-103.541 694,-176 728.583,-196.162 749.116,-240.821 758.447,-266.275"/>
<polygon fill="midnightblue" stroke="midnightblue" points="755.192,-267.574 761.768,-275.882 761.808,-265.287 755.192,-267.574"/>
</g>
<!-- Node25&#45;&gt;Node23 -->
<g id="edge43" class="edge"><title>Node25&#45;&gt;Node23</title>
<path fill="none" stroke="midnightblue" d="M304.323,-161.144C310.064,-165.029 316.03,-170.048 320,-176 357.085,-231.599 318.392,-266.753 356,-322 375.014,-349.932 391.511,-345.022 418,-366 432.47,-377.459 448.11,-391.317 459.65,-401.844"/>
<polygon fill="midnightblue" stroke="midnightblue" points="457.524,-404.644 467.253,-408.839 462.263,-399.492 457.524,-404.644"/>
</g>
<!-- Node26&#45;&gt;Node18 -->
<g id="edge47" class="edge"><title>Node26&#45;&gt;Node18</title>
<path fill="none" stroke="midnightblue" d="M416.122,-585.847C471.926,-578.692 599.432,-557.816 694,-508 712.681,-498.159 712.525,-488.851 730,-477 731.908,-475.706 733.92,-474.437 735.975,-473.21"/>
<polygon fill="midnightblue" stroke="midnightblue" points="738.034,-476.069 745.066,-468.145 734.627,-469.954 738.034,-476.069"/>
</g>
<!-- Node26&#45;&gt;Node23 -->
<g id="edge46" class="edge"><title>Node26&#45;&gt;Node23</title>
<path fill="none" stroke="midnightblue" d="M392.785,-579.806C406.91,-552.667 448.618,-472.532 467.51,-436.234"/>
<polygon fill="midnightblue" stroke="midnightblue" points="470.679,-437.726 472.191,-427.239 464.47,-434.494 470.679,-437.726"/>
</g>
<!-- Node27&#45;&gt;Node17 -->
<g id="edge58" class="edge"><title>Node27&#45;&gt;Node17</title>
<path fill="none" stroke="midnightblue" d="M193.807,-351.956C201.299,-332.711 221.413,-287.468 253,-263 335.78,-198.879 372.291,-190 477,-190 477,-190 477,-190 571,-190 642.113,-190 714.267,-242.341 746.736,-269.321"/>
<polygon fill="midnightblue" stroke="midnightblue" points="744.576,-272.078 754.461,-275.891 749.111,-266.746 744.576,-272.078"/>
</g>
<!-- Node27&#45;&gt;Node18 -->
<g id="edge59" class="edge"><title>Node27&#45;&gt;Node18</title>
<path fill="none" stroke="midnightblue" d="M199.38,-370.258C210.785,-381.641 231.664,-400.819 253,-412 406.332,-492.348 464.892,-470.53 638,-471 662.889,-471.068 669.199,-473.096 694,-471 706.439,-469.949 719.983,-467.872 731.844,-465.738"/>
<polygon fill="midnightblue" stroke="midnightblue" points="732.584,-469.16 741.764,-463.872 731.29,-462.281 732.584,-469.16"/>
</g>
<!-- Node27&#45;&gt;Node19 -->
<g id="edge60" class="edge"><title>Node27&#45;&gt;Node19</title>
<path fill="none" stroke="midnightblue" d="M190.995,-370.286C194.547,-426.791 221.001,-722 386,-722 386,-722 386,-722 571,-722 627.962,-722 694.355,-721.561 732.697,-721.265"/>
<polygon fill="midnightblue" stroke="midnightblue" points="732.764,-724.765 742.736,-721.186 732.709,-717.765 732.764,-724.765"/>
</g>
<!-- Node27&#45;&gt;Node22 -->
<g id="edge49" class="edge"><title>Node27&#45;&gt;Node22</title>
<path fill="none" stroke="midnightblue" d="M199.89,-351.829C223.594,-329.402 288.77,-272.15 356,-252 464.079,-219.606 593.913,-294.314 643.935,-327.317"/>
<polygon fill="midnightblue" stroke="midnightblue" points="642.072,-330.282 652.323,-332.959 645.978,-324.473 642.072,-330.282"/>
</g>
<!-- Node27&#45;&gt;Node23 -->
<g id="edge57" class="edge"><title>Node27&#45;&gt;Node23</title>
<path fill="none" stroke="midnightblue" d="M210.881,-370.027C241.613,-383.115 301.975,-406.799 356,-416 385.228,-420.978 419,-421.075 443.425,-420.16"/>
<polygon fill="midnightblue" stroke="midnightblue" points="443.778,-423.648 453.61,-419.7 443.462,-416.655 443.778,-423.648"/>
</g>
<!-- Node27&#45;&gt;Node25 -->
<g id="edge61" class="edge"><title>Node27&#45;&gt;Node25</title>
<path fill="none" stroke="midnightblue" d="M194.055,-351.939C203.224,-328.734 228.661,-265.377 253,-214 260.144,-198.921 268.973,-182.183 275.625,-169.902"/>
<polygon fill="midnightblue" stroke="midnightblue" points="278.697,-171.58 280.419,-161.126 272.553,-168.224 278.697,-171.58"/>
</g>
<!-- Node27&#45;&gt;Node26 -->
<g id="edge62" class="edge"><title>Node27&#45;&gt;Node26</title>
<path fill="none" stroke="midnightblue" d="M190.825,-370.19C192.383,-400.001 201.365,-495.037 253,-546 278.338,-571.008 318.312,-581.475 347.827,-585.854"/>
<polygon fill="midnightblue" stroke="midnightblue" points="347.419,-589.33 357.79,-587.163 348.331,-582.39 347.419,-589.33"/>
</g>
<!-- Node28 -->
<g id="node28" class="node"><title>Node28</title>
<g id="a_node28"><a xlink:href="main_8h.html#a5c7c60c7d70cf76cc52e87722bb0f614" target="_top" xlink:title=" ">
<polygon fill="none" stroke="black" points="253,-352 253,-370 320,-370 320,-352 253,-352"/>
<text text-anchor="middle" x="286.5" y="-358.8" font-family="Calibri" font-size="9.00">coarse_tune</text>
</a>
</g>
</g>
<!-- Node27&#45;&gt;Node28 -->
<g id="edge50" class="edge"><title>Node27&#45;&gt;Node28</title>
<path fill="none" stroke="midnightblue" d="M217.216,-361C225.184,-361 234.123,-361 242.843,-361"/>
<polygon fill="midnightblue" stroke="midnightblue" points="242.907,-364.5 252.907,-361 242.907,-357.5 242.907,-364.5"/>
</g>
<!-- Node28&#45;&gt;Node17 -->
<g id="edge55" class="edge"><title>Node28&#45;&gt;Node17</title>
<path fill="none" stroke="midnightblue" d="M292.736,-351.915C302.721,-335.513 326.169,-301.161 356,-285 403.864,-259.069 422.563,-266 477,-266 477,-266 477,-266 571,-266 627.464,-266 692.754,-274.112 731.228,-279.735"/>
<polygon fill="midnightblue" stroke="midnightblue" points="730.932,-283.23 741.339,-281.246 731.967,-276.306 730.932,-283.23"/>
</g>
<!-- Node28&#45;&gt;Node18 -->
<g id="edge56" class="edge"><title>Node28&#45;&gt;Node18</title>
<path fill="none" stroke="midnightblue" d="M296.478,-370.001C308.883,-381.992 332.417,-403.181 356,-416 405.763,-443.05 420.36,-456 477,-456 477,-456 477,-456 571,-456 627.507,-456 693.286,-457.295 731.763,-458.183"/>
<polygon fill="midnightblue" stroke="midnightblue" points="731.782,-461.685 741.861,-458.422 731.947,-454.686 731.782,-461.685"/>
</g>
<!-- Node28&#45;&gt;Node23 -->
<g id="edge54" class="edge"><title>Node28&#45;&gt;Node23</title>
<path fill="none" stroke="midnightblue" d="M303.347,-370.061C316.93,-377.475 337.219,-387.727 356,-394 384.971,-403.677 419.219,-410.021 443.871,-413.742"/>
<polygon fill="midnightblue" stroke="midnightblue" points="443.407,-417.211 453.805,-415.178 444.409,-410.283 443.407,-417.211"/>
</g>
<!-- Node29 -->
<g id="node29" class="node"><title>Node29</title>
<g id="a_node29"><a xlink:href="main_8h.html#a740ef1b33bb02cd952ad7d8708999472" target="_top" xlink:title=" ">
<polygon fill="none" stroke="black" points="356,-295 356,-313 418,-313 418,-295 356,-295"/>
<text text-anchor="middle" x="387" y="-301.8" font-family="Calibri" font-size="9.00">coarse_cap</text>
</a>
</g>
</g>
<!-- Node28&#45;&gt;Node29 -->
<g id="edge51" class="edge"><title>Node28&#45;&gt;Node29</title>
<path fill="none" stroke="midnightblue" d="M303.326,-351.842C318.978,-342.784 343.16,-328.791 361.334,-318.274"/>
<polygon fill="midnightblue" stroke="midnightblue" points="363.311,-321.173 370.214,-313.135 359.805,-315.115 363.311,-321.173"/>
</g>
<!-- Node29&#45;&gt;Node17 -->
<g id="edge53" class="edge"><title>Node29&#45;&gt;Node17</title>
<path fill="none" stroke="midnightblue" d="M418.174,-302.477C487.552,-298.976 658.021,-290.373 730.742,-286.704"/>
<polygon fill="midnightblue" stroke="midnightblue" points="731.331,-290.178 741.142,-286.179 730.978,-283.187 731.331,-290.178"/>
</g>
<!-- Node29&#45;&gt;Node23 -->
<g id="edge52" class="edge"><title>Node29&#45;&gt;Node23</title>
<path fill="none" stroke="midnightblue" d="M401.326,-313.219C406.83,-317.378 413.063,-322.573 418,-328 438.556,-350.596 456.921,-381.04 467.509,-400.091"/>
<polygon fill="midnightblue" stroke="midnightblue" points="464.455,-401.8 472.307,-408.913 470.604,-398.456 464.455,-401.8"/>
</g>
</g>
</svg>
