<?xml version="1.0" encoding="UTF-8" standalone="no"?>
<!DOCTYPE svg PUBLIC "-//W3C//DTD SVG 1.1//EN"
 "http://www.w3.org/Graphics/SVG/1.1/DTD/svg11.dtd">
<!-- Generated by graphviz version 2.38.0 (20140413.2041)
 -->
<!-- Title: coarse_cap Pages: 1 -->
<!--zoomable 443 -->
<svg id="main" version="1.1" xmlns="http://www.w3.org/2000/svg" xmlns:xlink="http://www.w3.org/1999/xlink" xml:space="preserve" onload="init(evt)">
<style type="text/css"><![CDATA[
.edge:hover path { stroke: red; }
.edge:hover polygon { stroke: red; fill: red; }
]]></style>
<script type="text/javascript"><![CDATA[
var edges = document.getElementsByTagName('g');
if (edges && edges.length) {
  for (var i=0;i<edges.length;i++) {
    if (edges[i].id.substr(0,4)=='edge') {
      edges[i].setAttribute('class','edge');
    }
  }
}
]]></script>
        <defs>
                <circle id="rim" cx="0" cy="0" r="7"/>
                <circle id="rim2" cx="0" cy="0" r="3.5"/>
                <g id="zoomPlus">
                        <use xlink:href="#rim" fill="#404040">
                                <set attributeName="fill" to="#808080" begin="zoomplus.mouseover" end="zoomplus.mouseout"/>
                        </use>
                        <path d="M-4,0h8M0,-4v8" fill="none" stroke="white" stroke-width="1.5" pointer-events="none"/>
                </g>
                <g id="zoomMin">
                        <use xlink:href="#rim" fill="#404040">
                                <set attributeName="fill" to="#808080" begin="zoomminus.mouseover" end="zoomminus.mouseout"/>
                        </use>
                        <path d="M-4,0h8" fill="none" stroke="white" stroke-width="1.5" pointer-events="none"/>
                </g>
                <g id="dirArrow">
                        <path fill="none" stroke="white" stroke-width="1.5" d="M0,-3.0v7 M-2.5,-0.5L0,-3.0L2.5,-0.5"/>
                </g>
               <g id="resetDef">
                       <use xlink:href="#rim2" fill="#404040">
                               <set attributeName="fill" to="#808080" begin="reset.mouseover" end="reset.mouseout"/>
                       </use>
               </g>
        </defs>

<script type="text/javascript">
var viewWidth = 988;
var viewHeight = 443;
var sectionId = 'dynsection-9';
</script>
<script xlink:href="svgpan.js"/>
<svg id="graph" class="graph">
<g id="viewport">
<title>coarse_cap</title>
<!-- Node105 -->
<g id="node1" class="node"><title>Node105</title>
<polygon fill="#bfbfbf" stroke="black" points="0,-229.185 0,-247.185 62,-247.185 62,-229.185 0,-229.185"/>
<text text-anchor="middle" x="31" y="-235.985" font-family="Calibri" font-size="9.00">coarse_cap</text>
</g>
<!-- Node106 -->
<g id="node2" class="node"><title>Node106</title>
<g id="a_node2"><a xlink:href="main__main_8h.html#a6c26e075660bdd7a54df984ec3fc7ff4" target="_top" xlink:title="get_swr">
<polygon fill="none" stroke="black" points="98,-248.185 98,-266.185 146,-266.185 146,-248.185 98,-248.185"/>
<text text-anchor="middle" x="122" y="-254.985" font-family="Calibri" font-size="9.00">get_swr</text>
</a>
</g>
</g>
<!-- Node105&#45;&gt;Node106 -->
<g id="edge1" class="edge"><title>Node105&#45;&gt;Node106</title>
<path fill="none" stroke="midnightblue" d="M62.1313,-244.617C70.449,-246.393 79.5168,-248.329 87.9884,-250.137"/>
<polygon fill="midnightblue" stroke="midnightblue" points="87.4252,-253.596 97.9356,-252.261 88.8867,-246.75 87.4252,-253.596"/>
</g>
<!-- Node134 -->
<g id="node30" class="node"><title>Node134</title>
<g id="a_node30"><a xlink:href="main__main_8h.html#a452291def610d28ec8eee31b70d56054" target="_top" xlink:title="set_cap">
<polygon fill="none" stroke="black" points="98,-211.185 98,-229.185 146,-229.185 146,-211.185 98,-211.185"/>
<text text-anchor="middle" x="122" y="-217.985" font-family="Calibri" font-size="9.00">set_cap</text>
</a>
</g>
</g>
<!-- Node105&#45;&gt;Node134 -->
<g id="edge45" class="edge"><title>Node105&#45;&gt;Node134</title>
<path fill="none" stroke="midnightblue" d="M62.1313,-232.091C70.449,-230.409 79.5168,-228.575 87.9884,-226.861"/>
<polygon fill="midnightblue" stroke="midnightblue" points="88.8279,-230.262 97.9356,-224.849 87.4402,-223.401 88.8279,-230.262"/>
</g>
<!-- Node107 -->
<g id="node3" class="node"><title>Node107</title>
<g id="a_node3"><a xlink:href="main__main_8h.html#ab37ca657b79c6b9176cb63e9d812a182" target="_top" xlink:title="get_pwr">
<polygon fill="none" stroke="black" points="189.5,-360.185 189.5,-378.185 238.5,-378.185 238.5,-360.185 189.5,-360.185"/>
<text text-anchor="middle" x="214" y="-366.985" font-family="Calibri" font-size="9.00">get_pwr</text>
</a>
</g>
</g>
<!-- Node106&#45;&gt;Node107 -->
<g id="edge2" class="edge"><title>Node106&#45;&gt;Node107</title>
<path fill="none" stroke="midnightblue" d="M130.365,-266.35C145.396,-285.055 179.813,-327.885 199.154,-351.954"/>
<polygon fill="midnightblue" stroke="midnightblue" points="196.541,-354.29 205.533,-359.893 201.997,-349.905 196.541,-354.29"/>
</g>
<!-- Node111 -->
<g id="node7" class="node"><title>Node111</title>
<g id="a_node7"><a xlink:href="main__main_8h.html#ad9d02e37f1f201576a9d93fd36fc4768" target="_top" xlink:title="show_reset">
<polygon fill="none" stroke="black" points="182,-135.185 182,-153.185 246,-153.185 246,-135.185 182,-135.185"/>
<text text-anchor="middle" x="214" y="-141.985" font-family="Calibri" font-size="9.00">show_reset</text>
</a>
</g>
</g>
<!-- Node106&#45;&gt;Node111 -->
<g id="edge6" class="edge"><title>Node106&#45;&gt;Node111</title>
<path fill="none" stroke="midnightblue" d="M136.22,-247.906C139.579,-245.269 143.064,-242.271 146,-239.185 169.193,-214.807 190.593,-181.89 202.699,-161.895"/>
<polygon fill="midnightblue" stroke="midnightblue" points="205.76,-163.595 207.863,-153.211 199.744,-160.017 205.76,-163.595"/>
</g>
<!-- Node108 -->
<g id="node4" class="node"><title>Node108</title>
<g id="a_node4"><a xlink:href="main__main_8h.html#acfd46f8711e9c1c20fffdfc8bdaa0ddd" target="_top" xlink:title="get_forward">
<polygon fill="none" stroke="black" points="282,-342.185 282,-360.185 347,-360.185 347,-342.185 282,-342.185"/>
<text text-anchor="middle" x="314.5" y="-348.985" font-family="Calibri" font-size="9.00">get_forward</text>
</a>
</g>
</g>
<!-- Node107&#45;&gt;Node108 -->
<g id="edge3" class="edge"><title>Node107&#45;&gt;Node108</title>
<path fill="none" stroke="midnightblue" d="M238.593,-364.873C248.528,-363.058 260.396,-360.889 271.724,-358.819"/>
<polygon fill="midnightblue" stroke="midnightblue" points="272.696,-362.199 281.904,-356.959 271.438,-355.313 272.696,-362.199"/>
</g>
<!-- Node109 -->
<g id="node5" class="node"><title>Node109</title>
<g id="a_node5"><a xlink:href="main__main_8h.html#aa6b9a2b3d88f578ba6a9fefd911eae75" target="_top" xlink:title="get_reverse">
<polygon fill="none" stroke="black" points="282.5,-416.185 282.5,-434.185 346.5,-434.185 346.5,-416.185 282.5,-416.185"/>
<text text-anchor="middle" x="314.5" y="-422.985" font-family="Calibri" font-size="9.00">get_reverse</text>
</a>
</g>
</g>
<!-- Node107&#45;&gt;Node109 -->
<g id="edge4" class="edge"><title>Node107&#45;&gt;Node109</title>
<path fill="none" stroke="midnightblue" d="M231.265,-378.432C246.9,-387.321 270.742,-400.876 288.735,-411.105"/>
<polygon fill="midnightblue" stroke="midnightblue" points="287.114,-414.21 297.537,-416.11 290.574,-408.125 287.114,-414.21"/>
</g>
<!-- Node110 -->
<g id="node6" class="node"><title>Node110</title>
<g id="a_node6"><a xlink:href="main__main_8h.html#ab19e6e081315a9a200394b74d10de395" target="_top" xlink:title="correction">
<polygon fill="none" stroke="black" points="286,-379.185 286,-397.185 343,-397.185 343,-379.185 286,-379.185"/>
<text text-anchor="middle" x="314.5" y="-385.985" font-family="Calibri" font-size="9.00">correction</text>
</a>
</g>
</g>
<!-- Node107&#45;&gt;Node110 -->
<g id="edge5" class="edge"><title>Node107&#45;&gt;Node110</title>
<path fill="none" stroke="midnightblue" d="M238.593,-373.736C249.709,-375.88 263.245,-378.491 275.736,-380.9"/>
<polygon fill="midnightblue" stroke="midnightblue" points="275.426,-384.405 285.908,-382.862 276.752,-377.532 275.426,-384.405"/>
</g>
<!-- Node112 -->
<g id="node8" class="node"><title>Node112</title>
<g id="a_node8"><a xlink:href="main_8h.html#a9dff326a6079fe726285b11ee837ad60" target="_top" xlink:title="atu_reset">
<polygon fill="none" stroke="black" points="286.5,-59.1848 286.5,-77.1848 342.5,-77.1848 342.5,-59.1848 286.5,-59.1848"/>
<text text-anchor="middle" x="314.5" y="-65.9848" font-family="Calibri" font-size="9.00">atu_reset</text>
</a>
</g>
</g>
<!-- Node111&#45;&gt;Node112 -->
<g id="edge7" class="edge"><title>Node111&#45;&gt;Node112</title>
<path fill="none" stroke="midnightblue" d="M226.686,-135.168C243.2,-122.427 273.585,-98.9821 293.668,-83.4863"/>
<polygon fill="midnightblue" stroke="midnightblue" points="296.05,-86.0695 301.829,-77.1897 291.774,-80.5274 296.05,-86.0695"/>
</g>
<!-- Node115 -->
<g id="node11" class="node"><title>Node115</title>
<g id="a_node11"><a xlink:href="main_8h.html#ae0c1e0ec712704e43db40473f103d621" target="_top" xlink:title="Set the state of the switch. ">
<polygon fill="none" stroke="black" points="292,-117.185 292,-135.185 337,-135.185 337,-117.185 292,-117.185"/>
<text text-anchor="middle" x="314.5" y="-123.985" font-family="Calibri" font-size="9.00">set_sw</text>
</a>
</g>
</g>
<!-- Node111&#45;&gt;Node115 -->
<g id="edge10" class="edge"><title>Node111&#45;&gt;Node115</title>
<path fill="none" stroke="midnightblue" d="M246.166,-138.489C257.558,-136.408 270.45,-134.052 281.881,-131.963"/>
<polygon fill="midnightblue" stroke="midnightblue" points="282.676,-135.376 291.884,-130.135 281.417,-128.49 282.676,-135.376"/>
</g>
<!-- Node116 -->
<g id="node12" class="node"><title>Node116</title>
<g id="a_node12"><a xlink:href="main_8c.html#a6911b3f075cdf1d54cb14f17f6e5ef6b" target="_top" xlink:title="lcd_ind">
<polygon fill="none" stroke="black" points="499,-323.185 499,-341.185 546,-341.185 546,-323.185 499,-323.185"/>
<text text-anchor="middle" x="522.5" y="-329.985" font-family="Calibri" font-size="9.00">lcd_ind</text>
</a>
</g>
</g>
<!-- Node111&#45;&gt;Node116 -->
<g id="edge11" class="edge"><title>Node111&#45;&gt;Node116</title>
<path fill="none" stroke="midnightblue" d="M222.65,-153.547C244.667,-179.865 311.218,-255.127 383,-294.185 416.55,-312.44 459.541,-322.455 488.661,-327.554"/>
<polygon fill="midnightblue" stroke="midnightblue" points="488.281,-331.039 498.718,-329.216 489.423,-324.132 488.281,-331.039"/>
</g>
<!-- Node117 -->
<g id="node13" class="node"><title>Node117</title>
<g id="a_node13"><a xlink:href="oled__control_8c.html#a9d56c6c2e653b24a0caf505492ad818a" target="_top" xlink:title="led_wr_str">
<polygon fill="none" stroke="black" points="591,-210.185 591,-228.185 650,-228.185 650,-210.185 591,-210.185"/>
<text text-anchor="middle" x="620.5" y="-216.985" font-family="Calibri" font-size="9.00">led_wr_str</text>
</a>
</g>
</g>
<!-- Node111&#45;&gt;Node117 -->
<g id="edge24" class="edge"><title>Node111&#45;&gt;Node117</title>
<path fill="none" stroke="midnightblue" d="M219.142,-134.94C228.008,-116.15 250.602,-73.2453 282,-49.1848 344.066,-1.624 379.839,12.6008 454,-12.1848 507.281,-29.9919 519.171,-44.9157 555,-88.1848 583.989,-123.193 604.011,-173.423 613.406,-200.38"/>
<polygon fill="midnightblue" stroke="midnightblue" points="610.17,-201.737 616.68,-210.096 616.803,-199.502 610.17,-201.737"/>
</g>
<!-- Node124 -->
<g id="node20" class="node"><title>Node124</title>
<g id="a_node20"><a xlink:href="main_8c.html#ae5a14b4884e85f47ad8a4a716f13203a" target="_top" xlink:title="lcd_pwr">
<polygon fill="none" stroke="black" points="290.5,-154.185 290.5,-172.185 338.5,-172.185 338.5,-154.185 290.5,-154.185"/>
<text text-anchor="middle" x="314.5" y="-160.985" font-family="Calibri" font-size="9.00">lcd_pwr</text>
</a>
</g>
</g>
<!-- Node111&#45;&gt;Node124 -->
<g id="edge25" class="edge"><title>Node111&#45;&gt;Node124</title>
<path fill="none" stroke="midnightblue" d="M246.166,-150.196C257.015,-152.289 269.223,-154.644 280.236,-156.768"/>
<polygon fill="midnightblue" stroke="midnightblue" points="279.862,-160.261 290.344,-158.718 281.188,-153.387 279.862,-160.261"/>
</g>
<!-- Node113 -->
<g id="node9" class="node"><title>Node113</title>
<g id="a_node9"><a xlink:href="main_8h.html#a2a7963b9b09696c6654b96c67900c6ea" target="_top" xlink:title="set_cap">
<polygon fill="none" stroke="black" points="394.5,-22.1848 394.5,-40.1848 442.5,-40.1848 442.5,-22.1848 394.5,-22.1848"/>
<text text-anchor="middle" x="418.5" y="-28.9848" font-family="Calibri" font-size="9.00">set_cap</text>
</a>
</g>
</g>
<!-- Node112&#45;&gt;Node113 -->
<g id="edge8" class="edge"><title>Node112&#45;&gt;Node113</title>
<path fill="none" stroke="midnightblue" d="M340.452,-59.1335C353.774,-54.3011 370.337,-48.293 384.689,-43.087"/>
<polygon fill="midnightblue" stroke="midnightblue" points="385.997,-46.3356 394.204,-39.6353 383.61,-39.7551 385.997,-46.3356"/>
</g>
<!-- Node114 -->
<g id="node10" class="node"><title>Node114</title>
<g id="a_node10"><a xlink:href="main_8h.html#aecc83cd8bceb4bc24be844732ead2c2c" target="_top" xlink:title="set_ind">
<polygon fill="none" stroke="black" points="395,-59.1848 395,-77.1848 442,-77.1848 442,-59.1848 395,-59.1848"/>
<text text-anchor="middle" x="418.5" y="-65.9848" font-family="Calibri" font-size="9.00">set_ind</text>
</a>
</g>
</g>
<!-- Node112&#45;&gt;Node114 -->
<g id="edge9" class="edge"><title>Node112&#45;&gt;Node114</title>
<path fill="none" stroke="midnightblue" d="M342.566,-68.1848C355.42,-68.1848 370.896,-68.1848 384.438,-68.1848"/>
<polygon fill="midnightblue" stroke="midnightblue" points="384.798,-71.6849 394.798,-68.1848 384.798,-64.6849 384.798,-71.6849"/>
</g>
<!-- Node116&#45;&gt;Node117 -->
<g id="edge12" class="edge"><title>Node116&#45;&gt;Node117</title>
<path fill="none" stroke="midnightblue" d="M537.082,-323.176C542.919,-318.977 549.621,-313.694 555,-308.185 576.682,-285.977 596.849,-256.062 608.674,-237.198"/>
<polygon fill="midnightblue" stroke="midnightblue" points="611.803,-238.792 614.061,-228.44 605.841,-235.124 611.803,-238.792"/>
</g>
<!-- Node118 -->
<g id="node14" class="node"><title>Node118</title>
<g id="a_node14"><a xlink:href="oled__control_8c.html#a7c3a2e5f1fed76dc27692132a2574d27" target="_top" xlink:title="oled_wr_str">
<polygon fill="none" stroke="black" points="686,-286.185 686,-304.185 751,-304.185 751,-286.185 686,-286.185"/>
<text text-anchor="middle" x="718.5" y="-292.985" font-family="Calibri" font-size="9.00">oled_wr_str</text>
</a>
</g>
</g>
<!-- Node117&#45;&gt;Node118 -->
<g id="edge13" class="edge"><title>Node117&#45;&gt;Node118</title>
<path fill="none" stroke="midnightblue" d="M630.662,-228.247C642.775,-239.995 665.039,-260.797 686,-276.185 688.072,-277.706 690.271,-279.218 692.507,-280.687"/>
<polygon fill="midnightblue" stroke="midnightblue" points="690.777,-283.734 701.112,-286.064 694.485,-277.797 690.777,-283.734"/>
</g>
<!-- Node123 -->
<g id="node19" class="node"><title>Node123</title>
<g id="a_node19"><a xlink:href="oled__control_8c.html#ad25764a33e482f4e9db2701198e02551" target="_top" xlink:title="led_send">
<polygon fill="none" stroke="black" points="800,-211.185 800,-229.185 855,-229.185 855,-211.185 800,-211.185"/>
<text text-anchor="middle" x="827.5" y="-217.985" font-family="Calibri" font-size="9.00">led_send</text>
</a>
</g>
</g>
<!-- Node117&#45;&gt;Node123 -->
<g id="edge20" class="edge"><title>Node117&#45;&gt;Node123</title>
<path fill="none" stroke="midnightblue" d="M650.004,-219.324C686.462,-219.502 749.664,-219.81 789.717,-220.005"/>
<polygon fill="midnightblue" stroke="midnightblue" points="789.847,-223.506 799.864,-220.055 789.881,-216.506 789.847,-223.506"/>
</g>
<!-- Node119 -->
<g id="node15" class="node"><title>Node119</title>
<g id="a_node15"><a xlink:href="oled__control_8c.html#ab7f6b5c6c1483f6286f2de5786c028d9" target="_top" xlink:title="Soft_I2C_Start">
<polygon fill="none" stroke="black" points="906,-314.185 906,-332.185 978,-332.185 978,-314.185 906,-314.185"/>
<text text-anchor="middle" x="942" y="-320.985" font-family="Calibri" font-size="9.00">Soft_I2C_Start</text>
</a>
</g>
</g>
<!-- Node118&#45;&gt;Node119 -->
<g id="edge14" class="edge"><title>Node118&#45;&gt;Node119</title>
<path fill="none" stroke="midnightblue" d="M726.588,-304.316C737.727,-317.832 760.783,-342.596 787,-352.185 829.883,-367.869 882.73,-350.523 914.044,-336.715"/>
<polygon fill="midnightblue" stroke="midnightblue" points="915.793,-339.763 923.414,-332.403 912.867,-333.404 915.793,-339.763"/>
</g>
<!-- Node120 -->
<g id="node16" class="node"><title>Node120</title>
<g id="a_node16"><a xlink:href="oled__control_8c.html#a73610916645f17c19124e697b005f694" target="_top" xlink:title="Soft_I2C_Write">
<polygon fill="none" stroke="black" points="904,-258.185 904,-276.185 980,-276.185 980,-258.185 904,-258.185"/>
<text text-anchor="middle" x="942" y="-264.985" font-family="Calibri" font-size="9.00">Soft_I2C_Write</text>
</a>
</g>
</g>
<!-- Node118&#45;&gt;Node120 -->
<g id="edge15" class="edge"><title>Node118&#45;&gt;Node120</title>
<path fill="none" stroke="midnightblue" d="M751.236,-291.173C788.556,-286.455 850.856,-278.58 893.834,-273.147"/>
<polygon fill="midnightblue" stroke="midnightblue" points="894.294,-276.617 903.776,-271.89 893.416,-269.672 894.294,-276.617"/>
</g>
<!-- Node121 -->
<g id="node17" class="node"><title>Node121</title>
<g id="a_node17"><a xlink:href="oled__control_8c.html#a6df77e8ec83c50ed6a5ddaf54aa3a9c2" target="_top" xlink:title="set_addressing">
<polygon fill="none" stroke="black" points="787.5,-324.185 787.5,-342.185 867.5,-342.185 867.5,-324.185 787.5,-324.185"/>
<text text-anchor="middle" x="827.5" y="-330.985" font-family="Calibri" font-size="9.00">set_addressing</text>
</a>
</g>
</g>
<!-- Node118&#45;&gt;Node121 -->
<g id="edge16" class="edge"><title>Node118&#45;&gt;Node121</title>
<path fill="none" stroke="midnightblue" d="M744.858,-304.19C758.748,-309.123 776.177,-315.313 791.36,-320.705"/>
<polygon fill="midnightblue" stroke="midnightblue" points="790.359,-324.064 800.954,-324.112 792.702,-317.467 790.359,-324.064"/>
</g>
<!-- Node122 -->
<g id="node18" class="node"><title>Node122</title>
<g id="a_node18"><a xlink:href="oled__control_8c.html#a16eb842aa672ca44820ae6d5f9933425" target="_top" xlink:title="Soft_I2C_Stop">
<polygon fill="none" stroke="black" points="906.5,-211.185 906.5,-229.185 977.5,-229.185 977.5,-211.185 906.5,-211.185"/>
<text text-anchor="middle" x="942" y="-217.985" font-family="Calibri" font-size="9.00">Soft_I2C_Stop</text>
</a>
</g>
</g>
<!-- Node118&#45;&gt;Node122 -->
<g id="edge19" class="edge"><title>Node118&#45;&gt;Node122</title>
<path fill="none" stroke="midnightblue" d="M738.479,-286.142C742.966,-283.389 747.467,-280.051 751,-276.185 775.673,-249.186 755.993,-221.582 787,-202.185 825.674,-177.992 880.632,-193.718 913.366,-207.113"/>
<polygon fill="midnightblue" stroke="midnightblue" points="912.199,-210.421 922.768,-211.149 914.959,-203.988 912.199,-210.421"/>
</g>
<!-- Node121&#45;&gt;Node119 -->
<g id="edge17" class="edge"><title>Node121&#45;&gt;Node119</title>
<path fill="none" stroke="midnightblue" d="M867.531,-329.715C876.569,-328.912 886.262,-328.05 895.548,-327.225"/>
<polygon fill="midnightblue" stroke="midnightblue" points="896.151,-330.685 905.802,-326.313 895.531,-323.713 896.151,-330.685"/>
</g>
<!-- Node121&#45;&gt;Node120 -->
<g id="edge18" class="edge"><title>Node121&#45;&gt;Node120</title>
<path fill="none" stroke="midnightblue" d="M844.143,-324.008C862.949,-312.974 894.724,-294.333 916.726,-281.426"/>
<polygon fill="midnightblue" stroke="midnightblue" points="918.636,-284.363 925.49,-276.284 915.094,-278.325 918.636,-284.363"/>
</g>
<!-- Node123&#45;&gt;Node119 -->
<g id="edge21" class="edge"><title>Node123&#45;&gt;Node119</title>
<path fill="none" stroke="midnightblue" d="M852.141,-229.332C857.648,-232.048 863.277,-235.344 868,-239.185 888.414,-255.786 886.66,-266.395 904,-286.185 910.146,-293.199 917.312,-300.537 923.693,-306.812"/>
<polygon fill="midnightblue" stroke="midnightblue" points="921.596,-309.653 931.218,-314.087 926.461,-304.62 921.596,-309.653"/>
</g>
<!-- Node123&#45;&gt;Node120 -->
<g id="edge22" class="edge"><title>Node123&#45;&gt;Node120</title>
<path fill="none" stroke="midnightblue" d="M850.191,-229.247C867.155,-236.334 890.966,-246.282 909.95,-254.213"/>
<polygon fill="midnightblue" stroke="midnightblue" points="908.799,-257.525 919.375,-258.151 911.498,-251.066 908.799,-257.525"/>
</g>
<!-- Node123&#45;&gt;Node122 -->
<g id="edge23" class="edge"><title>Node123&#45;&gt;Node122</title>
<path fill="none" stroke="midnightblue" d="M855.161,-220.185C867.381,-220.185 882.204,-220.185 896.071,-220.185"/>
<polygon fill="midnightblue" stroke="midnightblue" points="896.429,-223.685 906.429,-220.185 896.429,-216.685 896.429,-223.685"/>
</g>
<!-- Node124&#45;&gt;Node113 -->
<g id="edge31" class="edge"><title>Node124&#45;&gt;Node113</title>
<path fill="none" stroke="midnightblue" d="M336.371,-154.007C340.283,-151.573 344.06,-148.638 347,-145.185 376.537,-110.486 352.805,-83.3123 383,-49.1848 383.881,-48.1886 384.831,-47.2393 385.834,-46.3354"/>
<polygon fill="midnightblue" stroke="midnightblue" points="388.201,-48.9445 394.291,-40.2743 384.124,-43.2549 388.201,-48.9445"/>
</g>
<!-- Node124&#45;&gt;Node114 -->
<g id="edge30" class="edge"><title>Node124&#45;&gt;Node114</title>
<path fill="none" stroke="midnightblue" d="M334.779,-154.019C339.061,-151.496 343.394,-148.522 347,-145.185 367.9,-125.845 362.977,-112.432 383,-92.1848 386.117,-89.0331 389.697,-86.0257 393.345,-83.2716"/>
<polygon fill="midnightblue" stroke="midnightblue" points="395.611,-85.9584 401.796,-77.3564 391.596,-80.2238 395.611,-85.9584"/>
</g>
<!-- Node124&#45;&gt;Node117 -->
<g id="edge44" class="edge"><title>Node124&#45;&gt;Node117</title>
<path fill="none" stroke="midnightblue" d="M338.545,-158.202C382.348,-149.813 479.952,-136.354 555,-164.185 575.374,-171.74 593.703,-188.877 605.568,-202.029"/>
<polygon fill="midnightblue" stroke="midnightblue" points="603.213,-204.658 612.388,-209.956 608.519,-200.093 603.213,-204.658"/>
</g>
<!-- Node125 -->
<g id="node21" class="node"><title>Node125</title>
<g id="a_node21"><a xlink:href="main_8h.html#ab37ca657b79c6b9176cb63e9d812a182" target="_top" xlink:title="get_pwr">
<polygon fill="none" stroke="black" points="394,-210.185 394,-228.185 443,-228.185 443,-210.185 394,-210.185"/>
<text text-anchor="middle" x="418.5" y="-216.985" font-family="Calibri" font-size="9.00">get_pwr</text>
</a>
</g>
</g>
<!-- Node124&#45;&gt;Node125 -->
<g id="edge26" class="edge"><title>Node124&#45;&gt;Node125</title>
<path fill="none" stroke="midnightblue" d="M331.242,-172.234C344.872,-180.024 365.148,-191.506 383,-201.185 385.561,-202.573 388.239,-204.005 390.92,-205.426"/>
<polygon fill="midnightblue" stroke="midnightblue" points="389.411,-208.586 399.892,-210.135 392.664,-202.388 389.411,-208.586"/>
</g>
<!-- Node129 -->
<g id="node25" class="node"><title>Node129</title>
<g id="a_node25"><a xlink:href="oled__control_8c.html#a2c663a2db505aa3f2271f6cf4bae1521" target="_top" xlink:title="dysp_on">
<polygon fill="none" stroke="black" points="693.5,-248.185 693.5,-266.185 743.5,-266.185 743.5,-248.185 693.5,-248.185"/>
<text text-anchor="middle" x="718.5" y="-254.985" font-family="Calibri" font-size="9.00">dysp_on</text>
</a>
</g>
</g>
<!-- Node124&#45;&gt;Node129 -->
<g id="edge32" class="edge"><title>Node124&#45;&gt;Node129</title>
<path fill="none" stroke="midnightblue" d="M318.084,-172.265C325.04,-195.303 346.168,-256.845 383,-294.185 420.839,-332.545 437.723,-338.129 490,-351.185 518.028,-358.185 527.099,-358.673 555,-351.185 570.035,-347.15 653.134,-296.784 694.331,-271.487"/>
<polygon fill="midnightblue" stroke="midnightblue" points="696.229,-274.429 702.912,-266.209 692.561,-268.467 696.229,-274.429"/>
</g>
<!-- Node131 -->
<g id="node27" class="node"><title>Node131</title>
<g id="a_node27"><a xlink:href="main_8c.html#a593218c5fe00b499d494826fc0aa5279" target="_top" xlink:title="button_delay">
<polygon fill="none" stroke="black" points="383,-173.185 383,-191.185 454,-191.185 454,-173.185 383,-173.185"/>
<text text-anchor="middle" x="418.5" y="-179.985" font-family="Calibri" font-size="9.00">button_delay</text>
</a>
</g>
</g>
<!-- Node124&#45;&gt;Node131 -->
<g id="edge38" class="edge"><title>Node124&#45;&gt;Node131</title>
<path fill="none" stroke="midnightblue" d="M338.645,-167.496C348.738,-169.376 360.929,-171.647 372.677,-173.835"/>
<polygon fill="midnightblue" stroke="midnightblue" points="372.351,-177.335 382.823,-175.725 373.633,-170.453 372.351,-177.335"/>
</g>
<!-- Node132 -->
<g id="node28" class="node"><title>Node132</title>
<g id="a_node28"><a xlink:href="main_8c.html#aa8fd50019a763561abc6621bb224417f" target="_top" xlink:title="lcd_swr">
<polygon fill="none" stroke="black" points="499,-97.1848 499,-115.185 546,-115.185 546,-97.1848 499,-97.1848"/>
<text text-anchor="middle" x="522.5" y="-103.985" font-family="Calibri" font-size="9.00">lcd_swr</text>
</a>
</g>
</g>
<!-- Node124&#45;&gt;Node132 -->
<g id="edge39" class="edge"><title>Node124&#45;&gt;Node132</title>
<path fill="none" stroke="midnightblue" d="M330.794,-154.146C344.144,-146.643 364.261,-136.253 383,-130.185 418.203,-118.786 460.293,-112.47 488.762,-109.216"/>
<polygon fill="midnightblue" stroke="midnightblue" points="489.397,-112.667 498.963,-108.114 488.645,-105.708 489.397,-112.667"/>
</g>
<!-- Node133 -->
<g id="node29" class="node"><title>Node133</title>
<g id="a_node29"><a xlink:href="main_8c.html#a4ae0d4fa97fc0ca3611813fee4f9af7c" target="_top" xlink:title="show_pwr">
<polygon fill="none" stroke="black" points="389.5,-266.185 389.5,-284.185 447.5,-284.185 447.5,-266.185 389.5,-266.185"/>
<text text-anchor="middle" x="418.5" y="-272.985" font-family="Calibri" font-size="9.00">show_pwr</text>
</a>
</g>
</g>
<!-- Node124&#45;&gt;Node133 -->
<g id="edge41" class="edge"><title>Node124&#45;&gt;Node133</title>
<path fill="none" stroke="midnightblue" d="M323.761,-172.469C336.433,-186.686 361.464,-214.676 383,-238.185 389.174,-244.924 396.029,-252.298 401.992,-258.677"/>
<polygon fill="midnightblue" stroke="midnightblue" points="399.557,-261.198 408.948,-266.103 404.666,-256.412 399.557,-261.198"/>
</g>
<!-- Node126 -->
<g id="node22" class="node"><title>Node126</title>
<g id="a_node22"><a xlink:href="main_8h.html#ab19e6e081315a9a200394b74d10de395" target="_top" xlink:title="correction">
<polygon fill="none" stroke="black" points="494,-247.185 494,-265.185 551,-265.185 551,-247.185 494,-247.185"/>
<text text-anchor="middle" x="522.5" y="-253.985" font-family="Calibri" font-size="9.00">correction</text>
</a>
</g>
</g>
<!-- Node125&#45;&gt;Node126 -->
<g id="edge27" class="edge"><title>Node125&#45;&gt;Node126</title>
<path fill="none" stroke="midnightblue" d="M443.157,-227.766C456.163,-232.484 472.538,-238.424 486.95,-243.652"/>
<polygon fill="midnightblue" stroke="midnightblue" points="485.954,-247.014 496.548,-247.134 488.341,-240.433 485.954,-247.014"/>
</g>
<!-- Node127 -->
<g id="node23" class="node"><title>Node127</title>
<g id="a_node23"><a xlink:href="main_8h.html#acfd46f8711e9c1c20fffdfc8bdaa0ddd" target="_top" xlink:title="get_forward">
<polygon fill="none" stroke="black" points="490,-210.185 490,-228.185 555,-228.185 555,-210.185 490,-210.185"/>
<text text-anchor="middle" x="522.5" y="-216.985" font-family="Calibri" font-size="9.00">get_forward</text>
</a>
</g>
</g>
<!-- Node125&#45;&gt;Node127 -->
<g id="edge28" class="edge"><title>Node125&#45;&gt;Node127</title>
<path fill="none" stroke="midnightblue" d="M443.157,-219.185C454.008,-219.185 467.203,-219.185 479.647,-219.185"/>
<polygon fill="midnightblue" stroke="midnightblue" points="479.855,-222.685 489.855,-219.185 479.855,-215.685 479.855,-222.685"/>
</g>
<!-- Node128 -->
<g id="node24" class="node"><title>Node128</title>
<g id="a_node24"><a xlink:href="main_8h.html#aa6b9a2b3d88f578ba6a9fefd911eae75" target="_top" xlink:title="get_reverse">
<polygon fill="none" stroke="black" points="490.5,-173.185 490.5,-191.185 554.5,-191.185 554.5,-173.185 490.5,-173.185"/>
<text text-anchor="middle" x="522.5" y="-179.985" font-family="Calibri" font-size="9.00">get_reverse</text>
</a>
</g>
</g>
<!-- Node125&#45;&gt;Node128 -->
<g id="edge29" class="edge"><title>Node125&#45;&gt;Node128</title>
<path fill="none" stroke="midnightblue" d="M443.157,-210.603C456.163,-205.885 472.538,-199.946 486.95,-194.718"/>
<polygon fill="midnightblue" stroke="midnightblue" points="488.341,-197.936 496.548,-191.236 485.954,-191.356 488.341,-197.936"/>
</g>
<!-- Node129&#45;&gt;Node123 -->
<g id="edge37" class="edge"><title>Node129&#45;&gt;Node123</title>
<path fill="none" stroke="midnightblue" d="M743.513,-248.881C757.362,-244.092 775.045,-237.978 790.526,-232.624"/>
<polygon fill="midnightblue" stroke="midnightblue" points="792.012,-235.814 800.32,-229.238 789.725,-229.198 792.012,-235.814"/>
</g>
<!-- Node130 -->
<g id="node26" class="node"><title>Node130</title>
<g id="a_node26"><a xlink:href="oled__control_8c.html#ad141ed038278a6fcad6c307932f01ec8" target="_top" xlink:title="send_command">
<polygon fill="none" stroke="black" points="787,-248.185 787,-266.185 868,-266.185 868,-248.185 787,-248.185"/>
<text text-anchor="middle" x="827.5" y="-254.985" font-family="Calibri" font-size="9.00">send_command</text>
</a>
</g>
</g>
<!-- Node129&#45;&gt;Node130 -->
<g id="edge33" class="edge"><title>Node129&#45;&gt;Node130</title>
<path fill="none" stroke="midnightblue" d="M743.513,-257.185C753.33,-257.185 765.073,-257.185 776.594,-257.185"/>
<polygon fill="midnightblue" stroke="midnightblue" points="776.606,-260.685 786.606,-257.185 776.606,-253.685 776.606,-260.685"/>
</g>
<!-- Node130&#45;&gt;Node119 -->
<g id="edge34" class="edge"><title>Node130&#45;&gt;Node119</title>
<path fill="none" stroke="midnightblue" d="M844.143,-266.362C862.949,-277.395 894.724,-296.036 916.726,-308.944"/>
<polygon fill="midnightblue" stroke="midnightblue" points="915.094,-312.044 925.49,-314.086 918.636,-306.007 915.094,-312.044"/>
</g>
<!-- Node130&#45;&gt;Node120 -->
<g id="edge35" class="edge"><title>Node130&#45;&gt;Node120</title>
<path fill="none" stroke="midnightblue" d="M868.163,-260.71C876.439,-261.446 885.24,-262.228 893.758,-262.985"/>
<polygon fill="midnightblue" stroke="midnightblue" points="893.683,-266.493 903.954,-263.892 894.303,-259.52 893.683,-266.493"/>
</g>
<!-- Node130&#45;&gt;Node122 -->
<g id="edge36" class="edge"><title>Node130&#45;&gt;Node122</title>
<path fill="none" stroke="midnightblue" d="M856.021,-248.134C870.321,-243.43 888.009,-237.613 903.538,-232.506"/>
<polygon fill="midnightblue" stroke="midnightblue" points="904.968,-235.72 913.374,-229.271 902.781,-229.07 904.968,-235.72"/>
</g>
<!-- Node132&#45;&gt;Node117 -->
<g id="edge40" class="edge"><title>Node132&#45;&gt;Node117</title>
<path fill="none" stroke="midnightblue" d="M537.082,-115.193C542.919,-119.393 549.621,-124.675 555,-130.185 576.682,-152.393 596.849,-182.307 608.674,-201.171"/>
<polygon fill="midnightblue" stroke="midnightblue" points="605.841,-203.245 614.061,-209.929 611.803,-199.578 605.841,-203.245"/>
</g>
<!-- Node133&#45;&gt;Node116 -->
<g id="edge43" class="edge"><title>Node133&#45;&gt;Node116</title>
<path fill="none" stroke="midnightblue" d="M435.888,-284.343C452.171,-293.442 477.367,-307.522 496.216,-318.056"/>
<polygon fill="midnightblue" stroke="midnightblue" points="494.716,-321.227 505.153,-323.049 498.131,-315.116 494.716,-321.227"/>
</g>
<!-- Node133&#45;&gt;Node117 -->
<g id="edge42" class="edge"><title>Node133&#45;&gt;Node117</title>
<path fill="none" stroke="midnightblue" d="M447.762,-280.782C475.901,-285.083 519.851,-288.314 555,-275.185 575.708,-267.45 594.169,-249.736 605.978,-236.287"/>
<polygon fill="midnightblue" stroke="midnightblue" points="608.688,-238.502 612.433,-228.591 603.325,-234.004 608.688,-238.502"/>
</g>
</g>
</svg>
        <g id="navigator" transform="translate(0 0)" fill="#404254">
                <rect fill="#f2f5e9" fill-opacity="0.5" stroke="#606060" stroke-width=".5" x="0" y="0" width="60" height="60"/>
                <use id="zoomplus" xlink:href="#zoomPlus" x="17" y="9" onmousedown="handleZoom(evt,'in')"/>
                <use id="zoomminus" xlink:href="#zoomMin" x="42" y="9" onmousedown="handleZoom(evt,'out')"/>
                <use id="reset" xlink:href="#resetDef" x="30" y="36" onmousedown="handleReset()"/>
                <g id="arrowUp" xlink:href="#dirArrow" transform="translate(30 24)" onmousedown="handlePan(0,-1)">
                  <use xlink:href="#rim" fill="#404040">
                        <set attributeName="fill" to="#808080" begin="arrowUp.mouseover" end="arrowUp.mouseout"/>
                  </use>
                  <path fill="none" stroke="white" stroke-width="1.5" d="M0,-3.0v7 M-2.5,-0.5L0,-3.0L2.5,-0.5"/>
                </g>
                <g id="arrowRight" xlink:href="#dirArrow" transform="rotate(90) translate(36 -43)" onmousedown="handlePan(1,0)">
                  <use xlink:href="#rim" fill="#404040">
                        <set attributeName="fill" to="#808080" begin="arrowRight.mouseover" end="arrowRight.mouseout"/>
                  </use>
                  <path fill="none" stroke="white" stroke-width="1.5" d="M0,-3.0v7 M-2.5,-0.5L0,-3.0L2.5,-0.5"/>
                </g>
                <g id="arrowDown" xlink:href="#dirArrow" transform="rotate(180) translate(-30 -48)" onmousedown="handlePan(0,1)">
                  <use xlink:href="#rim" fill="#404040">
                        <set attributeName="fill" to="#808080" begin="arrowDown.mouseover" end="arrowDown.mouseout"/>
                  </use>
                  <path fill="none" stroke="white" stroke-width="1.5" d="M0,-3.0v7 M-2.5,-0.5L0,-3.0L2.5,-0.5"/>
                </g>
                <g id="arrowLeft" xlink:href="#dirArrow" transform="rotate(270) translate(-36 17)" onmousedown="handlePan(-1,0)">
                  <use xlink:href="#rim" fill="#404040">
                        <set attributeName="fill" to="#808080" begin="arrowLeft.mouseover" end="arrowLeft.mouseout"/>
                  </use>
                  <path fill="none" stroke="white" stroke-width="1.5" d="M0,-3.0v7 M-2.5,-0.5L0,-3.0L2.5,-0.5"/>
                </g>
        </g>
        <svg viewBox="0 0 15 15" width="100%" height="30px" preserveAspectRatio="xMaxYMin meet">
         <g id="arrow_out" transform="scale(0.3 0.3)">
          <a xlink:href="main__main_8h_a740ef1b33bb02cd952ad7d8708999472_cgraph_org.svg" target="_base">
           <rect id="button" ry="5" rx="5" y="6" x="6" height="38" width="38"
                fill="#f2f5e9" fill-opacity="0.5" stroke="#606060" stroke-width="1.0"/>
           <path id="arrow"
             d="M 11.500037,31.436501 C 11.940474,20.09759 22.043105,11.32322 32.158766,21.979434 L 37.068811,17.246167 C 37.068811,17.246167 37.088388,32 37.088388,32 L 22.160133,31.978069 C 22.160133,31.978069 26.997745,27.140456 26.997745,27.140456 C 18.528582,18.264221 13.291696,25.230495 11.500037,31.436501 z"
             style="fill:#404040;"/>
          </a>
         </g>
        </svg>
</svg>
