<?xml version="1.0" encoding="UTF-8" standalone="no"?>
<!DOCTYPE svg PUBLIC "-//W3C//DTD SVG 1.1//EN"
 "http://www.w3.org/Graphics/SVG/1.1/DTD/svg11.dtd">
<!-- Generated by graphviz version 2.38.0 (20140413.2041)
 -->
<!-- Title: Test_init Pages: 1 -->
<svg width="332pt" height="215pt"
 viewBox="0.00 0.00 332.00 215.00" xmlns="http://www.w3.org/2000/svg" xmlns:xlink="http://www.w3.org/1999/xlink">
<g id="graph0" class="graph" transform="scale(1 1) rotate(0) translate(4 211)">
<title>Test_init</title>
<!-- Node1 -->
<g id="node1" class="node"><title>Node1</title>
<g id="a_node1"><a xlink:title=" ">
<polygon fill="#bfbfbf" stroke="black" points="0,-57.5 0,-75.5 53,-75.5 53,-57.5 0,-57.5"/>
<text text-anchor="middle" x="26.5" y="-64.3" font-family="Calibri" font-size="9.00">Test_init</text>
</a>
</g>
</g>
<!-- Node2 -->
<g id="node2" class="node"><title>Node2</title>
<g id="a_node2"><a xlink:href="main_8h.html#a9dff326a6079fe726285b11ee837ad60" target="_top" xlink:title=" ">
<polygon fill="none" stroke="black" points="89,-151.5 89,-169.5 145,-169.5 145,-151.5 89,-151.5"/>
<text text-anchor="middle" x="117" y="-158.3" font-family="Calibri" font-size="9.00">atu_reset</text>
</a>
</g>
</g>
<!-- Node1&#45;&gt;Node2 -->
<g id="edge1" class="edge"><title>Node1&#45;&gt;Node2</title>
<path fill="none" stroke="midnightblue" d="M35.9858,-75.5131C50.8153,-91.2643 81.6513,-124.017 100.415,-143.947"/>
<polygon fill="midnightblue" stroke="midnightblue" points="98.0067,-146.494 107.41,-151.376 103.103,-141.696 98.0067,-146.494"/>
</g>
<!-- Node5 -->
<g id="node5" class="node"><title>Node5</title>
<g id="a_node5"><a xlink:href="main_8c.html#a46f52cccc77b5d2d91f35334046bc8eb" target="_top" xlink:title=" ">
<polygon fill="none" stroke="black" points="91,-76.5 91,-94.5 143,-94.5 143,-76.5 91,-76.5"/>
<text text-anchor="middle" x="117" y="-83.3" font-family="Calibri" font-size="9.00">lcd_prep</text>
</a>
</g>
</g>
<!-- Node1&#45;&gt;Node5 -->
<g id="edge4" class="edge"><title>Node1&#45;&gt;Node5</title>
<path fill="none" stroke="midnightblue" d="M53.0979,-71.9956C61.7954,-73.8629 71.6698,-75.9828 80.9747,-77.9804"/>
<polygon fill="midnightblue" stroke="midnightblue" points="80.2534,-81.4053 90.7653,-80.0824 81.7228,-74.5612 80.2534,-81.4053"/>
</g>
<!-- Node7 -->
<g id="node7" class="node"><title>Node7</title>
<g id="a_node7"><a xlink:href="oled__control_8h.html#ab272af1010175ba1166b08b8b3df6874" target="_top" xlink:title=" ">
<polygon fill="none" stroke="black" points="265,-76.5 265,-94.5 324,-94.5 324,-76.5 265,-76.5"/>
<text text-anchor="middle" x="294.5" y="-83.3" font-family="Calibri" font-size="9.00">led_wr_str</text>
</a>
</g>
</g>
<!-- Node1&#45;&gt;Node7 -->
<g id="edge8" class="edge"><title>Node1&#45;&gt;Node7</title>
<path fill="none" stroke="midnightblue" d="M53.2018,-65.5612C77.0266,-64.9136 113.445,-64.4895 145,-66.5 182.473,-68.8875 224.944,-74.6311 254.838,-79.1827"/>
<polygon fill="midnightblue" stroke="midnightblue" points="254.44,-82.6628 264.858,-80.7354 255.512,-75.7453 254.44,-82.6628"/>
</g>
<!-- Node8 -->
<g id="node8" class="node"><title>Node8</title>
<g id="a_node8"><a xlink:href="main_8h.html#ae0c1e0ec712704e43db40473f103d621" target="_top" xlink:title="Set the state of the switch.">
<polygon fill="none" stroke="black" points="94.5,-0.5 94.5,-18.5 139.5,-18.5 139.5,-0.5 94.5,-0.5"/>
<text text-anchor="middle" x="117" y="-7.3" font-family="Calibri" font-size="9.00">set_sw</text>
</a>
</g>
</g>
<!-- Node1&#45;&gt;Node8 -->
<g id="edge9" class="edge"><title>Node1&#45;&gt;Node8</title>
<path fill="none" stroke="midnightblue" d="M41.7191,-57.342C55.6536,-48.3671 77.1111,-34.5471 93.3875,-24.064"/>
<polygon fill="midnightblue" stroke="midnightblue" points="95.3043,-26.9926 101.816,-18.6353 91.5139,-21.1076 95.3043,-26.9926"/>
</g>
<!-- Node3 -->
<g id="node3" class="node"><title>Node3</title>
<g id="a_node3"><a xlink:href="main_8h.html#a2a7963b9b09696c6654b96c67900c6ea" target="_top" xlink:title=" ">
<polygon fill="none" stroke="black" points="181,-188.5 181,-206.5 229,-206.5 229,-188.5 181,-188.5"/>
<text text-anchor="middle" x="205" y="-195.3" font-family="Calibri" font-size="9.00">set_cap</text>
</a>
</g>
</g>
<!-- Node2&#45;&gt;Node3 -->
<g id="edge2" class="edge"><title>Node2&#45;&gt;Node3</title>
<path fill="none" stroke="midnightblue" d="M139.258,-169.646C149.673,-174.127 162.396,-179.601 173.799,-184.506"/>
<polygon fill="midnightblue" stroke="midnightblue" points="172.417,-187.722 182.986,-188.459 175.183,-181.292 172.417,-187.722"/>
</g>
<!-- Node4 -->
<g id="node4" class="node"><title>Node4</title>
<g id="a_node4"><a xlink:href="main_8h.html#aecc83cd8bceb4bc24be844732ead2c2c" target="_top" xlink:title=" ">
<polygon fill="none" stroke="black" points="181.5,-151.5 181.5,-169.5 228.5,-169.5 228.5,-151.5 181.5,-151.5"/>
<text text-anchor="middle" x="205" y="-158.3" font-family="Calibri" font-size="9.00">set_ind</text>
</a>
</g>
</g>
<!-- Node2&#45;&gt;Node4 -->
<g id="edge3" class="edge"><title>Node2&#45;&gt;Node4</title>
<path fill="none" stroke="midnightblue" d="M145.211,-160.5C153.467,-160.5 162.626,-160.5 171.208,-160.5"/>
<polygon fill="midnightblue" stroke="midnightblue" points="171.292,-164 181.292,-160.5 171.292,-157 171.292,-164"/>
</g>
<!-- Node6 -->
<g id="node6" class="node"><title>Node6</title>
<g id="a_node6"><a xlink:href="main_8c.html#a6911b3f075cdf1d54cb14f17f6e5ef6b" target="_top" xlink:title=" ">
<polygon fill="none" stroke="black" points="181.5,-114.5 181.5,-132.5 228.5,-132.5 228.5,-114.5 181.5,-114.5"/>
<text text-anchor="middle" x="205" y="-121.3" font-family="Calibri" font-size="9.00">lcd_ind</text>
</a>
</g>
</g>
<!-- Node5&#45;&gt;Node6 -->
<g id="edge5" class="edge"><title>Node5&#45;&gt;Node6</title>
<path fill="none" stroke="midnightblue" d="M138.381,-94.5055C149.013,-99.2036 162.225,-105.041 174.001,-110.245"/>
<polygon fill="midnightblue" stroke="midnightblue" points="172.906,-113.587 183.467,-114.427 175.735,-107.184 172.906,-113.587"/>
</g>
<!-- Node5&#45;&gt;Node7 -->
<g id="edge7" class="edge"><title>Node5&#45;&gt;Node7</title>
<path fill="none" stroke="midnightblue" d="M143.145,-85.5C172.349,-85.5 220.857,-85.5 254.857,-85.5"/>
<polygon fill="midnightblue" stroke="midnightblue" points="254.906,-89.0001 264.906,-85.5 254.906,-82.0001 254.906,-89.0001"/>
</g>
<!-- Node6&#45;&gt;Node7 -->
<g id="edge6" class="edge"><title>Node6&#45;&gt;Node7</title>
<path fill="none" stroke="midnightblue" d="M226.736,-114.495C237.663,-109.749 251.266,-103.842 263.337,-98.5992"/>
<polygon fill="midnightblue" stroke="midnightblue" points="264.831,-101.766 272.609,-94.5725 262.043,-95.3457 264.831,-101.766"/>
</g>
</g>
</svg>
