<?xml version="1.0" encoding="UTF-8" standalone="no"?>
<!DOCTYPE svg PUBLIC "-//W3C//DTD SVG 1.1//EN"
 "http://www.w3.org/Graphics/SVG/1.1/DTD/svg11.dtd">
<!-- Generated by graphviz version 2.38.0 (20140413.2041)
 -->
<!-- Title: show_reset Pages: 1 -->
<svg width="445pt" height="215pt"
 viewBox="0.00 0.00 445.00 215.00" xmlns="http://www.w3.org/2000/svg" xmlns:xlink="http://www.w3.org/1999/xlink">
<g id="graph0" class="graph" transform="scale(1 1) rotate(0) translate(4 211)">
<title>show_reset</title>
<!-- Node428 -->
<g id="node1" class="node"><title>Node428</title>
<polygon fill="#bfbfbf" stroke="black" points="0,-131.5 0,-149.5 64,-149.5 64,-131.5 0,-131.5"/>
<text text-anchor="middle" x="32" y="-138.3" font-family="Calibri" font-size="9.00">show_reset</text>
</g>
<!-- Node429 -->
<g id="node2" class="node"><title>Node429</title>
<g id="a_node2"><a xlink:href="main__main_8h.html#a1c9e5d54d8cf7f3d041aa2e0b330b3dd" target="_top" xlink:title="button_proc">
<polygon fill="none" stroke="black" points="100,-169.5 100,-187.5 165,-187.5 165,-169.5 100,-169.5"/>
<text text-anchor="middle" x="132.5" y="-176.3" font-family="Calibri" font-size="9.00">button_proc</text>
</a>
</g>
</g>
<!-- Node428&#45;&gt;Node429 -->
<g id="edge1" class="edge"><title>Node428&#45;&gt;Node429</title>
<path fill="none" stroke="midnightblue" d="M65.9587,-153.215C79.7276,-158.527 95.4109,-164.577 107.983,-169.427"/>
<polygon fill="midnightblue" stroke="midnightblue" points="66.9327,-149.839 56.3431,-149.505 64.4131,-156.37 66.9327,-149.839"/>
</g>
<!-- Node431 -->
<g id="node4" class="node"><title>Node431</title>
<g id="a_node4"><a xlink:href="main__main_8h.html#a6c26e075660bdd7a54df984ec3fc7ff4" target="_top" xlink:title="get_swr">
<polygon fill="none" stroke="black" points="108.5,-94.5 108.5,-112.5 156.5,-112.5 156.5,-94.5 108.5,-94.5"/>
<text text-anchor="middle" x="132.5" y="-101.3" font-family="Calibri" font-size="9.00">get_swr</text>
</a>
</g>
</g>
<!-- Node428&#45;&gt;Node431 -->
<g id="edge3" class="edge"><title>Node428&#45;&gt;Node431</title>
<path fill="none" stroke="midnightblue" d="M66.6968,-127.842C80.4137,-122.69 95.9243,-116.863 108.331,-112.203"/>
<polygon fill="midnightblue" stroke="midnightblue" points="65.2264,-124.656 57.0958,-131.449 67.6879,-131.209 65.2264,-124.656"/>
</g>
<!-- Node430 -->
<g id="node3" class="node"><title>Node430</title>
<g id="a_node3"><a xlink:href="main_8c.html#acdef7a1fd863a6d3770c1268cb06add3" target="_top" xlink:title="main">
<polygon fill="none" stroke="black" points="213,-188.5 213,-206.5 251,-206.5 251,-188.5 213,-188.5"/>
<text text-anchor="middle" x="232" y="-195.3" font-family="Calibri" font-size="9.00">main</text>
</a>
</g>
</g>
<!-- Node429&#45;&gt;Node430 -->
<g id="edge2" class="edge"><title>Node429&#45;&gt;Node430</title>
<path fill="none" stroke="midnightblue" d="M175.051,-186.597C188.263,-189.172 202.195,-191.887 212.852,-193.963"/>
<polygon fill="midnightblue" stroke="midnightblue" points="175.64,-183.146 165.155,-184.669 174.301,-190.017 175.64,-183.146"/>
</g>
<!-- Node432 -->
<g id="node5" class="node"><title>Node432</title>
<g id="a_node5"><a xlink:href="main__main_8h.html#a740ef1b33bb02cd952ad7d8708999472" target="_top" xlink:title="coarse_cap">
<polygon fill="none" stroke="black" points="201,-151.5 201,-169.5 263,-169.5 263,-151.5 201,-151.5"/>
<text text-anchor="middle" x="232" y="-158.3" font-family="Calibri" font-size="9.00">coarse_cap</text>
</a>
</g>
</g>
<!-- Node431&#45;&gt;Node432 -->
<g id="edge4" class="edge"><title>Node431&#45;&gt;Node432</title>
<path fill="none" stroke="midnightblue" d="M157.961,-117.8C175.96,-128.323 199.894,-142.315 215.374,-151.365"/>
<polygon fill="midnightblue" stroke="midnightblue" points="159.564,-114.684 149.165,-112.658 156.032,-120.727 159.564,-114.684"/>
</g>
<!-- Node433 -->
<g id="node6" class="node"><title>Node433</title>
<g id="a_node6"><a xlink:href="main__main_8h.html#a5c7c60c7d70cf76cc52e87722bb0f614" target="_top" xlink:title="coarse_tune">
<polygon fill="none" stroke="black" points="299,-113.5 299,-131.5 366,-131.5 366,-113.5 299,-113.5"/>
<text text-anchor="middle" x="332.5" y="-120.3" font-family="Calibri" font-size="9.00">coarse_tune</text>
</a>
</g>
</g>
<!-- Node431&#45;&gt;Node433 -->
<g id="edge7" class="edge"><title>Node431&#45;&gt;Node433</title>
<path fill="none" stroke="midnightblue" d="M166.787,-106.694C203.496,-110.217 262.187,-115.849 298.7,-119.353"/>
<polygon fill="midnightblue" stroke="midnightblue" points="166.889,-103.188 156.601,-105.717 166.221,-110.156 166.889,-103.188"/>
</g>
<!-- Node434 -->
<g id="node7" class="node"><title>Node434</title>
<g id="a_node7"><a xlink:href="main__main_8h.html#a1849f2e5bd63d11a7b9549470e287d17" target="_top" xlink:title="tune">
<polygon fill="none" stroke="black" points="402,-56.5 402,-74.5 437,-74.5 437,-56.5 402,-56.5"/>
<text text-anchor="middle" x="419.5" y="-63.3" font-family="Calibri" font-size="9.00">tune</text>
</a>
</g>
</g>
<!-- Node431&#45;&gt;Node434 -->
<g id="edge12" class="edge"><title>Node431&#45;&gt;Node434</title>
<path fill="none" stroke="midnightblue" d="M166.738,-99.0683C227.92,-90.9106 356.285,-73.7954 401.944,-67.7075"/>
<polygon fill="midnightblue" stroke="midnightblue" points="166.272,-95.5993 156.823,-100.39 167.198,-102.538 166.272,-95.5993"/>
</g>
<!-- Node435 -->
<g id="node8" class="node"><title>Node435</title>
<g id="a_node8"><a xlink:href="main__main_8h.html#ab518a3d2c723f12d3af3024a195606ce" target="_top" xlink:title="sharp_cap">
<polygon fill="none" stroke="black" points="303,-37.5 303,-55.5 362,-55.5 362,-37.5 303,-37.5"/>
<text text-anchor="middle" x="332.5" y="-44.3" font-family="Calibri" font-size="9.00">sharp_cap</text>
</a>
</g>
</g>
<!-- Node431&#45;&gt;Node435 -->
<g id="edge8" class="edge"><title>Node431&#45;&gt;Node435</title>
<path fill="none" stroke="midnightblue" d="M157.97,-89.5248C170.496,-82.8968 186.191,-75.3795 201,-70.5 235.131,-59.2537 276.125,-52.8017 302.943,-49.4771"/>
<polygon fill="midnightblue" stroke="midnightblue" points="156.189,-86.5091 149.076,-94.3615 159.533,-92.6585 156.189,-86.5091"/>
</g>
<!-- Node436 -->
<g id="node9" class="node"><title>Node436</title>
<g id="a_node9"><a xlink:href="main__main_8h.html#a72210b3ed1d5691c5bbda8c7f1e97197" target="_top" xlink:title="sharp_ind">
<polygon fill="none" stroke="black" points="303.5,-0.5 303.5,-18.5 361.5,-18.5 361.5,-0.5 303.5,-0.5"/>
<text text-anchor="middle" x="332.5" y="-7.3" font-family="Calibri" font-size="9.00">sharp_ind</text>
</a>
</g>
</g>
<!-- Node431&#45;&gt;Node436 -->
<g id="edge10" class="edge"><title>Node431&#45;&gt;Node436</title>
<path fill="none" stroke="midnightblue" d="M150.995,-87.7127C164.018,-76.6267 182.644,-62.1187 201,-52.5 234.384,-35.0062 276.27,-22.7267 303.446,-15.8889"/>
<polygon fill="midnightblue" stroke="midnightblue" points="148.542,-85.2077 143.306,-94.4179 153.143,-90.4836 148.542,-85.2077"/>
</g>
<!-- Node432&#45;&gt;Node433 -->
<g id="edge5" class="edge"><title>Node432&#45;&gt;Node433</title>
<path fill="none" stroke="midnightblue" d="M265.959,-147.785C279.728,-142.473 295.411,-136.423 307.983,-131.573"/>
<polygon fill="midnightblue" stroke="midnightblue" points="264.413,-144.63 256.343,-151.495 266.933,-151.161 264.413,-144.63"/>
</g>
<!-- Node433&#45;&gt;Node434 -->
<g id="edge6" class="edge"><title>Node433&#45;&gt;Node434</title>
<path fill="none" stroke="midnightblue" d="M355.694,-107.617C371.28,-97.1652 391.63,-83.5189 404.877,-74.6353"/>
<polygon fill="midnightblue" stroke="midnightblue" points="353.513,-104.865 347.157,-113.342 357.412,-110.679 353.513,-104.865"/>
</g>
<!-- Node435&#45;&gt;Node434 -->
<g id="edge9" class="edge"><title>Node435&#45;&gt;Node434</title>
<path fill="none" stroke="midnightblue" d="M372.056,-55.1184C382.443,-57.4401 393.146,-59.8326 401.656,-61.7349"/>
<polygon fill="midnightblue" stroke="midnightblue" points="372.8,-51.6984 362.277,-52.9325 371.273,-58.5298 372.8,-51.6984"/>
</g>
<!-- Node436&#45;&gt;Node434 -->
<g id="edge11" class="edge"><title>Node436&#45;&gt;Node434</title>
<path fill="none" stroke="midnightblue" d="M359.954,-23.7984C362.018,-25.0207 364.054,-26.2632 366,-27.5 380.434,-36.6737 396.236,-48.3501 406.693,-56.3232"/>
<polygon fill="midnightblue" stroke="midnightblue" points="361.35,-20.5652 350.93,-18.6479 357.88,-26.6447 361.35,-20.5652"/>
</g>
</g>
</svg>
