<?xml version="1.0" encoding="UTF-8" standalone="no"?>
<!DOCTYPE svg PUBLIC "-//W3C//DTD SVG 1.1//EN"
 "http://www.w3.org/Graphics/SVG/1.1/DTD/svg11.dtd">
<!-- Generated by graphviz version 2.38.0 (20140413.2041)
 -->
<!-- Title: get_swr Pages: 1 -->
<!--zoomable 443 -->
<svg id="main" version="1.1" xmlns="http://www.w3.org/2000/svg" xmlns:xlink="http://www.w3.org/1999/xlink" xml:space="preserve" onload="init(evt)">
<style type="text/css"><![CDATA[
.edge:hover path { stroke: red; }
.edge:hover polygon { stroke: red; fill: red; }
]]></style>
<script type="text/javascript"><![CDATA[
var edges = document.getElementsByTagName('g');
if (edges && edges.length) {
  for (var i=0;i<edges.length;i++) {
    if (edges[i].id.substr(0,4)=='edge') {
      edges[i].setAttribute('class','edge');
    }
  }
}
]]></script>
        <defs>
                <circle id="rim" cx="0" cy="0" r="7"/>
                <circle id="rim2" cx="0" cy="0" r="3.5"/>
                <g id="zoomPlus">
                        <use xlink:href="#rim" fill="#404040">
                                <set attributeName="fill" to="#808080" begin="zoomplus.mouseover" end="zoomplus.mouseout"/>
                        </use>
                        <path d="M-4,0h8M0,-4v8" fill="none" stroke="white" stroke-width="1.5" pointer-events="none"/>
                </g>
                <g id="zoomMin">
                        <use xlink:href="#rim" fill="#404040">
                                <set attributeName="fill" to="#808080" begin="zoomminus.mouseover" end="zoomminus.mouseout"/>
                        </use>
                        <path d="M-4,0h8" fill="none" stroke="white" stroke-width="1.5" pointer-events="none"/>
                </g>
                <g id="dirArrow">
                        <path fill="none" stroke="white" stroke-width="1.5" d="M0,-3.0v7 M-2.5,-0.5L0,-3.0L2.5,-0.5"/>
                </g>
               <g id="resetDef">
                       <use xlink:href="#rim2" fill="#404040">
                               <set attributeName="fill" to="#808080" begin="reset.mouseover" end="reset.mouseout"/>
                       </use>
               </g>
        </defs>

<script type="text/javascript">
var viewWidth = 890;
var viewHeight = 443;
var sectionId = 'dynsection-18';
</script>
<script xlink:href="svgpan.js"/>
<svg id="graph" class="graph">
<g id="viewport">
<title>get_swr</title>
<!-- Node212 -->
<g id="node1" class="node"><title>Node212</title>
<polygon fill="#bfbfbf" stroke="black" points="0,-256.079 0,-274.079 48,-274.079 48,-256.079 0,-256.079"/>
<text text-anchor="middle" x="24" y="-262.879" font-family="Calibri" font-size="9.00">get_swr</text>
</g>
<!-- Node213 -->
<g id="node2" class="node"><title>Node213</title>
<g id="a_node2"><a xlink:href="main__main_8h.html#ab37ca657b79c6b9176cb63e9d812a182" target="_top" xlink:title="get_pwr">
<polygon fill="none" stroke="black" points="91.5,-360.079 91.5,-378.079 140.5,-378.079 140.5,-360.079 91.5,-360.079"/>
<text text-anchor="middle" x="116" y="-366.879" font-family="Calibri" font-size="9.00">get_pwr</text>
</a>
</g>
</g>
<!-- Node212&#45;&gt;Node213 -->
<g id="edge1" class="edge"><title>Node212&#45;&gt;Node213</title>
<path fill="none" stroke="midnightblue" d="M32.9869,-274.308C48.1694,-291.852 81.3873,-330.238 100.564,-352.397"/>
<polygon fill="midnightblue" stroke="midnightblue" points="97.9691,-354.747 107.16,-360.019 103.262,-350.167 97.9691,-354.747"/>
</g>
<!-- Node217 -->
<g id="node6" class="node"><title>Node217</title>
<g id="a_node6"><a xlink:href="main__main_8h.html#ad9d02e37f1f201576a9d93fd36fc4768" target="_top" xlink:title="show_reset">
<polygon fill="none" stroke="black" points="84,-135.079 84,-153.079 148,-153.079 148,-135.079 84,-135.079"/>
<text text-anchor="middle" x="116" y="-141.879" font-family="Calibri" font-size="9.00">show_reset</text>
</a>
</g>
</g>
<!-- Node212&#45;&gt;Node217 -->
<g id="edge5" class="edge"><title>Node212&#45;&gt;Node217</title>
<path fill="none" stroke="midnightblue" d="M31.7646,-255.984C46.6845,-235.925 82.6278,-187.602 102.041,-161.501"/>
<polygon fill="midnightblue" stroke="midnightblue" points="104.997,-163.392 108.157,-153.279 99.3804,-159.214 104.997,-163.392"/>
</g>
<!-- Node214 -->
<g id="node3" class="node"><title>Node214</title>
<g id="a_node3"><a xlink:href="main__main_8h.html#ab19e6e081315a9a200394b74d10de395" target="_top" xlink:title="correction">
<polygon fill="none" stroke="black" points="188,-342.079 188,-360.079 245,-360.079 245,-342.079 188,-342.079"/>
<text text-anchor="middle" x="216.5" y="-348.879" font-family="Calibri" font-size="9.00">correction</text>
</a>
</g>
</g>
<!-- Node213&#45;&gt;Node214 -->
<g id="edge2" class="edge"><title>Node213&#45;&gt;Node214</title>
<path fill="none" stroke="midnightblue" d="M140.593,-364.767C151.709,-362.736 165.245,-360.263 177.736,-357.98"/>
<polygon fill="midnightblue" stroke="midnightblue" points="178.7,-361.362 187.908,-356.121 177.441,-354.476 178.7,-361.362"/>
</g>
<!-- Node215 -->
<g id="node4" class="node"><title>Node215</title>
<g id="a_node4"><a xlink:href="main__main_8h.html#acfd46f8711e9c1c20fffdfc8bdaa0ddd" target="_top" xlink:title="get_forward">
<polygon fill="none" stroke="black" points="184,-416.079 184,-434.079 249,-434.079 249,-416.079 184,-416.079"/>
<text text-anchor="middle" x="216.5" y="-422.879" font-family="Calibri" font-size="9.00">get_forward</text>
</a>
</g>
</g>
<!-- Node213&#45;&gt;Node215 -->
<g id="edge3" class="edge"><title>Node213&#45;&gt;Node215</title>
<path fill="none" stroke="midnightblue" d="M133.265,-378.326C148.9,-387.215 172.742,-400.77 190.735,-411"/>
<polygon fill="midnightblue" stroke="midnightblue" points="189.114,-414.104 199.537,-416.004 192.574,-408.019 189.114,-414.104"/>
</g>
<!-- Node216 -->
<g id="node5" class="node"><title>Node216</title>
<g id="a_node5"><a xlink:href="main__main_8h.html#aa6b9a2b3d88f578ba6a9fefd911eae75" target="_top" xlink:title="get_reverse">
<polygon fill="none" stroke="black" points="184.5,-379.079 184.5,-397.079 248.5,-397.079 248.5,-379.079 184.5,-379.079"/>
<text text-anchor="middle" x="216.5" y="-385.879" font-family="Calibri" font-size="9.00">get_reverse</text>
</a>
</g>
</g>
<!-- Node213&#45;&gt;Node216 -->
<g id="edge4" class="edge"><title>Node213&#45;&gt;Node216</title>
<path fill="none" stroke="midnightblue" d="M140.593,-373.63C150.718,-375.583 162.849,-377.923 174.371,-380.145"/>
<polygon fill="midnightblue" stroke="midnightblue" points="173.792,-383.598 184.274,-382.056 175.118,-376.725 173.792,-383.598"/>
</g>
<!-- Node218 -->
<g id="node7" class="node"><title>Node218</title>
<g id="a_node7"><a xlink:href="main_8h.html#a9dff326a6079fe726285b11ee837ad60" target="_top" xlink:title="atu_reset">
<polygon fill="none" stroke="black" points="188.5,-59.0789 188.5,-77.0789 244.5,-77.0789 244.5,-59.0789 188.5,-59.0789"/>
<text text-anchor="middle" x="216.5" y="-65.8789" font-family="Calibri" font-size="9.00">atu_reset</text>
</a>
</g>
</g>
<!-- Node217&#45;&gt;Node218 -->
<g id="edge6" class="edge"><title>Node217&#45;&gt;Node218</title>
<path fill="none" stroke="midnightblue" d="M128.686,-135.062C145.2,-122.321 175.585,-98.8763 195.668,-83.3805"/>
<polygon fill="midnightblue" stroke="midnightblue" points="198.05,-85.9637 203.829,-77.0838 193.774,-80.4216 198.05,-85.9637"/>
</g>
<!-- Node221 -->
<g id="node10" class="node"><title>Node221</title>
<g id="a_node10"><a xlink:href="main_8h.html#ae0c1e0ec712704e43db40473f103d621" target="_top" xlink:title="Set the state of the switch. ">
<polygon fill="none" stroke="black" points="194,-117.079 194,-135.079 239,-135.079 239,-117.079 194,-117.079"/>
<text text-anchor="middle" x="216.5" y="-123.879" font-family="Calibri" font-size="9.00">set_sw</text>
</a>
</g>
</g>
<!-- Node217&#45;&gt;Node221 -->
<g id="edge9" class="edge"><title>Node217&#45;&gt;Node221</title>
<path fill="none" stroke="midnightblue" d="M148.166,-138.384C159.558,-136.302 172.45,-133.946 183.881,-131.857"/>
<polygon fill="midnightblue" stroke="midnightblue" points="184.676,-135.27 193.884,-130.029 183.417,-128.384 184.676,-135.27"/>
</g>
<!-- Node222 -->
<g id="node11" class="node"><title>Node222</title>
<g id="a_node11"><a xlink:href="main_8c.html#a6911b3f075cdf1d54cb14f17f6e5ef6b" target="_top" xlink:title="lcd_ind">
<polygon fill="none" stroke="black" points="401,-323.079 401,-341.079 448,-341.079 448,-323.079 401,-323.079"/>
<text text-anchor="middle" x="424.5" y="-329.879" font-family="Calibri" font-size="9.00">lcd_ind</text>
</a>
</g>
</g>
<!-- Node217&#45;&gt;Node222 -->
<g id="edge10" class="edge"><title>Node217&#45;&gt;Node222</title>
<path fill="none" stroke="midnightblue" d="M124.678,-153.352C146.769,-179.424 213.496,-254.015 285,-293.079 318.582,-311.425 361.566,-321.78 390.676,-327.138"/>
<polygon fill="midnightblue" stroke="midnightblue" points="390.277,-330.621 400.73,-328.891 391.48,-323.725 390.277,-330.621"/>
</g>
<!-- Node223 -->
<g id="node12" class="node"><title>Node223</title>
<g id="a_node12"><a xlink:href="oled__control_8c.html#a9d56c6c2e653b24a0caf505492ad818a" target="_top" xlink:title="led_wr_str">
<polygon fill="none" stroke="black" points="493,-210.079 493,-228.079 552,-228.079 552,-210.079 493,-210.079"/>
<text text-anchor="middle" x="522.5" y="-216.879" font-family="Calibri" font-size="9.00">led_wr_str</text>
</a>
</g>
</g>
<!-- Node217&#45;&gt;Node223 -->
<g id="edge23" class="edge"><title>Node217&#45;&gt;Node223</title>
<path fill="none" stroke="midnightblue" d="M121.142,-134.835C130.008,-116.045 152.602,-73.1395 184,-49.0789 246.066,-1.51814 281.761,12.471 356,-12.0789 409.085,-29.6332 421.268,-44.0745 457,-87.0789 486.226,-122.253 506.153,-172.907 515.47,-200.103"/>
<polygon fill="midnightblue" stroke="midnightblue" points="512.249,-201.512 518.713,-209.906 518.895,-199.313 512.249,-201.512"/>
</g>
<!-- Node230 -->
<g id="node19" class="node"><title>Node230</title>
<g id="a_node19"><a xlink:href="main_8c.html#ae5a14b4884e85f47ad8a4a716f13203a" target="_top" xlink:title="lcd_pwr">
<polygon fill="none" stroke="black" points="192.5,-154.079 192.5,-172.079 240.5,-172.079 240.5,-154.079 192.5,-154.079"/>
<text text-anchor="middle" x="216.5" y="-160.879" font-family="Calibri" font-size="9.00">lcd_pwr</text>
</a>
</g>
</g>
<!-- Node217&#45;&gt;Node230 -->
<g id="edge24" class="edge"><title>Node217&#45;&gt;Node230</title>
<path fill="none" stroke="midnightblue" d="M148.166,-150.091C159.015,-152.183 171.223,-154.538 182.236,-156.662"/>
<polygon fill="midnightblue" stroke="midnightblue" points="181.862,-160.155 192.344,-158.612 183.188,-153.282 181.862,-160.155"/>
</g>
<!-- Node219 -->
<g id="node8" class="node"><title>Node219</title>
<g id="a_node8"><a xlink:href="main_8h.html#a2a7963b9b09696c6654b96c67900c6ea" target="_top" xlink:title="set_cap">
<polygon fill="none" stroke="black" points="296.5,-22.0789 296.5,-40.0789 344.5,-40.0789 344.5,-22.0789 296.5,-22.0789"/>
<text text-anchor="middle" x="320.5" y="-28.8789" font-family="Calibri" font-size="9.00">set_cap</text>
</a>
</g>
</g>
<!-- Node218&#45;&gt;Node219 -->
<g id="edge7" class="edge"><title>Node218&#45;&gt;Node219</title>
<path fill="none" stroke="midnightblue" d="M242.452,-59.0277C255.774,-54.1953 272.337,-48.1871 286.689,-42.9811"/>
<polygon fill="midnightblue" stroke="midnightblue" points="287.997,-46.2297 296.204,-39.5294 285.61,-39.6493 287.997,-46.2297"/>
</g>
<!-- Node220 -->
<g id="node9" class="node"><title>Node220</title>
<g id="a_node9"><a xlink:href="main_8h.html#aecc83cd8bceb4bc24be844732ead2c2c" target="_top" xlink:title="set_ind">
<polygon fill="none" stroke="black" points="297,-59.0789 297,-77.0789 344,-77.0789 344,-59.0789 297,-59.0789"/>
<text text-anchor="middle" x="320.5" y="-65.8789" font-family="Calibri" font-size="9.00">set_ind</text>
</a>
</g>
</g>
<!-- Node218&#45;&gt;Node220 -->
<g id="edge8" class="edge"><title>Node218&#45;&gt;Node220</title>
<path fill="none" stroke="midnightblue" d="M244.566,-68.0789C257.42,-68.0789 272.896,-68.0789 286.438,-68.0789"/>
<polygon fill="midnightblue" stroke="midnightblue" points="286.798,-71.579 296.798,-68.0789 286.798,-64.579 286.798,-71.579"/>
</g>
<!-- Node222&#45;&gt;Node223 -->
<g id="edge11" class="edge"><title>Node222&#45;&gt;Node223</title>
<path fill="none" stroke="midnightblue" d="M439.082,-323.071C444.919,-318.871 451.621,-313.589 457,-308.079 478.682,-285.871 498.849,-255.956 510.674,-237.092"/>
<polygon fill="midnightblue" stroke="midnightblue" points="513.803,-238.686 516.061,-228.334 507.841,-235.018 513.803,-238.686"/>
</g>
<!-- Node224 -->
<g id="node13" class="node"><title>Node224</title>
<g id="a_node13"><a xlink:href="oled__control_8c.html#a7c3a2e5f1fed76dc27692132a2574d27" target="_top" xlink:title="oled_wr_str">
<polygon fill="none" stroke="black" points="588,-286.079 588,-304.079 653,-304.079 653,-286.079 588,-286.079"/>
<text text-anchor="middle" x="620.5" y="-292.879" font-family="Calibri" font-size="9.00">oled_wr_str</text>
</a>
</g>
</g>
<!-- Node223&#45;&gt;Node224 -->
<g id="edge12" class="edge"><title>Node223&#45;&gt;Node224</title>
<path fill="none" stroke="midnightblue" d="M533.17,-228.288C545.461,-239.799 567.546,-259.839 588,-275.079 590.386,-276.857 592.93,-278.641 595.499,-280.371"/>
<polygon fill="midnightblue" stroke="midnightblue" points="593.836,-283.464 604.132,-285.962 597.641,-277.588 593.836,-283.464"/>
</g>
<!-- Node229 -->
<g id="node18" class="node"><title>Node229</title>
<g id="a_node18"><a xlink:href="oled__control_8c.html#ad25764a33e482f4e9db2701198e02551" target="_top" xlink:title="led_send">
<polygon fill="none" stroke="black" points="702,-211.079 702,-229.079 757,-229.079 757,-211.079 702,-211.079"/>
<text text-anchor="middle" x="729.5" y="-217.879" font-family="Calibri" font-size="9.00">led_send</text>
</a>
</g>
</g>
<!-- Node223&#45;&gt;Node229 -->
<g id="edge19" class="edge"><title>Node223&#45;&gt;Node229</title>
<path fill="none" stroke="midnightblue" d="M552.004,-219.218C588.462,-219.396 651.664,-219.704 691.717,-219.899"/>
<polygon fill="midnightblue" stroke="midnightblue" points="691.847,-223.4 701.864,-219.949 691.881,-216.4 691.847,-223.4"/>
</g>
<!-- Node225 -->
<g id="node14" class="node"><title>Node225</title>
<g id="a_node14"><a xlink:href="oled__control_8c.html#ab7f6b5c6c1483f6286f2de5786c028d9" target="_top" xlink:title="Soft_I2C_Start">
<polygon fill="none" stroke="black" points="808,-314.079 808,-332.079 880,-332.079 880,-314.079 808,-314.079"/>
<text text-anchor="middle" x="844" y="-320.879" font-family="Calibri" font-size="9.00">Soft_I2C_Start</text>
</a>
</g>
</g>
<!-- Node224&#45;&gt;Node225 -->
<g id="edge13" class="edge"><title>Node224&#45;&gt;Node225</title>
<path fill="none" stroke="midnightblue" d="M628.998,-304.496C640.321,-317.87 663.219,-341.777 689,-351.079 731.671,-366.475 784.175,-349.886 815.543,-336.479"/>
<polygon fill="midnightblue" stroke="midnightblue" points="817.241,-339.555 824.946,-332.283 814.388,-333.162 817.241,-339.555"/>
</g>
<!-- Node226 -->
<g id="node15" class="node"><title>Node226</title>
<g id="a_node15"><a xlink:href="oled__control_8c.html#a73610916645f17c19124e697b005f694" target="_top" xlink:title="Soft_I2C_Write">
<polygon fill="none" stroke="black" points="806,-258.079 806,-276.079 882,-276.079 882,-258.079 806,-258.079"/>
<text text-anchor="middle" x="844" y="-264.879" font-family="Calibri" font-size="9.00">Soft_I2C_Write</text>
</a>
</g>
</g>
<!-- Node224&#45;&gt;Node226 -->
<g id="edge14" class="edge"><title>Node224&#45;&gt;Node226</title>
<path fill="none" stroke="midnightblue" d="M653.236,-291.067C690.556,-286.349 752.856,-278.474 795.834,-273.041"/>
<polygon fill="midnightblue" stroke="midnightblue" points="796.294,-276.511 805.776,-271.784 795.416,-269.566 796.294,-276.511"/>
</g>
<!-- Node227 -->
<g id="node16" class="node"><title>Node227</title>
<g id="a_node16"><a xlink:href="oled__control_8c.html#a6df77e8ec83c50ed6a5ddaf54aa3a9c2" target="_top" xlink:title="set_addressing">
<polygon fill="none" stroke="black" points="689.5,-324.079 689.5,-342.079 769.5,-342.079 769.5,-324.079 689.5,-324.079"/>
<text text-anchor="middle" x="729.5" y="-330.879" font-family="Calibri" font-size="9.00">set_addressing</text>
</a>
</g>
</g>
<!-- Node224&#45;&gt;Node227 -->
<g id="edge15" class="edge"><title>Node224&#45;&gt;Node227</title>
<path fill="none" stroke="midnightblue" d="M646.858,-304.084C660.748,-309.017 678.177,-315.207 693.36,-320.599"/>
<polygon fill="midnightblue" stroke="midnightblue" points="692.359,-323.958 702.954,-324.006 694.702,-317.362 692.359,-323.958"/>
</g>
<!-- Node228 -->
<g id="node17" class="node"><title>Node228</title>
<g id="a_node17"><a xlink:href="oled__control_8c.html#a16eb842aa672ca44820ae6d5f9933425" target="_top" xlink:title="Soft_I2C_Stop">
<polygon fill="none" stroke="black" points="808.5,-211.079 808.5,-229.079 879.5,-229.079 879.5,-211.079 808.5,-211.079"/>
<text text-anchor="middle" x="844" y="-217.879" font-family="Calibri" font-size="9.00">Soft_I2C_Stop</text>
</a>
</g>
</g>
<!-- Node224&#45;&gt;Node228 -->
<g id="edge18" class="edge"><title>Node224&#45;&gt;Node228</title>
<path fill="none" stroke="midnightblue" d="M639.487,-286.038C644.294,-283.023 649.203,-279.331 653,-275.079 677.361,-247.799 657.993,-220.476 689,-201.079 727.704,-176.867 782.652,-193.037 815.376,-206.735"/>
<polygon fill="midnightblue" stroke="midnightblue" points="814.212,-210.047 824.776,-210.859 817.025,-203.636 814.212,-210.047"/>
</g>
<!-- Node227&#45;&gt;Node225 -->
<g id="edge16" class="edge"><title>Node227&#45;&gt;Node225</title>
<path fill="none" stroke="midnightblue" d="M769.531,-329.609C778.569,-328.806 788.262,-327.944 797.548,-327.119"/>
<polygon fill="midnightblue" stroke="midnightblue" points="798.151,-330.579 807.802,-326.208 797.531,-323.607 798.151,-330.579"/>
</g>
<!-- Node227&#45;&gt;Node226 -->
<g id="edge17" class="edge"><title>Node227&#45;&gt;Node226</title>
<path fill="none" stroke="midnightblue" d="M746.143,-323.902C764.949,-312.869 796.724,-294.228 818.726,-281.32"/>
<polygon fill="midnightblue" stroke="midnightblue" points="820.636,-284.257 827.49,-276.178 817.094,-278.219 820.636,-284.257"/>
</g>
<!-- Node229&#45;&gt;Node225 -->
<g id="edge20" class="edge"><title>Node229&#45;&gt;Node225</title>
<path fill="none" stroke="midnightblue" d="M755.391,-229.17C760.496,-231.636 765.637,-234.605 770,-238.079 790.585,-254.467 788.792,-265.174 806,-285.079 812.406,-292.489 819.877,-300.302 826.421,-306.904"/>
<polygon fill="midnightblue" stroke="midnightblue" points="824,-309.432 833.559,-314 828.935,-304.468 824,-309.432"/>
</g>
<!-- Node229&#45;&gt;Node226 -->
<g id="edge21" class="edge"><title>Node229&#45;&gt;Node226</title>
<path fill="none" stroke="midnightblue" d="M752.191,-229.141C769.155,-236.228 792.966,-246.176 811.95,-254.107"/>
<polygon fill="midnightblue" stroke="midnightblue" points="810.799,-257.419 821.375,-258.045 813.498,-250.96 810.799,-257.419"/>
</g>
<!-- Node229&#45;&gt;Node228 -->
<g id="edge22" class="edge"><title>Node229&#45;&gt;Node228</title>
<path fill="none" stroke="midnightblue" d="M757.161,-220.079C769.381,-220.079 784.204,-220.079 798.071,-220.079"/>
<polygon fill="midnightblue" stroke="midnightblue" points="798.429,-223.579 808.429,-220.079 798.429,-216.579 798.429,-223.579"/>
</g>
<!-- Node230&#45;&gt;Node219 -->
<g id="edge30" class="edge"><title>Node230&#45;&gt;Node219</title>
<path fill="none" stroke="midnightblue" d="M237.054,-154.049C241.424,-151.33 245.728,-148.003 249,-144.079 277.92,-109.404 255.022,-82.8433 285,-49.0789 285.883,-48.0843 286.834,-47.1362 287.838,-46.2334"/>
<polygon fill="midnightblue" stroke="midnightblue" points="290.205,-48.8432 296.3,-40.177 286.131,-43.1509 290.205,-48.8432"/>
</g>
<!-- Node230&#45;&gt;Node220 -->
<g id="edge29" class="edge"><title>Node230&#45;&gt;Node220</title>
<path fill="none" stroke="midnightblue" d="M235.427,-154.045C240.128,-151.217 244.996,-147.839 249,-144.079 269.49,-124.836 265.146,-111.977 285,-92.0789 288.131,-88.9411 291.718,-85.941 295.37,-83.19"/>
<polygon fill="midnightblue" stroke="midnightblue" points="297.635,-85.8768 303.821,-77.2752 293.621,-80.1419 297.635,-85.8768"/>
</g>
<!-- Node230&#45;&gt;Node223 -->
<g id="edge43" class="edge"><title>Node230&#45;&gt;Node223</title>
<path fill="none" stroke="midnightblue" d="M240.557,-157.909C284.381,-149.184 382.019,-135.071 457,-163.079 477.708,-170.814 496.169,-188.528 507.978,-201.977"/>
<polygon fill="midnightblue" stroke="midnightblue" points="505.325,-204.26 514.433,-209.672 510.688,-199.761 505.325,-204.26"/>
</g>
<!-- Node231 -->
<g id="node20" class="node"><title>Node231</title>
<g id="a_node20"><a xlink:href="main_8h.html#ab37ca657b79c6b9176cb63e9d812a182" target="_top" xlink:title="get_pwr">
<polygon fill="none" stroke="black" points="296,-210.079 296,-228.079 345,-228.079 345,-210.079 296,-210.079"/>
<text text-anchor="middle" x="320.5" y="-216.879" font-family="Calibri" font-size="9.00">get_pwr</text>
</a>
</g>
</g>
<!-- Node230&#45;&gt;Node231 -->
<g id="edge25" class="edge"><title>Node230&#45;&gt;Node231</title>
<path fill="none" stroke="midnightblue" d="M234.343,-172.326C250.608,-181.256 275.449,-194.894 294.112,-205.14"/>
<polygon fill="midnightblue" stroke="midnightblue" points="292.52,-208.259 302.97,-210.004 295.889,-202.123 292.52,-208.259"/>
</g>
<!-- Node235 -->
<g id="node24" class="node"><title>Node235</title>
<g id="a_node24"><a xlink:href="oled__control_8c.html#a2c663a2db505aa3f2271f6cf4bae1521" target="_top" xlink:title="dysp_on">
<polygon fill="none" stroke="black" points="595.5,-248.079 595.5,-266.079 645.5,-266.079 645.5,-248.079 595.5,-248.079"/>
<text text-anchor="middle" x="620.5" y="-254.879" font-family="Calibri" font-size="9.00">dysp_on</text>
</a>
</g>
</g>
<!-- Node230&#45;&gt;Node235 -->
<g id="edge31" class="edge"><title>Node230&#45;&gt;Node235</title>
<path fill="none" stroke="midnightblue" d="M220.104,-172.089C227.106,-194.951 248.332,-256.022 285,-293.079 322.899,-331.38 339.723,-337.023 392,-350.079 420.028,-357.079 429.081,-357.503 457,-350.079 464.536,-348.075 552.101,-296.808 595.467,-271.267"/>
<polygon fill="midnightblue" stroke="midnightblue" points="597.413,-274.183 604.251,-266.09 593.858,-268.153 597.413,-274.183"/>
</g>
<!-- Node237 -->
<g id="node26" class="node"><title>Node237</title>
<g id="a_node26"><a xlink:href="main_8c.html#a593218c5fe00b499d494826fc0aa5279" target="_top" xlink:title="button_delay">
<polygon fill="none" stroke="black" points="285,-173.079 285,-191.079 356,-191.079 356,-173.079 285,-173.079"/>
<text text-anchor="middle" x="320.5" y="-179.879" font-family="Calibri" font-size="9.00">button_delay</text>
</a>
</g>
</g>
<!-- Node230&#45;&gt;Node237 -->
<g id="edge37" class="edge"><title>Node230&#45;&gt;Node237</title>
<path fill="none" stroke="midnightblue" d="M240.645,-167.39C250.738,-169.27 262.929,-171.541 274.677,-173.73"/>
<polygon fill="midnightblue" stroke="midnightblue" points="274.351,-177.229 284.823,-175.619 275.633,-170.347 274.351,-177.229"/>
</g>
<!-- Node238 -->
<g id="node27" class="node"><title>Node238</title>
<g id="a_node27"><a xlink:href="main_8c.html#aa8fd50019a763561abc6621bb224417f" target="_top" xlink:title="lcd_swr">
<polygon fill="none" stroke="black" points="401,-97.0789 401,-115.079 448,-115.079 448,-97.0789 401,-97.0789"/>
<text text-anchor="middle" x="424.5" y="-103.879" font-family="Calibri" font-size="9.00">lcd_swr</text>
</a>
</g>
</g>
<!-- Node230&#45;&gt;Node238 -->
<g id="edge38" class="edge"><title>Node230&#45;&gt;Node238</title>
<path fill="none" stroke="midnightblue" d="M232.794,-154.041C246.144,-146.538 266.261,-136.147 285,-130.079 320.203,-118.68 362.293,-112.365 390.762,-109.11"/>
<polygon fill="midnightblue" stroke="midnightblue" points="391.397,-112.562 400.963,-108.008 390.645,-105.602 391.397,-112.562"/>
</g>
<!-- Node239 -->
<g id="node28" class="node"><title>Node239</title>
<g id="a_node28"><a xlink:href="main_8c.html#a4ae0d4fa97fc0ca3611813fee4f9af7c" target="_top" xlink:title="show_pwr">
<polygon fill="none" stroke="black" points="291.5,-266.079 291.5,-284.079 349.5,-284.079 349.5,-266.079 291.5,-266.079"/>
<text text-anchor="middle" x="320.5" y="-272.879" font-family="Calibri" font-size="9.00">show_pwr</text>
</a>
</g>
</g>
<!-- Node230&#45;&gt;Node239 -->
<g id="edge40" class="edge"><title>Node230&#45;&gt;Node239</title>
<path fill="none" stroke="midnightblue" d="M225.847,-172.244C242.957,-191.031 282.231,-234.156 304.095,-258.163"/>
<polygon fill="midnightblue" stroke="midnightblue" points="301.717,-260.75 311.038,-265.787 306.892,-256.037 301.717,-260.75"/>
</g>
<!-- Node232 -->
<g id="node21" class="node"><title>Node232</title>
<g id="a_node21"><a xlink:href="main_8h.html#ab19e6e081315a9a200394b74d10de395" target="_top" xlink:title="correction">
<polygon fill="none" stroke="black" points="396,-247.079 396,-265.079 453,-265.079 453,-247.079 396,-247.079"/>
<text text-anchor="middle" x="424.5" y="-253.879" font-family="Calibri" font-size="9.00">correction</text>
</a>
</g>
</g>
<!-- Node231&#45;&gt;Node232 -->
<g id="edge26" class="edge"><title>Node231&#45;&gt;Node232</title>
<path fill="none" stroke="midnightblue" d="M345.157,-227.66C358.163,-232.378 374.538,-238.318 388.95,-243.546"/>
<polygon fill="midnightblue" stroke="midnightblue" points="387.954,-246.908 398.548,-247.028 390.341,-240.327 387.954,-246.908"/>
</g>
<!-- Node233 -->
<g id="node22" class="node"><title>Node233</title>
<g id="a_node22"><a xlink:href="main_8h.html#acfd46f8711e9c1c20fffdfc8bdaa0ddd" target="_top" xlink:title="get_forward">
<polygon fill="none" stroke="black" points="392,-210.079 392,-228.079 457,-228.079 457,-210.079 392,-210.079"/>
<text text-anchor="middle" x="424.5" y="-216.879" font-family="Calibri" font-size="9.00">get_forward</text>
</a>
</g>
</g>
<!-- Node231&#45;&gt;Node233 -->
<g id="edge27" class="edge"><title>Node231&#45;&gt;Node233</title>
<path fill="none" stroke="midnightblue" d="M345.157,-219.079C356.008,-219.079 369.203,-219.079 381.647,-219.079"/>
<polygon fill="midnightblue" stroke="midnightblue" points="381.855,-222.579 391.855,-219.079 381.855,-215.579 381.855,-222.579"/>
</g>
<!-- Node234 -->
<g id="node23" class="node"><title>Node234</title>
<g id="a_node23"><a xlink:href="main_8h.html#aa6b9a2b3d88f578ba6a9fefd911eae75" target="_top" xlink:title="get_reverse">
<polygon fill="none" stroke="black" points="392.5,-173.079 392.5,-191.079 456.5,-191.079 456.5,-173.079 392.5,-173.079"/>
<text text-anchor="middle" x="424.5" y="-179.879" font-family="Calibri" font-size="9.00">get_reverse</text>
</a>
</g>
</g>
<!-- Node231&#45;&gt;Node234 -->
<g id="edge28" class="edge"><title>Node231&#45;&gt;Node234</title>
<path fill="none" stroke="midnightblue" d="M345.157,-210.497C358.163,-205.779 374.538,-199.84 388.95,-194.612"/>
<polygon fill="midnightblue" stroke="midnightblue" points="390.341,-197.83 398.548,-191.13 387.954,-191.25 390.341,-197.83"/>
</g>
<!-- Node235&#45;&gt;Node229 -->
<g id="edge36" class="edge"><title>Node235&#45;&gt;Node229</title>
<path fill="none" stroke="midnightblue" d="M645.513,-248.775C659.362,-243.986 677.045,-237.872 692.526,-232.518"/>
<polygon fill="midnightblue" stroke="midnightblue" points="694.012,-235.708 702.32,-229.132 691.725,-229.092 694.012,-235.708"/>
</g>
<!-- Node236 -->
<g id="node25" class="node"><title>Node236</title>
<g id="a_node25"><a xlink:href="oled__control_8c.html#ad141ed038278a6fcad6c307932f01ec8" target="_top" xlink:title="send_command">
<polygon fill="none" stroke="black" points="689,-248.079 689,-266.079 770,-266.079 770,-248.079 689,-248.079"/>
<text text-anchor="middle" x="729.5" y="-254.879" font-family="Calibri" font-size="9.00">send_command</text>
</a>
</g>
</g>
<!-- Node235&#45;&gt;Node236 -->
<g id="edge32" class="edge"><title>Node235&#45;&gt;Node236</title>
<path fill="none" stroke="midnightblue" d="M645.513,-257.079C655.33,-257.079 667.073,-257.079 678.594,-257.079"/>
<polygon fill="midnightblue" stroke="midnightblue" points="678.606,-260.579 688.606,-257.079 678.606,-253.579 678.606,-260.579"/>
</g>
<!-- Node236&#45;&gt;Node225 -->
<g id="edge33" class="edge"><title>Node236&#45;&gt;Node225</title>
<path fill="none" stroke="midnightblue" d="M746.143,-266.256C764.949,-277.289 796.724,-295.93 818.726,-308.838"/>
<polygon fill="midnightblue" stroke="midnightblue" points="817.094,-311.938 827.49,-313.98 820.636,-305.901 817.094,-311.938"/>
</g>
<!-- Node236&#45;&gt;Node226 -->
<g id="edge34" class="edge"><title>Node236&#45;&gt;Node226</title>
<path fill="none" stroke="midnightblue" d="M770.163,-260.605C778.439,-261.34 787.24,-262.122 795.758,-262.88"/>
<polygon fill="midnightblue" stroke="midnightblue" points="795.683,-266.387 805.954,-263.786 796.303,-259.414 795.683,-266.387"/>
</g>
<!-- Node236&#45;&gt;Node228 -->
<g id="edge35" class="edge"><title>Node236&#45;&gt;Node228</title>
<path fill="none" stroke="midnightblue" d="M758.021,-248.028C772.321,-243.324 790.009,-237.507 805.538,-232.4"/>
<polygon fill="midnightblue" stroke="midnightblue" points="806.968,-235.614 815.374,-229.165 804.781,-228.964 806.968,-235.614"/>
</g>
<!-- Node238&#45;&gt;Node223 -->
<g id="edge39" class="edge"><title>Node238&#45;&gt;Node223</title>
<path fill="none" stroke="midnightblue" d="M439.082,-115.087C444.919,-119.287 451.621,-124.569 457,-130.079 478.682,-152.287 498.849,-182.201 510.674,-201.065"/>
<polygon fill="midnightblue" stroke="midnightblue" points="507.841,-203.139 516.061,-209.823 513.803,-199.472 507.841,-203.139"/>
</g>
<!-- Node239&#45;&gt;Node222 -->
<g id="edge42" class="edge"><title>Node239&#45;&gt;Node222</title>
<path fill="none" stroke="midnightblue" d="M337.888,-284.237C354.171,-293.336 379.367,-307.417 398.216,-317.95"/>
<polygon fill="midnightblue" stroke="midnightblue" points="396.716,-321.121 407.153,-322.944 400.131,-315.01 396.716,-321.121"/>
</g>
<!-- Node239&#45;&gt;Node223 -->
<g id="edge41" class="edge"><title>Node239&#45;&gt;Node223</title>
<path fill="none" stroke="midnightblue" d="M349.758,-280.345C377.893,-284.346 421.84,-287.182 457,-274.079 477.362,-266.491 495.692,-249.359 507.561,-236.217"/>
<polygon fill="midnightblue" stroke="midnightblue" points="510.509,-238.158 514.384,-228.297 505.206,-233.589 510.509,-238.158"/>
</g>
</g>
</svg>
        <g id="navigator" transform="translate(0 0)" fill="#404254">
                <rect fill="#f2f5e9" fill-opacity="0.5" stroke="#606060" stroke-width=".5" x="0" y="0" width="60" height="60"/>
                <use id="zoomplus" xlink:href="#zoomPlus" x="17" y="9" onmousedown="handleZoom(evt,'in')"/>
                <use id="zoomminus" xlink:href="#zoomMin" x="42" y="9" onmousedown="handleZoom(evt,'out')"/>
                <use id="reset" xlink:href="#resetDef" x="30" y="36" onmousedown="handleReset()"/>
                <g id="arrowUp" xlink:href="#dirArrow" transform="translate(30 24)" onmousedown="handlePan(0,-1)">
                  <use xlink:href="#rim" fill="#404040">
                        <set attributeName="fill" to="#808080" begin="arrowUp.mouseover" end="arrowUp.mouseout"/>
                  </use>
                  <path fill="none" stroke="white" stroke-width="1.5" d="M0,-3.0v7 M-2.5,-0.5L0,-3.0L2.5,-0.5"/>
                </g>
                <g id="arrowRight" xlink:href="#dirArrow" transform="rotate(90) translate(36 -43)" onmousedown="handlePan(1,0)">
                  <use xlink:href="#rim" fill="#404040">
                        <set attributeName="fill" to="#808080" begin="arrowRight.mouseover" end="arrowRight.mouseout"/>
                  </use>
                  <path fill="none" stroke="white" stroke-width="1.5" d="M0,-3.0v7 M-2.5,-0.5L0,-3.0L2.5,-0.5"/>
                </g>
                <g id="arrowDown" xlink:href="#dirArrow" transform="rotate(180) translate(-30 -48)" onmousedown="handlePan(0,1)">
                  <use xlink:href="#rim" fill="#404040">
                        <set attributeName="fill" to="#808080" begin="arrowDown.mouseover" end="arrowDown.mouseout"/>
                  </use>
                  <path fill="none" stroke="white" stroke-width="1.5" d="M0,-3.0v7 M-2.5,-0.5L0,-3.0L2.5,-0.5"/>
                </g>
                <g id="arrowLeft" xlink:href="#dirArrow" transform="rotate(270) translate(-36 17)" onmousedown="handlePan(-1,0)">
                  <use xlink:href="#rim" fill="#404040">
                        <set attributeName="fill" to="#808080" begin="arrowLeft.mouseover" end="arrowLeft.mouseout"/>
                  </use>
                  <path fill="none" stroke="white" stroke-width="1.5" d="M0,-3.0v7 M-2.5,-0.5L0,-3.0L2.5,-0.5"/>
                </g>
        </g>
        <svg viewBox="0 0 15 15" width="100%" height="30px" preserveAspectRatio="xMaxYMin meet">
         <g id="arrow_out" transform="scale(0.3 0.3)">
          <a xlink:href="main__main_8h_a6c26e075660bdd7a54df984ec3fc7ff4_cgraph_org.svg" target="_base">
           <rect id="button" ry="5" rx="5" y="6" x="6" height="38" width="38"
                fill="#f2f5e9" fill-opacity="0.5" stroke="#606060" stroke-width="1.0"/>
           <path id="arrow"
             d="M 11.500037,31.436501 C 11.940474,20.09759 22.043105,11.32322 32.158766,21.979434 L 37.068811,17.246167 C 37.068811,17.246167 37.088388,32 37.088388,32 L 22.160133,31.978069 C 22.160133,31.978069 26.997745,27.140456 26.997745,27.140456 C 18.528582,18.264221 13.291696,25.230495 11.500037,31.436501 z"
             style="fill:#404040;"/>
          </a>
         </g>
        </svg>
</svg>
