<?xml version="1.0" encoding="UTF-8" standalone="no"?>
<!DOCTYPE svg PUBLIC "-//W3C//DTD SVG 1.1//EN"
 "http://www.w3.org/Graphics/SVG/1.1/DTD/svg11.dtd">
<!-- Generated by graphviz version 2.38.0 (20140413.2041)
 -->
<!-- Title: send_command Pages: 1 -->
<svg width="201pt" height="101pt"
 viewBox="0.00 0.00 201.00 101.00" xmlns="http://www.w3.org/2000/svg" xmlns:xlink="http://www.w3.org/1999/xlink">
<g id="graph0" class="graph" transform="scale(1 1) rotate(0) translate(4 97)">
<title>send_command</title>
<!-- Node1 -->
<g id="node1" class="node"><title>Node1</title>
<g id="a_node1"><a xlink:title=" ">
<polygon fill="#bfbfbf" stroke="black" points="0,-37.5 0,-55.5 81,-55.5 81,-37.5 0,-37.5"/>
<text text-anchor="middle" x="40.5" y="-44.3" font-family="Calibri" font-size="9.00">send_command</text>
</a>
</g>
</g>
<!-- Node2 -->
<g id="node2" class="node"><title>Node2</title>
<g id="a_node2"><a xlink:href="oled__control_8c.html#ab7f6b5c6c1483f6286f2de5786c028d9" target="_top" xlink:title=" ">
<polygon fill="none" stroke="black" points="119,-74.5 119,-92.5 191,-92.5 191,-74.5 119,-74.5"/>
<text text-anchor="middle" x="155" y="-81.3" font-family="Calibri" font-size="9.00">Soft_I2C_Start</text>
</a>
</g>
</g>
<!-- Node1&#45;&gt;Node2 -->
<g id="edge1" class="edge"><title>Node1&#45;&gt;Node2</title>
<path fill="none" stroke="midnightblue" d="M69.0206,-55.5512C83.3214,-60.2546 101.009,-66.0718 116.538,-71.1791"/>
<polygon fill="midnightblue" stroke="midnightblue" points="115.781,-74.6145 126.374,-74.414 117.968,-67.9649 115.781,-74.6145"/>
</g>
<!-- Node3 -->
<g id="node3" class="node"><title>Node3</title>
<g id="a_node3"><a xlink:href="oled__control_8c.html#a16eb842aa672ca44820ae6d5f9933425" target="_top" xlink:title=" ">
<polygon fill="none" stroke="black" points="119.5,-37.5 119.5,-55.5 190.5,-55.5 190.5,-37.5 119.5,-37.5"/>
<text text-anchor="middle" x="155" y="-44.3" font-family="Calibri" font-size="9.00">Soft_I2C_Stop</text>
</a>
</g>
</g>
<!-- Node1&#45;&gt;Node3 -->
<g id="edge2" class="edge"><title>Node1&#45;&gt;Node3</title>
<path fill="none" stroke="midnightblue" d="M81.1633,-46.5C90.172,-46.5 99.8041,-46.5 109.016,-46.5"/>
<polygon fill="midnightblue" stroke="midnightblue" points="109.182,-50.0001 119.182,-46.5 109.182,-43.0001 109.182,-50.0001"/>
</g>
<!-- Node4 -->
<g id="node4" class="node"><title>Node4</title>
<g id="a_node4"><a xlink:href="oled__control_8c.html#a73610916645f17c19124e697b005f694" target="_top" xlink:title=" ">
<polygon fill="none" stroke="black" points="117,-0.5 117,-18.5 193,-18.5 193,-0.5 117,-0.5"/>
<text text-anchor="middle" x="155" y="-7.3" font-family="Calibri" font-size="9.00">Soft_I2C_Write</text>
</a>
</g>
</g>
<!-- Node1&#45;&gt;Node4 -->
<g id="edge3" class="edge"><title>Node1&#45;&gt;Node4</title>
<path fill="none" stroke="midnightblue" d="M69.0206,-37.4488C83.3214,-32.7454 101.009,-26.9282 116.538,-21.8209"/>
<polygon fill="midnightblue" stroke="midnightblue" points="117.968,-25.0351 126.374,-18.586 115.781,-18.3855 117.968,-25.0351"/>
</g>
</g>
</svg>
