<?xml version="1.0" encoding="UTF-8" standalone="no"?>
<!DOCTYPE svg PUBLIC "-//W3C//DTD SVG 1.1//EN"
 "http://www.w3.org/Graphics/SVG/1.1/DTD/svg11.dtd">
<!-- Generated by graphviz version 2.38.0 (20140413.2041)
 -->
<!-- Title: led_send Pages: 1 -->
<svg width="175pt" height="101pt"
 viewBox="0.00 0.00 175.00 101.00" xmlns="http://www.w3.org/2000/svg" xmlns:xlink="http://www.w3.org/1999/xlink">
<g id="graph0" class="graph" transform="scale(1 1) rotate(0) translate(4 97)">
<title>led_send</title>
<!-- Node1 -->
<g id="node1" class="node"><title>Node1</title>
<g id="a_node1"><a xlink:title=" ">
<polygon fill="#bfbfbf" stroke="black" points="0,-37.5 0,-55.5 55,-55.5 55,-37.5 0,-37.5"/>
<text text-anchor="middle" x="27.5" y="-44.3" font-family="Calibri" font-size="9.00">led_send</text>
</a>
</g>
</g>
<!-- Node2 -->
<g id="node2" class="node"><title>Node2</title>
<g id="a_node2"><a xlink:href="oled__control_8c.html#ab7f6b5c6c1483f6286f2de5786c028d9" target="_top" xlink:title=" ">
<polygon fill="none" stroke="black" points="93,-74.5 93,-92.5 165,-92.5 165,-74.5 93,-74.5"/>
<text text-anchor="middle" x="129" y="-81.3" font-family="Calibri" font-size="9.00">Soft_I2C_Start</text>
</a>
</g>
</g>
<!-- Node1&#45;&gt;Node2 -->
<g id="edge1" class="edge"><title>Node1&#45;&gt;Node2</title>
<path fill="none" stroke="midnightblue" d="M52.8404,-55.5512C65.2478,-60.165 80.5373,-65.8506 94.0799,-70.8865"/>
<polygon fill="midnightblue" stroke="midnightblue" points="92.9731,-74.209 103.566,-74.414 95.413,-67.648 92.9731,-74.209"/>
</g>
<!-- Node3 -->
<g id="node3" class="node"><title>Node3</title>
<g id="a_node3"><a xlink:href="oled__control_8c.html#a16eb842aa672ca44820ae6d5f9933425" target="_top" xlink:title=" ">
<polygon fill="none" stroke="black" points="93.5,-37.5 93.5,-55.5 164.5,-55.5 164.5,-37.5 93.5,-37.5"/>
<text text-anchor="middle" x="129" y="-44.3" font-family="Calibri" font-size="9.00">Soft_I2C_Stop</text>
</a>
</g>
</g>
<!-- Node1&#45;&gt;Node3 -->
<g id="edge2" class="edge"><title>Node1&#45;&gt;Node3</title>
<path fill="none" stroke="midnightblue" d="M55.1642,-46.5C63.7881,-46.5 73.6012,-46.5 83.1692,-46.5"/>
<polygon fill="midnightblue" stroke="midnightblue" points="83.3874,-50.0001 93.3874,-46.5 83.3874,-43.0001 83.3874,-50.0001"/>
</g>
<!-- Node4 -->
<g id="node4" class="node"><title>Node4</title>
<g id="a_node4"><a xlink:href="oled__control_8c.html#a73610916645f17c19124e697b005f694" target="_top" xlink:title=" ">
<polygon fill="none" stroke="black" points="91,-0.5 91,-18.5 167,-18.5 167,-0.5 91,-0.5"/>
<text text-anchor="middle" x="129" y="-7.3" font-family="Calibri" font-size="9.00">Soft_I2C_Write</text>
</a>
</g>
</g>
<!-- Node1&#45;&gt;Node4 -->
<g id="edge3" class="edge"><title>Node1&#45;&gt;Node4</title>
<path fill="none" stroke="midnightblue" d="M52.8404,-37.4488C65.2478,-32.835 80.5373,-27.1494 94.0799,-22.1135"/>
<polygon fill="midnightblue" stroke="midnightblue" points="95.413,-25.352 103.566,-18.586 92.9731,-18.791 95.413,-25.352"/>
</g>
</g>
</svg>
