<?xml version="1.0" encoding="UTF-8" standalone="no"?>
<!DOCTYPE svg PUBLIC "-//W3C//DTD SVG 1.1//EN"
 "http://www.w3.org/Graphics/SVG/1.1/DTD/svg11.dtd">
<!-- Generated by graphviz version 2.38.0 (20140413.2041)
 -->
<!-- Title: Soft_I2C_Write Pages: 1 -->
<!--zoomable 489 -->
<svg id="main" version="1.1" xmlns="http://www.w3.org/2000/svg" xmlns:xlink="http://www.w3.org/1999/xlink" xml:space="preserve" onload="init(evt)">
<style type="text/css"><![CDATA[
.edge:hover path { stroke: red; }
.edge:hover polygon { stroke: red; fill: red; }
]]></style>
<script type="text/javascript"><![CDATA[
var edges = document.getElementsByTagName('g');
if (edges && edges.length) {
  for (var i=0;i<edges.length;i++) {
    if (edges[i].id.substr(0,4)=='edge') {
      edges[i].setAttribute('class','edge');
    }
  }
}
]]></script>
        <defs>
                <circle id="rim" cx="0" cy="0" r="7"/>
                <circle id="rim2" cx="0" cy="0" r="3.5"/>
                <g id="zoomPlus">
                        <use xlink:href="#rim" fill="#404040">
                                <set attributeName="fill" to="#808080" begin="zoomplus.mouseover" end="zoomplus.mouseout"/>
                        </use>
                        <path d="M-4,0h8M0,-4v8" fill="none" stroke="white" stroke-width="1.5" pointer-events="none"/>
                </g>
                <g id="zoomMin">
                        <use xlink:href="#rim" fill="#404040">
                                <set attributeName="fill" to="#808080" begin="zoomminus.mouseover" end="zoomminus.mouseout"/>
                        </use>
                        <path d="M-4,0h8" fill="none" stroke="white" stroke-width="1.5" pointer-events="none"/>
                </g>
                <g id="dirArrow">
                        <path fill="none" stroke="white" stroke-width="1.5" d="M0,-3.0v7 M-2.5,-0.5L0,-3.0L2.5,-0.5"/>
                </g>
               <g id="resetDef">
                       <use xlink:href="#rim2" fill="#404040">
                               <set attributeName="fill" to="#808080" begin="reset.mouseover" end="reset.mouseout"/>
                       </use>
               </g>
        </defs>

<script type="text/javascript">
var viewWidth = 1266;
var viewHeight = 489;
var sectionId = 'dynsection-19';
</script>
<script xlink:href="svgpan.js"/>
<svg id="graph" class="graph">
<g id="viewport">
<title>Soft_I2C_Write</title>
<!-- Node1 -->
<g id="node1" class="node"><title>Node1</title>
<g id="a_node1"><a xlink:title=" ">
<polygon fill="#bfbfbf" stroke="black" points="1182,-55.2752 1182,-73.2752 1258,-73.2752 1258,-55.2752 1182,-55.2752"/>
<text text-anchor="middle" x="1220" y="-62.0752" font-family="Calibri" font-size="9.00">Soft_I2C_Write</text>
</a>
</g>
</g>
<!-- Node2 -->
<g id="node2" class="node"><title>Node2</title>
<g id="a_node2"><a xlink:href="oled__control_8c.html#a5a5d7ef6b1877aaf94c1f4b7fc0f2d2d" target="_top" xlink:title=" ">
<polygon fill="none" stroke="black" points="1078,-130.275 1078,-148.275 1133,-148.275 1133,-130.275 1078,-130.275"/>
<text text-anchor="middle" x="1105.5" y="-137.075" font-family="Calibri" font-size="9.00">led_send</text>
</a>
</g>
</g>
<!-- Node1&#45;&gt;Node2 -->
<g id="edge1" class="edge"><title>Node1&#45;&gt;Node2</title>
<path fill="none" stroke="midnightblue" d="M1200.59,-80.1105C1186.27,-91.9923 1165.61,-108.218 1146,-120.275 1140.17,-123.863 1133.55,-127.276 1127.43,-130.195"/>
<polygon fill="midnightblue" stroke="midnightblue" points="1203.22,-82.4681 1208.62,-73.3498 1198.71,-77.1135 1203.22,-82.4681"/>
</g>
<!-- Node20 -->
<g id="node20" class="node"><title>Node20</title>
<g id="a_node20"><a xlink:href="oled__control_8c.html#ad95f850c4c6d949229270c8da88c02cb" target="_top" xlink:title=" ">
<polygon fill="none" stroke="black" points="960.5,-54.2752 960.5,-72.2752 1014.5,-72.2752 1014.5,-54.2752 960.5,-54.2752"/>
<text text-anchor="middle" x="987.5" y="-61.0752" font-family="Calibri" font-size="9.00">oled_init</text>
</a>
</g>
</g>
<!-- Node1&#45;&gt;Node20 -->
<g id="edge33" class="edge"><title>Node1&#45;&gt;Node20</title>
<path fill="none" stroke="midnightblue" d="M1171.93,-64.0709C1124.45,-63.865 1052.88,-63.5544 1014.69,-63.3888"/>
<polygon fill="midnightblue" stroke="midnightblue" points="1171.95,-67.571 1181.97,-64.1145 1171.98,-60.571 1171.95,-67.571"/>
</g>
<!-- Node21 -->
<g id="node21" class="node"><title>Node21</title>
<g id="a_node21"><a xlink:href="oled__control_8c.html#a7c3a2e5f1fed76dc27692132a2574d27" target="_top" xlink:title=" ">
<polygon fill="none" stroke="black" points="955,-17.2752 955,-35.2752 1020,-35.2752 1020,-17.2752 955,-17.2752"/>
<text text-anchor="middle" x="987.5" y="-24.0752" font-family="Calibri" font-size="9.00">oled_wr_str</text>
</a>
</g>
</g>
<!-- Node1&#45;&gt;Node21 -->
<g id="edge35" class="edge"><title>Node1&#45;&gt;Node21</title>
<path fill="none" stroke="midnightblue" d="M1204.13,-47.6732C1190.55,-33.8668 1169.13,-15.2363 1146,-7.27515 1100.16,8.49981 1042.91,-6.39627 1011.6,-17.2468"/>
<polygon fill="midnightblue" stroke="midnightblue" points="1201.75,-50.2595 1211.16,-55.1277 1206.84,-45.4538 1201.75,-50.2595"/>
</g>
<!-- Node22 -->
<g id="node22" class="node"><title>Node22</title>
<g id="a_node22"><a xlink:href="oled__control_8c.html#ad141ed038278a6fcad6c307932f01ec8" target="_top" xlink:title=" ">
<polygon fill="none" stroke="black" points="1065,-93.2752 1065,-111.275 1146,-111.275 1146,-93.2752 1065,-93.2752"/>
<text text-anchor="middle" x="1105.5" y="-100.075" font-family="Calibri" font-size="9.00">send_command</text>
</a>
</g>
</g>
<!-- Node1&#45;&gt;Node22 -->
<g id="edge37" class="edge"><title>Node1&#45;&gt;Node22</title>
<path fill="none" stroke="midnightblue" d="M1182.73,-76.528C1166.68,-81.9486 1148.14,-88.2112 1133.36,-93.2026"/>
<polygon fill="midnightblue" stroke="midnightblue" points="1183.99,-79.7968 1192.34,-73.2806 1181.74,-73.1649 1183.99,-79.7968"/>
</g>
<!-- Node23 -->
<g id="node23" class="node"><title>Node23</title>
<g id="a_node23"><a xlink:href="oled__control_8c.html#a6df77e8ec83c50ed6a5ddaf54aa3a9c2" target="_top" xlink:title=" ">
<polygon fill="none" stroke="black" points="1065.5,-17.2752 1065.5,-35.2752 1145.5,-35.2752 1145.5,-17.2752 1065.5,-17.2752"/>
<text text-anchor="middle" x="1105.5" y="-24.0752" font-family="Calibri" font-size="9.00">set_addressing</text>
</a>
</g>
</g>
<!-- Node1&#45;&gt;Node23 -->
<g id="edge41" class="edge"><title>Node1&#45;&gt;Node23</title>
<path fill="none" stroke="midnightblue" d="M1182.73,-52.0223C1166.68,-46.6017 1148.14,-40.3391 1133.36,-35.3477"/>
<polygon fill="midnightblue" stroke="midnightblue" points="1181.74,-55.3854 1192.34,-55.2697 1183.99,-48.7535 1181.74,-55.3854"/>
</g>
<!-- Node3 -->
<g id="node3" class="node"><title>Node3</title>
<g id="a_node3"><a xlink:href="oled__control_8c.html#a5febfdc847aa6f3bc3f3c8f7818b8699" target="_top" xlink:title=" ">
<polygon fill="none" stroke="black" points="956.5,-205.275 956.5,-223.275 1018.5,-223.275 1018.5,-205.275 956.5,-205.275"/>
<text text-anchor="middle" x="987.5" y="-212.075" font-family="Calibri" font-size="9.00">display_on</text>
</a>
</g>
</g>
<!-- Node2&#45;&gt;Node3 -->
<g id="edge2" class="edge"><title>Node2&#45;&gt;Node3</title>
<path fill="none" stroke="midnightblue" d="M1083.02,-154.282C1068.03,-164.629 1047.48,-178.571 1029,-190.275 1020.99,-195.348 1011.92,-200.751 1004.4,-205.144"/>
<polygon fill="midnightblue" stroke="midnightblue" points="1085.34,-156.932 1091.56,-148.357 1081.35,-151.179 1085.34,-156.932"/>
</g>
<!-- Node17 -->
<g id="node17" class="node"><title>Node17</title>
<g id="a_node17"><a xlink:href="oled__control_8c.html#a7eb4d382bdd4b42c57dbb7154d03ac66" target="_top" xlink:title=" ">
<polygon fill="none" stroke="black" points="856,-54.2752 856,-72.2752 905,-72.2752 905,-54.2752 856,-54.2752"/>
<text text-anchor="middle" x="880.5" y="-61.0752" font-family="Calibri" font-size="9.00">led_init</text>
</a>
</g>
</g>
<!-- Node2&#45;&gt;Node17 -->
<g id="edge29" class="edge"><title>Node2&#45;&gt;Node17</title>
<path fill="none" stroke="midnightblue" d="M1072.05,-151.515C1038.58,-162.03 985.783,-172.576 946,-152.275 912.515,-135.189 892.37,-91.6954 884.863,-72.5554"/>
<polygon fill="midnightblue" stroke="midnightblue" points="1073.4,-154.757 1081.79,-148.287 1071.19,-148.113 1073.4,-154.757"/>
</g>
<!-- Node18 -->
<g id="node18" class="node"><title>Node18</title>
<g id="a_node18"><a xlink:href="oled__control_8c.html#a9d56c6c2e653b24a0caf505492ad818a" target="_top" xlink:title=" ">
<polygon fill="none" stroke="black" points="851,-17.2752 851,-35.2752 910,-35.2752 910,-17.2752 851,-17.2752"/>
<text text-anchor="middle" x="880.5" y="-24.0752" font-family="Calibri" font-size="9.00">led_wr_str</text>
</a>
</g>
</g>
<!-- Node2&#45;&gt;Node18 -->
<g id="edge31" class="edge"><title>Node2&#45;&gt;Node18</title>
<path fill="none" stroke="midnightblue" d="M1067.73,-143.711C1033.11,-145.898 981.398,-143.807 946,-118.275 916.337,-96.8794 934.394,-71.5262 910,-44.2752 906.956,-40.8741 903.12,-37.8745 899.259,-35.3475"/>
<polygon fill="midnightblue" stroke="midnightblue" points="1068.2,-147.185 1077.9,-142.916 1067.65,-140.206 1068.2,-147.185"/>
</g>
<!-- Node19 -->
<g id="node19" class="node"><title>Node19</title>
<g id="a_node19"><a xlink:href="oled__control_8c.html#ac620c45e67383b8f8addda11fa5655af" target="_top" xlink:title=" ">
<polygon fill="none" stroke="black" points="946,-91.2752 946,-109.275 1029,-109.275 1029,-91.2752 946,-91.2752"/>
<text text-anchor="middle" x="987.5" y="-98.0752" font-family="Calibri" font-size="9.00">vodisplay_offoff</text>
</a>
</g>
</g>
<!-- Node2&#45;&gt;Node19 -->
<g id="edge32" class="edge"><title>Node2&#45;&gt;Node19</title>
<path fill="none" stroke="midnightblue" d="M1068.22,-127.077C1051.13,-121.332 1031.1,-114.597 1015.39,-109.316"/>
<polygon fill="midnightblue" stroke="midnightblue" points="1067.29,-130.458 1077.89,-130.328 1069.52,-123.823 1067.29,-130.458"/>
</g>
<!-- Node4 -->
<g id="node4" class="node"><title>Node4</title>
<g id="a_node4"><a xlink:href="main_8c.html#a1c9e5d54d8cf7f3d041aa2e0b330b3dd" target="_top" xlink:title="Handle the process of the buttons being pressed.">
<polygon fill="none" stroke="black" points="74,-339.275 74,-357.275 139,-357.275 139,-339.275 74,-339.275"/>
<text text-anchor="middle" x="106.5" y="-346.075" font-family="Calibri" font-size="9.00">button_proc</text>
</a>
</g>
</g>
<!-- Node3&#45;&gt;Node4 -->
<g id="edge3" class="edge"><title>Node3&#45;&gt;Node4</title>
<path fill="none" stroke="midnightblue" d="M982.027,-233.332C966.449,-294.401 908.6,-481.275 784,-481.275 784,-481.275 784,-481.275 282.5,-481.275 230.355,-481.275 216.234,-466.195 175,-434.275 146.183,-411.968 122.623,-374.746 112.644,-357.53"/>
<polygon fill="midnightblue" stroke="midnightblue" points="985.464,-234.012 984.451,-223.466 978.666,-232.342 985.464,-234.012"/>
</g>
<!-- Node6 -->
<g id="node6" class="node"><title>Node6</title>
<g id="a_node6"><a xlink:href="main_8c.html#ae5a14b4884e85f47ad8a4a716f13203a" target="_top" xlink:title=" ">
<polygon fill="none" stroke="black" points="856.5,-205.275 856.5,-223.275 904.5,-223.275 904.5,-205.275 856.5,-205.275"/>
<text text-anchor="middle" x="880.5" y="-212.075" font-family="Calibri" font-size="9.00">lcd_pwr</text>
</a>
</g>
</g>
<!-- Node3&#45;&gt;Node6 -->
<g id="edge5" class="edge"><title>Node3&#45;&gt;Node6</title>
<path fill="none" stroke="midnightblue" d="M946.401,-214.275C932.258,-214.275 916.841,-214.275 904.583,-214.275"/>
<polygon fill="midnightblue" stroke="midnightblue" points="946.411,-217.775 956.411,-214.275 946.411,-210.775 946.411,-217.775"/>
</g>
<!-- Node5 -->
<g id="node5" class="node"><title>Node5</title>
<g id="a_node5"><a xlink:href="main_8c.html#acdef7a1fd863a6d3770c1268cb06add3" target="_top" xlink:title=" ">
<polygon fill="none" stroke="black" points="0,-73.2752 0,-91.2752 38,-91.2752 38,-73.2752 0,-73.2752"/>
<text text-anchor="middle" x="19" y="-80.0752" font-family="Calibri" font-size="9.00">main</text>
</a>
</g>
</g>
<!-- Node4&#45;&gt;Node5 -->
<g id="edge4" class="edge"><title>Node4&#45;&gt;Node5</title>
<path fill="none" stroke="midnightblue" d="M99.4281,-329.385C82.4948,-276.703 35.1886,-129.529 22.9307,-91.393"/>
<polygon fill="midnightblue" stroke="midnightblue" points="96.1646,-330.67 102.557,-339.119 102.829,-328.527 96.1646,-330.67"/>
</g>
<!-- Node6&#45;&gt;Node4 -->
<g id="edge8" class="edge"><title>Node6&#45;&gt;Node4</title>
<path fill="none" stroke="midnightblue" d="M875.509,-233.384C868.231,-264.188 850.199,-325.305 815,-364.275 766.591,-417.87 745.221,-443.275 673,-443.275 673,-443.275 673,-443.275 282.5,-443.275 210.94,-443.275 140.687,-381.162 116.415,-357.384"/>
<polygon fill="midnightblue" stroke="midnightblue" points="878.952,-234.026 877.716,-223.503 872.12,-232.5 878.952,-234.026"/>
</g>
<!-- Node6&#45;&gt;Node5 -->
<g id="edge11" class="edge"><title>Node6&#45;&gt;Node5</title>
<path fill="none" stroke="midnightblue" d="M863.243,-197.852C830.404,-166.514 752.493,-101.275 673,-101.275 673,-101.275 673,-101.275 201.5,-101.275 141.461,-101.275 70.8557,-90.8642 38.2251,-85.4553"/>
<polygon fill="midnightblue" stroke="midnightblue" points="860.994,-200.547 870.595,-205.028 865.884,-195.538 860.994,-200.547"/>
</g>
<!-- Node7 -->
<g id="node7" class="node"><title>Node7</title>
<g id="a_node7"><a xlink:href="main_8c.html#af18ed7edda7874a97cacaa11a2759260" target="_top" xlink:title=" ">
<polygon fill="none" stroke="black" points="175,-339.275 175,-357.275 230,-357.275 230,-339.275 175,-339.275"/>
<text text-anchor="middle" x="202.5" y="-346.075" font-family="Calibri" font-size="9.00">btn_push</text>
</a>
</g>
</g>
<!-- Node6&#45;&gt;Node7 -->
<g id="edge6" class="edge"><title>Node6&#45;&gt;Node7</title>
<path fill="none" stroke="midnightblue" d="M870.749,-232.711C846.589,-280.607 774.002,-405.275 673,-405.275 673,-405.275 673,-405.275 363.5,-405.275 307.178,-405.275 245.834,-373.546 218.314,-357.433"/>
<polygon fill="midnightblue" stroke="midnightblue" points="874.012,-234.007 875.277,-223.487 867.728,-230.922 874.012,-234.007"/>
</g>
<!-- Node8 -->
<g id="node8" class="node"><title>Node8</title>
<g id="a_node8"><a xlink:href="main_8c.html#ac445892220ccb3b4b337dd3e764bd6c6" target="_top" xlink:title="Handle the process of the buttons being pressed (in test mode)">
<polygon fill="none" stroke="black" points="629,-54.2752 629,-72.2752 715,-72.2752 715,-54.2752 629,-54.2752"/>
<text text-anchor="middle" x="672" y="-61.0752" font-family="Calibri" font-size="9.00">button_proc_test</text>
</a>
</g>
</g>
<!-- Node6&#45;&gt;Node8 -->
<g id="edge9" class="edge"><title>Node6&#45;&gt;Node8</title>
<path fill="none" stroke="midnightblue" d="M875.52,-195.194C868.535,-166.8 851.229,-113.921 815,-87.2752 786.299,-66.1655 745.551,-61.1205 715.062,-60.7964"/>
<polygon fill="midnightblue" stroke="midnightblue" points="872.14,-196.116 877.776,-205.088 878.965,-194.56 872.14,-196.116"/>
</g>
<!-- Node9 -->
<g id="node9" class="node"><title>Node9</title>
<g id="a_node9"><a xlink:href="main_8c.html#a11724d8cce81ed96bec12a004ea3ea7a" target="_top" xlink:title=" ">
<polygon fill="none" stroke="black" points="751,-205.275 751,-223.275 815,-223.275 815,-205.275 751,-205.275"/>
<text text-anchor="middle" x="783" y="-212.075" font-family="Calibri" font-size="9.00">show_reset</text>
</a>
</g>
</g>
<!-- Node6&#45;&gt;Node9 -->
<g id="edge12" class="edge"><title>Node6&#45;&gt;Node9</title>
<path fill="none" stroke="midnightblue" d="M846.299,-214.275C836.208,-214.275 825.159,-214.275 815.204,-214.275"/>
<polygon fill="midnightblue" stroke="midnightblue" points="846.382,-217.775 856.382,-214.275 846.382,-210.775 846.382,-217.775"/>
</g>
<!-- Node7&#45;&gt;Node4 -->
<g id="edge7" class="edge"><title>Node7&#45;&gt;Node4</title>
<path fill="none" stroke="midnightblue" d="M164.545,-348.275C156.183,-348.275 147.376,-348.275 139.25,-348.275"/>
<polygon fill="midnightblue" stroke="midnightblue" points="164.815,-351.775 174.815,-348.275 164.815,-344.775 164.815,-351.775"/>
</g>
<!-- Node8&#45;&gt;Node5 -->
<g id="edge10" class="edge"><title>Node8&#45;&gt;Node5</title>
<path fill="none" stroke="midnightblue" d="M618.635,-63.2752C576.468,-63.2752 515.671,-63.2752 462.5,-63.2752 462.5,-63.2752 462.5,-63.2752 201.5,-63.2752 141.461,-63.2752 70.8557,-73.6861 38.2251,-79.095"/>
<polygon fill="midnightblue" stroke="midnightblue" points="618.671,-66.7753 628.671,-63.2752 618.671,-59.7753 618.671,-66.7753"/>
</g>
<!-- Node9&#45;&gt;Node4 -->
<g id="edge13" class="edge"><title>Node9&#45;&gt;Node4</title>
<path fill="none" stroke="midnightblue" d="M757.86,-200.11C718.465,-178.373 637.283,-139.275 563,-139.275 563,-139.275 563,-139.275 282.5,-139.275 176.729,-139.275 122.257,-298.577 110.131,-339.025"/>
<polygon fill="midnightblue" stroke="midnightblue" points="756.515,-203.37 766.945,-205.228 759.95,-197.271 756.515,-203.37"/>
</g>
<!-- Node10 -->
<g id="node10" class="node"><title>Node10</title>
<g id="a_node10"><a xlink:href="main_8h.html#ad7eb7423e0b17ccfba1ae42f3a3274e0" target="_top" xlink:title=" ">
<polygon fill="none" stroke="black" points="648,-244.275 648,-262.275 696,-262.275 696,-244.275 648,-244.275"/>
<text text-anchor="middle" x="672" y="-251.075" font-family="Calibri" font-size="9.00">get_swr</text>
</a>
</g>
</g>
<!-- Node9&#45;&gt;Node10 -->
<g id="edge14" class="edge"><title>Node9&#45;&gt;Node10</title>
<path fill="none" stroke="midnightblue" d="M747.299,-226.691C730.643,-232.651 711.131,-239.632 696.283,-244.945"/>
<polygon fill="midnightblue" stroke="midnightblue" points="748.483,-229.985 756.719,-223.321 746.125,-223.394 748.483,-229.985"/>
</g>
<!-- Node11 -->
<g id="node11" class="node"><title>Node11</title>
<g id="a_node11"><a xlink:href="main_8h.html#a740ef1b33bb02cd952ad7d8708999472" target="_top" xlink:title=" ">
<polygon fill="none" stroke="black" points="531,-244.275 531,-262.275 593,-262.275 593,-244.275 531,-244.275"/>
<text text-anchor="middle" x="562" y="-251.075" font-family="Calibri" font-size="9.00">coarse_cap</text>
</a>
</g>
</g>
<!-- Node10&#45;&gt;Node11 -->
<g id="edge15" class="edge"><title>Node10&#45;&gt;Node11</title>
<path fill="none" stroke="midnightblue" d="M637.495,-253.275C623.31,-253.275 606.908,-253.275 593.112,-253.275"/>
<polygon fill="midnightblue" stroke="midnightblue" points="637.831,-256.775 647.831,-253.275 637.831,-249.775 637.831,-256.775"/>
</g>
<!-- Node12 -->
<g id="node12" class="node"><title>Node12</title>
<g id="a_node12"><a xlink:href="main_8h.html#a5c7c60c7d70cf76cc52e87722bb0f614" target="_top" xlink:title=" ">
<polygon fill="none" stroke="black" points="428,-282.275 428,-300.275 495,-300.275 495,-282.275 428,-282.275"/>
<text text-anchor="middle" x="461.5" y="-289.075" font-family="Calibri" font-size="9.00">coarse_tune</text>
</a>
</g>
</g>
<!-- Node10&#45;&gt;Node12 -->
<g id="edge20" class="edge"><title>Node10&#45;&gt;Node12</title>
<path fill="none" stroke="midnightblue" d="M637.858,-261.499C624.039,-264.778 607.792,-268.439 593,-271.275 559.797,-277.641 521.532,-283.311 495.062,-286.973"/>
<polygon fill="midnightblue" stroke="midnightblue" points="638.984,-264.828 647.888,-259.086 637.346,-258.023 638.984,-264.828"/>
</g>
<!-- Node13 -->
<g id="node13" class="node"><title>Node13</title>
<g id="a_node13"><a xlink:href="main_8h.html#a454a7687c8039514766571b23516ca9c" target="_top" xlink:title=" ">
<polygon fill="none" stroke="black" points="337,-282.275 337,-300.275 392,-300.275 392,-282.275 337,-282.275"/>
<text text-anchor="middle" x="364.5" y="-289.075" font-family="Calibri" font-size="9.00">sub_tune</text>
</a>
</g>
</g>
<!-- Node10&#45;&gt;Node13 -->
<g id="edge27" class="edge"><title>Node10&#45;&gt;Node13</title>
<path fill="none" stroke="midnightblue" d="M646.583,-267.307C631.558,-275.394 611.665,-285.142 593,-291.275 522.918,-314.305 501.045,-319.584 428,-309.275 415.477,-307.508 401.949,-303.842 390.692,-300.276"/>
<polygon fill="midnightblue" stroke="midnightblue" points="648.622,-270.179 655.691,-262.287 645.244,-264.049 648.622,-270.179"/>
</g>
<!-- Node14 -->
<g id="node14" class="node"><title>Node14</title>
<g id="a_node14"><a xlink:href="main_8h.html#a1849f2e5bd63d11a7b9549470e287d17" target="_top" xlink:title=" ">
<polygon fill="none" stroke="black" points="266,-282.275 266,-300.275 301,-300.275 301,-282.275 266,-282.275"/>
<text text-anchor="middle" x="283.5" y="-289.075" font-family="Calibri" font-size="9.00">tune</text>
</a>
</g>
</g>
<!-- Node10&#45;&gt;Node14 -->
<g id="edge28" class="edge"><title>Node10&#45;&gt;Node14</title>
<path fill="none" stroke="midnightblue" d="M655.243,-269.906C640.584,-284.24 617.389,-304.171 593,-314.275 487.866,-357.832 447.048,-338.255 337,-309.275 324.887,-306.085 311.538,-301.493 301.332,-297.746"/>
<polygon fill="midnightblue" stroke="midnightblue" points="657.911,-272.186 662.461,-262.618 652.938,-267.26 657.911,-272.186"/>
</g>
<!-- Node15 -->
<g id="node15" class="node"><title>Node15</title>
<g id="a_node15"><a xlink:href="main_8h.html#ab518a3d2c723f12d3af3024a195606ce" target="_top" xlink:title=" ">
<polygon fill="none" stroke="black" points="432,-244.275 432,-262.275 491,-262.275 491,-244.275 432,-244.275"/>
<text text-anchor="middle" x="461.5" y="-251.075" font-family="Calibri" font-size="9.00">sharp_cap</text>
</a>
</g>
</g>
<!-- Node10&#45;&gt;Node15 -->
<g id="edge21" class="edge"><title>Node10&#45;&gt;Node15</title>
<path fill="none" stroke="midnightblue" d="M637.758,-243.323C624.036,-239.703 607.887,-236.062 593,-234.275 565.641,-230.991 558.304,-230.559 531,-234.275 516.815,-236.206 501.42,-240.288 488.825,-244.176"/>
<polygon fill="midnightblue" stroke="midnightblue" points="637.147,-246.785 647.717,-246.057 639,-240.034 637.147,-246.785"/>
</g>
<!-- Node16 -->
<g id="node16" class="node"><title>Node16</title>
<g id="a_node16"><a xlink:href="main_8h.html#a72210b3ed1d5691c5bbda8c7f1e97197" target="_top" xlink:title=" ">
<polygon fill="none" stroke="black" points="432.5,-206.275 432.5,-224.275 490.5,-224.275 490.5,-206.275 432.5,-206.275"/>
<text text-anchor="middle" x="461.5" y="-213.075" font-family="Calibri" font-size="9.00">sharp_ind</text>
</a>
</g>
</g>
<!-- Node10&#45;&gt;Node16 -->
<g id="edge24" class="edge"><title>Node10&#45;&gt;Node16</title>
<path fill="none" stroke="midnightblue" d="M638.253,-241.082C624.459,-236.393 608.125,-231.416 593,-228.275 558.112,-221.031 517.109,-217.786 490.506,-216.357"/>
<polygon fill="midnightblue" stroke="midnightblue" points="637.199,-244.421 647.794,-244.415 639.508,-237.813 637.199,-244.421"/>
</g>
<!-- Node11&#45;&gt;Node12 -->
<g id="edge16" class="edge"><title>Node11&#45;&gt;Node12</title>
<path fill="none" stroke="midnightblue" d="M528.041,-265.99C514.272,-271.302 498.589,-277.352 486.017,-282.203"/>
<polygon fill="midnightblue" stroke="midnightblue" points="529.587,-269.145 537.657,-262.281 527.067,-262.615 529.587,-269.145"/>
</g>
<!-- Node12&#45;&gt;Node13 -->
<g id="edge17" class="edge"><title>Node12&#45;&gt;Node13</title>
<path fill="none" stroke="midnightblue" d="M417.785,-291.275C409.104,-291.275 400.207,-291.275 392.271,-291.275"/>
<polygon fill="midnightblue" stroke="midnightblue" points="417.806,-294.775 427.806,-291.275 417.806,-287.775 417.806,-294.775"/>
</g>
<!-- Node13&#45;&gt;Node14 -->
<g id="edge18" class="edge"><title>Node13&#45;&gt;Node14</title>
<path fill="none" stroke="midnightblue" d="M326.487,-291.275C317.583,-291.275 308.509,-291.275 301.085,-291.275"/>
<polygon fill="midnightblue" stroke="midnightblue" points="326.754,-294.775 336.754,-291.275 326.754,-287.775 326.754,-294.775"/>
</g>
<!-- Node14&#45;&gt;Node7 -->
<g id="edge19" class="edge"><title>Node14&#45;&gt;Node7</title>
<path fill="none" stroke="midnightblue" d="M261.466,-306.452C247.034,-316.865 228.359,-330.339 216.161,-339.14"/>
<polygon fill="midnightblue" stroke="midnightblue" points="263.746,-309.123 269.807,-300.433 259.65,-303.446 263.746,-309.123"/>
</g>
<!-- Node15&#45;&gt;Node13 -->
<g id="edge22" class="edge"><title>Node15&#45;&gt;Node13</title>
<path fill="none" stroke="midnightblue" d="M428.325,-266.145C415.139,-271.419 400.189,-277.4 388.181,-282.203"/>
<polygon fill="midnightblue" stroke="midnightblue" points="430.001,-269.244 437.986,-262.281 427.402,-262.745 430.001,-269.244"/>
</g>
<!-- Node15&#45;&gt;Node14 -->
<g id="edge23" class="edge"><title>Node15&#45;&gt;Node14</title>
<path fill="none" stroke="midnightblue" d="M421.727,-257.276C397.198,-260.289 364.955,-265.139 337,-272.275 324.791,-275.392 311.443,-280.243 301.262,-284.263"/>
<polygon fill="midnightblue" stroke="midnightblue" points="422.211,-260.744 431.732,-256.096 421.391,-253.792 422.211,-260.744"/>
</g>
<!-- Node16&#45;&gt;Node13 -->
<g id="edge25" class="edge"><title>Node16&#45;&gt;Node13</title>
<path fill="none" stroke="midnightblue" d="M434.673,-229.692C432.375,-231.178 430.119,-232.716 428,-234.275 407.416,-249.416 385.94,-270.308 374.294,-282.138"/>
<polygon fill="midnightblue" stroke="midnightblue" points="436.82,-232.483 443.539,-224.291 433.178,-226.505 436.82,-232.483"/>
</g>
<!-- Node16&#45;&gt;Node14 -->
<g id="edge26" class="edge"><title>Node16&#45;&gt;Node14</title>
<path fill="none" stroke="midnightblue" d="M422.518,-226.054C397.628,-233.706 364.695,-244.961 337,-258.275 322.834,-265.085 307.75,-274.861 297.403,-282.005"/>
<polygon fill="midnightblue" stroke="midnightblue" points="423.749,-229.338 432.313,-223.1 421.729,-222.636 423.749,-229.338"/>
</g>
<!-- Node17&#45;&gt;Node5 -->
<g id="edge30" class="edge"><title>Node17&#45;&gt;Node5</title>
<path fill="none" stroke="midnightblue" d="M846.287,-53.3082C805.769,-42.0493 735.001,-25.2752 673,-25.2752 673,-25.2752 673,-25.2752 201.5,-25.2752 138.417,-25.2752 68.4326,-57.0045 36.9605,-73.1171"/>
<polygon fill="midnightblue" stroke="midnightblue" points="845.336,-56.6767 855.912,-56.0382 847.246,-49.9423 845.336,-56.6767"/>
</g>
<!-- Node20&#45;&gt;Node17 -->
<g id="edge34" class="edge"><title>Node20&#45;&gt;Node17</title>
<path fill="none" stroke="midnightblue" d="M949.898,-63.2752C935.089,-63.2752 918.417,-63.2752 905.241,-63.2752"/>
<polygon fill="midnightblue" stroke="midnightblue" points="950.275,-66.7752 960.275,-63.2752 950.275,-59.7752 950.275,-66.7752"/>
</g>
<!-- Node21&#45;&gt;Node18 -->
<g id="edge36" class="edge"><title>Node21&#45;&gt;Node18</title>
<path fill="none" stroke="midnightblue" d="M944.988,-26.2752C933.306,-26.2752 920.864,-26.2752 910.118,-26.2752"/>
<polygon fill="midnightblue" stroke="midnightblue" points="944.997,-29.7753 954.997,-26.2752 944.997,-22.7753 944.997,-29.7753"/>
</g>
<!-- Node22&#45;&gt;Node3 -->
<g id="edge38" class="edge"><title>Node22&#45;&gt;Node3</title>
<path fill="none" stroke="midnightblue" d="M1070.7,-116.353C1068.71,-117.583 1066.79,-118.89 1065,-120.275 1032.53,-145.354 1005.14,-186.767 993.929,-205.079"/>
<polygon fill="midnightblue" stroke="midnightblue" points="1072.57,-119.316 1079.69,-111.464 1069.23,-113.167 1072.57,-119.316"/>
</g>
<!-- Node22&#45;&gt;Node19 -->
<g id="edge40" class="edge"><title>Node22&#45;&gt;Node19</title>
<path fill="none" stroke="midnightblue" d="M1054.67,-101.416C1046.13,-101.269 1037.36,-101.118 1029.1,-100.975"/>
<polygon fill="midnightblue" stroke="midnightblue" points="1054.84,-104.919 1064.9,-101.592 1054.97,-97.9205 1054.84,-104.919"/>
</g>
<!-- Node22&#45;&gt;Node20 -->
<g id="edge39" class="edge"><title>Node22&#45;&gt;Node20</title>
<path fill="none" stroke="midnightblue" d="M1067.86,-89.9559C1050.65,-84.1715 1030.53,-77.4073 1014.86,-72.137"/>
<polygon fill="midnightblue" stroke="midnightblue" points="1067,-93.3604 1077.6,-93.2297 1069.23,-86.7254 1067,-93.3604"/>
</g>
<!-- Node23&#45;&gt;Node20 -->
<g id="edge42" class="edge"><title>Node23&#45;&gt;Node20</title>
<path fill="none" stroke="midnightblue" d="M1066.47,-38.404C1049.49,-43.8224 1029.9,-50.0713 1014.6,-54.95"/>
<polygon fill="midnightblue" stroke="midnightblue" points="1067.66,-41.6997 1076.12,-35.3264 1065.53,-35.0308 1067.66,-41.6997"/>
</g>
<!-- Node23&#45;&gt;Node21 -->
<g id="edge43" class="edge"><title>Node23&#45;&gt;Node21</title>
<path fill="none" stroke="midnightblue" d="M1054.99,-26.2752C1043.15,-26.2752 1030.82,-26.2752 1020.04,-26.2752"/>
<polygon fill="midnightblue" stroke="midnightblue" points="1055.23,-29.7753 1065.23,-26.2752 1055.23,-22.7753 1055.23,-29.7753"/>
</g>
</g>
</svg>
        <g id="navigator" transform="translate(0 0)" fill="#404254">
                <rect fill="#f2f5e9" fill-opacity="0.5" stroke="#606060" stroke-width=".5" x="0" y="0" width="60" height="60"/>
                <use id="zoomplus" xlink:href="#zoomPlus" x="17" y="9" onmousedown="handleZoom(evt,'in')"/>
                <use id="zoomminus" xlink:href="#zoomMin" x="42" y="9" onmousedown="handleZoom(evt,'out')"/>
                <use id="reset" xlink:href="#resetDef" x="30" y="36" onmousedown="handleReset()"/>
                <g id="arrowUp" xlink:href="#dirArrow" transform="translate(30 24)" onmousedown="handlePan(0,-1)">
                  <use xlink:href="#rim" fill="#404040">
                        <set attributeName="fill" to="#808080" begin="arrowUp.mouseover" end="arrowUp.mouseout"/>
                  </use>
                  <path fill="none" stroke="white" stroke-width="1.5" d="M0,-3.0v7 M-2.5,-0.5L0,-3.0L2.5,-0.5"/>
                </g>
                <g id="arrowRight" xlink:href="#dirArrow" transform="rotate(90) translate(36 -43)" onmousedown="handlePan(1,0)">
                  <use xlink:href="#rim" fill="#404040">
                        <set attributeName="fill" to="#808080" begin="arrowRight.mouseover" end="arrowRight.mouseout"/>
                  </use>
                  <path fill="none" stroke="white" stroke-width="1.5" d="M0,-3.0v7 M-2.5,-0.5L0,-3.0L2.5,-0.5"/>
                </g>
                <g id="arrowDown" xlink:href="#dirArrow" transform="rotate(180) translate(-30 -48)" onmousedown="handlePan(0,1)">
                  <use xlink:href="#rim" fill="#404040">
                        <set attributeName="fill" to="#808080" begin="arrowDown.mouseover" end="arrowDown.mouseout"/>
                  </use>
                  <path fill="none" stroke="white" stroke-width="1.5" d="M0,-3.0v7 M-2.5,-0.5L0,-3.0L2.5,-0.5"/>
                </g>
                <g id="arrowLeft" xlink:href="#dirArrow" transform="rotate(270) translate(-36 17)" onmousedown="handlePan(-1,0)">
                  <use xlink:href="#rim" fill="#404040">
                        <set attributeName="fill" to="#808080" begin="arrowLeft.mouseover" end="arrowLeft.mouseout"/>
                  </use>
                  <path fill="none" stroke="white" stroke-width="1.5" d="M0,-3.0v7 M-2.5,-0.5L0,-3.0L2.5,-0.5"/>
                </g>
        </g>
        <svg viewBox="0 0 15 15" width="100%" height="30px" preserveAspectRatio="xMaxYMin meet">
         <g id="arrow_out" transform="scale(0.3 0.3)">
          <a xlink:href="oled__control_8c_a73610916645f17c19124e697b005f694_icgraph_org.svg" target="_base">
           <rect id="button" ry="5" rx="5" y="6" x="6" height="38" width="38"
                fill="#f2f5e9" fill-opacity="0.5" stroke="#606060" stroke-width="1.0"/>
           <path id="arrow"
             d="M 11.500037,31.436501 C 11.940474,20.09759 22.043105,11.32322 32.158766,21.979434 L 37.068811,17.246167 C 37.068811,17.246167 37.088388,32 37.088388,32 L 22.160133,31.978069 C 22.160133,31.978069 26.997745,27.140456 26.997745,27.140456 C 18.528582,18.264221 13.291696,25.230495 11.500037,31.436501 z"
             style="fill:#404040;"/>
          </a>
         </g>
        </svg>
</svg>
