<?xml version="1.0" encoding="UTF-8" standalone="no"?>
<!DOCTYPE svg PUBLIC "-//W3C//DTD SVG 1.1//EN"
 "http://www.w3.org/Graphics/SVG/1.1/DTD/svg11.dtd">
<!-- Generated by graphviz version 2.38.0 (20140413.2041)
 -->
<!-- Title: Soft_I2C_Start Pages: 1 -->
<!--zoomable 896 -->
<svg id="main" version="1.1" xmlns="http://www.w3.org/2000/svg" xmlns:xlink="http://www.w3.org/1999/xlink" xml:space="preserve" onload="init(evt)">
<style type="text/css"><![CDATA[
.edge:hover path { stroke: red; }
.edge:hover polygon { stroke: red; fill: red; }
]]></style>
<script type="text/javascript"><![CDATA[
var edges = document.getElementsByTagName('g');
if (edges && edges.length) {
  for (var i=0;i<edges.length;i++) {
    if (edges[i].id.substr(0,4)=='edge') {
      edges[i].setAttribute('class','edge');
    }
  }
}
]]></script>
        <defs>
                <circle id="rim" cx="0" cy="0" r="7"/>
                <circle id="rim2" cx="0" cy="0" r="3.5"/>
                <g id="zoomPlus">
                        <use xlink:href="#rim" fill="#404040">
                                <set attributeName="fill" to="#808080" begin="zoomplus.mouseover" end="zoomplus.mouseout"/>
                        </use>
                        <path d="M-4,0h8M0,-4v8" fill="none" stroke="white" stroke-width="1.5" pointer-events="none"/>
                </g>
                <g id="zoomMin">
                        <use xlink:href="#rim" fill="#404040">
                                <set attributeName="fill" to="#808080" begin="zoomminus.mouseover" end="zoomminus.mouseout"/>
                        </use>
                        <path d="M-4,0h8" fill="none" stroke="white" stroke-width="1.5" pointer-events="none"/>
                </g>
                <g id="dirArrow">
                        <path fill="none" stroke="white" stroke-width="1.5" d="M0,-3.0v7 M-2.5,-0.5L0,-3.0L2.5,-0.5"/>
                </g>
               <g id="resetDef">
                       <use xlink:href="#rim2" fill="#404040">
                               <set attributeName="fill" to="#808080" begin="reset.mouseover" end="reset.mouseout"/>
                       </use>
               </g>
        </defs>

<script type="text/javascript">
var viewWidth = 1532;
var viewHeight = 896;
var sectionId = 'dynsection-20';
</script>
<script xlink:href="svgpan.js"/>
<svg id="graph" class="graph">
<g id="viewport">
<title>Soft_I2C_Start</title>
<!-- Node1 -->
<g id="node1" class="node"><title>Node1</title>
<g id="a_node1"><a xlink:title=" ">
<polygon fill="#bfbfbf" stroke="black" points="1452,-679.66 1452,-697.66 1524,-697.66 1524,-679.66 1452,-679.66"/>
<text text-anchor="middle" x="1488" y="-686.46" font-family="Calibri" font-size="9.00">Soft_I2C_Start</text>
</a>
</g>
</g>
<!-- Node2 -->
<g id="node2" class="node"><title>Node2</title>
<g id="a_node2"><a xlink:href="oled__control_8c.html#a3d35666326cc069eda3b63c70983fdbc" target="_top" xlink:title=" ">
<polygon fill="none" stroke="black" points="1239,-717.66 1239,-735.66 1294,-735.66 1294,-717.66 1239,-717.66"/>
<text text-anchor="middle" x="1266.5" y="-724.46" font-family="Calibri" font-size="9.00">led_send</text>
</a>
</g>
</g>
<!-- Node1&#45;&gt;Node2 -->
<g id="edge1" class="edge"><title>Node1&#45;&gt;Node2</title>
<path fill="none" stroke="midnightblue" d="M1441.81,-697.814C1433.25,-699.479 1424.36,-701.162 1416,-702.66 1373.46,-710.29 1323.86,-718.085 1294.1,-722.643"/>
<polygon fill="midnightblue" stroke="midnightblue" points="1442.52,-701.242 1451.65,-695.879 1441.17,-694.373 1442.52,-701.242"/>
</g>
<!-- Node26 -->
<g id="node26" class="node"><title>Node26</title>
<g id="a_node26"><a xlink:href="oled__control_8c.html#ad95f850c4c6d949229270c8da88c02cb" target="_top" xlink:title=" ">
<polygon fill="none" stroke="black" points="1239.5,-604.66 1239.5,-622.66 1293.5,-622.66 1293.5,-604.66 1239.5,-604.66"/>
<text text-anchor="middle" x="1266.5" y="-611.46" font-family="Calibri" font-size="9.00">oled_init</text>
</a>
</g>
</g>
<!-- Node1&#45;&gt;Node26 -->
<g id="edge60" class="edge"><title>Node1&#45;&gt;Node26</title>
<path fill="none" stroke="midnightblue" d="M1471.93,-672.293C1458.6,-658.962 1437.92,-640.89 1416,-631.66 1375.67,-614.678 1324.1,-612.253 1293.55,-612.58"/>
<polygon fill="midnightblue" stroke="midnightblue" points="1469.41,-674.728 1478.88,-679.491 1474.45,-669.866 1469.41,-674.728"/>
</g>
<!-- Node27 -->
<g id="node27" class="node"><title>Node27</title>
<g id="a_node27"><a xlink:href="oled__control_8c.html#a6e85fd05697e2238e4d9babf1c952772" target="_top" xlink:title=" ">
<polygon fill="none" stroke="black" points="1234,-641.66 1234,-659.66 1299,-659.66 1299,-641.66 1234,-641.66"/>
<text text-anchor="middle" x="1266.5" y="-648.46" font-family="Calibri" font-size="9.00">oled_wr_str</text>
</a>
</g>
</g>
<!-- Node1&#45;&gt;Node27 -->
<g id="edge62" class="edge"><title>Node1&#45;&gt;Node27</title>
<path fill="none" stroke="midnightblue" d="M1441.5,-684.234C1411.17,-680.902 1370.5,-675.698 1335,-668.66 1322.87,-666.254 1309.68,-662.908 1298.22,-659.753"/>
<polygon fill="midnightblue" stroke="midnightblue" points="1441.46,-687.75 1451.77,-685.335 1442.2,-680.79 1441.46,-687.75"/>
</g>
<!-- Node28 -->
<g id="node28" class="node"><title>Node28</title>
<g id="a_node28"><a xlink:href="oled__control_8c.html#a78a346ba6e89c3140dd554a46e56c719" target="_top" xlink:title=" ">
<polygon fill="none" stroke="black" points="1335,-755.66 1335,-773.66 1416,-773.66 1416,-755.66 1335,-755.66"/>
<text text-anchor="middle" x="1375.5" y="-762.46" font-family="Calibri" font-size="9.00">send_command</text>
</a>
</g>
</g>
<!-- Node1&#45;&gt;Node28 -->
<g id="edge64" class="edge"><title>Node1&#45;&gt;Node28</title>
<path fill="none" stroke="midnightblue" d="M1467.17,-703.895C1453.11,-714.519 1433.67,-728.85 1416,-740.66 1408.26,-745.832 1399.42,-751.244 1392.08,-755.618"/>
<polygon fill="midnightblue" stroke="midnightblue" points="1469.32,-706.653 1475.16,-697.814 1465.09,-701.081 1469.32,-706.653"/>
</g>
<!-- Node29 -->
<g id="node29" class="node"><title>Node29</title>
<g id="a_node29"><a xlink:href="oled__control_8c.html#a3cf32ac4d3d7c92be54c385c1ed8cc76" target="_top" xlink:title=" ">
<polygon fill="none" stroke="black" points="1335.5,-641.66 1335.5,-659.66 1415.5,-659.66 1415.5,-641.66 1335.5,-641.66"/>
<text text-anchor="middle" x="1375.5" y="-648.46" font-family="Calibri" font-size="9.00">set_addressing</text>
</a>
</g>
</g>
<!-- Node1&#45;&gt;Node29 -->
<g id="edge68" class="edge"><title>Node1&#45;&gt;Node29</title>
<path fill="none" stroke="midnightblue" d="M1450.92,-676.254C1435.26,-670.869 1417.26,-664.677 1402.88,-659.733"/>
<polygon fill="midnightblue" stroke="midnightblue" points="1450.22,-679.712 1460.81,-679.655 1452.49,-673.093 1450.22,-679.712"/>
</g>
<!-- Node3 -->
<g id="node3" class="node"><title>Node3</title>
<g id="a_node3"><a xlink:href="oled__control_8c.html#a5febfdc847aa6f3bc3f3c8f7818b8699" target="_top" xlink:title=" ">
<polygon fill="none" stroke="black" points="934,-736.66 934,-754.66 996,-754.66 996,-736.66 934,-736.66"/>
<text text-anchor="middle" x="965" y="-743.46" font-family="Calibri" font-size="9.00">display_on</text>
</a>
</g>
</g>
<!-- Node2&#45;&gt;Node3 -->
<g id="edge2" class="edge"><title>Node2&#45;&gt;Node3</title>
<path fill="none" stroke="midnightblue" d="M1228.78,-728.99C1168.89,-732.789 1051.3,-740.249 996.043,-743.754"/>
<polygon fill="midnightblue" stroke="midnightblue" points="1229.16,-732.473 1238.92,-728.346 1228.72,-725.487 1229.16,-732.473"/>
</g>
<!-- Node17 -->
<g id="node17" class="node"><title>Node17</title>
<g id="a_node17"><a xlink:href="oled__control_8c.html#a7eb4d382bdd4b42c57dbb7154d03ac66" target="_top" xlink:title=" ">
<polygon fill="none" stroke="black" points="1132,-604.66 1132,-622.66 1181,-622.66 1181,-604.66 1132,-604.66"/>
<text text-anchor="middle" x="1156.5" y="-611.46" font-family="Calibri" font-size="9.00">led_init</text>
</a>
</g>
</g>
<!-- Node2&#45;&gt;Node17 -->
<g id="edge29" class="edge"><title>Node2&#45;&gt;Node17</title>
<path fill="none" stroke="midnightblue" d="M1256.47,-708.494C1245.27,-687.547 1224.38,-653.238 1198,-631.66 1193,-627.568 1186.92,-624.223 1181.01,-621.576"/>
<polygon fill="midnightblue" stroke="midnightblue" points="1253.47,-710.314 1261.17,-717.589 1259.69,-707.098 1253.47,-710.314"/>
</g>
<!-- Node18 -->
<g id="node18" class="node"><title>Node18</title>
<g id="a_node18"><a xlink:href="oled__control_8c.html#a1c8eef09adf01c9a7e3c6188f25c3c48" target="_top" xlink:title=" ">
<polygon fill="none" stroke="black" points="1127,-641.66 1127,-659.66 1186,-659.66 1186,-641.66 1127,-641.66"/>
<text text-anchor="middle" x="1156.5" y="-648.46" font-family="Calibri" font-size="9.00">led_wr_str</text>
</a>
</g>
</g>
<!-- Node2&#45;&gt;Node18 -->
<g id="edge31" class="edge"><title>Node2&#45;&gt;Node18</title>
<path fill="none" stroke="midnightblue" d="M1244.33,-711.759C1222.31,-696.265 1188.56,-672.514 1170.3,-659.665"/>
<polygon fill="midnightblue" stroke="midnightblue" points="1242.49,-714.751 1252.69,-717.644 1246.52,-709.026 1242.49,-714.751"/>
</g>
<!-- Node25 -->
<g id="node25" class="node"><title>Node25</title>
<g id="a_node25"><a xlink:href="oled__control_8c.html#ac620c45e67383b8f8addda11fa5655af" target="_top" xlink:title=" ">
<polygon fill="none" stroke="black" points="1115,-755.66 1115,-773.66 1198,-773.66 1198,-755.66 1115,-755.66"/>
<text text-anchor="middle" x="1156.5" y="-762.46" font-family="Calibri" font-size="9.00">vodisplay_offoff</text>
</a>
</g>
</g>
<!-- Node2&#45;&gt;Node25 -->
<g id="edge59" class="edge"><title>Node2&#45;&gt;Node25</title>
<path fill="none" stroke="midnightblue" d="M1230.24,-739.067C1214.93,-744.452 1197.34,-750.643 1183.29,-755.588"/>
<polygon fill="midnightblue" stroke="midnightblue" points="1231.63,-742.286 1239.91,-735.666 1229.31,-735.683 1231.63,-742.286"/>
</g>
<!-- Node4 -->
<g id="node4" class="node"><title>Node4</title>
<g id="a_node4"><a xlink:href="main_8c.html#a1c9e5d54d8cf7f3d041aa2e0b330b3dd" target="_top" xlink:title="Handle the process of the buttons being pressed.">
<polygon fill="none" stroke="black" points="74,-603.66 74,-621.66 139,-621.66 139,-603.66 74,-603.66"/>
<text text-anchor="middle" x="106.5" y="-610.46" font-family="Calibri" font-size="9.00">button_proc</text>
</a>
</g>
</g>
<!-- Node3&#45;&gt;Node4 -->
<g id="edge3" class="edge"><title>Node3&#45;&gt;Node4</title>
<path fill="none" stroke="midnightblue" d="M923.695,-751.893C884.341,-757.433 822.706,-764.66 769,-764.66 769,-764.66 769,-764.66 282.5,-764.66 194.772,-764.66 129.553,-654.436 112.124,-621.713"/>
<polygon fill="midnightblue" stroke="midnightblue" points="924.291,-755.343 933.69,-750.455 923.294,-748.415 924.291,-755.343"/>
</g>
<!-- Node6 -->
<g id="node6" class="node"><title>Node6</title>
<g id="a_node6"><a xlink:href="main_8c.html#ae5a14b4884e85f47ad8a4a716f13203a" target="_top" xlink:title=" ">
<polygon fill="none" stroke="black" points="848.5,-603.66 848.5,-621.66 896.5,-621.66 896.5,-603.66 848.5,-603.66"/>
<text text-anchor="middle" x="872.5" y="-610.46" font-family="Calibri" font-size="9.00">lcd_pwr</text>
</a>
</g>
</g>
<!-- Node3&#45;&gt;Node6 -->
<g id="edge5" class="edge"><title>Node3&#45;&gt;Node6</title>
<path fill="none" stroke="midnightblue" d="M951.924,-727.913C932.418,-699.247 894.662,-643.761 879.764,-621.866"/>
<polygon fill="midnightblue" stroke="midnightblue" points="949.26,-730.22 957.78,-736.519 955.048,-726.282 949.26,-730.22"/>
</g>
<!-- Node5 -->
<g id="node5" class="node"><title>Node5</title>
<g id="a_node5"><a xlink:href="main_8c.html#acdef7a1fd863a6d3770c1268cb06add3" target="_top" xlink:title=" ">
<polygon fill="none" stroke="black" points="0,-603.66 0,-621.66 38,-621.66 38,-603.66 0,-603.66"/>
<text text-anchor="middle" x="19" y="-610.46" font-family="Calibri" font-size="9.00">main</text>
</a>
</g>
</g>
<!-- Node4&#45;&gt;Node5 -->
<g id="edge4" class="edge"><title>Node4&#45;&gt;Node5</title>
<path fill="none" stroke="midnightblue" d="M63.658,-612.66C54.7022,-612.66 45.6933,-612.66 38.2043,-612.66"/>
<polygon fill="midnightblue" stroke="midnightblue" points="63.663,-616.16 73.663,-612.66 63.6629,-609.16 63.663,-616.16"/>
</g>
<!-- Node6&#45;&gt;Node4 -->
<g id="edge8" class="edge"><title>Node6&#45;&gt;Node4</title>
<path fill="none" stroke="midnightblue" d="M838.472,-622.354C797.131,-633.612 723.969,-650.66 660,-650.66 660,-650.66 660,-650.66 282.5,-650.66 228.093,-650.66 166.293,-632.903 132.632,-621.666"/>
<polygon fill="midnightblue" stroke="midnightblue" points="839.575,-625.68 848.272,-619.63 837.7,-618.936 839.575,-625.68"/>
</g>
<!-- Node6&#45;&gt;Node5 -->
<g id="edge11" class="edge"><title>Node6&#45;&gt;Node5</title>
<path fill="none" stroke="midnightblue" d="M854.801,-629.229C821.081,-660.844 741.138,-726.66 660,-726.66 660,-726.66 660,-726.66 201.5,-726.66 122.986,-726.66 50.5978,-649.216 27.5749,-621.989"/>
<polygon fill="midnightblue" stroke="midnightblue" points="857.556,-631.437 862.351,-621.989 852.711,-626.385 857.556,-631.437"/>
</g>
<!-- Node7 -->
<g id="node7" class="node"><title>Node7</title>
<g id="a_node7"><a xlink:href="main_8c.html#af18ed7edda7874a97cacaa11a2759260" target="_top" xlink:title=" ">
<polygon fill="none" stroke="black" points="175,-375.66 175,-393.66 230,-393.66 230,-375.66 175,-375.66"/>
<text text-anchor="middle" x="202.5" y="-382.46" font-family="Calibri" font-size="9.00">btn_push</text>
</a>
</g>
</g>
<!-- Node6&#45;&gt;Node7 -->
<g id="edge6" class="edge"><title>Node6&#45;&gt;Node7</title>
<path fill="none" stroke="midnightblue" d="M838.213,-612.66C796.548,-612.66 722.997,-612.66 660,-612.66 660,-612.66 660,-612.66 363.5,-612.66 254.696,-612.66 213.553,-436.536 205.184,-393.88"/>
<polygon fill="midnightblue" stroke="midnightblue" points="838.341,-616.16 848.341,-612.66 838.341,-609.16 838.341,-616.16"/>
</g>
<!-- Node8 -->
<g id="node8" class="node"><title>Node8</title>
<g id="a_node8"><a xlink:href="main_8c.html#ac445892220ccb3b4b337dd3e764bd6c6" target="_top" xlink:title="Handle the process of the buttons being pressed (in test mode)">
<polygon fill="none" stroke="black" points="725,-147.66 725,-165.66 811,-165.66 811,-147.66 725,-147.66"/>
<text text-anchor="middle" x="768" y="-154.46" font-family="Calibri" font-size="9.00">button_proc_test</text>
</a>
</g>
</g>
<!-- Node6&#45;&gt;Node8 -->
<g id="edge9" class="edge"><title>Node6&#45;&gt;Node8</title>
<path fill="none" stroke="midnightblue" d="M867.231,-593.666C849.698,-515.67 783.571,-221.486 771.052,-165.791"/>
<polygon fill="midnightblue" stroke="midnightblue" points="863.845,-594.562 869.453,-603.551 870.674,-593.027 863.845,-594.562"/>
</g>
<!-- Node9 -->
<g id="node9" class="node"><title>Node9</title>
<g id="a_node9"><a xlink:href="main_8c.html#a11724d8cce81ed96bec12a004ea3ea7a" target="_top" xlink:title=" ">
<polygon fill="none" stroke="black" points="736,-565.66 736,-583.66 800,-583.66 800,-565.66 736,-565.66"/>
<text text-anchor="middle" x="768" y="-572.46" font-family="Calibri" font-size="9.00">show_reset</text>
</a>
</g>
</g>
<!-- Node6&#45;&gt;Node9 -->
<g id="edge12" class="edge"><title>Node6&#45;&gt;Node9</title>
<path fill="none" stroke="midnightblue" d="M838.747,-600.518C824.015,-595.056 806.929,-588.722 793.355,-583.689"/>
<polygon fill="midnightblue" stroke="midnightblue" points="837.904,-603.938 848.497,-604.132 840.337,-597.374 837.904,-603.938"/>
</g>
<!-- Node7&#45;&gt;Node4 -->
<g id="edge7" class="edge"><title>Node7&#45;&gt;Node4</title>
<path fill="none" stroke="midnightblue" d="M193.796,-403.347C174.61,-449.882 125.237,-569.639 111.246,-603.575"/>
<polygon fill="midnightblue" stroke="midnightblue" points="197.123,-404.46 197.699,-393.88 190.651,-401.792 197.123,-404.46"/>
</g>
<!-- Node8&#45;&gt;Node5 -->
<g id="edge10" class="edge"><title>Node8&#45;&gt;Node5</title>
<path fill="none" stroke="midnightblue" d="M714.723,-156.66C673.511,-156.66 614.587,-156.66 563,-156.66 563,-156.66 563,-156.66 201.5,-156.66 101.595,-156.66 32.4251,-539.283 21.5115,-603.551"/>
<polygon fill="midnightblue" stroke="midnightblue" points="714.804,-160.16 724.804,-156.66 714.804,-153.16 714.804,-160.16"/>
</g>
<!-- Node9&#45;&gt;Node4 -->
<g id="edge13" class="edge"><title>Node9&#45;&gt;Node4</title>
<path fill="none" stroke="midnightblue" d="M725.698,-574.66C684.489,-574.66 619.364,-574.66 563,-574.66 563,-574.66 563,-574.66 282.5,-574.66 228.093,-574.66 166.293,-592.418 132.632,-603.655"/>
<polygon fill="midnightblue" stroke="midnightblue" points="725.895,-578.16 735.895,-574.66 725.895,-571.16 725.895,-578.16"/>
</g>
<!-- Node10 -->
<g id="node10" class="node"><title>Node10</title>
<g id="a_node10"><a xlink:href="main_8h.html#ad7eb7423e0b17ccfba1ae42f3a3274e0" target="_top" xlink:title=" ">
<polygon fill="none" stroke="black" points="635,-460.66 635,-478.66 683,-478.66 683,-460.66 635,-460.66"/>
<text text-anchor="middle" x="659" y="-467.46" font-family="Calibri" font-size="9.00">get_swr</text>
</a>
</g>
</g>
<!-- Node9&#45;&gt;Node10 -->
<g id="edge14" class="edge"><title>Node9&#45;&gt;Node10</title>
<path fill="none" stroke="midnightblue" d="M750.218,-558.192C727.407,-535.807 687.391,-496.539 669.321,-478.807"/>
<polygon fill="midnightblue" stroke="midnightblue" points="747.916,-560.836 757.504,-565.342 752.818,-555.84 747.916,-560.836"/>
</g>
<!-- Node11 -->
<g id="node11" class="node"><title>Node11</title>
<g id="a_node11"><a xlink:href="main_8h.html#a740ef1b33bb02cd952ad7d8708999472" target="_top" xlink:title=" ">
<polygon fill="none" stroke="black" points="531,-489.66 531,-507.66 593,-507.66 593,-489.66 531,-489.66"/>
<text text-anchor="middle" x="562" y="-496.46" font-family="Calibri" font-size="9.00">coarse_cap</text>
</a>
</g>
</g>
<!-- Node10&#45;&gt;Node11 -->
<g id="edge15" class="edge"><title>Node10&#45;&gt;Node11</title>
<path fill="none" stroke="midnightblue" d="M624.869,-479.774C614.398,-482.97 602.9,-486.48 592.686,-489.598"/>
<polygon fill="midnightblue" stroke="midnightblue" points="625.974,-483.096 634.517,-476.829 623.931,-476.401 625.974,-483.096"/>
</g>
<!-- Node12 -->
<g id="node12" class="node"><title>Node12</title>
<g id="a_node12"><a xlink:href="main_8h.html#a5c7c60c7d70cf76cc52e87722bb0f614" target="_top" xlink:title=" ">
<polygon fill="none" stroke="black" points="428,-451.66 428,-469.66 495,-469.66 495,-451.66 428,-451.66"/>
<text text-anchor="middle" x="461.5" y="-458.46" font-family="Calibri" font-size="9.00">coarse_tune</text>
</a>
</g>
</g>
<!-- Node10&#45;&gt;Node12 -->
<g id="edge20" class="edge"><title>Node10&#45;&gt;Node12</title>
<path fill="none" stroke="midnightblue" d="M624.749,-468.129C588.547,-466.463 531.026,-463.815 495.086,-462.16"/>
<polygon fill="midnightblue" stroke="midnightblue" points="624.655,-471.629 634.806,-468.592 624.977,-464.636 624.655,-471.629"/>
</g>
<!-- Node13 -->
<g id="node13" class="node"><title>Node13</title>
<g id="a_node13"><a xlink:href="main_8h.html#a454a7687c8039514766571b23516ca9c" target="_top" xlink:title=" ">
<polygon fill="none" stroke="black" points="337,-451.66 337,-469.66 392,-469.66 392,-451.66 337,-451.66"/>
<text text-anchor="middle" x="364.5" y="-458.46" font-family="Calibri" font-size="9.00">sub_tune</text>
</a>
</g>
</g>
<!-- Node10&#45;&gt;Node13 -->
<g id="edge27" class="edge"><title>Node10&#45;&gt;Node13</title>
<path fill="none" stroke="midnightblue" d="M641.841,-485.844C629.597,-496.897 611.731,-510.598 593,-516.66 514.054,-542.212 416.464,-491.48 380.075,-469.816"/>
<polygon fill="midnightblue" stroke="midnightblue" points="644.495,-488.152 649.361,-478.741 639.688,-483.063 644.495,-488.152"/>
</g>
<!-- Node14 -->
<g id="node14" class="node"><title>Node14</title>
<g id="a_node14"><a xlink:href="main_8h.html#a1849f2e5bd63d11a7b9549470e287d17" target="_top" xlink:title=" ">
<polygon fill="none" stroke="black" points="266,-375.66 266,-393.66 301,-393.66 301,-375.66 266,-375.66"/>
<text text-anchor="middle" x="283.5" y="-382.46" font-family="Calibri" font-size="9.00">tune</text>
</a>
</g>
</g>
<!-- Node10&#45;&gt;Node14 -->
<g id="edge28" class="edge"><title>Node10&#45;&gt;Node14</title>
<path fill="none" stroke="midnightblue" d="M643.687,-452.616C631.376,-438.795 612.556,-419.557 593,-406.66 553.585,-380.667 541.29,-374.953 495,-365.66 423.768,-351.36 336.801,-370.546 301.05,-379.974"/>
<polygon fill="midnightblue" stroke="midnightblue" points="641.26,-455.16 650.459,-460.417 646.546,-450.571 641.26,-455.16"/>
</g>
<!-- Node15 -->
<g id="node15" class="node"><title>Node15</title>
<g id="a_node15"><a xlink:href="main_8h.html#ab518a3d2c723f12d3af3024a195606ce" target="_top" xlink:title=" ">
<polygon fill="none" stroke="black" points="432,-413.66 432,-431.66 491,-431.66 491,-413.66 432,-413.66"/>
<text text-anchor="middle" x="461.5" y="-420.46" font-family="Calibri" font-size="9.00">sharp_cap</text>
</a>
</g>
</g>
<!-- Node10&#45;&gt;Node15 -->
<g id="edge21" class="edge"><title>Node10&#45;&gt;Node15</title>
<path fill="none" stroke="midnightblue" d="M624.857,-461.692C587.271,-452.656 526.606,-438.072 491.04,-429.522"/>
<polygon fill="midnightblue" stroke="midnightblue" points="624.265,-465.15 634.806,-464.084 625.901,-458.344 624.265,-465.15"/>
</g>
<!-- Node16 -->
<g id="node16" class="node"><title>Node16</title>
<g id="a_node16"><a xlink:href="main_8h.html#a72210b3ed1d5691c5bbda8c7f1e97197" target="_top" xlink:title=" ">
<polygon fill="none" stroke="black" points="432.5,-375.66 432.5,-393.66 490.5,-393.66 490.5,-375.66 432.5,-375.66"/>
<text text-anchor="middle" x="461.5" y="-382.46" font-family="Calibri" font-size="9.00">sharp_ind</text>
</a>
</g>
</g>
<!-- Node10&#45;&gt;Node16 -->
<g id="edge24" class="edge"><title>Node10&#45;&gt;Node16</title>
<path fill="none" stroke="midnightblue" d="M633.004,-455.768C621.049,-449.335 606.444,-441.781 593,-435.66 557.357,-419.432 514.931,-403.444 488.351,-393.813"/>
<polygon fill="midnightblue" stroke="midnightblue" points="631.493,-458.93 641.95,-460.637 634.84,-452.782 631.493,-458.93"/>
</g>
<!-- Node11&#45;&gt;Node12 -->
<g id="edge16" class="edge"><title>Node11&#45;&gt;Node12</title>
<path fill="none" stroke="midnightblue" d="M528.041,-485.945C514.272,-480.633 498.589,-474.583 486.017,-469.733"/>
<polygon fill="midnightblue" stroke="midnightblue" points="527.067,-489.321 537.657,-489.655 529.587,-482.79 527.067,-489.321"/>
</g>
<!-- Node12&#45;&gt;Node13 -->
<g id="edge17" class="edge"><title>Node12&#45;&gt;Node13</title>
<path fill="none" stroke="midnightblue" d="M417.785,-460.66C409.104,-460.66 400.207,-460.66 392.271,-460.66"/>
<polygon fill="midnightblue" stroke="midnightblue" points="417.806,-464.16 427.806,-460.66 417.806,-457.16 417.806,-464.16"/>
</g>
<!-- Node13&#45;&gt;Node14 -->
<g id="edge18" class="edge"><title>Node13&#45;&gt;Node14</title>
<path fill="none" stroke="midnightblue" d="M345.821,-444.85C342.855,-442.14 339.825,-439.336 337,-436.66 321.539,-422.016 304.054,-404.499 293.671,-393.992"/>
<polygon fill="midnightblue" stroke="midnightblue" points="343.572,-447.535 353.336,-451.648 348.268,-442.344 343.572,-447.535"/>
</g>
<!-- Node14&#45;&gt;Node7 -->
<g id="edge19" class="edge"><title>Node14&#45;&gt;Node7</title>
<path fill="none" stroke="midnightblue" d="M255.568,-384.66C247.367,-384.66 238.36,-384.66 230.177,-384.66"/>
<polygon fill="midnightblue" stroke="midnightblue" points="255.746,-388.16 265.746,-384.66 255.746,-381.16 255.746,-388.16"/>
</g>
<!-- Node15&#45;&gt;Node13 -->
<g id="edge22" class="edge"><title>Node15&#45;&gt;Node13</title>
<path fill="none" stroke="midnightblue" d="M428.325,-435.53C415.139,-440.804 400.189,-446.785 388.181,-451.588"/>
<polygon fill="midnightblue" stroke="midnightblue" points="430.001,-438.629 437.986,-431.666 427.402,-432.13 430.001,-438.629"/>
</g>
<!-- Node15&#45;&gt;Node14 -->
<g id="edge23" class="edge"><title>Node15&#45;&gt;Node14</title>
<path fill="none" stroke="midnightblue" d="M421.972,-415.876C397.538,-411.401 365.309,-405.177 337,-398.66 325.05,-395.909 311.698,-392.342 301.45,-389.497"/>
<polygon fill="midnightblue" stroke="midnightblue" points="421.468,-419.342 431.933,-417.683 422.718,-412.455 421.468,-419.342"/>
</g>
<!-- Node16&#45;&gt;Node13 -->
<g id="edge25" class="edge"><title>Node16&#45;&gt;Node13</title>
<path fill="none" stroke="midnightblue" d="M434.673,-399.077C432.375,-400.563 430.119,-402.101 428,-403.66 407.416,-418.801 385.94,-439.693 374.294,-451.523"/>
<polygon fill="midnightblue" stroke="midnightblue" points="436.82,-401.868 443.539,-393.676 433.178,-395.89 436.82,-401.868"/>
</g>
<!-- Node16&#45;&gt;Node14 -->
<g id="edge26" class="edge"><title>Node16&#45;&gt;Node14</title>
<path fill="none" stroke="midnightblue" d="M422.097,-384.66C384.36,-384.66 328.557,-384.66 301.055,-384.66"/>
<polygon fill="midnightblue" stroke="midnightblue" points="422.223,-388.16 432.223,-384.66 422.223,-381.16 422.223,-388.16"/>
</g>
<!-- Node17&#45;&gt;Node5 -->
<g id="edge30" class="edge"><title>Node17&#45;&gt;Node5</title>
<path fill="none" stroke="midnightblue" d="M1155.84,-594.171C1157.03,-502.305 1157.31,-113.44 1079,-28.6602 1044.16,9.05406 1017.34,-4.66022 966,-4.66022 966,-4.66022 966,-4.66022 201.5,-4.66022 143.838,-4.66022 112.816,13.9807 74,-28.6602 33.5603,-73.0853 21.7892,-531.916 20.1968,-603.337"/>
<polygon fill="midnightblue" stroke="midnightblue" points="1152.34,-594.23 1155.69,-604.281 1159.34,-594.335 1152.34,-594.23"/>
</g>
<!-- Node18&#45;&gt;Node4 -->
<g id="edge33" class="edge"><title>Node18&#45;&gt;Node4</title>
<path fill="none" stroke="midnightblue" d="M1118.65,-662.549C1080.78,-673.697 1019.9,-688.66 966,-688.66 966,-688.66 966,-688.66 282.5,-688.66 215.922,-688.66 146.01,-641.808 119.043,-621.677"/>
<polygon fill="midnightblue" stroke="midnightblue" points="1119.66,-665.9 1128.23,-659.666 1117.64,-659.197 1119.66,-665.9"/>
</g>
<!-- Node18&#45;&gt;Node5 -->
<g id="edge53" class="edge"><title>Node18&#45;&gt;Node5</title>
<path fill="none" stroke="midnightblue" d="M1118.5,-635.81C1117.21,-634.536 1116.03,-633.155 1115,-631.66 1053.7,-542.653 1126.05,-243.953 1079,-146.66 1049.28,-85.214 1034.26,-42.6602 966,-42.6602 966,-42.6602 966,-42.6602 201.5,-42.6602 132.898,-42.6602 109.369,-70.8789 74,-129.66 23.4286,-213.706 20.1744,-543.485 20.0031,-603.322"/>
<polygon fill="midnightblue" stroke="midnightblue" points="1116.78,-638.886 1126.9,-642.007 1120.93,-633.254 1116.78,-638.886"/>
</g>
<!-- Node18&#45;&gt;Node6 -->
<g id="edge50" class="edge"><title>Node18&#45;&gt;Node6</title>
<path fill="none" stroke="midnightblue" d="M1116.61,-647.861C1072.22,-644.339 997.553,-637.417 934,-626.66 921.563,-624.555 907.857,-621.45 896.64,-618.699"/>
<polygon fill="midnightblue" stroke="midnightblue" points="1116.44,-651.358 1126.68,-648.643 1116.98,-644.379 1116.44,-651.358"/>
</g>
<!-- Node18&#45;&gt;Node7 -->
<g id="edge32" class="edge"><title>Node18&#45;&gt;Node7</title>
<path fill="none" stroke="midnightblue" d="M1118.44,-635.659C1117.18,-634.426 1116.02,-633.096 1115,-631.66 1026.38,-507.135 1150.12,-424.944 1079,-289.66 1048.47,-231.585 1031.61,-194.66 966,-194.66 966,-194.66 966,-194.66 363.5,-194.66 267.764,-194.66 217.748,-337.543 206.151,-375.496"/>
<polygon fill="midnightblue" stroke="midnightblue" points="1116.48,-638.56 1126.6,-641.699 1120.65,-632.935 1116.48,-638.56"/>
</g>
<!-- Node18&#45;&gt;Node8 -->
<g id="edge34" class="edge"><title>Node18&#45;&gt;Node8</title>
<path fill="none" stroke="midnightblue" d="M1118.51,-635.803C1117.22,-634.531 1116.03,-633.152 1115,-631.66 1057.74,-549.016 1149,-252.826 1079,-180.66 1005.14,-104.525 862.024,-131.129 799.485,-147.609"/>
<polygon fill="midnightblue" stroke="midnightblue" points="1116.79,-638.883 1126.92,-641.993 1120.94,-633.246 1116.79,-638.883"/>
</g>
<!-- Node18&#45;&gt;Node9 -->
<g id="edge57" class="edge"><title>Node18&#45;&gt;Node9</title>
<path fill="none" stroke="midnightblue" d="M1123.46,-637.031C1120.51,-635.365 1117.64,-633.57 1115,-631.66 1096.14,-618.038 1100.08,-603.502 1079,-593.66 985.438,-549.976 858.386,-561.016 800.302,-569.352"/>
<polygon fill="midnightblue" stroke="midnightblue" points="1121.89,-640.161 1132.38,-641.628 1125.09,-633.937 1121.89,-640.161"/>
</g>
<!-- Node19 -->
<g id="node19" class="node"><title>Node19</title>
<g id="a_node19"><a xlink:href="main_8c.html#a6911b3f075cdf1d54cb14f17f6e5ef6b" target="_top" xlink:title=" ">
<polygon fill="none" stroke="black" points="1032,-299.66 1032,-317.66 1079,-317.66 1079,-299.66 1032,-299.66"/>
<text text-anchor="middle" x="1055.5" y="-306.46" font-family="Calibri" font-size="9.00">lcd_ind</text>
</a>
</g>
</g>
<!-- Node18&#45;&gt;Node19 -->
<g id="edge35" class="edge"><title>Node18&#45;&gt;Node19</title>
<path fill="none" stroke="midnightblue" d="M1118.57,-635.562C1117.28,-634.355 1116.07,-633.057 1115,-631.66 1095.11,-605.799 1063.99,-367.745 1057.65,-317.818"/>
<polygon fill="midnightblue" stroke="midnightblue" points="1116.69,-638.517 1126.85,-641.512 1120.78,-632.833 1116.69,-638.517"/>
</g>
<!-- Node20 -->
<g id="node20" class="node"><title>Node20</title>
<g id="a_node20"><a xlink:href="main_8c.html#a46f52cccc77b5d2d91f35334046bc8eb" target="_top" xlink:title=" ">
<polygon fill="none" stroke="black" points="939,-784.66 939,-802.66 991,-802.66 991,-784.66 939,-784.66"/>
<text text-anchor="middle" x="965" y="-791.46" font-family="Calibri" font-size="9.00">lcd_prep</text>
</a>
</g>
</g>
<!-- Node18&#45;&gt;Node20 -->
<g id="edge49" class="edge"><title>Node18&#45;&gt;Node20</title>
<path fill="none" stroke="midnightblue" d="M1135.27,-665.925C1095.93,-695.609 1010.19,-760.31 978.286,-784.389"/>
<polygon fill="midnightblue" stroke="midnightblue" points="1137.48,-668.64 1143.36,-659.823 1133.27,-663.053 1137.48,-668.64"/>
</g>
<!-- Node21 -->
<g id="node21" class="node"><title>Node21</title>
<g id="a_node21"><a xlink:href="main_8c.html#a7a367b10f22edd310a36627b6c941255" target="_top" xlink:title=" ">
<polygon fill="none" stroke="black" points="847,-831.66 847,-849.66 898,-849.66 898,-831.66 847,-831.66"/>
<text text-anchor="middle" x="872.5" y="-838.46" font-family="Calibri" font-size="9.00">test_init</text>
</a>
</g>
</g>
<!-- Node18&#45;&gt;Node21 -->
<g id="edge58" class="edge"><title>Node18&#45;&gt;Node21</title>
<path fill="none" stroke="midnightblue" d="M1143.86,-668.448C1120.43,-702.624 1063.98,-777.127 996,-811.66 964.434,-827.696 923.764,-835.05 898.152,-838.288"/>
<polygon fill="midnightblue" stroke="midnightblue" points="1146.9,-670.198 1149.57,-659.945 1141.09,-666.293 1146.9,-670.198"/>
</g>
<!-- Node22 -->
<g id="node22" class="node"><title>Node22</title>
<g id="a_node22"><a xlink:href="main_8c.html#a4ae0d4fa97fc0ca3611813fee4f9af7c" target="_top" xlink:title=" ">
<polygon fill="none" stroke="black" points="936,-484.66 936,-502.66 994,-502.66 994,-484.66 936,-484.66"/>
<text text-anchor="middle" x="965" y="-491.46" font-family="Calibri" font-size="9.00">show_pwr</text>
</a>
</g>
</g>
<!-- Node18&#45;&gt;Node22 -->
<g id="edge56" class="edge"><title>Node18&#45;&gt;Node22</title>
<path fill="none" stroke="midnightblue" d="M1120.46,-636.183C1118.52,-634.791 1116.68,-633.286 1115,-631.66 1089.6,-607.029 1103.18,-586.489 1079,-560.66 1053.44,-533.354 1014.25,-513.537 989.388,-502.82"/>
<polygon fill="midnightblue" stroke="midnightblue" points="1119.07,-639.433 1129.45,-641.572 1122.67,-633.429 1119.07,-639.433"/>
</g>
<!-- Node23 -->
<g id="node23" class="node"><title>Node23</title>
<g id="a_node23"><a xlink:href="main_8c.html#aa8fd50019a763561abc6621bb224417f" target="_top" xlink:title=" ">
<polygon fill="none" stroke="black" points="1032,-603.66 1032,-621.66 1079,-621.66 1079,-603.66 1032,-603.66"/>
<text text-anchor="middle" x="1055.5" y="-610.46" font-family="Calibri" font-size="9.00">lcd_swr</text>
</a>
</g>
</g>
<!-- Node18&#45;&gt;Node23 -->
<g id="edge51" class="edge"><title>Node18&#45;&gt;Node23</title>
<path fill="none" stroke="midnightblue" d="M1122.57,-638.019C1108.3,-632.545 1091.97,-626.275 1079.11,-621.339"/>
<polygon fill="midnightblue" stroke="midnightblue" points="1121.45,-641.339 1132.04,-641.655 1123.96,-634.804 1121.45,-641.339"/>
</g>
<!-- Node24 -->
<g id="node24" class="node"><title>Node24</title>
<g id="a_node24"><a xlink:href="main_8c.html#aad7203cfd92bc4b814e43c04a209f634" target="_top" xlink:title=" ">
<polygon fill="none" stroke="black" points="629,-869.66 629,-887.66 689,-887.66 689,-869.66 629,-869.66"/>
<text text-anchor="middle" x="659" y="-876.46" font-family="Calibri" font-size="9.00">show_loss</text>
</a>
</g>
</g>
<!-- Node18&#45;&gt;Node24 -->
<g id="edge54" class="edge"><title>Node18&#45;&gt;Node24</title>
<path fill="none" stroke="midnightblue" d="M1147.43,-669.102C1135.12,-696.022 1109.79,-746.872 1079,-783.66 1036.89,-833.976 1031.61,-878.66 966,-878.66 966,-878.66 966,-878.66 871.5,-878.66 806.324,-878.66 729.851,-878.66 689.08,-878.66"/>
<polygon fill="midnightblue" stroke="midnightblue" points="1150.73,-670.292 1151.63,-659.735 1144.35,-667.429 1150.73,-670.292"/>
</g>
<!-- Node19&#45;&gt;Node4 -->
<g id="edge37" class="edge"><title>Node19&#45;&gt;Node4</title>
<path fill="none" stroke="midnightblue" d="M1033.92,-293.624C1001.52,-271.471 935.849,-232.66 873.5,-232.66 873.5,-232.66 873.5,-232.66 282.5,-232.66 113.631,-232.66 107.151,-546.097 107.384,-603.642"/>
<polygon fill="midnightblue" stroke="midnightblue" points="1032.31,-296.77 1042.51,-299.644 1036.33,-291.038 1032.31,-296.77"/>
</g>
<!-- Node19&#45;&gt;Node5 -->
<g id="edge43" class="edge"><title>Node19&#45;&gt;Node5</title>
<path fill="none" stroke="midnightblue" d="M1049.66,-289.357C1042.12,-262.721 1025.33,-214.499 996,-183.66 953.524,-139 935.134,-118.66 873.5,-118.66 873.5,-118.66 873.5,-118.66 201.5,-118.66 131.881,-118.66 109.917,-150.021 74,-209.66 32.0285,-279.353 21.8605,-550.258 20.2513,-603.536"/>
<polygon fill="midnightblue" stroke="midnightblue" points="1046.36,-290.582 1052.33,-299.337 1053.12,-288.772 1046.36,-290.582"/>
</g>
<!-- Node19&#45;&gt;Node7 -->
<g id="edge36" class="edge"><title>Node19&#45;&gt;Node7</title>
<path fill="none" stroke="midnightblue" d="M1022.06,-297.616C986.166,-286.396 926.395,-270.66 873.5,-270.66 873.5,-270.66 873.5,-270.66 363.5,-270.66 291.533,-270.66 229.505,-348.105 209.922,-375.331"/>
<polygon fill="midnightblue" stroke="midnightblue" points="1021.37,-301.07 1031.96,-300.787 1023.51,-294.403 1021.37,-301.07"/>
</g>
<!-- Node19&#45;&gt;Node8 -->
<g id="edge38" class="edge"><title>Node19&#45;&gt;Node8</title>
<path fill="none" stroke="midnightblue" d="M1047.29,-290.175C1038.34,-269.646 1021.11,-236.988 996,-218.66 940.563,-178.196 860.127,-164.14 811.377,-159.258"/>
<polygon fill="midnightblue" stroke="midnightblue" points="1044.06,-291.516 1051.12,-299.415 1050.52,-288.837 1044.06,-291.516"/>
</g>
<!-- Node19&#45;&gt;Node9 -->
<g id="edge47" class="edge"><title>Node19&#45;&gt;Node9</title>
<path fill="none" stroke="midnightblue" d="M1037.31,-324.677C983.671,-374.651 820.488,-526.689 778.786,-565.542"/>
<polygon fill="midnightblue" stroke="midnightblue" points="1039.74,-327.194 1044.67,-317.817 1034.97,-322.073 1039.74,-327.194"/>
</g>
<!-- Node19&#45;&gt;Node14 -->
<g id="edge48" class="edge"><title>Node19&#45;&gt;Node14</title>
<path fill="none" stroke="midnightblue" d="M1021.46,-308.66C985.176,-308.66 925.187,-308.66 873.5,-308.66 873.5,-308.66 873.5,-308.66 460.5,-308.66 393.602,-308.66 323.256,-355.512 296.117,-375.644"/>
<polygon fill="midnightblue" stroke="midnightblue" points="1021.93,-312.16 1031.93,-308.66 1021.93,-305.16 1021.93,-312.16"/>
</g>
<!-- Node19&#45;&gt;Node20 -->
<g id="edge39" class="edge"><title>Node19&#45;&gt;Node20</title>
<path fill="none" stroke="midnightblue" d="M1052.72,-328.419C1045.19,-410.735 1015.5,-723.973 996,-763.66 991.973,-771.858 984.808,-779.153 978.491,-784.496"/>
<polygon fill="midnightblue" stroke="midnightblue" points="1056.24,-328.286 1053.66,-318.01 1049.27,-327.652 1056.24,-328.286"/>
</g>
<!-- Node19&#45;&gt;Node22 -->
<g id="edge44" class="edge"><title>Node19&#45;&gt;Node22</title>
<path fill="none" stroke="midnightblue" d="M1045.75,-326.96C1027.15,-365.83 984.283,-455.441 970.415,-484.431"/>
<polygon fill="midnightblue" stroke="midnightblue" points="1048.95,-328.366 1050.11,-317.834 1042.64,-325.345 1048.95,-328.366"/>
</g>
<!-- Node20&#45;&gt;Node5 -->
<g id="edge40" class="edge"><title>Node20&#45;&gt;Node5</title>
<path fill="none" stroke="midnightblue" d="M928.462,-796.286C889.393,-798.943 824.76,-802.66 769,-802.66 769,-802.66 769,-802.66 201.5,-802.66 100.228,-802.66 38.1091,-659.778 23.3951,-621.824"/>
<polygon fill="midnightblue" stroke="midnightblue" points="929.042,-799.754 938.775,-795.569 928.556,-792.771 929.042,-799.754"/>
</g>
<!-- Node20&#45;&gt;Node21 -->
<g id="edge41" class="edge"><title>Node20&#45;&gt;Node21</title>
<path fill="none" stroke="midnightblue" d="M937.264,-807.545C922.282,-815.326 904.028,-824.806 890.896,-831.626"/>
<polygon fill="midnightblue" stroke="midnightblue" points="939.289,-810.437 946.551,-802.722 936.063,-804.225 939.289,-810.437"/>
</g>
<!-- Node21&#45;&gt;Node5 -->
<g id="edge42" class="edge"><title>Node21&#45;&gt;Node5</title>
<path fill="none" stroke="midnightblue" d="M836.52,-840.66C794.578,-840.66 722.152,-840.66 660,-840.66 660,-840.66 660,-840.66 201.5,-840.66 143.838,-840.66 116.228,-855.924 74,-816.66 44.4865,-789.218 25.819,-658.283 21.1524,-622"/>
<polygon fill="midnightblue" stroke="midnightblue" points="836.754,-844.16 846.754,-840.66 836.754,-837.16 836.754,-844.16"/>
</g>
<!-- Node22&#45;&gt;Node6 -->
<g id="edge46" class="edge"><title>Node22&#45;&gt;Node6</title>
<path fill="none" stroke="midnightblue" d="M950.751,-511.081C931.295,-536.664 895.672,-583.506 880.568,-603.366"/>
<polygon fill="midnightblue" stroke="midnightblue" points="953.631,-513.076 956.899,-502.998 948.059,-508.839 953.631,-513.076"/>
</g>
<!-- Node22&#45;&gt;Node10 -->
<g id="edge45" class="edge"><title>Node22&#45;&gt;Node10</title>
<path fill="none" stroke="midnightblue" d="M925.896,-490.652C862.09,-485.615 735.498,-475.621 683.318,-471.501"/>
<polygon fill="midnightblue" stroke="midnightblue" points="925.701,-494.147 935.945,-491.445 926.252,-487.169 925.701,-494.147"/>
</g>
<!-- Node23&#45;&gt;Node6 -->
<g id="edge52" class="edge"><title>Node23&#45;&gt;Node6</title>
<path fill="none" stroke="midnightblue" d="M1021.91,-612.66C985.779,-612.66 928.42,-612.66 896.628,-612.66"/>
<polygon fill="midnightblue" stroke="midnightblue" points="1021.94,-616.16 1031.94,-612.66 1021.94,-609.16 1021.94,-616.16"/>
</g>
<!-- Node24&#45;&gt;Node5 -->
<g id="edge55" class="edge"><title>Node24&#45;&gt;Node5</title>
<path fill="none" stroke="midnightblue" d="M618.85,-878.66C579.382,-878.66 516.713,-878.66 462.5,-878.66 462.5,-878.66 462.5,-878.66 201.5,-878.66 143.838,-878.66 115.45,-894.745 74,-854.66 39.4198,-821.219 24.0605,-661.714 20.718,-621.754"/>
<polygon fill="midnightblue" stroke="midnightblue" points="618.853,-882.16 628.853,-878.66 618.853,-875.16 618.853,-882.16"/>
</g>
<!-- Node26&#45;&gt;Node17 -->
<g id="edge61" class="edge"><title>Node26&#45;&gt;Node17</title>
<path fill="none" stroke="midnightblue" d="M1229.33,-613.66C1213.47,-613.66 1195.29,-613.66 1181.19,-613.66"/>
<polygon fill="midnightblue" stroke="midnightblue" points="1229.36,-617.16 1239.36,-613.66 1229.36,-610.16 1229.36,-617.16"/>
</g>
<!-- Node27&#45;&gt;Node18 -->
<g id="edge63" class="edge"><title>Node27&#45;&gt;Node18</title>
<path fill="none" stroke="midnightblue" d="M1223.74,-650.66C1211.22,-650.66 1197.78,-650.66 1186.3,-650.66"/>
<polygon fill="midnightblue" stroke="midnightblue" points="1223.97,-654.16 1233.97,-650.66 1223.97,-647.16 1223.97,-654.16"/>
</g>
<!-- Node28&#45;&gt;Node3 -->
<g id="edge65" class="edge"><title>Node28&#45;&gt;Node3</title>
<path fill="none" stroke="midnightblue" d="M1324.8,-774.924C1316.23,-776.393 1307.38,-777.722 1299,-778.66 1217.71,-787.759 1196.19,-792.59 1115,-782.66 1071.88,-777.386 1023.26,-763.828 993.631,-754.673"/>
<polygon fill="midnightblue" stroke="midnightblue" points="1325.47,-778.36 1334.69,-773.149 1324.23,-771.47 1325.47,-778.36"/>
</g>
<!-- Node28&#45;&gt;Node25 -->
<g id="edge67" class="edge"><title>Node28&#45;&gt;Node25</title>
<path fill="none" stroke="midnightblue" d="M1324.54,-764.66C1286.24,-764.66 1234.04,-764.66 1198.25,-764.66"/>
<polygon fill="midnightblue" stroke="midnightblue" points="1324.95,-768.16 1334.95,-764.66 1324.95,-761.16 1324.95,-768.16"/>
</g>
<!-- Node28&#45;&gt;Node26 -->
<g id="edge66" class="edge"><title>Node28&#45;&gt;Node26</title>
<path fill="none" stroke="midnightblue" d="M1367.59,-745.854C1356.62,-718.072 1332.93,-665.686 1299,-631.66 1295.62,-628.271 1291.47,-625.307 1287.31,-622.815"/>
<polygon fill="midnightblue" stroke="midnightblue" points="1364.44,-747.424 1371.28,-755.517 1370.98,-744.926 1364.44,-747.424"/>
</g>
<!-- Node29&#45;&gt;Node26 -->
<g id="edge69" class="edge"><title>Node29&#45;&gt;Node26</title>
<path fill="none" stroke="midnightblue" d="M1338.56,-638.231C1323.9,-633.163 1307.26,-627.41 1293.78,-622.746"/>
<polygon fill="midnightblue" stroke="midnightblue" points="1337.73,-641.649 1348.32,-641.609 1340.02,-635.033 1337.73,-641.649"/>
</g>
<!-- Node29&#45;&gt;Node27 -->
<g id="edge70" class="edge"><title>Node29&#45;&gt;Node27</title>
<path fill="none" stroke="midnightblue" d="M1325.02,-650.66C1316.18,-650.66 1307.19,-650.66 1299.03,-650.66"/>
<polygon fill="midnightblue" stroke="midnightblue" points="1325.26,-654.16 1335.26,-650.66 1325.26,-647.16 1325.26,-654.16"/>
</g>
</g>
</svg>
        <g id="navigator" transform="translate(0 0)" fill="#404254">
                <rect fill="#f2f5e9" fill-opacity="0.5" stroke="#606060" stroke-width=".5" x="0" y="0" width="60" height="60"/>
                <use id="zoomplus" xlink:href="#zoomPlus" x="17" y="9" onmousedown="handleZoom(evt,'in')"/>
                <use id="zoomminus" xlink:href="#zoomMin" x="42" y="9" onmousedown="handleZoom(evt,'out')"/>
                <use id="reset" xlink:href="#resetDef" x="30" y="36" onmousedown="handleReset()"/>
                <g id="arrowUp" xlink:href="#dirArrow" transform="translate(30 24)" onmousedown="handlePan(0,-1)">
                  <use xlink:href="#rim" fill="#404040">
                        <set attributeName="fill" to="#808080" begin="arrowUp.mouseover" end="arrowUp.mouseout"/>
                  </use>
                  <path fill="none" stroke="white" stroke-width="1.5" d="M0,-3.0v7 M-2.5,-0.5L0,-3.0L2.5,-0.5"/>
                </g>
                <g id="arrowRight" xlink:href="#dirArrow" transform="rotate(90) translate(36 -43)" onmousedown="handlePan(1,0)">
                  <use xlink:href="#rim" fill="#404040">
                        <set attributeName="fill" to="#808080" begin="arrowRight.mouseover" end="arrowRight.mouseout"/>
                  </use>
                  <path fill="none" stroke="white" stroke-width="1.5" d="M0,-3.0v7 M-2.5,-0.5L0,-3.0L2.5,-0.5"/>
                </g>
                <g id="arrowDown" xlink:href="#dirArrow" transform="rotate(180) translate(-30 -48)" onmousedown="handlePan(0,1)">
                  <use xlink:href="#rim" fill="#404040">
                        <set attributeName="fill" to="#808080" begin="arrowDown.mouseover" end="arrowDown.mouseout"/>
                  </use>
                  <path fill="none" stroke="white" stroke-width="1.5" d="M0,-3.0v7 M-2.5,-0.5L0,-3.0L2.5,-0.5"/>
                </g>
                <g id="arrowLeft" xlink:href="#dirArrow" transform="rotate(270) translate(-36 17)" onmousedown="handlePan(-1,0)">
                  <use xlink:href="#rim" fill="#404040">
                        <set attributeName="fill" to="#808080" begin="arrowLeft.mouseover" end="arrowLeft.mouseout"/>
                  </use>
                  <path fill="none" stroke="white" stroke-width="1.5" d="M0,-3.0v7 M-2.5,-0.5L0,-3.0L2.5,-0.5"/>
                </g>
        </g>
        <svg viewBox="0 0 15 15" width="100%" height="30px" preserveAspectRatio="xMaxYMin meet">
         <g id="arrow_out" transform="scale(0.3 0.3)">
          <a xlink:href="oled__control_8h_a1f4f27e6bb2e8fd13f1ecb58ff343fbb_icgraph_org.svg" target="_base">
           <rect id="button" ry="5" rx="5" y="6" x="6" height="38" width="38"
                fill="#f2f5e9" fill-opacity="0.5" stroke="#606060" stroke-width="1.0"/>
           <path id="arrow"
             d="M 11.500037,31.436501 C 11.940474,20.09759 22.043105,11.32322 32.158766,21.979434 L 37.068811,17.246167 C 37.068811,17.246167 37.088388,32 37.088388,32 L 22.160133,31.978069 C 22.160133,31.978069 26.997745,27.140456 26.997745,27.140456 C 18.528582,18.264221 13.291696,25.230495 11.500037,31.436501 z"
             style="fill:#404040;"/>
          </a>
         </g>
        </svg>
</svg>
