<?xml version="1.0" encoding="UTF-8" standalone="no"?>
<!DOCTYPE svg PUBLIC "-//W3C//DTD SVG 1.1//EN"
 "http://www.w3.org/Graphics/SVG/1.1/DTD/svg11.dtd">
<!-- Generated by graphviz version 2.38.0 (20140413.2041)
 -->
<!-- Title: oled_wr_str Pages: 1 -->
<svg width="1281pt" height="778pt"
 viewBox="0.00 0.00 1281.00 777.50" xmlns="http://www.w3.org/2000/svg" xmlns:xlink="http://www.w3.org/1999/xlink">
<g id="graph0" class="graph" transform="scale(1 1) rotate(0) translate(4 773.5)">
<title>oled_wr_str</title>
<!-- Node107 -->
<g id="node1" class="node"><title>Node107</title>
<polygon fill="#bfbfbf" stroke="black" points="0,-247.5 0,-265.5 65,-265.5 65,-247.5 0,-247.5"/>
<text text-anchor="middle" x="32.5" y="-254.3" font-family="Calibri" font-size="9.00">oled_wr_str</text>
</g>
<!-- Node108 -->
<g id="node2" class="node"><title>Node108</title>
<g id="a_node2"><a xlink:href="oled__control_8c.html#a9d56c6c2e653b24a0caf505492ad818a" target="_top" xlink:title="led_wr_str">
<polygon fill="none" stroke="black" points="101,-247.5 101,-265.5 160,-265.5 160,-247.5 101,-247.5"/>
<text text-anchor="middle" x="130.5" y="-254.3" font-family="Calibri" font-size="9.00">led_wr_str</text>
</a>
</g>
</g>
<!-- Node107&#45;&gt;Node108 -->
<g id="edge1" class="edge"><title>Node107&#45;&gt;Node108</title>
<path fill="none" stroke="midnightblue" d="M75.4245,-256.5C83.9741,-256.5 92.785,-256.5 100.749,-256.5"/>
<polygon fill="midnightblue" stroke="midnightblue" points="75.2001,-253 65.2,-256.5 75.2,-260 75.2001,-253"/>
</g>
<!-- Node109 -->
<g id="node3" class="node"><title>Node109</title>
<g id="a_node3"><a xlink:href="main_8h.html#ae9b379f911db06ddd04a15d876ac0732" target="_top" xlink:title="btn_push">
<polygon fill="none" stroke="black" points="1043,-456.5 1043,-474.5 1098,-474.5 1098,-456.5 1043,-456.5"/>
<text text-anchor="middle" x="1070.5" y="-463.3" font-family="Calibri" font-size="9.00">btn_push</text>
</a>
</g>
</g>
<!-- Node108&#45;&gt;Node109 -->
<g id="edge2" class="edge"><title>Node108&#45;&gt;Node109</title>
<path fill="none" stroke="midnightblue" d="M131.075,-275.661C130.391,-355.235 138.941,-655.5 307,-655.5 307,-655.5 307,-655.5 909.5,-655.5 1005.24,-655.5 1055.25,-512.617 1066.85,-474.664"/>
<polygon fill="midnightblue" stroke="midnightblue" points="134.576,-275.634 131.225,-265.583 127.577,-275.53 134.576,-275.634"/>
</g>
<!-- Node110 -->
<g id="node4" class="node"><title>Node110</title>
<g id="a_node4"><a xlink:href="main_8h.html#a1c9e5d54d8cf7f3d041aa2e0b330b3dd" target="_top" xlink:title="button_proc">
<polygon fill="none" stroke="black" points="1134,-361.5 1134,-379.5 1199,-379.5 1199,-361.5 1134,-361.5"/>
<text text-anchor="middle" x="1166.5" y="-368.3" font-family="Calibri" font-size="9.00">button_proc</text>
</a>
</g>
</g>
<!-- Node108&#45;&gt;Node110 -->
<g id="edge5" class="edge"><title>Node108&#45;&gt;Node110</title>
<path fill="none" stroke="midnightblue" d="M133.167,-275.567C139.284,-342.73 161.933,-567.668 196,-630.5 227.792,-689.135 240.301,-731.5 307,-731.5 307,-731.5 307,-731.5 990.5,-731.5 1151.74,-731.5 1164.47,-436.291 1165.43,-379.786"/>
<polygon fill="midnightblue" stroke="midnightblue" points="136.648,-275.205 132.272,-265.556 129.676,-275.828 136.648,-275.205"/>
</g>
<!-- Node111 -->
<g id="node5" class="node"><title>Node111</title>
<g id="a_node5"><a xlink:href="main_8c.html#acdef7a1fd863a6d3770c1268cb06add3" target="_top" xlink:title="main">
<polygon fill="none" stroke="black" points="1235,-133.5 1235,-151.5 1273,-151.5 1273,-133.5 1235,-133.5"/>
<text text-anchor="middle" x="1254" y="-140.3" font-family="Calibri" font-size="9.00">main</text>
</a>
</g>
</g>
<!-- Node108&#45;&gt;Node111 -->
<g id="edge47" class="edge"><title>Node108&#45;&gt;Node111</title>
<path fill="none" stroke="midnightblue" d="M132.533,-275.97C136.741,-349.899 154.392,-612.613 196,-683.5 227.591,-737.321 244.592,-769.5 307,-769.5 307,-769.5 307,-769.5 1071.5,-769.5 1175.05,-769.5 1163.33,-671.709 1199,-574.5 1258.11,-413.428 1254.85,-198.338 1253.35,-151.674"/>
<polygon fill="midnightblue" stroke="midnightblue" points="136.016,-275.577 131.971,-265.785 129.027,-275.962 136.016,-275.577"/>
</g>
<!-- Node112 -->
<g id="node6" class="node"><title>Node112</title>
<g id="a_node6"><a xlink:href="main_8h.html#ac445892220ccb3b4b337dd3e764bd6c6" target="_top" xlink:title="button_proc_test">
<polygon fill="none" stroke="black" points="462,-114.5 462,-132.5 548,-132.5 548,-114.5 462,-114.5"/>
<text text-anchor="middle" x="505" y="-121.3" font-family="Calibri" font-size="9.00">button_proc_test</text>
</a>
</g>
</g>
<!-- Node108&#45;&gt;Node112 -->
<g id="edge6" class="edge"><title>Node108&#45;&gt;Node112</title>
<path fill="none" stroke="midnightblue" d="M153.938,-242.008C166.059,-234.6 181.48,-225.836 196,-219.5 289.685,-178.617 406.325,-147.236 465.58,-132.586"/>
<polygon fill="midnightblue" stroke="midnightblue" points="152.013,-239.084 145.381,-247.346 155.718,-245.023 152.013,-239.084"/>
</g>
<!-- Node113 -->
<g id="node7" class="node"><title>Node113</title>
<g id="a_node7"><a xlink:href="main_8h.html#abf3918c21112474db61609b3462577ee" target="_top" xlink:title="lcd_ind">
<polygon fill="none" stroke="black" points="196,-380.5 196,-398.5 243,-398.5 243,-380.5 196,-380.5"/>
<text text-anchor="middle" x="219.5" y="-387.3" font-family="Calibri" font-size="9.00">lcd_ind</text>
</a>
</g>
</g>
<!-- Node108&#45;&gt;Node113 -->
<g id="edge8" class="edge"><title>Node108&#45;&gt;Node113</title>
<path fill="none" stroke="midnightblue" d="M143.109,-274.247C161.86,-302.913 198.156,-358.399 212.478,-380.294"/>
<polygon fill="midnightblue" stroke="midnightblue" points="145.883,-272.094 137.48,-265.642 140.025,-275.926 145.883,-272.094"/>
</g>
<!-- Node114 -->
<g id="node8" class="node"><title>Node114</title>
<g id="a_node8"><a xlink:href="main_8h.html#a5b51833f12193accc58a0162848dc02e" target="_top" xlink:title="lcd_prep">
<polygon fill="none" stroke="black" points="282,-86.5 282,-104.5 334,-104.5 334,-86.5 282,-86.5"/>
<text text-anchor="middle" x="308" y="-93.3" font-family="Calibri" font-size="9.00">lcd_prep</text>
</a>
</g>
</g>
<!-- Node108&#45;&gt;Node114 -->
<g id="edge43" class="edge"><title>Node108&#45;&gt;Node114</title>
<path fill="none" stroke="midnightblue" d="M135.971,-237.408C143.517,-209.404 161.454,-157.391 196,-128.5 220.521,-107.993 257.401,-100.229 281.829,-97.2903"/>
<polygon fill="midnightblue" stroke="midnightblue" points="132.558,-236.628 133.501,-247.18 139.345,-238.343 132.558,-236.628"/>
</g>
<!-- Node115 -->
<g id="node9" class="node"><title>Node115</title>
<g id="a_node9"><a xlink:href="main_8c.html#a5eca6549371bdbac746144deefa131ca" target="_top" xlink:title="Test_init">
<polygon fill="none" stroke="black" points="373,-38.5 373,-56.5 426,-56.5 426,-38.5 373,-38.5"/>
<text text-anchor="middle" x="399.5" y="-45.3" font-family="Calibri" font-size="9.00">Test_init</text>
</a>
</g>
</g>
<!-- Node108&#45;&gt;Node115 -->
<g id="edge52" class="edge"><title>Node108&#45;&gt;Node115</title>
<path fill="none" stroke="midnightblue" d="M134.221,-237.367C139.839,-204.946 155.748,-139.17 196,-102.5 246.225,-56.7446 330.744,-48.4658 372.934,-47.343"/>
<polygon fill="midnightblue" stroke="midnightblue" points="130.749,-236.916 132.641,-247.341 137.663,-238.012 130.749,-236.916"/>
</g>
<!-- Node116 -->
<g id="node10" class="node"><title>Node116</title>
<g id="a_node10"><a xlink:href="main_8h.html#a3cfc40ce98a046339c33b0ee86777042" target="_top" xlink:title="show_pwr">
<polygon fill="none" stroke="black" points="279,-342.5 279,-360.5 337,-360.5 337,-342.5 279,-342.5"/>
<text text-anchor="middle" x="308" y="-349.3" font-family="Calibri" font-size="9.00">show_pwr</text>
</a>
</g>
</g>
<!-- Node108&#45;&gt;Node116 -->
<g id="edge50" class="edge"><title>Node108&#45;&gt;Node116</title>
<path fill="none" stroke="midnightblue" d="M157.371,-270.504C193.874,-290.264 259.468,-325.771 290.223,-342.419"/>
<polygon fill="midnightblue" stroke="midnightblue" points="158.788,-267.291 148.328,-265.609 155.456,-273.447 158.788,-267.291"/>
</g>
<!-- Node124 -->
<g id="node18" class="node"><title>Node124</title>
<g id="a_node18"><a xlink:href="main_8h.html#a236d4ed610f158cf424d552ac88e666c" target="_top" xlink:title="lcd_pwr">
<polygon fill="none" stroke="black" points="375.5,-228.5 375.5,-246.5 423.5,-246.5 423.5,-228.5 375.5,-228.5"/>
<text text-anchor="middle" x="399.5" y="-235.3" font-family="Calibri" font-size="9.00">lcd_pwr</text>
</a>
</g>
</g>
<!-- Node108&#45;&gt;Node124 -->
<g id="edge44" class="edge"><title>Node108&#45;&gt;Node124</title>
<path fill="none" stroke="midnightblue" d="M163.151,-244C203.414,-229.634 275.154,-209.164 337,-218.5 349.928,-220.452 363.885,-224.588 375.23,-228.504"/>
<polygon fill="midnightblue" stroke="midnightblue" points="161.8,-240.768 153.618,-247.499 164.212,-247.339 161.8,-240.768"/>
</g>
<!-- Node125 -->
<g id="node19" class="node"><title>Node125</title>
<g id="a_node19"><a xlink:href="main_8h.html#ad9d02e37f1f201576a9d93fd36fc4768" target="_top" xlink:title="show_reset">
<polygon fill="none" stroke="black" points="473,-266.5 473,-284.5 537,-284.5 537,-266.5 473,-266.5"/>
<text text-anchor="middle" x="505" y="-273.3" font-family="Calibri" font-size="9.00">show_reset</text>
</a>
</g>
</g>
<!-- Node108&#45;&gt;Node125 -->
<g id="edge51" class="edge"><title>Node108&#45;&gt;Node125</title>
<path fill="none" stroke="midnightblue" d="M170.147,-259.698C178.659,-260.346 187.632,-260.986 196,-261.5 297.243,-267.724 417.367,-272.405 472.943,-274.417"/>
<polygon fill="midnightblue" stroke="midnightblue" points="170.305,-256.2 160.063,-258.911 169.76,-263.179 170.305,-256.2"/>
</g>
<!-- Node126 -->
<g id="node20" class="node"><title>Node126</title>
<g id="a_node20"><a xlink:href="main_8h.html#ac719b8f1806a4dae51a6c47c20573fa2" target="_top" xlink:title="lcd_swr">
<polygon fill="none" stroke="black" points="284.5,-228.5 284.5,-246.5 331.5,-246.5 331.5,-228.5 284.5,-228.5"/>
<text text-anchor="middle" x="308" y="-235.3" font-family="Calibri" font-size="9.00">lcd_swr</text>
</a>
</g>
</g>
<!-- Node108&#45;&gt;Node126 -->
<g id="edge45" class="edge"><title>Node108&#45;&gt;Node126</title>
<path fill="none" stroke="midnightblue" d="M170.408,-252.288C205.362,-248.504 255.488,-243.077 284.293,-239.958"/>
<polygon fill="midnightblue" stroke="midnightblue" points="169.653,-248.849 160.088,-253.405 170.406,-255.808 169.653,-248.849"/>
</g>
<!-- Node127 -->
<g id="node21" class="node"><title>Node127</title>
<g id="a_node21"><a xlink:href="main_8h.html#aad7203cfd92bc4b814e43c04a209f634" target="_top" xlink:title="show_loss">
<polygon fill="none" stroke="black" points="584,-0.5 584,-18.5 644,-18.5 644,-0.5 584,-0.5"/>
<text text-anchor="middle" x="614" y="-7.3" font-family="Calibri" font-size="9.00">show_loss</text>
</a>
</g>
</g>
<!-- Node108&#45;&gt;Node127 -->
<g id="edge48" class="edge"><title>Node108&#45;&gt;Node127</title>
<path fill="none" stroke="midnightblue" d="M133.626,-236.954C138.524,-200.363 153.629,-120.698 196,-70.5 232.309,-27.4835 250.708,-9.5 307,-9.5 307,-9.5 307,-9.5 400.5,-9.5 465.984,-9.5 542.819,-9.5 583.783,-9.5"/>
<polygon fill="midnightblue" stroke="midnightblue" points="130.11,-236.878 132.374,-247.228 137.058,-237.726 130.11,-236.878"/>
</g>
<!-- Node109&#45;&gt;Node110 -->
<g id="edge3" class="edge"><title>Node109&#45;&gt;Node110</title>
<path fill="none" stroke="midnightblue" d="M1087.65,-449.179C1107.49,-429.125 1140.48,-395.791 1156.38,-379.721"/>
<polygon fill="midnightblue" stroke="midnightblue" points="1085.06,-446.821 1080.51,-456.391 1090.03,-451.744 1085.06,-446.821"/>
</g>
<!-- Node110&#45;&gt;Node111 -->
<g id="edge4" class="edge"><title>Node110&#45;&gt;Node111</title>
<path fill="none" stroke="midnightblue" d="M1174.51,-351.813C1191.96,-305.279 1236.87,-185.521 1249.59,-151.585"/>
<polygon fill="midnightblue" stroke="midnightblue" points="1171.19,-350.687 1170.96,-361.28 1177.75,-353.145 1171.19,-350.687"/>
</g>
<!-- Node112&#45;&gt;Node111 -->
<g id="edge7" class="edge"><title>Node112&#45;&gt;Node111</title>
<path fill="none" stroke="midnightblue" d="M558.277,-123.5C599.489,-123.5 658.413,-123.5 710,-123.5 710,-123.5 710,-123.5 1071.5,-123.5 1131.54,-123.5 1202.14,-133.911 1234.77,-139.32"/>
<polygon fill="midnightblue" stroke="midnightblue" points="558.196,-120 548.196,-123.5 558.196,-127 558.196,-120"/>
</g>
<!-- Node113&#45;&gt;Node109 -->
<g id="edge9" class="edge"><title>Node113&#45;&gt;Node109</title>
<path fill="none" stroke="midnightblue" d="M225.21,-408.546C232.66,-435.292 249.439,-484.204 279,-515.5 320.37,-559.299 338.252,-579.5 398.5,-579.5 398.5,-579.5 398.5,-579.5 909.5,-579.5 981.467,-579.5 1043.49,-502.056 1063.08,-474.829"/>
<polygon fill="midnightblue" stroke="midnightblue" points="228.511,-407.335 222.579,-398.557 221.742,-409.119 228.511,-407.335"/>
</g>
<!-- Node113&#45;&gt;Node110 -->
<g id="edge10" class="edge"><title>Node113&#45;&gt;Node110</title>
<path fill="none" stroke="midnightblue" d="M222.657,-408.838C227.321,-442.391 241.165,-511.97 279,-555.5 318.251,-600.66 338.666,-617.5 398.5,-617.5 398.5,-617.5 398.5,-617.5 990.5,-617.5 1109.53,-617.5 1154.93,-424.146 1163.81,-379.584"/>
<polygon fill="midnightblue" stroke="midnightblue" points="226.087,-408.059 221.367,-398.574 219.142,-408.932 226.087,-408.059"/>
</g>
<!-- Node113&#45;&gt;Node111 -->
<g id="edge16" class="edge"><title>Node113&#45;&gt;Node111</title>
<path fill="none" stroke="midnightblue" d="M222.4,-408.563C230.183,-475.172 265.815,-693.5 398.5,-693.5 398.5,-693.5 398.5,-693.5 1071.5,-693.5 1190.6,-693.5 1244.55,-223.244 1252.07,-151.604"/>
<polygon fill="midnightblue" stroke="midnightblue" points="225.877,-408.161 221.315,-398.598 218.918,-408.918 225.877,-408.161"/>
</g>
<!-- Node113&#45;&gt;Node112 -->
<g id="edge11" class="edge"><title>Node113&#45;&gt;Node112</title>
<path fill="none" stroke="midnightblue" d="M235.067,-372.44C267.306,-334.806 344.116,-245.841 373,-218.5 409.748,-183.716 420.131,-175.915 462,-147.5 469.783,-142.218 478.795,-136.964 486.471,-132.725"/>
<polygon fill="midnightblue" stroke="midnightblue" points="232.062,-370.569 228.221,-380.443 237.381,-375.12 232.062,-370.569"/>
</g>
<!-- Node113&#45;&gt;Node114 -->
<g id="edge12" class="edge"><title>Node113&#45;&gt;Node114</title>
<path fill="none" stroke="midnightblue" d="M226.078,-370.54C242.838,-313.576 292.329,-145.365 304.348,-104.515"/>
<polygon fill="midnightblue" stroke="midnightblue" points="222.649,-369.797 223.184,-380.379 229.364,-371.773 222.649,-369.797"/>
</g>
<!-- Node113&#45;&gt;Node116 -->
<g id="edge17" class="edge"><title>Node113&#45;&gt;Node116</title>
<path fill="none" stroke="midnightblue" d="M250.504,-376.319C262.335,-371.122 275.629,-365.281 286.348,-360.573"/>
<polygon fill="midnightblue" stroke="midnightblue" points="248.747,-373.268 240.999,-380.495 251.563,-379.677 248.747,-373.268"/>
</g>
<!-- Node121 -->
<g id="node15" class="node"><title>Node121</title>
<g id="a_node15"><a xlink:href="main_8h.html#a1849f2e5bd63d11a7b9549470e287d17" target="_top" xlink:title="tune">
<polygon fill="none" stroke="black" points="972,-456.5 972,-474.5 1007,-474.5 1007,-456.5 972,-456.5"/>
<text text-anchor="middle" x="989.5" y="-463.3" font-family="Calibri" font-size="9.00">tune</text>
</a>
</g>
</g>
<!-- Node113&#45;&gt;Node121 -->
<g id="edge42" class="edge"><title>Node113&#45;&gt;Node121</title>
<path fill="none" stroke="midnightblue" d="M230.17,-407.297C253.424,-447.428 316.66,-541.5 398.5,-541.5 398.5,-541.5 398.5,-541.5 812.5,-541.5 879.398,-541.5 949.744,-494.648 976.883,-474.517"/>
<polygon fill="midnightblue" stroke="midnightblue" points="233.203,-405.549 225.246,-398.553 227.104,-408.984 233.203,-405.549"/>
</g>
<!-- Node113&#45;&gt;Node125 -->
<g id="edge41" class="edge"><title>Node113&#45;&gt;Node125</title>
<path fill="none" stroke="midnightblue" d="M253.661,-386.853C277.4,-384.232 309.834,-379.151 337,-369.5 398.761,-347.559 464.362,-303.722 491.319,-284.681"/>
<polygon fill="midnightblue" stroke="midnightblue" points="253.012,-383.401 243.416,-387.892 253.718,-390.366 253.012,-383.401"/>
</g>
<!-- Node114&#45;&gt;Node111 -->
<g id="edge13" class="edge"><title>Node114&#45;&gt;Node111</title>
<path fill="none" stroke="midnightblue" d="M344.533,-92.5824C383.597,-89.6306 448.226,-85.5 504,-85.5 504,-85.5 504,-85.5 1071.5,-85.5 1134.58,-85.5 1204.57,-117.229 1236.04,-133.342"/>
<polygon fill="midnightblue" stroke="midnightblue" points="343.922,-89.1191 334.221,-93.3793 344.461,-96.0983 343.922,-89.1191"/>
</g>
<!-- Node114&#45;&gt;Node115 -->
<g id="edge14" class="edge"><title>Node114&#45;&gt;Node115</title>
<path fill="none" stroke="midnightblue" d="M334.647,-81.745C349.662,-73.6926 368.208,-63.746 381.437,-56.6511"/>
<polygon fill="midnightblue" stroke="midnightblue" points="332.993,-78.6608 325.834,-86.4716 336.301,-84.8296 332.993,-78.6608"/>
</g>
<!-- Node115&#45;&gt;Node111 -->
<g id="edge15" class="edge"><title>Node115&#45;&gt;Node111</title>
<path fill="none" stroke="midnightblue" d="M436.066,-47.5C478.269,-47.5 550.761,-47.5 613,-47.5 613,-47.5 613,-47.5 1071.5,-47.5 1129.16,-47.5 1149.94,-41.1982 1199,-71.5 1223.77,-86.8 1241.28,-117.919 1248.84,-133.371"/>
<polygon fill="midnightblue" stroke="midnightblue" points="436.014,-44.0001 426.014,-47.5 436.014,-51.0001 436.014,-44.0001"/>
</g>
<!-- Node117 -->
<g id="node11" class="node"><title>Node117</title>
<g id="a_node11"><a xlink:href="main_8h.html#ad7eb7423e0b17ccfba1ae42f3a3274e0" target="_top" xlink:title="get_swr">
<polygon fill="none" stroke="black" points="590,-361.5 590,-379.5 638,-379.5 638,-361.5 590,-361.5"/>
<text text-anchor="middle" x="614" y="-368.3" font-family="Calibri" font-size="9.00">get_swr</text>
</a>
</g>
</g>
<!-- Node116&#45;&gt;Node117 -->
<g id="edge18" class="edge"><title>Node116&#45;&gt;Node117</title>
<path fill="none" stroke="midnightblue" d="M347.104,-353.881C410.91,-357.869 537.502,-365.781 589.682,-369.043"/>
<polygon fill="midnightblue" stroke="midnightblue" points="347.254,-350.384 337.055,-353.253 346.817,-357.37 347.254,-350.384"/>
</g>
<!-- Node116&#45;&gt;Node124 -->
<g id="edge33" class="edge"><title>Node116&#45;&gt;Node124</title>
<path fill="none" stroke="midnightblue" d="M328.671,-335.801C331.584,-333.151 334.457,-330.337 337,-327.5 361.127,-300.584 383.486,-263.733 393.285,-246.754"/>
<polygon fill="midnightblue" stroke="midnightblue" points="326.374,-333.16 321.068,-342.33 330.935,-338.47 326.374,-333.16"/>
</g>
<!-- Node118 -->
<g id="node12" class="node"><title>Node118</title>
<g id="a_node12"><a xlink:href="main_8h.html#a740ef1b33bb02cd952ad7d8708999472" target="_top" xlink:title="coarse_cap">
<polygon fill="none" stroke="black" points="680,-380.5 680,-398.5 742,-398.5 742,-380.5 680,-380.5"/>
<text text-anchor="middle" x="711" y="-387.3" font-family="Calibri" font-size="9.00">coarse_cap</text>
</a>
</g>
</g>
<!-- Node117&#45;&gt;Node118 -->
<g id="edge19" class="edge"><title>Node117&#45;&gt;Node118</title>
<path fill="none" stroke="midnightblue" d="M648.365,-377.173C658.652,-379.23 669.913,-381.483 679.962,-383.492"/>
<polygon fill="midnightblue" stroke="midnightblue" points="648.975,-373.726 638.483,-375.197 647.603,-380.59 648.975,-373.726"/>
</g>
<!-- Node119 -->
<g id="node13" class="node"><title>Node119</title>
<g id="a_node13"><a xlink:href="main_8h.html#a5c7c60c7d70cf76cc52e87722bb0f614" target="_top" xlink:title="coarse_tune">
<polygon fill="none" stroke="black" points="778,-418.5 778,-436.5 845,-436.5 845,-418.5 778,-418.5"/>
<text text-anchor="middle" x="811.5" y="-425.3" font-family="Calibri" font-size="9.00">coarse_tune</text>
</a>
</g>
</g>
<!-- Node117&#45;&gt;Node119 -->
<g id="edge24" class="edge"><title>Node117&#45;&gt;Node119</title>
<path fill="none" stroke="midnightblue" d="M636.335,-385.292C648.584,-393.091 664.559,-402.128 680,-407.5 712.148,-418.683 750.911,-423.622 777.797,-425.798"/>
<polygon fill="midnightblue" stroke="midnightblue" points="638.042,-382.226 627.765,-379.652 634.193,-388.073 638.042,-382.226"/>
</g>
<!-- Node120 -->
<g id="node14" class="node"><title>Node120</title>
<g id="a_node14"><a xlink:href="main_8h.html#a454a7687c8039514766571b23516ca9c" target="_top" xlink:title="sub_tune">
<polygon fill="none" stroke="black" points="881,-418.5 881,-436.5 936,-436.5 936,-418.5 881,-418.5"/>
<text text-anchor="middle" x="908.5" y="-425.3" font-family="Calibri" font-size="9.00">sub_tune</text>
</a>
</g>
</g>
<!-- Node117&#45;&gt;Node120 -->
<g id="edge31" class="edge"><title>Node117&#45;&gt;Node120</title>
<path fill="none" stroke="midnightblue" d="M648.129,-367.524C673.903,-365.923 710.464,-365.221 742,-370.5 796.849,-379.681 857.852,-404.863 888.182,-418.478"/>
<polygon fill="midnightblue" stroke="midnightblue" points="647.863,-364.034 638.132,-368.223 648.352,-371.017 647.863,-364.034"/>
</g>
<!-- Node117&#45;&gt;Node121 -->
<g id="edge32" class="edge"><title>Node117&#45;&gt;Node121</title>
<path fill="none" stroke="midnightblue" d="M648.232,-365.615C658.403,-364.335 669.64,-363.135 680,-362.5 753.423,-357.999 773.491,-358.249 845,-375.5 886.822,-385.589 900.184,-384.665 936,-408.5 955.713,-421.618 973.135,-443.64 982.099,-456.123"/>
<polygon fill="midnightblue" stroke="midnightblue" points="647.554,-362.174 638.1,-366.959 648.474,-369.114 647.554,-362.174"/>
</g>
<!-- Node122 -->
<g id="node16" class="node"><title>Node122</title>
<g id="a_node16"><a xlink:href="main_8h.html#ab518a3d2c723f12d3af3024a195606ce" target="_top" xlink:title="sharp_cap">
<polygon fill="none" stroke="black" points="782,-494.5 782,-512.5 841,-512.5 841,-494.5 782,-494.5"/>
<text text-anchor="middle" x="811.5" y="-501.3" font-family="Calibri" font-size="9.00">sharp_cap</text>
</a>
</g>
</g>
<!-- Node117&#45;&gt;Node122 -->
<g id="edge25" class="edge"><title>Node117&#45;&gt;Node122</title>
<path fill="none" stroke="midnightblue" d="M624.824,-388.464C635.955,-407.3 655.741,-436.599 680,-454.5 710.962,-477.347 753.805,-490.716 781.826,-497.567"/>
<polygon fill="midnightblue" stroke="midnightblue" points="627.81,-386.635 619.815,-379.684 621.73,-390.104 627.81,-386.635"/>
</g>
<!-- Node123 -->
<g id="node17" class="node"><title>Node123</title>
<g id="a_node17"><a xlink:href="main_8h.html#a72210b3ed1d5691c5bbda8c7f1e97197" target="_top" xlink:title="sharp_ind">
<polygon fill="none" stroke="black" points="782.5,-456.5 782.5,-474.5 840.5,-474.5 840.5,-456.5 782.5,-456.5"/>
<text text-anchor="middle" x="811.5" y="-463.3" font-family="Calibri" font-size="9.00">sharp_ind</text>
</a>
</g>
</g>
<!-- Node117&#45;&gt;Node123 -->
<g id="edge28" class="edge"><title>Node117&#45;&gt;Node123</title>
<path fill="none" stroke="midnightblue" d="M629.618,-387.16C641.873,-400.162 660.461,-417.765 680,-428.5 712.713,-446.474 754.943,-456.374 782.366,-461.309"/>
<polygon fill="midnightblue" stroke="midnightblue" points="632.185,-384.781 622.855,-379.762 627.019,-389.504 632.185,-384.781"/>
</g>
<!-- Node118&#45;&gt;Node119 -->
<g id="edge20" class="edge"><title>Node118&#45;&gt;Node119</title>
<path fill="none" stroke="midnightblue" d="M744.959,-402.215C758.728,-407.527 774.411,-413.577 786.983,-418.427"/>
<polygon fill="midnightblue" stroke="midnightblue" points="745.933,-398.839 735.343,-398.505 743.413,-405.37 745.933,-398.839"/>
</g>
<!-- Node119&#45;&gt;Node120 -->
<g id="edge21" class="edge"><title>Node119&#45;&gt;Node120</title>
<path fill="none" stroke="midnightblue" d="M855.215,-427.5C863.896,-427.5 872.793,-427.5 880.729,-427.5"/>
<polygon fill="midnightblue" stroke="midnightblue" points="855.194,-424 845.194,-427.5 855.194,-431 855.194,-424"/>
</g>
<!-- Node120&#45;&gt;Node121 -->
<g id="edge22" class="edge"><title>Node120&#45;&gt;Node121</title>
<path fill="none" stroke="midnightblue" d="M937.434,-440.936C948.915,-446.459 961.826,-452.669 971.793,-457.464"/>
<polygon fill="midnightblue" stroke="midnightblue" points="938.751,-437.686 928.222,-436.505 935.716,-443.994 938.751,-437.686"/>
</g>
<!-- Node121&#45;&gt;Node109 -->
<g id="edge23" class="edge"><title>Node121&#45;&gt;Node109</title>
<path fill="none" stroke="midnightblue" d="M1017.43,-465.5C1025.63,-465.5 1034.64,-465.5 1042.82,-465.5"/>
<polygon fill="midnightblue" stroke="midnightblue" points="1017.25,-462 1007.25,-465.5 1017.25,-469 1017.25,-462"/>
</g>
<!-- Node122&#45;&gt;Node120 -->
<g id="edge26" class="edge"><title>Node122&#45;&gt;Node120</title>
<path fill="none" stroke="midnightblue" d="M837.045,-489.052C839.777,-487.252 842.48,-485.381 845,-483.5 865.083,-468.512 886.393,-448.385 898.215,-436.79"/>
<polygon fill="midnightblue" stroke="midnightblue" points="835.011,-486.197 828.412,-494.486 838.74,-492.121 835.011,-486.197"/>
</g>
<!-- Node122&#45;&gt;Node121 -->
<g id="edge27" class="edge"><title>Node122&#45;&gt;Node121</title>
<path fill="none" stroke="midnightblue" d="M851.028,-496.716C875.462,-492.241 907.691,-486.017 936,-479.5 947.95,-476.749 961.302,-473.182 971.55,-470.337"/>
<polygon fill="midnightblue" stroke="midnightblue" points="850.282,-493.294 841.067,-498.523 851.532,-500.182 850.282,-493.294"/>
</g>
<!-- Node123&#45;&gt;Node120 -->
<g id="edge29" class="edge"><title>Node123&#45;&gt;Node120</title>
<path fill="none" stroke="midnightblue" d="M844.675,-452.63C857.861,-447.356 872.811,-441.376 884.819,-436.573"/>
<polygon fill="midnightblue" stroke="midnightblue" points="842.999,-449.531 835.014,-456.495 845.598,-456.03 842.999,-449.531"/>
</g>
<!-- Node123&#45;&gt;Node121 -->
<g id="edge30" class="edge"><title>Node123&#45;&gt;Node121</title>
<path fill="none" stroke="midnightblue" d="M850.903,-465.5C888.64,-465.5 944.443,-465.5 971.945,-465.5"/>
<polygon fill="midnightblue" stroke="midnightblue" points="850.777,-462 840.777,-465.5 850.777,-469 850.777,-462"/>
</g>
<!-- Node124&#45;&gt;Node109 -->
<g id="edge34" class="edge"><title>Node124&#45;&gt;Node109</title>
<path fill="none" stroke="midnightblue" d="M433.944,-237.5C475.806,-237.5 549.705,-237.5 613,-237.5 613,-237.5 613,-237.5 909.5,-237.5 1018.3,-237.5 1059.45,-413.625 1067.82,-456.28"/>
<polygon fill="midnightblue" stroke="midnightblue" points="433.769,-234 423.769,-237.5 433.769,-241 433.769,-234"/>
</g>
<!-- Node124&#45;&gt;Node110 -->
<g id="edge35" class="edge"><title>Node124&#45;&gt;Node110</title>
<path fill="none" stroke="midnightblue" d="M433.353,-227.897C474.832,-216.64 548.565,-199.5 613,-199.5 613,-199.5 613,-199.5 990.5,-199.5 1083.95,-199.5 1146.03,-325.788 1161.64,-361.306"/>
<polygon fill="midnightblue" stroke="midnightblue" points="432.23,-224.576 423.527,-230.618 434.099,-231.322 432.23,-224.576"/>
</g>
<!-- Node124&#45;&gt;Node111 -->
<g id="edge37" class="edge"><title>Node124&#45;&gt;Node111</title>
<path fill="none" stroke="midnightblue" d="M422.093,-222.915C433.56,-215.679 448.12,-207.275 462,-201.5 526.099,-174.831 543.574,-161.5 613,-161.5 613,-161.5 613,-161.5 1071.5,-161.5 1131.54,-161.5 1202.14,-151.089 1234.77,-145.68"/>
<polygon fill="midnightblue" stroke="midnightblue" points="420.123,-220.021 413.632,-228.395 423.928,-225.896 420.123,-220.021"/>
</g>
<!-- Node124&#45;&gt;Node112 -->
<g id="edge36" class="edge"><title>Node124&#45;&gt;Node112</title>
<path fill="none" stroke="midnightblue" d="M419.063,-221.377C421.529,-218.859 423.919,-216.195 426,-213.5 446.421,-187.053 438.608,-171.359 462,-147.5 467.879,-141.503 475.574,-136.529 482.769,-132.694"/>
<polygon fill="midnightblue" stroke="midnightblue" points="416.528,-218.958 411.678,-228.377 421.344,-224.038 416.528,-218.958"/>
</g>
<!-- Node124&#45;&gt;Node125 -->
<g id="edge38" class="edge"><title>Node124&#45;&gt;Node125</title>
<path fill="none" stroke="midnightblue" d="M433.144,-249.485C448.116,-254.982 465.569,-261.39 479.407,-266.471"/>
<polygon fill="midnightblue" stroke="midnightblue" points="434.321,-246.189 423.727,-246.028 431.908,-252.76 434.321,-246.189"/>
</g>
<!-- Node125&#45;&gt;Node110 -->
<g id="edge39" class="edge"><title>Node125&#45;&gt;Node110</title>
<path fill="none" stroke="midnightblue" d="M547.302,-275.5C588.511,-275.5 653.636,-275.5 710,-275.5 710,-275.5 710,-275.5 990.5,-275.5 1062.06,-275.5 1132.31,-337.613 1156.59,-361.391"/>
<polygon fill="midnightblue" stroke="midnightblue" points="547.105,-272 537.105,-275.5 547.105,-279 547.105,-272"/>
</g>
<!-- Node125&#45;&gt;Node117 -->
<g id="edge40" class="edge"><title>Node125&#45;&gt;Node117</title>
<path fill="none" stroke="midnightblue" d="M523.787,-291.292C546.304,-311.284 584.354,-345.067 602.614,-361.279"/>
<polygon fill="midnightblue" stroke="midnightblue" points="526.061,-288.631 516.26,-284.609 521.414,-293.866 526.061,-288.631"/>
</g>
<!-- Node126&#45;&gt;Node124 -->
<g id="edge46" class="edge"><title>Node126&#45;&gt;Node124</title>
<path fill="none" stroke="midnightblue" d="M341.814,-237.5C352.924,-237.5 365.093,-237.5 375.299,-237.5"/>
<polygon fill="midnightblue" stroke="midnightblue" points="341.585,-234 331.585,-237.5 341.585,-241 341.585,-234"/>
</g>
<!-- Node127&#45;&gt;Node111 -->
<g id="edge49" class="edge"><title>Node127&#45;&gt;Node111</title>
<path fill="none" stroke="midnightblue" d="M654.15,-9.5C693.618,-9.5 756.287,-9.5 810.5,-9.5 810.5,-9.5 810.5,-9.5 1071.5,-9.5 1129.16,-9.5 1153.04,1.32459 1199,-33.5 1233,-59.264 1246.97,-112.235 1251.34,-133.435"/>
<polygon fill="midnightblue" stroke="midnightblue" points="654.147,-6.0001 644.147,-9.5 654.147,-13.0001 654.147,-6.0001"/>
</g>
</g>
</svg>
