<?xml version="1.0" encoding="UTF-8" standalone="no"?>
<!DOCTYPE svg PUBLIC "-//W3C//DTD SVG 1.1//EN"
 "http://www.w3.org/Graphics/SVG/1.1/DTD/svg11.dtd">
<!-- Generated by graphviz version 2.38.0 (20140413.2041)
 -->
<!-- Title: set_addressing Pages: 1 -->
<svg width="200pt" height="64pt"
 viewBox="0.00 0.00 200.00 64.00" xmlns="http://www.w3.org/2000/svg" xmlns:xlink="http://www.w3.org/1999/xlink">
<g id="graph0" class="graph" transform="scale(1 1) rotate(0) translate(4 60)">
<title>set_addressing</title>
<!-- Node1 -->
<g id="node1" class="node"><title>Node1</title>
<g id="a_node1"><a xlink:title=" ">
<polygon fill="#bfbfbf" stroke="black" points="0,-18.5 0,-36.5 80,-36.5 80,-18.5 0,-18.5"/>
<text text-anchor="middle" x="40" y="-25.3" font-family="Calibri" font-size="9.00">set_addressing</text>
</a>
</g>
</g>
<!-- Node2 -->
<g id="node2" class="node"><title>Node2</title>
<g id="a_node2"><a xlink:href="oled__control_8c.html#ab7f6b5c6c1483f6286f2de5786c028d9" target="_top" xlink:title=" ">
<polygon fill="none" stroke="black" points="118,-37.5 118,-55.5 190,-55.5 190,-37.5 118,-37.5"/>
<text text-anchor="middle" x="154" y="-44.3" font-family="Calibri" font-size="9.00">Soft_I2C_Start</text>
</a>
</g>
</g>
<!-- Node1&#45;&gt;Node2 -->
<g id="edge1" class="edge"><title>Node1&#45;&gt;Node2</title>
<path fill="none" stroke="midnightblue" d="M80.1722,-34.1453C89.0637,-35.6537 98.5791,-37.2679 107.701,-38.8154"/>
<polygon fill="midnightblue" stroke="midnightblue" points="107.334,-42.303 117.779,-40.5249 108.505,-35.4016 107.334,-42.303"/>
</g>
<!-- Node3 -->
<g id="node3" class="node"><title>Node3</title>
<g id="a_node3"><a xlink:href="oled__control_8c.html#a73610916645f17c19124e697b005f694" target="_top" xlink:title=" ">
<polygon fill="none" stroke="black" points="116,-0.5 116,-18.5 192,-18.5 192,-0.5 116,-0.5"/>
<text text-anchor="middle" x="154" y="-7.3" font-family="Calibri" font-size="9.00">Soft_I2C_Write</text>
</a>
</g>
</g>
<!-- Node1&#45;&gt;Node3 -->
<g id="edge2" class="edge"><title>Node1&#45;&gt;Node3</title>
<path fill="none" stroke="midnightblue" d="M80.1722,-21.2045C88.5147,-19.8637 97.4064,-18.4347 106.007,-17.0524"/>
<polygon fill="midnightblue" stroke="midnightblue" points="106.602,-20.5019 115.919,-15.4594 105.491,-13.5906 106.602,-20.5019"/>
</g>
</g>
</svg>
