<?xml version="1.0" encoding="UTF-8" standalone="no"?>
<!DOCTYPE svg PUBLIC "-//W3C//DTD SVG 1.1//EN"
 "http://www.w3.org/Graphics/SVG/1.1/DTD/svg11.dtd">
<!-- Generated by graphviz version 2.38.0 (20140413.2041)
 -->
<!-- Title: set_addressing Pages: 1 -->
<svg width="358pt" height="64pt"
 viewBox="0.00 0.00 358.00 64.00" xmlns="http://www.w3.org/2000/svg" xmlns:xlink="http://www.w3.org/1999/xlink">
<g id="graph0" class="graph" transform="scale(1 1) rotate(0) translate(4 60)">
<title>set_addressing</title>
<!-- Node1 -->
<g id="node1" class="node"><title>Node1</title>
<g id="a_node1"><a xlink:title=" ">
<polygon fill="#bfbfbf" stroke="black" points="270,-18.5 270,-36.5 350,-36.5 350,-18.5 270,-18.5"/>
<text text-anchor="middle" x="310" y="-25.3" font-family="Calibri" font-size="9.00">set_addressing</text>
</a>
</g>
</g>
<!-- Node2 -->
<g id="node2" class="node"><title>Node2</title>
<g id="a_node2"><a xlink:href="oled__control_8c.html#ad95f850c4c6d949229270c8da88c02cb" target="_top" xlink:title=" ">
<polygon fill="none" stroke="black" points="174.5,-37.5 174.5,-55.5 228.5,-55.5 228.5,-37.5 174.5,-37.5"/>
<text text-anchor="middle" x="201.5" y="-44.3" font-family="Calibri" font-size="9.00">oled_init</text>
</a>
</g>
</g>
<!-- Node1&#45;&gt;Node2 -->
<g id="edge1" class="edge"><title>Node1&#45;&gt;Node2</title>
<path fill="none" stroke="midnightblue" d="M260.091,-36.2255C249.227,-38.1638 238.12,-40.1453 228.595,-41.8445"/>
<polygon fill="midnightblue" stroke="midnightblue" points="260.718,-39.669 269.948,-34.467 259.489,-32.7778 260.718,-39.669"/>
</g>
<!-- Node5 -->
<g id="node5" class="node"><title>Node5</title>
<g id="a_node5"><a xlink:href="oled__control_8c.html#a7c3a2e5f1fed76dc27692132a2574d27" target="_top" xlink:title=" ">
<polygon fill="none" stroke="black" points="169,-0.5 169,-18.5 234,-18.5 234,-0.5 169,-0.5"/>
<text text-anchor="middle" x="201.5" y="-7.3" font-family="Calibri" font-size="9.00">oled_wr_str</text>
</a>
</g>
</g>
<!-- Node1&#45;&gt;Node5 -->
<g id="edge4" class="edge"><title>Node1&#45;&gt;Node5</title>
<path fill="none" stroke="midnightblue" d="M259.85,-19.193C251.143,-17.7214 242.289,-16.2248 234.226,-14.8621"/>
<polygon fill="midnightblue" stroke="midnightblue" points="259.505,-22.6841 269.948,-20.8997 260.671,-15.782 259.505,-22.6841"/>
</g>
<!-- Node3 -->
<g id="node3" class="node"><title>Node3</title>
<g id="a_node3"><a xlink:href="oled__control_8c.html#a7eb4d382bdd4b42c57dbb7154d03ac66" target="_top" xlink:title=" ">
<polygon fill="none" stroke="black" points="79,-37.5 79,-55.5 128,-55.5 128,-37.5 79,-37.5"/>
<text text-anchor="middle" x="103.5" y="-44.3" font-family="Calibri" font-size="9.00">led_init</text>
</a>
</g>
</g>
<!-- Node2&#45;&gt;Node3 -->
<g id="edge2" class="edge"><title>Node2&#45;&gt;Node3</title>
<path fill="none" stroke="midnightblue" d="M164.027,-46.5C151.977,-46.5 138.898,-46.5 128.076,-46.5"/>
<polygon fill="midnightblue" stroke="midnightblue" points="164.268,-50.0001 174.268,-46.5 164.268,-43.0001 164.268,-50.0001"/>
</g>
<!-- Node4 -->
<g id="node4" class="node"><title>Node4</title>
<g id="a_node4"><a xlink:href="main_8c.html#acdef7a1fd863a6d3770c1268cb06add3" target="_top" xlink:title=" ">
<polygon fill="none" stroke="black" points="0,-37.5 0,-55.5 38,-55.5 38,-37.5 0,-37.5"/>
<text text-anchor="middle" x="19" y="-44.3" font-family="Calibri" font-size="9.00">main</text>
</a>
</g>
</g>
<!-- Node3&#45;&gt;Node4 -->
<g id="edge3" class="edge"><title>Node3&#45;&gt;Node4</title>
<path fill="none" stroke="midnightblue" d="M68.5088,-46.5C58.0627,-46.5 46.9754,-46.5 38.0412,-46.5"/>
<polygon fill="midnightblue" stroke="midnightblue" points="68.6376,-50.0001 78.6376,-46.5 68.6375,-43.0001 68.6376,-50.0001"/>
</g>
<!-- Node6 -->
<g id="node6" class="node"><title>Node6</title>
<g id="a_node6"><a xlink:href="oled__control_8c.html#a9d56c6c2e653b24a0caf505492ad818a" target="_top" xlink:title=" ">
<polygon fill="none" stroke="black" points="74,-0.5 74,-18.5 133,-18.5 133,-0.5 74,-0.5"/>
<text text-anchor="middle" x="103.5" y="-7.3" font-family="Calibri" font-size="9.00">led_wr_str</text>
</a>
</g>
</g>
<!-- Node5&#45;&gt;Node6 -->
<g id="edge5" class="edge"><title>Node5&#45;&gt;Node6</title>
<path fill="none" stroke="midnightblue" d="M158.575,-9.5C150.026,-9.5 141.215,-9.5 133.251,-9.5"/>
<polygon fill="midnightblue" stroke="midnightblue" points="158.8,-13.0001 168.8,-9.5 158.8,-6.0001 158.8,-13.0001"/>
</g>
</g>
</svg>
