<?xml version="1.0" encoding="UTF-8" standalone="no"?>
<!DOCTYPE svg PUBLIC "-//W3C//DTD SVG 1.1//EN"
 "http://www.w3.org/Graphics/SVG/1.1/DTD/svg11.dtd">
<!-- Generated by graphviz version 2.38.0 (20140413.2041)
 -->
<!-- Title: set_addressing Pages: 1 -->
<svg width="1386pt" height="854pt"
 viewBox="0.00 0.00 1386.00 853.50" xmlns="http://www.w3.org/2000/svg" xmlns:xlink="http://www.w3.org/1999/xlink">
<g id="graph0" class="graph" transform="scale(1 1) rotate(0) translate(4 849.5)">
<title>set_addressing</title>
<!-- Node153 -->
<g id="node1" class="node"><title>Node153</title>
<polygon fill="#bfbfbf" stroke="black" points="0,-712 0,-730 80,-730 80,-712 0,-712"/>
<text text-anchor="middle" x="40" y="-718.8" font-family="Calibri" font-size="9.00">set_addressing</text>
</g>
<!-- Node154 -->
<g id="node2" class="node"><title>Node154</title>
<g id="a_node2"><a xlink:href="oled__control_8h.html#ad95f850c4c6d949229270c8da88c02cb" target="_top" xlink:title="oled_init">
<polygon fill="none" stroke="black" points="121.5,-769 121.5,-787 175.5,-787 175.5,-769 121.5,-769"/>
<text text-anchor="middle" x="148.5" y="-775.8" font-family="Calibri" font-size="9.00">oled_init</text>
</a>
</g>
</g>
<!-- Node153&#45;&gt;Node154 -->
<g id="edge1" class="edge"><title>Node153&#45;&gt;Node154</title>
<path fill="none" stroke="midnightblue" d="M67.1791,-735.011C86.8993,-745.566 113.368,-759.732 130.431,-768.865"/>
<polygon fill="midnightblue" stroke="midnightblue" points="68.5793,-731.791 58.1111,-730.158 65.2761,-737.963 68.5793,-731.791"/>
</g>
<!-- Node157 -->
<g id="node5" class="node"><title>Node157</title>
<g id="a_node5"><a xlink:href="oled__control_8c.html#a7c3a2e5f1fed76dc27692132a2574d27" target="_top" xlink:title="oled_wr_str">
<polygon fill="none" stroke="black" points="116,-656 116,-674 181,-674 181,-656 116,-656"/>
<text text-anchor="middle" x="148.5" y="-662.8" font-family="Calibri" font-size="9.00">oled_wr_str</text>
</a>
</g>
</g>
<!-- Node153&#45;&gt;Node157 -->
<g id="edge4" class="edge"><title>Node153&#45;&gt;Node157</title>
<path fill="none" stroke="midnightblue" d="M67.6185,-707.003C87.2174,-696.698 113.298,-682.984 130.241,-674.075"/>
<polygon fill="midnightblue" stroke="midnightblue" points="65.8084,-704.001 58.5863,-711.753 69.0662,-710.196 65.8084,-704.001"/>
</g>
<!-- Node155 -->
<g id="node3" class="node"><title>Node155</title>
<g id="a_node3"><a xlink:href="oled__control_8h.html#a7eb4d382bdd4b42c57dbb7154d03ac66" target="_top" xlink:title="led_init">
<polygon fill="none" stroke="black" points="700,-827 700,-845 749,-845 749,-827 700,-827"/>
<text text-anchor="middle" x="724.5" y="-833.8" font-family="Calibri" font-size="9.00">led_init</text>
</a>
</g>
</g>
<!-- Node154&#45;&gt;Node155 -->
<g id="edge2" class="edge"><title>Node154&#45;&gt;Node155</title>
<path fill="none" stroke="midnightblue" d="M175.351,-791.598C210.404,-808.741 275.428,-836 334.5,-836 334.5,-836 334.5,-836 516.5,-836 582.984,-836 661.48,-836 699.907,-836"/>
<polygon fill="midnightblue" stroke="midnightblue" points="176.798,-788.409 166.289,-787.063 173.665,-794.668 176.798,-788.409"/>
</g>
<!-- Node156 -->
<g id="node4" class="node"><title>Node156</title>
<g id="a_node4"><a xlink:href="main_8c.html#acdef7a1fd863a6d3770c1268cb06add3" target="_top" xlink:title="main">
<polygon fill="none" stroke="black" points="1340,-675 1340,-693 1378,-693 1378,-675 1340,-675"/>
<text text-anchor="middle" x="1359" y="-681.8" font-family="Calibri" font-size="9.00">main</text>
</a>
</g>
</g>
<!-- Node155&#45;&gt;Node156 -->
<g id="edge3" class="edge"><title>Node155&#45;&gt;Node156</title>
<path fill="none" stroke="midnightblue" d="M759.202,-836C797.184,-836 860.775,-836 915.5,-836 915.5,-836 915.5,-836 1176.5,-836 1235.26,-836 1259.18,-838.998 1304,-801 1338.64,-771.634 1352.3,-715.271 1356.47,-693.192"/>
<polygon fill="midnightblue" stroke="midnightblue" points="759.197,-832.5 749.197,-836 759.197,-839.5 759.197,-832.5"/>
</g>
<!-- Node158 -->
<g id="node6" class="node"><title>Node158</title>
<g id="a_node6"><a xlink:href="oled__control_8c.html#a9d56c6c2e653b24a0caf505492ad818a" target="_top" xlink:title="led_wr_str">
<polygon fill="none" stroke="black" points="217,-504 217,-522 276,-522 276,-504 217,-504"/>
<text text-anchor="middle" x="246.5" y="-510.8" font-family="Calibri" font-size="9.00">led_wr_str</text>
</a>
</g>
</g>
<!-- Node157&#45;&gt;Node158 -->
<g id="edge5" class="edge"><title>Node157&#45;&gt;Node158</title>
<path fill="none" stroke="midnightblue" d="M160.566,-647.479C181.02,-615.093 224.079,-546.916 239.691,-522.198"/>
<polygon fill="midnightblue" stroke="midnightblue" points="157.599,-645.623 155.218,-655.947 163.517,-649.361 157.599,-645.623"/>
</g>
<!-- Node158&#45;&gt;Node156 -->
<g id="edge51" class="edge"><title>Node158&#45;&gt;Node156</title>
<path fill="none" stroke="midnightblue" d="M248.697,-532.554C252.067,-571.334 264.763,-658.744 312,-711 348.162,-751.004 369.074,-760 423,-760 423,-760 423,-760 1176.5,-760 1235.5,-760 1250.97,-748.875 1304,-723 1320.42,-714.987 1337.14,-702.009 1347.54,-693.247"/>
<polygon fill="midnightblue" stroke="midnightblue" points="252.157,-531.884 247.922,-522.172 245.176,-532.405 252.157,-531.884"/>
</g>
<!-- Node159 -->
<g id="node7" class="node"><title>Node159</title>
<g id="a_node7"><a xlink:href="main_8h.html#ae9b379f911db06ddd04a15d876ac0732" target="_top" xlink:title="btn_push">
<polygon fill="none" stroke="black" points="1148,-284 1148,-302 1203,-302 1203,-284 1148,-284"/>
<text text-anchor="middle" x="1175.5" y="-290.8" font-family="Calibri" font-size="9.00">btn_push</text>
</a>
</g>
</g>
<!-- Node158&#45;&gt;Node159 -->
<g id="edge6" class="edge"><title>Node158&#45;&gt;Node159</title>
<path fill="none" stroke="midnightblue" d="M263.718,-496.975C292.923,-469.896 357.445,-418 423,-418 423,-418 423,-418 1014.5,-418 1089.58,-418 1150.49,-331.465 1168.83,-302.395"/>
<polygon fill="midnightblue" stroke="midnightblue" points="261.28,-494.463 256.445,-503.891 266.104,-499.536 261.28,-494.463"/>
</g>
<!-- Node160 -->
<g id="node8" class="node"><title>Node160</title>
<g id="a_node8"><a xlink:href="main_8h.html#a1c9e5d54d8cf7f3d041aa2e0b330b3dd" target="_top" xlink:title="button_proc">
<polygon fill="none" stroke="black" points="1239,-214 1239,-232 1304,-232 1304,-214 1239,-214"/>
<text text-anchor="middle" x="1271.5" y="-220.8" font-family="Calibri" font-size="9.00">button_proc</text>
</a>
</g>
</g>
<!-- Node158&#45;&gt;Node160 -->
<g id="edge9" class="edge"><title>Node158&#45;&gt;Node160</title>
<path fill="none" stroke="midnightblue" d="M249.773,-493.604C261.258,-400.061 316.6,-0 423,-0 423,-0 423,-0 1014.5,-0 1106.96,-0 1136.75,-23.507 1203,-88 1241.68,-125.653 1261.82,-190.124 1268.21,-213.871"/>
<polygon fill="midnightblue" stroke="midnightblue" points="246.283,-493.312 248.564,-503.658 253.233,-494.147 246.283,-493.312"/>
</g>
<!-- Node161 -->
<g id="node9" class="node"><title>Node161</title>
<g id="a_node9"><a xlink:href="main_8h.html#ac445892220ccb3b4b337dd3e764bd6c6" target="_top" xlink:title="button_proc_test">
<polygon fill="none" stroke="black" points="578,-618 578,-636 664,-636 664,-618 578,-618"/>
<text text-anchor="middle" x="621" y="-624.8" font-family="Calibri" font-size="9.00">button_proc_test</text>
</a>
</g>
</g>
<!-- Node158&#45;&gt;Node161 -->
<g id="edge10" class="edge"><title>Node158&#45;&gt;Node161</title>
<path fill="none" stroke="midnightblue" d="M265.917,-528.528C292.629,-550.248 344.474,-589.452 395,-611 454.617,-636.425 531.188,-635.663 577.875,-631.947"/>
<polygon fill="midnightblue" stroke="midnightblue" points="268.103,-525.794 258.16,-522.134 263.651,-531.196 268.103,-525.794"/>
</g>
<!-- Node162 -->
<g id="node10" class="node"><title>Node162</title>
<g id="a_node10"><a xlink:href="main_8h.html#abf3918c21112474db61609b3462577ee" target="_top" xlink:title="lcd_ind">
<polygon fill="none" stroke="black" points="312,-504 312,-522 359,-522 359,-504 312,-504"/>
<text text-anchor="middle" x="335.5" y="-510.8" font-family="Calibri" font-size="9.00">lcd_ind</text>
</a>
</g>
</g>
<!-- Node158&#45;&gt;Node162 -->
<g id="edge12" class="edge"><title>Node158&#45;&gt;Node162</title>
<path fill="none" stroke="midnightblue" d="M286.511,-513C295.233,-513 304.198,-513 311.984,-513"/>
<polygon fill="midnightblue" stroke="midnightblue" points="286.47,-509.5 276.47,-513 286.47,-516.5 286.47,-509.5"/>
</g>
<!-- Node163 -->
<g id="node11" class="node"><title>Node163</title>
<g id="a_node11"><a xlink:href="main_8h.html#a5b51833f12193accc58a0162848dc02e" target="_top" xlink:title="lcd_prep">
<polygon fill="none" stroke="black" points="398,-675 398,-693 450,-693 450,-675 398,-675"/>
<text text-anchor="middle" x="424" y="-681.8" font-family="Calibri" font-size="9.00">lcd_prep</text>
</a>
</g>
</g>
<!-- Node158&#45;&gt;Node163 -->
<g id="edge47" class="edge"><title>Node158&#45;&gt;Node163</title>
<path fill="none" stroke="midnightblue" d="M250.314,-532.532C255.976,-564.367 271.83,-627.174 312,-660 336.274,-679.837 373.215,-684.291 397.723,-684.818"/>
<polygon fill="midnightblue" stroke="midnightblue" points="253.714,-531.632 248.663,-522.318 246.804,-532.749 253.714,-531.632"/>
</g>
<!-- Node164 -->
<g id="node12" class="node"><title>Node164</title>
<g id="a_node12"><a xlink:href="main_8c.html#a5eca6549371bdbac746144deefa131ca" target="_top" xlink:title="Test_init">
<polygon fill="none" stroke="black" points="489,-713 489,-731 542,-731 542,-713 489,-713"/>
<text text-anchor="middle" x="515.5" y="-719.8" font-family="Calibri" font-size="9.00">Test_init</text>
</a>
</g>
</g>
<!-- Node158&#45;&gt;Node164 -->
<g id="edge56" class="edge"><title>Node158&#45;&gt;Node164</title>
<path fill="none" stroke="midnightblue" d="M248.918,-532.146C252.628,-567.757 265.826,-644.164 312,-684 362.511,-727.577 446.9,-727.829 488.997,-724.754"/>
<polygon fill="midnightblue" stroke="midnightblue" points="252.398,-531.763 248.017,-522.116 245.426,-532.389 252.398,-531.763"/>
</g>
<!-- Node165 -->
<g id="node13" class="node"><title>Node165</title>
<g id="a_node13"><a xlink:href="main_8h.html#a3cfc40ce98a046339c33b0ee86777042" target="_top" xlink:title="show_pwr">
<polygon fill="none" stroke="black" points="395,-333 395,-351 453,-351 453,-333 395,-333"/>
<text text-anchor="middle" x="424" y="-339.8" font-family="Calibri" font-size="9.00">show_pwr</text>
</a>
</g>
</g>
<!-- Node158&#45;&gt;Node165 -->
<g id="edge54" class="edge"><title>Node158&#45;&gt;Node165</title>
<path fill="none" stroke="midnightblue" d="M254.931,-494.257C264.985,-470.801 284.836,-430.495 312,-404 337.44,-379.186 374.785,-361.061 398.998,-351.026"/>
<polygon fill="midnightblue" stroke="midnightblue" points="251.597,-493.161 251.01,-503.739 258.066,-495.836 251.597,-493.161"/>
</g>
<!-- Node173 -->
<g id="node21" class="node"><title>Node173</title>
<g id="a_node21"><a xlink:href="main_8h.html#a236d4ed610f158cf424d552ac88e666c" target="_top" xlink:title="lcd_pwr">
<polygon fill="none" stroke="black" points="491.5,-238 491.5,-256 539.5,-256 539.5,-238 491.5,-238"/>
<text text-anchor="middle" x="515.5" y="-244.8" font-family="Calibri" font-size="9.00">lcd_pwr</text>
</a>
</g>
</g>
<!-- Node158&#45;&gt;Node173 -->
<g id="edge48" class="edge"><title>Node158&#45;&gt;Node173</title>
<path fill="none" stroke="midnightblue" d="M249.863,-494.013C256.76,-441.685 278.512,-297.146 312,-265 360.633,-218.316 449.419,-231.273 491.371,-240.863"/>
<polygon fill="midnightblue" stroke="midnightblue" points="246.388,-493.597 248.587,-503.961 253.331,-494.488 246.388,-493.597"/>
</g>
<!-- Node174 -->
<g id="node22" class="node"><title>Node174</title>
<g id="a_node22"><a xlink:href="main_8h.html#ad9d02e37f1f201576a9d93fd36fc4768" target="_top" xlink:title="show_reset">
<polygon fill="none" stroke="black" points="589,-295 589,-313 653,-313 653,-295 589,-295"/>
<text text-anchor="middle" x="621" y="-301.8" font-family="Calibri" font-size="9.00">show_reset</text>
</a>
</g>
</g>
<!-- Node158&#45;&gt;Node174 -->
<g id="edge55" class="edge"><title>Node158&#45;&gt;Node174</title>
<path fill="none" stroke="midnightblue" d="M251.824,-493.655C259.409,-463.559 277.667,-405.131 312,-368 384.487,-289.605 525.885,-293.622 588.67,-299.899"/>
<polygon fill="midnightblue" stroke="midnightblue" points="248.344,-493.16 249.429,-503.699 255.153,-494.784 248.344,-493.16"/>
</g>
<!-- Node175 -->
<g id="node23" class="node"><title>Node175</title>
<g id="a_node23"><a xlink:href="main_8h.html#ac719b8f1806a4dae51a6c47c20573fa2" target="_top" xlink:title="lcd_swr">
<polygon fill="none" stroke="black" points="400.5,-257 400.5,-275 447.5,-275 447.5,-257 400.5,-257"/>
<text text-anchor="middle" x="424" y="-263.8" font-family="Calibri" font-size="9.00">lcd_swr</text>
</a>
</g>
</g>
<!-- Node158&#45;&gt;Node175 -->
<g id="edge49" class="edge"><title>Node158&#45;&gt;Node175</title>
<path fill="none" stroke="midnightblue" d="M246.951,-493.629C246.849,-450.297 253.048,-345.04 312,-290 335.923,-267.665 375.493,-264.204 400.359,-264.532"/>
<polygon fill="midnightblue" stroke="midnightblue" points="243.452,-493.733 247.097,-503.681 250.452,-493.632 243.452,-493.733"/>
</g>
<!-- Node176 -->
<g id="node24" class="node"><title>Node176</title>
<g id="a_node24"><a xlink:href="main_8h.html#aad7203cfd92bc4b814e43c04a209f634" target="_top" xlink:title="show_loss">
<polygon fill="none" stroke="black" points="786,-789 786,-807 846,-807 846,-789 786,-789"/>
<text text-anchor="middle" x="816" y="-795.8" font-family="Calibri" font-size="9.00">show_loss</text>
</a>
</g>
</g>
<!-- Node158&#45;&gt;Node176 -->
<g id="edge52" class="edge"><title>Node158&#45;&gt;Node176</title>
<path fill="none" stroke="midnightblue" d="M249.631,-532.262C256.043,-586.697 276.909,-739.923 312,-774 348.21,-809.163 372.527,-798 423,-798 423,-798 423,-798 622,-798 680.135,-798 748.119,-798 785.9,-798"/>
<polygon fill="midnightblue" stroke="midnightblue" points="253.097,-531.762 248.482,-522.225 246.142,-532.558 253.097,-531.762"/>
</g>
<!-- Node159&#45;&gt;Node160 -->
<g id="edge7" class="edge"><title>Node159&#45;&gt;Node160</title>
<path fill="none" stroke="midnightblue" d="M1196.96,-277.763C1215.65,-263.849 1242.65,-243.736 1258.21,-232.154"/>
<polygon fill="midnightblue" stroke="midnightblue" points="1194.72,-275.069 1188.79,-283.849 1198.9,-280.683 1194.72,-275.069"/>
</g>
<!-- Node160&#45;&gt;Node156 -->
<g id="edge8" class="edge"><title>Node160&#45;&gt;Node156</title>
<path fill="none" stroke="midnightblue" d="M1276.06,-242.202C1290.69,-321.054 1345.85,-618.464 1356.29,-674.769"/>
<polygon fill="midnightblue" stroke="midnightblue" points="1279.47,-241.403 1274.21,-232.209 1272.59,-242.679 1279.47,-241.403"/>
</g>
<!-- Node161&#45;&gt;Node156 -->
<g id="edge11" class="edge"><title>Node161&#45;&gt;Node156</title>
<path fill="none" stroke="midnightblue" d="M674.154,-631.166C712.968,-633.911 767.261,-637 815,-637 815,-637 815,-637 1176.5,-637 1238.02,-637 1307.63,-662.618 1339.85,-676.027"/>
<polygon fill="midnightblue" stroke="midnightblue" points="674.362,-627.672 664.135,-630.441 673.856,-634.654 674.362,-627.672"/>
</g>
<!-- Node162&#45;&gt;Node156 -->
<g id="edge20" class="edge"><title>Node162&#45;&gt;Node156</title>
<path fill="none" stroke="midnightblue" d="M362.304,-526.845C396.212,-543.716 458.091,-570 514.5,-570 514.5,-570 514.5,-570 1176.5,-570 1255.01,-570 1327.4,-647.444 1350.43,-674.671"/>
<polygon fill="midnightblue" stroke="midnightblue" points="363.611,-523.582 353.112,-522.158 360.431,-529.819 363.611,-523.582"/>
</g>
<!-- Node162&#45;&gt;Node159 -->
<g id="edge13" class="edge"><title>Node162&#45;&gt;Node159</title>
<path fill="none" stroke="midnightblue" d="M369.471,-507.359C405.117,-501.758 463.663,-494 514.5,-494 514.5,-494 514.5,-494 1014.5,-494 1113.96,-494 1161.55,-341.48 1172.17,-302.159"/>
<polygon fill="midnightblue" stroke="midnightblue" points="368.493,-503.971 359.177,-509.017 369.606,-510.882 368.493,-503.971"/>
</g>
<!-- Node162&#45;&gt;Node160 -->
<g id="edge14" class="edge"><title>Node162&#45;&gt;Node160</title>
<path fill="none" stroke="midnightblue" d="M369.471,-518.641C405.117,-524.242 463.663,-532 514.5,-532 514.5,-532 514.5,-532 1095.5,-532 1236.99,-532 1265.44,-283.662 1269.81,-232.248"/>
<polygon fill="midnightblue" stroke="midnightblue" points="369.606,-515.118 359.177,-516.983 368.493,-522.029 369.606,-515.118"/>
</g>
<!-- Node162&#45;&gt;Node161 -->
<g id="edge15" class="edge"><title>Node162&#45;&gt;Node161</title>
<path fill="none" stroke="midnightblue" d="M346.273,-530.855C356.281,-547.357 373.41,-571.198 395,-584 451.956,-617.773 530.001,-625.804 577.611,-627.291"/>
<polygon fill="midnightblue" stroke="midnightblue" points="349.26,-529.029 341.223,-522.126 343.201,-532.534 349.26,-529.029"/>
</g>
<!-- Node162&#45;&gt;Node163 -->
<g id="edge16" class="edge"><title>Node162&#45;&gt;Node163</title>
<path fill="none" stroke="midnightblue" d="M345.693,-531.173C364.029,-567.422 404.568,-647.562 418.326,-674.761"/>
<polygon fill="midnightblue" stroke="midnightblue" points="348.788,-529.537 341.151,-522.194 342.541,-532.697 348.788,-529.537"/>
</g>
<!-- Node162&#45;&gt;Node165 -->
<g id="edge21" class="edge"><title>Node162&#45;&gt;Node165</title>
<path fill="none" stroke="midnightblue" d="M340.861,-494.199C348.335,-464.788 365.687,-407.02 395,-366 399.02,-360.374 404.632,-355.224 409.776,-351.149"/>
<polygon fill="midnightblue" stroke="midnightblue" points="337.442,-493.445 338.476,-503.989 344.244,-495.102 337.442,-493.445"/>
</g>
<!-- Node170 -->
<g id="node18" class="node"><title>Node170</title>
<g id="a_node18"><a xlink:href="main_8h.html#a1849f2e5bd63d11a7b9549470e287d17" target="_top" xlink:title="tune">
<polygon fill="none" stroke="black" points="1077,-284 1077,-302 1112,-302 1112,-284 1077,-284"/>
<text text-anchor="middle" x="1094.5" y="-290.8" font-family="Calibri" font-size="9.00">tune</text>
</a>
</g>
</g>
<!-- Node162&#45;&gt;Node170 -->
<g id="edge46" class="edge"><title>Node162&#45;&gt;Node170</title>
<path fill="none" stroke="midnightblue" d="M358.471,-498.418C369.118,-491.933 382.32,-484.714 395,-480 445.777,-461.125 460.328,-456 514.5,-456 514.5,-456 514.5,-456 917.5,-456 1008.71,-456 1072.67,-336.712 1089.25,-302.231"/>
<polygon fill="midnightblue" stroke="midnightblue" points="356.447,-495.556 349.851,-503.847 360.178,-501.479 356.447,-495.556"/>
</g>
<!-- Node162&#45;&gt;Node174 -->
<g id="edge45" class="edge"><title>Node162&#45;&gt;Node174</title>
<path fill="none" stroke="midnightblue" d="M348.47,-495.369C359.409,-480.084 376.638,-457.972 395,-442 463.285,-382.603 560.126,-332.718 600.819,-313.02"/>
<polygon fill="midnightblue" stroke="midnightblue" points="345.376,-493.685 342.518,-503.887 351.114,-497.695 345.376,-493.685"/>
</g>
<!-- Node163&#45;&gt;Node156 -->
<g id="edge17" class="edge"><title>Node163&#45;&gt;Node156</title>
<path fill="none" stroke="midnightblue" d="M460.561,-684C499.649,-684 564.299,-684 620,-684 620,-684 620,-684 1176.5,-684 1236.37,-684 1307.35,-684 1339.97,-684"/>
<polygon fill="midnightblue" stroke="midnightblue" points="460.242,-680.5 450.242,-684 460.242,-687.5 460.242,-680.5"/>
</g>
<!-- Node163&#45;&gt;Node164 -->
<g id="edge18" class="edge"><title>Node163&#45;&gt;Node164</title>
<path fill="none" stroke="midnightblue" d="M455.678,-697.025C468.01,-702.261 481.93,-708.171 493.132,-712.927"/>
<polygon fill="midnightblue" stroke="midnightblue" points="456.783,-693.692 446.21,-693.005 454.047,-700.135 456.783,-693.692"/>
</g>
<!-- Node164&#45;&gt;Node156 -->
<g id="edge19" class="edge"><title>Node164&#45;&gt;Node156</title>
<path fill="none" stroke="midnightblue" d="M552.425,-722C593.71,-722 663.497,-722 723.5,-722 723.5,-722 723.5,-722 1176.5,-722 1237.51,-722 1307.65,-701.178 1339.97,-690.36"/>
<polygon fill="midnightblue" stroke="midnightblue" points="552.317,-718.5 542.317,-722 552.317,-725.5 552.317,-718.5"/>
</g>
<!-- Node166 -->
<g id="node14" class="node"><title>Node166</title>
<g id="a_node14"><a xlink:href="main_8h.html#ad7eb7423e0b17ccfba1ae42f3a3274e0" target="_top" xlink:title="get_swr">
<polygon fill="none" stroke="black" points="700.5,-295 700.5,-313 748.5,-313 748.5,-295 700.5,-295"/>
<text text-anchor="middle" x="724.5" y="-301.8" font-family="Calibri" font-size="9.00">get_swr</text>
</a>
</g>
</g>
<!-- Node165&#45;&gt;Node166 -->
<g id="edge22" class="edge"><title>Node165&#45;&gt;Node166</title>
<path fill="none" stroke="midnightblue" d="M463.365,-341.267C510.858,-339.793 594.036,-335.356 664,-322 676.191,-319.673 689.436,-315.804 700.328,-312.248"/>
<polygon fill="midnightblue" stroke="midnightblue" points="463.12,-337.772 453.223,-341.553 463.318,-344.769 463.12,-337.772"/>
</g>
<!-- Node165&#45;&gt;Node173 -->
<g id="edge37" class="edge"><title>Node165&#45;&gt;Node173</title>
<path fill="none" stroke="midnightblue" d="M440.628,-325.412C459.547,-305.33 490.74,-272.22 505.813,-256.221"/>
<polygon fill="midnightblue" stroke="midnightblue" points="437.891,-323.212 433.582,-332.891 442.986,-328.012 437.891,-323.212"/>
</g>
<!-- Node167 -->
<g id="node15" class="node"><title>Node167</title>
<g id="a_node15"><a xlink:href="main_8h.html#a740ef1b33bb02cd952ad7d8708999472" target="_top" xlink:title="coarse_cap">
<polygon fill="none" stroke="black" points="785,-295 785,-313 847,-313 847,-295 785,-295"/>
<text text-anchor="middle" x="816" y="-301.8" font-family="Calibri" font-size="9.00">coarse_cap</text>
</a>
</g>
</g>
<!-- Node166&#45;&gt;Node167 -->
<g id="edge23" class="edge"><title>Node166&#45;&gt;Node167</title>
<path fill="none" stroke="midnightblue" d="M758.654,-304C767.265,-304 776.492,-304 784.935,-304"/>
<polygon fill="midnightblue" stroke="midnightblue" points="758.549,-300.5 748.548,-304 758.548,-307.5 758.549,-300.5"/>
</g>
<!-- Node168 -->
<g id="node16" class="node"><title>Node168</title>
<g id="a_node16"><a xlink:href="main_8h.html#a5c7c60c7d70cf76cc52e87722bb0f614" target="_top" xlink:title="coarse_tune">
<polygon fill="none" stroke="black" points="883,-295 883,-313 950,-313 950,-295 883,-295"/>
<text text-anchor="middle" x="916.5" y="-301.8" font-family="Calibri" font-size="9.00">coarse_tune</text>
</a>
</g>
</g>
<!-- Node166&#45;&gt;Node168 -->
<g id="edge28" class="edge"><title>Node166&#45;&gt;Node168</title>
<path fill="none" stroke="midnightblue" d="M758.259,-315.787C766.847,-318.355 776.176,-320.694 785,-322 812.259,-326.033 819.672,-325.531 847,-322 860.658,-320.235 875.477,-316.57 887.826,-313.004"/>
<polygon fill="midnightblue" stroke="midnightblue" points="759.184,-312.408 748.593,-312.713 757.063,-319.079 759.184,-312.408"/>
</g>
<!-- Node169 -->
<g id="node17" class="node"><title>Node169</title>
<g id="a_node17"><a xlink:href="main_8h.html#a454a7687c8039514766571b23516ca9c" target="_top" xlink:title="sub_tune">
<polygon fill="none" stroke="black" points="986,-284 986,-302 1041,-302 1041,-284 986,-284"/>
<text text-anchor="middle" x="1013.5" y="-290.8" font-family="Calibri" font-size="9.00">sub_tune</text>
</a>
</g>
</g>
<!-- Node166&#45;&gt;Node169 -->
<g id="edge35" class="edge"><title>Node166&#45;&gt;Node169</title>
<path fill="none" stroke="midnightblue" d="M757.992,-291.632C766.641,-288.892 776.067,-286.392 785,-285 856.852,-273.806 942.944,-282.836 985.686,-288.801"/>
<polygon fill="midnightblue" stroke="midnightblue" points="756.63,-288.397 748.27,-294.905 758.864,-295.031 756.63,-288.397"/>
</g>
<!-- Node166&#45;&gt;Node170 -->
<g id="edge36" class="edge"><title>Node166&#45;&gt;Node170</title>
<path fill="none" stroke="midnightblue" d="M735.487,-285.8C745.701,-268.948 763.146,-244.516 785,-231 822.965,-207.52 838.632,-213.919 883,-209 955.218,-200.993 979.191,-212.8 1041,-251 1056.89,-260.818 1073.42,-274.77 1083.59,-283.853"/>
<polygon fill="midnightblue" stroke="midnightblue" points="732.312,-284.299 730.331,-294.707 738.37,-287.806 732.312,-284.299"/>
</g>
<!-- Node171 -->
<g id="node19" class="node"><title>Node171</title>
<g id="a_node19"><a xlink:href="main_8h.html#ab518a3d2c723f12d3af3024a195606ce" target="_top" xlink:title="sharp_cap">
<polygon fill="none" stroke="black" points="887,-219 887,-237 946,-237 946,-219 887,-219"/>
<text text-anchor="middle" x="916.5" y="-225.8" font-family="Calibri" font-size="9.00">sharp_cap</text>
</a>
</g>
</g>
<!-- Node166&#45;&gt;Node171 -->
<g id="edge29" class="edge"><title>Node166&#45;&gt;Node171</title>
<path fill="none" stroke="midnightblue" d="M740.1,-287.135C751.215,-275.414 767.536,-260.437 785,-252 817.669,-236.217 859.536,-230.77 886.917,-228.915"/>
<polygon fill="midnightblue" stroke="midnightblue" points="737.438,-284.86 733.287,-294.608 742.611,-289.576 737.438,-284.86"/>
</g>
<!-- Node172 -->
<g id="node20" class="node"><title>Node172</title>
<g id="a_node20"><a xlink:href="main_8h.html#a72210b3ed1d5691c5bbda8c7f1e97197" target="_top" xlink:title="sharp_ind">
<polygon fill="none" stroke="black" points="887.5,-332 887.5,-350 945.5,-350 945.5,-332 887.5,-332"/>
<text text-anchor="middle" x="916.5" y="-338.8" font-family="Calibri" font-size="9.00">sharp_ind</text>
</a>
</g>
</g>
<!-- Node166&#45;&gt;Node172 -->
<g id="edge32" class="edge"><title>Node166&#45;&gt;Node172</title>
<path fill="none" stroke="midnightblue" d="M745.879,-319.022C756.875,-326.226 771.029,-334.118 785,-338 819.281,-347.527 860.597,-346.497 887.426,-344.275"/>
<polygon fill="midnightblue" stroke="midnightblue" points="747.682,-316.014 737.458,-313.236 743.718,-321.784 747.682,-316.014"/>
</g>
<!-- Node167&#45;&gt;Node168 -->
<g id="edge24" class="edge"><title>Node167&#45;&gt;Node168</title>
<path fill="none" stroke="midnightblue" d="M857.23,-304C865.755,-304 874.653,-304 882.855,-304"/>
<polygon fill="midnightblue" stroke="midnightblue" points="857.088,-300.5 847.088,-304 857.088,-307.5 857.088,-300.5"/>
</g>
<!-- Node168&#45;&gt;Node169 -->
<g id="edge25" class="edge"><title>Node168&#45;&gt;Node169</title>
<path fill="none" stroke="midnightblue" d="M960.215,-299.054C968.896,-298.049 977.793,-297.019 985.729,-296.1"/>
<polygon fill="midnightblue" stroke="midnightblue" points="959.725,-295.587 950.194,-300.214 960.53,-302.541 959.725,-295.587"/>
</g>
<!-- Node169&#45;&gt;Node170 -->
<g id="edge26" class="edge"><title>Node169&#45;&gt;Node170</title>
<path fill="none" stroke="midnightblue" d="M1051.51,-293C1060.42,-293 1069.49,-293 1076.91,-293"/>
<polygon fill="midnightblue" stroke="midnightblue" points="1051.25,-289.5 1041.25,-293 1051.25,-296.5 1051.25,-289.5"/>
</g>
<!-- Node170&#45;&gt;Node159 -->
<g id="edge27" class="edge"><title>Node170&#45;&gt;Node159</title>
<path fill="none" stroke="midnightblue" d="M1122.43,-293C1130.63,-293 1139.64,-293 1147.82,-293"/>
<polygon fill="midnightblue" stroke="midnightblue" points="1122.25,-289.5 1112.25,-293 1122.25,-296.5 1122.25,-289.5"/>
</g>
<!-- Node171&#45;&gt;Node169 -->
<g id="edge30" class="edge"><title>Node171&#45;&gt;Node169</title>
<path fill="none" stroke="midnightblue" d="M939.084,-242.768C957.533,-255.391 983.5,-273.158 999.097,-283.829"/>
<polygon fill="midnightblue" stroke="midnightblue" points="940.939,-239.796 930.709,-237.038 936.986,-245.573 940.939,-239.796"/>
</g>
<!-- Node171&#45;&gt;Node170 -->
<g id="edge31" class="edge"><title>Node171&#45;&gt;Node170</title>
<path fill="none" stroke="midnightblue" d="M951.483,-240.551C989.01,-254.41 1047.91,-276.162 1076.62,-286.768"/>
<polygon fill="midnightblue" stroke="midnightblue" points="952.565,-237.219 941.972,-237.038 950.14,-243.786 952.565,-237.219"/>
</g>
<!-- Node172&#45;&gt;Node169 -->
<g id="edge33" class="edge"><title>Node172&#45;&gt;Node169</title>
<path fill="none" stroke="midnightblue" d="M944.723,-327.245C960.66,-319.193 980.347,-309.246 994.388,-302.151"/>
<polygon fill="midnightblue" stroke="midnightblue" points="942.716,-324.338 935.369,-331.972 945.873,-330.586 942.716,-324.338"/>
</g>
<!-- Node172&#45;&gt;Node170 -->
<g id="edge34" class="edge"><title>Node172&#45;&gt;Node170</title>
<path fill="none" stroke="midnightblue" d="M955.644,-332.689C980.174,-327.109 1012.65,-319.285 1041,-311 1053.02,-307.487 1066.37,-302.9 1076.6,-299.236"/>
<polygon fill="midnightblue" stroke="midnightblue" points="954.64,-329.327 945.653,-334.937 956.177,-336.156 954.64,-329.327"/>
</g>
<!-- Node173&#45;&gt;Node156 -->
<g id="edge41" class="edge"><title>Node173&#45;&gt;Node156</title>
<path fill="none" stroke="midnightblue" d="M517.759,-227.593C521.132,-192.122 533.436,-116.733 578,-76 627.333,-30.9085 656.664,-38 723.5,-38 723.5,-38 723.5,-38 1014.5,-38 1162.82,-38 1244.31,-68.2242 1304,-204 1343.23,-293.242 1355.74,-616.304 1357.71,-674.864"/>
<polygon fill="midnightblue" stroke="midnightblue" points="514.236,-227.736 516.924,-237.985 521.214,-228.297 514.236,-227.736"/>
</g>
<!-- Node173&#45;&gt;Node159 -->
<g id="edge38" class="edge"><title>Node173&#45;&gt;Node159</title>
<path fill="none" stroke="midnightblue" d="M530.443,-229.723C561.188,-193.725 638.835,-114 723.5,-114 723.5,-114 723.5,-114 917.5,-114 1037.67,-114 1141.89,-247.401 1168.14,-283.877"/>
<polygon fill="midnightblue" stroke="midnightblue" points="527.376,-227.936 523.661,-237.858 532.753,-232.419 527.376,-227.936"/>
</g>
<!-- Node173&#45;&gt;Node160 -->
<g id="edge39" class="edge"><title>Node173&#45;&gt;Node160</title>
<path fill="none" stroke="midnightblue" d="M521.034,-228.031C528.428,-201.112 545.618,-151.997 578,-124 629.511,-79.4639 655.405,-76 723.5,-76 723.5,-76 723.5,-76 1095.5,-76 1181.6,-76 1247.48,-181.623 1265.55,-213.804"/>
<polygon fill="midnightblue" stroke="midnightblue" points="517.628,-227.223 518.521,-237.78 524.406,-228.97 517.628,-227.223"/>
</g>
<!-- Node173&#45;&gt;Node161 -->
<g id="edge40" class="edge"><title>Node173&#45;&gt;Node161</title>
<path fill="none" stroke="midnightblue" d="M521.637,-265.86C540.3,-334.383 604.124,-568.711 617.521,-617.897"/>
<polygon fill="midnightblue" stroke="midnightblue" points="524.961,-264.747 518.956,-256.019 518.207,-266.587 524.961,-264.747"/>
</g>
<!-- Node173&#45;&gt;Node174 -->
<g id="edge42" class="edge"><title>Node173&#45;&gt;Node174</title>
<path fill="none" stroke="midnightblue" d="M541.942,-261.011C561.106,-271.566 586.829,-285.732 603.412,-294.865"/>
<polygon fill="midnightblue" stroke="midnightblue" points="543.577,-257.916 533.129,-256.158 540.2,-264.048 543.577,-257.916"/>
</g>
<!-- Node174&#45;&gt;Node160 -->
<g id="edge43" class="edge"><title>Node174&#45;&gt;Node160</title>
<path fill="none" stroke="midnightblue" d="M632.708,-286.457C658.613,-246.47 728.922,-152 815,-152 815,-152 815,-152 1095.5,-152 1160.42,-152 1229.6,-194.473 1257.62,-213.718"/>
<polygon fill="midnightblue" stroke="midnightblue" points="629.727,-284.622 627.349,-294.947 635.647,-288.359 629.727,-284.622"/>
</g>
<!-- Node174&#45;&gt;Node166 -->
<g id="edge44" class="edge"><title>Node174&#45;&gt;Node166</title>
<path fill="none" stroke="midnightblue" d="M663.362,-304C676.004,-304 689.451,-304 700.417,-304"/>
<polygon fill="midnightblue" stroke="midnightblue" points="663.005,-300.5 653.005,-304 663.005,-307.5 663.005,-300.5"/>
</g>
<!-- Node175&#45;&gt;Node173 -->
<g id="edge50" class="edge"><title>Node175&#45;&gt;Node173</title>
<path fill="none" stroke="midnightblue" d="M457.47,-259.107C468.673,-256.729 480.988,-254.114 491.299,-251.925"/>
<polygon fill="midnightblue" stroke="midnightblue" points="456.64,-255.705 447.585,-261.205 458.093,-262.552 456.64,-255.705"/>
</g>
<!-- Node176&#45;&gt;Node156 -->
<g id="edge53" class="edge"><title>Node176&#45;&gt;Node156</title>
<path fill="none" stroke="midnightblue" d="M856.15,-798C895.618,-798 958.287,-798 1012.5,-798 1012.5,-798 1012.5,-798 1176.5,-798 1234.16,-798 1256.68,-806.948 1304,-774 1333.31,-753.592 1349.39,-711.678 1355.32,-693.151"/>
<polygon fill="midnightblue" stroke="midnightblue" points="856.147,-794.5 846.147,-798 856.147,-801.5 856.147,-794.5"/>
</g>
</g>
</svg>
