<?xml version="1.0" encoding="UTF-8" standalone="no"?>
<!DOCTYPE svg PUBLIC "-//W3C//DTD SVG 1.1//EN"
 "http://www.w3.org/Graphics/SVG/1.1/DTD/svg11.dtd">
<!-- Generated by graphviz version 2.38.0 (20140413.2041)
 -->
<!-- Title: Soft_I2C_Stop Pages: 1 -->
<!--zoomable 512 -->
<svg id="main" version="1.1" xmlns="http://www.w3.org/2000/svg" xmlns:xlink="http://www.w3.org/1999/xlink" xml:space="preserve" onload="init(evt)">
<style type="text/css"><![CDATA[
.edge:hover path { stroke: red; }
.edge:hover polygon { stroke: red; fill: red; }
]]></style>
<script type="text/javascript"><![CDATA[
var edges = document.getElementsByTagName('g');
if (edges && edges.length) {
  for (var i=0;i<edges.length;i++) {
    if (edges[i].id.substr(0,4)=='edge') {
      edges[i].setAttribute('class','edge');
    }
  }
}
]]></script>
        <defs>
                <circle id="rim" cx="0" cy="0" r="7"/>
                <circle id="rim2" cx="0" cy="0" r="3.5"/>
                <g id="zoomPlus">
                        <use xlink:href="#rim" fill="#404040">
                                <set attributeName="fill" to="#808080" begin="zoomplus.mouseover" end="zoomplus.mouseout"/>
                        </use>
                        <path d="M-4,0h8M0,-4v8" fill="none" stroke="white" stroke-width="1.5" pointer-events="none"/>
                </g>
                <g id="zoomMin">
                        <use xlink:href="#rim" fill="#404040">
                                <set attributeName="fill" to="#808080" begin="zoomminus.mouseover" end="zoomminus.mouseout"/>
                        </use>
                        <path d="M-4,0h8" fill="none" stroke="white" stroke-width="1.5" pointer-events="none"/>
                </g>
                <g id="dirArrow">
                        <path fill="none" stroke="white" stroke-width="1.5" d="M0,-3.0v7 M-2.5,-0.5L0,-3.0L2.5,-0.5"/>
                </g>
               <g id="resetDef">
                       <use xlink:href="#rim2" fill="#404040">
                               <set attributeName="fill" to="#808080" begin="reset.mouseover" end="reset.mouseout"/>
                       </use>
               </g>
        </defs>

<script type="text/javascript">
var viewWidth = 1251;
var viewHeight = 512;
var sectionId = 'dynsection-18';
</script>
<script xlink:href="svgpan.js"/>
<svg id="graph" class="graph">
<g id="viewport">
<title>Soft_I2C_Stop</title>
<!-- Node1 -->
<g id="node1" class="node"><title>Node1</title>
<g id="a_node1"><a xlink:title=" ">
<polygon fill="#bfbfbf" stroke="black" points="1172,-93.5 1172,-111.5 1243,-111.5 1243,-93.5 1172,-93.5"/>
<text text-anchor="middle" x="1207.5" y="-100.3" font-family="Calibri" font-size="9.00">Soft_I2C_Stop</text>
</a>
</g>
</g>
<!-- Node2 -->
<g id="node2" class="node"><title>Node2</title>
<g id="a_node2"><a xlink:href="oled__control_8c.html#a5a5d7ef6b1877aaf94c1f4b7fc0f2d2d" target="_top" xlink:title=" ">
<polygon fill="none" stroke="black" points="1068,-75.5 1068,-93.5 1123,-93.5 1123,-75.5 1068,-75.5"/>
<text text-anchor="middle" x="1095.5" y="-82.3" font-family="Calibri" font-size="9.00">led_send</text>
</a>
</g>
</g>
<!-- Node1&#45;&gt;Node2 -->
<g id="edge1" class="edge"><title>Node1&#45;&gt;Node2</title>
<path fill="none" stroke="midnightblue" d="M1162.13,-95.239C1148.94,-93.0803 1134.9,-90.7829 1123.2,-88.8693"/>
<polygon fill="midnightblue" stroke="midnightblue" points="1161.56,-98.6932 1172,-96.8541 1162.69,-91.785 1161.56,-98.6932"/>
</g>
<!-- Node20 -->
<g id="node20" class="node"><title>Node20</title>
<g id="a_node20"><a xlink:href="oled__control_8c.html#ad95f850c4c6d949229270c8da88c02cb" target="_top" xlink:title=" ">
<polygon fill="none" stroke="black" points="950.5,-150.5 950.5,-168.5 1004.5,-168.5 1004.5,-150.5 950.5,-150.5"/>
<text text-anchor="middle" x="977.5" y="-157.3" font-family="Calibri" font-size="9.00">oled_init</text>
</a>
</g>
</g>
<!-- Node1&#45;&gt;Node20 -->
<g id="edge33" class="edge"><title>Node1&#45;&gt;Node20</title>
<path fill="none" stroke="midnightblue" d="M1184.28,-116.797C1170.83,-124.768 1153.03,-134.141 1136,-139.5 1091.3,-153.562 1036.51,-157.768 1004.75,-159.006"/>
<polygon fill="midnightblue" stroke="midnightblue" points="1186.13,-119.771 1192.84,-111.57 1182.48,-113.797 1186.13,-119.771"/>
</g>
<!-- Node21 -->
<g id="node21" class="node"><title>Node21</title>
<g id="a_node21"><a xlink:href="oled__control_8c.html#a7c3a2e5f1fed76dc27692132a2574d27" target="_top" xlink:title=" ">
<polygon fill="none" stroke="black" points="1063,-19.5 1063,-37.5 1128,-37.5 1128,-19.5 1063,-19.5"/>
<text text-anchor="middle" x="1095.5" y="-26.3" font-family="Calibri" font-size="9.00">oled_wr_str</text>
</a>
</g>
</g>
<!-- Node1&#45;&gt;Node21 -->
<g id="edge35" class="edge"><title>Node1&#45;&gt;Node21</title>
<path fill="none" stroke="midnightblue" d="M1184.55,-87.7358C1162.35,-72.797 1128.71,-50.1709 1110.1,-37.6481"/>
<polygon fill="midnightblue" stroke="midnightblue" points="1182.76,-90.7484 1193.01,-93.4261 1186.67,-84.9403 1182.76,-90.7484"/>
</g>
<!-- Node22 -->
<g id="node22" class="node"><title>Node22</title>
<g id="a_node22"><a xlink:href="oled__control_8c.html#ad141ed038278a6fcad6c307932f01ec8" target="_top" xlink:title=" ">
<polygon fill="none" stroke="black" points="1055,-112.5 1055,-130.5 1136,-130.5 1136,-112.5 1055,-112.5"/>
<text text-anchor="middle" x="1095.5" y="-119.3" font-family="Calibri" font-size="9.00">send_command</text>
</a>
</g>
</g>
<!-- Node1&#45;&gt;Node22 -->
<g id="edge37" class="edge"><title>Node1&#45;&gt;Node22</title>
<path fill="none" stroke="midnightblue" d="M1161.88,-110.207C1153.4,-111.672 1144.58,-113.196 1136.26,-114.633"/>
<polygon fill="midnightblue" stroke="midnightblue" points="1162.74,-113.611 1172,-108.46 1161.55,-106.713 1162.74,-113.611"/>
</g>
<!-- Node3 -->
<g id="node3" class="node"><title>Node3</title>
<g id="a_node3"><a xlink:href="oled__control_8c.html#a5febfdc847aa6f3bc3f3c8f7818b8699" target="_top" xlink:title=" ">
<polygon fill="none" stroke="black" points="946.5,-76.5 946.5,-94.5 1008.5,-94.5 1008.5,-76.5 946.5,-76.5"/>
<text text-anchor="middle" x="977.5" y="-83.3" font-family="Calibri" font-size="9.00">display_on</text>
</a>
</g>
</g>
<!-- Node2&#45;&gt;Node3 -->
<g id="edge2" class="edge"><title>Node2&#45;&gt;Node3</title>
<path fill="none" stroke="midnightblue" d="M1057.44,-84.8195C1041.69,-84.9552 1023.58,-85.1114 1008.67,-85.2399"/>
<polygon fill="midnightblue" stroke="midnightblue" points="1057.92,-88.3156 1067.89,-84.7294 1057.86,-81.3158 1057.92,-88.3156"/>
</g>
<!-- Node17 -->
<g id="node17" class="node"><title>Node17</title>
<g id="a_node17"><a xlink:href="oled__control_8c.html#a7eb4d382bdd4b42c57dbb7154d03ac66" target="_top" xlink:title=" ">
<polygon fill="none" stroke="black" points="851,-38.5 851,-56.5 900,-56.5 900,-38.5 851,-38.5"/>
<text text-anchor="middle" x="875.5" y="-45.3" font-family="Calibri" font-size="9.00">led_init</text>
</a>
</g>
</g>
<!-- Node2&#45;&gt;Node17 -->
<g id="edge29" class="edge"><title>Node2&#45;&gt;Node17</title>
<path fill="none" stroke="midnightblue" d="M1057.83,-74.9672C1045.54,-71.9847 1031.73,-68.8602 1019,-66.5 977.404,-58.789 928.42,-52.9597 900.066,-49.9007"/>
<polygon fill="midnightblue" stroke="midnightblue" points="1057.19,-78.4136 1067.74,-77.4192 1058.87,-71.6187 1057.19,-78.4136"/>
</g>
<!-- Node18 -->
<g id="node18" class="node"><title>Node18</title>
<g id="a_node18"><a xlink:href="oled__control_8c.html#a9d56c6c2e653b24a0caf505492ad818a" target="_top" xlink:title=" ">
<polygon fill="none" stroke="black" points="948,-0.5 948,-18.5 1007,-18.5 1007,-0.5 948,-0.5"/>
<text text-anchor="middle" x="977.5" y="-7.3" font-family="Calibri" font-size="9.00">led_wr_str</text>
</a>
</g>
</g>
<!-- Node2&#45;&gt;Node18 -->
<g id="edge31" class="edge"><title>Node2&#45;&gt;Node18</title>
<path fill="none" stroke="midnightblue" d="M1073.02,-69.4927C1058.03,-59.1461 1037.48,-45.2038 1019,-33.5 1010.99,-28.4277 1001.92,-23.0244 994.403,-18.6316"/>
<polygon fill="midnightblue" stroke="midnightblue" points="1071.35,-72.596 1081.56,-75.4182 1075.34,-66.8436 1071.35,-72.596"/>
</g>
<!-- Node19 -->
<g id="node19" class="node"><title>Node19</title>
<g id="a_node19"><a xlink:href="oled__control_8c.html#ac620c45e67383b8f8addda11fa5655af" target="_top" xlink:title=" ">
<polygon fill="none" stroke="black" points="936,-113.5 936,-131.5 1019,-131.5 1019,-113.5 936,-113.5"/>
<text text-anchor="middle" x="977.5" y="-120.3" font-family="Calibri" font-size="9.00">vodisplay_offoff</text>
</a>
</g>
</g>
<!-- Node2&#45;&gt;Node19 -->
<g id="edge32" class="edge"><title>Node2&#45;&gt;Node19</title>
<path fill="none" stroke="midnightblue" d="M1058.36,-96.3379C1041.53,-101.851 1021.83,-108.307 1006.2,-113.426"/>
<polygon fill="midnightblue" stroke="midnightblue" points="1059.47,-99.6572 1067.89,-93.218 1057.29,-93.005 1059.47,-99.6572"/>
</g>
<!-- Node4 -->
<g id="node4" class="node"><title>Node4</title>
<g id="a_node4"><a xlink:href="main_8c.html#a1c9e5d54d8cf7f3d041aa2e0b330b3dd" target="_top" xlink:title="Handle the process of the buttons being pressed.">
<polygon fill="none" stroke="black" points="74,-152.5 74,-170.5 139,-170.5 139,-152.5 74,-152.5"/>
<text text-anchor="middle" x="106.5" y="-159.3" font-family="Calibri" font-size="9.00">button_proc</text>
</a>
</g>
</g>
<!-- Node3&#45;&gt;Node4 -->
<g id="edge3" class="edge"><title>Node3&#45;&gt;Node4</title>
<path fill="none" stroke="midnightblue" d="M936.104,-85.5C897.153,-85.5 836.543,-85.5 784,-85.5 784,-85.5 784,-85.5 282.5,-85.5 215.922,-85.5 146.01,-132.352 119.043,-152.483"/>
<polygon fill="midnightblue" stroke="midnightblue" points="936.491,-89.0001 946.491,-85.5 936.491,-82.0001 936.491,-89.0001"/>
</g>
<!-- Node6 -->
<g id="node6" class="node"><title>Node6</title>
<g id="a_node6"><a xlink:href="main_8c.html#ae5a14b4884e85f47ad8a4a716f13203a" target="_top" xlink:title=" ">
<polygon fill="none" stroke="black" points="851.5,-351.5 851.5,-369.5 899.5,-369.5 899.5,-351.5 851.5,-351.5"/>
<text text-anchor="middle" x="875.5" y="-358.3" font-family="Calibri" font-size="9.00">lcd_pwr</text>
</a>
</g>
</g>
<!-- Node3&#45;&gt;Node6 -->
<g id="edge5" class="edge"><title>Node3&#45;&gt;Node6</title>
<path fill="none" stroke="midnightblue" d="M938.763,-100.565C937.78,-101.488 936.854,-102.465 936,-103.5 903.348,-143.059 882.282,-310.155 877.526,-351.311"/>
<polygon fill="midnightblue" stroke="midnightblue" points="941.124,-103.179 947.208,-94.5055 937.043,-97.4919 941.124,-103.179"/>
</g>
<!-- Node5 -->
<g id="node5" class="node"><title>Node5</title>
<g id="a_node5"><a xlink:href="main_8c.html#acdef7a1fd863a6d3770c1268cb06add3" target="_top" xlink:title=" ">
<polygon fill="none" stroke="black" points="0,-304.5 0,-322.5 38,-322.5 38,-304.5 0,-304.5"/>
<text text-anchor="middle" x="19" y="-311.3" font-family="Calibri" font-size="9.00">main</text>
</a>
</g>
</g>
<!-- Node4&#45;&gt;Node5 -->
<g id="edge4" class="edge"><title>Node4&#45;&gt;Node5</title>
<path fill="none" stroke="midnightblue" d="M95.4086,-179.44C77.0985,-211.992 39.0181,-279.69 25.1738,-304.302"/>
<polygon fill="midnightblue" stroke="midnightblue" points="98.5555,-180.985 100.408,-170.553 92.4545,-177.553 98.5555,-180.985"/>
</g>
<!-- Node6&#45;&gt;Node4 -->
<g id="edge8" class="edge"><title>Node6&#45;&gt;Node4</title>
<path fill="none" stroke="midnightblue" d="M868.803,-341.804C850.47,-285.841 787.427,-123.5 673,-123.5 673,-123.5 673,-123.5 282.5,-123.5 228.093,-123.5 166.293,-141.257 132.632,-152.495"/>
<polygon fill="midnightblue" stroke="midnightblue" points="865.518,-343.023 871.876,-351.499 872.191,-340.909 865.518,-343.023"/>
</g>
<!-- Node6&#45;&gt;Node5 -->
<g id="edge11" class="edge"><title>Node6&#45;&gt;Node5</title>
<path fill="none" stroke="midnightblue" d="M868.969,-379.488C861.003,-403.426 843.98,-444.143 815,-466.5 763.362,-506.337 738.218,-503.5 673,-503.5 673,-503.5 673,-503.5 201.5,-503.5 137.067,-503.5 117.79,-481.765 74,-434.5 42.2627,-400.244 26.9036,-344.231 21.9043,-322.507"/>
<polygon fill="midnightblue" stroke="midnightblue" points="872.355,-380.386 872.002,-369.797 865.674,-378.295 872.355,-380.386"/>
</g>
<!-- Node7 -->
<g id="node7" class="node"><title>Node7</title>
<g id="a_node7"><a xlink:href="main_8c.html#af18ed7edda7874a97cacaa11a2759260" target="_top" xlink:title=" ">
<polygon fill="none" stroke="black" points="175,-304.5 175,-322.5 230,-322.5 230,-304.5 175,-304.5"/>
<text text-anchor="middle" x="202.5" y="-311.3" font-family="Calibri" font-size="9.00">btn_push</text>
</a>
</g>
</g>
<!-- Node6&#45;&gt;Node7 -->
<g id="edge6" class="edge"><title>Node6&#45;&gt;Node7</title>
<path fill="none" stroke="midnightblue" d="M849.832,-374.435C812.697,-394.066 739.668,-427.5 673,-427.5 673,-427.5 673,-427.5 363.5,-427.5 291.533,-427.5 229.505,-350.056 209.922,-322.829"/>
<polygon fill="midnightblue" stroke="midnightblue" points="851.764,-377.369 858.898,-369.536 848.436,-371.211 851.764,-377.369"/>
</g>
<!-- Node8 -->
<g id="node8" class="node"><title>Node8</title>
<g id="a_node8"><a xlink:href="main_8c.html#ac445892220ccb3b4b337dd3e764bd6c6" target="_top" xlink:title="Handle the process of the buttons being pressed (in test mode)">
<polygon fill="none" stroke="black" points="629,-456.5 629,-474.5 715,-474.5 715,-456.5 629,-456.5"/>
<text text-anchor="middle" x="672" y="-463.3" font-family="Calibri" font-size="9.00">button_proc_test</text>
</a>
</g>
</g>
<!-- Node6&#45;&gt;Node8 -->
<g id="edge9" class="edge"><title>Node6&#45;&gt;Node8</title>
<path fill="none" stroke="midnightblue" d="M866.339,-378.687C856.842,-397.608 839.301,-426.523 815,-441.5 784.989,-459.997 744.96,-465.399 715.052,-466.52"/>
<polygon fill="midnightblue" stroke="midnightblue" points="869.53,-380.125 870.672,-369.592 863.211,-377.114 869.53,-380.125"/>
</g>
<!-- Node9 -->
<g id="node9" class="node"><title>Node9</title>
<g id="a_node9"><a xlink:href="main_8c.html#a11724d8cce81ed96bec12a004ea3ea7a" target="_top" xlink:title=" ">
<polygon fill="none" stroke="black" points="751,-285.5 751,-303.5 815,-303.5 815,-285.5 751,-285.5"/>
<text text-anchor="middle" x="783" y="-292.3" font-family="Calibri" font-size="9.00">show_reset</text>
</a>
</g>
</g>
<!-- Node6&#45;&gt;Node9 -->
<g id="edge12" class="edge"><title>Node6&#45;&gt;Node9</title>
<path fill="none" stroke="midnightblue" d="M853.405,-345.116C835.75,-332.24 811.153,-314.302 796.477,-303.599"/>
<polygon fill="midnightblue" stroke="midnightblue" points="851.774,-348.258 861.916,-351.323 855.899,-342.603 851.774,-348.258"/>
</g>
<!-- Node7&#45;&gt;Node4 -->
<g id="edge7" class="edge"><title>Node7&#45;&gt;Node4</title>
<path fill="none" stroke="midnightblue" d="M190.405,-295.56C170.275,-263.008 128.409,-195.31 113.188,-170.698"/>
<polygon fill="midnightblue" stroke="midnightblue" points="187.665,-297.783 195.901,-304.447 193.618,-294.101 187.665,-297.783"/>
</g>
<!-- Node8&#45;&gt;Node5 -->
<g id="edge10" class="edge"><title>Node8&#45;&gt;Node5</title>
<path fill="none" stroke="midnightblue" d="M618.635,-465.5C576.468,-465.5 515.671,-465.5 462.5,-465.5 462.5,-465.5 462.5,-465.5 201.5,-465.5 111.9,-465.5 43.2837,-355.276 24.8875,-322.553"/>
<polygon fill="midnightblue" stroke="midnightblue" points="618.671,-469 628.671,-465.5 618.671,-462 618.671,-469"/>
</g>
<!-- Node9&#45;&gt;Node4 -->
<g id="edge13" class="edge"><title>Node9&#45;&gt;Node4</title>
<path fill="none" stroke="midnightblue" d="M767.45,-277.679C734.789,-241.902 651.54,-161.5 563,-161.5 563,-161.5 563,-161.5 282.5,-161.5 232.37,-161.5 174.162,-161.5 139.114,-161.5"/>
<polygon fill="midnightblue" stroke="midnightblue" points="765.036,-280.23 774.307,-285.358 770.258,-275.568 765.036,-280.23"/>
</g>
<!-- Node10 -->
<g id="node10" class="node"><title>Node10</title>
<g id="a_node10"><a xlink:href="main_8h.html#ad7eb7423e0b17ccfba1ae42f3a3274e0" target="_top" xlink:title=" ">
<polygon fill="none" stroke="black" points="648,-285.5 648,-303.5 696,-303.5 696,-285.5 648,-285.5"/>
<text text-anchor="middle" x="672" y="-292.3" font-family="Calibri" font-size="9.00">get_swr</text>
</a>
</g>
</g>
<!-- Node9&#45;&gt;Node10 -->
<g id="edge14" class="edge"><title>Node9&#45;&gt;Node10</title>
<path fill="none" stroke="midnightblue" d="M740.65,-294.5C725.625,-294.5 709.181,-294.5 696.268,-294.5"/>
<polygon fill="midnightblue" stroke="midnightblue" points="740.765,-298 750.765,-294.5 740.765,-291 740.765,-298"/>
</g>
<!-- Node11 -->
<g id="node11" class="node"><title>Node11</title>
<g id="a_node11"><a xlink:href="main_8h.html#a740ef1b33bb02cd952ad7d8708999472" target="_top" xlink:title=" ">
<polygon fill="none" stroke="black" points="531,-266.5 531,-284.5 593,-284.5 593,-266.5 531,-266.5"/>
<text text-anchor="middle" x="562" y="-273.3" font-family="Calibri" font-size="9.00">coarse_cap</text>
</a>
</g>
</g>
<!-- Node10&#45;&gt;Node11 -->
<g id="edge15" class="edge"><title>Node10&#45;&gt;Node11</title>
<path fill="none" stroke="midnightblue" d="M637.912,-288.679C623.631,-286.167 607.043,-283.248 593.112,-280.797"/>
<polygon fill="midnightblue" stroke="midnightblue" points="637.376,-292.138 647.831,-290.424 638.589,-285.244 637.376,-292.138"/>
</g>
<!-- Node12 -->
<g id="node12" class="node"><title>Node12</title>
<g id="a_node12"><a xlink:href="main_8h.html#a5c7c60c7d70cf76cc52e87722bb0f614" target="_top" xlink:title=" ">
<polygon fill="none" stroke="black" points="428,-285.5 428,-303.5 495,-303.5 495,-285.5 428,-285.5"/>
<text text-anchor="middle" x="461.5" y="-292.3" font-family="Calibri" font-size="9.00">coarse_tune</text>
</a>
</g>
</g>
<!-- Node10&#45;&gt;Node12 -->
<g id="edge20" class="edge"><title>Node10&#45;&gt;Node12</title>
<path fill="none" stroke="midnightblue" d="M637.82,-294.5C598.733,-294.5 534.206,-294.5 495.29,-294.5"/>
<polygon fill="midnightblue" stroke="midnightblue" points="637.89,-298 647.89,-294.5 637.89,-291 637.89,-298"/>
</g>
<!-- Node13 -->
<g id="node13" class="node"><title>Node13</title>
<g id="a_node13"><a xlink:href="main_8h.html#a454a7687c8039514766571b23516ca9c" target="_top" xlink:title=" ">
<polygon fill="none" stroke="black" points="337,-285.5 337,-303.5 392,-303.5 392,-285.5 337,-285.5"/>
<text text-anchor="middle" x="364.5" y="-292.3" font-family="Calibri" font-size="9.00">sub_tune</text>
</a>
</g>
</g>
<!-- Node10&#45;&gt;Node13 -->
<g id="edge27" class="edge"><title>Node10&#45;&gt;Node13</title>
<path fill="none" stroke="midnightblue" d="M648.748,-280.277C633.671,-271.512 612.934,-261.098 593,-256.5 517.888,-239.177 427.101,-269.392 386.684,-285.448"/>
<polygon fill="midnightblue" stroke="midnightblue" points="646.974,-283.295 657.346,-285.455 650.585,-277.298 646.974,-283.295"/>
</g>
<!-- Node14 -->
<g id="node14" class="node"><title>Node14</title>
<g id="a_node14"><a xlink:href="main_8h.html#a1849f2e5bd63d11a7b9549470e287d17" target="_top" xlink:title=" ">
<polygon fill="none" stroke="black" points="266,-304.5 266,-322.5 301,-322.5 301,-304.5 266,-304.5"/>
<text text-anchor="middle" x="283.5" y="-311.3" font-family="Calibri" font-size="9.00">tune</text>
</a>
</g>
</g>
<!-- Node10&#45;&gt;Node14 -->
<g id="edge28" class="edge"><title>Node10&#45;&gt;Node14</title>
<path fill="none" stroke="midnightblue" d="M652.322,-279.222C637.315,-267.992 615.156,-253.659 593,-247.5 482.726,-216.844 440.698,-227.055 337,-275.5 320.893,-283.025 304.67,-295.736 294.609,-304.365"/>
<polygon fill="midnightblue" stroke="midnightblue" points="650.229,-282.029 660.276,-285.391 654.519,-276.497 650.229,-282.029"/>
</g>
<!-- Node15 -->
<g id="node15" class="node"><title>Node15</title>
<g id="a_node15"><a xlink:href="main_8h.html#ab518a3d2c723f12d3af3024a195606ce" target="_top" xlink:title=" ">
<polygon fill="none" stroke="black" points="432,-361.5 432,-379.5 491,-379.5 491,-361.5 432,-361.5"/>
<text text-anchor="middle" x="461.5" y="-368.3" font-family="Calibri" font-size="9.00">sharp_cap</text>
</a>
</g>
</g>
<!-- Node10&#45;&gt;Node15 -->
<g id="edge21" class="edge"><title>Node10&#45;&gt;Node15</title>
<path fill="none" stroke="midnightblue" d="M642.183,-307.88C627.587,-314.447 609.505,-322.265 593,-328.5 558.378,-341.58 517.667,-354.266 491.038,-362.211"/>
<polygon fill="midnightblue" stroke="midnightblue" points="644.012,-310.893 651.668,-303.569 641.116,-304.52 644.012,-310.893"/>
</g>
<!-- Node16 -->
<g id="node16" class="node"><title>Node16</title>
<g id="a_node16"><a xlink:href="main_8h.html#a72210b3ed1d5691c5bbda8c7f1e97197" target="_top" xlink:title=" ">
<polygon fill="none" stroke="black" points="432.5,-323.5 432.5,-341.5 490.5,-341.5 490.5,-323.5 432.5,-323.5"/>
<text text-anchor="middle" x="461.5" y="-330.3" font-family="Calibri" font-size="9.00">sharp_ind</text>
</a>
</g>
</g>
<!-- Node10&#45;&gt;Node16 -->
<g id="edge24" class="edge"><title>Node10&#45;&gt;Node16</title>
<path fill="none" stroke="midnightblue" d="M637.939,-300.525C597.282,-307.935 528.969,-320.386 490.685,-327.363"/>
<polygon fill="midnightblue" stroke="midnightblue" points="638.68,-303.948 647.89,-298.712 637.425,-297.062 638.68,-303.948"/>
</g>
<!-- Node11&#45;&gt;Node12 -->
<g id="edge16" class="edge"><title>Node11&#45;&gt;Node12</title>
<path fill="none" stroke="midnightblue" d="M521.051,-283.206C512.441,-284.867 503.437,-286.603 495.145,-288.203"/>
<polygon fill="midnightblue" stroke="midnightblue" points="521.755,-286.635 530.912,-281.304 520.43,-279.761 521.755,-286.635"/>
</g>
<!-- Node12&#45;&gt;Node13 -->
<g id="edge17" class="edge"><title>Node12&#45;&gt;Node13</title>
<path fill="none" stroke="midnightblue" d="M417.785,-294.5C409.104,-294.5 400.207,-294.5 392.271,-294.5"/>
<polygon fill="midnightblue" stroke="midnightblue" points="417.806,-298 427.806,-294.5 417.806,-291 417.806,-298"/>
</g>
<!-- Node13&#45;&gt;Node14 -->
<g id="edge18" class="edge"><title>Node13&#45;&gt;Node14</title>
<path fill="none" stroke="midnightblue" d="M326.778,-303.332C317.78,-305.496 308.589,-307.706 301.085,-309.511"/>
<polygon fill="midnightblue" stroke="midnightblue" points="327.85,-306.674 336.754,-300.933 326.213,-299.868 327.85,-306.674"/>
</g>
<!-- Node14&#45;&gt;Node7 -->
<g id="edge19" class="edge"><title>Node14&#45;&gt;Node7</title>
<path fill="none" stroke="midnightblue" d="M255.568,-313.5C247.367,-313.5 238.36,-313.5 230.177,-313.5"/>
<polygon fill="midnightblue" stroke="midnightblue" points="255.746,-317 265.746,-313.5 255.746,-310 255.746,-317"/>
</g>
<!-- Node15&#45;&gt;Node13 -->
<g id="edge22" class="edge"><title>Node15&#45;&gt;Node13</title>
<path fill="none" stroke="midnightblue" d="M435.955,-356.052C433.223,-354.252 430.52,-352.381 428,-350.5 407.917,-335.512 386.607,-315.385 374.785,-303.79"/>
<polygon fill="midnightblue" stroke="midnightblue" points="434.26,-359.121 444.588,-361.486 437.989,-353.197 434.26,-359.121"/>
</g>
<!-- Node15&#45;&gt;Node14 -->
<g id="edge23" class="edge"><title>Node15&#45;&gt;Node14</title>
<path fill="none" stroke="midnightblue" d="M421.672,-361.342C397.122,-355.176 364.877,-346.385 337,-336.5 324.808,-332.176 311.46,-326.313 301.274,-321.588"/>
<polygon fill="midnightblue" stroke="midnightblue" points="421.14,-364.815 431.688,-363.819 422.82,-358.02 421.14,-364.815"/>
</g>
<!-- Node16&#45;&gt;Node13 -->
<g id="edge25" class="edge"><title>Node16&#45;&gt;Node13</title>
<path fill="none" stroke="midnightblue" d="M428.325,-319.63C415.139,-314.356 400.189,-308.376 388.181,-303.573"/>
<polygon fill="midnightblue" stroke="midnightblue" points="427.402,-323.03 437.986,-323.495 430.001,-316.531 427.402,-323.03"/>
</g>
<!-- Node16&#45;&gt;Node14 -->
<g id="edge26" class="edge"><title>Node16&#45;&gt;Node14</title>
<path fill="none" stroke="midnightblue" d="M422.097,-328.354C384.36,-324.28 328.557,-318.256 301.055,-315.287"/>
<polygon fill="midnightblue" stroke="midnightblue" points="421.905,-331.854 432.223,-329.447 422.656,-324.894 421.905,-331.854"/>
</g>
<!-- Node17&#45;&gt;Node5 -->
<g id="edge30" class="edge"><title>Node17&#45;&gt;Node5</title>
<path fill="none" stroke="midnightblue" d="M840.919,-47.5C800.922,-47.5 732.088,-47.5 673,-47.5 673,-47.5 673,-47.5 201.5,-47.5 130.833,-47.5 114.954,-84.9102 74,-142.5 35.9304,-196.034 23.932,-277.487 20.8901,-304.469"/>
<polygon fill="midnightblue" stroke="midnightblue" points="840.924,-51.0001 850.924,-47.5 840.924,-44.0001 840.924,-51.0001"/>
</g>
<!-- Node20&#45;&gt;Node17 -->
<g id="edge34" class="edge"><title>Node20&#45;&gt;Node17</title>
<path fill="none" stroke="midnightblue" d="M942.281,-145.246C940.061,-143.784 937.941,-142.203 936,-140.5 907.904,-115.85 888.087,-74.7929 880.239,-56.626"/>
<polygon fill="midnightblue" stroke="midnightblue" points="940.747,-148.4 951.17,-150.303 944.208,-142.316 940.747,-148.4"/>
</g>
<!-- Node21&#45;&gt;Node18 -->
<g id="edge36" class="edge"><title>Node21&#45;&gt;Node18</title>
<path fill="none" stroke="midnightblue" d="M1052.7,-21.6542C1037.67,-19.1924 1021.07,-16.472 1007.38,-14.2302"/>
<polygon fill="midnightblue" stroke="midnightblue" points="1052.37,-25.1457 1062.8,-23.3082 1053.5,-18.2377 1052.37,-25.1457"/>
</g>
<!-- Node22&#45;&gt;Node3 -->
<g id="edge38" class="edge"><title>Node22&#45;&gt;Node3</title>
<path fill="none" stroke="midnightblue" d="M1055.35,-109.349C1039.78,-104.519 1022.19,-99.0577 1007.76,-94.5814"/>
<polygon fill="midnightblue" stroke="midnightblue" points="1054.64,-112.794 1065.23,-112.416 1056.72,-106.109 1054.64,-112.794"/>
</g>
<!-- Node22&#45;&gt;Node19 -->
<g id="edge40" class="edge"><title>Node22&#45;&gt;Node19</title>
<path fill="none" stroke="midnightblue" d="M1044.67,-121.93C1036.13,-122.003 1027.36,-122.079 1019.1,-122.15"/>
<polygon fill="midnightblue" stroke="midnightblue" points="1044.93,-125.428 1054.9,-121.841 1044.87,-118.428 1044.93,-125.428"/>
</g>
<!-- Node22&#45;&gt;Node20 -->
<g id="edge39" class="edge"><title>Node22&#45;&gt;Node20</title>
<path fill="none" stroke="midnightblue" d="M1057.28,-133.694C1040.11,-139.319 1020.14,-145.861 1004.6,-150.951"/>
<polygon fill="midnightblue" stroke="midnightblue" points="1058.6,-136.945 1067.01,-130.505 1056.42,-130.293 1058.6,-136.945"/>
</g>
</g>
</svg>
        <g id="navigator" transform="translate(0 0)" fill="#404254">
                <rect fill="#f2f5e9" fill-opacity="0.5" stroke="#606060" stroke-width=".5" x="0" y="0" width="60" height="60"/>
                <use id="zoomplus" xlink:href="#zoomPlus" x="17" y="9" onmousedown="handleZoom(evt,'in')"/>
                <use id="zoomminus" xlink:href="#zoomMin" x="42" y="9" onmousedown="handleZoom(evt,'out')"/>
                <use id="reset" xlink:href="#resetDef" x="30" y="36" onmousedown="handleReset()"/>
                <g id="arrowUp" xlink:href="#dirArrow" transform="translate(30 24)" onmousedown="handlePan(0,-1)">
                  <use xlink:href="#rim" fill="#404040">
                        <set attributeName="fill" to="#808080" begin="arrowUp.mouseover" end="arrowUp.mouseout"/>
                  </use>
                  <path fill="none" stroke="white" stroke-width="1.5" d="M0,-3.0v7 M-2.5,-0.5L0,-3.0L2.5,-0.5"/>
                </g>
                <g id="arrowRight" xlink:href="#dirArrow" transform="rotate(90) translate(36 -43)" onmousedown="handlePan(1,0)">
                  <use xlink:href="#rim" fill="#404040">
                        <set attributeName="fill" to="#808080" begin="arrowRight.mouseover" end="arrowRight.mouseout"/>
                  </use>
                  <path fill="none" stroke="white" stroke-width="1.5" d="M0,-3.0v7 M-2.5,-0.5L0,-3.0L2.5,-0.5"/>
                </g>
                <g id="arrowDown" xlink:href="#dirArrow" transform="rotate(180) translate(-30 -48)" onmousedown="handlePan(0,1)">
                  <use xlink:href="#rim" fill="#404040">
                        <set attributeName="fill" to="#808080" begin="arrowDown.mouseover" end="arrowDown.mouseout"/>
                  </use>
                  <path fill="none" stroke="white" stroke-width="1.5" d="M0,-3.0v7 M-2.5,-0.5L0,-3.0L2.5,-0.5"/>
                </g>
                <g id="arrowLeft" xlink:href="#dirArrow" transform="rotate(270) translate(-36 17)" onmousedown="handlePan(-1,0)">
                  <use xlink:href="#rim" fill="#404040">
                        <set attributeName="fill" to="#808080" begin="arrowLeft.mouseover" end="arrowLeft.mouseout"/>
                  </use>
                  <path fill="none" stroke="white" stroke-width="1.5" d="M0,-3.0v7 M-2.5,-0.5L0,-3.0L2.5,-0.5"/>
                </g>
        </g>
        <svg viewBox="0 0 15 15" width="100%" height="30px" preserveAspectRatio="xMaxYMin meet">
         <g id="arrow_out" transform="scale(0.3 0.3)">
          <a xlink:href="oled__control_8c_a16eb842aa672ca44820ae6d5f9933425_icgraph_org.svg" target="_base">
           <rect id="button" ry="5" rx="5" y="6" x="6" height="38" width="38"
                fill="#f2f5e9" fill-opacity="0.5" stroke="#606060" stroke-width="1.0"/>
           <path id="arrow"
             d="M 11.500037,31.436501 C 11.940474,20.09759 22.043105,11.32322 32.158766,21.979434 L 37.068811,17.246167 C 37.068811,17.246167 37.088388,32 37.088388,32 L 22.160133,31.978069 C 22.160133,31.978069 26.997745,27.140456 26.997745,27.140456 C 18.528582,18.264221 13.291696,25.230495 11.500037,31.436501 z"
             style="fill:#404040;"/>
          </a>
         </g>
        </svg>
</svg>
