<?xml version="1.0" encoding="UTF-8" standalone="no"?>
<!DOCTYPE svg PUBLIC "-//W3C//DTD SVG 1.1//EN"
 "http://www.w3.org/Graphics/SVG/1.1/DTD/svg11.dtd">
<!-- Generated by graphviz version 2.38.0 (20140413.2041)
 -->
<!-- Title: led_wr_str Pages: 1 -->
<svg width="1180pt" height="778pt"
 viewBox="0.00 0.00 1180.00 777.50" xmlns="http://www.w3.org/2000/svg" xmlns:xlink="http://www.w3.org/1999/xlink">
<g id="graph0" class="graph" transform="scale(1 1) rotate(0) translate(4 773.5)">
<title>led_wr_str</title>
<!-- Node73 -->
<g id="node1" class="node"><title>Node73</title>
<polygon fill="#bfbfbf" stroke="black" points="0,-247.5 0,-265.5 59,-265.5 59,-247.5 0,-247.5"/>
<text text-anchor="middle" x="29.5" y="-254.3" font-family="Calibri" font-size="9.00">led_wr_str</text>
</g>
<!-- Node74 -->
<g id="node2" class="node"><title>Node74</title>
<g id="a_node2"><a xlink:href="main_8h.html#ae9b379f911db06ddd04a15d876ac0732" target="_top" xlink:title="btn_push">
<polygon fill="none" stroke="black" points="942,-456.5 942,-474.5 997,-474.5 997,-456.5 942,-456.5"/>
<text text-anchor="middle" x="969.5" y="-463.3" font-family="Calibri" font-size="9.00">btn_push</text>
</a>
</g>
</g>
<!-- Node73&#45;&gt;Node74 -->
<g id="edge1" class="edge"><title>Node73&#45;&gt;Node74</title>
<path fill="none" stroke="midnightblue" d="M30.0753,-275.661C29.3905,-355.235 37.9411,-655.5 206,-655.5 206,-655.5 206,-655.5 808.5,-655.5 904.236,-655.5 954.252,-512.617 965.849,-474.664"/>
<polygon fill="midnightblue" stroke="midnightblue" points="33.576,-275.634 30.2255,-265.583 26.5768,-275.53 33.576,-275.634"/>
</g>
<!-- Node75 -->
<g id="node3" class="node"><title>Node75</title>
<g id="a_node3"><a xlink:href="main_8h.html#a1c9e5d54d8cf7f3d041aa2e0b330b3dd" target="_top" xlink:title="button_proc">
<polygon fill="none" stroke="black" points="1033,-361.5 1033,-379.5 1098,-379.5 1098,-361.5 1033,-361.5"/>
<text text-anchor="middle" x="1065.5" y="-368.3" font-family="Calibri" font-size="9.00">button_proc</text>
</a>
</g>
</g>
<!-- Node73&#45;&gt;Node75 -->
<g id="edge4" class="edge"><title>Node73&#45;&gt;Node75</title>
<path fill="none" stroke="midnightblue" d="M32.1666,-275.567C38.2838,-342.73 60.933,-567.668 95,-630.5 126.792,-689.135 139.301,-731.5 206,-731.5 206,-731.5 206,-731.5 889.5,-731.5 1050.74,-731.5 1063.47,-436.291 1064.43,-379.786"/>
<polygon fill="midnightblue" stroke="midnightblue" points="35.6483,-275.205 31.2719,-265.556 28.6761,-275.828 35.6483,-275.205"/>
</g>
<!-- Node76 -->
<g id="node4" class="node"><title>Node76</title>
<g id="a_node4"><a xlink:href="main_8c.html#acdef7a1fd863a6d3770c1268cb06add3" target="_top" xlink:title="main">
<polygon fill="none" stroke="black" points="1134,-133.5 1134,-151.5 1172,-151.5 1172,-133.5 1134,-133.5"/>
<text text-anchor="middle" x="1153" y="-140.3" font-family="Calibri" font-size="9.00">main</text>
</a>
</g>
</g>
<!-- Node73&#45;&gt;Node76 -->
<g id="edge46" class="edge"><title>Node73&#45;&gt;Node76</title>
<path fill="none" stroke="midnightblue" d="M31.5328,-275.97C35.7413,-349.899 53.3921,-612.613 95,-683.5 126.591,-737.321 143.592,-769.5 206,-769.5 206,-769.5 206,-769.5 970.5,-769.5 1074.05,-769.5 1062.33,-671.709 1098,-574.5 1157.11,-413.428 1153.85,-198.338 1152.35,-151.674"/>
<polygon fill="midnightblue" stroke="midnightblue" points="35.0165,-275.577 30.9711,-265.785 28.0271,-275.962 35.0165,-275.577"/>
</g>
<!-- Node77 -->
<g id="node5" class="node"><title>Node77</title>
<g id="a_node5"><a xlink:href="main_8h.html#ac445892220ccb3b4b337dd3e764bd6c6" target="_top" xlink:title="button_proc_test">
<polygon fill="none" stroke="black" points="361,-114.5 361,-132.5 447,-132.5 447,-114.5 361,-114.5"/>
<text text-anchor="middle" x="404" y="-121.3" font-family="Calibri" font-size="9.00">button_proc_test</text>
</a>
</g>
</g>
<!-- Node73&#45;&gt;Node77 -->
<g id="edge5" class="edge"><title>Node73&#45;&gt;Node77</title>
<path fill="none" stroke="midnightblue" d="M52.9376,-242.008C65.059,-234.6 80.4799,-225.836 95,-219.5 188.685,-178.617 305.325,-147.236 364.58,-132.586"/>
<polygon fill="midnightblue" stroke="midnightblue" points="51.0129,-239.084 44.381,-247.346 54.7179,-245.023 51.0129,-239.084"/>
</g>
<!-- Node78 -->
<g id="node6" class="node"><title>Node78</title>
<g id="a_node6"><a xlink:href="main_8h.html#abf3918c21112474db61609b3462577ee" target="_top" xlink:title="lcd_ind">
<polygon fill="none" stroke="black" points="95,-380.5 95,-398.5 142,-398.5 142,-380.5 95,-380.5"/>
<text text-anchor="middle" x="118.5" y="-387.3" font-family="Calibri" font-size="9.00">lcd_ind</text>
</a>
</g>
</g>
<!-- Node73&#45;&gt;Node78 -->
<g id="edge7" class="edge"><title>Node73&#45;&gt;Node78</title>
<path fill="none" stroke="midnightblue" d="M42.1092,-274.247C60.8602,-302.913 97.156,-358.399 111.478,-380.294"/>
<polygon fill="midnightblue" stroke="midnightblue" points="44.8831,-272.094 36.4799,-265.642 39.0251,-275.926 44.8831,-272.094"/>
</g>
<!-- Node79 -->
<g id="node7" class="node"><title>Node79</title>
<g id="a_node7"><a xlink:href="main_8h.html#a5b51833f12193accc58a0162848dc02e" target="_top" xlink:title="lcd_prep">
<polygon fill="none" stroke="black" points="181,-86.5 181,-104.5 233,-104.5 233,-86.5 181,-86.5"/>
<text text-anchor="middle" x="207" y="-93.3" font-family="Calibri" font-size="9.00">lcd_prep</text>
</a>
</g>
</g>
<!-- Node73&#45;&gt;Node79 -->
<g id="edge42" class="edge"><title>Node73&#45;&gt;Node79</title>
<path fill="none" stroke="midnightblue" d="M34.971,-237.408C42.5174,-209.404 60.4545,-157.391 95,-128.5 119.521,-107.993 156.401,-100.229 180.829,-97.2903"/>
<polygon fill="midnightblue" stroke="midnightblue" points="31.5582,-236.628 32.5006,-247.18 38.3447,-238.343 31.5582,-236.628"/>
</g>
<!-- Node80 -->
<g id="node8" class="node"><title>Node80</title>
<g id="a_node8"><a xlink:href="main_8c.html#a5eca6549371bdbac746144deefa131ca" target="_top" xlink:title="Test_init">
<polygon fill="none" stroke="black" points="272,-38.5 272,-56.5 325,-56.5 325,-38.5 272,-38.5"/>
<text text-anchor="middle" x="298.5" y="-45.3" font-family="Calibri" font-size="9.00">Test_init</text>
</a>
</g>
</g>
<!-- Node73&#45;&gt;Node80 -->
<g id="edge51" class="edge"><title>Node73&#45;&gt;Node80</title>
<path fill="none" stroke="midnightblue" d="M33.2214,-237.367C38.8389,-204.946 54.7477,-139.17 95,-102.5 145.225,-56.7446 229.744,-48.4658 271.934,-47.343"/>
<polygon fill="midnightblue" stroke="midnightblue" points="29.7492,-236.916 31.6406,-247.341 36.6629,-238.012 29.7492,-236.916"/>
</g>
<!-- Node81 -->
<g id="node9" class="node"><title>Node81</title>
<g id="a_node9"><a xlink:href="main_8h.html#a3cfc40ce98a046339c33b0ee86777042" target="_top" xlink:title="show_pwr">
<polygon fill="none" stroke="black" points="178,-342.5 178,-360.5 236,-360.5 236,-342.5 178,-342.5"/>
<text text-anchor="middle" x="207" y="-349.3" font-family="Calibri" font-size="9.00">show_pwr</text>
</a>
</g>
</g>
<!-- Node73&#45;&gt;Node81 -->
<g id="edge49" class="edge"><title>Node73&#45;&gt;Node81</title>
<path fill="none" stroke="midnightblue" d="M56.3711,-270.504C92.8743,-290.264 158.468,-325.771 189.223,-342.419"/>
<polygon fill="midnightblue" stroke="midnightblue" points="57.7881,-267.291 47.3277,-265.609 54.4558,-273.447 57.7881,-267.291"/>
</g>
<!-- Node89 -->
<g id="node17" class="node"><title>Node89</title>
<g id="a_node17"><a xlink:href="main_8h.html#a236d4ed610f158cf424d552ac88e666c" target="_top" xlink:title="lcd_pwr">
<polygon fill="none" stroke="black" points="274.5,-228.5 274.5,-246.5 322.5,-246.5 322.5,-228.5 274.5,-228.5"/>
<text text-anchor="middle" x="298.5" y="-235.3" font-family="Calibri" font-size="9.00">lcd_pwr</text>
</a>
</g>
</g>
<!-- Node73&#45;&gt;Node89 -->
<g id="edge43" class="edge"><title>Node73&#45;&gt;Node89</title>
<path fill="none" stroke="midnightblue" d="M62.1513,-244C102.414,-229.634 174.154,-209.164 236,-218.5 248.928,-220.452 262.885,-224.588 274.23,-228.504"/>
<polygon fill="midnightblue" stroke="midnightblue" points="60.7998,-240.768 52.6182,-247.499 63.2119,-247.339 60.7998,-240.768"/>
</g>
<!-- Node90 -->
<g id="node18" class="node"><title>Node90</title>
<g id="a_node18"><a xlink:href="main_8h.html#ad9d02e37f1f201576a9d93fd36fc4768" target="_top" xlink:title="show_reset">
<polygon fill="none" stroke="black" points="372,-266.5 372,-284.5 436,-284.5 436,-266.5 372,-266.5"/>
<text text-anchor="middle" x="404" y="-273.3" font-family="Calibri" font-size="9.00">show_reset</text>
</a>
</g>
</g>
<!-- Node73&#45;&gt;Node90 -->
<g id="edge50" class="edge"><title>Node73&#45;&gt;Node90</title>
<path fill="none" stroke="midnightblue" d="M69.1468,-259.698C77.6593,-260.346 86.6316,-260.986 95,-261.5 196.243,-267.724 316.367,-272.405 371.943,-274.417"/>
<polygon fill="midnightblue" stroke="midnightblue" points="69.305,-256.2 59.063,-258.911 68.7605,-263.179 69.305,-256.2"/>
</g>
<!-- Node91 -->
<g id="node19" class="node"><title>Node91</title>
<g id="a_node19"><a xlink:href="main_8h.html#ac719b8f1806a4dae51a6c47c20573fa2" target="_top" xlink:title="lcd_swr">
<polygon fill="none" stroke="black" points="183.5,-228.5 183.5,-246.5 230.5,-246.5 230.5,-228.5 183.5,-228.5"/>
<text text-anchor="middle" x="207" y="-235.3" font-family="Calibri" font-size="9.00">lcd_swr</text>
</a>
</g>
</g>
<!-- Node73&#45;&gt;Node91 -->
<g id="edge44" class="edge"><title>Node73&#45;&gt;Node91</title>
<path fill="none" stroke="midnightblue" d="M69.408,-252.288C104.362,-248.504 154.488,-243.077 183.293,-239.958"/>
<polygon fill="midnightblue" stroke="midnightblue" points="68.6529,-248.849 59.0877,-253.405 69.4064,-255.808 68.6529,-248.849"/>
</g>
<!-- Node92 -->
<g id="node20" class="node"><title>Node92</title>
<g id="a_node20"><a xlink:href="main_8h.html#aad7203cfd92bc4b814e43c04a209f634" target="_top" xlink:title="show_loss">
<polygon fill="none" stroke="black" points="483,-0.5 483,-18.5 543,-18.5 543,-0.5 483,-0.5"/>
<text text-anchor="middle" x="513" y="-7.3" font-family="Calibri" font-size="9.00">show_loss</text>
</a>
</g>
</g>
<!-- Node73&#45;&gt;Node92 -->
<g id="edge47" class="edge"><title>Node73&#45;&gt;Node92</title>
<path fill="none" stroke="midnightblue" d="M32.6265,-236.954C37.5237,-200.363 52.6286,-120.698 95,-70.5 131.309,-27.4835 149.708,-9.5 206,-9.5 206,-9.5 206,-9.5 299.5,-9.5 364.984,-9.5 441.819,-9.5 482.783,-9.5"/>
<polygon fill="midnightblue" stroke="midnightblue" points="29.1098,-236.878 31.3735,-247.228 36.0584,-237.726 29.1098,-236.878"/>
</g>
<!-- Node74&#45;&gt;Node75 -->
<g id="edge2" class="edge"><title>Node74&#45;&gt;Node75</title>
<path fill="none" stroke="midnightblue" d="M986.65,-449.179C1006.49,-429.125 1039.48,-395.791 1055.38,-379.721"/>
<polygon fill="midnightblue" stroke="midnightblue" points="984.059,-446.821 979.513,-456.391 989.035,-451.744 984.059,-446.821"/>
</g>
<!-- Node75&#45;&gt;Node76 -->
<g id="edge3" class="edge"><title>Node75&#45;&gt;Node76</title>
<path fill="none" stroke="midnightblue" d="M1073.51,-351.813C1090.96,-305.279 1135.87,-185.521 1148.59,-151.585"/>
<polygon fill="midnightblue" stroke="midnightblue" points="1070.19,-350.687 1069.96,-361.28 1076.75,-353.145 1070.19,-350.687"/>
</g>
<!-- Node77&#45;&gt;Node76 -->
<g id="edge6" class="edge"><title>Node77&#45;&gt;Node76</title>
<path fill="none" stroke="midnightblue" d="M457.277,-123.5C498.489,-123.5 557.413,-123.5 609,-123.5 609,-123.5 609,-123.5 970.5,-123.5 1030.54,-123.5 1101.14,-133.911 1133.77,-139.32"/>
<polygon fill="midnightblue" stroke="midnightblue" points="457.196,-120 447.196,-123.5 457.196,-127 457.196,-120"/>
</g>
<!-- Node78&#45;&gt;Node74 -->
<g id="edge8" class="edge"><title>Node78&#45;&gt;Node74</title>
<path fill="none" stroke="midnightblue" d="M124.21,-408.546C131.66,-435.292 148.439,-484.204 178,-515.5 219.37,-559.299 237.252,-579.5 297.5,-579.5 297.5,-579.5 297.5,-579.5 808.5,-579.5 880.467,-579.5 942.495,-502.056 962.078,-474.829"/>
<polygon fill="midnightblue" stroke="midnightblue" points="127.511,-407.335 121.579,-398.557 120.742,-409.119 127.511,-407.335"/>
</g>
<!-- Node78&#45;&gt;Node75 -->
<g id="edge9" class="edge"><title>Node78&#45;&gt;Node75</title>
<path fill="none" stroke="midnightblue" d="M121.657,-408.838C126.321,-442.391 140.165,-511.97 178,-555.5 217.251,-600.66 237.666,-617.5 297.5,-617.5 297.5,-617.5 297.5,-617.5 889.5,-617.5 1008.53,-617.5 1053.93,-424.146 1062.81,-379.584"/>
<polygon fill="midnightblue" stroke="midnightblue" points="125.087,-408.059 120.367,-398.574 118.142,-408.932 125.087,-408.059"/>
</g>
<!-- Node78&#45;&gt;Node76 -->
<g id="edge15" class="edge"><title>Node78&#45;&gt;Node76</title>
<path fill="none" stroke="midnightblue" d="M121.4,-408.563C129.183,-475.172 164.815,-693.5 297.5,-693.5 297.5,-693.5 297.5,-693.5 970.5,-693.5 1089.6,-693.5 1143.55,-223.244 1151.07,-151.604"/>
<polygon fill="midnightblue" stroke="midnightblue" points="124.877,-408.161 120.315,-398.598 117.918,-408.918 124.877,-408.161"/>
</g>
<!-- Node78&#45;&gt;Node77 -->
<g id="edge10" class="edge"><title>Node78&#45;&gt;Node77</title>
<path fill="none" stroke="midnightblue" d="M134.067,-372.44C166.306,-334.806 243.116,-245.841 272,-218.5 308.748,-183.716 319.131,-175.915 361,-147.5 368.783,-142.218 377.795,-136.964 385.471,-132.725"/>
<polygon fill="midnightblue" stroke="midnightblue" points="131.062,-370.569 127.221,-380.443 136.381,-375.12 131.062,-370.569"/>
</g>
<!-- Node78&#45;&gt;Node79 -->
<g id="edge11" class="edge"><title>Node78&#45;&gt;Node79</title>
<path fill="none" stroke="midnightblue" d="M125.078,-370.54C141.838,-313.576 191.329,-145.365 203.348,-104.515"/>
<polygon fill="midnightblue" stroke="midnightblue" points="121.649,-369.797 122.184,-380.379 128.364,-371.773 121.649,-369.797"/>
</g>
<!-- Node78&#45;&gt;Node81 -->
<g id="edge16" class="edge"><title>Node78&#45;&gt;Node81</title>
<path fill="none" stroke="midnightblue" d="M149.504,-376.319C161.335,-371.122 174.629,-365.281 185.348,-360.573"/>
<polygon fill="midnightblue" stroke="midnightblue" points="147.747,-373.268 139.999,-380.495 150.563,-379.677 147.747,-373.268"/>
</g>
<!-- Node86 -->
<g id="node14" class="node"><title>Node86</title>
<g id="a_node14"><a xlink:href="main_8h.html#a1849f2e5bd63d11a7b9549470e287d17" target="_top" xlink:title="tune">
<polygon fill="none" stroke="black" points="871,-456.5 871,-474.5 906,-474.5 906,-456.5 871,-456.5"/>
<text text-anchor="middle" x="888.5" y="-463.3" font-family="Calibri" font-size="9.00">tune</text>
</a>
</g>
</g>
<!-- Node78&#45;&gt;Node86 -->
<g id="edge41" class="edge"><title>Node78&#45;&gt;Node86</title>
<path fill="none" stroke="midnightblue" d="M129.17,-407.297C152.424,-447.428 215.66,-541.5 297.5,-541.5 297.5,-541.5 297.5,-541.5 711.5,-541.5 778.398,-541.5 848.744,-494.648 875.883,-474.517"/>
<polygon fill="midnightblue" stroke="midnightblue" points="132.203,-405.549 124.246,-398.553 126.104,-408.984 132.203,-405.549"/>
</g>
<!-- Node78&#45;&gt;Node90 -->
<g id="edge40" class="edge"><title>Node78&#45;&gt;Node90</title>
<path fill="none" stroke="midnightblue" d="M152.661,-386.853C176.4,-384.232 208.834,-379.151 236,-369.5 297.761,-347.559 363.362,-303.722 390.319,-284.681"/>
<polygon fill="midnightblue" stroke="midnightblue" points="152.012,-383.401 142.416,-387.892 152.718,-390.366 152.012,-383.401"/>
</g>
<!-- Node79&#45;&gt;Node76 -->
<g id="edge12" class="edge"><title>Node79&#45;&gt;Node76</title>
<path fill="none" stroke="midnightblue" d="M243.533,-92.5824C282.597,-89.6306 347.226,-85.5 403,-85.5 403,-85.5 403,-85.5 970.5,-85.5 1033.58,-85.5 1103.57,-117.229 1135.04,-133.342"/>
<polygon fill="midnightblue" stroke="midnightblue" points="242.922,-89.1191 233.221,-93.3793 243.461,-96.0983 242.922,-89.1191"/>
</g>
<!-- Node79&#45;&gt;Node80 -->
<g id="edge13" class="edge"><title>Node79&#45;&gt;Node80</title>
<path fill="none" stroke="midnightblue" d="M233.647,-81.745C248.662,-73.6926 267.208,-63.746 280.437,-56.6511"/>
<polygon fill="midnightblue" stroke="midnightblue" points="231.993,-78.6608 224.834,-86.4716 235.301,-84.8296 231.993,-78.6608"/>
</g>
<!-- Node80&#45;&gt;Node76 -->
<g id="edge14" class="edge"><title>Node80&#45;&gt;Node76</title>
<path fill="none" stroke="midnightblue" d="M335.066,-47.5C377.269,-47.5 449.761,-47.5 512,-47.5 512,-47.5 512,-47.5 970.5,-47.5 1028.16,-47.5 1048.94,-41.1982 1098,-71.5 1122.77,-86.8 1140.28,-117.919 1147.84,-133.371"/>
<polygon fill="midnightblue" stroke="midnightblue" points="335.014,-44.0001 325.014,-47.5 335.014,-51.0001 335.014,-44.0001"/>
</g>
<!-- Node82 -->
<g id="node10" class="node"><title>Node82</title>
<g id="a_node10"><a xlink:href="main_8h.html#ad7eb7423e0b17ccfba1ae42f3a3274e0" target="_top" xlink:title="get_swr">
<polygon fill="none" stroke="black" points="489,-361.5 489,-379.5 537,-379.5 537,-361.5 489,-361.5"/>
<text text-anchor="middle" x="513" y="-368.3" font-family="Calibri" font-size="9.00">get_swr</text>
</a>
</g>
</g>
<!-- Node81&#45;&gt;Node82 -->
<g id="edge17" class="edge"><title>Node81&#45;&gt;Node82</title>
<path fill="none" stroke="midnightblue" d="M246.104,-353.881C309.91,-357.869 436.502,-365.781 488.682,-369.043"/>
<polygon fill="midnightblue" stroke="midnightblue" points="246.254,-350.384 236.055,-353.253 245.817,-357.37 246.254,-350.384"/>
</g>
<!-- Node81&#45;&gt;Node89 -->
<g id="edge32" class="edge"><title>Node81&#45;&gt;Node89</title>
<path fill="none" stroke="midnightblue" d="M227.671,-335.801C230.584,-333.151 233.457,-330.337 236,-327.5 260.127,-300.584 282.486,-263.733 292.285,-246.754"/>
<polygon fill="midnightblue" stroke="midnightblue" points="225.374,-333.16 220.068,-342.33 229.935,-338.47 225.374,-333.16"/>
</g>
<!-- Node83 -->
<g id="node11" class="node"><title>Node83</title>
<g id="a_node11"><a xlink:href="main_8h.html#a740ef1b33bb02cd952ad7d8708999472" target="_top" xlink:title="coarse_cap">
<polygon fill="none" stroke="black" points="579,-380.5 579,-398.5 641,-398.5 641,-380.5 579,-380.5"/>
<text text-anchor="middle" x="610" y="-387.3" font-family="Calibri" font-size="9.00">coarse_cap</text>
</a>
</g>
</g>
<!-- Node82&#45;&gt;Node83 -->
<g id="edge18" class="edge"><title>Node82&#45;&gt;Node83</title>
<path fill="none" stroke="midnightblue" d="M547.365,-377.173C557.652,-379.23 568.913,-381.483 578.962,-383.492"/>
<polygon fill="midnightblue" stroke="midnightblue" points="547.975,-373.726 537.483,-375.197 546.603,-380.59 547.975,-373.726"/>
</g>
<!-- Node84 -->
<g id="node12" class="node"><title>Node84</title>
<g id="a_node12"><a xlink:href="main_8h.html#a5c7c60c7d70cf76cc52e87722bb0f614" target="_top" xlink:title="coarse_tune">
<polygon fill="none" stroke="black" points="677,-418.5 677,-436.5 744,-436.5 744,-418.5 677,-418.5"/>
<text text-anchor="middle" x="710.5" y="-425.3" font-family="Calibri" font-size="9.00">coarse_tune</text>
</a>
</g>
</g>
<!-- Node82&#45;&gt;Node84 -->
<g id="edge23" class="edge"><title>Node82&#45;&gt;Node84</title>
<path fill="none" stroke="midnightblue" d="M535.335,-385.292C547.584,-393.091 563.559,-402.128 579,-407.5 611.148,-418.683 649.911,-423.622 676.797,-425.798"/>
<polygon fill="midnightblue" stroke="midnightblue" points="537.042,-382.226 526.765,-379.652 533.193,-388.073 537.042,-382.226"/>
</g>
<!-- Node85 -->
<g id="node13" class="node"><title>Node85</title>
<g id="a_node13"><a xlink:href="main_8h.html#a454a7687c8039514766571b23516ca9c" target="_top" xlink:title="sub_tune">
<polygon fill="none" stroke="black" points="780,-418.5 780,-436.5 835,-436.5 835,-418.5 780,-418.5"/>
<text text-anchor="middle" x="807.5" y="-425.3" font-family="Calibri" font-size="9.00">sub_tune</text>
</a>
</g>
</g>
<!-- Node82&#45;&gt;Node85 -->
<g id="edge30" class="edge"><title>Node82&#45;&gt;Node85</title>
<path fill="none" stroke="midnightblue" d="M547.129,-367.524C572.903,-365.923 609.464,-365.221 641,-370.5 695.849,-379.681 756.852,-404.863 787.182,-418.478"/>
<polygon fill="midnightblue" stroke="midnightblue" points="546.863,-364.034 537.132,-368.223 547.352,-371.017 546.863,-364.034"/>
</g>
<!-- Node82&#45;&gt;Node86 -->
<g id="edge31" class="edge"><title>Node82&#45;&gt;Node86</title>
<path fill="none" stroke="midnightblue" d="M547.232,-365.615C557.403,-364.335 568.64,-363.135 579,-362.5 652.423,-357.999 672.491,-358.249 744,-375.5 785.822,-385.589 799.184,-384.665 835,-408.5 854.713,-421.618 872.135,-443.64 881.099,-456.123"/>
<polygon fill="midnightblue" stroke="midnightblue" points="546.554,-362.174 537.1,-366.959 547.474,-369.114 546.554,-362.174"/>
</g>
<!-- Node87 -->
<g id="node15" class="node"><title>Node87</title>
<g id="a_node15"><a xlink:href="main_8h.html#ab518a3d2c723f12d3af3024a195606ce" target="_top" xlink:title="sharp_cap">
<polygon fill="none" stroke="black" points="681,-494.5 681,-512.5 740,-512.5 740,-494.5 681,-494.5"/>
<text text-anchor="middle" x="710.5" y="-501.3" font-family="Calibri" font-size="9.00">sharp_cap</text>
</a>
</g>
</g>
<!-- Node82&#45;&gt;Node87 -->
<g id="edge24" class="edge"><title>Node82&#45;&gt;Node87</title>
<path fill="none" stroke="midnightblue" d="M523.824,-388.464C534.955,-407.3 554.741,-436.599 579,-454.5 609.962,-477.347 652.805,-490.716 680.826,-497.567"/>
<polygon fill="midnightblue" stroke="midnightblue" points="526.81,-386.635 518.815,-379.684 520.73,-390.104 526.81,-386.635"/>
</g>
<!-- Node88 -->
<g id="node16" class="node"><title>Node88</title>
<g id="a_node16"><a xlink:href="main_8h.html#a72210b3ed1d5691c5bbda8c7f1e97197" target="_top" xlink:title="sharp_ind">
<polygon fill="none" stroke="black" points="681.5,-456.5 681.5,-474.5 739.5,-474.5 739.5,-456.5 681.5,-456.5"/>
<text text-anchor="middle" x="710.5" y="-463.3" font-family="Calibri" font-size="9.00">sharp_ind</text>
</a>
</g>
</g>
<!-- Node82&#45;&gt;Node88 -->
<g id="edge27" class="edge"><title>Node82&#45;&gt;Node88</title>
<path fill="none" stroke="midnightblue" d="M528.618,-387.16C540.873,-400.162 559.461,-417.765 579,-428.5 611.713,-446.474 653.943,-456.374 681.366,-461.309"/>
<polygon fill="midnightblue" stroke="midnightblue" points="531.185,-384.781 521.855,-379.762 526.019,-389.504 531.185,-384.781"/>
</g>
<!-- Node83&#45;&gt;Node84 -->
<g id="edge19" class="edge"><title>Node83&#45;&gt;Node84</title>
<path fill="none" stroke="midnightblue" d="M643.959,-402.215C657.728,-407.527 673.411,-413.577 685.983,-418.427"/>
<polygon fill="midnightblue" stroke="midnightblue" points="644.933,-398.839 634.343,-398.505 642.413,-405.37 644.933,-398.839"/>
</g>
<!-- Node84&#45;&gt;Node85 -->
<g id="edge20" class="edge"><title>Node84&#45;&gt;Node85</title>
<path fill="none" stroke="midnightblue" d="M754.215,-427.5C762.896,-427.5 771.793,-427.5 779.729,-427.5"/>
<polygon fill="midnightblue" stroke="midnightblue" points="754.194,-424 744.194,-427.5 754.194,-431 754.194,-424"/>
</g>
<!-- Node85&#45;&gt;Node86 -->
<g id="edge21" class="edge"><title>Node85&#45;&gt;Node86</title>
<path fill="none" stroke="midnightblue" d="M836.434,-440.936C847.915,-446.459 860.826,-452.669 870.793,-457.464"/>
<polygon fill="midnightblue" stroke="midnightblue" points="837.751,-437.686 827.222,-436.505 834.716,-443.994 837.751,-437.686"/>
</g>
<!-- Node86&#45;&gt;Node74 -->
<g id="edge22" class="edge"><title>Node86&#45;&gt;Node74</title>
<path fill="none" stroke="midnightblue" d="M916.432,-465.5C924.633,-465.5 933.64,-465.5 941.823,-465.5"/>
<polygon fill="midnightblue" stroke="midnightblue" points="916.254,-462 906.254,-465.5 916.254,-469 916.254,-462"/>
</g>
<!-- Node87&#45;&gt;Node85 -->
<g id="edge25" class="edge"><title>Node87&#45;&gt;Node85</title>
<path fill="none" stroke="midnightblue" d="M736.045,-489.052C738.777,-487.252 741.48,-485.381 744,-483.5 764.083,-468.512 785.393,-448.385 797.215,-436.79"/>
<polygon fill="midnightblue" stroke="midnightblue" points="734.011,-486.197 727.412,-494.486 737.74,-492.121 734.011,-486.197"/>
</g>
<!-- Node87&#45;&gt;Node86 -->
<g id="edge26" class="edge"><title>Node87&#45;&gt;Node86</title>
<path fill="none" stroke="midnightblue" d="M750.028,-496.716C774.462,-492.241 806.691,-486.017 835,-479.5 846.95,-476.749 860.302,-473.182 870.55,-470.337"/>
<polygon fill="midnightblue" stroke="midnightblue" points="749.282,-493.294 740.067,-498.523 750.532,-500.182 749.282,-493.294"/>
</g>
<!-- Node88&#45;&gt;Node85 -->
<g id="edge28" class="edge"><title>Node88&#45;&gt;Node85</title>
<path fill="none" stroke="midnightblue" d="M743.675,-452.63C756.861,-447.356 771.811,-441.376 783.819,-436.573"/>
<polygon fill="midnightblue" stroke="midnightblue" points="741.999,-449.531 734.014,-456.495 744.598,-456.03 741.999,-449.531"/>
</g>
<!-- Node88&#45;&gt;Node86 -->
<g id="edge29" class="edge"><title>Node88&#45;&gt;Node86</title>
<path fill="none" stroke="midnightblue" d="M749.903,-465.5C787.64,-465.5 843.443,-465.5 870.945,-465.5"/>
<polygon fill="midnightblue" stroke="midnightblue" points="749.777,-462 739.777,-465.5 749.777,-469 749.777,-462"/>
</g>
<!-- Node89&#45;&gt;Node74 -->
<g id="edge33" class="edge"><title>Node89&#45;&gt;Node74</title>
<path fill="none" stroke="midnightblue" d="M332.944,-237.5C374.806,-237.5 448.705,-237.5 512,-237.5 512,-237.5 512,-237.5 808.5,-237.5 917.304,-237.5 958.447,-413.625 966.816,-456.28"/>
<polygon fill="midnightblue" stroke="midnightblue" points="332.769,-234 322.769,-237.5 332.769,-241 332.769,-234"/>
</g>
<!-- Node89&#45;&gt;Node75 -->
<g id="edge34" class="edge"><title>Node89&#45;&gt;Node75</title>
<path fill="none" stroke="midnightblue" d="M332.353,-227.897C373.832,-216.64 447.565,-199.5 512,-199.5 512,-199.5 512,-199.5 889.5,-199.5 982.952,-199.5 1045.03,-325.788 1060.64,-361.306"/>
<polygon fill="midnightblue" stroke="midnightblue" points="331.23,-224.576 322.527,-230.618 333.099,-231.322 331.23,-224.576"/>
</g>
<!-- Node89&#45;&gt;Node76 -->
<g id="edge36" class="edge"><title>Node89&#45;&gt;Node76</title>
<path fill="none" stroke="midnightblue" d="M321.093,-222.915C332.56,-215.679 347.12,-207.275 361,-201.5 425.099,-174.831 442.574,-161.5 512,-161.5 512,-161.5 512,-161.5 970.5,-161.5 1030.54,-161.5 1101.14,-151.089 1133.77,-145.68"/>
<polygon fill="midnightblue" stroke="midnightblue" points="319.123,-220.021 312.632,-228.395 322.928,-225.896 319.123,-220.021"/>
</g>
<!-- Node89&#45;&gt;Node77 -->
<g id="edge35" class="edge"><title>Node89&#45;&gt;Node77</title>
<path fill="none" stroke="midnightblue" d="M318.063,-221.377C320.529,-218.859 322.919,-216.195 325,-213.5 345.421,-187.053 337.608,-171.359 361,-147.5 366.879,-141.503 374.574,-136.529 381.769,-132.694"/>
<polygon fill="midnightblue" stroke="midnightblue" points="315.528,-218.958 310.678,-228.377 320.344,-224.038 315.528,-218.958"/>
</g>
<!-- Node89&#45;&gt;Node90 -->
<g id="edge37" class="edge"><title>Node89&#45;&gt;Node90</title>
<path fill="none" stroke="midnightblue" d="M332.144,-249.485C347.116,-254.982 364.569,-261.39 378.407,-266.471"/>
<polygon fill="midnightblue" stroke="midnightblue" points="333.321,-246.189 322.727,-246.028 330.908,-252.76 333.321,-246.189"/>
</g>
<!-- Node90&#45;&gt;Node75 -->
<g id="edge38" class="edge"><title>Node90&#45;&gt;Node75</title>
<path fill="none" stroke="midnightblue" d="M446.302,-275.5C487.511,-275.5 552.636,-275.5 609,-275.5 609,-275.5 609,-275.5 889.5,-275.5 961.06,-275.5 1031.31,-337.613 1055.59,-361.391"/>
<polygon fill="midnightblue" stroke="midnightblue" points="446.105,-272 436.105,-275.5 446.105,-279 446.105,-272"/>
</g>
<!-- Node90&#45;&gt;Node82 -->
<g id="edge39" class="edge"><title>Node90&#45;&gt;Node82</title>
<path fill="none" stroke="midnightblue" d="M422.787,-291.292C445.304,-311.284 483.354,-345.067 501.614,-361.279"/>
<polygon fill="midnightblue" stroke="midnightblue" points="425.061,-288.631 415.26,-284.609 420.414,-293.866 425.061,-288.631"/>
</g>
<!-- Node91&#45;&gt;Node89 -->
<g id="edge45" class="edge"><title>Node91&#45;&gt;Node89</title>
<path fill="none" stroke="midnightblue" d="M240.814,-237.5C251.924,-237.5 264.093,-237.5 274.299,-237.5"/>
<polygon fill="midnightblue" stroke="midnightblue" points="240.585,-234 230.585,-237.5 240.585,-241 240.585,-234"/>
</g>
<!-- Node92&#45;&gt;Node76 -->
<g id="edge48" class="edge"><title>Node92&#45;&gt;Node76</title>
<path fill="none" stroke="midnightblue" d="M553.15,-9.5C592.618,-9.5 655.287,-9.5 709.5,-9.5 709.5,-9.5 709.5,-9.5 970.5,-9.5 1028.16,-9.5 1052.04,1.32459 1098,-33.5 1132,-59.264 1145.97,-112.235 1150.34,-133.435"/>
<polygon fill="midnightblue" stroke="midnightblue" points="553.147,-6.0001 543.147,-9.5 553.147,-13.0001 553.147,-6.0001"/>
</g>
</g>
</svg>
