<?xml version="1.0" encoding="UTF-8" standalone="no"?>
<!DOCTYPE svg PUBLIC "-//W3C//DTD SVG 1.1//EN"
 "http://www.w3.org/Graphics/SVG/1.1/DTD/svg11.dtd">
<!-- Generated by graphviz version 2.38.0 (20140413.2041)
 -->
<!-- Title: src/oled_control.c Pages: 1 -->
<svg width="1206pt" height="357pt"
 viewBox="0.00 0.00 1206.00 357.00" xmlns="http://www.w3.org/2000/svg" xmlns:xlink="http://www.w3.org/1999/xlink">
<g id="graph0" class="graph" transform="scale(1 1) rotate(0) translate(4 353)">
<title>src/oled_control.c</title>
<!-- Node1 -->
<g id="node1" class="node"><title>Node1</title>
<g id="a_node1"><a xlink:title="OLED/LCD control routines for ATU&#45;100 EXT PIC16F1938.">
<polygon fill="#bfbfbf" stroke="black" points="515.5,-330.5 515.5,-348.5 604.5,-348.5 604.5,-330.5 515.5,-330.5"/>
<text text-anchor="middle" x="560" y="-337.3" font-family="Calibri" font-size="9.00">src/oled_control.c</text>
</a>
</g>
</g>
<!-- Node2 -->
<g id="node2" class="node"><title>Node2</title>
<g id="a_node2"><a xlink:title=" ">
<polygon fill="none" stroke="#bfbfbf" points="536,-0.5 536,-18.5 568,-18.5 568,-0.5 536,-0.5"/>
<text text-anchor="middle" x="552" y="-7.3" font-family="Calibri" font-size="9.00">xc.h</text>
</a>
</g>
</g>
<!-- Node1&#45;&gt;Node2 -->
<g id="edge1" class="edge"><title>Node1&#45;&gt;Node2</title>
<path fill="none" stroke="midnightblue" d="M515.473,-335.271C451.668,-329.896 338.249,-317.324 305,-294 233.875,-244.107 208.919,-191.506 239,-110 250.133,-79.8349 258.012,-70.8289 286,-55 326.862,-31.8902 466.909,-17.6813 525.692,-12.608"/>
<polygon fill="midnightblue" stroke="midnightblue" points="526.01,-16.0938 535.681,-11.767 525.422,-9.11849 526.01,-16.0938"/>
</g>
<!-- Node3 -->
<g id="node3" class="node"><title>Node3</title>
<g id="a_node3"><a xlink:title=" ">
<polygon fill="none" stroke="#bfbfbf" points="352,-0.5 352,-18.5 408,-18.5 408,-0.5 352,-0.5"/>
<text text-anchor="middle" x="380" y="-7.3" font-family="Calibri" font-size="9.00">stdbool.h</text>
</a>
</g>
</g>
<!-- Node1&#45;&gt;Node3 -->
<g id="edge2" class="edge"><title>Node1&#45;&gt;Node3</title>
<path fill="none" stroke="midnightblue" d="M515.389,-335.416C446.158,-329.982 316.679,-317.036 277,-294 249.928,-278.283 247.885,-266.539 233,-239 193.496,-165.91 147.021,-119 200,-55 217.795,-33.5026 294.056,-20.712 341.422,-14.6955"/>
<polygon fill="midnightblue" stroke="midnightblue" points="342.135,-18.1345 351.636,-13.4458 341.285,-11.1863 342.135,-18.1345"/>
</g>
<!-- Node4 -->
<g id="node4" class="node"><title>Node4</title>
<g id="a_node4"><a xlink:title=" ">
<polygon fill="none" stroke="#bfbfbf" points="127,-0.5 127,-18.5 177,-18.5 177,-0.5 127,-0.5"/>
<text text-anchor="middle" x="152" y="-7.3" font-family="Calibri" font-size="9.00">stddef.h</text>
</a>
</g>
</g>
<!-- Node1&#45;&gt;Node4 -->
<g id="edge3" class="edge"><title>Node1&#45;&gt;Node4</title>
<path fill="none" stroke="midnightblue" d="M515.119,-339.336C382.234,-340.619 0,-335.207 0,-230.5 0,-230.5 0,-230.5 0,-118.5 0,-61.3182 72.3677,-31.6284 117.235,-18.7159"/>
<polygon fill="midnightblue" stroke="midnightblue" points="118.18,-22.0863 126.9,-16.0695 116.331,-15.3348 118.18,-22.0863"/>
</g>
<!-- Node5 -->
<g id="node5" class="node"><title>Node5</title>
<g id="a_node5"><a xlink:title=" ">
<polygon fill="none" stroke="#bfbfbf" points="1022,-0.5 1022,-18.5 1070,-18.5 1070,-0.5 1022,-0.5"/>
<text text-anchor="middle" x="1046" y="-7.3" font-family="Calibri" font-size="9.00">stdint.h</text>
</a>
</g>
</g>
<!-- Node1&#45;&gt;Node5 -->
<g id="edge4" class="edge"><title>Node1&#45;&gt;Node5</title>
<path fill="none" stroke="midnightblue" d="M604.609,-335.672C749.563,-325.895 1198,-290.777 1198,-230.5 1198,-230.5 1198,-230.5 1198,-118.5 1198,-60.9878 1124.79,-31.2863 1079.99,-18.4938"/>
<polygon fill="midnightblue" stroke="midnightblue" points="1080.65,-15.0471 1070.08,-15.8071 1078.82,-21.803 1080.65,-15.0471"/>
</g>
<!-- Node6 -->
<g id="node6" class="node"><title>Node6</title>
<g id="a_node6"><a xlink:title=" ">
<polygon fill="none" stroke="#bfbfbf" points="870,-0.5 870,-18.5 918,-18.5 918,-0.5 870,-0.5"/>
<text text-anchor="middle" x="894" y="-7.3" font-family="Calibri" font-size="9.00">stdlib.h</text>
</a>
</g>
</g>
<!-- Node1&#45;&gt;Node6 -->
<g id="edge5" class="edge"><title>Node1&#45;&gt;Node6</title>
<path fill="none" stroke="midnightblue" d="M604.895,-332.131C645.916,-325.46 707.797,-313.233 759,-294 854.697,-258.053 883.385,-250.529 961,-184 1006.78,-144.76 1036.63,-105.048 1003,-55 986.469,-30.3957 953.689,-19.3871 928.374,-14.4663"/>
<polygon fill="midnightblue" stroke="midnightblue" points="928.845,-10.996 918.398,-12.7594 927.664,-17.8958 928.845,-10.996"/>
</g>
<!-- Node7 -->
<g id="node7" class="node"><title>Node7</title>
<g id="a_node7"><a xlink:href="extratypes_8h.html" target="_top" xlink:title=" ">
<polygon fill="none" stroke="black" points="527,-220.5 527,-238.5 593,-238.5 593,-220.5 527,-220.5"/>
<text text-anchor="middle" x="560" y="-227.3" font-family="Calibri" font-size="9.00">extratypes.h</text>
</a>
</g>
</g>
<!-- Node1&#45;&gt;Node7 -->
<g id="edge6" class="edge"><title>Node1&#45;&gt;Node7</title>
<path fill="none" stroke="midnightblue" d="M560,-330.382C560,-313.182 560,-272.698 560,-248.887"/>
<polygon fill="midnightblue" stroke="midnightblue" points="563.5,-248.712 560,-238.712 556.5,-248.712 563.5,-248.712"/>
</g>
<!-- Node8 -->
<g id="node8" class="node"><title>Node8</title>
<g id="a_node8"><a xlink:href="eeprom__map_8h.html" target="_top" xlink:title=" ">
<polygon fill="none" stroke="black" points="446,-55.5 446,-73.5 524,-73.5 524,-55.5 446,-55.5"/>
<text text-anchor="middle" x="485" y="-62.3" font-family="Calibri" font-size="9.00">eeprom_map.h</text>
</a>
</g>
</g>
<!-- Node1&#45;&gt;Node8 -->
<g id="edge34" class="edge"><title>Node1&#45;&gt;Node8</title>
<path fill="none" stroke="midnightblue" d="M515.348,-331.631C433.102,-317.711 266,-282.973 266,-230.5 266,-230.5 266,-230.5 266,-173.5 266,-98.2512 371.288,-75.4306 435.856,-68.5107"/>
<polygon fill="midnightblue" stroke="midnightblue" points="436.237,-71.9903 445.847,-67.5311 435.553,-65.0237 436.237,-71.9903"/>
</g>
<!-- Node9 -->
<g id="node9" class="node"><title>Node9</title>
<g id="a_node9"><a xlink:href="preprocessor_8h.html" target="_top" xlink:title=" ">
<polygon fill="none" stroke="black" points="712.5,-165.5 712.5,-183.5 789.5,-183.5 789.5,-165.5 712.5,-165.5"/>
<text text-anchor="middle" x="751" y="-172.3" font-family="Calibri" font-size="9.00">preprocessor.h</text>
</a>
</g>
</g>
<!-- Node1&#45;&gt;Node9 -->
<g id="edge33" class="edge"><title>Node1&#45;&gt;Node9</title>
<path fill="none" stroke="midnightblue" d="M604.788,-333.256C651.919,-326.757 721.647,-314.026 739,-294 763.3,-265.958 759.43,-219.004 754.942,-193.43"/>
<polygon fill="midnightblue" stroke="midnightblue" points="758.373,-192.741 752.998,-183.611 751.507,-194.101 758.373,-192.741"/>
</g>
<!-- Node10 -->
<g id="node10" class="node"><title>Node10</title>
<g id="a_node10"><a xlink:href="common_8h.html" target="_top" xlink:title=" ">
<polygon fill="none" stroke="black" points="598.5,-110.5 598.5,-128.5 657.5,-128.5 657.5,-110.5 598.5,-110.5"/>
<text text-anchor="middle" x="628" y="-117.3" font-family="Calibri" font-size="9.00">common.h</text>
</a>
</g>
</g>
<!-- Node1&#45;&gt;Node10 -->
<g id="edge45" class="edge"><title>Node1&#45;&gt;Node10</title>
<path fill="none" stroke="midnightblue" d="M564.006,-330.437C572.163,-313.743 590.869,-274.024 602,-239 613.074,-204.154 621.085,-162.078 625.095,-138.6"/>
<polygon fill="midnightblue" stroke="midnightblue" points="628.556,-139.119 626.738,-128.681 621.65,-137.975 628.556,-139.119"/>
</g>
<!-- Node11 -->
<g id="node11" class="node"><title>Node11</title>
<g id="a_node11"><a xlink:href="oled__control_8h.html" target="_top" xlink:title="OLED/LCD control definitions for ATU&#45;100 EXT PIC16F1938.">
<polygon fill="none" stroke="black" points="654,-275.5 654,-293.5 730,-293.5 730,-275.5 654,-275.5"/>
<text text-anchor="middle" x="692" y="-282.3" font-family="Calibri" font-size="9.00">oled_control.h</text>
</a>
</g>
</g>
<!-- Node1&#45;&gt;Node11 -->
<g id="edge35" class="edge"><title>Node1&#45;&gt;Node11</title>
<path fill="none" stroke="midnightblue" d="M580.048,-330.45C601.951,-321.656 637.257,-307.48 662.361,-297.401"/>
<polygon fill="midnightblue" stroke="midnightblue" points="663.788,-300.599 671.763,-293.625 661.179,-294.103 663.788,-300.599"/>
</g>
<!-- Node12 -->
<g id="node12" class="node"><title>Node12</title>
<g id="a_node12"><a xlink:href="font5x8_8h.html" target="_top" xlink:title="Definition of 5x8 font characters for use by OLED displays for ATU&#45;100 EXT PIC16F1938.">
<polygon fill="none" stroke="black" points="456.5,-275.5 456.5,-293.5 509.5,-293.5 509.5,-275.5 456.5,-275.5"/>
<text text-anchor="middle" x="483" y="-282.3" font-family="Calibri" font-size="9.00">font5x8.h</text>
</a>
</g>
</g>
<!-- Node1&#45;&gt;Node12 -->
<g id="edge46" class="edge"><title>Node1&#45;&gt;Node12</title>
<path fill="none" stroke="midnightblue" d="M548.305,-330.45C536.32,-322.201 517.455,-309.216 503.076,-299.319"/>
<polygon fill="midnightblue" stroke="midnightblue" points="505.026,-296.412 494.805,-293.625 501.058,-302.178 505.026,-296.412"/>
</g>
<!-- Node7&#45;&gt;Node2 -->
<g id="edge7" class="edge"><title>Node7&#45;&gt;Node2</title>
<path fill="none" stroke="midnightblue" d="M559.706,-220.483C558.554,-189.107 554.336,-74.1587 552.677,-28.9443"/>
<polygon fill="midnightblue" stroke="midnightblue" points="556.17,-28.688 552.305,-18.8231 549.175,-28.9447 556.17,-28.688"/>
</g>
<!-- Node7&#45;&gt;Node3 -->
<g id="edge8" class="edge"><title>Node7&#45;&gt;Node3</title>
<path fill="none" stroke="midnightblue" d="M548.532,-220.393C537.082,-212.001 519.318,-198.158 506,-184 456.765,-131.659 410.141,-59.6061 390.183,-27.3271"/>
<polygon fill="midnightblue" stroke="midnightblue" points="393.079,-25.3533 384.872,-18.6522 387.109,-29.0083 393.079,-25.3533"/>
</g>
<!-- Node7&#45;&gt;Node4 -->
<g id="edge9" class="edge"><title>Node7&#45;&gt;Node4</title>
<path fill="none" stroke="midnightblue" d="M533.523,-220.498C473.16,-201.472 322.214,-149.417 214,-74 194.739,-60.5764 176.441,-40.6358 164.784,-26.692"/>
<polygon fill="midnightblue" stroke="midnightblue" points="167.464,-24.4399 158.435,-18.8968 162.036,-28.8607 167.464,-24.4399"/>
</g>
<!-- Node7&#45;&gt;Node5 -->
<g id="edge10" class="edge"><title>Node7&#45;&gt;Node5</title>
<path fill="none" stroke="midnightblue" d="M593.037,-228.032C644.366,-226.2 745.428,-218.122 823,-184 912.788,-144.504 998.37,-60.8481 1031.53,-26.1201"/>
<polygon fill="midnightblue" stroke="midnightblue" points="1034.16,-28.4362 1038.47,-18.7592 1029.07,-23.6342 1034.16,-28.4362"/>
</g>
<!-- Node7&#45;&gt;Node6 -->
<g id="edge11" class="edge"><title>Node7&#45;&gt;Node6</title>
<path fill="none" stroke="midnightblue" d="M593.296,-225.767C650.804,-220.485 765.692,-207.292 798,-184 852.426,-144.761 879.625,-64.7007 889.506,-28.7232"/>
<polygon fill="midnightblue" stroke="midnightblue" points="892.984,-29.2583 892.119,-18.6988 886.21,-27.4929 892.984,-29.2583"/>
</g>
<!-- Node7&#45;&gt;Node8 -->
<g id="edge12" class="edge"><title>Node7&#45;&gt;Node8</title>
<path fill="none" stroke="midnightblue" d="M549.876,-220.355C540.318,-212.141 526.253,-198.616 518,-184 499.598,-151.412 490.926,-107.909 487.286,-83.707"/>
<polygon fill="midnightblue" stroke="midnightblue" points="490.75,-83.2082 485.917,-73.7803 483.816,-84.1648 490.75,-83.2082"/>
</g>
<!-- Node7&#45;&gt;Node9 -->
<g id="edge18" class="edge"><title>Node7&#45;&gt;Node9</title>
<path fill="none" stroke="midnightblue" d="M589.009,-220.45C621.918,-211.318 675.741,-196.383 712.231,-186.258"/>
<polygon fill="midnightblue" stroke="midnightblue" points="713.332,-189.585 722.032,-183.538 711.46,-182.84 713.332,-189.585"/>
</g>
<!-- Node7&#45;&gt;Node10 -->
<g id="edge32" class="edge"><title>Node7&#45;&gt;Node10</title>
<path fill="none" stroke="midnightblue" d="M565.111,-220.382C576.187,-202.791 602.597,-160.846 617.429,-137.289"/>
<polygon fill="midnightblue" stroke="midnightblue" points="620.463,-139.039 622.83,-128.712 614.54,-135.309 620.463,-139.039"/>
</g>
<!-- Node8&#45;&gt;Node2 -->
<g id="edge13" class="edge"><title>Node8&#45;&gt;Node2</title>
<path fill="none" stroke="midnightblue" d="M495.176,-55.4504C505.408,-47.3566 521.402,-34.7042 533.819,-24.8822"/>
<polygon fill="midnightblue" stroke="midnightblue" points="536.057,-27.5744 541.728,-18.6253 531.714,-22.0844 536.057,-27.5744"/>
</g>
<!-- Node8&#45;&gt;Node3 -->
<g id="edge14" class="edge"><title>Node8&#45;&gt;Node3</title>
<path fill="none" stroke="midnightblue" d="M469.053,-55.4504C452.093,-46.8897 425.029,-33.2291 405.184,-23.2119"/>
<polygon fill="midnightblue" stroke="midnightblue" points="406.602,-20.007 396.097,-18.6253 403.447,-26.256 406.602,-20.007"/>
</g>
<!-- Node8&#45;&gt;Node4 -->
<g id="edge15" class="edge"><title>Node8&#45;&gt;Node4</title>
<path fill="none" stroke="midnightblue" d="M445.927,-57.2271C441.234,-56.4756 436.509,-55.7199 432,-55 343.826,-40.9228 240.016,-24.4511 187.006,-16.0472"/>
<polygon fill="midnightblue" stroke="midnightblue" points="187.526,-12.5859 177.101,-14.4771 186.43,-19.4996 187.526,-12.5859"/>
</g>
<!-- Node8&#45;&gt;Node5 -->
<g id="edge16" class="edge"><title>Node8&#45;&gt;Node5</title>
<path fill="none" stroke="midnightblue" d="M524.003,-59.8152C628.412,-49.9513 913.023,-23.0629 1011.74,-13.7369"/>
<polygon fill="midnightblue" stroke="midnightblue" points="1012.14,-17.2143 1021.77,-12.7891 1011.48,-10.2453 1012.14,-17.2143"/>
</g>
<!-- Node8&#45;&gt;Node6 -->
<g id="edge17" class="edge"><title>Node8&#45;&gt;Node6</title>
<path fill="none" stroke="midnightblue" d="M524.217,-58.4181C604.037,-48.0746 784.202,-24.7281 859.698,-14.9449"/>
<polygon fill="midnightblue" stroke="midnightblue" points="860.168,-18.4134 869.635,-13.6573 859.268,-11.4715 860.168,-18.4134"/>
</g>
<!-- Node9&#45;&gt;Node2 -->
<g id="edge19" class="edge"><title>Node9&#45;&gt;Node2</title>
<path fill="none" stroke="midnightblue" d="M748.319,-165.272C740.946,-143.908 718.329,-86.1726 680,-55 650.19,-30.7559 606.319,-19.334 578.461,-14.2415"/>
<polygon fill="midnightblue" stroke="midnightblue" points="578.725,-10.737 568.284,-12.5329 577.566,-17.6404 578.725,-10.737"/>
</g>
<!-- Node9&#45;&gt;Node3 -->
<g id="edge20" class="edge"><title>Node9&#45;&gt;Node3</title>
<path fill="none" stroke="midnightblue" d="M741.138,-165.378C725.64,-152.792 694.415,-128.136 666,-110 622.585,-82.2906 612.094,-73.428 564,-55 515.189,-36.2974 456.007,-23.6575 418.181,-16.7659"/>
<polygon fill="midnightblue" stroke="midnightblue" points="418.563,-13.279 408.105,-14.9743 417.338,-20.1709 418.563,-13.279"/>
</g>
<!-- Node9&#45;&gt;Node4 -->
<g id="edge21" class="edge"><title>Node9&#45;&gt;Node4</title>
<path fill="none" stroke="midnightblue" d="M716.488,-165.482C647.629,-149.335 488.407,-111.254 356,-74 295.762,-57.0517 226.325,-34.8646 185.973,-21.7036"/>
<polygon fill="midnightblue" stroke="midnightblue" points="186.957,-18.3429 176.364,-18.5608 184.78,-24.9961 186.957,-18.3429"/>
</g>
<!-- Node9&#45;&gt;Node5 -->
<g id="edge22" class="edge"><title>Node9&#45;&gt;Node5</title>
<path fill="none" stroke="midnightblue" d="M765.629,-165.417C813.205,-139.129 963.834,-55.9004 1022.39,-23.5442"/>
<polygon fill="midnightblue" stroke="midnightblue" points="1024.22,-26.5318 1031.28,-18.632 1020.84,-20.4048 1024.22,-26.5318"/>
</g>
<!-- Node9&#45;&gt;Node6 -->
<g id="edge23" class="edge"><title>Node9&#45;&gt;Node6</title>
<path fill="none" stroke="midnightblue" d="M757.757,-165.192C767.731,-152.978 787.046,-129.51 804,-110 830.202,-79.8473 861.689,-45.4393 879.621,-26.0099"/>
<polygon fill="midnightblue" stroke="midnightblue" points="882.201,-28.3745 886.421,-18.6562 877.062,-23.622 882.201,-28.3745"/>
</g>
<!-- Node9&#45;&gt;Node10 -->
<g id="edge24" class="edge"><title>Node9&#45;&gt;Node10</title>
<path fill="none" stroke="midnightblue" d="M727.31,-165.45C705.254,-156.812 672.883,-142.98 651.047,-132.94"/>
<polygon fill="midnightblue" stroke="midnightblue" points="652.371,-129.695 641.83,-128.625 649.403,-136.035 652.371,-129.695"/>
</g>
<!-- Node10&#45;&gt;Node2 -->
<g id="edge25" class="edge"><title>Node10&#45;&gt;Node2</title>
<path fill="none" stroke="midnightblue" d="M626.33,-110.468C623.408,-97.7871 616.461,-72.7474 604,-55 595.678,-43.1482 583.495,-32.4953 573.012,-24.586"/>
<polygon fill="midnightblue" stroke="midnightblue" points="574.889,-21.6247 564.729,-18.6213 570.799,-27.3052 574.889,-21.6247"/>
</g>
<!-- Node10&#45;&gt;Node3 -->
<g id="edge26" class="edge"><title>Node10&#45;&gt;Node3</title>
<path fill="none" stroke="midnightblue" d="M618.077,-110.349C601.44,-97.0456 566.445,-70.5874 533,-55 495.605,-37.5716 449.853,-25.3468 418.173,-18.1778"/>
<polygon fill="midnightblue" stroke="midnightblue" points="418.52,-14.6704 408.001,-15.9401 417.016,-21.507 418.52,-14.6704"/>
</g>
<!-- Node10&#45;&gt;Node4 -->
<g id="edge27" class="edge"><title>Node10&#45;&gt;Node4</title>
<path fill="none" stroke="midnightblue" d="M598.222,-111.577C560.643,-102.836 494.025,-87.331 437,-74 400.994,-65.5826 392.065,-63.1629 356,-55 296.806,-41.6022 227.783,-26.6951 187.106,-17.9835"/>
<polygon fill="midnightblue" stroke="midnightblue" points="187.664,-14.5237 177.153,-15.8544 186.199,-21.3689 187.664,-14.5237"/>
</g>
<!-- Node10&#45;&gt;Node5 -->
<g id="edge28" class="edge"><title>Node10&#45;&gt;Node5</title>
<path fill="none" stroke="midnightblue" d="M657.726,-110.819C733.143,-91.3338 931.602,-40.0575 1011.72,-19.356"/>
<polygon fill="midnightblue" stroke="midnightblue" points="1012.97,-22.6485 1021.78,-16.7581 1011.22,-15.8711 1012.97,-22.6485"/>
</g>
<!-- Node10&#45;&gt;Node6 -->
<g id="edge29" class="edge"><title>Node10&#45;&gt;Node6</title>
<path fill="none" stroke="midnightblue" d="M647.993,-110.382C694.514,-91.4942 810.192,-44.5275 864.702,-22.3956"/>
<polygon fill="midnightblue" stroke="midnightblue" points="866.189,-25.5693 874.138,-18.5644 863.555,-19.0835 866.189,-25.5693"/>
</g>
<!-- Node10&#45;&gt;Node8 -->
<g id="edge30" class="edge"><title>Node10&#45;&gt;Node8</title>
<path fill="none" stroke="midnightblue" d="M606.281,-110.45C582.344,-101.578 543.627,-87.2288 516.39,-77.134"/>
<polygon fill="midnightblue" stroke="midnightblue" points="517.516,-73.8188 506.923,-73.6253 515.083,-80.3825 517.516,-73.8188"/>
</g>
<!-- Node10&#45;&gt;Node9 -->
<g id="edge31" class="edge"><title>Node10&#45;&gt;Node9</title>
<path fill="none" stroke="midnightblue" d="M651.884,-128.625C673.999,-137.294 706.369,-151.13 728.144,-161.148"/>
<polygon fill="midnightblue" stroke="midnightblue" points="726.788,-164.378 737.328,-165.45 729.757,-158.039 726.788,-164.378"/>
</g>
<!-- Node11&#45;&gt;Node2 -->
<g id="edge36" class="edge"><title>Node11&#45;&gt;Node2</title>
<path fill="none" stroke="midnightblue" d="M709.826,-275.387C744.645,-258.254 816.732,-215.755 798,-165 775.734,-104.67 757.993,-89.9317 704,-55 664.762,-29.6147 610.627,-18.322 578.671,-13.5986"/>
<polygon fill="midnightblue" stroke="midnightblue" points="578.735,-10.075 568.353,-12.1896 577.788,-17.0106 578.735,-10.075"/>
</g>
<!-- Node11&#45;&gt;Node3 -->
<g id="edge37" class="edge"><title>Node11&#45;&gt;Node3</title>
<path fill="none" stroke="midnightblue" d="M653.882,-283.285C612.467,-281.222 546.182,-272.386 501,-239 427.604,-184.765 394.471,-72.5622 383.941,-28.6666"/>
<polygon fill="midnightblue" stroke="midnightblue" points="387.334,-27.8073 381.693,-18.8395 380.511,-29.3682 387.334,-27.8073"/>
</g>
<!-- Node11&#45;&gt;Node4 -->
<g id="edge38" class="edge"><title>Node11&#45;&gt;Node4</title>
<path fill="none" stroke="midnightblue" d="M653.644,-278.963C609.746,-273.007 536.155,-260.673 476,-239 377.985,-203.686 358.226,-182.785 269,-129 231.733,-106.535 217.502,-105.987 188,-74 175.402,-60.3413 165.425,-41.4978 159.2,-27.8894"/>
<polygon fill="midnightblue" stroke="midnightblue" points="162.39,-26.448 155.19,-18.676 155.972,-29.2419 162.39,-26.448"/>
</g>
<!-- Node11&#45;&gt;Node5 -->
<g id="edge39" class="edge"><title>Node11&#45;&gt;Node5</title>
<path fill="none" stroke="midnightblue" d="M730.183,-284.178C820.269,-283.414 1045.28,-267.15 1136,-129 1154.05,-101.509 1153.35,-82.9384 1136,-55 1123.81,-35.3663 1100.1,-24.133 1080.08,-17.8653"/>
<polygon fill="midnightblue" stroke="midnightblue" points="1080.89,-14.4588 1070.32,-15.0972 1078.98,-21.1932 1080.89,-14.4588"/>
</g>
<!-- Node11&#45;&gt;Node6 -->
<g id="edge40" class="edge"><title>Node11&#45;&gt;Node6</title>
<path fill="none" stroke="midnightblue" d="M730.081,-276.607C795.984,-262.375 929.468,-222.848 984,-129 1000.52,-100.563 1001.35,-82.9384 984,-55 971.805,-35.3663 948.098,-24.133 928.076,-17.8653"/>
<polygon fill="midnightblue" stroke="midnightblue" points="928.892,-14.4588 918.316,-15.0972 926.982,-21.1932 928.892,-14.4588"/>
</g>
<!-- Node11&#45;&gt;Node7 -->
<g id="edge41" class="edge"><title>Node11&#45;&gt;Node7</title>
<path fill="none" stroke="midnightblue" d="M671.952,-275.45C650.049,-266.656 614.743,-252.48 589.639,-242.401"/>
<polygon fill="midnightblue" stroke="midnightblue" points="590.821,-239.103 580.237,-238.625 588.212,-245.599 590.821,-239.103"/>
</g>
<!-- Node11&#45;&gt;Node8 -->
<g id="edge44" class="edge"><title>Node11&#45;&gt;Node8</title>
<path fill="none" stroke="midnightblue" d="M653.626,-278.525C608.176,-271.836 536.307,-258.487 518,-239 477.447,-195.834 479.304,-119.029 482.659,-83.9253"/>
<polygon fill="midnightblue" stroke="midnightblue" points="486.166,-84.0543 483.795,-73.7282 479.209,-83.2792 486.166,-84.0543"/>
</g>
<!-- Node11&#45;&gt;Node9 -->
<g id="edge42" class="edge"><title>Node11&#45;&gt;Node9</title>
<path fill="none" stroke="midnightblue" d="M696.435,-275.382C706.002,-257.869 728.756,-216.218 741.656,-192.605"/>
<polygon fill="midnightblue" stroke="midnightblue" points="744.791,-194.166 746.514,-183.712 738.648,-190.81 744.791,-194.166"/>
</g>
<!-- Node11&#45;&gt;Node10 -->
<g id="edge43" class="edge"><title>Node11&#45;&gt;Node10</title>
<path fill="none" stroke="midnightblue" d="M690.841,-275.39C687.809,-255.691 678.566,-204.072 660,-165 655.201,-154.901 648.066,-144.698 641.751,-136.614"/>
<polygon fill="midnightblue" stroke="midnightblue" points="644.398,-134.321 635.368,-128.779 638.97,-138.742 644.398,-134.321"/>
</g>
<!-- Node12&#45;&gt;Node2 -->
<g id="edge47" class="edge"><title>Node12&#45;&gt;Node2</title>
<path fill="none" stroke="midnightblue" d="M456.296,-276.698C383.436,-256.85 190.643,-194.994 252,-110 316.706,-20.3672 465.361,-10.1882 525.764,-9.91931"/>
<polygon fill="midnightblue" stroke="midnightblue" points="525.958,-13.4202 535.975,-9.9675 525.992,-6.42025 525.958,-13.4202"/>
</g>
<!-- Node12&#45;&gt;Node3 -->
<g id="edge48" class="edge"><title>Node12&#45;&gt;Node3</title>
<path fill="none" stroke="midnightblue" d="M456.443,-281.991C404.137,-277.396 288.805,-258.838 242,-184 210.891,-134.259 178.288,-101.547 214,-55 229.469,-34.8378 297.851,-21.8047 341.879,-15.3403"/>
<polygon fill="midnightblue" stroke="midnightblue" points="342.549,-18.7804 351.959,-13.9119 341.567,-11.8497 342.549,-18.7804"/>
</g>
<!-- Node12&#45;&gt;Node4 -->
<g id="edge49" class="edge"><title>Node12&#45;&gt;Node4</title>
<path fill="none" stroke="midnightblue" d="M456.43,-282.539C414.812,-280.047 332.736,-271.103 272,-239 178.346,-189.497 141.552,-171.442 100,-74 91.6706,-54.4674 110.66,-36.1575 127.985,-24.2657"/>
<polygon fill="midnightblue" stroke="midnightblue" points="130.205,-26.9998 136.739,-18.6596 126.43,-21.1049 130.205,-26.9998"/>
</g>
<!-- Node12&#45;&gt;Node5 -->
<g id="edge50" class="edge"><title>Node12&#45;&gt;Node5</title>
<path fill="none" stroke="midnightblue" d="M509.814,-281.788C558.165,-278.086 662.677,-267.265 746,-239 875.607,-195.035 911.775,-173.26 1006,-74 1019.15,-60.1446 1030.36,-41.3296 1037.54,-27.7816"/>
<polygon fill="midnightblue" stroke="midnightblue" points="1040.78,-29.1167 1042.2,-18.6174 1034.55,-25.9398 1040.78,-29.1167"/>
</g>
<!-- Node12&#45;&gt;Node6 -->
<g id="edge51" class="edge"><title>Node12&#45;&gt;Node6</title>
<path fill="none" stroke="midnightblue" d="M509.595,-281.219C570.11,-274.926 720.757,-252.941 823,-184 870.85,-151.736 878.896,-130.204 892,-74 895.451,-59.1966 895.766,-41.9292 895.322,-29.1407"/>
<polygon fill="midnightblue" stroke="midnightblue" points="898.8,-28.6518 894.768,-18.8545 891.811,-29.0282 898.8,-28.6518"/>
</g>
<!-- Node12&#45;&gt;Node7 -->
<g id="edge52" class="edge"><title>Node12&#45;&gt;Node7</title>
<path fill="none" stroke="midnightblue" d="M494.695,-275.45C506.68,-267.201 525.545,-254.216 539.924,-244.319"/>
<polygon fill="midnightblue" stroke="midnightblue" points="541.942,-247.178 548.195,-238.625 537.974,-241.412 541.942,-247.178"/>
</g>
<!-- Node12&#45;&gt;Node8 -->
<g id="edge55" class="edge"><title>Node12&#45;&gt;Node8</title>
<path fill="none" stroke="midnightblue" d="M456.368,-281.758C428.559,-278.352 386.232,-268.341 366,-239 324.973,-179.501 418.459,-108.328 463.032,-79.0721"/>
<polygon fill="midnightblue" stroke="midnightblue" points="464.966,-81.9896 471.488,-73.6399 461.182,-76.1002 464.966,-81.9896"/>
</g>
<!-- Node12&#45;&gt;Node9 -->
<g id="edge53" class="edge"><title>Node12&#45;&gt;Node9</title>
<path fill="none" stroke="midnightblue" d="M505.487,-275.433C529.501,-266.739 568.617,-252.348 602,-239 644.693,-221.93 693.636,-200.76 723.427,-187.691"/>
<polygon fill="midnightblue" stroke="midnightblue" points="725.014,-190.817 732.759,-183.588 722.196,-184.409 725.014,-190.817"/>
</g>
<!-- Node12&#45;&gt;Node10 -->
<g id="edge54" class="edge"><title>Node12&#45;&gt;Node10</title>
<path fill="none" stroke="midnightblue" d="M486.518,-275.153C492.089,-262.48 503.78,-237.963 518,-220 545.353,-185.447 585.293,-152.625 608.768,-134.662"/>
<polygon fill="midnightblue" stroke="midnightblue" points="611.02,-137.347 616.898,-128.532 606.806,-131.758 611.02,-137.347"/>
</g>
</g>
</svg>
