<?xml version="1.0" encoding="UTF-8" standalone="no"?>
<!DOCTYPE svg PUBLIC "-//W3C//DTD SVG 1.1//EN"
 "http://www.w3.org/Graphics/SVG/1.1/DTD/svg11.dtd">
<!-- Generated by graphviz version 2.38.0 (20140413.2041)
 -->
<!-- Title: oled_init Pages: 1 -->
<svg width="291pt" height="142pt"
 viewBox="0.00 0.00 291.00 141.74" xmlns="http://www.w3.org/2000/svg" xmlns:xlink="http://www.w3.org/1999/xlink">
<g id="graph0" class="graph" transform="scale(1 1) rotate(0) translate(4 137.743)">
<title>oled_init</title>
<!-- Node1 -->
<g id="node1" class="node"><title>Node1</title>
<g id="a_node1"><a xlink:title=" ">
<polygon fill="#bfbfbf" stroke="black" points="0,-59.6541 0,-77.6541 54,-77.6541 54,-59.6541 0,-59.6541"/>
<text text-anchor="middle" x="27" y="-66.4541" font-family="Calibri" font-size="9.00">oled_init</text>
</a>
</g>
</g>
<!-- Node2 -->
<g id="node2" class="node"><title>Node2</title>
<g id="a_node2"><a xlink:href="oled__control_8c.html#ad141ed038278a6fcad6c307932f01ec8" target="_top" xlink:title=" ">
<polygon fill="none" stroke="black" points="90,-21.6541 90,-39.6541 171,-39.6541 171,-21.6541 90,-21.6541"/>
<text text-anchor="middle" x="130.5" y="-28.4541" font-family="Calibri" font-size="9.00">send_command</text>
</a>
</g>
</g>
<!-- Node1&#45;&gt;Node2 -->
<g id="edge1" class="edge"><title>Node1&#45;&gt;Node2</title>
<path fill="none" stroke="midnightblue" d="M52.0541,-59.6486C65.105,-54.7626 81.4487,-48.6438 95.7542,-43.288"/>
<polygon fill="midnightblue" stroke="midnightblue" points="97.1288,-46.5107 105.267,-39.7266 94.6745,-39.955 97.1288,-46.5107"/>
</g>
<!-- Node3 -->
<g id="node3" class="node"><title>Node3</title>
<g id="a_node3"><a xlink:href="oled__control_8c.html#ab7f6b5c6c1483f6286f2de5786c028d9" target="_top" xlink:title=" ">
<polygon fill="none" stroke="black" points="209,-97.6541 209,-115.654 281,-115.654 281,-97.6541 209,-97.6541"/>
<text text-anchor="middle" x="245" y="-104.454" font-family="Calibri" font-size="9.00">Soft_I2C_Start</text>
</a>
</g>
</g>
<!-- Node1&#45;&gt;Node3 -->
<g id="edge8" class="edge"><title>Node1&#45;&gt;Node3</title>
<path fill="none" stroke="midnightblue" d="M34.3315,-77.7661C44.3292,-91.2568 65.2061,-115.989 90,-125.654 130.314,-141.369 180.662,-129.885 212.584,-119.146"/>
<polygon fill="midnightblue" stroke="midnightblue" points="214.005,-122.356 222.265,-115.721 211.67,-115.757 214.005,-122.356"/>
</g>
<!-- Node4 -->
<g id="node4" class="node"><title>Node4</title>
<g id="a_node4"><a xlink:href="oled__control_8c.html#a16eb842aa672ca44820ae6d5f9933425" target="_top" xlink:title=" ">
<polygon fill="none" stroke="black" points="209.5,-2.6541 209.5,-20.6541 280.5,-20.6541 280.5,-2.6541 209.5,-2.6541"/>
<text text-anchor="middle" x="245" y="-9.4541" font-family="Calibri" font-size="9.00">Soft_I2C_Stop</text>
</a>
</g>
</g>
<!-- Node1&#45;&gt;Node4 -->
<g id="edge9" class="edge"><title>Node1&#45;&gt;Node4</title>
<path fill="none" stroke="midnightblue" d="M34.3315,-59.5421C44.3292,-46.0515 65.2061,-21.3194 90,-11.6541 124.801,1.91232 167.483,0.671523 199.079,-3.25537"/>
<polygon fill="midnightblue" stroke="midnightblue" points="198.957,-6.77167 209.342,-4.67257 199.915,0.162532 198.957,-6.77167"/>
</g>
<!-- Node5 -->
<g id="node5" class="node"><title>Node5</title>
<g id="a_node5"><a xlink:href="oled__control_8c.html#a73610916645f17c19124e697b005f694" target="_top" xlink:title=" ">
<polygon fill="none" stroke="black" points="207,-59.6541 207,-77.6541 283,-77.6541 283,-59.6541 207,-59.6541"/>
<text text-anchor="middle" x="245" y="-66.4541" font-family="Calibri" font-size="9.00">Soft_I2C_Write</text>
</a>
</g>
</g>
<!-- Node1&#45;&gt;Node5 -->
<g id="edge10" class="edge"><title>Node1&#45;&gt;Node5</title>
<path fill="none" stroke="midnightblue" d="M54.0546,-68.6541C89.2693,-68.6541 152.681,-68.6541 196.491,-68.6541"/>
<polygon fill="midnightblue" stroke="midnightblue" points="196.625,-72.1542 206.625,-68.6541 196.625,-65.1542 196.625,-72.1542"/>
</g>
<!-- Node6 -->
<g id="node6" class="node"><title>Node6</title>
<g id="a_node6"><a xlink:href="oled__control_8c.html#a6df77e8ec83c50ed6a5ddaf54aa3a9c2" target="_top" xlink:title=" ">
<polygon fill="none" stroke="black" points="90.5,-97.6541 90.5,-115.654 170.5,-115.654 170.5,-97.6541 90.5,-97.6541"/>
<text text-anchor="middle" x="130.5" y="-104.454" font-family="Calibri" font-size="9.00">set_addressing</text>
</a>
</g>
</g>
<!-- Node1&#45;&gt;Node6 -->
<g id="edge5" class="edge"><title>Node1&#45;&gt;Node6</title>
<path fill="none" stroke="midnightblue" d="M52.0541,-77.6596C65.105,-82.5456 81.4487,-88.6644 95.7542,-94.0202"/>
<polygon fill="midnightblue" stroke="midnightblue" points="94.6745,-97.3532 105.267,-97.5816 97.1288,-90.7975 94.6745,-97.3532"/>
</g>
<!-- Node2&#45;&gt;Node3 -->
<g id="edge2" class="edge"><title>Node2&#45;&gt;Node3</title>
<path fill="none" stroke="midnightblue" d="M142.326,-39.7759C156.615,-51.5886 182.796,-72.4613 207,-87.6541 209.813,-89.42 212.81,-91.1648 215.834,-92.839"/>
<polygon fill="midnightblue" stroke="midnightblue" points="214.353,-96.0152 224.829,-97.6004 217.628,-89.8285 214.353,-96.0152"/>
</g>
<!-- Node2&#45;&gt;Node4 -->
<g id="edge3" class="edge"><title>Node2&#45;&gt;Node4</title>
<path fill="none" stroke="midnightblue" d="M171.163,-23.9554C180.269,-22.4176 190.011,-20.7722 199.313,-19.2013"/>
<polygon fill="midnightblue" stroke="midnightblue" points="199.904,-22.651 209.182,-17.5345 198.739,-15.7487 199.904,-22.651"/>
</g>
<!-- Node2&#45;&gt;Node5 -->
<g id="edge4" class="edge"><title>Node2&#45;&gt;Node5</title>
<path fill="none" stroke="midnightblue" d="M158.161,-39.6596C172.904,-44.6396 191.439,-50.9002 207.509,-56.3283"/>
<polygon fill="midnightblue" stroke="midnightblue" points="206.546,-59.6973 217.141,-59.5816 208.787,-53.0654 206.546,-59.6973"/>
</g>
<!-- Node6&#45;&gt;Node3 -->
<g id="edge6" class="edge"><title>Node6&#45;&gt;Node3</title>
<path fill="none" stroke="midnightblue" d="M170.531,-106.654C179.569,-106.654 189.262,-106.654 198.548,-106.654"/>
<polygon fill="midnightblue" stroke="midnightblue" points="198.802,-110.154 208.802,-106.654 198.802,-103.154 198.802,-110.154"/>
</g>
<!-- Node6&#45;&gt;Node5 -->
<g id="edge7" class="edge"><title>Node6&#45;&gt;Node5</title>
<path fill="none" stroke="midnightblue" d="M158.161,-97.6486C172.904,-92.6686 191.439,-86.408 207.509,-80.9799"/>
<polygon fill="midnightblue" stroke="midnightblue" points="208.787,-84.2428 217.141,-77.7266 206.546,-77.6109 208.787,-84.2428"/>
</g>
</g>
</svg>
