<?xml version="1.0" encoding="UTF-8" standalone="no"?>
<!DOCTYPE svg PUBLIC "-//W3C//DTD SVG 1.1//EN"
 "http://www.w3.org/Graphics/SVG/1.1/DTD/svg11.dtd">
<!-- Generated by graphviz version 2.38.0 (20140413.2041)
 -->
<!-- Title: include/pic_init.h Pages: 1 -->
<!--zoomable 302 -->
<svg id="main" version="1.1" xmlns="http://www.w3.org/2000/svg" xmlns:xlink="http://www.w3.org/1999/xlink" xml:space="preserve" onload="init(evt)">
<style type="text/css"><![CDATA[
.edge:hover path { stroke: red; }
.edge:hover polygon { stroke: red; fill: red; }
]]></style>
<script type="text/javascript"><![CDATA[
var edges = document.getElementsByTagName('g');
if (edges && edges.length) {
  for (var i=0;i<edges.length;i++) {
    if (edges[i].id.substr(0,4)=='edge') {
      edges[i].setAttribute('class','edge');
    }
  }
}
]]></script>
        <defs>
                <circle id="rim" cx="0" cy="0" r="7"/>
                <circle id="rim2" cx="0" cy="0" r="3.5"/>
                <g id="zoomPlus">
                        <use xlink:href="#rim" fill="#404040">
                                <set attributeName="fill" to="#808080" begin="zoomplus.mouseover" end="zoomplus.mouseout"/>
                        </use>
                        <path d="M-4,0h8M0,-4v8" fill="none" stroke="white" stroke-width="1.5" pointer-events="none"/>
                </g>
                <g id="zoomMin">
                        <use xlink:href="#rim" fill="#404040">
                                <set attributeName="fill" to="#808080" begin="zoomminus.mouseover" end="zoomminus.mouseout"/>
                        </use>
                        <path d="M-4,0h8" fill="none" stroke="white" stroke-width="1.5" pointer-events="none"/>
                </g>
                <g id="dirArrow">
                        <path fill="none" stroke="white" stroke-width="1.5" d="M0,-3.0v7 M-2.5,-0.5L0,-3.0L2.5,-0.5"/>
                </g>
               <g id="resetDef">
                       <use xlink:href="#rim2" fill="#404040">
                               <set attributeName="fill" to="#808080" begin="reset.mouseover" end="reset.mouseout"/>
                       </use>
               </g>
        </defs>

<script type="text/javascript">
var viewWidth = 826;
var viewHeight = 302;
var sectionId = 'dynsection-0';
</script>
<script xlink:href="svgpan.js"/>
<svg id="graph" class="graph">
<g id="viewport">
<title>include/pic_init.h</title>
<!-- Node1 -->
<g id="node1" class="node"><title>Node1</title>
<g id="a_node1"><a xlink:title="PIC microcontroller initialization definitions for ATU&#45;100 EXT PIC16F1938.">
<polygon fill="#bfbfbf" stroke="black" points="374.5,-275.5 374.5,-293.5 463.5,-293.5 463.5,-275.5 374.5,-275.5"/>
<text text-anchor="middle" x="419" y="-282.3" font-family="Calibri" font-size="9.00">include/pic_init.h</text>
</a>
</g>
</g>
<!-- Node2 -->
<g id="node2" class="node"><title>Node2</title>
<g id="a_node2"><a xlink:title=" ">
<polygon fill="none" stroke="#bfbfbf" points="688,-0.5 688,-18.5 720,-18.5 720,-0.5 688,-0.5"/>
<text text-anchor="middle" x="704" y="-7.3" font-family="Calibri" font-size="9.00">xc.h</text>
</a>
</g>
</g>
<!-- Node1&#45;&gt;Node2 -->
<g id="edge1" class="edge"><title>Node1&#45;&gt;Node2</title>
<path fill="none" stroke="midnightblue" d="M463.609,-280.869C567.727,-273.508 818,-248.25 818,-175.5 818,-175.5 818,-175.5 818,-118.5 818,-70.1135 763.207,-36.9088 729.595,-21.0919"/>
<polygon fill="midnightblue" stroke="midnightblue" points="730.888,-17.8359 720.333,-16.9183 728.012,-24.2178 730.888,-17.8359"/>
</g>
<!-- Node3 -->
<g id="node3" class="node"><title>Node3</title>
<g id="a_node3"><a xlink:title=" ">
<polygon fill="none" stroke="#bfbfbf" points="524,-0.5 524,-18.5 580,-18.5 580,-0.5 524,-0.5"/>
<text text-anchor="middle" x="552" y="-7.3" font-family="Calibri" font-size="9.00">stdbool.h</text>
</a>
</g>
</g>
<!-- Node1&#45;&gt;Node3 -->
<g id="edge2" class="edge"><title>Node1&#45;&gt;Node3</title>
<path fill="none" stroke="midnightblue" d="M463.628,-279.612C560.214,-269.966 780,-240.836 780,-175.5 780,-175.5 780,-175.5 780,-118.5 780,-35.7278 655.753,-16.307 590.698,-11.8115"/>
<polygon fill="midnightblue" stroke="midnightblue" points="590.608,-8.29975 580.415,-11.1911 590.186,-15.287 590.608,-8.29975"/>
</g>
<!-- Node4 -->
<g id="node4" class="node"><title>Node4</title>
<g id="a_node4"><a xlink:title=" ">
<polygon fill="none" stroke="#bfbfbf" points="355,-0.5 355,-18.5 405,-18.5 405,-0.5 355,-0.5"/>
<text text-anchor="middle" x="380" y="-7.3" font-family="Calibri" font-size="9.00">stddef.h</text>
</a>
</g>
</g>
<!-- Node1&#45;&gt;Node4 -->
<g id="edge3" class="edge"><title>Node1&#45;&gt;Node4</title>
<path fill="none" stroke="midnightblue" d="M435.63,-275.36C449.451,-267.774 468.631,-255.204 480,-239 527.125,-171.834 541.689,-122.47 495,-55 477.148,-29.202 442.049,-18.3575 415.3,-13.8002"/>
<polygon fill="midnightblue" stroke="midnightblue" points="415.553,-10.2997 405.149,-12.2975 414.528,-17.2243 415.553,-10.2997"/>
</g>
<!-- Node5 -->
<g id="node5" class="node"><title>Node5</title>
<g id="a_node5"><a xlink:title=" ">
<polygon fill="none" stroke="#bfbfbf" points="52,-0.5 52,-18.5 100,-18.5 100,-0.5 52,-0.5"/>
<text text-anchor="middle" x="76" y="-7.3" font-family="Calibri" font-size="9.00">stdint.h</text>
</a>
</g>
</g>
<!-- Node1&#45;&gt;Node5 -->
<g id="edge4" class="edge"><title>Node1&#45;&gt;Node5</title>
<path fill="none" stroke="midnightblue" d="M374.16,-281.426C266.069,-275.209 0,-252.123 0,-175.5 0,-175.5 0,-175.5 0,-118.5 0,-79.0599 34.317,-43.8584 56.8312,-25.0079"/>
<polygon fill="midnightblue" stroke="midnightblue" points="59.1877,-27.6042 64.7859,-18.6091 54.8002,-22.1498 59.1877,-27.6042"/>
</g>
<!-- Node6 -->
<g id="node6" class="node"><title>Node6</title>
<g id="a_node6"><a xlink:title=" ">
<polygon fill="none" stroke="#bfbfbf" points="204,-0.5 204,-18.5 252,-18.5 252,-0.5 204,-0.5"/>
<text text-anchor="middle" x="228" y="-7.3" font-family="Calibri" font-size="9.00">stdlib.h</text>
</a>
</g>
</g>
<!-- Node1&#45;&gt;Node6 -->
<g id="edge5" class="edge"><title>Node1&#45;&gt;Node6</title>
<path fill="none" stroke="midnightblue" d="M388.543,-275.387C365.698,-268.298 334.459,-256.391 311,-239 285.628,-220.19 282.875,-210.698 266,-184 238.365,-140.278 233.545,-125.426 228,-74 226.371,-58.8947 226.496,-41.6504 226.959,-28.9476"/>
<polygon fill="midnightblue" stroke="midnightblue" points="230.464,-28.9034 227.438,-18.7502 223.472,-28.5749 230.464,-28.9034"/>
</g>
<!-- Node7 -->
<g id="node7" class="node"><title>Node7</title>
<g id="a_node7"><a xlink:href="extratypes_8h.html" target="_top" xlink:title=" ">
<polygon fill="none" stroke="black" points="386,-220.5 386,-238.5 452,-238.5 452,-220.5 386,-220.5"/>
<text text-anchor="middle" x="419" y="-227.3" font-family="Calibri" font-size="9.00">extratypes.h</text>
</a>
</g>
</g>
<!-- Node1&#45;&gt;Node7 -->
<g id="edge6" class="edge"><title>Node1&#45;&gt;Node7</title>
<path fill="none" stroke="midnightblue" d="M419,-275.219C419,-268.177 419,-257.808 419,-248.828"/>
<polygon fill="midnightblue" stroke="midnightblue" points="422.5,-248.55 419,-238.55 415.5,-248.55 422.5,-248.55"/>
</g>
<!-- Node8 -->
<g id="node8" class="node"><title>Node8</title>
<g id="a_node8"><a xlink:href="eeprom__map_8h.html" target="_top" xlink:title=" ">
<polygon fill="none" stroke="black" points="408,-55.5 408,-73.5 486,-73.5 486,-55.5 408,-55.5"/>
<text text-anchor="middle" x="447" y="-62.3" font-family="Calibri" font-size="9.00">eeprom_map.h</text>
</a>
</g>
</g>
<!-- Node1&#45;&gt;Node8 -->
<g id="edge35" class="edge"><title>Node1&#45;&gt;Node8</title>
<path fill="none" stroke="midnightblue" d="M429.916,-275.264C439.767,-267.18 453.785,-253.919 461,-239 486.053,-187.199 486.566,-165.667 472,-110 469.42,-100.141 464.113,-90.1601 459.05,-82.1558"/>
<polygon fill="midnightblue" stroke="midnightblue" points="461.897,-80.1172 453.396,-73.7935 456.098,-84.038 461.897,-80.1172"/>
</g>
<!-- Node9 -->
<g id="node9" class="node"><title>Node9</title>
<g id="a_node9"><a xlink:href="preprocessor_8h.html" target="_top" xlink:title=" ">
<polygon fill="none" stroke="black" points="294.5,-165.5 294.5,-183.5 371.5,-183.5 371.5,-165.5 294.5,-165.5"/>
<text text-anchor="middle" x="333" y="-172.3" font-family="Calibri" font-size="9.00">preprocessor.h</text>
</a>
</g>
</g>
<!-- Node1&#45;&gt;Node9 -->
<g id="edge33" class="edge"><title>Node1&#45;&gt;Node9</title>
<path fill="none" stroke="midnightblue" d="M410.554,-275.314C401.778,-266.638 387.838,-252.369 377,-239 364.63,-223.742 352.013,-205.159 343.48,-192.05"/>
<polygon fill="midnightblue" stroke="midnightblue" points="346.4,-190.119 338.051,-183.597 340.51,-193.902 346.4,-190.119"/>
</g>
<!-- Node10 -->
<g id="node10" class="node"><title>Node10</title>
<g id="a_node10"><a xlink:href="common_8h.html" target="_top" xlink:title=" ">
<polygon fill="none" stroke="black" points="308.5,-110.5 308.5,-128.5 367.5,-128.5 367.5,-110.5 308.5,-110.5"/>
<text text-anchor="middle" x="338" y="-117.3" font-family="Calibri" font-size="9.00">common.h</text>
</a>
</g>
</g>
<!-- Node1&#45;&gt;Node10 -->
<g id="edge34" class="edge"><title>Node1&#45;&gt;Node10</title>
<path fill="none" stroke="midnightblue" d="M398.336,-275.399C367.057,-261.864 308.817,-231.376 285,-184 275.245,-164.595 295.517,-145.954 313.741,-133.948"/>
<polygon fill="midnightblue" stroke="midnightblue" points="315.712,-136.844 322.382,-128.612 312.034,-130.888 315.712,-136.844"/>
</g>
<!-- Node7&#45;&gt;Node2 -->
<g id="edge7" class="edge"><title>Node7&#45;&gt;Node2</title>
<path fill="none" stroke="midnightblue" d="M433.643,-220.373C448.657,-211.858 472.504,-197.82 492,-184 568.188,-129.993 652.226,-56.76 687.248,-25.569"/>
<polygon fill="midnightblue" stroke="midnightblue" points="689.939,-27.8571 695.061,-18.5821 685.273,-22.6391 689.939,-27.8571"/>
</g>
<!-- Node7&#45;&gt;Node3 -->
<g id="edge8" class="edge"><title>Node7&#45;&gt;Node3</title>
<path fill="none" stroke="midnightblue" d="M429.698,-220.361C440.363,-211.944 456.859,-198.081 469,-184 507.156,-139.748 519.569,-128.358 541,-74 546.777,-59.3481 549.526,-41.61 550.831,-28.6097"/>
<polygon fill="midnightblue" stroke="midnightblue" points="554.323,-28.8525 551.646,-18.6015 547.346,-28.2845 554.323,-28.8525"/>
</g>
<!-- Node7&#45;&gt;Node4 -->
<g id="edge9" class="edge"><title>Node7&#45;&gt;Node4</title>
<path fill="none" stroke="midnightblue" d="M417.566,-220.483C411.953,-189.107 391.388,-74.1587 383.3,-28.9443"/>
<polygon fill="midnightblue" stroke="midnightblue" points="386.695,-28.0504 381.489,-18.8231 379.805,-29.2832 386.695,-28.0504"/>
</g>
<!-- Node7&#45;&gt;Node5 -->
<g id="edge10" class="edge"><title>Node7&#45;&gt;Node5</title>
<path fill="none" stroke="midnightblue" d="M385.963,-223.392C353.773,-217.408 304.234,-205.464 266,-184 189.124,-140.843 117.854,-61.1076 89.2383,-26.845"/>
<polygon fill="midnightblue" stroke="midnightblue" points="91.6757,-24.2993 82.6152,-18.8077 86.2736,-28.7509 91.6757,-24.2993"/>
</g>
<!-- Node7&#45;&gt;Node6 -->
<g id="edge11" class="edge"><title>Node7&#45;&gt;Node6</title>
<path fill="none" stroke="midnightblue" d="M385.796,-225.697C355.73,-221.454 312.115,-210.791 285,-184 241.436,-140.955 231.161,-64.0881 228.743,-28.9472"/>
<polygon fill="midnightblue" stroke="midnightblue" points="232.225,-28.5334 228.187,-18.7386 225.236,-28.9141 232.225,-28.5334"/>
</g>
<!-- Node7&#45;&gt;Node8 -->
<g id="edge12" class="edge"><title>Node7&#45;&gt;Node8</title>
<path fill="none" stroke="midnightblue" d="M427.71,-220.273C435.78,-211.999 447.233,-198.43 452,-184 463.267,-149.891 456.856,-107.24 451.629,-83.5288"/>
<polygon fill="midnightblue" stroke="midnightblue" points="454.968,-82.4437 449.24,-73.5307 448.16,-84.0703 454.968,-82.4437"/>
</g>
<!-- Node7&#45;&gt;Node9 -->
<g id="edge18" class="edge"><title>Node7&#45;&gt;Node9</title>
<path fill="none" stroke="midnightblue" d="M405.938,-220.45C392.426,-212.123 371.084,-198.97 354.97,-189.039"/>
<polygon fill="midnightblue" stroke="midnightblue" points="356.534,-185.892 346.184,-183.625 352.861,-191.851 356.534,-185.892"/>
</g>
<!-- Node7&#45;&gt;Node10 -->
<g id="edge32" class="edge"><title>Node7&#45;&gt;Node10</title>
<path fill="none" stroke="midnightblue" d="M414.697,-220.336C407.989,-207.902 394.318,-183.693 380,-165 372.07,-154.646 362.086,-143.989 353.843,-135.701"/>
<polygon fill="midnightblue" stroke="midnightblue" points="356.178,-133.088 346.597,-128.567 351.268,-138.077 356.178,-133.088"/>
</g>
<!-- Node8&#45;&gt;Node2 -->
<g id="edge13" class="edge"><title>Node8&#45;&gt;Node2</title>
<path fill="none" stroke="midnightblue" d="M486.033,-55.4504C539.072,-44.5124 632.482,-25.2488 677.831,-15.8968"/>
<polygon fill="midnightblue" stroke="midnightblue" points="678.678,-19.2957 687.765,-13.848 677.264,-12.44 678.678,-19.2957"/>
</g>
<!-- Node8&#45;&gt;Node3 -->
<g id="edge14" class="edge"><title>Node8&#45;&gt;Node3</title>
<path fill="none" stroke="midnightblue" d="M462.947,-55.4504C479.907,-46.8897 506.971,-33.2291 526.816,-23.2119"/>
<polygon fill="midnightblue" stroke="midnightblue" points="528.553,-26.256 535.903,-18.6253 525.398,-20.007 528.553,-26.256"/>
</g>
<!-- Node8&#45;&gt;Node4 -->
<g id="edge15" class="edge"><title>Node8&#45;&gt;Node4</title>
<path fill="none" stroke="midnightblue" d="M436.824,-55.4504C426.592,-47.3566 410.598,-34.7042 398.181,-24.8822"/>
<polygon fill="midnightblue" stroke="midnightblue" points="400.286,-22.0844 390.272,-18.6253 395.943,-27.5744 400.286,-22.0844"/>
</g>
<!-- Node8&#45;&gt;Node5 -->
<g id="edge16" class="edge"><title>Node8&#45;&gt;Node5</title>
<path fill="none" stroke="midnightblue" d="M407.998,-57.9282C335.092,-47.5131 179.295,-25.2564 110.207,-15.3867"/>
<polygon fill="midnightblue" stroke="midnightblue" points="110.67,-11.9174 100.275,-13.9679 109.68,-18.847 110.67,-11.9174"/>
</g>
<!-- Node8&#45;&gt;Node6 -->
<g id="edge17" class="edge"><title>Node8&#45;&gt;Node6</title>
<path fill="none" stroke="midnightblue" d="M413.739,-55.4504C372.704,-45.5196 303.311,-28.7259 261.958,-18.7181"/>
<polygon fill="midnightblue" stroke="midnightblue" points="262.626,-15.2788 252.083,-16.3283 260.979,-22.0824 262.626,-15.2788"/>
</g>
<!-- Node9&#45;&gt;Node2 -->
<g id="edge19" class="edge"><title>Node9&#45;&gt;Node2</title>
<path fill="none" stroke="midnightblue" d="M364.526,-165.426C393.884,-157.502 438.613,-144.39 476,-129 554.29,-96.7726 641.808,-47.2014 681.844,-23.714"/>
<polygon fill="midnightblue" stroke="midnightblue" points="683.693,-26.6864 690.528,-18.5905 680.136,-20.6575 683.693,-26.6864"/>
</g>
<!-- Node9&#45;&gt;Node3 -->
<g id="edge20" class="edge"><title>Node9&#45;&gt;Node3</title>
<path fill="none" stroke="midnightblue" d="M358.788,-165.469C398.018,-152.119 473.073,-121.981 520,-74 532.532,-61.1864 541.142,-42.4824 546.248,-28.6908"/>
<polygon fill="midnightblue" stroke="midnightblue" points="549.675,-29.4844 549.599,-18.8898 543.052,-27.2196 549.675,-29.4844"/>
</g>
<!-- Node9&#45;&gt;Node4 -->
<g id="edge21" class="edge"><title>Node9&#45;&gt;Node4</title>
<path fill="none" stroke="midnightblue" d="M323.377,-165.248C310.893,-153.48 291.543,-130.973 299,-110 311.472,-74.925 342.181,-43.2403 362,-25.4679"/>
<polygon fill="midnightblue" stroke="midnightblue" points="364.494,-27.9373 369.743,-18.7336 359.9,-22.6556 364.494,-27.9373"/>
</g>
<!-- Node9&#45;&gt;Node5 -->
<g id="edge22" class="edge"><title>Node9&#45;&gt;Node5</title>
<path fill="none" stroke="midnightblue" d="M320.255,-165.417C279.064,-139.292 149.202,-56.9278 97.5225,-24.1504"/>
<polygon fill="midnightblue" stroke="midnightblue" points="99.1409,-21.0324 88.8216,-18.632 95.3917,-26.9437 99.1409,-21.0324"/>
</g>
<!-- Node9&#45;&gt;Node6 -->
<g id="edge23" class="edge"><title>Node9&#45;&gt;Node6</title>
<path fill="none" stroke="midnightblue" d="M324.964,-165.409C316.658,-156.81 303.587,-142.603 294,-129 270.012,-94.9619 247.672,-51.4068 236.15,-27.7233"/>
<polygon fill="midnightblue" stroke="midnightblue" points="239.258,-26.11 231.774,-18.6098 232.947,-29.1396 239.258,-26.11"/>
</g>
<!-- Node9&#45;&gt;Node10 -->
<g id="edge24" class="edge"><title>Node9&#45;&gt;Node10</title>
<path fill="none" stroke="midnightblue" d="M328.719,-165.219C327.778,-158.099 328.314,-147.577 329.866,-138.529"/>
<polygon fill="midnightblue" stroke="midnightblue" points="333.33,-139.087 332.231,-128.55 326.519,-137.473 333.33,-139.087"/>
</g>
<!-- Node10&#45;&gt;Node2 -->
<g id="edge25" class="edge"><title>Node10&#45;&gt;Node2</title>
<path fill="none" stroke="midnightblue" d="M367.538,-112.161C403.729,-104.192 466.793,-89.6492 520,-74 577.244,-57.1632 643.056,-33.3435 678.384,-20.1832"/>
<polygon fill="midnightblue" stroke="midnightblue" points="679.779,-23.3982 687.917,-16.6145 677.325,-16.8425 679.779,-23.3982"/>
</g>
<!-- Node10&#45;&gt;Node3 -->
<g id="edge26" class="edge"><title>Node10&#45;&gt;Node3</title>
<path fill="none" stroke="midnightblue" d="M367.548,-112.193C406.818,-103.463 473.727,-87.2702 495,-74 514.178,-62.0367 530.743,-41.777 540.998,-27.36"/>
<polygon fill="midnightblue" stroke="midnightblue" points="544.042,-29.1082 546.789,-18.8757 538.261,-25.1617 544.042,-29.1082"/>
</g>
<!-- Node10&#45;&gt;Node4 -->
<g id="edge27" class="edge"><title>Node10&#45;&gt;Node4</title>
<path fill="none" stroke="midnightblue" d="M341.157,-110.382C347.907,-93.0258 363.877,-51.96 373.101,-28.2413"/>
<polygon fill="midnightblue" stroke="midnightblue" points="376.444,-29.3004 376.807,-18.7118 369.92,-26.7632 376.444,-29.3004"/>
</g>
<!-- Node10&#45;&gt;Node5 -->
<g id="edge28" class="edge"><title>Node10&#45;&gt;Node5</title>
<path fill="none" stroke="midnightblue" d="M318.307,-110.382C272.486,-91.4942 158.548,-44.5275 104.858,-22.3956"/>
<polygon fill="midnightblue" stroke="midnightblue" points="106.143,-19.1397 95.5637,-18.5644 103.475,-25.6114 106.143,-19.1397"/>
</g>
<!-- Node10&#45;&gt;Node6 -->
<g id="edge29" class="edge"><title>Node10&#45;&gt;Node6</title>
<path fill="none" stroke="midnightblue" d="M329.732,-110.382C311.417,-92.4004 267.182,-48.9695 243.529,-25.7467"/>
<polygon fill="midnightblue" stroke="midnightblue" points="245.952,-23.2202 236.364,-18.7118 241.047,-28.2152 245.952,-23.2202"/>
</g>
<!-- Node10&#45;&gt;Node8 -->
<g id="edge30" class="edge"><title>Node10&#45;&gt;Node8</title>
<path fill="none" stroke="midnightblue" d="M354.555,-110.45C372.241,-101.851 400.511,-88.1048 421.137,-78.0755"/>
<polygon fill="midnightblue" stroke="midnightblue" points="422.827,-81.1459 430.289,-73.6253 419.766,-74.8506 422.827,-81.1459"/>
</g>
<!-- Node10&#45;&gt;Node9 -->
<g id="edge31" class="edge"><title>Node10&#45;&gt;Node9</title>
<path fill="none" stroke="midnightblue" d="M342.25,-128.55C343.233,-135.672 342.703,-146.326 341.134,-155.473"/>
<polygon fill="midnightblue" stroke="midnightblue" points="337.725,-154.683 338.844,-165.219 344.539,-156.285 337.725,-154.683"/>
</g>
</g>
</svg>
        <g id="navigator" transform="translate(0 0)" fill="#404254">
                <rect fill="#f2f5e9" fill-opacity="0.5" stroke="#606060" stroke-width=".5" x="0" y="0" width="60" height="60"/>
                <use id="zoomplus" xlink:href="#zoomPlus" x="17" y="9" onmousedown="handleZoom(evt,'in')"/>
                <use id="zoomminus" xlink:href="#zoomMin" x="42" y="9" onmousedown="handleZoom(evt,'out')"/>
                <use id="reset" xlink:href="#resetDef" x="30" y="36" onmousedown="handleReset()"/>
                <g id="arrowUp" xlink:href="#dirArrow" transform="translate(30 24)" onmousedown="handlePan(0,-1)">
                  <use xlink:href="#rim" fill="#404040">
                        <set attributeName="fill" to="#808080" begin="arrowUp.mouseover" end="arrowUp.mouseout"/>
                  </use>
                  <path fill="none" stroke="white" stroke-width="1.5" d="M0,-3.0v7 M-2.5,-0.5L0,-3.0L2.5,-0.5"/>
                </g>
                <g id="arrowRight" xlink:href="#dirArrow" transform="rotate(90) translate(36 -43)" onmousedown="handlePan(1,0)">
                  <use xlink:href="#rim" fill="#404040">
                        <set attributeName="fill" to="#808080" begin="arrowRight.mouseover" end="arrowRight.mouseout"/>
                  </use>
                  <path fill="none" stroke="white" stroke-width="1.5" d="M0,-3.0v7 M-2.5,-0.5L0,-3.0L2.5,-0.5"/>
                </g>
                <g id="arrowDown" xlink:href="#dirArrow" transform="rotate(180) translate(-30 -48)" onmousedown="handlePan(0,1)">
                  <use xlink:href="#rim" fill="#404040">
                        <set attributeName="fill" to="#808080" begin="arrowDown.mouseover" end="arrowDown.mouseout"/>
                  </use>
                  <path fill="none" stroke="white" stroke-width="1.5" d="M0,-3.0v7 M-2.5,-0.5L0,-3.0L2.5,-0.5"/>
                </g>
                <g id="arrowLeft" xlink:href="#dirArrow" transform="rotate(270) translate(-36 17)" onmousedown="handlePan(-1,0)">
                  <use xlink:href="#rim" fill="#404040">
                        <set attributeName="fill" to="#808080" begin="arrowLeft.mouseover" end="arrowLeft.mouseout"/>
                  </use>
                  <path fill="none" stroke="white" stroke-width="1.5" d="M0,-3.0v7 M-2.5,-0.5L0,-3.0L2.5,-0.5"/>
                </g>
        </g>
        <svg viewBox="0 0 15 15" width="100%" height="30px" preserveAspectRatio="xMaxYMin meet">
         <g id="arrow_out" transform="scale(0.3 0.3)">
          <a xlink:href="pic__init_8h__incl_org.svg" target="_base">
           <rect id="button" ry="5" rx="5" y="6" x="6" height="38" width="38"
                fill="#f2f5e9" fill-opacity="0.5" stroke="#606060" stroke-width="1.0"/>
           <path id="arrow"
             d="M 11.500037,31.436501 C 11.940474,20.09759 22.043105,11.32322 32.158766,21.979434 L 37.068811,17.246167 C 37.068811,17.246167 37.088388,32 37.088388,32 L 22.160133,31.978069 C 22.160133,31.978069 26.997745,27.140456 26.997745,27.140456 C 18.528582,18.264221 13.291696,25.230495 11.500037,31.436501 z"
             style="fill:#404040;"/>
          </a>
         </g>
        </svg>
</svg>
