<?xml version="1.0" encoding="UTF-8" standalone="no"?>
<!DOCTYPE svg PUBLIC "-//W3C//DTD SVG 1.1//EN"
 "http://www.w3.org/Graphics/SVG/1.1/DTD/svg11.dtd">
<!-- Generated by graphviz version 2.38.0 (20140413.2041)
 -->
<!-- Title: src/pic_init.c Pages: 1 -->
<svg width="1016pt" height="357pt"
 viewBox="0.00 0.00 1016.00 357.00" xmlns="http://www.w3.org/2000/svg" xmlns:xlink="http://www.w3.org/1999/xlink">
<g id="graph0" class="graph" transform="scale(1 1) rotate(0) translate(4 353)">
<title>src/pic_init.c</title>
<!-- Node1 -->
<g id="node1" class="node"><title>Node1</title>
<g id="a_node1"><a xlink:title="PIC microcontroller initialization routines for ATU&#45;100 EXT PIC16F1938.">
<polygon fill="#bfbfbf" stroke="black" points="417,-330.5 417,-348.5 485,-348.5 485,-330.5 417,-330.5"/>
<text text-anchor="middle" x="451" y="-337.3" font-family="Calibri" font-size="9.00">src/pic_init.c</text>
</a>
</g>
</g>
<!-- Node2 -->
<g id="node2" class="node"><title>Node2</title>
<g id="a_node2"><a xlink:title=" ">
<polygon fill="none" stroke="#bfbfbf" points="98,-0.5 98,-18.5 130,-18.5 130,-0.5 98,-0.5"/>
<text text-anchor="middle" x="114" y="-7.3" font-family="Calibri" font-size="9.00">xc.h</text>
</a>
</g>
</g>
<!-- Node1&#45;&gt;Node2 -->
<g id="edge1" class="edge"><title>Node1&#45;&gt;Node2</title>
<path fill="none" stroke="midnightblue" d="M416.801,-336.892C336.458,-332.722 137.876,-320.027 77,-294 36.2131,-276.562 0,-274.858 0,-230.5 0,-230.5 0,-230.5 0,-118.5 0,-70.1135 54.7931,-36.9088 88.4051,-21.0919"/>
<polygon fill="midnightblue" stroke="midnightblue" points="89.9875,-24.2178 97.6666,-16.9183 87.1115,-17.8359 89.9875,-24.2178"/>
</g>
<!-- Node3 -->
<g id="node3" class="node"><title>Node3</title>
<g id="a_node3"><a xlink:title=" ">
<polygon fill="none" stroke="#bfbfbf" points="676,-0.5 676,-18.5 732,-18.5 732,-0.5 676,-0.5"/>
<text text-anchor="middle" x="704" y="-7.3" font-family="Calibri" font-size="9.00">stdbool.h</text>
</a>
</g>
</g>
<!-- Node1&#45;&gt;Node3 -->
<g id="edge2" class="edge"><title>Node1&#45;&gt;Node3</title>
<path fill="none" stroke="midnightblue" d="M485.026,-337.49C588.76,-333.499 894,-314.61 894,-230.5 894,-230.5 894,-230.5 894,-118.5 894,-49.348 797.7,-23.9196 742.217,-15.0078"/>
<polygon fill="midnightblue" stroke="midnightblue" points="742.443,-11.5027 732.035,-13.4833 741.407,-18.4255 742.443,-11.5027"/>
</g>
<!-- Node4 -->
<g id="node4" class="node"><title>Node4</title>
<g id="a_node4"><a xlink:title=" ">
<polygon fill="none" stroke="#bfbfbf" points="831,-0.5 831,-18.5 881,-18.5 881,-0.5 831,-0.5"/>
<text text-anchor="middle" x="856" y="-7.3" font-family="Calibri" font-size="9.00">stddef.h</text>
</a>
</g>
</g>
<!-- Node1&#45;&gt;Node4 -->
<g id="edge3" class="edge"><title>Node1&#45;&gt;Node4</title>
<path fill="none" stroke="midnightblue" d="M485.004,-339.175C605.937,-340.678 1008,-337.621 1008,-230.5 1008,-230.5 1008,-230.5 1008,-118.5 1008,-61.3182 935.632,-31.6284 890.765,-18.7159"/>
<polygon fill="midnightblue" stroke="midnightblue" points="891.669,-15.3348 881.1,-16.0695 889.82,-22.0863 891.669,-15.3348"/>
</g>
<!-- Node5 -->
<g id="node5" class="node"><title>Node5</title>
<g id="a_node5"><a xlink:title=" ">
<polygon fill="none" stroke="#bfbfbf" points="275,-0.5 275,-18.5 323,-18.5 323,-0.5 275,-0.5"/>
<text text-anchor="middle" x="299" y="-7.3" font-family="Calibri" font-size="9.00">stdint.h</text>
</a>
</g>
</g>
<!-- Node1&#45;&gt;Node5 -->
<g id="edge4" class="edge"><title>Node1&#45;&gt;Node5</title>
<path fill="none" stroke="midnightblue" d="M416.851,-336.89C317.902,-331.303 38,-308.596 38,-230.5 38,-230.5 38,-230.5 38,-173.5 38,-67.8056 193.885,-28.1245 264.711,-15.5502"/>
<polygon fill="midnightblue" stroke="midnightblue" points="265.638,-18.9432 274.914,-13.8228 264.47,-12.0414 265.638,-18.9432"/>
</g>
<!-- Node6 -->
<g id="node6" class="node"><title>Node6</title>
<g id="a_node6"><a xlink:title=" ">
<polygon fill="none" stroke="#bfbfbf" points="509,-0.5 509,-18.5 557,-18.5 557,-0.5 509,-0.5"/>
<text text-anchor="middle" x="533" y="-7.3" font-family="Calibri" font-size="9.00">stdlib.h</text>
</a>
</g>
</g>
<!-- Node1&#45;&gt;Node6 -->
<g id="edge5" class="edge"><title>Node1&#45;&gt;Node6</title>
<path fill="none" stroke="midnightblue" d="M485.197,-335.789C576.305,-327.632 818,-299.491 818,-230.5 818,-230.5 818,-230.5 818,-118.5 818,-65.4375 643.063,-29.2281 567.302,-16.0347"/>
<polygon fill="midnightblue" stroke="midnightblue" points="567.745,-12.5598 557.299,-14.3265 566.567,-19.4599 567.745,-12.5598"/>
</g>
<!-- Node7 -->
<g id="node7" class="node"><title>Node7</title>
<g id="a_node7"><a xlink:href="extratypes_8h.html" target="_top" xlink:title=" ">
<polygon fill="none" stroke="black" points="324,-220.5 324,-238.5 390,-238.5 390,-220.5 324,-220.5"/>
<text text-anchor="middle" x="357" y="-227.3" font-family="Calibri" font-size="9.00">extratypes.h</text>
</a>
</g>
</g>
<!-- Node1&#45;&gt;Node7 -->
<g id="edge6" class="edge"><title>Node1&#45;&gt;Node7</title>
<path fill="none" stroke="midnightblue" d="M441.525,-330.418C431.686,-321.827 416.071,-307.626 404,-294 390.681,-278.964 377.219,-260.35 368.136,-247.172"/>
<polygon fill="midnightblue" stroke="midnightblue" points="370.875,-244.974 362.362,-238.666 365.083,-248.906 370.875,-244.974"/>
</g>
<!-- Node8 -->
<g id="node8" class="node"><title>Node8</title>
<g id="a_node8"><a xlink:href="eeprom__map_8h.html" target="_top" xlink:title=" ">
<polygon fill="none" stroke="black" points="332,-55.5 332,-73.5 410,-73.5 410,-55.5 332,-55.5"/>
<text text-anchor="middle" x="371" y="-62.3" font-family="Calibri" font-size="9.00">eeprom_map.h</text>
</a>
</g>
</g>
<!-- Node1&#45;&gt;Node8 -->
<g id="edge35" class="edge"><title>Node1&#45;&gt;Node8</title>
<path fill="none" stroke="midnightblue" d="M429.577,-330.479C397.519,-317.141 338.339,-287.02 315,-239 288.303,-184.071 333.664,-113.38 357.626,-81.8916"/>
<polygon fill="midnightblue" stroke="midnightblue" points="360.583,-83.7924 364.006,-73.7658 355.078,-79.4693 360.583,-83.7924"/>
</g>
<!-- Node9 -->
<g id="node9" class="node"><title>Node9</title>
<g id="a_node9"><a xlink:href="preprocessor_8h.html" target="_top" xlink:title=" ">
<polygon fill="none" stroke="black" points="522.5,-165.5 522.5,-183.5 599.5,-183.5 599.5,-165.5 522.5,-165.5"/>
<text text-anchor="middle" x="561" y="-172.3" font-family="Calibri" font-size="9.00">preprocessor.h</text>
</a>
</g>
</g>
<!-- Node1&#45;&gt;Node9 -->
<g id="edge33" class="edge"><title>Node1&#45;&gt;Node9</title>
<path fill="none" stroke="midnightblue" d="M470.213,-330.432C485.662,-323.04 506.885,-310.706 520,-294 543.789,-263.696 554.281,-218.66 558.492,-193.742"/>
<polygon fill="midnightblue" stroke="midnightblue" points="561.998,-193.97 560.048,-183.556 555.078,-192.913 561.998,-193.97"/>
</g>
<!-- Node10 -->
<g id="node10" class="node"><title>Node10</title>
<g id="a_node10"><a xlink:href="common_8h.html" target="_top" xlink:title=" ">
<polygon fill="none" stroke="black" points="446.5,-110.5 446.5,-128.5 505.5,-128.5 505.5,-110.5 446.5,-110.5"/>
<text text-anchor="middle" x="476" y="-117.3" font-family="Calibri" font-size="9.00">common.h</text>
</a>
</g>
</g>
<!-- Node1&#45;&gt;Node10 -->
<g id="edge34" class="edge"><title>Node1&#45;&gt;Node10</title>
<path fill="none" stroke="midnightblue" d="M450.042,-330.313C449.051,-321.397 447.57,-306.708 447,-294 444.428,-236.667 461.259,-170.015 470.393,-138.62"/>
<polygon fill="midnightblue" stroke="midnightblue" points="473.838,-139.315 473.359,-128.731 467.133,-137.304 473.838,-139.315"/>
</g>
<!-- Node11 -->
<g id="node11" class="node"><title>Node11</title>
<g id="a_node11"><a xlink:href="pic__init_8h.html" target="_top" xlink:title="PIC microcontroller initialization definitions for ATU&#45;100 EXT PIC16F1938.">
<polygon fill="none" stroke="black" points="456.5,-275.5 456.5,-293.5 511.5,-293.5 511.5,-275.5 456.5,-275.5"/>
<text text-anchor="middle" x="484" y="-282.3" font-family="Calibri" font-size="9.00">pic_init.h</text>
</a>
</g>
</g>
<!-- Node1&#45;&gt;Node11 -->
<g id="edge36" class="edge"><title>Node1&#45;&gt;Node11</title>
<path fill="none" stroke="midnightblue" d="M456.156,-330.219C460.833,-322.707 467.867,-311.411 473.694,-302.052"/>
<polygon fill="midnightblue" stroke="midnightblue" points="476.674,-303.889 478.988,-293.55 470.731,-300.189 476.674,-303.889"/>
</g>
<!-- Node7&#45;&gt;Node2 -->
<g id="edge7" class="edge"><title>Node7&#45;&gt;Node2</title>
<path fill="none" stroke="midnightblue" d="M323.862,-221.698C298.428,-215.231 263.47,-203.526 238,-184 180.75,-140.11 138.815,-62.524 122.047,-27.9594"/>
<polygon fill="midnightblue" stroke="midnightblue" points="125.105,-26.2387 117.662,-18.6986 118.778,-29.2345 125.105,-26.2387"/>
</g>
<!-- Node7&#45;&gt;Node3 -->
<g id="edge8" class="edge"><title>Node7&#45;&gt;Node3</title>
<path fill="none" stroke="midnightblue" d="M390.171,-226.092C450.083,-221.187 573.342,-208.382 608,-184 662.877,-145.394 689.84,-65.0029 699.583,-28.8314"/>
<polygon fill="midnightblue" stroke="midnightblue" points="703.075,-29.3051 702.156,-18.7502 696.292,-27.5745 703.075,-29.3051"/>
</g>
<!-- Node7&#45;&gt;Node4 -->
<g id="edge9" class="edge"><title>Node7&#45;&gt;Node4</title>
<path fill="none" stroke="midnightblue" d="M390.348,-228.389C443.777,-227.077 550.893,-219.738 633,-184 722.94,-144.853 808.437,-61.0007 841.554,-26.1702"/>
<polygon fill="midnightblue" stroke="midnightblue" points="844.192,-28.4734 848.484,-18.7867 839.088,-23.6828 844.192,-28.4734"/>
</g>
<!-- Node7&#45;&gt;Node5 -->
<g id="edge10" class="edge"><title>Node7&#45;&gt;Node5</title>
<path fill="none" stroke="midnightblue" d="M323.838,-224.156C299.432,-219.032 267.852,-207.935 252,-184 220.342,-136.199 229.338,-107.665 252,-55 257.222,-42.8654 267.559,-32.4913 277.213,-24.8198"/>
<polygon fill="midnightblue" stroke="midnightblue" points="279.406,-27.5512 285.375,-18.7975 275.25,-21.9186 279.406,-27.5512"/>
</g>
<!-- Node7&#45;&gt;Node6 -->
<g id="edge11" class="edge"><title>Node7&#45;&gt;Node6</title>
<path fill="none" stroke="midnightblue" d="M351.216,-220.143C333.19,-192.986 281.646,-106.035 323,-55 344.721,-28.1937 444.876,-16.885 498.645,-12.6789"/>
<polygon fill="midnightblue" stroke="midnightblue" points="499.03,-16.1601 508.743,-11.9299 498.512,-9.17924 499.03,-16.1601"/>
</g>
<!-- Node7&#45;&gt;Node8 -->
<g id="edge12" class="edge"><title>Node7&#45;&gt;Node8</title>
<path fill="none" stroke="midnightblue" d="M357.714,-220.193C359.876,-195.013 366.395,-119.114 369.423,-83.8621"/>
<polygon fill="midnightblue" stroke="midnightblue" points="372.936,-83.86 370.305,-73.5971 365.962,-83.2609 372.936,-83.86"/>
</g>
<!-- Node7&#45;&gt;Node9 -->
<g id="edge18" class="edge"><title>Node7&#45;&gt;Node9</title>
<path fill="none" stroke="midnightblue" d="M387.983,-220.45C423.283,-211.279 481.111,-196.256 520.091,-186.128"/>
<polygon fill="midnightblue" stroke="midnightblue" points="521.262,-189.44 530.06,-183.538 519.501,-182.665 521.262,-189.44"/>
</g>
<!-- Node7&#45;&gt;Node10 -->
<g id="edge32" class="edge"><title>Node7&#45;&gt;Node10</title>
<path fill="none" stroke="midnightblue" d="M365.944,-220.382C385.844,-202.322 434.029,-158.591 459.533,-135.445"/>
<polygon fill="midnightblue" stroke="midnightblue" points="461.899,-138.024 466.952,-128.712 457.195,-132.841 461.899,-138.024"/>
</g>
<!-- Node8&#45;&gt;Node2 -->
<g id="edge13" class="edge"><title>Node8&#45;&gt;Node2</title>
<path fill="none" stroke="midnightblue" d="M331.967,-55.4504C278.928,-44.5124 185.518,-25.2488 140.169,-15.8968"/>
<polygon fill="midnightblue" stroke="midnightblue" points="140.736,-12.44 130.235,-13.848 139.322,-19.2957 140.736,-12.44"/>
</g>
<!-- Node8&#45;&gt;Node3 -->
<g id="edge14" class="edge"><title>Node8&#45;&gt;Node3</title>
<path fill="none" stroke="midnightblue" d="M410.179,-57.2644C474.508,-47.0258 601.734,-26.7765 665.571,-16.6163"/>
<polygon fill="midnightblue" stroke="midnightblue" points="666.296,-20.0451 675.622,-15.0167 665.196,-13.1321 666.296,-20.0451"/>
</g>
<!-- Node8&#45;&gt;Node4 -->
<g id="edge15" class="edge"><title>Node8&#45;&gt;Node4</title>
<path fill="none" stroke="midnightblue" d="M410.279,-59.2077C502.702,-49.1078 732.757,-23.9678 820.884,-14.3374"/>
<polygon fill="midnightblue" stroke="midnightblue" points="821.348,-17.8076 830.909,-13.2419 820.588,-10.849 821.348,-17.8076"/>
</g>
<!-- Node8&#45;&gt;Node5 -->
<g id="edge16" class="edge"><title>Node8&#45;&gt;Node5</title>
<path fill="none" stroke="midnightblue" d="M360.065,-55.4504C348.964,-47.2788 331.55,-34.4604 318.154,-24.5996"/>
<polygon fill="midnightblue" stroke="midnightblue" points="320.166,-21.7348 310.038,-18.6253 316.017,-27.3722 320.166,-21.7348"/>
</g>
<!-- Node8&#45;&gt;Node6 -->
<g id="edge17" class="edge"><title>Node8&#45;&gt;Node6</title>
<path fill="none" stroke="midnightblue" d="M395.604,-55.4504C423.199,-46.4225 468.13,-31.7229 499.054,-21.6059"/>
<polygon fill="midnightblue" stroke="midnightblue" points="500.543,-24.8013 508.959,-18.3654 498.366,-18.1483 500.543,-24.8013"/>
</g>
<!-- Node9&#45;&gt;Node2 -->
<g id="edge19" class="edge"><title>Node9&#45;&gt;Node2</title>
<path fill="none" stroke="midnightblue" d="M532.901,-165.413C478.722,-149.584 356.303,-112.665 256,-74 214.525,-58.0124 167.683,-36.3336 139.52,-22.8908"/>
<polygon fill="midnightblue" stroke="midnightblue" points="140.906,-19.6741 130.377,-18.5022 137.877,-25.9848 140.906,-19.6741"/>
</g>
<!-- Node9&#45;&gt;Node3 -->
<g id="edge20" class="edge"><title>Node9&#45;&gt;Node3</title>
<path fill="none" stroke="midnightblue" d="M568.288,-165.193C590.954,-139.356 660.468,-60.12 690.237,-26.1878"/>
<polygon fill="midnightblue" stroke="midnightblue" points="692.933,-28.4225 696.896,-18.5971 687.67,-23.8061 692.933,-28.4225"/>
</g>
<!-- Node9&#45;&gt;Node4 -->
<g id="edge21" class="edge"><title>Node9&#45;&gt;Node4</title>
<path fill="none" stroke="midnightblue" d="M575.629,-165.417C623.205,-139.129 773.834,-55.9004 832.392,-23.5442"/>
<polygon fill="midnightblue" stroke="midnightblue" points="834.223,-26.5318 841.283,-18.632 830.837,-20.4048 834.223,-26.5318"/>
</g>
<!-- Node9&#45;&gt;Node5 -->
<g id="edge22" class="edge"><title>Node9&#45;&gt;Node5</title>
<path fill="none" stroke="midnightblue" d="M555.849,-165.138C547.812,-152.445 531.395,-127.903 514,-110 486.429,-81.623 479.06,-73.3362 444,-55 408.307,-36.333 363.5,-24.086 333.213,-17.2515"/>
<polygon fill="midnightblue" stroke="midnightblue" points="333.66,-13.767 323.144,-15.0581 332.17,-20.6066 333.66,-13.767"/>
</g>
<!-- Node9&#45;&gt;Node6 -->
<g id="edge23" class="edge"><title>Node9&#45;&gt;Node6</title>
<path fill="none" stroke="midnightblue" d="M563.24,-165.469C568.285,-145.947 579.111,-94.6908 566,-55 562.5,-44.4031 555.393,-34.2704 548.668,-26.3582"/>
<polygon fill="midnightblue" stroke="midnightblue" points="551.034,-23.7581 541.71,-18.7271 545.862,-28.4746 551.034,-23.7581"/>
</g>
<!-- Node9&#45;&gt;Node10 -->
<g id="edge24" class="edge"><title>Node9&#45;&gt;Node10</title>
<path fill="none" stroke="midnightblue" d="M543.081,-165.45C528.076,-157.279 507.174,-144.46 492.568,-134.6"/>
<polygon fill="midnightblue" stroke="midnightblue" points="494.208,-131.477 484.004,-128.625 490.203,-137.218 494.208,-131.477"/>
</g>
<!-- Node10&#45;&gt;Node2 -->
<g id="edge25" class="edge"><title>Node10&#45;&gt;Node2</title>
<path fill="none" stroke="midnightblue" d="M448.052,-110.48C417.355,-101.645 366.619,-86.969 323,-74 256.931,-54.356 179.325,-30.5966 139.868,-18.4678"/>
<polygon fill="midnightblue" stroke="midnightblue" points="140.827,-15.101 130.24,-15.5062 138.769,-21.7916 140.827,-15.101"/>
</g>
<!-- Node10&#45;&gt;Node3 -->
<g id="edge26" class="edge"><title>Node10&#45;&gt;Node3</title>
<path fill="none" stroke="midnightblue" d="M493.137,-110.382C532.681,-91.6509 630.523,-45.3051 677.713,-22.9517"/>
<polygon fill="midnightblue" stroke="midnightblue" points="679.436,-26.0084 686.975,-18.5644 676.439,-19.6823 679.436,-26.0084"/>
</g>
<!-- Node10&#45;&gt;Node4 -->
<g id="edge27" class="edge"><title>Node10&#45;&gt;Node4</title>
<path fill="none" stroke="midnightblue" d="M504.251,-110.471C572.426,-91.0946 745.846,-41.8069 820.707,-20.5307"/>
<polygon fill="midnightblue" stroke="midnightblue" points="821.932,-23.8211 830.595,-17.7205 820.019,-17.0877 821.932,-23.8211"/>
</g>
<!-- Node10&#45;&gt;Node5 -->
<g id="edge28" class="edge"><title>Node10&#45;&gt;Node5</title>
<path fill="none" stroke="midnightblue" d="M470.656,-110.329C461.551,-96.9949 441.785,-70.4947 419,-55 392.677,-37.0998 358.236,-25.298 333.005,-18.3749"/>
<polygon fill="midnightblue" stroke="midnightblue" points="333.707,-14.9407 323.146,-15.788 331.931,-21.7115 333.707,-14.9407"/>
</g>
<!-- Node10&#45;&gt;Node6 -->
<g id="edge29" class="edge"><title>Node10&#45;&gt;Node6</title>
<path fill="none" stroke="midnightblue" d="M478.28,-110.369C481.928,-97.979 489.722,-73.8266 500,-55 505.483,-44.9566 512.997,-34.6375 519.47,-26.4679"/>
<polygon fill="midnightblue" stroke="midnightblue" points="522.315,-28.5172 525.94,-18.5616 516.898,-24.0841 522.315,-28.5172"/>
</g>
<!-- Node10&#45;&gt;Node8 -->
<g id="edge30" class="edge"><title>Node10&#45;&gt;Node8</title>
<path fill="none" stroke="midnightblue" d="M460.053,-110.45C443.093,-101.89 416.029,-88.2291 396.184,-78.2119"/>
<polygon fill="midnightblue" stroke="midnightblue" points="397.602,-75.007 387.097,-73.6253 394.447,-81.256 397.602,-75.007"/>
</g>
<!-- Node10&#45;&gt;Node9 -->
<g id="edge31" class="edge"><title>Node10&#45;&gt;Node9</title>
<path fill="none" stroke="midnightblue" d="M494.058,-128.625C509.099,-136.826 530,-149.649 544.567,-159.492"/>
<polygon fill="midnightblue" stroke="midnightblue" points="542.897,-162.594 553.1,-165.45 546.905,-156.855 542.897,-162.594"/>
</g>
<!-- Node11&#45;&gt;Node2 -->
<g id="edge37" class="edge"><title>Node11&#45;&gt;Node2</title>
<path fill="none" stroke="midnightblue" d="M456.185,-282.702C413.506,-280.423 330.371,-271.754 269,-239 185.409,-194.387 172.875,-160.409 134,-74 127.325,-59.1625 121.943,-41.4429 118.451,-28.4969"/>
<polygon fill="midnightblue" stroke="midnightblue" points="121.77,-27.3505 115.884,-18.5413 114.992,-29.0986 121.77,-27.3505"/>
</g>
<!-- Node11&#45;&gt;Node3 -->
<g id="edge38" class="edge"><title>Node11&#45;&gt;Node3</title>
<path fill="none" stroke="midnightblue" d="M511.576,-277.122C581.292,-259.305 763.882,-201.711 832,-74 852.145,-36.2309 786.975,-20.5275 742.352,-14.3031"/>
<polygon fill="midnightblue" stroke="midnightblue" points="742.713,-10.8208 732.348,-13.0152 741.819,-17.7635 742.713,-10.8208"/>
</g>
<!-- Node11&#45;&gt;Node4 -->
<g id="edge39" class="edge"><title>Node11&#45;&gt;Node4</title>
<path fill="none" stroke="midnightblue" d="M511.522,-283.315C614.332,-281.895 970,-270.144 970,-175.5 970,-175.5 970,-175.5 970,-118.5 970,-71.9745 919.341,-39.4854 885.563,-22.994"/>
<polygon fill="midnightblue" stroke="midnightblue" points="886.66,-19.6433 876.118,-18.5797 883.696,-25.9848 886.66,-19.6433"/>
</g>
<!-- Node11&#45;&gt;Node5 -->
<g id="edge40" class="edge"><title>Node11&#45;&gt;Node5</title>
<path fill="none" stroke="midnightblue" d="M456.125,-282.099C402.459,-277.699 285.868,-259.475 238,-184 207.285,-135.57 209.849,-103.151 241,-55 249.35,-42.0928 262.783,-31.4375 274.619,-23.7926"/>
<polygon fill="midnightblue" stroke="midnightblue" points="276.523,-26.7317 283.249,-18.546 272.886,-20.7504 276.523,-26.7317"/>
</g>
<!-- Node11&#45;&gt;Node6 -->
<g id="edge41" class="edge"><title>Node11&#45;&gt;Node6</title>
<path fill="none" stroke="midnightblue" d="M502.227,-275.409C530.992,-261.5 585.914,-230.039 608,-184 623.729,-151.212 641.179,-153.503 583,-55 575.89,-42.9619 564.419,-32.4101 554.257,-24.6064"/>
<polygon fill="midnightblue" stroke="midnightblue" points="556.302,-21.7661 546.153,-18.7254 552.191,-27.4315 556.302,-21.7661"/>
</g>
<!-- Node11&#45;&gt;Node7 -->
<g id="edge42" class="edge"><title>Node11&#45;&gt;Node7</title>
<path fill="none" stroke="midnightblue" d="M464.711,-275.45C443.732,-266.695 409.97,-252.606 385.838,-242.535"/>
<polygon fill="midnightblue" stroke="midnightblue" points="387.047,-239.247 376.47,-238.625 384.351,-245.707 387.047,-239.247"/>
</g>
<!-- Node11&#45;&gt;Node8 -->
<g id="edge45" class="edge"><title>Node11&#45;&gt;Node8</title>
<path fill="none" stroke="midnightblue" d="M479.844,-275.483C463.443,-243.841 402.982,-127.2 379.971,-82.8075"/>
<polygon fill="midnightblue" stroke="midnightblue" points="383.024,-81.0905 375.314,-73.8231 376.809,-84.312 383.024,-81.0905"/>
</g>
<!-- Node11&#45;&gt;Node9 -->
<g id="edge43" class="edge"><title>Node11&#45;&gt;Node9</title>
<path fill="none" stroke="midnightblue" d="M489.788,-275.382C502.385,-257.713 532.501,-215.472 549.253,-191.976"/>
<polygon fill="midnightblue" stroke="midnightblue" points="552.19,-193.886 555.145,-183.712 546.49,-189.822 552.19,-193.886"/>
</g>
<!-- Node11&#45;&gt;Node10 -->
<g id="edge44" class="edge"><title>Node11&#45;&gt;Node10</title>
<path fill="none" stroke="midnightblue" d="M483.592,-275.193C482.356,-250.013 478.631,-174.114 476.901,-138.862"/>
<polygon fill="midnightblue" stroke="midnightblue" points="480.383,-138.413 476.397,-128.597 473.392,-138.757 480.383,-138.413"/>
</g>
</g>
</svg>
