<?xml version="1.0" encoding="UTF-8" standalone="no"?>
<!DOCTYPE svg PUBLIC "-//W3C//DTD SVG 1.1//EN"
 "http://www.w3.org/Graphics/SVG/1.1/DTD/svg11.dtd">
<!-- Generated by graphviz version 2.38.0 (20140413.2041)
 -->
<!-- Title: include/preprocessor.h Pages: 1 -->
<svg width="361pt" height="192pt"
 viewBox="0.00 0.00 361.00 192.00" xmlns="http://www.w3.org/2000/svg" xmlns:xlink="http://www.w3.org/1999/xlink">
<g id="graph0" class="graph" transform="scale(1 1) rotate(0) translate(4 188)">
<title>include/preprocessor.h</title>
<!-- Node1 -->
<g id="node1" class="node"><title>Node1</title>
<g id="a_node1"><a xlink:title=" ">
<polygon fill="#bfbfbf" stroke="black" points="115,-165.5 115,-183.5 227,-183.5 227,-165.5 115,-165.5"/>
<text text-anchor="middle" x="171" y="-172.3" font-family="Calibri" font-size="9.00">include/preprocessor.h</text>
</a>
</g>
</g>
<!-- Node2 -->
<g id="node2" class="node"><title>Node2</title>
<g id="a_node2"><a xlink:title=" ">
<polygon fill="none" stroke="#bfbfbf" points="88,-0.5 88,-18.5 120,-18.5 120,-0.5 88,-0.5"/>
<text text-anchor="middle" x="104" y="-7.3" font-family="Calibri" font-size="9.00">xc.h</text>
</a>
</g>
</g>
<!-- Node1&#45;&gt;Node2 -->
<g id="edge1" class="edge"><title>Node1&#45;&gt;Node2</title>
<path fill="none" stroke="midnightblue" d="M156.779,-165.222C144.858,-157.467 128.466,-144.728 120,-129 102.751,-96.9532 101.623,-53.2256 102.626,-28.8446"/>
<polygon fill="midnightblue" stroke="midnightblue" points="106.137,-28.7533 103.228,-18.5658 99.1489,-28.3439 106.137,-28.7533"/>
</g>
<!-- Node3 -->
<g id="node3" class="node"><title>Node3</title>
<g id="a_node3"><a xlink:title=" ">
<polygon fill="none" stroke="#bfbfbf" points="0,-0.5 0,-18.5 56,-18.5 56,-0.5 0,-0.5"/>
<text text-anchor="middle" x="28" y="-7.3" font-family="Calibri" font-size="9.00">stdbool.h</text>
</a>
</g>
</g>
<!-- Node1&#45;&gt;Node3 -->
<g id="edge2" class="edge"><title>Node1&#45;&gt;Node3</title>
<path fill="none" stroke="midnightblue" d="M156.878,-165.357C143.564,-157.243 123.539,-143.877 109,-129 77.9093,-97.1879 50.795,-52.1265 37.2276,-27.7588"/>
<polygon fill="midnightblue" stroke="midnightblue" points="40.1351,-25.7803 32.2703,-18.6814 33.9915,-29.1355 40.1351,-25.7803"/>
</g>
<!-- Node4 -->
<g id="node4" class="node"><title>Node4</title>
<g id="a_node4"><a xlink:title=" ">
<polygon fill="none" stroke="#bfbfbf" points="303,-0.5 303,-18.5 353,-18.5 353,-0.5 303,-0.5"/>
<text text-anchor="middle" x="328" y="-7.3" font-family="Calibri" font-size="9.00">stddef.h</text>
</a>
</g>
</g>
<!-- Node1&#45;&gt;Node4 -->
<g id="edge3" class="edge"><title>Node1&#45;&gt;Node4</title>
<path fill="none" stroke="midnightblue" d="M187.188,-165.458C202.187,-157.512 224.592,-144.344 241,-129 274.424,-97.7449 303.705,-52.1428 318.251,-27.6219"/>
<polygon fill="midnightblue" stroke="midnightblue" points="321.392,-29.1833 323.397,-18.7798 315.342,-25.6625 321.392,-29.1833"/>
</g>
<!-- Node5 -->
<g id="node5" class="node"><title>Node5</title>
<g id="a_node5"><a xlink:title=" ">
<polygon fill="none" stroke="#bfbfbf" points="147,-0.5 147,-18.5 195,-18.5 195,-0.5 147,-0.5"/>
<text text-anchor="middle" x="171" y="-7.3" font-family="Calibri" font-size="9.00">stdint.h</text>
</a>
</g>
</g>
<!-- Node1&#45;&gt;Node5 -->
<g id="edge4" class="edge"><title>Node1&#45;&gt;Node5</title>
<path fill="none" stroke="midnightblue" d="M161.275,-165.382C152.159,-157.189 138.927,-143.679 132,-129 117.861,-99.0373 109.745,-85.3641 123,-55 128.345,-42.7565 138.903,-32.3735 148.76,-24.7242"/>
<polygon fill="midnightblue" stroke="midnightblue" points="151.02,-27.4099 157.092,-18.7278 146.931,-21.7282 151.02,-27.4099"/>
</g>
<!-- Node6 -->
<g id="node6" class="node"><title>Node6</title>
<g id="a_node6"><a xlink:title=" ">
<polygon fill="none" stroke="#bfbfbf" points="237,-0.5 237,-18.5 285,-18.5 285,-0.5 237,-0.5"/>
<text text-anchor="middle" x="261" y="-7.3" font-family="Calibri" font-size="9.00">stdlib.h</text>
</a>
</g>
</g>
<!-- Node1&#45;&gt;Node6 -->
<g id="edge5" class="edge"><title>Node1&#45;&gt;Node6</title>
<path fill="none" stroke="midnightblue" d="M180.99,-165.464C199.391,-149.997 238.283,-114.057 255,-74 261.003,-59.6149 262.219,-41.8502 262.097,-28.7719"/>
<polygon fill="midnightblue" stroke="midnightblue" points="265.591,-28.5548 261.732,-18.688 258.596,-28.8081 265.591,-28.5548"/>
</g>
<!-- Node7 -->
<g id="node7" class="node"><title>Node7</title>
<g id="a_node7"><a xlink:href="common_8h.html" target="_top" xlink:title=" ">
<polygon fill="none" stroke="black" points="141.5,-110.5 141.5,-128.5 200.5,-128.5 200.5,-110.5 141.5,-110.5"/>
<text text-anchor="middle" x="171" y="-117.3" font-family="Calibri" font-size="9.00">common.h</text>
</a>
</g>
</g>
<!-- Node1&#45;&gt;Node7 -->
<g id="edge6" class="edge"><title>Node1&#45;&gt;Node7</title>
<path fill="none" stroke="midnightblue" d="M165.938,-165.219C164.325,-158.099 163.868,-147.577 164.566,-138.529"/>
<polygon fill="midnightblue" stroke="midnightblue" points="168.043,-138.944 165.991,-128.55 161.113,-137.955 168.043,-138.944"/>
</g>
<!-- Node7&#45;&gt;Node1 -->
<g id="edge18" class="edge"><title>Node7&#45;&gt;Node1</title>
<path fill="none" stroke="midnightblue" d="M176.009,-128.55C177.647,-135.595 178.129,-146.094 177.456,-155.175"/>
<polygon fill="midnightblue" stroke="midnightblue" points="173.97,-154.833 176.063,-165.219 180.904,-155.795 173.97,-154.833"/>
</g>
<!-- Node7&#45;&gt;Node2 -->
<g id="edge7" class="edge"><title>Node7&#45;&gt;Node2</title>
<path fill="none" stroke="midnightblue" d="M159.039,-110.323C148.145,-102.281 132.371,-89.0478 123,-74 114.351,-60.1111 109.448,-42.0614 106.798,-28.7574"/>
<polygon fill="midnightblue" stroke="midnightblue" points="110.244,-28.1395 105.07,-18.8938 103.349,-29.3479 110.244,-28.1395"/>
</g>
<!-- Node7&#45;&gt;Node3 -->
<g id="edge8" class="edge"><title>Node7&#45;&gt;Node3</title>
<path fill="none" stroke="midnightblue" d="M159.905,-110.348C147.834,-101.461 127.988,-86.7973 111,-74 88.8686,-57.3285 63.6044,-37.9496 46.8213,-25.0266"/>
<polygon fill="midnightblue" stroke="midnightblue" points="48.5008,-21.9021 38.4437,-18.5695 44.2275,-27.4464 48.5008,-21.9021"/>
</g>
<!-- Node7&#45;&gt;Node4 -->
<g id="edge9" class="edge"><title>Node7&#45;&gt;Node4</title>
<path fill="none" stroke="midnightblue" d="M189.053,-110.416C206.543,-102.249 233.502,-88.7564 255,-74 276.301,-59.3787 298.358,-39.4039 312.573,-25.787"/>
<polygon fill="midnightblue" stroke="midnightblue" points="315.243,-28.0735 319.972,-18.5928 310.363,-23.055 315.243,-28.0735"/>
</g>
<!-- Node7&#45;&gt;Node5 -->
<g id="edge10" class="edge"><title>Node7&#45;&gt;Node5</title>
<path fill="none" stroke="midnightblue" d="M184.908,-110.272C196.463,-102.55 212.089,-89.83 219,-74 227.257,-55.0852 209.545,-36.6285 193.352,-24.5327"/>
<polygon fill="midnightblue" stroke="midnightblue" points="194.896,-21.3425 184.688,-18.5046 190.898,-27.0887 194.896,-21.3425"/>
</g>
<!-- Node7&#45;&gt;Node6 -->
<g id="edge11" class="edge"><title>Node7&#45;&gt;Node6</title>
<path fill="none" stroke="midnightblue" d="M187.734,-110.38C201.981,-102.727 222.131,-90.0474 235,-74 245.713,-60.6408 252.593,-42.2625 256.567,-28.7141"/>
<polygon fill="midnightblue" stroke="midnightblue" points="260.046,-29.2498 259.241,-18.6856 253.282,-27.4459 260.046,-29.2498"/>
</g>
<!-- Node8 -->
<g id="node8" class="node"><title>Node8</title>
<g id="a_node8"><a xlink:href="eeprom__map_8h.html" target="_top" xlink:title=" ">
<polygon fill="none" stroke="black" points="132,-55.5 132,-73.5 210,-73.5 210,-55.5 132,-55.5"/>
<text text-anchor="middle" x="171" y="-62.3" font-family="Calibri" font-size="9.00">eeprom_map.h</text>
</a>
</g>
</g>
<!-- Node7&#45;&gt;Node8 -->
<g id="edge12" class="edge"><title>Node7&#45;&gt;Node8</title>
<path fill="none" stroke="midnightblue" d="M171,-110.219C171,-103.177 171,-92.8083 171,-83.8277"/>
<polygon fill="midnightblue" stroke="midnightblue" points="174.5,-83.5495 171,-73.5496 167.5,-83.5496 174.5,-83.5495"/>
</g>
<!-- Node8&#45;&gt;Node2 -->
<g id="edge13" class="edge"><title>Node8&#45;&gt;Node2</title>
<path fill="none" stroke="midnightblue" d="M160.824,-55.4504C150.592,-47.3566 134.598,-34.7042 122.181,-24.8822"/>
<polygon fill="midnightblue" stroke="midnightblue" points="124.286,-22.0844 114.272,-18.6253 119.943,-27.5744 124.286,-22.0844"/>
</g>
<!-- Node8&#45;&gt;Node3 -->
<g id="edge14" class="edge"><title>Node8&#45;&gt;Node3</title>
<path fill="none" stroke="midnightblue" d="M149.281,-55.4504C125.344,-46.5784 86.6269,-32.2288 59.3897,-22.134"/>
<polygon fill="midnightblue" stroke="midnightblue" points="60.5161,-18.8188 49.923,-18.6253 58.0833,-25.3825 60.5161,-18.8188"/>
</g>
<!-- Node8&#45;&gt;Node4 -->
<g id="edge15" class="edge"><title>Node8&#45;&gt;Node4</title>
<path fill="none" stroke="midnightblue" d="M194.845,-55.4504C221.434,-46.4745 264.631,-31.8922 294.582,-21.7813"/>
<polygon fill="midnightblue" stroke="midnightblue" points="295.833,-25.053 304.188,-18.5383 293.594,-18.4207 295.833,-25.053"/>
</g>
<!-- Node8&#45;&gt;Node5 -->
<g id="edge16" class="edge"><title>Node8&#45;&gt;Node5</title>
<path fill="none" stroke="midnightblue" d="M171,-55.2188C171,-48.1769 171,-37.8083 171,-28.8277"/>
<polygon fill="midnightblue" stroke="midnightblue" points="174.5,-28.5495 171,-18.5496 167.5,-28.5496 174.5,-28.5495"/>
</g>
<!-- Node8&#45;&gt;Node6 -->
<g id="edge17" class="edge"><title>Node8&#45;&gt;Node6</title>
<path fill="none" stroke="midnightblue" d="M184.669,-55.4504C198.942,-47.0453 221.563,-33.7241 238.48,-23.7618"/>
<polygon fill="midnightblue" stroke="midnightblue" points="240.361,-26.7157 247.202,-18.6253 236.809,-20.6838 240.361,-26.7157"/>
</g>
</g>
</svg>
