<?xml version="1.0" encoding="UTF-8" standalone="no"?>
<!DOCTYPE svg PUBLIC "-//W3C//DTD SVG 1.1//EN"
 "http://www.w3.org/Graphics/SVG/1.1/DTD/svg11.dtd">
<!-- Generated by graphviz version 2.38.0 (20140413.2041)
 -->
<!-- Title: inductor_values_t Pages: 1 -->
<svg width="97pt" height="152pt"
 viewBox="0.00 0.00 97.00 152.00" xmlns="http://www.w3.org/2000/svg" xmlns:xlink="http://www.w3.org/1999/xlink">
<g id="graph0" class="graph" transform="scale(1 1) rotate(0) translate(4 148)">
<title>inductor_values_t</title>
<!-- Node1 -->
<g id="node1" class="node"><title>Node1</title>
<g id="a_node1"><a xlink:title=" ">
<polygon fill="#bfbfbf" stroke="black" points="0,-0.5 0,-18.5 89,-18.5 89,-0.5 0,-0.5"/>
<text text-anchor="middle" x="44.5" y="-7.3" font-family="Calibri" font-size="9.00">inductor_values_t</text>
</a>
</g>
</g>
<!-- Node2 -->
<g id="node2" class="node"><title>Node2</title>
<g id="a_node2"><a xlink:title=" ">
<polygon fill="none" stroke="#bfbfbf" points="30,-125.5 30,-143.5 59,-143.5 59,-125.5 30,-125.5"/>
<text text-anchor="middle" x="44.5" y="-132.3" font-family="Calibri" font-size="9.00">int</text>
</a>
</g>
</g>
<!-- Node2&#45;&gt;Node1 -->
<g id="edge1" class="edge"><title>Node2&#45;&gt;Node1</title>
<path fill="none" stroke="#9a32cd" stroke-dasharray="5,2" d="M44.5,-115.384C44.5,-88.3198 44.5,-38.4132 44.5,-18.7614"/>
<polygon fill="#9a32cd" stroke="#9a32cd" points="41.0001,-115.43 44.5,-125.43 48.0001,-115.43 41.0001,-115.43"/>
<text text-anchor="middle" x="50" y="-99.8" font-family="Calibri" font-size="9.00"> L1</text>
<text text-anchor="middle" x="50" y="-89.8" font-family="Calibri" font-size="9.00">L2</text>
<text text-anchor="middle" x="50" y="-79.8" font-family="Calibri" font-size="9.00">L3</text>
<text text-anchor="middle" x="50" y="-69.8" font-family="Calibri" font-size="9.00">L4</text>
<text text-anchor="middle" x="50" y="-59.8" font-family="Calibri" font-size="9.00">L5</text>
<text text-anchor="middle" x="50" y="-49.8" font-family="Calibri" font-size="9.00">L6</text>
<text text-anchor="middle" x="50" y="-39.8" font-family="Calibri" font-size="9.00">L7</text>
</g>
</g>
</svg>
