<?xml version="1.0" encoding="UTF-8" standalone="no"?>
<!DOCTYPE svg PUBLIC "-//W3C//DTD SVG 1.1//EN"
 "http://www.w3.org/Graphics/SVG/1.1/DTD/svg11.dtd">
<!-- Generated by graphviz version 2.38.0 (20140413.2041)
 -->
<!-- Title: disp_t Pages: 1 -->
<svg width="109pt" height="152pt"
 viewBox="0.00 0.00 108.50 152.00" xmlns="http://www.w3.org/2000/svg" xmlns:xlink="http://www.w3.org/1999/xlink">
<g id="graph0" class="graph" transform="scale(1 1) rotate(0) translate(4 148)">
<title>disp_t</title>
<!-- Node1 -->
<g id="node1" class="node"><title>Node1</title>
<g id="a_node1"><a xlink:title=" ">
<polygon fill="#bfbfbf" stroke="black" points="6.5,-0.5 6.5,-18.5 48.5,-18.5 48.5,-0.5 6.5,-0.5"/>
<text text-anchor="middle" x="27.5" y="-7.3" font-family="Calibri" font-size="9.00">disp_t</text>
</a>
</g>
</g>
<!-- Node2 -->
<g id="node2" class="node"><title>Node2</title>
<g id="a_node2"><a xlink:title=" ">
<polygon fill="none" stroke="#bfbfbf" points="0,-125.5 0,-143.5 55,-143.5 55,-125.5 0,-125.5"/>
<text text-anchor="middle" x="27.5" y="-132.3" font-family="Calibri" font-size="9.00">unsigned</text>
</a>
</g>
</g>
<!-- Node2&#45;&gt;Node1 -->
<g id="edge1" class="edge"><title>Node2&#45;&gt;Node1</title>
<path fill="none" stroke="#9a32cd" stroke-dasharray="5,2" d="M27.5,-115.384C27.5,-88.3198 27.5,-38.4132 27.5,-18.7614"/>
<polygon fill="#9a32cd" stroke="#9a32cd" points="24.0001,-115.43 27.5,-125.43 31.0001,-115.43 24.0001,-115.43"/>
<text text-anchor="middle" x="64" y="-99.8" font-family="Calibri" font-size="9.00"> d_char_lcd_16x02</text>
<text text-anchor="middle" x="64" y="-89.8" font-family="Calibri" font-size="9.00">d_none</text>
<text text-anchor="middle" x="64" y="-79.8" font-family="Calibri" font-size="9.00">d_oled_128x32</text>
<text text-anchor="middle" x="64" y="-69.8" font-family="Calibri" font-size="9.00">d_oled_128x64</text>
<text text-anchor="middle" x="64" y="-59.8" font-family="Calibri" font-size="9.00">d_oled_mode</text>
<text text-anchor="middle" x="64" y="-49.8" font-family="Calibri" font-size="9.00">d_oled_use_i2c</text>
<text text-anchor="middle" x="64" y="-39.8" font-family="Calibri" font-size="9.00">d_reserved</text>
</g>
</g>
</svg>
