<?xml version="1.0" encoding="UTF-8" standalone="no"?>
<!DOCTYPE svg PUBLIC "-//W3C//DTD SVG 1.1//EN"
 "http://www.w3.org/Graphics/SVG/1.1/DTD/svg11.dtd">
<!-- Generated by graphviz version 2.38.0 (20140413.2041)
 -->
<!-- Title: mcc_generated_files/adc.h Pages: 1 -->
<svg width="348pt" height="167pt"
 viewBox="0.00 0.00 348.00 167.00" xmlns="http://www.w3.org/2000/svg" xmlns:xlink="http://www.w3.org/1999/xlink">
<g id="graph0" class="graph" transform="scale(1 1) rotate(0) translate(4 163)">
<title>mcc_generated_files/adc.h</title>
<!-- Node1 -->
<g id="node1" class="node"><title>Node1</title>
<g id="a_node1"><a xlink:title=" ">
<polygon fill="#bfbfbf" stroke="black" points="119,-130.5 119,-158.5 220,-158.5 220,-130.5 119,-130.5"/>
<text text-anchor="start" x="127" y="-147.3" font-family="Calibri" font-size="9.00">mcc_generated_files</text>
<text text-anchor="middle" x="169.5" y="-137.3" font-family="Calibri" font-size="9.00">/adc.h</text>
</a>
</g>
</g>
<!-- Node2 -->
<g id="node2" class="node"><title>Node2</title>
<g id="a_node2"><a xlink:href="mcc__generated__files_2adc_8c.html" target="_top" xlink:title=" ">
<polygon fill="none" stroke="black" points="0,-65.5 0,-93.5 101,-93.5 101,-65.5 0,-65.5"/>
<text text-anchor="start" x="8" y="-82.3" font-family="Calibri" font-size="9.00">mcc_generated_files</text>
<text text-anchor="middle" x="50.5" y="-72.3" font-family="Calibri" font-size="9.00">/adc.c</text>
</a>
</g>
</g>
<!-- Node1&#45;&gt;Node2 -->
<g id="edge1" class="edge"><title>Node1&#45;&gt;Node2</title>
<path fill="none" stroke="midnightblue" d="M135.772,-125.644C116.465,-115.422 92.6691,-102.825 75.1253,-93.5369"/>
<polygon fill="midnightblue" stroke="midnightblue" points="134.368,-128.861 144.843,-130.446 137.643,-122.674 134.368,-128.861"/>
</g>
<!-- Node3 -->
<g id="node3" class="node"><title>Node3</title>
<g id="a_node3"><a xlink:href="mcc_8h.html" target="_top" xlink:title=" ">
<polygon fill="none" stroke="black" points="119,-65.5 119,-93.5 220,-93.5 220,-65.5 119,-65.5"/>
<text text-anchor="start" x="127" y="-82.3" font-family="Calibri" font-size="9.00">mcc_generated_files</text>
<text text-anchor="middle" x="169.5" y="-72.3" font-family="Calibri" font-size="9.00">/mcc.h</text>
</a>
</g>
</g>
<!-- Node1&#45;&gt;Node3 -->
<g id="edge2" class="edge"><title>Node1&#45;&gt;Node3</title>
<path fill="none" stroke="midnightblue" d="M169.5,-120.164C169.5,-111.169 169.5,-101.221 169.5,-93.5369"/>
<polygon fill="midnightblue" stroke="midnightblue" points="166,-120.446 169.5,-130.446 173,-120.446 166,-120.446"/>
</g>
<!-- Node7 -->
<g id="node7" class="node"><title>Node7</title>
<g id="a_node7"><a xlink:href="src_2adc_8c.html" target="_top" xlink:title=" ">
<polygon fill="none" stroke="black" points="238.5,-70.5 238.5,-88.5 290.5,-88.5 290.5,-70.5 238.5,-70.5"/>
<text text-anchor="middle" x="264.5" y="-77.3" font-family="Calibri" font-size="9.00">src/adc.c</text>
</a>
</g>
</g>
<!-- Node1&#45;&gt;Node7 -->
<g id="edge6" class="edge"><title>Node1&#45;&gt;Node7</title>
<path fill="none" stroke="midnightblue" d="M197.694,-124.803C215.898,-112.731 238.659,-97.6366 252.364,-88.548"/>
<polygon fill="midnightblue" stroke="midnightblue" points="195.584,-122.003 189.184,-130.446 199.452,-127.836 195.584,-122.003"/>
</g>
<!-- Node4 -->
<g id="node4" class="node"><title>Node4</title>
<g id="a_node4"><a xlink:href="main_8c.html" target="_top" xlink:title=" ">
<polygon fill="none" stroke="black" points="55.5,-5.5 55.5,-23.5 99.5,-23.5 99.5,-5.5 55.5,-5.5"/>
<text text-anchor="middle" x="77.5" y="-12.3" font-family="Calibri" font-size="9.00">main.c</text>
</a>
</g>
</g>
<!-- Node3&#45;&gt;Node4 -->
<g id="edge3" class="edge"><title>Node3&#45;&gt;Node4</title>
<path fill="none" stroke="midnightblue" d="M141.714,-59.4727C124.168,-47.4572 102.404,-32.554 89.2526,-23.548"/>
<polygon fill="midnightblue" stroke="midnightblue" points="140.209,-62.6841 150.438,-65.4464 144.164,-56.9085 140.209,-62.6841"/>
</g>
<!-- Node5 -->
<g id="node5" class="node"><title>Node5</title>
<g id="a_node5"><a xlink:href="interrupt__manager_8c.html" target="_top" xlink:title=" ">
<polygon fill="none" stroke="black" points="118,-0.5 118,-28.5 221,-28.5 221,-0.5 118,-0.5"/>
<text text-anchor="start" x="126" y="-17.3" font-family="Calibri" font-size="9.00">mcc_generated_files</text>
<text text-anchor="middle" x="169.5" y="-7.3" font-family="Calibri" font-size="9.00">/interrupt_manager.c</text>
</a>
</g>
</g>
<!-- Node3&#45;&gt;Node5 -->
<g id="edge4" class="edge"><title>Node3&#45;&gt;Node5</title>
<path fill="none" stroke="midnightblue" d="M169.5,-55.1641C169.5,-46.1693 169.5,-36.2205 169.5,-28.5369"/>
<polygon fill="midnightblue" stroke="midnightblue" points="166,-55.4463 169.5,-65.4464 173,-55.4464 166,-55.4463"/>
</g>
<!-- Node6 -->
<g id="node6" class="node"><title>Node6</title>
<g id="a_node6"><a xlink:href="mcc_8c.html" target="_top" xlink:title=" ">
<polygon fill="none" stroke="black" points="239,-0.5 239,-28.5 340,-28.5 340,-0.5 239,-0.5"/>
<text text-anchor="start" x="247" y="-17.3" font-family="Calibri" font-size="9.00">mcc_generated_files</text>
<text text-anchor="middle" x="289.5" y="-7.3" font-family="Calibri" font-size="9.00">/mcc.c</text>
</a>
</g>
</g>
<!-- Node3&#45;&gt;Node6 -->
<g id="edge5" class="edge"><title>Node3&#45;&gt;Node6</title>
<path fill="none" stroke="midnightblue" d="M203.246,-60.7834C222.763,-50.5371 246.896,-37.867 264.668,-28.5369"/>
<polygon fill="midnightblue" stroke="midnightblue" points="201.591,-57.6991 194.364,-65.4464 204.845,-63.8969 201.591,-57.6991"/>
</g>
</g>
</svg>
