<?xml version="1.0" encoding="UTF-8" standalone="no"?>
<!DOCTYPE svg PUBLIC "-//W3C//DTD SVG 1.1//EN"
 "http://www.w3.org/Graphics/SVG/1.1/DTD/svg11.dtd">
<!-- Generated by graphviz version 2.38.0 (20140413.2041)
 -->
<!-- Title: mcc_generated_files/adc.h Pages: 1 -->
<svg width="180pt" height="92pt"
 viewBox="0.00 0.00 180.00 92.00" xmlns="http://www.w3.org/2000/svg" xmlns:xlink="http://www.w3.org/1999/xlink">
<g id="graph0" class="graph" transform="scale(1 1) rotate(0) translate(4 88)">
<title>mcc_generated_files/adc.h</title>
<!-- Node1 -->
<g id="node1" class="node"><title>Node1</title>
<g id="a_node1"><a xlink:title=" ">
<polygon fill="#bfbfbf" stroke="black" points="23.5,-55.5 23.5,-83.5 124.5,-83.5 124.5,-55.5 23.5,-55.5"/>
<text text-anchor="start" x="31.5" y="-72.3" font-family="Calibri" font-size="9.00">mcc_generated_files</text>
<text text-anchor="middle" x="74" y="-62.3" font-family="Calibri" font-size="9.00">/adc.h</text>
</a>
</g>
</g>
<!-- Node2 -->
<g id="node2" class="node"><title>Node2</title>
<g id="a_node2"><a xlink:title=" ">
<polygon fill="none" stroke="#bfbfbf" points="0,-0.5 0,-18.5 32,-18.5 32,-0.5 0,-0.5"/>
<text text-anchor="middle" x="16" y="-7.3" font-family="Calibri" font-size="9.00">xc.h</text>
</a>
</g>
</g>
<!-- Node1&#45;&gt;Node2 -->
<g id="edge1" class="edge"><title>Node1&#45;&gt;Node2</title>
<path fill="none" stroke="midnightblue" d="M60.8389,-55.3389C52.1532,-46.6532 40.733,-35.233 31.5919,-26.0919"/>
<polygon fill="midnightblue" stroke="midnightblue" points="33.8174,-23.3677 24.2715,-18.7715 28.8677,-28.3174 33.8174,-23.3677"/>
</g>
<!-- Node3 -->
<g id="node3" class="node"><title>Node3</title>
<g id="a_node3"><a xlink:title=" ">
<polygon fill="none" stroke="#bfbfbf" points="50,-0.5 50,-18.5 98,-18.5 98,-0.5 50,-0.5"/>
<text text-anchor="middle" x="74" y="-7.3" font-family="Calibri" font-size="9.00">stdint.h</text>
</a>
</g>
</g>
<!-- Node1&#45;&gt;Node3 -->
<g id="edge2" class="edge"><title>Node1&#45;&gt;Node3</title>
<path fill="none" stroke="midnightblue" d="M74,-55.3389C74,-47.5305 74,-37.5122 74,-28.9265"/>
<polygon fill="midnightblue" stroke="midnightblue" points="77.5001,-28.7714 74,-18.7715 70.5001,-28.7715 77.5001,-28.7714"/>
</g>
<!-- Node4 -->
<g id="node4" class="node"><title>Node4</title>
<g id="a_node4"><a xlink:title=" ">
<polygon fill="none" stroke="#bfbfbf" points="116,-0.5 116,-18.5 172,-18.5 172,-0.5 116,-0.5"/>
<text text-anchor="middle" x="144" y="-7.3" font-family="Calibri" font-size="9.00">stdbool.h</text>
</a>
</g>
</g>
<!-- Node1&#45;&gt;Node4 -->
<g id="edge3" class="edge"><title>Node1&#45;&gt;Node4</title>
<path fill="none" stroke="midnightblue" d="M89.8841,-55.3389C100.685,-46.39 114.988,-34.5384 126.177,-25.2673"/>
<polygon fill="midnightblue" stroke="midnightblue" points="128.55,-27.8468 134.017,-18.7715 124.084,-22.4566 128.55,-27.8468"/>
</g>
</g>
</svg>
