<?xml version="1.0" encoding="UTF-8" standalone="no"?>
<!DOCTYPE svg PUBLIC "-//W3C//DTD SVG 1.1//EN"
 "http://www.w3.org/Graphics/SVG/1.1/DTD/svg11.dtd">
<!-- Generated by graphviz version 2.38.0 (20140413.2041)
 -->
<!-- Title: include/adc.h Pages: 1 -->
<svg width="180pt" height="82pt"
 viewBox="0.00 0.00 180.00 82.00" xmlns="http://www.w3.org/2000/svg" xmlns:xlink="http://www.w3.org/1999/xlink">
<g id="graph0" class="graph" transform="scale(1 1) rotate(0) translate(4 78)">
<title>include/adc.h</title>
<!-- Node1 -->
<g id="node1" class="node"><title>Node1</title>
<g id="a_node1"><a xlink:title=" ">
<polygon fill="#bfbfbf" stroke="black" points="37.5,-55.5 37.5,-73.5 110.5,-73.5 110.5,-55.5 37.5,-55.5"/>
<text text-anchor="middle" x="74" y="-62.3" font-family="Calibri" font-size="9.00">include/adc.h</text>
</a>
</g>
</g>
<!-- Node2 -->
<g id="node2" class="node"><title>Node2</title>
<g id="a_node2"><a xlink:title=" ">
<polygon fill="none" stroke="#bfbfbf" points="0,-0.5 0,-18.5 32,-18.5 32,-0.5 0,-0.5"/>
<text text-anchor="middle" x="16" y="-7.3" font-family="Calibri" font-size="9.00">xc.h</text>
</a>
</g>
</g>
<!-- Node1&#45;&gt;Node2 -->
<g id="edge1" class="edge"><title>Node1&#45;&gt;Node2</title>
<path fill="none" stroke="midnightblue" d="M64.9375,-55.2188C56.2038,-47.2379 42.794,-34.9842 32.2189,-25.3207"/>
<polygon fill="midnightblue" stroke="midnightblue" points="34.5521,-22.7116 24.809,-18.5496 29.8301,-27.879 34.5521,-22.7116"/>
</g>
<!-- Node3 -->
<g id="node3" class="node"><title>Node3</title>
<g id="a_node3"><a xlink:title=" ">
<polygon fill="none" stroke="#bfbfbf" points="50,-0.5 50,-18.5 98,-18.5 98,-0.5 50,-0.5"/>
<text text-anchor="middle" x="74" y="-7.3" font-family="Calibri" font-size="9.00">stdint.h</text>
</a>
</g>
</g>
<!-- Node1&#45;&gt;Node3 -->
<g id="edge2" class="edge"><title>Node1&#45;&gt;Node3</title>
<path fill="none" stroke="midnightblue" d="M74,-55.2188C74,-48.1769 74,-37.8083 74,-28.8277"/>
<polygon fill="midnightblue" stroke="midnightblue" points="77.5001,-28.5495 74,-18.5496 70.5001,-28.5496 77.5001,-28.5495"/>
</g>
<!-- Node4 -->
<g id="node4" class="node"><title>Node4</title>
<g id="a_node4"><a xlink:title=" ">
<polygon fill="none" stroke="#bfbfbf" points="116,-0.5 116,-18.5 172,-18.5 172,-0.5 116,-0.5"/>
<text text-anchor="middle" x="144" y="-7.3" font-family="Calibri" font-size="9.00">stdbool.h</text>
</a>
</g>
</g>
<!-- Node1&#45;&gt;Node4 -->
<g id="edge3" class="edge"><title>Node1&#45;&gt;Node4</title>
<path fill="none" stroke="midnightblue" d="M84.6315,-55.4504C95.3214,-47.3566 112.032,-34.7042 125.005,-24.8822"/>
<polygon fill="midnightblue" stroke="midnightblue" points="127.409,-27.4521 133.268,-18.6253 123.183,-21.8713 127.409,-27.4521"/>
</g>
</g>
</svg>
