<?xml version="1.0" encoding="UTF-8" standalone="no"?>
<!DOCTYPE svg PUBLIC "-//W3C//DTD SVG 1.1//EN"
 "http://www.w3.org/Graphics/SVG/1.1/DTD/svg11.dtd">
<!-- Generated by graphviz version 2.38.0 (20140413.2041)
 -->
<!-- Title: src/adc.c Pages: 1 -->
<svg width="194pt" height="82pt"
 viewBox="0.00 0.00 194.00 82.00" xmlns="http://www.w3.org/2000/svg" xmlns:xlink="http://www.w3.org/1999/xlink">
<g id="graph0" class="graph" transform="scale(1 1) rotate(0) translate(4 78)">
<title>src/adc.c</title>
<!-- Node1 -->
<g id="node1" class="node"><title>Node1</title>
<g id="a_node1"><a xlink:title=" ">
<polygon fill="#bfbfbf" stroke="black" points="43,-55.5 43,-73.5 95,-73.5 95,-55.5 43,-55.5"/>
<text text-anchor="middle" x="69" y="-62.3" font-family="Calibri" font-size="9.00">src/adc.c</text>
</a>
</g>
</g>
<!-- Node2 -->
<g id="node2" class="node"><title>Node2</title>
<g id="a_node2"><a xlink:title=" ">
<polygon fill="none" stroke="#bfbfbf" points="0,-0.5 0,-18.5 32,-18.5 32,-0.5 0,-0.5"/>
<text text-anchor="middle" x="16" y="-7.3" font-family="Calibri" font-size="9.00">xc.h</text>
</a>
</g>
</g>
<!-- Node1&#45;&gt;Node2 -->
<g id="edge1" class="edge"><title>Node1&#45;&gt;Node2</title>
<path fill="none" stroke="midnightblue" d="M60.7188,-55.2188C52.8944,-47.3944 40.9631,-35.4631 31.3921,-25.8921"/>
<polygon fill="midnightblue" stroke="midnightblue" points="33.5955,-23.1458 24.0496,-18.5496 28.6458,-28.0955 33.5955,-23.1458"/>
</g>
<!-- Node3 -->
<g id="node3" class="node"><title>Node3</title>
<g id="a_node3"><a xlink:title=" ">
<polygon fill="none" stroke="#bfbfbf" points="50,-0.5 50,-18.5 88,-18.5 88,-0.5 50,-0.5"/>
<text text-anchor="middle" x="69" y="-7.3" font-family="Calibri" font-size="9.00">adc.h</text>
</a>
</g>
</g>
<!-- Node1&#45;&gt;Node3 -->
<g id="edge2" class="edge"><title>Node1&#45;&gt;Node3</title>
<path fill="none" stroke="midnightblue" d="M69,-55.2188C69,-48.1769 69,-37.8083 69,-28.8277"/>
<polygon fill="midnightblue" stroke="midnightblue" points="72.5001,-28.5495 69,-18.5496 65.5001,-28.5496 72.5001,-28.5495"/>
</g>
<!-- Node4 -->
<g id="node4" class="node"><title>Node4</title>
<g id="a_node4"><a xlink:title=" ">
<polygon fill="none" stroke="#bfbfbf" points="106,-0.5 106,-18.5 186,-18.5 186,-0.5 106,-0.5"/>
<text text-anchor="middle" x="146" y="-7.3" font-family="Calibri" font-size="9.00">device_config.h</text>
</a>
</g>
</g>
<!-- Node1&#45;&gt;Node4 -->
<g id="edge3" class="edge"><title>Node1&#45;&gt;Node4</title>
<path fill="none" stroke="midnightblue" d="M80.6946,-55.4504C92.6797,-47.201 111.545,-34.2158 125.924,-24.3187"/>
<polygon fill="midnightblue" stroke="midnightblue" points="127.942,-27.1782 134.195,-18.6253 123.974,-21.4121 127.942,-27.1782"/>
</g>
</g>
</svg>
