<?xml version="1.0" encoding="UTF-8" standalone="no"?>
<!DOCTYPE svg PUBLIC "-//W3C//DTD SVG 1.1//EN"
 "http://www.w3.org/Graphics/SVG/1.1/DTD/svg11.dtd">
<!-- Generated by graphviz version 2.38.0 (20140413.2041)
 -->
<!-- Title: include/eeprom_map.h Pages: 1 -->
<svg width="314pt" height="82pt"
 viewBox="0.00 0.00 314.00 82.00" xmlns="http://www.w3.org/2000/svg" xmlns:xlink="http://www.w3.org/1999/xlink">
<g id="graph0" class="graph" transform="scale(1 1) rotate(0) translate(4 78)">
<title>include/eeprom_map.h</title>
<!-- Node1 -->
<g id="node1" class="node"><title>Node1</title>
<g id="a_node1"><a xlink:title=" ">
<polygon fill="#bfbfbf" stroke="black" points="92.5,-55.5 92.5,-73.5 205.5,-73.5 205.5,-55.5 92.5,-55.5"/>
<text text-anchor="middle" x="149" y="-62.3" font-family="Calibri" font-size="9.00">include/eeprom_map.h</text>
</a>
</g>
</g>
<!-- Node2 -->
<g id="node2" class="node"><title>Node2</title>
<g id="a_node2"><a xlink:title=" ">
<polygon fill="none" stroke="#bfbfbf" points="0,-0.5 0,-18.5 32,-18.5 32,-0.5 0,-0.5"/>
<text text-anchor="middle" x="16" y="-7.3" font-family="Calibri" font-size="9.00">xc.h</text>
</a>
</g>
</g>
<!-- Node1&#45;&gt;Node2 -->
<g id="edge1" class="edge"><title>Node1&#45;&gt;Node2</title>
<path fill="none" stroke="midnightblue" d="M128.8,-55.4504C105.449,-46.1449 66.9756,-30.8136 41.5609,-20.6859"/>
<polygon fill="midnightblue" stroke="midnightblue" points="42.7814,-17.4047 32.1962,-16.9541 40.1901,-23.9074 42.7814,-17.4047"/>
</g>
<!-- Node3 -->
<g id="node3" class="node"><title>Node3</title>
<g id="a_node3"><a xlink:title=" ">
<polygon fill="none" stroke="#bfbfbf" points="50,-0.5 50,-18.5 106,-18.5 106,-0.5 50,-0.5"/>
<text text-anchor="middle" x="78" y="-7.3" font-family="Calibri" font-size="9.00">stdbool.h</text>
</a>
</g>
</g>
<!-- Node1&#45;&gt;Node3 -->
<g id="edge2" class="edge"><title>Node1&#45;&gt;Node3</title>
<path fill="none" stroke="midnightblue" d="M138.217,-55.4504C127.374,-47.3566 110.424,-34.7042 97.2667,-24.8822"/>
<polygon fill="midnightblue" stroke="midnightblue" points="98.9921,-21.8025 88.8849,-18.6253 94.8047,-27.412 98.9921,-21.8025"/>
</g>
<!-- Node4 -->
<g id="node4" class="node"><title>Node4</title>
<g id="a_node4"><a xlink:title=" ">
<polygon fill="none" stroke="#bfbfbf" points="124,-0.5 124,-18.5 174,-18.5 174,-0.5 124,-0.5"/>
<text text-anchor="middle" x="149" y="-7.3" font-family="Calibri" font-size="9.00">stddef.h</text>
</a>
</g>
</g>
<!-- Node1&#45;&gt;Node4 -->
<g id="edge3" class="edge"><title>Node1&#45;&gt;Node4</title>
<path fill="none" stroke="midnightblue" d="M149,-55.2188C149,-48.1769 149,-37.8083 149,-28.8277"/>
<polygon fill="midnightblue" stroke="midnightblue" points="152.5,-28.5495 149,-18.5496 145.5,-28.5496 152.5,-28.5495"/>
</g>
<!-- Node5 -->
<g id="node5" class="node"><title>Node5</title>
<g id="a_node5"><a xlink:title=" ">
<polygon fill="none" stroke="#bfbfbf" points="192,-0.5 192,-18.5 240,-18.5 240,-0.5 192,-0.5"/>
<text text-anchor="middle" x="216" y="-7.3" font-family="Calibri" font-size="9.00">stdint.h</text>
</a>
</g>
</g>
<!-- Node1&#45;&gt;Node5 -->
<g id="edge4" class="edge"><title>Node1&#45;&gt;Node5</title>
<path fill="none" stroke="midnightblue" d="M159.176,-55.4504C169.408,-47.3566 185.402,-34.7042 197.819,-24.8822"/>
<polygon fill="midnightblue" stroke="midnightblue" points="200.057,-27.5744 205.728,-18.6253 195.714,-22.0844 200.057,-27.5744"/>
</g>
<!-- Node6 -->
<g id="node6" class="node"><title>Node6</title>
<g id="a_node6"><a xlink:title=" ">
<polygon fill="none" stroke="#bfbfbf" points="258,-0.5 258,-18.5 306,-18.5 306,-0.5 258,-0.5"/>
<text text-anchor="middle" x="282" y="-7.3" font-family="Calibri" font-size="9.00">stdlib.h</text>
</a>
</g>
</g>
<!-- Node1&#45;&gt;Node6 -->
<g id="edge5" class="edge"><title>Node1&#45;&gt;Node6</title>
<path fill="none" stroke="midnightblue" d="M169.2,-55.4504C191.268,-46.6562 226.842,-32.4802 252.136,-22.4006"/>
<polygon fill="midnightblue" stroke="midnightblue" points="253.616,-25.5786 261.61,-18.6253 251.025,-19.0759 253.616,-25.5786"/>
</g>
</g>
</svg>
