<?xml version="1.0" encoding="UTF-8" standalone="no"?>
<!DOCTYPE svg PUBLIC "-//W3C//DTD SVG 1.1//EN"
 "http://www.w3.org/Graphics/SVG/1.1/DTD/svg11.dtd">
<!-- Generated by graphviz version 2.38.0 (20140413.2041)
 -->
<!-- Title: include/eeprom_map.h Pages: 1 -->
<svg width="920pt" height="357pt"
 viewBox="0.00 0.00 920.00 357.00" xmlns="http://www.w3.org/2000/svg" xmlns:xlink="http://www.w3.org/1999/xlink">
<g id="graph0" class="graph" transform="scale(1 1) rotate(0) translate(4 353)">
<title>include/eeprom_map.h</title>
<!-- Node1 -->
<g id="node1" class="node"><title>Node1</title>
<g id="a_node1"><a xlink:title=" ">
<polygon fill="#bfbfbf" stroke="black" points="416.5,-330.5 416.5,-348.5 529.5,-348.5 529.5,-330.5 416.5,-330.5"/>
<text text-anchor="middle" x="473" y="-337.3" font-family="Calibri" font-size="9.00">include/eeprom_map.h</text>
</a>
</g>
</g>
<!-- Node2 -->
<g id="node2" class="node"><title>Node2</title>
<g id="a_node2"><a xlink:href="common_8h.html" target="_top" xlink:title=" ">
<polygon fill="none" stroke="black" points="426.5,-275.5 426.5,-293.5 519.5,-293.5 519.5,-275.5 426.5,-275.5"/>
<text text-anchor="middle" x="473" y="-282.3" font-family="Calibri" font-size="9.00">include/common.h</text>
</a>
</g>
</g>
<!-- Node1&#45;&gt;Node2 -->
<g id="edge1" class="edge"><title>Node1&#45;&gt;Node2</title>
<path fill="none" stroke="midnightblue" d="M473,-320.175C473,-311.094 473,-300.595 473,-293.55"/>
<polygon fill="midnightblue" stroke="midnightblue" points="469.5,-320.219 473,-330.219 476.5,-320.219 469.5,-320.219"/>
</g>
<!-- Node3 -->
<g id="node3" class="node"><title>Node3</title>
<g id="a_node3"><a xlink:href="extratypes_8h.html" target="_top" xlink:title=" ">
<polygon fill="none" stroke="black" points="294.5,-165.5 294.5,-183.5 395.5,-183.5 395.5,-165.5 294.5,-165.5"/>
<text text-anchor="middle" x="345" y="-172.3" font-family="Calibri" font-size="9.00">include/extratypes.h</text>
</a>
</g>
</g>
<!-- Node1&#45;&gt;Node3 -->
<g id="edge34" class="edge"><title>Node1&#45;&gt;Node3</title>
<path fill="none" stroke="midnightblue" d="M451.992,-324.55C440.787,-316.468 427.239,-305.612 417,-294 384.521,-257.166 358.085,-203.788 348.685,-183.622"/>
<polygon fill="midnightblue" stroke="midnightblue" points="450.166,-327.544 460.369,-330.399 454.173,-321.804 450.166,-327.544"/>
</g>
<!-- Node4 -->
<g id="node4" class="node"><title>Node4</title>
<g id="a_node4"><a xlink:href="font5x8_8h.html" target="_top" xlink:title="Definition of 5x8 font characters for use by OLED displays for ATU&#45;100 EXT PIC16F1938.">
<polygon fill="none" stroke="black" points="682,-110.5 682,-128.5 770,-128.5 770,-110.5 682,-110.5"/>
<text text-anchor="middle" x="726" y="-117.3" font-family="Calibri" font-size="9.00">include/font5x8.h</text>
</a>
</g>
</g>
<!-- Node1&#45;&gt;Node4 -->
<g id="edge35" class="edge"><title>Node1&#45;&gt;Node4</title>
<path fill="none" stroke="midnightblue" d="M499.054,-325.841C514.743,-317.692 534.758,-306.342 551,-294 623.898,-238.608 697.208,-154.584 719.301,-128.505"/>
<polygon fill="midnightblue" stroke="midnightblue" points="497.249,-322.832 489.917,-330.481 500.418,-329.073 497.249,-322.832"/>
</g>
<!-- Node5 -->
<g id="node5" class="node"><title>Node5</title>
<g id="a_node5"><a xlink:href="oled__control_8c.html" target="_top" xlink:title="OLED/LCD control routines for ATU&#45;100 EXT PIC16F1938.">
<polygon fill="none" stroke="black" points="603.5,-55.5 603.5,-73.5 692.5,-73.5 692.5,-55.5 603.5,-55.5"/>
<text text-anchor="middle" x="648" y="-62.3" font-family="Calibri" font-size="9.00">src/oled_control.c</text>
</a>
</g>
</g>
<!-- Node1&#45;&gt;Node5 -->
<g id="edge40" class="edge"><title>Node1&#45;&gt;Node5</title>
<path fill="none" stroke="midnightblue" d="M539.627,-334.291C653.641,-325.245 874,-298.912 874,-230.5 874,-230.5 874,-230.5 874,-173.5 874,-93.9206 758.514,-72.9267 692.65,-67.4245"/>
<polygon fill="midnightblue" stroke="midnightblue" points="539.304,-330.806 529.603,-335.064 539.842,-337.785 539.304,-330.806"/>
</g>
<!-- Node6 -->
<g id="node6" class="node"><title>Node6</title>
<g id="a_node6"><a xlink:href="main_8h.html" target="_top" xlink:title="ATU&#45;100 EXT firmware definitions for PIC16F1938 main program.">
<polygon fill="none" stroke="black" points="78,-55.5 78,-73.5 158,-73.5 158,-55.5 78,-55.5"/>
<text text-anchor="middle" x="118" y="-62.3" font-family="Calibri" font-size="9.00">include/main.h</text>
</a>
</g>
</g>
<!-- Node1&#45;&gt;Node6 -->
<g id="edge36" class="edge"><title>Node1&#45;&gt;Node6</title>
<path fill="none" stroke="midnightblue" d="M406.147,-337.048C275.729,-332.393 0,-312.818 0,-230.5 0,-230.5 0,-230.5 0,-173.5 0,-121.707 62.6267,-88.0584 96.6311,-73.6059"/>
<polygon fill="midnightblue" stroke="midnightblue" points="406.303,-340.555 416.415,-337.394 406.539,-333.559 406.303,-340.555"/>
</g>
<!-- Node7 -->
<g id="node7" class="node"><title>Node7</title>
<g id="a_node7"><a xlink:href="main_8c.html" target="_top" xlink:title="ATU&#45;100 EXT firmware for PIC16F1938 main program.">
<polygon fill="none" stroke="black" points="458.5,-0.5 458.5,-18.5 517.5,-18.5 517.5,-0.5 458.5,-0.5"/>
<text text-anchor="middle" x="488" y="-7.3" font-family="Calibri" font-size="9.00">src/main.c</text>
</a>
</g>
</g>
<!-- Node1&#45;&gt;Node7 -->
<g id="edge39" class="edge"><title>Node1&#45;&gt;Node7</title>
<path fill="none" stroke="midnightblue" d="M540.001,-335.84C662.925,-329.122 912,-306.174 912,-230.5 912,-230.5 912,-230.5 912,-118.5 912,-37.0312 614.326,-16.2637 517.815,-11.6715"/>
<polygon fill="midnightblue" stroke="midnightblue" points="539.744,-332.349 529.942,-336.369 540.112,-339.339 539.744,-332.349"/>
</g>
<!-- Node8 -->
<g id="node8" class="node"><title>Node8</title>
<g id="a_node8"><a xlink:href="oled__control_8h.html" target="_top" xlink:title="OLED/LCD control definitions for ATU&#45;100 EXT PIC16F1938.">
<polygon fill="none" stroke="black" points="554,-110.5 554,-128.5 664,-128.5 664,-110.5 554,-110.5"/>
<text text-anchor="middle" x="609" y="-117.3" font-family="Calibri" font-size="9.00">include/oled_control.h</text>
</a>
</g>
</g>
<!-- Node1&#45;&gt;Node8 -->
<g id="edge37" class="edge"><title>Node1&#45;&gt;Node8</title>
<path fill="none" stroke="midnightblue" d="M493.522,-324.402C504.494,-316.276 517.804,-305.425 528,-294 566.585,-250.765 577.092,-238.045 598,-184 605.347,-165.009 607.807,-140.926 608.616,-128.59"/>
<polygon fill="midnightblue" stroke="midnightblue" points="491.404,-321.615 485.328,-330.294 495.49,-327.298 491.404,-321.615"/>
</g>
<!-- Node9 -->
<g id="node9" class="node"><title>Node9</title>
<g id="a_node9"><a xlink:href="pic__init_8h.html" target="_top" xlink:title="PIC microcontroller initialization definitions for ATU&#45;100 EXT PIC16F1938.">
<polygon fill="none" stroke="black" points="142.5,-110.5 142.5,-128.5 231.5,-128.5 231.5,-110.5 142.5,-110.5"/>
<text text-anchor="middle" x="187" y="-117.3" font-family="Calibri" font-size="9.00">include/pic_init.h</text>
</a>
</g>
</g>
<!-- Node1&#45;&gt;Node9 -->
<g id="edge38" class="edge"><title>Node1&#45;&gt;Node9</title>
<path fill="none" stroke="midnightblue" d="M431.642,-327.599C370.091,-309.084 255.482,-265.336 198,-184 186.118,-167.188 185.634,-141.739 186.301,-128.754"/>
<polygon fill="midnightblue" stroke="midnightblue" points="430.829,-331.008 441.409,-330.459 432.796,-324.29 430.829,-331.008"/>
</g>
<!-- Node10 -->
<g id="node10" class="node"><title>Node10</title>
<g id="a_node10"><a xlink:href="pic__init_8c.html" target="_top" xlink:title="PIC microcontroller initialization routines for ATU&#45;100 EXT PIC16F1938.">
<polygon fill="none" stroke="black" points="226,-55.5 226,-73.5 294,-73.5 294,-55.5 226,-55.5"/>
<text text-anchor="middle" x="260" y="-62.3" font-family="Calibri" font-size="9.00">src/pic_init.c</text>
</a>
</g>
</g>
<!-- Node1&#45;&gt;Node10 -->
<g id="edge41" class="edge"><title>Node1&#45;&gt;Node10</title>
<path fill="none" stroke="midnightblue" d="M415.035,-328.417C382.054,-321.378 340.56,-310.284 306,-294 209.883,-248.711 170.308,-228.488 133,-129 117.809,-88.4919 183.133,-73.6808 225.718,-68.3715"/>
<polygon fill="midnightblue" stroke="midnightblue" points="414.479,-331.875 424.981,-330.472 415.896,-325.02 414.479,-331.875"/>
</g>
<!-- Node2&#45;&gt;Node3 -->
<g id="edge2" class="edge"><title>Node2&#45;&gt;Node3</title>
<path fill="none" stroke="midnightblue" d="M450.811,-269.802C437.887,-261.463 421.526,-250.274 408,-239 386.289,-220.904 363.606,-196.443 352.307,-183.814"/>
<polygon fill="midnightblue" stroke="midnightblue" points="449.206,-272.928 459.525,-275.33 452.956,-267.018 449.206,-272.928"/>
</g>
<!-- Node2&#45;&gt;Node4 -->
<g id="edge17" class="edge"><title>Node2&#45;&gt;Node4</title>
<path fill="none" stroke="midnightblue" d="M499.82,-271.049C517.308,-262.625 540.431,-250.9 560,-239 621.718,-201.467 690.485,-148.504 715.874,-128.536"/>
<polygon fill="midnightblue" stroke="midnightblue" points="498.268,-267.912 490.743,-275.37 501.277,-274.232 498.268,-267.912"/>
</g>
<!-- Node2&#45;&gt;Node5 -->
<g id="edge32" class="edge"><title>Node2&#45;&gt;Node5</title>
<path fill="none" stroke="midnightblue" d="M506.149,-271.986C579.051,-245.899 749.203,-180.546 779,-129 800.06,-92.5677 738.312,-76.6649 692.562,-69.9983"/>
<polygon fill="midnightblue" stroke="midnightblue" points="504.784,-268.757 496.532,-275.401 507.127,-275.353 504.784,-268.757"/>
</g>
<!-- Node2&#45;&gt;Node6 -->
<g id="edge18" class="edge"><title>Node2&#45;&gt;Node6</title>
<path fill="none" stroke="midnightblue" d="M416.229,-282.574C364.903,-279.607 288.624,-269.764 230,-239 168.778,-206.873 147.461,-192.452 120,-129 112.027,-110.577 114.38,-86.2543 116.406,-73.7321"/>
<polygon fill="midnightblue" stroke="midnightblue" points="416.304,-286.082 426.468,-283.094 416.659,-279.091 416.304,-286.082"/>
</g>
<!-- Node2&#45;&gt;Node7 -->
<g id="edge31" class="edge"><title>Node2&#45;&gt;Node7</title>
<path fill="none" stroke="midnightblue" d="M529.79,-278.121C610.433,-266.871 753.113,-232.539 796,-129 842.207,-17.4456 603.595,-9.25303 517.798,-9.84217"/>
<polygon fill="midnightblue" stroke="midnightblue" points="529.251,-274.662 519.796,-279.442 530.168,-281.602 529.251,-274.662"/>
</g>
<!-- Node2&#45;&gt;Node8 -->
<g id="edge19" class="edge"><title>Node2&#45;&gt;Node8</title>
<path fill="none" stroke="midnightblue" d="M497.524,-270.195C510.581,-262.302 526.309,-251.421 538,-239 571.533,-203.374 596.708,-149.278 605.552,-128.772"/>
<polygon fill="midnightblue" stroke="midnightblue" points="495.47,-267.341 488.585,-275.394 498.989,-273.392 495.47,-267.341"/>
</g>
<!-- Node2&#45;&gt;Node9 -->
<g id="edge20" class="edge"><title>Node2&#45;&gt;Node9</title>
<path fill="none" stroke="midnightblue" d="M416.234,-277.552C359.654,-270.671 277.605,-257.822 252,-239 212.864,-210.232 194.52,-150.509 188.931,-128.7"/>
<polygon fill="midnightblue" stroke="midnightblue" points="416.141,-281.065 426.483,-278.767 416.965,-274.114 416.141,-281.065"/>
</g>
<!-- Node2&#45;&gt;Node10 -->
<g id="edge33" class="edge"><title>Node2&#45;&gt;Node10</title>
<path fill="none" stroke="midnightblue" d="M429.852,-272.548C386.284,-259.156 320.501,-232.101 285,-184 259.404,-149.32 258.77,-94.1939 259.534,-73.6061"/>
<polygon fill="midnightblue" stroke="midnightblue" points="429.022,-275.952 439.604,-275.432 431.008,-269.24 429.022,-275.952"/>
</g>
<!-- Node11 -->
<g id="node11" class="node"><title>Node11</title>
<g id="a_node11"><a xlink:href="preprocessor_8h.html" target="_top" xlink:title=" ">
<polygon fill="none" stroke="black" points="417,-220.5 417,-238.5 529,-238.5 529,-220.5 417,-220.5"/>
<text text-anchor="middle" x="473" y="-227.3" font-family="Calibri" font-size="9.00">include/preprocessor.h</text>
</a>
</g>
</g>
<!-- Node2&#45;&gt;Node11 -->
<g id="edge21" class="edge"><title>Node2&#45;&gt;Node11</title>
<path fill="none" stroke="midnightblue" d="M466.544,-265.175C465.871,-256.094 466.353,-245.595 467.991,-238.55"/>
<polygon fill="midnightblue" stroke="midnightblue" points="463.096,-265.795 467.938,-275.219 470.03,-264.833 463.096,-265.795"/>
</g>
<!-- Node3&#45;&gt;Node4 -->
<g id="edge3" class="edge"><title>Node3&#45;&gt;Node4</title>
<path fill="none" stroke="midnightblue" d="M405.828,-165.695C471.724,-157.135 579.919,-142.776 673,-129 675.858,-128.577 678.801,-128.132 681.766,-127.676"/>
<polygon fill="midnightblue" stroke="midnightblue" points="405.092,-162.261 395.625,-167.018 405.992,-169.203 405.092,-162.261"/>
</g>
<!-- Node3&#45;&gt;Node5 -->
<g id="edge15" class="edge"><title>Node3&#45;&gt;Node5</title>
<path fill="none" stroke="midnightblue" d="M374.775,-161.692C408.057,-148.608 463.632,-127.098 512,-110 550.179,-96.5038 594.875,-82.1534 622.311,-73.508"/>
<polygon fill="midnightblue" stroke="midnightblue" points="373.215,-158.545 365.195,-165.468 375.782,-165.057 373.215,-158.545"/>
</g>
<!-- Node3&#45;&gt;Node6 -->
<g id="edge5" class="edge"><title>Node3&#45;&gt;Node6</title>
<path fill="none" stroke="midnightblue" d="M324.912,-159.733C304.249,-145.965 270.822,-124.768 240,-110 208.282,-94.8021 169.917,-81.6021 144.784,-73.6086"/>
<polygon fill="midnightblue" stroke="midnightblue" points="323.203,-162.802 333.452,-165.486 327.114,-156.996 323.203,-162.802"/>
</g>
<!-- Node3&#45;&gt;Node7 -->
<g id="edge14" class="edge"><title>Node3&#45;&gt;Node7</title>
<path fill="none" stroke="midnightblue" d="M359.007,-157.534C388.992,-123.355 458.486,-44.1418 480.896,-18.5971"/>
<polygon fill="midnightblue" stroke="midnightblue" points="356.252,-155.367 352.288,-165.193 361.514,-159.984 356.252,-155.367"/>
</g>
<!-- Node3&#45;&gt;Node8 -->
<g id="edge7" class="edge"><title>Node3&#45;&gt;Node8</title>
<path fill="none" stroke="midnightblue" d="M395.131,-163.436C445.591,-153.306 522.428,-137.88 568.96,-128.538"/>
<polygon fill="midnightblue" stroke="midnightblue" points="394.211,-160.051 385.096,-165.45 395.589,-166.914 394.211,-160.051"/>
</g>
<!-- Node3&#45;&gt;Node9 -->
<g id="edge10" class="edge"><title>Node3&#45;&gt;Node9</title>
<path fill="none" stroke="midnightblue" d="M311.331,-162.206C281.178,-152.091 237.708,-137.51 210.963,-128.538"/>
<polygon fill="midnightblue" stroke="midnightblue" points="310.409,-165.588 321.003,-165.45 312.635,-158.952 310.409,-165.588"/>
</g>
<!-- Node3&#45;&gt;Node10 -->
<g id="edge16" class="edge"><title>Node3&#45;&gt;Node10</title>
<path fill="none" stroke="midnightblue" d="M337.919,-155.608C332.127,-142.252 323.095,-123.973 312,-110 300.325,-95.2976 283.254,-81.7925 271.894,-73.6073"/>
<polygon fill="midnightblue" stroke="midnightblue" points="334.786,-157.19 341.847,-165.089 341.253,-154.511 334.786,-157.19"/>
</g>
<!-- Node4&#45;&gt;Node5 -->
<g id="edge4" class="edge"><title>Node4&#45;&gt;Node5</title>
<path fill="none" stroke="midnightblue" d="M705.796,-104.772C691.259,-94.8937 672.141,-81.9036 659.958,-73.6253"/>
<polygon fill="midnightblue" stroke="midnightblue" points="703.915,-107.725 714.153,-110.45 707.849,-101.935 703.915,-107.725"/>
</g>
<!-- Node6&#45;&gt;Node7 -->
<g id="edge6" class="edge"><title>Node6&#45;&gt;Node7</title>
<path fill="none" stroke="midnightblue" d="M168.41,-56.279C246.719,-45.0618 395.147,-23.8006 458.327,-14.7504"/>
<polygon fill="midnightblue" stroke="midnightblue" points="167.703,-52.8445 158.301,-57.7272 168.696,-59.7738 167.703,-52.8445"/>
</g>
<!-- Node8&#45;&gt;Node5 -->
<g id="edge9" class="edge"><title>Node8&#45;&gt;Node5</title>
<path fill="none" stroke="midnightblue" d="M621.178,-101.951C628.136,-92.4941 636.551,-81.0595 642.077,-73.5496"/>
<polygon fill="midnightblue" stroke="midnightblue" points="618.202,-100.09 615.094,-110.219 623.84,-104.239 618.202,-100.09"/>
</g>
<!-- Node8&#45;&gt;Node7 -->
<g id="edge8" class="edge"><title>Node8&#45;&gt;Node7</title>
<path fill="none" stroke="midnightblue" d="M592.391,-103.675C566.538,-80.6005 517.534,-36.8609 497.2,-18.7118"/>
<polygon fill="midnightblue" stroke="midnightblue" points="590.114,-106.335 599.905,-110.382 594.775,-101.112 590.114,-106.335"/>
</g>
<!-- Node9&#45;&gt;Node6 -->
<g id="edge11" class="edge"><title>Node9&#45;&gt;Node6</title>
<path fill="none" stroke="midnightblue" d="M168.395,-104.21C155.631,-94.4052 139.152,-81.7474 128.578,-73.6253"/>
<polygon fill="midnightblue" stroke="midnightblue" points="166.458,-107.135 176.52,-110.45 170.722,-101.583 166.458,-107.135"/>
</g>
<!-- Node9&#45;&gt;Node7 -->
<g id="edge12" class="edge"><title>Node9&#45;&gt;Node7</title>
<path fill="none" stroke="midnightblue" d="M190.675,-100.464C194.627,-85.87 202.416,-65.9976 217,-55 254.688,-26.581 396.191,-15.5025 458.375,-11.9413"/>
<polygon fill="midnightblue" stroke="midnightblue" points="187.23,-99.8251 188.352,-110.36 194.044,-101.425 187.23,-99.8251"/>
</g>
<!-- Node9&#45;&gt;Node10 -->
<g id="edge13" class="edge"><title>Node9&#45;&gt;Node10</title>
<path fill="none" stroke="midnightblue" d="M206.295,-104.492C219.851,-94.6491 237.514,-81.8255 248.809,-73.6253"/>
<polygon fill="midnightblue" stroke="midnightblue" points="204.123,-101.743 198.087,-110.45 208.236,-107.408 204.123,-101.743"/>
</g>
<!-- Node11&#45;&gt;Node2 -->
<g id="edge22" class="edge"><title>Node11&#45;&gt;Node2</title>
<path fill="none" stroke="midnightblue" d="M479.434,-248.529C480.132,-257.577 479.675,-268.099 478.063,-275.219"/>
<polygon fill="midnightblue" stroke="midnightblue" points="482.887,-247.955 478.009,-238.55 475.957,-248.944 482.887,-247.955"/>
</g>
<!-- Node11&#45;&gt;Node3 -->
<g id="edge23" class="edge"><title>Node11&#45;&gt;Node3</title>
<path fill="none" stroke="midnightblue" d="M444.145,-216.552C419.879,-206.505 385.842,-192.411 364.623,-183.625"/>
<polygon fill="midnightblue" stroke="midnightblue" points="442.981,-219.858 453.56,-220.45 445.659,-213.391 442.981,-219.858"/>
</g>
<!-- Node11&#45;&gt;Node4 -->
<g id="edge24" class="edge"><title>Node11&#45;&gt;Node4</title>
<path fill="none" stroke="midnightblue" d="M501.337,-216.404C553.424,-194.169 663.076,-147.361 707.108,-128.564"/>
<polygon fill="midnightblue" stroke="midnightblue" points="499.839,-213.237 492.016,-220.382 502.587,-219.675 499.839,-213.237"/>
</g>
<!-- Node11&#45;&gt;Node5 -->
<g id="edge29" class="edge"><title>Node11&#45;&gt;Node5</title>
<path fill="none" stroke="midnightblue" d="M484.061,-211.968C489.557,-203.643 496.238,-193.356 502,-184 521.946,-151.611 516.556,-135.256 545,-110 565.247,-92.0221 593.873,-80.4478 615.81,-73.6234"/>
<polygon fill="midnightblue" stroke="midnightblue" points="481.092,-210.113 478.472,-220.379 486.922,-213.987 481.092,-210.113"/>
</g>
<!-- Node11&#45;&gt;Node6 -->
<g id="edge25" class="edge"><title>Node11&#45;&gt;Node6</title>
<path fill="none" stroke="midnightblue" d="M406.641,-219.991C360.985,-213.039 299.372,-201.47 247,-184 193.635,-166.199 168.225,-172.862 133,-129 119.949,-112.749 117.91,-87.0546 117.795,-73.887"/>
<polygon fill="midnightblue" stroke="midnightblue" points="406.308,-223.48 416.715,-221.49 407.339,-216.557 406.308,-223.48"/>
</g>
<!-- Node11&#45;&gt;Node7 -->
<g id="edge28" class="edge"><title>Node11&#45;&gt;Node7</title>
<path fill="none" stroke="midnightblue" d="M474.239,-210.49C477.319,-165.727 485.232,-50.7353 487.427,-18.8231"/>
<polygon fill="midnightblue" stroke="midnightblue" points="470.746,-210.266 473.552,-220.483 477.73,-210.747 470.746,-210.266"/>
</g>
<!-- Node11&#45;&gt;Node8 -->
<g id="edge26" class="edge"><title>Node11&#45;&gt;Node8</title>
<path fill="none" stroke="midnightblue" d="M495.085,-215.07C508.449,-206.644 525.627,-195.273 540,-184 563.314,-165.715 588.353,-141.334 600.881,-128.767"/>
<polygon fill="midnightblue" stroke="midnightblue" points="493.166,-212.142 486.524,-220.396 496.864,-218.086 493.166,-212.142"/>
</g>
<!-- Node11&#45;&gt;Node9 -->
<g id="edge27" class="edge"><title>Node11&#45;&gt;Node9</title>
<path fill="none" stroke="midnightblue" d="M406.987,-218.594C370.117,-211.665 323.908,-200.619 285,-184 250.136,-169.108 213.915,-142.09 196.922,-128.607"/>
<polygon fill="midnightblue" stroke="midnightblue" points="406.659,-222.092 417.124,-220.441 407.913,-215.205 406.659,-222.092"/>
</g>
<!-- Node11&#45;&gt;Node10 -->
<g id="edge30" class="edge"><title>Node11&#45;&gt;Node10</title>
<path fill="none" stroke="midnightblue" d="M457.487,-213.518C443.722,-200.398 422.92,-180.985 404,-165 373.509,-139.24 365.87,-132.646 333,-110 313.199,-96.3583 289.226,-82.1618 274.29,-73.5755"/>
<polygon fill="midnightblue" stroke="midnightblue" points="455.069,-216.05 464.71,-220.443 459.913,-210.996 455.069,-216.05"/>
</g>
</g>
</svg>
