<?xml version="1.0" encoding="UTF-8" standalone="no"?>
<!DOCTYPE svg PUBLIC "-//W3C//DTD SVG 1.1//EN"
 "http://www.w3.org/Graphics/SVG/1.1/DTD/svg11.dtd">
<!-- Generated by graphviz version 2.38.0 (20140413.2041)
 -->
<!-- Title: EXT_INT_Initialize Pages: 1 -->
<svg width="268pt" height="64pt"
 viewBox="0.00 0.00 268.00 64.00" xmlns="http://www.w3.org/2000/svg" xmlns:xlink="http://www.w3.org/1999/xlink">
<g id="graph0" class="graph" transform="scale(1 1) rotate(0) translate(4 60)">
<title>EXT_INT_Initialize</title>
<!-- Node1 -->
<g id="node1" class="node"><title>Node1</title>
<g id="a_node1"><a xlink:title=" ">
<polygon fill="#bfbfbf" stroke="black" points="0,-18.5 0,-36.5 90,-36.5 90,-18.5 0,-18.5"/>
<text text-anchor="middle" x="45" y="-25.3" font-family="Calibri" font-size="9.00">EXT_INT_Initialize</text>
</a>
</g>
</g>
<!-- Node2 -->
<g id="node2" class="node"><title>Node2</title>
<g id="a_node2"><a xlink:href="ext__int_8c.html#a5ecd9e927fdf5b02d5490e1c8780781f" target="_top" xlink:title=" ">
<polygon fill="none" stroke="black" points="126,-37.5 126,-55.5 260,-55.5 260,-37.5 126,-37.5"/>
<text text-anchor="middle" x="193" y="-44.3" font-family="Calibri" font-size="9.00">INT_DefaultInterruptHandler</text>
</a>
</g>
</g>
<!-- Node1&#45;&gt;Node2 -->
<g id="edge1" class="edge"><title>Node1&#45;&gt;Node2</title>
<path fill="none" stroke="midnightblue" d="M90.201,-33.2522C98.3723,-34.3156 107.117,-35.4536 115.921,-36.5993"/>
<polygon fill="midnightblue" stroke="midnightblue" points="115.492,-40.0729 125.86,-37.8927 116.395,-33.1314 115.492,-40.0729"/>
</g>
<!-- Node3 -->
<g id="node3" class="node"><title>Node3</title>
<g id="a_node3"><a xlink:href="ext__int_8c.html#aa10124a96d50bd41454b93d0bddd8465" target="_top" xlink:title=" ">
<polygon fill="none" stroke="black" points="135,-0.5 135,-18.5 251,-18.5 251,-0.5 135,-0.5"/>
<text text-anchor="middle" x="193" y="-7.3" font-family="Calibri" font-size="9.00">INT_SetInterruptHandler</text>
</a>
</g>
</g>
<!-- Node1&#45;&gt;Node3 -->
<g id="edge2" class="edge"><title>Node1&#45;&gt;Node3</title>
<path fill="none" stroke="midnightblue" d="M90.201,-22.0506C101.107,-20.706 113.033,-19.2356 124.76,-17.7898"/>
<polygon fill="midnightblue" stroke="midnightblue" points="125.488,-21.2267 134.984,-16.5293 124.631,-14.2793 125.488,-21.2267"/>
</g>
</g>
</svg>
