<?xml version="1.0" encoding="UTF-8" standalone="no"?>
<!DOCTYPE svg PUBLIC "-//W3C//DTD SVG 1.1//EN"
 "http://www.w3.org/Graphics/SVG/1.1/DTD/svg11.dtd">
<!-- Generated by graphviz version 2.38.0 (20140413.2041)
 -->
<!-- Title: mcc_generated_files/ext_int.h Pages: 1 -->
<svg width="348pt" height="167pt"
 viewBox="0.00 0.00 348.00 167.00" xmlns="http://www.w3.org/2000/svg" xmlns:xlink="http://www.w3.org/1999/xlink">
<g id="graph0" class="graph" transform="scale(1 1) rotate(0) translate(4 163)">
<title>mcc_generated_files/ext_int.h</title>
<!-- Node1 -->
<g id="node1" class="node"><title>Node1</title>
<g id="a_node1"><a xlink:title=" ">
<polygon fill="#bfbfbf" stroke="black" points="59,-130.5 59,-158.5 160,-158.5 160,-130.5 59,-130.5"/>
<text text-anchor="start" x="67" y="-147.3" font-family="Calibri" font-size="9.00">mcc_generated_files</text>
<text text-anchor="middle" x="109.5" y="-137.3" font-family="Calibri" font-size="9.00">/ext_int.h</text>
</a>
</g>
</g>
<!-- Node2 -->
<g id="node2" class="node"><title>Node2</title>
<g id="a_node2"><a xlink:href="ext__int_8c.html" target="_top" xlink:title=" ">
<polygon fill="none" stroke="black" points="0,-65.5 0,-93.5 101,-93.5 101,-65.5 0,-65.5"/>
<text text-anchor="start" x="8" y="-82.3" font-family="Calibri" font-size="9.00">mcc_generated_files</text>
<text text-anchor="middle" x="50.5" y="-72.3" font-family="Calibri" font-size="9.00">/ext_int.c</text>
</a>
</g>
</g>
<!-- Node1&#45;&gt;Node2 -->
<g id="edge1" class="edge"><title>Node1&#45;&gt;Node2</title>
<path fill="none" stroke="midnightblue" d="M90.3865,-123.091C81.2954,-113.383 70.6957,-102.065 62.7092,-93.5369"/>
<polygon fill="midnightblue" stroke="midnightblue" points="87.8849,-125.54 97.2752,-130.446 92.9942,-120.755 87.8849,-125.54"/>
</g>
<!-- Node3 -->
<g id="node3" class="node"><title>Node3</title>
<g id="a_node3"><a xlink:href="mcc_8h.html" target="_top" xlink:title=" ">
<polygon fill="none" stroke="black" points="119,-65.5 119,-93.5 220,-93.5 220,-65.5 119,-65.5"/>
<text text-anchor="start" x="127" y="-82.3" font-family="Calibri" font-size="9.00">mcc_generated_files</text>
<text text-anchor="middle" x="169.5" y="-72.3" font-family="Calibri" font-size="9.00">/mcc.h</text>
</a>
</g>
</g>
<!-- Node1&#45;&gt;Node3 -->
<g id="edge2" class="edge"><title>Node1&#45;&gt;Node3</title>
<path fill="none" stroke="midnightblue" d="M128.937,-123.091C138.183,-113.383 148.962,-102.065 157.084,-93.5369"/>
<polygon fill="midnightblue" stroke="midnightblue" points="126.294,-120.791 121.932,-130.446 131.363,-125.619 126.294,-120.791"/>
</g>
<!-- Node4 -->
<g id="node4" class="node"><title>Node4</title>
<g id="a_node4"><a xlink:href="main_8c.html" target="_top" xlink:title=" ">
<polygon fill="none" stroke="black" points="55.5,-5.5 55.5,-23.5 99.5,-23.5 99.5,-5.5 55.5,-5.5"/>
<text text-anchor="middle" x="77.5" y="-12.3" font-family="Calibri" font-size="9.00">main.c</text>
</a>
</g>
</g>
<!-- Node3&#45;&gt;Node4 -->
<g id="edge3" class="edge"><title>Node3&#45;&gt;Node4</title>
<path fill="none" stroke="midnightblue" d="M141.714,-59.4727C124.168,-47.4572 102.404,-32.554 89.2526,-23.548"/>
<polygon fill="midnightblue" stroke="midnightblue" points="140.209,-62.6841 150.438,-65.4464 144.164,-56.9085 140.209,-62.6841"/>
</g>
<!-- Node5 -->
<g id="node5" class="node"><title>Node5</title>
<g id="a_node5"><a xlink:href="interrupt__manager_8c.html" target="_top" xlink:title=" ">
<polygon fill="none" stroke="black" points="118,-0.5 118,-28.5 221,-28.5 221,-0.5 118,-0.5"/>
<text text-anchor="start" x="126" y="-17.3" font-family="Calibri" font-size="9.00">mcc_generated_files</text>
<text text-anchor="middle" x="169.5" y="-7.3" font-family="Calibri" font-size="9.00">/interrupt_manager.c</text>
</a>
</g>
</g>
<!-- Node3&#45;&gt;Node5 -->
<g id="edge4" class="edge"><title>Node3&#45;&gt;Node5</title>
<path fill="none" stroke="midnightblue" d="M169.5,-55.1641C169.5,-46.1693 169.5,-36.2205 169.5,-28.5369"/>
<polygon fill="midnightblue" stroke="midnightblue" points="166,-55.4463 169.5,-65.4464 173,-55.4464 166,-55.4463"/>
</g>
<!-- Node6 -->
<g id="node6" class="node"><title>Node6</title>
<g id="a_node6"><a xlink:href="mcc_8c.html" target="_top" xlink:title=" ">
<polygon fill="none" stroke="black" points="239,-0.5 239,-28.5 340,-28.5 340,-0.5 239,-0.5"/>
<text text-anchor="start" x="247" y="-17.3" font-family="Calibri" font-size="9.00">mcc_generated_files</text>
<text text-anchor="middle" x="289.5" y="-7.3" font-family="Calibri" font-size="9.00">/mcc.c</text>
</a>
</g>
</g>
<!-- Node3&#45;&gt;Node6 -->
<g id="edge5" class="edge"><title>Node3&#45;&gt;Node6</title>
<path fill="none" stroke="midnightblue" d="M203.246,-60.7834C222.763,-50.5371 246.896,-37.867 264.668,-28.5369"/>
<polygon fill="midnightblue" stroke="midnightblue" points="201.591,-57.6991 194.364,-65.4464 204.845,-63.8969 201.591,-57.6991"/>
</g>
</g>
</svg>
