<?xml version="1.0" encoding="UTF-8" standalone="no"?>
<!DOCTYPE svg PUBLIC "-//W3C//DTD SVG 1.1//EN"
 "http://www.w3.org/Graphics/SVG/1.1/DTD/svg11.dtd">
<!-- Generated by graphviz version 2.38.0 (20140413.2041)
 -->
<!-- Title: mcc_generated_files/ext_int.c Pages: 1 -->
<svg width="112pt" height="147pt"
 viewBox="0.00 0.00 111.50 147.00" xmlns="http://www.w3.org/2000/svg" xmlns:xlink="http://www.w3.org/1999/xlink">
<g id="graph0" class="graph" transform="scale(1 1) rotate(0) translate(4 143)">
<title>mcc_generated_files/ext_int.c</title>
<!-- Node1 -->
<g id="node1" class="node"><title>Node1</title>
<g id="a_node1"><a xlink:title=" ">
<polygon fill="#bfbfbf" stroke="black" points="0,-110.5 0,-138.5 101,-138.5 101,-110.5 0,-110.5"/>
<text text-anchor="start" x="8" y="-127.3" font-family="Calibri" font-size="9.00">mcc_generated_files</text>
<text text-anchor="middle" x="50.5" y="-117.3" font-family="Calibri" font-size="9.00">/ext_int.c</text>
</a>
</g>
</g>
<!-- Node2 -->
<g id="node2" class="node"><title>Node2</title>
<g id="a_node2"><a xlink:title=" ">
<polygon fill="none" stroke="#bfbfbf" points="34.5,-0.5 34.5,-18.5 66.5,-18.5 66.5,-0.5 34.5,-0.5"/>
<text text-anchor="middle" x="50.5" y="-7.3" font-family="Calibri" font-size="9.00">xc.h</text>
</a>
</g>
</g>
<!-- Node1&#45;&gt;Node2 -->
<g id="edge1" class="edge"><title>Node1&#45;&gt;Node2</title>
<path fill="none" stroke="midnightblue" d="M47.3594,-110.39C44.4384,-96.619 40.7772,-74.3199 42.5,-55 43.2772,-46.2848 44.8943,-36.7223 46.4726,-28.7026"/>
<polygon fill="midnightblue" stroke="midnightblue" points="49.9552,-29.1487 48.586,-18.6427 43.1047,-27.7095 49.9552,-29.1487"/>
</g>
<!-- Node3 -->
<g id="node3" class="node"><title>Node3</title>
<g id="a_node3"><a xlink:href="ext__int_8h.html" target="_top" xlink:title=" ">
<polygon fill="none" stroke="black" points="51.5,-55.5 51.5,-73.5 103.5,-73.5 103.5,-55.5 51.5,-55.5"/>
<text text-anchor="middle" x="77.5" y="-62.3" font-family="Calibri" font-size="9.00">ext_int.h</text>
</a>
</g>
</g>
<!-- Node1&#45;&gt;Node3 -->
<g id="edge2" class="edge"><title>Node1&#45;&gt;Node3</title>
<path fill="none" stroke="midnightblue" d="M56.6267,-110.339C60.3842,-102.267 65.2409,-91.8343 69.324,-83.0633"/>
<polygon fill="midnightblue" stroke="midnightblue" points="72.6022,-84.3144 73.6495,-73.7715 66.2561,-81.3602 72.6022,-84.3144"/>
</g>
<!-- Node3&#45;&gt;Node2 -->
<g id="edge3" class="edge"><title>Node3&#45;&gt;Node2</title>
<path fill="none" stroke="midnightblue" d="M73.2813,-55.2188C69.5344,-47.8639 63.9389,-36.8801 59.2312,-27.639"/>
<polygon fill="midnightblue" stroke="midnightblue" points="62.2587,-25.8712 54.6007,-18.5496 56.0214,-29.0487 62.2587,-25.8712"/>
</g>
</g>
</svg>
