<?xml version="1.0" encoding="UTF-8" standalone="no"?>
<!DOCTYPE svg PUBLIC "-//W3C//DTD SVG 1.1//EN"
 "http://www.w3.org/Graphics/SVG/1.1/DTD/svg11.dtd">
<!-- Generated by graphviz version 2.38.0 (20140413.2041)
 -->
<!-- Title: include/extratypes.h Pages: 1 -->
<svg width="497pt" height="192pt"
 viewBox="0.00 0.00 496.68 192.00" xmlns="http://www.w3.org/2000/svg" xmlns:xlink="http://www.w3.org/1999/xlink">
<g id="graph0" class="graph" transform="scale(1 1) rotate(0) translate(4 188)">
<title>include/extratypes.h</title>
<!-- Node1 -->
<g id="node1" class="node"><title>Node1</title>
<g id="a_node1"><a xlink:title=" ">
<polygon fill="#bfbfbf" stroke="black" points="207.184,-165.5 207.184,-183.5 308.184,-183.5 308.184,-165.5 207.184,-165.5"/>
<text text-anchor="middle" x="257.684" y="-172.3" font-family="Calibri" font-size="9.00">include/extratypes.h</text>
</a>
</g>
</g>
<!-- Node2 -->
<g id="node2" class="node"><title>Node2</title>
<g id="a_node2"><a xlink:href="font5x8_8h.html" target="_top" xlink:title="Definition of 5x8 font characters for use by OLED displays for ATU&#45;100 EXT PIC16F1938.">
<polygon fill="none" stroke="black" points="13.6837,-110.5 13.6837,-128.5 101.684,-128.5 101.684,-110.5 13.6837,-110.5"/>
<text text-anchor="middle" x="57.6837" y="-117.3" font-family="Calibri" font-size="9.00">include/font5x8.h</text>
</a>
</g>
</g>
<!-- Node1&#45;&gt;Node2 -->
<g id="edge1" class="edge"><title>Node1&#45;&gt;Node2</title>
<path fill="none" stroke="midnightblue" d="M217.53,-162.859C179.299,-152.728 122.607,-137.705 88.017,-128.538"/>
<polygon fill="midnightblue" stroke="midnightblue" points="216.745,-166.272 227.308,-165.45 218.538,-159.506 216.745,-166.272"/>
</g>
<!-- Node3 -->
<g id="node3" class="node"><title>Node3</title>
<g id="a_node3"><a xlink:href="oled__control_8c.html" target="_top" xlink:title="OLED/LCD control routines for ATU&#45;100 EXT PIC16F1938.">
<polygon fill="none" stroke="black" points="13.1837,-55.5 13.1837,-73.5 102.184,-73.5 102.184,-55.5 13.1837,-55.5"/>
<text text-anchor="middle" x="57.6837" y="-62.3" font-family="Calibri" font-size="9.00">src/oled_control.c</text>
</a>
</g>
</g>
<!-- Node1&#45;&gt;Node3 -->
<g id="edge13" class="edge"><title>Node1&#45;&gt;Node3</title>
<path fill="none" stroke="midnightblue" d="M196.948,-171.504C130.058,-167.876 28.7531,-157.672 4.68373,-129 -12.0272,-109.093 21.3865,-85.5927 42.3992,-73.5314"/>
<polygon fill="midnightblue" stroke="midnightblue" points="196.797,-175.001 206.962,-172.012 197.152,-168.01 196.797,-175.001"/>
</g>
<!-- Node4 -->
<g id="node4" class="node"><title>Node4</title>
<g id="a_node4"><a xlink:href="main_8h.html" target="_top" xlink:title="ATU&#45;100 EXT firmware definitions for PIC16F1938 main program.">
<polygon fill="none" stroke="black" points="284.684,-55.5 284.684,-73.5 364.684,-73.5 364.684,-55.5 284.684,-55.5"/>
<text text-anchor="middle" x="324.684" y="-62.3" font-family="Calibri" font-size="9.00">include/main.h</text>
</a>
</g>
</g>
<!-- Node1&#45;&gt;Node4 -->
<g id="edge3" class="edge"><title>Node1&#45;&gt;Node4</title>
<path fill="none" stroke="midnightblue" d="M268.021,-156.836C282.594,-133.346 308.623,-91.3895 319.589,-73.7118"/>
<polygon fill="midnightblue" stroke="midnightblue" points="265.017,-155.04 262.72,-165.382 270.966,-158.73 265.017,-155.04"/>
</g>
<!-- Node5 -->
<g id="node5" class="node"><title>Node5</title>
<g id="a_node5"><a xlink:href="main_8c.html" target="_top" xlink:title="ATU&#45;100 EXT firmware for PIC16F1938 main program.">
<polygon fill="none" stroke="black" points="261.184,-0.5 261.184,-18.5 320.184,-18.5 320.184,-0.5 261.184,-0.5"/>
<text text-anchor="middle" x="290.684" y="-7.3" font-family="Calibri" font-size="9.00">src/main.c</text>
</a>
</g>
</g>
<!-- Node1&#45;&gt;Node5 -->
<g id="edge12" class="edge"><title>Node1&#45;&gt;Node5</title>
<path fill="none" stroke="midnightblue" d="M259.466,-155.161C261.973,-131.708 267.208,-89.9457 275.684,-55 278.835,-42.0061 284.105,-27.3978 287.485,-18.5763"/>
<polygon fill="midnightblue" stroke="midnightblue" points="255.959,-155.056 258.426,-165.359 262.923,-155.766 255.959,-155.056"/>
</g>
<!-- Node6 -->
<g id="node6" class="node"><title>Node6</title>
<g id="a_node6"><a xlink:href="oled__control_8h.html" target="_top" xlink:title="OLED/LCD control definitions for ATU&#45;100 EXT PIC16F1938.">
<polygon fill="none" stroke="black" points="119.684,-110.5 119.684,-128.5 229.684,-128.5 229.684,-110.5 119.684,-110.5"/>
<text text-anchor="middle" x="174.684" y="-117.3" font-family="Calibri" font-size="9.00">include/oled_control.h</text>
</a>
</g>
</g>
<!-- Node1&#45;&gt;Node6 -->
<g id="edge5" class="edge"><title>Node1&#45;&gt;Node6</title>
<path fill="none" stroke="midnightblue" d="M236.622,-160.051C221.1,-150.139 200.495,-136.982 187.408,-128.625"/>
<polygon fill="midnightblue" stroke="midnightblue" points="234.766,-163.018 245.078,-165.45 238.533,-157.119 234.766,-163.018"/>
</g>
<!-- Node7 -->
<g id="node7" class="node"><title>Node7</title>
<g id="a_node7"><a xlink:href="pic__init_8h.html" target="_top" xlink:title="PIC microcontroller initialization definitions for ATU&#45;100 EXT PIC16F1938.">
<polygon fill="none" stroke="black" points="329.184,-110.5 329.184,-128.5 418.184,-128.5 418.184,-110.5 329.184,-110.5"/>
<text text-anchor="middle" x="373.684" y="-117.3" font-family="Calibri" font-size="9.00">include/pic_init.h</text>
</a>
</g>
</g>
<!-- Node1&#45;&gt;Node7 -->
<g id="edge8" class="edge"><title>Node1&#45;&gt;Node7</title>
<path fill="none" stroke="midnightblue" d="M284.422,-161.283C306.372,-151.254 336.841,-137.333 355.9,-128.625"/>
<polygon fill="midnightblue" stroke="midnightblue" points="282.943,-158.111 275.302,-165.45 285.852,-164.478 282.943,-158.111"/>
</g>
<!-- Node8 -->
<g id="node8" class="node"><title>Node8</title>
<g id="a_node8"><a xlink:href="pic__init_8c.html" target="_top" xlink:title="PIC microcontroller initialization routines for ATU&#45;100 EXT PIC16F1938.">
<polygon fill="none" stroke="black" points="420.684,-55.5 420.684,-73.5 488.684,-73.5 488.684,-55.5 420.684,-55.5"/>
<text text-anchor="middle" x="454.684" y="-62.3" font-family="Calibri" font-size="9.00">src/pic_init.c</text>
</a>
</g>
</g>
<!-- Node1&#45;&gt;Node8 -->
<g id="edge14" class="edge"><title>Node1&#45;&gt;Node8</title>
<path fill="none" stroke="midnightblue" d="M318.646,-170.347C353.771,-165.628 396.752,-154.545 426.684,-129 443.73,-114.452 450.787,-87.5229 453.372,-73.8837"/>
<polygon fill="midnightblue" stroke="midnightblue" points="318.005,-166.898 308.493,-171.566 318.839,-173.848 318.005,-166.898"/>
</g>
<!-- Node2&#45;&gt;Node3 -->
<g id="edge2" class="edge"><title>Node2&#45;&gt;Node3</title>
<path fill="none" stroke="midnightblue" d="M57.6837,-100.175C57.6837,-91.0945 57.6837,-80.5949 57.6837,-73.5496"/>
<polygon fill="midnightblue" stroke="midnightblue" points="54.1838,-100.219 57.6837,-110.219 61.1838,-100.219 54.1838,-100.219"/>
</g>
<!-- Node4&#45;&gt;Node5 -->
<g id="edge4" class="edge"><title>Node4&#45;&gt;Node5</title>
<path fill="none" stroke="midnightblue" d="M313.879,-46.6576C307.85,-37.2587 300.616,-25.9821 295.848,-18.5496"/>
<polygon fill="midnightblue" stroke="midnightblue" points="311.026,-48.6917 319.371,-55.2188 316.918,-44.9119 311.026,-48.6917"/>
</g>
<!-- Node6&#45;&gt;Node3 -->
<g id="edge7" class="edge"><title>Node6&#45;&gt;Node3</title>
<path fill="none" stroke="midnightblue" d="M147.715,-106.283C125.576,-96.2545 94.8438,-82.3332 75.6207,-73.6253"/>
<polygon fill="midnightblue" stroke="midnightblue" points="146.361,-109.512 156.914,-110.45 149.249,-103.136 146.361,-109.512"/>
</g>
<!-- Node6&#45;&gt;Node5 -->
<g id="edge6" class="edge"><title>Node6&#45;&gt;Node5</title>
<path fill="none" stroke="midnightblue" d="M191.14,-103.102C204.902,-90.2318 225.056,-71.4013 242.684,-55 256.327,-42.3052 272.189,-27.6128 281.828,-18.6922"/>
<polygon fill="midnightblue" stroke="midnightblue" points="188.389,-100.883 183.477,-110.27 193.171,-105.995 188.389,-100.883"/>
</g>
<!-- Node7&#45;&gt;Node4 -->
<g id="edge9" class="edge"><title>Node7&#45;&gt;Node4</title>
<path fill="none" stroke="midnightblue" d="M359.189,-102.822C350.298,-93.2051 339.284,-81.2917 332.126,-73.5496"/>
<polygon fill="midnightblue" stroke="midnightblue" points="356.669,-105.252 366.027,-110.219 361.809,-100.5 356.669,-105.252"/>
</g>
<!-- Node7&#45;&gt;Node5 -->
<g id="edge10" class="edge"><title>Node7&#45;&gt;Node5</title>
<path fill="none" stroke="midnightblue" d="M378.378,-100.424C380.821,-86.9469 381.822,-68.598 373.684,-55 362.18,-35.7799 339.218,-24.3868 320.357,-17.9479"/>
<polygon fill="midnightblue" stroke="midnightblue" points="374.917,-99.8648 376.156,-110.387 381.749,-101.389 374.917,-99.8648"/>
</g>
<!-- Node7&#45;&gt;Node8 -->
<g id="edge11" class="edge"><title>Node7&#45;&gt;Node8</title>
<path fill="none" stroke="midnightblue" d="M394.664,-104.772C409.761,-94.8937 429.614,-81.9036 442.266,-73.6253"/>
<polygon fill="midnightblue" stroke="midnightblue" points="392.437,-102.046 385.986,-110.45 396.27,-107.904 392.437,-102.046"/>
</g>
</g>
</svg>
