<?xml version="1.0" encoding="UTF-8" standalone="no"?>
<!DOCTYPE svg PUBLIC "-//W3C//DTD SVG 1.1//EN"
 "http://www.w3.org/Graphics/SVG/1.1/DTD/svg11.dtd">
<!-- Generated by graphviz version 2.38.0 (20140413.2041)
 -->
<!-- Title: Graph Legend Pages: 1 -->
<svg width="485pt" height="154pt"
 viewBox="0.00 0.00 485.00 154.00" xmlns="http://www.w3.org/2000/svg" xmlns:xlink="http://www.w3.org/1999/xlink">
<g id="graph0" class="graph" transform="scale(1 1) rotate(0) translate(4 150)">
<title>Graph Legend</title>
<!-- Node9 -->
<g id="node1" class="node"><title>Node9</title>
<polygon fill="#bfbfbf" stroke="black" points="278.5,-18 223.5,-18 223.5,-0 278.5,-0 278.5,-18"/>
<text text-anchor="middle" x="251" y="-6.8" font-family="Calibri" font-size="9.00">Inherited</text>
</g>
<!-- Node10 -->
<g id="node2" class="node"><title>Node10</title>
<polygon fill="none" stroke="black" points="62,-82 0,-82 0,-64 62,-64 62,-82"/>
<text text-anchor="middle" x="31" y="-70.8" font-family="Calibri" font-size="9.00">PublicBase</text>
</g>
<!-- Node10&#45;&gt;Node9 -->
<g id="edge1" class="edge"><title>Node10&#45;&gt;Node9</title>
<path fill="none" stroke="midnightblue" d="M69.5229,-61.1435C113.51,-48.7472 184.391,-28.7716 223.273,-17.8141"/>
<polygon fill="midnightblue" stroke="midnightblue" points="68.4368,-57.8132 59.7612,-63.8946 70.3357,-64.5508 68.4368,-57.8132"/>
</g>
<!-- Node11 -->
<g id="node3" class="node"><title>Node11</title>
<polygon fill="none" stroke="red" points="59.5,-146 2.5,-146 2.5,-128 59.5,-128 59.5,-146"/>
<text text-anchor="middle" x="31" y="-134.8" font-family="Calibri" font-size="9.00">Truncated</text>
</g>
<!-- Node11&#45;&gt;Node10 -->
<g id="edge2" class="edge"><title>Node11&#45;&gt;Node10</title>
<path fill="none" stroke="midnightblue" d="M31,-117.828C31,-106.079 31,-91.3449 31,-82.3053"/>
<polygon fill="midnightblue" stroke="midnightblue" points="27.5001,-117.895 31,-127.895 34.5001,-117.895 27.5001,-117.895"/>
</g>
<!-- Node13 -->
<g id="node4" class="node"><title>Node13</title>
<polygon fill="none" stroke="black" points="155.5,-82 80.5,-82 80.5,-64 155.5,-64 155.5,-82"/>
<text text-anchor="middle" x="118" y="-70.8" font-family="Calibri" font-size="9.00">ProtectedBase</text>
</g>
<!-- Node13&#45;&gt;Node9 -->
<g id="edge3" class="edge"><title>Node13&#45;&gt;Node9</title>
<path fill="none" stroke="darkgreen" d="M144.475,-59.6584C170.95,-47.3164 210.905,-28.691 233.608,-18.1074"/>
<polygon fill="darkgreen" stroke="darkgreen" points="142.972,-56.4971 135.387,-63.8946 145.93,-62.8417 142.972,-56.4971"/>
</g>
<!-- Node14 -->
<g id="node5" class="node"><title>Node14</title>
<polygon fill="none" stroke="black" points="238.5,-82 173.5,-82 173.5,-64 238.5,-64 238.5,-82"/>
<text text-anchor="middle" x="206" y="-70.8" font-family="Calibri" font-size="9.00">PrivateBase</text>
</g>
<!-- Node14&#45;&gt;Node9 -->
<g id="edge4" class="edge"><title>Node14&#45;&gt;Node9</title>
<path fill="none" stroke="#8b1a1a" d="M217.889,-55.6198C226.604,-43.6129 238.073,-27.8108 244.972,-18.3053"/>
<polygon fill="#8b1a1a" stroke="#8b1a1a" points="214.924,-53.7457 211.883,-63.8946 220.59,-57.8575 214.924,-53.7457"/>
</g>
<!-- Node15 -->
<g id="node6" class="node"><title>Node15</title>
<polygon fill="none" stroke="#bfbfbf" points="335.5,-82 256.5,-82 256.5,-64 335.5,-64 335.5,-82"/>
<text text-anchor="middle" x="296" y="-70.8" font-family="Calibri" font-size="9.00">Undocumented</text>
</g>
<!-- Node15&#45;&gt;Node9 -->
<g id="edge5" class="edge"><title>Node15&#45;&gt;Node9</title>
<path fill="none" stroke="midnightblue" d="M284.111,-55.6198C275.396,-43.6129 263.927,-27.8108 257.028,-18.3053"/>
<polygon fill="midnightblue" stroke="midnightblue" points="281.41,-57.8575 290.117,-63.8946 287.076,-53.7457 281.41,-57.8575"/>
</g>
<!-- Node16 -->
<g id="node7" class="node"><title>Node16</title>
<polygon fill="none" stroke="black" points="420.5,-82 353.5,-82 353.5,-64 420.5,-64 420.5,-82"/>
<text text-anchor="middle" x="387" y="-70.8" font-family="Calibri" font-size="9.00">Templ&lt; int &gt;</text>
</g>
<!-- Node16&#45;&gt;Node9 -->
<g id="edge6" class="edge"><title>Node16&#45;&gt;Node9</title>
<path fill="none" stroke="midnightblue" d="M359.928,-59.6584C332.855,-47.3164 292,-28.691 268.784,-18.1074"/>
<polygon fill="midnightblue" stroke="midnightblue" points="358.669,-62.9311 369.22,-63.8946 361.573,-56.5617 358.669,-62.9311"/>
</g>
<!-- Node17 -->
<g id="node8" class="node"><title>Node17</title>
<polygon fill="none" stroke="black" points="417,-146 357,-146 357,-128 417,-128 417,-146"/>
<text text-anchor="middle" x="387" y="-134.8" font-family="Calibri" font-size="9.00">Templ&lt; T &gt;</text>
</g>
<!-- Node17&#45;&gt;Node16 -->
<g id="edge7" class="edge"><title>Node17&#45;&gt;Node16</title>
<path fill="none" stroke="orange" stroke-dasharray="5,2" d="M387,-117.828C387,-106.079 387,-91.3449 387,-82.3053"/>
<polygon fill="orange" stroke="orange" points="383.5,-117.895 387,-127.895 390.5,-117.895 383.5,-117.895"/>
<text text-anchor="middle" x="399.5" y="-102.8" font-family="Calibri" font-size="9.00">&lt; int &gt;</text>
</g>
<!-- Node18 -->
<g id="node9" class="node"><title>Node18</title>
<polygon fill="none" stroke="black" points="477,-82 439,-82 439,-64 477,-64 477,-82"/>
<text text-anchor="middle" x="458" y="-70.8" font-family="Calibri" font-size="9.00">Used</text>
</g>
<!-- Node18&#45;&gt;Node9 -->
<g id="edge8" class="edge"><title>Node18&#45;&gt;Node9</title>
<path fill="none" stroke="#9a32cd" stroke-dasharray="5,2" d="M429.186,-63.3696C389.042,-51.3458 316.832,-29.7177 277.796,-18.026"/>
<polygon fill="#9a32cd" stroke="#9a32cd" points="428.313,-66.7619 438.897,-66.2783 430.322,-60.0562 428.313,-66.7619"/>
<text text-anchor="middle" x="394.5" y="-38.8" font-family="Calibri" font-size="9.00">m_usedClass</text>
</g>
</g>
</svg>
