<?xml version="1.0" encoding="UTF-8" standalone="no"?>
<!DOCTYPE svg PUBLIC "-//W3C//DTD SVG 1.1//EN"
 "http://www.w3.org/Graphics/SVG/1.1/DTD/svg11.dtd">
<!-- Generated by graphviz version 2.38.0 (20140413.2041)
 -->
<!-- Title: mcc_generated_files/interrupt_manager.c Pages: 1 -->
<!--zoomable 202 -->
<svg id="main" version="1.1" xmlns="http://www.w3.org/2000/svg" xmlns:xlink="http://www.w3.org/1999/xlink" xml:space="preserve" onload="init(evt)">
<style type="text/css"><![CDATA[
.edge:hover path { stroke: red; }
.edge:hover polygon { stroke: red; fill: red; }
]]></style>
<script type="text/javascript"><![CDATA[
var edges = document.getElementsByTagName('g');
if (edges && edges.length) {
  for (var i=0;i<edges.length;i++) {
    if (edges[i].id.substr(0,4)=='edge') {
      edges[i].setAttribute('class','edge');
    }
  }
}
]]></script>
        <defs>
                <circle id="rim" cx="0" cy="0" r="7"/>
                <circle id="rim2" cx="0" cy="0" r="3.5"/>
                <g id="zoomPlus">
                        <use xlink:href="#rim" fill="#404040">
                                <set attributeName="fill" to="#808080" begin="zoomplus.mouseover" end="zoomplus.mouseout"/>
                        </use>
                        <path d="M-4,0h8M0,-4v8" fill="none" stroke="white" stroke-width="1.5" pointer-events="none"/>
                </g>
                <g id="zoomMin">
                        <use xlink:href="#rim" fill="#404040">
                                <set attributeName="fill" to="#808080" begin="zoomminus.mouseover" end="zoomminus.mouseout"/>
                        </use>
                        <path d="M-4,0h8" fill="none" stroke="white" stroke-width="1.5" pointer-events="none"/>
                </g>
                <g id="dirArrow">
                        <path fill="none" stroke="white" stroke-width="1.5" d="M0,-3.0v7 M-2.5,-0.5L0,-3.0L2.5,-0.5"/>
                </g>
               <g id="resetDef">
                       <use xlink:href="#rim2" fill="#404040">
                               <set attributeName="fill" to="#808080" begin="reset.mouseover" end="reset.mouseout"/>
                       </use>
               </g>
        </defs>

<script type="text/javascript">
var viewWidth = 622;
var viewHeight = 202;
var sectionId = 'dynsection-0';
</script>
<script xlink:href="svgpan.js"/>
<svg id="graph" class="graph">
<g id="viewport">
<title>mcc_generated_files/interrupt_manager.c</title>
<!-- Node1 -->
<g id="node1" class="node"><title>Node1</title>
<g id="a_node1"><a xlink:title=" ">
<polygon fill="#bfbfbf" stroke="black" points="201,-165.5 201,-193.5 304,-193.5 304,-165.5 201,-165.5"/>
<text text-anchor="start" x="209" y="-182.3" font-family="Calibri" font-size="9.00">mcc_generated_files</text>
<text text-anchor="middle" x="252.5" y="-172.3" font-family="Calibri" font-size="9.00">/interrupt_manager.c</text>
</a>
</g>
</g>
<!-- Node2 -->
<g id="node2" class="node"><title>Node2</title>
<g id="a_node2"><a xlink:href="interrupt__manager_8h.html" target="_top" xlink:title=" ">
<polygon fill="none" stroke="black" points="0,-55.5 0,-73.5 101,-73.5 101,-55.5 0,-55.5"/>
<text text-anchor="middle" x="50.5" y="-62.3" font-family="Calibri" font-size="9.00">interrupt_manager.h</text>
</a>
</g>
</g>
<!-- Node1&#45;&gt;Node2 -->
<g id="edge1" class="edge"><title>Node1&#45;&gt;Node2</title>
<path fill="none" stroke="midnightblue" d="M228.933,-165.316C189.98,-143.526 112.625,-100.253 73.8297,-78.5508"/>
<polygon fill="midnightblue" stroke="midnightblue" points="75.28,-75.3517 64.844,-73.5241 71.8625,-81.4608 75.28,-75.3517"/>
</g>
<!-- Node3 -->
<g id="node3" class="node"><title>Node3</title>
<g id="a_node3"><a xlink:href="mcc_8h.html" target="_top" xlink:title=" ">
<polygon fill="none" stroke="black" points="302,-110.5 302,-128.5 341,-128.5 341,-110.5 302,-110.5"/>
<text text-anchor="middle" x="321.5" y="-117.3" font-family="Calibri" font-size="9.00">mcc.h</text>
</a>
</g>
</g>
<!-- Node1&#45;&gt;Node3 -->
<g id="edge2" class="edge"><title>Node1&#45;&gt;Node3</title>
<path fill="none" stroke="midnightblue" d="M268.157,-165.339C278.803,-156.39 292.903,-144.538 303.932,-135.267"/>
<polygon fill="midnightblue" stroke="midnightblue" points="306.257,-137.885 311.66,-128.771 301.753,-132.527 306.257,-137.885"/>
</g>
<!-- Node3&#45;&gt;Node2 -->
<g id="edge10" class="edge"><title>Node3&#45;&gt;Node2</title>
<path fill="none" stroke="midnightblue" d="M301.573,-114.603C259.859,-106.445 162.213,-87.3479 101.726,-75.5183"/>
<polygon fill="midnightblue" stroke="midnightblue" points="102.105,-72.0262 91.6188,-73.5417 100.761,-78.896 102.105,-72.0262"/>
</g>
<!-- Node4 -->
<g id="node4" class="node"><title>Node4</title>
<g id="a_node4"><a xlink:title=" ">
<polygon fill="none" stroke="#bfbfbf" points="221.5,-0.5 221.5,-18.5 253.5,-18.5 253.5,-0.5 221.5,-0.5"/>
<text text-anchor="middle" x="237.5" y="-7.3" font-family="Calibri" font-size="9.00">xc.h</text>
</a>
</g>
</g>
<!-- Node3&#45;&gt;Node4 -->
<g id="edge3" class="edge"><title>Node3&#45;&gt;Node4</title>
<path fill="none" stroke="midnightblue" d="M301.78,-116.419C260.514,-111.615 167.312,-98.2637 148.5,-74 127.931,-47.4701 178.26,-27.2895 211.345,-17.3475"/>
<polygon fill="midnightblue" stroke="midnightblue" points="212.714,-20.5963 221.368,-14.4843 210.792,-13.8655 212.714,-20.5963"/>
</g>
<!-- Node5 -->
<g id="node5" class="node"><title>Node5</title>
<g id="a_node5"><a xlink:href="device__config_8h.html" target="_top" xlink:title=" ">
<polygon fill="none" stroke="black" points="323.5,-55.5 323.5,-73.5 403.5,-73.5 403.5,-55.5 323.5,-55.5"/>
<text text-anchor="middle" x="363.5" y="-62.3" font-family="Calibri" font-size="9.00">device_config.h</text>
</a>
</g>
</g>
<!-- Node3&#45;&gt;Node5 -->
<g id="edge4" class="edge"><title>Node3&#45;&gt;Node5</title>
<path fill="none" stroke="midnightblue" d="M328.063,-110.219C334.139,-102.551 343.341,-90.9387 350.845,-81.4691"/>
<polygon fill="midnightblue" stroke="midnightblue" points="353.653,-83.5608 357.121,-73.5496 348.167,-79.2132 353.653,-83.5608"/>
</g>
<!-- Node6 -->
<g id="node6" class="node"><title>Node6</title>
<g id="a_node6"><a xlink:href="pin__manager_8h.html" target="_top" xlink:title=" ">
<polygon fill="none" stroke="black" points="157.5,-55.5 157.5,-73.5 235.5,-73.5 235.5,-55.5 157.5,-55.5"/>
<text text-anchor="middle" x="196.5" y="-62.3" font-family="Calibri" font-size="9.00">pin_manager.h</text>
</a>
</g>
</g>
<!-- Node3&#45;&gt;Node6 -->
<g id="edge5" class="edge"><title>Node3&#45;&gt;Node6</title>
<path fill="none" stroke="midnightblue" d="M302.515,-110.45C281.866,-101.695 248.636,-87.6055 224.884,-77.5346"/>
<polygon fill="midnightblue" stroke="midnightblue" points="226.236,-74.3067 215.663,-73.6253 223.504,-80.7513 226.236,-74.3067"/>
</g>
<!-- Node7 -->
<g id="node7" class="node"><title>Node7</title>
<g id="a_node7"><a xlink:title=" ">
<polygon fill="none" stroke="#bfbfbf" points="479.5,-0.5 479.5,-18.5 527.5,-18.5 527.5,-0.5 479.5,-0.5"/>
<text text-anchor="middle" x="503.5" y="-7.3" font-family="Calibri" font-size="9.00">stdint.h</text>
</a>
</g>
</g>
<!-- Node3&#45;&gt;Node7 -->
<g id="edge7" class="edge"><title>Node3&#45;&gt;Node7</title>
<path fill="none" stroke="midnightblue" d="M341.011,-118.295C373.56,-116.916 439.233,-109.564 478.5,-74 491.388,-62.3269 497.716,-43.1673 500.769,-28.9419"/>
<polygon fill="midnightblue" stroke="midnightblue" points="504.262,-29.2888 502.578,-18.8286 497.372,-28.0559 504.262,-29.2888"/>
</g>
<!-- Node8 -->
<g id="node8" class="node"><title>Node8</title>
<g id="a_node8"><a xlink:title=" ">
<polygon fill="none" stroke="#bfbfbf" points="557.5,-0.5 557.5,-18.5 613.5,-18.5 613.5,-0.5 557.5,-0.5"/>
<text text-anchor="middle" x="585.5" y="-7.3" font-family="Calibri" font-size="9.00">stdbool.h</text>
</a>
</g>
</g>
<!-- Node3&#45;&gt;Node8 -->
<g id="edge8" class="edge"><title>Node3&#45;&gt;Node8</title>
<path fill="none" stroke="midnightblue" d="M341.186,-117.78C394.436,-115.419 539.527,-106.112 572.5,-74 584.332,-62.4774 586.87,-43.2957 586.882,-29.0241"/>
<polygon fill="midnightblue" stroke="midnightblue" points="590.373,-28.7247 586.479,-18.8714 583.378,-29.0023 590.373,-28.7247"/>
</g>
<!-- Node9 -->
<g id="node9" class="node"><title>Node9</title>
<g id="a_node9"><a xlink:title=" ">
<polygon fill="none" stroke="#bfbfbf" points="422,-55.5 422,-73.5 469,-73.5 469,-55.5 422,-55.5"/>
<text text-anchor="middle" x="445.5" y="-62.3" font-family="Calibri" font-size="9.00">conio.h</text>
</a>
</g>
</g>
<!-- Node3&#45;&gt;Node9 -->
<g id="edge9" class="edge"><title>Node3&#45;&gt;Node9</title>
<path fill="none" stroke="midnightblue" d="M340.333,-110.45C360.726,-101.734 393.489,-87.7306 417.029,-77.6691"/>
<polygon fill="midnightblue" stroke="midnightblue" points="418.67,-80.774 426.49,-73.6253 415.919,-74.3373 418.67,-80.774"/>
</g>
<!-- Node10 -->
<g id="node10" class="node"><title>Node10</title>
<g id="a_node10"><a xlink:href="ext__int_8h.html" target="_top" xlink:title=" ">
<polygon fill="none" stroke="black" points="253.5,-55.5 253.5,-73.5 305.5,-73.5 305.5,-55.5 253.5,-55.5"/>
<text text-anchor="middle" x="279.5" y="-62.3" font-family="Calibri" font-size="9.00">ext_int.h</text>
</a>
</g>
</g>
<!-- Node3&#45;&gt;Node10 -->
<g id="edge11" class="edge"><title>Node3&#45;&gt;Node10</title>
<path fill="none" stroke="midnightblue" d="M314.938,-110.219C308.861,-102.551 299.659,-90.9387 292.155,-81.4691"/>
<polygon fill="midnightblue" stroke="midnightblue" points="294.833,-79.2132 285.879,-73.5496 289.347,-83.5608 294.833,-79.2132"/>
</g>
<!-- Node11 -->
<g id="node11" class="node"><title>Node11</title>
<g id="a_node11"><a xlink:href="adc_8h.html" target="_top" xlink:title=" ">
<polygon fill="none" stroke="black" points="525.5,-55.5 525.5,-73.5 563.5,-73.5 563.5,-55.5 525.5,-55.5"/>
<text text-anchor="middle" x="544.5" y="-62.3" font-family="Calibri" font-size="9.00">adc.h</text>
</a>
</g>
</g>
<!-- Node3&#45;&gt;Node11 -->
<g id="edge13" class="edge"><title>Node3&#45;&gt;Node11</title>
<path fill="none" stroke="midnightblue" d="M341.228,-114.03C375.783,-106.167 449.485,-89.247 511.5,-74 512.76,-73.6901 514.047,-73.371 515.346,-73.0463"/>
<polygon fill="midnightblue" stroke="midnightblue" points="516.491,-76.367 525.323,-70.5156 514.77,-69.5818 516.491,-76.367"/>
</g>
<!-- Node6&#45;&gt;Node4 -->
<g id="edge6" class="edge"><title>Node6&#45;&gt;Node4</title>
<path fill="none" stroke="midnightblue" d="M202.906,-55.2188C208.838,-47.5509 217.821,-35.9387 225.147,-26.4691"/>
<polygon fill="midnightblue" stroke="midnightblue" points="227.923,-28.6007 231.273,-18.5496 222.386,-24.3176 227.923,-28.6007"/>
</g>
<!-- Node10&#45;&gt;Node4 -->
<g id="edge12" class="edge"><title>Node10&#45;&gt;Node4</title>
<path fill="none" stroke="midnightblue" d="M272.938,-55.2188C266.861,-47.5509 257.659,-35.9387 250.155,-26.4691"/>
<polygon fill="midnightblue" stroke="midnightblue" points="252.833,-24.2132 243.879,-18.5496 247.347,-28.5608 252.833,-24.2132"/>
</g>
<!-- Node11&#45;&gt;Node4 -->
<g id="edge14" class="edge"><title>Node11&#45;&gt;Node4</title>
<path fill="none" stroke="midnightblue" d="M525.296,-60.1846C472.295,-51.0346 323.913,-25.4183 263.543,-14.9961"/>
<polygon fill="midnightblue" stroke="midnightblue" points="264.11,-11.5423 253.661,-13.29 262.92,-18.4403 264.11,-11.5423"/>
</g>
<!-- Node11&#45;&gt;Node7 -->
<g id="edge15" class="edge"><title>Node11&#45;&gt;Node7</title>
<path fill="none" stroke="midnightblue" d="M538.094,-55.2188C532.162,-47.5509 523.179,-35.9387 515.853,-26.4691"/>
<polygon fill="midnightblue" stroke="midnightblue" points="518.614,-24.3176 509.727,-18.5496 513.077,-28.6007 518.614,-24.3176"/>
</g>
<!-- Node11&#45;&gt;Node8 -->
<g id="edge16" class="edge"><title>Node11&#45;&gt;Node8</title>
<path fill="none" stroke="midnightblue" d="M550.906,-55.2188C556.838,-47.5509 565.821,-35.9387 573.147,-26.4691"/>
<polygon fill="midnightblue" stroke="midnightblue" points="575.923,-28.6007 579.273,-18.5496 570.386,-24.3176 575.923,-28.6007"/>
</g>
</g>
</svg>
        <g id="navigator" transform="translate(0 0)" fill="#404254">
                <rect fill="#f2f5e9" fill-opacity="0.5" stroke="#606060" stroke-width=".5" x="0" y="0" width="60" height="60"/>
                <use id="zoomplus" xlink:href="#zoomPlus" x="17" y="9" onmousedown="handleZoom(evt,'in')"/>
                <use id="zoomminus" xlink:href="#zoomMin" x="42" y="9" onmousedown="handleZoom(evt,'out')"/>
                <use id="reset" xlink:href="#resetDef" x="30" y="36" onmousedown="handleReset()"/>
                <g id="arrowUp" xlink:href="#dirArrow" transform="translate(30 24)" onmousedown="handlePan(0,-1)">
                  <use xlink:href="#rim" fill="#404040">
                        <set attributeName="fill" to="#808080" begin="arrowUp.mouseover" end="arrowUp.mouseout"/>
                  </use>
                  <path fill="none" stroke="white" stroke-width="1.5" d="M0,-3.0v7 M-2.5,-0.5L0,-3.0L2.5,-0.5"/>
                </g>
                <g id="arrowRight" xlink:href="#dirArrow" transform="rotate(90) translate(36 -43)" onmousedown="handlePan(1,0)">
                  <use xlink:href="#rim" fill="#404040">
                        <set attributeName="fill" to="#808080" begin="arrowRight.mouseover" end="arrowRight.mouseout"/>
                  </use>
                  <path fill="none" stroke="white" stroke-width="1.5" d="M0,-3.0v7 M-2.5,-0.5L0,-3.0L2.5,-0.5"/>
                </g>
                <g id="arrowDown" xlink:href="#dirArrow" transform="rotate(180) translate(-30 -48)" onmousedown="handlePan(0,1)">
                  <use xlink:href="#rim" fill="#404040">
                        <set attributeName="fill" to="#808080" begin="arrowDown.mouseover" end="arrowDown.mouseout"/>
                  </use>
                  <path fill="none" stroke="white" stroke-width="1.5" d="M0,-3.0v7 M-2.5,-0.5L0,-3.0L2.5,-0.5"/>
                </g>
                <g id="arrowLeft" xlink:href="#dirArrow" transform="rotate(270) translate(-36 17)" onmousedown="handlePan(-1,0)">
                  <use xlink:href="#rim" fill="#404040">
                        <set attributeName="fill" to="#808080" begin="arrowLeft.mouseover" end="arrowLeft.mouseout"/>
                  </use>
                  <path fill="none" stroke="white" stroke-width="1.5" d="M0,-3.0v7 M-2.5,-0.5L0,-3.0L2.5,-0.5"/>
                </g>
        </g>
        <svg viewBox="0 0 15 15" width="100%" height="30px" preserveAspectRatio="xMaxYMin meet">
         <g id="arrow_out" transform="scale(0.3 0.3)">
          <a xlink:href="interrupt__manager_8c__incl_org.svg" target="_base">
           <rect id="button" ry="5" rx="5" y="6" x="6" height="38" width="38"
                fill="#f2f5e9" fill-opacity="0.5" stroke="#606060" stroke-width="1.0"/>
           <path id="arrow"
             d="M 11.500037,31.436501 C 11.940474,20.09759 22.043105,11.32322 32.158766,21.979434 L 37.068811,17.246167 C 37.068811,17.246167 37.088388,32 37.088388,32 L 22.160133,31.978069 C 22.160133,31.978069 26.997745,27.140456 26.997745,27.140456 C 18.528582,18.264221 13.291696,25.230495 11.500037,31.436501 z"
             style="fill:#404040;"/>
          </a>
         </g>
        </svg>
</svg>
