<?xml version="1.0" encoding="UTF-8" standalone="no"?>
<!DOCTYPE svg PUBLIC "-//W3C//DTD SVG 1.1//EN"
 "http://www.w3.org/Graphics/SVG/1.1/DTD/svg11.dtd">
<!-- Generated by graphviz version 2.38.0 (20140413.2041)
 -->
<!-- Title: mcc_generated_files/interrupt_manager.h Pages: 1 -->
<svg width="293pt" height="167pt"
 viewBox="0.00 0.00 293.00 167.00" xmlns="http://www.w3.org/2000/svg" xmlns:xlink="http://www.w3.org/1999/xlink">
<g id="graph0" class="graph" transform="scale(1 1) rotate(0) translate(4 163)">
<title>mcc_generated_files/interrupt_manager.h</title>
<!-- Node1 -->
<g id="node1" class="node"><title>Node1</title>
<g id="a_node1"><a xlink:title=" ">
<polygon fill="#bfbfbf" stroke="black" points="44.5,-130.5 44.5,-158.5 148.5,-158.5 148.5,-130.5 44.5,-130.5"/>
<text text-anchor="start" x="52.5" y="-147.3" font-family="Calibri" font-size="9.00">mcc_generated_files</text>
<text text-anchor="middle" x="96.5" y="-137.3" font-family="Calibri" font-size="9.00">/interrupt_manager.h</text>
</a>
</g>
</g>
<!-- Node2 -->
<g id="node2" class="node"><title>Node2</title>
<g id="a_node2"><a xlink:href="interrupt__manager_8c.html" target="_top" xlink:title=" ">
<polygon fill="none" stroke="black" points="0,-0.5 0,-28.5 103,-28.5 103,-0.5 0,-0.5"/>
<text text-anchor="start" x="8" y="-17.3" font-family="Calibri" font-size="9.00">mcc_generated_files</text>
<text text-anchor="middle" x="51.5" y="-7.3" font-family="Calibri" font-size="9.00">/interrupt_manager.c</text>
</a>
</g>
</g>
<!-- Node1&#45;&gt;Node2 -->
<g id="edge1" class="edge"><title>Node1&#45;&gt;Node2</title>
<path fill="none" stroke="midnightblue" d="M88.4513,-120.606C79.0547,-93.8779 63.829,-50.5691 56.1884,-28.836"/>
<polygon fill="midnightblue" stroke="midnightblue" points="85.2351,-122.011 91.8537,-130.284 91.8389,-119.689 85.2351,-122.011"/>
</g>
<!-- Node3 -->
<g id="node3" class="node"><title>Node3</title>
<g id="a_node3"><a xlink:href="mcc_8h.html" target="_top" xlink:title=" ">
<polygon fill="none" stroke="black" points="89,-65.5 89,-93.5 190,-93.5 190,-65.5 89,-65.5"/>
<text text-anchor="start" x="97" y="-82.3" font-family="Calibri" font-size="9.00">mcc_generated_files</text>
<text text-anchor="middle" x="139.5" y="-72.3" font-family="Calibri" font-size="9.00">/mcc.h</text>
</a>
</g>
</g>
<!-- Node1&#45;&gt;Node3 -->
<g id="edge2" class="edge"><title>Node1&#45;&gt;Node3</title>
<path fill="none" stroke="midnightblue" d="M111.222,-121.93C117.665,-112.491 125.012,-101.727 130.602,-93.5369"/>
<polygon fill="midnightblue" stroke="midnightblue" points="108.156,-120.214 105.41,-130.446 113.938,-124.16 108.156,-120.214"/>
</g>
<!-- Node3&#45;&gt;Node2 -->
<g id="edge4" class="edge"><title>Node3&#45;&gt;Node2</title>
<path fill="none" stroke="midnightblue" d="M112.988,-59.52C99.007,-49.5107 82.2121,-37.4871 69.7103,-28.5369"/>
<polygon fill="midnightblue" stroke="midnightblue" points="111.098,-62.4711 121.266,-65.4464 115.173,-56.7793 111.098,-62.4711"/>
</g>
<!-- Node4 -->
<g id="node4" class="node"><title>Node4</title>
<g id="a_node4"><a xlink:href="main_8c.html" target="_top" xlink:title=" ">
<polygon fill="none" stroke="black" points="121.5,-5.5 121.5,-23.5 165.5,-23.5 165.5,-5.5 121.5,-5.5"/>
<text text-anchor="middle" x="143.5" y="-12.3" font-family="Calibri" font-size="9.00">main.c</text>
</a>
</g>
</g>
<!-- Node3&#45;&gt;Node4 -->
<g id="edge3" class="edge"><title>Node3&#45;&gt;Node4</title>
<path fill="none" stroke="midnightblue" d="M140.984,-55.1286C141.683,-44.1182 142.472,-31.6856 142.977,-23.7301"/>
<polygon fill="midnightblue" stroke="midnightblue" points="137.47,-55.2446 140.329,-65.4464 144.456,-55.6883 137.47,-55.2446"/>
</g>
<!-- Node5 -->
<g id="node5" class="node"><title>Node5</title>
<g id="a_node5"><a xlink:href="mcc_8c.html" target="_top" xlink:title=" ">
<polygon fill="none" stroke="black" points="184,-0.5 184,-28.5 285,-28.5 285,-0.5 184,-0.5"/>
<text text-anchor="start" x="192" y="-17.3" font-family="Calibri" font-size="9.00">mcc_generated_files</text>
<text text-anchor="middle" x="234.5" y="-7.3" font-family="Calibri" font-size="9.00">/mcc.c</text>
</a>
</g>
</g>
<!-- Node3&#45;&gt;Node5 -->
<g id="edge5" class="edge"><title>Node3&#45;&gt;Node5</title>
<path fill="none" stroke="midnightblue" d="M167.694,-59.8027C182.872,-49.7378 201.218,-37.5715 214.841,-28.5369"/>
<polygon fill="midnightblue" stroke="midnightblue" points="165.584,-57.0027 159.184,-65.4464 169.452,-62.8365 165.584,-57.0027"/>
</g>
</g>
</svg>
