<?xml version="1.0" encoding="UTF-8" standalone="no"?>
<!DOCTYPE svg PUBLIC "-//W3C//DTD SVG 1.1//EN"
 "http://www.w3.org/Graphics/SVG/1.1/DTD/svg11.dtd">
<!-- Generated by graphviz version 2.38.0 (20140413.2041)
 -->
<!-- Title: __interrupt Pages: 1 -->
<svg width="303pt" height="165pt"
 viewBox="0.00 0.00 303.00 165.00" xmlns="http://www.w3.org/2000/svg" xmlns:xlink="http://www.w3.org/1999/xlink">
<g id="graph0" class="graph" transform="scale(1 1) rotate(0) translate(4 161)">
<title>__interrupt</title>
<!-- Node1 -->
<g id="node1" class="node"><title>Node1</title>
<g id="a_node1"><a xlink:title=" ">
<polygon fill="#bfbfbf" stroke="black" points="0,-101.5 0,-119.5 62,-119.5 62,-101.5 0,-101.5"/>
<text text-anchor="middle" x="31" y="-108.3" font-family="Calibri" font-size="9.00">__interrupt</text>
</a>
</g>
</g>
<!-- Node2 -->
<g id="node2" class="node"><title>Node2</title>
<g id="a_node2"><a xlink:href="mcc__generated__files_2adc_8c.html#a6ed0a222ba29d6365791b9cc27d9af14" target="_top" xlink:title=" ">
<polygon fill="none" stroke="black" points="119,-138.5 119,-156.5 169,-156.5 169,-138.5 119,-138.5"/>
<text text-anchor="middle" x="144" y="-145.3" font-family="Calibri" font-size="9.00">ADC_ISR</text>
</a>
</g>
</g>
<!-- Node1&#45;&gt;Node2 -->
<g id="edge1" class="edge"><title>Node1&#45;&gt;Node2</title>
<path fill="none" stroke="midnightblue" d="M59.1537,-119.551C74.2486,-124.583 93.1676,-130.889 109.212,-136.237"/>
<polygon fill="midnightblue" stroke="midnightblue" points="108.178,-139.582 118.771,-139.424 110.391,-132.941 108.178,-139.582"/>
</g>
<!-- Node3 -->
<g id="node3" class="node"><title>Node3</title>
<g id="a_node3"><a xlink:href="ext__int_8c.html#a72dc55d5ed1eb5a6900080d6bd365866" target="_top" xlink:title=" ">
<polygon fill="none" stroke="black" points="120.5,-101.5 120.5,-119.5 167.5,-119.5 167.5,-101.5 120.5,-101.5"/>
<text text-anchor="middle" x="144" y="-108.3" font-family="Calibri" font-size="9.00">INT_ISR</text>
</a>
</g>
</g>
<!-- Node1&#45;&gt;Node3 -->
<g id="edge2" class="edge"><title>Node1&#45;&gt;Node3</title>
<path fill="none" stroke="midnightblue" d="M62.0382,-110.5C76.9579,-110.5 95.0118,-110.5 110.282,-110.5"/>
<polygon fill="midnightblue" stroke="midnightblue" points="110.336,-114 120.336,-110.5 110.336,-107 110.336,-114"/>
</g>
<!-- Node5 -->
<g id="node5" class="node"><title>Node5</title>
<g id="a_node5"><a xlink:href="pin__manager_8c.html#a6ff320d017cf9b99ba9045f24d7ec896" target="_top" xlink:title=" ">
<polygon fill="none" stroke="black" points="98,-46.5 98,-64.5 190,-64.5 190,-46.5 98,-46.5"/>
<text text-anchor="middle" x="144" y="-53.3" font-family="Calibri" font-size="9.00">PIN_MANAGER_IOC</text>
</a>
</g>
</g>
<!-- Node1&#45;&gt;Node5 -->
<g id="edge4" class="edge"><title>Node1&#45;&gt;Node5</title>
<path fill="none" stroke="midnightblue" d="M50.3294,-101.418C68.0841,-92.6205 95.2314,-79.1691 115.562,-69.0956"/>
<polygon fill="midnightblue" stroke="midnightblue" points="117.237,-72.1716 124.643,-64.5956 114.129,-65.8994 117.237,-72.1716"/>
</g>
<!-- Node4 -->
<g id="node4" class="node"><title>Node4</title>
<g id="a_node4"><a xlink:href="ext__int_8c.html#ae900233e298142319ae8149d0771eea5" target="_top" xlink:title=" ">
<polygon fill="none" stroke="black" points="226,-111.5 226,-129.5 295,-129.5 295,-111.5 226,-111.5"/>
<text text-anchor="middle" x="260.5" y="-118.3" font-family="Calibri" font-size="9.00">INT_CallBack</text>
</a>
</g>
</g>
<!-- Node3&#45;&gt;Node4 -->
<g id="edge3" class="edge"><title>Node3&#45;&gt;Node4</title>
<path fill="none" stroke="midnightblue" d="M167.622,-112.476C181.201,-113.662 198.944,-115.211 215.213,-116.632"/>
<polygon fill="midnightblue" stroke="midnightblue" points="215.366,-120.159 225.633,-117.542 215.975,-113.185 215.366,-120.159"/>
</g>
<!-- Node6 -->
<g id="node6" class="node"><title>Node6</title>
<g id="a_node6"><a xlink:href="pin__manager_8c.html#af604943b8a79191100d2c31fecadbb76" target="_top" xlink:title=" ">
<polygon fill="none" stroke="black" points="229.5,-74.5 229.5,-92.5 291.5,-92.5 291.5,-74.5 229.5,-74.5"/>
<text text-anchor="middle" x="260.5" y="-81.3" font-family="Calibri" font-size="9.00">IOCBF0_ISR</text>
</a>
</g>
</g>
<!-- Node5&#45;&gt;Node6 -->
<g id="edge5" class="edge"><title>Node5&#45;&gt;Node6</title>
<path fill="none" stroke="midnightblue" d="M181.859,-64.5135C193.81,-67.4361 207.125,-70.6922 219.307,-73.6711"/>
<polygon fill="midnightblue" stroke="midnightblue" points="218.672,-77.119 229.218,-76.0947 220.335,-70.3194 218.672,-77.119"/>
</g>
<!-- Node7 -->
<g id="node7" class="node"><title>Node7</title>
<g id="a_node7"><a xlink:href="pin__manager_8c.html#a1c49145af28b17da71ec6502dd51f75f" target="_top" xlink:title=" ">
<polygon fill="none" stroke="black" points="229.5,-37.5 229.5,-55.5 291.5,-55.5 291.5,-37.5 229.5,-37.5"/>
<text text-anchor="middle" x="260.5" y="-44.3" font-family="Calibri" font-size="9.00">IOCBF1_ISR</text>
</a>
</g>
</g>
<!-- Node5&#45;&gt;Node7 -->
<g id="edge6" class="edge"><title>Node5&#45;&gt;Node7</title>
<path fill="none" stroke="midnightblue" d="M190.253,-51.943C199.791,-51.1933 209.794,-50.4071 219.137,-49.6726"/>
<polygon fill="midnightblue" stroke="midnightblue" points="219.651,-53.1431 229.346,-48.8702 219.103,-46.1646 219.651,-53.1431"/>
</g>
<!-- Node8 -->
<g id="node8" class="node"><title>Node8</title>
<g id="a_node8"><a xlink:href="pin__manager_8c.html#aef5b3df4417711a012a3234ef9cce5d0" target="_top" xlink:title=" ">
<polygon fill="none" stroke="black" points="229.5,-0.5 229.5,-18.5 291.5,-18.5 291.5,-0.5 229.5,-0.5"/>
<text text-anchor="middle" x="260.5" y="-7.3" font-family="Calibri" font-size="9.00">IOCBF2_ISR</text>
</a>
</g>
</g>
<!-- Node5&#45;&gt;Node8 -->
<g id="edge7" class="edge"><title>Node5&#45;&gt;Node8</title>
<path fill="none" stroke="midnightblue" d="M167.622,-46.4119C184.715,-39.5445 208.406,-30.0266 227.45,-22.3759"/>
<polygon fill="midnightblue" stroke="midnightblue" points="228.951,-25.5449 236.925,-18.5692 226.342,-19.0495 228.951,-25.5449"/>
</g>
</g>
</svg>
