<?xml version="1.0" encoding="UTF-8" standalone="no"?>
<!DOCTYPE svg PUBLIC "-//W3C//DTD SVG 1.1//EN"
 "http://www.w3.org/Graphics/SVG/1.1/DTD/svg11.dtd">
<!-- Generated by graphviz version 2.38.0 (20140413.2041)
 -->
<!-- Title: get_swr Pages: 1 -->
<!--zoomable 195 -->
<svg id="main" version="1.1" xmlns="http://www.w3.org/2000/svg" xmlns:xlink="http://www.w3.org/1999/xlink" xml:space="preserve" onload="init(evt)">
<style type="text/css"><![CDATA[
.edge:hover path { stroke: red; }
.edge:hover polygon { stroke: red; fill: red; }
]]></style>
<script type="text/javascript"><![CDATA[
var edges = document.getElementsByTagName('g');
if (edges && edges.length) {
  for (var i=0;i<edges.length;i++) {
    if (edges[i].id.substr(0,4)=='edge') {
      edges[i].setAttribute('class','edge');
    }
  }
}
]]></script>
        <defs>
                <circle id="rim" cx="0" cy="0" r="7"/>
                <circle id="rim2" cx="0" cy="0" r="3.5"/>
                <g id="zoomPlus">
                        <use xlink:href="#rim" fill="#404040">
                                <set attributeName="fill" to="#808080" begin="zoomplus.mouseover" end="zoomplus.mouseout"/>
                        </use>
                        <path d="M-4,0h8M0,-4v8" fill="none" stroke="white" stroke-width="1.5" pointer-events="none"/>
                </g>
                <g id="zoomMin">
                        <use xlink:href="#rim" fill="#404040">
                                <set attributeName="fill" to="#808080" begin="zoomminus.mouseover" end="zoomminus.mouseout"/>
                        </use>
                        <path d="M-4,0h8" fill="none" stroke="white" stroke-width="1.5" pointer-events="none"/>
                </g>
                <g id="dirArrow">
                        <path fill="none" stroke="white" stroke-width="1.5" d="M0,-3.0v7 M-2.5,-0.5L0,-3.0L2.5,-0.5"/>
                </g>
               <g id="resetDef">
                       <use xlink:href="#rim2" fill="#404040">
                               <set attributeName="fill" to="#808080" begin="reset.mouseover" end="reset.mouseout"/>
                       </use>
               </g>
        </defs>

<script type="text/javascript">
var viewWidth = 685;
var viewHeight = 195;
var sectionId = 'dynsection-21';
</script>
<script xlink:href="svgpan.js"/>
<svg id="graph" class="graph">
<g id="viewport">
<title>get_swr</title>
<!-- Node1 -->
<g id="node1" class="node"><title>Node1</title>
<g id="a_node1"><a xlink:title=" ">
<polygon fill="#bfbfbf" stroke="black" points="629,-95.5 629,-113.5 677,-113.5 677,-95.5 629,-95.5"/>
<text text-anchor="middle" x="653" y="-102.3" font-family="Calibri" font-size="9.00">get_swr</text>
</a>
</g>
</g>
<!-- Node2 -->
<g id="node2" class="node"><title>Node2</title>
<g id="a_node2"><a xlink:href="main_8h.html#a740ef1b33bb02cd952ad7d8708999472" target="_top" xlink:title=" ">
<polygon fill="none" stroke="black" points="531,-152.5 531,-170.5 593,-170.5 593,-152.5 531,-152.5"/>
<text text-anchor="middle" x="562" y="-159.3" font-family="Calibri" font-size="9.00">coarse_cap</text>
</a>
</g>
</g>
<!-- Node1&#45;&gt;Node2 -->
<g id="edge1" class="edge"><title>Node1&#45;&gt;Node2</title>
<path fill="none" stroke="midnightblue" d="M629.218,-119.091C612.841,-129.579 591.264,-143.398 577.264,-152.365"/>
<polygon fill="midnightblue" stroke="midnightblue" points="631.167,-121.999 637.701,-113.658 627.392,-116.104 631.167,-121.999"/>
</g>
<!-- Node3 -->
<g id="node3" class="node"><title>Node3</title>
<g id="a_node3"><a xlink:href="main_8h.html#a5c7c60c7d70cf76cc52e87722bb0f614" target="_top" xlink:title=" ">
<polygon fill="none" stroke="black" points="428,-114.5 428,-132.5 495,-132.5 495,-114.5 428,-114.5"/>
<text text-anchor="middle" x="461.5" y="-121.3" font-family="Calibri" font-size="9.00">coarse_tune</text>
</a>
</g>
</g>
<!-- Node1&#45;&gt;Node3 -->
<g id="edge8" class="edge"><title>Node1&#45;&gt;Node3</title>
<path fill="none" stroke="midnightblue" d="M618.632,-107.846C583.84,-111.334 529.663,-116.766 495.144,-120.227"/>
<polygon fill="midnightblue" stroke="midnightblue" points="619.163,-111.31 628.764,-106.83 618.464,-104.345 619.163,-111.31"/>
</g>
<!-- Node4 -->
<g id="node4" class="node"><title>Node4</title>
<g id="a_node4"><a xlink:href="main_8h.html#a454a7687c8039514766571b23516ca9c" target="_top" xlink:title=" ">
<polygon fill="none" stroke="black" points="337,-76.5 337,-94.5 392,-94.5 392,-76.5 337,-76.5"/>
<text text-anchor="middle" x="364.5" y="-83.3" font-family="Calibri" font-size="9.00">sub_tune</text>
</a>
</g>
</g>
<!-- Node1&#45;&gt;Node4 -->
<g id="edge15" class="edge"><title>Node1&#45;&gt;Node4</title>
<path fill="none" stroke="midnightblue" d="M618.531,-102.28C561.025,-98.4668 444.598,-90.7456 392.162,-87.2682"/>
<polygon fill="midnightblue" stroke="midnightblue" points="618.345,-105.776 628.555,-102.945 618.808,-98.791 618.345,-105.776"/>
</g>
<!-- Node5 -->
<g id="node5" class="node"><title>Node5</title>
<g id="a_node5"><a xlink:href="main_8h.html#a1849f2e5bd63d11a7b9549470e287d17" target="_top" xlink:title=" ">
<polygon fill="none" stroke="black" points="266,-57.5 266,-75.5 301,-75.5 301,-57.5 266,-57.5"/>
<text text-anchor="middle" x="283.5" y="-64.3" font-family="Calibri" font-size="9.00">tune</text>
</a>
</g>
</g>
<!-- Node1&#45;&gt;Node5 -->
<g id="edge16" class="edge"><title>Node1&#45;&gt;Node5</title>
<path fill="none" stroke="midnightblue" d="M643.808,-122.902C634.474,-141.327 617.303,-168.6 593,-180.5 568.252,-192.618 558.106,-185.46 531,-180.5 439.75,-163.803 418.198,-148.36 337,-103.5 322.164,-95.3037 306.438,-83.7966 296.108,-75.7997"/>
<polygon fill="midnightblue" stroke="midnightblue" points="647.036,-124.263 648.182,-113.731 640.718,-121.25 647.036,-124.263"/>
</g>
<!-- Node9 -->
<g id="node9" class="node"><title>Node9</title>
<g id="a_node9"><a xlink:href="main_8h.html#ab518a3d2c723f12d3af3024a195606ce" target="_top" xlink:title=" ">
<polygon fill="none" stroke="black" points="432,-38.5 432,-56.5 491,-56.5 491,-38.5 432,-38.5"/>
<text text-anchor="middle" x="461.5" y="-45.3" font-family="Calibri" font-size="9.00">sharp_cap</text>
</a>
</g>
</g>
<!-- Node1&#45;&gt;Node9 -->
<g id="edge9" class="edge"><title>Node1&#45;&gt;Node9</title>
<path fill="none" stroke="midnightblue" d="M629.859,-89.8308C619.126,-83.3265 605.809,-76.1167 593,-71.5 559.192,-59.3152 518.128,-53.0685 491.205,-50.0475"/>
<polygon fill="midnightblue" stroke="midnightblue" points="628.218,-92.9327 638.549,-95.2822 631.938,-87.003 628.218,-92.9327"/>
</g>
<!-- Node10 -->
<g id="node10" class="node"><title>Node10</title>
<g id="a_node10"><a xlink:href="main_8h.html#a72210b3ed1d5691c5bbda8c7f1e97197" target="_top" xlink:title=" ">
<polygon fill="none" stroke="black" points="432.5,-0.5 432.5,-18.5 490.5,-18.5 490.5,-0.5 432.5,-0.5"/>
<text text-anchor="middle" x="461.5" y="-7.3" font-family="Calibri" font-size="9.00">sharp_ind</text>
</a>
</g>
</g>
<!-- Node1&#45;&gt;Node10 -->
<g id="edge12" class="edge"><title>Node1&#45;&gt;Node10</title>
<path fill="none" stroke="midnightblue" d="M636.468,-87.6112C625.309,-76.3315 609.396,-61.8956 593,-52.5 560.195,-33.7015 517.987,-21.6974 490.594,-15.2805"/>
<polygon fill="midnightblue" stroke="midnightblue" points="634.247,-90.3516 643.693,-95.1496 639.301,-85.5081 634.247,-90.3516"/>
</g>
<!-- Node2&#45;&gt;Node3 -->
<g id="edge2" class="edge"><title>Node2&#45;&gt;Node3</title>
<path fill="none" stroke="midnightblue" d="M528.041,-148.785C514.272,-143.473 498.589,-137.423 486.017,-132.573"/>
<polygon fill="midnightblue" stroke="midnightblue" points="527.067,-152.161 537.657,-152.495 529.587,-145.63 527.067,-152.161"/>
</g>
<!-- Node3&#45;&gt;Node4 -->
<g id="edge3" class="edge"><title>Node3&#45;&gt;Node4</title>
<path fill="none" stroke="midnightblue" d="M428.325,-110.63C415.139,-105.356 400.189,-99.3756 388.181,-94.5725"/>
<polygon fill="midnightblue" stroke="midnightblue" points="427.402,-114.03 437.986,-114.495 430.001,-107.531 427.402,-114.03"/>
</g>
<!-- Node4&#45;&gt;Node5 -->
<g id="edge4" class="edge"><title>Node4&#45;&gt;Node5</title>
<path fill="none" stroke="midnightblue" d="M326.778,-76.6681C317.78,-74.5041 308.589,-72.2936 301.085,-70.4888"/>
<polygon fill="midnightblue" stroke="midnightblue" points="326.213,-80.132 336.754,-79.0675 327.85,-73.326 326.213,-80.132"/>
</g>
<!-- Node6 -->
<g id="node6" class="node"><title>Node6</title>
<g id="a_node6"><a xlink:href="main_8c.html#af18ed7edda7874a97cacaa11a2759260" target="_top" xlink:title=" ">
<polygon fill="none" stroke="black" points="175,-57.5 175,-75.5 230,-75.5 230,-57.5 175,-57.5"/>
<text text-anchor="middle" x="202.5" y="-64.3" font-family="Calibri" font-size="9.00">btn_push</text>
</a>
</g>
</g>
<!-- Node5&#45;&gt;Node6 -->
<g id="edge5" class="edge"><title>Node5&#45;&gt;Node6</title>
<path fill="none" stroke="midnightblue" d="M255.568,-66.5C247.367,-66.5 238.36,-66.5 230.177,-66.5"/>
<polygon fill="midnightblue" stroke="midnightblue" points="255.746,-70.0001 265.746,-66.5 255.746,-63.0001 255.746,-70.0001"/>
</g>
<!-- Node7 -->
<g id="node7" class="node"><title>Node7</title>
<g id="a_node7"><a xlink:href="main_8c.html#a1c9e5d54d8cf7f3d041aa2e0b330b3dd" target="_top" xlink:title="Handle the process of the buttons being pressed.">
<polygon fill="none" stroke="black" points="74,-57.5 74,-75.5 139,-75.5 139,-57.5 74,-57.5"/>
<text text-anchor="middle" x="106.5" y="-64.3" font-family="Calibri" font-size="9.00">button_proc</text>
</a>
</g>
</g>
<!-- Node6&#45;&gt;Node7 -->
<g id="edge6" class="edge"><title>Node6&#45;&gt;Node7</title>
<path fill="none" stroke="midnightblue" d="M164.545,-66.5C156.183,-66.5 147.376,-66.5 139.25,-66.5"/>
<polygon fill="midnightblue" stroke="midnightblue" points="164.815,-70.0001 174.815,-66.5 164.815,-63.0001 164.815,-70.0001"/>
</g>
<!-- Node8 -->
<g id="node8" class="node"><title>Node8</title>
<g id="a_node8"><a xlink:href="main_8c.html#acdef7a1fd863a6d3770c1268cb06add3" target="_top" xlink:title=" ">
<polygon fill="none" stroke="black" points="0,-57.5 0,-75.5 38,-75.5 38,-57.5 0,-57.5"/>
<text text-anchor="middle" x="19" y="-64.3" font-family="Calibri" font-size="9.00">main</text>
</a>
</g>
</g>
<!-- Node7&#45;&gt;Node8 -->
<g id="edge7" class="edge"><title>Node7&#45;&gt;Node8</title>
<path fill="none" stroke="midnightblue" d="M63.658,-66.5C54.7022,-66.5 45.6933,-66.5 38.2043,-66.5"/>
<polygon fill="midnightblue" stroke="midnightblue" points="63.663,-70.0001 73.663,-66.5 63.6629,-63.0001 63.663,-70.0001"/>
</g>
<!-- Node9&#45;&gt;Node4 -->
<g id="edge10" class="edge"><title>Node9&#45;&gt;Node4</title>
<path fill="none" stroke="midnightblue" d="M428.325,-60.37C415.139,-65.6443 400.189,-71.6244 388.181,-76.4275"/>
<polygon fill="midnightblue" stroke="midnightblue" points="430.001,-63.4691 437.986,-56.5055 427.402,-56.9698 430.001,-63.4691"/>
</g>
<!-- Node9&#45;&gt;Node5 -->
<g id="edge11" class="edge"><title>Node9&#45;&gt;Node5</title>
<path fill="none" stroke="midnightblue" d="M421.745,-51.6838C384.194,-55.7376 328.999,-61.6961 301.448,-64.6704"/>
<polygon fill="midnightblue" stroke="midnightblue" points="422.264,-55.1481 431.831,-50.595 421.513,-48.1886 422.264,-55.1481"/>
</g>
<!-- Node10&#45;&gt;Node4 -->
<g id="edge13" class="edge"><title>Node10&#45;&gt;Node4</title>
<path fill="none" stroke="midnightblue" d="M434.673,-23.9172C432.375,-25.4029 430.119,-26.9412 428,-28.5 407.416,-43.6413 385.94,-64.5325 374.294,-76.3624"/>
<polygon fill="midnightblue" stroke="midnightblue" points="436.82,-26.7075 443.539,-18.5154 433.178,-20.7296 436.82,-26.7075"/>
</g>
<!-- Node10&#45;&gt;Node5 -->
<g id="edge14" class="edge"><title>Node10&#45;&gt;Node5</title>
<path fill="none" stroke="midnightblue" d="M422.985,-21.6497C385.278,-33.8617 328.883,-52.1261 301.136,-61.1123"/>
<polygon fill="midnightblue" stroke="midnightblue" points="424.177,-24.9427 432.612,-18.5318 422.02,-18.2832 424.177,-24.9427"/>
</g>
</g>
</svg>
        <g id="navigator" transform="translate(0 0)" fill="#404254">
                <rect fill="#f2f5e9" fill-opacity="0.5" stroke="#606060" stroke-width=".5" x="0" y="0" width="60" height="60"/>
                <use id="zoomplus" xlink:href="#zoomPlus" x="17" y="9" onmousedown="handleZoom(evt,'in')"/>
                <use id="zoomminus" xlink:href="#zoomMin" x="42" y="9" onmousedown="handleZoom(evt,'out')"/>
                <use id="reset" xlink:href="#resetDef" x="30" y="36" onmousedown="handleReset()"/>
                <g id="arrowUp" xlink:href="#dirArrow" transform="translate(30 24)" onmousedown="handlePan(0,-1)">
                  <use xlink:href="#rim" fill="#404040">
                        <set attributeName="fill" to="#808080" begin="arrowUp.mouseover" end="arrowUp.mouseout"/>
                  </use>
                  <path fill="none" stroke="white" stroke-width="1.5" d="M0,-3.0v7 M-2.5,-0.5L0,-3.0L2.5,-0.5"/>
                </g>
                <g id="arrowRight" xlink:href="#dirArrow" transform="rotate(90) translate(36 -43)" onmousedown="handlePan(1,0)">
                  <use xlink:href="#rim" fill="#404040">
                        <set attributeName="fill" to="#808080" begin="arrowRight.mouseover" end="arrowRight.mouseout"/>
                  </use>
                  <path fill="none" stroke="white" stroke-width="1.5" d="M0,-3.0v7 M-2.5,-0.5L0,-3.0L2.5,-0.5"/>
                </g>
                <g id="arrowDown" xlink:href="#dirArrow" transform="rotate(180) translate(-30 -48)" onmousedown="handlePan(0,1)">
                  <use xlink:href="#rim" fill="#404040">
                        <set attributeName="fill" to="#808080" begin="arrowDown.mouseover" end="arrowDown.mouseout"/>
                  </use>
                  <path fill="none" stroke="white" stroke-width="1.5" d="M0,-3.0v7 M-2.5,-0.5L0,-3.0L2.5,-0.5"/>
                </g>
                <g id="arrowLeft" xlink:href="#dirArrow" transform="rotate(270) translate(-36 17)" onmousedown="handlePan(-1,0)">
                  <use xlink:href="#rim" fill="#404040">
                        <set attributeName="fill" to="#808080" begin="arrowLeft.mouseover" end="arrowLeft.mouseout"/>
                  </use>
                  <path fill="none" stroke="white" stroke-width="1.5" d="M0,-3.0v7 M-2.5,-0.5L0,-3.0L2.5,-0.5"/>
                </g>
        </g>
        <svg viewBox="0 0 15 15" width="100%" height="30px" preserveAspectRatio="xMaxYMin meet">
         <g id="arrow_out" transform="scale(0.3 0.3)">
          <a xlink:href="main_8h_ad7eb7423e0b17ccfba1ae42f3a3274e0_icgraph_org.svg" target="_base">
           <rect id="button" ry="5" rx="5" y="6" x="6" height="38" width="38"
                fill="#f2f5e9" fill-opacity="0.5" stroke="#606060" stroke-width="1.0"/>
           <path id="arrow"
             d="M 11.500037,31.436501 C 11.940474,20.09759 22.043105,11.32322 32.158766,21.979434 L 37.068811,17.246167 C 37.068811,17.246167 37.088388,32 37.088388,32 L 22.160133,31.978069 C 22.160133,31.978069 26.997745,27.140456 26.997745,27.140456 C 18.528582,18.264221 13.291696,25.230495 11.500037,31.436501 z"
             style="fill:#404040;"/>
          </a>
         </g>
        </svg>
</svg>
