<?xml version="1.0" encoding="UTF-8" standalone="no"?>
<!DOCTYPE svg PUBLIC "-//W3C//DTD SVG 1.1//EN"
 "http://www.w3.org/Graphics/SVG/1.1/DTD/svg11.dtd">
<!-- Generated by graphviz version 2.38.0 (20140413.2041)
 -->
<!-- Title: coarse_tune Pages: 1 -->
<svg width="1082pt" height="516pt"
 viewBox="0.00 0.00 1082.00 516.00" xmlns="http://www.w3.org/2000/svg" xmlns:xlink="http://www.w3.org/1999/xlink">
<g id="graph0" class="graph" transform="scale(1 1) rotate(0) translate(4 512)">
<title>coarse_tune</title>
<!-- Node1 -->
<g id="node1" class="node"><title>Node1</title>
<g id="a_node1"><a xlink:title=" ">
<polygon fill="#bfbfbf" stroke="black" points="0,-94.5 0,-112.5 67,-112.5 67,-94.5 0,-94.5"/>
<text text-anchor="middle" x="33.5" y="-101.3" font-family="Calibri" font-size="9.00">coarse_tune</text>
</a>
</g>
</g>
<!-- Node2 -->
<g id="node2" class="node"><title>Node2</title>
<g id="a_node2"><a xlink:href="main_8h.html#a740ef1b33bb02cd952ad7d8708999472" target="_top" xlink:title=" ">
<polygon fill="none" stroke="black" points="103,-75.5 103,-93.5 165,-93.5 165,-75.5 103,-75.5"/>
<text text-anchor="middle" x="134" y="-82.3" font-family="Calibri" font-size="9.00">coarse_cap</text>
</a>
</g>
</g>
<!-- Node1&#45;&gt;Node2 -->
<g id="edge1" class="edge"><title>Node1&#45;&gt;Node2</title>
<path fill="none" stroke="midnightblue" d="M67.0256,-97.226C75.3225,-95.6256 84.3381,-93.8866 92.9627,-92.2229"/>
<polygon fill="midnightblue" stroke="midnightblue" points="93.6853,-95.6482 102.841,-90.3174 92.3594,-88.7749 93.6853,-95.6482"/>
</g>
<!-- Node3 -->
<g id="node3" class="node"><title>Node3</title>
<g id="a_node3"><a xlink:href="main_8h.html#ad7eb7423e0b17ccfba1ae42f3a3274e0" target="_top" xlink:title=" ">
<polygon fill="none" stroke="black" points="201,-189.5 201,-207.5 249,-207.5 249,-189.5 201,-189.5"/>
<text text-anchor="middle" x="225" y="-196.3" font-family="Calibri" font-size="9.00">get_swr</text>
</a>
</g>
</g>
<!-- Node1&#45;&gt;Node3 -->
<g id="edge50" class="edge"><title>Node1&#45;&gt;Node3</title>
<path fill="none" stroke="midnightblue" d="M52.6701,-112.609C86.0615,-129.349 157.353,-165.089 196.631,-184.78"/>
<polygon fill="midnightblue" stroke="midnightblue" points="195.377,-188.066 205.885,-189.419 198.514,-181.808 195.377,-188.066"/>
</g>
<!-- Node20 -->
<g id="node20" class="node"><title>Node20</title>
<g id="a_node20"><a xlink:href="main_8h.html#a2a7963b9b09696c6654b96c67900c6ea" target="_top" xlink:title=" ">
<polygon fill="none" stroke="black" points="488.5,-0.5 488.5,-18.5 536.5,-18.5 536.5,-0.5 488.5,-0.5"/>
<text text-anchor="middle" x="512.5" y="-7.3" font-family="Calibri" font-size="9.00">set_cap</text>
</a>
</g>
</g>
<!-- Node1&#45;&gt;Node20 -->
<g id="edge51" class="edge"><title>Node1&#45;&gt;Node20</title>
<path fill="none" stroke="midnightblue" d="M44.2972,-94.391C70.9377,-70.6133 147.82,-8.5 224,-8.5 224,-8.5 224,-8.5 318,-8.5 374.194,-8.5 439.567,-8.92695 478.131,-9.2229"/>
<polygon fill="midnightblue" stroke="midnightblue" points="478.24,-12.7238 488.268,-9.30243 478.295,-5.72398 478.24,-12.7238"/>
</g>
<!-- Node21 -->
<g id="node21" class="node"><title>Node21</title>
<g id="a_node21"><a xlink:href="main_8h.html#aecc83cd8bceb4bc24be844732ead2c2c" target="_top" xlink:title=" ">
<polygon fill="none" stroke="black" points="489,-76.5 489,-94.5 536,-94.5 536,-76.5 489,-76.5"/>
<text text-anchor="middle" x="512.5" y="-83.3" font-family="Calibri" font-size="9.00">set_ind</text>
</a>
</g>
</g>
<!-- Node1&#45;&gt;Node21 -->
<g id="edge52" class="edge"><title>Node1&#45;&gt;Node21</title>
<path fill="none" stroke="midnightblue" d="M67.2648,-108.793C104.965,-114.415 168.783,-122.5 224,-122.5 224,-122.5 224,-122.5 318,-122.5 375.368,-122.5 440.627,-106.617 478.811,-95.6632"/>
<polygon fill="midnightblue" stroke="midnightblue" points="480.223,-98.8962 488.833,-92.7218 478.252,-92.1795 480.223,-98.8962"/>
</g>
<!-- Node2&#45;&gt;Node3 -->
<g id="edge2" class="edge"><title>Node2&#45;&gt;Node3</title>
<path fill="none" stroke="midnightblue" d="M142.283,-93.8291C157.221,-112.963 191.521,-156.898 210.592,-181.325"/>
<polygon fill="midnightblue" stroke="midnightblue" points="207.952,-183.632 216.865,-189.361 213.47,-179.324 207.952,-183.632"/>
</g>
<!-- Node2&#45;&gt;Node20 -->
<g id="edge49" class="edge"><title>Node2&#45;&gt;Node20</title>
<path fill="none" stroke="midnightblue" d="M165.174,-78.4892C234.694,-64.6405 405.722,-30.5714 478.189,-16.1357"/>
<polygon fill="midnightblue" stroke="midnightblue" points="479.018,-19.5394 488.142,-14.1531 477.65,-12.6743 479.018,-19.5394"/>
</g>
<!-- Node4 -->
<g id="node4" class="node"><title>Node4</title>
<g id="a_node4"><a xlink:href="main_8h.html#ab37ca657b79c6b9176cb63e9d812a182" target="_top" xlink:title=" ">
<polygon fill="none" stroke="black" points="488,-416.5 488,-434.5 537,-434.5 537,-416.5 488,-416.5"/>
<text text-anchor="middle" x="512.5" y="-423.3" font-family="Calibri" font-size="9.00">get_pwr</text>
</a>
</g>
</g>
<!-- Node3&#45;&gt;Node4 -->
<g id="edge3" class="edge"><title>Node3&#45;&gt;Node4</title>
<path fill="none" stroke="midnightblue" d="M229.844,-207.749C237.87,-226.212 257.938,-268.206 285,-295.5 342.371,-353.362 430.817,-394.052 478.433,-413.163"/>
<polygon fill="midnightblue" stroke="midnightblue" points="477.362,-416.503 487.949,-416.912 479.928,-409.99 477.362,-416.503"/>
</g>
<!-- Node8 -->
<g id="node8" class="node"><title>Node8</title>
<g id="a_node8"><a xlink:href="main_8c.html#a4ae0d4fa97fc0ca3611813fee4f9af7c" target="_top" xlink:title=" ">
<polygon fill="none" stroke="black" points="483.5,-340.5 483.5,-358.5 541.5,-358.5 541.5,-340.5 483.5,-340.5"/>
<text text-anchor="middle" x="512.5" y="-347.3" font-family="Calibri" font-size="9.00">show_pwr</text>
</a>
</g>
</g>
<!-- Node3&#45;&gt;Node8 -->
<g id="edge7" class="edge"><title>Node3&#45;&gt;Node8</title>
<path fill="none" stroke="midnightblue" d="M234.259,-207.664C256.212,-231.395 318.87,-295.113 385,-325.5 412.939,-338.338 447.374,-344.309 473.259,-347.086"/>
<polygon fill="midnightblue" stroke="midnightblue" points="473.143,-350.591 483.432,-348.061 473.811,-343.623 473.143,-350.591"/>
</g>
<!-- Node17 -->
<g id="node17" class="node"><title>Node17</title>
<g id="a_node17"><a xlink:href="main_8c.html#a11724d8cce81ed96bec12a004ea3ea7a" target="_top" xlink:title=" ">
<polygon fill="none" stroke="black" points="285,-189.5 285,-207.5 349,-207.5 349,-189.5 285,-189.5"/>
<text text-anchor="middle" x="317" y="-196.3" font-family="Calibri" font-size="9.00">show_reset</text>
</a>
</g>
</g>
<!-- Node3&#45;&gt;Node17 -->
<g id="edge22" class="edge"><title>Node3&#45;&gt;Node17</title>
<path fill="none" stroke="midnightblue" d="M249.177,-198.5C256.964,-198.5 265.9,-198.5 274.651,-198.5"/>
<polygon fill="midnightblue" stroke="midnightblue" points="274.759,-202 284.759,-198.5 274.759,-195 274.759,-202"/>
</g>
<!-- Node5 -->
<g id="node5" class="node"><title>Node5</title>
<g id="a_node5"><a xlink:href="main_8h.html#ab19e6e081315a9a200394b74d10de395" target="_top" xlink:title=" ">
<polygon fill="none" stroke="black" points="588,-489.5 588,-507.5 645,-507.5 645,-489.5 588,-489.5"/>
<text text-anchor="middle" x="616.5" y="-496.3" font-family="Calibri" font-size="9.00">correction</text>
</a>
</g>
</g>
<!-- Node4&#45;&gt;Node5 -->
<g id="edge4" class="edge"><title>Node4&#45;&gt;Node5</title>
<path fill="none" stroke="midnightblue" d="M524.128,-434.575C537.623,-445.911 561.826,-465.626 584,-480.5 585.87,-481.754 587.832,-483.009 589.824,-484.24"/>
<polygon fill="midnightblue" stroke="midnightblue" points="588.166,-487.326 598.555,-489.408 591.732,-481.302 588.166,-487.326"/>
</g>
<!-- Node6 -->
<g id="node6" class="node"><title>Node6</title>
<g id="a_node6"><a xlink:href="main_8h.html#acfd46f8711e9c1c20fffdfc8bdaa0ddd" target="_top" xlink:title=" ">
<polygon fill="none" stroke="black" points="584,-452.5 584,-470.5 649,-470.5 649,-452.5 584,-452.5"/>
<text text-anchor="middle" x="616.5" y="-459.3" font-family="Calibri" font-size="9.00">get_forward</text>
</a>
</g>
</g>
<!-- Node4&#45;&gt;Node6 -->
<g id="edge5" class="edge"><title>Node4&#45;&gt;Node6</title>
<path fill="none" stroke="midnightblue" d="M537.157,-433.85C549.972,-438.373 566.057,-444.05 580.313,-449.081"/>
<polygon fill="midnightblue" stroke="midnightblue" points="579.232,-452.411 589.827,-452.439 581.562,-445.81 579.232,-452.411"/>
</g>
<!-- Node7 -->
<g id="node7" class="node"><title>Node7</title>
<g id="a_node7"><a xlink:href="main_8h.html#aa6b9a2b3d88f578ba6a9fefd911eae75" target="_top" xlink:title=" ">
<polygon fill="none" stroke="black" points="584.5,-415.5 584.5,-433.5 648.5,-433.5 648.5,-415.5 584.5,-415.5"/>
<text text-anchor="middle" x="616.5" y="-422.3" font-family="Calibri" font-size="9.00">get_reverse</text>
</a>
</g>
</g>
<!-- Node4&#45;&gt;Node7 -->
<g id="edge6" class="edge"><title>Node4&#45;&gt;Node7</title>
<path fill="none" stroke="midnightblue" d="M537.157,-425.268C548.1,-425.161 561.427,-425.03 573.963,-424.907"/>
<polygon fill="midnightblue" stroke="midnightblue" points="574.273,-428.404 584.238,-424.806 574.204,-421.405 574.273,-428.404"/>
</g>
<!-- Node9 -->
<g id="node9" class="node"><title>Node9</title>
<g id="a_node9"><a xlink:href="main_8c.html#a6911b3f075cdf1d54cb14f17f6e5ef6b" target="_top" xlink:title=" ">
<polygon fill="none" stroke="black" points="593,-378.5 593,-396.5 640,-396.5 640,-378.5 593,-378.5"/>
<text text-anchor="middle" x="616.5" y="-385.3" font-family="Calibri" font-size="9.00">lcd_ind</text>
</a>
</g>
</g>
<!-- Node8&#45;&gt;Node9 -->
<g id="edge8" class="edge"><title>Node8&#45;&gt;Node9</title>
<path fill="none" stroke="midnightblue" d="M537.673,-358.505C551.266,-363.57 568.415,-369.959 583.153,-375.449"/>
<polygon fill="midnightblue" stroke="midnightblue" points="582.306,-378.868 592.898,-379.08 584.75,-372.309 582.306,-378.868"/>
</g>
<!-- Node10 -->
<g id="node10" class="node"><title>Node10</title>
<g id="a_node10"><a xlink:href="oled__control_8c.html#a1c8eef09adf01c9a7e3c6188f25c3c48" target="_top" xlink:title=" ">
<polygon fill="none" stroke="black" points="685,-297.5 685,-315.5 744,-315.5 744,-297.5 685,-297.5"/>
<text text-anchor="middle" x="714.5" y="-304.3" font-family="Calibri" font-size="9.00">led_wr_str</text>
</a>
</g>
</g>
<!-- Node8&#45;&gt;Node10 -->
<g id="edge21" class="edge"><title>Node8&#45;&gt;Node10</title>
<path fill="none" stroke="midnightblue" d="M541.713,-345.439C569.252,-341.256 612.255,-334.138 649,-325.5 657.752,-323.443 667.076,-320.903 675.835,-318.359"/>
<polygon fill="midnightblue" stroke="midnightblue" points="676.836,-321.713 685.424,-315.509 674.841,-315.003 676.836,-321.713"/>
</g>
<!-- Node9&#45;&gt;Node10 -->
<g id="edge9" class="edge"><title>Node9&#45;&gt;Node10</title>
<path fill="none" stroke="midnightblue" d="M629.928,-378.358C635.79,-373.963 642.836,-368.561 649,-363.5 665.296,-350.121 683.222,-334.175 696.031,-322.556"/>
<polygon fill="midnightblue" stroke="midnightblue" points="698.61,-324.94 703.641,-315.615 693.893,-319.768 698.61,-324.94"/>
</g>
<!-- Node11 -->
<g id="node11" class="node"><title>Node11</title>
<g id="a_node11"><a xlink:href="oled__control_8c.html#a3d35666326cc069eda3b63c70983fdbc" target="_top" xlink:title=" ">
<polygon fill="none" stroke="black" points="894,-244.5 894,-262.5 949,-262.5 949,-244.5 894,-244.5"/>
<text text-anchor="middle" x="921.5" y="-251.3" font-family="Calibri" font-size="9.00">led_send</text>
</a>
</g>
</g>
<!-- Node10&#45;&gt;Node11 -->
<g id="edge10" class="edge"><title>Node10&#45;&gt;Node11</title>
<path fill="none" stroke="midnightblue" d="M744.312,-297.685C755.43,-294.369 768.274,-290.644 780,-287.5 815.19,-278.065 855.651,-268.397 884.088,-261.795"/>
<polygon fill="midnightblue" stroke="midnightblue" points="885.034,-265.169 893.989,-259.507 883.458,-258.348 885.034,-265.169"/>
</g>
<!-- Node15 -->
<g id="node15" class="node"><title>Node15</title>
<g id="a_node15"><a xlink:href="oled__control_8c.html#a6e85fd05697e2238e4d9babf1c952772" target="_top" xlink:title=" ">
<polygon fill="none" stroke="black" points="780,-297.5 780,-315.5 845,-315.5 845,-297.5 780,-297.5"/>
<text text-anchor="middle" x="812.5" y="-304.3" font-family="Calibri" font-size="9.00">oled_wr_str</text>
</a>
</g>
</g>
<!-- Node10&#45;&gt;Node15 -->
<g id="edge14" class="edge"><title>Node10&#45;&gt;Node15</title>
<path fill="none" stroke="midnightblue" d="M744.043,-306.5C752.147,-306.5 761.142,-306.5 769.852,-306.5"/>
<polygon fill="midnightblue" stroke="midnightblue" points="769.877,-310 779.877,-306.5 769.877,-303 769.877,-310"/>
</g>
<!-- Node12 -->
<g id="node12" class="node"><title>Node12</title>
<g id="a_node12"><a xlink:href="oled__control_8c.html#ab7f6b5c6c1483f6286f2de5786c028d9" target="_top" xlink:title=" ">
<polygon fill="none" stroke="black" points="1000,-310.5 1000,-328.5 1072,-328.5 1072,-310.5 1000,-310.5"/>
<text text-anchor="middle" x="1036" y="-317.3" font-family="Calibri" font-size="9.00">Soft_I2C_Start</text>
</a>
</g>
</g>
<!-- Node11&#45;&gt;Node12 -->
<g id="edge11" class="edge"><title>Node11&#45;&gt;Node12</title>
<path fill="none" stroke="midnightblue" d="M938.143,-262.677C956.949,-273.71 988.724,-292.351 1010.73,-305.259"/>
<polygon fill="midnightblue" stroke="midnightblue" points="1009.09,-308.36 1019.49,-310.401 1012.64,-302.322 1009.09,-308.36"/>
</g>
<!-- Node13 -->
<g id="node13" class="node"><title>Node13</title>
<g id="a_node13"><a xlink:href="oled__control_8c.html#a16eb842aa672ca44820ae6d5f9933425" target="_top" xlink:title=" ">
<polygon fill="none" stroke="black" points="1000.5,-207.5 1000.5,-225.5 1071.5,-225.5 1071.5,-207.5 1000.5,-207.5"/>
<text text-anchor="middle" x="1036" y="-214.3" font-family="Calibri" font-size="9.00">Soft_I2C_Stop</text>
</a>
</g>
</g>
<!-- Node11&#45;&gt;Node13 -->
<g id="edge12" class="edge"><title>Node11&#45;&gt;Node13</title>
<path fill="none" stroke="midnightblue" d="M949.161,-244.732C963.689,-239.953 981.899,-233.964 997.804,-228.733"/>
<polygon fill="midnightblue" stroke="midnightblue" points="998.95,-232.041 1007.36,-225.592 996.763,-225.391 998.95,-232.041"/>
</g>
<!-- Node14 -->
<g id="node14" class="node"><title>Node14</title>
<g id="a_node14"><a xlink:href="oled__control_8c.html#a73610916645f17c19124e697b005f694" target="_top" xlink:title=" ">
<polygon fill="none" stroke="black" points="998,-254.5 998,-272.5 1074,-272.5 1074,-254.5 998,-254.5"/>
<text text-anchor="middle" x="1036" y="-261.3" font-family="Calibri" font-size="9.00">Soft_I2C_Write</text>
</a>
</g>
</g>
<!-- Node11&#45;&gt;Node14 -->
<g id="edge13" class="edge"><title>Node11&#45;&gt;Node14</title>
<path fill="none" stroke="midnightblue" d="M949.161,-255.87C960.645,-256.891 974.43,-258.116 987.559,-259.283"/>
<polygon fill="midnightblue" stroke="midnightblue" points="987.62,-262.802 997.891,-260.201 988.24,-255.83 987.62,-262.802"/>
</g>
<!-- Node15&#45;&gt;Node12 -->
<g id="edge18" class="edge"><title>Node15&#45;&gt;Node12</title>
<path fill="none" stroke="midnightblue" d="M824.081,-315.502C836.68,-325.574 858.818,-341.291 881,-347.5 915.668,-357.204 926.602,-354.056 962,-347.5 977.681,-344.596 994.343,-338.46 1007.78,-332.671"/>
<polygon fill="midnightblue" stroke="midnightblue" points="1009.25,-335.851 1016.94,-328.567 1006.38,-329.462 1009.25,-335.851"/>
</g>
<!-- Node15&#45;&gt;Node13 -->
<g id="edge19" class="edge"><title>Node15&#45;&gt;Node13</title>
<path fill="none" stroke="midnightblue" d="M817.76,-297.281C829.162,-273.058 860.874,-208.709 881,-197.5 920.458,-175.524 974.284,-190.482 1006.74,-203.422"/>
<polygon fill="midnightblue" stroke="midnightblue" points="1005.5,-206.701 1016.08,-207.33 1008.21,-200.243 1005.5,-206.701"/>
</g>
<!-- Node15&#45;&gt;Node14 -->
<g id="edge20" class="edge"><title>Node15&#45;&gt;Node14</title>
<path fill="none" stroke="midnightblue" d="M845.236,-300.339C882.556,-293.094 944.856,-281 987.834,-272.656"/>
<polygon fill="midnightblue" stroke="midnightblue" points="988.626,-276.068 997.776,-270.726 987.292,-269.196 988.626,-276.068"/>
</g>
<!-- Node16 -->
<g id="node16" class="node"><title>Node16</title>
<g id="a_node16"><a xlink:href="oled__control_8c.html#a3cf32ac4d3d7c92be54c385c1ed8cc76" target="_top" xlink:title=" ">
<polygon fill="none" stroke="black" points="881.5,-320.5 881.5,-338.5 961.5,-338.5 961.5,-320.5 881.5,-320.5"/>
<text text-anchor="middle" x="921.5" y="-327.3" font-family="Calibri" font-size="9.00">set_addressing</text>
</a>
</g>
</g>
<!-- Node15&#45;&gt;Node16 -->
<g id="edge15" class="edge"><title>Node15&#45;&gt;Node16</title>
<path fill="none" stroke="midnightblue" d="M845.025,-313.276C853.266,-315.048 862.349,-317 871.273,-318.918"/>
<polygon fill="midnightblue" stroke="midnightblue" points="870.715,-322.378 881.227,-321.058 872.186,-315.535 870.715,-322.378"/>
</g>
<!-- Node16&#45;&gt;Node12 -->
<g id="edge16" class="edge"><title>Node16&#45;&gt;Node12</title>
<path fill="none" stroke="midnightblue" d="M961.531,-326.031C970.569,-325.227 980.262,-324.366 989.548,-323.54"/>
<polygon fill="midnightblue" stroke="midnightblue" points="990.151,-327 999.802,-322.629 989.531,-320.028 990.151,-327"/>
</g>
<!-- Node16&#45;&gt;Node14 -->
<g id="edge17" class="edge"><title>Node16&#45;&gt;Node14</title>
<path fill="none" stroke="midnightblue" d="M938.143,-320.323C956.949,-309.29 988.724,-290.649 1010.73,-277.741"/>
<polygon fill="midnightblue" stroke="midnightblue" points="1012.64,-280.678 1019.49,-272.599 1009.09,-274.64 1012.64,-280.678"/>
</g>
<!-- Node17&#45;&gt;Node9 -->
<g id="edge29" class="edge"><title>Node17&#45;&gt;Node9</title>
<path fill="none" stroke="midnightblue" d="M320.594,-207.769C327.434,-230.669 348.027,-290.583 385,-325.5 439.874,-377.322 533.342,-386.788 582.71,-387.937"/>
<polygon fill="midnightblue" stroke="midnightblue" points="582.788,-391.438 592.833,-388.069 582.879,-384.438 582.788,-391.438"/>
</g>
<!-- Node17&#45;&gt;Node10 -->
<g id="edge47" class="edge"><title>Node17&#45;&gt;Node10</title>
<path fill="none" stroke="midnightblue" d="M336.798,-207.526C379.533,-227.555 487.741,-275.521 584,-295.5 614.097,-301.747 648.834,-304.46 674.75,-305.632"/>
<polygon fill="midnightblue" stroke="midnightblue" points="674.794,-309.136 684.924,-306.033 675.07,-302.141 674.794,-309.136"/>
</g>
<!-- Node18 -->
<g id="node18" class="node"><title>Node18</title>
<g id="a_node18"><a xlink:href="main_8h.html#a9dff326a6079fe726285b11ee837ad60" target="_top" xlink:title=" ">
<polygon fill="none" stroke="black" points="385,-75.5 385,-93.5 441,-93.5 441,-75.5 385,-75.5"/>
<text text-anchor="middle" x="413" y="-82.3" font-family="Calibri" font-size="9.00">atu_reset</text>
</a>
</g>
</g>
<!-- Node17&#45;&gt;Node18 -->
<g id="edge23" class="edge"><title>Node17&#45;&gt;Node18</title>
<path fill="none" stroke="midnightblue" d="M325.692,-189.171C341.469,-170.037 377.696,-126.102 397.839,-101.675"/>
<polygon fill="midnightblue" stroke="midnightblue" points="400.803,-103.581 404.464,-93.6394 395.402,-99.1282 400.803,-103.581"/>
</g>
<!-- Node22 -->
<g id="node22" class="node"><title>Node22</title>
<g id="a_node22"><a xlink:href="main_8c.html#ae5a14b4884e85f47ad8a4a716f13203a" target="_top" xlink:title=" ">
<polygon fill="none" stroke="black" points="389,-189.5 389,-207.5 437,-207.5 437,-189.5 389,-189.5"/>
<text text-anchor="middle" x="413" y="-196.3" font-family="Calibri" font-size="9.00">lcd_pwr</text>
</a>
</g>
</g>
<!-- Node17&#45;&gt;Node22 -->
<g id="edge30" class="edge"><title>Node17&#45;&gt;Node22</title>
<path fill="none" stroke="midnightblue" d="M349.04,-198.5C358.543,-198.5 369.035,-198.5 378.684,-198.5"/>
<polygon fill="midnightblue" stroke="midnightblue" points="378.737,-202 388.737,-198.5 378.737,-195 378.737,-202"/>
</g>
<!-- Node27 -->
<g id="node27" class="node"><title>Node27</title>
<g id="a_node27"><a xlink:href="main_8h.html#aa3ee146d5fca99f368e8ddb5d5dd72cb" target="_top" xlink:title="Set the state of the switch.">
<polygon fill="none" stroke="black" points="490,-113.5 490,-131.5 535,-131.5 535,-113.5 490,-113.5"/>
<text text-anchor="middle" x="512.5" y="-120.3" font-family="Calibri" font-size="9.00">set_sw</text>
</a>
</g>
</g>
<!-- Node17&#45;&gt;Node27 -->
<g id="edge48" class="edge"><title>Node17&#45;&gt;Node27</title>
<path fill="none" stroke="midnightblue" d="M340.957,-189.483C375.51,-175.912 440.981,-150.197 479.981,-134.88"/>
<polygon fill="midnightblue" stroke="midnightblue" points="481.733,-137.952 489.761,-131.038 479.174,-131.436 481.733,-137.952"/>
</g>
<!-- Node19 -->
<g id="node19" class="node"><title>Node19</title>
<g id="a_node19"><a xlink:href="main_8h.html#a85fb3ccca120f3b843a1dc7567908a04" target="_top" xlink:title=" ">
<polygon fill="none" stroke="black" points="588.5,-57.5 588.5,-75.5 644.5,-75.5 644.5,-57.5 588.5,-57.5"/>
<text text-anchor="middle" x="616.5" y="-64.3" font-family="Calibri" font-size="9.00">delay_ms</text>
</a>
</g>
</g>
<!-- Node18&#45;&gt;Node19 -->
<g id="edge24" class="edge"><title>Node18&#45;&gt;Node19</title>
<path fill="none" stroke="midnightblue" d="M439.399,-75.4986C450.747,-71.9333 464.383,-68.2671 477,-66.5 510.995,-61.7388 550.147,-62.2879 578.131,-63.7052"/>
<polygon fill="midnightblue" stroke="midnightblue" points="578.093,-67.2086 588.276,-64.2817 578.49,-60.2199 578.093,-67.2086"/>
</g>
<!-- Node18&#45;&gt;Node20 -->
<g id="edge25" class="edge"><title>Node18&#45;&gt;Node20</title>
<path fill="none" stroke="midnightblue" d="M424.959,-75.2234C437.377,-64.8076 458.321,-47.5282 477,-33.5 481.018,-30.4821 485.372,-27.3509 489.589,-24.3858"/>
<polygon fill="midnightblue" stroke="midnightblue" points="491.679,-27.1958 497.903,-18.6223 487.691,-21.4429 491.679,-27.1958"/>
</g>
<!-- Node18&#45;&gt;Node21 -->
<g id="edge27" class="edge"><title>Node18&#45;&gt;Node21</title>
<path fill="none" stroke="midnightblue" d="M441.159,-84.7786C452.752,-84.8975 466.385,-85.0373 478.548,-85.162"/>
<polygon fill="midnightblue" stroke="midnightblue" points="478.734,-88.664 488.769,-85.2669 478.806,-81.6644 478.734,-88.664"/>
</g>
<!-- Node20&#45;&gt;Node19 -->
<g id="edge26" class="edge"><title>Node20&#45;&gt;Node19</title>
<path fill="none" stroke="midnightblue" d="M529.888,-18.658C546.171,-27.7575 571.367,-41.8377 590.216,-52.3708"/>
<polygon fill="midnightblue" stroke="midnightblue" points="588.716,-55.5417 599.153,-57.3647 592.131,-49.4311 588.716,-55.5417"/>
</g>
<!-- Node21&#45;&gt;Node19 -->
<g id="edge28" class="edge"><title>Node21&#45;&gt;Node19</title>
<path fill="none" stroke="midnightblue" d="M536.137,-81.2833C548.511,-78.9784 564.151,-76.065 578.269,-73.4352"/>
<polygon fill="midnightblue" stroke="midnightblue" points="579.022,-76.8552 588.212,-71.5831 577.74,-69.9736 579.022,-76.8552"/>
</g>
<!-- Node22&#45;&gt;Node4 -->
<g id="edge38" class="edge"><title>Node22&#45;&gt;Node4</title>
<path fill="none" stroke="midnightblue" d="M416.732,-207.529C424.628,-233.186 448.728,-308.479 477,-367.5 483.722,-381.534 492.755,-396.617 499.892,-407.883"/>
<polygon fill="midnightblue" stroke="midnightblue" points="496.987,-409.836 505.349,-416.343 502.869,-406.042 496.987,-409.836"/>
</g>
<!-- Node22&#45;&gt;Node8 -->
<g id="edge46" class="edge"><title>Node22&#45;&gt;Node8</title>
<path fill="none" stroke="midnightblue" d="M420.099,-207.946C436.043,-232.638 479.164,-299.42 499.966,-331.638"/>
<polygon fill="midnightblue" stroke="midnightblue" points="497.286,-333.939 505.651,-340.442 503.167,-330.142 497.286,-333.939"/>
</g>
<!-- Node22&#45;&gt;Node10 -->
<g id="edge41" class="edge"><title>Node22&#45;&gt;Node10</title>
<path fill="none" stroke="midnightblue" d="M428.875,-207.583C441.394,-214.967 459.936,-225.304 477,-232.5 544.77,-261.078 627.494,-284.488 674.978,-296.888"/>
<polygon fill="midnightblue" stroke="midnightblue" points="674.284,-300.323 684.842,-299.437 676.036,-293.546 674.284,-300.323"/>
</g>
<!-- Node22&#45;&gt;Node20 -->
<g id="edge42" class="edge"><title>Node22&#45;&gt;Node20</title>
<path fill="none" stroke="midnightblue" d="M417.976,-189.384C427.499,-167.73 452.643,-111.642 477,-66.5 484.222,-53.1149 493.126,-38.4429 500.08,-27.3368"/>
<polygon fill="midnightblue" stroke="midnightblue" points="503.208,-28.9389 505.597,-18.6169 497.292,-25.1962 503.208,-28.9389"/>
</g>
<!-- Node22&#45;&gt;Node21 -->
<g id="edge43" class="edge"><title>Node22&#45;&gt;Node21</title>
<path fill="none" stroke="midnightblue" d="M418.142,-189.287C426.78,-170.927 448.322,-129.323 477,-103.5 478.312,-102.319 479.715,-101.192 481.177,-100.119"/>
<polygon fill="midnightblue" stroke="midnightblue" points="483.373,-102.873 489.976,-94.5871 479.647,-96.947 483.373,-102.873"/>
</g>
<!-- Node23 -->
<g id="node23" class="node"><title>Node23</title>
<g id="a_node23"><a xlink:href="main_8c.html#a593218c5fe00b499d494826fc0aa5279" target="_top" xlink:title=" ">
<polygon fill="none" stroke="black" points="477,-150.5 477,-168.5 548,-168.5 548,-150.5 477,-150.5"/>
<text text-anchor="middle" x="512.5" y="-157.3" font-family="Calibri" font-size="9.00">button_delay</text>
</a>
</g>
</g>
<!-- Node22&#45;&gt;Node23 -->
<g id="edge31" class="edge"><title>Node22&#45;&gt;Node23</title>
<path fill="none" stroke="midnightblue" d="M436.614,-189.455C449.32,-184.372 465.39,-177.944 479.383,-172.347"/>
<polygon fill="midnightblue" stroke="midnightblue" points="480.686,-175.595 488.671,-168.631 478.087,-169.096 480.686,-175.595"/>
</g>
<!-- Node24 -->
<g id="node24" class="node"><title>Node24</title>
<g id="a_node24"><a xlink:href="oled__control_8c.html#a5febfdc847aa6f3bc3f3c8f7818b8699" target="_top" xlink:title=" ">
<polygon fill="none" stroke="black" points="781.5,-207.5 781.5,-225.5 843.5,-225.5 843.5,-207.5 781.5,-207.5"/>
<text text-anchor="middle" x="812.5" y="-214.3" font-family="Calibri" font-size="9.00">display_on</text>
</a>
</g>
</g>
<!-- Node22&#45;&gt;Node24 -->
<g id="edge32" class="edge"><title>Node22&#45;&gt;Node24</title>
<path fill="none" stroke="midnightblue" d="M437.089,-199.546C502.397,-202.503 689.034,-210.954 771.498,-214.689"/>
<polygon fill="midnightblue" stroke="midnightblue" points="771.341,-218.185 781.489,-215.141 771.658,-211.192 771.341,-218.185"/>
</g>
<!-- Node26 -->
<g id="node26" class="node"><title>Node26</title>
<g id="a_node26"><a xlink:href="main_8c.html#aa8fd50019a763561abc6621bb224417f" target="_top" xlink:title=" ">
<polygon fill="none" stroke="black" points="593,-226.5 593,-244.5 640,-244.5 640,-226.5 593,-226.5"/>
<text text-anchor="middle" x="616.5" y="-233.3" font-family="Calibri" font-size="9.00">lcd_swr</text>
</a>
</g>
</g>
<!-- Node22&#45;&gt;Node26 -->
<g id="edge39" class="edge"><title>Node22&#45;&gt;Node26</title>
<path fill="none" stroke="midnightblue" d="M437.005,-203.431C448.923,-205.939 463.724,-208.981 477,-211.5 513.141,-218.358 554.742,-225.461 582.841,-230.143"/>
<polygon fill="midnightblue" stroke="midnightblue" points="582.472,-233.629 592.91,-231.813 583.618,-226.724 582.472,-233.629"/>
</g>
<!-- Node22&#45;&gt;Node27 -->
<g id="edge44" class="edge"><title>Node22&#45;&gt;Node27</title>
<path fill="none" stroke="midnightblue" d="M424.322,-189.455C429.381,-184.989 435.544,-179.5 441,-174.5 457.226,-159.632 459.074,-153.267 477,-140.5 478.833,-139.194 480.773,-137.924 482.762,-136.701"/>
<polygon fill="midnightblue" stroke="midnightblue" points="484.631,-139.665 491.605,-131.689 481.18,-133.575 484.631,-139.665"/>
</g>
<!-- Node24&#45;&gt;Node11 -->
<g id="edge33" class="edge"><title>Node24&#45;&gt;Node11</title>
<path fill="none" stroke="midnightblue" d="M839.675,-225.551C853.147,-230.21 869.779,-235.961 884.447,-241.033"/>
<polygon fill="midnightblue" stroke="midnightblue" points="883.629,-244.454 894.224,-244.414 885.917,-237.838 883.629,-244.454"/>
</g>
<!-- Node25 -->
<g id="node25" class="node"><title>Node25</title>
<g id="a_node25"><a xlink:href="oled__control_8c.html#a78a346ba6e89c3140dd554a46e56c719" target="_top" xlink:title=" ">
<polygon fill="none" stroke="black" points="881,-207.5 881,-225.5 962,-225.5 962,-207.5 881,-207.5"/>
<text text-anchor="middle" x="921.5" y="-214.3" font-family="Calibri" font-size="9.00">send_command</text>
</a>
</g>
</g>
<!-- Node24&#45;&gt;Node25 -->
<g id="edge34" class="edge"><title>Node24&#45;&gt;Node25</title>
<path fill="none" stroke="midnightblue" d="M843.59,-216.5C851.944,-216.5 861.245,-216.5 870.413,-216.5"/>
<polygon fill="midnightblue" stroke="midnightblue" points="870.649,-220 880.649,-216.5 870.649,-213 870.649,-220"/>
</g>
<!-- Node25&#45;&gt;Node12 -->
<g id="edge35" class="edge"><title>Node25&#45;&gt;Node12</title>
<path fill="none" stroke="midnightblue" d="M947.391,-225.591C952.496,-228.057 957.637,-231.027 962,-234.5 982.585,-250.889 980.792,-261.595 998,-281.5 1004.41,-288.91 1011.88,-296.723 1018.42,-303.325"/>
<polygon fill="midnightblue" stroke="midnightblue" points="1016,-305.853 1025.56,-310.421 1020.94,-300.889 1016,-305.853"/>
</g>
<!-- Node25&#45;&gt;Node13 -->
<g id="edge36" class="edge"><title>Node25&#45;&gt;Node13</title>
<path fill="none" stroke="midnightblue" d="M962.163,-216.5C971.172,-216.5 980.804,-216.5 990.016,-216.5"/>
<polygon fill="midnightblue" stroke="midnightblue" points="990.182,-220 1000.18,-216.5 990.182,-213 990.182,-220"/>
</g>
<!-- Node25&#45;&gt;Node14 -->
<g id="edge37" class="edge"><title>Node25&#45;&gt;Node14</title>
<path fill="none" stroke="midnightblue" d="M944.191,-225.562C961.155,-232.649 984.966,-242.597 1003.95,-250.528"/>
<polygon fill="midnightblue" stroke="midnightblue" points="1002.8,-253.84 1013.38,-254.466 1005.5,-247.381 1002.8,-253.84"/>
</g>
<!-- Node26&#45;&gt;Node10 -->
<g id="edge40" class="edge"><title>Node26&#45;&gt;Node10</title>
<path fill="none" stroke="midnightblue" d="M630.05,-244.782C646.093,-256.647 674.073,-277.341 693.174,-291.467"/>
<polygon fill="midnightblue" stroke="midnightblue" points="691.129,-294.308 701.25,-297.44 695.291,-288.68 691.129,-294.308"/>
</g>
<!-- Node27&#45;&gt;Node19 -->
<g id="edge45" class="edge"><title>Node27&#45;&gt;Node19</title>
<path fill="none" stroke="midnightblue" d="M530.343,-113.253C546.608,-104.323 571.449,-90.6848 590.112,-80.4388"/>
<polygon fill="midnightblue" stroke="midnightblue" points="591.889,-83.4559 598.97,-75.5752 588.52,-77.3198 591.889,-83.4559"/>
</g>
</g>
</svg>
