<?xml version="1.0" encoding="UTF-8" standalone="no"?>
<!DOCTYPE svg PUBLIC "-//W3C//DTD SVG 1.1//EN"
 "http://www.w3.org/Graphics/SVG/1.1/DTD/svg11.dtd">
<!-- Generated by graphviz version 2.38.0 (20140413.2041)
 -->
<!-- Title: show_reset Pages: 1 -->
<!--zoomable 231 -->
<svg id="main" version="1.1" xmlns="http://www.w3.org/2000/svg" xmlns:xlink="http://www.w3.org/1999/xlink" xml:space="preserve" onload="init(evt)">
<style type="text/css"><![CDATA[
.edge:hover path { stroke: red; }
.edge:hover polygon { stroke: red; fill: red; }
]]></style>
<script type="text/javascript"><![CDATA[
var edges = document.getElementsByTagName('g');
if (edges && edges.length) {
  for (var i=0;i<edges.length;i++) {
    if (edges[i].id.substr(0,4)=='edge') {
      edges[i].setAttribute('class','edge');
    }
  }
}
]]></script>
        <defs>
                <circle id="rim" cx="0" cy="0" r="7"/>
                <circle id="rim2" cx="0" cy="0" r="3.5"/>
                <g id="zoomPlus">
                        <use xlink:href="#rim" fill="#404040">
                                <set attributeName="fill" to="#808080" begin="zoomplus.mouseover" end="zoomplus.mouseout"/>
                        </use>
                        <path d="M-4,0h8M0,-4v8" fill="none" stroke="white" stroke-width="1.5" pointer-events="none"/>
                </g>
                <g id="zoomMin">
                        <use xlink:href="#rim" fill="#404040">
                                <set attributeName="fill" to="#808080" begin="zoomminus.mouseover" end="zoomminus.mouseout"/>
                        </use>
                        <path d="M-4,0h8" fill="none" stroke="white" stroke-width="1.5" pointer-events="none"/>
                </g>
                <g id="dirArrow">
                        <path fill="none" stroke="white" stroke-width="1.5" d="M0,-3.0v7 M-2.5,-0.5L0,-3.0L2.5,-0.5"/>
                </g>
               <g id="resetDef">
                       <use xlink:href="#rim2" fill="#404040">
                               <set attributeName="fill" to="#808080" begin="reset.mouseover" end="reset.mouseout"/>
                       </use>
               </g>
        </defs>

<script type="text/javascript">
var viewWidth = 785;
var viewHeight = 231;
var sectionId = 'dynsection-47';
</script>
<script xlink:href="svgpan.js"/>
<svg id="graph" class="graph">
<g id="viewport">
<title>show_reset</title>
<!-- Node1 -->
<g id="node1" class="node"><title>Node1</title>
<g id="a_node1"><a xlink:title=" ">
<polygon fill="#bfbfbf" stroke="black" points="713,-156.797 713,-174.797 777,-174.797 777,-156.797 713,-156.797"/>
<text text-anchor="middle" x="745" y="-163.597" font-family="Calibri" font-size="9.00">show_reset</text>
</a>
</g>
</g>
<!-- Node2 -->
<g id="node2" class="node"><title>Node2</title>
<g id="a_node2"><a xlink:href="main_8c.html#a1c9e5d54d8cf7f3d041aa2e0b330b3dd" target="_top" xlink:title="Handle the process of the buttons being pressed.">
<polygon fill="none" stroke="black" points="74,-194.797 74,-212.797 139,-212.797 139,-194.797 74,-194.797"/>
<text text-anchor="middle" x="106.5" y="-201.597" font-family="Calibri" font-size="9.00">button_proc</text>
</a>
</g>
</g>
<!-- Node1&#45;&gt;Node2 -->
<g id="edge1" class="edge"><title>Node1&#45;&gt;Node2</title>
<path fill="none" stroke="midnightblue" d="M717.734,-179.641C683.225,-196.512 620.271,-222.797 563,-222.797 563,-222.797 563,-222.797 282.5,-222.797 232.075,-222.797 173.953,-214.904 139.003,-209.292"/>
<polygon fill="midnightblue" stroke="midnightblue" points="719.716,-182.563 727.089,-174.955 716.581,-176.305 719.716,-182.563"/>
</g>
<!-- Node4 -->
<g id="node4" class="node"><title>Node4</title>
<g id="a_node4"><a xlink:href="main_8h.html#ad7eb7423e0b17ccfba1ae42f3a3274e0" target="_top" xlink:title=" ">
<polygon fill="none" stroke="black" points="629,-99.7966 629,-117.797 677,-117.797 677,-99.7966 629,-99.7966"/>
<text text-anchor="middle" x="653" y="-106.597" font-family="Calibri" font-size="9.00">get_swr</text>
</a>
</g>
</g>
<!-- Node1&#45;&gt;Node4 -->
<g id="edge3" class="edge"><title>Node1&#45;&gt;Node4</title>
<path fill="none" stroke="midnightblue" d="M720.962,-151.206C704.401,-140.717 682.582,-126.899 668.424,-117.932"/>
<polygon fill="midnightblue" stroke="midnightblue" points="719.219,-154.245 729.54,-156.639 722.964,-148.331 719.219,-154.245"/>
</g>
<!-- Node3 -->
<g id="node3" class="node"><title>Node3</title>
<g id="a_node3"><a xlink:href="main_8c.html#acdef7a1fd863a6d3770c1268cb06add3" target="_top" xlink:title=" ">
<polygon fill="none" stroke="black" points="0,-194.797 0,-212.797 38,-212.797 38,-194.797 0,-194.797"/>
<text text-anchor="middle" x="19" y="-201.597" font-family="Calibri" font-size="9.00">main</text>
</a>
</g>
</g>
<!-- Node2&#45;&gt;Node3 -->
<g id="edge2" class="edge"><title>Node2&#45;&gt;Node3</title>
<path fill="none" stroke="midnightblue" d="M63.658,-203.797C54.7022,-203.797 45.6933,-203.797 38.2043,-203.797"/>
<polygon fill="midnightblue" stroke="midnightblue" points="63.663,-207.297 73.663,-203.797 63.6629,-200.297 63.663,-207.297"/>
</g>
<!-- Node5 -->
<g id="node5" class="node"><title>Node5</title>
<g id="a_node5"><a xlink:href="main_8h.html#a740ef1b33bb02cd952ad7d8708999472" target="_top" xlink:title=" ">
<polygon fill="none" stroke="black" points="531,-23.7966 531,-41.7966 593,-41.7966 593,-23.7966 531,-23.7966"/>
<text text-anchor="middle" x="562" y="-30.5966" font-family="Calibri" font-size="9.00">coarse_cap</text>
</a>
</g>
</g>
<!-- Node4&#45;&gt;Node5 -->
<g id="edge4" class="edge"><title>Node4&#45;&gt;Node5</title>
<path fill="none" stroke="midnightblue" d="M634.009,-92.5423C622.421,-82.1728 606.966,-68.5262 593,-56.7966 587.075,-51.8206 580.36,-46.4264 574.787,-42.0146"/>
<polygon fill="midnightblue" stroke="midnightblue" points="631.908,-95.3601 641.686,-99.4394 636.586,-90.1528 631.908,-95.3601"/>
</g>
<!-- Node6 -->
<g id="node6" class="node"><title>Node6</title>
<g id="a_node6"><a xlink:href="main_8h.html#a5c7c60c7d70cf76cc52e87722bb0f614" target="_top" xlink:title=" ">
<polygon fill="none" stroke="black" points="428,-61.7966 428,-79.7966 495,-79.7966 495,-61.7966 428,-61.7966"/>
<text text-anchor="middle" x="461.5" y="-68.5966" font-family="Calibri" font-size="9.00">coarse_tune</text>
</a>
</g>
</g>
<!-- Node4&#45;&gt;Node6 -->
<g id="edge10" class="edge"><title>Node4&#45;&gt;Node6</title>
<path fill="none" stroke="midnightblue" d="M618.632,-102.105C583.84,-95.1287 529.663,-84.2647 495.144,-77.3426"/>
<polygon fill="midnightblue" stroke="midnightblue" points="618.271,-105.603 628.764,-104.137 619.647,-98.7392 618.271,-105.603"/>
</g>
<!-- Node7 -->
<g id="node7" class="node"><title>Node7</title>
<g id="a_node7"><a xlink:href="main_8h.html#a454a7687c8039514766571b23516ca9c" target="_top" xlink:title=" ">
<polygon fill="none" stroke="black" points="337,-61.7966 337,-79.7966 392,-79.7966 392,-61.7966 337,-61.7966"/>
<text text-anchor="middle" x="364.5" y="-68.5966" font-family="Calibri" font-size="9.00">sub_tune</text>
</a>
</g>
</g>
<!-- Node4&#45;&gt;Node7 -->
<g id="edge17" class="edge"><title>Node4&#45;&gt;Node7</title>
<path fill="none" stroke="midnightblue" d="M646.51,-89.9841C638.746,-67.2421 622.149,-30.0068 593,-13.7966 518.449,27.6616 413.558,-36.9092 377.912,-61.7344"/>
<polygon fill="midnightblue" stroke="midnightblue" points="643.188,-91.0853 649.55,-99.5575 649.86,-88.9672 643.188,-91.0853"/>
</g>
<!-- Node8 -->
<g id="node8" class="node"><title>Node8</title>
<g id="a_node8"><a xlink:href="main_8h.html#a1849f2e5bd63d11a7b9549470e287d17" target="_top" xlink:title=" ">
<polygon fill="none" stroke="black" points="266,-137.797 266,-155.797 301,-155.797 301,-137.797 266,-137.797"/>
<text text-anchor="middle" x="283.5" y="-144.597" font-family="Calibri" font-size="9.00">tune</text>
</a>
</g>
</g>
<!-- Node4&#45;&gt;Node8 -->
<g id="edge18" class="edge"><title>Node4&#45;&gt;Node8</title>
<path fill="none" stroke="midnightblue" d="M630.26,-123.442C619.447,-130.165 605.949,-137.747 593,-142.797 486.735,-184.234 449.739,-178.097 337,-160.797 324.879,-158.937 311.53,-155.355 301.326,-152.281"/>
<polygon fill="midnightblue" stroke="midnightblue" points="632.464,-126.186 638.989,-117.839 628.683,-120.295 632.464,-126.186"/>
</g>
<!-- Node10 -->
<g id="node10" class="node"><title>Node10</title>
<g id="a_node10"><a xlink:href="main_8h.html#ab518a3d2c723f12d3af3024a195606ce" target="_top" xlink:title=" ">
<polygon fill="none" stroke="black" points="432,-137.797 432,-155.797 491,-155.797 491,-137.797 432,-137.797"/>
<text text-anchor="middle" x="461.5" y="-144.597" font-family="Calibri" font-size="9.00">sharp_cap</text>
</a>
</g>
</g>
<!-- Node4&#45;&gt;Node10 -->
<g id="edge11" class="edge"><title>Node4&#45;&gt;Node10</title>
<path fill="none" stroke="midnightblue" d="M618.915,-116.961C610.483,-118.956 601.423,-121.024 593,-122.797 558.059,-130.15 517.589,-137.397 491.095,-141.971"/>
<polygon fill="midnightblue" stroke="midnightblue" points="619.895,-120.326 628.803,-114.59 618.263,-113.519 619.895,-120.326"/>
</g>
<!-- Node11 -->
<g id="node11" class="node"><title>Node11</title>
<g id="a_node11"><a xlink:href="main_8h.html#a72210b3ed1d5691c5bbda8c7f1e97197" target="_top" xlink:title=" ">
<polygon fill="none" stroke="black" points="432.5,-99.7966 432.5,-117.797 490.5,-117.797 490.5,-99.7966 432.5,-99.7966"/>
<text text-anchor="middle" x="461.5" y="-106.597" font-family="Calibri" font-size="9.00">sharp_ind</text>
</a>
</g>
</g>
<!-- Node4&#45;&gt;Node11 -->
<g id="edge14" class="edge"><title>Node4&#45;&gt;Node11</title>
<path fill="none" stroke="midnightblue" d="M618.654,-108.797C582.278,-108.797 524.692,-108.797 490.551,-108.797"/>
<polygon fill="midnightblue" stroke="midnightblue" points="618.764,-112.297 628.764,-108.797 618.764,-105.297 618.764,-112.297"/>
</g>
<!-- Node5&#45;&gt;Node6 -->
<g id="edge5" class="edge"><title>Node5&#45;&gt;Node6</title>
<path fill="none" stroke="midnightblue" d="M528.041,-45.5117C514.272,-50.8235 498.589,-56.8739 486.017,-61.7241"/>
<polygon fill="midnightblue" stroke="midnightblue" points="529.587,-48.6669 537.657,-41.8021 527.067,-42.136 529.587,-48.6669"/>
</g>
<!-- Node6&#45;&gt;Node7 -->
<g id="edge6" class="edge"><title>Node6&#45;&gt;Node7</title>
<path fill="none" stroke="midnightblue" d="M417.785,-70.7966C409.104,-70.7966 400.207,-70.7966 392.271,-70.7966"/>
<polygon fill="midnightblue" stroke="midnightblue" points="417.806,-74.2967 427.806,-70.7966 417.806,-67.2967 417.806,-74.2967"/>
</g>
<!-- Node7&#45;&gt;Node8 -->
<g id="edge7" class="edge"><title>Node7&#45;&gt;Node8</title>
<path fill="none" stroke="midnightblue" d="M345.821,-86.6068C342.855,-89.3164 339.825,-92.1209 337,-94.7966 321.539,-109.441 304.054,-126.958 293.671,-137.465"/>
<polygon fill="midnightblue" stroke="midnightblue" points="348.268,-89.1132 353.336,-79.8092 343.572,-83.9219 348.268,-89.1132"/>
</g>
<!-- Node9 -->
<g id="node9" class="node"><title>Node9</title>
<g id="a_node9"><a xlink:href="main_8c.html#af18ed7edda7874a97cacaa11a2759260" target="_top" xlink:title=" ">
<polygon fill="none" stroke="black" points="175,-156.797 175,-174.797 230,-174.797 230,-156.797 175,-156.797"/>
<text text-anchor="middle" x="202.5" y="-163.597" font-family="Calibri" font-size="9.00">btn_push</text>
</a>
</g>
</g>
<!-- Node8&#45;&gt;Node9 -->
<g id="edge8" class="edge"><title>Node8&#45;&gt;Node9</title>
<path fill="none" stroke="midnightblue" d="M255.844,-153.208C247.57,-155.198 238.452,-157.39 230.177,-159.381"/>
<polygon fill="midnightblue" stroke="midnightblue" points="256.842,-156.567 265.746,-150.826 255.205,-149.762 256.842,-156.567"/>
</g>
<!-- Node9&#45;&gt;Node2 -->
<g id="edge9" class="edge"><title>Node9&#45;&gt;Node2</title>
<path fill="none" stroke="midnightblue" d="M169.664,-178.667C156.617,-183.941 141.824,-189.921 129.943,-194.724"/>
<polygon fill="midnightblue" stroke="midnightblue" points="171.264,-181.795 179.223,-174.802 168.64,-175.305 171.264,-181.795"/>
</g>
<!-- Node10&#45;&gt;Node7 -->
<g id="edge12" class="edge"><title>Node10&#45;&gt;Node7</title>
<path fill="none" stroke="midnightblue" d="M435.955,-132.349C433.223,-130.549 430.52,-128.678 428,-126.797 407.917,-111.809 386.607,-91.6816 374.785,-80.0868"/>
<polygon fill="midnightblue" stroke="midnightblue" points="434.26,-135.418 444.588,-137.783 437.989,-129.494 434.26,-135.418"/>
</g>
<!-- Node10&#45;&gt;Node8 -->
<g id="edge13" class="edge"><title>Node10&#45;&gt;Node8</title>
<path fill="none" stroke="midnightblue" d="M421.745,-146.797C384.194,-146.797 328.999,-146.797 301.448,-146.797"/>
<polygon fill="midnightblue" stroke="midnightblue" points="421.831,-150.297 431.831,-146.797 421.831,-143.297 421.831,-150.297"/>
</g>
<!-- Node11&#45;&gt;Node7 -->
<g id="edge15" class="edge"><title>Node11&#45;&gt;Node7</title>
<path fill="none" stroke="midnightblue" d="M428.325,-95.9266C415.139,-90.6524 400.189,-84.6722 388.181,-79.8691"/>
<polygon fill="midnightblue" stroke="midnightblue" points="427.402,-99.3268 437.986,-99.7911 430.001,-92.8275 427.402,-99.3268"/>
</g>
<!-- Node11&#45;&gt;Node8 -->
<g id="edge16" class="edge"><title>Node11&#45;&gt;Node8</title>
<path fill="none" stroke="midnightblue" d="M422.097,-117.088C384.36,-125.236 328.557,-137.284 301.055,-143.222"/>
<polygon fill="midnightblue" stroke="midnightblue" points="423.186,-120.434 432.223,-114.902 421.709,-113.591 423.186,-120.434"/>
</g>
</g>
</svg>
        <g id="navigator" transform="translate(0 0)" fill="#404254">
                <rect fill="#f2f5e9" fill-opacity="0.5" stroke="#606060" stroke-width=".5" x="0" y="0" width="60" height="60"/>
                <use id="zoomplus" xlink:href="#zoomPlus" x="17" y="9" onmousedown="handleZoom(evt,'in')"/>
                <use id="zoomminus" xlink:href="#zoomMin" x="42" y="9" onmousedown="handleZoom(evt,'out')"/>
                <use id="reset" xlink:href="#resetDef" x="30" y="36" onmousedown="handleReset()"/>
                <g id="arrowUp" xlink:href="#dirArrow" transform="translate(30 24)" onmousedown="handlePan(0,-1)">
                  <use xlink:href="#rim" fill="#404040">
                        <set attributeName="fill" to="#808080" begin="arrowUp.mouseover" end="arrowUp.mouseout"/>
                  </use>
                  <path fill="none" stroke="white" stroke-width="1.5" d="M0,-3.0v7 M-2.5,-0.5L0,-3.0L2.5,-0.5"/>
                </g>
                <g id="arrowRight" xlink:href="#dirArrow" transform="rotate(90) translate(36 -43)" onmousedown="handlePan(1,0)">
                  <use xlink:href="#rim" fill="#404040">
                        <set attributeName="fill" to="#808080" begin="arrowRight.mouseover" end="arrowRight.mouseout"/>
                  </use>
                  <path fill="none" stroke="white" stroke-width="1.5" d="M0,-3.0v7 M-2.5,-0.5L0,-3.0L2.5,-0.5"/>
                </g>
                <g id="arrowDown" xlink:href="#dirArrow" transform="rotate(180) translate(-30 -48)" onmousedown="handlePan(0,1)">
                  <use xlink:href="#rim" fill="#404040">
                        <set attributeName="fill" to="#808080" begin="arrowDown.mouseover" end="arrowDown.mouseout"/>
                  </use>
                  <path fill="none" stroke="white" stroke-width="1.5" d="M0,-3.0v7 M-2.5,-0.5L0,-3.0L2.5,-0.5"/>
                </g>
                <g id="arrowLeft" xlink:href="#dirArrow" transform="rotate(270) translate(-36 17)" onmousedown="handlePan(-1,0)">
                  <use xlink:href="#rim" fill="#404040">
                        <set attributeName="fill" to="#808080" begin="arrowLeft.mouseover" end="arrowLeft.mouseout"/>
                  </use>
                  <path fill="none" stroke="white" stroke-width="1.5" d="M0,-3.0v7 M-2.5,-0.5L0,-3.0L2.5,-0.5"/>
                </g>
        </g>
        <svg viewBox="0 0 15 15" width="100%" height="30px" preserveAspectRatio="xMaxYMin meet">
         <g id="arrow_out" transform="scale(0.3 0.3)">
          <a xlink:href="main_8h_ad9d02e37f1f201576a9d93fd36fc4768_icgraph_org.svg" target="_base">
           <rect id="button" ry="5" rx="5" y="6" x="6" height="38" width="38"
                fill="#f2f5e9" fill-opacity="0.5" stroke="#606060" stroke-width="1.0"/>
           <path id="arrow"
             d="M 11.500037,31.436501 C 11.940474,20.09759 22.043105,11.32322 32.158766,21.979434 L 37.068811,17.246167 C 37.068811,17.246167 37.088388,32 37.088388,32 L 22.160133,31.978069 C 22.160133,31.978069 26.997745,27.140456 26.997745,27.140456 C 18.528582,18.264221 13.291696,25.230495 11.500037,31.436501 z"
             style="fill:#404040;"/>
          </a>
         </g>
        </svg>
</svg>
