<?xml version="1.0" encoding="UTF-8" standalone="no"?>
<!DOCTYPE svg PUBLIC "-//W3C//DTD SVG 1.1//EN"
 "http://www.w3.org/Graphics/SVG/1.1/DTD/svg11.dtd">
<!-- Generated by graphviz version 2.38.0 (20140413.2041)
 -->
<!-- Title: get_reverse Pages: 1 -->
<!--zoomable 398 -->
<svg id="main" version="1.1" xmlns="http://www.w3.org/2000/svg" xmlns:xlink="http://www.w3.org/1999/xlink" xml:space="preserve" onload="init(evt)">
<style type="text/css"><![CDATA[
.edge:hover path { stroke: red; }
.edge:hover polygon { stroke: red; fill: red; }
]]></style>
<script type="text/javascript"><![CDATA[
var edges = document.getElementsByTagName('g');
if (edges && edges.length) {
  for (var i=0;i<edges.length;i++) {
    if (edges[i].id.substr(0,4)=='edge') {
      edges[i].setAttribute('class','edge');
    }
  }
}
]]></script>
        <defs>
                <circle id="rim" cx="0" cy="0" r="7"/>
                <circle id="rim2" cx="0" cy="0" r="3.5"/>
                <g id="zoomPlus">
                        <use xlink:href="#rim" fill="#404040">
                                <set attributeName="fill" to="#808080" begin="zoomplus.mouseover" end="zoomplus.mouseout"/>
                        </use>
                        <path d="M-4,0h8M0,-4v8" fill="none" stroke="white" stroke-width="1.5" pointer-events="none"/>
                </g>
                <g id="zoomMin">
                        <use xlink:href="#rim" fill="#404040">
                                <set attributeName="fill" to="#808080" begin="zoomminus.mouseover" end="zoomminus.mouseout"/>
                        </use>
                        <path d="M-4,0h8" fill="none" stroke="white" stroke-width="1.5" pointer-events="none"/>
                </g>
                <g id="dirArrow">
                        <path fill="none" stroke="white" stroke-width="1.5" d="M0,-3.0v7 M-2.5,-0.5L0,-3.0L2.5,-0.5"/>
                </g>
               <g id="resetDef">
                       <use xlink:href="#rim2" fill="#404040">
                               <set attributeName="fill" to="#808080" begin="reset.mouseover" end="reset.mouseout"/>
                       </use>
               </g>
        </defs>

<script type="text/javascript">
var viewWidth = 1092;
var viewHeight = 398;
var sectionId = 'dynsection-19';
</script>
<script xlink:href="svgpan.js"/>
<svg id="graph" class="graph">
<g id="viewport">
<title>get_reverse</title>
<!-- Node1 -->
<g id="node1" class="node"><title>Node1</title>
<g id="a_node1"><a xlink:title=" ">
<polygon fill="#bfbfbf" stroke="black" points="1020,-171.5 1020,-189.5 1084,-189.5 1084,-171.5 1020,-171.5"/>
<text text-anchor="middle" x="1052" y="-178.3" font-family="Calibri" font-size="9.00">get_reverse</text>
</a>
</g>
</g>
<!-- Node2 -->
<g id="node2" class="node"><title>Node2</title>
<g id="a_node2"><a xlink:href="main_8h.html#ab37ca657b79c6b9176cb63e9d812a182" target="_top" xlink:title=" ">
<polygon fill="none" stroke="black" points="935,-171.5 935,-189.5 984,-189.5 984,-171.5 935,-171.5"/>
<text text-anchor="middle" x="959.5" y="-178.3" font-family="Calibri" font-size="9.00">get_pwr</text>
</a>
</g>
</g>
<!-- Node1&#45;&gt;Node2 -->
<g id="edge1" class="edge"><title>Node1&#45;&gt;Node2</title>
<path fill="none" stroke="midnightblue" d="M1009.77,-180.5C1001.03,-180.5 992.091,-180.5 984.267,-180.5"/>
<polygon fill="midnightblue" stroke="midnightblue" points="1009.86,-184 1019.86,-180.5 1009.85,-177 1009.86,-184"/>
</g>
<!-- Node3 -->
<g id="node3" class="node"><title>Node3</title>
<g id="a_node3"><a xlink:href="main_8h.html#ad7eb7423e0b17ccfba1ae42f3a3274e0" target="_top" xlink:title=" ">
<polygon fill="none" stroke="black" points="648,-228.5 648,-246.5 696,-246.5 696,-228.5 648,-228.5"/>
<text text-anchor="middle" x="672" y="-235.3" font-family="Calibri" font-size="9.00">get_swr</text>
</a>
</g>
</g>
<!-- Node2&#45;&gt;Node3 -->
<g id="edge2" class="edge"><title>Node2&#45;&gt;Node3</title>
<path fill="none" stroke="midnightblue" d="M924.833,-190.325C895.907,-198.49 852.982,-209.953 815,-217.5 773.488,-225.748 724.49,-231.861 696.254,-235.038"/>
<polygon fill="midnightblue" stroke="midnightblue" points="926.163,-193.586 934.821,-187.479 924.245,-186.853 926.163,-193.586"/>
</g>
<!-- Node13 -->
<g id="node13" class="node"><title>Node13</title>
<g id="a_node13"><a xlink:href="main_8c.html#ae5a14b4884e85f47ad8a4a716f13203a" target="_top" xlink:title=" ">
<polygon fill="none" stroke="black" points="851,-95.5 851,-113.5 899,-113.5 899,-95.5 851,-95.5"/>
<text text-anchor="middle" x="875" y="-102.3" font-family="Calibri" font-size="9.00">lcd_pwr</text>
</a>
</g>
</g>
<!-- Node2&#45;&gt;Node13 -->
<g id="edge19" class="edge"><title>Node2&#45;&gt;Node13</title>
<path fill="none" stroke="midnightblue" d="M941.191,-164.554C924.365,-149.055 899.413,-126.068 885.775,-113.505"/>
<polygon fill="midnightblue" stroke="midnightblue" points="938.986,-167.282 948.712,-171.483 943.729,-162.134 938.986,-167.282"/>
</g>
<!-- Node4 -->
<g id="node4" class="node"><title>Node4</title>
<g id="a_node4"><a xlink:href="main_8h.html#a740ef1b33bb02cd952ad7d8708999472" target="_top" xlink:title=" ">
<polygon fill="none" stroke="black" points="531,-190.5 531,-208.5 593,-208.5 593,-190.5 531,-190.5"/>
<text text-anchor="middle" x="562" y="-197.3" font-family="Calibri" font-size="9.00">coarse_cap</text>
</a>
</g>
</g>
<!-- Node3&#45;&gt;Node4 -->
<g id="edge3" class="edge"><title>Node3&#45;&gt;Node4</title>
<path fill="none" stroke="midnightblue" d="M638.378,-226.022C622.486,-220.43 603.647,-213.802 588.779,-208.57"/>
<polygon fill="midnightblue" stroke="midnightblue" points="637.236,-229.331 647.831,-229.348 639.56,-222.727 637.236,-229.331"/>
</g>
<!-- Node5 -->
<g id="node5" class="node"><title>Node5</title>
<g id="a_node5"><a xlink:href="main_8h.html#a5c7c60c7d70cf76cc52e87722bb0f614" target="_top" xlink:title=" ">
<polygon fill="none" stroke="black" points="428,-228.5 428,-246.5 495,-246.5 495,-228.5 428,-228.5"/>
<text text-anchor="middle" x="461.5" y="-235.3" font-family="Calibri" font-size="9.00">coarse_tune</text>
</a>
</g>
</g>
<!-- Node3&#45;&gt;Node5 -->
<g id="edge10" class="edge"><title>Node3&#45;&gt;Node5</title>
<path fill="none" stroke="midnightblue" d="M637.82,-237.5C598.733,-237.5 534.206,-237.5 495.29,-237.5"/>
<polygon fill="midnightblue" stroke="midnightblue" points="637.89,-241 647.89,-237.5 637.89,-234 637.89,-241"/>
</g>
<!-- Node6 -->
<g id="node6" class="node"><title>Node6</title>
<g id="a_node6"><a xlink:href="main_8h.html#a454a7687c8039514766571b23516ca9c" target="_top" xlink:title=" ">
<polygon fill="none" stroke="black" points="337,-248.5 337,-266.5 392,-266.5 392,-248.5 337,-248.5"/>
<text text-anchor="middle" x="364.5" y="-255.3" font-family="Calibri" font-size="9.00">sub_tune</text>
</a>
</g>
</g>
<!-- Node3&#45;&gt;Node6 -->
<g id="edge17" class="edge"><title>Node3&#45;&gt;Node6</title>
<path fill="none" stroke="midnightblue" d="M637.887,-244.476C624.073,-247.117 607.821,-249.875 593,-251.5 520.734,-259.423 434.824,-259.056 392.215,-258.223"/>
<polygon fill="midnightblue" stroke="midnightblue" points="638.777,-247.868 647.912,-242.5 637.424,-241 638.777,-247.868"/>
</g>
<!-- Node7 -->
<g id="node7" class="node"><title>Node7</title>
<g id="a_node7"><a xlink:href="main_8h.html#a1849f2e5bd63d11a7b9549470e287d17" target="_top" xlink:title=" ">
<polygon fill="none" stroke="black" points="266,-248.5 266,-266.5 301,-266.5 301,-248.5 266,-248.5"/>
<text text-anchor="middle" x="283.5" y="-255.3" font-family="Calibri" font-size="9.00">tune</text>
</a>
</g>
</g>
<!-- Node3&#45;&gt;Node7 -->
<g id="edge18" class="edge"><title>Node3&#45;&gt;Node7</title>
<path fill="none" stroke="midnightblue" d="M658.047,-254.806C644.013,-272.238 619.98,-298.501 593,-312.5 553.619,-332.934 539.163,-327.258 495,-331.5 423.591,-338.358 399.767,-333.236 337,-298.5 320.81,-289.541 304.35,-275.765 294.281,-266.693"/>
<polygon fill="midnightblue" stroke="midnightblue" points="661.051,-256.646 664.437,-246.607 655.53,-252.343 661.051,-256.646"/>
</g>
<!-- Node11 -->
<g id="node11" class="node"><title>Node11</title>
<g id="a_node11"><a xlink:href="main_8h.html#ab518a3d2c723f12d3af3024a195606ce" target="_top" xlink:title=" ">
<polygon fill="none" stroke="black" points="432,-191.5 432,-209.5 491,-209.5 491,-191.5 432,-191.5"/>
<text text-anchor="middle" x="461.5" y="-198.3" font-family="Calibri" font-size="9.00">sharp_cap</text>
</a>
</g>
</g>
<!-- Node3&#45;&gt;Node11 -->
<g id="edge11" class="edge"><title>Node3&#45;&gt;Node11</title>
<path fill="none" stroke="midnightblue" d="M655.289,-221.263C640.661,-207.407 617.484,-188.493 593,-180.5 555.741,-168.337 510.031,-181.347 483.784,-191.327"/>
<polygon fill="midnightblue" stroke="midnightblue" points="652.904,-223.827 662.49,-228.34 657.81,-218.834 652.904,-223.827"/>
</g>
<!-- Node12 -->
<g id="node12" class="node"><title>Node12</title>
<g id="a_node12"><a xlink:href="main_8h.html#a72210b3ed1d5691c5bbda8c7f1e97197" target="_top" xlink:title=" ">
<polygon fill="none" stroke="black" points="432.5,-304.5 432.5,-322.5 490.5,-322.5 490.5,-304.5 432.5,-304.5"/>
<text text-anchor="middle" x="461.5" y="-311.3" font-family="Calibri" font-size="9.00">sharp_ind</text>
</a>
</g>
</g>
<!-- Node3&#45;&gt;Node12 -->
<g id="edge14" class="edge"><title>Node3&#45;&gt;Node12</title>
<path fill="none" stroke="midnightblue" d="M652.201,-253.242C637.129,-265.036 614.94,-280.611 593,-289.5 559.373,-303.124 517.727,-309.068 490.657,-311.626"/>
<polygon fill="midnightblue" stroke="midnightblue" points="654.596,-255.808 660.197,-246.815 650.21,-250.352 654.596,-255.808"/>
</g>
<!-- Node4&#45;&gt;Node5 -->
<g id="edge4" class="edge"><title>Node4&#45;&gt;Node5</title>
<path fill="none" stroke="midnightblue" d="M528.041,-212.215C514.272,-217.527 498.589,-223.577 486.017,-228.427"/>
<polygon fill="midnightblue" stroke="midnightblue" points="529.587,-215.37 537.657,-208.505 527.067,-208.839 529.587,-215.37"/>
</g>
<!-- Node5&#45;&gt;Node6 -->
<g id="edge5" class="edge"><title>Node5&#45;&gt;Node6</title>
<path fill="none" stroke="midnightblue" d="M417.785,-246.493C409.104,-248.32 400.207,-250.193 392.271,-251.864"/>
<polygon fill="midnightblue" stroke="midnightblue" points="418.742,-249.868 427.806,-244.383 417.3,-243.018 418.742,-249.868"/>
</g>
<!-- Node6&#45;&gt;Node7 -->
<g id="edge6" class="edge"><title>Node6&#45;&gt;Node7</title>
<path fill="none" stroke="midnightblue" d="M326.487,-257.5C317.583,-257.5 308.509,-257.5 301.085,-257.5"/>
<polygon fill="midnightblue" stroke="midnightblue" points="326.754,-261 336.754,-257.5 326.754,-254 326.754,-261"/>
</g>
<!-- Node8 -->
<g id="node8" class="node"><title>Node8</title>
<g id="a_node8"><a xlink:href="main_8c.html#af18ed7edda7874a97cacaa11a2759260" target="_top" xlink:title=" ">
<polygon fill="none" stroke="black" points="175,-114.5 175,-132.5 230,-132.5 230,-114.5 175,-114.5"/>
<text text-anchor="middle" x="202.5" y="-121.3" font-family="Calibri" font-size="9.00">btn_push</text>
</a>
</g>
</g>
<!-- Node7&#45;&gt;Node8 -->
<g id="edge7" class="edge"><title>Node7&#45;&gt;Node8</title>
<path fill="none" stroke="midnightblue" d="M271.958,-239.619C254.932,-210.738 221.973,-154.834 208.968,-132.775"/>
<polygon fill="midnightblue" stroke="midnightblue" points="268.976,-241.453 277.07,-248.29 275.006,-237.898 268.976,-241.453"/>
</g>
<!-- Node9 -->
<g id="node9" class="node"><title>Node9</title>
<g id="a_node9"><a xlink:href="main_8c.html#a1c9e5d54d8cf7f3d041aa2e0b330b3dd" target="_top" xlink:title="Handle the process of the buttons being pressed.">
<polygon fill="none" stroke="black" points="74,-95.5 74,-113.5 139,-113.5 139,-95.5 74,-95.5"/>
<text text-anchor="middle" x="106.5" y="-102.3" font-family="Calibri" font-size="9.00">button_proc</text>
</a>
</g>
</g>
<!-- Node8&#45;&gt;Node9 -->
<g id="edge8" class="edge"><title>Node8&#45;&gt;Node9</title>
<path fill="none" stroke="midnightblue" d="M164.824,-116.087C156.379,-114.38 147.466,-112.578 139.25,-110.918"/>
<polygon fill="midnightblue" stroke="midnightblue" points="164.32,-119.556 174.815,-118.106 165.706,-112.694 164.32,-119.556"/>
</g>
<!-- Node10 -->
<g id="node10" class="node"><title>Node10</title>
<g id="a_node10"><a xlink:href="main_8c.html#acdef7a1fd863a6d3770c1268cb06add3" target="_top" xlink:title=" ">
<polygon fill="none" stroke="black" points="0,-38.5 0,-56.5 38,-56.5 38,-38.5 0,-38.5"/>
<text text-anchor="middle" x="19" y="-45.3" font-family="Calibri" font-size="9.00">main</text>
</a>
</g>
</g>
<!-- Node9&#45;&gt;Node10 -->
<g id="edge9" class="edge"><title>Node9&#45;&gt;Node10</title>
<path fill="none" stroke="midnightblue" d="M83.1759,-89.6172C67.4978,-79.1652 47.0284,-65.5189 33.703,-56.6353"/>
<polygon fill="midnightblue" stroke="midnightblue" points="81.501,-92.7071 91.7629,-95.342 85.3839,-86.8827 81.501,-92.7071"/>
</g>
<!-- Node11&#45;&gt;Node6 -->
<g id="edge12" class="edge"><title>Node11&#45;&gt;Node6</title>
<path fill="none" stroke="midnightblue" d="M434.772,-214.587C432.473,-215.895 430.189,-217.212 428,-218.5 411.245,-228.359 392.352,-240.259 379.768,-248.301"/>
<polygon fill="midnightblue" stroke="midnightblue" points="436.524,-217.618 443.537,-209.677 433.102,-211.511 436.524,-217.618"/>
</g>
<!-- Node11&#45;&gt;Node7 -->
<g id="edge13" class="edge"><title>Node11&#45;&gt;Node7</title>
<path fill="none" stroke="midnightblue" d="M422.288,-211.733C397.811,-219.058 365.421,-228.991 337,-238.5 325.05,-242.498 311.698,-247.335 301.45,-251.128"/>
<polygon fill="midnightblue" stroke="midnightblue" points="423.34,-215.072 431.924,-208.862 421.341,-208.364 423.34,-215.072"/>
</g>
<!-- Node12&#45;&gt;Node6 -->
<g id="edge15" class="edge"><title>Node12&#45;&gt;Node6</title>
<path fill="none" stroke="midnightblue" d="M435.797,-298.938C418.43,-288.701 395.734,-275.322 380.895,-266.575"/>
<polygon fill="midnightblue" stroke="midnightblue" points="434.421,-302.19 444.813,-304.253 437.975,-296.159 434.421,-302.19"/>
</g>
<!-- Node12&#45;&gt;Node7 -->
<g id="edge16" class="edge"><title>Node12&#45;&gt;Node7</title>
<path fill="none" stroke="midnightblue" d="M422.825,-302.247C398.313,-294.842 365.688,-284.829 337,-275.5 324.905,-271.567 311.325,-266.904 301.007,-263.31"/>
<polygon fill="midnightblue" stroke="midnightblue" points="421.878,-305.617 432.462,-305.15 423.897,-298.914 421.878,-305.617"/>
</g>
<!-- Node13&#45;&gt;Node8 -->
<g id="edge20" class="edge"><title>Node13&#45;&gt;Node8</title>
<path fill="none" stroke="midnightblue" d="M840.918,-109.555C801.156,-115.184 732.365,-123.5 673,-123.5 673,-123.5 673,-123.5 363.5,-123.5 316.556,-123.5 261.863,-123.5 230.112,-123.5"/>
<polygon fill="midnightblue" stroke="midnightblue" points="841.458,-113.014 850.854,-108.118 840.456,-106.086 841.458,-113.014"/>
</g>
<!-- Node13&#45;&gt;Node9 -->
<g id="edge21" class="edge"><title>Node13&#45;&gt;Node9</title>
<path fill="none" stroke="midnightblue" d="M840.918,-99.4448C801.156,-93.8161 732.365,-85.5 673,-85.5 673,-85.5 673,-85.5 282.5,-85.5 232.075,-85.5 173.953,-93.393 139.003,-99.0044"/>
<polygon fill="midnightblue" stroke="midnightblue" points="840.456,-102.914 850.854,-100.882 841.458,-95.9864 840.456,-102.914"/>
</g>
<!-- Node13&#45;&gt;Node10 -->
<g id="edge24" class="edge"><title>Node13&#45;&gt;Node10</title>
<path fill="none" stroke="midnightblue" d="M845.948,-91.2198C807.734,-74.3775 736.763,-47.5 673,-47.5 673,-47.5 673,-47.5 201.5,-47.5 141.63,-47.5 70.6518,-47.5 38.0329,-47.5"/>
<polygon fill="midnightblue" stroke="midnightblue" points="844.824,-94.5521 855.379,-95.4682 847.699,-88.1698 844.824,-94.5521"/>
</g>
<!-- Node14 -->
<g id="node14" class="node"><title>Node14</title>
<g id="a_node14"><a xlink:href="main_8c.html#ac445892220ccb3b4b337dd3e764bd6c6" target="_top" xlink:title="Handle the process of the buttons being pressed (in test mode)">
<polygon fill="none" stroke="black" points="629,-0.5 629,-18.5 715,-18.5 715,-0.5 629,-0.5"/>
<text text-anchor="middle" x="672" y="-7.3" font-family="Calibri" font-size="9.00">button_proc_test</text>
</a>
</g>
</g>
<!-- Node13&#45;&gt;Node14 -->
<g id="edge22" class="edge"><title>Node13&#45;&gt;Node14</title>
<path fill="none" stroke="midnightblue" d="M864.167,-86.5407C854.09,-69.9627 836.827,-46.0683 815,-33.5 784.558,-15.9711 744.758,-10.4538 715.042,-9.04345"/>
<polygon fill="midnightblue" stroke="midnightblue" points="861.209,-88.4165 869.25,-95.3152 867.266,-84.9078 861.209,-88.4165"/>
</g>
<!-- Node15 -->
<g id="node15" class="node"><title>Node15</title>
<g id="a_node15"><a xlink:href="main_8c.html#a11724d8cce81ed96bec12a004ea3ea7a" target="_top" xlink:title=" ">
<polygon fill="none" stroke="black" points="751,-190.5 751,-208.5 815,-208.5 815,-190.5 751,-190.5"/>
<text text-anchor="middle" x="783" y="-197.3" font-family="Calibri" font-size="9.00">show_reset</text>
</a>
</g>
</g>
<!-- Node13&#45;&gt;Node15 -->
<g id="edge25" class="edge"><title>Node13&#45;&gt;Node15</title>
<path fill="none" stroke="midnightblue" d="M858.285,-121.088C839.26,-141.17 807.893,-174.28 792.736,-190.279"/>
<polygon fill="midnightblue" stroke="midnightblue" points="861.034,-123.276 865.37,-113.609 855.952,-118.461 861.034,-123.276"/>
</g>
<!-- Node14&#45;&gt;Node10 -->
<g id="edge23" class="edge"><title>Node14&#45;&gt;Node10</title>
<path fill="none" stroke="midnightblue" d="M618.635,-9.5C576.468,-9.5 515.671,-9.5 462.5,-9.5 462.5,-9.5 462.5,-9.5 201.5,-9.5 140.493,-9.5 70.3526,-30.322 38.0291,-41.1397"/>
<polygon fill="midnightblue" stroke="midnightblue" points="618.671,-13.0001 628.671,-9.5 618.671,-6.0001 618.671,-13.0001"/>
</g>
<!-- Node15&#45;&gt;Node3 -->
<g id="edge27" class="edge"><title>Node15&#45;&gt;Node3</title>
<path fill="none" stroke="midnightblue" d="M746.287,-211.95C729.77,-217.709 710.629,-224.382 696.052,-229.464"/>
<polygon fill="midnightblue" stroke="midnightblue" points="747.878,-215.102 756.169,-208.505 745.574,-208.493 747.878,-215.102"/>
</g>
<!-- Node15&#45;&gt;Node9 -->
<g id="edge26" class="edge"><title>Node15&#45;&gt;Node9</title>
<path fill="none" stroke="midnightblue" d="M772.552,-217.541C746.271,-264.964 667.324,-389.5 563,-389.5 563,-389.5 563,-389.5 282.5,-389.5 149.827,-389.5 114.574,-162.442 108.531,-113.66"/>
<polygon fill="midnightblue" stroke="midnightblue" points="775.674,-219.125 777.35,-208.664 769.516,-215.796 775.674,-219.125"/>
</g>
</g>
</svg>
        <g id="navigator" transform="translate(0 0)" fill="#404254">
                <rect fill="#f2f5e9" fill-opacity="0.5" stroke="#606060" stroke-width=".5" x="0" y="0" width="60" height="60"/>
                <use id="zoomplus" xlink:href="#zoomPlus" x="17" y="9" onmousedown="handleZoom(evt,'in')"/>
                <use id="zoomminus" xlink:href="#zoomMin" x="42" y="9" onmousedown="handleZoom(evt,'out')"/>
                <use id="reset" xlink:href="#resetDef" x="30" y="36" onmousedown="handleReset()"/>
                <g id="arrowUp" xlink:href="#dirArrow" transform="translate(30 24)" onmousedown="handlePan(0,-1)">
                  <use xlink:href="#rim" fill="#404040">
                        <set attributeName="fill" to="#808080" begin="arrowUp.mouseover" end="arrowUp.mouseout"/>
                  </use>
                  <path fill="none" stroke="white" stroke-width="1.5" d="M0,-3.0v7 M-2.5,-0.5L0,-3.0L2.5,-0.5"/>
                </g>
                <g id="arrowRight" xlink:href="#dirArrow" transform="rotate(90) translate(36 -43)" onmousedown="handlePan(1,0)">
                  <use xlink:href="#rim" fill="#404040">
                        <set attributeName="fill" to="#808080" begin="arrowRight.mouseover" end="arrowRight.mouseout"/>
                  </use>
                  <path fill="none" stroke="white" stroke-width="1.5" d="M0,-3.0v7 M-2.5,-0.5L0,-3.0L2.5,-0.5"/>
                </g>
                <g id="arrowDown" xlink:href="#dirArrow" transform="rotate(180) translate(-30 -48)" onmousedown="handlePan(0,1)">
                  <use xlink:href="#rim" fill="#404040">
                        <set attributeName="fill" to="#808080" begin="arrowDown.mouseover" end="arrowDown.mouseout"/>
                  </use>
                  <path fill="none" stroke="white" stroke-width="1.5" d="M0,-3.0v7 M-2.5,-0.5L0,-3.0L2.5,-0.5"/>
                </g>
                <g id="arrowLeft" xlink:href="#dirArrow" transform="rotate(270) translate(-36 17)" onmousedown="handlePan(-1,0)">
                  <use xlink:href="#rim" fill="#404040">
                        <set attributeName="fill" to="#808080" begin="arrowLeft.mouseover" end="arrowLeft.mouseout"/>
                  </use>
                  <path fill="none" stroke="white" stroke-width="1.5" d="M0,-3.0v7 M-2.5,-0.5L0,-3.0L2.5,-0.5"/>
                </g>
        </g>
        <svg viewBox="0 0 15 15" width="100%" height="30px" preserveAspectRatio="xMaxYMin meet">
         <g id="arrow_out" transform="scale(0.3 0.3)">
          <a xlink:href="main_8h_aa6b9a2b3d88f578ba6a9fefd911eae75_icgraph_org.svg" target="_base">
           <rect id="button" ry="5" rx="5" y="6" x="6" height="38" width="38"
                fill="#f2f5e9" fill-opacity="0.5" stroke="#606060" stroke-width="1.0"/>
           <path id="arrow"
             d="M 11.500037,31.436501 C 11.940474,20.09759 22.043105,11.32322 32.158766,21.979434 L 37.068811,17.246167 C 37.068811,17.246167 37.088388,32 37.088388,32 L 22.160133,31.978069 C 22.160133,31.978069 26.997745,27.140456 26.997745,27.140456 C 18.528582,18.264221 13.291696,25.230495 11.500037,31.436501 z"
             style="fill:#404040;"/>
          </a>
         </g>
        </svg>
</svg>
