<?xml version="1.0" encoding="UTF-8" standalone="no"?>
<!DOCTYPE svg PUBLIC "-//W3C//DTD SVG 1.1//EN"
 "http://www.w3.org/Graphics/SVG/1.1/DTD/svg11.dtd">
<!-- Generated by graphviz version 2.38.0 (20140413.2041)
 -->
<!-- Title: main Pages: 1 -->
<!--zoomable 360 -->
<svg id="main" version="1.1" xmlns="http://www.w3.org/2000/svg" xmlns:xlink="http://www.w3.org/1999/xlink" xml:space="preserve" onload="init(evt)">
<style type="text/css"><![CDATA[
.edge:hover path { stroke: red; }
.edge:hover polygon { stroke: red; fill: red; }
]]></style>
<script type="text/javascript"><![CDATA[
var edges = document.getElementsByTagName('g');
if (edges && edges.length) {
  for (var i=0;i<edges.length;i++) {
    if (edges[i].id.substr(0,4)=='edge') {
      edges[i].setAttribute('class','edge');
    }
  }
}
]]></script>
        <defs>
                <circle id="rim" cx="0" cy="0" r="7"/>
                <circle id="rim2" cx="0" cy="0" r="3.5"/>
                <g id="zoomPlus">
                        <use xlink:href="#rim" fill="#404040">
                                <set attributeName="fill" to="#808080" begin="zoomplus.mouseover" end="zoomplus.mouseout"/>
                        </use>
                        <path d="M-4,0h8M0,-4v8" fill="none" stroke="white" stroke-width="1.5" pointer-events="none"/>
                </g>
                <g id="zoomMin">
                        <use xlink:href="#rim" fill="#404040">
                                <set attributeName="fill" to="#808080" begin="zoomminus.mouseover" end="zoomminus.mouseout"/>
                        </use>
                        <path d="M-4,0h8" fill="none" stroke="white" stroke-width="1.5" pointer-events="none"/>
                </g>
                <g id="dirArrow">
                        <path fill="none" stroke="white" stroke-width="1.5" d="M0,-3.0v7 M-2.5,-0.5L0,-3.0L2.5,-0.5"/>
                </g>
               <g id="resetDef">
                       <use xlink:href="#rim2" fill="#404040">
                               <set attributeName="fill" to="#808080" begin="reset.mouseover" end="reset.mouseout"/>
                       </use>
               </g>
        </defs>

<script type="text/javascript">
var viewWidth = 508;
var viewHeight = 360;
var sectionId = 'dynsection-1';
</script>
<script xlink:href="svgpan.js"/>
<svg id="graph" class="graph">
<g id="viewport">
<title>main</title>
<!-- Node1 -->
<g id="node1" class="node"><title>Node1</title>
<g id="a_node1"><a xlink:title=" ">
<polygon fill="#bfbfbf" stroke="black" points="0,-175.5 0,-193.5 38,-193.5 38,-175.5 0,-175.5"/>
<text text-anchor="middle" x="19" y="-182.3" font-family="Calibri" font-size="9.00">main</text>
</a>
</g>
</g>
<!-- Node2 -->
<g id="node2" class="node"><title>Node2</title>
<g id="a_node2"><a xlink:href="mcc_8c.html#a5e8391114a0cf91ac20002be25e3d352" target="_top" xlink:title=" ">
<polygon fill="none" stroke="black" points="74,-175.5 74,-193.5 163,-193.5 163,-175.5 74,-175.5"/>
<text text-anchor="middle" x="118.5" y="-182.3" font-family="Calibri" font-size="9.00">SYSTEM_Initialize</text>
</a>
</g>
</g>
<!-- Node1&#45;&gt;Node2 -->
<g id="edge1" class="edge"><title>Node1&#45;&gt;Node2</title>
<path fill="none" stroke="midnightblue" d="M38.339,-184.5C45.6334,-184.5 54.4403,-184.5 63.4918,-184.5"/>
<polygon fill="midnightblue" stroke="midnightblue" points="63.7477,-188 73.7477,-184.5 63.7476,-181 63.7477,-188"/>
</g>
<!-- Node3 -->
<g id="node3" class="node"><title>Node3</title>
<g id="a_node3"><a xlink:href="mcc__generated__files_2adc_8c.html#ab0e0ea1662a8e789547210a2d33127e1" target="_top" xlink:title=" ">
<polygon fill="none" stroke="black" points="220,-296.5 220,-314.5 294,-314.5 294,-296.5 220,-296.5"/>
<text text-anchor="middle" x="257" y="-303.3" font-family="Calibri" font-size="9.00">ADC_Initialize</text>
</a>
</g>
</g>
<!-- Node2&#45;&gt;Node3 -->
<g id="edge2" class="edge"><title>Node2&#45;&gt;Node3</title>
<path fill="none" stroke="midnightblue" d="M129.76,-193.595C152.783,-214.004 208.816,-263.674 237.865,-289.425"/>
<polygon fill="midnightblue" stroke="midnightblue" points="235.816,-292.285 245.621,-296.3 240.46,-287.047 235.816,-292.285"/>
</g>
<!-- Node6 -->
<g id="node6" class="node"><title>Node6</title>
<g id="a_node6"><a xlink:href="ext__int_8c.html#a6c40d2f45ec674f28815ad65b2c753d5" target="_top" xlink:title=" ">
<polygon fill="none" stroke="black" points="212,-222.5 212,-240.5 302,-240.5 302,-222.5 212,-222.5"/>
<text text-anchor="middle" x="257" y="-229.3" font-family="Calibri" font-size="9.00">EXT_INT_Initialize</text>
</a>
</g>
</g>
<!-- Node2&#45;&gt;Node6 -->
<g id="edge5" class="edge"><title>Node2&#45;&gt;Node6</title>
<path fill="none" stroke="midnightblue" d="M145.819,-193.562C166.968,-200.844 196.889,-211.147 220.214,-219.178"/>
<polygon fill="midnightblue" stroke="midnightblue" points="219.168,-222.519 229.762,-222.466 221.447,-215.901 219.168,-222.519"/>
</g>
<!-- Node9 -->
<g id="node9" class="node"><title>Node9</title>
<g id="a_node9"><a xlink:href="mcc_8c.html#a4777dd92514a7e4ef803f9e869006f5d" target="_top" xlink:title=" ">
<polygon fill="none" stroke="black" points="204.5,-175.5 204.5,-193.5 309.5,-193.5 309.5,-175.5 204.5,-175.5"/>
<text text-anchor="middle" x="257" y="-182.3" font-family="Calibri" font-size="9.00">OSCILLATOR_Initialize</text>
</a>
</g>
</g>
<!-- Node2&#45;&gt;Node9 -->
<g id="edge8" class="edge"><title>Node2&#45;&gt;Node9</title>
<path fill="none" stroke="midnightblue" d="M163.065,-184.5C172.896,-184.5 183.516,-184.5 193.942,-184.5"/>
<polygon fill="midnightblue" stroke="midnightblue" points="194.268,-188 204.267,-184.5 194.267,-181 194.268,-188"/>
</g>
<!-- Node10 -->
<g id="node10" class="node"><title>Node10</title>
<g id="a_node10"><a xlink:href="pin__manager_8c.html#a50357774183a136d9490f64ad0d5c6cb" target="_top" xlink:title=" ">
<polygon fill="none" stroke="black" points="199,-120.5 199,-138.5 315,-138.5 315,-120.5 199,-120.5"/>
<text text-anchor="middle" x="257" y="-127.3" font-family="Calibri" font-size="9.00">PIN_MANAGER_Initialize</text>
</a>
</g>
</g>
<!-- Node2&#45;&gt;Node10 -->
<g id="edge9" class="edge"><title>Node2&#45;&gt;Node10</title>
<path fill="none" stroke="midnightblue" d="M142.04,-175.418C164.368,-166.421 198.774,-152.558 223.942,-142.417"/>
<polygon fill="midnightblue" stroke="midnightblue" points="225.459,-145.579 233.426,-138.596 222.843,-139.087 225.459,-145.579"/>
</g>
<!-- Node17 -->
<g id="node17" class="node"><title>Node17</title>
<g id="a_node17"><a xlink:href="mcc_8c.html#a6de6e2435c7dc554df52111e28586835" target="_top" xlink:title=" ">
<polygon fill="none" stroke="black" points="218.5,-83.5 218.5,-101.5 295.5,-101.5 295.5,-83.5 218.5,-83.5"/>
<text text-anchor="middle" x="257" y="-90.3" font-family="Calibri" font-size="9.00">WDT_Initialize</text>
</a>
</g>
</g>
<!-- Node2&#45;&gt;Node17 -->
<g id="edge16" class="edge"><title>Node2&#45;&gt;Node17</title>
<path fill="none" stroke="midnightblue" d="M127.345,-175.078C140.609,-159.709 168.969,-129.188 199,-111.5 202.949,-109.174 207.222,-107.087 211.59,-105.225"/>
<polygon fill="midnightblue" stroke="midnightblue" points="213.154,-108.373 221.22,-101.503 210.63,-101.844 213.154,-108.373"/>
</g>
<!-- Node4 -->
<g id="node4" class="node"><title>Node4</title>
<g id="a_node4"><a xlink:href="mcc__generated__files_2adc_8c.html#a93877141ffb34f4b2090baab6554a001" target="_top" xlink:title=" ">
<polygon fill="none" stroke="black" points="357,-333.5 357,-351.5 494,-351.5 494,-333.5 357,-333.5"/>
<text text-anchor="middle" x="425.5" y="-340.3" font-family="Calibri" font-size="9.00">ADC_DefaultInterruptHandler</text>
</a>
</g>
</g>
<!-- Node3&#45;&gt;Node4 -->
<g id="edge3" class="edge"><title>Node3&#45;&gt;Node4</title>
<path fill="none" stroke="midnightblue" d="M294.128,-313.528C317.432,-318.707 348.081,-325.518 373.807,-331.235"/>
<polygon fill="midnightblue" stroke="midnightblue" points="373.242,-334.695 383.763,-333.447 374.76,-327.861 373.242,-334.695"/>
</g>
<!-- Node5 -->
<g id="node5" class="node"><title>Node5</title>
<g id="a_node5"><a xlink:href="mcc__generated__files_2adc_8c.html#a853bf4f29c400aa205e0474a03f64e32" target="_top" xlink:title=" ">
<polygon fill="none" stroke="black" points="366,-296.5 366,-314.5 485,-314.5 485,-296.5 366,-296.5"/>
<text text-anchor="middle" x="425.5" y="-303.3" font-family="Calibri" font-size="9.00">ADC_SetInterruptHandler</text>
</a>
</g>
</g>
<!-- Node3&#45;&gt;Node5 -->
<g id="edge4" class="edge"><title>Node3&#45;&gt;Node5</title>
<path fill="none" stroke="midnightblue" d="M294.128,-305.5C312.128,-305.5 334.511,-305.5 355.622,-305.5"/>
<polygon fill="midnightblue" stroke="midnightblue" points="355.859,-309 365.859,-305.5 355.859,-302 355.859,-309"/>
</g>
<!-- Node7 -->
<g id="node7" class="node"><title>Node7</title>
<g id="a_node7"><a xlink:href="ext__int_8c.html#a5ecd9e927fdf5b02d5490e1c8780781f" target="_top" xlink:title=" ">
<polygon fill="none" stroke="black" points="358.5,-259.5 358.5,-277.5 492.5,-277.5 492.5,-259.5 358.5,-259.5"/>
<text text-anchor="middle" x="425.5" y="-266.3" font-family="Calibri" font-size="9.00">INT_DefaultInterruptHandler</text>
</a>
</g>
</g>
<!-- Node6&#45;&gt;Node7 -->
<g id="edge6" class="edge"><title>Node6&#45;&gt;Node7</title>
<path fill="none" stroke="midnightblue" d="M298.73,-240.551C321.391,-245.587 349.797,-251.899 373.876,-257.25"/>
<polygon fill="midnightblue" stroke="midnightblue" points="373.381,-260.725 383.902,-259.478 374.899,-253.892 373.381,-260.725"/>
</g>
<!-- Node8 -->
<g id="node8" class="node"><title>Node8</title>
<g id="a_node8"><a xlink:href="ext__int_8c.html#aa10124a96d50bd41454b93d0bddd8465" target="_top" xlink:title=" ">
<polygon fill="none" stroke="black" points="367.5,-222.5 367.5,-240.5 483.5,-240.5 483.5,-222.5 367.5,-222.5"/>
<text text-anchor="middle" x="425.5" y="-229.3" font-family="Calibri" font-size="9.00">INT_SetInterruptHandler</text>
</a>
</g>
</g>
<!-- Node6&#45;&gt;Node8 -->
<g id="edge7" class="edge"><title>Node6&#45;&gt;Node8</title>
<path fill="none" stroke="midnightblue" d="M302.182,-231.5C319.008,-231.5 338.589,-231.5 357.086,-231.5"/>
<polygon fill="midnightblue" stroke="midnightblue" points="357.227,-235 367.227,-231.5 357.227,-228 357.227,-235"/>
</g>
<!-- Node11 -->
<g id="node11" class="node"><title>Node11</title>
<g id="a_node11"><a xlink:href="pin__manager_8c.html#a7785df331b1ef41d8cb46f09192cff38" target="_top" xlink:title=" ">
<polygon fill="none" stroke="black" points="351,-185.5 351,-203.5 500,-203.5 500,-185.5 351,-185.5"/>
<text text-anchor="middle" x="425.5" y="-192.3" font-family="Calibri" font-size="9.00">IOCBF0_DefaultInterruptHandler</text>
</a>
</g>
</g>
<!-- Node10&#45;&gt;Node11 -->
<g id="edge10" class="edge"><title>Node10&#45;&gt;Node11</title>
<path fill="none" stroke="midnightblue" d="M273.307,-138.608C291.35,-149.015 322.493,-165.963 351,-176.5 357.292,-178.826 363.999,-180.94 370.703,-182.834"/>
<polygon fill="midnightblue" stroke="midnightblue" points="369.912,-186.246 380.478,-185.452 371.723,-179.484 369.912,-186.246"/>
</g>
<!-- Node12 -->
<g id="node12" class="node"><title>Node12</title>
<g id="a_node12"><a xlink:href="pin__manager_8c.html#a1fa094f74ec24d587df5fd9e546e55a2" target="_top" xlink:title=" ">
<polygon fill="none" stroke="black" points="360,-148.5 360,-166.5 491,-166.5 491,-148.5 360,-148.5"/>
<text text-anchor="middle" x="425.5" y="-155.3" font-family="Calibri" font-size="9.00">IOCBF0_SetInterruptHandler</text>
</a>
</g>
</g>
<!-- Node10&#45;&gt;Node12 -->
<g id="edge11" class="edge"><title>Node10&#45;&gt;Node12</title>
<path fill="none" stroke="midnightblue" d="M311.598,-138.514C327.265,-141.148 344.542,-144.054 360.772,-146.783"/>
<polygon fill="midnightblue" stroke="midnightblue" points="360.275,-150.248 370.717,-148.455 361.436,-143.345 360.275,-150.248"/>
</g>
<!-- Node13 -->
<g id="node13" class="node"><title>Node13</title>
<g id="a_node13"><a xlink:href="pin__manager_8c.html#a2c53046b5d2acd8ec288693fb774b7e0" target="_top" xlink:title=" ">
<polygon fill="none" stroke="black" points="351,-111.5 351,-129.5 500,-129.5 500,-111.5 351,-111.5"/>
<text text-anchor="middle" x="425.5" y="-118.3" font-family="Calibri" font-size="9.00">IOCBF1_DefaultInterruptHandler</text>
</a>
</g>
</g>
<!-- Node10&#45;&gt;Node13 -->
<g id="edge12" class="edge"><title>Node10&#45;&gt;Node13</title>
<path fill="none" stroke="midnightblue" d="M315.3,-126.403C323.548,-125.957 332.175,-125.491 340.807,-125.024"/>
<polygon fill="midnightblue" stroke="midnightblue" points="341.125,-128.512 350.922,-124.477 340.747,-121.522 341.125,-128.512"/>
</g>
<!-- Node14 -->
<g id="node14" class="node"><title>Node14</title>
<g id="a_node14"><a xlink:href="pin__manager_8c.html#ab6e3f9544fa93cfae6f302dd5d9ddc3a" target="_top" xlink:title=" ">
<polygon fill="none" stroke="black" points="360,-74.5 360,-92.5 491,-92.5 491,-74.5 360,-74.5"/>
<text text-anchor="middle" x="425.5" y="-81.3" font-family="Calibri" font-size="9.00">IOCBF1_SetInterruptHandler</text>
</a>
</g>
</g>
<!-- Node10&#45;&gt;Node14 -->
<g id="edge13" class="edge"><title>Node10&#45;&gt;Node14</title>
<path fill="none" stroke="midnightblue" d="M288.513,-120.395C306.633,-115.049 330.085,-108.238 351,-102.5 359.961,-100.042 369.56,-97.4963 378.767,-95.0984"/>
<polygon fill="midnightblue" stroke="midnightblue" points="379.751,-98.4593 388.555,-92.5654 377.997,-91.6826 379.751,-98.4593"/>
</g>
<!-- Node15 -->
<g id="node15" class="node"><title>Node15</title>
<g id="a_node15"><a xlink:href="pin__manager_8c.html#a3f33852f958a791164d014913d9b7225" target="_top" xlink:title=" ">
<polygon fill="none" stroke="black" points="351,-37.5 351,-55.5 500,-55.5 500,-37.5 351,-37.5"/>
<text text-anchor="middle" x="425.5" y="-44.3" font-family="Calibri" font-size="9.00">IOCBF2_DefaultInterruptHandler</text>
</a>
</g>
</g>
<!-- Node10&#45;&gt;Node15 -->
<g id="edge14" class="edge"><title>Node10&#45;&gt;Node15</title>
<path fill="none" stroke="midnightblue" d="M297.48,-120.473C303.643,-118.113 309.713,-115.166 315,-111.5 336.334,-96.7063 329.283,-79.7242 351,-65.5 354.535,-63.1847 358.338,-61.1513 362.285,-59.3655"/>
<polygon fill="midnightblue" stroke="midnightblue" points="363.695,-62.5714 371.701,-55.6319 361.115,-56.0642 363.695,-62.5714"/>
</g>
<!-- Node16 -->
<g id="node16" class="node"><title>Node16</title>
<g id="a_node16"><a xlink:href="pin__manager_8c.html#ab095f91ecd95fdfe136b510f161a9034" target="_top" xlink:title=" ">
<polygon fill="none" stroke="black" points="360,-0.5 360,-18.5 491,-18.5 491,-0.5 360,-0.5"/>
<text text-anchor="middle" x="425.5" y="-7.3" font-family="Calibri" font-size="9.00">IOCBF2_SetInterruptHandler</text>
</a>
</g>
</g>
<!-- Node10&#45;&gt;Node16 -->
<g id="edge15" class="edge"><title>Node10&#45;&gt;Node16</title>
<path fill="none" stroke="midnightblue" d="M300.977,-120.443C306.079,-118.113 310.915,-115.183 315,-111.5 344.863,-84.5745 320.435,-54.6261 351,-28.5 353.254,-26.5732 355.68,-24.8383 358.23,-23.2765"/>
<polygon fill="midnightblue" stroke="midnightblue" points="360.016,-26.2933 367.307,-18.6058 356.814,-20.0689 360.016,-26.2933"/>
</g>
</g>
</svg>
        <g id="navigator" transform="translate(0 0)" fill="#404254">
                <rect fill="#f2f5e9" fill-opacity="0.5" stroke="#606060" stroke-width=".5" x="0" y="0" width="60" height="60"/>
                <use id="zoomplus" xlink:href="#zoomPlus" x="17" y="9" onmousedown="handleZoom(evt,'in')"/>
                <use id="zoomminus" xlink:href="#zoomMin" x="42" y="9" onmousedown="handleZoom(evt,'out')"/>
                <use id="reset" xlink:href="#resetDef" x="30" y="36" onmousedown="handleReset()"/>
                <g id="arrowUp" xlink:href="#dirArrow" transform="translate(30 24)" onmousedown="handlePan(0,-1)">
                  <use xlink:href="#rim" fill="#404040">
                        <set attributeName="fill" to="#808080" begin="arrowUp.mouseover" end="arrowUp.mouseout"/>
                  </use>
                  <path fill="none" stroke="white" stroke-width="1.5" d="M0,-3.0v7 M-2.5,-0.5L0,-3.0L2.5,-0.5"/>
                </g>
                <g id="arrowRight" xlink:href="#dirArrow" transform="rotate(90) translate(36 -43)" onmousedown="handlePan(1,0)">
                  <use xlink:href="#rim" fill="#404040">
                        <set attributeName="fill" to="#808080" begin="arrowRight.mouseover" end="arrowRight.mouseout"/>
                  </use>
                  <path fill="none" stroke="white" stroke-width="1.5" d="M0,-3.0v7 M-2.5,-0.5L0,-3.0L2.5,-0.5"/>
                </g>
                <g id="arrowDown" xlink:href="#dirArrow" transform="rotate(180) translate(-30 -48)" onmousedown="handlePan(0,1)">
                  <use xlink:href="#rim" fill="#404040">
                        <set attributeName="fill" to="#808080" begin="arrowDown.mouseover" end="arrowDown.mouseout"/>
                  </use>
                  <path fill="none" stroke="white" stroke-width="1.5" d="M0,-3.0v7 M-2.5,-0.5L0,-3.0L2.5,-0.5"/>
                </g>
                <g id="arrowLeft" xlink:href="#dirArrow" transform="rotate(270) translate(-36 17)" onmousedown="handlePan(-1,0)">
                  <use xlink:href="#rim" fill="#404040">
                        <set attributeName="fill" to="#808080" begin="arrowLeft.mouseover" end="arrowLeft.mouseout"/>
                  </use>
                  <path fill="none" stroke="white" stroke-width="1.5" d="M0,-3.0v7 M-2.5,-0.5L0,-3.0L2.5,-0.5"/>
                </g>
        </g>
        <svg viewBox="0 0 15 15" width="100%" height="30px" preserveAspectRatio="xMaxYMin meet">
         <g id="arrow_out" transform="scale(0.3 0.3)">
          <a xlink:href="main_8c_a6288eba0f8e8ad3ab1544ad731eb7667_cgraph_org.svg" target="_base">
           <rect id="button" ry="5" rx="5" y="6" x="6" height="38" width="38"
                fill="#f2f5e9" fill-opacity="0.5" stroke="#606060" stroke-width="1.0"/>
           <path id="arrow"
             d="M 11.500037,31.436501 C 11.940474,20.09759 22.043105,11.32322 32.158766,21.979434 L 37.068811,17.246167 C 37.068811,17.246167 37.088388,32 37.088388,32 L 22.160133,31.978069 C 22.160133,31.978069 26.997745,27.140456 26.997745,27.140456 C 18.528582,18.264221 13.291696,25.230495 11.500037,31.436501 z"
             style="fill:#404040;"/>
          </a>
         </g>
        </svg>
</svg>
