<?xml version="1.0" encoding="UTF-8" standalone="no"?>
<!DOCTYPE svg PUBLIC "-//W3C//DTD SVG 1.1//EN"
 "http://www.w3.org/Graphics/SVG/1.1/DTD/svg11.dtd">
<!-- Generated by graphviz version 2.38.0 (20140413.2041)
 -->
<!-- Title: lcd_ind Pages: 1 -->
<!--zoomable 573 -->
<svg id="main" version="1.1" xmlns="http://www.w3.org/2000/svg" xmlns:xlink="http://www.w3.org/1999/xlink" xml:space="preserve" onload="init(evt)">
<style type="text/css"><![CDATA[
.edge:hover path { stroke: red; }
.edge:hover polygon { stroke: red; fill: red; }
]]></style>
<script type="text/javascript"><![CDATA[
var edges = document.getElementsByTagName('g');
if (edges && edges.length) {
  for (var i=0;i<edges.length;i++) {
    if (edges[i].id.substr(0,4)=='edge') {
      edges[i].setAttribute('class','edge');
    }
  }
}
]]></script>
        <defs>
                <circle id="rim" cx="0" cy="0" r="7"/>
                <circle id="rim2" cx="0" cy="0" r="3.5"/>
                <g id="zoomPlus">
                        <use xlink:href="#rim" fill="#404040">
                                <set attributeName="fill" to="#808080" begin="zoomplus.mouseover" end="zoomplus.mouseout"/>
                        </use>
                        <path d="M-4,0h8M0,-4v8" fill="none" stroke="white" stroke-width="1.5" pointer-events="none"/>
                </g>
                <g id="zoomMin">
                        <use xlink:href="#rim" fill="#404040">
                                <set attributeName="fill" to="#808080" begin="zoomminus.mouseover" end="zoomminus.mouseout"/>
                        </use>
                        <path d="M-4,0h8" fill="none" stroke="white" stroke-width="1.5" pointer-events="none"/>
                </g>
                <g id="dirArrow">
                        <path fill="none" stroke="white" stroke-width="1.5" d="M0,-3.0v7 M-2.5,-0.5L0,-3.0L2.5,-0.5"/>
                </g>
               <g id="resetDef">
                       <use xlink:href="#rim2" fill="#404040">
                               <set attributeName="fill" to="#808080" begin="reset.mouseover" end="reset.mouseout"/>
                       </use>
               </g>
        </defs>

<script type="text/javascript">
var viewWidth = 1104;
var viewHeight = 573;
var sectionId = 'dynsection-21';
</script>
<script xlink:href="svgpan.js"/>
<svg id="graph" class="graph">
<g id="viewport">
<title>lcd_ind</title>
<!-- Node254 -->
<g id="node1" class="node"><title>Node254</title>
<polygon fill="#bfbfbf" stroke="black" points="0,-270.5 0,-288.5 47,-288.5 47,-270.5 0,-270.5"/>
<text text-anchor="middle" x="23.5" y="-277.3" font-family="Calibri" font-size="9.00">lcd_ind</text>
</g>
<!-- Node255 -->
<g id="node2" class="node"><title>Node255</title>
<g id="a_node2"><a xlink:href="main__main_8h.html#ae9b379f911db06ddd04a15d876ac0732" target="_top" xlink:title="btn_push">
<polygon fill="none" stroke="black" points="652.5,-332.5 652.5,-350.5 707.5,-350.5 707.5,-332.5 652.5,-332.5"/>
<text text-anchor="middle" x="680" y="-339.3" font-family="Calibri" font-size="9.00">btn_push</text>
</a>
</g>
</g>
<!-- Node254&#45;&gt;Node255 -->
<g id="edge1" class="edge"><title>Node254&#45;&gt;Node255</title>
<path fill="none" stroke="midnightblue" d="M30.1428,-298.299C46.8427,-349.653 101.136,-488.5 200,-488.5 200,-488.5 200,-488.5 490.5,-488.5 580.556,-488.5 653.38,-382.877 673.479,-350.696"/>
<polygon fill="midnightblue" stroke="midnightblue" points="33.4801,-297.244 27.1473,-288.75 26.801,-299.339 33.4801,-297.244"/>
</g>
<!-- Node256 -->
<g id="node3" class="node"><title>Node256</title>
<g id="a_node3"><a xlink:href="main__main_8h.html#a1c9e5d54d8cf7f3d041aa2e0b330b3dd" target="_top" xlink:title="button_proc">
<polygon fill="none" stroke="black" points="759,-265.5 759,-283.5 824,-283.5 824,-265.5 759,-265.5"/>
<text text-anchor="middle" x="791.5" y="-272.3" font-family="Calibri" font-size="9.00">button_proc</text>
</a>
</g>
</g>
<!-- Node254&#45;&gt;Node256 -->
<g id="edge4" class="edge"><title>Node254&#45;&gt;Node256</title>
<path fill="none" stroke="midnightblue" d="M26.4004,-299.032C30.727,-334.256 44.1505,-409.236 83,-457.5 120.854,-504.527 139.631,-526.5 200,-526.5 200,-526.5 200,-526.5 578,-526.5 707.623,-526.5 774.221,-329.232 787.849,-283.768"/>
<polygon fill="midnightblue" stroke="midnightblue" points="29.8365,-298.261 25.2582,-288.707 22.879,-299.031 29.8365,-298.261"/>
</g>
<!-- Node257 -->
<g id="node4" class="node"><title>Node257</title>
<g id="a_node4"><a xlink:href="main_8c.html#acdef7a1fd863a6d3770c1268cb06add3" target="_top" xlink:title="main">
<polygon fill="none" stroke="black" points="872,-208.5 872,-226.5 910,-226.5 910,-208.5 872,-208.5"/>
<text text-anchor="middle" x="891" y="-215.3" font-family="Calibri" font-size="9.00">main</text>
</a>
</g>
</g>
<!-- Node254&#45;&gt;Node257 -->
<g id="edge11" class="edge"><title>Node254&#45;&gt;Node257</title>
<path fill="none" stroke="midnightblue" d="M24.7441,-298.8C26.2209,-339.993 34.9284,-437.79 83,-499.5 119.556,-546.428 140.514,-564.5 200,-564.5 200,-564.5 200,-564.5 681,-564.5 843.454,-564.5 882.902,-281.964 889.058,-226.781"/>
<polygon fill="midnightblue" stroke="midnightblue" points="28.2369,-298.461 24.4899,-288.551 21.2391,-298.635 28.2369,-298.461"/>
</g>
<!-- Node258 -->
<g id="node5" class="node"><title>Node258</title>
<g id="a_node5"><a xlink:href="main__main_8h.html#ac445892220ccb3b4b337dd3e764bd6c6" target="_top" xlink:title="button_proc_test">
<polygon fill="none" stroke="black" points="637,-152.5 637,-170.5 723,-170.5 723,-152.5 637,-152.5"/>
<text text-anchor="middle" x="680" y="-159.3" font-family="Calibri" font-size="9.00">button_proc_test</text>
</a>
</g>
</g>
<!-- Node254&#45;&gt;Node258 -->
<g id="edge5" class="edge"><title>Node254&#45;&gt;Node258</title>
<path fill="none" stroke="midnightblue" d="M33.0976,-261.167C42.8226,-242.188 60.3052,-212.802 83,-194.5 126.751,-159.217 143.794,-146.5 200,-146.5 200,-146.5 200,-146.5 490.5,-146.5 540.893,-146.5 598.625,-151.893 636.778,-156.212"/>
<polygon fill="midnightblue" stroke="midnightblue" points="29.8946,-259.749 28.6206,-270.267 36.1756,-262.839 29.8946,-259.749"/>
</g>
<!-- Node259 -->
<g id="node6" class="node"><title>Node259</title>
<g id="a_node6"><a xlink:href="main__main_8h.html#a5b51833f12193accc58a0162848dc02e" target="_top" xlink:title="lcd_prep">
<polygon fill="none" stroke="black" points="654,-113.5 654,-131.5 706,-131.5 706,-113.5 654,-113.5"/>
<text text-anchor="middle" x="680" y="-120.3" font-family="Calibri" font-size="9.00">lcd_prep</text>
</a>
</g>
</g>
<!-- Node254&#45;&gt;Node259 -->
<g id="edge7" class="edge"><title>Node254&#45;&gt;Node259</title>
<path fill="none" stroke="midnightblue" d="M28.429,-260.517C35.0541,-233.06 50.98,-182.295 83,-152.5 123.671,-114.655 144.444,-108.5 200,-108.5 200,-108.5 200,-108.5 490.5,-108.5 549.076,-108.5 617.611,-115.307 653.738,-119.428"/>
<polygon fill="midnightblue" stroke="midnightblue" points="24.9806,-259.899 26.2025,-270.423 31.8102,-261.434 24.9806,-259.899"/>
</g>
<!-- Node261 -->
<g id="node8" class="node"><title>Node261</title>
<g id="a_node8"><a xlink:href="main_8h.html#a3cfc40ce98a046339c33b0ee86777042" target="_top" xlink:title="show_pwr">
<polygon fill="none" stroke="black" points="83,-270.5 83,-288.5 141,-288.5 141,-270.5 83,-270.5"/>
<text text-anchor="middle" x="112" y="-277.3" font-family="Calibri" font-size="9.00">show_pwr</text>
</a>
</g>
</g>
<!-- Node254&#45;&gt;Node261 -->
<g id="edge12" class="edge"><title>Node254&#45;&gt;Node261</title>
<path fill="none" stroke="midnightblue" d="M57.4431,-279.5C65.8206,-279.5 74.746,-279.5 82.8599,-279.5"/>
<polygon fill="midnightblue" stroke="midnightblue" points="57.2269,-276 47.2269,-279.5 57.2268,-283 57.2269,-276"/>
</g>
<!-- Node270 -->
<g id="node17" class="node"><title>Node270</title>
<g id="a_node17"><a xlink:href="main__main_8h.html#ad9d02e37f1f201576a9d93fd36fc4768" target="_top" xlink:title="show_reset">
<polygon fill="none" stroke="black" points="648,-189.5 648,-207.5 712,-207.5 712,-189.5 648,-189.5"/>
<text text-anchor="middle" x="680" y="-196.3" font-family="Calibri" font-size="9.00">show_reset</text>
</a>
</g>
</g>
<!-- Node254&#45;&gt;Node270 -->
<g id="edge45" class="edge"><title>Node254&#45;&gt;Node270</title>
<path fill="none" stroke="midnightblue" d="M40.7176,-263.475C69.9228,-236.396 134.445,-184.5 200,-184.5 200,-184.5 200,-184.5 490.5,-184.5 545.959,-184.5 610.344,-190.601 647.701,-194.748"/>
<polygon fill="midnightblue" stroke="midnightblue" points="38.2798,-260.963 33.4452,-270.391 43.1037,-266.036 38.2798,-260.963"/>
</g>
<!-- Node255&#45;&gt;Node256 -->
<g id="edge2" class="edge"><title>Node255&#45;&gt;Node256</title>
<path fill="none" stroke="midnightblue" d="M704.339,-327.219C725.898,-314.028 757.275,-294.829 775.617,-283.607"/>
<polygon fill="midnightblue" stroke="midnightblue" points="702.471,-324.259 695.768,-332.464 706.124,-330.23 702.471,-324.259"/>
</g>
<!-- Node256&#45;&gt;Node257 -->
<g id="edge3" class="edge"><title>Node256&#45;&gt;Node257</title>
<path fill="none" stroke="midnightblue" d="M816.961,-260.2C834.96,-249.677 858.894,-235.685 874.374,-226.635"/>
<polygon fill="midnightblue" stroke="midnightblue" points="815.032,-257.273 808.165,-265.342 818.564,-263.316 815.032,-257.273"/>
</g>
<!-- Node258&#45;&gt;Node257 -->
<g id="edge6" class="edge"><title>Node258&#45;&gt;Node257</title>
<path fill="none" stroke="midnightblue" d="M724.94,-173.273C770.436,-185.464 839.316,-203.92 871.812,-212.627"/>
<polygon fill="midnightblue" stroke="midnightblue" points="725.61,-169.829 715.045,-170.622 723.798,-176.591 725.61,-169.829"/>
</g>
<!-- Node259&#45;&gt;Node257 -->
<g id="edge8" class="edge"><title>Node259&#45;&gt;Node257</title>
<path fill="none" stroke="midnightblue" d="M716.257,-120.422C746.572,-120.156 790.565,-123.498 824,-141.5 839.079,-149.619 869.756,-189.855 883.308,-208.27"/>
<polygon fill="midnightblue" stroke="midnightblue" points="716.063,-116.926 706.144,-120.649 716.22,-123.924 716.063,-116.926"/>
</g>
<!-- Node260 -->
<g id="node7" class="node"><title>Node260</title>
<g id="a_node7"><a xlink:href="main_8c.html#a5eca6549371bdbac746144deefa131ca" target="_top" xlink:title="Test_init">
<polygon fill="none" stroke="black" points="765,-151.5 765,-169.5 818,-169.5 818,-151.5 765,-151.5"/>
<text text-anchor="middle" x="791.5" y="-158.3" font-family="Calibri" font-size="9.00">Test_init</text>
</a>
</g>
</g>
<!-- Node259&#45;&gt;Node260 -->
<g id="edge9" class="edge"><title>Node259&#45;&gt;Node260</title>
<path fill="none" stroke="midnightblue" d="M715.629,-134.517C731.54,-140.039 750.083,-146.474 764.735,-151.559"/>
<polygon fill="midnightblue" stroke="midnightblue" points="716.716,-131.19 706.122,-131.218 714.421,-137.803 716.716,-131.19"/>
</g>
<!-- Node260&#45;&gt;Node257 -->
<g id="edge10" class="edge"><title>Node260&#45;&gt;Node257</title>
<path fill="none" stroke="midnightblue" d="M816.961,-174.8C834.96,-185.323 858.894,-199.315 874.374,-208.365"/>
<polygon fill="midnightblue" stroke="midnightblue" points="818.564,-171.684 808.165,-169.658 815.032,-177.727 818.564,-171.684"/>
</g>
<!-- Node262 -->
<g id="node9" class="node"><title>Node262</title>
<g id="a_node9"><a xlink:href="main_8h.html#a6c26e075660bdd7a54df984ec3fc7ff4" target="_top" xlink:title="get_swr">
<polygon fill="none" stroke="black" points="177,-327.5 177,-345.5 225,-345.5 225,-327.5 177,-327.5"/>
<text text-anchor="middle" x="201" y="-334.3" font-family="Calibri" font-size="9.00">get_swr</text>
</a>
</g>
</g>
<!-- Node261&#45;&gt;Node262 -->
<g id="edge13" class="edge"><title>Node261&#45;&gt;Node262</title>
<path fill="none" stroke="midnightblue" d="M135.716,-294.383C151.669,-304.835 172.497,-318.481 186.057,-327.365"/>
<polygon fill="midnightblue" stroke="midnightblue" points="137.261,-291.211 126.978,-288.658 133.425,-297.066 137.261,-291.211"/>
</g>
<!-- Node269 -->
<g id="node16" class="node"><title>Node269</title>
<g id="a_node16"><a xlink:href="main__main_8h.html#a236d4ed610f158cf424d552ac88e666c" target="_top" xlink:title="lcd_pwr">
<polygon fill="none" stroke="black" points="553,-227.5 553,-245.5 601,-245.5 601,-227.5 553,-227.5"/>
<text text-anchor="middle" x="577" y="-234.3" font-family="Calibri" font-size="9.00">lcd_pwr</text>
</a>
</g>
</g>
<!-- Node261&#45;&gt;Node269 -->
<g id="edge28" class="edge"><title>Node261&#45;&gt;Node269</title>
<path fill="none" stroke="midnightblue" d="M138.804,-265.655C172.712,-248.784 234.591,-222.5 291,-222.5 291,-222.5 291,-222.5 393.5,-222.5 451.017,-222.5 518.432,-229.499 552.996,-233.599"/>
<polygon fill="midnightblue" stroke="midnightblue" points="136.931,-262.681 129.612,-270.342 140.111,-268.918 136.931,-262.681"/>
</g>
<!-- Node263 -->
<g id="node10" class="node"><title>Node263</title>
<g id="a_node10"><a xlink:href="main_8h.html#a740ef1b33bb02cd952ad7d8708999472" target="_top" xlink:title="coarse_cap">
<polygon fill="none" stroke="black" points="261,-289.5 261,-307.5 323,-307.5 323,-289.5 261,-289.5"/>
<text text-anchor="middle" x="292" y="-296.3" font-family="Calibri" font-size="9.00">coarse_cap</text>
</a>
</g>
</g>
<!-- Node262&#45;&gt;Node263 -->
<g id="edge14" class="edge"><title>Node262&#45;&gt;Node263</title>
<path fill="none" stroke="midnightblue" d="M232.507,-323.475C244.77,-318.239 258.612,-312.329 269.751,-307.573"/>
<polygon fill="midnightblue" stroke="midnightblue" points="230.914,-320.349 223.092,-327.495 233.663,-326.787 230.914,-320.349"/>
</g>
<!-- Node264 -->
<g id="node11" class="node"><title>Node264</title>
<g id="a_node11"><a xlink:href="main_8h.html#a5c7c60c7d70cf76cc52e87722bb0f614" target="_top" xlink:title="coarse_tune">
<polygon fill="none" stroke="black" points="359,-327.5 359,-345.5 426,-345.5 426,-327.5 359,-327.5"/>
<text text-anchor="middle" x="392.5" y="-334.3" font-family="Calibri" font-size="9.00">coarse_tune</text>
</a>
</g>
</g>
<!-- Node262&#45;&gt;Node264 -->
<g id="edge19" class="edge"><title>Node262&#45;&gt;Node264</title>
<path fill="none" stroke="midnightblue" d="M235.368,-336.5C270.16,-336.5 324.337,-336.5 358.856,-336.5"/>
<polygon fill="midnightblue" stroke="midnightblue" points="235.236,-333 225.236,-336.5 235.236,-340 235.236,-333"/>
</g>
<!-- Node265 -->
<g id="node12" class="node"><title>Node265</title>
<g id="a_node12"><a xlink:href="main_8h.html#a454a7687c8039514766571b23516ca9c" target="_top" xlink:title="sub_tune">
<polygon fill="none" stroke="black" points="462,-347.5 462,-365.5 517,-365.5 517,-347.5 462,-347.5"/>
<text text-anchor="middle" x="489.5" y="-354.3" font-family="Calibri" font-size="9.00">sub_tune</text>
</a>
</g>
</g>
<!-- Node262&#45;&gt;Node265 -->
<g id="edge26" class="edge"><title>Node262&#45;&gt;Node265</title>
<path fill="none" stroke="midnightblue" d="M234.941,-345.496C243.375,-347.473 252.473,-349.325 261,-350.5 333.019,-360.42 419.037,-359.18 461.726,-357.697"/>
<polygon fill="midnightblue" stroke="midnightblue" points="235.611,-342.057 225.064,-343.059 233.934,-348.853 235.611,-342.057"/>
</g>
<!-- Node266 -->
<g id="node13" class="node"><title>Node266</title>
<g id="a_node13"><a xlink:href="main_8h.html#a1849f2e5bd63d11a7b9549470e287d17" target="_top" xlink:title="tune">
<polygon fill="none" stroke="black" points="559.5,-347.5 559.5,-365.5 594.5,-365.5 594.5,-347.5 559.5,-347.5"/>
<text text-anchor="middle" x="577" y="-354.3" font-family="Calibri" font-size="9.00">tune</text>
</a>
</g>
</g>
<!-- Node262&#45;&gt;Node266 -->
<g id="edge27" class="edge"><title>Node262&#45;&gt;Node266</title>
<path fill="none" stroke="midnightblue" d="M224.017,-350.989C234.723,-357.255 248.053,-363.953 261,-367.5 370.776,-397.572 404.425,-391.29 517,-374.5 531.617,-372.32 547.62,-367.26 559.267,-363.058"/>
<polygon fill="midnightblue" stroke="midnightblue" points="225.715,-347.925 215.36,-345.685 222.058,-353.893 225.715,-347.925"/>
</g>
<!-- Node267 -->
<g id="node14" class="node"><title>Node267</title>
<g id="a_node14"><a xlink:href="main_8h.html#ab518a3d2c723f12d3af3024a195606ce" target="_top" xlink:title="sharp_cap">
<polygon fill="none" stroke="black" points="363,-290.5 363,-308.5 422,-308.5 422,-290.5 363,-290.5"/>
<text text-anchor="middle" x="392.5" y="-297.3" font-family="Calibri" font-size="9.00">sharp_cap</text>
</a>
</g>
</g>
<!-- Node262&#45;&gt;Node267 -->
<g id="edge20" class="edge"><title>Node262&#45;&gt;Node267</title>
<path fill="none" stroke="midnightblue" d="M213.931,-319.2C224.499,-305.528 241.286,-287.468 261,-279.5 298.402,-264.384 346.058,-279.506 372.19,-290.433"/>
<polygon fill="midnightblue" stroke="midnightblue" points="211.008,-317.267 207.915,-327.4 216.652,-321.407 211.008,-317.267"/>
</g>
<!-- Node268 -->
<g id="node15" class="node"><title>Node268</title>
<g id="a_node15"><a xlink:href="main_8h.html#a72210b3ed1d5691c5bbda8c7f1e97197" target="_top" xlink:title="sharp_ind">
<polygon fill="none" stroke="black" points="363.5,-441.5 363.5,-459.5 421.5,-459.5 421.5,-441.5 363.5,-441.5"/>
<text text-anchor="middle" x="392.5" y="-448.3" font-family="Calibri" font-size="9.00">sharp_ind</text>
</a>
</g>
</g>
<!-- Node262&#45;&gt;Node268 -->
<g id="edge23" class="edge"><title>Node262&#45;&gt;Node268</title>
<path fill="none" stroke="midnightblue" d="M208.904,-355.06C217.682,-375.933 234.904,-409.17 261,-426.5 291.8,-446.954 335.276,-451.194 363.426,-451.511"/>
<polygon fill="midnightblue" stroke="midnightblue" points="212.121,-353.677 205.177,-345.676 205.616,-356.261 212.121,-353.677"/>
</g>
<!-- Node263&#45;&gt;Node264 -->
<g id="edge15" class="edge"><title>Node263&#45;&gt;Node264</title>
<path fill="none" stroke="midnightblue" d="M325.959,-311.215C339.728,-316.527 355.411,-322.577 367.983,-327.427"/>
<polygon fill="midnightblue" stroke="midnightblue" points="326.933,-307.839 316.343,-307.505 324.413,-314.37 326.933,-307.839"/>
</g>
<!-- Node264&#45;&gt;Node265 -->
<g id="edge16" class="edge"><title>Node264&#45;&gt;Node265</title>
<path fill="none" stroke="midnightblue" d="M436.215,-345.493C444.896,-347.32 453.793,-349.193 461.729,-350.864"/>
<polygon fill="midnightblue" stroke="midnightblue" points="436.7,-342.018 426.194,-343.383 435.258,-348.868 436.7,-342.018"/>
</g>
<!-- Node265&#45;&gt;Node266 -->
<g id="edge17" class="edge"><title>Node265&#45;&gt;Node266</title>
<path fill="none" stroke="midnightblue" d="M527.148,-356.5C538.383,-356.5 550.191,-356.5 559.383,-356.5"/>
<polygon fill="midnightblue" stroke="midnightblue" points="527.084,-353 517.084,-356.5 527.084,-360 527.084,-353"/>
</g>
<!-- Node266&#45;&gt;Node255 -->
<g id="edge18" class="edge"><title>Node266&#45;&gt;Node255</title>
<path fill="none" stroke="midnightblue" d="M604.692,-352.536C619.435,-350.346 637.688,-347.635 652.414,-345.448"/>
<polygon fill="midnightblue" stroke="midnightblue" points="604.055,-349.092 594.678,-354.023 605.084,-356.016 604.055,-349.092"/>
</g>
<!-- Node267&#45;&gt;Node265 -->
<g id="edge21" class="edge"><title>Node267&#45;&gt;Node265</title>
<path fill="none" stroke="midnightblue" d="M419.228,-313.587C421.527,-314.895 423.811,-316.212 426,-317.5 442.755,-327.359 461.648,-339.259 474.232,-347.301"/>
<polygon fill="midnightblue" stroke="midnightblue" points="420.898,-310.511 410.463,-308.677 417.476,-316.618 420.898,-310.511"/>
</g>
<!-- Node267&#45;&gt;Node266 -->
<g id="edge22" class="edge"><title>Node267&#45;&gt;Node266</title>
<path fill="none" stroke="midnightblue" d="M432.082,-311.23C456.457,-318.676 488.602,-328.559 517,-337.5 531.37,-342.024 547.668,-347.283 559.488,-351.119"/>
<polygon fill="midnightblue" stroke="midnightblue" points="433.065,-307.871 422.479,-308.3 431.022,-314.566 433.065,-307.871"/>
</g>
<!-- Node268&#45;&gt;Node265 -->
<g id="edge24" class="edge"><title>Node268&#45;&gt;Node265</title>
<path fill="none" stroke="midnightblue" d="M409.821,-434.35C429.875,-414.508 463.209,-381.525 479.279,-365.624"/>
<polygon fill="midnightblue" stroke="midnightblue" points="407.256,-431.965 402.609,-441.487 412.179,-436.941 407.256,-431.965"/>
</g>
<!-- Node268&#45;&gt;Node266 -->
<g id="edge25" class="edge"><title>Node268&#45;&gt;Node266</title>
<path fill="none" stroke="midnightblue" d="M431.716,-449.615C457.376,-447.512 491.097,-441.719 517,-426.5 542.489,-411.525 562.085,-381.358 570.896,-365.98"/>
<polygon fill="midnightblue" stroke="midnightblue" points="431.355,-446.131 421.61,-450.289 431.821,-453.116 431.355,-446.131"/>
</g>
<!-- Node269&#45;&gt;Node255 -->
<g id="edge44" class="edge"><title>Node269&#45;&gt;Node255</title>
<path fill="none" stroke="midnightblue" d="M594.124,-253.263C615.702,-275.695 653.22,-314.699 670.201,-332.353"/>
<polygon fill="midnightblue" stroke="midnightblue" points="596.418,-250.599 586.963,-245.818 591.373,-255.451 596.418,-250.599"/>
</g>
<!-- Node269&#45;&gt;Node256 -->
<g id="edge31" class="edge"><title>Node269&#45;&gt;Node256</title>
<path fill="none" stroke="midnightblue" d="M611.053,-244.822C619.486,-246.813 628.554,-248.84 637,-250.5 678.95,-258.744 727.796,-265.979 758.918,-270.295"/>
<polygon fill="midnightblue" stroke="midnightblue" points="611.709,-241.38 601.167,-242.438 610.069,-248.185 611.709,-241.38"/>
</g>
<!-- Node269&#45;&gt;Node257 -->
<g id="edge29" class="edge"><title>Node269&#45;&gt;Node257</title>
<path fill="none" stroke="midnightblue" d="M611.412,-234.465C677.12,-230.464 821.167,-221.692 871.89,-218.603"/>
<polygon fill="midnightblue" stroke="midnightblue" points="610.965,-230.986 601.196,-235.087 611.39,-237.973 610.965,-230.986"/>
</g>
<!-- Node269&#45;&gt;Node258 -->
<g id="edge30" class="edge"><title>Node269&#45;&gt;Node258</title>
<path fill="none" stroke="midnightblue" d="M592.423,-219.576C603.615,-207.237 620.037,-190.772 637,-179.5 642.154,-176.075 648.066,-173.066 653.796,-170.538"/>
<polygon fill="midnightblue" stroke="midnightblue" points="589.56,-217.53 585.568,-227.344 594.809,-222.162 589.56,-217.53"/>
</g>
<!-- Node269&#45;&gt;Node270 -->
<g id="edge32" class="edge"><title>Node269&#45;&gt;Node270</title>
<path fill="none" stroke="midnightblue" d="M610.702,-224.196C625.077,-218.788 641.658,-212.55 654.882,-207.574"/>
<polygon fill="midnightblue" stroke="midnightblue" points="609.298,-220.985 601.171,-227.782 611.763,-227.536 609.298,-220.985"/>
</g>
<!-- Node270&#45;&gt;Node256 -->
<g id="edge43" class="edge"><title>Node270&#45;&gt;Node256</title>
<path fill="none" stroke="midnightblue" d="M702.469,-213.401C724.793,-228.895 759.013,-252.646 777.526,-265.495"/>
<polygon fill="midnightblue" stroke="midnightblue" points="704.202,-210.343 693.991,-207.517 700.211,-216.094 704.202,-210.343"/>
</g>
<!-- Node271 -->
<g id="node18" class="node"><title>Node271</title>
<g id="a_node18"><a xlink:href="main__main_8h.html#a6c26e075660bdd7a54df984ec3fc7ff4" target="_top" xlink:title="get_swr">
<polygon fill="none" stroke="black" points="767.5,-75.5 767.5,-93.5 815.5,-93.5 815.5,-75.5 767.5,-75.5"/>
<text text-anchor="middle" x="791.5" y="-82.3" font-family="Calibri" font-size="9.00">get_swr</text>
</a>
</g>
</g>
<!-- Node270&#45;&gt;Node271 -->
<g id="edge33" class="edge"><title>Node270&#45;&gt;Node271</title>
<path fill="none" stroke="midnightblue" d="M715.696,-184.652C718.271,-183.077 720.741,-181.36 723,-179.5 753.611,-154.29 776.916,-111.996 786.159,-93.5549"/>
<polygon fill="midnightblue" stroke="midnightblue" points="713.855,-181.668 706.69,-189.472 717.158,-187.839 713.855,-181.668"/>
</g>
<!-- Node272 -->
<g id="node19" class="node"><title>Node272</title>
<g id="a_node19"><a xlink:href="main__main_8h.html#a740ef1b33bb02cd952ad7d8708999472" target="_top" xlink:title="coarse_cap">
<polygon fill="none" stroke="black" points="860,-75.5 860,-93.5 922,-93.5 922,-75.5 860,-75.5"/>
<text text-anchor="middle" x="891" y="-82.3" font-family="Calibri" font-size="9.00">coarse_cap</text>
</a>
</g>
</g>
<!-- Node271&#45;&gt;Node272 -->
<g id="edge34" class="edge"><title>Node271&#45;&gt;Node272</title>
<path fill="none" stroke="midnightblue" d="M825.711,-84.5C836.715,-84.5 848.899,-84.5 859.674,-84.5"/>
<polygon fill="midnightblue" stroke="midnightblue" points="825.606,-81.0001 815.606,-84.5 825.606,-88.0001 825.606,-81.0001"/>
</g>
<!-- Node273 -->
<g id="node20" class="node"><title>Node273</title>
<g id="a_node20"><a xlink:href="main__main_8h.html#a5c7c60c7d70cf76cc52e87722bb0f614" target="_top" xlink:title="coarse_tune">
<polygon fill="none" stroke="black" points="958,-75.5 958,-93.5 1025,-93.5 1025,-75.5 958,-75.5"/>
<text text-anchor="middle" x="991.5" y="-82.3" font-family="Calibri" font-size="9.00">coarse_tune</text>
</a>
</g>
</g>
<!-- Node271&#45;&gt;Node273 -->
<g id="edge37" class="edge"><title>Node271&#45;&gt;Node273</title>
<path fill="none" stroke="midnightblue" d="M825.551,-95.153C836.406,-98.1547 848.609,-101.007 860,-102.5 887.322,-106.08 894.672,-106.031 922,-102.5 935.658,-100.735 950.477,-97.0696 962.826,-93.5038"/>
<polygon fill="midnightblue" stroke="midnightblue" points="826.207,-91.699 815.628,-92.2689 824.254,-98.4208 826.207,-91.699"/>
</g>
<!-- Node274 -->
<g id="node21" class="node"><title>Node274</title>
<g id="a_node21"><a xlink:href="main__main_8h.html#a1849f2e5bd63d11a7b9549470e287d17" target="_top" xlink:title="tune">
<polygon fill="none" stroke="black" points="1061,-56.5 1061,-74.5 1096,-74.5 1096,-56.5 1061,-56.5"/>
<text text-anchor="middle" x="1078.5" y="-63.3" font-family="Calibri" font-size="9.00">tune</text>
</a>
</g>
</g>
<!-- Node271&#45;&gt;Node274 -->
<g id="edge42" class="edge"><title>Node271&#45;&gt;Node274</title>
<path fill="none" stroke="midnightblue" d="M814.626,-98.958C827.337,-106.394 843.927,-114.681 860,-118.5 931.681,-135.534 956.689,-130.103 1025,-102.5 1041.33,-95.8995 1057.5,-83.3524 1067.49,-74.7134"/>
<polygon fill="midnightblue" stroke="midnightblue" points="816.093,-95.7528 805.734,-93.5257 812.443,-101.726 816.093,-95.7528"/>
</g>
<!-- Node275 -->
<g id="node22" class="node"><title>Node275</title>
<g id="a_node22"><a xlink:href="main__main_8h.html#ab518a3d2c723f12d3af3024a195606ce" target="_top" xlink:title="sharp_cap">
<polygon fill="none" stroke="black" points="962,-37.5 962,-55.5 1021,-55.5 1021,-37.5 962,-37.5"/>
<text text-anchor="middle" x="991.5" y="-44.3" font-family="Calibri" font-size="9.00">sharp_cap</text>
</a>
</g>
</g>
<!-- Node271&#45;&gt;Node275 -->
<g id="edge38" class="edge"><title>Node271&#45;&gt;Node275</title>
<path fill="none" stroke="midnightblue" d="M825.348,-74.3306C836.295,-71.1896 848.604,-67.9228 860,-65.5 894.712,-58.1203 935.23,-52.7117 961.798,-49.5927"/>
<polygon fill="midnightblue" stroke="midnightblue" points="824.351,-70.9754 815.743,-77.152 826.324,-77.6916 824.351,-70.9754"/>
</g>
<!-- Node276 -->
<g id="node23" class="node"><title>Node276</title>
<g id="a_node23"><a xlink:href="main__main_8h.html#a72210b3ed1d5691c5bbda8c7f1e97197" target="_top" xlink:title="sharp_ind">
<polygon fill="none" stroke="black" points="962.5,-0.5 962.5,-18.5 1020.5,-18.5 1020.5,-0.5 962.5,-0.5"/>
<text text-anchor="middle" x="991.5" y="-7.3" font-family="Calibri" font-size="9.00">sharp_ind</text>
</a>
</g>
</g>
<!-- Node271&#45;&gt;Node276 -->
<g id="edge40" class="edge"><title>Node271&#45;&gt;Node276</title>
<path fill="none" stroke="midnightblue" d="M818.646,-70.6305C830.999,-64.3608 846.062,-57.1164 860,-51.5 894.549,-37.5787 935.627,-24.982 962.34,-17.2931"/>
<polygon fill="midnightblue" stroke="midnightblue" points="816.678,-67.7071 809.394,-75.4001 819.886,-73.929 816.678,-67.7071"/>
</g>
<!-- Node272&#45;&gt;Node273 -->
<g id="edge35" class="edge"><title>Node272&#45;&gt;Node273</title>
<path fill="none" stroke="midnightblue" d="M932.23,-84.5C940.755,-84.5 949.653,-84.5 957.855,-84.5"/>
<polygon fill="midnightblue" stroke="midnightblue" points="932.088,-81.0001 922.088,-84.5 932.088,-88.0001 932.088,-81.0001"/>
</g>
<!-- Node273&#45;&gt;Node274 -->
<g id="edge36" class="edge"><title>Node273&#45;&gt;Node274</title>
<path fill="none" stroke="midnightblue" d="M1034.98,-75.0041C1044.14,-72.9559 1053.31,-70.9075 1060.77,-69.2396"/>
<polygon fill="midnightblue" stroke="midnightblue" points="1034.12,-71.6112 1025.12,-77.2084 1035.64,-78.4426 1034.12,-71.6112"/>
</g>
<!-- Node275&#45;&gt;Node274 -->
<g id="edge39" class="edge"><title>Node275&#45;&gt;Node274</title>
<path fill="none" stroke="midnightblue" d="M1031.06,-55.1184C1041.44,-57.4401 1052.15,-59.8326 1060.66,-61.7349"/>
<polygon fill="midnightblue" stroke="midnightblue" points="1031.8,-51.6984 1021.28,-52.9325 1030.27,-58.5298 1031.8,-51.6984"/>
</g>
<!-- Node276&#45;&gt;Node274 -->
<g id="edge41" class="edge"><title>Node276&#45;&gt;Node274</title>
<path fill="none" stroke="midnightblue" d="M1018.95,-23.7984C1021.02,-25.0207 1023.05,-26.2632 1025,-27.5 1039.43,-36.6737 1055.24,-48.3501 1065.69,-56.3232"/>
<polygon fill="midnightblue" stroke="midnightblue" points="1020.35,-20.5652 1009.93,-18.6479 1016.88,-26.6447 1020.35,-20.5652"/>
</g>
</g>
</svg>
        <g id="navigator" transform="translate(0 0)" fill="#404254">
                <rect fill="#f2f5e9" fill-opacity="0.5" stroke="#606060" stroke-width=".5" x="0" y="0" width="60" height="60"/>
                <use id="zoomplus" xlink:href="#zoomPlus" x="17" y="9" onmousedown="handleZoom(evt,'in')"/>
                <use id="zoomminus" xlink:href="#zoomMin" x="42" y="9" onmousedown="handleZoom(evt,'out')"/>
                <use id="reset" xlink:href="#resetDef" x="30" y="36" onmousedown="handleReset()"/>
                <g id="arrowUp" xlink:href="#dirArrow" transform="translate(30 24)" onmousedown="handlePan(0,-1)">
                  <use xlink:href="#rim" fill="#404040">
                        <set attributeName="fill" to="#808080" begin="arrowUp.mouseover" end="arrowUp.mouseout"/>
                  </use>
                  <path fill="none" stroke="white" stroke-width="1.5" d="M0,-3.0v7 M-2.5,-0.5L0,-3.0L2.5,-0.5"/>
                </g>
                <g id="arrowRight" xlink:href="#dirArrow" transform="rotate(90) translate(36 -43)" onmousedown="handlePan(1,0)">
                  <use xlink:href="#rim" fill="#404040">
                        <set attributeName="fill" to="#808080" begin="arrowRight.mouseover" end="arrowRight.mouseout"/>
                  </use>
                  <path fill="none" stroke="white" stroke-width="1.5" d="M0,-3.0v7 M-2.5,-0.5L0,-3.0L2.5,-0.5"/>
                </g>
                <g id="arrowDown" xlink:href="#dirArrow" transform="rotate(180) translate(-30 -48)" onmousedown="handlePan(0,1)">
                  <use xlink:href="#rim" fill="#404040">
                        <set attributeName="fill" to="#808080" begin="arrowDown.mouseover" end="arrowDown.mouseout"/>
                  </use>
                  <path fill="none" stroke="white" stroke-width="1.5" d="M0,-3.0v7 M-2.5,-0.5L0,-3.0L2.5,-0.5"/>
                </g>
                <g id="arrowLeft" xlink:href="#dirArrow" transform="rotate(270) translate(-36 17)" onmousedown="handlePan(-1,0)">
                  <use xlink:href="#rim" fill="#404040">
                        <set attributeName="fill" to="#808080" begin="arrowLeft.mouseover" end="arrowLeft.mouseout"/>
                  </use>
                  <path fill="none" stroke="white" stroke-width="1.5" d="M0,-3.0v7 M-2.5,-0.5L0,-3.0L2.5,-0.5"/>
                </g>
        </g>
        <svg viewBox="0 0 15 15" width="100%" height="30px" preserveAspectRatio="xMaxYMin meet">
         <g id="arrow_out" transform="scale(0.3 0.3)">
          <a xlink:href="main__main_8h_abf3918c21112474db61609b3462577ee_icgraph_org.svg" target="_base">
           <rect id="button" ry="5" rx="5" y="6" x="6" height="38" width="38"
                fill="#f2f5e9" fill-opacity="0.5" stroke="#606060" stroke-width="1.0"/>
           <path id="arrow"
             d="M 11.500037,31.436501 C 11.940474,20.09759 22.043105,11.32322 32.158766,21.979434 L 37.068811,17.246167 C 37.068811,17.246167 37.088388,32 37.088388,32 L 22.160133,31.978069 C 22.160133,31.978069 26.997745,27.140456 26.997745,27.140456 C 18.528582,18.264221 13.291696,25.230495 11.500037,31.436501 z"
             style="fill:#404040;"/>
          </a>
         </g>
        </svg>
</svg>
