<?xml version="1.0" encoding="UTF-8" standalone="no"?>
<!DOCTYPE svg PUBLIC "-//W3C//DTD SVG 1.1//EN"
 "http://www.w3.org/Graphics/SVG/1.1/DTD/svg11.dtd">
<!-- Generated by graphviz version 2.38.0 (20140413.2041)
 -->
<!-- Title: get_swr Pages: 1 -->
<!--zoomable 227 -->
<svg id="main" version="1.1" xmlns="http://www.w3.org/2000/svg" xmlns:xlink="http://www.w3.org/1999/xlink" xml:space="preserve" onload="init(evt)">
<style type="text/css"><![CDATA[
.edge:hover path { stroke: red; }
.edge:hover polygon { stroke: red; fill: red; }
]]></style>
<script type="text/javascript"><![CDATA[
var edges = document.getElementsByTagName('g');
if (edges && edges.length) {
  for (var i=0;i<edges.length;i++) {
    if (edges[i].id.substr(0,4)=='edge') {
      edges[i].setAttribute('class','edge');
    }
  }
}
]]></script>
        <defs>
                <circle id="rim" cx="0" cy="0" r="7"/>
                <circle id="rim2" cx="0" cy="0" r="3.5"/>
                <g id="zoomPlus">
                        <use xlink:href="#rim" fill="#404040">
                                <set attributeName="fill" to="#808080" begin="zoomplus.mouseover" end="zoomplus.mouseout"/>
                        </use>
                        <path d="M-4,0h8M0,-4v8" fill="none" stroke="white" stroke-width="1.5" pointer-events="none"/>
                </g>
                <g id="zoomMin">
                        <use xlink:href="#rim" fill="#404040">
                                <set attributeName="fill" to="#808080" begin="zoomminus.mouseover" end="zoomminus.mouseout"/>
                        </use>
                        <path d="M-4,0h8" fill="none" stroke="white" stroke-width="1.5" pointer-events="none"/>
                </g>
                <g id="dirArrow">
                        <path fill="none" stroke="white" stroke-width="1.5" d="M0,-3.0v7 M-2.5,-0.5L0,-3.0L2.5,-0.5"/>
                </g>
               <g id="resetDef">
                       <use xlink:href="#rim2" fill="#404040">
                               <set attributeName="fill" to="#808080" begin="reset.mouseover" end="reset.mouseout"/>
                       </use>
               </g>
        </defs>

<script type="text/javascript">
var viewWidth = 681;
var viewHeight = 227;
var sectionId = 'dynsection-14';
</script>
<script xlink:href="svgpan.js"/>
<svg id="graph" class="graph">
<g id="viewport">
<title>get_swr</title>
<!-- Node180 -->
<g id="node1" class="node"><title>Node180</title>
<polygon fill="#bfbfbf" stroke="black" points="0,-88.7254 0,-106.725 48,-106.725 48,-88.7254 0,-88.7254"/>
<text text-anchor="middle" x="24" y="-95.5254" font-family="Calibri" font-size="9.00">get_swr</text>
</g>
<!-- Node181 -->
<g id="node2" class="node"><title>Node181</title>
<g id="a_node2"><a xlink:href="main_8h.html#ab37ca657b79c6b9176cb63e9d812a182" target="_top" xlink:title="get_pwr">
<polygon fill="none" stroke="black" points="91.5,-144.725 91.5,-162.725 140.5,-162.725 140.5,-144.725 91.5,-144.725"/>
<text text-anchor="middle" x="116" y="-151.525" font-family="Calibri" font-size="9.00">get_pwr</text>
</a>
</g>
</g>
<!-- Node180&#45;&gt;Node181 -->
<g id="edge1" class="edge"><title>Node180&#45;&gt;Node181</title>
<path fill="none" stroke="midnightblue" d="M39.8617,-106.973C54.0159,-115.78 75.5325,-129.168 91.9186,-139.364"/>
<polygon fill="midnightblue" stroke="midnightblue" points="90.0752,-142.339 100.415,-144.65 93.7734,-136.395 90.0752,-142.339"/>
</g>
<!-- Node185 -->
<g id="node6" class="node"><title>Node185</title>
<g id="a_node6"><a xlink:href="main_8h.html#a3cfc40ce98a046339c33b0ee86777042" target="_top" xlink:title="show_pwr">
<polygon fill="none" stroke="black" points="87,-88.7254 87,-106.725 145,-106.725 145,-88.7254 87,-88.7254"/>
<text text-anchor="middle" x="116" y="-95.5254" font-family="Calibri" font-size="9.00">show_pwr</text>
</a>
</g>
</g>
<!-- Node180&#45;&gt;Node185 -->
<g id="edge5" class="edge"><title>Node180&#45;&gt;Node185</title>
<path fill="none" stroke="midnightblue" d="M48.1772,-97.7254C56.8213,-97.7254 66.883,-97.7254 76.5348,-97.7254"/>
<polygon fill="midnightblue" stroke="midnightblue" points="76.7608,-101.225 86.7607,-97.7254 76.7607,-94.2255 76.7608,-101.225"/>
</g>
<!-- Node194 -->
<g id="node15" class="node"><title>Node194</title>
<g id="a_node15"><a xlink:href="main_8h.html#ad9d02e37f1f201576a9d93fd36fc4768" target="_top" xlink:title="show_reset">
<polygon fill="none" stroke="black" points="84,-51.7254 84,-69.7254 148,-69.7254 148,-51.7254 84,-51.7254"/>
<text text-anchor="middle" x="116" y="-58.5254" font-family="Calibri" font-size="9.00">show_reset</text>
</a>
</g>
</g>
<!-- Node180&#45;&gt;Node194 -->
<g id="edge20" class="edge"><title>Node180&#45;&gt;Node194</title>
<path fill="none" stroke="midnightblue" d="M47.2472,-88.5793C58.255,-84.0539 71.7277,-78.5151 83.7514,-73.572"/>
<polygon fill="midnightblue" stroke="midnightblue" points="85.0906,-76.8057 93.0087,-69.7662 82.429,-70.3315 85.0906,-76.8057"/>
</g>
<!-- Node182 -->
<g id="node3" class="node"><title>Node182</title>
<g id="a_node3"><a xlink:href="main_8h.html#ab19e6e081315a9a200394b74d10de395" target="_top" xlink:title="correction">
<polygon fill="none" stroke="black" points="188,-200.725 188,-218.725 245,-218.725 245,-200.725 188,-200.725"/>
<text text-anchor="middle" x="216.5" y="-207.525" font-family="Calibri" font-size="9.00">correction</text>
</a>
</g>
</g>
<!-- Node181&#45;&gt;Node182 -->
<g id="edge2" class="edge"><title>Node181&#45;&gt;Node182</title>
<path fill="none" stroke="midnightblue" d="M133.265,-162.973C148.9,-171.861 172.742,-185.416 190.735,-195.646"/>
<polygon fill="midnightblue" stroke="midnightblue" points="189.114,-198.75 199.537,-200.65 192.574,-192.665 189.114,-198.75"/>
</g>
<!-- Node183 -->
<g id="node4" class="node"><title>Node183</title>
<g id="a_node4"><a xlink:href="main_8h.html#acfd46f8711e9c1c20fffdfc8bdaa0ddd" target="_top" xlink:title="get_forward">
<polygon fill="none" stroke="black" points="184,-163.725 184,-181.725 249,-181.725 249,-163.725 184,-163.725"/>
<text text-anchor="middle" x="216.5" y="-170.525" font-family="Calibri" font-size="9.00">get_forward</text>
</a>
</g>
</g>
<!-- Node181&#45;&gt;Node183 -->
<g id="edge3" class="edge"><title>Node181&#45;&gt;Node183</title>
<path fill="none" stroke="midnightblue" d="M140.593,-158.276C150.63,-160.212 162.639,-162.529 174.071,-164.734"/>
<polygon fill="midnightblue" stroke="midnightblue" points="173.422,-168.173 183.904,-166.631 174.748,-161.3 173.422,-168.173"/>
</g>
<!-- Node184 -->
<g id="node5" class="node"><title>Node184</title>
<g id="a_node5"><a xlink:href="main_8h.html#aa6b9a2b3d88f578ba6a9fefd911eae75" target="_top" xlink:title="get_reverse">
<polygon fill="none" stroke="black" points="184.5,-126.725 184.5,-144.725 248.5,-144.725 248.5,-126.725 184.5,-126.725"/>
<text text-anchor="middle" x="216.5" y="-133.525" font-family="Calibri" font-size="9.00">get_reverse</text>
</a>
</g>
</g>
<!-- Node181&#45;&gt;Node184 -->
<g id="edge4" class="edge"><title>Node181&#45;&gt;Node184</title>
<path fill="none" stroke="midnightblue" d="M140.593,-149.414C150.718,-147.564 162.849,-145.347 174.371,-143.241"/>
<polygon fill="midnightblue" stroke="midnightblue" points="175.066,-146.672 184.274,-141.432 173.807,-139.786 175.066,-146.672"/>
</g>
<!-- Node186 -->
<g id="node7" class="node"><title>Node186</title>
<g id="a_node7"><a xlink:href="oled__control_8c.html#a9d56c6c2e653b24a0caf505492ad818a" target="_top" xlink:title="led_wr_str">
<polygon fill="none" stroke="black" points="285,-69.7254 285,-87.7254 344,-87.7254 344,-69.7254 285,-69.7254"/>
<text text-anchor="middle" x="314.5" y="-76.5254" font-family="Calibri" font-size="9.00">led_wr_str</text>
</a>
</g>
</g>
<!-- Node185&#45;&gt;Node186 -->
<g id="edge6" class="edge"><title>Node185&#45;&gt;Node186</title>
<path fill="none" stroke="midnightblue" d="M145.154,-95.0031C179.104,-91.7204 236.355,-86.1847 274.533,-82.4932"/>
<polygon fill="midnightblue" stroke="midnightblue" points="275.143,-85.9506 284.76,-81.5043 274.469,-78.9831 275.143,-85.9506"/>
</g>
<!-- Node193 -->
<g id="node14" class="node"><title>Node193</title>
<g id="a_node14"><a xlink:href="main_8c.html#a6911b3f075cdf1d54cb14f17f6e5ef6b" target="_top" xlink:title="lcd_ind">
<polygon fill="none" stroke="black" points="193,-50.7254 193,-68.7254 240,-68.7254 240,-50.7254 193,-50.7254"/>
<text text-anchor="middle" x="216.5" y="-57.5254" font-family="Calibri" font-size="9.00">lcd_ind</text>
</a>
</g>
</g>
<!-- Node185&#45;&gt;Node193 -->
<g id="edge18" class="edge"><title>Node185&#45;&gt;Node193</title>
<path fill="none" stroke="midnightblue" d="M140.343,-88.7199C153.07,-83.8102 169.023,-77.6557 182.953,-72.2815"/>
<polygon fill="midnightblue" stroke="midnightblue" points="184.594,-75.3999 192.664,-68.5351 182.075,-68.869 184.594,-75.3999"/>
</g>
<!-- Node187 -->
<g id="node8" class="node"><title>Node187</title>
<g id="a_node8"><a xlink:href="oled__control_8c.html#a7c3a2e5f1fed76dc27692132a2574d27" target="_top" xlink:title="oled_wr_str">
<polygon fill="none" stroke="black" points="380,-88.7254 380,-106.725 445,-106.725 445,-88.7254 380,-88.7254"/>
<text text-anchor="middle" x="412.5" y="-95.5254" font-family="Calibri" font-size="9.00">oled_wr_str</text>
</a>
</g>
</g>
<!-- Node186&#45;&gt;Node187 -->
<g id="edge7" class="edge"><title>Node186&#45;&gt;Node187</title>
<path fill="none" stroke="midnightblue" d="M344.043,-84.3745C352.147,-85.9785 361.142,-87.7586 369.852,-89.4826"/>
<polygon fill="midnightblue" stroke="midnightblue" points="369.388,-92.9584 379.877,-91.4666 370.747,-86.0916 369.388,-92.9584"/>
</g>
<!-- Node192 -->
<g id="node13" class="node"><title>Node192</title>
<g id="a_node13"><a xlink:href="oled__control_8c.html#ad25764a33e482f4e9db2701198e02551" target="_top" xlink:title="led_send">
<polygon fill="none" stroke="black" points="385,-31.7254 385,-49.7254 440,-49.7254 440,-31.7254 385,-31.7254"/>
<text text-anchor="middle" x="412.5" y="-38.5254" font-family="Calibri" font-size="9.00">led_send</text>
</a>
</g>
</g>
<!-- Node186&#45;&gt;Node192 -->
<g id="edge14" class="edge"><title>Node186&#45;&gt;Node192</title>
<path fill="none" stroke="midnightblue" d="M338.251,-69.7199C350.476,-64.8808 365.755,-58.8326 379.192,-53.514"/>
<polygon fill="midnightblue" stroke="midnightblue" points="380.57,-56.7328 388.58,-49.7979 377.994,-50.2241 380.57,-56.7328"/>
</g>
<!-- Node188 -->
<g id="node9" class="node"><title>Node188</title>
<g id="a_node9"><a xlink:href="oled__control_8c.html#ab7f6b5c6c1483f6286f2de5786c028d9" target="_top" xlink:title="Soft_I2C_Start">
<polygon fill="none" stroke="black" points="599,-126.725 599,-144.725 671,-144.725 671,-126.725 599,-126.725"/>
<text text-anchor="middle" x="635" y="-133.525" font-family="Calibri" font-size="9.00">Soft_I2C_Start</text>
</a>
</g>
</g>
<!-- Node187&#45;&gt;Node188 -->
<g id="edge8" class="edge"><title>Node187&#45;&gt;Node188</title>
<path fill="none" stroke="midnightblue" d="M420.588,-106.857C431.727,-120.372 454.783,-145.137 481,-154.725 521.036,-169.368 570.474,-158.438 602.12,-148.087"/>
<polygon fill="midnightblue" stroke="midnightblue" points="603.418,-151.342 611.735,-144.779 601.141,-144.722 603.418,-151.342"/>
</g>
<!-- Node189 -->
<g id="node10" class="node"><title>Node189</title>
<g id="a_node10"><a xlink:href="oled__control_8c.html#a73610916645f17c19124e697b005f694" target="_top" xlink:title="Soft_I2C_Write">
<polygon fill="none" stroke="black" points="597,-88.7254 597,-106.725 673,-106.725 673,-88.7254 597,-88.7254"/>
<text text-anchor="middle" x="635" y="-95.5254" font-family="Calibri" font-size="9.00">Soft_I2C_Write</text>
</a>
</g>
</g>
<!-- Node187&#45;&gt;Node189 -->
<g id="edge9" class="edge"><title>Node187&#45;&gt;Node189</title>
<path fill="none" stroke="midnightblue" d="M445.092,-97.7254C482.166,-97.7254 544.001,-97.7254 586.776,-97.7254"/>
<polygon fill="midnightblue" stroke="midnightblue" points="586.944,-101.225 596.944,-97.7254 586.944,-94.2255 586.944,-101.225"/>
</g>
<!-- Node190 -->
<g id="node11" class="node"><title>Node190</title>
<g id="a_node11"><a xlink:href="oled__control_8c.html#a6df77e8ec83c50ed6a5ddaf54aa3a9c2" target="_top" xlink:title="set_addressing">
<polygon fill="none" stroke="black" points="481,-126.725 481,-144.725 561,-144.725 561,-126.725 481,-126.725"/>
<text text-anchor="middle" x="521" y="-133.525" font-family="Calibri" font-size="9.00">set_addressing</text>
</a>
</g>
</g>
<!-- Node187&#45;&gt;Node190 -->
<g id="edge10" class="edge"><title>Node187&#45;&gt;Node190</title>
<path fill="none" stroke="midnightblue" d="M438.739,-106.731C452.565,-111.664 469.912,-117.853 485.024,-123.246"/>
<polygon fill="midnightblue" stroke="midnightblue" points="483.978,-126.589 494.573,-126.653 486.331,-119.996 483.978,-126.589"/>
</g>
<!-- Node191 -->
<g id="node12" class="node"><title>Node191</title>
<g id="a_node12"><a xlink:href="oled__control_8c.html#a16eb842aa672ca44820ae6d5f9933425" target="_top" xlink:title="Soft_I2C_Stop">
<polygon fill="none" stroke="black" points="485.5,-50.7254 485.5,-68.7254 556.5,-68.7254 556.5,-50.7254 485.5,-50.7254"/>
<text text-anchor="middle" x="521" y="-57.5254" font-family="Calibri" font-size="9.00">Soft_I2C_Stop</text>
</a>
</g>
</g>
<!-- Node187&#45;&gt;Node191 -->
<g id="edge13" class="edge"><title>Node187&#45;&gt;Node191</title>
<path fill="none" stroke="midnightblue" d="M438.739,-88.7199C452.565,-83.7869 469.912,-77.5972 485.024,-72.205"/>
<polygon fill="midnightblue" stroke="midnightblue" points="486.331,-75.455 494.573,-68.7979 483.978,-68.8621 486.331,-75.455"/>
</g>
<!-- Node190&#45;&gt;Node188 -->
<g id="edge11" class="edge"><title>Node190&#45;&gt;Node188</title>
<path fill="none" stroke="midnightblue" d="M561.172,-135.725C570.064,-135.725 579.579,-135.725 588.701,-135.725"/>
<polygon fill="midnightblue" stroke="midnightblue" points="588.779,-139.225 598.779,-135.725 588.779,-132.225 588.779,-139.225"/>
</g>
<!-- Node190&#45;&gt;Node189 -->
<g id="edge12" class="edge"><title>Node190&#45;&gt;Node189</title>
<path fill="none" stroke="midnightblue" d="M548.542,-126.72C563.22,-121.74 581.673,-115.479 597.671,-110.051"/>
<polygon fill="midnightblue" stroke="midnightblue" points="598.915,-113.325 607.26,-106.798 596.666,-106.696 598.915,-113.325"/>
</g>
<!-- Node192&#45;&gt;Node188 -->
<g id="edge15" class="edge"><title>Node192&#45;&gt;Node188</title>
<path fill="none" stroke="midnightblue" d="M440.057,-32.8078C471.511,-25.1038 524.263,-17.609 561,-40.7254 592.295,-60.417 571.49,-88.9602 597,-115.725 598.807,-117.622 600.835,-119.379 602.985,-121"/>
<polygon fill="midnightblue" stroke="midnightblue" points="601.374,-124.124 611.682,-126.574 605.151,-118.231 601.374,-124.124"/>
</g>
<!-- Node192&#45;&gt;Node189 -->
<g id="edge16" class="edge"><title>Node192&#45;&gt;Node189</title>
<path fill="none" stroke="midnightblue" d="M428.019,-31.5056C455.29,-15.4519 515.517,13.9465 561,-7.72536 592.045,-22.5177 614.177,-57.6799 625.459,-79.4157"/>
<polygon fill="midnightblue" stroke="midnightblue" points="622.427,-81.1823 629.994,-88.5981 628.704,-78.0822 622.427,-81.1823"/>
</g>
<!-- Node192&#45;&gt;Node191 -->
<g id="edge17" class="edge"><title>Node192&#45;&gt;Node191</title>
<path fill="none" stroke="midnightblue" d="M440.1,-45.4709C450.785,-47.3772 463.4,-49.6277 475.411,-51.7704"/>
<polygon fill="midnightblue" stroke="midnightblue" points="474.842,-55.2243 485.302,-53.5351 476.072,-48.3331 474.842,-55.2243"/>
</g>
<!-- Node193&#45;&gt;Node186 -->
<g id="edge19" class="edge"><title>Node193&#45;&gt;Node186</title>
<path fill="none" stroke="midnightblue" d="M240.251,-64.2281C250.543,-66.2651 263,-68.7306 274.7,-71.0462"/>
<polygon fill="midnightblue" stroke="midnightblue" points="274.224,-74.5198 284.713,-73.028 275.583,-67.653 274.224,-74.5198"/>
</g>
</g>
</svg>
        <g id="navigator" transform="translate(0 0)" fill="#404254">
                <rect fill="#f2f5e9" fill-opacity="0.5" stroke="#606060" stroke-width=".5" x="0" y="0" width="60" height="60"/>
                <use id="zoomplus" xlink:href="#zoomPlus" x="17" y="9" onmousedown="handleZoom(evt,'in')"/>
                <use id="zoomminus" xlink:href="#zoomMin" x="42" y="9" onmousedown="handleZoom(evt,'out')"/>
                <use id="reset" xlink:href="#resetDef" x="30" y="36" onmousedown="handleReset()"/>
                <g id="arrowUp" xlink:href="#dirArrow" transform="translate(30 24)" onmousedown="handlePan(0,-1)">
                  <use xlink:href="#rim" fill="#404040">
                        <set attributeName="fill" to="#808080" begin="arrowUp.mouseover" end="arrowUp.mouseout"/>
                  </use>
                  <path fill="none" stroke="white" stroke-width="1.5" d="M0,-3.0v7 M-2.5,-0.5L0,-3.0L2.5,-0.5"/>
                </g>
                <g id="arrowRight" xlink:href="#dirArrow" transform="rotate(90) translate(36 -43)" onmousedown="handlePan(1,0)">
                  <use xlink:href="#rim" fill="#404040">
                        <set attributeName="fill" to="#808080" begin="arrowRight.mouseover" end="arrowRight.mouseout"/>
                  </use>
                  <path fill="none" stroke="white" stroke-width="1.5" d="M0,-3.0v7 M-2.5,-0.5L0,-3.0L2.5,-0.5"/>
                </g>
                <g id="arrowDown" xlink:href="#dirArrow" transform="rotate(180) translate(-30 -48)" onmousedown="handlePan(0,1)">
                  <use xlink:href="#rim" fill="#404040">
                        <set attributeName="fill" to="#808080" begin="arrowDown.mouseover" end="arrowDown.mouseout"/>
                  </use>
                  <path fill="none" stroke="white" stroke-width="1.5" d="M0,-3.0v7 M-2.5,-0.5L0,-3.0L2.5,-0.5"/>
                </g>
                <g id="arrowLeft" xlink:href="#dirArrow" transform="rotate(270) translate(-36 17)" onmousedown="handlePan(-1,0)">
                  <use xlink:href="#rim" fill="#404040">
                        <set attributeName="fill" to="#808080" begin="arrowLeft.mouseover" end="arrowLeft.mouseout"/>
                  </use>
                  <path fill="none" stroke="white" stroke-width="1.5" d="M0,-3.0v7 M-2.5,-0.5L0,-3.0L2.5,-0.5"/>
                </g>
        </g>
        <svg viewBox="0 0 15 15" width="100%" height="30px" preserveAspectRatio="xMaxYMin meet">
         <g id="arrow_out" transform="scale(0.3 0.3)">
          <a xlink:href="main_8h_a6c26e075660bdd7a54df984ec3fc7ff4_cgraph_org.svg" target="_base">
           <rect id="button" ry="5" rx="5" y="6" x="6" height="38" width="38"
                fill="#f2f5e9" fill-opacity="0.5" stroke="#606060" stroke-width="1.0"/>
           <path id="arrow"
             d="M 11.500037,31.436501 C 11.940474,20.09759 22.043105,11.32322 32.158766,21.979434 L 37.068811,17.246167 C 37.068811,17.246167 37.088388,32 37.088388,32 L 22.160133,31.978069 C 22.160133,31.978069 26.997745,27.140456 26.997745,27.140456 C 18.528582,18.264221 13.291696,25.230495 11.500037,31.436501 z"
             style="fill:#404040;"/>
          </a>
         </g>
        </svg>
</svg>
