<?xml version="1.0" encoding="UTF-8" standalone="no"?>
<!DOCTYPE svg PUBLIC "-//W3C//DTD SVG 1.1//EN"
 "http://www.w3.org/Graphics/SVG/1.1/DTD/svg11.dtd">
<!-- Generated by graphviz version 2.38.0 (20140413.2041)
 -->
<!-- Title: lcd_prep Pages: 1 -->
<svg width="238pt" height="46pt"
 viewBox="0.00 0.00 238.00 46.00" xmlns="http://www.w3.org/2000/svg" xmlns:xlink="http://www.w3.org/1999/xlink">
<g id="graph0" class="graph" transform="scale(1 1) rotate(0) translate(4 42)">
<title>lcd_prep</title>
<!-- Node1 -->
<g id="node1" class="node"><title>Node1</title>
<g id="a_node1"><a xlink:title=" ">
<polygon fill="#bfbfbf" stroke="black" points="0,-0.5 0,-18.5 52,-18.5 52,-0.5 0,-0.5"/>
<text text-anchor="middle" x="26" y="-7.3" font-family="Calibri" font-size="9.00">lcd_prep</text>
</a>
</g>
</g>
<!-- Node2 -->
<g id="node2" class="node"><title>Node2</title>
<g id="a_node2"><a xlink:href="main_8c.html#a6911b3f075cdf1d54cb14f17f6e5ef6b" target="_top" xlink:title=" ">
<polygon fill="none" stroke="black" points="88,-19.5 88,-37.5 135,-37.5 135,-19.5 88,-19.5"/>
<text text-anchor="middle" x="111.5" y="-26.3" font-family="Calibri" font-size="9.00">lcd_ind</text>
</a>
</g>
</g>
<!-- Node1&#45;&gt;Node2 -->
<g id="edge1" class="edge"><title>Node1&#45;&gt;Node2</title>
<path fill="none" stroke="midnightblue" d="M52.0528,-15.2006C60.2012,-17.0548 69.3656,-19.1401 77.9784,-21.0999"/>
<polygon fill="midnightblue" stroke="midnightblue" points="77.2145,-24.5155 87.7419,-23.3215 78.7677,-17.6899 77.2145,-24.5155"/>
</g>
<!-- Node3 -->
<g id="node3" class="node"><title>Node3</title>
<g id="a_node3"><a xlink:href="oled__control_8h.html#ab272af1010175ba1166b08b8b3df6874" target="_top" xlink:title=" ">
<polygon fill="none" stroke="black" points="171,-0.5 171,-18.5 230,-18.5 230,-0.5 171,-0.5"/>
<text text-anchor="middle" x="200.5" y="-7.3" font-family="Calibri" font-size="9.00">led_wr_str</text>
</a>
</g>
</g>
<!-- Node1&#45;&gt;Node3 -->
<g id="edge3" class="edge"><title>Node1&#45;&gt;Node3</title>
<path fill="none" stroke="midnightblue" d="M52.083,-9.5C80.5822,-9.5 127.438,-9.5 160.668,-9.5"/>
<polygon fill="midnightblue" stroke="midnightblue" points="160.938,-13.0001 170.938,-9.5 160.938,-6.0001 160.938,-13.0001"/>
</g>
<!-- Node2&#45;&gt;Node3 -->
<g id="edge2" class="edge"><title>Node2&#45;&gt;Node3</title>
<path fill="none" stroke="midnightblue" d="M135.358,-23.508C143.174,-21.801 152.148,-19.8413 160.858,-17.939"/>
<polygon fill="midnightblue" stroke="midnightblue" points="161.854,-21.304 170.877,-15.7509 160.361,-14.4652 161.854,-21.304"/>
</g>
</g>
</svg>
