<?xml version="1.0" encoding="UTF-8" standalone="no"?>
<!DOCTYPE svg PUBLIC "-//W3C//DTD SVG 1.1//EN"
 "http://www.w3.org/Graphics/SVG/1.1/DTD/svg11.dtd">
<!-- Generated by graphviz version 2.38.0 (20140413.2041)
 -->
<!-- Title: lcd_pwr Pages: 1 -->
<svg width="392pt" height="450pt"
 viewBox="0.00 0.00 392.00 450.00" xmlns="http://www.w3.org/2000/svg" xmlns:xlink="http://www.w3.org/1999/xlink">
<g id="graph0" class="graph" transform="scale(1 1) rotate(0) translate(4 446)">
<title>lcd_pwr</title>
<!-- Node1 -->
<g id="node1" class="node"><title>Node1</title>
<g id="a_node1"><a xlink:title=" ">
<polygon fill="#bfbfbf" stroke="black" points="0,-159.5 0,-177.5 48,-177.5 48,-159.5 0,-159.5"/>
<text text-anchor="middle" x="24" y="-166.3" font-family="Calibri" font-size="9.00">lcd_pwr</text>
</a>
</g>
</g>
<!-- Node2 -->
<g id="node2" class="node"><title>Node2</title>
<g id="a_node2"><a xlink:href="main_8c.html#a593218c5fe00b499d494826fc0aa5279" target="_top" xlink:title=" ">
<polygon fill="none" stroke="black" points="84,-387.5 84,-405.5 155,-405.5 155,-387.5 84,-387.5"/>
<text text-anchor="middle" x="119.5" y="-394.3" font-family="Calibri" font-size="9.00">button_delay</text>
</a>
</g>
</g>
<!-- Node1&#45;&gt;Node2 -->
<g id="edge1" class="edge"><title>Node1&#45;&gt;Node2</title>
<path fill="none" stroke="midnightblue" d="M25.0951,-177.627C25.886,-209.152 32.4446,-314.993 84,-378.5 84.8143,-379.503 85.6995,-380.457 86.6405,-381.363"/>
<polygon fill="midnightblue" stroke="midnightblue" points="84.5947,-384.204 94.694,-387.406 88.796,-378.604 84.5947,-384.204"/>
</g>
<!-- Node3 -->
<g id="node3" class="node"><title>Node3</title>
<g id="a_node3"><a xlink:href="oled__control_8c.html#a5febfdc847aa6f3bc3f3c8f7818b8699" target="_top" xlink:title=" ">
<polygon fill="none" stroke="black" points="88.5,-350.5 88.5,-368.5 150.5,-368.5 150.5,-350.5 88.5,-350.5"/>
<text text-anchor="middle" x="119.5" y="-357.3" font-family="Calibri" font-size="9.00">display_on</text>
</a>
</g>
</g>
<!-- Node1&#45;&gt;Node3 -->
<g id="edge2" class="edge"><title>Node1&#45;&gt;Node3</title>
<path fill="none" stroke="midnightblue" d="M28.4087,-177.63C36.8195,-199.843 59.6526,-258.273 84,-304.5 90.8253,-317.459 99.61,-331.432 106.607,-342.051"/>
<polygon fill="midnightblue" stroke="midnightblue" points="103.73,-344.046 112.201,-350.41 109.548,-340.153 103.73,-344.046"/>
</g>
<!-- Node9 -->
<g id="node9" class="node"><title>Node9</title>
<g id="a_node9"><a xlink:href="main_8h.html#ab37ca657b79c6b9176cb63e9d812a182" target="_top" xlink:title=" ">
<polygon fill="none" stroke="black" points="95,-276.5 95,-294.5 144,-294.5 144,-276.5 95,-276.5"/>
<text text-anchor="middle" x="119.5" y="-283.3" font-family="Calibri" font-size="9.00">get_pwr</text>
</a>
</g>
</g>
<!-- Node1&#45;&gt;Node9 -->
<g id="edge11" class="edge"><title>Node1&#45;&gt;Node9</title>
<path fill="none" stroke="midnightblue" d="M32.3368,-177.681C47.9718,-197.245 84.7795,-243.304 104.856,-268.427"/>
<polygon fill="midnightblue" stroke="midnightblue" points="102.22,-270.735 111.197,-276.362 107.689,-266.365 102.22,-270.735"/>
</g>
<!-- Node13 -->
<g id="node13" class="node"><title>Node13</title>
<g id="a_node13"><a xlink:href="main_8c.html#aa8fd50019a763561abc6621bb224417f" target="_top" xlink:title=" ">
<polygon fill="none" stroke="black" points="208,-220.5 208,-238.5 255,-238.5 255,-220.5 208,-220.5"/>
<text text-anchor="middle" x="231.5" y="-227.3" font-family="Calibri" font-size="9.00">lcd_swr</text>
</a>
</g>
</g>
<!-- Node1&#45;&gt;Node13 -->
<g id="edge15" class="edge"><title>Node1&#45;&gt;Node13</title>
<path fill="none" stroke="midnightblue" d="M48.2412,-175.653C59.0972,-178.978 72.2016,-182.969 84,-186.5 123.071,-198.194 168.096,-211.364 197.805,-220.011"/>
<polygon fill="midnightblue" stroke="midnightblue" points="197.06,-223.44 207.64,-222.872 199.015,-216.718 197.06,-223.44"/>
</g>
<!-- Node14 -->
<g id="node14" class="node"><title>Node14</title>
<g id="a_node14"><a xlink:href="oled__control_8h.html#ab272af1010175ba1166b08b8b3df6874" target="_top" xlink:title=" ">
<polygon fill="none" stroke="black" points="316.5,-164.5 316.5,-182.5 375.5,-182.5 375.5,-164.5 316.5,-164.5"/>
<text text-anchor="middle" x="346" y="-171.3" font-family="Calibri" font-size="9.00">led_wr_str</text>
</a>
</g>
</g>
<!-- Node1&#45;&gt;Node14 -->
<g id="edge17" class="edge"><title>Node1&#45;&gt;Node14</title>
<path fill="none" stroke="midnightblue" d="M47.5721,-159.406C58.3982,-155.519 71.6683,-151.437 84,-149.5 162.433,-137.182 255.193,-152.804 306.317,-164.002"/>
<polygon fill="midnightblue" stroke="midnightblue" points="305.748,-167.461 316.272,-166.243 307.285,-160.632 305.748,-167.461"/>
</g>
<!-- Node15 -->
<g id="node15" class="node"><title>Node15</title>
<g id="a_node15"><a xlink:href="main_8h.html#a2a7963b9b09696c6654b96c67900c6ea" target="_top" xlink:title=" ">
<polygon fill="none" stroke="black" points="95.5,-74.5 95.5,-92.5 143.5,-92.5 143.5,-74.5 95.5,-74.5"/>
<text text-anchor="middle" x="119.5" y="-81.3" font-family="Calibri" font-size="9.00">set_cap</text>
</a>
</g>
</g>
<!-- Node1&#45;&gt;Node15 -->
<g id="edge18" class="edge"><title>Node1&#45;&gt;Node15</title>
<path fill="none" stroke="midnightblue" d="M32.8978,-159.275C43.7693,-146.834 64.2496,-124.303 84,-107.5 87.5983,-104.439 91.5835,-101.391 95.5296,-98.5449"/>
<polygon fill="midnightblue" stroke="midnightblue" points="97.7178,-101.287 103.941,-92.7119 93.7286,-95.5346 97.7178,-101.287"/>
</g>
<!-- Node16 -->
<g id="node16" class="node"><title>Node16</title>
<g id="a_node16"><a xlink:href="main_8h.html#aecc83cd8bceb4bc24be844732ead2c2c" target="_top" xlink:title=" ">
<polygon fill="none" stroke="black" points="96,-37.5 96,-55.5 143,-55.5 143,-37.5 96,-37.5"/>
<text text-anchor="middle" x="119.5" y="-44.3" font-family="Calibri" font-size="9.00">set_ind</text>
</a>
</g>
</g>
<!-- Node1&#45;&gt;Node16 -->
<g id="edge19" class="edge"><title>Node1&#45;&gt;Node16</title>
<path fill="none" stroke="midnightblue" d="M28.1597,-159.3C35.307,-139.649 54.4301,-93.0484 84,-64.5 85.2363,-63.3064 86.5676,-62.1722 87.9627,-61.0976"/>
<polygon fill="midnightblue" stroke="midnightblue" points="89.9569,-63.9758 96.4351,-55.5923 86.1428,-58.1061 89.9569,-63.9758"/>
</g>
<!-- Node17 -->
<g id="node17" class="node"><title>Node17</title>
<g id="a_node17"><a xlink:href="main_8h.html#ae0c1e0ec712704e43db40473f103d621" target="_top" xlink:title="Set the state of the switch.">
<polygon fill="none" stroke="black" points="97,-0.5 97,-18.5 142,-18.5 142,-0.5 97,-0.5"/>
<text text-anchor="middle" x="119.5" y="-7.3" font-family="Calibri" font-size="9.00">set_sw</text>
</a>
</g>
</g>
<!-- Node1&#45;&gt;Node17 -->
<g id="edge20" class="edge"><title>Node1&#45;&gt;Node17</title>
<path fill="none" stroke="midnightblue" d="M26.5725,-159.426C31.1976,-135.173 46.8362,-67.9483 84,-27.5 85.337,-26.0449 86.8188,-24.6873 88.395,-23.4239"/>
<polygon fill="midnightblue" stroke="midnightblue" points="90.3963,-26.2968 96.8276,-17.8773 86.5495,-20.4486 90.3963,-26.2968"/>
</g>
<!-- Node18 -->
<g id="node18" class="node"><title>Node18</title>
<g id="a_node18"><a xlink:href="main_8c.html#a4ae0d4fa97fc0ca3611813fee4f9af7c" target="_top" xlink:title=" ">
<polygon fill="none" stroke="black" points="90.5,-159.5 90.5,-177.5 148.5,-177.5 148.5,-159.5 90.5,-159.5"/>
<text text-anchor="middle" x="119.5" y="-166.3" font-family="Calibri" font-size="9.00">show_pwr</text>
</a>
</g>
</g>
<!-- Node1&#45;&gt;Node18 -->
<g id="edge21" class="edge"><title>Node1&#45;&gt;Node18</title>
<path fill="none" stroke="midnightblue" d="M48.1124,-168.5C57.7839,-168.5 69.2871,-168.5 80.1622,-168.5"/>
<polygon fill="midnightblue" stroke="midnightblue" points="80.3162,-172 90.3162,-168.5 80.3161,-165 80.3162,-172"/>
</g>
<!-- Node4 -->
<g id="node4" class="node"><title>Node4</title>
<g id="a_node4"><a xlink:href="oled__control_8c.html#a5a5d7ef6b1877aaf94c1f4b7fc0f2d2d" target="_top" xlink:title=" ">
<polygon fill="none" stroke="black" points="204,-405.5 204,-423.5 259,-423.5 259,-405.5 204,-405.5"/>
<text text-anchor="middle" x="231.5" y="-412.3" font-family="Calibri" font-size="9.00">led_send</text>
</a>
</g>
</g>
<!-- Node3&#45;&gt;Node4 -->
<g id="edge3" class="edge"><title>Node3&#45;&gt;Node4</title>
<path fill="none" stroke="midnightblue" d="M137.174,-368.587C151.375,-376.244 172.379,-387.38 191,-396.5 194.141,-398.038 197.441,-399.61 200.739,-401.153"/>
<polygon fill="midnightblue" stroke="midnightblue" points="199.35,-404.367 209.897,-405.373 202.279,-398.009 199.35,-404.367"/>
</g>
<!-- Node8 -->
<g id="node8" class="node"><title>Node8</title>
<g id="a_node8"><a xlink:href="oled__control_8c.html#ad141ed038278a6fcad6c307932f01ec8" target="_top" xlink:title=" ">
<polygon fill="none" stroke="black" points="191,-368.5 191,-386.5 272,-386.5 272,-368.5 191,-368.5"/>
<text text-anchor="middle" x="231.5" y="-375.3" font-family="Calibri" font-size="9.00">send_command</text>
</a>
</g>
</g>
<!-- Node3&#45;&gt;Node8 -->
<g id="edge7" class="edge"><title>Node3&#45;&gt;Node8</title>
<path fill="none" stroke="midnightblue" d="M150.558,-364.419C159.909,-365.949 170.48,-367.679 180.8,-369.367"/>
<polygon fill="midnightblue" stroke="midnightblue" points="180.548,-372.872 190.982,-371.033 181.678,-365.964 180.548,-372.872"/>
</g>
<!-- Node5 -->
<g id="node5" class="node"><title>Node5</title>
<g id="a_node5"><a xlink:href="oled__control_8c.html#ab7f6b5c6c1483f6286f2de5786c028d9" target="_top" xlink:title=" ">
<polygon fill="none" stroke="black" points="310,-423.5 310,-441.5 382,-441.5 382,-423.5 310,-423.5"/>
<text text-anchor="middle" x="346" y="-430.3" font-family="Calibri" font-size="9.00">Soft_I2C_Start</text>
</a>
</g>
</g>
<!-- Node4&#45;&gt;Node5 -->
<g id="edge4" class="edge"><title>Node4&#45;&gt;Node5</title>
<path fill="none" stroke="midnightblue" d="M259.161,-418.766C271.173,-420.688 285.703,-423.012 299.365,-425.198"/>
<polygon fill="midnightblue" stroke="midnightblue" points="299.16,-428.71 309.588,-426.834 300.266,-421.798 299.16,-428.71"/>
</g>
<!-- Node6 -->
<g id="node6" class="node"><title>Node6</title>
<g id="a_node6"><a xlink:href="oled__control_8c.html#a16eb842aa672ca44820ae6d5f9933425" target="_top" xlink:title=" ">
<polygon fill="none" stroke="black" points="310.5,-386.5 310.5,-404.5 381.5,-404.5 381.5,-386.5 310.5,-386.5"/>
<text text-anchor="middle" x="346" y="-393.3" font-family="Calibri" font-size="9.00">Soft_I2C_Stop</text>
</a>
</g>
</g>
<!-- Node4&#45;&gt;Node6 -->
<g id="edge5" class="edge"><title>Node4&#45;&gt;Node6</title>
<path fill="none" stroke="midnightblue" d="M259.161,-409.997C271.5,-407.913 286.495,-405.381 300.478,-403.019"/>
<polygon fill="midnightblue" stroke="midnightblue" points="301.152,-406.455 310.429,-401.339 299.986,-399.553 301.152,-406.455"/>
</g>
<!-- Node7 -->
<g id="node7" class="node"><title>Node7</title>
<g id="a_node7"><a xlink:href="oled__control_8c.html#a73610916645f17c19124e697b005f694" target="_top" xlink:title=" ">
<polygon fill="none" stroke="black" points="308,-349.5 308,-367.5 384,-367.5 384,-349.5 308,-349.5"/>
<text text-anchor="middle" x="346" y="-356.3" font-family="Calibri" font-size="9.00">Soft_I2C_Write</text>
</a>
</g>
</g>
<!-- Node4&#45;&gt;Node7 -->
<g id="edge6" class="edge"><title>Node4&#45;&gt;Node7</title>
<path fill="none" stroke="midnightblue" d="M253.107,-405.382C259.223,-402.603 265.912,-399.49 272,-396.5 288.238,-388.523 291.953,-385.855 308,-377.5 311.335,-375.764 314.843,-373.948 318.317,-372.157"/>
<polygon fill="midnightblue" stroke="midnightblue" points="319.995,-375.23 327.288,-367.544 316.794,-369.004 319.995,-375.23"/>
</g>
<!-- Node8&#45;&gt;Node5 -->
<g id="edge8" class="edge"><title>Node8&#45;&gt;Node5</title>
<path fill="none" stroke="midnightblue" d="M251.415,-386.526C257.947,-389.662 265.304,-393.216 272,-396.5 288.061,-404.377 291.957,-406.587 308,-414.5 310.947,-415.954 314.03,-417.466 317.104,-418.969"/>
<polygon fill="midnightblue" stroke="midnightblue" points="315.635,-422.147 326.158,-423.382 318.703,-415.855 315.635,-422.147"/>
</g>
<!-- Node8&#45;&gt;Node6 -->
<g id="edge9" class="edge"><title>Node8&#45;&gt;Node6</title>
<path fill="none" stroke="midnightblue" d="M272.163,-383.846C281.172,-385.288 290.804,-386.829 300.016,-388.303"/>
<polygon fill="midnightblue" stroke="midnightblue" points="299.755,-391.805 310.182,-389.929 300.861,-384.893 299.755,-391.805"/>
</g>
<!-- Node8&#45;&gt;Node7 -->
<g id="edge10" class="edge"><title>Node8&#45;&gt;Node7</title>
<path fill="none" stroke="midnightblue" d="M272.163,-370.801C280.53,-369.388 289.433,-367.885 298.039,-366.431"/>
<polygon fill="midnightblue" stroke="midnightblue" points="298.676,-369.873 307.954,-364.757 297.511,-362.971 298.676,-369.873"/>
</g>
<!-- Node10 -->
<g id="node10" class="node"><title>Node10</title>
<g id="a_node10"><a xlink:href="main_8h.html#ab19e6e081315a9a200394b74d10de395" target="_top" xlink:title=" ">
<polygon fill="none" stroke="black" points="203,-331.5 203,-349.5 260,-349.5 260,-331.5 203,-331.5"/>
<text text-anchor="middle" x="231.5" y="-338.3" font-family="Calibri" font-size="9.00">correction</text>
</a>
</g>
</g>
<!-- Node9&#45;&gt;Node10 -->
<g id="edge12" class="edge"><title>Node9&#45;&gt;Node10</title>
<path fill="none" stroke="midnightblue" d="M137.174,-294.587C151.375,-302.244 172.379,-313.38 191,-322.5 194.141,-324.038 197.441,-325.61 200.739,-327.153"/>
<polygon fill="midnightblue" stroke="midnightblue" points="199.35,-330.367 209.897,-331.373 202.279,-324.009 199.35,-330.367"/>
</g>
<!-- Node11 -->
<g id="node11" class="node"><title>Node11</title>
<g id="a_node11"><a xlink:href="main_8h.html#acfd46f8711e9c1c20fffdfc8bdaa0ddd" target="_top" xlink:title=" ">
<polygon fill="none" stroke="black" points="199,-294.5 199,-312.5 264,-312.5 264,-294.5 199,-294.5"/>
<text text-anchor="middle" x="231.5" y="-301.3" font-family="Calibri" font-size="9.00">get_forward</text>
</a>
</g>
</g>
<!-- Node9&#45;&gt;Node11 -->
<g id="edge13" class="edge"><title>Node9&#45;&gt;Node11</title>
<path fill="none" stroke="midnightblue" d="M144.098,-289.361C157.023,-291.477 173.428,-294.161 188.463,-296.621"/>
<polygon fill="midnightblue" stroke="midnightblue" points="188.159,-300.118 198.593,-298.279 189.29,-293.21 188.159,-300.118"/>
</g>
<!-- Node12 -->
<g id="node12" class="node"><title>Node12</title>
<g id="a_node12"><a xlink:href="main_8h.html#aa6b9a2b3d88f578ba6a9fefd911eae75" target="_top" xlink:title=" ">
<polygon fill="none" stroke="black" points="199.5,-257.5 199.5,-275.5 263.5,-275.5 263.5,-257.5 199.5,-257.5"/>
<text text-anchor="middle" x="231.5" y="-264.3" font-family="Calibri" font-size="9.00">get_reverse</text>
</a>
</g>
</g>
<!-- Node9&#45;&gt;Node12 -->
<g id="edge14" class="edge"><title>Node9&#45;&gt;Node12</title>
<path fill="none" stroke="midnightblue" d="M144.098,-281.424C157.228,-279.156 173.95,-276.268 189.178,-273.637"/>
<polygon fill="midnightblue" stroke="midnightblue" points="190.161,-277.02 199.419,-271.868 188.97,-270.122 190.161,-277.02"/>
</g>
<!-- Node13&#45;&gt;Node14 -->
<g id="edge16" class="edge"><title>Node13&#45;&gt;Node14</title>
<path fill="none" stroke="midnightblue" d="M253.097,-220.36C259.212,-217.581 265.904,-214.473 272,-211.5 287.86,-203.765 305.407,-194.649 319.322,-187.285"/>
<polygon fill="midnightblue" stroke="midnightblue" points="321.124,-190.291 328.31,-182.505 317.837,-184.111 321.124,-190.291"/>
</g>
<!-- Node18&#45;&gt;Node14 -->
<g id="edge24" class="edge"><title>Node18&#45;&gt;Node14</title>
<path fill="none" stroke="midnightblue" d="M148.933,-169.133C188.802,-170.021 261.448,-171.639 306.24,-172.637"/>
<polygon fill="midnightblue" stroke="midnightblue" points="306.369,-176.14 316.444,-172.864 306.525,-169.142 306.369,-176.14"/>
</g>
<!-- Node19 -->
<g id="node19" class="node"><title>Node19</title>
<g id="a_node19"><a xlink:href="main_8c.html#a6911b3f075cdf1d54cb14f17f6e5ef6b" target="_top" xlink:title=" ">
<polygon fill="none" stroke="black" points="208,-183.5 208,-201.5 255,-201.5 255,-183.5 208,-183.5"/>
<text text-anchor="middle" x="231.5" y="-190.3" font-family="Calibri" font-size="9.00">lcd_ind</text>
</a>
</g>
</g>
<!-- Node18&#45;&gt;Node19 -->
<g id="edge22" class="edge"><title>Node18&#45;&gt;Node19</title>
<path fill="none" stroke="midnightblue" d="M148.542,-174.618C163.58,-177.899 182.19,-181.96 197.874,-185.382"/>
<polygon fill="midnightblue" stroke="midnightblue" points="197.175,-188.811 207.691,-187.524 198.667,-181.972 197.175,-188.811"/>
</g>
<!-- Node19&#45;&gt;Node14 -->
<g id="edge23" class="edge"><title>Node19&#45;&gt;Node14</title>
<path fill="none" stroke="midnightblue" d="M255.266,-188.655C269.835,-186.195 289.114,-182.938 306.068,-180.075"/>
<polygon fill="midnightblue" stroke="midnightblue" points="306.984,-183.47 316.261,-178.354 305.818,-176.568 306.984,-183.47"/>
</g>
</g>
</svg>
