<?xml version="1.0" encoding="UTF-8" standalone="no"?>
<!DOCTYPE svg PUBLIC "-//W3C//DTD SVG 1.1//EN"
 "http://www.w3.org/Graphics/SVG/1.1/DTD/svg11.dtd">
<!-- Generated by graphviz version 2.38.0 (20140413.2041)
 -->
<!-- Title: button_proc Pages: 1 -->
<svg width="1272pt" height="925pt"
 viewBox="0.00 0.00 1272.00 924.50" xmlns="http://www.w3.org/2000/svg" xmlns:xlink="http://www.w3.org/1999/xlink">
<g id="graph0" class="graph" transform="scale(1 1) rotate(0) translate(4 920.5)">
<title>button_proc</title>
<!-- Node41 -->
<g id="node1" class="node"><title>Node41</title>
<polygon fill="#bfbfbf" stroke="black" points="0,-357.5 0,-375.5 65,-375.5 65,-357.5 0,-357.5"/>
<text text-anchor="middle" x="32.5" y="-364.3" font-family="Calibri" font-size="9.00">button_proc</text>
</g>
<!-- Node42 -->
<g id="node2" class="node"><title>Node42</title>
<g id="a_node2"><a xlink:href="main_8c.html#af18ed7edda7874a97cacaa11a2759260" target="_top" xlink:title="btn_push">
<polygon fill="none" stroke="black" points="101,-660.5 101,-678.5 156,-678.5 156,-660.5 101,-660.5"/>
<text text-anchor="middle" x="128.5" y="-667.3" font-family="Calibri" font-size="9.00">btn_push</text>
</a>
</g>
</g>
<!-- Node41&#45;&gt;Node42 -->
<g id="edge1" class="edge"><title>Node41&#45;&gt;Node42</title>
<path fill="none" stroke="midnightblue" d="M36.3132,-375.568C49.3135,-417.473 103.702,-592.789 121.693,-650.783"/>
<polygon fill="midnightblue" stroke="midnightblue" points="118.392,-651.953 124.698,-660.467 125.078,-649.879 118.392,-651.953"/>
</g>
<!-- Node43 -->
<g id="node3" class="node"><title>Node43</title>
<g id="a_node3"><a xlink:href="oled__control_8c.html#a9d56c6c2e653b24a0caf505492ad818a" target="_top" xlink:title="led_wr_str">
<polygon fill="none" stroke="black" points="860,-166.5 860,-184.5 919,-184.5 919,-166.5 860,-166.5"/>
<text text-anchor="middle" x="889.5" y="-173.3" font-family="Calibri" font-size="9.00">led_wr_str</text>
</a>
</g>
</g>
<!-- Node41&#45;&gt;Node43 -->
<g id="edge71" class="edge"><title>Node41&#45;&gt;Node43</title>
<path fill="none" stroke="midnightblue" d="M34.5197,-357.308C40.5017,-308.355 75.489,-80.5 208.5,-80.5 208.5,-80.5 208.5,-80.5 692,-80.5 753.84,-80.5 769.594,-95.1024 824,-124.5 841.552,-133.984 859.162,-148.312 871.536,-159.368"/>
<polygon fill="midnightblue" stroke="midnightblue" points="869.466,-162.219 879.201,-166.401 874.199,-157.061 869.466,-162.219"/>
</g>
<!-- Node52 -->
<g id="node12" class="node"><title>Node52</title>
<g id="a_node12"><a xlink:href="main_8h.html#a2a7963b9b09696c6654b96c67900c6ea" target="_top" xlink:title="set_cap">
<polygon fill="none" stroke="black" points="574,-527.5 574,-545.5 622,-545.5 622,-527.5 574,-527.5"/>
<text text-anchor="middle" x="598" y="-534.3" font-family="Calibri" font-size="9.00">set_cap</text>
</a>
</g>
</g>
<!-- Node41&#45;&gt;Node52 -->
<g id="edge72" class="edge"><title>Node41&#45;&gt;Node52</title>
<path fill="none" stroke="midnightblue" d="M65.0025,-371.996C99.9525,-377.607 158.075,-385.5 208.5,-385.5 208.5,-385.5 208.5,-385.5 296,-385.5 407.789,-385.5 450.824,-386.293 537,-457.5 558.172,-474.994 576.249,-501.348 586.871,-518.735"/>
<polygon fill="midnightblue" stroke="midnightblue" points="583.871,-520.538 591.978,-527.359 589.894,-516.971 583.871,-520.538"/>
</g>
<!-- Node53 -->
<g id="node13" class="node"><title>Node53</title>
<g id="a_node13"><a xlink:href="main_8h.html#aecc83cd8bceb4bc24be844732ead2c2c" target="_top" xlink:title="set_ind">
<polygon fill="none" stroke="black" points="478,-489.5 478,-507.5 525,-507.5 525,-489.5 478,-489.5"/>
<text text-anchor="middle" x="501.5" y="-496.3" font-family="Calibri" font-size="9.00">set_ind</text>
</a>
</g>
</g>
<!-- Node41&#45;&gt;Node53 -->
<g id="edge73" class="edge"><title>Node41&#45;&gt;Node53</title>
<path fill="none" stroke="midnightblue" d="M39.2324,-375.573C58.858,-405.395 126.68,-498.5 208.5,-498.5 208.5,-498.5 208.5,-498.5 296,-498.5 356.619,-498.5 427.347,-498.5 467.733,-498.5"/>
<polygon fill="midnightblue" stroke="midnightblue" points="467.804,-502 477.804,-498.5 467.804,-495 467.804,-502"/>
</g>
<!-- Node60 -->
<g id="node20" class="node"><title>Node60</title>
<g id="a_node20"><a xlink:href="main_8c.html#a6911b3f075cdf1d54cb14f17f6e5ef6b" target="_top" xlink:title="lcd_ind">
<polygon fill="none" stroke="black" points="768,-512.5 768,-530.5 815,-530.5 815,-512.5 768,-512.5"/>
<text text-anchor="middle" x="791.5" y="-519.3" font-family="Calibri" font-size="9.00">lcd_ind</text>
</a>
</g>
</g>
<!-- Node41&#45;&gt;Node60 -->
<g id="edge69" class="edge"><title>Node41&#45;&gt;Node60</title>
<path fill="none" stroke="midnightblue" d="M34.329,-375.587C41.0935,-447.098 90.0098,-916.5 208.5,-916.5 208.5,-916.5 208.5,-916.5 502.5,-916.5 612.018,-916.5 654.965,-892.321 723,-806.5 787.921,-724.607 792.107,-590.515 791.234,-540.82"/>
<polygon fill="midnightblue" stroke="midnightblue" points="794.726,-540.466 790.955,-530.565 787.728,-540.657 794.726,-540.466"/>
</g>
<!-- Node69 -->
<g id="node29" class="node"><title>Node69</title>
<g id="a_node29"><a xlink:href="main_8c.html#ae5a14b4884e85f47ad8a4a716f13203a" target="_top" xlink:title="lcd_pwr">
<polygon fill="none" stroke="black" points="372.5,-261.5 372.5,-279.5 420.5,-279.5 420.5,-261.5 372.5,-261.5"/>
<text text-anchor="middle" x="396.5" y="-268.3" font-family="Calibri" font-size="9.00">lcd_pwr</text>
</a>
</g>
</g>
<!-- Node41&#45;&gt;Node69 -->
<g id="edge70" class="edge"><title>Node41&#45;&gt;Node69</title>
<path fill="none" stroke="midnightblue" d="M54.2251,-357.386C93.9088,-340.342 183.732,-303.727 263,-285.5 296.263,-277.852 335.158,-274.038 362.167,-272.178"/>
<polygon fill="midnightblue" stroke="midnightblue" points="362.496,-275.665 372.253,-271.537 362.051,-268.679 362.496,-275.665"/>
</g>
<!-- Node70 -->
<g id="node30" class="node"><title>Node70</title>
<g id="a_node30"><a xlink:href="oled__control_8c.html#a2c663a2db505aa3f2271f6cf4bae1521" target="_top" xlink:title="dysp_on">
<polygon fill="none" stroke="black" points="573,-14.5 573,-32.5 623,-32.5 623,-14.5 573,-14.5"/>
<text text-anchor="middle" x="598" y="-21.3" font-family="Calibri" font-size="9.00">dysp_on</text>
</a>
</g>
</g>
<!-- Node41&#45;&gt;Node70 -->
<g id="edge68" class="edge"><title>Node41&#45;&gt;Node70</title>
<path fill="none" stroke="midnightblue" d="M33.048,-357.347C31.5826,-318.159 30.5903,-162.165 101,-66.5 133.693,-22.0797 153.345,-4.5 208.5,-4.5 208.5,-4.5 208.5,-4.5 397.5,-4.5 455.787,-4.5 523.223,-12.6368 562.873,-18.2608"/>
<polygon fill="midnightblue" stroke="midnightblue" points="562.411,-21.7305 572.81,-19.7007 563.415,-14.8028 562.411,-21.7305"/>
</g>
<!-- Node75 -->
<g id="node35" class="node"><title>Node75</title>
<g id="a_node35"><a xlink:href="main_8c.html#a11724d8cce81ed96bec12a004ea3ea7a" target="_top" xlink:title="show_reset">
<polygon fill="none" stroke="black" points="263,-338.5 263,-356.5 327,-356.5 327,-338.5 263,-338.5"/>
<text text-anchor="middle" x="295" y="-345.3" font-family="Calibri" font-size="9.00">show_reset</text>
</a>
</g>
</g>
<!-- Node41&#45;&gt;Node75 -->
<g id="edge74" class="edge"><title>Node41&#45;&gt;Node75</title>
<path fill="none" stroke="midnightblue" d="M65.182,-364.189C112.245,-360.757 200.654,-354.308 252.724,-350.511"/>
<polygon fill="midnightblue" stroke="midnightblue" points="253.224,-353.983 262.943,-349.765 252.715,-347.002 253.224,-353.983"/>
</g>
<!-- Node42&#45;&gt;Node43 -->
<g id="edge2" class="edge"><title>Node42&#45;&gt;Node43</title>
<path fill="none" stroke="midnightblue" d="M131.791,-678.75C142.412,-719.198 190.797,-878.5 294,-878.5 294,-878.5 294,-878.5 502.5,-878.5 605.592,-878.5 653.299,-882.459 723,-806.5 808.779,-713.019 790.341,-661.827 824,-539.5 859.606,-410.095 880.081,-249.207 886.386,-194.627"/>
<polygon fill="midnightblue" stroke="midnightblue" points="889.869,-194.974 887.516,-184.643 882.913,-194.186 889.869,-194.974"/>
</g>
<!-- Node50 -->
<g id="node10" class="node"><title>Node50</title>
<g id="a_node10"><a xlink:href="main_8h.html#a1849f2e5bd63d11a7b9549470e287d17" target="_top" xlink:title="tune">
<polygon fill="none" stroke="black" points="192,-660.5 192,-678.5 227,-678.5 227,-660.5 192,-660.5"/>
<text text-anchor="middle" x="209.5" y="-667.3" font-family="Calibri" font-size="9.00">tune</text>
</a>
</g>
</g>
<!-- Node42&#45;&gt;Node50 -->
<g id="edge14" class="edge"><title>Node42&#45;&gt;Node50</title>
<path fill="none" stroke="midnightblue" d="M156.246,-669.5C164.463,-669.5 173.504,-669.5 181.723,-669.5"/>
<polygon fill="midnightblue" stroke="midnightblue" points="181.915,-673 191.915,-669.5 181.915,-666 181.915,-673"/>
</g>
<!-- Node42&#45;&gt;Node60 -->
<g id="edge50" class="edge"><title>Node42&#45;&gt;Node60</title>
<path fill="none" stroke="midnightblue" d="M132.968,-678.694C147.024,-714.212 203.373,-840.5 294,-840.5 294,-840.5 294,-840.5 599,-840.5 739.443,-840.5 779.461,-610.4 788.332,-541.049"/>
<polygon fill="midnightblue" stroke="midnightblue" points="791.857,-541.049 789.573,-530.703 784.907,-540.215 791.857,-541.049"/>
</g>
<!-- Node42&#45;&gt;Node69 -->
<g id="edge51" class="edge"><title>Node42&#45;&gt;Node69</title>
<path fill="none" stroke="midnightblue" d="M130.538,-660.247C135.865,-616.89 163.865,-431.625 263,-328.5 290.009,-300.404 332.969,-285.057 362.612,-277.327"/>
<polygon fill="midnightblue" stroke="midnightblue" points="363.616,-280.685 372.494,-274.903 361.948,-273.887 363.616,-280.685"/>
</g>
<!-- Node44 -->
<g id="node4" class="node"><title>Node44</title>
<g id="a_node4"><a xlink:href="oled__control_8c.html#a7c3a2e5f1fed76dc27692132a2574d27" target="_top" xlink:title="oled_wr_str">
<polygon fill="none" stroke="black" points="963,-161.5 963,-179.5 1028,-179.5 1028,-161.5 963,-161.5"/>
<text text-anchor="middle" x="995.5" y="-168.3" font-family="Calibri" font-size="9.00">oled_wr_str</text>
</a>
</g>
</g>
<!-- Node43&#45;&gt;Node44 -->
<g id="edge3" class="edge"><title>Node43&#45;&gt;Node44</title>
<path fill="none" stroke="midnightblue" d="M919.194,-174.12C929.597,-173.62 941.57,-173.045 952.862,-172.502"/>
<polygon fill="midnightblue" stroke="midnightblue" points="953.158,-175.992 962.978,-172.015 952.821,-169 953.158,-175.992"/>
</g>
<!-- Node49 -->
<g id="node9" class="node"><title>Node49</title>
<g id="a_node9"><a xlink:href="oled__control_8c.html#ad25764a33e482f4e9db2701198e02551" target="_top" xlink:title="led_send">
<polygon fill="none" stroke="black" points="968,-47.5 968,-65.5 1023,-65.5 1023,-47.5 968,-47.5"/>
<text text-anchor="middle" x="995.5" y="-54.3" font-family="Calibri" font-size="9.00">led_send</text>
</a>
</g>
</g>
<!-- Node43&#45;&gt;Node49 -->
<g id="edge10" class="edge"><title>Node43&#45;&gt;Node49</title>
<path fill="none" stroke="midnightblue" d="M898.661,-166.162C916.127,-146.176 957.351,-99.0074 979.615,-73.5317"/>
<polygon fill="midnightblue" stroke="midnightblue" points="982.432,-75.6273 986.377,-65.7944 977.161,-71.0209 982.432,-75.6273"/>
</g>
<!-- Node45 -->
<g id="node5" class="node"><title>Node45</title>
<g id="a_node5"><a xlink:href="oled__control_8c.html#ab7f6b5c6c1483f6286f2de5786c028d9" target="_top" xlink:title="Soft_I2C_Start">
<polygon fill="none" stroke="black" points="1190,-123.5 1190,-141.5 1262,-141.5 1262,-123.5 1190,-123.5"/>
<text text-anchor="middle" x="1226" y="-130.3" font-family="Calibri" font-size="9.00">Soft_I2C_Start</text>
</a>
</g>
</g>
<!-- Node44&#45;&gt;Node45 -->
<g id="edge4" class="edge"><title>Node44&#45;&gt;Node45</title>
<path fill="none" stroke="midnightblue" d="M1020.36,-179.535C1051.48,-189.92 1107.22,-203.697 1152,-188.5 1174.76,-180.776 1195.98,-162.785 1209.61,-149.265"/>
<polygon fill="midnightblue" stroke="midnightblue" points="1212.27,-151.551 1216.72,-141.933 1207.25,-146.681 1212.27,-151.551"/>
</g>
<!-- Node46 -->
<g id="node6" class="node"><title>Node46</title>
<g id="a_node6"><a xlink:href="oled__control_8c.html#a73610916645f17c19124e697b005f694" target="_top" xlink:title="Soft_I2C_Write">
<polygon fill="none" stroke="black" points="1188,-28.5 1188,-46.5 1264,-46.5 1264,-28.5 1188,-28.5"/>
<text text-anchor="middle" x="1226" y="-35.3" font-family="Calibri" font-size="9.00">Soft_I2C_Write</text>
</a>
</g>
</g>
<!-- Node44&#45;&gt;Node46 -->
<g id="edge5" class="edge"><title>Node44&#45;&gt;Node46</title>
<path fill="none" stroke="midnightblue" d="M1012.21,-161.358C1051.35,-138.572 1153.49,-79.1221 1200.58,-51.7154"/>
<polygon fill="midnightblue" stroke="midnightblue" points="1202.6,-54.5852 1209.49,-46.5297 1199.08,-48.5354 1202.6,-54.5852"/>
</g>
<!-- Node47 -->
<g id="node7" class="node"><title>Node47</title>
<g id="a_node7"><a xlink:href="oled__control_8c.html#a6df77e8ec83c50ed6a5ddaf54aa3a9c2" target="_top" xlink:title="set_addressing">
<polygon fill="none" stroke="black" points="1072,-161.5 1072,-179.5 1152,-179.5 1152,-161.5 1072,-161.5"/>
<text text-anchor="middle" x="1112" y="-168.3" font-family="Calibri" font-size="9.00">set_addressing</text>
</a>
</g>
</g>
<!-- Node44&#45;&gt;Node47 -->
<g id="edge6" class="edge"><title>Node44&#45;&gt;Node47</title>
<path fill="none" stroke="midnightblue" d="M1028.09,-170.5C1038.43,-170.5 1050.18,-170.5 1061.51,-170.5"/>
<polygon fill="midnightblue" stroke="midnightblue" points="1061.75,-174 1071.75,-170.5 1061.75,-167 1061.75,-174"/>
</g>
<!-- Node48 -->
<g id="node8" class="node"><title>Node48</title>
<g id="a_node8"><a xlink:href="oled__control_8c.html#a16eb842aa672ca44820ae6d5f9933425" target="_top" xlink:title="Soft_I2C_Stop">
<polygon fill="none" stroke="black" points="1076.5,-47.5 1076.5,-65.5 1147.5,-65.5 1147.5,-47.5 1076.5,-47.5"/>
<text text-anchor="middle" x="1112" y="-54.3" font-family="Calibri" font-size="9.00">Soft_I2C_Stop</text>
</a>
</g>
</g>
<!-- Node44&#45;&gt;Node48 -->
<g id="edge9" class="edge"><title>Node44&#45;&gt;Node48</title>
<path fill="none" stroke="midnightblue" d="M1005.87,-161.171C1025.34,-141.785 1070.38,-96.942 1094.71,-72.7205"/>
<polygon fill="midnightblue" stroke="midnightblue" points="1097.2,-75.1753 1101.82,-65.6394 1092.26,-70.2147 1097.2,-75.1753"/>
</g>
<!-- Node47&#45;&gt;Node45 -->
<g id="edge7" class="edge"><title>Node47&#45;&gt;Node45</title>
<path fill="none" stroke="midnightblue" d="M1139.54,-161.495C1154.22,-156.515 1172.67,-150.254 1188.67,-144.826"/>
<polygon fill="midnightblue" stroke="midnightblue" points="1189.91,-148.1 1198.26,-141.573 1187.67,-141.471 1189.91,-148.1"/>
</g>
<!-- Node47&#45;&gt;Node46 -->
<g id="edge8" class="edge"><title>Node47&#45;&gt;Node46</title>
<path fill="none" stroke="midnightblue" d="M1131.22,-161.455C1138.2,-157.462 1145.93,-152.343 1152,-146.5 1180.45,-119.125 1203.84,-78.8449 1215.98,-55.6888"/>
<polygon fill="midnightblue" stroke="midnightblue" points="1219.18,-57.1282 1220.61,-46.631 1212.94,-53.9421 1219.18,-57.1282"/>
</g>
<!-- Node49&#45;&gt;Node45 -->
<g id="edge11" class="edge"><title>Node49&#45;&gt;Node45</title>
<path fill="none" stroke="midnightblue" d="M1023.16,-65.3669C1063.96,-78.9373 1142.01,-104.896 1188.18,-120.254"/>
<polygon fill="midnightblue" stroke="midnightblue" points="1187.21,-123.619 1197.8,-123.454 1189.42,-116.977 1187.21,-123.619"/>
</g>
<!-- Node49&#45;&gt;Node46 -->
<g id="edge12" class="edge"><title>Node49&#45;&gt;Node46</title>
<path fill="none" stroke="midnightblue" d="M1023.1,-48.0989C1037.43,-44.0102 1055.5,-39.5442 1072,-37.5 1107.14,-33.1469 1147.16,-33.3266 1177.46,-34.4992"/>
<polygon fill="midnightblue" stroke="midnightblue" points="1177.6,-38.0087 1187.74,-34.9496 1177.91,-31.0154 1177.6,-38.0087"/>
</g>
<!-- Node49&#45;&gt;Node48 -->
<g id="edge13" class="edge"><title>Node49&#45;&gt;Node48</title>
<path fill="none" stroke="midnightblue" d="M1023.06,-56.5C1035.81,-56.5 1051.46,-56.5 1066,-56.5"/>
<polygon fill="midnightblue" stroke="midnightblue" points="1066.34,-60.0001 1076.34,-56.5 1066.34,-53.0001 1066.34,-60.0001"/>
</g>
<!-- Node51 -->
<g id="node11" class="node"><title>Node51</title>
<g id="a_node11"><a xlink:href="main_8h.html#a9dff326a6079fe726285b11ee837ad60" target="_top" xlink:title="atu_reset">
<polygon fill="none" stroke="black" points="368.5,-451.5 368.5,-469.5 424.5,-469.5 424.5,-451.5 368.5,-451.5"/>
<text text-anchor="middle" x="396.5" y="-458.3" font-family="Calibri" font-size="9.00">atu_reset</text>
</a>
</g>
</g>
<!-- Node50&#45;&gt;Node51 -->
<g id="edge15" class="edge"><title>Node50&#45;&gt;Node51</title>
<path fill="none" stroke="midnightblue" d="M216.144,-660.229C225.262,-645.52 244.126,-616.182 263,-593.5 300.623,-548.286 351.049,-500.723 377.529,-476.594"/>
<polygon fill="midnightblue" stroke="midnightblue" points="380.173,-478.921 385.238,-469.615 375.476,-473.731 380.173,-478.921"/>
</g>
<!-- Node54 -->
<g id="node14" class="node"><title>Node54</title>
<g id="a_node14"><a xlink:href="main_8h.html#a6c26e075660bdd7a54df984ec3fc7ff4" target="_top" xlink:title="get_swr">
<polygon fill="none" stroke="black" points="574,-641.5 574,-659.5 622,-659.5 622,-641.5 574,-641.5"/>
<text text-anchor="middle" x="598" y="-648.3" font-family="Calibri" font-size="9.00">get_swr</text>
</a>
</g>
</g>
<!-- Node50&#45;&gt;Node54 -->
<g id="edge18" class="edge"><title>Node50&#45;&gt;Node54</title>
<path fill="none" stroke="midnightblue" d="M215.875,-678.788C224.114,-692.033 241.221,-715.911 263,-726.5 372.705,-779.841 429.741,-800.602 537,-742.5 565.53,-727.045 582.641,-691.491 590.909,-669.383"/>
<polygon fill="midnightblue" stroke="midnightblue" points="594.277,-670.353 594.268,-659.758 587.668,-668.046 594.277,-670.353"/>
</g>
<!-- Node62 -->
<g id="node22" class="node"><title>Node62</title>
<g id="a_node22"><a xlink:href="main_8h.html#abf3918c21112474db61609b3462577ee" target="_top" xlink:title="lcd_ind">
<polygon fill="none" stroke="black" points="271.5,-679.5 271.5,-697.5 318.5,-697.5 318.5,-679.5 271.5,-679.5"/>
<text text-anchor="middle" x="295" y="-686.3" font-family="Calibri" font-size="9.00">lcd_ind</text>
</a>
</g>
</g>
<!-- Node50&#45;&gt;Node62 -->
<g id="edge28" class="edge"><title>Node50&#45;&gt;Node62</title>
<path fill="none" stroke="midnightblue" d="M227.397,-673.345C237.202,-675.576 249.88,-678.461 261.541,-681.114"/>
<polygon fill="midnightblue" stroke="midnightblue" points="260.9,-684.558 271.428,-683.364 262.454,-677.732 260.9,-684.558"/>
</g>
<!-- Node63 -->
<g id="node23" class="node"><title>Node63</title>
<g id="a_node23"><a xlink:href="main_8h.html#ab518a3d2c723f12d3af3024a195606ce" target="_top" xlink:title="sharp_cap">
<polygon fill="none" stroke="black" points="472,-679.5 472,-697.5 531,-697.5 531,-679.5 472,-679.5"/>
<text text-anchor="middle" x="501.5" y="-686.3" font-family="Calibri" font-size="9.00">sharp_cap</text>
</a>
</g>
</g>
<!-- Node50&#45;&gt;Node63 -->
<g id="edge29" class="edge"><title>Node50&#45;&gt;Node63</title>
<path fill="none" stroke="midnightblue" d="M219.572,-678.595C229.331,-687.675 245.78,-701.042 263,-706.5 330.571,-727.918 414.141,-712.582 461.985,-700.11"/>
<polygon fill="midnightblue" stroke="midnightblue" points="463.178,-703.413 471.919,-697.426 461.352,-696.655 463.178,-703.413"/>
</g>
<!-- Node64 -->
<g id="node24" class="node"><title>Node64</title>
<g id="a_node24"><a xlink:href="main_8h.html#a72210b3ed1d5691c5bbda8c7f1e97197" target="_top" xlink:title="sharp_ind">
<polygon fill="none" stroke="black" points="367.5,-679.5 367.5,-697.5 425.5,-697.5 425.5,-679.5 367.5,-679.5"/>
<text text-anchor="middle" x="396.5" y="-686.3" font-family="Calibri" font-size="9.00">sharp_ind</text>
</a>
</g>
</g>
<!-- Node50&#45;&gt;Node64 -->
<g id="edge32" class="edge"><title>Node50&#45;&gt;Node64</title>
<path fill="none" stroke="midnightblue" d="M227.187,-668.093C249.891,-666.499 291.728,-664.699 327,-669.5 337.639,-670.948 348.958,-673.606 359.266,-676.485"/>
<polygon fill="midnightblue" stroke="midnightblue" points="358.594,-679.935 369.175,-679.4 360.569,-673.22 358.594,-679.935"/>
</g>
<!-- Node65 -->
<g id="node25" class="node"><title>Node65</title>
<g id="a_node25"><a xlink:href="main_8h.html#a454a7687c8039514766571b23516ca9c" target="_top" xlink:title="sub_tune">
<polygon fill="none" stroke="black" points="267.5,-603.5 267.5,-621.5 322.5,-621.5 322.5,-603.5 267.5,-603.5"/>
<text text-anchor="middle" x="295" y="-610.3" font-family="Calibri" font-size="9.00">sub_tune</text>
</a>
</g>
</g>
<!-- Node50&#45;&gt;Node65 -->
<g id="edge35" class="edge"><title>Node50&#45;&gt;Node65</title>
<path fill="none" stroke="midnightblue" d="M223.916,-660.342C236.941,-651.45 256.934,-637.803 272.237,-627.356"/>
<polygon fill="midnightblue" stroke="midnightblue" points="274.332,-630.164 280.618,-621.635 270.385,-624.383 274.332,-630.164"/>
</g>
<!-- Node51&#45;&gt;Node52 -->
<g id="edge16" class="edge"><title>Node51&#45;&gt;Node52</title>
<path fill="none" stroke="midnightblue" d="M424.599,-459.376C453.776,-459.234 500.863,-462.152 537,-479.5 556.125,-488.681 573.149,-506.234 584.133,-519.447"/>
<polygon fill="midnightblue" stroke="midnightblue" points="581.474,-521.726 590.44,-527.371 586.951,-517.367 581.474,-521.726"/>
</g>
<!-- Node51&#45;&gt;Node53 -->
<g id="edge17" class="edge"><title>Node51&#45;&gt;Node53</title>
<path fill="none" stroke="midnightblue" d="M421.91,-469.505C435.769,-474.619 453.287,-481.082 468.265,-486.607"/>
<polygon fill="midnightblue" stroke="midnightblue" points="467.084,-489.902 477.677,-490.08 469.506,-483.335 467.084,-489.902"/>
</g>
<!-- Node55 -->
<g id="node15" class="node"><title>Node55</title>
<g id="a_node15"><a xlink:href="main_8h.html#ab37ca657b79c6b9176cb63e9d812a182" target="_top" xlink:title="get_pwr">
<polygon fill="none" stroke="black" points="666.5,-260.5 666.5,-278.5 715.5,-278.5 715.5,-260.5 666.5,-260.5"/>
<text text-anchor="middle" x="691" y="-267.3" font-family="Calibri" font-size="9.00">get_pwr</text>
</a>
</g>
</g>
<!-- Node54&#45;&gt;Node55 -->
<g id="edge19" class="edge"><title>Node54&#45;&gt;Node55</title>
<path fill="none" stroke="midnightblue" d="M601.36,-641.243C605.713,-624.132 615.266,-586.389 623,-554.5 647.238,-454.563 675.012,-334.581 685.595,-288.657"/>
<polygon fill="midnightblue" stroke="midnightblue" points="689.017,-289.391 687.85,-278.86 682.196,-287.82 689.017,-289.391"/>
</g>
<!-- Node59 -->
<g id="node19" class="node"><title>Node59</title>
<g id="a_node19"><a xlink:href="main_8h.html#a3cfc40ce98a046339c33b0ee86777042" target="_top" xlink:title="show_pwr">
<polygon fill="none" stroke="black" points="662,-546.5 662,-564.5 720,-564.5 720,-546.5 662,-546.5"/>
<text text-anchor="middle" x="691" y="-553.3" font-family="Calibri" font-size="9.00">show_pwr</text>
</a>
</g>
</g>
<!-- Node54&#45;&gt;Node59 -->
<g id="edge23" class="edge"><title>Node54&#45;&gt;Node59</title>
<path fill="none" stroke="midnightblue" d="M607.725,-641.391C623.042,-625.402 654.963,-592.077 674.231,-571.962"/>
<polygon fill="midnightblue" stroke="midnightblue" points="676.777,-574.364 681.167,-564.721 671.722,-569.521 676.777,-574.364"/>
</g>
<!-- Node61 -->
<g id="node21" class="node"><title>Node61</title>
<g id="a_node21"><a xlink:href="main_8h.html#ad9d02e37f1f201576a9d93fd36fc4768" target="_top" xlink:title="show_reset">
<polygon fill="none" stroke="black" points="659,-509.5 659,-527.5 723,-527.5 723,-509.5 659,-509.5"/>
<text text-anchor="middle" x="691" y="-516.3" font-family="Calibri" font-size="9.00">show_reset</text>
</a>
</g>
</g>
<!-- Node54&#45;&gt;Node61 -->
<g id="edge27" class="edge"><title>Node54&#45;&gt;Node61</title>
<path fill="none" stroke="midnightblue" d="M601.809,-641.467C608.64,-620.717 627.88,-568.942 659,-536.5 660.023,-535.433 661.123,-534.41 662.277,-533.43"/>
<polygon fill="midnightblue" stroke="midnightblue" points="664.318,-536.274 670.43,-527.62 660.255,-530.573 664.318,-536.274"/>
</g>
<!-- Node56 -->
<g id="node16" class="node"><title>Node56</title>
<g id="a_node16"><a xlink:href="main_8h.html#ab19e6e081315a9a200394b74d10de395" target="_top" xlink:title="correction">
<polygon fill="none" stroke="black" points="763,-297.5 763,-315.5 820,-315.5 820,-297.5 763,-297.5"/>
<text text-anchor="middle" x="791.5" y="-304.3" font-family="Calibri" font-size="9.00">correction</text>
</a>
</g>
</g>
<!-- Node55&#45;&gt;Node56 -->
<g id="edge20" class="edge"><title>Node55&#45;&gt;Node56</title>
<path fill="none" stroke="midnightblue" d="M715.593,-278.362C727.959,-283.007 743.318,-288.777 756.904,-293.88"/>
<polygon fill="midnightblue" stroke="midnightblue" points="755.823,-297.213 766.415,-297.453 758.284,-290.66 755.823,-297.213"/>
</g>
<!-- Node57 -->
<g id="node17" class="node"><title>Node57</title>
<g id="a_node17"><a xlink:href="main_8h.html#acfd46f8711e9c1c20fffdfc8bdaa0ddd" target="_top" xlink:title="get_forward">
<polygon fill="none" stroke="black" points="759,-260.5 759,-278.5 824,-278.5 824,-260.5 759,-260.5"/>
<text text-anchor="middle" x="791.5" y="-267.3" font-family="Calibri" font-size="9.00">get_forward</text>
</a>
</g>
</g>
<!-- Node55&#45;&gt;Node57 -->
<g id="edge21" class="edge"><title>Node55&#45;&gt;Node57</title>
<path fill="none" stroke="midnightblue" d="M715.593,-269.5C725.528,-269.5 737.396,-269.5 748.724,-269.5"/>
<polygon fill="midnightblue" stroke="midnightblue" points="748.904,-273 758.904,-269.5 748.904,-266 748.904,-273"/>
</g>
<!-- Node58 -->
<g id="node18" class="node"><title>Node58</title>
<g id="a_node18"><a xlink:href="main_8h.html#aa6b9a2b3d88f578ba6a9fefd911eae75" target="_top" xlink:title="get_reverse">
<polygon fill="none" stroke="black" points="759.5,-223.5 759.5,-241.5 823.5,-241.5 823.5,-223.5 759.5,-223.5"/>
<text text-anchor="middle" x="791.5" y="-230.3" font-family="Calibri" font-size="9.00">get_reverse</text>
</a>
</g>
</g>
<!-- Node55&#45;&gt;Node58 -->
<g id="edge22" class="edge"><title>Node55&#45;&gt;Node58</title>
<path fill="none" stroke="midnightblue" d="M715.593,-260.638C727.959,-255.993 743.318,-250.223 756.904,-245.12"/>
<polygon fill="midnightblue" stroke="midnightblue" points="758.284,-248.34 766.415,-241.547 755.823,-241.787 758.284,-248.34"/>
</g>
<!-- Node59&#45;&gt;Node43 -->
<g id="edge26" class="edge"><title>Node59&#45;&gt;Node43</title>
<path fill="none" stroke="midnightblue" d="M710.186,-546.457C714.71,-543.668 719.314,-540.312 723,-536.5 786.224,-471.106 786.289,-441.274 824,-358.5 850.35,-300.663 872.894,-228.678 882.93,-194.814"/>
<polygon fill="midnightblue" stroke="midnightblue" points="886.392,-195.447 885.842,-184.867 879.674,-193.481 886.392,-195.447"/>
</g>
<!-- Node59&#45;&gt;Node60 -->
<g id="edge24" class="edge"><title>Node59&#45;&gt;Node60</title>
<path fill="none" stroke="midnightblue" d="M718.138,-546.478C730.491,-542.214 745.354,-537.083 758.387,-532.585"/>
<polygon fill="midnightblue" stroke="midnightblue" points="759.615,-535.864 767.925,-529.292 757.331,-529.247 759.615,-535.864"/>
</g>
<!-- Node60&#45;&gt;Node43 -->
<g id="edge25" class="edge"><title>Node60&#45;&gt;Node43</title>
<path fill="none" stroke="midnightblue" d="M798.46,-512.436C805.512,-501.331 817.157,-481.738 824,-463.5 860.581,-365.998 879.732,-241.786 886.072,-194.73"/>
<polygon fill="midnightblue" stroke="midnightblue" points="889.554,-195.092 887.381,-184.723 882.613,-194.184 889.554,-195.092"/>
</g>
<!-- Node63&#45;&gt;Node52 -->
<g id="edge31" class="edge"><title>Node63&#45;&gt;Node52</title>
<path fill="none" stroke="midnightblue" d="M508.128,-679.447C523.39,-654.899 565.767,-586.738 585.988,-554.212"/>
<polygon fill="midnightblue" stroke="midnightblue" points="588.974,-556.038 591.282,-545.698 583.029,-552.342 588.974,-556.038"/>
</g>
<!-- Node63&#45;&gt;Node54 -->
<g id="edge30" class="edge"><title>Node63&#45;&gt;Node54</title>
<path fill="none" stroke="midnightblue" d="M524.895,-679.495C536.812,-674.702 551.678,-668.725 564.811,-663.444"/>
<polygon fill="midnightblue" stroke="midnightblue" points="566.466,-666.551 574.438,-659.573 563.854,-660.056 566.466,-666.551"/>
</g>
<!-- Node64&#45;&gt;Node53 -->
<g id="edge34" class="edge"><title>Node64&#45;&gt;Node53</title>
<path fill="none" stroke="midnightblue" d="M402.623,-679.49C409.075,-668.112 420.471,-647.917 430,-630.5 452.128,-590.057 477.452,-542.26 490.91,-516.735"/>
<polygon fill="midnightblue" stroke="midnightblue" points="494.044,-518.296 495.607,-507.817 487.85,-515.034 494.044,-518.296"/>
</g>
<!-- Node64&#45;&gt;Node54 -->
<g id="edge33" class="edge"><title>Node64&#45;&gt;Node54</title>
<path fill="none" stroke="midnightblue" d="M419.102,-697.653C447.231,-708.166 497.47,-722.081 537,-706.5 556.574,-698.785 573.528,-681.34 584.374,-667.955"/>
<polygon fill="midnightblue" stroke="midnightblue" points="587.257,-669.948 590.585,-659.889 581.71,-665.677 587.257,-669.948"/>
</g>
<!-- Node65&#45;&gt;Node51 -->
<g id="edge36" class="edge"><title>Node65&#45;&gt;Node51</title>
<path fill="none" stroke="midnightblue" d="M302.823,-603.393C309.222,-594.77 318.978,-581.407 327,-569.5 348.225,-537.994 371.462,-500.275 384.683,-478.482"/>
<polygon fill="midnightblue" stroke="midnightblue" points="387.832,-480.038 390.009,-469.669 381.841,-476.417 387.832,-480.038"/>
</g>
<!-- Node65&#45;&gt;Node52 -->
<g id="edge45" class="edge"><title>Node65&#45;&gt;Node52</title>
<path fill="none" stroke="midnightblue" d="M319.877,-603.482C352.472,-591.472 412.917,-570.261 466,-557.5 498.82,-549.61 536.993,-543.872 563.635,-540.407"/>
<polygon fill="midnightblue" stroke="midnightblue" points="564.114,-543.874 573.596,-539.148 563.236,-536.93 564.114,-543.874"/>
</g>
<!-- Node65&#45;&gt;Node53 -->
<g id="edge46" class="edge"><title>Node65&#45;&gt;Node53</title>
<path fill="none" stroke="midnightblue" d="M306.343,-603.208C319.045,-592.104 341.554,-573.408 363,-560.5 397.319,-539.844 439.717,-521.737 468.286,-510.507"/>
<polygon fill="midnightblue" stroke="midnightblue" points="469.719,-513.706 477.779,-506.829 467.19,-507.179 469.719,-513.706"/>
</g>
<!-- Node65&#45;&gt;Node54 -->
<g id="edge44" class="edge"><title>Node65&#45;&gt;Node54</title>
<path fill="none" stroke="midnightblue" d="M301.213,-621.524C313.745,-642.903 345.79,-695.656 363,-706.5 402.317,-731.275 419.702,-720.485 466,-724.5 497.438,-727.226 508.514,-738.076 537,-724.5 561.188,-712.972 578.79,-686.401 588.455,-668.442"/>
<polygon fill="midnightblue" stroke="midnightblue" points="591.589,-670.001 593,-659.501 585.349,-666.829 591.589,-670.001"/>
</g>
<!-- Node65&#45;&gt;Node63 -->
<g id="edge48" class="edge"><title>Node65&#45;&gt;Node63</title>
<path fill="none" stroke="midnightblue" d="M320.262,-621.517C356.622,-635.029 425.374,-660.58 466.653,-675.921"/>
<polygon fill="midnightblue" stroke="midnightblue" points="465.677,-679.292 476.27,-679.495 468.115,-672.731 465.677,-679.292"/>
</g>
<!-- Node65&#45;&gt;Node64 -->
<g id="edge49" class="edge"><title>Node65&#45;&gt;Node64</title>
<path fill="none" stroke="midnightblue" d="M307.781,-621.611C313.573,-626.092 320.655,-631.576 327,-636.5 343.014,-648.927 346.846,-652.256 363,-664.5 366.813,-667.39 370.902,-670.444 374.849,-673.37"/>
<polygon fill="midnightblue" stroke="midnightblue" points="372.974,-676.336 383.1,-679.455 377.129,-670.703 372.974,-676.336"/>
</g>
<!-- Node66 -->
<g id="node26" class="node"><title>Node66</title>
<g id="a_node26"><a xlink:href="main_8h.html#a5c7c60c7d70cf76cc52e87722bb0f614" target="_top" xlink:title="coarse_tune">
<polygon fill="none" stroke="black" points="363,-603.5 363,-621.5 430,-621.5 430,-603.5 363,-603.5"/>
<text text-anchor="middle" x="396.5" y="-610.3" font-family="Calibri" font-size="9.00">coarse_tune</text>
</a>
</g>
</g>
<!-- Node65&#45;&gt;Node66 -->
<g id="edge37" class="edge"><title>Node65&#45;&gt;Node66</title>
<path fill="none" stroke="midnightblue" d="M322.664,-612.5C331.903,-612.5 342.507,-612.5 352.713,-612.5"/>
<polygon fill="midnightblue" stroke="midnightblue" points="352.72,-616 362.72,-612.5 352.72,-609 352.72,-616"/>
</g>
<!-- Node68 -->
<g id="node28" class="node"><title>Node68</title>
<g id="a_node28"><a xlink:href="main_8h.html#ae0c1e0ec712704e43db40473f103d621" target="_top" xlink:title="Set the state of the switch. ">
<polygon fill="none" stroke="black" points="374,-414.5 374,-432.5 419,-432.5 419,-414.5 374,-414.5"/>
<text text-anchor="middle" x="396.5" y="-421.3" font-family="Calibri" font-size="9.00">set_sw</text>
</a>
</g>
</g>
<!-- Node65&#45;&gt;Node68 -->
<g id="edge47" class="edge"><title>Node65&#45;&gt;Node68</title>
<path fill="none" stroke="midnightblue" d="M297.374,-603.198C301.903,-575.461 318.678,-492.114 363,-441.5 363.86,-440.517 364.788,-439.578 365.767,-438.68"/>
<polygon fill="midnightblue" stroke="midnightblue" points="368.029,-441.361 374.008,-432.615 363.879,-435.724 368.029,-441.361"/>
</g>
<!-- Node66&#45;&gt;Node52 -->
<g id="edge42" class="edge"><title>Node66&#45;&gt;Node52</title>
<path fill="none" stroke="midnightblue" d="M421.169,-603.483C456.83,-589.898 524.433,-564.144 564.628,-548.832"/>
<polygon fill="midnightblue" stroke="midnightblue" points="565.879,-552.101 573.978,-545.27 563.387,-545.56 565.879,-552.101"/>
</g>
<!-- Node66&#45;&gt;Node53 -->
<g id="edge43" class="edge"><title>Node66&#45;&gt;Node53</title>
<path fill="none" stroke="midnightblue" d="M405.929,-603.171C423.292,-583.953 463.26,-539.717 485.272,-515.354"/>
<polygon fill="midnightblue" stroke="midnightblue" points="488.135,-517.406 492.242,-507.639 482.941,-512.713 488.135,-517.406"/>
</g>
<!-- Node66&#45;&gt;Node54 -->
<g id="edge41" class="edge"><title>Node66&#45;&gt;Node54</title>
<path fill="none" stroke="midnightblue" d="M429.052,-621.535C440.611,-624.648 453.839,-627.981 466,-630.5 499.015,-637.338 537.159,-642.901 563.742,-646.408"/>
<polygon fill="midnightblue" stroke="midnightblue" points="563.311,-649.882 573.678,-647.694 564.21,-642.939 563.311,-649.882"/>
</g>
<!-- Node67 -->
<g id="node27" class="node"><title>Node67</title>
<g id="a_node27"><a xlink:href="main_8h.html#a740ef1b33bb02cd952ad7d8708999472" target="_top" xlink:title="coarse_cap">
<polygon fill="none" stroke="black" points="470.5,-603.5 470.5,-621.5 532.5,-621.5 532.5,-603.5 470.5,-603.5"/>
<text text-anchor="middle" x="501.5" y="-610.3" font-family="Calibri" font-size="9.00">coarse_cap</text>
</a>
</g>
</g>
<!-- Node66&#45;&gt;Node67 -->
<g id="edge38" class="edge"><title>Node66&#45;&gt;Node67</title>
<path fill="none" stroke="midnightblue" d="M430.09,-612.5C439.626,-612.5 450.166,-612.5 460.124,-612.5"/>
<polygon fill="midnightblue" stroke="midnightblue" points="460.223,-616 470.223,-612.5 460.223,-609 460.223,-616"/>
</g>
<!-- Node67&#45;&gt;Node52 -->
<g id="edge40" class="edge"><title>Node67&#45;&gt;Node52</title>
<path fill="none" stroke="midnightblue" d="M516.174,-603.479C522.609,-599.11 530.319,-593.696 537,-588.5 551.71,-577.061 567.616,-563.202 579.353,-552.669"/>
<polygon fill="midnightblue" stroke="midnightblue" points="582.02,-554.976 587.085,-545.67 577.323,-549.786 582.02,-554.976"/>
</g>
<!-- Node67&#45;&gt;Node54 -->
<g id="edge39" class="edge"><title>Node67&#45;&gt;Node54</title>
<path fill="none" stroke="midnightblue" d="M524.895,-621.505C536.812,-626.298 551.678,-632.275 564.811,-637.556"/>
<polygon fill="midnightblue" stroke="midnightblue" points="563.854,-640.944 574.438,-641.427 566.466,-634.449 563.854,-640.944"/>
</g>
<!-- Node69&#45;&gt;Node43 -->
<g id="edge67" class="edge"><title>Node69&#45;&gt;Node43</title>
<path fill="none" stroke="midnightblue" d="M400.28,-261.446C407.43,-239.702 428.572,-184.215 466,-155.5 514.001,-118.673 536.5,-118.5 597,-118.5 597,-118.5 597,-118.5 692,-118.5 754.443,-118.5 823.785,-145.377 861.108,-162.22"/>
<polygon fill="midnightblue" stroke="midnightblue" points="859.772,-165.458 870.318,-166.468 862.704,-159.102 859.772,-165.458"/>
</g>
<!-- Node69&#45;&gt;Node52 -->
<g id="edge54" class="edge"><title>Node69&#45;&gt;Node52</title>
<path fill="none" stroke="midnightblue" d="M409.354,-279.74C435.298,-300.447 497.91,-353.112 537,-408.5 562.013,-443.941 581.088,-491.46 590.501,-517.484"/>
<polygon fill="midnightblue" stroke="midnightblue" points="587.308,-518.955 593.933,-527.223 593.911,-516.629 587.308,-518.955"/>
</g>
<!-- Node69&#45;&gt;Node53 -->
<g id="edge53" class="edge"><title>Node69&#45;&gt;Node53</title>
<path fill="none" stroke="midnightblue" d="M401.665,-279.72C417.131,-313.955 471.435,-434.161 492.273,-480.289"/>
<polygon fill="midnightblue" stroke="midnightblue" points="489.089,-481.743 496.396,-489.415 495.468,-478.861 489.089,-481.743"/>
</g>
<!-- Node69&#45;&gt;Node55 -->
<g id="edge52" class="edge"><title>Node69&#45;&gt;Node55</title>
<path fill="none" stroke="midnightblue" d="M420.633,-262.4C433.757,-258.233 450.592,-253.597 466,-251.5 533.283,-242.342 612.616,-253.956 656.515,-262.331"/>
<polygon fill="midnightblue" stroke="midnightblue" points="655.878,-265.773 666.366,-264.271 657.23,-258.905 655.878,-265.773"/>
</g>
<!-- Node69&#45;&gt;Node70 -->
<g id="edge55" class="edge"><title>Node69&#45;&gt;Node70</title>
<path fill="none" stroke="midnightblue" d="M399.235,-261.18C404.673,-234.136 423.613,-154.398 466,-104.5 492.752,-73.0079 534.94,-50.0207 564.182,-36.7458"/>
<polygon fill="midnightblue" stroke="midnightblue" points="565.818,-39.8497 573.561,-32.618 562.998,-33.4427 565.818,-39.8497"/>
</g>
<!-- Node72 -->
<g id="node32" class="node"><title>Node72</title>
<g id="a_node32"><a xlink:href="main_8c.html#a593218c5fe00b499d494826fc0aa5279" target="_top" xlink:title="button_delay">
<polygon fill="none" stroke="black" points="466,-261.5 466,-279.5 537,-279.5 537,-261.5 466,-261.5"/>
<text text-anchor="middle" x="501.5" y="-268.3" font-family="Calibri" font-size="9.00">button_delay</text>
</a>
</g>
</g>
<!-- Node69&#45;&gt;Node72 -->
<g id="edge61" class="edge"><title>Node69&#45;&gt;Node72</title>
<path fill="none" stroke="midnightblue" d="M420.615,-270.5C430.891,-270.5 443.359,-270.5 455.36,-270.5"/>
<polygon fill="midnightblue" stroke="midnightblue" points="455.719,-274 465.719,-270.5 455.719,-267 455.719,-274"/>
</g>
<!-- Node73 -->
<g id="node33" class="node"><title>Node73</title>
<g id="a_node33"><a xlink:href="main_8c.html#aa8fd50019a763561abc6621bb224417f" target="_top" xlink:title="lcd_swr">
<polygon fill="none" stroke="black" points="574.5,-147.5 574.5,-165.5 621.5,-165.5 621.5,-147.5 574.5,-147.5"/>
<text text-anchor="middle" x="598" y="-154.3" font-family="Calibri" font-size="9.00">lcd_swr</text>
</a>
</g>
</g>
<!-- Node69&#45;&gt;Node73 -->
<g id="edge62" class="edge"><title>Node69&#45;&gt;Node73</title>
<path fill="none" stroke="midnightblue" d="M401.62,-261.305C410.473,-242.697 433.204,-200.64 466,-180.5 495.876,-162.154 536.318,-157.121 564.329,-156.067"/>
<polygon fill="midnightblue" stroke="midnightblue" points="564.49,-159.564 574.407,-155.838 564.331,-152.566 564.49,-159.564"/>
</g>
<!-- Node74 -->
<g id="node34" class="node"><title>Node74</title>
<g id="a_node34"><a xlink:href="main_8c.html#a4ae0d4fa97fc0ca3611813fee4f9af7c" target="_top" xlink:title="show_pwr">
<polygon fill="none" stroke="black" points="662,-185.5 662,-203.5 720,-203.5 720,-185.5 662,-185.5"/>
<text text-anchor="middle" x="691" y="-192.3" font-family="Calibri" font-size="9.00">show_pwr</text>
</a>
</g>
</g>
<!-- Node69&#45;&gt;Node74 -->
<g id="edge64" class="edge"><title>Node69&#45;&gt;Node74</title>
<path fill="none" stroke="midnightblue" d="M419.129,-261.379C432.475,-255.98 450.038,-249.284 466,-244.5 530.27,-225.238 606.903,-209.683 651.83,-201.293"/>
<polygon fill="midnightblue" stroke="midnightblue" points="652.533,-204.722 661.731,-199.464 651.261,-197.838 652.533,-204.722"/>
</g>
<!-- Node70&#45;&gt;Node49 -->
<g id="edge60" class="edge"><title>Node70&#45;&gt;Node49</title>
<path fill="none" stroke="midnightblue" d="M623.145,-25.5146C689.996,-31.0926 877.834,-46.7656 957.759,-53.4344"/>
<polygon fill="midnightblue" stroke="midnightblue" points="957.595,-56.9327 967.851,-54.2764 958.177,-49.957 957.595,-56.9327"/>
</g>
<!-- Node71 -->
<g id="node31" class="node"><title>Node71</title>
<g id="a_node31"><a xlink:href="oled__control_8c.html#ad141ed038278a6fcad6c307932f01ec8" target="_top" xlink:title="send_command">
<polygon fill="none" stroke="black" points="955,-0.5 955,-18.5 1036,-18.5 1036,-0.5 955,-0.5"/>
<text text-anchor="middle" x="995.5" y="-7.3" font-family="Calibri" font-size="9.00">send_command</text>
</a>
</g>
</g>
<!-- Node70&#45;&gt;Node71 -->
<g id="edge56" class="edge"><title>Node70&#45;&gt;Node71</title>
<path fill="none" stroke="midnightblue" d="M623.145,-22.6453C686.643,-20.3976 859.294,-14.286 944.946,-11.2541"/>
<polygon fill="midnightblue" stroke="midnightblue" points="945.077,-14.7518 954.947,-10.9001 944.829,-7.75616 945.077,-14.7518"/>
</g>
<!-- Node71&#45;&gt;Node45 -->
<g id="edge57" class="edge"><title>Node71&#45;&gt;Node45</title>
<path fill="none" stroke="midnightblue" d="M1036.33,-8.92074C1069.51,-10.1675 1116.86,-16.103 1152,-37.5 1182.51,-56.0724 1204.93,-92.4678 1216.39,-114.423"/>
<polygon fill="midnightblue" stroke="midnightblue" points="1213.27,-116.003 1220.87,-123.378 1219.53,-112.87 1213.27,-116.003"/>
</g>
<!-- Node71&#45;&gt;Node46 -->
<g id="edge58" class="edge"><title>Node71&#45;&gt;Node46</title>
<path fill="none" stroke="midnightblue" d="M1036.04,-14.3453C1075.45,-19.1749 1135.99,-26.5929 1177.88,-31.7255"/>
<polygon fill="midnightblue" stroke="midnightblue" points="1177.48,-35.2034 1187.83,-32.9457 1178.33,-28.2553 1177.48,-35.2034"/>
</g>
<!-- Node71&#45;&gt;Node48 -->
<g id="edge59" class="edge"><title>Node71&#45;&gt;Node48</title>
<path fill="none" stroke="midnightblue" d="M1018.58,-18.5621C1035.92,-25.6818 1060.3,-35.6883 1079.66,-43.637"/>
<polygon fill="midnightblue" stroke="midnightblue" points="1078.41,-46.9062 1088.99,-47.4657 1081.07,-40.4305 1078.41,-46.9062"/>
</g>
<!-- Node73&#45;&gt;Node43 -->
<g id="edge63" class="edge"><title>Node73&#45;&gt;Node43</title>
<path fill="none" stroke="midnightblue" d="M621.717,-157.991C670.985,-161.224 788.153,-168.914 849.51,-172.941"/>
<polygon fill="midnightblue" stroke="midnightblue" points="849.367,-176.439 859.575,-173.602 849.826,-169.454 849.367,-176.439"/>
</g>
<!-- Node74&#45;&gt;Node43 -->
<g id="edge65" class="edge"><title>Node74&#45;&gt;Node43</title>
<path fill="none" stroke="midnightblue" d="M720.154,-191.778C754.104,-188.495 811.355,-182.959 849.533,-179.268"/>
<polygon fill="midnightblue" stroke="midnightblue" points="850.143,-182.725 859.76,-178.279 849.469,-175.758 850.143,-182.725"/>
</g>
<!-- Node74&#45;&gt;Node60 -->
<g id="edge66" class="edge"><title>Node74&#45;&gt;Node60</title>
<path fill="none" stroke="midnightblue" d="M698.048,-203.644C704.95,-214.439 716.165,-233.127 723,-250.5 758.764,-341.399 780.042,-457.063 787.484,-502.219"/>
<polygon fill="midnightblue" stroke="midnightblue" points="784.069,-503.029 789.114,-512.346 790.981,-501.917 784.069,-503.029"/>
</g>
<!-- Node75&#45;&gt;Node43 -->
<g id="edge78" class="edge"><title>Node75&#45;&gt;Node43</title>
<path fill="none" stroke="midnightblue" d="M327.281,-348.043C434.55,-349.647 783.141,-352.627 824,-324.5 867.823,-294.332 882.088,-227.653 886.558,-194.701"/>
<polygon fill="midnightblue" stroke="midnightblue" points="890.058,-194.91 887.763,-184.567 883.106,-194.084 890.058,-194.91"/>
</g>
<!-- Node75&#45;&gt;Node51 -->
<g id="edge75" class="edge"><title>Node75&#45;&gt;Node51</title>
<path fill="none" stroke="midnightblue" d="M300.835,-356.756C310.62,-374.816 334.297,-415.276 363,-441.5 364.647,-443.004 366.432,-444.445 368.289,-445.813"/>
<polygon fill="midnightblue" stroke="midnightblue" points="366.406,-448.763 376.69,-451.309 370.238,-442.906 366.406,-448.763"/>
</g>
<!-- Node75&#45;&gt;Node60 -->
<g id="edge77" class="edge"><title>Node75&#45;&gt;Node60</title>
<path fill="none" stroke="midnightblue" d="M327.166,-351.677C354.516,-355.674 395.239,-362.436 430,-371.5 560.796,-405.606 706.549,-477.585 764.606,-507.746"/>
<polygon fill="midnightblue" stroke="midnightblue" points="762.986,-510.849 773.469,-512.381 766.23,-504.646 762.986,-510.849"/>
</g>
<!-- Node75&#45;&gt;Node68 -->
<g id="edge76" class="edge"><title>Node75&#45;&gt;Node68</title>
<path fill="none" stroke="midnightblue" d="M307.805,-356.517C324.561,-369.315 355.455,-392.913 375.739,-408.406"/>
<polygon fill="midnightblue" stroke="midnightblue" points="373.639,-411.206 383.711,-414.495 377.888,-405.644 373.639,-411.206"/>
</g>
<!-- Node75&#45;&gt;Node69 -->
<g id="edge79" class="edge"><title>Node75&#45;&gt;Node69</title>
<path fill="none" stroke="midnightblue" d="M307.818,-338.436C313.618,-333.966 320.697,-328.478 327,-323.5 343.124,-310.766 346.733,-307.05 363,-294.5 366.724,-291.627 370.728,-288.612 374.608,-285.727"/>
<polygon fill="midnightblue" stroke="midnightblue" points="376.779,-288.475 382.751,-279.724 372.625,-282.84 376.779,-288.475"/>
</g>
</g>
</svg>
