<?xml version="1.0" encoding="UTF-8" standalone="no"?>
<!DOCTYPE svg PUBLIC "-//W3C//DTD SVG 1.1//EN"
 "http://www.w3.org/Graphics/SVG/1.1/DTD/svg11.dtd">
<!-- Generated by graphviz version 2.38.0 (20140413.2041)
 -->
<!-- Title: sharp_ind Pages: 1 -->
<svg width="975pt" height="442pt"
 viewBox="0.00 0.00 975.00 441.86" xmlns="http://www.w3.org/2000/svg" xmlns:xlink="http://www.w3.org/1999/xlink">
<g id="graph0" class="graph" transform="scale(1 1) rotate(0) translate(4 437.859)">
<title>sharp_ind</title>
<!-- Node1 -->
<g id="node1" class="node"><title>Node1</title>
<g id="a_node1"><a xlink:title=" ">
<polygon fill="#bfbfbf" stroke="black" points="0,-299.455 0,-317.455 58,-317.455 58,-299.455 0,-299.455"/>
<text text-anchor="middle" x="29" y="-306.255" font-family="Calibri" font-size="9.00">sharp_ind</text>
</a>
</g>
</g>
<!-- Node2 -->
<g id="node2" class="node"><title>Node2</title>
<g id="a_node2"><a xlink:href="main_8h.html#ad7eb7423e0b17ccfba1ae42f3a3274e0" target="_top" xlink:title=" ">
<polygon fill="none" stroke="black" points="94,-186.455 94,-204.455 142,-204.455 142,-186.455 94,-186.455"/>
<text text-anchor="middle" x="118" y="-193.255" font-family="Calibri" font-size="9.00">get_swr</text>
</a>
</g>
</g>
<!-- Node1&#45;&gt;Node2 -->
<g id="edge1" class="edge"><title>Node1&#45;&gt;Node2</title>
<path fill="none" stroke="midnightblue" d="M37.1196,-299.208C51.7216,-280.242 85.2508,-236.693 103.893,-212.479"/>
<polygon fill="midnightblue" stroke="midnightblue" points="106.698,-214.573 110.025,-204.515 101.151,-210.303 106.698,-214.573"/>
</g>
<!-- Node20 -->
<g id="node20" class="node"><title>Node20</title>
<g id="a_node20"><a xlink:href="main_8h.html#aecc83cd8bceb4bc24be844732ead2c2c" target="_top" xlink:title=" ">
<polygon fill="none" stroke="black" points="382,-399.455 382,-417.455 429,-417.455 429,-399.455 382,-399.455"/>
<text text-anchor="middle" x="405.5" y="-406.255" font-family="Calibri" font-size="9.00">set_ind</text>
</a>
</g>
</g>
<!-- Node1&#45;&gt;Node20 -->
<g id="edge48" class="edge"><title>Node1&#45;&gt;Node20</title>
<path fill="none" stroke="midnightblue" d="M58.1484,-315.972C126.244,-334.155 299.584,-380.44 371.968,-399.769"/>
<polygon fill="midnightblue" stroke="midnightblue" points="371.326,-403.22 381.891,-402.418 373.132,-396.457 371.326,-403.22"/>
</g>
<!-- Node3 -->
<g id="node3" class="node"><title>Node3</title>
<g id="a_node3"><a xlink:href="main_8h.html#ab37ca657b79c6b9176cb63e9d812a182" target="_top" xlink:title=" ">
<polygon fill="none" stroke="black" points="381,-96.4554 381,-114.455 430,-114.455 430,-96.4554 381,-96.4554"/>
<text text-anchor="middle" x="405.5" y="-103.255" font-family="Calibri" font-size="9.00">get_pwr</text>
</a>
</g>
</g>
<!-- Node2&#45;&gt;Node3 -->
<g id="edge2" class="edge"><title>Node2&#45;&gt;Node3</title>
<path fill="none" stroke="midnightblue" d="M142.364,-188.09C192.868,-172.17 312.368,-134.499 370.949,-116.032"/>
<polygon fill="midnightblue" stroke="midnightblue" points="372.328,-119.267 380.814,-112.922 370.224,-112.591 372.328,-119.267"/>
</g>
<!-- Node7 -->
<g id="node7" class="node"><title>Node7</title>
<g id="a_node7"><a xlink:href="main_8c.html#a4ae0d4fa97fc0ca3611813fee4f9af7c" target="_top" xlink:title=" ">
<polygon fill="none" stroke="black" points="376.5,-20.4554 376.5,-38.4554 434.5,-38.4554 434.5,-20.4554 376.5,-20.4554"/>
<text text-anchor="middle" x="405.5" y="-27.2554" font-family="Calibri" font-size="9.00">show_pwr</text>
</a>
</g>
</g>
<!-- Node2&#45;&gt;Node7 -->
<g id="edge6" class="edge"><title>Node2&#45;&gt;Node7</title>
<path fill="none" stroke="midnightblue" d="M126.095,-186.314C146.551,-160.665 208.629,-87.673 278,-53.4554 305.663,-39.8104 340.258,-33.9022 366.274,-31.3547"/>
<polygon fill="midnightblue" stroke="midnightblue" points="366.833,-34.8199 376.498,-30.4817 366.237,-27.8452 366.833,-34.8199"/>
</g>
<!-- Node16 -->
<g id="node16" class="node"><title>Node16</title>
<g id="a_node16"><a xlink:href="main_8c.html#a11724d8cce81ed96bec12a004ea3ea7a" target="_top" xlink:title=" ">
<polygon fill="none" stroke="black" points="178,-239.455 178,-257.455 242,-257.455 242,-239.455 178,-239.455"/>
<text text-anchor="middle" x="210" y="-246.255" font-family="Calibri" font-size="9.00">show_reset</text>
</a>
</g>
</g>
<!-- Node2&#45;&gt;Node16 -->
<g id="edge21" class="edge"><title>Node2&#45;&gt;Node16</title>
<path fill="none" stroke="midnightblue" d="M134.677,-204.687C148.486,-212.819 168.819,-224.793 184.729,-234.163"/>
<polygon fill="midnightblue" stroke="midnightblue" points="183.11,-237.271 193.503,-239.329 186.662,-231.239 183.11,-237.271"/>
</g>
<!-- Node4 -->
<g id="node4" class="node"><title>Node4</title>
<g id="a_node4"><a xlink:href="main_8h.html#ab19e6e081315a9a200394b74d10de395" target="_top" xlink:title=" ">
<polygon fill="none" stroke="black" points="481,-133.455 481,-151.455 538,-151.455 538,-133.455 481,-133.455"/>
<text text-anchor="middle" x="509.5" y="-140.255" font-family="Calibri" font-size="9.00">correction</text>
</a>
</g>
</g>
<!-- Node3&#45;&gt;Node4 -->
<g id="edge3" class="edge"><title>Node3&#45;&gt;Node4</title>
<path fill="none" stroke="midnightblue" d="M430.157,-114.037C443.163,-118.755 459.538,-124.695 473.95,-129.922"/>
<polygon fill="midnightblue" stroke="midnightblue" points="472.954,-133.284 483.548,-133.404 475.341,-126.704 472.954,-133.284"/>
</g>
<!-- Node5 -->
<g id="node5" class="node"><title>Node5</title>
<g id="a_node5"><a xlink:href="main_8h.html#acfd46f8711e9c1c20fffdfc8bdaa0ddd" target="_top" xlink:title=" ">
<polygon fill="none" stroke="black" points="477,-96.4554 477,-114.455 542,-114.455 542,-96.4554 477,-96.4554"/>
<text text-anchor="middle" x="509.5" y="-103.255" font-family="Calibri" font-size="9.00">get_forward</text>
</a>
</g>
</g>
<!-- Node3&#45;&gt;Node5 -->
<g id="edge4" class="edge"><title>Node3&#45;&gt;Node5</title>
<path fill="none" stroke="midnightblue" d="M430.157,-105.455C441.008,-105.455 454.203,-105.455 466.647,-105.455"/>
<polygon fill="midnightblue" stroke="midnightblue" points="466.855,-108.955 476.855,-105.455 466.855,-101.955 466.855,-108.955"/>
</g>
<!-- Node6 -->
<g id="node6" class="node"><title>Node6</title>
<g id="a_node6"><a xlink:href="main_8h.html#aa6b9a2b3d88f578ba6a9fefd911eae75" target="_top" xlink:title=" ">
<polygon fill="none" stroke="black" points="477.5,-59.4554 477.5,-77.4554 541.5,-77.4554 541.5,-59.4554 477.5,-59.4554"/>
<text text-anchor="middle" x="509.5" y="-66.2554" font-family="Calibri" font-size="9.00">get_reverse</text>
</a>
</g>
</g>
<!-- Node3&#45;&gt;Node6 -->
<g id="edge5" class="edge"><title>Node3&#45;&gt;Node6</title>
<path fill="none" stroke="midnightblue" d="M430.157,-96.8738C443.163,-92.1559 459.538,-86.2161 473.95,-80.9883"/>
<polygon fill="midnightblue" stroke="midnightblue" points="475.341,-84.2069 483.548,-77.5066 472.954,-77.6265 475.341,-84.2069"/>
</g>
<!-- Node8 -->
<g id="node8" class="node"><title>Node8</title>
<g id="a_node8"><a xlink:href="main_8c.html#a6911b3f075cdf1d54cb14f17f6e5ef6b" target="_top" xlink:title=" ">
<polygon fill="none" stroke="black" points="486,-22.4554 486,-40.4554 533,-40.4554 533,-22.4554 486,-22.4554"/>
<text text-anchor="middle" x="509.5" y="-29.2554" font-family="Calibri" font-size="9.00">lcd_ind</text>
</a>
</g>
</g>
<!-- Node7&#45;&gt;Node8 -->
<g id="edge7" class="edge"><title>Node7&#45;&gt;Node8</title>
<path fill="none" stroke="midnightblue" d="M434.642,-30.0072C447.391,-30.2572 462.543,-30.5542 475.795,-30.8141"/>
<polygon fill="midnightblue" stroke="midnightblue" points="475.866,-34.3161 485.933,-31.0129 476.004,-27.3174 475.866,-34.3161"/>
</g>
<!-- Node9 -->
<g id="node9" class="node"><title>Node9</title>
<g id="a_node9"><a xlink:href="oled__control_8c.html#a1c8eef09adf01c9a7e3c6188f25c3c48" target="_top" xlink:title=" ">
<polygon fill="none" stroke="black" points="578,-171.455 578,-189.455 637,-189.455 637,-171.455 578,-171.455"/>
<text text-anchor="middle" x="607.5" y="-178.255" font-family="Calibri" font-size="9.00">led_wr_str</text>
</a>
</g>
</g>
<!-- Node7&#45;&gt;Node9 -->
<g id="edge20" class="edge"><title>Node7&#45;&gt;Node9</title>
<path fill="none" stroke="midnightblue" d="M424.094,-20.3143C451.777,-7.33939 506.048,12.2526 542,-12.4554 591.72,-46.625 603.131,-124.834 605.737,-161.202"/>
<polygon fill="midnightblue" stroke="midnightblue" points="602.256,-161.643 606.311,-171.431 609.245,-161.251 602.256,-161.643"/>
</g>
<!-- Node8&#45;&gt;Node9 -->
<g id="edge8" class="edge"><title>Node8&#45;&gt;Node9</title>
<path fill="none" stroke="midnightblue" d="M530.456,-40.4654C534.613,-42.9646 538.721,-45.9678 542,-49.4554 573.287,-82.7323 592.484,-134.059 601.111,-161.544"/>
<polygon fill="midnightblue" stroke="midnightblue" points="597.853,-162.865 604.079,-171.437 604.558,-160.853 597.853,-162.865"/>
</g>
<!-- Node10 -->
<g id="node10" class="node"><title>Node10</title>
<g id="a_node10"><a xlink:href="oled__control_8c.html#a3d35666326cc069eda3b63c70983fdbc" target="_top" xlink:title=" ">
<polygon fill="none" stroke="black" points="787,-211.455 787,-229.455 842,-229.455 842,-211.455 787,-211.455"/>
<text text-anchor="middle" x="814.5" y="-218.255" font-family="Calibri" font-size="9.00">led_send</text>
</a>
</g>
</g>
<!-- Node9&#45;&gt;Node10 -->
<g id="edge9" class="edge"><title>Node9&#45;&gt;Node10</title>
<path fill="none" stroke="midnightblue" d="M637.218,-189.245C648.324,-192.439 661.184,-195.891 673,-198.455 708.027,-206.058 748.509,-212.113 776.996,-215.93"/>
<polygon fill="midnightblue" stroke="midnightblue" points="776.545,-219.401 786.916,-217.234 777.458,-212.461 776.545,-219.401"/>
</g>
<!-- Node14 -->
<g id="node14" class="node"><title>Node14</title>
<g id="a_node14"><a xlink:href="oled__control_8c.html#a6e85fd05697e2238e4d9babf1c952772" target="_top" xlink:title=" ">
<polygon fill="none" stroke="black" points="673,-171.455 673,-189.455 738,-189.455 738,-171.455 673,-171.455"/>
<text text-anchor="middle" x="705.5" y="-178.255" font-family="Calibri" font-size="9.00">oled_wr_str</text>
</a>
</g>
</g>
<!-- Node9&#45;&gt;Node14 -->
<g id="edge13" class="edge"><title>Node9&#45;&gt;Node14</title>
<path fill="none" stroke="midnightblue" d="M637.043,-180.455C645.147,-180.455 654.142,-180.455 662.852,-180.455"/>
<polygon fill="midnightblue" stroke="midnightblue" points="662.877,-183.955 672.877,-180.455 662.877,-176.955 662.877,-183.955"/>
</g>
<!-- Node11 -->
<g id="node11" class="node"><title>Node11</title>
<g id="a_node11"><a xlink:href="oled__control_8c.html#ab7f6b5c6c1483f6286f2de5786c028d9" target="_top" xlink:title=" ">
<polygon fill="none" stroke="black" points="893,-192.455 893,-210.455 965,-210.455 965,-192.455 893,-192.455"/>
<text text-anchor="middle" x="929" y="-199.255" font-family="Calibri" font-size="9.00">Soft_I2C_Start</text>
</a>
</g>
</g>
<!-- Node10&#45;&gt;Node11 -->
<g id="edge10" class="edge"><title>Node10&#45;&gt;Node11</title>
<path fill="none" stroke="midnightblue" d="M842.161,-215.953C854.173,-213.924 868.703,-211.47 882.365,-209.163"/>
<polygon fill="midnightblue" stroke="midnightblue" points="883.31,-212.553 892.588,-207.436 882.144,-205.65 883.31,-212.553"/>
</g>
<!-- Node12 -->
<g id="node12" class="node"><title>Node12</title>
<g id="a_node12"><a xlink:href="oled__control_8c.html#a16eb842aa672ca44820ae6d5f9933425" target="_top" xlink:title=" ">
<polygon fill="none" stroke="black" points="893.5,-248.455 893.5,-266.455 964.5,-266.455 964.5,-248.455 893.5,-248.455"/>
<text text-anchor="middle" x="929" y="-255.255" font-family="Calibri" font-size="9.00">Soft_I2C_Stop</text>
</a>
</g>
</g>
<!-- Node10&#45;&gt;Node12 -->
<g id="edge11" class="edge"><title>Node10&#45;&gt;Node12</title>
<path fill="none" stroke="midnightblue" d="M842.161,-229.224C856.689,-234.002 874.899,-239.991 890.804,-245.222"/>
<polygon fill="midnightblue" stroke="midnightblue" points="889.763,-248.564 900.356,-248.363 891.95,-241.914 889.763,-248.564"/>
</g>
<!-- Node13 -->
<g id="node13" class="node"><title>Node13</title>
<g id="a_node13"><a xlink:href="oled__control_8c.html#a73610916645f17c19124e697b005f694" target="_top" xlink:title=" ">
<polygon fill="none" stroke="black" points="891,-145.455 891,-163.455 967,-163.455 967,-145.455 891,-145.455"/>
<text text-anchor="middle" x="929" y="-152.255" font-family="Calibri" font-size="9.00">Soft_I2C_Write</text>
</a>
</g>
</g>
<!-- Node10&#45;&gt;Node13 -->
<g id="edge12" class="edge"><title>Node10&#45;&gt;Node13</title>
<path fill="none" stroke="midnightblue" d="M831.143,-211.278C849.949,-200.245 881.724,-181.604 903.726,-168.696"/>
<polygon fill="midnightblue" stroke="midnightblue" points="905.636,-171.633 912.49,-163.554 902.094,-165.596 905.636,-171.633"/>
</g>
<!-- Node14&#45;&gt;Node11 -->
<g id="edge17" class="edge"><title>Node14&#45;&gt;Node11</title>
<path fill="none" stroke="midnightblue" d="M738.236,-183.464C776.03,-187.047 839.441,-193.059 882.462,-197.138"/>
<polygon fill="midnightblue" stroke="midnightblue" points="882.376,-200.645 892.662,-198.105 883.037,-193.677 882.376,-200.645"/>
</g>
<!-- Node14&#45;&gt;Node12 -->
<g id="edge18" class="edge"><title>Node14&#45;&gt;Node12</title>
<path fill="none" stroke="midnightblue" d="M711.635,-189.774C724,-211.819 755.752,-266.036 774,-275.455 813.669,-295.932 866.571,-282.324 898.913,-270.199"/>
<polygon fill="midnightblue" stroke="midnightblue" points="900.229,-273.443 908.252,-266.523 897.665,-266.929 900.229,-273.443"/>
</g>
<!-- Node14&#45;&gt;Node13 -->
<g id="edge19" class="edge"><title>Node14&#45;&gt;Node13</title>
<path fill="none" stroke="midnightblue" d="M714.037,-171.203C725.408,-158.062 748.365,-134.577 774,-125.455 817.019,-110.148 869.824,-127.377 901.092,-141.059"/>
<polygon fill="midnightblue" stroke="midnightblue" points="899.897,-144.361 910.448,-145.331 902.805,-137.994 899.897,-144.361"/>
</g>
<!-- Node15 -->
<g id="node15" class="node"><title>Node15</title>
<g id="a_node15"><a xlink:href="oled__control_8c.html#a3cf32ac4d3d7c92be54c385c1ed8cc76" target="_top" xlink:title=" ">
<polygon fill="none" stroke="black" points="774.5,-135.455 774.5,-153.455 854.5,-153.455 854.5,-135.455 774.5,-135.455"/>
<text text-anchor="middle" x="814.5" y="-142.255" font-family="Calibri" font-size="9.00">set_addressing</text>
</a>
</g>
</g>
<!-- Node14&#45;&gt;Node15 -->
<g id="edge14" class="edge"><title>Node14&#45;&gt;Node15</title>
<path fill="none" stroke="midnightblue" d="M733.501,-171.371C746.68,-166.937 762.729,-161.537 776.984,-156.741"/>
<polygon fill="midnightblue" stroke="midnightblue" points="778.146,-160.043 786.508,-153.537 775.914,-153.408 778.146,-160.043"/>
</g>
<!-- Node15&#45;&gt;Node11 -->
<g id="edge15" class="edge"><title>Node15&#45;&gt;Node11</title>
<path fill="none" stroke="midnightblue" d="M833.326,-153.487C851.486,-162.688 879.881,-177.075 900.841,-187.695"/>
<polygon fill="midnightblue" stroke="midnightblue" points="899.383,-190.879 909.885,-192.277 902.546,-184.635 899.383,-190.879"/>
</g>
<!-- Node15&#45;&gt;Node13 -->
<g id="edge16" class="edge"><title>Node15&#45;&gt;Node13</title>
<path fill="none" stroke="midnightblue" d="M854.531,-147.925C863.015,-148.679 872.078,-149.485 880.838,-150.263"/>
<polygon fill="midnightblue" stroke="midnightblue" points="880.66,-153.761 890.931,-151.16 881.28,-146.789 880.66,-153.761"/>
</g>
<!-- Node16&#45;&gt;Node8 -->
<g id="edge28" class="edge"><title>Node16&#45;&gt;Node8</title>
<path fill="none" stroke="midnightblue" d="M217.879,-239.079C238.234,-211.924 301.067,-132.249 370,-86.4554 403.156,-64.4288 446.486,-49.0118 475.785,-40.2159"/>
<polygon fill="midnightblue" stroke="midnightblue" points="476.9,-43.5366 485.523,-37.3808 474.943,-36.8156 476.9,-43.5366"/>
</g>
<!-- Node16&#45;&gt;Node9 -->
<g id="edge46" class="edge"><title>Node16&#45;&gt;Node9</title>
<path fill="none" stroke="midnightblue" d="M215,-257.588C224.084,-277.634 247.84,-326.337 278,-359.455 330.852,-417.492 365.08,-447.4 441,-427.455 490.853,-414.359 509.106,-410.138 542,-370.455 584.928,-318.667 599.794,-236.902 604.507,-199.85"/>
<polygon fill="midnightblue" stroke="midnightblue" points="608.033,-199.821 605.703,-189.485 601.079,-199.018 608.033,-199.821"/>
</g>
<!-- Node17 -->
<g id="node17" class="node"><title>Node17</title>
<g id="a_node17"><a xlink:href="main_8h.html#a9dff326a6079fe726285b11ee837ad60" target="_top" xlink:title=" ">
<polygon fill="none" stroke="black" points="278,-332.455 278,-350.455 334,-350.455 334,-332.455 278,-332.455"/>
<text text-anchor="middle" x="306" y="-339.255" font-family="Calibri" font-size="9.00">atu_reset</text>
</a>
</g>
</g>
<!-- Node16&#45;&gt;Node17 -->
<g id="edge22" class="edge"><title>Node16&#45;&gt;Node17</title>
<path fill="none" stroke="midnightblue" d="M220.357,-257.713C236.263,-273.45 268.77,-305.611 288.547,-325.177"/>
<polygon fill="midnightblue" stroke="midnightblue" points="286.111,-327.691 295.681,-332.236 291.034,-322.714 286.111,-327.691"/>
</g>
<!-- Node21 -->
<g id="node21" class="node"><title>Node21</title>
<g id="a_node21"><a xlink:href="main_8c.html#ae5a14b4884e85f47ad8a4a716f13203a" target="_top" xlink:title=" ">
<polygon fill="none" stroke="black" points="282,-224.455 282,-242.455 330,-242.455 330,-224.455 282,-224.455"/>
<text text-anchor="middle" x="306" y="-231.255" font-family="Calibri" font-size="9.00">lcd_pwr</text>
</a>
</g>
</g>
<!-- Node16&#45;&gt;Node21 -->
<g id="edge29" class="edge"><title>Node16&#45;&gt;Node21</title>
<path fill="none" stroke="midnightblue" d="M242.04,-243.502C251.543,-241.986 262.035,-240.311 271.684,-238.772"/>
<polygon fill="midnightblue" stroke="midnightblue" points="272.413,-242.2 281.737,-237.168 271.31,-235.287 272.413,-242.2"/>
</g>
<!-- Node26 -->
<g id="node26" class="node"><title>Node26</title>
<g id="a_node26"><a xlink:href="main_8h.html#aa3ee146d5fca99f368e8ddb5d5dd72cb" target="_top" xlink:title="Set the state of the switch.">
<polygon fill="none" stroke="black" points="383,-286.455 383,-304.455 428,-304.455 428,-286.455 383,-286.455"/>
<text text-anchor="middle" x="405.5" y="-293.255" font-family="Calibri" font-size="9.00">set_sw</text>
</a>
</g>
</g>
<!-- Node16&#45;&gt;Node26 -->
<g id="edge47" class="edge"><title>Node16&#45;&gt;Node26</title>
<path fill="none" stroke="midnightblue" d="M242.089,-256.007C277.968,-264.722 336.659,-278.977 372.796,-287.755"/>
<polygon fill="midnightblue" stroke="midnightblue" points="372.251,-291.224 382.795,-290.183 373.903,-284.422 372.251,-291.224"/>
</g>
<!-- Node18 -->
<g id="node18" class="node"><title>Node18</title>
<g id="a_node18"><a xlink:href="main_8h.html#a85fb3ccca120f3b843a1dc7567908a04" target="_top" xlink:title=" ">
<polygon fill="none" stroke="black" points="481.5,-342.455 481.5,-360.455 537.5,-360.455 537.5,-342.455 481.5,-342.455"/>
<text text-anchor="middle" x="509.5" y="-349.255" font-family="Calibri" font-size="9.00">delay_ms</text>
</a>
</g>
</g>
<!-- Node17&#45;&gt;Node18 -->
<g id="edge23" class="edge"><title>Node17&#45;&gt;Node18</title>
<path fill="none" stroke="midnightblue" d="M334.201,-346.158C345.271,-347.858 358.211,-349.575 370,-350.455 404.233,-353.012 443.357,-353.029 471.271,-352.542"/>
<polygon fill="midnightblue" stroke="midnightblue" points="471.46,-356.039 481.386,-352.336 471.317,-349.041 471.46,-356.039"/>
</g>
<!-- Node19 -->
<g id="node19" class="node"><title>Node19</title>
<g id="a_node19"><a xlink:href="main_8h.html#a2a7963b9b09696c6654b96c67900c6ea" target="_top" xlink:title=" ">
<polygon fill="none" stroke="black" points="381.5,-323.455 381.5,-341.455 429.5,-341.455 429.5,-323.455 381.5,-323.455"/>
<text text-anchor="middle" x="405.5" y="-330.255" font-family="Calibri" font-size="9.00">set_cap</text>
</a>
</g>
</g>
<!-- Node17&#45;&gt;Node19 -->
<g id="edge24" class="edge"><title>Node17&#45;&gt;Node19</title>
<path fill="none" stroke="midnightblue" d="M334.159,-338.948C345.664,-337.886 359.18,-336.639 371.273,-335.522"/>
<polygon fill="midnightblue" stroke="midnightblue" points="371.812,-338.988 381.448,-334.583 371.168,-332.017 371.812,-338.988"/>
</g>
<!-- Node17&#45;&gt;Node20 -->
<g id="edge26" class="edge"><title>Node17&#45;&gt;Node20</title>
<path fill="none" stroke="midnightblue" d="M320.149,-350.491C336.214,-361.53 363.618,-380.362 382.82,-393.557"/>
<polygon fill="midnightblue" stroke="midnightblue" points="381.024,-396.57 391.248,-399.349 384.988,-390.801 381.024,-396.57"/>
</g>
<!-- Node19&#45;&gt;Node18 -->
<g id="edge25" class="edge"><title>Node19&#45;&gt;Node18</title>
<path fill="none" stroke="midnightblue" d="M429.645,-336.767C442.037,-339.075 457.594,-341.973 471.609,-344.583"/>
<polygon fill="midnightblue" stroke="midnightblue" points="471.001,-348.03 481.473,-346.421 472.283,-341.149 471.001,-348.03"/>
</g>
<!-- Node20&#45;&gt;Node18 -->
<g id="edge27" class="edge"><title>Node20&#45;&gt;Node18</title>
<path fill="none" stroke="midnightblue" d="M422.888,-399.297C439.171,-390.198 464.367,-376.118 483.216,-365.585"/>
<polygon fill="midnightblue" stroke="midnightblue" points="485.131,-368.524 492.153,-360.591 481.716,-362.414 485.131,-368.524"/>
</g>
<!-- Node21&#45;&gt;Node3 -->
<g id="edge37" class="edge"><title>Node21&#45;&gt;Node3</title>
<path fill="none" stroke="midnightblue" d="M310.961,-224.261C319.573,-205.018 341.537,-159.775 370,-129.455 373.034,-126.224 376.57,-123.174 380.201,-120.403"/>
<polygon fill="midnightblue" stroke="midnightblue" points="382.466,-123.089 388.648,-114.484 378.449,-117.356 382.466,-123.089"/>
</g>
<!-- Node21&#45;&gt;Node7 -->
<g id="edge45" class="edge"><title>Node21&#45;&gt;Node7</title>
<path fill="none" stroke="midnightblue" d="M310.408,-224.306C319.238,-200.892 343.989,-137.085 370,-86.4554 376.95,-72.9271 385.862,-58.2589 392.887,-47.1906"/>
<polygon fill="midnightblue" stroke="midnightblue" points="396.006,-48.812 398.478,-38.5096 390.121,-45.0217 396.006,-48.812"/>
</g>
<!-- Node21&#45;&gt;Node9 -->
<g id="edge40" class="edge"><title>Node21&#45;&gt;Node9</title>
<path fill="none" stroke="midnightblue" d="M311.709,-224.291C320.572,-208.185 341.443,-175.295 370,-162.455 387.529,-154.574 505.278,-167.762 567.744,-175.48"/>
<polygon fill="midnightblue" stroke="midnightblue" points="567.643,-178.994 578,-176.759 568.51,-172.048 567.643,-178.994"/>
</g>
<!-- Node21&#45;&gt;Node19 -->
<g id="edge41" class="edge"><title>Node21&#45;&gt;Node19</title>
<path fill="none" stroke="midnightblue" d="M312.452,-242.584C322.325,-258.536 344.522,-291.84 370,-313.455 371.779,-314.965 373.697,-316.41 375.685,-317.78"/>
<polygon fill="midnightblue" stroke="midnightblue" points="374.285,-321.028 384.637,-323.282 377.95,-315.064 374.285,-321.028"/>
</g>
<!-- Node21&#45;&gt;Node20 -->
<g id="edge42" class="edge"><title>Node21&#45;&gt;Node20</title>
<path fill="none" stroke="midnightblue" d="M311.77,-242.63C322.114,-262.455 347.491,-310.708 370,-350.455 377.668,-363.995 386.665,-379.097 393.549,-390.496"/>
<polygon fill="midnightblue" stroke="midnightblue" points="390.58,-392.349 398.758,-399.084 396.565,-388.719 390.58,-392.349"/>
</g>
<!-- Node22 -->
<g id="node22" class="node"><title>Node22</title>
<g id="a_node22"><a xlink:href="main_8c.html#a593218c5fe00b499d494826fc0aa5279" target="_top" xlink:title=" ">
<polygon fill="none" stroke="black" points="370,-172.455 370,-190.455 441,-190.455 441,-172.455 370,-172.455"/>
<text text-anchor="middle" x="405.5" y="-179.255" font-family="Calibri" font-size="9.00">button_delay</text>
</a>
</g>
</g>
<!-- Node21&#45;&gt;Node22 -->
<g id="edge30" class="edge"><title>Node21&#45;&gt;Node22</title>
<path fill="none" stroke="midnightblue" d="M323.983,-224.398C338.99,-216.394 361.112,-204.596 378.372,-195.391"/>
<polygon fill="midnightblue" stroke="midnightblue" points="380.208,-198.378 387.384,-190.584 376.914,-192.201 380.208,-198.378"/>
</g>
<!-- Node23 -->
<g id="node23" class="node"><title>Node23</title>
<g id="a_node23"><a xlink:href="oled__control_8c.html#a5febfdc847aa6f3bc3f3c8f7818b8699" target="_top" xlink:title=" ">
<polygon fill="none" stroke="black" points="674.5,-248.455 674.5,-266.455 736.5,-266.455 736.5,-248.455 674.5,-248.455"/>
<text text-anchor="middle" x="705.5" y="-255.255" font-family="Calibri" font-size="9.00">display_on</text>
</a>
</g>
</g>
<!-- Node21&#45;&gt;Node23 -->
<g id="edge31" class="edge"><title>Node21&#45;&gt;Node23</title>
<path fill="none" stroke="midnightblue" d="M330.29,-236.856C342.153,-238.475 356.82,-240.305 370,-241.455 475.945,-250.701 601.266,-254.903 664.185,-256.549"/>
<polygon fill="midnightblue" stroke="midnightblue" points="664.377,-260.054 674.462,-256.809 664.554,-253.057 664.377,-260.054"/>
</g>
<!-- Node25 -->
<g id="node25" class="node"><title>Node25</title>
<g id="a_node25"><a xlink:href="main_8c.html#aa8fd50019a763561abc6621bb224417f" target="_top" xlink:title=" ">
<polygon fill="none" stroke="black" points="486,-210.455 486,-228.455 533,-228.455 533,-210.455 486,-210.455"/>
<text text-anchor="middle" x="509.5" y="-217.255" font-family="Calibri" font-size="9.00">lcd_swr</text>
</a>
</g>
</g>
<!-- Node21&#45;&gt;Node25 -->
<g id="edge38" class="edge"><title>Node21&#45;&gt;Node25</title>
<path fill="none" stroke="midnightblue" d="M330.115,-231.849C365.966,-229.358 435.096,-224.555 475.971,-221.715"/>
<polygon fill="midnightblue" stroke="midnightblue" points="476.229,-225.206 485.963,-221.021 475.744,-218.223 476.229,-225.206"/>
</g>
<!-- Node21&#45;&gt;Node26 -->
<g id="edge43" class="edge"><title>Node21&#45;&gt;Node26</title>
<path fill="none" stroke="midnightblue" d="M321.386,-242.604C337.228,-252.677 362.92,-269.015 381.55,-280.862"/>
<polygon fill="midnightblue" stroke="midnightblue" points="379.738,-283.857 390.055,-286.27 383.494,-277.95 379.738,-283.857"/>
</g>
<!-- Node23&#45;&gt;Node10 -->
<g id="edge32" class="edge"><title>Node23&#45;&gt;Node10</title>
<path fill="none" stroke="midnightblue" d="M732.675,-248.404C746.147,-243.746 762.779,-237.994 777.447,-232.922"/>
<polygon fill="midnightblue" stroke="midnightblue" points="778.917,-236.117 787.224,-229.541 776.629,-229.502 778.917,-236.117"/>
</g>
<!-- Node24 -->
<g id="node24" class="node"><title>Node24</title>
<g id="a_node24"><a xlink:href="oled__control_8c.html#a78a346ba6e89c3140dd554a46e56c719" target="_top" xlink:title=" ">
<polygon fill="none" stroke="black" points="774,-248.455 774,-266.455 855,-266.455 855,-248.455 774,-248.455"/>
<text text-anchor="middle" x="814.5" y="-255.255" font-family="Calibri" font-size="9.00">send_command</text>
</a>
</g>
</g>
<!-- Node23&#45;&gt;Node24 -->
<g id="edge33" class="edge"><title>Node23&#45;&gt;Node24</title>
<path fill="none" stroke="midnightblue" d="M736.59,-257.455C744.944,-257.455 754.245,-257.455 763.413,-257.455"/>
<polygon fill="midnightblue" stroke="midnightblue" points="763.649,-260.955 773.649,-257.455 763.649,-253.955 763.649,-260.955"/>
</g>
<!-- Node24&#45;&gt;Node11 -->
<g id="edge34" class="edge"><title>Node24&#45;&gt;Node11</title>
<path fill="none" stroke="midnightblue" d="M834.425,-248.45C840.958,-245.316 848.313,-241.758 855,-238.455 870.423,-230.839 887.584,-222.151 901.391,-215.109"/>
<polygon fill="midnightblue" stroke="midnightblue" points="903.038,-218.198 910.35,-210.53 899.853,-211.965 903.038,-218.198"/>
</g>
<!-- Node24&#45;&gt;Node12 -->
<g id="edge35" class="edge"><title>Node24&#45;&gt;Node12</title>
<path fill="none" stroke="midnightblue" d="M855.163,-257.455C864.172,-257.455 873.804,-257.455 883.016,-257.455"/>
<polygon fill="midnightblue" stroke="midnightblue" points="883.182,-260.955 893.182,-257.455 883.182,-253.955 883.182,-260.955"/>
</g>
<!-- Node24&#45;&gt;Node13 -->
<g id="edge36" class="edge"><title>Node24&#45;&gt;Node13</title>
<path fill="none" stroke="midnightblue" d="M839.784,-248.374C845.149,-245.686 850.553,-242.387 855,-238.455 877.168,-218.859 870.893,-204.162 891,-182.455 895.278,-177.837 900.393,-173.428 905.435,-169.532"/>
<polygon fill="midnightblue" stroke="midnightblue" points="907.672,-172.233 913.69,-163.513 903.548,-166.577 907.672,-172.233"/>
</g>
<!-- Node25&#45;&gt;Node9 -->
<g id="edge39" class="edge"><title>Node25&#45;&gt;Node9</title>
<path fill="none" stroke="midnightblue" d="M532.766,-210.41C545.156,-205.376 560.795,-199.023 574.479,-193.464"/>
<polygon fill="midnightblue" stroke="midnightblue" points="576.075,-196.593 584.023,-189.587 573.441,-190.108 576.075,-196.593"/>
</g>
<!-- Node26&#45;&gt;Node18 -->
<g id="edge44" class="edge"><title>Node26&#45;&gt;Node18</title>
<path fill="none" stroke="midnightblue" d="M424.108,-304.505C429.544,-307.335 435.536,-310.493 441,-313.455 455.226,-321.168 470.991,-330.026 483.706,-337.248"/>
<polygon fill="midnightblue" stroke="midnightblue" points="482.337,-340.496 492.758,-342.406 485.802,-334.414 482.337,-340.496"/>
</g>
</g>
</svg>
