<?xml version="1.0" encoding="UTF-8" standalone="no"?>
<!DOCTYPE svg PUBLIC "-//W3C//DTD SVG 1.1//EN"
 "http://www.w3.org/Graphics/SVG/1.1/DTD/svg11.dtd">
<!-- Generated by graphviz version 2.38.0 (20140413.2041)
 -->
<!-- Title: get_swr Pages: 1 -->
<svg width="881pt" height="497pt"
 viewBox="0.00 0.00 881.00 496.78" xmlns="http://www.w3.org/2000/svg" xmlns:xlink="http://www.w3.org/1999/xlink">
<g id="graph0" class="graph" transform="scale(1 1) rotate(0) translate(4 492.778)">
<title>get_swr</title>
<!-- Node1 -->
<g id="node1" class="node"><title>Node1</title>
<g id="a_node1"><a xlink:title=" ">
<polygon fill="#bfbfbf" stroke="black" points="0,-358.278 0,-376.278 48,-376.278 48,-358.278 0,-358.278"/>
<text text-anchor="middle" x="24" y="-365.078" font-family="Calibri" font-size="9.00">get_swr</text>
</a>
</g>
</g>
<!-- Node2 -->
<g id="node2" class="node"><title>Node2</title>
<g id="a_node2"><a xlink:href="main_8h.html#ab37ca657b79c6b9176cb63e9d812a182" target="_top" xlink:title=" ">
<polygon fill="none" stroke="black" points="287,-396.278 287,-414.278 336,-414.278 336,-396.278 287,-396.278"/>
<text text-anchor="middle" x="311.5" y="-403.078" font-family="Calibri" font-size="9.00">get_pwr</text>
</a>
</g>
</g>
<!-- Node1&#45;&gt;Node2 -->
<g id="edge1" class="edge"><title>Node1&#45;&gt;Node2</title>
<path fill="none" stroke="midnightblue" d="M48.1182,-373.484C58.9484,-376.206 72.0664,-379.238 84,-381.278 151.877,-392.878 232.216,-399.802 276.655,-403.044"/>
<polygon fill="midnightblue" stroke="midnightblue" points="276.664,-406.553 286.887,-403.771 277.161,-399.571 276.664,-406.553"/>
</g>
<!-- Node6 -->
<g id="node6" class="node"><title>Node6</title>
<g id="a_node6"><a xlink:href="main_8c.html#a4ae0d4fa97fc0ca3611813fee4f9af7c" target="_top" xlink:title=" ">
<polygon fill="none" stroke="black" points="282.5,-358.278 282.5,-376.278 340.5,-376.278 340.5,-358.278 282.5,-358.278"/>
<text text-anchor="middle" x="311.5" y="-365.078" font-family="Calibri" font-size="9.00">show_pwr</text>
</a>
</g>
</g>
<!-- Node1&#45;&gt;Node6 -->
<g id="edge5" class="edge"><title>Node1&#45;&gt;Node6</title>
<path fill="none" stroke="midnightblue" d="M48.3637,-367.278C97.4858,-367.278 211.88,-367.278 272.006,-367.278"/>
<polygon fill="midnightblue" stroke="midnightblue" points="272.223,-370.778 282.223,-367.278 272.223,-363.778 272.223,-370.778"/>
</g>
<!-- Node15 -->
<g id="node15" class="node"><title>Node15</title>
<g id="a_node15"><a xlink:href="main_8c.html#a11724d8cce81ed96bec12a004ea3ea7a" target="_top" xlink:title=" ">
<polygon fill="none" stroke="black" points="84,-149.278 84,-167.278 148,-167.278 148,-149.278 84,-149.278"/>
<text text-anchor="middle" x="116" y="-156.078" font-family="Calibri" font-size="9.00">show_reset</text>
</a>
</g>
</g>
<!-- Node1&#45;&gt;Node15 -->
<g id="edge20" class="edge"><title>Node1&#45;&gt;Node15</title>
<path fill="none" stroke="midnightblue" d="M28.9833,-358.027C42.7486,-326.061 88.4809,-219.861 107.055,-176.727"/>
<polygon fill="midnightblue" stroke="midnightblue" points="110.322,-177.99 111.063,-167.421 103.893,-175.221 110.322,-177.99"/>
</g>
<!-- Node3 -->
<g id="node3" class="node"><title>Node3</title>
<g id="a_node3"><a xlink:href="main_8h.html#ab19e6e081315a9a200394b74d10de395" target="_top" xlink:title=" ">
<polygon fill="none" stroke="black" points="387,-433.278 387,-451.278 444,-451.278 444,-433.278 387,-433.278"/>
<text text-anchor="middle" x="415.5" y="-440.078" font-family="Calibri" font-size="9.00">correction</text>
</a>
</g>
</g>
<!-- Node2&#45;&gt;Node3 -->
<g id="edge2" class="edge"><title>Node2&#45;&gt;Node3</title>
<path fill="none" stroke="midnightblue" d="M336.157,-413.859C349.163,-418.577 365.538,-424.517 379.95,-429.745"/>
<polygon fill="midnightblue" stroke="midnightblue" points="378.954,-433.107 389.548,-433.226 381.341,-426.526 378.954,-433.107"/>
</g>
<!-- Node4 -->
<g id="node4" class="node"><title>Node4</title>
<g id="a_node4"><a xlink:href="main_8h.html#acfd46f8711e9c1c20fffdfc8bdaa0ddd" target="_top" xlink:title=" ">
<polygon fill="none" stroke="black" points="383,-396.278 383,-414.278 448,-414.278 448,-396.278 383,-396.278"/>
<text text-anchor="middle" x="415.5" y="-403.078" font-family="Calibri" font-size="9.00">get_forward</text>
</a>
</g>
</g>
<!-- Node2&#45;&gt;Node4 -->
<g id="edge3" class="edge"><title>Node2&#45;&gt;Node4</title>
<path fill="none" stroke="midnightblue" d="M336.157,-405.278C347.008,-405.278 360.203,-405.278 372.647,-405.278"/>
<polygon fill="midnightblue" stroke="midnightblue" points="372.855,-408.778 382.855,-405.278 372.855,-401.778 372.855,-408.778"/>
</g>
<!-- Node5 -->
<g id="node5" class="node"><title>Node5</title>
<g id="a_node5"><a xlink:href="main_8h.html#aa6b9a2b3d88f578ba6a9fefd911eae75" target="_top" xlink:title=" ">
<polygon fill="none" stroke="black" points="383.5,-470.278 383.5,-488.278 447.5,-488.278 447.5,-470.278 383.5,-470.278"/>
<text text-anchor="middle" x="415.5" y="-477.078" font-family="Calibri" font-size="9.00">get_reverse</text>
</a>
</g>
</g>
<!-- Node2&#45;&gt;Node5 -->
<g id="edge4" class="edge"><title>Node2&#45;&gt;Node5</title>
<path fill="none" stroke="midnightblue" d="M323.662,-414.664C337.303,-425.974 361.259,-445.319 383,-460.278 385.164,-461.766 387.445,-463.267 389.751,-464.738"/>
<polygon fill="midnightblue" stroke="midnightblue" points="388.215,-467.902 398.564,-470.169 391.887,-461.943 388.215,-467.902"/>
</g>
<!-- Node7 -->
<g id="node7" class="node"><title>Node7</title>
<g id="a_node7"><a xlink:href="main_8c.html#a6911b3f075cdf1d54cb14f17f6e5ef6b" target="_top" xlink:title=" ">
<polygon fill="none" stroke="black" points="392,-320.278 392,-338.278 439,-338.278 439,-320.278 392,-320.278"/>
<text text-anchor="middle" x="415.5" y="-327.078" font-family="Calibri" font-size="9.00">lcd_ind</text>
</a>
</g>
</g>
<!-- Node6&#45;&gt;Node7 -->
<g id="edge6" class="edge"><title>Node6&#45;&gt;Node7</title>
<path fill="none" stroke="midnightblue" d="M336.673,-358.272C350.266,-353.208 367.415,-346.819 382.153,-341.328"/>
<polygon fill="midnightblue" stroke="midnightblue" points="383.75,-344.469 391.898,-337.698 381.306,-337.909 383.75,-344.469"/>
</g>
<!-- Node8 -->
<g id="node8" class="node"><title>Node8</title>
<g id="a_node8"><a xlink:href="oled__control_8c.html#a1c8eef09adf01c9a7e3c6188f25c3c48" target="_top" xlink:title=" ">
<polygon fill="none" stroke="black" points="484,-258.278 484,-276.278 543,-276.278 543,-258.278 484,-258.278"/>
<text text-anchor="middle" x="513.5" y="-265.078" font-family="Calibri" font-size="9.00">led_wr_str</text>
</a>
</g>
</g>
<!-- Node6&#45;&gt;Node8 -->
<g id="edge19" class="edge"><title>Node6&#45;&gt;Node8</title>
<path fill="none" stroke="midnightblue" d="M340.631,-368.906C369.46,-369.31 414.661,-366.34 448,-347.278 473.338,-332.79 492.632,-304.148 503.26,-285.359"/>
<polygon fill="midnightblue" stroke="midnightblue" points="506.467,-286.785 508.135,-276.323 500.306,-283.462 506.467,-286.785"/>
</g>
<!-- Node7&#45;&gt;Node8 -->
<g id="edge7" class="edge"><title>Node7&#45;&gt;Node8</title>
<path fill="none" stroke="midnightblue" d="M430.665,-320.129C446.192,-310.101 471.33,-293.867 489.653,-282.033"/>
<polygon fill="midnightblue" stroke="midnightblue" points="491.775,-284.829 498.277,-276.463 487.977,-278.949 491.775,-284.829"/>
</g>
<!-- Node9 -->
<g id="node9" class="node"><title>Node9</title>
<g id="a_node9"><a xlink:href="oled__control_8c.html#a3d35666326cc069eda3b63c70983fdbc" target="_top" xlink:title=" ">
<polygon fill="none" stroke="black" points="693,-214.278 693,-232.278 748,-232.278 748,-214.278 693,-214.278"/>
<text text-anchor="middle" x="720.5" y="-221.078" font-family="Calibri" font-size="9.00">led_send</text>
</a>
</g>
</g>
<!-- Node8&#45;&gt;Node9 -->
<g id="edge8" class="edge"><title>Node8&#45;&gt;Node9</title>
<path fill="none" stroke="midnightblue" d="M542.577,-258.274C553.827,-254.859 566.955,-251.114 579,-248.278 614.009,-240.033 654.494,-233.1 682.986,-228.642"/>
<polygon fill="midnightblue" stroke="midnightblue" points="683.558,-232.095 692.908,-227.113 682.492,-225.177 683.558,-232.095"/>
</g>
<!-- Node13 -->
<g id="node13" class="node"><title>Node13</title>
<g id="a_node13"><a xlink:href="oled__control_8c.html#a6e85fd05697e2238e4d9babf1c952772" target="_top" xlink:title=" ">
<polygon fill="none" stroke="black" points="579,-258.278 579,-276.278 644,-276.278 644,-258.278 579,-258.278"/>
<text text-anchor="middle" x="611.5" y="-265.078" font-family="Calibri" font-size="9.00">oled_wr_str</text>
</a>
</g>
</g>
<!-- Node8&#45;&gt;Node13 -->
<g id="edge12" class="edge"><title>Node8&#45;&gt;Node13</title>
<path fill="none" stroke="midnightblue" d="M543.043,-267.278C551.147,-267.278 560.142,-267.278 568.852,-267.278"/>
<polygon fill="midnightblue" stroke="midnightblue" points="568.877,-270.778 578.877,-267.278 568.877,-263.778 568.877,-270.778"/>
</g>
<!-- Node10 -->
<g id="node10" class="node"><title>Node10</title>
<g id="a_node10"><a xlink:href="oled__control_8c.html#ab7f6b5c6c1483f6286f2de5786c028d9" target="_top" xlink:title=" ">
<polygon fill="none" stroke="black" points="799,-224.278 799,-242.278 871,-242.278 871,-224.278 799,-224.278"/>
<text text-anchor="middle" x="835" y="-231.078" font-family="Calibri" font-size="9.00">Soft_I2C_Start</text>
</a>
</g>
</g>
<!-- Node9&#45;&gt;Node10 -->
<g id="edge9" class="edge"><title>Node9&#45;&gt;Node10</title>
<path fill="none" stroke="midnightblue" d="M748.161,-225.647C760.173,-226.715 774.703,-228.007 788.365,-229.221"/>
<polygon fill="midnightblue" stroke="midnightblue" points="788.317,-232.731 798.588,-230.13 788.937,-225.758 788.317,-232.731"/>
</g>
<!-- Node11 -->
<g id="node11" class="node"><title>Node11</title>
<g id="a_node11"><a xlink:href="oled__control_8c.html#a16eb842aa672ca44820ae6d5f9933425" target="_top" xlink:title=" ">
<polygon fill="none" stroke="black" points="799.5,-177.278 799.5,-195.278 870.5,-195.278 870.5,-177.278 799.5,-177.278"/>
<text text-anchor="middle" x="835" y="-184.078" font-family="Calibri" font-size="9.00">Soft_I2C_Stop</text>
</a>
</g>
</g>
<!-- Node9&#45;&gt;Node11 -->
<g id="edge10" class="edge"><title>Node9&#45;&gt;Node11</title>
<path fill="none" stroke="midnightblue" d="M748.161,-214.509C762.689,-209.731 780.899,-203.742 796.804,-198.511"/>
<polygon fill="midnightblue" stroke="midnightblue" points="797.95,-201.819 806.356,-195.37 795.763,-195.169 797.95,-201.819"/>
</g>
<!-- Node12 -->
<g id="node12" class="node"><title>Node12</title>
<g id="a_node12"><a xlink:href="oled__control_8c.html#a73610916645f17c19124e697b005f694" target="_top" xlink:title=" ">
<polygon fill="none" stroke="black" points="797,-280.278 797,-298.278 873,-298.278 873,-280.278 797,-280.278"/>
<text text-anchor="middle" x="835" y="-287.078" font-family="Calibri" font-size="9.00">Soft_I2C_Write</text>
</a>
</g>
</g>
<!-- Node9&#45;&gt;Node12 -->
<g id="edge11" class="edge"><title>Node9&#45;&gt;Node12</title>
<path fill="none" stroke="midnightblue" d="M737.143,-232.455C755.949,-243.488 787.724,-262.129 809.726,-275.037"/>
<polygon fill="midnightblue" stroke="midnightblue" points="808.094,-278.137 818.49,-280.179 811.636,-272.1 808.094,-278.137"/>
</g>
<!-- Node13&#45;&gt;Node10 -->
<g id="edge16" class="edge"><title>Node13&#45;&gt;Node10</title>
<path fill="none" stroke="midnightblue" d="M644.236,-262.406C682.11,-256.593 745.71,-246.83 788.734,-240.226"/>
<polygon fill="midnightblue" stroke="midnightblue" points="789.308,-243.679 798.662,-238.702 788.246,-236.76 789.308,-243.679"/>
</g>
<!-- Node13&#45;&gt;Node11 -->
<g id="edge17" class="edge"><title>Node13&#45;&gt;Node11</title>
<path fill="none" stroke="midnightblue" d="M617.212,-258.152C629.162,-235.417 661.042,-177.354 680,-167.278 719.666,-146.195 772.997,-160.639 805.361,-173.273"/>
<polygon fill="midnightblue" stroke="midnightblue" points="804.113,-176.544 814.694,-177.094 806.766,-170.066 804.113,-176.544"/>
</g>
<!-- Node13&#45;&gt;Node12 -->
<g id="edge18" class="edge"><title>Node13&#45;&gt;Node12</title>
<path fill="none" stroke="midnightblue" d="M621.015,-276.518C632.862,-288.617 655.626,-309.233 680,-317.278 714.186,-328.56 725.602,-323.833 761,-317.278 776.681,-314.374 793.343,-308.238 806.784,-302.448"/>
<polygon fill="midnightblue" stroke="midnightblue" points="808.247,-305.628 815.942,-298.345 805.385,-299.24 808.247,-305.628"/>
</g>
<!-- Node14 -->
<g id="node14" class="node"><title>Node14</title>
<g id="a_node14"><a xlink:href="oled__control_8c.html#a3cf32ac4d3d7c92be54c385c1ed8cc76" target="_top" xlink:title=" ">
<polygon fill="none" stroke="black" points="680.5,-290.278 680.5,-308.278 760.5,-308.278 760.5,-290.278 680.5,-290.278"/>
<text text-anchor="middle" x="720.5" y="-297.078" font-family="Calibri" font-size="9.00">set_addressing</text>
</a>
</g>
</g>
<!-- Node13&#45;&gt;Node14 -->
<g id="edge13" class="edge"><title>Node13&#45;&gt;Node14</title>
<path fill="none" stroke="midnightblue" d="M642.876,-276.362C654.171,-279.74 667.169,-283.627 679.213,-287.229"/>
<polygon fill="midnightblue" stroke="midnightblue" points="678.465,-290.659 689.048,-290.171 680.47,-283.952 678.465,-290.659"/>
</g>
<!-- Node14&#45;&gt;Node10 -->
<g id="edge14" class="edge"><title>Node14&#45;&gt;Node10</title>
<path fill="none" stroke="midnightblue" d="M737.143,-290.101C755.949,-279.067 787.724,-260.426 809.726,-247.519"/>
<polygon fill="midnightblue" stroke="midnightblue" points="811.636,-250.456 818.49,-242.377 808.094,-244.418 811.636,-250.456"/>
</g>
<!-- Node14&#45;&gt;Node12 -->
<g id="edge15" class="edge"><title>Node14&#45;&gt;Node12</title>
<path fill="none" stroke="midnightblue" d="M760.531,-295.808C769.015,-295.054 778.078,-294.248 786.838,-293.47"/>
<polygon fill="midnightblue" stroke="midnightblue" points="787.28,-296.944 796.931,-292.573 786.66,-289.972 787.28,-296.944"/>
</g>
<!-- Node15&#45;&gt;Node7 -->
<g id="edge27" class="edge"><title>Node15&#45;&gt;Node7</title>
<path fill="none" stroke="midnightblue" d="M124.906,-167.52C146.478,-192.128 209.221,-259.719 276,-294.278 309.742,-311.739 352.695,-320.836 381.753,-325.326"/>
<polygon fill="midnightblue" stroke="midnightblue" points="381.389,-328.809 391.787,-326.778 382.392,-321.882 381.389,-328.809"/>
</g>
<!-- Node15&#45;&gt;Node8 -->
<g id="edge45" class="edge"><title>Node15&#45;&gt;Node8</title>
<path fill="none" stroke="midnightblue" d="M148.2,-161.251C208.203,-167.765 343.03,-186.29 448,-229.278 463.143,-235.479 478.993,-244.772 491.191,-252.616"/>
<polygon fill="midnightblue" stroke="midnightblue" points="489.461,-255.668 499.735,-258.256 493.318,-249.826 489.461,-255.668"/>
</g>
<!-- Node16 -->
<g id="node16" class="node"><title>Node16</title>
<g id="a_node16"><a xlink:href="main_8h.html#a9dff326a6079fe726285b11ee837ad60" target="_top" xlink:title=" ">
<polygon fill="none" stroke="black" points="184,-74.2776 184,-92.2776 240,-92.2776 240,-74.2776 184,-74.2776"/>
<text text-anchor="middle" x="212" y="-81.0776" font-family="Calibri" font-size="9.00">atu_reset</text>
</a>
</g>
</g>
<!-- Node15&#45;&gt;Node16 -->
<g id="edge21" class="edge"><title>Node15&#45;&gt;Node16</title>
<path fill="none" stroke="midnightblue" d="M128.526,-149.081C144.256,-136.531 172.661,-113.868 191.676,-98.6956"/>
<polygon fill="midnightblue" stroke="midnightblue" points="194.039,-101.288 199.673,-92.3151 189.673,-95.816 194.039,-101.288"/>
</g>
<!-- Node20 -->
<g id="node20" class="node"><title>Node20</title>
<g id="a_node20"><a xlink:href="main_8c.html#ae5a14b4884e85f47ad8a4a716f13203a" target="_top" xlink:title=" ">
<polygon fill="none" stroke="black" points="188,-187.278 188,-205.278 236,-205.278 236,-187.278 188,-187.278"/>
<text text-anchor="middle" x="212" y="-194.078" font-family="Calibri" font-size="9.00">lcd_pwr</text>
</a>
</g>
</g>
<!-- Node15&#45;&gt;Node20 -->
<g id="edge28" class="edge"><title>Node15&#45;&gt;Node20</title>
<path fill="none" stroke="midnightblue" d="M139.277,-167.283C151.131,-172.075 165.918,-178.053 178.981,-183.334"/>
<polygon fill="midnightblue" stroke="midnightblue" points="177.975,-186.702 188.557,-187.205 180.598,-180.212 177.975,-186.702"/>
</g>
<!-- Node25 -->
<g id="node25" class="node"><title>Node25</title>
<g id="a_node25"><a xlink:href="main_8h.html#aa3ee146d5fca99f368e8ddb5d5dd72cb" target="_top" xlink:title="Set the state of the switch.">
<polygon fill="none" stroke="black" points="289,-18.2776 289,-36.2776 334,-36.2776 334,-18.2776 289,-18.2776"/>
<text text-anchor="middle" x="311.5" y="-25.0776" font-family="Calibri" font-size="9.00">set_sw</text>
</a>
</g>
</g>
<!-- Node15&#45;&gt;Node25 -->
<g id="edge46" class="edge"><title>Node15&#45;&gt;Node25</title>
<path fill="none" stroke="midnightblue" d="M120.909,-149.246C129.493,-130.487 151.823,-87.1543 184,-64.2776 212.317,-44.1448 251.547,-34.878 278.781,-30.6701"/>
<polygon fill="midnightblue" stroke="midnightblue" points="279.521,-34.1007 288.939,-29.2482 278.551,-27.1683 279.521,-34.1007"/>
</g>
<!-- Node17 -->
<g id="node17" class="node"><title>Node17</title>
<g id="a_node17"><a xlink:href="main_8h.html#a85fb3ccca120f3b843a1dc7567908a04" target="_top" xlink:title=" ">
<polygon fill="none" stroke="black" points="387.5,-36.2776 387.5,-54.2776 443.5,-54.2776 443.5,-36.2776 387.5,-36.2776"/>
<text text-anchor="middle" x="415.5" y="-43.0776" font-family="Calibri" font-size="9.00">delay_ms</text>
</a>
</g>
</g>
<!-- Node16&#45;&gt;Node17 -->
<g id="edge22" class="edge"><title>Node16&#45;&gt;Node17</title>
<path fill="none" stroke="midnightblue" d="M217.295,-74.1446C225.765,-57.3604 246.406,-22.0682 276,-8.27764 304.603,5.05076 316.431,-0.448958 347,-8.27764 363.876,-12.5996 381.068,-22.1141 393.878,-30.4122"/>
<polygon fill="midnightblue" stroke="midnightblue" points="392.119,-33.4477 402.364,-36.1479 396.039,-27.6482 392.119,-33.4477"/>
</g>
<!-- Node18 -->
<g id="node18" class="node"><title>Node18</title>
<g id="a_node18"><a xlink:href="main_8h.html#a2a7963b9b09696c6654b96c67900c6ea" target="_top" xlink:title=" ">
<polygon fill="none" stroke="black" points="287.5,-55.2776 287.5,-73.2776 335.5,-73.2776 335.5,-55.2776 287.5,-55.2776"/>
<text text-anchor="middle" x="311.5" y="-62.0776" font-family="Calibri" font-size="9.00">set_cap</text>
</a>
</g>
</g>
<!-- Node16&#45;&gt;Node18 -->
<g id="edge23" class="edge"><title>Node16&#45;&gt;Node18</title>
<path fill="none" stroke="midnightblue" d="M240.159,-77.9851C251.664,-75.743 265.18,-73.1092 277.273,-70.7526"/>
<polygon fill="midnightblue" stroke="midnightblue" points="278.302,-74.118 287.448,-68.7698 276.963,-67.2473 278.302,-74.118"/>
</g>
<!-- Node19 -->
<g id="node19" class="node"><title>Node19</title>
<g id="a_node19"><a xlink:href="main_8h.html#aecc83cd8bceb4bc24be844732ead2c2c" target="_top" xlink:title=" ">
<polygon fill="none" stroke="black" points="288,-92.2776 288,-110.278 335,-110.278 335,-92.2776 288,-92.2776"/>
<text text-anchor="middle" x="311.5" y="-99.0776" font-family="Calibri" font-size="9.00">set_ind</text>
</a>
</g>
</g>
<!-- Node16&#45;&gt;Node19 -->
<g id="edge25" class="edge"><title>Node16&#45;&gt;Node19</title>
<path fill="none" stroke="midnightblue" d="M240.159,-88.2916C251.869,-90.4534 265.661,-92.9996 277.916,-95.2621"/>
<polygon fill="midnightblue" stroke="midnightblue" points="277.3,-98.7075 287.769,-97.0812 278.571,-91.8238 277.3,-98.7075"/>
</g>
<!-- Node18&#45;&gt;Node17 -->
<g id="edge24" class="edge"><title>Node18&#45;&gt;Node17</title>
<path fill="none" stroke="midnightblue" d="M335.645,-59.9662C348.037,-57.6579 363.594,-54.7601 377.609,-52.1495"/>
<polygon fill="midnightblue" stroke="midnightblue" points="378.283,-55.5842 387.473,-50.312 377.001,-48.7025 378.283,-55.5842"/>
</g>
<!-- Node19&#45;&gt;Node17 -->
<g id="edge26" class="edge"><title>Node19&#45;&gt;Node17</title>
<path fill="none" stroke="midnightblue" d="M329.343,-92.0304C345.608,-83.101 370.449,-69.4624 389.112,-59.2164"/>
<polygon fill="midnightblue" stroke="midnightblue" points="390.889,-62.2335 397.97,-54.3528 387.52,-56.0974 390.889,-62.2335"/>
</g>
<!-- Node20&#45;&gt;Node2 -->
<g id="edge36" class="edge"><title>Node20&#45;&gt;Node2</title>
<path fill="none" stroke="midnightblue" d="M213.797,-205.649C216.756,-235.249 229.471,-328.16 276,-385.278 277.457,-387.066 279.118,-388.727 280.907,-390.265"/>
<polygon fill="midnightblue" stroke="midnightblue" points="279.136,-393.299 289.321,-396.219 283.18,-387.585 279.136,-393.299"/>
</g>
<!-- Node20&#45;&gt;Node6 -->
<g id="edge44" class="edge"><title>Node20&#45;&gt;Node6</title>
<path fill="none" stroke="midnightblue" d="M218.242,-205.471C233.716,-232.611 279.407,-312.746 300.103,-349.044"/>
<polygon fill="midnightblue" stroke="midnightblue" points="297.238,-351.085 305.232,-358.038 303.319,-347.618 297.238,-351.085"/>
</g>
<!-- Node20&#45;&gt;Node8 -->
<g id="edge39" class="edge"><title>Node20&#45;&gt;Node8</title>
<path fill="none" stroke="midnightblue" d="M217.295,-205.411C225.765,-222.195 246.406,-257.487 276,-271.278 340.288,-301.235 425.479,-288.949 474.106,-277.784"/>
<polygon fill="midnightblue" stroke="midnightblue" points="474.998,-281.17 483.906,-275.435 473.366,-274.363 474.998,-281.17"/>
</g>
<!-- Node20&#45;&gt;Node18 -->
<g id="edge40" class="edge"><title>Node20&#45;&gt;Node18</title>
<path fill="none" stroke="midnightblue" d="M215.971,-187.149C223.188,-166.199 243.478,-114.029 276,-82.2776 277.23,-81.0771 278.556,-79.9375 279.946,-78.8584"/>
<polygon fill="midnightblue" stroke="midnightblue" points="281.943,-81.735 288.406,-73.3396 278.118,-75.8724 281.943,-81.735"/>
</g>
<!-- Node20&#45;&gt;Node19 -->
<g id="edge41" class="edge"><title>Node20&#45;&gt;Node19</title>
<path fill="none" stroke="midnightblue" d="M222.349,-187.169C238.759,-171.179 272.961,-137.855 293.605,-117.739"/>
<polygon fill="midnightblue" stroke="midnightblue" points="296.317,-119.984 301.036,-110.499 291.431,-114.971 296.317,-119.984"/>
</g>
<!-- Node21 -->
<g id="node21" class="node"><title>Node21</title>
<g id="a_node21"><a xlink:href="main_8c.html#a593218c5fe00b499d494826fc0aa5279" target="_top" xlink:title=" ">
<polygon fill="none" stroke="black" points="276,-244.278 276,-262.278 347,-262.278 347,-244.278 276,-244.278"/>
<text text-anchor="middle" x="311.5" y="-251.078" font-family="Calibri" font-size="9.00">button_delay</text>
</a>
</g>
</g>
<!-- Node20&#45;&gt;Node21 -->
<g id="edge29" class="edge"><title>Node20&#45;&gt;Node21</title>
<path fill="none" stroke="midnightblue" d="M228.665,-205.436C244.159,-214.494 268.095,-228.487 286.085,-239.004"/>
<polygon fill="midnightblue" stroke="midnightblue" points="284.474,-242.117 294.874,-244.142 288.007,-236.074 284.474,-242.117"/>
</g>
<!-- Node22 -->
<g id="node22" class="node"><title>Node22</title>
<g id="a_node22"><a xlink:href="oled__control_8c.html#a5febfdc847aa6f3bc3f3c8f7818b8699" target="_top" xlink:title=" ">
<polygon fill="none" stroke="black" points="580.5,-177.278 580.5,-195.278 642.5,-195.278 642.5,-177.278 580.5,-177.278"/>
<text text-anchor="middle" x="611.5" y="-184.078" font-family="Calibri" font-size="9.00">display_on</text>
</a>
</g>
</g>
<!-- Node20&#45;&gt;Node22 -->
<g id="edge30" class="edge"><title>Node20&#45;&gt;Node22</title>
<path fill="none" stroke="midnightblue" d="M236.089,-195.697C301.331,-194.055 487.654,-189.368 570.245,-187.29"/>
<polygon fill="midnightblue" stroke="midnightblue" points="570.58,-190.783 580.489,-187.033 570.404,-183.785 570.58,-190.783"/>
</g>
<!-- Node24 -->
<g id="node24" class="node"><title>Node24</title>
<g id="a_node24"><a xlink:href="main_8c.html#aa8fd50019a763561abc6621bb224417f" target="_top" xlink:title=" ">
<polygon fill="none" stroke="black" points="392,-239.278 392,-257.278 439,-257.278 439,-239.278 392,-239.278"/>
<text text-anchor="middle" x="415.5" y="-246.078" font-family="Calibri" font-size="9.00">lcd_swr</text>
</a>
</g>
</g>
<!-- Node20&#45;&gt;Node24 -->
<g id="edge37" class="edge"><title>Node20&#45;&gt;Node24</title>
<path fill="none" stroke="midnightblue" d="M236.115,-202.243C272.042,-211.514 341.389,-229.41 382.231,-239.95"/>
<polygon fill="midnightblue" stroke="midnightblue" points="381.405,-243.352 391.963,-242.462 383.155,-236.574 381.405,-243.352"/>
</g>
<!-- Node20&#45;&gt;Node25 -->
<g id="edge42" class="edge"><title>Node20&#45;&gt;Node25</title>
<path fill="none" stroke="midnightblue" d="M214.6,-186.933C219.428,-161.284 236.048,-88.8057 276,-45.2776 277.336,-43.8218 278.817,-42.4637 280.393,-41.1999"/>
<polygon fill="midnightblue" stroke="midnightblue" points="282.395,-44.0728 288.825,-35.6522 278.547,-38.225 282.395,-44.0728"/>
</g>
<!-- Node22&#45;&gt;Node9 -->
<g id="edge31" class="edge"><title>Node22&#45;&gt;Node9</title>
<path fill="none" stroke="midnightblue" d="M638.675,-195.329C652.147,-199.987 668.779,-205.739 683.447,-210.811"/>
<polygon fill="midnightblue" stroke="midnightblue" points="682.629,-214.231 693.224,-214.192 684.917,-207.616 682.629,-214.231"/>
</g>
<!-- Node23 -->
<g id="node23" class="node"><title>Node23</title>
<g id="a_node23"><a xlink:href="oled__control_8c.html#a78a346ba6e89c3140dd554a46e56c719" target="_top" xlink:title=" ">
<polygon fill="none" stroke="black" points="680,-177.278 680,-195.278 761,-195.278 761,-177.278 680,-177.278"/>
<text text-anchor="middle" x="720.5" y="-184.078" font-family="Calibri" font-size="9.00">send_command</text>
</a>
</g>
</g>
<!-- Node22&#45;&gt;Node23 -->
<g id="edge32" class="edge"><title>Node22&#45;&gt;Node23</title>
<path fill="none" stroke="midnightblue" d="M642.59,-186.278C650.944,-186.278 660.245,-186.278 669.413,-186.278"/>
<polygon fill="midnightblue" stroke="midnightblue" points="669.649,-189.778 679.649,-186.278 669.649,-182.778 669.649,-189.778"/>
</g>
<!-- Node23&#45;&gt;Node10 -->
<g id="edge33" class="edge"><title>Node23&#45;&gt;Node10</title>
<path fill="none" stroke="midnightblue" d="M743.191,-195.34C760.155,-202.427 783.966,-212.375 802.95,-220.306"/>
<polygon fill="midnightblue" stroke="midnightblue" points="801.799,-223.618 812.375,-224.243 804.498,-217.159 801.799,-223.618"/>
</g>
<!-- Node23&#45;&gt;Node11 -->
<g id="edge34" class="edge"><title>Node23&#45;&gt;Node11</title>
<path fill="none" stroke="midnightblue" d="M761.163,-186.278C770.172,-186.278 779.804,-186.278 789.016,-186.278"/>
<polygon fill="midnightblue" stroke="midnightblue" points="789.182,-189.778 799.182,-186.278 789.182,-182.778 789.182,-189.778"/>
</g>
<!-- Node23&#45;&gt;Node12 -->
<g id="edge35" class="edge"><title>Node23&#45;&gt;Node12</title>
<path fill="none" stroke="midnightblue" d="M746.391,-195.368C751.496,-197.835 756.637,-200.804 761,-204.278 781.585,-220.666 779.792,-231.372 797,-251.278 803.406,-258.688 810.877,-266.501 817.421,-273.102"/>
<polygon fill="midnightblue" stroke="midnightblue" points="815,-275.631 824.559,-280.199 819.935,-270.666 815,-275.631"/>
</g>
<!-- Node24&#45;&gt;Node8 -->
<g id="edge38" class="edge"><title>Node24&#45;&gt;Node8</title>
<path fill="none" stroke="midnightblue" d="M439.251,-252.78C449.543,-254.817 462,-257.283 473.7,-259.598"/>
<polygon fill="midnightblue" stroke="midnightblue" points="473.224,-263.072 483.713,-261.58 474.583,-256.205 473.224,-263.072"/>
</g>
<!-- Node25&#45;&gt;Node17 -->
<g id="edge43" class="edge"><title>Node25&#45;&gt;Node17</title>
<path fill="none" stroke="midnightblue" d="M334.132,-31.095C346.649,-33.3039 362.746,-36.1447 377.243,-38.7029"/>
<polygon fill="midnightblue" stroke="midnightblue" points="376.986,-42.2115 387.442,-40.5027 378.202,-35.318 376.986,-42.2115"/>
</g>
</g>
</svg>
