<?xml version="1.0" encoding="UTF-8" standalone="no"?>
<!DOCTYPE svg PUBLIC "-//W3C//DTD SVG 1.1//EN"
 "http://www.w3.org/Graphics/SVG/1.1/DTD/svg11.dtd">
<!-- Generated by graphviz version 2.38.0 (20140413.2041)
 -->
<!-- Title: lcd_ind Pages: 1 -->
<!--zoomable 606 -->
<svg id="main" version="1.1" xmlns="http://www.w3.org/2000/svg" xmlns:xlink="http://www.w3.org/1999/xlink" xml:space="preserve" onload="init(evt)">
<style type="text/css"><![CDATA[
.edge:hover path { stroke: red; }
.edge:hover polygon { stroke: red; fill: red; }
]]></style>
<script type="text/javascript"><![CDATA[
var edges = document.getElementsByTagName('g');
if (edges && edges.length) {
  for (var i=0;i<edges.length;i++) {
    if (edges[i].id.substr(0,4)=='edge') {
      edges[i].setAttribute('class','edge');
    }
  }
}
]]></script>
        <defs>
                <circle id="rim" cx="0" cy="0" r="7"/>
                <circle id="rim2" cx="0" cy="0" r="3.5"/>
                <g id="zoomPlus">
                        <use xlink:href="#rim" fill="#404040">
                                <set attributeName="fill" to="#808080" begin="zoomplus.mouseover" end="zoomplus.mouseout"/>
                        </use>
                        <path d="M-4,0h8M0,-4v8" fill="none" stroke="white" stroke-width="1.5" pointer-events="none"/>
                </g>
                <g id="zoomMin">
                        <use xlink:href="#rim" fill="#404040">
                                <set attributeName="fill" to="#808080" begin="zoomminus.mouseover" end="zoomminus.mouseout"/>
                        </use>
                        <path d="M-4,0h8" fill="none" stroke="white" stroke-width="1.5" pointer-events="none"/>
                </g>
                <g id="dirArrow">
                        <path fill="none" stroke="white" stroke-width="1.5" d="M0,-3.0v7 M-2.5,-0.5L0,-3.0L2.5,-0.5"/>
                </g>
               <g id="resetDef">
                       <use xlink:href="#rim2" fill="#404040">
                               <set attributeName="fill" to="#808080" begin="reset.mouseover" end="reset.mouseout"/>
                       </use>
               </g>
        </defs>

<script type="text/javascript">
var viewWidth = 1068;
var viewHeight = 606;
var sectionId = 'dynsection-10';
</script>
<script xlink:href="svgpan.js"/>
<svg id="graph" class="graph">
<g id="viewport">
<title>lcd_ind</title>
<!-- Node1 -->
<g id="node1" class="node"><title>Node1</title>
<g id="a_node1"><a xlink:title=" ">
<polygon fill="#bfbfbf" stroke="black" points="1013,-360.575 1013,-378.575 1060,-378.575 1060,-360.575 1013,-360.575"/>
<text text-anchor="middle" x="1036.5" y="-367.375" font-family="Calibri" font-size="9.00">lcd_ind</text>
</a>
</g>
</g>
<!-- Node2 -->
<g id="node2" class="node"><title>Node2</title>
<g id="a_node2"><a xlink:href="main_8c.html#af18ed7edda7874a97cacaa11a2759260" target="_top" xlink:title=" ">
<polygon fill="none" stroke="black" points="175,-351.575 175,-369.575 230,-369.575 230,-351.575 175,-351.575"/>
<text text-anchor="middle" x="202.5" y="-358.375" font-family="Calibri" font-size="9.00">btn_push</text>
</a>
</g>
</g>
<!-- Node1&#45;&gt;Node2 -->
<g id="edge1" class="edge"><title>Node1&#45;&gt;Node2</title>
<path fill="none" stroke="midnightblue" d="M1025.89,-387.627C1002.98,-427.901 941.006,-521.575 860,-521.575 860,-521.575 860,-521.575 363.5,-521.575 277.199,-521.575 221.461,-403.751 207.152,-369.692"/>
<polygon fill="midnightblue" stroke="midnightblue" points="1029.09,-389.074 1030.86,-378.628 1022.96,-385.69 1029.09,-389.074"/>
</g>
<!-- Node3 -->
<g id="node3" class="node"><title>Node3</title>
<g id="a_node3"><a xlink:href="main_8c.html#a1c9e5d54d8cf7f3d041aa2e0b330b3dd" target="_top" xlink:title="Handle the process of the buttons being pressed.">
<polygon fill="none" stroke="black" points="74,-351.575 74,-369.575 139,-369.575 139,-351.575 74,-351.575"/>
<text text-anchor="middle" x="106.5" y="-358.375" font-family="Calibri" font-size="9.00">button_proc</text>
</a>
</g>
</g>
<!-- Node1&#45;&gt;Node3 -->
<g id="edge4" class="edge"><title>Node1&#45;&gt;Node3</title>
<path fill="none" stroke="midnightblue" d="M1030.75,-388.585C1023.26,-415.288 1006.42,-464.148 977,-495.575 936.492,-538.843 919.271,-559.575 860,-559.575 860,-559.575 860,-559.575 282.5,-559.575 179.904,-559.575 123.259,-408.573 110.36,-369.643"/>
<polygon fill="midnightblue" stroke="midnightblue" points="1034.22,-389.177 1033.4,-378.613 1027.45,-387.379 1034.22,-389.177"/>
</g>
<!-- Node4 -->
<g id="node4" class="node"><title>Node4</title>
<g id="a_node4"><a xlink:href="main_8c.html#acdef7a1fd863a6d3770c1268cb06add3" target="_top" xlink:title=" ">
<polygon fill="none" stroke="black" points="0,-75.5749 0,-93.5749 38,-93.5749 38,-75.5749 0,-75.5749"/>
<text text-anchor="middle" x="19" y="-82.3749" font-family="Calibri" font-size="9.00">main</text>
</a>
</g>
</g>
<!-- Node1&#45;&gt;Node4 -->
<g id="edge11" class="edge"><title>Node1&#45;&gt;Node4</title>
<path fill="none" stroke="midnightblue" d="M1033.3,-388.879C1028.58,-422.38 1014.65,-491.88 977,-535.575 938.588,-580.16 918.85,-597.575 860,-597.575 860,-597.575 860,-597.575 201.5,-597.575 88.8728,-597.575 113.089,-484.201 74,-378.575 34.376,-271.501 22.9754,-131.334 20.5525,-94.0293"/>
<polygon fill="midnightblue" stroke="midnightblue" points="1036.82,-388.995 1034.61,-378.631 1029.87,-388.107 1036.82,-388.995"/>
</g>
<!-- Node5 -->
<g id="node5" class="node"><title>Node5</title>
<g id="a_node5"><a xlink:href="main_8c.html#ac445892220ccb3b4b337dd3e764bd6c6" target="_top" xlink:title="Handle the process of the buttons being pressed (in test mode)">
<polygon fill="none" stroke="black" points="713,-56.5749 713,-74.5749 799,-74.5749 799,-56.5749 713,-56.5749"/>
<text text-anchor="middle" x="756" y="-63.3749" font-family="Calibri" font-size="9.00">button_proc_test</text>
</a>
</g>
</g>
<!-- Node1&#45;&gt;Node5 -->
<g id="edge5" class="edge"><title>Node1&#45;&gt;Node5</title>
<path fill="none" stroke="midnightblue" d="M1034.14,-350.013C1030.66,-313.395 1018.49,-233.687 977,-183.575 927.106,-123.319 838.201,-89.3713 790.1,-74.5885"/>
<polygon fill="midnightblue" stroke="midnightblue" points="1030.68,-350.619 1035,-360.295 1037.66,-350.04 1030.68,-350.619"/>
</g>
<!-- Node6 -->
<g id="node6" class="node"><title>Node6</title>
<g id="a_node6"><a xlink:href="main_8c.html#a46f52cccc77b5d2d91f35334046bc8eb" target="_top" xlink:title=" ">
<polygon fill="none" stroke="black" points="176.5,-18.5749 176.5,-36.5749 228.5,-36.5749 228.5,-18.5749 176.5,-18.5749"/>
<text text-anchor="middle" x="202.5" y="-25.3749" font-family="Calibri" font-size="9.00">lcd_prep</text>
</a>
</g>
</g>
<!-- Node1&#45;&gt;Node6 -->
<g id="edge7" class="edge"><title>Node1&#45;&gt;Node6</title>
<path fill="none" stroke="midnightblue" d="M1034.71,-350.027C1030.64,-277.445 1006.03,-27.5749 860,-27.5749 860,-27.5749 860,-27.5749 363.5,-27.5749 315.861,-27.5749 260.244,-27.5749 228.718,-27.5749"/>
<polygon fill="midnightblue" stroke="midnightblue" points="1031.23,-350.609 1035.22,-360.427 1038.23,-350.269 1031.23,-350.609"/>
</g>
<!-- Node8 -->
<g id="node8" class="node"><title>Node8</title>
<g id="a_node8"><a xlink:href="main_8c.html#a4ae0d4fa97fc0ca3611813fee4f9af7c" target="_top" xlink:title=" ">
<polygon fill="none" stroke="black" points="919,-284.575 919,-302.575 977,-302.575 977,-284.575 919,-284.575"/>
<text text-anchor="middle" x="948" y="-291.375" font-family="Calibri" font-size="9.00">show_pwr</text>
</a>
</g>
</g>
<!-- Node1&#45;&gt;Node8 -->
<g id="edge12" class="edge"><title>Node1&#45;&gt;Node8</title>
<path fill="none" stroke="midnightblue" d="M1017.35,-353.629C999.71,-338.13 973.548,-315.143 959.249,-302.58"/>
<polygon fill="midnightblue" stroke="midnightblue" points="1015.42,-356.587 1025.24,-360.558 1020.04,-351.328 1015.42,-356.587"/>
</g>
<!-- Node13 -->
<g id="node13" class="node"><title>Node13</title>
<g id="a_node13"><a xlink:href="main_8h.html#a1849f2e5bd63d11a7b9549470e287d17" target="_top" xlink:title=" ">
<polygon fill="none" stroke="black" points="266,-351.575 266,-369.575 301,-369.575 301,-351.575 266,-351.575"/>
<text text-anchor="middle" x="283.5" y="-358.375" font-family="Calibri" font-size="9.00">tune</text>
</a>
</g>
</g>
<!-- Node1&#45;&gt;Node13 -->
<g id="edge37" class="edge"><title>Node1&#45;&gt;Node13</title>
<path fill="none" stroke="midnightblue" d="M1015.62,-384.611C984.293,-406.764 920.742,-445.575 860,-445.575 860,-445.575 860,-445.575 460.5,-445.575 391.278,-445.575 320.617,-391.599 294.767,-369.671"/>
<polygon fill="midnightblue" stroke="midnightblue" points="1017.88,-387.296 1023.92,-378.592 1013.77,-381.629 1017.88,-387.296"/>
</g>
<!-- Node17 -->
<g id="node17" class="node"><title>Node17</title>
<g id="a_node17"><a xlink:href="main_8c.html#a11724d8cce81ed96bec12a004ea3ea7a" target="_top" xlink:title=" ">
<polygon fill="none" stroke="black" points="724,-132.575 724,-150.575 788,-150.575 788,-132.575 724,-132.575"/>
<text text-anchor="middle" x="756" y="-139.375" font-family="Calibri" font-size="9.00">show_reset</text>
</a>
</g>
</g>
<!-- Node1&#45;&gt;Node17 -->
<g id="edge36" class="edge"><title>Node1&#45;&gt;Node17</title>
<path fill="none" stroke="midnightblue" d="M1028.28,-350.922C1010.75,-308.508 961.54,-205.072 883,-160.575 853.743,-143.999 814.809,-140.409 788.003,-140.228"/>
<polygon fill="midnightblue" stroke="midnightblue" points="1025.07,-352.341 1032.05,-360.317 1031.57,-349.733 1025.07,-352.341"/>
</g>
<!-- Node2&#45;&gt;Node3 -->
<g id="edge2" class="edge"><title>Node2&#45;&gt;Node3</title>
<path fill="none" stroke="midnightblue" d="M164.545,-360.575C156.183,-360.575 147.376,-360.575 139.25,-360.575"/>
<polygon fill="midnightblue" stroke="midnightblue" points="164.815,-364.075 174.815,-360.575 164.815,-357.075 164.815,-364.075"/>
</g>
<!-- Node3&#45;&gt;Node4 -->
<g id="edge3" class="edge"><title>Node3&#45;&gt;Node4</title>
<path fill="none" stroke="midnightblue" d="M99.6536,-341.702C82.8847,-287.571 35.0478,-133.15 22.8554,-93.7924"/>
<polygon fill="midnightblue" stroke="midnightblue" points="96.3528,-342.875 102.655,-351.392 103.039,-340.804 96.3528,-342.875"/>
</g>
<!-- Node5&#45;&gt;Node4 -->
<g id="edge6" class="edge"><title>Node5&#45;&gt;Node4</title>
<path fill="none" stroke="midnightblue" d="M702.211,-65.5749C663.641,-65.5749 610.074,-65.5749 563,-65.5749 563,-65.5749 563,-65.5749 201.5,-65.5749 141.461,-65.5749 70.8557,-75.9859 38.2251,-81.3947"/>
<polygon fill="midnightblue" stroke="midnightblue" points="702.674,-69.075 712.674,-65.5749 702.674,-62.075 702.674,-69.075"/>
</g>
<!-- Node6&#45;&gt;Node4 -->
<g id="edge8" class="edge"><title>Node6&#45;&gt;Node4</title>
<path fill="none" stroke="midnightblue" d="M174.289,-14.5152C147.366,-3.59532 105.704,7.79043 74,-8.57488 46.3851,-22.8296 29.8176,-58.4522 23.2597,-75.3726"/>
<polygon fill="midnightblue" stroke="midnightblue" points="172.926,-17.7387 183.496,-18.465 175.686,-11.3057 172.926,-17.7387"/>
</g>
<!-- Node7 -->
<g id="node7" class="node"><title>Node7</title>
<g id="a_node7"><a xlink:href="main_8c.html#a7a367b10f22edd310a36627b6c941255" target="_top" xlink:title=" ">
<polygon fill="none" stroke="black" points="81,-18.5749 81,-36.5749 132,-36.5749 132,-18.5749 81,-18.5749"/>
<text text-anchor="middle" x="106.5" y="-25.3749" font-family="Calibri" font-size="9.00">test_init</text>
</a>
</g>
</g>
<!-- Node6&#45;&gt;Node7 -->
<g id="edge9" class="edge"><title>Node6&#45;&gt;Node7</title>
<path fill="none" stroke="midnightblue" d="M166.233,-27.5749C154.871,-27.5749 142.532,-27.5749 132.109,-27.5749"/>
<polygon fill="midnightblue" stroke="midnightblue" points="166.31,-31.075 176.31,-27.5749 166.31,-24.075 166.31,-31.075"/>
</g>
<!-- Node7&#45;&gt;Node4 -->
<g id="edge10" class="edge"><title>Node7&#45;&gt;Node4</title>
<path fill="none" stroke="midnightblue" d="M83.1759,-42.4576C67.4978,-52.9097 47.0284,-66.556 33.703,-75.4396"/>
<polygon fill="midnightblue" stroke="midnightblue" points="85.3839,-45.1921 91.7629,-36.7329 81.501,-39.3678 85.3839,-45.1921"/>
</g>
<!-- Node9 -->
<g id="node9" class="node"><title>Node9</title>
<g id="a_node9"><a xlink:href="main_8h.html#ad7eb7423e0b17ccfba1ae42f3a3274e0" target="_top" xlink:title=" ">
<polygon fill="none" stroke="black" points="629,-284.575 629,-302.575 677,-302.575 677,-284.575 629,-284.575"/>
<text text-anchor="middle" x="653" y="-291.375" font-family="Calibri" font-size="9.00">get_swr</text>
</a>
</g>
</g>
<!-- Node8&#45;&gt;Node9 -->
<g id="edge13" class="edge"><title>Node8&#45;&gt;Node9</title>
<path fill="none" stroke="midnightblue" d="M908.803,-293.575C847.09,-293.575 727.302,-293.575 677.058,-293.575"/>
<polygon fill="midnightblue" stroke="midnightblue" points="908.906,-297.075 918.906,-293.575 908.906,-290.075 908.906,-297.075"/>
</g>
<!-- Node16 -->
<g id="node16" class="node"><title>Node16</title>
<g id="a_node16"><a xlink:href="main_8c.html#ae5a14b4884e85f47ad8a4a716f13203a" target="_top" xlink:title=" ">
<polygon fill="none" stroke="black" points="835,-170.575 835,-188.575 883,-188.575 883,-170.575 835,-170.575"/>
<text text-anchor="middle" x="859" y="-177.375" font-family="Calibri" font-size="9.00">lcd_pwr</text>
</a>
</g>
</g>
<!-- Node8&#45;&gt;Node16 -->
<g id="edge28" class="edge"><title>Node8&#45;&gt;Node16</title>
<path fill="none" stroke="midnightblue" d="M933.707,-276.156C914.966,-251.6 881.451,-207.683 866.975,-188.714"/>
<polygon fill="midnightblue" stroke="midnightblue" points="931.031,-278.42 939.88,-284.246 936.596,-274.173 931.031,-278.42"/>
</g>
<!-- Node10 -->
<g id="node10" class="node"><title>Node10</title>
<g id="a_node10"><a xlink:href="main_8h.html#a740ef1b33bb02cd952ad7d8708999472" target="_top" xlink:title=" ">
<polygon fill="none" stroke="black" points="531,-284.575 531,-302.575 593,-302.575 593,-284.575 531,-284.575"/>
<text text-anchor="middle" x="562" y="-291.375" font-family="Calibri" font-size="9.00">coarse_cap</text>
</a>
</g>
</g>
<!-- Node9&#45;&gt;Node10 -->
<g id="edge14" class="edge"><title>Node9&#45;&gt;Node10</title>
<path fill="none" stroke="midnightblue" d="M618.505,-293.575C610.219,-293.575 601.389,-293.575 593.267,-293.575"/>
<polygon fill="midnightblue" stroke="midnightblue" points="618.616,-297.075 628.616,-293.575 618.616,-290.075 618.616,-297.075"/>
</g>
<!-- Node11 -->
<g id="node11" class="node"><title>Node11</title>
<g id="a_node11"><a xlink:href="main_8h.html#a5c7c60c7d70cf76cc52e87722bb0f614" target="_top" xlink:title=" ">
<polygon fill="none" stroke="black" points="428,-303.575 428,-321.575 495,-321.575 495,-303.575 428,-303.575"/>
<text text-anchor="middle" x="461.5" y="-310.375" font-family="Calibri" font-size="9.00">coarse_tune</text>
</a>
</g>
</g>
<!-- Node9&#45;&gt;Node11 -->
<g id="edge19" class="edge"><title>Node9&#45;&gt;Node11</title>
<path fill="none" stroke="midnightblue" d="M619.017,-305.465C610.64,-307.976 601.58,-310.262 593,-311.575 559.966,-316.631 521.676,-316.193 495.153,-314.913"/>
<polygon fill="midnightblue" stroke="midnightblue" points="620.354,-308.712 628.819,-302.341 618.228,-302.043 620.354,-308.712"/>
</g>
<!-- Node12 -->
<g id="node12" class="node"><title>Node12</title>
<g id="a_node12"><a xlink:href="main_8h.html#a454a7687c8039514766571b23516ca9c" target="_top" xlink:title=" ">
<polygon fill="none" stroke="black" points="337,-303.575 337,-321.575 392,-321.575 392,-303.575 337,-303.575"/>
<text text-anchor="middle" x="364.5" y="-310.375" font-family="Calibri" font-size="9.00">sub_tune</text>
</a>
</g>
</g>
<!-- Node9&#45;&gt;Node12 -->
<g id="edge26" class="edge"><title>Node9&#45;&gt;Node12</title>
<path fill="none" stroke="midnightblue" d="M619.789,-281.207C611.212,-278.467 601.863,-275.967 593,-274.575 518.629,-262.895 430.798,-288.864 389.385,-303.484"/>
<polygon fill="midnightblue" stroke="midnightblue" points="618.834,-284.579 629.428,-284.48 621.085,-277.951 618.834,-284.579"/>
</g>
<!-- Node9&#45;&gt;Node13 -->
<g id="edge27" class="edge"><title>Node9&#45;&gt;Node13</title>
<path fill="none" stroke="midnightblue" d="M639.202,-310.599C628.318,-323.914 611.537,-341.903 593,-352.575 553.947,-375.058 539.684,-372.748 495,-378.575 425.345,-387.658 406.432,-385.229 337,-374.575 324.879,-372.715 311.53,-369.134 301.326,-366.059"/>
<polygon fill="midnightblue" stroke="midnightblue" points="642.026,-312.67 645.462,-302.648 636.526,-308.34 642.026,-312.67"/>
</g>
<!-- Node14 -->
<g id="node14" class="node"><title>Node14</title>
<g id="a_node14"><a xlink:href="main_8h.html#ab518a3d2c723f12d3af3024a195606ce" target="_top" xlink:title=" ">
<polygon fill="none" stroke="black" points="432,-208.575 432,-226.575 491,-226.575 491,-208.575 432,-208.575"/>
<text text-anchor="middle" x="461.5" y="-215.375" font-family="Calibri" font-size="9.00">sharp_cap</text>
</a>
</g>
</g>
<!-- Node9&#45;&gt;Node14 -->
<g id="edge20" class="edge"><title>Node9&#45;&gt;Node14</title>
<path fill="none" stroke="midnightblue" d="M637.55,-276.707C626.542,-264.986 610.363,-250.008 593,-241.575 560.364,-225.723 518.49,-220.292 491.097,-218.46"/>
<polygon fill="midnightblue" stroke="midnightblue" points="634.997,-279.103 644.295,-284.182 640.194,-274.413 634.997,-279.103"/>
</g>
<!-- Node15 -->
<g id="node15" class="node"><title>Node15</title>
<g id="a_node15"><a xlink:href="main_8h.html#a72210b3ed1d5691c5bbda8c7f1e97197" target="_top" xlink:title=" ">
<polygon fill="none" stroke="black" points="432.5,-351.575 432.5,-369.575 490.5,-369.575 490.5,-351.575 432.5,-351.575"/>
<text text-anchor="middle" x="461.5" y="-358.375" font-family="Calibri" font-size="9.00">sharp_ind</text>
</a>
</g>
</g>
<!-- Node9&#45;&gt;Node15 -->
<g id="edge23" class="edge"><title>Node9&#45;&gt;Node15</title>
<path fill="none" stroke="midnightblue" d="M630.597,-308.355C619.733,-315.307 606.092,-323.225 593,-328.575 559.097,-342.429 517.696,-351.326 490.744,-356.135"/>
<polygon fill="midnightblue" stroke="midnightblue" points="632.572,-311.245 638.997,-302.82 628.721,-305.4 632.572,-311.245"/>
</g>
<!-- Node10&#45;&gt;Node11 -->
<g id="edge15" class="edge"><title>Node10&#45;&gt;Node11</title>
<path fill="none" stroke="midnightblue" d="M521.051,-301.281C512.441,-302.942 503.437,-304.678 495.145,-306.278"/>
<polygon fill="midnightblue" stroke="midnightblue" points="521.755,-304.709 530.912,-299.379 520.43,-297.836 521.755,-304.709"/>
</g>
<!-- Node11&#45;&gt;Node12 -->
<g id="edge16" class="edge"><title>Node11&#45;&gt;Node12</title>
<path fill="none" stroke="midnightblue" d="M417.785,-312.575C409.104,-312.575 400.207,-312.575 392.271,-312.575"/>
<polygon fill="midnightblue" stroke="midnightblue" points="417.806,-316.075 427.806,-312.575 417.806,-309.075 417.806,-316.075"/>
</g>
<!-- Node12&#45;&gt;Node13 -->
<g id="edge17" class="edge"><title>Node12&#45;&gt;Node13</title>
<path fill="none" stroke="midnightblue" d="M339.729,-327.018C326.686,-334.943 310.908,-344.53 299.561,-351.424"/>
<polygon fill="midnightblue" stroke="midnightblue" points="341.912,-329.787 348.641,-321.603 338.277,-323.805 341.912,-329.787"/>
</g>
<!-- Node13&#45;&gt;Node2 -->
<g id="edge18" class="edge"><title>Node13&#45;&gt;Node2</title>
<path fill="none" stroke="midnightblue" d="M255.568,-360.575C247.367,-360.575 238.36,-360.575 230.177,-360.575"/>
<polygon fill="midnightblue" stroke="midnightblue" points="255.746,-364.075 265.746,-360.575 255.746,-357.075 255.746,-364.075"/>
</g>
<!-- Node14&#45;&gt;Node12 -->
<g id="edge21" class="edge"><title>Node14&#45;&gt;Node12</title>
<path fill="none" stroke="midnightblue" d="M438.487,-232.835C434.877,-235.616 431.256,-238.587 428,-241.575 405.98,-261.784 383.68,-289.144 372.628,-303.273"/>
<polygon fill="midnightblue" stroke="midnightblue" points="440.741,-235.522 446.713,-226.771 436.587,-229.888 440.741,-235.522"/>
</g>
<!-- Node14&#45;&gt;Node13 -->
<g id="edge22" class="edge"><title>Node14&#45;&gt;Node13</title>
<path fill="none" stroke="midnightblue" d="M432.027,-231.367C405.676,-244.958 366.268,-267.44 337,-293.575 316.939,-311.488 298.867,-337.795 290.095,-351.507"/>
<polygon fill="midnightblue" stroke="midnightblue" points="433.762,-234.412 441.102,-226.773 430.599,-228.167 433.762,-234.412"/>
</g>
<!-- Node15&#45;&gt;Node12 -->
<g id="edge24" class="edge"><title>Node15&#45;&gt;Node12</title>
<path fill="none" stroke="midnightblue" d="M433.277,-346.82C417.34,-338.767 397.653,-328.821 383.612,-321.726"/>
<polygon fill="midnightblue" stroke="midnightblue" points="432.127,-350.161 442.631,-351.546 435.284,-343.913 432.127,-350.161"/>
</g>
<!-- Node15&#45;&gt;Node13 -->
<g id="edge25" class="edge"><title>Node15&#45;&gt;Node13</title>
<path fill="none" stroke="midnightblue" d="M422.097,-360.575C384.36,-360.575 328.557,-360.575 301.055,-360.575"/>
<polygon fill="midnightblue" stroke="midnightblue" points="422.223,-364.075 432.223,-360.575 422.223,-357.075 422.223,-364.075"/>
</g>
<!-- Node16&#45;&gt;Node2 -->
<g id="edge29" class="edge"><title>Node16&#45;&gt;Node2</title>
<path fill="none" stroke="midnightblue" d="M824.66,-179.575C784.267,-179.575 714.146,-179.575 654,-179.575 654,-179.575 654,-179.575 363.5,-179.575 270.81,-179.575 218.914,-314.466 206.457,-351.35"/>
<polygon fill="midnightblue" stroke="midnightblue" points="824.749,-183.075 834.749,-179.575 824.749,-176.075 824.749,-183.075"/>
</g>
<!-- Node16&#45;&gt;Node3 -->
<g id="edge30" class="edge"><title>Node16&#45;&gt;Node3</title>
<path fill="none" stroke="midnightblue" d="M854.833,-198.638C842.578,-265.247 791.892,-483.575 654,-483.575 654,-483.575 654,-483.575 282.5,-483.575 203.401,-483.575 134.779,-398.425 113.958,-369.82"/>
<polygon fill="midnightblue" stroke="midnightblue" points="858.301,-199.128 856.584,-188.673 851.406,-197.917 858.301,-199.128"/>
</g>
<!-- Node16&#45;&gt;Node4 -->
<g id="edge32" class="edge"><title>Node16&#45;&gt;Node4</title>
<path fill="none" stroke="midnightblue" d="M845.421,-162.495C834.662,-149.268 817.943,-131.707 799,-122.575 740.453,-94.3495 718.995,-103.575 654,-103.575 654,-103.575 654,-103.575 201.5,-103.575 141.461,-103.575 70.8557,-93.1639 38.2251,-87.7551"/>
<polygon fill="midnightblue" stroke="midnightblue" points="842.691,-164.686 851.593,-170.43 848.216,-160.388 842.691,-164.686"/>
</g>
<!-- Node16&#45;&gt;Node5 -->
<g id="edge31" class="edge"><title>Node16&#45;&gt;Node5</title>
<path fill="none" stroke="midnightblue" d="M849.329,-161.319C839.332,-141.733 821.366,-110.614 799,-89.5749 792.638,-83.5905 784.514,-78.5075 777.109,-74.5812"/>
<polygon fill="midnightblue" stroke="midnightblue" points="846.245,-162.978 853.811,-170.395 852.521,-159.879 846.245,-162.978"/>
</g>
<!-- Node16&#45;&gt;Node17 -->
<g id="edge33" class="edge"><title>Node16&#45;&gt;Node17</title>
<path fill="none" stroke="midnightblue" d="M825.298,-167.271C810.923,-161.863 794.342,-155.624 781.118,-150.649"/>
<polygon fill="midnightblue" stroke="midnightblue" points="824.237,-170.611 834.829,-170.857 826.702,-164.06 824.237,-170.611"/>
</g>
<!-- Node17&#45;&gt;Node3 -->
<g id="edge34" class="edge"><title>Node17&#45;&gt;Node3</title>
<path fill="none" stroke="midnightblue" d="M713.345,-141.575C674.454,-141.575 614.797,-141.575 563,-141.575 563,-141.575 563,-141.575 282.5,-141.575 173.239,-141.575 121.028,-309.996 109.834,-351.444"/>
<polygon fill="midnightblue" stroke="midnightblue" points="713.739,-145.075 723.739,-141.575 713.739,-138.075 713.739,-145.075"/>
</g>
<!-- Node17&#45;&gt;Node9 -->
<g id="edge35" class="edge"><title>Node17&#45;&gt;Node9</title>
<path fill="none" stroke="midnightblue" d="M743.358,-159.096C721.838,-191.482 676.536,-259.659 660.112,-284.377"/>
<polygon fill="midnightblue" stroke="midnightblue" points="746.365,-160.894 748.984,-150.628 740.535,-157.02 746.365,-160.894"/>
</g>
</g>
</svg>
        <g id="navigator" transform="translate(0 0)" fill="#404254">
                <rect fill="#f2f5e9" fill-opacity="0.5" stroke="#606060" stroke-width=".5" x="0" y="0" width="60" height="60"/>
                <use id="zoomplus" xlink:href="#zoomPlus" x="17" y="9" onmousedown="handleZoom(evt,'in')"/>
                <use id="zoomminus" xlink:href="#zoomMin" x="42" y="9" onmousedown="handleZoom(evt,'out')"/>
                <use id="reset" xlink:href="#resetDef" x="30" y="36" onmousedown="handleReset()"/>
                <g id="arrowUp" xlink:href="#dirArrow" transform="translate(30 24)" onmousedown="handlePan(0,-1)">
                  <use xlink:href="#rim" fill="#404040">
                        <set attributeName="fill" to="#808080" begin="arrowUp.mouseover" end="arrowUp.mouseout"/>
                  </use>
                  <path fill="none" stroke="white" stroke-width="1.5" d="M0,-3.0v7 M-2.5,-0.5L0,-3.0L2.5,-0.5"/>
                </g>
                <g id="arrowRight" xlink:href="#dirArrow" transform="rotate(90) translate(36 -43)" onmousedown="handlePan(1,0)">
                  <use xlink:href="#rim" fill="#404040">
                        <set attributeName="fill" to="#808080" begin="arrowRight.mouseover" end="arrowRight.mouseout"/>
                  </use>
                  <path fill="none" stroke="white" stroke-width="1.5" d="M0,-3.0v7 M-2.5,-0.5L0,-3.0L2.5,-0.5"/>
                </g>
                <g id="arrowDown" xlink:href="#dirArrow" transform="rotate(180) translate(-30 -48)" onmousedown="handlePan(0,1)">
                  <use xlink:href="#rim" fill="#404040">
                        <set attributeName="fill" to="#808080" begin="arrowDown.mouseover" end="arrowDown.mouseout"/>
                  </use>
                  <path fill="none" stroke="white" stroke-width="1.5" d="M0,-3.0v7 M-2.5,-0.5L0,-3.0L2.5,-0.5"/>
                </g>
                <g id="arrowLeft" xlink:href="#dirArrow" transform="rotate(270) translate(-36 17)" onmousedown="handlePan(-1,0)">
                  <use xlink:href="#rim" fill="#404040">
                        <set attributeName="fill" to="#808080" begin="arrowLeft.mouseover" end="arrowLeft.mouseout"/>
                  </use>
                  <path fill="none" stroke="white" stroke-width="1.5" d="M0,-3.0v7 M-2.5,-0.5L0,-3.0L2.5,-0.5"/>
                </g>
        </g>
        <svg viewBox="0 0 15 15" width="100%" height="30px" preserveAspectRatio="xMaxYMin meet">
         <g id="arrow_out" transform="scale(0.3 0.3)">
          <a xlink:href="main_8c_a6911b3f075cdf1d54cb14f17f6e5ef6b_icgraph_org.svg" target="_base">
           <rect id="button" ry="5" rx="5" y="6" x="6" height="38" width="38"
                fill="#f2f5e9" fill-opacity="0.5" stroke="#606060" stroke-width="1.0"/>
           <path id="arrow"
             d="M 11.500037,31.436501 C 11.940474,20.09759 22.043105,11.32322 32.158766,21.979434 L 37.068811,17.246167 C 37.068811,17.246167 37.088388,32 37.088388,32 L 22.160133,31.978069 C 22.160133,31.978069 26.997745,27.140456 26.997745,27.140456 C 18.528582,18.264221 13.291696,25.230495 11.500037,31.436501 z"
             style="fill:#404040;"/>
          </a>
         </g>
        </svg>
</svg>
