<?xml version="1.0" encoding="UTF-8" standalone="no"?>
<!DOCTYPE svg PUBLIC "-//W3C//DTD SVG 1.1//EN"
 "http://www.w3.org/Graphics/SVG/1.1/DTD/svg11.dtd">
<!-- Generated by graphviz version 2.38.0 (20140413.2041)
 -->
<!-- Title: show_reset Pages: 1 -->
<!--zoomable 423 -->
<svg id="main" version="1.1" xmlns="http://www.w3.org/2000/svg" xmlns:xlink="http://www.w3.org/1999/xlink" xml:space="preserve" onload="init(evt)">
<style type="text/css"><![CDATA[
.edge:hover path { stroke: red; }
.edge:hover polygon { stroke: red; fill: red; }
]]></style>
<script type="text/javascript"><![CDATA[
var edges = document.getElementsByTagName('g');
if (edges && edges.length) {
  for (var i=0;i<edges.length;i++) {
    if (edges[i].id.substr(0,4)=='edge') {
      edges[i].setAttribute('class','edge');
    }
  }
}
]]></script>
        <defs>
                <circle id="rim" cx="0" cy="0" r="7"/>
                <circle id="rim2" cx="0" cy="0" r="3.5"/>
                <g id="zoomPlus">
                        <use xlink:href="#rim" fill="#404040">
                                <set attributeName="fill" to="#808080" begin="zoomplus.mouseover" end="zoomplus.mouseout"/>
                        </use>
                        <path d="M-4,0h8M0,-4v8" fill="none" stroke="white" stroke-width="1.5" pointer-events="none"/>
                </g>
                <g id="zoomMin">
                        <use xlink:href="#rim" fill="#404040">
                                <set attributeName="fill" to="#808080" begin="zoomminus.mouseover" end="zoomminus.mouseout"/>
                        </use>
                        <path d="M-4,0h8" fill="none" stroke="white" stroke-width="1.5" pointer-events="none"/>
                </g>
                <g id="dirArrow">
                        <path fill="none" stroke="white" stroke-width="1.5" d="M0,-3.0v7 M-2.5,-0.5L0,-3.0L2.5,-0.5"/>
                </g>
               <g id="resetDef">
                       <use xlink:href="#rim2" fill="#404040">
                               <set attributeName="fill" to="#808080" begin="reset.mouseover" end="reset.mouseout"/>
                       </use>
               </g>
        </defs>

<script type="text/javascript">
var viewWidth = 797;
var viewHeight = 423;
var sectionId = 'dynsection-33';
</script>
<script xlink:href="svgpan.js"/>
<svg id="graph" class="graph">
<g id="viewport">
<title>show_reset</title>
<!-- Node405 -->
<g id="node1" class="node"><title>Node405</title>
<polygon fill="#bfbfbf" stroke="black" points="0,-76.5 0,-94.5 64,-94.5 64,-76.5 0,-76.5"/>
<text text-anchor="middle" x="32" y="-83.3" font-family="Calibri" font-size="9.00">show_reset</text>
</g>
<!-- Node406 -->
<g id="node2" class="node"><title>Node406</title>
<g id="a_node2"><a xlink:href="main_8h.html#a9dff326a6079fe726285b11ee837ad60" target="_top" xlink:title="atu_reset">
<polygon fill="none" stroke="black" points="100,-359.5 100,-377.5 156,-377.5 156,-359.5 100,-359.5"/>
<text text-anchor="middle" x="128" y="-366.3" font-family="Calibri" font-size="9.00">atu_reset</text>
</a>
</g>
</g>
<!-- Node405&#45;&gt;Node406 -->
<g id="edge1" class="edge"><title>Node405&#45;&gt;Node406</title>
<path fill="none" stroke="midnightblue" d="M36.0211,-94.5954C49.2784,-134.508 102.457,-294.61 120.768,-349.737"/>
<polygon fill="midnightblue" stroke="midnightblue" points="117.469,-350.909 123.943,-359.296 124.112,-348.703 117.469,-350.909"/>
</g>
<!-- Node409 -->
<g id="node5" class="node"><title>Node409</title>
<g id="a_node5"><a xlink:href="main_8c.html#a6911b3f075cdf1d54cb14f17f6e5ef6b" target="_top" xlink:title="lcd_ind">
<polygon fill="none" stroke="black" points="308,-114.5 308,-132.5 355,-132.5 355,-114.5 308,-114.5"/>
<text text-anchor="middle" x="331.5" y="-121.3" font-family="Calibri" font-size="9.00">lcd_ind</text>
</a>
</g>
</g>
<!-- Node405&#45;&gt;Node409 -->
<g id="edge4" class="edge"><title>Node405&#45;&gt;Node409</title>
<path fill="none" stroke="midnightblue" d="M64.2754,-89.4948C120.874,-96.7242 239.769,-111.911 297.563,-119.293"/>
<polygon fill="midnightblue" stroke="midnightblue" points="297.251,-122.781 307.614,-120.577 298.138,-115.838 297.251,-122.781"/>
</g>
<!-- Node410 -->
<g id="node6" class="node"><title>Node410</title>
<g id="a_node6"><a xlink:href="oled__control_8c.html#a9d56c6c2e653b24a0caf505492ad818a" target="_top" xlink:title="led_wr_str">
<polygon fill="none" stroke="black" points="400,-152.5 400,-170.5 459,-170.5 459,-152.5 400,-152.5"/>
<text text-anchor="middle" x="429.5" y="-159.3" font-family="Calibri" font-size="9.00">led_wr_str</text>
</a>
</g>
</g>
<!-- Node405&#45;&gt;Node410 -->
<g id="edge37" class="edge"><title>Node405&#45;&gt;Node410</title>
<path fill="none" stroke="midnightblue" d="M64.1753,-80.6719C124.706,-72.6935 261.219,-61.5916 364,-104.5 384.556,-113.082 403.042,-130.995 414.899,-144.463"/>
<polygon fill="midnightblue" stroke="midnightblue" points="412.261,-146.765 421.384,-152.152 417.612,-142.251 412.261,-146.765"/>
</g>
<!-- Node417 -->
<g id="node13" class="node"><title>Node417</title>
<g id="a_node13"><a xlink:href="main_8c.html#ae5a14b4884e85f47ad8a4a716f13203a" target="_top" xlink:title="lcd_pwr">
<polygon fill="none" stroke="black" points="104,-227.5 104,-245.5 152,-245.5 152,-227.5 104,-227.5"/>
<text text-anchor="middle" x="128" y="-234.3" font-family="Calibri" font-size="9.00">lcd_pwr</text>
</a>
</g>
</g>
<!-- Node405&#45;&gt;Node417 -->
<g id="edge17" class="edge"><title>Node405&#45;&gt;Node417</title>
<path fill="none" stroke="midnightblue" d="M38.8801,-94.9457C54.2515,-119.638 95.8245,-186.42 115.88,-218.638"/>
<polygon fill="midnightblue" stroke="midnightblue" points="113.105,-220.802 121.361,-227.442 119.048,-217.103 113.105,-220.802"/>
</g>
<!-- Node427 -->
<g id="node23" class="node"><title>Node427</title>
<g id="a_node23"><a xlink:href="main_8h.html#ae0c1e0ec712704e43db40473f103d621" target="_top" xlink:title="Set the state of the switch. ">
<polygon fill="none" stroke="black" points="105.5,-0.5 105.5,-18.5 150.5,-18.5 150.5,-0.5 105.5,-0.5"/>
<text text-anchor="middle" x="128" y="-7.3" font-family="Calibri" font-size="9.00">set_sw</text>
</a>
</g>
</g>
<!-- Node405&#45;&gt;Node427 -->
<g id="edge38" class="edge"><title>Node405&#45;&gt;Node427</title>
<path fill="none" stroke="midnightblue" d="M44.1522,-76.4834C59.9112,-63.742 88.9085,-40.2974 108.074,-24.8016"/>
<polygon fill="midnightblue" stroke="midnightblue" points="110.287,-27.5139 115.862,-18.5049 105.885,-22.0705 110.287,-27.5139"/>
</g>
<!-- Node407 -->
<g id="node3" class="node"><title>Node407</title>
<g id="a_node3"><a xlink:href="main_8h.html#a2a7963b9b09696c6654b96c67900c6ea" target="_top" xlink:title="set_cap">
<polygon fill="none" stroke="black" points="203.5,-396.5 203.5,-414.5 251.5,-414.5 251.5,-396.5 203.5,-396.5"/>
<text text-anchor="middle" x="227.5" y="-403.3" font-family="Calibri" font-size="9.00">set_cap</text>
</a>
</g>
</g>
<!-- Node406&#45;&gt;Node407 -->
<g id="edge2" class="edge"><title>Node406&#45;&gt;Node407</title>
<path fill="none" stroke="midnightblue" d="M153.101,-377.646C165.324,-382.285 180.352,-387.988 193.62,-393.023"/>
<polygon fill="midnightblue" stroke="midnightblue" points="192.756,-396.438 203.348,-396.714 195.24,-389.894 192.756,-396.438"/>
</g>
<!-- Node408 -->
<g id="node4" class="node"><title>Node408</title>
<g id="a_node4"><a xlink:href="main_8h.html#aecc83cd8bceb4bc24be844732ead2c2c" target="_top" xlink:title="set_ind">
<polygon fill="none" stroke="black" points="204,-359.5 204,-377.5 251,-377.5 251,-359.5 204,-359.5"/>
<text text-anchor="middle" x="227.5" y="-366.3" font-family="Calibri" font-size="9.00">set_ind</text>
</a>
</g>
</g>
<!-- Node406&#45;&gt;Node408 -->
<g id="edge3" class="edge"><title>Node406&#45;&gt;Node408</title>
<path fill="none" stroke="midnightblue" d="M156.159,-368.5C167.752,-368.5 181.385,-368.5 193.548,-368.5"/>
<polygon fill="midnightblue" stroke="midnightblue" points="193.769,-372 203.769,-368.5 193.769,-365 193.769,-372"/>
</g>
<!-- Node409&#45;&gt;Node410 -->
<g id="edge5" class="edge"><title>Node409&#45;&gt;Node410</title>
<path fill="none" stroke="midnightblue" d="M355.251,-132.505C367.476,-137.345 382.755,-143.393 396.192,-148.711"/>
<polygon fill="midnightblue" stroke="midnightblue" points="394.994,-152.001 405.58,-152.427 397.57,-145.493 394.994,-152.001"/>
</g>
<!-- Node411 -->
<g id="node7" class="node"><title>Node411</title>
<g id="a_node7"><a xlink:href="oled__control_8c.html#a7c3a2e5f1fed76dc27692132a2574d27" target="_top" xlink:title="oled_wr_str">
<polygon fill="none" stroke="black" points="495,-152.5 495,-170.5 560,-170.5 560,-152.5 495,-152.5"/>
<text text-anchor="middle" x="527.5" y="-159.3" font-family="Calibri" font-size="9.00">oled_wr_str</text>
</a>
</g>
</g>
<!-- Node410&#45;&gt;Node411 -->
<g id="edge6" class="edge"><title>Node410&#45;&gt;Node411</title>
<path fill="none" stroke="midnightblue" d="M459.043,-161.5C467.147,-161.5 476.142,-161.5 484.852,-161.5"/>
<polygon fill="midnightblue" stroke="midnightblue" points="484.877,-165 494.877,-161.5 484.877,-158 484.877,-165"/>
</g>
<!-- Node416 -->
<g id="node12" class="node"><title>Node416</title>
<g id="a_node12"><a xlink:href="oled__control_8c.html#ad25764a33e482f4e9db2701198e02551" target="_top" xlink:title="led_send">
<polygon fill="none" stroke="black" points="609,-113.5 609,-131.5 664,-131.5 664,-113.5 609,-113.5"/>
<text text-anchor="middle" x="636.5" y="-120.3" font-family="Calibri" font-size="9.00">led_send</text>
</a>
</g>
</g>
<!-- Node410&#45;&gt;Node416 -->
<g id="edge13" class="edge"><title>Node410&#45;&gt;Node416</title>
<path fill="none" stroke="midnightblue" d="M457.894,-152.475C469.275,-148.976 482.68,-145.177 495,-142.5 529.799,-134.94 570.09,-129.541 598.579,-126.273"/>
<polygon fill="midnightblue" stroke="midnightblue" points="599.332,-129.711 608.883,-125.125 598.557,-122.754 599.332,-129.711"/>
</g>
<!-- Node412 -->
<g id="node8" class="node"><title>Node412</title>
<g id="a_node8"><a xlink:href="oled__control_8c.html#ab7f6b5c6c1483f6286f2de5786c028d9" target="_top" xlink:title="Soft_I2C_Start">
<polygon fill="none" stroke="black" points="715,-123.5 715,-141.5 787,-141.5 787,-123.5 715,-123.5"/>
<text text-anchor="middle" x="751" y="-130.3" font-family="Calibri" font-size="9.00">Soft_I2C_Start</text>
</a>
</g>
</g>
<!-- Node411&#45;&gt;Node412 -->
<g id="edge7" class="edge"><title>Node411&#45;&gt;Node412</title>
<path fill="none" stroke="midnightblue" d="M560.236,-157.345C598.11,-152.386 661.71,-144.059 704.734,-138.426"/>
<polygon fill="midnightblue" stroke="midnightblue" points="705.201,-141.895 714.662,-137.127 704.292,-134.955 705.201,-141.895"/>
</g>
<!-- Node413 -->
<g id="node9" class="node"><title>Node413</title>
<g id="a_node9"><a xlink:href="oled__control_8c.html#a73610916645f17c19124e697b005f694" target="_top" xlink:title="Soft_I2C_Write">
<polygon fill="none" stroke="black" points="713,-179.5 713,-197.5 789,-197.5 789,-179.5 713,-179.5"/>
<text text-anchor="middle" x="751" y="-186.3" font-family="Calibri" font-size="9.00">Soft_I2C_Write</text>
</a>
</g>
</g>
<!-- Node411&#45;&gt;Node413 -->
<g id="edge8" class="edge"><title>Node411&#45;&gt;Node413</title>
<path fill="none" stroke="midnightblue" d="M536.037,-170.752C547.408,-183.893 570.365,-207.378 596,-216.5 638.738,-231.707 691.222,-215.176 722.568,-201.832"/>
<polygon fill="midnightblue" stroke="midnightblue" points="724.247,-204.916 731.963,-197.656 721.404,-198.519 724.247,-204.916"/>
</g>
<!-- Node414 -->
<g id="node10" class="node"><title>Node414</title>
<g id="a_node10"><a xlink:href="oled__control_8c.html#a6df77e8ec83c50ed6a5ddaf54aa3a9c2" target="_top" xlink:title="set_addressing">
<polygon fill="none" stroke="black" points="596.5,-189.5 596.5,-207.5 676.5,-207.5 676.5,-189.5 596.5,-189.5"/>
<text text-anchor="middle" x="636.5" y="-196.3" font-family="Calibri" font-size="9.00">set_addressing</text>
</a>
</g>
</g>
<!-- Node411&#45;&gt;Node414 -->
<g id="edge9" class="edge"><title>Node411&#45;&gt;Node414</title>
<path fill="none" stroke="midnightblue" d="M554.675,-170.551C568.147,-175.21 584.779,-180.961 599.447,-186.033"/>
<polygon fill="midnightblue" stroke="midnightblue" points="598.629,-189.454 609.224,-189.414 600.917,-182.838 598.629,-189.454"/>
</g>
<!-- Node415 -->
<g id="node11" class="node"><title>Node415</title>
<g id="a_node11"><a xlink:href="oled__control_8c.html#a16eb842aa672ca44820ae6d5f9933425" target="_top" xlink:title="Soft_I2C_Stop">
<polygon fill="none" stroke="black" points="715.5,-76.5 715.5,-94.5 786.5,-94.5 786.5,-76.5 715.5,-76.5"/>
<text text-anchor="middle" x="751" y="-83.3" font-family="Calibri" font-size="9.00">Soft_I2C_Stop</text>
</a>
</g>
</g>
<!-- Node411&#45;&gt;Node415 -->
<g id="edge12" class="edge"><title>Node411&#45;&gt;Node415</title>
<path fill="none" stroke="midnightblue" d="M533.635,-152.182C546,-130.136 577.752,-75.9196 596,-66.5 635.916,-45.8954 689.171,-60.1944 721.452,-72.669"/>
<polygon fill="midnightblue" stroke="midnightblue" points="720.177,-75.9286 730.759,-76.4412 722.806,-69.4412 720.177,-75.9286"/>
</g>
<!-- Node414&#45;&gt;Node412 -->
<g id="edge10" class="edge"><title>Node414&#45;&gt;Node412</title>
<path fill="none" stroke="midnightblue" d="M653.143,-189.323C671.949,-178.29 703.724,-159.649 725.726,-146.741"/>
<polygon fill="midnightblue" stroke="midnightblue" points="727.636,-149.678 734.49,-141.599 724.094,-143.64 727.636,-149.678"/>
</g>
<!-- Node414&#45;&gt;Node413 -->
<g id="edge11" class="edge"><title>Node414&#45;&gt;Node413</title>
<path fill="none" stroke="midnightblue" d="M676.531,-195.031C685.015,-194.276 694.078,-193.471 702.838,-192.692"/>
<polygon fill="midnightblue" stroke="midnightblue" points="703.28,-196.167 712.931,-191.795 702.66,-189.194 703.28,-196.167"/>
</g>
<!-- Node416&#45;&gt;Node412 -->
<g id="edge14" class="edge"><title>Node416&#45;&gt;Node412</title>
<path fill="none" stroke="midnightblue" d="M664.161,-124.87C676.173,-125.938 690.703,-127.229 704.365,-128.444"/>
<polygon fill="midnightblue" stroke="midnightblue" points="704.317,-131.953 714.588,-129.352 704.937,-124.98 704.317,-131.953"/>
</g>
<!-- Node416&#45;&gt;Node413 -->
<g id="edge15" class="edge"><title>Node416&#45;&gt;Node413</title>
<path fill="none" stroke="midnightblue" d="M653.143,-131.677C671.949,-142.71 703.724,-161.351 725.726,-174.259"/>
<polygon fill="midnightblue" stroke="midnightblue" points="724.094,-177.36 734.49,-179.401 727.636,-171.322 724.094,-177.36"/>
</g>
<!-- Node416&#45;&gt;Node415 -->
<g id="edge16" class="edge"><title>Node416&#45;&gt;Node415</title>
<path fill="none" stroke="midnightblue" d="M664.161,-113.732C678.689,-108.953 696.899,-102.964 712.804,-97.7334"/>
<polygon fill="midnightblue" stroke="midnightblue" points="713.95,-101.041 722.356,-94.5919 711.763,-94.3915 713.95,-101.041"/>
</g>
<!-- Node417&#45;&gt;Node407 -->
<g id="edge23" class="edge"><title>Node417&#45;&gt;Node407</title>
<path fill="none" stroke="midnightblue" d="M130.6,-245.844C135.428,-271.493 152.048,-343.972 192,-387.5 192.899,-388.48 193.864,-389.415 194.88,-390.308"/>
<polygon fill="midnightblue" stroke="midnightblue" points="193.205,-393.41 203.392,-396.319 197.242,-387.692 193.205,-393.41"/>
</g>
<!-- Node417&#45;&gt;Node408 -->
<g id="edge22" class="edge"><title>Node417&#45;&gt;Node408</title>
<path fill="none" stroke="midnightblue" d="M132.746,-245.756C141.102,-265.585 162.844,-312.922 192,-344.5 194.951,-347.696 198.399,-350.706 201.952,-353.442"/>
<polygon fill="midnightblue" stroke="midnightblue" points="200.06,-356.39 210.25,-359.289 204.092,-350.668 200.06,-356.39"/>
</g>
<!-- Node417&#45;&gt;Node410 -->
<g id="edge36" class="edge"><title>Node417&#45;&gt;Node410</title>
<path fill="none" stroke="midnightblue" d="M141.528,-245.599C178.466,-271.218 289.042,-339.144 364,-292.5 403.697,-267.797 419.673,-210.692 425.503,-180.696"/>
<polygon fill="midnightblue" stroke="midnightblue" points="428.985,-181.106 427.269,-170.651 422.091,-179.894 428.985,-181.106"/>
</g>
<!-- Node418 -->
<g id="node14" class="node"><title>Node418</title>
<g id="a_node14"><a xlink:href="main_8h.html#ab37ca657b79c6b9176cb63e9d812a182" target="_top" xlink:title="get_pwr">
<polygon fill="none" stroke="black" points="203,-227.5 203,-245.5 252,-245.5 252,-227.5 203,-227.5"/>
<text text-anchor="middle" x="227.5" y="-234.3" font-family="Calibri" font-size="9.00">get_pwr</text>
</a>
</g>
</g>
<!-- Node417&#45;&gt;Node418 -->
<g id="edge18" class="edge"><title>Node417&#45;&gt;Node418</title>
<path fill="none" stroke="midnightblue" d="M152.106,-236.5C164.192,-236.5 179.218,-236.5 192.595,-236.5"/>
<polygon fill="midnightblue" stroke="midnightblue" points="192.882,-240 202.882,-236.5 192.882,-233 192.882,-240"/>
</g>
<!-- Node422 -->
<g id="node18" class="node"><title>Node422</title>
<g id="a_node18"><a xlink:href="oled__control_8c.html#a2c663a2db505aa3f2271f6cf4bae1521" target="_top" xlink:title="dysp_on">
<polygon fill="none" stroke="black" points="502.5,-76.5 502.5,-94.5 552.5,-94.5 552.5,-76.5 502.5,-76.5"/>
<text text-anchor="middle" x="527.5" y="-83.3" font-family="Calibri" font-size="9.00">dysp_on</text>
</a>
</g>
</g>
<!-- Node417&#45;&gt;Node422 -->
<g id="edge24" class="edge"><title>Node417&#45;&gt;Node422</title>
<path fill="none" stroke="midnightblue" d="M132.75,-227.324C140.82,-208.679 161.6,-166.133 192,-142.5 281.876,-72.6319 426.665,-75.7653 492.252,-81.5005"/>
<polygon fill="midnightblue" stroke="midnightblue" points="492.16,-85.0074 502.447,-82.4703 492.823,-78.0389 492.16,-85.0074"/>
</g>
<!-- Node424 -->
<g id="node20" class="node"><title>Node424</title>
<g id="a_node20"><a xlink:href="main_8c.html#a593218c5fe00b499d494826fc0aa5279" target="_top" xlink:title="button_delay">
<polygon fill="none" stroke="black" points="192,-152.5 192,-170.5 263,-170.5 263,-152.5 192,-152.5"/>
<text text-anchor="middle" x="227.5" y="-159.3" font-family="Calibri" font-size="9.00">button_delay</text>
</a>
</g>
</g>
<!-- Node417&#45;&gt;Node424 -->
<g id="edge30" class="edge"><title>Node417&#45;&gt;Node424</title>
<path fill="none" stroke="midnightblue" d="M137.767,-227.215C149.402,-215.227 170.937,-194.164 192,-179.5 193.892,-178.183 195.893,-176.897 197.939,-175.657"/>
<polygon fill="midnightblue" stroke="midnightblue" points="200.004,-178.512 207.013,-170.567 196.579,-172.407 200.004,-178.512"/>
</g>
<!-- Node425 -->
<g id="node21" class="node"><title>Node425</title>
<g id="a_node21"><a xlink:href="main_8c.html#aa8fd50019a763561abc6621bb224417f" target="_top" xlink:title="lcd_swr">
<polygon fill="none" stroke="black" points="308,-340.5 308,-358.5 355,-358.5 355,-340.5 308,-340.5"/>
<text text-anchor="middle" x="331.5" y="-347.3" font-family="Calibri" font-size="9.00">lcd_swr</text>
</a>
</g>
</g>
<!-- Node417&#45;&gt;Node425 -->
<g id="edge31" class="edge"><title>Node417&#45;&gt;Node425</title>
<path fill="none" stroke="midnightblue" d="M134.811,-245.661C144.737,-260.58 166.389,-290.102 192,-306.5 224.67,-327.418 268.185,-338.733 297.656,-344.427"/>
<polygon fill="midnightblue" stroke="midnightblue" points="297.367,-347.931 307.832,-346.277 298.62,-341.044 297.367,-347.931"/>
</g>
<!-- Node426 -->
<g id="node22" class="node"><title>Node426</title>
<g id="a_node22"><a xlink:href="main_8c.html#a4ae0d4fa97fc0ca3611813fee4f9af7c" target="_top" xlink:title="show_pwr">
<polygon fill="none" stroke="black" points="198.5,-189.5 198.5,-207.5 256.5,-207.5 256.5,-189.5 198.5,-189.5"/>
<text text-anchor="middle" x="227.5" y="-196.3" font-family="Calibri" font-size="9.00">show_pwr</text>
</a>
</g>
</g>
<!-- Node417&#45;&gt;Node426 -->
<g id="edge33" class="edge"><title>Node417&#45;&gt;Node426</title>
<path fill="none" stroke="midnightblue" d="M152.106,-227.495C164.522,-222.655 180.041,-216.607 193.687,-211.289"/>
<polygon fill="midnightblue" stroke="midnightblue" points="195.175,-214.465 203.222,-207.573 192.633,-207.943 195.175,-214.465"/>
</g>
<!-- Node419 -->
<g id="node15" class="node"><title>Node419</title>
<g id="a_node15"><a xlink:href="main_8h.html#ab19e6e081315a9a200394b74d10de395" target="_top" xlink:title="correction">
<polygon fill="none" stroke="black" points="303,-227.5 303,-245.5 360,-245.5 360,-227.5 303,-227.5"/>
<text text-anchor="middle" x="331.5" y="-234.3" font-family="Calibri" font-size="9.00">correction</text>
</a>
</g>
</g>
<!-- Node418&#45;&gt;Node419 -->
<g id="edge19" class="edge"><title>Node418&#45;&gt;Node419</title>
<path fill="none" stroke="midnightblue" d="M252.157,-236.5C264.257,-236.5 279.271,-236.5 292.909,-236.5"/>
<polygon fill="midnightblue" stroke="midnightblue" points="292.998,-240 302.998,-236.5 292.998,-233 292.998,-240"/>
</g>
<!-- Node420 -->
<g id="node16" class="node"><title>Node420</title>
<g id="a_node16"><a xlink:href="main_8h.html#acfd46f8711e9c1c20fffdfc8bdaa0ddd" target="_top" xlink:title="get_forward">
<polygon fill="none" stroke="black" points="299,-190.5 299,-208.5 364,-208.5 364,-190.5 299,-190.5"/>
<text text-anchor="middle" x="331.5" y="-197.3" font-family="Calibri" font-size="9.00">get_forward</text>
</a>
</g>
</g>
<!-- Node418&#45;&gt;Node420 -->
<g id="edge20" class="edge"><title>Node418&#45;&gt;Node420</title>
<path fill="none" stroke="midnightblue" d="M252.157,-227.918C265.163,-223.201 281.538,-217.261 295.95,-212.033"/>
<polygon fill="midnightblue" stroke="midnightblue" points="297.341,-215.252 305.548,-208.551 294.954,-208.671 297.341,-215.252"/>
</g>
<!-- Node421 -->
<g id="node17" class="node"><title>Node421</title>
<g id="a_node17"><a xlink:href="main_8h.html#aa6b9a2b3d88f578ba6a9fefd911eae75" target="_top" xlink:title="get_reverse">
<polygon fill="none" stroke="black" points="299.5,-264.5 299.5,-282.5 363.5,-282.5 363.5,-264.5 299.5,-264.5"/>
<text text-anchor="middle" x="331.5" y="-271.3" font-family="Calibri" font-size="9.00">get_reverse</text>
</a>
</g>
</g>
<!-- Node418&#45;&gt;Node421 -->
<g id="edge21" class="edge"><title>Node418&#45;&gt;Node421</title>
<path fill="none" stroke="midnightblue" d="M252.157,-245.082C265.163,-249.799 281.538,-255.739 295.95,-260.967"/>
<polygon fill="midnightblue" stroke="midnightblue" points="294.954,-264.329 305.548,-264.449 297.341,-257.748 294.954,-264.329"/>
</g>
<!-- Node422&#45;&gt;Node416 -->
<g id="edge29" class="edge"><title>Node422&#45;&gt;Node416</title>
<path fill="none" stroke="midnightblue" d="M552.513,-93.8035C566.362,-98.5924 584.045,-104.707 599.526,-110.06"/>
<polygon fill="midnightblue" stroke="midnightblue" points="598.725,-113.487 609.32,-113.447 601.012,-106.871 598.725,-113.487"/>
</g>
<!-- Node423 -->
<g id="node19" class="node"><title>Node423</title>
<g id="a_node19"><a xlink:href="oled__control_8c.html#ad141ed038278a6fcad6c307932f01ec8" target="_top" xlink:title="send_command">
<polygon fill="none" stroke="black" points="596,-76.5 596,-94.5 677,-94.5 677,-76.5 596,-76.5"/>
<text text-anchor="middle" x="636.5" y="-83.3" font-family="Calibri" font-size="9.00">send_command</text>
</a>
</g>
</g>
<!-- Node422&#45;&gt;Node423 -->
<g id="edge25" class="edge"><title>Node422&#45;&gt;Node423</title>
<path fill="none" stroke="midnightblue" d="M552.513,-85.5C562.33,-85.5 574.073,-85.5 585.594,-85.5"/>
<polygon fill="midnightblue" stroke="midnightblue" points="585.606,-89.0001 595.606,-85.5 585.606,-82.0001 585.606,-89.0001"/>
</g>
<!-- Node423&#45;&gt;Node412 -->
<g id="edge26" class="edge"><title>Node423&#45;&gt;Node412</title>
<path fill="none" stroke="midnightblue" d="M659.191,-94.5621C676.155,-101.649 699.966,-111.597 718.95,-119.528"/>
<polygon fill="midnightblue" stroke="midnightblue" points="717.799,-122.84 728.375,-123.466 720.498,-116.381 717.799,-122.84"/>
</g>
<!-- Node423&#45;&gt;Node413 -->
<g id="edge27" class="edge"><title>Node423&#45;&gt;Node413</title>
<path fill="none" stroke="midnightblue" d="M662.391,-94.5907C667.496,-97.0572 672.637,-100.027 677,-103.5 697.585,-119.889 695.792,-130.595 713,-150.5 719.406,-157.91 726.877,-165.723 733.421,-172.325"/>
<polygon fill="midnightblue" stroke="midnightblue" points="731,-174.853 740.559,-179.421 735.935,-169.889 731,-174.853"/>
</g>
<!-- Node423&#45;&gt;Node415 -->
<g id="edge28" class="edge"><title>Node423&#45;&gt;Node415</title>
<path fill="none" stroke="midnightblue" d="M677.163,-85.5C686.172,-85.5 695.804,-85.5 705.016,-85.5"/>
<polygon fill="midnightblue" stroke="midnightblue" points="705.182,-89.0001 715.182,-85.5 705.182,-82.0001 705.182,-89.0001"/>
</g>
<!-- Node425&#45;&gt;Node410 -->
<g id="edge32" class="edge"><title>Node425&#45;&gt;Node410</title>
<path fill="none" stroke="midnightblue" d="M347.745,-340.425C353.45,-336.428 359.606,-331.314 364,-325.5 398.655,-279.65 417.181,-212.782 424.589,-180.43"/>
<polygon fill="midnightblue" stroke="midnightblue" points="428.039,-181.034 426.753,-170.518 421.2,-179.541 428.039,-181.034"/>
</g>
<!-- Node426&#45;&gt;Node409 -->
<g id="edge35" class="edge"><title>Node426&#45;&gt;Node409</title>
<path fill="none" stroke="midnightblue" d="M246.866,-189.373C252.217,-186.453 257.974,-183.051 263,-179.5 280.485,-167.149 282.474,-161.108 299,-147.5 302.463,-144.648 306.207,-141.691 309.864,-138.868"/>
<polygon fill="midnightblue" stroke="midnightblue" points="312.222,-141.472 318.065,-132.634 307.986,-135.899 312.222,-141.472"/>
</g>
<!-- Node426&#45;&gt;Node410 -->
<g id="edge34" class="edge"><title>Node426&#45;&gt;Node410</title>
<path fill="none" stroke="midnightblue" d="M256.817,-190.551C269.628,-187.141 285.004,-183.306 299,-180.5 329.254,-174.435 363.849,-169.459 389.667,-166.122"/>
<polygon fill="midnightblue" stroke="midnightblue" points="390.324,-169.567 399.804,-164.838 389.444,-162.623 390.324,-169.567"/>
</g>
</g>
</svg>
        <g id="navigator" transform="translate(0 0)" fill="#404254">
                <rect fill="#f2f5e9" fill-opacity="0.5" stroke="#606060" stroke-width=".5" x="0" y="0" width="60" height="60"/>
                <use id="zoomplus" xlink:href="#zoomPlus" x="17" y="9" onmousedown="handleZoom(evt,'in')"/>
                <use id="zoomminus" xlink:href="#zoomMin" x="42" y="9" onmousedown="handleZoom(evt,'out')"/>
                <use id="reset" xlink:href="#resetDef" x="30" y="36" onmousedown="handleReset()"/>
                <g id="arrowUp" xlink:href="#dirArrow" transform="translate(30 24)" onmousedown="handlePan(0,-1)">
                  <use xlink:href="#rim" fill="#404040">
                        <set attributeName="fill" to="#808080" begin="arrowUp.mouseover" end="arrowUp.mouseout"/>
                  </use>
                  <path fill="none" stroke="white" stroke-width="1.5" d="M0,-3.0v7 M-2.5,-0.5L0,-3.0L2.5,-0.5"/>
                </g>
                <g id="arrowRight" xlink:href="#dirArrow" transform="rotate(90) translate(36 -43)" onmousedown="handlePan(1,0)">
                  <use xlink:href="#rim" fill="#404040">
                        <set attributeName="fill" to="#808080" begin="arrowRight.mouseover" end="arrowRight.mouseout"/>
                  </use>
                  <path fill="none" stroke="white" stroke-width="1.5" d="M0,-3.0v7 M-2.5,-0.5L0,-3.0L2.5,-0.5"/>
                </g>
                <g id="arrowDown" xlink:href="#dirArrow" transform="rotate(180) translate(-30 -48)" onmousedown="handlePan(0,1)">
                  <use xlink:href="#rim" fill="#404040">
                        <set attributeName="fill" to="#808080" begin="arrowDown.mouseover" end="arrowDown.mouseout"/>
                  </use>
                  <path fill="none" stroke="white" stroke-width="1.5" d="M0,-3.0v7 M-2.5,-0.5L0,-3.0L2.5,-0.5"/>
                </g>
                <g id="arrowLeft" xlink:href="#dirArrow" transform="rotate(270) translate(-36 17)" onmousedown="handlePan(-1,0)">
                  <use xlink:href="#rim" fill="#404040">
                        <set attributeName="fill" to="#808080" begin="arrowLeft.mouseover" end="arrowLeft.mouseout"/>
                  </use>
                  <path fill="none" stroke="white" stroke-width="1.5" d="M0,-3.0v7 M-2.5,-0.5L0,-3.0L2.5,-0.5"/>
                </g>
        </g>
        <svg viewBox="0 0 15 15" width="100%" height="30px" preserveAspectRatio="xMaxYMin meet">
         <g id="arrow_out" transform="scale(0.3 0.3)">
          <a xlink:href="main__main_8h_ad9d02e37f1f201576a9d93fd36fc4768_cgraph_org.svg" target="_base">
           <rect id="button" ry="5" rx="5" y="6" x="6" height="38" width="38"
                fill="#f2f5e9" fill-opacity="0.5" stroke="#606060" stroke-width="1.0"/>
           <path id="arrow"
             d="M 11.500037,31.436501 C 11.940474,20.09759 22.043105,11.32322 32.158766,21.979434 L 37.068811,17.246167 C 37.068811,17.246167 37.088388,32 37.088388,32 L 22.160133,31.978069 C 22.160133,31.978069 26.997745,27.140456 26.997745,27.140456 C 18.528582,18.264221 13.291696,25.230495 11.500037,31.436501 z"
             style="fill:#404040;"/>
          </a>
         </g>
        </svg>
</svg>
