<?xml version="1.0" encoding="UTF-8" standalone="no"?>
<!DOCTYPE svg PUBLIC "-//W3C//DTD SVG 1.1//EN"
 "http://www.w3.org/Graphics/SVG/1.1/DTD/svg11.dtd">
<!-- Generated by graphviz version 2.38.0 (20140413.2041)
 -->
<!-- Title: coarse_cap Pages: 1 -->
<svg width="244pt" height="27pt"
 viewBox="0.00 0.00 244.00 27.00" xmlns="http://www.w3.org/2000/svg" xmlns:xlink="http://www.w3.org/1999/xlink">
<g id="graph0" class="graph" transform="scale(1 1) rotate(0) translate(4 23)">
<title>coarse_cap</title>
<!-- Node135 -->
<g id="node1" class="node"><title>Node135</title>
<polygon fill="#bfbfbf" stroke="black" points="0,-0.5 0,-18.5 62,-18.5 62,-0.5 0,-0.5"/>
<text text-anchor="middle" x="31" y="-7.3" font-family="Calibri" font-size="9.00">coarse_cap</text>
</g>
<!-- Node136 -->
<g id="node2" class="node"><title>Node136</title>
<g id="a_node2"><a xlink:href="main__main_8h.html#a5c7c60c7d70cf76cc52e87722bb0f614" target="_top" xlink:title="coarse_tune">
<polygon fill="none" stroke="black" points="98,-0.5 98,-18.5 165,-18.5 165,-0.5 98,-0.5"/>
<text text-anchor="middle" x="131.5" y="-7.3" font-family="Calibri" font-size="9.00">coarse_tune</text>
</a>
</g>
</g>
<!-- Node135&#45;&gt;Node136 -->
<g id="edge1" class="edge"><title>Node135&#45;&gt;Node136</title>
<path fill="none" stroke="midnightblue" d="M72.2298,-9.5C80.7546,-9.5 89.6527,-9.5 97.8548,-9.5"/>
<polygon fill="midnightblue" stroke="midnightblue" points="72.0885,-6.0001 62.0885,-9.5 72.0884,-13.0001 72.0885,-6.0001"/>
</g>
<!-- Node137 -->
<g id="node3" class="node"><title>Node137</title>
<g id="a_node3"><a xlink:href="main__main_8h.html#a1849f2e5bd63d11a7b9549470e287d17" target="_top" xlink:title="tune">
<polygon fill="none" stroke="black" points="201,-0.5 201,-18.5 236,-18.5 236,-0.5 201,-0.5"/>
<text text-anchor="middle" x="218.5" y="-7.3" font-family="Calibri" font-size="9.00">tune</text>
</a>
</g>
</g>
<!-- Node136&#45;&gt;Node137 -->
<g id="edge2" class="edge"><title>Node136&#45;&gt;Node137</title>
<path fill="none" stroke="midnightblue" d="M175.274,-9.5C184.339,-9.5 193.388,-9.5 200.77,-9.5"/>
<polygon fill="midnightblue" stroke="midnightblue" points="175.12,-6.0001 165.12,-9.5 175.12,-13.0001 175.12,-6.0001"/>
</g>
</g>
</svg>
