<?xml version="1.0" encoding="UTF-8" standalone="no"?>
<!DOCTYPE svg PUBLIC "-//W3C//DTD SVG 1.1//EN"
 "http://www.w3.org/Graphics/SVG/1.1/DTD/svg11.dtd">
<!-- Generated by graphviz version 2.38.0 (20140413.2041)
 -->
<!-- Title: lcd_pwr Pages: 1 -->
<!--zoomable 234 -->
<svg id="main" version="1.1" xmlns="http://www.w3.org/2000/svg" xmlns:xlink="http://www.w3.org/1999/xlink" xml:space="preserve" onload="init(evt)">
<style type="text/css"><![CDATA[
.edge:hover path { stroke: red; }
.edge:hover polygon { stroke: red; fill: red; }
]]></style>
<script type="text/javascript"><![CDATA[
var edges = document.getElementsByTagName('g');
if (edges && edges.length) {
  for (var i=0;i<edges.length;i++) {
    if (edges[i].id.substr(0,4)=='edge') {
      edges[i].setAttribute('class','edge');
    }
  }
}
]]></script>
        <defs>
                <circle id="rim" cx="0" cy="0" r="7"/>
                <circle id="rim2" cx="0" cy="0" r="3.5"/>
                <g id="zoomPlus">
                        <use xlink:href="#rim" fill="#404040">
                                <set attributeName="fill" to="#808080" begin="zoomplus.mouseover" end="zoomplus.mouseout"/>
                        </use>
                        <path d="M-4,0h8M0,-4v8" fill="none" stroke="white" stroke-width="1.5" pointer-events="none"/>
                </g>
                <g id="zoomMin">
                        <use xlink:href="#rim" fill="#404040">
                                <set attributeName="fill" to="#808080" begin="zoomminus.mouseover" end="zoomminus.mouseout"/>
                        </use>
                        <path d="M-4,0h8" fill="none" stroke="white" stroke-width="1.5" pointer-events="none"/>
                </g>
                <g id="dirArrow">
                        <path fill="none" stroke="white" stroke-width="1.5" d="M0,-3.0v7 M-2.5,-0.5L0,-3.0L2.5,-0.5"/>
                </g>
               <g id="resetDef">
                       <use xlink:href="#rim2" fill="#404040">
                               <set attributeName="fill" to="#808080" begin="reset.mouseover" end="reset.mouseout"/>
                       </use>
               </g>
        </defs>

<script type="text/javascript">
var viewWidth = 550;
var viewHeight = 234;
var sectionId = 'dynsection-25';
</script>
<script xlink:href="svgpan.js"/>
<svg id="graph" class="graph">
<g id="viewport">
<title>lcd_pwr</title>
<!-- Node311 -->
<g id="node1" class="node"><title>Node311</title>
<polygon fill="#bfbfbf" stroke="black" points="0,-131.5 0,-149.5 48,-149.5 48,-131.5 0,-131.5"/>
<text text-anchor="middle" x="24" y="-138.3" font-family="Calibri" font-size="9.00">lcd_pwr</text>
</g>
<!-- Node312 -->
<g id="node2" class="node"><title>Node312</title>
<g id="a_node2"><a xlink:href="main__main_8h.html#ae9b379f911db06ddd04a15d876ac0732" target="_top" xlink:title="btn_push">
<polygon fill="none" stroke="black" points="88.5,-93.5 88.5,-111.5 143.5,-111.5 143.5,-93.5 88.5,-93.5"/>
<text text-anchor="middle" x="116" y="-100.3" font-family="Calibri" font-size="9.00">btn_push</text>
</a>
</g>
</g>
<!-- Node311&#45;&gt;Node312 -->
<g id="edge1" class="edge"><title>Node311&#45;&gt;Node312</title>
<path fill="none" stroke="midnightblue" d="M55.8494,-127.475C68.2507,-122.239 82.2482,-116.329 93.5125,-111.573"/>
<polygon fill="midnightblue" stroke="midnightblue" points="54.1798,-124.38 46.3287,-131.495 56.9027,-130.829 54.1798,-124.38"/>
</g>
<!-- Node313 -->
<g id="node3" class="node"><title>Node313</title>
<g id="a_node3"><a xlink:href="main__main_8h.html#a1c9e5d54d8cf7f3d041aa2e0b330b3dd" target="_top" xlink:title="button_proc">
<polygon fill="none" stroke="black" points="194.5,-112.5 194.5,-130.5 259.5,-130.5 259.5,-112.5 194.5,-112.5"/>
<text text-anchor="middle" x="227" y="-119.3" font-family="Calibri" font-size="9.00">button_proc</text>
</a>
</g>
</g>
<!-- Node311&#45;&gt;Node313 -->
<g id="edge4" class="edge"><title>Node311&#45;&gt;Node313</title>
<path fill="none" stroke="midnightblue" d="M58.0405,-137.377C95.7949,-133.808 157.145,-128.009 194.321,-124.495"/>
<polygon fill="midnightblue" stroke="midnightblue" points="57.6835,-133.895 48.0573,-138.32 58.3423,-140.864 57.6835,-133.895"/>
</g>
<!-- Node314 -->
<g id="node4" class="node"><title>Node314</title>
<g id="a_node4"><a xlink:href="main_8c.html#acdef7a1fd863a6d3770c1268cb06add3" target="_top" xlink:title="main">
<polygon fill="none" stroke="black" points="318,-170.5 318,-188.5 356,-188.5 356,-170.5 318,-170.5"/>
<text text-anchor="middle" x="337" y="-177.3" font-family="Calibri" font-size="9.00">main</text>
</a>
</g>
</g>
<!-- Node311&#45;&gt;Node314 -->
<g id="edge7" class="edge"><title>Node311&#45;&gt;Node314</title>
<path fill="none" stroke="midnightblue" d="M58.3047,-144.676C123.802,-152.89 267.387,-170.896 317.948,-177.236"/>
<polygon fill="midnightblue" stroke="midnightblue" points="58.4793,-141.171 48.1215,-143.399 57.6082,-148.117 58.4793,-141.171"/>
</g>
<!-- Node315 -->
<g id="node5" class="node"><title>Node315</title>
<g id="a_node5"><a xlink:href="main__main_8h.html#ac445892220ccb3b4b337dd3e764bd6c6" target="_top" xlink:title="button_proc_test">
<polygon fill="none" stroke="black" points="184,-207.5 184,-225.5 270,-225.5 270,-207.5 184,-207.5"/>
<text text-anchor="middle" x="227" y="-214.3" font-family="Calibri" font-size="9.00">button_proc_test</text>
</a>
</g>
</g>
<!-- Node311&#45;&gt;Node315 -->
<g id="edge5" class="edge"><title>Node311&#45;&gt;Node315</title>
<path fill="none" stroke="midnightblue" d="M39.0368,-157.039C50.0319,-168.856 66.3762,-184.097 84,-192.5 115.37,-207.458 154.538,-213.248 183.787,-215.416"/>
<polygon fill="midnightblue" stroke="midnightblue" points="41.6017,-154.656 32.3293,-149.531 36.3814,-159.32 41.6017,-154.656"/>
</g>
<!-- Node316 -->
<g id="node6" class="node"><title>Node316</title>
<g id="a_node6"><a xlink:href="main__main_8h.html#ad9d02e37f1f201576a9d93fd36fc4768" target="_top" xlink:title="show_reset">
<polygon fill="none" stroke="black" points="84,-56.5 84,-74.5 148,-74.5 148,-56.5 84,-56.5"/>
<text text-anchor="middle" x="116" y="-63.3" font-family="Calibri" font-size="9.00">show_reset</text>
</a>
</g>
</g>
<!-- Node311&#45;&gt;Node316 -->
<g id="edge8" class="edge"><title>Node311&#45;&gt;Node316</title>
<path fill="none" stroke="midnightblue" d="M40.2311,-123.752C51.6206,-111.754 67.9355,-95.6393 84,-83.5 88.2701,-80.2733 93.1697,-77.1831 97.7939,-74.502"/>
<polygon fill="midnightblue" stroke="midnightblue" points="37.4535,-121.599 33.1965,-131.301 42.5746,-126.371 37.4535,-121.599"/>
</g>
<!-- Node312&#45;&gt;Node313 -->
<g id="edge2" class="edge"><title>Node312&#45;&gt;Node313</title>
<path fill="none" stroke="midnightblue" d="M153.78,-108.911C166.887,-111.196 181.528,-113.748 194.183,-115.954"/>
<polygon fill="midnightblue" stroke="midnightblue" points="154.117,-105.417 143.664,-107.148 152.915,-112.313 154.117,-105.417"/>
</g>
<!-- Node313&#45;&gt;Node314 -->
<g id="edge3" class="edge"><title>Node313&#45;&gt;Node314</title>
<path fill="none" stroke="midnightblue" d="M253.831,-135.372C273.976,-146.191 301.384,-160.91 318.887,-170.31"/>
<polygon fill="midnightblue" stroke="midnightblue" points="255.341,-132.21 244.875,-130.563 252.029,-138.377 255.341,-132.21"/>
</g>
<!-- Node315&#45;&gt;Node314 -->
<g id="edge6" class="edge"><title>Node315&#45;&gt;Node314</title>
<path fill="none" stroke="midnightblue" d="M264.102,-204.132C282.197,-197.932 303.316,-190.697 317.963,-185.679"/>
<polygon fill="midnightblue" stroke="midnightblue" points="262.746,-200.897 254.42,-207.449 265.014,-207.519 262.746,-200.897"/>
</g>
<!-- Node316&#45;&gt;Node313 -->
<g id="edge19" class="edge"><title>Node316&#45;&gt;Node313</title>
<path fill="none" stroke="midnightblue" d="M143.97,-79.3563C164.059,-89.6773 190.917,-103.475 208.336,-112.425"/>
<polygon fill="midnightblue" stroke="midnightblue" points="145.493,-76.2039 134.999,-74.7473 142.294,-82.4303 145.493,-76.2039"/>
</g>
<!-- Node317 -->
<g id="node7" class="node"><title>Node317</title>
<g id="a_node7"><a xlink:href="main__main_8h.html#a6c26e075660bdd7a54df984ec3fc7ff4" target="_top" xlink:title="get_swr">
<polygon fill="none" stroke="black" points="203,-56.5 203,-74.5 251,-74.5 251,-56.5 203,-56.5"/>
<text text-anchor="middle" x="227" y="-63.3" font-family="Calibri" font-size="9.00">get_swr</text>
</a>
</g>
</g>
<!-- Node316&#45;&gt;Node317 -->
<g id="edge9" class="edge"><title>Node316&#45;&gt;Node317</title>
<path fill="none" stroke="midnightblue" d="M158.35,-65.5C173.375,-65.5 189.819,-65.5 202.732,-65.5"/>
<polygon fill="midnightblue" stroke="midnightblue" points="158.235,-62.0001 148.235,-65.5 158.235,-69.0001 158.235,-62.0001"/>
</g>
<!-- Node318 -->
<g id="node8" class="node"><title>Node318</title>
<g id="a_node8"><a xlink:href="main__main_8h.html#a740ef1b33bb02cd952ad7d8708999472" target="_top" xlink:title="coarse_cap">
<polygon fill="none" stroke="black" points="306,-18.5 306,-36.5 368,-36.5 368,-18.5 306,-18.5"/>
<text text-anchor="middle" x="337" y="-25.3" font-family="Calibri" font-size="9.00">coarse_cap</text>
</a>
</g>
</g>
<!-- Node317&#45;&gt;Node318 -->
<g id="edge10" class="edge"><title>Node317&#45;&gt;Node318</title>
<path fill="none" stroke="midnightblue" d="M260.622,-54.0221C276.514,-48.4302 295.353,-41.8018 310.221,-36.5703"/>
<polygon fill="midnightblue" stroke="midnightblue" points="259.44,-50.7273 251.169,-57.348 261.764,-57.3305 259.44,-50.7273"/>
</g>
<!-- Node319 -->
<g id="node9" class="node"><title>Node319</title>
<g id="a_node9"><a xlink:href="main__main_8h.html#a5c7c60c7d70cf76cc52e87722bb0f614" target="_top" xlink:title="coarse_tune">
<polygon fill="none" stroke="black" points="404,-56.5 404,-74.5 471,-74.5 471,-56.5 404,-56.5"/>
<text text-anchor="middle" x="437.5" y="-63.3" font-family="Calibri" font-size="9.00">coarse_tune</text>
</a>
</g>
</g>
<!-- Node317&#45;&gt;Node319 -->
<g id="edge13" class="edge"><title>Node317&#45;&gt;Node319</title>
<path fill="none" stroke="midnightblue" d="M261.18,-65.5C300.267,-65.5 364.794,-65.5 403.71,-65.5"/>
<polygon fill="midnightblue" stroke="midnightblue" points="261.11,-62.0001 251.11,-65.5 261.11,-69.0001 261.11,-62.0001"/>
</g>
<!-- Node320 -->
<g id="node10" class="node"><title>Node320</title>
<g id="a_node10"><a xlink:href="main__main_8h.html#a1849f2e5bd63d11a7b9549470e287d17" target="_top" xlink:title="tune">
<polygon fill="none" stroke="black" points="507,-75.5 507,-93.5 542,-93.5 542,-75.5 507,-75.5"/>
<text text-anchor="middle" x="524.5" y="-82.3" font-family="Calibri" font-size="9.00">tune</text>
</a>
</g>
</g>
<!-- Node317&#45;&gt;Node320 -->
<g id="edge18" class="edge"><title>Node317&#45;&gt;Node320</title>
<path fill="none" stroke="midnightblue" d="M261.113,-72.4762C274.927,-75.1169 291.179,-77.8751 306,-79.5 380.528,-87.6705 470.247,-86.1765 506.791,-85.0932"/>
<polygon fill="midnightblue" stroke="midnightblue" points="261.576,-69.0003 251.088,-70.5005 260.223,-75.8682 261.576,-69.0003"/>
</g>
<!-- Node321 -->
<g id="node11" class="node"><title>Node321</title>
<g id="a_node11"><a xlink:href="main__main_8h.html#ab518a3d2c723f12d3af3024a195606ce" target="_top" xlink:title="sharp_cap">
<polygon fill="none" stroke="black" points="408,-0.5 408,-18.5 467,-18.5 467,-0.5 408,-0.5"/>
<text text-anchor="middle" x="437.5" y="-7.3" font-family="Calibri" font-size="9.00">sharp_cap</text>
</a>
</g>
</g>
<!-- Node317&#45;&gt;Node321 -->
<g id="edge14" class="edge"><title>Node317&#45;&gt;Node321</title>
<path fill="none" stroke="midnightblue" d="M243.711,-49.2633C258.339,-35.4065 281.516,-16.4928 306,-8.5 339.707,2.50369 380.973,-0.320074 407.958,-4.17739"/>
<polygon fill="midnightblue" stroke="midnightblue" points="241.19,-46.8343 236.51,-56.3398 246.096,-51.827 241.19,-46.8343"/>
</g>
<!-- Node322 -->
<g id="node12" class="node"><title>Node322</title>
<g id="a_node12"><a xlink:href="main__main_8h.html#a72210b3ed1d5691c5bbda8c7f1e97197" target="_top" xlink:title="sharp_ind">
<polygon fill="none" stroke="black" points="408.5,-132.5 408.5,-150.5 466.5,-150.5 466.5,-132.5 408.5,-132.5"/>
<text text-anchor="middle" x="437.5" y="-139.3" font-family="Calibri" font-size="9.00">sharp_ind</text>
</a>
</g>
</g>
<!-- Node317&#45;&gt;Node322 -->
<g id="edge16" class="edge"><title>Node317&#45;&gt;Node322</title>
<path fill="none" stroke="midnightblue" d="M246.799,-81.2425C261.871,-93.0361 284.06,-108.611 306,-117.5 339.627,-131.124 381.273,-137.068 408.343,-139.626"/>
<polygon fill="midnightblue" stroke="midnightblue" points="248.79,-78.3522 238.803,-74.8147 244.404,-83.8079 248.79,-78.3522"/>
</g>
<!-- Node318&#45;&gt;Node319 -->
<g id="edge11" class="edge"><title>Node318&#45;&gt;Node319</title>
<path fill="none" stroke="midnightblue" d="M370.959,-40.2151C384.728,-45.5269 400.411,-51.5773 412.983,-56.4275"/>
<polygon fill="midnightblue" stroke="midnightblue" points="371.933,-36.8394 361.343,-36.5055 369.413,-43.3703 371.933,-36.8394"/>
</g>
<!-- Node319&#45;&gt;Node320 -->
<g id="edge12" class="edge"><title>Node319&#45;&gt;Node320</title>
<path fill="none" stroke="midnightblue" d="M480.982,-74.9959C490.145,-77.0441 499.309,-79.0925 506.77,-80.7604"/>
<polygon fill="midnightblue" stroke="midnightblue" points="481.643,-71.5574 471.12,-72.7916 480.116,-78.3888 481.643,-71.5574"/>
</g>
<!-- Node321&#45;&gt;Node320 -->
<g id="edge15" class="edge"><title>Node321&#45;&gt;Node320</title>
<path fill="none" stroke="midnightblue" d="M456.662,-25.5249C473.921,-40.7538 499.258,-63.1103 513.258,-75.4626"/>
<polygon fill="midnightblue" stroke="midnightblue" points="458.737,-22.6883 448.923,-18.6965 454.105,-27.9372 458.737,-22.6883"/>
</g>
<!-- Node322&#45;&gt;Node320 -->
<g id="edge17" class="edge"><title>Node322&#45;&gt;Node320</title>
<path fill="none" stroke="midnightblue" d="M460.694,-126.617C476.28,-116.165 496.63,-102.519 509.877,-93.6353"/>
<polygon fill="midnightblue" stroke="midnightblue" points="458.513,-123.865 452.157,-132.342 462.412,-129.679 458.513,-123.865"/>
</g>
</g>
</svg>
        <g id="navigator" transform="translate(0 0)" fill="#404254">
                <rect fill="#f2f5e9" fill-opacity="0.5" stroke="#606060" stroke-width=".5" x="0" y="0" width="60" height="60"/>
                <use id="zoomplus" xlink:href="#zoomPlus" x="17" y="9" onmousedown="handleZoom(evt,'in')"/>
                <use id="zoomminus" xlink:href="#zoomMin" x="42" y="9" onmousedown="handleZoom(evt,'out')"/>
                <use id="reset" xlink:href="#resetDef" x="30" y="36" onmousedown="handleReset()"/>
                <g id="arrowUp" xlink:href="#dirArrow" transform="translate(30 24)" onmousedown="handlePan(0,-1)">
                  <use xlink:href="#rim" fill="#404040">
                        <set attributeName="fill" to="#808080" begin="arrowUp.mouseover" end="arrowUp.mouseout"/>
                  </use>
                  <path fill="none" stroke="white" stroke-width="1.5" d="M0,-3.0v7 M-2.5,-0.5L0,-3.0L2.5,-0.5"/>
                </g>
                <g id="arrowRight" xlink:href="#dirArrow" transform="rotate(90) translate(36 -43)" onmousedown="handlePan(1,0)">
                  <use xlink:href="#rim" fill="#404040">
                        <set attributeName="fill" to="#808080" begin="arrowRight.mouseover" end="arrowRight.mouseout"/>
                  </use>
                  <path fill="none" stroke="white" stroke-width="1.5" d="M0,-3.0v7 M-2.5,-0.5L0,-3.0L2.5,-0.5"/>
                </g>
                <g id="arrowDown" xlink:href="#dirArrow" transform="rotate(180) translate(-30 -48)" onmousedown="handlePan(0,1)">
                  <use xlink:href="#rim" fill="#404040">
                        <set attributeName="fill" to="#808080" begin="arrowDown.mouseover" end="arrowDown.mouseout"/>
                  </use>
                  <path fill="none" stroke="white" stroke-width="1.5" d="M0,-3.0v7 M-2.5,-0.5L0,-3.0L2.5,-0.5"/>
                </g>
                <g id="arrowLeft" xlink:href="#dirArrow" transform="rotate(270) translate(-36 17)" onmousedown="handlePan(-1,0)">
                  <use xlink:href="#rim" fill="#404040">
                        <set attributeName="fill" to="#808080" begin="arrowLeft.mouseover" end="arrowLeft.mouseout"/>
                  </use>
                  <path fill="none" stroke="white" stroke-width="1.5" d="M0,-3.0v7 M-2.5,-0.5L0,-3.0L2.5,-0.5"/>
                </g>
        </g>
        <svg viewBox="0 0 15 15" width="100%" height="30px" preserveAspectRatio="xMaxYMin meet">
         <g id="arrow_out" transform="scale(0.3 0.3)">
          <a xlink:href="main__main_8h_a236d4ed610f158cf424d552ac88e666c_icgraph_org.svg" target="_base">
           <rect id="button" ry="5" rx="5" y="6" x="6" height="38" width="38"
                fill="#f2f5e9" fill-opacity="0.5" stroke="#606060" stroke-width="1.0"/>
           <path id="arrow"
             d="M 11.500037,31.436501 C 11.940474,20.09759 22.043105,11.32322 32.158766,21.979434 L 37.068811,17.246167 C 37.068811,17.246167 37.088388,32 37.088388,32 L 22.160133,31.978069 C 22.160133,31.978069 26.997745,27.140456 26.997745,27.140456 C 18.528582,18.264221 13.291696,25.230495 11.500037,31.436501 z"
             style="fill:#404040;"/>
          </a>
         </g>
        </svg>
</svg>
