<?xml version="1.0" encoding="UTF-8" standalone="no"?>
<!DOCTYPE svg PUBLIC "-//W3C//DTD SVG 1.1//EN"
 "http://www.w3.org/Graphics/SVG/1.1/DTD/svg11.dtd">
<!-- Generated by graphviz version 2.38.0 (20140413.2041)
 -->
<!-- Title: coarse_cap Pages: 1 -->
<!--zoomable 442 -->
<svg id="main" version="1.1" xmlns="http://www.w3.org/2000/svg" xmlns:xlink="http://www.w3.org/1999/xlink" xml:space="preserve" onload="init(evt)">
<style type="text/css"><![CDATA[
.edge:hover path { stroke: red; }
.edge:hover polygon { stroke: red; fill: red; }
]]></style>
<script type="text/javascript"><![CDATA[
var edges = document.getElementsByTagName('g');
if (edges && edges.length) {
  for (var i=0;i<edges.length;i++) {
    if (edges[i].id.substr(0,4)=='edge') {
      edges[i].setAttribute('class','edge');
    }
  }
}
]]></script>
        <defs>
                <circle id="rim" cx="0" cy="0" r="7"/>
                <circle id="rim2" cx="0" cy="0" r="3.5"/>
                <g id="zoomPlus">
                        <use xlink:href="#rim" fill="#404040">
                                <set attributeName="fill" to="#808080" begin="zoomplus.mouseover" end="zoomplus.mouseout"/>
                        </use>
                        <path d="M-4,0h8M0,-4v8" fill="none" stroke="white" stroke-width="1.5" pointer-events="none"/>
                </g>
                <g id="zoomMin">
                        <use xlink:href="#rim" fill="#404040">
                                <set attributeName="fill" to="#808080" begin="zoomminus.mouseover" end="zoomminus.mouseout"/>
                        </use>
                        <path d="M-4,0h8" fill="none" stroke="white" stroke-width="1.5" pointer-events="none"/>
                </g>
                <g id="dirArrow">
                        <path fill="none" stroke="white" stroke-width="1.5" d="M0,-3.0v7 M-2.5,-0.5L0,-3.0L2.5,-0.5"/>
                </g>
               <g id="resetDef">
                       <use xlink:href="#rim2" fill="#404040">
                               <set attributeName="fill" to="#808080" begin="reset.mouseover" end="reset.mouseout"/>
                       </use>
               </g>
        </defs>

<script type="text/javascript">
var viewWidth = 979;
var viewHeight = 442;
var sectionId = 'dynsection-11';
</script>
<script xlink:href="svgpan.js"/>
<svg id="graph" class="graph">
<g id="viewport">
<title>coarse_cap</title>
<!-- Node1 -->
<g id="node1" class="node"><title>Node1</title>
<g id="a_node1"><a xlink:title=" ">
<polygon fill="#bfbfbf" stroke="black" points="0,-299.455 0,-317.455 62,-317.455 62,-299.455 0,-299.455"/>
<text text-anchor="middle" x="31" y="-306.255" font-family="Calibri" font-size="9.00">coarse_cap</text>
</a>
</g>
</g>
<!-- Node2 -->
<g id="node2" class="node"><title>Node2</title>
<g id="a_node2"><a xlink:href="main_8h.html#ad7eb7423e0b17ccfba1ae42f3a3274e0" target="_top" xlink:title=" ">
<polygon fill="none" stroke="black" points="98,-186.455 98,-204.455 146,-204.455 146,-186.455 98,-186.455"/>
<text text-anchor="middle" x="122" y="-193.255" font-family="Calibri" font-size="9.00">get_swr</text>
</a>
</g>
</g>
<!-- Node1&#45;&gt;Node2 -->
<g id="edge1" class="edge"><title>Node1&#45;&gt;Node2</title>
<path fill="none" stroke="midnightblue" d="M39.2832,-299.208C54.2209,-280.242 88.5209,-236.693 107.592,-212.479"/>
<polygon fill="midnightblue" stroke="midnightblue" points="110.427,-214.536 113.865,-204.515 104.928,-210.205 110.427,-214.536"/>
</g>
<!-- Node19 -->
<g id="node19" class="node"><title>Node19</title>
<g id="a_node19"><a xlink:href="main_8h.html#a2a7963b9b09696c6654b96c67900c6ea" target="_top" xlink:title=" ">
<polygon fill="none" stroke="black" points="385.5,-399.455 385.5,-417.455 433.5,-417.455 433.5,-399.455 385.5,-399.455"/>
<text text-anchor="middle" x="409.5" y="-406.255" font-family="Calibri" font-size="9.00">set_cap</text>
</a>
</g>
</g>
<!-- Node1&#45;&gt;Node19 -->
<g id="edge48" class="edge"><title>Node1&#45;&gt;Node19</title>
<path fill="none" stroke="midnightblue" d="M62.1741,-316.47C131.694,-334.935 302.722,-380.36 375.189,-399.608"/>
<polygon fill="midnightblue" stroke="midnightblue" points="374.578,-403.067 385.142,-402.251 376.375,-396.301 374.578,-403.067"/>
</g>
<!-- Node3 -->
<g id="node3" class="node"><title>Node3</title>
<g id="a_node3"><a xlink:href="main_8h.html#ab37ca657b79c6b9176cb63e9d812a182" target="_top" xlink:title=" ">
<polygon fill="none" stroke="black" points="385,-96.4554 385,-114.455 434,-114.455 434,-96.4554 385,-96.4554"/>
<text text-anchor="middle" x="409.5" y="-103.255" font-family="Calibri" font-size="9.00">get_pwr</text>
</a>
</g>
</g>
<!-- Node2&#45;&gt;Node3 -->
<g id="edge2" class="edge"><title>Node2&#45;&gt;Node3</title>
<path fill="none" stroke="midnightblue" d="M146.364,-188.09C196.868,-172.17 316.368,-134.499 374.949,-116.032"/>
<polygon fill="midnightblue" stroke="midnightblue" points="376.328,-119.267 384.814,-112.922 374.224,-112.591 376.328,-119.267"/>
</g>
<!-- Node7 -->
<g id="node7" class="node"><title>Node7</title>
<g id="a_node7"><a xlink:href="main_8c.html#a4ae0d4fa97fc0ca3611813fee4f9af7c" target="_top" xlink:title=" ">
<polygon fill="none" stroke="black" points="380.5,-20.4554 380.5,-38.4554 438.5,-38.4554 438.5,-20.4554 380.5,-20.4554"/>
<text text-anchor="middle" x="409.5" y="-27.2554" font-family="Calibri" font-size="9.00">show_pwr</text>
</a>
</g>
</g>
<!-- Node2&#45;&gt;Node7 -->
<g id="edge6" class="edge"><title>Node2&#45;&gt;Node7</title>
<path fill="none" stroke="midnightblue" d="M130.095,-186.314C150.551,-160.665 212.629,-87.673 282,-53.4554 309.663,-39.8104 344.258,-33.9022 370.274,-31.3547"/>
<polygon fill="midnightblue" stroke="midnightblue" points="370.833,-34.8199 380.498,-30.4817 370.237,-27.8452 370.833,-34.8199"/>
</g>
<!-- Node16 -->
<g id="node16" class="node"><title>Node16</title>
<g id="a_node16"><a xlink:href="main_8c.html#a11724d8cce81ed96bec12a004ea3ea7a" target="_top" xlink:title=" ">
<polygon fill="none" stroke="black" points="182,-239.455 182,-257.455 246,-257.455 246,-239.455 182,-239.455"/>
<text text-anchor="middle" x="214" y="-246.255" font-family="Calibri" font-size="9.00">show_reset</text>
</a>
</g>
</g>
<!-- Node2&#45;&gt;Node16 -->
<g id="edge21" class="edge"><title>Node2&#45;&gt;Node16</title>
<path fill="none" stroke="midnightblue" d="M138.677,-204.687C152.486,-212.819 172.819,-224.793 188.729,-234.163"/>
<polygon fill="midnightblue" stroke="midnightblue" points="187.11,-237.271 197.503,-239.329 190.662,-231.239 187.11,-237.271"/>
</g>
<!-- Node4 -->
<g id="node4" class="node"><title>Node4</title>
<g id="a_node4"><a xlink:href="main_8h.html#ab19e6e081315a9a200394b74d10de395" target="_top" xlink:title=" ">
<polygon fill="none" stroke="black" points="485,-133.455 485,-151.455 542,-151.455 542,-133.455 485,-133.455"/>
<text text-anchor="middle" x="513.5" y="-140.255" font-family="Calibri" font-size="9.00">correction</text>
</a>
</g>
</g>
<!-- Node3&#45;&gt;Node4 -->
<g id="edge3" class="edge"><title>Node3&#45;&gt;Node4</title>
<path fill="none" stroke="midnightblue" d="M434.157,-114.037C447.163,-118.755 463.538,-124.695 477.95,-129.922"/>
<polygon fill="midnightblue" stroke="midnightblue" points="476.954,-133.284 487.548,-133.404 479.341,-126.704 476.954,-133.284"/>
</g>
<!-- Node5 -->
<g id="node5" class="node"><title>Node5</title>
<g id="a_node5"><a xlink:href="main_8h.html#acfd46f8711e9c1c20fffdfc8bdaa0ddd" target="_top" xlink:title=" ">
<polygon fill="none" stroke="black" points="481,-96.4554 481,-114.455 546,-114.455 546,-96.4554 481,-96.4554"/>
<text text-anchor="middle" x="513.5" y="-103.255" font-family="Calibri" font-size="9.00">get_forward</text>
</a>
</g>
</g>
<!-- Node3&#45;&gt;Node5 -->
<g id="edge4" class="edge"><title>Node3&#45;&gt;Node5</title>
<path fill="none" stroke="midnightblue" d="M434.157,-105.455C445.008,-105.455 458.203,-105.455 470.647,-105.455"/>
<polygon fill="midnightblue" stroke="midnightblue" points="470.855,-108.955 480.855,-105.455 470.855,-101.955 470.855,-108.955"/>
</g>
<!-- Node6 -->
<g id="node6" class="node"><title>Node6</title>
<g id="a_node6"><a xlink:href="main_8h.html#aa6b9a2b3d88f578ba6a9fefd911eae75" target="_top" xlink:title=" ">
<polygon fill="none" stroke="black" points="481.5,-59.4554 481.5,-77.4554 545.5,-77.4554 545.5,-59.4554 481.5,-59.4554"/>
<text text-anchor="middle" x="513.5" y="-66.2554" font-family="Calibri" font-size="9.00">get_reverse</text>
</a>
</g>
</g>
<!-- Node3&#45;&gt;Node6 -->
<g id="edge5" class="edge"><title>Node3&#45;&gt;Node6</title>
<path fill="none" stroke="midnightblue" d="M434.157,-96.8738C447.163,-92.1559 463.538,-86.2161 477.95,-80.9883"/>
<polygon fill="midnightblue" stroke="midnightblue" points="479.341,-84.2069 487.548,-77.5066 476.954,-77.6265 479.341,-84.2069"/>
</g>
<!-- Node8 -->
<g id="node8" class="node"><title>Node8</title>
<g id="a_node8"><a xlink:href="main_8c.html#a6911b3f075cdf1d54cb14f17f6e5ef6b" target="_top" xlink:title=" ">
<polygon fill="none" stroke="black" points="490,-22.4554 490,-40.4554 537,-40.4554 537,-22.4554 490,-22.4554"/>
<text text-anchor="middle" x="513.5" y="-29.2554" font-family="Calibri" font-size="9.00">lcd_ind</text>
</a>
</g>
</g>
<!-- Node7&#45;&gt;Node8 -->
<g id="edge7" class="edge"><title>Node7&#45;&gt;Node8</title>
<path fill="none" stroke="midnightblue" d="M438.642,-30.0072C451.391,-30.2572 466.543,-30.5542 479.795,-30.8141"/>
<polygon fill="midnightblue" stroke="midnightblue" points="479.866,-34.3161 489.933,-31.0129 480.004,-27.3174 479.866,-34.3161"/>
</g>
<!-- Node9 -->
<g id="node9" class="node"><title>Node9</title>
<g id="a_node9"><a xlink:href="oled__control_8c.html#a1c8eef09adf01c9a7e3c6188f25c3c48" target="_top" xlink:title=" ">
<polygon fill="none" stroke="black" points="582,-171.455 582,-189.455 641,-189.455 641,-171.455 582,-171.455"/>
<text text-anchor="middle" x="611.5" y="-178.255" font-family="Calibri" font-size="9.00">led_wr_str</text>
</a>
</g>
</g>
<!-- Node7&#45;&gt;Node9 -->
<g id="edge20" class="edge"><title>Node7&#45;&gt;Node9</title>
<path fill="none" stroke="midnightblue" d="M428.094,-20.3143C455.777,-7.33939 510.048,12.2526 546,-12.4554 595.72,-46.625 607.131,-124.834 609.737,-161.202"/>
<polygon fill="midnightblue" stroke="midnightblue" points="606.256,-161.643 610.311,-171.431 613.245,-161.251 606.256,-161.643"/>
</g>
<!-- Node8&#45;&gt;Node9 -->
<g id="edge8" class="edge"><title>Node8&#45;&gt;Node9</title>
<path fill="none" stroke="midnightblue" d="M534.456,-40.4654C538.613,-42.9646 542.721,-45.9678 546,-49.4554 577.287,-82.7323 596.484,-134.059 605.111,-161.544"/>
<polygon fill="midnightblue" stroke="midnightblue" points="601.853,-162.865 608.079,-171.437 608.558,-160.853 601.853,-162.865"/>
</g>
<!-- Node10 -->
<g id="node10" class="node"><title>Node10</title>
<g id="a_node10"><a xlink:href="oled__control_8c.html#a3d35666326cc069eda3b63c70983fdbc" target="_top" xlink:title=" ">
<polygon fill="none" stroke="black" points="791,-211.455 791,-229.455 846,-229.455 846,-211.455 791,-211.455"/>
<text text-anchor="middle" x="818.5" y="-218.255" font-family="Calibri" font-size="9.00">led_send</text>
</a>
</g>
</g>
<!-- Node9&#45;&gt;Node10 -->
<g id="edge9" class="edge"><title>Node9&#45;&gt;Node10</title>
<path fill="none" stroke="midnightblue" d="M641.218,-189.245C652.324,-192.439 665.184,-195.891 677,-198.455 712.027,-206.058 752.509,-212.113 780.996,-215.93"/>
<polygon fill="midnightblue" stroke="midnightblue" points="780.545,-219.401 790.916,-217.234 781.458,-212.461 780.545,-219.401"/>
</g>
<!-- Node14 -->
<g id="node14" class="node"><title>Node14</title>
<g id="a_node14"><a xlink:href="oled__control_8c.html#a6e85fd05697e2238e4d9babf1c952772" target="_top" xlink:title=" ">
<polygon fill="none" stroke="black" points="677,-171.455 677,-189.455 742,-189.455 742,-171.455 677,-171.455"/>
<text text-anchor="middle" x="709.5" y="-178.255" font-family="Calibri" font-size="9.00">oled_wr_str</text>
</a>
</g>
</g>
<!-- Node9&#45;&gt;Node14 -->
<g id="edge13" class="edge"><title>Node9&#45;&gt;Node14</title>
<path fill="none" stroke="midnightblue" d="M641.043,-180.455C649.147,-180.455 658.142,-180.455 666.852,-180.455"/>
<polygon fill="midnightblue" stroke="midnightblue" points="666.877,-183.955 676.877,-180.455 666.877,-176.955 666.877,-183.955"/>
</g>
<!-- Node11 -->
<g id="node11" class="node"><title>Node11</title>
<g id="a_node11"><a xlink:href="oled__control_8c.html#ab7f6b5c6c1483f6286f2de5786c028d9" target="_top" xlink:title=" ">
<polygon fill="none" stroke="black" points="897,-192.455 897,-210.455 969,-210.455 969,-192.455 897,-192.455"/>
<text text-anchor="middle" x="933" y="-199.255" font-family="Calibri" font-size="9.00">Soft_I2C_Start</text>
</a>
</g>
</g>
<!-- Node10&#45;&gt;Node11 -->
<g id="edge10" class="edge"><title>Node10&#45;&gt;Node11</title>
<path fill="none" stroke="midnightblue" d="M846.161,-215.953C858.173,-213.924 872.703,-211.47 886.365,-209.163"/>
<polygon fill="midnightblue" stroke="midnightblue" points="887.31,-212.553 896.588,-207.436 886.144,-205.65 887.31,-212.553"/>
</g>
<!-- Node12 -->
<g id="node12" class="node"><title>Node12</title>
<g id="a_node12"><a xlink:href="oled__control_8c.html#a16eb842aa672ca44820ae6d5f9933425" target="_top" xlink:title=" ">
<polygon fill="none" stroke="black" points="897.5,-248.455 897.5,-266.455 968.5,-266.455 968.5,-248.455 897.5,-248.455"/>
<text text-anchor="middle" x="933" y="-255.255" font-family="Calibri" font-size="9.00">Soft_I2C_Stop</text>
</a>
</g>
</g>
<!-- Node10&#45;&gt;Node12 -->
<g id="edge11" class="edge"><title>Node10&#45;&gt;Node12</title>
<path fill="none" stroke="midnightblue" d="M846.161,-229.224C860.689,-234.002 878.899,-239.991 894.804,-245.222"/>
<polygon fill="midnightblue" stroke="midnightblue" points="893.763,-248.564 904.356,-248.363 895.95,-241.914 893.763,-248.564"/>
</g>
<!-- Node13 -->
<g id="node13" class="node"><title>Node13</title>
<g id="a_node13"><a xlink:href="oled__control_8c.html#a73610916645f17c19124e697b005f694" target="_top" xlink:title=" ">
<polygon fill="none" stroke="black" points="895,-145.455 895,-163.455 971,-163.455 971,-145.455 895,-145.455"/>
<text text-anchor="middle" x="933" y="-152.255" font-family="Calibri" font-size="9.00">Soft_I2C_Write</text>
</a>
</g>
</g>
<!-- Node10&#45;&gt;Node13 -->
<g id="edge12" class="edge"><title>Node10&#45;&gt;Node13</title>
<path fill="none" stroke="midnightblue" d="M835.143,-211.278C853.949,-200.245 885.724,-181.604 907.726,-168.696"/>
<polygon fill="midnightblue" stroke="midnightblue" points="909.636,-171.633 916.49,-163.554 906.094,-165.596 909.636,-171.633"/>
</g>
<!-- Node14&#45;&gt;Node11 -->
<g id="edge17" class="edge"><title>Node14&#45;&gt;Node11</title>
<path fill="none" stroke="midnightblue" d="M742.236,-183.464C780.03,-187.047 843.441,-193.059 886.462,-197.138"/>
<polygon fill="midnightblue" stroke="midnightblue" points="886.376,-200.645 896.662,-198.105 887.037,-193.677 886.376,-200.645"/>
</g>
<!-- Node14&#45;&gt;Node12 -->
<g id="edge18" class="edge"><title>Node14&#45;&gt;Node12</title>
<path fill="none" stroke="midnightblue" d="M715.635,-189.774C728,-211.819 759.752,-266.036 778,-275.455 817.669,-295.932 870.571,-282.324 902.913,-270.199"/>
<polygon fill="midnightblue" stroke="midnightblue" points="904.229,-273.443 912.252,-266.523 901.665,-266.929 904.229,-273.443"/>
</g>
<!-- Node14&#45;&gt;Node13 -->
<g id="edge19" class="edge"><title>Node14&#45;&gt;Node13</title>
<path fill="none" stroke="midnightblue" d="M718.037,-171.203C729.408,-158.062 752.365,-134.577 778,-125.455 821.019,-110.148 873.824,-127.377 905.092,-141.059"/>
<polygon fill="midnightblue" stroke="midnightblue" points="903.897,-144.361 914.448,-145.331 906.805,-137.994 903.897,-144.361"/>
</g>
<!-- Node15 -->
<g id="node15" class="node"><title>Node15</title>
<g id="a_node15"><a xlink:href="oled__control_8c.html#a3cf32ac4d3d7c92be54c385c1ed8cc76" target="_top" xlink:title=" ">
<polygon fill="none" stroke="black" points="778.5,-135.455 778.5,-153.455 858.5,-153.455 858.5,-135.455 778.5,-135.455"/>
<text text-anchor="middle" x="818.5" y="-142.255" font-family="Calibri" font-size="9.00">set_addressing</text>
</a>
</g>
</g>
<!-- Node14&#45;&gt;Node15 -->
<g id="edge14" class="edge"><title>Node14&#45;&gt;Node15</title>
<path fill="none" stroke="midnightblue" d="M737.501,-171.371C750.68,-166.937 766.729,-161.537 780.984,-156.741"/>
<polygon fill="midnightblue" stroke="midnightblue" points="782.146,-160.043 790.508,-153.537 779.914,-153.408 782.146,-160.043"/>
</g>
<!-- Node15&#45;&gt;Node11 -->
<g id="edge15" class="edge"><title>Node15&#45;&gt;Node11</title>
<path fill="none" stroke="midnightblue" d="M837.326,-153.487C855.486,-162.688 883.881,-177.075 904.841,-187.695"/>
<polygon fill="midnightblue" stroke="midnightblue" points="903.383,-190.879 913.885,-192.277 906.546,-184.635 903.383,-190.879"/>
</g>
<!-- Node15&#45;&gt;Node13 -->
<g id="edge16" class="edge"><title>Node15&#45;&gt;Node13</title>
<path fill="none" stroke="midnightblue" d="M858.531,-147.925C867.015,-148.679 876.078,-149.485 884.838,-150.263"/>
<polygon fill="midnightblue" stroke="midnightblue" points="884.66,-153.761 894.931,-151.16 885.28,-146.789 884.66,-153.761"/>
</g>
<!-- Node16&#45;&gt;Node8 -->
<g id="edge28" class="edge"><title>Node16&#45;&gt;Node8</title>
<path fill="none" stroke="midnightblue" d="M221.879,-239.079C242.234,-211.924 305.067,-132.249 374,-86.4554 407.156,-64.4288 450.486,-49.0118 479.785,-40.2159"/>
<polygon fill="midnightblue" stroke="midnightblue" points="480.9,-43.5366 489.523,-37.3808 478.943,-36.8156 480.9,-43.5366"/>
</g>
<!-- Node16&#45;&gt;Node9 -->
<g id="edge46" class="edge"><title>Node16&#45;&gt;Node9</title>
<path fill="none" stroke="midnightblue" d="M219,-257.588C228.084,-277.634 251.84,-326.337 282,-359.455 334.852,-417.492 369.08,-447.4 445,-427.455 494.853,-414.359 513.106,-410.138 546,-370.455 588.928,-318.667 603.794,-236.902 608.507,-199.85"/>
<polygon fill="midnightblue" stroke="midnightblue" points="612.033,-199.821 609.703,-189.485 605.079,-199.018 612.033,-199.821"/>
</g>
<!-- Node17 -->
<g id="node17" class="node"><title>Node17</title>
<g id="a_node17"><a xlink:href="main_8h.html#a9dff326a6079fe726285b11ee837ad60" target="_top" xlink:title=" ">
<polygon fill="none" stroke="black" points="282,-332.455 282,-350.455 338,-350.455 338,-332.455 282,-332.455"/>
<text text-anchor="middle" x="310" y="-339.255" font-family="Calibri" font-size="9.00">atu_reset</text>
</a>
</g>
</g>
<!-- Node16&#45;&gt;Node17 -->
<g id="edge22" class="edge"><title>Node16&#45;&gt;Node17</title>
<path fill="none" stroke="midnightblue" d="M224.357,-257.713C240.263,-273.45 272.77,-305.611 292.547,-325.177"/>
<polygon fill="midnightblue" stroke="midnightblue" points="290.111,-327.691 299.681,-332.236 295.034,-322.714 290.111,-327.691"/>
</g>
<!-- Node21 -->
<g id="node21" class="node"><title>Node21</title>
<g id="a_node21"><a xlink:href="main_8c.html#ae5a14b4884e85f47ad8a4a716f13203a" target="_top" xlink:title=" ">
<polygon fill="none" stroke="black" points="286,-224.455 286,-242.455 334,-242.455 334,-224.455 286,-224.455"/>
<text text-anchor="middle" x="310" y="-231.255" font-family="Calibri" font-size="9.00">lcd_pwr</text>
</a>
</g>
</g>
<!-- Node16&#45;&gt;Node21 -->
<g id="edge29" class="edge"><title>Node16&#45;&gt;Node21</title>
<path fill="none" stroke="midnightblue" d="M246.04,-243.502C255.543,-241.986 266.035,-240.311 275.684,-238.772"/>
<polygon fill="midnightblue" stroke="midnightblue" points="276.413,-242.2 285.737,-237.168 275.31,-235.287 276.413,-242.2"/>
</g>
<!-- Node26 -->
<g id="node26" class="node"><title>Node26</title>
<g id="a_node26"><a xlink:href="main_8h.html#aa3ee146d5fca99f368e8ddb5d5dd72cb" target="_top" xlink:title="Set the state of the switch.">
<polygon fill="none" stroke="black" points="387,-286.455 387,-304.455 432,-304.455 432,-286.455 387,-286.455"/>
<text text-anchor="middle" x="409.5" y="-293.255" font-family="Calibri" font-size="9.00">set_sw</text>
</a>
</g>
</g>
<!-- Node16&#45;&gt;Node26 -->
<g id="edge47" class="edge"><title>Node16&#45;&gt;Node26</title>
<path fill="none" stroke="midnightblue" d="M246.089,-256.007C281.968,-264.722 340.659,-278.977 376.796,-287.755"/>
<polygon fill="midnightblue" stroke="midnightblue" points="376.251,-291.224 386.795,-290.183 377.903,-284.422 376.251,-291.224"/>
</g>
<!-- Node18 -->
<g id="node18" class="node"><title>Node18</title>
<g id="a_node18"><a xlink:href="main_8h.html#a85fb3ccca120f3b843a1dc7567908a04" target="_top" xlink:title=" ">
<polygon fill="none" stroke="black" points="485.5,-342.455 485.5,-360.455 541.5,-360.455 541.5,-342.455 485.5,-342.455"/>
<text text-anchor="middle" x="513.5" y="-349.255" font-family="Calibri" font-size="9.00">delay_ms</text>
</a>
</g>
</g>
<!-- Node17&#45;&gt;Node18 -->
<g id="edge23" class="edge"><title>Node17&#45;&gt;Node18</title>
<path fill="none" stroke="midnightblue" d="M338.201,-346.158C349.271,-347.858 362.211,-349.575 374,-350.455 408.233,-353.012 447.357,-353.029 475.271,-352.542"/>
<polygon fill="midnightblue" stroke="midnightblue" points="475.46,-356.039 485.386,-352.336 475.317,-349.041 475.46,-356.039"/>
</g>
<!-- Node17&#45;&gt;Node19 -->
<g id="edge24" class="edge"><title>Node17&#45;&gt;Node19</title>
<path fill="none" stroke="midnightblue" d="M324.149,-350.491C340.214,-361.53 367.618,-380.362 386.82,-393.557"/>
<polygon fill="midnightblue" stroke="midnightblue" points="385.024,-396.57 395.248,-399.349 388.988,-390.801 385.024,-396.57"/>
</g>
<!-- Node20 -->
<g id="node20" class="node"><title>Node20</title>
<g id="a_node20"><a xlink:href="main_8h.html#aecc83cd8bceb4bc24be844732ead2c2c" target="_top" xlink:title=" ">
<polygon fill="none" stroke="black" points="386,-323.455 386,-341.455 433,-341.455 433,-323.455 386,-323.455"/>
<text text-anchor="middle" x="409.5" y="-330.255" font-family="Calibri" font-size="9.00">set_ind</text>
</a>
</g>
</g>
<!-- Node17&#45;&gt;Node20 -->
<g id="edge26" class="edge"><title>Node17&#45;&gt;Node20</title>
<path fill="none" stroke="midnightblue" d="M338.159,-338.948C349.752,-337.878 363.385,-336.62 375.548,-335.497"/>
<polygon fill="midnightblue" stroke="midnightblue" points="376.133,-338.958 385.769,-334.554 375.49,-331.988 376.133,-338.958"/>
</g>
<!-- Node19&#45;&gt;Node18 -->
<g id="edge25" class="edge"><title>Node19&#45;&gt;Node18</title>
<path fill="none" stroke="midnightblue" d="M426.888,-399.297C443.171,-390.198 468.367,-376.118 487.216,-365.585"/>
<polygon fill="midnightblue" stroke="midnightblue" points="489.131,-368.524 496.153,-360.591 485.716,-362.414 489.131,-368.524"/>
</g>
<!-- Node20&#45;&gt;Node18 -->
<g id="edge27" class="edge"><title>Node20&#45;&gt;Node18</title>
<path fill="none" stroke="midnightblue" d="M433.137,-336.672C445.511,-338.977 461.151,-341.89 475.269,-344.52"/>
<polygon fill="midnightblue" stroke="midnightblue" points="474.74,-347.982 485.212,-346.372 476.022,-341.1 474.74,-347.982"/>
</g>
<!-- Node21&#45;&gt;Node3 -->
<g id="edge37" class="edge"><title>Node21&#45;&gt;Node3</title>
<path fill="none" stroke="midnightblue" d="M314.961,-224.261C323.573,-205.018 345.537,-159.775 374,-129.455 377.034,-126.224 380.57,-123.174 384.201,-120.403"/>
<polygon fill="midnightblue" stroke="midnightblue" points="386.466,-123.089 392.648,-114.484 382.449,-117.356 386.466,-123.089"/>
</g>
<!-- Node21&#45;&gt;Node7 -->
<g id="edge45" class="edge"><title>Node21&#45;&gt;Node7</title>
<path fill="none" stroke="midnightblue" d="M314.408,-224.306C323.238,-200.892 347.989,-137.085 374,-86.4554 380.95,-72.9271 389.862,-58.2589 396.887,-47.1906"/>
<polygon fill="midnightblue" stroke="midnightblue" points="400.006,-48.812 402.478,-38.5096 394.121,-45.0217 400.006,-48.812"/>
</g>
<!-- Node21&#45;&gt;Node9 -->
<g id="edge40" class="edge"><title>Node21&#45;&gt;Node9</title>
<path fill="none" stroke="midnightblue" d="M315.709,-224.291C324.572,-208.185 345.443,-175.295 374,-162.455 391.529,-154.574 509.278,-167.762 571.744,-175.48"/>
<polygon fill="midnightblue" stroke="midnightblue" points="571.643,-178.994 582,-176.759 572.51,-172.048 571.643,-178.994"/>
</g>
<!-- Node21&#45;&gt;Node19 -->
<g id="edge41" class="edge"><title>Node21&#45;&gt;Node19</title>
<path fill="none" stroke="midnightblue" d="M315.77,-242.63C326.114,-262.455 351.491,-310.708 374,-350.455 381.668,-363.995 390.665,-379.097 397.549,-390.496"/>
<polygon fill="midnightblue" stroke="midnightblue" points="394.58,-392.349 402.758,-399.084 400.565,-388.719 394.58,-392.349"/>
</g>
<!-- Node21&#45;&gt;Node20 -->
<g id="edge42" class="edge"><title>Node21&#45;&gt;Node20</title>
<path fill="none" stroke="midnightblue" d="M316.452,-242.584C326.325,-258.536 348.522,-291.84 374,-313.455 375.779,-314.965 377.697,-316.41 379.685,-317.78"/>
<polygon fill="midnightblue" stroke="midnightblue" points="378.285,-321.028 388.637,-323.282 381.95,-315.064 378.285,-321.028"/>
</g>
<!-- Node22 -->
<g id="node22" class="node"><title>Node22</title>
<g id="a_node22"><a xlink:href="main_8c.html#a593218c5fe00b499d494826fc0aa5279" target="_top" xlink:title=" ">
<polygon fill="none" stroke="black" points="374,-172.455 374,-190.455 445,-190.455 445,-172.455 374,-172.455"/>
<text text-anchor="middle" x="409.5" y="-179.255" font-family="Calibri" font-size="9.00">button_delay</text>
</a>
</g>
</g>
<!-- Node21&#45;&gt;Node22 -->
<g id="edge30" class="edge"><title>Node21&#45;&gt;Node22</title>
<path fill="none" stroke="midnightblue" d="M327.983,-224.398C342.99,-216.394 365.112,-204.596 382.372,-195.391"/>
<polygon fill="midnightblue" stroke="midnightblue" points="384.208,-198.378 391.384,-190.584 380.914,-192.201 384.208,-198.378"/>
</g>
<!-- Node23 -->
<g id="node23" class="node"><title>Node23</title>
<g id="a_node23"><a xlink:href="oled__control_8c.html#a5febfdc847aa6f3bc3f3c8f7818b8699" target="_top" xlink:title=" ">
<polygon fill="none" stroke="black" points="678.5,-248.455 678.5,-266.455 740.5,-266.455 740.5,-248.455 678.5,-248.455"/>
<text text-anchor="middle" x="709.5" y="-255.255" font-family="Calibri" font-size="9.00">display_on</text>
</a>
</g>
</g>
<!-- Node21&#45;&gt;Node23 -->
<g id="edge31" class="edge"><title>Node21&#45;&gt;Node23</title>
<path fill="none" stroke="midnightblue" d="M334.29,-236.856C346.153,-238.475 360.82,-240.305 374,-241.455 479.945,-250.701 605.266,-254.903 668.185,-256.549"/>
<polygon fill="midnightblue" stroke="midnightblue" points="668.377,-260.054 678.462,-256.809 668.554,-253.057 668.377,-260.054"/>
</g>
<!-- Node25 -->
<g id="node25" class="node"><title>Node25</title>
<g id="a_node25"><a xlink:href="main_8c.html#aa8fd50019a763561abc6621bb224417f" target="_top" xlink:title=" ">
<polygon fill="none" stroke="black" points="490,-210.455 490,-228.455 537,-228.455 537,-210.455 490,-210.455"/>
<text text-anchor="middle" x="513.5" y="-217.255" font-family="Calibri" font-size="9.00">lcd_swr</text>
</a>
</g>
</g>
<!-- Node21&#45;&gt;Node25 -->
<g id="edge38" class="edge"><title>Node21&#45;&gt;Node25</title>
<path fill="none" stroke="midnightblue" d="M334.115,-231.849C369.966,-229.358 439.096,-224.555 479.971,-221.715"/>
<polygon fill="midnightblue" stroke="midnightblue" points="480.229,-225.206 489.963,-221.021 479.744,-218.223 480.229,-225.206"/>
</g>
<!-- Node21&#45;&gt;Node26 -->
<g id="edge43" class="edge"><title>Node21&#45;&gt;Node26</title>
<path fill="none" stroke="midnightblue" d="M325.386,-242.604C341.228,-252.677 366.92,-269.015 385.55,-280.862"/>
<polygon fill="midnightblue" stroke="midnightblue" points="383.738,-283.857 394.055,-286.27 387.494,-277.95 383.738,-283.857"/>
</g>
<!-- Node23&#45;&gt;Node10 -->
<g id="edge32" class="edge"><title>Node23&#45;&gt;Node10</title>
<path fill="none" stroke="midnightblue" d="M736.675,-248.404C750.147,-243.746 766.779,-237.994 781.447,-232.922"/>
<polygon fill="midnightblue" stroke="midnightblue" points="782.917,-236.117 791.224,-229.541 780.629,-229.502 782.917,-236.117"/>
</g>
<!-- Node24 -->
<g id="node24" class="node"><title>Node24</title>
<g id="a_node24"><a xlink:href="oled__control_8c.html#a78a346ba6e89c3140dd554a46e56c719" target="_top" xlink:title=" ">
<polygon fill="none" stroke="black" points="778,-248.455 778,-266.455 859,-266.455 859,-248.455 778,-248.455"/>
<text text-anchor="middle" x="818.5" y="-255.255" font-family="Calibri" font-size="9.00">send_command</text>
</a>
</g>
</g>
<!-- Node23&#45;&gt;Node24 -->
<g id="edge33" class="edge"><title>Node23&#45;&gt;Node24</title>
<path fill="none" stroke="midnightblue" d="M740.59,-257.455C748.944,-257.455 758.245,-257.455 767.413,-257.455"/>
<polygon fill="midnightblue" stroke="midnightblue" points="767.649,-260.955 777.649,-257.455 767.649,-253.955 767.649,-260.955"/>
</g>
<!-- Node24&#45;&gt;Node11 -->
<g id="edge34" class="edge"><title>Node24&#45;&gt;Node11</title>
<path fill="none" stroke="midnightblue" d="M838.425,-248.45C844.958,-245.316 852.313,-241.758 859,-238.455 874.423,-230.839 891.584,-222.151 905.391,-215.109"/>
<polygon fill="midnightblue" stroke="midnightblue" points="907.038,-218.198 914.35,-210.53 903.853,-211.965 907.038,-218.198"/>
</g>
<!-- Node24&#45;&gt;Node12 -->
<g id="edge35" class="edge"><title>Node24&#45;&gt;Node12</title>
<path fill="none" stroke="midnightblue" d="M859.163,-257.455C868.172,-257.455 877.804,-257.455 887.016,-257.455"/>
<polygon fill="midnightblue" stroke="midnightblue" points="887.182,-260.955 897.182,-257.455 887.182,-253.955 887.182,-260.955"/>
</g>
<!-- Node24&#45;&gt;Node13 -->
<g id="edge36" class="edge"><title>Node24&#45;&gt;Node13</title>
<path fill="none" stroke="midnightblue" d="M843.784,-248.374C849.149,-245.686 854.553,-242.387 859,-238.455 881.168,-218.859 874.893,-204.162 895,-182.455 899.278,-177.837 904.393,-173.428 909.435,-169.532"/>
<polygon fill="midnightblue" stroke="midnightblue" points="911.672,-172.233 917.69,-163.513 907.548,-166.577 911.672,-172.233"/>
</g>
<!-- Node25&#45;&gt;Node9 -->
<g id="edge39" class="edge"><title>Node25&#45;&gt;Node9</title>
<path fill="none" stroke="midnightblue" d="M536.766,-210.41C549.156,-205.376 564.795,-199.023 578.479,-193.464"/>
<polygon fill="midnightblue" stroke="midnightblue" points="580.075,-196.593 588.023,-189.587 577.441,-190.108 580.075,-196.593"/>
</g>
<!-- Node26&#45;&gt;Node18 -->
<g id="edge44" class="edge"><title>Node26&#45;&gt;Node18</title>
<path fill="none" stroke="midnightblue" d="M428.108,-304.505C433.544,-307.335 439.536,-310.493 445,-313.455 459.226,-321.168 474.991,-330.026 487.706,-337.248"/>
<polygon fill="midnightblue" stroke="midnightblue" points="486.337,-340.496 496.758,-342.406 489.802,-334.414 486.337,-340.496"/>
</g>
</g>
</svg>
        <g id="navigator" transform="translate(0 0)" fill="#404254">
                <rect fill="#f2f5e9" fill-opacity="0.5" stroke="#606060" stroke-width=".5" x="0" y="0" width="60" height="60"/>
                <use id="zoomplus" xlink:href="#zoomPlus" x="17" y="9" onmousedown="handleZoom(evt,'in')"/>
                <use id="zoomminus" xlink:href="#zoomMin" x="42" y="9" onmousedown="handleZoom(evt,'out')"/>
                <use id="reset" xlink:href="#resetDef" x="30" y="36" onmousedown="handleReset()"/>
                <g id="arrowUp" xlink:href="#dirArrow" transform="translate(30 24)" onmousedown="handlePan(0,-1)">
                  <use xlink:href="#rim" fill="#404040">
                        <set attributeName="fill" to="#808080" begin="arrowUp.mouseover" end="arrowUp.mouseout"/>
                  </use>
                  <path fill="none" stroke="white" stroke-width="1.5" d="M0,-3.0v7 M-2.5,-0.5L0,-3.0L2.5,-0.5"/>
                </g>
                <g id="arrowRight" xlink:href="#dirArrow" transform="rotate(90) translate(36 -43)" onmousedown="handlePan(1,0)">
                  <use xlink:href="#rim" fill="#404040">
                        <set attributeName="fill" to="#808080" begin="arrowRight.mouseover" end="arrowRight.mouseout"/>
                  </use>
                  <path fill="none" stroke="white" stroke-width="1.5" d="M0,-3.0v7 M-2.5,-0.5L0,-3.0L2.5,-0.5"/>
                </g>
                <g id="arrowDown" xlink:href="#dirArrow" transform="rotate(180) translate(-30 -48)" onmousedown="handlePan(0,1)">
                  <use xlink:href="#rim" fill="#404040">
                        <set attributeName="fill" to="#808080" begin="arrowDown.mouseover" end="arrowDown.mouseout"/>
                  </use>
                  <path fill="none" stroke="white" stroke-width="1.5" d="M0,-3.0v7 M-2.5,-0.5L0,-3.0L2.5,-0.5"/>
                </g>
                <g id="arrowLeft" xlink:href="#dirArrow" transform="rotate(270) translate(-36 17)" onmousedown="handlePan(-1,0)">
                  <use xlink:href="#rim" fill="#404040">
                        <set attributeName="fill" to="#808080" begin="arrowLeft.mouseover" end="arrowLeft.mouseout"/>
                  </use>
                  <path fill="none" stroke="white" stroke-width="1.5" d="M0,-3.0v7 M-2.5,-0.5L0,-3.0L2.5,-0.5"/>
                </g>
        </g>
        <svg viewBox="0 0 15 15" width="100%" height="30px" preserveAspectRatio="xMaxYMin meet">
         <g id="arrow_out" transform="scale(0.3 0.3)">
          <a xlink:href="main_8h_a740ef1b33bb02cd952ad7d8708999472_cgraph_org.svg" target="_base">
           <rect id="button" ry="5" rx="5" y="6" x="6" height="38" width="38"
                fill="#f2f5e9" fill-opacity="0.5" stroke="#606060" stroke-width="1.0"/>
           <path id="arrow"
             d="M 11.500037,31.436501 C 11.940474,20.09759 22.043105,11.32322 32.158766,21.979434 L 37.068811,17.246167 C 37.068811,17.246167 37.088388,32 37.088388,32 L 22.160133,31.978069 C 22.160133,31.978069 26.997745,27.140456 26.997745,27.140456 C 18.528582,18.264221 13.291696,25.230495 11.500037,31.436501 z"
             style="fill:#404040;"/>
          </a>
         </g>
        </svg>
</svg>
