<?xml version="1.0" encoding="UTF-8" standalone="no"?>
<!DOCTYPE svg PUBLIC "-//W3C//DTD SVG 1.1//EN"
 "http://www.w3.org/Graphics/SVG/1.1/DTD/svg11.dtd">
<!-- Generated by graphviz version 2.38.0 (20140413.2041)
 -->
<!-- Title: coarse_tune Pages: 1 -->
<svg width="1091pt" height="443pt"
 viewBox="0.00 0.00 1091.00 442.58" xmlns="http://www.w3.org/2000/svg" xmlns:xlink="http://www.w3.org/1999/xlink">
<g id="graph0" class="graph" transform="scale(1 1) rotate(0) translate(4 438.579)">
<title>coarse_tune</title>
<!-- Node138 -->
<g id="node1" class="node"><title>Node138</title>
<polygon fill="#bfbfbf" stroke="black" points="0,-210.079 0,-228.079 67,-228.079 67,-210.079 0,-210.079"/>
<text text-anchor="middle" x="33.5" y="-216.879" font-family="Calibri" font-size="9.00">coarse_tune</text>
</g>
<!-- Node139 -->
<g id="node2" class="node"><title>Node139</title>
<g id="a_node2"><a xlink:href="main__main_8h.html#a740ef1b33bb02cd952ad7d8708999472" target="_top" xlink:title="coarse_cap">
<polygon fill="none" stroke="black" points="103,-229.079 103,-247.079 165,-247.079 165,-229.079 103,-229.079"/>
<text text-anchor="middle" x="134" y="-235.879" font-family="Calibri" font-size="9.00">coarse_cap</text>
</a>
</g>
</g>
<!-- Node138&#45;&gt;Node139 -->
<g id="edge1" class="edge"><title>Node138&#45;&gt;Node139</title>
<path fill="none" stroke="midnightblue" d="M67.0256,-225.353C75.3225,-226.953 84.3381,-228.692 92.9627,-230.356"/>
<polygon fill="midnightblue" stroke="midnightblue" points="92.3594,-233.804 102.841,-232.261 93.6853,-226.931 92.3594,-233.804"/>
</g>
<!-- Node140 -->
<g id="node3" class="node"><title>Node140</title>
<g id="a_node3"><a xlink:href="main__main_8h.html#a6c26e075660bdd7a54df984ec3fc7ff4" target="_top" xlink:title="get_swr">
<polygon fill="none" stroke="black" points="201,-247.079 201,-265.079 249,-265.079 249,-247.079 201,-247.079"/>
<text text-anchor="middle" x="225" y="-253.879" font-family="Calibri" font-size="9.00">get_swr</text>
</a>
</g>
</g>
<!-- Node138&#45;&gt;Node140 -->
<g id="edge47" class="edge"><title>Node138&#45;&gt;Node140</title>
<path fill="none" stroke="midnightblue" d="M46.3159,-228.11C59.3682,-237.467 81.4079,-251.491 103,-257.079 131.877,-264.552 165.944,-263.428 190.561,-260.944"/>
<polygon fill="midnightblue" stroke="midnightblue" points="191.281,-264.385 200.821,-259.776 190.489,-257.43 191.281,-264.385"/>
</g>
<!-- Node168 -->
<g id="node31" class="node"><title>Node168</title>
<g id="a_node31"><a xlink:href="main__main_8h.html#a452291def610d28ec8eee31b70d56054" target="_top" xlink:title="set_cap">
<polygon fill="none" stroke="black" points="201,-210.079 201,-228.079 249,-228.079 249,-210.079 201,-210.079"/>
<text text-anchor="middle" x="225" y="-216.879" font-family="Calibri" font-size="9.00">set_cap</text>
</a>
</g>
</g>
<!-- Node138&#45;&gt;Node168 -->
<g id="edge48" class="edge"><title>Node138&#45;&gt;Node168</title>
<path fill="none" stroke="midnightblue" d="M67.0762,-219.079C101.601,-219.079 155.843,-219.079 190.656,-219.079"/>
<polygon fill="midnightblue" stroke="midnightblue" points="190.793,-222.579 200.793,-219.079 190.793,-215.579 190.793,-222.579"/>
</g>
<!-- Node169 -->
<g id="node32" class="node"><title>Node169</title>
<g id="a_node32"><a xlink:href="main__main_8h.html#a1f2ddaf3b672288a70778abe6e145b9c" target="_top" xlink:title="set_ind">
<polygon fill="none" stroke="black" points="110.5,-153.079 110.5,-171.079 157.5,-171.079 157.5,-153.079 110.5,-153.079"/>
<text text-anchor="middle" x="134" y="-159.879" font-family="Calibri" font-size="9.00">set_ind</text>
</a>
</g>
</g>
<!-- Node138&#45;&gt;Node169 -->
<g id="edge49" class="edge"><title>Node138&#45;&gt;Node169</title>
<path fill="none" stroke="midnightblue" d="M50.3257,-209.921C65.9784,-200.863 90.1598,-186.87 108.334,-176.353"/>
<polygon fill="midnightblue" stroke="midnightblue" points="110.311,-179.252 117.214,-171.214 106.805,-173.194 110.311,-179.252"/>
</g>
<!-- Node139&#45;&gt;Node140 -->
<g id="edge2" class="edge"><title>Node139&#45;&gt;Node140</title>
<path fill="none" stroke="midnightblue" d="M165.131,-244.173C173.449,-245.855 182.517,-247.689 190.988,-249.402"/>
<polygon fill="midnightblue" stroke="midnightblue" points="190.44,-252.862 200.936,-251.414 191.828,-246.001 190.44,-252.862"/>
</g>
<!-- Node139&#45;&gt;Node168 -->
<g id="edge46" class="edge"><title>Node139&#45;&gt;Node168</title>
<path fill="none" stroke="midnightblue" d="M165.131,-231.646C173.449,-229.871 182.517,-227.935 190.988,-226.126"/>
<polygon fill="midnightblue" stroke="midnightblue" points="191.887,-229.514 200.936,-224.003 190.425,-222.668 191.887,-229.514"/>
</g>
<!-- Node141 -->
<g id="node4" class="node"><title>Node141</title>
<g id="a_node4"><a xlink:href="main__main_8h.html#ab37ca657b79c6b9176cb63e9d812a182" target="_top" xlink:title="get_pwr">
<polygon fill="none" stroke="black" points="292.5,-360.079 292.5,-378.079 341.5,-378.079 341.5,-360.079 292.5,-360.079"/>
<text text-anchor="middle" x="317" y="-366.879" font-family="Calibri" font-size="9.00">get_pwr</text>
</a>
</g>
</g>
<!-- Node140&#45;&gt;Node141 -->
<g id="edge3" class="edge"><title>Node140&#45;&gt;Node141</title>
<path fill="none" stroke="midnightblue" d="M233.365,-265.326C248.471,-284.292 283.156,-327.841 302.441,-352.055"/>
<polygon fill="midnightblue" stroke="midnightblue" points="299.817,-354.378 308.785,-360.02 305.292,-350.017 299.817,-354.378"/>
</g>
<!-- Node145 -->
<g id="node8" class="node"><title>Node145</title>
<g id="a_node8"><a xlink:href="main__main_8h.html#ad9d02e37f1f201576a9d93fd36fc4768" target="_top" xlink:title="show_reset">
<polygon fill="none" stroke="black" points="285,-135.079 285,-153.079 349,-153.079 349,-135.079 285,-135.079"/>
<text text-anchor="middle" x="317" y="-141.879" font-family="Calibri" font-size="9.00">show_reset</text>
</a>
</g>
</g>
<!-- Node140&#45;&gt;Node145 -->
<g id="edge7" class="edge"><title>Node140&#45;&gt;Node145</title>
<path fill="none" stroke="midnightblue" d="M239.21,-246.79C242.568,-244.154 246.056,-241.157 249,-238.079 271.971,-214.055 293.301,-181.703 305.473,-161.899"/>
<polygon fill="midnightblue" stroke="midnightblue" points="308.507,-163.646 310.681,-153.276 302.515,-160.027 308.507,-163.646"/>
</g>
<!-- Node142 -->
<g id="node5" class="node"><title>Node142</title>
<g id="a_node5"><a xlink:href="main__main_8h.html#acfd46f8711e9c1c20fffdfc8bdaa0ddd" target="_top" xlink:title="get_forward">
<polygon fill="none" stroke="black" points="385,-342.079 385,-360.079 450,-360.079 450,-342.079 385,-342.079"/>
<text text-anchor="middle" x="417.5" y="-348.879" font-family="Calibri" font-size="9.00">get_forward</text>
</a>
</g>
</g>
<!-- Node141&#45;&gt;Node142 -->
<g id="edge4" class="edge"><title>Node141&#45;&gt;Node142</title>
<path fill="none" stroke="midnightblue" d="M341.593,-364.767C351.528,-362.952 363.396,-360.783 374.724,-358.713"/>
<polygon fill="midnightblue" stroke="midnightblue" points="375.696,-362.093 384.904,-356.853 374.438,-355.207 375.696,-362.093"/>
</g>
<!-- Node143 -->
<g id="node6" class="node"><title>Node143</title>
<g id="a_node6"><a xlink:href="main__main_8h.html#aa6b9a2b3d88f578ba6a9fefd911eae75" target="_top" xlink:title="get_reverse">
<polygon fill="none" stroke="black" points="385.5,-416.079 385.5,-434.079 449.5,-434.079 449.5,-416.079 385.5,-416.079"/>
<text text-anchor="middle" x="417.5" y="-422.879" font-family="Calibri" font-size="9.00">get_reverse</text>
</a>
</g>
</g>
<!-- Node141&#45;&gt;Node143 -->
<g id="edge5" class="edge"><title>Node141&#45;&gt;Node143</title>
<path fill="none" stroke="midnightblue" d="M334.265,-378.326C349.9,-387.215 373.742,-400.77 391.735,-411"/>
<polygon fill="midnightblue" stroke="midnightblue" points="390.114,-414.104 400.537,-416.004 393.574,-408.019 390.114,-414.104"/>
</g>
<!-- Node144 -->
<g id="node7" class="node"><title>Node144</title>
<g id="a_node7"><a xlink:href="main__main_8h.html#ab19e6e081315a9a200394b74d10de395" target="_top" xlink:title="correction">
<polygon fill="none" stroke="black" points="389,-379.079 389,-397.079 446,-397.079 446,-379.079 389,-379.079"/>
<text text-anchor="middle" x="417.5" y="-385.879" font-family="Calibri" font-size="9.00">correction</text>
</a>
</g>
</g>
<!-- Node141&#45;&gt;Node144 -->
<g id="edge6" class="edge"><title>Node141&#45;&gt;Node144</title>
<path fill="none" stroke="midnightblue" d="M341.593,-373.63C352.709,-375.774 366.245,-378.385 378.736,-380.795"/>
<polygon fill="midnightblue" stroke="midnightblue" points="378.426,-384.299 388.908,-382.757 379.752,-377.426 378.426,-384.299"/>
</g>
<!-- Node146 -->
<g id="node9" class="node"><title>Node146</title>
<g id="a_node9"><a xlink:href="main_8h.html#a9dff326a6079fe726285b11ee837ad60" target="_top" xlink:title="atu_reset">
<polygon fill="none" stroke="black" points="389.5,-59.0789 389.5,-77.0789 445.5,-77.0789 445.5,-59.0789 389.5,-59.0789"/>
<text text-anchor="middle" x="417.5" y="-65.8789" font-family="Calibri" font-size="9.00">atu_reset</text>
</a>
</g>
</g>
<!-- Node145&#45;&gt;Node146 -->
<g id="edge8" class="edge"><title>Node145&#45;&gt;Node146</title>
<path fill="none" stroke="midnightblue" d="M329.686,-135.062C346.2,-122.321 376.585,-98.8763 396.668,-83.3805"/>
<polygon fill="midnightblue" stroke="midnightblue" points="399.05,-85.9637 404.829,-77.0838 394.774,-80.4216 399.05,-85.9637"/>
</g>
<!-- Node149 -->
<g id="node12" class="node"><title>Node149</title>
<g id="a_node12"><a xlink:href="main_8h.html#ae0c1e0ec712704e43db40473f103d621" target="_top" xlink:title="Set the state of the switch. ">
<polygon fill="none" stroke="black" points="395,-117.079 395,-135.079 440,-135.079 440,-117.079 395,-117.079"/>
<text text-anchor="middle" x="417.5" y="-123.879" font-family="Calibri" font-size="9.00">set_sw</text>
</a>
</g>
</g>
<!-- Node145&#45;&gt;Node149 -->
<g id="edge11" class="edge"><title>Node145&#45;&gt;Node149</title>
<path fill="none" stroke="midnightblue" d="M349.166,-138.384C360.558,-136.302 373.45,-133.946 384.881,-131.857"/>
<polygon fill="midnightblue" stroke="midnightblue" points="385.676,-135.27 394.884,-130.029 384.417,-128.384 385.676,-135.27"/>
</g>
<!-- Node150 -->
<g id="node13" class="node"><title>Node150</title>
<g id="a_node13"><a xlink:href="main_8c.html#a6911b3f075cdf1d54cb14f17f6e5ef6b" target="_top" xlink:title="lcd_ind">
<polygon fill="none" stroke="black" points="602,-323.079 602,-341.079 649,-341.079 649,-323.079 602,-323.079"/>
<text text-anchor="middle" x="625.5" y="-329.879" font-family="Calibri" font-size="9.00">lcd_ind</text>
</a>
</g>
</g>
<!-- Node145&#45;&gt;Node150 -->
<g id="edge12" class="edge"><title>Node145&#45;&gt;Node150</title>
<path fill="none" stroke="midnightblue" d="M325.65,-153.441C347.667,-179.759 414.218,-255.021 486,-294.079 519.55,-312.334 562.541,-322.349 591.661,-327.448"/>
<polygon fill="midnightblue" stroke="midnightblue" points="591.281,-330.933 601.718,-329.11 592.423,-324.026 591.281,-330.933"/>
</g>
<!-- Node151 -->
<g id="node14" class="node"><title>Node151</title>
<g id="a_node14"><a xlink:href="oled__control_8c.html#a9d56c6c2e653b24a0caf505492ad818a" target="_top" xlink:title="led_wr_str">
<polygon fill="none" stroke="black" points="694,-210.079 694,-228.079 753,-228.079 753,-210.079 694,-210.079"/>
<text text-anchor="middle" x="723.5" y="-216.879" font-family="Calibri" font-size="9.00">led_wr_str</text>
</a>
</g>
</g>
<!-- Node145&#45;&gt;Node151 -->
<g id="edge25" class="edge"><title>Node145&#45;&gt;Node151</title>
<path fill="none" stroke="midnightblue" d="M322.142,-134.835C331.008,-116.045 353.602,-73.1395 385,-49.0789 447.066,-1.51814 482.761,12.471 557,-12.0789 610.085,-29.6332 622.268,-44.0745 658,-87.0789 687.226,-122.253 707.153,-172.907 716.47,-200.103"/>
<polygon fill="midnightblue" stroke="midnightblue" points="713.249,-201.512 719.713,-209.906 719.895,-199.313 713.249,-201.512"/>
</g>
<!-- Node158 -->
<g id="node21" class="node"><title>Node158</title>
<g id="a_node21"><a xlink:href="main_8c.html#ae5a14b4884e85f47ad8a4a716f13203a" target="_top" xlink:title="lcd_pwr">
<polygon fill="none" stroke="black" points="393.5,-154.079 393.5,-172.079 441.5,-172.079 441.5,-154.079 393.5,-154.079"/>
<text text-anchor="middle" x="417.5" y="-160.879" font-family="Calibri" font-size="9.00">lcd_pwr</text>
</a>
</g>
</g>
<!-- Node145&#45;&gt;Node158 -->
<g id="edge26" class="edge"><title>Node145&#45;&gt;Node158</title>
<path fill="none" stroke="midnightblue" d="M349.166,-150.091C360.015,-152.183 372.223,-154.538 383.236,-156.662"/>
<polygon fill="midnightblue" stroke="midnightblue" points="382.862,-160.155 393.344,-158.612 384.188,-153.282 382.862,-160.155"/>
</g>
<!-- Node147 -->
<g id="node10" class="node"><title>Node147</title>
<g id="a_node10"><a xlink:href="main_8h.html#a2a7963b9b09696c6654b96c67900c6ea" target="_top" xlink:title="set_cap">
<polygon fill="none" stroke="black" points="497.5,-22.0789 497.5,-40.0789 545.5,-40.0789 545.5,-22.0789 497.5,-22.0789"/>
<text text-anchor="middle" x="521.5" y="-28.8789" font-family="Calibri" font-size="9.00">set_cap</text>
</a>
</g>
</g>
<!-- Node146&#45;&gt;Node147 -->
<g id="edge9" class="edge"><title>Node146&#45;&gt;Node147</title>
<path fill="none" stroke="midnightblue" d="M443.452,-59.0277C456.774,-54.1953 473.337,-48.1871 487.689,-42.9811"/>
<polygon fill="midnightblue" stroke="midnightblue" points="488.997,-46.2297 497.204,-39.5294 486.61,-39.6493 488.997,-46.2297"/>
</g>
<!-- Node148 -->
<g id="node11" class="node"><title>Node148</title>
<g id="a_node11"><a xlink:href="main_8h.html#aecc83cd8bceb4bc24be844732ead2c2c" target="_top" xlink:title="set_ind">
<polygon fill="none" stroke="black" points="498,-59.0789 498,-77.0789 545,-77.0789 545,-59.0789 498,-59.0789"/>
<text text-anchor="middle" x="521.5" y="-65.8789" font-family="Calibri" font-size="9.00">set_ind</text>
</a>
</g>
</g>
<!-- Node146&#45;&gt;Node148 -->
<g id="edge10" class="edge"><title>Node146&#45;&gt;Node148</title>
<path fill="none" stroke="midnightblue" d="M445.566,-68.0789C458.42,-68.0789 473.896,-68.0789 487.438,-68.0789"/>
<polygon fill="midnightblue" stroke="midnightblue" points="487.798,-71.579 497.798,-68.0789 487.798,-64.579 487.798,-71.579"/>
</g>
<!-- Node150&#45;&gt;Node151 -->
<g id="edge13" class="edge"><title>Node150&#45;&gt;Node151</title>
<path fill="none" stroke="midnightblue" d="M640.082,-323.071C645.919,-318.871 652.621,-313.589 658,-308.079 679.682,-285.871 699.849,-255.956 711.674,-237.092"/>
<polygon fill="midnightblue" stroke="midnightblue" points="714.803,-238.686 717.061,-228.334 708.841,-235.018 714.803,-238.686"/>
</g>
<!-- Node152 -->
<g id="node15" class="node"><title>Node152</title>
<g id="a_node15"><a xlink:href="oled__control_8c.html#a7c3a2e5f1fed76dc27692132a2574d27" target="_top" xlink:title="oled_wr_str">
<polygon fill="none" stroke="black" points="789,-286.079 789,-304.079 854,-304.079 854,-286.079 789,-286.079"/>
<text text-anchor="middle" x="821.5" y="-292.879" font-family="Calibri" font-size="9.00">oled_wr_str</text>
</a>
</g>
</g>
<!-- Node151&#45;&gt;Node152 -->
<g id="edge14" class="edge"><title>Node151&#45;&gt;Node152</title>
<path fill="none" stroke="midnightblue" d="M733.662,-228.141C745.775,-239.889 768.039,-260.692 789,-276.079 791.072,-277.6 793.271,-279.113 795.507,-280.582"/>
<polygon fill="midnightblue" stroke="midnightblue" points="793.777,-283.628 804.112,-285.958 797.485,-277.691 793.777,-283.628"/>
</g>
<!-- Node157 -->
<g id="node20" class="node"><title>Node157</title>
<g id="a_node20"><a xlink:href="oled__control_8c.html#ad25764a33e482f4e9db2701198e02551" target="_top" xlink:title="led_send">
<polygon fill="none" stroke="black" points="903,-211.079 903,-229.079 958,-229.079 958,-211.079 903,-211.079"/>
<text text-anchor="middle" x="930.5" y="-217.879" font-family="Calibri" font-size="9.00">led_send</text>
</a>
</g>
</g>
<!-- Node151&#45;&gt;Node157 -->
<g id="edge21" class="edge"><title>Node151&#45;&gt;Node157</title>
<path fill="none" stroke="midnightblue" d="M753.004,-219.218C789.462,-219.396 852.664,-219.704 892.717,-219.899"/>
<polygon fill="midnightblue" stroke="midnightblue" points="892.847,-223.4 902.864,-219.949 892.881,-216.4 892.847,-223.4"/>
</g>
<!-- Node153 -->
<g id="node16" class="node"><title>Node153</title>
<g id="a_node16"><a xlink:href="oled__control_8c.html#ab7f6b5c6c1483f6286f2de5786c028d9" target="_top" xlink:title="Soft_I2C_Start">
<polygon fill="none" stroke="black" points="1009,-314.079 1009,-332.079 1081,-332.079 1081,-314.079 1009,-314.079"/>
<text text-anchor="middle" x="1045" y="-320.879" font-family="Calibri" font-size="9.00">Soft_I2C_Start</text>
</a>
</g>
</g>
<!-- Node152&#45;&gt;Node153 -->
<g id="edge15" class="edge"><title>Node152&#45;&gt;Node153</title>
<path fill="none" stroke="midnightblue" d="M829.588,-304.21C840.727,-317.726 863.783,-342.49 890,-352.079 932.883,-367.763 985.73,-350.417 1017.04,-336.609"/>
<polygon fill="midnightblue" stroke="midnightblue" points="1018.79,-339.657 1026.41,-332.297 1015.87,-333.298 1018.79,-339.657"/>
</g>
<!-- Node154 -->
<g id="node17" class="node"><title>Node154</title>
<g id="a_node17"><a xlink:href="oled__control_8c.html#a73610916645f17c19124e697b005f694" target="_top" xlink:title="Soft_I2C_Write">
<polygon fill="none" stroke="black" points="1007,-258.079 1007,-276.079 1083,-276.079 1083,-258.079 1007,-258.079"/>
<text text-anchor="middle" x="1045" y="-264.879" font-family="Calibri" font-size="9.00">Soft_I2C_Write</text>
</a>
</g>
</g>
<!-- Node152&#45;&gt;Node154 -->
<g id="edge16" class="edge"><title>Node152&#45;&gt;Node154</title>
<path fill="none" stroke="midnightblue" d="M854.236,-291.067C891.556,-286.349 953.856,-278.474 996.834,-273.041"/>
<polygon fill="midnightblue" stroke="midnightblue" points="997.294,-276.511 1006.78,-271.784 996.416,-269.566 997.294,-276.511"/>
</g>
<!-- Node155 -->
<g id="node18" class="node"><title>Node155</title>
<g id="a_node18"><a xlink:href="oled__control_8c.html#a6df77e8ec83c50ed6a5ddaf54aa3a9c2" target="_top" xlink:title="set_addressing">
<polygon fill="none" stroke="black" points="890.5,-324.079 890.5,-342.079 970.5,-342.079 970.5,-324.079 890.5,-324.079"/>
<text text-anchor="middle" x="930.5" y="-330.879" font-family="Calibri" font-size="9.00">set_addressing</text>
</a>
</g>
</g>
<!-- Node152&#45;&gt;Node155 -->
<g id="edge17" class="edge"><title>Node152&#45;&gt;Node155</title>
<path fill="none" stroke="midnightblue" d="M847.858,-304.084C861.748,-309.017 879.177,-315.207 894.36,-320.599"/>
<polygon fill="midnightblue" stroke="midnightblue" points="893.359,-323.958 903.954,-324.006 895.702,-317.362 893.359,-323.958"/>
</g>
<!-- Node156 -->
<g id="node19" class="node"><title>Node156</title>
<g id="a_node19"><a xlink:href="oled__control_8c.html#a16eb842aa672ca44820ae6d5f9933425" target="_top" xlink:title="Soft_I2C_Stop">
<polygon fill="none" stroke="black" points="1009.5,-211.079 1009.5,-229.079 1080.5,-229.079 1080.5,-211.079 1009.5,-211.079"/>
<text text-anchor="middle" x="1045" y="-217.879" font-family="Calibri" font-size="9.00">Soft_I2C_Stop</text>
</a>
</g>
</g>
<!-- Node152&#45;&gt;Node156 -->
<g id="edge20" class="edge"><title>Node152&#45;&gt;Node156</title>
<path fill="none" stroke="midnightblue" d="M841.479,-286.036C845.966,-283.283 850.467,-279.945 854,-276.079 878.673,-249.08 858.993,-221.476 890,-202.079 928.674,-177.886 983.632,-193.612 1016.37,-207.007"/>
<polygon fill="midnightblue" stroke="midnightblue" points="1015.2,-210.315 1025.77,-211.043 1017.96,-203.882 1015.2,-210.315"/>
</g>
<!-- Node155&#45;&gt;Node153 -->
<g id="edge18" class="edge"><title>Node155&#45;&gt;Node153</title>
<path fill="none" stroke="midnightblue" d="M970.531,-329.609C979.569,-328.806 989.262,-327.944 998.548,-327.119"/>
<polygon fill="midnightblue" stroke="midnightblue" points="999.151,-330.579 1008.8,-326.208 998.531,-323.607 999.151,-330.579"/>
</g>
<!-- Node155&#45;&gt;Node154 -->
<g id="edge19" class="edge"><title>Node155&#45;&gt;Node154</title>
<path fill="none" stroke="midnightblue" d="M947.143,-323.902C965.949,-312.869 997.724,-294.228 1019.73,-281.32"/>
<polygon fill="midnightblue" stroke="midnightblue" points="1021.64,-284.257 1028.49,-276.178 1018.09,-278.219 1021.64,-284.257"/>
</g>
<!-- Node157&#45;&gt;Node153 -->
<g id="edge22" class="edge"><title>Node157&#45;&gt;Node153</title>
<path fill="none" stroke="midnightblue" d="M955.141,-229.226C960.648,-231.942 966.277,-235.238 971,-239.079 991.414,-255.68 989.66,-266.289 1007,-286.079 1013.15,-293.093 1020.31,-300.431 1026.69,-306.706"/>
<polygon fill="midnightblue" stroke="midnightblue" points="1024.6,-309.547 1034.22,-313.981 1029.46,-304.514 1024.6,-309.547"/>
</g>
<!-- Node157&#45;&gt;Node154 -->
<g id="edge23" class="edge"><title>Node157&#45;&gt;Node154</title>
<path fill="none" stroke="midnightblue" d="M953.191,-229.141C970.155,-236.228 993.966,-246.176 1012.95,-254.107"/>
<polygon fill="midnightblue" stroke="midnightblue" points="1011.8,-257.419 1022.38,-258.045 1014.5,-250.96 1011.8,-257.419"/>
</g>
<!-- Node157&#45;&gt;Node156 -->
<g id="edge24" class="edge"><title>Node157&#45;&gt;Node156</title>
<path fill="none" stroke="midnightblue" d="M958.161,-220.079C970.381,-220.079 985.204,-220.079 999.071,-220.079"/>
<polygon fill="midnightblue" stroke="midnightblue" points="999.429,-223.579 1009.43,-220.079 999.429,-216.579 999.429,-223.579"/>
</g>
<!-- Node158&#45;&gt;Node147 -->
<g id="edge32" class="edge"><title>Node158&#45;&gt;Node147</title>
<path fill="none" stroke="midnightblue" d="M438.054,-154.049C442.424,-151.33 446.728,-148.003 450,-144.079 478.92,-109.404 456.022,-82.8433 486,-49.0789 486.883,-48.0843 487.834,-47.1362 488.838,-46.2334"/>
<polygon fill="midnightblue" stroke="midnightblue" points="491.205,-48.8432 497.3,-40.177 487.131,-43.1509 491.205,-48.8432"/>
</g>
<!-- Node158&#45;&gt;Node148 -->
<g id="edge31" class="edge"><title>Node158&#45;&gt;Node148</title>
<path fill="none" stroke="midnightblue" d="M436.427,-154.045C441.128,-151.217 445.996,-147.839 450,-144.079 470.49,-124.836 466.146,-111.977 486,-92.0789 489.131,-88.9411 492.718,-85.941 496.37,-83.19"/>
<polygon fill="midnightblue" stroke="midnightblue" points="498.635,-85.8768 504.821,-77.2752 494.621,-80.1419 498.635,-85.8768"/>
</g>
<!-- Node158&#45;&gt;Node151 -->
<g id="edge45" class="edge"><title>Node158&#45;&gt;Node151</title>
<path fill="none" stroke="midnightblue" d="M441.545,-158.096C485.348,-149.707 582.952,-136.248 658,-164.079 678.374,-171.634 696.703,-188.771 708.568,-201.923"/>
<polygon fill="midnightblue" stroke="midnightblue" points="706.213,-204.553 715.388,-209.85 711.519,-199.987 706.213,-204.553"/>
</g>
<!-- Node159 -->
<g id="node22" class="node"><title>Node159</title>
<g id="a_node22"><a xlink:href="main_8h.html#ab37ca657b79c6b9176cb63e9d812a182" target="_top" xlink:title="get_pwr">
<polygon fill="none" stroke="black" points="497,-210.079 497,-228.079 546,-228.079 546,-210.079 497,-210.079"/>
<text text-anchor="middle" x="521.5" y="-216.879" font-family="Calibri" font-size="9.00">get_pwr</text>
</a>
</g>
</g>
<!-- Node158&#45;&gt;Node159 -->
<g id="edge27" class="edge"><title>Node158&#45;&gt;Node159</title>
<path fill="none" stroke="midnightblue" d="M434.242,-172.128C447.872,-179.919 468.148,-191.4 486,-201.079 488.561,-202.468 491.239,-203.899 493.92,-205.32"/>
<polygon fill="midnightblue" stroke="midnightblue" points="492.411,-208.48 502.892,-210.029 495.664,-202.282 492.411,-208.48"/>
</g>
<!-- Node163 -->
<g id="node26" class="node"><title>Node163</title>
<g id="a_node26"><a xlink:href="oled__control_8c.html#a2c663a2db505aa3f2271f6cf4bae1521" target="_top" xlink:title="dysp_on">
<polygon fill="none" stroke="black" points="796.5,-248.079 796.5,-266.079 846.5,-266.079 846.5,-248.079 796.5,-248.079"/>
<text text-anchor="middle" x="821.5" y="-254.879" font-family="Calibri" font-size="9.00">dysp_on</text>
</a>
</g>
</g>
<!-- Node158&#45;&gt;Node163 -->
<g id="edge33" class="edge"><title>Node158&#45;&gt;Node163</title>
<path fill="none" stroke="midnightblue" d="M421.084,-172.159C428.04,-195.198 449.168,-256.739 486,-294.079 523.839,-332.439 540.723,-338.023 593,-351.079 621.028,-358.079 630.099,-358.568 658,-351.079 673.035,-347.044 756.134,-296.678 797.331,-271.381"/>
<polygon fill="midnightblue" stroke="midnightblue" points="799.229,-274.323 805.912,-266.103 795.561,-268.361 799.229,-274.323"/>
</g>
<!-- Node165 -->
<g id="node28" class="node"><title>Node165</title>
<g id="a_node28"><a xlink:href="main_8c.html#a593218c5fe00b499d494826fc0aa5279" target="_top" xlink:title="button_delay">
<polygon fill="none" stroke="black" points="486,-173.079 486,-191.079 557,-191.079 557,-173.079 486,-173.079"/>
<text text-anchor="middle" x="521.5" y="-179.879" font-family="Calibri" font-size="9.00">button_delay</text>
</a>
</g>
</g>
<!-- Node158&#45;&gt;Node165 -->
<g id="edge39" class="edge"><title>Node158&#45;&gt;Node165</title>
<path fill="none" stroke="midnightblue" d="M441.645,-167.39C451.738,-169.27 463.929,-171.541 475.677,-173.73"/>
<polygon fill="midnightblue" stroke="midnightblue" points="475.351,-177.229 485.823,-175.619 476.633,-170.347 475.351,-177.229"/>
</g>
<!-- Node166 -->
<g id="node29" class="node"><title>Node166</title>
<g id="a_node29"><a xlink:href="main_8c.html#aa8fd50019a763561abc6621bb224417f" target="_top" xlink:title="lcd_swr">
<polygon fill="none" stroke="black" points="602,-97.0789 602,-115.079 649,-115.079 649,-97.0789 602,-97.0789"/>
<text text-anchor="middle" x="625.5" y="-103.879" font-family="Calibri" font-size="9.00">lcd_swr</text>
</a>
</g>
</g>
<!-- Node158&#45;&gt;Node166 -->
<g id="edge40" class="edge"><title>Node158&#45;&gt;Node166</title>
<path fill="none" stroke="midnightblue" d="M433.794,-154.041C447.144,-146.538 467.261,-136.147 486,-130.079 521.203,-118.68 563.293,-112.365 591.762,-109.11"/>
<polygon fill="midnightblue" stroke="midnightblue" points="592.397,-112.562 601.963,-108.008 591.645,-105.602 592.397,-112.562"/>
</g>
<!-- Node167 -->
<g id="node30" class="node"><title>Node167</title>
<g id="a_node30"><a xlink:href="main_8c.html#a4ae0d4fa97fc0ca3611813fee4f9af7c" target="_top" xlink:title="show_pwr">
<polygon fill="none" stroke="black" points="492.5,-266.079 492.5,-284.079 550.5,-284.079 550.5,-266.079 492.5,-266.079"/>
<text text-anchor="middle" x="521.5" y="-272.879" font-family="Calibri" font-size="9.00">show_pwr</text>
</a>
</g>
</g>
<!-- Node158&#45;&gt;Node167 -->
<g id="edge42" class="edge"><title>Node158&#45;&gt;Node167</title>
<path fill="none" stroke="midnightblue" d="M426.761,-172.363C439.433,-186.58 464.464,-214.57 486,-238.079 492.174,-244.818 499.029,-252.192 504.992,-258.572"/>
<polygon fill="midnightblue" stroke="midnightblue" points="502.557,-261.092 511.948,-265.997 507.666,-256.306 502.557,-261.092"/>
</g>
<!-- Node160 -->
<g id="node23" class="node"><title>Node160</title>
<g id="a_node23"><a xlink:href="main_8h.html#ab19e6e081315a9a200394b74d10de395" target="_top" xlink:title="correction">
<polygon fill="none" stroke="black" points="597,-247.079 597,-265.079 654,-265.079 654,-247.079 597,-247.079"/>
<text text-anchor="middle" x="625.5" y="-253.879" font-family="Calibri" font-size="9.00">correction</text>
</a>
</g>
</g>
<!-- Node159&#45;&gt;Node160 -->
<g id="edge28" class="edge"><title>Node159&#45;&gt;Node160</title>
<path fill="none" stroke="midnightblue" d="M546.157,-227.66C559.163,-232.378 575.538,-238.318 589.95,-243.546"/>
<polygon fill="midnightblue" stroke="midnightblue" points="588.954,-246.908 599.548,-247.028 591.341,-240.327 588.954,-246.908"/>
</g>
<!-- Node161 -->
<g id="node24" class="node"><title>Node161</title>
<g id="a_node24"><a xlink:href="main_8h.html#acfd46f8711e9c1c20fffdfc8bdaa0ddd" target="_top" xlink:title="get_forward">
<polygon fill="none" stroke="black" points="593,-210.079 593,-228.079 658,-228.079 658,-210.079 593,-210.079"/>
<text text-anchor="middle" x="625.5" y="-216.879" font-family="Calibri" font-size="9.00">get_forward</text>
</a>
</g>
</g>
<!-- Node159&#45;&gt;Node161 -->
<g id="edge29" class="edge"><title>Node159&#45;&gt;Node161</title>
<path fill="none" stroke="midnightblue" d="M546.157,-219.079C557.008,-219.079 570.203,-219.079 582.647,-219.079"/>
<polygon fill="midnightblue" stroke="midnightblue" points="582.855,-222.579 592.855,-219.079 582.855,-215.579 582.855,-222.579"/>
</g>
<!-- Node162 -->
<g id="node25" class="node"><title>Node162</title>
<g id="a_node25"><a xlink:href="main_8h.html#aa6b9a2b3d88f578ba6a9fefd911eae75" target="_top" xlink:title="get_reverse">
<polygon fill="none" stroke="black" points="593.5,-173.079 593.5,-191.079 657.5,-191.079 657.5,-173.079 593.5,-173.079"/>
<text text-anchor="middle" x="625.5" y="-179.879" font-family="Calibri" font-size="9.00">get_reverse</text>
</a>
</g>
</g>
<!-- Node159&#45;&gt;Node162 -->
<g id="edge30" class="edge"><title>Node159&#45;&gt;Node162</title>
<path fill="none" stroke="midnightblue" d="M546.157,-210.497C559.163,-205.779 575.538,-199.84 589.95,-194.612"/>
<polygon fill="midnightblue" stroke="midnightblue" points="591.341,-197.83 599.548,-191.13 588.954,-191.25 591.341,-197.83"/>
</g>
<!-- Node163&#45;&gt;Node157 -->
<g id="edge38" class="edge"><title>Node163&#45;&gt;Node157</title>
<path fill="none" stroke="midnightblue" d="M846.513,-248.775C860.362,-243.986 878.045,-237.872 893.526,-232.518"/>
<polygon fill="midnightblue" stroke="midnightblue" points="895.012,-235.708 903.32,-229.132 892.725,-229.092 895.012,-235.708"/>
</g>
<!-- Node164 -->
<g id="node27" class="node"><title>Node164</title>
<g id="a_node27"><a xlink:href="oled__control_8c.html#ad141ed038278a6fcad6c307932f01ec8" target="_top" xlink:title="send_command">
<polygon fill="none" stroke="black" points="890,-248.079 890,-266.079 971,-266.079 971,-248.079 890,-248.079"/>
<text text-anchor="middle" x="930.5" y="-254.879" font-family="Calibri" font-size="9.00">send_command</text>
</a>
</g>
</g>
<!-- Node163&#45;&gt;Node164 -->
<g id="edge34" class="edge"><title>Node163&#45;&gt;Node164</title>
<path fill="none" stroke="midnightblue" d="M846.513,-257.079C856.33,-257.079 868.073,-257.079 879.594,-257.079"/>
<polygon fill="midnightblue" stroke="midnightblue" points="879.606,-260.579 889.606,-257.079 879.606,-253.579 879.606,-260.579"/>
</g>
<!-- Node164&#45;&gt;Node153 -->
<g id="edge35" class="edge"><title>Node164&#45;&gt;Node153</title>
<path fill="none" stroke="midnightblue" d="M947.143,-266.256C965.949,-277.289 997.724,-295.93 1019.73,-308.838"/>
<polygon fill="midnightblue" stroke="midnightblue" points="1018.09,-311.938 1028.49,-313.98 1021.64,-305.901 1018.09,-311.938"/>
</g>
<!-- Node164&#45;&gt;Node154 -->
<g id="edge36" class="edge"><title>Node164&#45;&gt;Node154</title>
<path fill="none" stroke="midnightblue" d="M971.163,-260.605C979.439,-261.34 988.24,-262.122 996.758,-262.88"/>
<polygon fill="midnightblue" stroke="midnightblue" points="996.683,-266.387 1006.95,-263.786 997.303,-259.414 996.683,-266.387"/>
</g>
<!-- Node164&#45;&gt;Node156 -->
<g id="edge37" class="edge"><title>Node164&#45;&gt;Node156</title>
<path fill="none" stroke="midnightblue" d="M959.021,-248.028C973.321,-243.324 991.009,-237.507 1006.54,-232.4"/>
<polygon fill="midnightblue" stroke="midnightblue" points="1007.97,-235.614 1016.37,-229.165 1005.78,-228.964 1007.97,-235.614"/>
</g>
<!-- Node166&#45;&gt;Node151 -->
<g id="edge41" class="edge"><title>Node166&#45;&gt;Node151</title>
<path fill="none" stroke="midnightblue" d="M640.082,-115.087C645.919,-119.287 652.621,-124.569 658,-130.079 679.682,-152.287 699.849,-182.201 711.674,-201.065"/>
<polygon fill="midnightblue" stroke="midnightblue" points="708.841,-203.139 717.061,-209.823 714.803,-199.472 708.841,-203.139"/>
</g>
<!-- Node167&#45;&gt;Node150 -->
<g id="edge44" class="edge"><title>Node167&#45;&gt;Node150</title>
<path fill="none" stroke="midnightblue" d="M538.888,-284.237C555.171,-293.336 580.367,-307.417 599.216,-317.95"/>
<polygon fill="midnightblue" stroke="midnightblue" points="597.716,-321.121 608.153,-322.944 601.131,-315.01 597.716,-321.121"/>
</g>
<!-- Node167&#45;&gt;Node151 -->
<g id="edge43" class="edge"><title>Node167&#45;&gt;Node151</title>
<path fill="none" stroke="midnightblue" d="M550.762,-280.676C578.901,-284.977 622.851,-288.208 658,-275.079 678.708,-267.344 697.169,-249.63 708.978,-236.181"/>
<polygon fill="midnightblue" stroke="midnightblue" points="711.688,-238.396 715.433,-228.485 706.325,-233.898 711.688,-238.396"/>
</g>
</g>
</svg>
