<?xml version="1.0" encoding="UTF-8" standalone="no"?>
<!DOCTYPE svg PUBLIC "-//W3C//DTD SVG 1.1//EN"
 "http://www.w3.org/Graphics/SVG/1.1/DTD/svg11.dtd">
<!-- Generated by graphviz version 2.38.0 (20140413.2041)
 -->
<!-- Title: show_pwr Pages: 1 -->
<svg width="573pt" height="170pt"
 viewBox="0.00 0.00 573.00 170.19" xmlns="http://www.w3.org/2000/svg" xmlns:xlink="http://www.w3.org/1999/xlink">
<g id="graph0" class="graph" transform="scale(1 1) rotate(0) translate(4 166.194)">
<title>show_pwr</title>
<!-- Node515 -->
<g id="node1" class="node"><title>Node515</title>
<polygon fill="#bfbfbf" stroke="black" points="0,-69.7254 0,-87.7254 58,-87.7254 58,-69.7254 0,-69.7254"/>
<text text-anchor="middle" x="29" y="-76.5254" font-family="Calibri" font-size="9.00">show_pwr</text>
</g>
<!-- Node516 -->
<g id="node2" class="node"><title>Node516</title>
<g id="a_node2"><a xlink:href="main_8c.html#a6911b3f075cdf1d54cb14f17f6e5ef6b" target="_top" xlink:title="lcd_ind">
<polygon fill="none" stroke="black" points="94,-50.7254 94,-68.7254 141,-68.7254 141,-50.7254 94,-50.7254"/>
<text text-anchor="middle" x="117.5" y="-57.5254" font-family="Calibri" font-size="9.00">lcd_ind</text>
</a>
</g>
</g>
<!-- Node515&#45;&gt;Node516 -->
<g id="edge1" class="edge"><title>Node515&#45;&gt;Node516</title>
<path fill="none" stroke="midnightblue" d="M58.3233,-72.5041C66.5201,-70.7036 75.5322,-68.7241 83.9644,-66.8719"/>
<polygon fill="midnightblue" stroke="midnightblue" points="84.8522,-70.2604 93.8685,-64.6964 83.3504,-63.4234 84.8522,-70.2604"/>
</g>
<!-- Node517 -->
<g id="node3" class="node"><title>Node517</title>
<g id="a_node3"><a xlink:href="oled__control_8c.html#a9d56c6c2e653b24a0caf505492ad818a" target="_top" xlink:title="led_wr_str">
<polygon fill="none" stroke="black" points="177,-69.7254 177,-87.7254 236,-87.7254 236,-69.7254 177,-69.7254"/>
<text text-anchor="middle" x="206.5" y="-76.5254" font-family="Calibri" font-size="9.00">led_wr_str</text>
</a>
</g>
</g>
<!-- Node515&#45;&gt;Node517 -->
<g id="edge14" class="edge"><title>Node515&#45;&gt;Node517</title>
<path fill="none" stroke="midnightblue" d="M58.1971,-78.7254C87.5742,-78.7254 133.812,-78.7254 166.641,-78.7254"/>
<polygon fill="midnightblue" stroke="midnightblue" points="166.79,-82.2255 176.79,-78.7254 166.79,-75.2255 166.79,-82.2255"/>
</g>
<!-- Node516&#45;&gt;Node517 -->
<g id="edge2" class="edge"><title>Node516&#45;&gt;Node517</title>
<path fill="none" stroke="midnightblue" d="M141.358,-64.7174C149.174,-66.4243 158.148,-68.3841 166.858,-70.2863"/>
<polygon fill="midnightblue" stroke="midnightblue" points="166.361,-73.7602 176.877,-72.4744 167.854,-66.9213 166.361,-73.7602"/>
</g>
<!-- Node518 -->
<g id="node4" class="node"><title>Node518</title>
<g id="a_node4"><a xlink:href="oled__control_8c.html#a7c3a2e5f1fed76dc27692132a2574d27" target="_top" xlink:title="oled_wr_str">
<polygon fill="none" stroke="black" points="272,-88.7254 272,-106.725 337,-106.725 337,-88.7254 272,-88.7254"/>
<text text-anchor="middle" x="304.5" y="-95.5254" font-family="Calibri" font-size="9.00">oled_wr_str</text>
</a>
</g>
</g>
<!-- Node517&#45;&gt;Node518 -->
<g id="edge3" class="edge"><title>Node517&#45;&gt;Node518</title>
<path fill="none" stroke="midnightblue" d="M236.043,-84.3745C244.147,-85.9785 253.142,-87.7586 261.852,-89.4826"/>
<polygon fill="midnightblue" stroke="midnightblue" points="261.388,-92.9584 271.877,-91.4666 262.747,-86.0916 261.388,-92.9584"/>
</g>
<!-- Node523 -->
<g id="node9" class="node"><title>Node523</title>
<g id="a_node9"><a xlink:href="oled__control_8c.html#ad25764a33e482f4e9db2701198e02551" target="_top" xlink:title="led_send">
<polygon fill="none" stroke="black" points="277,-31.7254 277,-49.7254 332,-49.7254 332,-31.7254 277,-31.7254"/>
<text text-anchor="middle" x="304.5" y="-38.5254" font-family="Calibri" font-size="9.00">led_send</text>
</a>
</g>
</g>
<!-- Node517&#45;&gt;Node523 -->
<g id="edge10" class="edge"><title>Node517&#45;&gt;Node523</title>
<path fill="none" stroke="midnightblue" d="M230.251,-69.7199C242.476,-64.8808 257.755,-58.8326 271.192,-53.514"/>
<polygon fill="midnightblue" stroke="midnightblue" points="272.57,-56.7328 280.58,-49.7979 269.994,-50.2241 272.57,-56.7328"/>
</g>
<!-- Node519 -->
<g id="node5" class="node"><title>Node519</title>
<g id="a_node5"><a xlink:href="oled__control_8c.html#ab7f6b5c6c1483f6286f2de5786c028d9" target="_top" xlink:title="Soft_I2C_Start">
<polygon fill="none" stroke="black" points="491,-126.725 491,-144.725 563,-144.725 563,-126.725 491,-126.725"/>
<text text-anchor="middle" x="527" y="-133.525" font-family="Calibri" font-size="9.00">Soft_I2C_Start</text>
</a>
</g>
</g>
<!-- Node518&#45;&gt;Node519 -->
<g id="edge4" class="edge"><title>Node518&#45;&gt;Node519</title>
<path fill="none" stroke="midnightblue" d="M312.588,-106.857C323.727,-120.372 346.783,-145.137 373,-154.725 413.036,-169.368 462.474,-158.438 494.12,-148.087"/>
<polygon fill="midnightblue" stroke="midnightblue" points="495.418,-151.342 503.735,-144.779 493.141,-144.722 495.418,-151.342"/>
</g>
<!-- Node520 -->
<g id="node6" class="node"><title>Node520</title>
<g id="a_node6"><a xlink:href="oled__control_8c.html#a73610916645f17c19124e697b005f694" target="_top" xlink:title="Soft_I2C_Write">
<polygon fill="none" stroke="black" points="489,-88.7254 489,-106.725 565,-106.725 565,-88.7254 489,-88.7254"/>
<text text-anchor="middle" x="527" y="-95.5254" font-family="Calibri" font-size="9.00">Soft_I2C_Write</text>
</a>
</g>
</g>
<!-- Node518&#45;&gt;Node520 -->
<g id="edge5" class="edge"><title>Node518&#45;&gt;Node520</title>
<path fill="none" stroke="midnightblue" d="M337.092,-97.7254C374.166,-97.7254 436.001,-97.7254 478.776,-97.7254"/>
<polygon fill="midnightblue" stroke="midnightblue" points="478.944,-101.225 488.944,-97.7254 478.944,-94.2255 478.944,-101.225"/>
</g>
<!-- Node521 -->
<g id="node7" class="node"><title>Node521</title>
<g id="a_node7"><a xlink:href="oled__control_8c.html#a6df77e8ec83c50ed6a5ddaf54aa3a9c2" target="_top" xlink:title="set_addressing">
<polygon fill="none" stroke="black" points="373,-126.725 373,-144.725 453,-144.725 453,-126.725 373,-126.725"/>
<text text-anchor="middle" x="413" y="-133.525" font-family="Calibri" font-size="9.00">set_addressing</text>
</a>
</g>
</g>
<!-- Node518&#45;&gt;Node521 -->
<g id="edge6" class="edge"><title>Node518&#45;&gt;Node521</title>
<path fill="none" stroke="midnightblue" d="M330.739,-106.731C344.565,-111.664 361.912,-117.853 377.024,-123.246"/>
<polygon fill="midnightblue" stroke="midnightblue" points="375.978,-126.589 386.573,-126.653 378.331,-119.996 375.978,-126.589"/>
</g>
<!-- Node522 -->
<g id="node8" class="node"><title>Node522</title>
<g id="a_node8"><a xlink:href="oled__control_8c.html#a16eb842aa672ca44820ae6d5f9933425" target="_top" xlink:title="Soft_I2C_Stop">
<polygon fill="none" stroke="black" points="377.5,-50.7254 377.5,-68.7254 448.5,-68.7254 448.5,-50.7254 377.5,-50.7254"/>
<text text-anchor="middle" x="413" y="-57.5254" font-family="Calibri" font-size="9.00">Soft_I2C_Stop</text>
</a>
</g>
</g>
<!-- Node518&#45;&gt;Node522 -->
<g id="edge9" class="edge"><title>Node518&#45;&gt;Node522</title>
<path fill="none" stroke="midnightblue" d="M330.739,-88.7199C344.565,-83.7869 361.912,-77.5972 377.024,-72.205"/>
<polygon fill="midnightblue" stroke="midnightblue" points="378.331,-75.455 386.573,-68.7979 375.978,-68.8621 378.331,-75.455"/>
</g>
<!-- Node521&#45;&gt;Node519 -->
<g id="edge7" class="edge"><title>Node521&#45;&gt;Node519</title>
<path fill="none" stroke="midnightblue" d="M453.172,-135.725C462.064,-135.725 471.579,-135.725 480.701,-135.725"/>
<polygon fill="midnightblue" stroke="midnightblue" points="480.779,-139.225 490.779,-135.725 480.779,-132.225 480.779,-139.225"/>
</g>
<!-- Node521&#45;&gt;Node520 -->
<g id="edge8" class="edge"><title>Node521&#45;&gt;Node520</title>
<path fill="none" stroke="midnightblue" d="M440.542,-126.72C455.22,-121.74 473.673,-115.479 489.671,-110.051"/>
<polygon fill="midnightblue" stroke="midnightblue" points="490.915,-113.325 499.26,-106.798 488.666,-106.696 490.915,-113.325"/>
</g>
<!-- Node523&#45;&gt;Node519 -->
<g id="edge11" class="edge"><title>Node523&#45;&gt;Node519</title>
<path fill="none" stroke="midnightblue" d="M332.078,-32.7754C363.552,-25.04 416.322,-17.5146 453,-40.7254 484.583,-60.712 462.998,-89.877 489,-116.725 490.551,-118.327 492.266,-119.818 494.083,-121.203"/>
<polygon fill="midnightblue" stroke="midnightblue" points="492.201,-124.154 502.509,-126.602 495.977,-118.26 492.201,-124.154"/>
</g>
<!-- Node523&#45;&gt;Node520 -->
<g id="edge12" class="edge"><title>Node523&#45;&gt;Node520</title>
<path fill="none" stroke="midnightblue" d="M320.019,-31.5056C347.29,-15.4519 407.517,13.9465 453,-7.72536 484.045,-22.5177 506.177,-57.6799 517.459,-79.4157"/>
<polygon fill="midnightblue" stroke="midnightblue" points="514.427,-81.1823 521.994,-88.5981 520.704,-78.0822 514.427,-81.1823"/>
</g>
<!-- Node523&#45;&gt;Node522 -->
<g id="edge13" class="edge"><title>Node523&#45;&gt;Node522</title>
<path fill="none" stroke="midnightblue" d="M332.1,-45.4709C342.785,-47.3772 355.4,-49.6277 367.411,-51.7704"/>
<polygon fill="midnightblue" stroke="midnightblue" points="366.842,-55.2243 377.302,-53.5351 368.072,-48.3331 366.842,-55.2243"/>
</g>
</g>
</svg>
