<?xml version="1.0" encoding="UTF-8" standalone="no"?>
<!DOCTYPE svg PUBLIC "-//W3C//DTD SVG 1.1//EN"
 "http://www.w3.org/Graphics/SVG/1.1/DTD/svg11.dtd">
<!-- Generated by graphviz version 2.38.0 (20140413.2041)
 -->
<!-- Title: test_init Pages: 1 -->
<!--zoomable 266 -->
<svg id="main" version="1.1" xmlns="http://www.w3.org/2000/svg" xmlns:xlink="http://www.w3.org/1999/xlink" xml:space="preserve" onload="init(evt)">
<style type="text/css"><![CDATA[
.edge:hover path { stroke: red; }
.edge:hover polygon { stroke: red; fill: red; }
]]></style>
<script type="text/javascript"><![CDATA[
var edges = document.getElementsByTagName('g');
if (edges && edges.length) {
  for (var i=0;i<edges.length;i++) {
    if (edges[i].id.substr(0,4)=='edge') {
      edges[i].setAttribute('class','edge');
    }
  }
}
]]></script>
        <defs>
                <circle id="rim" cx="0" cy="0" r="7"/>
                <circle id="rim2" cx="0" cy="0" r="3.5"/>
                <g id="zoomPlus">
                        <use xlink:href="#rim" fill="#404040">
                                <set attributeName="fill" to="#808080" begin="zoomplus.mouseover" end="zoomplus.mouseout"/>
                        </use>
                        <path d="M-4,0h8M0,-4v8" fill="none" stroke="white" stroke-width="1.5" pointer-events="none"/>
                </g>
                <g id="zoomMin">
                        <use xlink:href="#rim" fill="#404040">
                                <set attributeName="fill" to="#808080" begin="zoomminus.mouseover" end="zoomminus.mouseout"/>
                        </use>
                        <path d="M-4,0h8" fill="none" stroke="white" stroke-width="1.5" pointer-events="none"/>
                </g>
                <g id="dirArrow">
                        <path fill="none" stroke="white" stroke-width="1.5" d="M0,-3.0v7 M-2.5,-0.5L0,-3.0L2.5,-0.5"/>
                </g>
               <g id="resetDef">
                       <use xlink:href="#rim2" fill="#404040">
                               <set attributeName="fill" to="#808080" begin="reset.mouseover" end="reset.mouseout"/>
                       </use>
               </g>
        </defs>

<script type="text/javascript">
var viewWidth = 659;
var viewHeight = 266;
var sectionId = 'dynsection-50';
</script>
<script xlink:href="svgpan.js"/>
<svg id="graph" class="graph">
<g id="viewport">
<title>test_init</title>
<!-- Node1 -->
<g id="node1" class="node"><title>Node1</title>
<g id="a_node1"><a xlink:title=" ">
<polygon fill="#bfbfbf" stroke="black" points="0,-131.468 0,-149.468 51,-149.468 51,-131.468 0,-131.468"/>
<text text-anchor="middle" x="25.5" y="-138.268" font-family="Calibri" font-size="9.00">test_init</text>
</a>
</g>
</g>
<!-- Node2 -->
<g id="node2" class="node"><title>Node2</title>
<g id="a_node2"><a xlink:href="main_8h.html#a9dff326a6079fe726285b11ee837ad60" target="_top" xlink:title=" ">
<polygon fill="none" stroke="black" points="87,-206.468 87,-224.468 143,-224.468 143,-206.468 87,-206.468"/>
<text text-anchor="middle" x="115" y="-213.268" font-family="Calibri" font-size="9.00">atu_reset</text>
</a>
</g>
</g>
<!-- Node1&#45;&gt;Node2 -->
<g id="edge1" class="edge"><title>Node1&#45;&gt;Node2</title>
<path fill="none" stroke="midnightblue" d="M37.2292,-149.665C51.7397,-162.102 77.8363,-184.471 95.5318,-199.639"/>
<polygon fill="midnightblue" stroke="midnightblue" points="93.586,-202.58 103.456,-206.431 98.1415,-197.266 93.586,-202.58"/>
</g>
<!-- Node6 -->
<g id="node6" class="node"><title>Node6</title>
<g id="a_node6"><a xlink:href="main_8c.html#a46f52cccc77b5d2d91f35334046bc8eb" target="_top" xlink:title=" ">
<polygon fill="none" stroke="black" points="89,-74.4684 89,-92.4684 141,-92.4684 141,-74.4684 89,-74.4684"/>
<text text-anchor="middle" x="115" y="-81.2684" font-family="Calibri" font-size="9.00">lcd_prep</text>
</a>
</g>
</g>
<!-- Node1&#45;&gt;Node6 -->
<g id="edge7" class="edge"><title>Node1&#45;&gt;Node6</title>
<path fill="none" stroke="midnightblue" d="M40.5584,-131.31C54.208,-122.419 75.1583,-108.771 91.1947,-98.3245"/>
<polygon fill="midnightblue" stroke="midnightblue" points="93.5079,-100.995 99.9765,-92.6038 89.6871,-95.1295 93.5079,-100.995"/>
</g>
<!-- Node8 -->
<g id="node8" class="node"><title>Node8</title>
<g id="a_node8"><a xlink:href="oled__control_8c.html#a1c8eef09adf01c9a7e3c6188f25c3c48" target="_top" xlink:title=" ">
<polygon fill="none" stroke="black" points="263,-74.4684 263,-92.4684 322,-92.4684 322,-74.4684 263,-74.4684"/>
<text text-anchor="middle" x="292.5" y="-81.2684" font-family="Calibri" font-size="9.00">led_wr_str</text>
</a>
</g>
</g>
<!-- Node1&#45;&gt;Node8 -->
<g id="edge22" class="edge"><title>Node1&#45;&gt;Node8</title>
<path fill="none" stroke="midnightblue" d="M51.1978,-135.192C89.045,-127.102 163.664,-111.134 227,-97.4684 235.453,-95.6446 244.528,-93.6794 253.123,-91.8147"/>
<polygon fill="midnightblue" stroke="midnightblue" points="253.897,-95.2283 262.927,-89.6863 252.412,-88.3876 253.897,-95.2283"/>
</g>
<!-- Node15 -->
<g id="node15" class="node"><title>Node15</title>
<g id="a_node15"><a xlink:href="main_8h.html#aa3ee146d5fca99f368e8ddb5d5dd72cb" target="_top" xlink:title="Set the state of the switch.">
<polygon fill="none" stroke="black" points="92.5,-150.468 92.5,-168.468 137.5,-168.468 137.5,-150.468 92.5,-150.468"/>
<text text-anchor="middle" x="115" y="-157.268" font-family="Calibri" font-size="9.00">set_sw</text>
</a>
</g>
</g>
<!-- Node1&#45;&gt;Node15 -->
<g id="edge23" class="edge"><title>Node1&#45;&gt;Node15</title>
<path fill="none" stroke="midnightblue" d="M51.3399,-145.862C61.0408,-147.969 72.2775,-150.409 82.5341,-152.636"/>
<polygon fill="midnightblue" stroke="midnightblue" points="81.8558,-156.07 92.3708,-154.772 83.3412,-149.229 81.8558,-156.07"/>
</g>
<!-- Node3 -->
<g id="node3" class="node"><title>Node3</title>
<g id="a_node3"><a xlink:href="main_8h.html#a85fb3ccca120f3b843a1dc7567908a04" target="_top" xlink:title=" ">
<polygon fill="none" stroke="black" points="264.5,-206.468 264.5,-224.468 320.5,-224.468 320.5,-206.468 264.5,-206.468"/>
<text text-anchor="middle" x="292.5" y="-213.268" font-family="Calibri" font-size="9.00">delay_ms</text>
</a>
</g>
</g>
<!-- Node2&#45;&gt;Node3 -->
<g id="edge2" class="edge"><title>Node2&#45;&gt;Node3</title>
<path fill="none" stroke="midnightblue" d="M126.742,-224.489C138.639,-233.837 158.819,-247.853 179,-253.468 199.553,-259.187 206.418,-259.081 227,-253.468 243.387,-249 259.852,-239.191 272.045,-230.658"/>
<polygon fill="midnightblue" stroke="midnightblue" points="274.465,-233.224 280.464,-224.492 270.329,-227.577 274.465,-233.224"/>
</g>
<!-- Node4 -->
<g id="node4" class="node"><title>Node4</title>
<g id="a_node4"><a xlink:href="main_8h.html#a2a7963b9b09696c6654b96c67900c6ea" target="_top" xlink:title=" ">
<polygon fill="none" stroke="black" points="179,-225.468 179,-243.468 227,-243.468 227,-225.468 179,-225.468"/>
<text text-anchor="middle" x="203" y="-232.268" font-family="Calibri" font-size="9.00">set_cap</text>
</a>
</g>
</g>
<!-- Node2&#45;&gt;Node4 -->
<g id="edge3" class="edge"><title>Node2&#45;&gt;Node4</title>
<path fill="none" stroke="midnightblue" d="M143.211,-221.48C151.327,-223.273 160.316,-225.259 168.771,-227.127"/>
<polygon fill="midnightblue" stroke="midnightblue" points="168.208,-230.587 178.727,-229.327 169.718,-223.752 168.208,-230.587"/>
</g>
<!-- Node5 -->
<g id="node5" class="node"><title>Node5</title>
<g id="a_node5"><a xlink:href="main_8h.html#aecc83cd8bceb4bc24be844732ead2c2c" target="_top" xlink:title=" ">
<polygon fill="none" stroke="black" points="179.5,-188.468 179.5,-206.468 226.5,-206.468 226.5,-188.468 179.5,-188.468"/>
<text text-anchor="middle" x="203" y="-195.268" font-family="Calibri" font-size="9.00">set_ind</text>
</a>
</g>
</g>
<!-- Node2&#45;&gt;Node5 -->
<g id="edge5" class="edge"><title>Node2&#45;&gt;Node5</title>
<path fill="none" stroke="midnightblue" d="M143.211,-209.773C151.558,-208.026 160.827,-206.086 169.491,-204.273"/>
<polygon fill="midnightblue" stroke="midnightblue" points="170.221,-207.696 179.292,-202.221 168.787,-200.844 170.221,-207.696"/>
</g>
<!-- Node4&#45;&gt;Node3 -->
<g id="edge4" class="edge"><title>Node4&#45;&gt;Node3</title>
<path fill="none" stroke="midnightblue" d="M227.448,-229.377C235.687,-227.588 245.16,-225.531 254.25,-223.557"/>
<polygon fill="midnightblue" stroke="midnightblue" points="255.235,-226.925 264.264,-221.383 253.749,-220.084 255.235,-226.925"/>
</g>
<!-- Node5&#45;&gt;Node3 -->
<g id="edge6" class="edge"><title>Node5&#45;&gt;Node3</title>
<path fill="none" stroke="midnightblue" d="M226.533,-202.104C235.012,-203.848 244.893,-205.881 254.352,-207.827"/>
<polygon fill="midnightblue" stroke="midnightblue" points="253.865,-211.3 264.365,-209.886 255.275,-204.443 253.865,-211.3"/>
</g>
<!-- Node7 -->
<g id="node7" class="node"><title>Node7</title>
<g id="a_node7"><a xlink:href="main_8c.html#a6911b3f075cdf1d54cb14f17f6e5ef6b" target="_top" xlink:title=" ">
<polygon fill="none" stroke="black" points="179.5,-36.4684 179.5,-54.4684 226.5,-54.4684 226.5,-36.4684 179.5,-36.4684"/>
<text text-anchor="middle" x="203" y="-43.2684" font-family="Calibri" font-size="9.00">lcd_ind</text>
</a>
</g>
</g>
<!-- Node6&#45;&gt;Node7 -->
<g id="edge8" class="edge"><title>Node6&#45;&gt;Node7</title>
<path fill="none" stroke="midnightblue" d="M136.381,-74.463C147.013,-69.7648 160.225,-63.927 172.001,-58.7236"/>
<polygon fill="midnightblue" stroke="midnightblue" points="173.735,-61.7841 181.467,-54.541 170.906,-55.3813 173.735,-61.7841"/>
</g>
<!-- Node6&#45;&gt;Node8 -->
<g id="edge21" class="edge"><title>Node6&#45;&gt;Node8</title>
<path fill="none" stroke="midnightblue" d="M141.145,-83.4684C170.349,-83.4684 218.857,-83.4684 252.857,-83.4684"/>
<polygon fill="midnightblue" stroke="midnightblue" points="252.906,-86.9685 262.906,-83.4684 252.906,-79.9685 252.906,-86.9685"/>
</g>
<!-- Node7&#45;&gt;Node8 -->
<g id="edge9" class="edge"><title>Node7&#45;&gt;Node8</title>
<path fill="none" stroke="midnightblue" d="M224.736,-54.4739C235.663,-59.219 249.266,-65.1268 261.337,-70.3692"/>
<polygon fill="midnightblue" stroke="midnightblue" points="260.043,-73.6228 270.609,-74.3959 262.831,-67.2021 260.043,-73.6228"/>
</g>
<!-- Node9 -->
<g id="node9" class="node"><title>Node9</title>
<g id="a_node9"><a xlink:href="oled__control_8c.html#a3d35666326cc069eda3b63c70983fdbc" target="_top" xlink:title=" ">
<polygon fill="none" stroke="black" points="363,-112.468 363,-130.468 418,-130.468 418,-112.468 363,-112.468"/>
<text text-anchor="middle" x="390.5" y="-119.268" font-family="Calibri" font-size="9.00">led_send</text>
</a>
</g>
</g>
<!-- Node8&#45;&gt;Node9 -->
<g id="edge10" class="edge"><title>Node8&#45;&gt;Node9</title>
<path fill="none" stroke="midnightblue" d="M316.251,-92.4739C328.476,-97.313 343.755,-103.361 357.192,-108.68"/>
<polygon fill="midnightblue" stroke="midnightblue" points="355.994,-111.97 366.58,-112.396 358.57,-105.461 355.994,-111.97"/>
</g>
<!-- Node13 -->
<g id="node13" class="node"><title>Node13</title>
<g id="a_node13"><a xlink:href="oled__control_8c.html#a6e85fd05697e2238e4d9babf1c952772" target="_top" xlink:title=" ">
<polygon fill="none" stroke="black" points="358,-55.4684 358,-73.4684 423,-73.4684 423,-55.4684 358,-55.4684"/>
<text text-anchor="middle" x="390.5" y="-62.2684" font-family="Calibri" font-size="9.00">oled_wr_str</text>
</a>
</g>
</g>
<!-- Node8&#45;&gt;Node13 -->
<g id="edge14" class="edge"><title>Node8&#45;&gt;Node13</title>
<path fill="none" stroke="midnightblue" d="M322.043,-77.8193C330.147,-76.2154 339.142,-74.4352 347.852,-72.7112"/>
<polygon fill="midnightblue" stroke="midnightblue" points="348.747,-76.1022 357.877,-70.7272 347.388,-69.2354 348.747,-76.1022"/>
</g>
<!-- Node10 -->
<g id="node10" class="node"><title>Node10</title>
<g id="a_node10"><a xlink:href="oled__control_8c.html#ab7f6b5c6c1483f6286f2de5786c028d9" target="_top" xlink:title=" ">
<polygon fill="none" stroke="black" points="577,-17.4684 577,-35.4684 649,-35.4684 649,-17.4684 577,-17.4684"/>
<text text-anchor="middle" x="613" y="-24.2684" font-family="Calibri" font-size="9.00">Soft_I2C_Start</text>
</a>
</g>
</g>
<!-- Node9&#45;&gt;Node10 -->
<g id="edge11" class="edge"><title>Node9&#45;&gt;Node10</title>
<path fill="none" stroke="midnightblue" d="M418.084,-129.163C449.564,-136.613 502.34,-143.71 539,-120.468 570.228,-100.671 549.209,-71.9624 575,-45.4684 576.555,-43.8709 578.273,-42.3823 580.093,-40.9997"/>
<polygon fill="midnightblue" stroke="midnightblue" points="581.986,-43.9434 588.524,-35.6067 578.214,-38.0465 581.986,-43.9434"/>
</g>
<!-- Node11 -->
<g id="node11" class="node"><title>Node11</title>
<g id="a_node11"><a xlink:href="oled__control_8c.html#a16eb842aa672ca44820ae6d5f9933425" target="_top" xlink:title=" ">
<polygon fill="none" stroke="black" points="463.5,-93.4684 463.5,-111.468 534.5,-111.468 534.5,-93.4684 463.5,-93.4684"/>
<text text-anchor="middle" x="499" y="-100.268" font-family="Calibri" font-size="9.00">Soft_I2C_Stop</text>
</a>
</g>
</g>
<!-- Node9&#45;&gt;Node11 -->
<g id="edge12" class="edge"><title>Node9&#45;&gt;Node11</title>
<path fill="none" stroke="midnightblue" d="M418.1,-116.723C428.785,-114.817 441.4,-112.566 453.411,-110.423"/>
<polygon fill="midnightblue" stroke="midnightblue" points="454.072,-113.861 463.302,-108.659 452.842,-106.97 454.072,-113.861"/>
</g>
<!-- Node12 -->
<g id="node12" class="node"><title>Node12</title>
<g id="a_node12"><a xlink:href="oled__control_8c.html#a73610916645f17c19124e697b005f694" target="_top" xlink:title=" ">
<polygon fill="none" stroke="black" points="575,-55.4684 575,-73.4684 651,-73.4684 651,-55.4684 575,-55.4684"/>
<text text-anchor="middle" x="613" y="-62.2684" font-family="Calibri" font-size="9.00">Soft_I2C_Write</text>
</a>
</g>
</g>
<!-- Node9&#45;&gt;Node12 -->
<g id="edge13" class="edge"><title>Node9&#45;&gt;Node12</title>
<path fill="none" stroke="midnightblue" d="M406.019,-130.688C433.29,-146.742 493.517,-176.14 539,-154.468 570.045,-139.676 592.177,-104.514 603.459,-82.7782"/>
<polygon fill="midnightblue" stroke="midnightblue" points="606.704,-84.1117 607.994,-73.5957 600.427,-81.0115 606.704,-84.1117"/>
</g>
<!-- Node13&#45;&gt;Node10 -->
<g id="edge18" class="edge"><title>Node13&#45;&gt;Node10</title>
<path fill="none" stroke="midnightblue" d="M398.588,-55.3372C409.727,-41.8215 432.783,-17.0571 459,-7.46845 499.036,7.17429 548.474,-3.75588 580.12,-14.1072"/>
<polygon fill="midnightblue" stroke="midnightblue" points="579.141,-17.4715 589.735,-17.4146 581.418,-10.8521 579.141,-17.4715"/>
</g>
<!-- Node13&#45;&gt;Node11 -->
<g id="edge19" class="edge"><title>Node13&#45;&gt;Node11</title>
<path fill="none" stroke="midnightblue" d="M416.739,-73.4739C430.565,-78.407 447.912,-84.5966 463.024,-89.9888"/>
<polygon fill="midnightblue" stroke="midnightblue" points="461.978,-93.3317 472.573,-93.3959 464.331,-86.7389 461.978,-93.3317"/>
</g>
<!-- Node13&#45;&gt;Node12 -->
<g id="edge20" class="edge"><title>Node13&#45;&gt;Node12</title>
<path fill="none" stroke="midnightblue" d="M423.092,-64.4684C460.166,-64.4684 522.001,-64.4684 564.776,-64.4684"/>
<polygon fill="midnightblue" stroke="midnightblue" points="564.944,-67.9685 574.944,-64.4684 564.944,-60.9685 564.944,-67.9685"/>
</g>
<!-- Node14 -->
<g id="node14" class="node"><title>Node14</title>
<g id="a_node14"><a xlink:href="oled__control_8c.html#a3cf32ac4d3d7c92be54c385c1ed8cc76" target="_top" xlink:title=" ">
<polygon fill="none" stroke="black" points="459,-17.4684 459,-35.4684 539,-35.4684 539,-17.4684 459,-17.4684"/>
<text text-anchor="middle" x="499" y="-24.2684" font-family="Calibri" font-size="9.00">set_addressing</text>
</a>
</g>
</g>
<!-- Node13&#45;&gt;Node14 -->
<g id="edge15" class="edge"><title>Node13&#45;&gt;Node14</title>
<path fill="none" stroke="midnightblue" d="M416.739,-55.463C430.565,-50.5299 447.912,-44.3403 463.024,-38.9481"/>
<polygon fill="midnightblue" stroke="midnightblue" points="464.331,-42.198 472.573,-35.541 461.978,-35.6051 464.331,-42.198"/>
</g>
<!-- Node14&#45;&gt;Node10 -->
<g id="edge16" class="edge"><title>Node14&#45;&gt;Node10</title>
<path fill="none" stroke="midnightblue" d="M539.172,-26.4684C548.064,-26.4684 557.579,-26.4684 566.701,-26.4684"/>
<polygon fill="midnightblue" stroke="midnightblue" points="566.779,-29.9685 576.779,-26.4684 566.779,-22.9685 566.779,-29.9685"/>
</g>
<!-- Node14&#45;&gt;Node12 -->
<g id="edge17" class="edge"><title>Node14&#45;&gt;Node12</title>
<path fill="none" stroke="midnightblue" d="M526.542,-35.4739C541.22,-40.4539 559.673,-46.7146 575.671,-52.1427"/>
<polygon fill="midnightblue" stroke="midnightblue" points="574.666,-55.4973 585.26,-55.3959 576.915,-48.8685 574.666,-55.4973"/>
</g>
<!-- Node15&#45;&gt;Node3 -->
<g id="edge24" class="edge"><title>Node15&#45;&gt;Node3</title>
<path fill="none" stroke="midnightblue" d="M137.851,-160.938C160.662,-162.99 197.195,-167.752 227,-178.468 242.295,-183.968 258.147,-193.008 270.309,-200.775"/>
<polygon fill="midnightblue" stroke="midnightblue" points="268.544,-203.804 278.819,-206.387 272.397,-197.96 268.544,-203.804"/>
</g>
</g>
</svg>
        <g id="navigator" transform="translate(0 0)" fill="#404254">
                <rect fill="#f2f5e9" fill-opacity="0.5" stroke="#606060" stroke-width=".5" x="0" y="0" width="60" height="60"/>
                <use id="zoomplus" xlink:href="#zoomPlus" x="17" y="9" onmousedown="handleZoom(evt,'in')"/>
                <use id="zoomminus" xlink:href="#zoomMin" x="42" y="9" onmousedown="handleZoom(evt,'out')"/>
                <use id="reset" xlink:href="#resetDef" x="30" y="36" onmousedown="handleReset()"/>
                <g id="arrowUp" xlink:href="#dirArrow" transform="translate(30 24)" onmousedown="handlePan(0,-1)">
                  <use xlink:href="#rim" fill="#404040">
                        <set attributeName="fill" to="#808080" begin="arrowUp.mouseover" end="arrowUp.mouseout"/>
                  </use>
                  <path fill="none" stroke="white" stroke-width="1.5" d="M0,-3.0v7 M-2.5,-0.5L0,-3.0L2.5,-0.5"/>
                </g>
                <g id="arrowRight" xlink:href="#dirArrow" transform="rotate(90) translate(36 -43)" onmousedown="handlePan(1,0)">
                  <use xlink:href="#rim" fill="#404040">
                        <set attributeName="fill" to="#808080" begin="arrowRight.mouseover" end="arrowRight.mouseout"/>
                  </use>
                  <path fill="none" stroke="white" stroke-width="1.5" d="M0,-3.0v7 M-2.5,-0.5L0,-3.0L2.5,-0.5"/>
                </g>
                <g id="arrowDown" xlink:href="#dirArrow" transform="rotate(180) translate(-30 -48)" onmousedown="handlePan(0,1)">
                  <use xlink:href="#rim" fill="#404040">
                        <set attributeName="fill" to="#808080" begin="arrowDown.mouseover" end="arrowDown.mouseout"/>
                  </use>
                  <path fill="none" stroke="white" stroke-width="1.5" d="M0,-3.0v7 M-2.5,-0.5L0,-3.0L2.5,-0.5"/>
                </g>
                <g id="arrowLeft" xlink:href="#dirArrow" transform="rotate(270) translate(-36 17)" onmousedown="handlePan(-1,0)">
                  <use xlink:href="#rim" fill="#404040">
                        <set attributeName="fill" to="#808080" begin="arrowLeft.mouseover" end="arrowLeft.mouseout"/>
                  </use>
                  <path fill="none" stroke="white" stroke-width="1.5" d="M0,-3.0v7 M-2.5,-0.5L0,-3.0L2.5,-0.5"/>
                </g>
        </g>
        <svg viewBox="0 0 15 15" width="100%" height="30px" preserveAspectRatio="xMaxYMin meet">
         <g id="arrow_out" transform="scale(0.3 0.3)">
          <a xlink:href="main_8h_a7a367b10f22edd310a36627b6c941255_cgraph_org.svg" target="_base">
           <rect id="button" ry="5" rx="5" y="6" x="6" height="38" width="38"
                fill="#f2f5e9" fill-opacity="0.5" stroke="#606060" stroke-width="1.0"/>
           <path id="arrow"
             d="M 11.500037,31.436501 C 11.940474,20.09759 22.043105,11.32322 32.158766,21.979434 L 37.068811,17.246167 C 37.068811,17.246167 37.088388,32 37.088388,32 L 22.160133,31.978069 C 22.160133,31.978069 26.997745,27.140456 26.997745,27.140456 C 18.528582,18.264221 13.291696,25.230495 11.500037,31.436501 z"
             style="fill:#404040;"/>
          </a>
         </g>
        </svg>
</svg>
