<?xml version="1.0" encoding="UTF-8" standalone="no"?>
<!DOCTYPE svg PUBLIC "-//W3C//DTD SVG 1.1//EN"
 "http://www.w3.org/Graphics/SVG/1.1/DTD/svg11.dtd">
<!-- Generated by graphviz version 2.38.0 (20140413.2041)
 -->
<!-- Title: test_init Pages: 1 -->
<svg width="330pt" height="215pt"
 viewBox="0.00 0.00 330.00 215.00" xmlns="http://www.w3.org/2000/svg" xmlns:xlink="http://www.w3.org/1999/xlink">
<g id="graph0" class="graph" transform="scale(1 1) rotate(0) translate(4 211)">
<title>test_init</title>
<!-- Node1 -->
<g id="node1" class="node"><title>Node1</title>
<g id="a_node1"><a xlink:title=" ">
<polygon fill="#bfbfbf" stroke="black" points="0,-57.5 0,-75.5 51,-75.5 51,-57.5 0,-57.5"/>
<text text-anchor="middle" x="25.5" y="-64.3" font-family="Calibri" font-size="9.00">test_init</text>
</a>
</g>
</g>
<!-- Node2 -->
<g id="node2" class="node"><title>Node2</title>
<g id="a_node2"><a xlink:href="main_8h.html#a9dff326a6079fe726285b11ee837ad60" target="_top" xlink:title=" ">
<polygon fill="none" stroke="black" points="87,-151.5 87,-169.5 143,-169.5 143,-151.5 87,-151.5"/>
<text text-anchor="middle" x="115" y="-158.3" font-family="Calibri" font-size="9.00">atu_reset</text>
</a>
</g>
</g>
<!-- Node1&#45;&gt;Node2 -->
<g id="edge1" class="edge"><title>Node1&#45;&gt;Node2</title>
<path fill="none" stroke="midnightblue" d="M34.8899,-75.5131C49.5518,-91.2643 80.0394,-124.017 98.5912,-143.947"/>
<polygon fill="midnightblue" stroke="midnightblue" points="96.1316,-146.441 105.507,-151.376 101.255,-141.672 96.1316,-146.441"/>
</g>
<!-- Node5 -->
<g id="node5" class="node"><title>Node5</title>
<g id="a_node5"><a xlink:href="main_8c.html#a46f52cccc77b5d2d91f35334046bc8eb" target="_top" xlink:title=" ">
<polygon fill="none" stroke="black" points="89,-76.5 89,-94.5 141,-94.5 141,-76.5 89,-76.5"/>
<text text-anchor="middle" x="115" y="-83.3" font-family="Calibri" font-size="9.00">lcd_prep</text>
</a>
</g>
</g>
<!-- Node1&#45;&gt;Node5 -->
<g id="edge4" class="edge"><title>Node1&#45;&gt;Node5</title>
<path fill="none" stroke="midnightblue" d="M51.3399,-71.8938C59.8566,-73.7431 69.5571,-75.8495 78.7388,-77.8433"/>
<polygon fill="midnightblue" stroke="midnightblue" points="78.2791,-81.325 88.7941,-80.0267 79.7645,-74.4844 78.2791,-81.325"/>
</g>
<!-- Node7 -->
<g id="node7" class="node"><title>Node7</title>
<g id="a_node7"><a xlink:href="oled__control_8h.html#ab272af1010175ba1166b08b8b3df6874" target="_top" xlink:title=" ">
<polygon fill="none" stroke="black" points="263,-76.5 263,-94.5 322,-94.5 322,-76.5 263,-76.5"/>
<text text-anchor="middle" x="292.5" y="-83.3" font-family="Calibri" font-size="9.00">led_wr_str</text>
</a>
</g>
</g>
<!-- Node1&#45;&gt;Node7 -->
<g id="edge8" class="edge"><title>Node1&#45;&gt;Node7</title>
<path fill="none" stroke="midnightblue" d="M51.0749,-65.5941C74.6724,-64.9384 111.31,-64.4809 143,-66.5 180.473,-68.8875 222.944,-74.6311 252.838,-79.1827"/>
<polygon fill="midnightblue" stroke="midnightblue" points="252.44,-82.6628 262.858,-80.7354 253.512,-75.7453 252.44,-82.6628"/>
</g>
<!-- Node8 -->
<g id="node8" class="node"><title>Node8</title>
<g id="a_node8"><a xlink:href="main_8h.html#ae0c1e0ec712704e43db40473f103d621" target="_top" xlink:title="Set the state of the switch.">
<polygon fill="none" stroke="black" points="92.5,-0.5 92.5,-18.5 137.5,-18.5 137.5,-0.5 92.5,-0.5"/>
<text text-anchor="middle" x="115" y="-7.3" font-family="Calibri" font-size="9.00">set_sw</text>
</a>
</g>
</g>
<!-- Node1&#45;&gt;Node8 -->
<g id="edge9" class="edge"><title>Node1&#45;&gt;Node8</title>
<path fill="none" stroke="midnightblue" d="M40.5584,-57.342C54.208,-48.4502 75.1583,-34.8026 91.1947,-24.356"/>
<polygon fill="midnightblue" stroke="midnightblue" points="93.5079,-27.0263 99.9765,-18.6353 89.6871,-21.161 93.5079,-27.0263"/>
</g>
<!-- Node3 -->
<g id="node3" class="node"><title>Node3</title>
<g id="a_node3"><a xlink:href="main_8h.html#a2a7963b9b09696c6654b96c67900c6ea" target="_top" xlink:title=" ">
<polygon fill="none" stroke="black" points="179,-188.5 179,-206.5 227,-206.5 227,-188.5 179,-188.5"/>
<text text-anchor="middle" x="203" y="-195.3" font-family="Calibri" font-size="9.00">set_cap</text>
</a>
</g>
</g>
<!-- Node2&#45;&gt;Node3 -->
<g id="edge2" class="edge"><title>Node2&#45;&gt;Node3</title>
<path fill="none" stroke="midnightblue" d="M137.258,-169.646C147.673,-174.127 160.396,-179.601 171.799,-184.506"/>
<polygon fill="midnightblue" stroke="midnightblue" points="170.417,-187.722 180.986,-188.459 173.183,-181.292 170.417,-187.722"/>
</g>
<!-- Node4 -->
<g id="node4" class="node"><title>Node4</title>
<g id="a_node4"><a xlink:href="main_8h.html#aecc83cd8bceb4bc24be844732ead2c2c" target="_top" xlink:title=" ">
<polygon fill="none" stroke="black" points="179.5,-151.5 179.5,-169.5 226.5,-169.5 226.5,-151.5 179.5,-151.5"/>
<text text-anchor="middle" x="203" y="-158.3" font-family="Calibri" font-size="9.00">set_ind</text>
</a>
</g>
</g>
<!-- Node2&#45;&gt;Node4 -->
<g id="edge3" class="edge"><title>Node2&#45;&gt;Node4</title>
<path fill="none" stroke="midnightblue" d="M143.211,-160.5C151.467,-160.5 160.626,-160.5 169.208,-160.5"/>
<polygon fill="midnightblue" stroke="midnightblue" points="169.292,-164 179.292,-160.5 169.292,-157 169.292,-164"/>
</g>
<!-- Node6 -->
<g id="node6" class="node"><title>Node6</title>
<g id="a_node6"><a xlink:href="main_8c.html#a6911b3f075cdf1d54cb14f17f6e5ef6b" target="_top" xlink:title=" ">
<polygon fill="none" stroke="black" points="179.5,-114.5 179.5,-132.5 226.5,-132.5 226.5,-114.5 179.5,-114.5"/>
<text text-anchor="middle" x="203" y="-121.3" font-family="Calibri" font-size="9.00">lcd_ind</text>
</a>
</g>
</g>
<!-- Node5&#45;&gt;Node6 -->
<g id="edge5" class="edge"><title>Node5&#45;&gt;Node6</title>
<path fill="none" stroke="midnightblue" d="M136.381,-94.5055C147.013,-99.2036 160.225,-105.041 172.001,-110.245"/>
<polygon fill="midnightblue" stroke="midnightblue" points="170.906,-113.587 181.467,-114.427 173.735,-107.184 170.906,-113.587"/>
</g>
<!-- Node5&#45;&gt;Node7 -->
<g id="edge7" class="edge"><title>Node5&#45;&gt;Node7</title>
<path fill="none" stroke="midnightblue" d="M141.145,-85.5C170.349,-85.5 218.857,-85.5 252.857,-85.5"/>
<polygon fill="midnightblue" stroke="midnightblue" points="252.906,-89.0001 262.906,-85.5 252.906,-82.0001 252.906,-89.0001"/>
</g>
<!-- Node6&#45;&gt;Node7 -->
<g id="edge6" class="edge"><title>Node6&#45;&gt;Node7</title>
<path fill="none" stroke="midnightblue" d="M224.736,-114.495C235.663,-109.749 249.266,-103.842 261.337,-98.5992"/>
<polygon fill="midnightblue" stroke="midnightblue" points="262.831,-101.766 270.609,-94.5725 260.043,-95.3457 262.831,-101.766"/>
</g>
</g>
</svg>
