<?xml version="1.0" encoding="UTF-8" standalone="no"?>
<!DOCTYPE svg PUBLIC "-//W3C//DTD SVG 1.1//EN"
 "http://www.w3.org/Graphics/SVG/1.1/DTD/svg11.dtd">
<!-- Generated by graphviz version 2.38.0 (20140413.2041)
 -->
<!-- Title: sharp_ind Pages: 1 -->
<!--zoomable 383 -->
<svg id="main" version="1.1" xmlns="http://www.w3.org/2000/svg" xmlns:xlink="http://www.w3.org/1999/xlink" xml:space="preserve" onload="init(evt)">
<style type="text/css"><![CDATA[
.edge:hover path { stroke: red; }
.edge:hover polygon { stroke: red; fill: red; }
]]></style>
<script type="text/javascript"><![CDATA[
var edges = document.getElementsByTagName('g');
if (edges && edges.length) {
  for (var i=0;i<edges.length;i++) {
    if (edges[i].id.substr(0,4)=='edge') {
      edges[i].setAttribute('class','edge');
    }
  }
}
]]></script>
        <defs>
                <circle id="rim" cx="0" cy="0" r="7"/>
                <circle id="rim2" cx="0" cy="0" r="3.5"/>
                <g id="zoomPlus">
                        <use xlink:href="#rim" fill="#404040">
                                <set attributeName="fill" to="#808080" begin="zoomplus.mouseover" end="zoomplus.mouseout"/>
                        </use>
                        <path d="M-4,0h8M0,-4v8" fill="none" stroke="white" stroke-width="1.5" pointer-events="none"/>
                </g>
                <g id="zoomMin">
                        <use xlink:href="#rim" fill="#404040">
                                <set attributeName="fill" to="#808080" begin="zoomminus.mouseover" end="zoomminus.mouseout"/>
                        </use>
                        <path d="M-4,0h8" fill="none" stroke="white" stroke-width="1.5" pointer-events="none"/>
                </g>
                <g id="dirArrow">
                        <path fill="none" stroke="white" stroke-width="1.5" d="M0,-3.0v7 M-2.5,-0.5L0,-3.0L2.5,-0.5"/>
                </g>
               <g id="resetDef">
                       <use xlink:href="#rim2" fill="#404040">
                               <set attributeName="fill" to="#808080" begin="reset.mouseover" end="reset.mouseout"/>
                       </use>
               </g>
        </defs>

<script type="text/javascript">
var viewWidth = 678;
var viewHeight = 383;
var sectionId = 'dynsection-36';
</script>
<script xlink:href="svgpan.js"/>
<svg id="graph" class="graph">
<g id="viewport">
<title>sharp_ind</title>
<!-- Node1 -->
<g id="node1" class="node"><title>Node1</title>
<g id="a_node1"><a xlink:title=" ">
<polygon fill="#bfbfbf" stroke="black" points="0,-219.204 0,-237.204 58,-237.204 58,-219.204 0,-219.204"/>
<text text-anchor="middle" x="29" y="-226.004" font-family="Calibri" font-size="9.00">sharp_ind</text>
</a>
</g>
</g>
<!-- Node2 -->
<g id="node2" class="node"><title>Node2</title>
<g id="a_node2"><a xlink:href="main_8h.html#ad7eb7423e0b17ccfba1ae42f3a3274e0" target="_top" xlink:title=" ">
<polygon fill="none" stroke="black" points="94,-50.2043 94,-68.2043 142,-68.2043 142,-50.2043 94,-50.2043"/>
<text text-anchor="middle" x="118" y="-57.0043" font-family="Calibri" font-size="9.00">get_swr</text>
</a>
</g>
</g>
<!-- Node1&#45;&gt;Node2 -->
<g id="edge1" class="edge"><title>Node1&#45;&gt;Node2</title>
<path fill="none" stroke="midnightblue" d="M34.6775,-219.118C48.4264,-192.411 88.9079,-113.774 107.485,-77.6873"/>
<polygon fill="midnightblue" stroke="midnightblue" points="110.834,-78.8284 112.299,-68.3354 104.61,-75.6245 110.834,-78.8284"/>
</g>
<!-- Node13 -->
<g id="node13" class="node"><title>Node13</title>
<g id="a_node13"><a xlink:href="main_8h.html#aecc83cd8bceb4bc24be844732ead2c2c" target="_top" xlink:title=" ">
<polygon fill="none" stroke="black" points="382,-356.204 382,-374.204 429,-374.204 429,-356.204 382,-356.204"/>
<text text-anchor="middle" x="405.5" y="-363.004" font-family="Calibri" font-size="9.00">set_ind</text>
</a>
</g>
</g>
<!-- Node1&#45;&gt;Node13 -->
<g id="edge36" class="edge"><title>Node1&#45;&gt;Node13</title>
<path fill="none" stroke="midnightblue" d="M45.3307,-237.35C83.3138,-259.574 185.414,-316.685 278,-345.204 309.002,-354.754 345.755,-359.915 371.634,-362.587"/>
<polygon fill="midnightblue" stroke="midnightblue" points="371.378,-366.079 381.668,-363.555 372.05,-359.111 371.378,-366.079"/>
</g>
<!-- Node3 -->
<g id="node3" class="node"><title>Node3</title>
<g id="a_node3"><a xlink:href="main_8h.html#ab37ca657b79c6b9176cb63e9d812a182" target="_top" xlink:title=" ">
<polygon fill="none" stroke="black" points="381,-93.2043 381,-111.204 430,-111.204 430,-93.2043 381,-93.2043"/>
<text text-anchor="middle" x="405.5" y="-100.004" font-family="Calibri" font-size="9.00">get_pwr</text>
</a>
</g>
</g>
<!-- Node2&#45;&gt;Node3 -->
<g id="edge2" class="edge"><title>Node2&#45;&gt;Node3</title>
<path fill="none" stroke="midnightblue" d="M142.169,-61.6852C166.928,-64.4169 207.308,-69.1032 242,-74.2043 286.725,-80.7806 338.103,-89.8975 370.909,-95.9186"/>
<polygon fill="midnightblue" stroke="midnightblue" points="370.407,-99.3849 380.876,-97.7575 371.677,-92.5011 370.407,-99.3849"/>
</g>
<!-- Node7 -->
<g id="node7" class="node"><title>Node7</title>
<g id="a_node7"><a xlink:href="main_8c.html#a4ae0d4fa97fc0ca3611813fee4f9af7c" target="_top" xlink:title=" ">
<polygon fill="none" stroke="black" points="376.5,-17.2043 376.5,-35.2043 434.5,-35.2043 434.5,-17.2043 376.5,-17.2043"/>
<text text-anchor="middle" x="405.5" y="-24.0043" font-family="Calibri" font-size="9.00">show_pwr</text>
</a>
</g>
</g>
<!-- Node2&#45;&gt;Node7 -->
<g id="edge6" class="edge"><title>Node2&#45;&gt;Node7</title>
<path fill="none" stroke="midnightblue" d="M126.661,-50.1417C136.964,-38.7348 156.49,-19.7246 178,-12.2043 241.273,9.91724 320.484,-3.5477 366.503,-15.0693"/>
<polygon fill="midnightblue" stroke="midnightblue" points="365.794,-18.5013 376.353,-17.6338 367.558,-11.7272 365.794,-18.5013"/>
</g>
<!-- Node10 -->
<g id="node10" class="node"><title>Node10</title>
<g id="a_node10"><a xlink:href="main_8c.html#a11724d8cce81ed96bec12a004ea3ea7a" target="_top" xlink:title=" ">
<polygon fill="none" stroke="black" points="178,-84.2043 178,-102.204 242,-102.204 242,-84.2043 178,-84.2043"/>
<text text-anchor="middle" x="210" y="-91.0043" font-family="Calibri" font-size="9.00">show_reset</text>
</a>
</g>
</g>
<!-- Node2&#45;&gt;Node10 -->
<g id="edge10" class="edge"><title>Node2&#45;&gt;Node10</title>
<path fill="none" stroke="midnightblue" d="M142.177,-67.9601C152.328,-71.7951 164.435,-76.3685 175.536,-80.5624"/>
<polygon fill="midnightblue" stroke="midnightblue" points="174.368,-83.8623 184.959,-84.1222 176.841,-77.314 174.368,-83.8623"/>
</g>
<!-- Node4 -->
<g id="node4" class="node"><title>Node4</title>
<g id="a_node4"><a xlink:href="main_8h.html#ab19e6e081315a9a200394b74d10de395" target="_top" xlink:title=" ">
<polygon fill="none" stroke="black" points="489,-166.204 489,-184.204 546,-184.204 546,-166.204 489,-166.204"/>
<text text-anchor="middle" x="517.5" y="-173.004" font-family="Calibri" font-size="9.00">correction</text>
</a>
</g>
</g>
<!-- Node3&#45;&gt;Node4 -->
<g id="edge3" class="edge"><title>Node3&#45;&gt;Node4</title>
<path fill="none" stroke="midnightblue" d="M426.459,-111.304C431.389,-113.902 436.534,-116.927 441,-120.204 459.242,-133.593 458.543,-143.115 477,-156.204 479.526,-157.995 482.246,-159.697 485.036,-161.293"/>
<polygon fill="midnightblue" stroke="midnightblue" points="483.547,-164.464 494.029,-166.007 486.797,-158.264 483.547,-164.464"/>
</g>
<!-- Node5 -->
<g id="node5" class="node"><title>Node5</title>
<g id="a_node5"><a xlink:href="main_8h.html#acfd46f8711e9c1c20fffdfc8bdaa0ddd" target="_top" xlink:title=" ">
<polygon fill="none" stroke="black" points="485,-129.204 485,-147.204 550,-147.204 550,-129.204 485,-129.204"/>
<text text-anchor="middle" x="517.5" y="-136.004" font-family="Calibri" font-size="9.00">get_forward</text>
</a>
</g>
</g>
<!-- Node3&#45;&gt;Node5 -->
<g id="edge4" class="edge"><title>Node3&#45;&gt;Node5</title>
<path fill="none" stroke="midnightblue" d="M430.098,-109.927C444.317,-114.581 462.748,-120.613 478.933,-125.91"/>
<polygon fill="midnightblue" stroke="midnightblue" points="478.07,-129.31 488.662,-129.094 480.247,-122.657 478.07,-129.31"/>
</g>
<!-- Node6 -->
<g id="node6" class="node"><title>Node6</title>
<g id="a_node6"><a xlink:href="main_8h.html#aa6b9a2b3d88f578ba6a9fefd911eae75" target="_top" xlink:title=" ">
<polygon fill="none" stroke="black" points="485.5,-92.2043 485.5,-110.204 549.5,-110.204 549.5,-92.2043 485.5,-92.2043"/>
<text text-anchor="middle" x="517.5" y="-99.0043" font-family="Calibri" font-size="9.00">get_reverse</text>
</a>
</g>
</g>
<!-- Node3&#45;&gt;Node6 -->
<g id="edge5" class="edge"><title>Node3&#45;&gt;Node6</title>
<path fill="none" stroke="midnightblue" d="M430.098,-101.99C443.228,-101.87 459.95,-101.718 475.178,-101.58"/>
<polygon fill="midnightblue" stroke="midnightblue" points="475.452,-105.078 485.419,-101.487 475.388,-98.078 475.452,-105.078"/>
</g>
<!-- Node8 -->
<g id="node8" class="node"><title>Node8</title>
<g id="a_node8"><a xlink:href="main_8c.html#a6911b3f075cdf1d54cb14f17f6e5ef6b" target="_top" xlink:title=" ">
<polygon fill="none" stroke="black" points="494,-55.2043 494,-73.2043 541,-73.2043 541,-55.2043 494,-55.2043"/>
<text text-anchor="middle" x="517.5" y="-62.0043" font-family="Calibri" font-size="9.00">lcd_ind</text>
</a>
</g>
</g>
<!-- Node7&#45;&gt;Node8 -->
<g id="edge7" class="edge"><title>Node7&#45;&gt;Node8</title>
<path fill="none" stroke="midnightblue" d="M432.568,-35.2098C448.037,-40.5533 467.773,-47.3712 484.22,-53.053"/>
<polygon fill="midnightblue" stroke="midnightblue" points="483.373,-56.4635 493.968,-56.4206 485.659,-49.8471 483.373,-56.4635"/>
</g>
<!-- Node9 -->
<g id="node9" class="node"><title>Node9</title>
<g id="a_node9"><a xlink:href="oled__control_8h.html#ab272af1010175ba1166b08b8b3df6874" target="_top" xlink:title=" ">
<polygon fill="none" stroke="black" points="602.5,-55.2043 602.5,-73.2043 661.5,-73.2043 661.5,-55.2043 602.5,-55.2043"/>
<text text-anchor="middle" x="632" y="-62.0043" font-family="Calibri" font-size="9.00">led_wr_str</text>
</a>
</g>
</g>
<!-- Node7&#45;&gt;Node9 -->
<g id="edge9" class="edge"><title>Node7&#45;&gt;Node9</title>
<path fill="none" stroke="midnightblue" d="M434.594,-28.6261C465.138,-31.5149 515.306,-37.0071 558,-45.2043 569.324,-47.3785 581.493,-50.3046 592.588,-53.2083"/>
<polygon fill="midnightblue" stroke="midnightblue" points="591.853,-56.635 602.419,-55.8464 593.668,-49.8742 591.853,-56.635"/>
</g>
<!-- Node8&#45;&gt;Node9 -->
<g id="edge8" class="edge"><title>Node8&#45;&gt;Node9</title>
<path fill="none" stroke="midnightblue" d="M541.266,-64.2043C555.835,-64.2043 575.114,-64.2043 592.068,-64.2043"/>
<polygon fill="midnightblue" stroke="midnightblue" points="592.261,-67.7044 602.261,-64.2043 592.261,-60.7044 592.261,-67.7044"/>
</g>
<!-- Node10&#45;&gt;Node8 -->
<g id="edge14" class="edge"><title>Node10&#45;&gt;Node8</title>
<path fill="none" stroke="midnightblue" d="M242.258,-90.2371C300.239,-84.7331 423.942,-72.9905 483.333,-67.3527"/>
<polygon fill="midnightblue" stroke="midnightblue" points="484.019,-70.8034 493.644,-66.374 483.358,-63.8347 484.019,-70.8034"/>
</g>
<!-- Node10&#45;&gt;Node9 -->
<g id="edge34" class="edge"><title>Node10&#45;&gt;Node9</title>
<path fill="none" stroke="midnightblue" d="M222.893,-84.0233C248.217,-65.1242 310.065,-22.3747 370,-7.20429 455.423,14.4174 557.804,-27.4468 604.926,-50.4752"/>
<polygon fill="midnightblue" stroke="midnightblue" points="603.607,-53.729 614.116,-55.0737 606.739,-47.4689 603.607,-53.729"/>
</g>
<!-- Node11 -->
<g id="node11" class="node"><title>Node11</title>
<g id="a_node11"><a xlink:href="main_8h.html#a9dff326a6079fe726285b11ee837ad60" target="_top" xlink:title=" ">
<polygon fill="none" stroke="black" points="278,-318.204 278,-336.204 334,-336.204 334,-318.204 278,-318.204"/>
<text text-anchor="middle" x="306" y="-325.004" font-family="Calibri" font-size="9.00">atu_reset</text>
</a>
</g>
</g>
<!-- Node10&#45;&gt;Node11 -->
<g id="edge11" class="edge"><title>Node10&#45;&gt;Node11</title>
<path fill="none" stroke="midnightblue" d="M214.685,-102.377C228.665,-137.178 278.593,-261.467 297.59,-308.758"/>
<polygon fill="midnightblue" stroke="midnightblue" points="294.365,-310.12 301.341,-318.095 300.861,-307.511 294.365,-310.12"/>
</g>
<!-- Node14 -->
<g id="node14" class="node"><title>Node14</title>
<g id="a_node14"><a xlink:href="main_8c.html#ae5a14b4884e85f47ad8a4a716f13203a" target="_top" xlink:title=" ">
<polygon fill="none" stroke="black" points="282,-187.204 282,-205.204 330,-205.204 330,-187.204 282,-187.204"/>
<text text-anchor="middle" x="306" y="-194.004" font-family="Calibri" font-size="9.00">lcd_pwr</text>
</a>
</g>
</g>
<!-- Node10&#45;&gt;Node14 -->
<g id="edge15" class="edge"><title>Node10&#45;&gt;Node14</title>
<path fill="none" stroke="midnightblue" d="M219.342,-102.345C235.119,-119.633 269.545,-157.355 289.62,-179.351"/>
<polygon fill="midnightblue" stroke="midnightblue" points="287.215,-181.909 296.542,-186.936 292.386,-177.19 287.215,-181.909"/>
</g>
<!-- Node23 -->
<g id="node23" class="node"><title>Node23</title>
<g id="a_node23"><a xlink:href="main_8h.html#ae0c1e0ec712704e43db40473f103d621" target="_top" xlink:title="Set the state of the switch.">
<polygon fill="none" stroke="black" points="383,-130.204 383,-148.204 428,-148.204 428,-130.204 383,-130.204"/>
<text text-anchor="middle" x="405.5" y="-137.004" font-family="Calibri" font-size="9.00">set_sw</text>
</a>
</g>
</g>
<!-- Node10&#45;&gt;Node23 -->
<g id="edge35" class="edge"><title>Node10&#45;&gt;Node23</title>
<path fill="none" stroke="midnightblue" d="M242.089,-100.595C277.968,-109.124 336.659,-123.077 372.796,-131.667"/>
<polygon fill="midnightblue" stroke="midnightblue" points="372.256,-135.137 382.795,-134.044 373.875,-128.326 372.256,-135.137"/>
</g>
<!-- Node12 -->
<g id="node12" class="node"><title>Node12</title>
<g id="a_node12"><a xlink:href="main_8h.html#a2a7963b9b09696c6654b96c67900c6ea" target="_top" xlink:title=" ">
<polygon fill="none" stroke="black" points="381.5,-319.204 381.5,-337.204 429.5,-337.204 429.5,-319.204 381.5,-319.204"/>
<text text-anchor="middle" x="405.5" y="-326.004" font-family="Calibri" font-size="9.00">set_cap</text>
</a>
</g>
</g>
<!-- Node11&#45;&gt;Node12 -->
<g id="edge12" class="edge"><title>Node11&#45;&gt;Node12</title>
<path fill="none" stroke="midnightblue" d="M334.159,-327.483C345.664,-327.601 359.18,-327.739 371.273,-327.864"/>
<polygon fill="midnightblue" stroke="midnightblue" points="371.412,-331.365 381.448,-327.968 371.484,-324.365 371.412,-331.365"/>
</g>
<!-- Node11&#45;&gt;Node13 -->
<g id="edge13" class="edge"><title>Node11&#45;&gt;Node13</title>
<path fill="none" stroke="midnightblue" d="M330.106,-336.21C342.703,-341.119 358.494,-347.274 372.284,-352.648"/>
<polygon fill="midnightblue" stroke="midnightblue" points="371.308,-356.024 381.896,-356.395 373.85,-349.502 371.308,-356.024"/>
</g>
<!-- Node14&#45;&gt;Node3 -->
<g id="edge26" class="edge"><title>Node14&#45;&gt;Node3</title>
<path fill="none" stroke="midnightblue" d="M312.994,-186.759C323.185,-171.283 345.208,-140.243 370,-120.204 371.576,-118.93 373.257,-117.708 374.996,-116.542"/>
<polygon fill="midnightblue" stroke="midnightblue" points="377.154,-119.33 383.962,-111.212 373.577,-113.313 377.154,-119.33"/>
</g>
<!-- Node14&#45;&gt;Node7 -->
<g id="edge33" class="edge"><title>Node14&#45;&gt;Node7</title>
<path fill="none" stroke="midnightblue" d="M311.954,-187.061C322.445,-167.755 347.767,-121.461 370,-83.2043 377.642,-70.0544 386.535,-55.376 393.378,-44.2081"/>
<polygon fill="midnightblue" stroke="midnightblue" points="396.523,-45.7756 398.781,-35.4242 390.56,-42.1082 396.523,-45.7756"/>
</g>
<!-- Node14&#45;&gt;Node9 -->
<g id="edge29" class="edge"><title>Node14&#45;&gt;Node9</title>
<path fill="none" stroke="midnightblue" d="M318.224,-205.326C330.21,-214.428 350.171,-227.812 370,-233.204 396.515,-240.415 547.455,-237.281 558,-230.204 608.244,-196.485 624.192,-119.828 629.02,-83.7136"/>
<polygon fill="midnightblue" stroke="midnightblue" points="632.527,-83.8604 630.226,-73.5184 625.575,-83.0379 632.527,-83.8604"/>
</g>
<!-- Node14&#45;&gt;Node12 -->
<g id="edge30" class="edge"><title>Node14&#45;&gt;Node12</title>
<path fill="none" stroke="midnightblue" d="M310.153,-205.512C317.615,-226.374 338.153,-277.522 370,-309.204 371.454,-310.651 373.042,-312.02 374.711,-313.309"/>
<polygon fill="midnightblue" stroke="midnightblue" points="373.221,-316.517 383.501,-319.082 377.064,-310.666 373.221,-316.517"/>
</g>
<!-- Node14&#45;&gt;Node13 -->
<g id="edge31" class="edge"><title>Node14&#45;&gt;Node13</title>
<path fill="none" stroke="midnightblue" d="M308.67,-205.44C313.677,-230.801 330.711,-302.524 370,-346.204 371.338,-347.691 372.82,-349.087 374.396,-350.392"/>
<polygon fill="midnightblue" stroke="midnightblue" points="372.603,-353.405 382.83,-356.172 376.56,-347.632 372.603,-353.405"/>
</g>
<!-- Node15 -->
<g id="node15" class="node"><title>Node15</title>
<g id="a_node15"><a xlink:href="main_8c.html#a593218c5fe00b499d494826fc0aa5279" target="_top" xlink:title=" ">
<polygon fill="none" stroke="black" points="370,-206.204 370,-224.204 441,-224.204 441,-206.204 370,-206.204"/>
<text text-anchor="middle" x="405.5" y="-213.004" font-family="Calibri" font-size="9.00">button_delay</text>
</a>
</g>
</g>
<!-- Node14&#45;&gt;Node15 -->
<g id="edge16" class="edge"><title>Node14&#45;&gt;Node15</title>
<path fill="none" stroke="midnightblue" d="M330.106,-200.707C338.975,-202.435 349.428,-204.472 359.65,-206.464"/>
<polygon fill="midnightblue" stroke="midnightblue" points="359.243,-209.951 369.728,-208.428 360.582,-203.08 359.243,-209.951"/>
</g>
<!-- Node16 -->
<g id="node16" class="node"><title>Node16</title>
<g id="a_node16"><a xlink:href="oled__control_8c.html#a5febfdc847aa6f3bc3f3c8f7818b8699" target="_top" xlink:title=" ">
<polygon fill="none" stroke="black" points="374.5,-282.204 374.5,-300.204 436.5,-300.204 436.5,-282.204 374.5,-282.204"/>
<text text-anchor="middle" x="405.5" y="-289.004" font-family="Calibri" font-size="9.00">display_on</text>
</a>
</g>
</g>
<!-- Node14&#45;&gt;Node16 -->
<g id="edge17" class="edge"><title>Node14&#45;&gt;Node16</title>
<path fill="none" stroke="midnightblue" d="M314.129,-205.579C325.196,-219.802 347.579,-247.284 370,-267.204 373.532,-270.342 377.484,-273.428 381.418,-276.288"/>
<polygon fill="midnightblue" stroke="midnightblue" points="379.618,-279.299 389.831,-282.118 383.606,-273.545 379.618,-279.299"/>
</g>
<!-- Node22 -->
<g id="node22" class="node"><title>Node22</title>
<g id="a_node22"><a xlink:href="main_8c.html#aa8fd50019a763561abc6621bb224417f" target="_top" xlink:title=" ">
<polygon fill="none" stroke="black" points="494,-203.204 494,-221.204 541,-221.204 541,-203.204 494,-203.204"/>
<text text-anchor="middle" x="517.5" y="-210.004" font-family="Calibri" font-size="9.00">lcd_swr</text>
</a>
</g>
</g>
<!-- Node14&#45;&gt;Node22 -->
<g id="edge27" class="edge"><title>Node14&#45;&gt;Node22</title>
<path fill="none" stroke="midnightblue" d="M330.316,-194.736C357.11,-193.389 402.361,-192.155 441,-196.204 455.195,-197.692 470.649,-200.712 483.857,-203.731"/>
<polygon fill="midnightblue" stroke="midnightblue" points="483.362,-207.211 493.901,-206.123 484.984,-200.402 483.362,-207.211"/>
</g>
<!-- Node14&#45;&gt;Node23 -->
<g id="edge32" class="edge"><title>Node14&#45;&gt;Node23</title>
<path fill="none" stroke="midnightblue" d="M322.665,-187.046C338.159,-177.988 362.095,-163.995 380.085,-153.478"/>
<polygon fill="midnightblue" stroke="midnightblue" points="382.007,-156.408 388.874,-148.34 378.474,-150.365 382.007,-156.408"/>
</g>
<!-- Node17 -->
<g id="node17" class="node"><title>Node17</title>
<g id="a_node17"><a xlink:href="oled__control_8c.html#a5a5d7ef6b1877aaf94c1f4b7fc0f2d2d" target="_top" xlink:title=" ">
<polygon fill="none" stroke="black" points="490,-319.204 490,-337.204 545,-337.204 545,-319.204 490,-319.204"/>
<text text-anchor="middle" x="517.5" y="-326.004" font-family="Calibri" font-size="9.00">led_send</text>
</a>
</g>
</g>
<!-- Node16&#45;&gt;Node17 -->
<g id="edge18" class="edge"><title>Node16&#45;&gt;Node17</title>
<path fill="none" stroke="midnightblue" d="M433.409,-300.256C447.496,-304.994 464.945,-310.863 480.21,-315.998"/>
<polygon fill="midnightblue" stroke="midnightblue" points="479.275,-319.376 489.869,-319.247 481.506,-312.741 479.275,-319.376"/>
</g>
<!-- Node21 -->
<g id="node21" class="node"><title>Node21</title>
<g id="a_node21"><a xlink:href="oled__control_8c.html#ad141ed038278a6fcad6c307932f01ec8" target="_top" xlink:title=" ">
<polygon fill="none" stroke="black" points="477,-282.204 477,-300.204 558,-300.204 558,-282.204 477,-282.204"/>
<text text-anchor="middle" x="517.5" y="-289.004" font-family="Calibri" font-size="9.00">send_command</text>
</a>
</g>
</g>
<!-- Node16&#45;&gt;Node21 -->
<g id="edge22" class="edge"><title>Node16&#45;&gt;Node21</title>
<path fill="none" stroke="midnightblue" d="M436.558,-291.204C445.909,-291.204 456.48,-291.204 466.8,-291.204"/>
<polygon fill="midnightblue" stroke="midnightblue" points="466.982,-294.704 476.982,-291.204 466.982,-287.704 466.982,-294.704"/>
</g>
<!-- Node18 -->
<g id="node18" class="node"><title>Node18</title>
<g id="a_node18"><a xlink:href="oled__control_8c.html#ab7f6b5c6c1483f6286f2de5786c028d9" target="_top" xlink:title=" ">
<polygon fill="none" stroke="black" points="596,-337.204 596,-355.204 668,-355.204 668,-337.204 596,-337.204"/>
<text text-anchor="middle" x="632" y="-344.004" font-family="Calibri" font-size="9.00">Soft_I2C_Start</text>
</a>
</g>
</g>
<!-- Node17&#45;&gt;Node18 -->
<g id="edge19" class="edge"><title>Node17&#45;&gt;Node18</title>
<path fill="none" stroke="midnightblue" d="M545.161,-332.47C557.173,-334.392 571.703,-336.717 585.365,-338.903"/>
<polygon fill="midnightblue" stroke="midnightblue" points="585.16,-342.414 595.588,-340.538 586.266,-335.502 585.16,-342.414"/>
</g>
<!-- Node19 -->
<g id="node19" class="node"><title>Node19</title>
<g id="a_node19"><a xlink:href="oled__control_8c.html#a16eb842aa672ca44820ae6d5f9933425" target="_top" xlink:title=" ">
<polygon fill="none" stroke="black" points="596.5,-300.204 596.5,-318.204 667.5,-318.204 667.5,-300.204 596.5,-300.204"/>
<text text-anchor="middle" x="632" y="-307.004" font-family="Calibri" font-size="9.00">Soft_I2C_Stop</text>
</a>
</g>
</g>
<!-- Node17&#45;&gt;Node19 -->
<g id="edge20" class="edge"><title>Node17&#45;&gt;Node19</title>
<path fill="none" stroke="midnightblue" d="M545.161,-323.702C557.5,-321.618 572.495,-319.085 586.478,-316.723"/>
<polygon fill="midnightblue" stroke="midnightblue" points="587.152,-320.159 596.429,-315.043 585.986,-313.257 587.152,-320.159"/>
</g>
<!-- Node20 -->
<g id="node20" class="node"><title>Node20</title>
<g id="a_node20"><a xlink:href="oled__control_8c.html#a73610916645f17c19124e697b005f694" target="_top" xlink:title=" ">
<polygon fill="none" stroke="black" points="594,-263.204 594,-281.204 670,-281.204 670,-263.204 594,-263.204"/>
<text text-anchor="middle" x="632" y="-270.004" font-family="Calibri" font-size="9.00">Soft_I2C_Write</text>
</a>
</g>
</g>
<!-- Node17&#45;&gt;Node20 -->
<g id="edge21" class="edge"><title>Node17&#45;&gt;Node20</title>
<path fill="none" stroke="midnightblue" d="M537.858,-319.07C544.291,-315.987 551.477,-312.493 558,-309.204 574.155,-301.06 577.863,-298.385 594,-290.204 596.931,-288.718 600.003,-287.185 603.071,-285.67"/>
<polygon fill="midnightblue" stroke="midnightblue" points="604.675,-288.782 612.118,-281.242 601.597,-282.495 604.675,-288.782"/>
</g>
<!-- Node21&#45;&gt;Node18 -->
<g id="edge23" class="edge"><title>Node21&#45;&gt;Node18</title>
<path fill="none" stroke="midnightblue" d="M539.077,-300.386C545.191,-303.167 551.888,-306.264 558,-309.204 566.805,-313.44 587.218,-323.803 604.226,-332.488"/>
<polygon fill="midnightblue" stroke="midnightblue" points="602.732,-335.655 613.229,-337.09 605.918,-329.422 602.732,-335.655"/>
</g>
<!-- Node21&#45;&gt;Node19 -->
<g id="edge24" class="edge"><title>Node21&#45;&gt;Node19</title>
<path fill="none" stroke="midnightblue" d="M558.163,-297.55C567.172,-298.992 576.804,-300.533 586.016,-302.007"/>
<polygon fill="midnightblue" stroke="midnightblue" points="585.755,-305.509 596.182,-303.633 586.861,-298.597 585.755,-305.509"/>
</g>
<!-- Node21&#45;&gt;Node20 -->
<g id="edge25" class="edge"><title>Node21&#45;&gt;Node20</title>
<path fill="none" stroke="midnightblue" d="M558.163,-284.506C566.53,-283.093 575.433,-281.589 584.039,-280.136"/>
<polygon fill="midnightblue" stroke="midnightblue" points="584.676,-283.577 593.954,-278.461 583.511,-276.675 584.676,-283.577"/>
</g>
<!-- Node22&#45;&gt;Node9 -->
<g id="edge28" class="edge"><title>Node22&#45;&gt;Node9</title>
<path fill="none" stroke="midnightblue" d="M541.299,-204.111C547.195,-201.286 553.221,-197.675 558,-193.204 592.009,-161.389 614.416,-110.087 624.629,-82.7505"/>
<polygon fill="midnightblue" stroke="midnightblue" points="627.961,-83.8272 628.049,-73.2327 621.373,-81.4595 627.961,-83.8272"/>
</g>
</g>
</svg>
        <g id="navigator" transform="translate(0 0)" fill="#404254">
                <rect fill="#f2f5e9" fill-opacity="0.5" stroke="#606060" stroke-width=".5" x="0" y="0" width="60" height="60"/>
                <use id="zoomplus" xlink:href="#zoomPlus" x="17" y="9" onmousedown="handleZoom(evt,'in')"/>
                <use id="zoomminus" xlink:href="#zoomMin" x="42" y="9" onmousedown="handleZoom(evt,'out')"/>
                <use id="reset" xlink:href="#resetDef" x="30" y="36" onmousedown="handleReset()"/>
                <g id="arrowUp" xlink:href="#dirArrow" transform="translate(30 24)" onmousedown="handlePan(0,-1)">
                  <use xlink:href="#rim" fill="#404040">
                        <set attributeName="fill" to="#808080" begin="arrowUp.mouseover" end="arrowUp.mouseout"/>
                  </use>
                  <path fill="none" stroke="white" stroke-width="1.5" d="M0,-3.0v7 M-2.5,-0.5L0,-3.0L2.5,-0.5"/>
                </g>
                <g id="arrowRight" xlink:href="#dirArrow" transform="rotate(90) translate(36 -43)" onmousedown="handlePan(1,0)">
                  <use xlink:href="#rim" fill="#404040">
                        <set attributeName="fill" to="#808080" begin="arrowRight.mouseover" end="arrowRight.mouseout"/>
                  </use>
                  <path fill="none" stroke="white" stroke-width="1.5" d="M0,-3.0v7 M-2.5,-0.5L0,-3.0L2.5,-0.5"/>
                </g>
                <g id="arrowDown" xlink:href="#dirArrow" transform="rotate(180) translate(-30 -48)" onmousedown="handlePan(0,1)">
                  <use xlink:href="#rim" fill="#404040">
                        <set attributeName="fill" to="#808080" begin="arrowDown.mouseover" end="arrowDown.mouseout"/>
                  </use>
                  <path fill="none" stroke="white" stroke-width="1.5" d="M0,-3.0v7 M-2.5,-0.5L0,-3.0L2.5,-0.5"/>
                </g>
                <g id="arrowLeft" xlink:href="#dirArrow" transform="rotate(270) translate(-36 17)" onmousedown="handlePan(-1,0)">
                  <use xlink:href="#rim" fill="#404040">
                        <set attributeName="fill" to="#808080" begin="arrowLeft.mouseover" end="arrowLeft.mouseout"/>
                  </use>
                  <path fill="none" stroke="white" stroke-width="1.5" d="M0,-3.0v7 M-2.5,-0.5L0,-3.0L2.5,-0.5"/>
                </g>
        </g>
        <svg viewBox="0 0 15 15" width="100%" height="30px" preserveAspectRatio="xMaxYMin meet">
         <g id="arrow_out" transform="scale(0.3 0.3)">
          <a xlink:href="main_8h_a72210b3ed1d5691c5bbda8c7f1e97197_cgraph_org.svg" target="_base">
           <rect id="button" ry="5" rx="5" y="6" x="6" height="38" width="38"
                fill="#f2f5e9" fill-opacity="0.5" stroke="#606060" stroke-width="1.0"/>
           <path id="arrow"
             d="M 11.500037,31.436501 C 11.940474,20.09759 22.043105,11.32322 32.158766,21.979434 L 37.068811,17.246167 C 37.068811,17.246167 37.088388,32 37.088388,32 L 22.160133,31.978069 C 22.160133,31.978069 26.997745,27.140456 26.997745,27.140456 C 18.528582,18.264221 13.291696,25.230495 11.500037,31.436501 z"
             style="fill:#404040;"/>
          </a>
         </g>
        </svg>
</svg>
