<?xml version="1.0" encoding="UTF-8" standalone="no"?>
<!DOCTYPE svg PUBLIC "-//W3C//DTD SVG 1.1//EN"
 "http://www.w3.org/Graphics/SVG/1.1/DTD/svg11.dtd">
<!-- Generated by graphviz version 2.38.0 (20140413.2041)
 -->
<!-- Title: delay_ms Pages: 1 -->
<svg width="1075pt" height="960pt"
 viewBox="0.00 0.00 1075.00 959.92" xmlns="http://www.w3.org/2000/svg" xmlns:xlink="http://www.w3.org/1999/xlink">
<g id="graph0" class="graph" transform="scale(1 1) rotate(0) translate(4 955.919)">
<title>delay_ms</title>
<!-- Node1 -->
<g id="node1" class="node"><title>Node1</title>
<g id="a_node1"><a xlink:title=" ">
<polygon fill="#bfbfbf" stroke="black" points="1011,-380.072 1011,-398.072 1067,-398.072 1067,-380.072 1011,-380.072"/>
<text text-anchor="middle" x="1039" y="-386.872" font-family="Calibri" font-size="9.00">delay_ms</text>
</a>
</g>
</g>
<!-- Node2 -->
<g id="node2" class="node"><title>Node2</title>
<g id="a_node2"><a xlink:href="main_8h.html#a9dff326a6079fe726285b11ee837ad60" target="_top" xlink:title=" ">
<polygon fill="none" stroke="black" points="835,-333.072 835,-351.072 891,-351.072 891,-333.072 835,-333.072"/>
<text text-anchor="middle" x="863" y="-339.872" font-family="Calibri" font-size="9.00">atu_reset</text>
</a>
</g>
</g>
<!-- Node1&#45;&gt;Node2 -->
<g id="edge1" class="edge"><title>Node1&#45;&gt;Node2</title>
<path fill="none" stroke="midnightblue" d="M1001.11,-379.107C968.228,-370.226 920.859,-357.431 891.283,-349.442"/>
<polygon fill="midnightblue" stroke="midnightblue" points="1000.25,-382.5 1010.81,-381.728 1002.07,-375.742 1000.25,-382.5"/>
</g>
<!-- Node15 -->
<g id="node15" class="node"><title>Node15</title>
<g id="a_node15"><a xlink:href="main_8h.html#a2a7963b9b09696c6654b96c67900c6ea" target="_top" xlink:title=" ">
<polygon fill="none" stroke="black" points="927,-732.072 927,-750.072 975,-750.072 975,-732.072 927,-732.072"/>
<text text-anchor="middle" x="951" y="-738.872" font-family="Calibri" font-size="9.00">set_cap</text>
</a>
</g>
</g>
<!-- Node1&#45;&gt;Node15 -->
<g id="edge25" class="edge"><title>Node1&#45;&gt;Node15</title>
<path fill="none" stroke="midnightblue" d="M1033.33,-408.201C1017.42,-473.289 965.763,-684.738 954.277,-731.753"/>
<polygon fill="midnightblue" stroke="midnightblue" points="1036.81,-408.672 1035.79,-398.127 1030.01,-407.011 1036.81,-408.672"/>
</g>
<!-- Node18 -->
<g id="node18" class="node"><title>Node18</title>
<g id="a_node18"><a xlink:href="main_8h.html#aecc83cd8bceb4bc24be844732ead2c2c" target="_top" xlink:title=" ">
<polygon fill="none" stroke="black" points="927.5,-409.072 927.5,-427.072 974.5,-427.072 974.5,-409.072 927.5,-409.072"/>
<text text-anchor="middle" x="951" y="-415.872" font-family="Calibri" font-size="9.00">set_ind</text>
</a>
</g>
</g>
<!-- Node1&#45;&gt;Node18 -->
<g id="edge41" class="edge"><title>Node1&#45;&gt;Node18</title>
<path fill="none" stroke="midnightblue" d="M1001.59,-401.35C992.454,-404.431 982.913,-407.648 974.668,-410.428"/>
<polygon fill="midnightblue" stroke="midnightblue" points="1002.9,-404.601 1011.26,-398.089 1000.67,-397.968 1002.9,-404.601"/>
</g>
<!-- Node19 -->
<g id="node19" class="node"><title>Node19</title>
<g id="a_node19"><a xlink:href="main_8h.html#aa3ee146d5fca99f368e8ddb5d5dd72cb" target="_top" xlink:title="Set the state of the switch.">
<polygon fill="none" stroke="black" points="928.5,-143.072 928.5,-161.072 973.5,-161.072 973.5,-143.072 928.5,-143.072"/>
<text text-anchor="middle" x="951" y="-149.872" font-family="Calibri" font-size="9.00">set_sw</text>
</a>
</g>
</g>
<!-- Node1&#45;&gt;Node19 -->
<g id="edge50" class="edge"><title>Node1&#45;&gt;Node19</title>
<path fill="none" stroke="midnightblue" d="M1031.31,-370.649C1013.96,-322.821 967.94,-196 955.27,-161.082"/>
<polygon fill="midnightblue" stroke="midnightblue" points="1028.03,-371.864 1034.73,-380.071 1034.61,-369.477 1028.03,-371.864"/>
</g>
<!-- Node3 -->
<g id="node3" class="node"><title>Node3</title>
<g id="a_node3"><a xlink:href="main_8c.html#a11724d8cce81ed96bec12a004ea3ea7a" target="_top" xlink:title=" ">
<polygon fill="none" stroke="black" points="724,-295.072 724,-313.072 788,-313.072 788,-295.072 724,-295.072"/>
<text text-anchor="middle" x="756" y="-301.872" font-family="Calibri" font-size="9.00">show_reset</text>
</a>
</g>
</g>
<!-- Node2&#45;&gt;Node3 -->
<g id="edge2" class="edge"><title>Node2&#45;&gt;Node3</title>
<path fill="none" stroke="midnightblue" d="M827.293,-329.512C812.514,-324.163 795.601,-318.042 782.069,-313.145"/>
<polygon fill="midnightblue" stroke="midnightblue" points="826.522,-332.955 837.116,-333.067 828.904,-326.372 826.522,-332.955"/>
</g>
<!-- Node9 -->
<g id="node9" class="node"><title>Node9</title>
<g id="a_node9"><a xlink:href="main_8h.html#a454a7687c8039514766571b23516ca9c" target="_top" xlink:title=" ">
<polygon fill="none" stroke="black" points="337,-485.072 337,-503.072 392,-503.072 392,-485.072 337,-485.072"/>
<text text-anchor="middle" x="364.5" y="-491.872" font-family="Calibri" font-size="9.00">sub_tune</text>
</a>
</g>
</g>
<!-- Node2&#45;&gt;Node9 -->
<g id="edge21" class="edge"><title>Node2&#45;&gt;Node9</title>
<path fill="none" stroke="midnightblue" d="M824.48,-342.831C745.43,-346.014 558.318,-362.021 428,-441.072 407.078,-453.763 386.057,-473.326 374.514,-484.797"/>
<polygon fill="midnightblue" stroke="midnightblue" points="825.031,-346.313 834.9,-342.461 824.783,-339.318 825.031,-346.313"/>
</g>
<!-- Node10 -->
<g id="node10" class="node"><title>Node10</title>
<g id="a_node10"><a xlink:href="main_8h.html#a1849f2e5bd63d11a7b9549470e287d17" target="_top" xlink:title=" ">
<polygon fill="none" stroke="black" points="266,-409.072 266,-427.072 301,-427.072 301,-409.072 266,-409.072"/>
<text text-anchor="middle" x="283.5" y="-415.872" font-family="Calibri" font-size="9.00">tune</text>
</a>
</g>
</g>
<!-- Node2&#45;&gt;Node10 -->
<g id="edge24" class="edge"><title>Node2&#45;&gt;Node10</title>
<path fill="none" stroke="midnightblue" d="M848.999,-324.745C837.557,-311.058 819.549,-292.988 799,-285.072 763.333,-271.332 750.894,-280.071 713,-285.072 541.452,-307.711 496.043,-317.908 337,-386.072 322.676,-392.211 307.614,-401.756 297.315,-408.825"/>
<polygon fill="midnightblue" stroke="midnightblue" points="846.566,-327.309 855.53,-332.956 852.044,-322.951 846.566,-327.309"/>
</g>
<!-- Node14 -->
<g id="node14" class="node"><title>Node14</title>
<g id="a_node14"><a xlink:href="main_8c.html#a7a367b10f22edd310a36627b6c941255" target="_top" xlink:title=" ">
<polygon fill="none" stroke="black" points="730.5,-29.0721 730.5,-47.0721 781.5,-47.0721 781.5,-29.0721 730.5,-29.0721"/>
<text text-anchor="middle" x="756" y="-35.8721" font-family="Calibri" font-size="9.00">test_init</text>
</a>
</g>
</g>
<!-- Node2&#45;&gt;Node14 -->
<g id="edge22" class="edge"><title>Node2&#45;&gt;Node14</title>
<path fill="none" stroke="midnightblue" d="M855.497,-323.244C835.377,-264.993 774.626,-89.1028 760.13,-47.1348"/>
<polygon fill="midnightblue" stroke="midnightblue" points="852.285,-324.665 858.858,-332.974 858.901,-322.379 852.285,-324.665"/>
</g>
<!-- Node4 -->
<g id="node4" class="node"><title>Node4</title>
<g id="a_node4"><a xlink:href="main_8c.html#a1c9e5d54d8cf7f3d041aa2e0b330b3dd" target="_top" xlink:title="Handle the process of the buttons being pressed.">
<polygon fill="none" stroke="black" points="74,-219.072 74,-237.072 139,-237.072 139,-219.072 74,-219.072"/>
<text text-anchor="middle" x="106.5" y="-225.872" font-family="Calibri" font-size="9.00">button_proc</text>
</a>
</g>
</g>
<!-- Node3&#45;&gt;Node4 -->
<g id="edge3" class="edge"><title>Node3&#45;&gt;Node4</title>
<path fill="none" stroke="midnightblue" d="M725.618,-291.121C673.634,-269.422 561.574,-228.072 462.5,-228.072 462.5,-228.072 462.5,-228.072 282.5,-228.072 232.37,-228.072 174.162,-228.072 139.114,-228.072"/>
<polygon fill="midnightblue" stroke="midnightblue" points="724.328,-294.376 734.901,-295.055 727.06,-287.931 724.328,-294.376"/>
</g>
<!-- Node6 -->
<g id="node6" class="node"><title>Node6</title>
<g id="a_node6"><a xlink:href="main_8h.html#ad7eb7423e0b17ccfba1ae42f3a3274e0" target="_top" xlink:title=" ">
<polygon fill="none" stroke="black" points="629,-447.072 629,-465.072 677,-465.072 677,-447.072 629,-447.072"/>
<text text-anchor="middle" x="653" y="-453.872" font-family="Calibri" font-size="9.00">get_swr</text>
</a>
</g>
</g>
<!-- Node3&#45;&gt;Node6 -->
<g id="edge5" class="edge"><title>Node3&#45;&gt;Node6</title>
<path fill="none" stroke="midnightblue" d="M743.358,-321.593C721.838,-353.979 676.536,-422.156 660.112,-446.874"/>
<polygon fill="midnightblue" stroke="midnightblue" points="746.365,-323.391 748.984,-313.125 740.535,-319.517 746.365,-323.391"/>
</g>
<!-- Node5 -->
<g id="node5" class="node"><title>Node5</title>
<g id="a_node5"><a xlink:href="main_8c.html#acdef7a1fd863a6d3770c1268cb06add3" target="_top" xlink:title=" ">
<polygon fill="none" stroke="black" points="0,-105.072 0,-123.072 38,-123.072 38,-105.072 0,-105.072"/>
<text text-anchor="middle" x="19" y="-111.872" font-family="Calibri" font-size="9.00">main</text>
</a>
</g>
</g>
<!-- Node4&#45;&gt;Node5 -->
<g id="edge4" class="edge"><title>Node4&#45;&gt;Node5</title>
<path fill="none" stroke="midnightblue" d="M92.4362,-210.654C74.0185,-186.097 41.081,-142.18 26.8545,-123.212"/>
<polygon fill="midnightblue" stroke="midnightblue" points="89.7031,-212.843 98.5032,-218.743 95.3031,-208.643 89.7031,-212.843"/>
</g>
<!-- Node7 -->
<g id="node7" class="node"><title>Node7</title>
<g id="a_node7"><a xlink:href="main_8h.html#a740ef1b33bb02cd952ad7d8708999472" target="_top" xlink:title=" ">
<polygon fill="none" stroke="black" points="531,-599.072 531,-617.072 593,-617.072 593,-599.072 531,-599.072"/>
<text text-anchor="middle" x="562" y="-605.872" font-family="Calibri" font-size="9.00">coarse_cap</text>
</a>
</g>
</g>
<!-- Node6&#45;&gt;Node7 -->
<g id="edge6" class="edge"><title>Node6&#45;&gt;Node7</title>
<path fill="none" stroke="midnightblue" d="M641.496,-474.012C622.436,-506.564 582.797,-574.262 568.386,-598.874"/>
<polygon fill="midnightblue" stroke="midnightblue" points="644.667,-475.523 646.699,-465.125 638.626,-471.986 644.667,-475.523"/>
</g>
<!-- Node8 -->
<g id="node8" class="node"><title>Node8</title>
<g id="a_node8"><a xlink:href="main_8h.html#a5c7c60c7d70cf76cc52e87722bb0f614" target="_top" xlink:title=" ">
<polygon fill="none" stroke="black" points="428,-561.072 428,-579.072 495,-579.072 495,-561.072 428,-561.072"/>
<text text-anchor="middle" x="461.5" y="-567.872" font-family="Calibri" font-size="9.00">coarse_tune</text>
</a>
</g>
</g>
<!-- Node6&#45;&gt;Node8 -->
<g id="edge12" class="edge"><title>Node6&#45;&gt;Node8</title>
<path fill="none" stroke="midnightblue" d="M628.064,-470.472C588.418,-494.322 510.251,-541.346 477.497,-561.05"/>
<polygon fill="midnightblue" stroke="midnightblue" points="630.048,-473.363 636.813,-465.209 626.44,-467.364 630.048,-473.363"/>
</g>
<!-- Node6&#45;&gt;Node9 -->
<g id="edge19" class="edge"><title>Node6&#45;&gt;Node9</title>
<path fill="none" stroke="midnightblue" d="M618.531,-460.511C561.025,-468.139 444.598,-483.581 392.162,-490.536"/>
<polygon fill="midnightblue" stroke="midnightblue" points="619.102,-463.966 628.555,-459.182 618.181,-457.027 619.102,-463.966"/>
</g>
<!-- Node6&#45;&gt;Node10 -->
<g id="edge20" class="edge"><title>Node6&#45;&gt;Node10</title>
<path fill="none" stroke="midnightblue" d="M640.069,-438.772C629.501,-425.1 612.714,-407.04 593,-399.072 488.772,-356.948 348.53,-396.494 301.021,-412.25"/>
<polygon fill="midnightblue" stroke="midnightblue" points="637.348,-440.979 646.085,-446.972 642.992,-436.839 637.348,-440.979"/>
</g>
<!-- Node12 -->
<g id="node12" class="node"><title>Node12</title>
<g id="a_node12"><a xlink:href="main_8h.html#ab518a3d2c723f12d3af3024a195606ce" target="_top" xlink:title=" ">
<polygon fill="none" stroke="black" points="432,-637.072 432,-655.072 491,-655.072 491,-637.072 432,-637.072"/>
<text text-anchor="middle" x="461.5" y="-643.872" font-family="Calibri" font-size="9.00">sharp_cap</text>
</a>
</g>
</g>
<!-- Node6&#45;&gt;Node12 -->
<g id="edge13" class="edge"><title>Node6&#45;&gt;Node12</title>
<path fill="none" stroke="midnightblue" d="M651.43,-475.326C649.255,-511.096 639.14,-587.648 593,-626.072 564.555,-649.76 520.063,-651.52 491.091,-649.592"/>
<polygon fill="midnightblue" stroke="midnightblue" points="654.931,-475.396 651.893,-465.246 647.938,-475.074 654.931,-475.396"/>
</g>
<!-- Node13 -->
<g id="node13" class="node"><title>Node13</title>
<g id="a_node13"><a xlink:href="main_8h.html#a72210b3ed1d5691c5bbda8c7f1e97197" target="_top" xlink:title=" ">
<polygon fill="none" stroke="black" points="533,-409.072 533,-427.072 591,-427.072 591,-409.072 533,-409.072"/>
<text text-anchor="middle" x="562" y="-415.872" font-family="Calibri" font-size="9.00">sharp_ind</text>
</a>
</g>
</g>
<!-- Node6&#45;&gt;Node13 -->
<g id="edge16" class="edge"><title>Node6&#45;&gt;Node13</title>
<path fill="none" stroke="midnightblue" d="M621.493,-443.047C609.23,-437.811 595.388,-431.901 584.249,-427.145"/>
<polygon fill="midnightblue" stroke="midnightblue" points="620.337,-446.359 630.908,-447.067 623.086,-439.921 620.337,-446.359"/>
</g>
<!-- Node7&#45;&gt;Node8 -->
<g id="edge7" class="edge"><title>Node7&#45;&gt;Node8</title>
<path fill="none" stroke="midnightblue" d="M528.041,-595.357C514.272,-590.045 498.589,-583.995 486.017,-579.145"/>
<polygon fill="midnightblue" stroke="midnightblue" points="527.067,-598.733 537.657,-599.067 529.587,-592.202 527.067,-598.733"/>
</g>
<!-- Node8&#45;&gt;Node9 -->
<g id="edge8" class="edge"><title>Node8&#45;&gt;Node9</title>
<path fill="none" stroke="midnightblue" d="M439.571,-554.893C435.694,-552.004 431.701,-548.975 428,-546.072 409.34,-531.439 388.254,-513.617 375.963,-503.094"/>
<polygon fill="midnightblue" stroke="midnightblue" points="437.589,-557.78 447.716,-560.894 441.741,-552.145 437.589,-557.78"/>
</g>
<!-- Node9&#45;&gt;Node10 -->
<g id="edge9" class="edge"><title>Node9&#45;&gt;Node10</title>
<path fill="none" stroke="midnightblue" d="M346.484,-477.702C330.38,-462.21 306.801,-439.526 293.86,-427.077"/>
<polygon fill="midnightblue" stroke="midnightblue" points="344.494,-480.645 354.127,-485.055 349.347,-475.6 344.494,-480.645"/>
</g>
<!-- Node11 -->
<g id="node11" class="node"><title>Node11</title>
<g id="a_node11"><a xlink:href="main_8c.html#af18ed7edda7874a97cacaa11a2759260" target="_top" xlink:title=" ">
<polygon fill="none" stroke="black" points="175,-409.072 175,-427.072 230,-427.072 230,-409.072 175,-409.072"/>
<text text-anchor="middle" x="202.5" y="-415.872" font-family="Calibri" font-size="9.00">btn_push</text>
</a>
</g>
</g>
<!-- Node10&#45;&gt;Node11 -->
<g id="edge10" class="edge"><title>Node10&#45;&gt;Node11</title>
<path fill="none" stroke="midnightblue" d="M255.568,-418.072C247.367,-418.072 238.36,-418.072 230.177,-418.072"/>
<polygon fill="midnightblue" stroke="midnightblue" points="255.746,-421.572 265.746,-418.072 255.746,-414.572 255.746,-421.572"/>
</g>
<!-- Node11&#45;&gt;Node4 -->
<g id="edge11" class="edge"><title>Node11&#45;&gt;Node4</title>
<path fill="none" stroke="midnightblue" d="M192.463,-399.806C172.767,-359.994 126.564,-266.607 111.988,-237.144"/>
<polygon fill="midnightblue" stroke="midnightblue" points="189.395,-401.497 196.966,-408.908 195.669,-398.393 189.395,-401.497"/>
</g>
<!-- Node12&#45;&gt;Node9 -->
<g id="edge14" class="edge"><title>Node12&#45;&gt;Node9</title>
<path fill="none" stroke="midnightblue" d="M436.916,-630.815C433.692,-628.136 430.602,-625.196 428,-622.072 395.872,-583.498 375.397,-525.614 368.296,-503.299"/>
<polygon fill="midnightblue" stroke="midnightblue" points="434.906,-633.683 445.003,-636.893 439.111,-628.087 434.906,-633.683"/>
</g>
<!-- Node12&#45;&gt;Node10 -->
<g id="edge15" class="edge"><title>Node12&#45;&gt;Node10</title>
<path fill="none" stroke="midnightblue" d="M438.409,-630.896C434.808,-628.105 431.209,-625.11 428,-622.072 381.916,-578.459 372.84,-564.43 337,-512.072 316.728,-482.457 297.333,-444.389 288.902,-427.207"/>
<polygon fill="midnightblue" stroke="midnightblue" points="436.509,-633.844 446.635,-636.959 440.662,-628.209 436.509,-633.844"/>
</g>
<!-- Node13&#45;&gt;Node9 -->
<g id="edge17" class="edge"><title>Node13&#45;&gt;Node9</title>
<path fill="none" stroke="midnightblue" d="M528.358,-430.762C488.853,-446.119 423.332,-471.59 388.664,-485.067"/>
<polygon fill="midnightblue" stroke="midnightblue" points="529.754,-433.974 537.806,-427.089 527.217,-427.45 529.754,-433.974"/>
</g>
<!-- Node13&#45;&gt;Node10 -->
<g id="edge18" class="edge"><title>Node13&#45;&gt;Node10</title>
<path fill="none" stroke="midnightblue" d="M522.957,-418.072C461.874,-418.072 344.398,-418.072 301.075,-418.072"/>
<polygon fill="midnightblue" stroke="midnightblue" points="522.966,-421.572 532.966,-418.072 522.966,-414.572 522.966,-421.572"/>
</g>
<!-- Node14&#45;&gt;Node5 -->
<g id="edge23" class="edge"><title>Node14&#45;&gt;Node5</title>
<path fill="none" stroke="midnightblue" d="M720.307,-38.0721C681.853,-38.0721 617.996,-38.0721 563,-38.0721 563,-38.0721 563,-38.0721 201.5,-38.0721 143.838,-38.0721 125.244,-35.6347 74,-62.0721 53.8744,-72.4552 36.1604,-92.7465 26.8772,-104.68"/>
<polygon fill="midnightblue" stroke="midnightblue" points="720.45,-41.5722 730.45,-38.0721 720.45,-34.5722 720.45,-41.5722"/>
</g>
<!-- Node15&#45;&gt;Node2 -->
<g id="edge26" class="edge"><title>Node15&#45;&gt;Node2</title>
<path fill="none" stroke="midnightblue" d="M945.932,-722.199C930.656,-651.324 877.023,-402.491 865.992,-351.316"/>
<polygon fill="midnightblue" stroke="midnightblue" points="942.514,-722.951 948.042,-731.989 949.357,-721.476 942.514,-722.951"/>
</g>
<!-- Node15&#45;&gt;Node4 -->
<g id="edge27" class="edge"><title>Node15&#45;&gt;Node4</title>
<path fill="none" stroke="midnightblue" d="M943.598,-759.691C935.062,-781.724 917.833,-817.951 891,-838.072 841.662,-875.067 818.667,-874.072 757,-874.072 757,-874.072 757,-874.072 282.5,-874.072 144.228,-874.072 111.8,-315.722 107.923,-237.204"/>
<polygon fill="midnightblue" stroke="midnightblue" points="946.941,-760.741 947.095,-750.148 940.368,-758.333 946.941,-760.741"/>
</g>
<!-- Node15&#45;&gt;Node5 -->
<g id="edge38" class="edge"><title>Node15&#45;&gt;Node5</title>
<path fill="none" stroke="midnightblue" d="M944.994,-760.038C937.173,-786.717 919.884,-835.684 891,-868.072 844.528,-920.182 826.822,-950.072 757,-950.072 757,-950.072 757,-950.072 201.5,-950.072 165.156,-950.072 144.705,-978.74 74,-809.072 18.9514,-676.973 19.5269,-195.794 19.934,-123.256"/>
<polygon fill="midnightblue" stroke="midnightblue" points="948.455,-760.654 947.772,-750.082 941.713,-758.773 948.455,-760.654"/>
</g>
<!-- Node15&#45;&gt;Node7 -->
<g id="edge30" class="edge"><title>Node15&#45;&gt;Node7</title>
<path fill="none" stroke="midnightblue" d="M916.47,-739.711C869.555,-736.889 782.296,-728.27 713,-702.072 656.369,-680.662 598.07,-636.539 574.206,-617.338"/>
<polygon fill="midnightblue" stroke="midnightblue" points="916.495,-743.217 926.672,-740.27 916.878,-736.228 916.495,-743.217"/>
</g>
<!-- Node15&#45;&gt;Node8 -->
<g id="edge31" class="edge"><title>Node15&#45;&gt;Node8</title>
<path fill="none" stroke="midnightblue" d="M916.601,-744.398C908.249,-745.093 899.305,-745.721 891,-746.072 811.556,-749.432 788.843,-751.955 713,-728.072 624.555,-700.221 605.485,-681.299 531,-626.072 513.804,-613.322 511.627,-607.555 495,-594.072 488.68,-588.947 481.415,-583.539 475.358,-579.157"/>
<polygon fill="midnightblue" stroke="midnightblue" points="917.118,-747.866 926.77,-743.497 916.501,-740.893 917.118,-747.866"/>
</g>
<!-- Node15&#45;&gt;Node9 -->
<g id="edge40" class="edge"><title>Node15&#45;&gt;Node9</title>
<path fill="none" stroke="midnightblue" d="M920.457,-753.812C911.203,-757.193 900.835,-760.374 891,-762.072 848.799,-769.359 715.415,-752.633 713,-752.072 625.289,-731.715 602.557,-717.727 531,-663.072 513.018,-649.337 512.927,-640.879 495,-627.072 467.702,-606.049 451.061,-613.672 428,-588.072 401.905,-559.103 418.685,-536.499 392,-508.072 390.291,-506.251 388.291,-504.621 386.169,-503.174"/>
<polygon fill="midnightblue" stroke="midnightblue" points="921.921,-756.998 929.984,-750.125 919.395,-750.47 921.921,-756.998"/>
</g>
<!-- Node15&#45;&gt;Node12 -->
<g id="edge39" class="edge"><title>Node15&#45;&gt;Node12</title>
<path fill="none" stroke="midnightblue" d="M940.139,-758.984C930.043,-775.527 912.766,-799.397 891,-812.072 838.716,-842.519 817.503,-836.072 757,-836.072 757,-836.072 757,-836.072 652,-836.072 591.574,-836.072 574.108,-816.417 531,-774.072 494.32,-738.041 472.6,-678.153 465.29,-655.31"/>
<polygon fill="midnightblue" stroke="midnightblue" points="943.229,-760.633 945.234,-750.23 937.179,-757.112 943.229,-760.633"/>
</g>
<!-- Node16 -->
<g id="node16" class="node"><title>Node16</title>
<g id="a_node16"><a xlink:href="main_8c.html#ac445892220ccb3b4b337dd3e764bd6c6" target="_top" xlink:title="Handle the process of the buttons being pressed (in test mode)">
<polygon fill="none" stroke="black" points="713,-675.072 713,-693.072 799,-693.072 799,-675.072 713,-675.072"/>
<text text-anchor="middle" x="756" y="-681.872" font-family="Calibri" font-size="9.00">button_proc_test</text>
</a>
</g>
</g>
<!-- Node15&#45;&gt;Node16 -->
<g id="edge28" class="edge"><title>Node15&#45;&gt;Node16</title>
<path fill="none" stroke="midnightblue" d="M927.869,-726.376C917.138,-719.866 903.82,-712.659 891,-708.072 861.293,-697.443 826.128,-691.373 799.277,-687.998"/>
<polygon fill="midnightblue" stroke="midnightblue" points="926.227,-729.478 936.556,-731.835 929.951,-723.551 926.227,-729.478"/>
</g>
<!-- Node17 -->
<g id="node17" class="node"><title>Node17</title>
<g id="a_node17"><a xlink:href="main_8c.html#ae5a14b4884e85f47ad8a4a716f13203a" target="_top" xlink:title=" ">
<polygon fill="none" stroke="black" points="839,-561.072 839,-579.072 887,-579.072 887,-561.072 839,-561.072"/>
<text text-anchor="middle" x="863" y="-567.872" font-family="Calibri" font-size="9.00">lcd_pwr</text>
</a>
</g>
</g>
<!-- Node15&#45;&gt;Node17 -->
<g id="edge32" class="edge"><title>Node15&#45;&gt;Node17</title>
<path fill="none" stroke="midnightblue" d="M940.86,-722.899C922.63,-686.65 882.325,-606.51 868.647,-579.311"/>
<polygon fill="midnightblue" stroke="midnightblue" points="937.756,-724.517 945.376,-731.878 944.01,-721.372 937.756,-724.517"/>
</g>
<!-- Node16&#45;&gt;Node5 -->
<g id="edge29" class="edge"><title>Node16&#45;&gt;Node5</title>
<path fill="none" stroke="midnightblue" d="M749.283,-703.121C731.536,-757.919 671.93,-912.072 563,-912.072 563,-912.072 563,-912.072 201.5,-912.072 31.1817,-912.072 20.6882,-212.165 20.0423,-123.31"/>
<polygon fill="midnightblue" stroke="midnightblue" points="752.712,-703.881 752.358,-693.292 746.032,-701.791 752.712,-703.881"/>
</g>
<!-- Node17&#45;&gt;Node3 -->
<g id="edge37" class="edge"><title>Node17&#45;&gt;Node3</title>
<path fill="none" stroke="midnightblue" d="M858.06,-550.825C850.049,-513.792 829.959,-430.579 799,-366.072 789.324,-345.912 773.691,-324.854 764.473,-313.206"/>
<polygon fill="midnightblue" stroke="midnightblue" points="854.667,-551.702 860.156,-560.764 861.517,-550.256 854.667,-551.702"/>
</g>
<!-- Node17&#45;&gt;Node4 -->
<g id="edge34" class="edge"><title>Node17&#45;&gt;Node4</title>
<path fill="none" stroke="midnightblue" d="M834.474,-585.424C816.439,-600.496 815.498,-609.839 799,-622.072 764.673,-647.525 750.986,-645.495 713,-665.072 600.953,-722.818 588.553,-798.072 462.5,-798.072 462.5,-798.072 462.5,-798.072 282.5,-798.072 160.091,-798.072 114.497,-311.601 108.261,-237.49"/>
<polygon fill="midnightblue" stroke="midnightblue" points="836.875,-587.991 842.636,-579.099 832.588,-582.458 836.875,-587.991"/>
</g>
<!-- Node17&#45;&gt;Node5 -->
<g id="edge36" class="edge"><title>Node17&#45;&gt;Node5</title>
<path fill="none" stroke="midnightblue" d="M851.675,-552.274C801.372,-468.105 572.659,-114.072 284.5,-114.072 284.5,-114.072 284.5,-114.072 201.5,-114.072 141.63,-114.072 70.6518,-114.072 38.0329,-114.072"/>
<polygon fill="midnightblue" stroke="midnightblue" points="848.706,-554.13 856.803,-560.963 854.735,-550.572 848.706,-554.13"/>
</g>
<!-- Node17&#45;&gt;Node11 -->
<g id="edge33" class="edge"><title>Node17&#45;&gt;Node11</title>
<path fill="none" stroke="midnightblue" d="M829.496,-581.863C748.036,-611.004 536.412,-684.072 462.5,-684.072 462.5,-684.072 462.5,-684.072 363.5,-684.072 240.898,-684.072 209.844,-474.002 204.449,-427.228"/>
<polygon fill="midnightblue" stroke="midnightblue" points="830.761,-585.128 838.99,-578.455 828.396,-578.54 830.761,-585.128"/>
</g>
<!-- Node17&#45;&gt;Node16 -->
<g id="edge35" class="edge"><title>Node17&#45;&gt;Node16</title>
<path fill="none" stroke="midnightblue" d="M842.313,-586.096C839.707,-588.628 837.186,-591.323 835,-594.072 814.205,-620.226 822.392,-636.213 799,-660.072 793.121,-666.069 785.426,-671.043 778.231,-674.878"/>
<polygon fill="midnightblue" stroke="midnightblue" points="845.019,-588.371 850.132,-579.091 840.348,-583.157 845.019,-588.371"/>
</g>
<!-- Node18&#45;&gt;Node2 -->
<g id="edge42" class="edge"><title>Node18&#45;&gt;Node2</title>
<path fill="none" stroke="midnightblue" d="M931.956,-402.126C914.417,-386.627 888.406,-363.641 874.19,-351.077"/>
<polygon fill="midnightblue" stroke="midnightblue" points="929.986,-405.056 939.797,-409.055 934.621,-399.811 929.986,-405.056"/>
</g>
<!-- Node18&#45;&gt;Node4 -->
<g id="edge43" class="edge"><title>Node18&#45;&gt;Node4</title>
<path fill="none" stroke="midnightblue" d="M942.118,-399.574C932.529,-378.829 914.648,-345.201 891,-323.072 857.173,-291.419 842.52,-289.954 799,-274.072 558.253,-186.217 239.415,-212.714 139.098,-224.093"/>
<polygon fill="midnightblue" stroke="midnightblue" points="938.991,-401.155 946.255,-408.867 945.386,-398.308 938.991,-401.155"/>
</g>
<!-- Node18&#45;&gt;Node5 -->
<g id="edge47" class="edge"><title>Node18&#45;&gt;Node5</title>
<path fill="none" stroke="midnightblue" d="M946.302,-399.032C939.838,-370.498 923.912,-316.533 891,-284.072 809.025,-203.221 822.1,-76.0721 365.5,-76.0721 365.5,-76.0721 365.5,-76.0721 201.5,-76.0721 140.493,-76.0721 70.3526,-96.8941 38.0291,-107.712"/>
<polygon fill="midnightblue" stroke="midnightblue" points="942.904,-399.88 948.394,-408.942 949.753,-398.434 942.904,-399.88"/>
</g>
<!-- Node18&#45;&gt;Node8 -->
<g id="edge45" class="edge"><title>Node18&#45;&gt;Node8</title>
<path fill="none" stroke="midnightblue" d="M943.212,-436.811C934.543,-457.851 917.422,-491.244 891,-508.072 763.249,-589.437 571.132,-581.127 495.123,-573.902"/>
<polygon fill="midnightblue" stroke="midnightblue" points="946.531,-437.933 946.886,-427.344 940.005,-435.401 946.531,-437.933"/>
</g>
<!-- Node18&#45;&gt;Node9 -->
<g id="edge49" class="edge"><title>Node18&#45;&gt;Node9</title>
<path fill="none" stroke="midnightblue" d="M928.357,-432.824C893.766,-454.927 823.162,-494.072 757,-494.072 757,-494.072 757,-494.072 652,-494.072 552.44,-494.072 527.547,-497.664 428,-496.072 416.277,-495.885 403.321,-495.499 392.26,-495.117"/>
<polygon fill="midnightblue" stroke="midnightblue" points="930.673,-435.492 937.126,-427.089 926.841,-429.634 930.673,-435.492"/>
</g>
<!-- Node18&#45;&gt;Node13 -->
<g id="edge48" class="edge"><title>Node18&#45;&gt;Node13</title>
<path fill="none" stroke="midnightblue" d="M917.002,-418.072C842.219,-418.072 660.927,-418.072 591.082,-418.072"/>
<polygon fill="midnightblue" stroke="midnightblue" points="917.236,-421.572 927.236,-418.072 917.236,-414.572 917.236,-421.572"/>
</g>
<!-- Node18&#45;&gt;Node16 -->
<g id="edge44" class="edge"><title>Node18&#45;&gt;Node16</title>
<path fill="none" stroke="midnightblue" d="M949.545,-437.594C947.62,-477.084 937.998,-567.336 891,-622.072 866.87,-650.174 827.287,-666.305 797.384,-675.026"/>
<polygon fill="midnightblue" stroke="midnightblue" points="953.047,-437.588 949.918,-427.466 946.052,-437.33 953.047,-437.588"/>
</g>
<!-- Node18&#45;&gt;Node17 -->
<g id="edge46" class="edge"><title>Node18&#45;&gt;Node17</title>
<path fill="none" stroke="midnightblue" d="M944.075,-436.901C935.255,-463.072 916.888,-511.159 891,-546.072 886.891,-551.614 881.328,-556.824 876.319,-560.965"/>
<polygon fill="midnightblue" stroke="midnightblue" points="947.489,-437.721 947.265,-427.129 940.835,-435.549 947.489,-437.721"/>
</g>
<!-- Node19&#45;&gt;Node3 -->
<g id="edge55" class="edge"><title>Node19&#45;&gt;Node3</title>
<path fill="none" stroke="midnightblue" d="M930.587,-167.361C890.749,-198.736 800.805,-269.573 768.679,-294.874"/>
<polygon fill="midnightblue" stroke="midnightblue" points="932.814,-170.062 938.505,-161.125 928.483,-164.563 932.814,-170.062"/>
</g>
<!-- Node19&#45;&gt;Node4 -->
<g id="edge51" class="edge"><title>Node19&#45;&gt;Node4</title>
<path fill="none" stroke="midnightblue" d="M928.357,-137.32C893.766,-115.217 823.162,-76.0721 757,-76.0721 757,-76.0721 757,-76.0721 652,-76.0721 435.391,-76.0721 371.751,-85.473 175,-176.072 151.62,-186.838 128.839,-206.992 116.643,-218.798"/>
<polygon fill="midnightblue" stroke="midnightblue" points="926.841,-140.51 937.126,-143.055 930.673,-134.652 926.841,-140.51"/>
</g>
<!-- Node19&#45;&gt;Node5 -->
<g id="edge54" class="edge"><title>Node19&#45;&gt;Node5</title>
<path fill="none" stroke="midnightblue" d="M945.211,-132.883C937.867,-107.44 921.373,-62.8743 891,-38.0721 843.051,1.0818 818.904,-0.07212 757,-0.07212 757,-0.07212 757,-0.07212 201.5,-0.07212 142.618,-0.07212 121.915,-1.84894 74,-36.0721 48.535,-54.2603 31.1241,-88.4161 23.8392,-104.819"/>
<polygon fill="midnightblue" stroke="midnightblue" points="941.902,-134.053 947.886,-142.795 948.66,-132.229 941.902,-134.053"/>
</g>
<!-- Node19&#45;&gt;Node9 -->
<g id="edge56" class="edge"><title>Node19&#45;&gt;Node9</title>
<path fill="none" stroke="midnightblue" d="M918.069,-155.016C871.347,-160.21 782.377,-173.496 713,-204.072 571.165,-266.583 537.491,-295.36 428,-405.072 402.392,-430.731 380.04,-467.964 370.464,-484.977"/>
<polygon fill="midnightblue" stroke="midnightblue" points="918.612,-158.478 928.189,-153.945 917.876,-151.517 918.612,-158.478"/>
</g>
<!-- Node19&#45;&gt;Node14 -->
<g id="edge57" class="edge"><title>Node19&#45;&gt;Node14</title>
<path fill="none" stroke="midnightblue" d="M943.11,-133.49C934.346,-112.597 917.137,-79.3412 891,-62.0721 857.774,-40.119 810.234,-36.6676 781.617,-36.8728"/>
<polygon fill="midnightblue" stroke="midnightblue" points="939.894,-134.876 946.831,-142.885 946.402,-132.299 939.894,-134.876"/>
</g>
<!-- Node19&#45;&gt;Node16 -->
<g id="edge52" class="edge"><title>Node19&#45;&gt;Node16</title>
<path fill="none" stroke="midnightblue" d="M948.391,-171.141C941.558,-250.561 914.234,-552.595 891,-588.072 875.047,-612.43 857.658,-603.785 835,-622.072 816.896,-636.683 817.296,-645.702 799,-660.072 791.867,-665.674 783.277,-670.821 775.73,-674.9"/>
<polygon fill="midnightblue" stroke="midnightblue" points="951.885,-171.358 949.247,-161.096 944.91,-170.763 951.885,-171.358"/>
</g>
<!-- Node19&#45;&gt;Node17 -->
<g id="edge53" class="edge"><title>Node19&#45;&gt;Node17</title>
<path fill="none" stroke="midnightblue" d="M946.036,-171.339C930.87,-245.054 876.828,-507.72 865.925,-560.714"/>
<polygon fill="midnightblue" stroke="midnightblue" points="949.537,-171.692 948.124,-161.191 942.68,-170.281 949.537,-171.692"/>
</g>
</g>
</svg>
