<?xml version="1.0" encoding="UTF-8" standalone="no"?>
<!DOCTYPE svg PUBLIC "-//W3C//DTD SVG 1.1//EN"
 "http://www.w3.org/Graphics/SVG/1.1/DTD/svg11.dtd">
<!-- Generated by graphviz version 2.38.0 (20140413.2041)
 -->
<!-- Title: button_proc_test Pages: 1 -->
<!--zoomable 392 -->
<svg id="main" version="1.1" xmlns="http://www.w3.org/2000/svg" xmlns:xlink="http://www.w3.org/1999/xlink" xml:space="preserve" onload="init(evt)">
<style type="text/css"><![CDATA[
.edge:hover path { stroke: red; }
.edge:hover polygon { stroke: red; fill: red; }
]]></style>
<script type="text/javascript"><![CDATA[
var edges = document.getElementsByTagName('g');
if (edges && edges.length) {
  for (var i=0;i<edges.length;i++) {
    if (edges[i].id.substr(0,4)=='edge') {
      edges[i].setAttribute('class','edge');
    }
  }
}
]]></script>
        <defs>
                <circle id="rim" cx="0" cy="0" r="7"/>
                <circle id="rim2" cx="0" cy="0" r="3.5"/>
                <g id="zoomPlus">
                        <use xlink:href="#rim" fill="#404040">
                                <set attributeName="fill" to="#808080" begin="zoomplus.mouseover" end="zoomplus.mouseout"/>
                        </use>
                        <path d="M-4,0h8M0,-4v8" fill="none" stroke="white" stroke-width="1.5" pointer-events="none"/>
                </g>
                <g id="zoomMin">
                        <use xlink:href="#rim" fill="#404040">
                                <set attributeName="fill" to="#808080" begin="zoomminus.mouseover" end="zoomminus.mouseout"/>
                        </use>
                        <path d="M-4,0h8" fill="none" stroke="white" stroke-width="1.5" pointer-events="none"/>
                </g>
                <g id="dirArrow">
                        <path fill="none" stroke="white" stroke-width="1.5" d="M0,-3.0v7 M-2.5,-0.5L0,-3.0L2.5,-0.5"/>
                </g>
               <g id="resetDef">
                       <use xlink:href="#rim2" fill="#404040">
                               <set attributeName="fill" to="#808080" begin="reset.mouseover" end="reset.mouseout"/>
                       </use>
               </g>
        </defs>

<script type="text/javascript">
var viewWidth = 811;
var viewHeight = 392;
var sectionId = 'dynsection-6';
</script>
<script xlink:href="svgpan.js"/>
<svg id="graph" class="graph">
<g id="viewport">
<title>button_proc_test</title>
<!-- Node1 -->
<g id="node1" class="node"><title>Node1</title>
<g id="a_node1"><a xlink:title="Handle the process of the buttons being pressed (in test mode)">
<polygon fill="#bfbfbf" stroke="black" points="0,-119.5 0,-137.5 86,-137.5 86,-119.5 0,-119.5"/>
<text text-anchor="middle" x="43" y="-126.3" font-family="Calibri" font-size="9.00">button_proc_test</text>
</a>
</g>
</g>
<!-- Node2 -->
<g id="node2" class="node"><title>Node2</title>
<g id="a_node2"><a xlink:href="main_8c.html#a6911b3f075cdf1d54cb14f17f6e5ef6b" target="_top" xlink:title=" ">
<polygon fill="none" stroke="black" points="322,-339.5 322,-357.5 369,-357.5 369,-339.5 322,-339.5"/>
<text text-anchor="middle" x="345.5" y="-346.3" font-family="Calibri" font-size="9.00">lcd_ind</text>
</a>
</g>
</g>
<!-- Node1&#45;&gt;Node2 -->
<g id="edge1" class="edge"><title>Node1&#45;&gt;Node2</title>
<path fill="none" stroke="midnightblue" d="M48.264,-137.676C63.9127,-170.201 121.694,-280.598 206,-328.5 238.546,-346.992 282.086,-350.47 311.597,-350.307"/>
<polygon fill="midnightblue" stroke="midnightblue" points="311.86,-353.803 321.788,-350.104 311.72,-346.804 311.86,-353.803"/>
</g>
<!-- Node3 -->
<g id="node3" class="node"><title>Node3</title>
<g id="a_node3"><a xlink:href="oled__control_8c.html#a1c8eef09adf01c9a7e3c6188f25c3c48" target="_top" xlink:title=" ">
<polygon fill="none" stroke="black" points="414,-282.5 414,-300.5 473,-300.5 473,-282.5 414,-282.5"/>
<text text-anchor="middle" x="443.5" y="-289.3" font-family="Calibri" font-size="9.00">led_wr_str</text>
</a>
</g>
</g>
<!-- Node1&#45;&gt;Node3 -->
<g id="edge38" class="edge"><title>Node1&#45;&gt;Node3</title>
<path fill="none" stroke="midnightblue" d="M46.4832,-137.694C54.0524,-164.399 78.9797,-243.307 122,-294.5 151.351,-329.427 163.41,-337.147 206,-353.5 277.568,-380.98 308.325,-398.477 378,-366.5 403.286,-354.895 422.398,-327.944 433.025,-309.716"/>
<polygon fill="midnightblue" stroke="midnightblue" points="436.267,-311.085 438.041,-300.64 430.141,-307.699 436.267,-311.085"/>
</g>
<!-- Node10 -->
<g id="node10" class="node"><title>Node10</title>
<g id="a_node10"><a xlink:href="main_8c.html#ae5a14b4884e85f47ad8a4a716f13203a" target="_top" xlink:title=" ">
<polygon fill="none" stroke="black" points="122,-147.5 122,-165.5 170,-165.5 170,-147.5 122,-147.5"/>
<text text-anchor="middle" x="146" y="-154.3" font-family="Calibri" font-size="9.00">lcd_pwr</text>
</a>
</g>
</g>
<!-- Node1&#45;&gt;Node10 -->
<g id="edge14" class="edge"><title>Node1&#45;&gt;Node10</title>
<path fill="none" stroke="midnightblue" d="M76.513,-137.514C87.8157,-140.647 100.501,-144.164 111.855,-147.311"/>
<polygon fill="midnightblue" stroke="midnightblue" points="111.257,-150.777 121.829,-150.076 113.127,-144.032 111.257,-150.777"/>
</g>
<!-- Node19 -->
<g id="node19" class="node"><title>Node19</title>
<g id="a_node19"><a xlink:href="main_8h.html#a2a7963b9b09696c6654b96c67900c6ea" target="_top" xlink:title=" ">
<polygon fill="none" stroke="black" points="217.5,-0.5 217.5,-18.5 265.5,-18.5 265.5,-0.5 217.5,-0.5"/>
<text text-anchor="middle" x="241.5" y="-7.3" font-family="Calibri" font-size="9.00">set_cap</text>
</a>
</g>
</g>
<!-- Node1&#45;&gt;Node19 -->
<g id="edge39" class="edge"><title>Node1&#45;&gt;Node19</title>
<path fill="none" stroke="midnightblue" d="M56.4511,-119.33C71.6434,-108.271 98.2453,-89.3215 122,-74.5 158.295,-51.8544 168.365,-47.8409 206,-27.5 208.563,-26.1147 211.242,-24.6854 213.924,-23.2661"/>
<polygon fill="midnightblue" stroke="midnightblue" points="215.668,-26.3038 222.896,-18.5583 212.415,-20.1053 215.668,-26.3038"/>
</g>
<!-- Node21 -->
<g id="node21" class="node"><title>Node21</title>
<g id="a_node21"><a xlink:href="main_8h.html#aecc83cd8bceb4bc24be844732ead2c2c" target="_top" xlink:title=" ">
<polygon fill="none" stroke="black" points="218,-74.5 218,-92.5 265,-92.5 265,-74.5 218,-74.5"/>
<text text-anchor="middle" x="241.5" y="-81.3" font-family="Calibri" font-size="9.00">set_ind</text>
</a>
</g>
</g>
<!-- Node1&#45;&gt;Node21 -->
<g id="edge40" class="edge"><title>Node1&#45;&gt;Node21</title>
<path fill="none" stroke="midnightblue" d="M83.7647,-119.394C120.352,-111.015 173.951,-98.7401 208.027,-90.9366"/>
<polygon fill="midnightblue" stroke="midnightblue" points="208.969,-94.3116 217.935,-88.6676 207.406,-87.4882 208.969,-94.3116"/>
</g>
<!-- Node22 -->
<g id="node22" class="node"><title>Node22</title>
<g id="a_node22"><a xlink:href="main_8h.html#aa3ee146d5fca99f368e8ddb5d5dd72cb" target="_top" xlink:title="Set the state of the switch.">
<polygon fill="none" stroke="black" points="219,-37.5 219,-55.5 264,-55.5 264,-37.5 219,-37.5"/>
<text text-anchor="middle" x="241.5" y="-44.3" font-family="Calibri" font-size="9.00">set_sw</text>
</a>
</g>
</g>
<!-- Node1&#45;&gt;Node22 -->
<g id="edge41" class="edge"><title>Node1&#45;&gt;Node22</title>
<path fill="none" stroke="midnightblue" d="M65.7797,-119.411C100.766,-104.811 169.61,-76.0827 209.643,-59.3769"/>
<polygon fill="midnightblue" stroke="midnightblue" points="211.041,-62.5857 218.922,-55.5045 208.346,-56.1256 211.041,-62.5857"/>
</g>
<!-- Node2&#45;&gt;Node3 -->
<g id="edge2" class="edge"><title>Node2&#45;&gt;Node3</title>
<path fill="none" stroke="midnightblue" d="M361.924,-339.342C377.179,-330.284 400.747,-316.291 418.46,-305.774"/>
<polygon fill="midnightblue" stroke="midnightblue" points="420.303,-308.75 427.114,-300.635 416.729,-302.731 420.303,-308.75"/>
</g>
<!-- Node4 -->
<g id="node4" class="node"><title>Node4</title>
<g id="a_node4"><a xlink:href="oled__control_8c.html#a3d35666326cc069eda3b63c70983fdbc" target="_top" xlink:title=" ">
<polygon fill="none" stroke="black" points="623,-224.5 623,-242.5 678,-242.5 678,-224.5 623,-224.5"/>
<text text-anchor="middle" x="650.5" y="-231.3" font-family="Calibri" font-size="9.00">led_send</text>
</a>
</g>
</g>
<!-- Node3&#45;&gt;Node4 -->
<g id="edge3" class="edge"><title>Node3&#45;&gt;Node4</title>
<path fill="none" stroke="midnightblue" d="M473.049,-282.986C484.247,-279.673 497.215,-275.871 509,-272.5 544.224,-262.424 584.526,-251.276 612.906,-243.488"/>
<polygon fill="midnightblue" stroke="midnightblue" points="614.072,-246.798 622.792,-240.78 612.222,-240.047 614.072,-246.798"/>
</g>
<!-- Node8 -->
<g id="node8" class="node"><title>Node8</title>
<g id="a_node8"><a xlink:href="oled__control_8c.html#a6e85fd05697e2238e4d9babf1c952772" target="_top" xlink:title=" ">
<polygon fill="none" stroke="black" points="509,-282.5 509,-300.5 574,-300.5 574,-282.5 509,-282.5"/>
<text text-anchor="middle" x="541.5" y="-289.3" font-family="Calibri" font-size="9.00">oled_wr_str</text>
</a>
</g>
</g>
<!-- Node3&#45;&gt;Node8 -->
<g id="edge7" class="edge"><title>Node3&#45;&gt;Node8</title>
<path fill="none" stroke="midnightblue" d="M473.043,-291.5C481.147,-291.5 490.142,-291.5 498.852,-291.5"/>
<polygon fill="midnightblue" stroke="midnightblue" points="498.877,-295 508.877,-291.5 498.877,-288 498.877,-295"/>
</g>
<!-- Node5 -->
<g id="node5" class="node"><title>Node5</title>
<g id="a_node5"><a xlink:href="oled__control_8c.html#ab7f6b5c6c1483f6286f2de5786c028d9" target="_top" xlink:title=" ">
<polygon fill="none" stroke="black" points="729,-290.5 729,-308.5 801,-308.5 801,-290.5 729,-290.5"/>
<text text-anchor="middle" x="765" y="-297.3" font-family="Calibri" font-size="9.00">Soft_I2C_Start</text>
</a>
</g>
</g>
<!-- Node4&#45;&gt;Node5 -->
<g id="edge4" class="edge"><title>Node4&#45;&gt;Node5</title>
<path fill="none" stroke="midnightblue" d="M667.143,-242.677C685.949,-253.71 717.724,-272.351 739.726,-285.259"/>
<polygon fill="midnightblue" stroke="midnightblue" points="738.094,-288.36 748.49,-290.401 741.636,-282.322 738.094,-288.36"/>
</g>
<!-- Node6 -->
<g id="node6" class="node"><title>Node6</title>
<g id="a_node6"><a xlink:href="oled__control_8c.html#a16eb842aa672ca44820ae6d5f9933425" target="_top" xlink:title=" ">
<polygon fill="none" stroke="black" points="729.5,-187.5 729.5,-205.5 800.5,-205.5 800.5,-187.5 729.5,-187.5"/>
<text text-anchor="middle" x="765" y="-194.3" font-family="Calibri" font-size="9.00">Soft_I2C_Stop</text>
</a>
</g>
</g>
<!-- Node4&#45;&gt;Node6 -->
<g id="edge5" class="edge"><title>Node4&#45;&gt;Node6</title>
<path fill="none" stroke="midnightblue" d="M678.161,-224.732C692.689,-219.953 710.899,-213.964 726.804,-208.733"/>
<polygon fill="midnightblue" stroke="midnightblue" points="727.95,-212.041 736.356,-205.592 725.763,-205.391 727.95,-212.041"/>
</g>
<!-- Node7 -->
<g id="node7" class="node"><title>Node7</title>
<g id="a_node7"><a xlink:href="oled__control_8c.html#a73610916645f17c19124e697b005f694" target="_top" xlink:title=" ">
<polygon fill="none" stroke="black" points="727,-234.5 727,-252.5 803,-252.5 803,-234.5 727,-234.5"/>
<text text-anchor="middle" x="765" y="-241.3" font-family="Calibri" font-size="9.00">Soft_I2C_Write</text>
</a>
</g>
</g>
<!-- Node4&#45;&gt;Node7 -->
<g id="edge6" class="edge"><title>Node4&#45;&gt;Node7</title>
<path fill="none" stroke="midnightblue" d="M678.161,-235.87C689.645,-236.891 703.43,-238.116 716.559,-239.283"/>
<polygon fill="midnightblue" stroke="midnightblue" points="716.62,-242.802 726.891,-240.201 717.24,-235.83 716.62,-242.802"/>
</g>
<!-- Node8&#45;&gt;Node5 -->
<g id="edge11" class="edge"><title>Node8&#45;&gt;Node5</title>
<path fill="none" stroke="midnightblue" d="M555.16,-300.716C568.171,-309.572 589.384,-322.346 610,-327.5 644.925,-336.231 655.602,-334.056 691,-327.5 706.681,-324.596 723.343,-318.46 736.784,-312.671"/>
<polygon fill="midnightblue" stroke="midnightblue" points="738.247,-315.851 745.942,-308.567 735.385,-309.462 738.247,-315.851"/>
</g>
<!-- Node8&#45;&gt;Node6 -->
<g id="edge12" class="edge"><title>Node8&#45;&gt;Node6</title>
<path fill="none" stroke="midnightblue" d="M546.537,-282.229C557.646,-257.2 589.218,-189.346 610,-177.5 649.449,-155.012 703.715,-170.376 736.182,-183.494"/>
<polygon fill="midnightblue" stroke="midnightblue" points="734.945,-186.771 745.518,-187.449 737.675,-180.326 734.945,-186.771"/>
</g>
<!-- Node8&#45;&gt;Node7 -->
<g id="edge13" class="edge"><title>Node8&#45;&gt;Node7</title>
<path fill="none" stroke="midnightblue" d="M574.236,-284.623C611.556,-276.535 673.856,-263.035 716.834,-253.721"/>
<polygon fill="midnightblue" stroke="midnightblue" points="717.744,-257.105 726.776,-251.567 716.261,-250.264 717.744,-257.105"/>
</g>
<!-- Node9 -->
<g id="node9" class="node"><title>Node9</title>
<g id="a_node9"><a xlink:href="oled__control_8c.html#a3cf32ac4d3d7c92be54c385c1ed8cc76" target="_top" xlink:title=" ">
<polygon fill="none" stroke="black" points="610.5,-300.5 610.5,-318.5 690.5,-318.5 690.5,-300.5 610.5,-300.5"/>
<text text-anchor="middle" x="650.5" y="-307.3" font-family="Calibri" font-size="9.00">set_addressing</text>
</a>
</g>
</g>
<!-- Node8&#45;&gt;Node9 -->
<g id="edge8" class="edge"><title>Node8&#45;&gt;Node9</title>
<path fill="none" stroke="midnightblue" d="M574.025,-296.803C582.266,-298.19 591.349,-299.718 600.273,-301.219"/>
<polygon fill="midnightblue" stroke="midnightblue" points="599.785,-304.686 610.227,-302.893 600.946,-297.783 599.785,-304.686"/>
</g>
<!-- Node9&#45;&gt;Node5 -->
<g id="edge9" class="edge"><title>Node9&#45;&gt;Node5</title>
<path fill="none" stroke="midnightblue" d="M690.531,-306.031C699.569,-305.227 709.262,-304.366 718.548,-303.54"/>
<polygon fill="midnightblue" stroke="midnightblue" points="719.151,-307 728.802,-302.629 718.531,-300.028 719.151,-307"/>
</g>
<!-- Node9&#45;&gt;Node7 -->
<g id="edge10" class="edge"><title>Node9&#45;&gt;Node7</title>
<path fill="none" stroke="midnightblue" d="M667.143,-300.323C685.949,-289.29 717.724,-270.649 739.726,-257.741"/>
<polygon fill="midnightblue" stroke="midnightblue" points="741.636,-260.678 748.49,-252.599 738.094,-254.64 741.636,-260.678"/>
</g>
<!-- Node10&#45;&gt;Node3 -->
<g id="edge28" class="edge"><title>Node10&#45;&gt;Node3</title>
<path fill="none" stroke="midnightblue" d="M150.829,-165.564C158.565,-182.711 177.757,-219.843 206,-238.5 266.966,-278.773 354.04,-288.796 403.752,-291.078"/>
<polygon fill="midnightblue" stroke="midnightblue" points="403.645,-294.576 413.77,-291.455 403.909,-287.581 403.645,-294.576"/>
</g>
<!-- Node11 -->
<g id="node11" class="node"><title>Node11</title>
<g id="a_node11"><a xlink:href="main_8c.html#a593218c5fe00b499d494826fc0aa5279" target="_top" xlink:title=" ">
<polygon fill="none" stroke="black" points="206,-187.5 206,-205.5 277,-205.5 277,-187.5 206,-187.5"/>
<text text-anchor="middle" x="241.5" y="-194.3" font-family="Calibri" font-size="9.00">button_delay</text>
</a>
</g>
</g>
<!-- Node10&#45;&gt;Node11 -->
<g id="edge15" class="edge"><title>Node10&#45;&gt;Node11</title>
<path fill="none" stroke="midnightblue" d="M168.217,-165.577C180.53,-170.844 196.252,-177.57 209.887,-183.403"/>
<polygon fill="midnightblue" stroke="midnightblue" points="208.797,-186.744 219.367,-187.459 211.55,-180.308 208.797,-186.744"/>
</g>
<!-- Node12 -->
<g id="node12" class="node"><title>Node12</title>
<g id="a_node12"><a xlink:href="oled__control_8c.html#a5febfdc847aa6f3bc3f3c8f7818b8699" target="_top" xlink:title=" ">
<polygon fill="none" stroke="black" points="510.5,-187.5 510.5,-205.5 572.5,-205.5 572.5,-187.5 510.5,-187.5"/>
<text text-anchor="middle" x="541.5" y="-194.3" font-family="Calibri" font-size="9.00">display_on</text>
</a>
</g>
</g>
<!-- Node10&#45;&gt;Node12 -->
<g id="edge16" class="edge"><title>Node10&#45;&gt;Node12</title>
<path fill="none" stroke="midnightblue" d="M163.342,-147.416C201.263,-127.512 298.099,-83.4516 378,-104.5 434.538,-119.394 492.062,-158.96 521.125,-181.046"/>
<polygon fill="midnightblue" stroke="midnightblue" points="519.147,-183.941 529.198,-187.292 523.431,-178.405 519.147,-183.941"/>
</g>
<!-- Node14 -->
<g id="node14" class="node"><title>Node14</title>
<g id="a_node14"><a xlink:href="main_8h.html#ab37ca657b79c6b9176cb63e9d812a182" target="_top" xlink:title=" ">
<polygon fill="none" stroke="black" points="217,-150.5 217,-168.5 266,-168.5 266,-150.5 217,-150.5"/>
<text text-anchor="middle" x="241.5" y="-157.3" font-family="Calibri" font-size="9.00">get_pwr</text>
</a>
</g>
</g>
<!-- Node10&#45;&gt;Node14 -->
<g id="edge22" class="edge"><title>Node10&#45;&gt;Node14</title>
<path fill="none" stroke="midnightblue" d="M170.112,-157.242C181.071,-157.593 194.381,-158.02 206.464,-158.408"/>
<polygon fill="midnightblue" stroke="midnightblue" points="206.57,-161.913 216.677,-158.736 206.795,-154.917 206.57,-161.913"/>
</g>
<!-- Node18 -->
<g id="node18" class="node"><title>Node18</title>
<g id="a_node18"><a xlink:href="main_8c.html#aa8fd50019a763561abc6621bb224417f" target="_top" xlink:title=" ">
<polygon fill="none" stroke="black" points="322,-225.5 322,-243.5 369,-243.5 369,-225.5 322,-225.5"/>
<text text-anchor="middle" x="345.5" y="-232.3" font-family="Calibri" font-size="9.00">lcd_swr</text>
</a>
</g>
</g>
<!-- Node10&#45;&gt;Node18 -->
<g id="edge26" class="edge"><title>Node10&#45;&gt;Node18</title>
<path fill="none" stroke="midnightblue" d="M153.387,-165.765C163.077,-179.009 182.834,-203.019 206,-214.5 239.345,-231.026 282.376,-234.936 311.561,-235.41"/>
<polygon fill="midnightblue" stroke="midnightblue" points="311.631,-238.91 321.644,-235.447 311.657,-231.911 311.631,-238.91"/>
</g>
<!-- Node10&#45;&gt;Node19 -->
<g id="edge29" class="edge"><title>Node10&#45;&gt;Node19</title>
<path fill="none" stroke="midnightblue" d="M149.032,-147.205C154.482,-124.218 171.41,-63.9348 206,-27.5 207.047,-26.3976 208.176,-25.35 209.365,-24.3559"/>
<polygon fill="midnightblue" stroke="midnightblue" points="211.561,-27.0943 217.842,-18.5623 207.611,-21.315 211.561,-27.0943"/>
</g>
<!-- Node10&#45;&gt;Node21 -->
<g id="edge31" class="edge"><title>Node10&#45;&gt;Node21</title>
<path fill="none" stroke="midnightblue" d="M157.65,-147.187C169.296,-137.113 188.622,-120.723 206,-107.5 209.999,-104.457 214.344,-101.314 218.558,-98.3455"/>
<polygon fill="midnightblue" stroke="midnightblue" points="220.648,-101.156 226.875,-92.5843 216.661,-95.4019 220.648,-101.156"/>
</g>
<!-- Node10&#45;&gt;Node22 -->
<g id="edge33" class="edge"><title>Node10&#45;&gt;Node22</title>
<path fill="none" stroke="midnightblue" d="M150.925,-147.296C158.959,-129.366 178.835,-89.3406 206,-64.5 207.303,-63.309 208.698,-62.1736 210.155,-61.0949"/>
<polygon fill="midnightblue" stroke="midnightblue" points="212.354,-63.8457 218.936,-55.5438 208.613,-57.9288 212.354,-63.8457"/>
</g>
<!-- Node23 -->
<g id="node23" class="node"><title>Node23</title>
<g id="a_node23"><a xlink:href="main_8c.html#a4ae0d4fa97fc0ca3611813fee4f9af7c" target="_top" xlink:title=" ">
<polygon fill="none" stroke="black" points="212.5,-301.5 212.5,-319.5 270.5,-319.5 270.5,-301.5 212.5,-301.5"/>
<text text-anchor="middle" x="241.5" y="-308.3" font-family="Calibri" font-size="9.00">show_pwr</text>
</a>
</g>
</g>
<!-- Node10&#45;&gt;Node23 -->
<g id="edge35" class="edge"><title>Node10&#45;&gt;Node23</title>
<path fill="none" stroke="midnightblue" d="M149.309,-165.604C155.388,-188.166 173.64,-247.651 206,-286.5 208.656,-289.689 211.835,-292.645 215.173,-295.315"/>
<polygon fill="midnightblue" stroke="midnightblue" points="213.421,-298.365 223.592,-301.331 217.49,-292.669 213.421,-298.365"/>
</g>
<!-- Node12&#45;&gt;Node4 -->
<g id="edge17" class="edge"><title>Node12&#45;&gt;Node4</title>
<path fill="none" stroke="midnightblue" d="M568.675,-205.551C582.147,-210.21 598.779,-215.961 613.447,-221.033"/>
<polygon fill="midnightblue" stroke="midnightblue" points="612.629,-224.454 623.224,-224.414 614.917,-217.838 612.629,-224.454"/>
</g>
<!-- Node13 -->
<g id="node13" class="node"><title>Node13</title>
<g id="a_node13"><a xlink:href="oled__control_8c.html#a78a346ba6e89c3140dd554a46e56c719" target="_top" xlink:title=" ">
<polygon fill="none" stroke="black" points="610,-187.5 610,-205.5 691,-205.5 691,-187.5 610,-187.5"/>
<text text-anchor="middle" x="650.5" y="-194.3" font-family="Calibri" font-size="9.00">send_command</text>
</a>
</g>
</g>
<!-- Node12&#45;&gt;Node13 -->
<g id="edge18" class="edge"><title>Node12&#45;&gt;Node13</title>
<path fill="none" stroke="midnightblue" d="M572.59,-196.5C580.944,-196.5 590.245,-196.5 599.413,-196.5"/>
<polygon fill="midnightblue" stroke="midnightblue" points="599.649,-200 609.649,-196.5 599.649,-193 599.649,-200"/>
</g>
<!-- Node13&#45;&gt;Node5 -->
<g id="edge19" class="edge"><title>Node13&#45;&gt;Node5</title>
<path fill="none" stroke="midnightblue" d="M676.391,-205.591C681.496,-208.057 686.637,-211.027 691,-214.5 711.585,-230.889 709.792,-241.595 727,-261.5 733.406,-268.91 740.877,-276.723 747.421,-283.325"/>
<polygon fill="midnightblue" stroke="midnightblue" points="745,-285.853 754.559,-290.421 749.935,-280.889 745,-285.853"/>
</g>
<!-- Node13&#45;&gt;Node6 -->
<g id="edge20" class="edge"><title>Node13&#45;&gt;Node6</title>
<path fill="none" stroke="midnightblue" d="M691.163,-196.5C700.172,-196.5 709.804,-196.5 719.016,-196.5"/>
<polygon fill="midnightblue" stroke="midnightblue" points="719.182,-200 729.182,-196.5 719.182,-193 719.182,-200"/>
</g>
<!-- Node13&#45;&gt;Node7 -->
<g id="edge21" class="edge"><title>Node13&#45;&gt;Node7</title>
<path fill="none" stroke="midnightblue" d="M673.191,-205.562C690.155,-212.649 713.966,-222.597 732.95,-230.528"/>
<polygon fill="midnightblue" stroke="midnightblue" points="731.799,-233.84 742.375,-234.466 734.498,-227.381 731.799,-233.84"/>
</g>
<!-- Node15 -->
<g id="node15" class="node"><title>Node15</title>
<g id="a_node15"><a xlink:href="main_8h.html#ab19e6e081315a9a200394b74d10de395" target="_top" xlink:title=" ">
<polygon fill="none" stroke="black" points="317,-151.5 317,-169.5 374,-169.5 374,-151.5 317,-151.5"/>
<text text-anchor="middle" x="345.5" y="-158.3" font-family="Calibri" font-size="9.00">correction</text>
</a>
</g>
</g>
<!-- Node14&#45;&gt;Node15 -->
<g id="edge23" class="edge"><title>Node14&#45;&gt;Node15</title>
<path fill="none" stroke="midnightblue" d="M266.157,-159.732C278.257,-159.851 293.271,-159.998 306.909,-160.131"/>
<polygon fill="midnightblue" stroke="midnightblue" points="306.964,-163.632 316.998,-160.23 307.033,-156.632 306.964,-163.632"/>
</g>
<!-- Node16 -->
<g id="node16" class="node"><title>Node16</title>
<g id="a_node16"><a xlink:href="main_8h.html#acfd46f8711e9c1c20fffdfc8bdaa0ddd" target="_top" xlink:title=" ">
<polygon fill="none" stroke="black" points="313,-114.5 313,-132.5 378,-132.5 378,-114.5 313,-114.5"/>
<text text-anchor="middle" x="345.5" y="-121.3" font-family="Calibri" font-size="9.00">get_forward</text>
</a>
</g>
</g>
<!-- Node14&#45;&gt;Node16 -->
<g id="edge24" class="edge"><title>Node14&#45;&gt;Node16</title>
<path fill="none" stroke="midnightblue" d="M266.157,-151.15C278.972,-146.627 295.057,-140.95 309.313,-135.919"/>
<polygon fill="midnightblue" stroke="midnightblue" points="310.562,-139.19 318.827,-132.561 308.232,-132.589 310.562,-139.19"/>
</g>
<!-- Node17 -->
<g id="node17" class="node"><title>Node17</title>
<g id="a_node17"><a xlink:href="main_8h.html#aa6b9a2b3d88f578ba6a9fefd911eae75" target="_top" xlink:title=" ">
<polygon fill="none" stroke="black" points="313.5,-188.5 313.5,-206.5 377.5,-206.5 377.5,-188.5 313.5,-188.5"/>
<text text-anchor="middle" x="345.5" y="-195.3" font-family="Calibri" font-size="9.00">get_reverse</text>
</a>
</g>
</g>
<!-- Node14&#45;&gt;Node17 -->
<g id="edge25" class="edge"><title>Node14&#45;&gt;Node17</title>
<path fill="none" stroke="midnightblue" d="M266.157,-168.313C279.355,-173.23 296.02,-179.439 310.584,-184.865"/>
<polygon fill="midnightblue" stroke="midnightblue" points="309.67,-188.259 320.263,-188.47 312.114,-181.699 309.67,-188.259"/>
</g>
<!-- Node18&#45;&gt;Node3 -->
<g id="edge27" class="edge"><title>Node18&#45;&gt;Node3</title>
<path fill="none" stroke="midnightblue" d="M361.924,-243.658C377.179,-252.716 400.747,-266.709 418.46,-277.226"/>
<polygon fill="midnightblue" stroke="midnightblue" points="416.729,-280.269 427.114,-282.365 420.303,-274.25 416.729,-280.269"/>
</g>
<!-- Node20 -->
<g id="node20" class="node"><title>Node20</title>
<g id="a_node20"><a xlink:href="main_8h.html#a85fb3ccca120f3b843a1dc7567908a04" target="_top" xlink:title=" ">
<polygon fill="none" stroke="black" points="317.5,-37.5 317.5,-55.5 373.5,-55.5 373.5,-37.5 317.5,-37.5"/>
<text text-anchor="middle" x="345.5" y="-44.3" font-family="Calibri" font-size="9.00">delay_ms</text>
</a>
</g>
</g>
<!-- Node19&#45;&gt;Node20 -->
<g id="edge30" class="edge"><title>Node19&#45;&gt;Node20</title>
<path fill="none" stroke="midnightblue" d="M265.645,-17.8959C278.731,-22.6425 295.345,-28.6694 309.946,-33.9657"/>
<polygon fill="midnightblue" stroke="midnightblue" points="309.07,-37.3711 319.664,-37.4909 311.457,-30.7906 309.07,-37.3711"/>
</g>
<!-- Node21&#45;&gt;Node20 -->
<g id="edge32" class="edge"><title>Node21&#45;&gt;Node20</title>
<path fill="none" stroke="midnightblue" d="M265.137,-75.2885C278.203,-70.5488 294.911,-64.488 309.624,-59.1511"/>
<polygon fill="midnightblue" stroke="midnightblue" points="311.214,-62.2974 319.421,-55.5971 308.827,-55.717 311.214,-62.2974"/>
</g>
<!-- Node22&#45;&gt;Node20 -->
<g id="edge34" class="edge"><title>Node22&#45;&gt;Node20</title>
<path fill="none" stroke="midnightblue" d="M264.132,-46.5C276.649,-46.5 292.746,-46.5 307.243,-46.5"/>
<polygon fill="midnightblue" stroke="midnightblue" points="307.442,-50.0001 317.442,-46.5 307.442,-43.0001 307.442,-50.0001"/>
</g>
<!-- Node23&#45;&gt;Node2 -->
<g id="edge36" class="edge"><title>Node23&#45;&gt;Node2</title>
<path fill="none" stroke="midnightblue" d="M266.673,-319.505C280.266,-324.57 297.415,-330.959 312.153,-336.449"/>
<polygon fill="midnightblue" stroke="midnightblue" points="311.306,-339.868 321.898,-340.08 313.75,-333.309 311.306,-339.868"/>
</g>
<!-- Node23&#45;&gt;Node3 -->
<g id="edge37" class="edge"><title>Node23&#45;&gt;Node3</title>
<path fill="none" stroke="midnightblue" d="M270.731,-307.818C305.376,-304.527 364.311,-298.928 403.326,-295.222"/>
<polygon fill="midnightblue" stroke="midnightblue" points="404.141,-298.66 413.765,-294.23 403.479,-291.691 404.141,-298.66"/>
</g>
</g>
</svg>
        <g id="navigator" transform="translate(0 0)" fill="#404254">
                <rect fill="#f2f5e9" fill-opacity="0.5" stroke="#606060" stroke-width=".5" x="0" y="0" width="60" height="60"/>
                <use id="zoomplus" xlink:href="#zoomPlus" x="17" y="9" onmousedown="handleZoom(evt,'in')"/>
                <use id="zoomminus" xlink:href="#zoomMin" x="42" y="9" onmousedown="handleZoom(evt,'out')"/>
                <use id="reset" xlink:href="#resetDef" x="30" y="36" onmousedown="handleReset()"/>
                <g id="arrowUp" xlink:href="#dirArrow" transform="translate(30 24)" onmousedown="handlePan(0,-1)">
                  <use xlink:href="#rim" fill="#404040">
                        <set attributeName="fill" to="#808080" begin="arrowUp.mouseover" end="arrowUp.mouseout"/>
                  </use>
                  <path fill="none" stroke="white" stroke-width="1.5" d="M0,-3.0v7 M-2.5,-0.5L0,-3.0L2.5,-0.5"/>
                </g>
                <g id="arrowRight" xlink:href="#dirArrow" transform="rotate(90) translate(36 -43)" onmousedown="handlePan(1,0)">
                  <use xlink:href="#rim" fill="#404040">
                        <set attributeName="fill" to="#808080" begin="arrowRight.mouseover" end="arrowRight.mouseout"/>
                  </use>
                  <path fill="none" stroke="white" stroke-width="1.5" d="M0,-3.0v7 M-2.5,-0.5L0,-3.0L2.5,-0.5"/>
                </g>
                <g id="arrowDown" xlink:href="#dirArrow" transform="rotate(180) translate(-30 -48)" onmousedown="handlePan(0,1)">
                  <use xlink:href="#rim" fill="#404040">
                        <set attributeName="fill" to="#808080" begin="arrowDown.mouseover" end="arrowDown.mouseout"/>
                  </use>
                  <path fill="none" stroke="white" stroke-width="1.5" d="M0,-3.0v7 M-2.5,-0.5L0,-3.0L2.5,-0.5"/>
                </g>
                <g id="arrowLeft" xlink:href="#dirArrow" transform="rotate(270) translate(-36 17)" onmousedown="handlePan(-1,0)">
                  <use xlink:href="#rim" fill="#404040">
                        <set attributeName="fill" to="#808080" begin="arrowLeft.mouseover" end="arrowLeft.mouseout"/>
                  </use>
                  <path fill="none" stroke="white" stroke-width="1.5" d="M0,-3.0v7 M-2.5,-0.5L0,-3.0L2.5,-0.5"/>
                </g>
        </g>
        <svg viewBox="0 0 15 15" width="100%" height="30px" preserveAspectRatio="xMaxYMin meet">
         <g id="arrow_out" transform="scale(0.3 0.3)">
          <a xlink:href="main_8c_ac445892220ccb3b4b337dd3e764bd6c6_cgraph_org.svg" target="_base">
           <rect id="button" ry="5" rx="5" y="6" x="6" height="38" width="38"
                fill="#f2f5e9" fill-opacity="0.5" stroke="#606060" stroke-width="1.0"/>
           <path id="arrow"
             d="M 11.500037,31.436501 C 11.940474,20.09759 22.043105,11.32322 32.158766,21.979434 L 37.068811,17.246167 C 37.068811,17.246167 37.088388,32 37.088388,32 L 22.160133,31.978069 C 22.160133,31.978069 26.997745,27.140456 26.997745,27.140456 C 18.528582,18.264221 13.291696,25.230495 11.500037,31.436501 z"
             style="fill:#404040;"/>
          </a>
         </g>
        </svg>
</svg>
