<?xml version="1.0" encoding="UTF-8" standalone="no"?>
<!DOCTYPE svg PUBLIC "-//W3C//DTD SVG 1.1//EN"
 "http://www.w3.org/Graphics/SVG/1.1/DTD/svg11.dtd">
<!-- Generated by graphviz version 2.38.0 (20140413.2041)
 -->
<!-- Title: sharp_cap Pages: 1 -->
<svg width="679pt" height="383pt"
 viewBox="0.00 0.00 679.00 382.70" xmlns="http://www.w3.org/2000/svg" xmlns:xlink="http://www.w3.org/1999/xlink">
<g id="graph0" class="graph" transform="scale(1 1) rotate(0) translate(4 378.704)">
<title>sharp_cap</title>
<!-- Node1 -->
<g id="node1" class="node"><title>Node1</title>
<g id="a_node1"><a xlink:title=" ">
<polygon fill="#bfbfbf" stroke="black" points="0,-219.204 0,-237.204 59,-237.204 59,-219.204 0,-219.204"/>
<text text-anchor="middle" x="29.5" y="-226.004" font-family="Calibri" font-size="9.00">sharp_cap</text>
</a>
</g>
</g>
<!-- Node2 -->
<g id="node2" class="node"><title>Node2</title>
<g id="a_node2"><a xlink:href="main_8h.html#ad7eb7423e0b17ccfba1ae42f3a3274e0" target="_top" xlink:title=" ">
<polygon fill="none" stroke="black" points="95,-50.2043 95,-68.2043 143,-68.2043 143,-50.2043 95,-50.2043"/>
<text text-anchor="middle" x="119" y="-57.0043" font-family="Calibri" font-size="9.00">get_swr</text>
</a>
</g>
</g>
<!-- Node1&#45;&gt;Node2 -->
<g id="edge1" class="edge"><title>Node1&#45;&gt;Node2</title>
<path fill="none" stroke="midnightblue" d="M35.2044,-219.118C49.0916,-192.296 90.0964,-113.098 108.67,-77.225"/>
<polygon fill="midnightblue" stroke="midnightblue" points="111.783,-78.825 113.272,-68.3354 105.566,-75.6065 111.783,-78.825"/>
</g>
<!-- Node12 -->
<g id="node12" class="node"><title>Node12</title>
<g id="a_node12"><a xlink:href="main_8h.html#a2a7963b9b09696c6654b96c67900c6ea" target="_top" xlink:title=" ">
<polygon fill="none" stroke="black" points="382.5,-356.204 382.5,-374.204 430.5,-374.204 430.5,-356.204 382.5,-356.204"/>
<text text-anchor="middle" x="406.5" y="-363.004" font-family="Calibri" font-size="9.00">set_cap</text>
</a>
</g>
</g>
<!-- Node1&#45;&gt;Node12 -->
<g id="edge36" class="edge"><title>Node1&#45;&gt;Node12</title>
<path fill="none" stroke="midnightblue" d="M45.8645,-237.348C83.9306,-259.57 186.25,-316.674 279,-345.204 309.819,-354.685 346.316,-359.842 372.167,-362.532"/>
<polygon fill="midnightblue" stroke="midnightblue" points="371.912,-366.024 382.203,-363.508 372.589,-359.057 371.912,-366.024"/>
</g>
<!-- Node3 -->
<g id="node3" class="node"><title>Node3</title>
<g id="a_node3"><a xlink:href="main_8h.html#ab37ca657b79c6b9176cb63e9d812a182" target="_top" xlink:title=" ">
<polygon fill="none" stroke="black" points="382,-93.2043 382,-111.204 431,-111.204 431,-93.2043 382,-93.2043"/>
<text text-anchor="middle" x="406.5" y="-100.004" font-family="Calibri" font-size="9.00">get_pwr</text>
</a>
</g>
</g>
<!-- Node2&#45;&gt;Node3 -->
<g id="edge2" class="edge"><title>Node2&#45;&gt;Node3</title>
<path fill="none" stroke="midnightblue" d="M143.169,-61.6852C167.928,-64.4169 208.308,-69.1032 243,-74.2043 287.725,-80.7806 339.103,-89.8975 371.909,-95.9186"/>
<polygon fill="midnightblue" stroke="midnightblue" points="371.407,-99.3849 381.876,-97.7575 372.677,-92.5011 371.407,-99.3849"/>
</g>
<!-- Node7 -->
<g id="node7" class="node"><title>Node7</title>
<g id="a_node7"><a xlink:href="main_8c.html#a4ae0d4fa97fc0ca3611813fee4f9af7c" target="_top" xlink:title=" ">
<polygon fill="none" stroke="black" points="377.5,-17.2043 377.5,-35.2043 435.5,-35.2043 435.5,-17.2043 377.5,-17.2043"/>
<text text-anchor="middle" x="406.5" y="-24.0043" font-family="Calibri" font-size="9.00">show_pwr</text>
</a>
</g>
</g>
<!-- Node2&#45;&gt;Node7 -->
<g id="edge6" class="edge"><title>Node2&#45;&gt;Node7</title>
<path fill="none" stroke="midnightblue" d="M127.661,-50.1417C137.964,-38.7348 157.49,-19.7246 179,-12.2043 242.273,9.91724 321.484,-3.5477 367.503,-15.0693"/>
<polygon fill="midnightblue" stroke="midnightblue" points="366.794,-18.5013 377.353,-17.6338 368.558,-11.7272 366.794,-18.5013"/>
</g>
<!-- Node10 -->
<g id="node10" class="node"><title>Node10</title>
<g id="a_node10"><a xlink:href="main_8c.html#a11724d8cce81ed96bec12a004ea3ea7a" target="_top" xlink:title=" ">
<polygon fill="none" stroke="black" points="179,-84.2043 179,-102.204 243,-102.204 243,-84.2043 179,-84.2043"/>
<text text-anchor="middle" x="211" y="-91.0043" font-family="Calibri" font-size="9.00">show_reset</text>
</a>
</g>
</g>
<!-- Node2&#45;&gt;Node10 -->
<g id="edge10" class="edge"><title>Node2&#45;&gt;Node10</title>
<path fill="none" stroke="midnightblue" d="M143.177,-67.9601C153.328,-71.7951 165.435,-76.3685 176.536,-80.5624"/>
<polygon fill="midnightblue" stroke="midnightblue" points="175.368,-83.8623 185.959,-84.1222 177.841,-77.314 175.368,-83.8623"/>
</g>
<!-- Node4 -->
<g id="node4" class="node"><title>Node4</title>
<g id="a_node4"><a xlink:href="main_8h.html#ab19e6e081315a9a200394b74d10de395" target="_top" xlink:title=" ">
<polygon fill="none" stroke="black" points="490,-166.204 490,-184.204 547,-184.204 547,-166.204 490,-166.204"/>
<text text-anchor="middle" x="518.5" y="-173.004" font-family="Calibri" font-size="9.00">correction</text>
</a>
</g>
</g>
<!-- Node3&#45;&gt;Node4 -->
<g id="edge3" class="edge"><title>Node3&#45;&gt;Node4</title>
<path fill="none" stroke="midnightblue" d="M427.459,-111.304C432.389,-113.902 437.534,-116.927 442,-120.204 460.242,-133.593 459.543,-143.115 478,-156.204 480.526,-157.995 483.246,-159.697 486.036,-161.293"/>
<polygon fill="midnightblue" stroke="midnightblue" points="484.547,-164.464 495.029,-166.007 487.797,-158.264 484.547,-164.464"/>
</g>
<!-- Node5 -->
<g id="node5" class="node"><title>Node5</title>
<g id="a_node5"><a xlink:href="main_8h.html#acfd46f8711e9c1c20fffdfc8bdaa0ddd" target="_top" xlink:title=" ">
<polygon fill="none" stroke="black" points="486,-129.204 486,-147.204 551,-147.204 551,-129.204 486,-129.204"/>
<text text-anchor="middle" x="518.5" y="-136.004" font-family="Calibri" font-size="9.00">get_forward</text>
</a>
</g>
</g>
<!-- Node3&#45;&gt;Node5 -->
<g id="edge4" class="edge"><title>Node3&#45;&gt;Node5</title>
<path fill="none" stroke="midnightblue" d="M431.098,-109.927C445.317,-114.581 463.748,-120.613 479.933,-125.91"/>
<polygon fill="midnightblue" stroke="midnightblue" points="479.07,-129.31 489.662,-129.094 481.247,-122.657 479.07,-129.31"/>
</g>
<!-- Node6 -->
<g id="node6" class="node"><title>Node6</title>
<g id="a_node6"><a xlink:href="main_8h.html#aa6b9a2b3d88f578ba6a9fefd911eae75" target="_top" xlink:title=" ">
<polygon fill="none" stroke="black" points="486.5,-92.2043 486.5,-110.204 550.5,-110.204 550.5,-92.2043 486.5,-92.2043"/>
<text text-anchor="middle" x="518.5" y="-99.0043" font-family="Calibri" font-size="9.00">get_reverse</text>
</a>
</g>
</g>
<!-- Node3&#45;&gt;Node6 -->
<g id="edge5" class="edge"><title>Node3&#45;&gt;Node6</title>
<path fill="none" stroke="midnightblue" d="M431.098,-101.99C444.228,-101.87 460.95,-101.718 476.178,-101.58"/>
<polygon fill="midnightblue" stroke="midnightblue" points="476.452,-105.078 486.419,-101.487 476.388,-98.078 476.452,-105.078"/>
</g>
<!-- Node8 -->
<g id="node8" class="node"><title>Node8</title>
<g id="a_node8"><a xlink:href="main_8c.html#a6911b3f075cdf1d54cb14f17f6e5ef6b" target="_top" xlink:title=" ">
<polygon fill="none" stroke="black" points="495,-55.2043 495,-73.2043 542,-73.2043 542,-55.2043 495,-55.2043"/>
<text text-anchor="middle" x="518.5" y="-62.0043" font-family="Calibri" font-size="9.00">lcd_ind</text>
</a>
</g>
</g>
<!-- Node7&#45;&gt;Node8 -->
<g id="edge7" class="edge"><title>Node7&#45;&gt;Node8</title>
<path fill="none" stroke="midnightblue" d="M433.568,-35.2098C449.037,-40.5533 468.773,-47.3712 485.22,-53.053"/>
<polygon fill="midnightblue" stroke="midnightblue" points="484.373,-56.4635 494.968,-56.4206 486.659,-49.8471 484.373,-56.4635"/>
</g>
<!-- Node9 -->
<g id="node9" class="node"><title>Node9</title>
<g id="a_node9"><a xlink:href="oled__control_8h.html#ab272af1010175ba1166b08b8b3df6874" target="_top" xlink:title=" ">
<polygon fill="none" stroke="black" points="603.5,-55.2043 603.5,-73.2043 662.5,-73.2043 662.5,-55.2043 603.5,-55.2043"/>
<text text-anchor="middle" x="633" y="-62.0043" font-family="Calibri" font-size="9.00">led_wr_str</text>
</a>
</g>
</g>
<!-- Node7&#45;&gt;Node9 -->
<g id="edge9" class="edge"><title>Node7&#45;&gt;Node9</title>
<path fill="none" stroke="midnightblue" d="M435.594,-28.6261C466.138,-31.5149 516.306,-37.0071 559,-45.2043 570.324,-47.3785 582.493,-50.3046 593.588,-53.2083"/>
<polygon fill="midnightblue" stroke="midnightblue" points="592.853,-56.635 603.419,-55.8464 594.668,-49.8742 592.853,-56.635"/>
</g>
<!-- Node8&#45;&gt;Node9 -->
<g id="edge8" class="edge"><title>Node8&#45;&gt;Node9</title>
<path fill="none" stroke="midnightblue" d="M542.266,-64.2043C556.835,-64.2043 576.114,-64.2043 593.068,-64.2043"/>
<polygon fill="midnightblue" stroke="midnightblue" points="593.261,-67.7044 603.261,-64.2043 593.261,-60.7044 593.261,-67.7044"/>
</g>
<!-- Node10&#45;&gt;Node8 -->
<g id="edge14" class="edge"><title>Node10&#45;&gt;Node8</title>
<path fill="none" stroke="midnightblue" d="M243.258,-90.2371C301.239,-84.7331 424.942,-72.9905 484.333,-67.3527"/>
<polygon fill="midnightblue" stroke="midnightblue" points="485.019,-70.8034 494.644,-66.374 484.358,-63.8347 485.019,-70.8034"/>
</g>
<!-- Node10&#45;&gt;Node9 -->
<g id="edge34" class="edge"><title>Node10&#45;&gt;Node9</title>
<path fill="none" stroke="midnightblue" d="M223.893,-84.0233C249.217,-65.1242 311.065,-22.3747 371,-7.20429 456.423,14.4174 558.804,-27.4468 605.926,-50.4752"/>
<polygon fill="midnightblue" stroke="midnightblue" points="604.607,-53.729 615.116,-55.0737 607.739,-47.4689 604.607,-53.729"/>
</g>
<!-- Node11 -->
<g id="node11" class="node"><title>Node11</title>
<g id="a_node11"><a xlink:href="main_8h.html#a9dff326a6079fe726285b11ee837ad60" target="_top" xlink:title=" ">
<polygon fill="none" stroke="black" points="279,-318.204 279,-336.204 335,-336.204 335,-318.204 279,-318.204"/>
<text text-anchor="middle" x="307" y="-325.004" font-family="Calibri" font-size="9.00">atu_reset</text>
</a>
</g>
</g>
<!-- Node10&#45;&gt;Node11 -->
<g id="edge11" class="edge"><title>Node10&#45;&gt;Node11</title>
<path fill="none" stroke="midnightblue" d="M215.685,-102.377C229.665,-137.178 279.593,-261.467 298.59,-308.758"/>
<polygon fill="midnightblue" stroke="midnightblue" points="295.365,-310.12 302.341,-318.095 301.861,-307.511 295.365,-310.12"/>
</g>
<!-- Node14 -->
<g id="node14" class="node"><title>Node14</title>
<g id="a_node14"><a xlink:href="main_8c.html#ae5a14b4884e85f47ad8a4a716f13203a" target="_top" xlink:title=" ">
<polygon fill="none" stroke="black" points="283,-187.204 283,-205.204 331,-205.204 331,-187.204 283,-187.204"/>
<text text-anchor="middle" x="307" y="-194.004" font-family="Calibri" font-size="9.00">lcd_pwr</text>
</a>
</g>
</g>
<!-- Node10&#45;&gt;Node14 -->
<g id="edge15" class="edge"><title>Node10&#45;&gt;Node14</title>
<path fill="none" stroke="midnightblue" d="M220.342,-102.345C236.119,-119.633 270.545,-157.355 290.62,-179.351"/>
<polygon fill="midnightblue" stroke="midnightblue" points="288.215,-181.909 297.542,-186.936 293.386,-177.19 288.215,-181.909"/>
</g>
<!-- Node23 -->
<g id="node23" class="node"><title>Node23</title>
<g id="a_node23"><a xlink:href="main_8h.html#ae0c1e0ec712704e43db40473f103d621" target="_top" xlink:title="Set the state of the switch.">
<polygon fill="none" stroke="black" points="384,-130.204 384,-148.204 429,-148.204 429,-130.204 384,-130.204"/>
<text text-anchor="middle" x="406.5" y="-137.004" font-family="Calibri" font-size="9.00">set_sw</text>
</a>
</g>
</g>
<!-- Node10&#45;&gt;Node23 -->
<g id="edge35" class="edge"><title>Node10&#45;&gt;Node23</title>
<path fill="none" stroke="midnightblue" d="M243.089,-100.595C278.968,-109.124 337.659,-123.077 373.796,-131.667"/>
<polygon fill="midnightblue" stroke="midnightblue" points="373.256,-135.137 383.795,-134.044 374.875,-128.326 373.256,-135.137"/>
</g>
<!-- Node11&#45;&gt;Node12 -->
<g id="edge12" class="edge"><title>Node11&#45;&gt;Node12</title>
<path fill="none" stroke="midnightblue" d="M331.106,-336.21C343.522,-341.049 359.041,-347.097 372.687,-352.416"/>
<polygon fill="midnightblue" stroke="midnightblue" points="371.633,-355.761 382.222,-356.132 374.175,-349.239 371.633,-355.761"/>
</g>
<!-- Node13 -->
<g id="node13" class="node"><title>Node13</title>
<g id="a_node13"><a xlink:href="main_8h.html#aecc83cd8bceb4bc24be844732ead2c2c" target="_top" xlink:title=" ">
<polygon fill="none" stroke="black" points="383,-319.204 383,-337.204 430,-337.204 430,-319.204 383,-319.204"/>
<text text-anchor="middle" x="406.5" y="-326.004" font-family="Calibri" font-size="9.00">set_ind</text>
</a>
</g>
</g>
<!-- Node11&#45;&gt;Node13 -->
<g id="edge13" class="edge"><title>Node11&#45;&gt;Node13</title>
<path fill="none" stroke="midnightblue" d="M335.159,-327.483C346.752,-327.602 360.385,-327.742 372.548,-327.866"/>
<polygon fill="midnightblue" stroke="midnightblue" points="372.734,-331.368 382.769,-327.971 372.806,-324.369 372.734,-331.368"/>
</g>
<!-- Node14&#45;&gt;Node3 -->
<g id="edge26" class="edge"><title>Node14&#45;&gt;Node3</title>
<path fill="none" stroke="midnightblue" d="M313.994,-186.759C324.185,-171.283 346.208,-140.243 371,-120.204 372.576,-118.93 374.257,-117.708 375.996,-116.542"/>
<polygon fill="midnightblue" stroke="midnightblue" points="378.154,-119.33 384.962,-111.212 374.577,-113.313 378.154,-119.33"/>
</g>
<!-- Node14&#45;&gt;Node7 -->
<g id="edge33" class="edge"><title>Node14&#45;&gt;Node7</title>
<path fill="none" stroke="midnightblue" d="M312.954,-187.061C323.445,-167.755 348.767,-121.461 371,-83.2043 378.642,-70.0544 387.535,-55.376 394.378,-44.2081"/>
<polygon fill="midnightblue" stroke="midnightblue" points="397.523,-45.7756 399.781,-35.4242 391.56,-42.1082 397.523,-45.7756"/>
</g>
<!-- Node14&#45;&gt;Node9 -->
<g id="edge29" class="edge"><title>Node14&#45;&gt;Node9</title>
<path fill="none" stroke="midnightblue" d="M319.224,-205.326C331.21,-214.428 351.171,-227.812 371,-233.204 397.515,-240.415 548.455,-237.281 559,-230.204 609.244,-196.485 625.192,-119.828 630.02,-83.7136"/>
<polygon fill="midnightblue" stroke="midnightblue" points="633.527,-83.8604 631.226,-73.5184 626.575,-83.0379 633.527,-83.8604"/>
</g>
<!-- Node14&#45;&gt;Node12 -->
<g id="edge30" class="edge"><title>Node14&#45;&gt;Node12</title>
<path fill="none" stroke="midnightblue" d="M309.67,-205.44C314.677,-230.801 331.711,-302.524 371,-346.204 372.338,-347.691 373.82,-349.087 375.396,-350.392"/>
<polygon fill="midnightblue" stroke="midnightblue" points="373.603,-353.405 383.83,-356.172 377.56,-347.632 373.603,-353.405"/>
</g>
<!-- Node14&#45;&gt;Node13 -->
<g id="edge31" class="edge"><title>Node14&#45;&gt;Node13</title>
<path fill="none" stroke="midnightblue" d="M311.153,-205.512C318.615,-226.374 339.153,-277.522 371,-309.204 372.454,-310.651 374.042,-312.02 375.711,-313.309"/>
<polygon fill="midnightblue" stroke="midnightblue" points="374.221,-316.517 384.501,-319.082 378.064,-310.666 374.221,-316.517"/>
</g>
<!-- Node15 -->
<g id="node15" class="node"><title>Node15</title>
<g id="a_node15"><a xlink:href="main_8c.html#a593218c5fe00b499d494826fc0aa5279" target="_top" xlink:title=" ">
<polygon fill="none" stroke="black" points="371,-206.204 371,-224.204 442,-224.204 442,-206.204 371,-206.204"/>
<text text-anchor="middle" x="406.5" y="-213.004" font-family="Calibri" font-size="9.00">button_delay</text>
</a>
</g>
</g>
<!-- Node14&#45;&gt;Node15 -->
<g id="edge16" class="edge"><title>Node14&#45;&gt;Node15</title>
<path fill="none" stroke="midnightblue" d="M331.106,-200.707C339.975,-202.435 350.428,-204.472 360.65,-206.464"/>
<polygon fill="midnightblue" stroke="midnightblue" points="360.243,-209.951 370.728,-208.428 361.582,-203.08 360.243,-209.951"/>
</g>
<!-- Node16 -->
<g id="node16" class="node"><title>Node16</title>
<g id="a_node16"><a xlink:href="oled__control_8c.html#a5febfdc847aa6f3bc3f3c8f7818b8699" target="_top" xlink:title=" ">
<polygon fill="none" stroke="black" points="375.5,-282.204 375.5,-300.204 437.5,-300.204 437.5,-282.204 375.5,-282.204"/>
<text text-anchor="middle" x="406.5" y="-289.004" font-family="Calibri" font-size="9.00">display_on</text>
</a>
</g>
</g>
<!-- Node14&#45;&gt;Node16 -->
<g id="edge17" class="edge"><title>Node14&#45;&gt;Node16</title>
<path fill="none" stroke="midnightblue" d="M315.129,-205.579C326.196,-219.802 348.579,-247.284 371,-267.204 374.532,-270.342 378.484,-273.428 382.418,-276.288"/>
<polygon fill="midnightblue" stroke="midnightblue" points="380.618,-279.299 390.831,-282.118 384.606,-273.545 380.618,-279.299"/>
</g>
<!-- Node22 -->
<g id="node22" class="node"><title>Node22</title>
<g id="a_node22"><a xlink:href="main_8c.html#aa8fd50019a763561abc6621bb224417f" target="_top" xlink:title=" ">
<polygon fill="none" stroke="black" points="495,-203.204 495,-221.204 542,-221.204 542,-203.204 495,-203.204"/>
<text text-anchor="middle" x="518.5" y="-210.004" font-family="Calibri" font-size="9.00">lcd_swr</text>
</a>
</g>
</g>
<!-- Node14&#45;&gt;Node22 -->
<g id="edge27" class="edge"><title>Node14&#45;&gt;Node22</title>
<path fill="none" stroke="midnightblue" d="M331.316,-194.736C358.11,-193.389 403.361,-192.155 442,-196.204 456.195,-197.692 471.649,-200.712 484.857,-203.731"/>
<polygon fill="midnightblue" stroke="midnightblue" points="484.362,-207.211 494.901,-206.123 485.984,-200.402 484.362,-207.211"/>
</g>
<!-- Node14&#45;&gt;Node23 -->
<g id="edge32" class="edge"><title>Node14&#45;&gt;Node23</title>
<path fill="none" stroke="midnightblue" d="M323.665,-187.046C339.159,-177.988 363.095,-163.995 381.085,-153.478"/>
<polygon fill="midnightblue" stroke="midnightblue" points="383.007,-156.408 389.874,-148.34 379.474,-150.365 383.007,-156.408"/>
</g>
<!-- Node17 -->
<g id="node17" class="node"><title>Node17</title>
<g id="a_node17"><a xlink:href="oled__control_8c.html#a5a5d7ef6b1877aaf94c1f4b7fc0f2d2d" target="_top" xlink:title=" ">
<polygon fill="none" stroke="black" points="491,-319.204 491,-337.204 546,-337.204 546,-319.204 491,-319.204"/>
<text text-anchor="middle" x="518.5" y="-326.004" font-family="Calibri" font-size="9.00">led_send</text>
</a>
</g>
</g>
<!-- Node16&#45;&gt;Node17 -->
<g id="edge18" class="edge"><title>Node16&#45;&gt;Node17</title>
<path fill="none" stroke="midnightblue" d="M434.409,-300.256C448.496,-304.994 465.945,-310.863 481.21,-315.998"/>
<polygon fill="midnightblue" stroke="midnightblue" points="480.275,-319.376 490.869,-319.247 482.506,-312.741 480.275,-319.376"/>
</g>
<!-- Node21 -->
<g id="node21" class="node"><title>Node21</title>
<g id="a_node21"><a xlink:href="oled__control_8c.html#ad141ed038278a6fcad6c307932f01ec8" target="_top" xlink:title=" ">
<polygon fill="none" stroke="black" points="478,-282.204 478,-300.204 559,-300.204 559,-282.204 478,-282.204"/>
<text text-anchor="middle" x="518.5" y="-289.004" font-family="Calibri" font-size="9.00">send_command</text>
</a>
</g>
</g>
<!-- Node16&#45;&gt;Node21 -->
<g id="edge22" class="edge"><title>Node16&#45;&gt;Node21</title>
<path fill="none" stroke="midnightblue" d="M437.558,-291.204C446.909,-291.204 457.48,-291.204 467.8,-291.204"/>
<polygon fill="midnightblue" stroke="midnightblue" points="467.982,-294.704 477.982,-291.204 467.982,-287.704 467.982,-294.704"/>
</g>
<!-- Node18 -->
<g id="node18" class="node"><title>Node18</title>
<g id="a_node18"><a xlink:href="oled__control_8c.html#ab7f6b5c6c1483f6286f2de5786c028d9" target="_top" xlink:title=" ">
<polygon fill="none" stroke="black" points="597,-337.204 597,-355.204 669,-355.204 669,-337.204 597,-337.204"/>
<text text-anchor="middle" x="633" y="-344.004" font-family="Calibri" font-size="9.00">Soft_I2C_Start</text>
</a>
</g>
</g>
<!-- Node17&#45;&gt;Node18 -->
<g id="edge19" class="edge"><title>Node17&#45;&gt;Node18</title>
<path fill="none" stroke="midnightblue" d="M546.161,-332.47C558.173,-334.392 572.703,-336.717 586.365,-338.903"/>
<polygon fill="midnightblue" stroke="midnightblue" points="586.16,-342.414 596.588,-340.538 587.266,-335.502 586.16,-342.414"/>
</g>
<!-- Node19 -->
<g id="node19" class="node"><title>Node19</title>
<g id="a_node19"><a xlink:href="oled__control_8c.html#a16eb842aa672ca44820ae6d5f9933425" target="_top" xlink:title=" ">
<polygon fill="none" stroke="black" points="597.5,-300.204 597.5,-318.204 668.5,-318.204 668.5,-300.204 597.5,-300.204"/>
<text text-anchor="middle" x="633" y="-307.004" font-family="Calibri" font-size="9.00">Soft_I2C_Stop</text>
</a>
</g>
</g>
<!-- Node17&#45;&gt;Node19 -->
<g id="edge20" class="edge"><title>Node17&#45;&gt;Node19</title>
<path fill="none" stroke="midnightblue" d="M546.161,-323.702C558.5,-321.618 573.495,-319.085 587.478,-316.723"/>
<polygon fill="midnightblue" stroke="midnightblue" points="588.152,-320.159 597.429,-315.043 586.986,-313.257 588.152,-320.159"/>
</g>
<!-- Node20 -->
<g id="node20" class="node"><title>Node20</title>
<g id="a_node20"><a xlink:href="oled__control_8c.html#a73610916645f17c19124e697b005f694" target="_top" xlink:title=" ">
<polygon fill="none" stroke="black" points="595,-263.204 595,-281.204 671,-281.204 671,-263.204 595,-263.204"/>
<text text-anchor="middle" x="633" y="-270.004" font-family="Calibri" font-size="9.00">Soft_I2C_Write</text>
</a>
</g>
</g>
<!-- Node17&#45;&gt;Node20 -->
<g id="edge21" class="edge"><title>Node17&#45;&gt;Node20</title>
<path fill="none" stroke="midnightblue" d="M538.858,-319.07C545.291,-315.987 552.477,-312.493 559,-309.204 575.155,-301.06 578.863,-298.385 595,-290.204 597.931,-288.718 601.003,-287.185 604.071,-285.67"/>
<polygon fill="midnightblue" stroke="midnightblue" points="605.675,-288.782 613.118,-281.242 602.597,-282.495 605.675,-288.782"/>
</g>
<!-- Node21&#45;&gt;Node18 -->
<g id="edge23" class="edge"><title>Node21&#45;&gt;Node18</title>
<path fill="none" stroke="midnightblue" d="M540.077,-300.386C546.191,-303.167 552.888,-306.264 559,-309.204 567.805,-313.44 588.218,-323.803 605.226,-332.488"/>
<polygon fill="midnightblue" stroke="midnightblue" points="603.732,-335.655 614.229,-337.09 606.918,-329.422 603.732,-335.655"/>
</g>
<!-- Node21&#45;&gt;Node19 -->
<g id="edge24" class="edge"><title>Node21&#45;&gt;Node19</title>
<path fill="none" stroke="midnightblue" d="M559.163,-297.55C568.172,-298.992 577.804,-300.533 587.016,-302.007"/>
<polygon fill="midnightblue" stroke="midnightblue" points="586.755,-305.509 597.182,-303.633 587.861,-298.597 586.755,-305.509"/>
</g>
<!-- Node21&#45;&gt;Node20 -->
<g id="edge25" class="edge"><title>Node21&#45;&gt;Node20</title>
<path fill="none" stroke="midnightblue" d="M559.163,-284.506C567.53,-283.093 576.433,-281.589 585.039,-280.136"/>
<polygon fill="midnightblue" stroke="midnightblue" points="585.676,-283.577 594.954,-278.461 584.511,-276.675 585.676,-283.577"/>
</g>
<!-- Node22&#45;&gt;Node9 -->
<g id="edge28" class="edge"><title>Node22&#45;&gt;Node9</title>
<path fill="none" stroke="midnightblue" d="M542.299,-204.111C548.195,-201.286 554.221,-197.675 559,-193.204 593.009,-161.389 615.416,-110.087 625.629,-82.7505"/>
<polygon fill="midnightblue" stroke="midnightblue" points="628.961,-83.8272 629.049,-73.2327 622.373,-81.4595 628.961,-83.8272"/>
</g>
</g>
</svg>
