<?xml version="1.0" encoding="UTF-8" standalone="no"?>
<!DOCTYPE svg PUBLIC "-//W3C//DTD SVG 1.1//EN"
 "http://www.w3.org/Graphics/SVG/1.1/DTD/svg11.dtd">
<!-- Generated by graphviz version 2.38.0 (20140413.2041)
 -->
<!-- Title: get_pwr Pages: 1 -->
<svg width="413pt" height="179pt"
 viewBox="0.00 0.00 413.00 179.00" xmlns="http://www.w3.org/2000/svg" xmlns:xlink="http://www.w3.org/1999/xlink">
<g id="graph0" class="graph" transform="scale(1 1) rotate(0) translate(4 175)">
<title>get_pwr</title>
<!-- Node196 -->
<g id="node1" class="node"><title>Node196</title>
<polygon fill="#bfbfbf" stroke="black" points="0,-76.5 0,-94.5 49,-94.5 49,-76.5 0,-76.5"/>
<text text-anchor="middle" x="24.5" y="-83.3" font-family="Calibri" font-size="9.00">get_pwr</text>
</g>
<!-- Node197 -->
<g id="node2" class="node"><title>Node197</title>
<g id="a_node2"><a xlink:href="main__main_8h.html#a6c26e075660bdd7a54df984ec3fc7ff4" target="_top" xlink:title="get_swr">
<polygon fill="none" stroke="black" points="85,-76.5 85,-94.5 133,-94.5 133,-76.5 85,-76.5"/>
<text text-anchor="middle" x="109" y="-83.3" font-family="Calibri" font-size="9.00">get_swr</text>
</a>
</g>
</g>
<!-- Node196&#45;&gt;Node197 -->
<g id="edge1" class="edge"><title>Node196&#45;&gt;Node197</title>
<path fill="none" stroke="midnightblue" d="M59.436,-85.5C67.9528,-85.5 76.8993,-85.5 84.7601,-85.5"/>
<polygon fill="midnightblue" stroke="midnightblue" points="59.3625,-82.0001 49.3624,-85.5 59.3624,-89.0001 59.3625,-82.0001"/>
</g>
<!-- Node198 -->
<g id="node3" class="node"><title>Node198</title>
<g id="a_node3"><a xlink:href="main__main_8h.html#a740ef1b33bb02cd952ad7d8708999472" target="_top" xlink:title="coarse_cap">
<polygon fill="none" stroke="black" points="169,-152.5 169,-170.5 231,-170.5 231,-152.5 169,-152.5"/>
<text text-anchor="middle" x="200" y="-159.3" font-family="Calibri" font-size="9.00">coarse_cap</text>
</a>
</g>
</g>
<!-- Node197&#45;&gt;Node198 -->
<g id="edge2" class="edge"><title>Node197&#45;&gt;Node198</title>
<path fill="none" stroke="midnightblue" d="M127.991,-101.754C139.579,-112.124 155.034,-125.77 169,-137.5 174.925,-142.476 181.64,-147.87 187.213,-152.282"/>
<polygon fill="midnightblue" stroke="midnightblue" points="130.092,-98.9365 120.314,-94.8572 125.414,-104.144 130.092,-98.9365"/>
</g>
<!-- Node199 -->
<g id="node4" class="node"><title>Node199</title>
<g id="a_node4"><a xlink:href="main__main_8h.html#a5c7c60c7d70cf76cc52e87722bb0f614" target="_top" xlink:title="coarse_tune">
<polygon fill="none" stroke="black" points="267,-114.5 267,-132.5 334,-132.5 334,-114.5 267,-114.5"/>
<text text-anchor="middle" x="300.5" y="-121.3" font-family="Calibri" font-size="9.00">coarse_tune</text>
</a>
</g>
</g>
<!-- Node197&#45;&gt;Node199 -->
<g id="edge5" class="edge"><title>Node197&#45;&gt;Node199</title>
<path fill="none" stroke="midnightblue" d="M143.085,-93.6648C151.517,-95.6591 160.577,-97.7274 169,-99.5 202.25,-106.498 240.507,-113.399 266.963,-117.992"/>
<polygon fill="midnightblue" stroke="midnightblue" points="143.737,-90.2221 133.197,-91.2937 142.105,-97.0291 143.737,-90.2221"/>
</g>
<!-- Node200 -->
<g id="node5" class="node"><title>Node200</title>
<g id="a_node5"><a xlink:href="main__main_8h.html#a1849f2e5bd63d11a7b9549470e287d17" target="_top" xlink:title="tune">
<polygon fill="none" stroke="black" points="370,-57.5 370,-75.5 405,-75.5 405,-57.5 370,-57.5"/>
<text text-anchor="middle" x="387.5" y="-64.3" font-family="Calibri" font-size="9.00">tune</text>
</a>
</g>
</g>
<!-- Node197&#45;&gt;Node200 -->
<g id="edge10" class="edge"><title>Node197&#45;&gt;Node200</title>
<path fill="none" stroke="midnightblue" d="M143.086,-83.2265C202.502,-79.1436 325.239,-70.7096 369.838,-67.6449"/>
<polygon fill="midnightblue" stroke="midnightblue" points="142.835,-79.7353 133.099,-83.9128 143.315,-86.7189 142.835,-79.7353"/>
</g>
<!-- Node201 -->
<g id="node6" class="node"><title>Node201</title>
<g id="a_node6"><a xlink:href="main__main_8h.html#ab518a3d2c723f12d3af3024a195606ce" target="_top" xlink:title="sharp_cap">
<polygon fill="none" stroke="black" points="271,-38.5 271,-56.5 330,-56.5 330,-38.5 271,-38.5"/>
<text text-anchor="middle" x="300.5" y="-45.3" font-family="Calibri" font-size="9.00">sharp_cap</text>
</a>
</g>
</g>
<!-- Node197&#45;&gt;Node201 -->
<g id="edge6" class="edge"><title>Node197&#45;&gt;Node201</title>
<path fill="none" stroke="midnightblue" d="M143.085,-77.3352C151.517,-75.3409 160.577,-73.2726 169,-71.5 203.941,-64.1466 244.411,-56.8995 270.905,-52.3256"/>
<polygon fill="midnightblue" stroke="midnightblue" points="142.105,-73.9709 133.197,-79.7063 143.737,-80.7779 142.105,-73.9709"/>
</g>
<!-- Node202 -->
<g id="node7" class="node"><title>Node202</title>
<g id="a_node7"><a xlink:href="main__main_8h.html#a72210b3ed1d5691c5bbda8c7f1e97197" target="_top" xlink:title="sharp_ind">
<polygon fill="none" stroke="black" points="171,-0.5 171,-18.5 229,-18.5 229,-0.5 171,-0.5"/>
<text text-anchor="middle" x="200" y="-7.3" font-family="Calibri" font-size="9.00">sharp_ind</text>
</a>
</g>
</g>
<!-- Node197&#45;&gt;Node202 -->
<g id="edge8" class="edge"><title>Node197&#45;&gt;Node202</title>
<path fill="none" stroke="midnightblue" d="M127.991,-69.2456C139.579,-58.8761 155.034,-45.2296 169,-33.5 174.925,-28.524 181.64,-23.1298 187.213,-18.718"/>
<polygon fill="midnightblue" stroke="midnightblue" points="125.414,-66.8562 120.314,-76.1428 130.092,-72.0635 125.414,-66.8562"/>
</g>
<!-- Node198&#45;&gt;Node199 -->
<g id="edge3" class="edge"><title>Node198&#45;&gt;Node199</title>
<path fill="none" stroke="midnightblue" d="M233.959,-148.785C247.728,-143.473 263.411,-137.423 275.983,-132.573"/>
<polygon fill="midnightblue" stroke="midnightblue" points="232.413,-145.63 224.343,-152.495 234.933,-152.161 232.413,-145.63"/>
</g>
<!-- Node199&#45;&gt;Node200 -->
<g id="edge4" class="edge"><title>Node199&#45;&gt;Node200</title>
<path fill="none" stroke="midnightblue" d="M323.694,-108.617C339.28,-98.1652 359.63,-84.5189 372.877,-75.6353"/>
<polygon fill="midnightblue" stroke="midnightblue" points="321.513,-105.865 315.157,-114.342 325.412,-111.679 321.513,-105.865"/>
</g>
<!-- Node201&#45;&gt;Node200 -->
<g id="edge7" class="edge"><title>Node201&#45;&gt;Node200</title>
<path fill="none" stroke="midnightblue" d="M340.056,-56.1184C350.443,-58.4401 361.146,-60.8326 369.656,-62.7349"/>
<polygon fill="midnightblue" stroke="midnightblue" points="340.8,-52.6984 330.277,-53.9325 339.273,-59.5298 340.8,-52.6984"/>
</g>
<!-- Node202&#45;&gt;Node200 -->
<g id="edge9" class="edge"><title>Node202&#45;&gt;Node200</title>
<path fill="none" stroke="midnightblue" d="M239.314,-10.1161C266.594,-11.7015 303.647,-16.228 334,-28.5 350.69,-35.2479 367.025,-48.4047 376.93,-57.3233"/>
<polygon fill="midnightblue" stroke="midnightblue" points="239.159,-6.605 229.005,-9.629 238.829,-13.5972 239.159,-6.605"/>
</g>
</g>
</svg>
