<?xml version="1.0" encoding="UTF-8" standalone="no"?>
<!DOCTYPE svg PUBLIC "-//W3C//DTD SVG 1.1//EN"
 "http://www.w3.org/Graphics/SVG/1.1/DTD/svg11.dtd">
<!-- Generated by graphviz version 2.38.0 (20140413.2041)
 -->
<!-- Title: button_proc_test Pages: 1 -->
<!--zoomable 354 -->
<svg id="main" version="1.1" xmlns="http://www.w3.org/2000/svg" xmlns:xlink="http://www.w3.org/1999/xlink" xml:space="preserve" onload="init(evt)">
<style type="text/css"><![CDATA[
.edge:hover path { stroke: red; }
.edge:hover polygon { stroke: red; fill: red; }
]]></style>
<script type="text/javascript"><![CDATA[
var edges = document.getElementsByTagName('g');
if (edges && edges.length) {
  for (var i=0;i<edges.length;i++) {
    if (edges[i].id.substr(0,4)=='edge') {
      edges[i].setAttribute('class','edge');
    }
  }
}
]]></script>
        <defs>
                <circle id="rim" cx="0" cy="0" r="7"/>
                <circle id="rim2" cx="0" cy="0" r="3.5"/>
                <g id="zoomPlus">
                        <use xlink:href="#rim" fill="#404040">
                                <set attributeName="fill" to="#808080" begin="zoomplus.mouseover" end="zoomplus.mouseout"/>
                        </use>
                        <path d="M-4,0h8M0,-4v8" fill="none" stroke="white" stroke-width="1.5" pointer-events="none"/>
                </g>
                <g id="zoomMin">
                        <use xlink:href="#rim" fill="#404040">
                                <set attributeName="fill" to="#808080" begin="zoomminus.mouseover" end="zoomminus.mouseout"/>
                        </use>
                        <path d="M-4,0h8" fill="none" stroke="white" stroke-width="1.5" pointer-events="none"/>
                </g>
                <g id="dirArrow">
                        <path fill="none" stroke="white" stroke-width="1.5" d="M0,-3.0v7 M-2.5,-0.5L0,-3.0L2.5,-0.5"/>
                </g>
               <g id="resetDef">
                       <use xlink:href="#rim2" fill="#404040">
                               <set attributeName="fill" to="#808080" begin="reset.mouseover" end="reset.mouseout"/>
                       </use>
               </g>
        </defs>

<script type="text/javascript">
var viewWidth = 811;
var viewHeight = 354;
var sectionId = 'dynsection-6';
</script>
<script xlink:href="svgpan.js"/>
<svg id="graph" class="graph">
<g id="viewport">
<title>button_proc_test</title>
<!-- Node78 -->
<g id="node1" class="node"><title>Node78</title>
<polygon fill="#bfbfbf" stroke="black" points="0,-111.5 0,-129.5 86,-129.5 86,-111.5 0,-111.5"/>
<text text-anchor="middle" x="43" y="-118.3" font-family="Calibri" font-size="9.00">button_proc_test</text>
</g>
<!-- Node79 -->
<g id="node2" class="node"><title>Node79</title>
<g id="a_node2"><a xlink:href="main_8c.html#a6911b3f075cdf1d54cb14f17f6e5ef6b" target="_top" xlink:title="lcd_ind">
<polygon fill="none" stroke="black" points="322,-301.5 322,-319.5 369,-319.5 369,-301.5 322,-301.5"/>
<text text-anchor="middle" x="345.5" y="-308.3" font-family="Calibri" font-size="9.00">lcd_ind</text>
</a>
</g>
</g>
<!-- Node78&#45;&gt;Node79 -->
<g id="edge1" class="edge"><title>Node78&#45;&gt;Node79</title>
<path fill="none" stroke="midnightblue" d="M49.3642,-129.57C67.251,-158.89 128.149,-251.525 206,-291.5 239.074,-308.483 282.158,-311.944 311.43,-311.985"/>
<polygon fill="midnightblue" stroke="midnightblue" points="311.588,-315.484 321.545,-311.865 311.504,-308.484 311.588,-315.484"/>
</g>
<!-- Node80 -->
<g id="node3" class="node"><title>Node80</title>
<g id="a_node3"><a xlink:href="oled__control_8c.html#a9d56c6c2e653b24a0caf505492ad818a" target="_top" xlink:title="led_wr_str">
<polygon fill="none" stroke="black" points="414,-244.5 414,-262.5 473,-262.5 473,-244.5 414,-244.5"/>
<text text-anchor="middle" x="443.5" y="-251.3" font-family="Calibri" font-size="9.00">led_wr_str</text>
</a>
</g>
</g>
<!-- Node78&#45;&gt;Node80 -->
<g id="edge34" class="edge"><title>Node78&#45;&gt;Node80</title>
<path fill="none" stroke="midnightblue" d="M47.2744,-129.654C56.1685,-153.524 82.7686,-218.715 122,-260.5 152.379,-292.856 164.39,-299.06 206,-314.5 277.942,-341.194 308.364,-361.735 378,-329.5 403.559,-317.668 422.689,-290.164 433.234,-271.696"/>
<polygon fill="midnightblue" stroke="midnightblue" points="436.39,-273.218 438.076,-262.758 430.235,-269.884 436.39,-273.218"/>
</g>
<!-- Node87 -->
<g id="node10" class="node"><title>Node87</title>
<g id="a_node10"><a xlink:href="main_8c.html#ae5a14b4884e85f47ad8a4a716f13203a" target="_top" xlink:title="lcd_pwr">
<polygon fill="none" stroke="black" points="122,-130.5 122,-148.5 170,-148.5 170,-130.5 122,-130.5"/>
<text text-anchor="middle" x="146" y="-137.3" font-family="Calibri" font-size="9.00">lcd_pwr</text>
</a>
</g>
</g>
<!-- Node78&#45;&gt;Node87 -->
<g id="edge14" class="edge"><title>Node78&#45;&gt;Node87</title>
<path fill="none" stroke="midnightblue" d="M86.2479,-128.448C94.8377,-130.064 103.755,-131.741 111.969,-133.286"/>
<polygon fill="midnightblue" stroke="midnightblue" points="111.445,-136.749 121.92,-135.158 112.739,-129.87 111.445,-136.749"/>
</g>
<!-- Node92 -->
<g id="node15" class="node"><title>Node92</title>
<g id="a_node15"><a xlink:href="main_8h.html#aecc83cd8bceb4bc24be844732ead2c2c" target="_top" xlink:title="set_ind">
<polygon fill="none" stroke="black" points="218,-37.5 218,-55.5 265,-55.5 265,-37.5 218,-37.5"/>
<text text-anchor="middle" x="241.5" y="-44.3" font-family="Calibri" font-size="9.00">set_ind</text>
</a>
</g>
</g>
<!-- Node78&#45;&gt;Node92 -->
<g id="edge36" class="edge"><title>Node78&#45;&gt;Node92</title>
<path fill="none" stroke="midnightblue" d="M72.7754,-111.454C98.4786,-103.192 137.049,-90.34 170,-77.5 183.998,-72.0454 199.289,-65.4071 212.042,-59.675"/>
<polygon fill="midnightblue" stroke="midnightblue" points="213.576,-62.8225 221.236,-55.5029 210.683,-56.4481 213.576,-62.8225"/>
</g>
<!-- Node93 -->
<g id="node16" class="node"><title>Node93</title>
<g id="a_node16"><a xlink:href="main_8h.html#a2a7963b9b09696c6654b96c67900c6ea" target="_top" xlink:title="set_cap">
<polygon fill="none" stroke="black" points="217.5,-0.5 217.5,-18.5 265.5,-18.5 265.5,-0.5 217.5,-0.5"/>
<text text-anchor="middle" x="241.5" y="-7.3" font-family="Calibri" font-size="9.00">set_cap</text>
</a>
</g>
</g>
<!-- Node78&#45;&gt;Node93 -->
<g id="edge35" class="edge"><title>Node78&#45;&gt;Node93</title>
<path fill="none" stroke="midnightblue" d="M59.5207,-111.312C88.2331,-94.3771 151.672,-57.2513 206,-27.5 208.555,-26.1006 211.229,-24.6619 213.908,-23.2369"/>
<polygon fill="midnightblue" stroke="midnightblue" points="215.654,-26.2731 222.876,-18.5212 212.396,-20.0774 215.654,-26.2731"/>
</g>
<!-- Node99 -->
<g id="node22" class="node"><title>Node99</title>
<g id="a_node22"><a xlink:href="main_8h.html#ae0c1e0ec712704e43db40473f103d621" target="_top" xlink:title="Set the state of the switch. ">
<polygon fill="none" stroke="black" points="123.5,-16.5 123.5,-34.5 168.5,-34.5 168.5,-16.5 123.5,-16.5"/>
<text text-anchor="middle" x="146" y="-23.3" font-family="Calibri" font-size="9.00">set_sw</text>
</a>
</g>
</g>
<!-- Node78&#45;&gt;Node99 -->
<g id="edge37" class="edge"><title>Node78&#45;&gt;Node99</title>
<path fill="none" stroke="midnightblue" d="M53.6843,-111.391C70.7588,-95.3308 106.427,-61.7817 127.782,-41.6955"/>
<polygon fill="midnightblue" stroke="midnightblue" points="130.31,-44.1219 135.197,-34.721 125.514,-39.023 130.31,-44.1219"/>
</g>
<!-- Node79&#45;&gt;Node80 -->
<g id="edge2" class="edge"><title>Node79&#45;&gt;Node80</title>
<path fill="none" stroke="midnightblue" d="M361.924,-301.342C377.179,-292.284 400.747,-278.291 418.46,-267.774"/>
<polygon fill="midnightblue" stroke="midnightblue" points="420.303,-270.75 427.114,-262.635 416.729,-264.731 420.303,-270.75"/>
</g>
<!-- Node81 -->
<g id="node4" class="node"><title>Node81</title>
<g id="a_node4"><a xlink:href="oled__control_8c.html#a7c3a2e5f1fed76dc27692132a2574d27" target="_top" xlink:title="oled_wr_str">
<polygon fill="none" stroke="black" points="509,-244.5 509,-262.5 574,-262.5 574,-244.5 509,-244.5"/>
<text text-anchor="middle" x="541.5" y="-251.3" font-family="Calibri" font-size="9.00">oled_wr_str</text>
</a>
</g>
</g>
<!-- Node80&#45;&gt;Node81 -->
<g id="edge3" class="edge"><title>Node80&#45;&gt;Node81</title>
<path fill="none" stroke="midnightblue" d="M473.043,-253.5C481.147,-253.5 490.142,-253.5 498.852,-253.5"/>
<polygon fill="midnightblue" stroke="midnightblue" points="498.877,-257 508.877,-253.5 498.877,-250 498.877,-257"/>
</g>
<!-- Node86 -->
<g id="node9" class="node"><title>Node86</title>
<g id="a_node9"><a xlink:href="oled__control_8c.html#ad25764a33e482f4e9db2701198e02551" target="_top" xlink:title="led_send">
<polygon fill="none" stroke="black" points="623,-205.5 623,-223.5 678,-223.5 678,-205.5 623,-205.5"/>
<text text-anchor="middle" x="650.5" y="-212.3" font-family="Calibri" font-size="9.00">led_send</text>
</a>
</g>
</g>
<!-- Node80&#45;&gt;Node86 -->
<g id="edge10" class="edge"><title>Node80&#45;&gt;Node86</title>
<path fill="none" stroke="midnightblue" d="M473.208,-244.667C484.313,-241.467 497.175,-238.023 509,-235.5 543.862,-228.06 584.145,-222.327 612.614,-218.745"/>
<polygon fill="midnightblue" stroke="midnightblue" points="613.413,-222.173 622.911,-217.479 612.559,-215.226 613.413,-222.173"/>
</g>
<!-- Node82 -->
<g id="node5" class="node"><title>Node82</title>
<g id="a_node5"><a xlink:href="oled__control_8c.html#ab7f6b5c6c1483f6286f2de5786c028d9" target="_top" xlink:title="Soft_I2C_Start">
<polygon fill="none" stroke="black" points="729,-271.5 729,-289.5 801,-289.5 801,-271.5 729,-271.5"/>
<text text-anchor="middle" x="765" y="-278.3" font-family="Calibri" font-size="9.00">Soft_I2C_Start</text>
</a>
</g>
</g>
<!-- Node81&#45;&gt;Node82 -->
<g id="edge4" class="edge"><title>Node81&#45;&gt;Node82</title>
<path fill="none" stroke="midnightblue" d="M549.998,-262.917C561.321,-276.291 584.219,-300.198 610,-309.5 652.951,-324.997 705.777,-307.709 737.068,-293.964"/>
<polygon fill="midnightblue" stroke="midnightblue" points="738.799,-297.02 746.431,-289.671 735.882,-290.657 738.799,-297.02"/>
</g>
<!-- Node83 -->
<g id="node6" class="node"><title>Node83</title>
<g id="a_node6"><a xlink:href="oled__control_8c.html#a73610916645f17c19124e697b005f694" target="_top" xlink:title="Soft_I2C_Write">
<polygon fill="none" stroke="black" points="727,-215.5 727,-233.5 803,-233.5 803,-215.5 727,-215.5"/>
<text text-anchor="middle" x="765" y="-222.3" font-family="Calibri" font-size="9.00">Soft_I2C_Write</text>
</a>
</g>
</g>
<!-- Node81&#45;&gt;Node83 -->
<g id="edge5" class="edge"><title>Node81&#45;&gt;Node83</title>
<path fill="none" stroke="midnightblue" d="M574.236,-249.345C611.556,-244.459 673.856,-236.302 716.834,-230.675"/>
<polygon fill="midnightblue" stroke="midnightblue" points="717.315,-234.142 726.776,-229.374 716.406,-227.201 717.315,-234.142"/>
</g>
<!-- Node84 -->
<g id="node7" class="node"><title>Node84</title>
<g id="a_node7"><a xlink:href="oled__control_8c.html#a6df77e8ec83c50ed6a5ddaf54aa3a9c2" target="_top" xlink:title="set_addressing">
<polygon fill="none" stroke="black" points="610.5,-281.5 610.5,-299.5 690.5,-299.5 690.5,-281.5 610.5,-281.5"/>
<text text-anchor="middle" x="650.5" y="-288.3" font-family="Calibri" font-size="9.00">set_addressing</text>
</a>
</g>
</g>
<!-- Node81&#45;&gt;Node84 -->
<g id="edge6" class="edge"><title>Node81&#45;&gt;Node84</title>
<path fill="none" stroke="midnightblue" d="M568.675,-262.551C582.147,-267.21 598.779,-272.961 613.447,-278.033"/>
<polygon fill="midnightblue" stroke="midnightblue" points="612.629,-281.454 623.224,-281.414 614.917,-274.838 612.629,-281.454"/>
</g>
<!-- Node85 -->
<g id="node8" class="node"><title>Node85</title>
<g id="a_node8"><a xlink:href="oled__control_8c.html#a16eb842aa672ca44820ae6d5f9933425" target="_top" xlink:title="Soft_I2C_Stop">
<polygon fill="none" stroke="black" points="729.5,-168.5 729.5,-186.5 800.5,-186.5 800.5,-168.5 729.5,-168.5"/>
<text text-anchor="middle" x="765" y="-175.3" font-family="Calibri" font-size="9.00">Soft_I2C_Stop</text>
</a>
</g>
</g>
<!-- Node81&#45;&gt;Node85 -->
<g id="edge9" class="edge"><title>Node81&#45;&gt;Node85</title>
<path fill="none" stroke="midnightblue" d="M547.649,-244.278C560.043,-222.461 591.856,-168.808 610,-159.5 649.72,-139.122 702.607,-152.701 734.932,-164.793"/>
<polygon fill="midnightblue" stroke="midnightblue" points="733.679,-168.061 744.266,-168.459 736.238,-161.545 733.679,-168.061"/>
</g>
<!-- Node84&#45;&gt;Node82 -->
<g id="edge7" class="edge"><title>Node84&#45;&gt;Node82</title>
<path fill="none" stroke="midnightblue" d="M690.531,-287.031C699.569,-286.227 709.262,-285.366 718.548,-284.54"/>
<polygon fill="midnightblue" stroke="midnightblue" points="719.151,-288 728.802,-283.629 718.531,-281.028 719.151,-288"/>
</g>
<!-- Node84&#45;&gt;Node83 -->
<g id="edge8" class="edge"><title>Node84&#45;&gt;Node83</title>
<path fill="none" stroke="midnightblue" d="M667.143,-281.323C685.949,-270.29 717.724,-251.649 739.726,-238.741"/>
<polygon fill="midnightblue" stroke="midnightblue" points="741.636,-241.678 748.49,-233.599 738.094,-235.64 741.636,-241.678"/>
</g>
<!-- Node86&#45;&gt;Node82 -->
<g id="edge11" class="edge"><title>Node86&#45;&gt;Node82</title>
<path fill="none" stroke="midnightblue" d="M667.143,-223.677C685.949,-234.71 717.724,-253.351 739.726,-266.259"/>
<polygon fill="midnightblue" stroke="midnightblue" points="738.094,-269.36 748.49,-271.401 741.636,-263.322 738.094,-269.36"/>
</g>
<!-- Node86&#45;&gt;Node83 -->
<g id="edge12" class="edge"><title>Node86&#45;&gt;Node83</title>
<path fill="none" stroke="midnightblue" d="M678.161,-216.87C689.645,-217.891 703.43,-219.116 716.559,-220.283"/>
<polygon fill="midnightblue" stroke="midnightblue" points="716.62,-223.802 726.891,-221.201 717.24,-216.83 716.62,-223.802"/>
</g>
<!-- Node86&#45;&gt;Node85 -->
<g id="edge13" class="edge"><title>Node86&#45;&gt;Node85</title>
<path fill="none" stroke="midnightblue" d="M678.161,-205.732C692.689,-200.953 710.899,-194.964 726.804,-189.733"/>
<polygon fill="midnightblue" stroke="midnightblue" points="727.95,-193.041 736.356,-186.592 725.763,-186.391 727.95,-193.041"/>
</g>
<!-- Node87&#45;&gt;Node80 -->
<g id="edge33" class="edge"><title>Node87&#45;&gt;Node80</title>
<path fill="none" stroke="midnightblue" d="M154.339,-148.811C164.576,-161.154 184.34,-182.74 206,-194.5 270.098,-229.301 355.086,-243.985 403.782,-249.866"/>
<polygon fill="midnightblue" stroke="midnightblue" points="403.559,-253.363 413.893,-251.022 404.355,-246.408 403.559,-253.363"/>
</g>
<!-- Node88 -->
<g id="node11" class="node"><title>Node88</title>
<g id="a_node11"><a xlink:href="main_8h.html#ab37ca657b79c6b9176cb63e9d812a182" target="_top" xlink:title="get_pwr">
<polygon fill="none" stroke="black" points="217,-111.5 217,-129.5 266,-129.5 266,-111.5 217,-111.5"/>
<text text-anchor="middle" x="241.5" y="-118.3" font-family="Calibri" font-size="9.00">get_pwr</text>
</a>
</g>
</g>
<!-- Node87&#45;&gt;Node88 -->
<g id="edge15" class="edge"><title>Node87&#45;&gt;Node88</title>
<path fill="none" stroke="midnightblue" d="M170.112,-134.803C181.181,-132.554 194.65,-129.817 206.83,-127.342"/>
<polygon fill="midnightblue" stroke="midnightblue" points="207.575,-130.762 216.677,-125.341 206.181,-123.903 207.575,-130.762"/>
</g>
<!-- Node87&#45;&gt;Node92 -->
<g id="edge19" class="edge"><title>Node87&#45;&gt;Node92</title>
<path fill="none" stroke="midnightblue" d="M156.292,-130.452C160.62,-126.078 165.742,-120.666 170,-115.5 187.648,-94.0912 185.114,-82.7634 206,-64.5 207.329,-63.3382 208.745,-62.2261 210.218,-61.1656"/>
<polygon fill="midnightblue" stroke="midnightblue" points="212.408,-63.9252 219.049,-55.6699 208.71,-57.9821 212.408,-63.9252"/>
</g>
<!-- Node87&#45;&gt;Node93 -->
<g id="edge20" class="edge"><title>Node87&#45;&gt;Node93</title>
<path fill="none" stroke="midnightblue" d="M149.764,-130.22C156.365,-109.43 174.858,-58.5192 206,-27.5 207.218,-26.2872 208.534,-25.1378 209.917,-24.051"/>
<polygon fill="midnightblue" stroke="midnightblue" points="211.917,-26.9247 218.352,-18.5079 208.073,-21.0747 211.917,-26.9247"/>
</g>
<!-- Node94 -->
<g id="node17" class="node"><title>Node94</title>
<g id="a_node17"><a xlink:href="oled__control_8c.html#a2c663a2db505aa3f2271f6cf4bae1521" target="_top" xlink:title="dysp_on">
<polygon fill="none" stroke="black" points="516.5,-168.5 516.5,-186.5 566.5,-186.5 566.5,-168.5 516.5,-168.5"/>
<text text-anchor="middle" x="541.5" y="-175.3" font-family="Calibri" font-size="9.00">dysp_on</text>
</a>
</g>
</g>
<!-- Node87&#45;&gt;Node94 -->
<g id="edge21" class="edge"><title>Node87&#45;&gt;Node94</title>
<path fill="none" stroke="midnightblue" d="M170.146,-141.735C236.466,-148.14 427.452,-166.583 506.064,-174.175"/>
<polygon fill="midnightblue" stroke="midnightblue" points="506.096,-177.694 516.386,-175.171 506.769,-170.726 506.096,-177.694"/>
</g>
<!-- Node96 -->
<g id="node19" class="node"><title>Node96</title>
<g id="a_node19"><a xlink:href="main_8c.html#a593218c5fe00b499d494826fc0aa5279" target="_top" xlink:title="button_delay">
<polygon fill="none" stroke="black" points="206,-74.5 206,-92.5 277,-92.5 277,-74.5 206,-74.5"/>
<text text-anchor="middle" x="241.5" y="-81.3" font-family="Calibri" font-size="9.00">button_delay</text>
</a>
</g>
</g>
<!-- Node87&#45;&gt;Node96 -->
<g id="edge27" class="edge"><title>Node87&#45;&gt;Node96</title>
<path fill="none" stroke="midnightblue" d="M160.373,-130.389C172.191,-122.458 189.989,-110.807 206,-101.5 208.382,-100.115 210.88,-98.7152 213.398,-97.3395"/>
<polygon fill="midnightblue" stroke="midnightblue" points="215.241,-100.323 222.425,-92.5357 211.953,-94.1439 215.241,-100.323"/>
</g>
<!-- Node97 -->
<g id="node20" class="node"><title>Node97</title>
<g id="a_node20"><a xlink:href="main_8c.html#aa8fd50019a763561abc6621bb224417f" target="_top" xlink:title="lcd_swr">
<polygon fill="none" stroke="black" points="322,-187.5 322,-205.5 369,-205.5 369,-187.5 322,-187.5"/>
<text text-anchor="middle" x="345.5" y="-194.3" font-family="Calibri" font-size="9.00">lcd_swr</text>
</a>
</g>
</g>
<!-- Node87&#45;&gt;Node97 -->
<g id="edge28" class="edge"><title>Node87&#45;&gt;Node97</title>
<path fill="none" stroke="midnightblue" d="M160.435,-148.762C172.003,-156.298 189.408,-166.616 206,-172.5 240.875,-184.867 283.026,-191.004 311.598,-193.952"/>
<polygon fill="midnightblue" stroke="midnightblue" points="311.553,-197.464 321.841,-194.932 312.22,-190.495 311.553,-197.464"/>
</g>
<!-- Node98 -->
<g id="node21" class="node"><title>Node98</title>
<g id="a_node21"><a xlink:href="main_8c.html#a4ae0d4fa97fc0ca3611813fee4f9af7c" target="_top" xlink:title="show_pwr">
<polygon fill="none" stroke="black" points="212.5,-263.5 212.5,-281.5 270.5,-281.5 270.5,-263.5 212.5,-263.5"/>
<text text-anchor="middle" x="241.5" y="-270.3" font-family="Calibri" font-size="9.00">show_pwr</text>
</a>
</g>
</g>
<!-- Node87&#45;&gt;Node98 -->
<g id="edge30" class="edge"><title>Node87&#45;&gt;Node98</title>
<path fill="none" stroke="midnightblue" d="M150.227,-148.557C157.638,-168.42 177.458,-216.579 206,-248.5 208.9,-251.743 212.32,-254.777 215.862,-257.524"/>
<polygon fill="midnightblue" stroke="midnightblue" points="213.967,-260.471 224.156,-263.375 218.002,-254.751 213.967,-260.471"/>
</g>
<!-- Node89 -->
<g id="node12" class="node"><title>Node89</title>
<g id="a_node12"><a xlink:href="main_8h.html#ab19e6e081315a9a200394b74d10de395" target="_top" xlink:title="correction">
<polygon fill="none" stroke="black" points="317,-111.5 317,-129.5 374,-129.5 374,-111.5 317,-111.5"/>
<text text-anchor="middle" x="345.5" y="-118.3" font-family="Calibri" font-size="9.00">correction</text>
</a>
</g>
</g>
<!-- Node88&#45;&gt;Node89 -->
<g id="edge16" class="edge"><title>Node88&#45;&gt;Node89</title>
<path fill="none" stroke="midnightblue" d="M266.157,-120.5C278.257,-120.5 293.271,-120.5 306.909,-120.5"/>
<polygon fill="midnightblue" stroke="midnightblue" points="306.998,-124 316.998,-120.5 306.998,-117 306.998,-124"/>
</g>
<!-- Node90 -->
<g id="node13" class="node"><title>Node90</title>
<g id="a_node13"><a xlink:href="main_8h.html#acfd46f8711e9c1c20fffdfc8bdaa0ddd" target="_top" xlink:title="get_forward">
<polygon fill="none" stroke="black" points="313,-74.5 313,-92.5 378,-92.5 378,-74.5 313,-74.5"/>
<text text-anchor="middle" x="345.5" y="-81.3" font-family="Calibri" font-size="9.00">get_forward</text>
</a>
</g>
</g>
<!-- Node88&#45;&gt;Node90 -->
<g id="edge17" class="edge"><title>Node88&#45;&gt;Node90</title>
<path fill="none" stroke="midnightblue" d="M266.157,-111.918C279.163,-107.201 295.538,-101.261 309.95,-96.033"/>
<polygon fill="midnightblue" stroke="midnightblue" points="311.341,-99.2515 319.548,-92.5512 308.954,-92.6711 311.341,-99.2515"/>
</g>
<!-- Node91 -->
<g id="node14" class="node"><title>Node91</title>
<g id="a_node14"><a xlink:href="main_8h.html#aa6b9a2b3d88f578ba6a9fefd911eae75" target="_top" xlink:title="get_reverse">
<polygon fill="none" stroke="black" points="313.5,-37.5 313.5,-55.5 377.5,-55.5 377.5,-37.5 313.5,-37.5"/>
<text text-anchor="middle" x="345.5" y="-44.3" font-family="Calibri" font-size="9.00">get_reverse</text>
</a>
</g>
</g>
<!-- Node88&#45;&gt;Node91 -->
<g id="edge18" class="edge"><title>Node88&#45;&gt;Node91</title>
<path fill="none" stroke="midnightblue" d="M261.39,-111.404C266.642,-108.533 272.214,-105.148 277,-101.5 295.248,-87.5919 294.862,-78.5513 313,-64.5 314.568,-63.2849 316.228,-62.0963 317.932,-60.9461"/>
<polygon fill="midnightblue" stroke="midnightblue" points="319.954,-63.8106 326.613,-55.5698 316.269,-57.8595 319.954,-63.8106"/>
</g>
<!-- Node94&#45;&gt;Node86 -->
<g id="edge26" class="edge"><title>Node94&#45;&gt;Node86</title>
<path fill="none" stroke="midnightblue" d="M566.513,-185.804C580.362,-190.592 598.045,-196.707 613.526,-202.06"/>
<polygon fill="midnightblue" stroke="midnightblue" points="612.725,-205.487 623.32,-205.447 615.012,-198.871 612.725,-205.487"/>
</g>
<!-- Node95 -->
<g id="node18" class="node"><title>Node95</title>
<g id="a_node18"><a xlink:href="oled__control_8c.html#ad141ed038278a6fcad6c307932f01ec8" target="_top" xlink:title="send_command">
<polygon fill="none" stroke="black" points="610,-168.5 610,-186.5 691,-186.5 691,-168.5 610,-168.5"/>
<text text-anchor="middle" x="650.5" y="-175.3" font-family="Calibri" font-size="9.00">send_command</text>
</a>
</g>
</g>
<!-- Node94&#45;&gt;Node95 -->
<g id="edge22" class="edge"><title>Node94&#45;&gt;Node95</title>
<path fill="none" stroke="midnightblue" d="M566.513,-177.5C576.33,-177.5 588.073,-177.5 599.594,-177.5"/>
<polygon fill="midnightblue" stroke="midnightblue" points="599.606,-181 609.606,-177.5 599.606,-174 599.606,-181"/>
</g>
<!-- Node95&#45;&gt;Node82 -->
<g id="edge23" class="edge"><title>Node95&#45;&gt;Node82</title>
<path fill="none" stroke="midnightblue" d="M675.141,-186.647C680.648,-189.363 686.277,-192.659 691,-196.5 711.414,-213.101 709.66,-223.71 727,-243.5 733.146,-250.514 740.312,-257.852 746.693,-264.127"/>
<polygon fill="midnightblue" stroke="midnightblue" points="744.596,-266.968 754.218,-271.402 749.461,-261.935 744.596,-266.968"/>
</g>
<!-- Node95&#45;&gt;Node83 -->
<g id="edge24" class="edge"><title>Node95&#45;&gt;Node83</title>
<path fill="none" stroke="midnightblue" d="M673.191,-186.562C690.155,-193.649 713.966,-203.597 732.95,-211.528"/>
<polygon fill="midnightblue" stroke="midnightblue" points="731.799,-214.84 742.375,-215.466 734.498,-208.381 731.799,-214.84"/>
</g>
<!-- Node95&#45;&gt;Node85 -->
<g id="edge25" class="edge"><title>Node95&#45;&gt;Node85</title>
<path fill="none" stroke="midnightblue" d="M691.163,-177.5C700.172,-177.5 709.804,-177.5 719.016,-177.5"/>
<polygon fill="midnightblue" stroke="midnightblue" points="719.182,-181 729.182,-177.5 719.182,-174 719.182,-181"/>
</g>
<!-- Node97&#45;&gt;Node80 -->
<g id="edge29" class="edge"><title>Node97&#45;&gt;Node80</title>
<path fill="none" stroke="midnightblue" d="M361.924,-205.658C377.179,-214.716 400.747,-228.709 418.46,-239.226"/>
<polygon fill="midnightblue" stroke="midnightblue" points="416.729,-242.269 427.114,-244.365 420.303,-236.25 416.729,-242.269"/>
</g>
<!-- Node98&#45;&gt;Node79 -->
<g id="edge32" class="edge"><title>Node98&#45;&gt;Node79</title>
<path fill="none" stroke="midnightblue" d="M266.673,-281.505C280.266,-286.57 297.415,-292.959 312.153,-298.449"/>
<polygon fill="midnightblue" stroke="midnightblue" points="311.306,-301.868 321.898,-302.08 313.75,-295.309 311.306,-301.868"/>
</g>
<!-- Node98&#45;&gt;Node80 -->
<g id="edge31" class="edge"><title>Node98&#45;&gt;Node80</title>
<path fill="none" stroke="midnightblue" d="M270.731,-269.818C305.376,-266.527 364.311,-260.928 403.326,-257.222"/>
<polygon fill="midnightblue" stroke="midnightblue" points="404.141,-260.66 413.765,-256.23 403.479,-253.691 404.141,-260.66"/>
</g>
</g>
</svg>
        <g id="navigator" transform="translate(0 0)" fill="#404254">
                <rect fill="#f2f5e9" fill-opacity="0.5" stroke="#606060" stroke-width=".5" x="0" y="0" width="60" height="60"/>
                <use id="zoomplus" xlink:href="#zoomPlus" x="17" y="9" onmousedown="handleZoom(evt,'in')"/>
                <use id="zoomminus" xlink:href="#zoomMin" x="42" y="9" onmousedown="handleZoom(evt,'out')"/>
                <use id="reset" xlink:href="#resetDef" x="30" y="36" onmousedown="handleReset()"/>
                <g id="arrowUp" xlink:href="#dirArrow" transform="translate(30 24)" onmousedown="handlePan(0,-1)">
                  <use xlink:href="#rim" fill="#404040">
                        <set attributeName="fill" to="#808080" begin="arrowUp.mouseover" end="arrowUp.mouseout"/>
                  </use>
                  <path fill="none" stroke="white" stroke-width="1.5" d="M0,-3.0v7 M-2.5,-0.5L0,-3.0L2.5,-0.5"/>
                </g>
                <g id="arrowRight" xlink:href="#dirArrow" transform="rotate(90) translate(36 -43)" onmousedown="handlePan(1,0)">
                  <use xlink:href="#rim" fill="#404040">
                        <set attributeName="fill" to="#808080" begin="arrowRight.mouseover" end="arrowRight.mouseout"/>
                  </use>
                  <path fill="none" stroke="white" stroke-width="1.5" d="M0,-3.0v7 M-2.5,-0.5L0,-3.0L2.5,-0.5"/>
                </g>
                <g id="arrowDown" xlink:href="#dirArrow" transform="rotate(180) translate(-30 -48)" onmousedown="handlePan(0,1)">
                  <use xlink:href="#rim" fill="#404040">
                        <set attributeName="fill" to="#808080" begin="arrowDown.mouseover" end="arrowDown.mouseout"/>
                  </use>
                  <path fill="none" stroke="white" stroke-width="1.5" d="M0,-3.0v7 M-2.5,-0.5L0,-3.0L2.5,-0.5"/>
                </g>
                <g id="arrowLeft" xlink:href="#dirArrow" transform="rotate(270) translate(-36 17)" onmousedown="handlePan(-1,0)">
                  <use xlink:href="#rim" fill="#404040">
                        <set attributeName="fill" to="#808080" begin="arrowLeft.mouseover" end="arrowLeft.mouseout"/>
                  </use>
                  <path fill="none" stroke="white" stroke-width="1.5" d="M0,-3.0v7 M-2.5,-0.5L0,-3.0L2.5,-0.5"/>
                </g>
        </g>
        <svg viewBox="0 0 15 15" width="100%" height="30px" preserveAspectRatio="xMaxYMin meet">
         <g id="arrow_out" transform="scale(0.3 0.3)">
          <a xlink:href="main__main_8h_ac445892220ccb3b4b337dd3e764bd6c6_cgraph_org.svg" target="_base">
           <rect id="button" ry="5" rx="5" y="6" x="6" height="38" width="38"
                fill="#f2f5e9" fill-opacity="0.5" stroke="#606060" stroke-width="1.0"/>
           <path id="arrow"
             d="M 11.500037,31.436501 C 11.940474,20.09759 22.043105,11.32322 32.158766,21.979434 L 37.068811,17.246167 C 37.068811,17.246167 37.088388,32 37.088388,32 L 22.160133,31.978069 C 22.160133,31.978069 26.997745,27.140456 26.997745,27.140456 C 18.528582,18.264221 13.291696,25.230495 11.500037,31.436501 z"
             style="fill:#404040;"/>
          </a>
         </g>
        </svg>
</svg>
