<?xml version="1.0" encoding="UTF-8" standalone="no"?>
<!DOCTYPE svg PUBLIC "-//W3C//DTD SVG 1.1//EN"
 "http://www.w3.org/Graphics/SVG/1.1/DTD/svg11.dtd">
<!-- Generated by graphviz version 2.38.0 (20140413.2041)
 -->
<!-- Title: set_cap Pages: 1 -->
<svg width="986pt" height="666pt"
 viewBox="0.00 0.00 986.00 666.15" xmlns="http://www.w3.org/2000/svg" xmlns:xlink="http://www.w3.org/1999/xlink">
<g id="graph0" class="graph" transform="scale(1 1) rotate(0) translate(4 662.149)">
<title>set_cap</title>
<!-- Node1 -->
<g id="node1" class="node"><title>Node1</title>
<g id="a_node1"><a xlink:title=" ">
<polygon fill="#bfbfbf" stroke="black" points="930,-228.5 930,-246.5 978,-246.5 978,-228.5 930,-228.5"/>
<text text-anchor="middle" x="954" y="-235.3" font-family="Calibri" font-size="9.00">set_cap</text>
</a>
</g>
</g>
<!-- Node2 -->
<g id="node2" class="node"><title>Node2</title>
<g id="a_node2"><a xlink:href="main_8h.html#a9dff326a6079fe726285b11ee837ad60" target="_top" xlink:title=" ">
<polygon fill="none" stroke="black" points="838,-532.5 838,-550.5 894,-550.5 894,-532.5 838,-532.5"/>
<text text-anchor="middle" x="866" y="-539.3" font-family="Calibri" font-size="9.00">atu_reset</text>
</a>
</g>
</g>
<!-- Node1&#45;&gt;Node2 -->
<g id="edge1" class="edge"><title>Node1&#45;&gt;Node2</title>
<path fill="none" stroke="midnightblue" d="M947.674,-256.328C931.195,-314.579 881.436,-490.469 869.564,-532.437"/>
<polygon fill="midnightblue" stroke="midnightblue" points="951.072,-257.173 950.426,-246.598 944.336,-255.268 951.072,-257.173"/>
</g>
<!-- Node4 -->
<g id="node4" class="node"><title>Node4</title>
<g id="a_node4"><a xlink:href="main_8c.html#a1c9e5d54d8cf7f3d041aa2e0b330b3dd" target="_top" xlink:title="Handle the process of the buttons being pressed.">
<polygon fill="none" stroke="black" points="74,-133.5 74,-151.5 139,-151.5 139,-133.5 74,-133.5"/>
<text text-anchor="middle" x="106.5" y="-140.3" font-family="Calibri" font-size="9.00">button_proc</text>
</a>
</g>
</g>
<!-- Node1&#45;&gt;Node4 -->
<g id="edge25" class="edge"><title>Node1&#45;&gt;Node4</title>
<path fill="none" stroke="midnightblue" d="M947.039,-218.632C938.543,-194.213 920.935,-151.488 894,-123.5 846.523,-74.167 828.468,-47.5 760,-47.5 760,-47.5 760,-47.5 363.5,-47.5 265.37,-47.5 158.556,-109.613 121.261,-133.391"/>
<polygon fill="midnightblue" stroke="midnightblue" points="943.825,-220.059 950.301,-228.444 950.467,-217.851 943.825,-220.059"/>
</g>
<!-- Node5 -->
<g id="node5" class="node"><title>Node5</title>
<g id="a_node5"><a xlink:href="main_8c.html#acdef7a1fd863a6d3770c1268cb06add3" target="_top" xlink:title=" ">
<polygon fill="none" stroke="black" points="0,-133.5 0,-151.5 38,-151.5 38,-133.5 0,-133.5"/>
<text text-anchor="middle" x="19" y="-140.3" font-family="Calibri" font-size="9.00">main</text>
</a>
</g>
</g>
<!-- Node1&#45;&gt;Node5 -->
<g id="edge36" class="edge"><title>Node1&#45;&gt;Node5</title>
<path fill="none" stroke="midnightblue" d="M953.087,-257.039C952.346,-339.585 937.891,-655.5 760,-655.5 760,-655.5 760,-655.5 201.5,-655.5 159.438,-655.5 155.273,-690.721 74,-498.5 19.4688,-369.526 19.0234,-193.694 19.7642,-151.751"/>
<polygon fill="midnightblue" stroke="midnightblue" points="956.588,-256.629 953.115,-246.619 949.588,-256.61 956.588,-256.629"/>
</g>
<!-- Node7 -->
<g id="node7" class="node"><title>Node7</title>
<g id="a_node7"><a xlink:href="main_8h.html#a740ef1b33bb02cd952ad7d8708999472" target="_top" xlink:title=" ">
<polygon fill="none" stroke="black" points="531,-304.5 531,-322.5 593,-322.5 593,-304.5 531,-304.5"/>
<text text-anchor="middle" x="562" y="-311.3" font-family="Calibri" font-size="9.00">coarse_cap</text>
</a>
</g>
</g>
<!-- Node1&#45;&gt;Node7 -->
<g id="edge28" class="edge"><title>Node1&#45;&gt;Node7</title>
<path fill="none" stroke="midnightblue" d="M939.185,-254.534C928.303,-266.604 912.003,-281.944 894,-289.5 790.67,-332.871 653.285,-324.192 593.24,-317.519"/>
<polygon fill="midnightblue" stroke="midnightblue" points="941.939,-256.699 945.807,-246.836 936.632,-252.134 941.939,-256.699"/>
</g>
<!-- Node8 -->
<g id="node8" class="node"><title>Node8</title>
<g id="a_node8"><a xlink:href="main_8h.html#a5c7c60c7d70cf76cc52e87722bb0f614" target="_top" xlink:title=" ">
<polygon fill="none" stroke="black" points="428,-304.5 428,-322.5 495,-322.5 495,-304.5 428,-304.5"/>
<text text-anchor="middle" x="461.5" y="-311.3" font-family="Calibri" font-size="9.00">coarse_tune</text>
</a>
</g>
</g>
<!-- Node1&#45;&gt;Node8 -->
<g id="edge29" class="edge"><title>Node1&#45;&gt;Node8</title>
<path fill="none" stroke="midnightblue" d="M919.792,-248.122C881.644,-259.365 816.968,-275.5 760,-275.5 760,-275.5 760,-275.5 653.5,-275.5 594.333,-275.5 526.804,-293.257 489.994,-304.495"/>
<polygon fill="midnightblue" stroke="midnightblue" points="921.256,-251.336 929.82,-245.099 919.235,-244.635 921.256,-251.336"/>
</g>
<!-- Node9 -->
<g id="node9" class="node"><title>Node9</title>
<g id="a_node9"><a xlink:href="main_8h.html#a454a7687c8039514766571b23516ca9c" target="_top" xlink:title=" ">
<polygon fill="none" stroke="black" points="337,-342.5 337,-360.5 392,-360.5 392,-342.5 337,-342.5"/>
<text text-anchor="middle" x="364.5" y="-349.3" font-family="Calibri" font-size="9.00">sub_tune</text>
</a>
</g>
</g>
<!-- Node1&#45;&gt;Node9 -->
<g id="edge38" class="edge"><title>Node1&#45;&gt;Node9</title>
<path fill="none" stroke="midnightblue" d="M919.792,-226.878C881.644,-215.635 816.968,-199.5 760,-199.5 760,-199.5 760,-199.5 653.5,-199.5 550.016,-199.5 508.921,-192.995 428,-257.5 397.964,-281.443 377.284,-323.824 369.241,-342.375"/>
<polygon fill="midnightblue" stroke="midnightblue" points="919.235,-230.365 929.82,-229.901 921.256,-223.664 919.235,-230.365"/>
</g>
<!-- Node12 -->
<g id="node12" class="node"><title>Node12</title>
<g id="a_node12"><a xlink:href="main_8h.html#ab518a3d2c723f12d3af3024a195606ce" target="_top" xlink:title=" ">
<polygon fill="none" stroke="black" points="532.5,-228.5 532.5,-246.5 591.5,-246.5 591.5,-228.5 532.5,-228.5"/>
<text text-anchor="middle" x="562" y="-235.3" font-family="Calibri" font-size="9.00">sharp_cap</text>
</a>
</g>
</g>
<!-- Node1&#45;&gt;Node12 -->
<g id="edge37" class="edge"><title>Node1&#45;&gt;Node12</title>
<path fill="none" stroke="midnightblue" d="M919.434,-237.5C843.956,-237.5 661.947,-237.5 591.507,-237.5"/>
<polygon fill="midnightblue" stroke="midnightblue" points="919.772,-241 929.772,-237.5 919.772,-234 919.772,-241"/>
</g>
<!-- Node15 -->
<g id="node15" class="node"><title>Node15</title>
<g id="a_node15"><a xlink:href="main_8c.html#ac445892220ccb3b4b337dd3e764bd6c6" target="_top" xlink:title="Handle the process of the buttons being pressed (in test mode)">
<polygon fill="none" stroke="black" points="716,-0.5 716,-18.5 802,-18.5 802,-0.5 716,-0.5"/>
<text text-anchor="middle" x="759" y="-7.3" font-family="Calibri" font-size="9.00">button_proc_test</text>
</a>
</g>
</g>
<!-- Node1&#45;&gt;Node15 -->
<g id="edge26" class="edge"><title>Node1&#45;&gt;Node15</title>
<path fill="none" stroke="midnightblue" d="M953.639,-218.31C953.867,-177.603 948.219,-82.3391 894,-33.5 869.328,-11.2759 831.375,-6.21709 802.15,-6.1762"/>
<polygon fill="midnightblue" stroke="midnightblue" points="950.137,-218.403 953.448,-228.467 957.136,-218.535 950.137,-218.403"/>
</g>
<!-- Node16 -->
<g id="node16" class="node"><title>Node16</title>
<g id="a_node16"><a xlink:href="main_8c.html#ae5a14b4884e85f47ad8a4a716f13203a" target="_top" xlink:title=" ">
<polygon fill="none" stroke="black" points="842,-133.5 842,-151.5 890,-151.5 890,-133.5 842,-133.5"/>
<text text-anchor="middle" x="866" y="-140.3" font-family="Calibri" font-size="9.00">lcd_pwr</text>
</a>
</g>
</g>
<!-- Node1&#45;&gt;Node16 -->
<g id="edge30" class="edge"><title>Node1&#45;&gt;Node16</title>
<path fill="none" stroke="midnightblue" d="M937.983,-220.912C919.804,-200.83 889.831,-167.72 875.347,-151.721"/>
<polygon fill="midnightblue" stroke="midnightblue" points="935.448,-223.326 944.754,-228.391 940.637,-218.629 935.448,-223.326"/>
</g>
<!-- Node3 -->
<g id="node3" class="node"><title>Node3</title>
<g id="a_node3"><a xlink:href="main_8c.html#a11724d8cce81ed96bec12a004ea3ea7a" target="_top" xlink:title=" ">
<polygon fill="none" stroke="black" points="727,-437.5 727,-455.5 791,-455.5 791,-437.5 727,-437.5"/>
<text text-anchor="middle" x="759" y="-444.3" font-family="Calibri" font-size="9.00">show_reset</text>
</a>
</g>
</g>
<!-- Node2&#45;&gt;Node3 -->
<g id="edge2" class="edge"><title>Node2&#45;&gt;Node3</title>
<path fill="none" stroke="midnightblue" d="M847.254,-525.444C825.123,-505.42 788.032,-471.862 770.192,-455.721"/>
<polygon fill="midnightblue" stroke="midnightblue" points="845.169,-528.277 854.932,-532.391 849.865,-523.086 845.169,-528.277"/>
</g>
<!-- Node2&#45;&gt;Node9 -->
<g id="edge21" class="edge"><title>Node2&#45;&gt;Node9</title>
<path fill="none" stroke="midnightblue" d="M827.452,-535.625C749.049,-522.187 563.948,-484.271 428,-407.5 405.672,-394.891 384.504,-373.151 373.455,-360.794"/>
<polygon fill="midnightblue" stroke="midnightblue" points="827.349,-539.157 837.791,-537.361 828.508,-532.254 827.349,-539.157"/>
</g>
<!-- Node10 -->
<g id="node10" class="node"><title>Node10</title>
<g id="a_node10"><a xlink:href="main_8h.html#a1849f2e5bd63d11a7b9549470e287d17" target="_top" xlink:title=" ">
<polygon fill="none" stroke="black" points="266,-361.5 266,-379.5 301,-379.5 301,-361.5 266,-361.5"/>
<text text-anchor="middle" x="283.5" y="-368.3" font-family="Calibri" font-size="9.00">tune</text>
</a>
</g>
</g>
<!-- Node2&#45;&gt;Node10 -->
<g id="edge24" class="edge"><title>Node2&#45;&gt;Node10</title>
<path fill="none" stroke="midnightblue" d="M827.774,-542.776C797.486,-543.21 753.734,-542.461 716,-536.5 541.345,-508.909 490.6,-503.094 337,-415.5 319.689,-405.628 302.754,-389.638 292.985,-379.614"/>
<polygon fill="midnightblue" stroke="midnightblue" points="827.963,-546.273 837.894,-542.58 827.828,-539.275 827.963,-546.273"/>
</g>
<!-- Node14 -->
<g id="node14" class="node"><title>Node14</title>
<g id="a_node14"><a xlink:href="main_8c.html#a7a367b10f22edd310a36627b6c941255" target="_top" xlink:title=" ">
<polygon fill="none" stroke="black" points="629,-608.5 629,-626.5 680,-626.5 680,-608.5 629,-608.5"/>
<text text-anchor="middle" x="654.5" y="-615.3" font-family="Calibri" font-size="9.00">test_init</text>
</a>
</g>
</g>
<!-- Node2&#45;&gt;Node14 -->
<g id="edge22" class="edge"><title>Node2&#45;&gt;Node14</title>
<path fill="none" stroke="midnightblue" d="M849.805,-558.05C837.96,-569.873 820.466,-585.116 802,-593.5 761.988,-611.667 710.289,-616.281 680.219,-617.336"/>
<polygon fill="midnightblue" stroke="midnightblue" points="852.627,-560.166 857.047,-550.537 847.587,-555.308 852.627,-560.166"/>
</g>
<!-- Node3&#45;&gt;Node4 -->
<g id="edge3" class="edge"><title>Node3&#45;&gt;Node4</title>
<path fill="none" stroke="midnightblue" d="M716.914,-454.923C624.859,-471.265 399.683,-496.807 266,-388.5 179.153,-318.139 124.518,-187.034 110.869,-151.552"/>
<polygon fill="midnightblue" stroke="midnightblue" points="717.747,-458.329 726.951,-453.083 716.484,-451.443 717.747,-458.329"/>
</g>
<!-- Node6 -->
<g id="node6" class="node"><title>Node6</title>
<g id="a_node6"><a xlink:href="main_8h.html#ad7eb7423e0b17ccfba1ae42f3a3274e0" target="_top" xlink:title=" ">
<polygon fill="none" stroke="black" points="630.5,-380.5 630.5,-398.5 678.5,-398.5 678.5,-380.5 630.5,-380.5"/>
<text text-anchor="middle" x="654.5" y="-387.3" font-family="Calibri" font-size="9.00">get_swr</text>
</a>
</g>
</g>
<!-- Node3&#45;&gt;Node6 -->
<g id="edge5" class="edge"><title>Node3&#45;&gt;Node6</title>
<path fill="none" stroke="midnightblue" d="M732.545,-432.345C713.593,-421.805 688.276,-407.726 671.928,-398.635"/>
<polygon fill="midnightblue" stroke="midnightblue" points="731.091,-435.541 741.532,-437.342 734.493,-429.423 731.091,-435.541"/>
</g>
<!-- Node4&#45;&gt;Node5 -->
<g id="edge4" class="edge"><title>Node4&#45;&gt;Node5</title>
<path fill="none" stroke="midnightblue" d="M63.658,-142.5C54.7022,-142.5 45.6933,-142.5 38.2043,-142.5"/>
<polygon fill="midnightblue" stroke="midnightblue" points="63.663,-146 73.663,-142.5 63.6629,-139 63.663,-146"/>
</g>
<!-- Node6&#45;&gt;Node7 -->
<g id="edge6" class="edge"><title>Node6&#45;&gt;Node7</title>
<path fill="none" stroke="midnightblue" d="M635.342,-373.601C623.4,-363.218 607.379,-349.425 593,-337.5 586.942,-332.476 580.095,-326.984 574.473,-322.523"/>
<polygon fill="midnightblue" stroke="midnightblue" points="633.049,-376.246 642.887,-380.18 637.65,-370.97 633.049,-376.246"/>
</g>
<!-- Node6&#45;&gt;Node8 -->
<g id="edge12" class="edge"><title>Node6&#45;&gt;Node8</title>
<path fill="none" stroke="midnightblue" d="M621.117,-376.615C582.472,-361.238 518.858,-335.925 485.131,-322.505"/>
<polygon fill="midnightblue" stroke="midnightblue" points="620.254,-380.038 630.84,-380.483 622.842,-373.534 620.254,-380.038"/>
</g>
<!-- Node6&#45;&gt;Node9 -->
<g id="edge19" class="edge"><title>Node6&#45;&gt;Node9</title>
<path fill="none" stroke="midnightblue" d="M620.395,-385.132C562.821,-377.535 445.351,-362.036 392.419,-355.052"/>
<polygon fill="midnightblue" stroke="midnightblue" points="620.047,-388.616 630.419,-386.455 620.962,-381.676 620.047,-388.616"/>
</g>
<!-- Node6&#45;&gt;Node10 -->
<g id="edge20" class="edge"><title>Node6&#45;&gt;Node10</title>
<path fill="none" stroke="midnightblue" d="M630.893,-403.817C619.908,-409.945 606.243,-416.397 593,-419.5 481.653,-445.591 446.821,-425.41 337,-393.5 324.578,-389.89 311.233,-384.016 301.107,-379.107"/>
<polygon fill="midnightblue" stroke="midnightblue" points="632.922,-406.685 639.779,-398.607 629.382,-400.646 632.922,-406.685"/>
</g>
<!-- Node6&#45;&gt;Node12 -->
<g id="edge13" class="edge"><title>Node6&#45;&gt;Node12</title>
<path fill="none" stroke="midnightblue" d="M642.818,-371.56C623.438,-339.008 583.13,-271.31 568.476,-246.698"/>
<polygon fill="midnightblue" stroke="midnightblue" points="639.987,-373.645 648.11,-380.447 646.001,-370.064 639.987,-373.645"/>
</g>
<!-- Node13 -->
<g id="node13" class="node"><title>Node13</title>
<g id="a_node13"><a xlink:href="main_8h.html#a72210b3ed1d5691c5bbda8c7f1e97197" target="_top" xlink:title=" ">
<polygon fill="none" stroke="black" points="432.5,-380.5 432.5,-398.5 490.5,-398.5 490.5,-380.5 432.5,-380.5"/>
<text text-anchor="middle" x="461.5" y="-387.3" font-family="Calibri" font-size="9.00">sharp_ind</text>
</a>
</g>
</g>
<!-- Node6&#45;&gt;Node13 -->
<g id="edge16" class="edge"><title>Node6&#45;&gt;Node13</title>
<path fill="none" stroke="midnightblue" d="M620.481,-398.569C611.626,-400.608 602.008,-402.471 593,-403.5 565.622,-406.626 558.416,-406.273 531,-403.5 517.595,-402.144 502.936,-399.332 490.632,-396.581"/>
<polygon fill="midnightblue" stroke="midnightblue" points="621.561,-401.908 630.444,-396.134 619.899,-395.108 621.561,-401.908"/>
</g>
<!-- Node7&#45;&gt;Node8 -->
<g id="edge7" class="edge"><title>Node7&#45;&gt;Node8</title>
<path fill="none" stroke="midnightblue" d="M520.77,-313.5C512.245,-313.5 503.347,-313.5 495.145,-313.5"/>
<polygon fill="midnightblue" stroke="midnightblue" points="520.912,-317 530.912,-313.5 520.912,-310 520.912,-317"/>
</g>
<!-- Node8&#45;&gt;Node9 -->
<g id="edge8" class="edge"><title>Node8&#45;&gt;Node9</title>
<path fill="none" stroke="midnightblue" d="M428.325,-326.37C415.139,-331.644 400.189,-337.624 388.181,-342.427"/>
<polygon fill="midnightblue" stroke="midnightblue" points="430.001,-329.469 437.986,-322.505 427.402,-322.97 430.001,-329.469"/>
</g>
<!-- Node9&#45;&gt;Node10 -->
<g id="edge9" class="edge"><title>Node9&#45;&gt;Node10</title>
<path fill="none" stroke="midnightblue" d="M326.778,-360.332C317.78,-362.496 308.589,-364.706 301.085,-366.511"/>
<polygon fill="midnightblue" stroke="midnightblue" points="327.85,-363.674 336.754,-357.933 326.213,-356.868 327.85,-363.674"/>
</g>
<!-- Node11 -->
<g id="node11" class="node"><title>Node11</title>
<g id="a_node11"><a xlink:href="main_8c.html#af18ed7edda7874a97cacaa11a2759260" target="_top" xlink:title=" ">
<polygon fill="none" stroke="black" points="175,-152.5 175,-170.5 230,-170.5 230,-152.5 175,-152.5"/>
<text text-anchor="middle" x="202.5" y="-159.3" font-family="Calibri" font-size="9.00">btn_push</text>
</a>
</g>
</g>
<!-- Node10&#45;&gt;Node11 -->
<g id="edge10" class="edge"><title>Node10&#45;&gt;Node11</title>
<path fill="none" stroke="midnightblue" d="M275.367,-351.63C258.945,-308.183 218.951,-202.376 206.956,-170.643"/>
<polygon fill="midnightblue" stroke="midnightblue" points="272.194,-353.133 279.004,-361.25 278.742,-350.658 272.194,-353.133"/>
</g>
<!-- Node11&#45;&gt;Node4 -->
<g id="edge11" class="edge"><title>Node11&#45;&gt;Node4</title>
<path fill="none" stroke="midnightblue" d="M164.824,-154.087C156.379,-152.38 147.466,-150.578 139.25,-148.918"/>
<polygon fill="midnightblue" stroke="midnightblue" points="164.32,-157.556 174.815,-156.106 165.706,-150.694 164.32,-157.556"/>
</g>
<!-- Node12&#45;&gt;Node9 -->
<g id="edge14" class="edge"><title>Node12&#45;&gt;Node9</title>
<path fill="none" stroke="midnightblue" d="M522.981,-249.934C495.425,-259.845 457.909,-275.239 428,-294.5 406.27,-308.494 384.878,-330.188 373.63,-342.38"/>
<polygon fill="midnightblue" stroke="midnightblue" points="524.377,-253.153 532.65,-246.534 522.055,-246.55 524.377,-253.153"/>
</g>
<!-- Node12&#45;&gt;Node10 -->
<g id="edge15" class="edge"><title>Node12&#45;&gt;Node10</title>
<path fill="none" stroke="midnightblue" d="M522.004,-238.124C494.696,-239.795 457.894,-244.573 428,-257.5 368.916,-283.05 313.303,-339.134 292.808,-361.261"/>
<polygon fill="midnightblue" stroke="midnightblue" points="522.524,-241.603 532.338,-237.611 522.177,-234.611 522.524,-241.603"/>
</g>
<!-- Node13&#45;&gt;Node9 -->
<g id="edge17" class="edge"><title>Node13&#45;&gt;Node9</title>
<path fill="none" stroke="midnightblue" d="M428.325,-376.63C415.139,-371.356 400.189,-365.376 388.181,-360.573"/>
<polygon fill="midnightblue" stroke="midnightblue" points="427.402,-380.03 437.986,-380.495 430.001,-373.531 427.402,-380.03"/>
</g>
<!-- Node13&#45;&gt;Node10 -->
<g id="edge18" class="edge"><title>Node13&#45;&gt;Node10</title>
<path fill="none" stroke="midnightblue" d="M422.097,-385.354C384.36,-381.28 328.557,-375.256 301.055,-372.287"/>
<polygon fill="midnightblue" stroke="midnightblue" points="421.905,-388.854 432.223,-386.447 422.656,-381.894 421.905,-388.854"/>
</g>
<!-- Node14&#45;&gt;Node5 -->
<g id="edge23" class="edge"><title>Node14&#45;&gt;Node5</title>
<path fill="none" stroke="midnightblue" d="M618.669,-617.5C580.382,-617.5 517.058,-617.5 462.5,-617.5 462.5,-617.5 462.5,-617.5 201.5,-617.5 97.7705,-617.5 31.5379,-217.233 21.3696,-151.565"/>
<polygon fill="midnightblue" stroke="midnightblue" points="618.775,-621 628.775,-617.5 618.775,-614 618.775,-621"/>
</g>
<!-- Node15&#45;&gt;Node5 -->
<g id="edge27" class="edge"><title>Node15&#45;&gt;Node5</title>
<path fill="none" stroke="midnightblue" d="M705.647,-9.5C666.386,-9.5 611.325,-9.5 563,-9.5 563,-9.5 563,-9.5 201.5,-9.5 143.838,-9.5 119.958,1.32459 74,-33.5 39.9993,-59.264 26.0345,-112.235 21.6559,-133.435"/>
<polygon fill="midnightblue" stroke="midnightblue" points="705.777,-13.0001 715.777,-9.5 705.777,-6.0001 705.777,-13.0001"/>
</g>
<!-- Node16&#45;&gt;Node3 -->
<g id="edge35" class="edge"><title>Node16&#45;&gt;Node3</title>
<path fill="none" stroke="midnightblue" d="M858.497,-161.328C838.377,-219.579 777.626,-395.469 763.13,-437.437"/>
<polygon fill="midnightblue" stroke="midnightblue" points="861.901,-162.193 861.858,-151.598 855.285,-159.908 861.901,-162.193"/>
</g>
<!-- Node16&#45;&gt;Node4 -->
<g id="edge32" class="edge"><title>Node16&#45;&gt;Node4</title>
<path fill="none" stroke="midnightblue" d="M831.779,-137.617C790.536,-131.988 717.989,-123.5 655.5,-123.5 655.5,-123.5 655.5,-123.5 282.5,-123.5 232.075,-123.5 173.953,-131.393 139.003,-137.004"/>
<polygon fill="midnightblue" stroke="midnightblue" points="831.424,-141.102 841.811,-139.015 832.39,-134.169 831.424,-141.102"/>
</g>
<!-- Node16&#45;&gt;Node5 -->
<g id="edge34" class="edge"><title>Node16&#45;&gt;Node5</title>
<path fill="none" stroke="midnightblue" d="M836.211,-129.434C796.439,-112.607 722.044,-85.5 655.5,-85.5 655.5,-85.5 655.5,-85.5 363.5,-85.5 233.73,-85.5 200.221,-93.3572 74,-123.5 61.8201,-126.409 48.5484,-131.057 38.2102,-135.028"/>
<polygon fill="midnightblue" stroke="midnightblue" points="834.983,-132.716 845.551,-133.468 837.758,-126.29 834.983,-132.716"/>
</g>
<!-- Node16&#45;&gt;Node11 -->
<g id="edge31" class="edge"><title>Node16&#45;&gt;Node11</title>
<path fill="none" stroke="midnightblue" d="M831.779,-147.383C790.536,-153.012 717.989,-161.5 655.5,-161.5 655.5,-161.5 655.5,-161.5 363.5,-161.5 316.556,-161.5 261.863,-161.5 230.112,-161.5"/>
<polygon fill="midnightblue" stroke="midnightblue" points="832.39,-150.831 841.811,-145.985 831.424,-143.898 832.39,-150.831"/>
</g>
<!-- Node16&#45;&gt;Node15 -->
<g id="edge33" class="edge"><title>Node16&#45;&gt;Node15</title>
<path fill="none" stroke="midnightblue" d="M851.574,-125.494C829.122,-97.0548 784.703,-40.7909 767.268,-18.7056"/>
<polygon fill="midnightblue" stroke="midnightblue" points="848.839,-127.678 857.783,-133.358 854.334,-123.341 848.839,-127.678"/>
</g>
</g>
</svg>
