<?xml version="1.0" encoding="UTF-8" standalone="no"?>
<!DOCTYPE svg PUBLIC "-//W3C//DTD SVG 1.1//EN"
 "http://www.w3.org/Graphics/SVG/1.1/DTD/svg11.dtd">
<!-- Generated by graphviz version 2.38.0 (20140413.2041)
 -->
<!-- Title: lcd_ind Pages: 1 -->
<svg width="479pt" height="170pt"
 viewBox="0.00 0.00 479.00 170.19" xmlns="http://www.w3.org/2000/svg" xmlns:xlink="http://www.w3.org/1999/xlink">
<g id="graph0" class="graph" transform="scale(1 1) rotate(0) translate(4 166.194)">
<title>lcd_ind</title>
<!-- Node246 -->
<g id="node1" class="node"><title>Node246</title>
<polygon fill="#bfbfbf" stroke="black" points="0,-69.7254 0,-87.7254 47,-87.7254 47,-69.7254 0,-69.7254"/>
<text text-anchor="middle" x="23.5" y="-76.5254" font-family="Calibri" font-size="9.00">lcd_ind</text>
</g>
<!-- Node247 -->
<g id="node2" class="node"><title>Node247</title>
<g id="a_node2"><a xlink:href="oled__control_8c.html#a9d56c6c2e653b24a0caf505492ad818a" target="_top" xlink:title="led_wr_str">
<polygon fill="none" stroke="black" points="83,-69.7254 83,-87.7254 142,-87.7254 142,-69.7254 83,-69.7254"/>
<text text-anchor="middle" x="112.5" y="-76.5254" font-family="Calibri" font-size="9.00">led_wr_str</text>
</a>
</g>
</g>
<!-- Node246&#45;&gt;Node247 -->
<g id="edge1" class="edge"><title>Node246&#45;&gt;Node247</title>
<path fill="none" stroke="midnightblue" d="M47.3582,-78.7254C55.1743,-78.7254 64.1478,-78.7254 72.8581,-78.7254"/>
<polygon fill="midnightblue" stroke="midnightblue" points="72.8774,-82.2255 82.8774,-78.7254 72.8773,-75.2255 72.8774,-82.2255"/>
</g>
<!-- Node248 -->
<g id="node3" class="node"><title>Node248</title>
<g id="a_node3"><a xlink:href="oled__control_8c.html#a7c3a2e5f1fed76dc27692132a2574d27" target="_top" xlink:title="oled_wr_str">
<polygon fill="none" stroke="black" points="178,-88.7254 178,-106.725 243,-106.725 243,-88.7254 178,-88.7254"/>
<text text-anchor="middle" x="210.5" y="-95.5254" font-family="Calibri" font-size="9.00">oled_wr_str</text>
</a>
</g>
</g>
<!-- Node247&#45;&gt;Node248 -->
<g id="edge2" class="edge"><title>Node247&#45;&gt;Node248</title>
<path fill="none" stroke="midnightblue" d="M142.043,-84.3745C150.147,-85.9785 159.142,-87.7586 167.852,-89.4826"/>
<polygon fill="midnightblue" stroke="midnightblue" points="167.388,-92.9584 177.877,-91.4666 168.747,-86.0916 167.388,-92.9584"/>
</g>
<!-- Node253 -->
<g id="node8" class="node"><title>Node253</title>
<g id="a_node8"><a xlink:href="oled__control_8c.html#ad25764a33e482f4e9db2701198e02551" target="_top" xlink:title="led_send">
<polygon fill="none" stroke="black" points="183,-31.7254 183,-49.7254 238,-49.7254 238,-31.7254 183,-31.7254"/>
<text text-anchor="middle" x="210.5" y="-38.5254" font-family="Calibri" font-size="9.00">led_send</text>
</a>
</g>
</g>
<!-- Node247&#45;&gt;Node253 -->
<g id="edge9" class="edge"><title>Node247&#45;&gt;Node253</title>
<path fill="none" stroke="midnightblue" d="M136.251,-69.7199C148.476,-64.8808 163.755,-58.8326 177.192,-53.514"/>
<polygon fill="midnightblue" stroke="midnightblue" points="178.57,-56.7328 186.58,-49.7979 175.994,-50.2241 178.57,-56.7328"/>
</g>
<!-- Node249 -->
<g id="node4" class="node"><title>Node249</title>
<g id="a_node4"><a xlink:href="oled__control_8c.html#ab7f6b5c6c1483f6286f2de5786c028d9" target="_top" xlink:title="Soft_I2C_Start">
<polygon fill="none" stroke="black" points="397,-126.725 397,-144.725 469,-144.725 469,-126.725 397,-126.725"/>
<text text-anchor="middle" x="433" y="-133.525" font-family="Calibri" font-size="9.00">Soft_I2C_Start</text>
</a>
</g>
</g>
<!-- Node248&#45;&gt;Node249 -->
<g id="edge3" class="edge"><title>Node248&#45;&gt;Node249</title>
<path fill="none" stroke="midnightblue" d="M218.588,-106.857C229.727,-120.372 252.783,-145.137 279,-154.725 319.036,-169.368 368.474,-158.438 400.12,-148.087"/>
<polygon fill="midnightblue" stroke="midnightblue" points="401.418,-151.342 409.735,-144.779 399.141,-144.722 401.418,-151.342"/>
</g>
<!-- Node250 -->
<g id="node5" class="node"><title>Node250</title>
<g id="a_node5"><a xlink:href="oled__control_8c.html#a73610916645f17c19124e697b005f694" target="_top" xlink:title="Soft_I2C_Write">
<polygon fill="none" stroke="black" points="395,-88.7254 395,-106.725 471,-106.725 471,-88.7254 395,-88.7254"/>
<text text-anchor="middle" x="433" y="-95.5254" font-family="Calibri" font-size="9.00">Soft_I2C_Write</text>
</a>
</g>
</g>
<!-- Node248&#45;&gt;Node250 -->
<g id="edge4" class="edge"><title>Node248&#45;&gt;Node250</title>
<path fill="none" stroke="midnightblue" d="M243.092,-97.7254C280.166,-97.7254 342.001,-97.7254 384.776,-97.7254"/>
<polygon fill="midnightblue" stroke="midnightblue" points="384.944,-101.225 394.944,-97.7254 384.944,-94.2255 384.944,-101.225"/>
</g>
<!-- Node251 -->
<g id="node6" class="node"><title>Node251</title>
<g id="a_node6"><a xlink:href="oled__control_8c.html#a6df77e8ec83c50ed6a5ddaf54aa3a9c2" target="_top" xlink:title="set_addressing">
<polygon fill="none" stroke="black" points="279,-126.725 279,-144.725 359,-144.725 359,-126.725 279,-126.725"/>
<text text-anchor="middle" x="319" y="-133.525" font-family="Calibri" font-size="9.00">set_addressing</text>
</a>
</g>
</g>
<!-- Node248&#45;&gt;Node251 -->
<g id="edge5" class="edge"><title>Node248&#45;&gt;Node251</title>
<path fill="none" stroke="midnightblue" d="M236.739,-106.731C250.565,-111.664 267.912,-117.853 283.024,-123.246"/>
<polygon fill="midnightblue" stroke="midnightblue" points="281.978,-126.589 292.573,-126.653 284.331,-119.996 281.978,-126.589"/>
</g>
<!-- Node252 -->
<g id="node7" class="node"><title>Node252</title>
<g id="a_node7"><a xlink:href="oled__control_8c.html#a16eb842aa672ca44820ae6d5f9933425" target="_top" xlink:title="Soft_I2C_Stop">
<polygon fill="none" stroke="black" points="283.5,-50.7254 283.5,-68.7254 354.5,-68.7254 354.5,-50.7254 283.5,-50.7254"/>
<text text-anchor="middle" x="319" y="-57.5254" font-family="Calibri" font-size="9.00">Soft_I2C_Stop</text>
</a>
</g>
</g>
<!-- Node248&#45;&gt;Node252 -->
<g id="edge8" class="edge"><title>Node248&#45;&gt;Node252</title>
<path fill="none" stroke="midnightblue" d="M236.739,-88.7199C250.565,-83.7869 267.912,-77.5972 283.024,-72.205"/>
<polygon fill="midnightblue" stroke="midnightblue" points="284.331,-75.455 292.573,-68.7979 281.978,-68.8621 284.331,-75.455"/>
</g>
<!-- Node251&#45;&gt;Node249 -->
<g id="edge6" class="edge"><title>Node251&#45;&gt;Node249</title>
<path fill="none" stroke="midnightblue" d="M359.172,-135.725C368.064,-135.725 377.579,-135.725 386.701,-135.725"/>
<polygon fill="midnightblue" stroke="midnightblue" points="386.779,-139.225 396.779,-135.725 386.779,-132.225 386.779,-139.225"/>
</g>
<!-- Node251&#45;&gt;Node250 -->
<g id="edge7" class="edge"><title>Node251&#45;&gt;Node250</title>
<path fill="none" stroke="midnightblue" d="M346.542,-126.72C361.22,-121.74 379.673,-115.479 395.671,-110.051"/>
<polygon fill="midnightblue" stroke="midnightblue" points="396.915,-113.325 405.26,-106.798 394.666,-106.696 396.915,-113.325"/>
</g>
<!-- Node253&#45;&gt;Node249 -->
<g id="edge10" class="edge"><title>Node253&#45;&gt;Node249</title>
<path fill="none" stroke="midnightblue" d="M238.084,-33.0304C269.564,-25.581 322.34,-18.4841 359,-41.7254 390.228,-61.523 369.209,-90.2315 395,-116.725 396.555,-118.323 398.273,-119.811 400.093,-121.194"/>
<polygon fill="midnightblue" stroke="midnightblue" points="398.214,-124.147 408.524,-126.587 401.986,-118.25 398.214,-124.147"/>
</g>
<!-- Node253&#45;&gt;Node250 -->
<g id="edge11" class="edge"><title>Node253&#45;&gt;Node250</title>
<path fill="none" stroke="midnightblue" d="M226.019,-31.5056C253.29,-15.4519 313.517,13.9465 359,-7.72536 390.045,-22.5177 412.177,-57.6799 423.459,-79.4157"/>
<polygon fill="midnightblue" stroke="midnightblue" points="420.427,-81.1823 427.994,-88.5981 426.704,-78.0822 420.427,-81.1823"/>
</g>
<!-- Node253&#45;&gt;Node252 -->
<g id="edge12" class="edge"><title>Node253&#45;&gt;Node252</title>
<path fill="none" stroke="midnightblue" d="M238.1,-45.4709C248.785,-47.3772 261.4,-49.6277 273.411,-51.7704"/>
<polygon fill="midnightblue" stroke="midnightblue" points="272.842,-55.2243 283.302,-53.5351 274.072,-48.3331 272.842,-55.2243"/>
</g>
</g>
</svg>
