<?xml version="1.0" encoding="UTF-8" standalone="no"?>
<!DOCTYPE svg PUBLIC "-//W3C//DTD SVG 1.1//EN"
 "http://www.w3.org/Graphics/SVG/1.1/DTD/svg11.dtd">
<!-- Generated by graphviz version 2.38.0 (20140413.2041)
 -->
<!-- Title: sub_tune Pages: 1 -->
<svg width="876pt" height="506pt"
 viewBox="0.00 0.00 876.00 506.07" xmlns="http://www.w3.org/2000/svg" xmlns:xlink="http://www.w3.org/1999/xlink">
<g id="graph0" class="graph" transform="scale(1 1) rotate(0) translate(4 502.07)">
<title>sub_tune</title>
<!-- Node1 -->
<g id="node1" class="node"><title>Node1</title>
<g id="a_node1"><a xlink:title=" ">
<polygon fill="#bfbfbf" stroke="black" points="0,-335.884 0,-353.884 55,-353.884 55,-335.884 0,-335.884"/>
<text text-anchor="middle" x="27.5" y="-342.684" font-family="Calibri" font-size="9.00">sub_tune</text>
</a>
</g>
</g>
<!-- Node2 -->
<g id="node2" class="node"><title>Node2</title>
<g id="a_node2"><a xlink:href="main_8h.html#a9dff326a6079fe726285b11ee837ad60" target="_top" xlink:title=" ">
<polygon fill="none" stroke="black" points="476,-374.884 476,-392.884 532,-392.884 532,-374.884 476,-374.884"/>
<text text-anchor="middle" x="504" y="-381.684" font-family="Calibri" font-size="9.00">atu_reset</text>
</a>
</g>
</g>
<!-- Node1&#45;&gt;Node2 -->
<g id="edge1" class="edge"><title>Node1&#45;&gt;Node2</title>
<path fill="none" stroke="midnightblue" d="M31.876,-353.891C39.3721,-372.549 59.2891,-415.39 91,-435.884 141.447,-468.487 163.934,-459.884 224,-459.884 224,-459.884 224,-459.884 317,-459.884 372.698,-459.884 389.64,-459.676 440,-435.884 458.128,-427.319 475.448,-412.355 487.323,-400.672"/>
<polygon fill="midnightblue" stroke="midnightblue" points="490.119,-402.819 494.617,-393.227 485.119,-397.92 490.119,-402.819"/>
</g>
<!-- Node3 -->
<g id="node3" class="node"><title>Node3</title>
<g id="a_node3"><a xlink:href="main_8h.html#a2a7963b9b09696c6654b96c67900c6ea" target="_top" xlink:title=" ">
<polygon fill="none" stroke="black" points="579.5,-315.884 579.5,-333.884 627.5,-333.884 627.5,-315.884 579.5,-315.884"/>
<text text-anchor="middle" x="603.5" y="-322.684" font-family="Calibri" font-size="9.00">set_cap</text>
</a>
</g>
</g>
<!-- Node1&#45;&gt;Node3 -->
<g id="edge44" class="edge"><title>Node1&#45;&gt;Node3</title>
<path fill="none" stroke="midnightblue" d="M41.541,-354.019C71.9744,-374.415 150.678,-421.884 224,-421.884 224,-421.884 224,-421.884 317,-421.884 392.07,-421.884 404.865,-388.871 476,-364.884 507.6,-354.228 543.918,-342.831 569.51,-334.939"/>
<polygon fill="midnightblue" stroke="midnightblue" points="570.569,-338.276 579.099,-331.992 568.512,-331.585 570.569,-338.276"/>
</g>
<!-- Node4 -->
<g id="node4" class="node"><title>Node4</title>
<g id="a_node4"><a xlink:href="main_8h.html#aecc83cd8bceb4bc24be844732ead2c2c" target="_top" xlink:title=" ">
<polygon fill="none" stroke="black" points="580,-412.884 580,-430.884 627,-430.884 627,-412.884 580,-412.884"/>
<text text-anchor="middle" x="603.5" y="-419.684" font-family="Calibri" font-size="9.00">set_ind</text>
</a>
</g>
</g>
<!-- Node1&#45;&gt;Node4 -->
<g id="edge45" class="edge"><title>Node1&#45;&gt;Node4</title>
<path fill="none" stroke="midnightblue" d="M30.6862,-354.202C36.4329,-376.577 54.1283,-433.641 91,-462.884 138.891,-500.865 162.876,-497.884 224,-497.884 224,-497.884 224,-497.884 409,-497.884 475.311,-497.884 546.107,-458.739 580.796,-436.636"/>
<polygon fill="midnightblue" stroke="midnightblue" points="583.125,-439.295 589.589,-430.9 579.301,-433.432 583.125,-439.295"/>
</g>
<!-- Node5 -->
<g id="node5" class="node"><title>Node5</title>
<g id="a_node5"><a xlink:href="main_8h.html#a5c7c60c7d70cf76cc52e87722bb0f614" target="_top" xlink:title=" ">
<polygon fill="none" stroke="black" points="91,-260.884 91,-278.884 158,-278.884 158,-260.884 91,-260.884"/>
<text text-anchor="middle" x="124.5" y="-267.684" font-family="Calibri" font-size="9.00">coarse_tune</text>
</a>
</g>
</g>
<!-- Node1&#45;&gt;Node5 -->
<g id="edge4" class="edge"><title>Node1&#45;&gt;Node5</title>
<path fill="none" stroke="midnightblue" d="M40.1489,-335.687C56.0463,-323.137 84.7527,-300.474 103.971,-285.302"/>
<polygon fill="midnightblue" stroke="midnightblue" points="106.373,-287.865 112.053,-278.921 102.035,-282.37 106.373,-287.865"/>
</g>
<!-- Node7 -->
<g id="node7" class="node"><title>Node7</title>
<g id="a_node7"><a xlink:href="main_8h.html#ad7eb7423e0b17ccfba1ae42f3a3274e0" target="_top" xlink:title=" ">
<polygon fill="none" stroke="black" points="292,-184.884 292,-202.884 340,-202.884 340,-184.884 292,-184.884"/>
<text text-anchor="middle" x="316" y="-191.684" font-family="Calibri" font-size="9.00">get_swr</text>
</a>
</g>
</g>
<!-- Node1&#45;&gt;Node7 -->
<g id="edge43" class="edge"><title>Node1&#45;&gt;Node7</title>
<path fill="none" stroke="midnightblue" d="M32.6686,-335.828C41.3459,-317.767 62.9017,-276.785 91,-250.884 129.469,-215.422 143.342,-206.966 194,-193.884 222.88,-186.426 256.947,-187.241 281.562,-189.446"/>
<polygon fill="midnightblue" stroke="midnightblue" points="281.518,-192.959 291.822,-190.494 282.23,-185.996 281.518,-192.959"/>
</g>
<!-- Node25 -->
<g id="node25" class="node"><title>Node25</title>
<g id="a_node25"><a xlink:href="main_8h.html#ae0c1e0ec712704e43db40473f103d621" target="_top" xlink:title="Set the state of the switch.">
<polygon fill="none" stroke="black" points="581,-15.8836 581,-33.8836 626,-33.8836 626,-15.8836 581,-15.8836"/>
<text text-anchor="middle" x="603.5" y="-22.6836" font-family="Calibri" font-size="9.00">set_sw</text>
</a>
</g>
</g>
<!-- Node1&#45;&gt;Node25 -->
<g id="edge46" class="edge"><title>Node1&#45;&gt;Node25</title>
<path fill="none" stroke="midnightblue" d="M29.2191,-335.763C34.0309,-281.534 66.364,-3.88364 224,-3.88364 224,-3.88364 224,-3.88364 409,-3.88364 466.296,-3.88364 532.58,-13.0962 570.811,-19.3176"/>
<polygon fill="midnightblue" stroke="midnightblue" points="570.38,-22.794 580.819,-20.9829 571.529,-15.889 570.38,-22.794"/>
</g>
<!-- Node26 -->
<g id="node26" class="node"><title>Node26</title>
<g id="a_node26"><a xlink:href="main_8h.html#ab518a3d2c723f12d3af3024a195606ce" target="_top" xlink:title=" ">
<polygon fill="none" stroke="black" points="195.5,-298.884 195.5,-316.884 254.5,-316.884 254.5,-298.884 195.5,-298.884"/>
<text text-anchor="middle" x="225" y="-305.684" font-family="Calibri" font-size="9.00">sharp_cap</text>
</a>
</g>
</g>
<!-- Node1&#45;&gt;Node26 -->
<g id="edge47" class="edge"><title>Node1&#45;&gt;Node26</title>
<path fill="none" stroke="midnightblue" d="M55.2735,-339.817C88.825,-333.467 146.581,-322.536 185.032,-315.259"/>
<polygon fill="midnightblue" stroke="midnightblue" points="186.155,-318.608 195.33,-313.31 184.853,-311.73 186.155,-318.608"/>
</g>
<!-- Node27 -->
<g id="node27" class="node"><title>Node27</title>
<g id="a_node27"><a xlink:href="main_8h.html#a72210b3ed1d5691c5bbda8c7f1e97197" target="_top" xlink:title=" ">
<polygon fill="none" stroke="black" points="196,-374.884 196,-392.884 254,-392.884 254,-374.884 196,-374.884"/>
<text text-anchor="middle" x="225" y="-381.684" font-family="Calibri" font-size="9.00">sharp_ind</text>
</a>
</g>
</g>
<!-- Node1&#45;&gt;Node27 -->
<g id="edge50" class="edge"><title>Node1&#45;&gt;Node27</title>
<path fill="none" stroke="midnightblue" d="M55.2735,-350.225C89.0162,-356.956 147.24,-368.571 185.688,-376.241"/>
<polygon fill="midnightblue" stroke="midnightblue" points="185.479,-379.768 195.971,-378.292 186.849,-372.903 185.479,-379.768"/>
</g>
<!-- Node2&#45;&gt;Node3 -->
<g id="edge2" class="edge"><title>Node2&#45;&gt;Node3</title>
<path fill="none" stroke="midnightblue" d="M520.234,-374.665C535.832,-365.226 560.303,-350.418 578.505,-339.403"/>
<polygon fill="midnightblue" stroke="midnightblue" points="580.629,-342.209 587.373,-334.038 577.005,-336.22 580.629,-342.209"/>
</g>
<!-- Node2&#45;&gt;Node4 -->
<g id="edge3" class="edge"><title>Node2&#45;&gt;Node4</title>
<path fill="none" stroke="midnightblue" d="M528.106,-392.889C540.703,-397.799 556.494,-403.953 570.284,-409.327"/>
<polygon fill="midnightblue" stroke="midnightblue" points="569.308,-412.704 579.896,-413.074 571.85,-406.181 569.308,-412.704"/>
</g>
<!-- Node5&#45;&gt;Node3 -->
<g id="edge41" class="edge"><title>Node5&#45;&gt;Node3</title>
<path fill="none" stroke="midnightblue" d="M158.026,-269.884C195.773,-269.884 259.894,-269.884 315,-269.884 315,-269.884 315,-269.884 409,-269.884 469.913,-269.884 537.644,-295.413 574.628,-311.686"/>
<polygon fill="midnightblue" stroke="midnightblue" points="573.223,-314.892 583.779,-315.802 576.095,-308.508 573.223,-314.892"/>
</g>
<!-- Node5&#45;&gt;Node4 -->
<g id="edge42" class="edge"><title>Node5&#45;&gt;Node4</title>
<path fill="none" stroke="midnightblue" d="M134.341,-279.255C146.591,-291.698 169.949,-313.537 194,-325.884 322.84,-392.027 497.914,-413.334 569.723,-419.553"/>
<polygon fill="midnightblue" stroke="midnightblue" points="569.692,-423.063 579.945,-420.396 570.267,-416.086 569.692,-423.063"/>
</g>
<!-- Node6 -->
<g id="node6" class="node"><title>Node6</title>
<g id="a_node6"><a xlink:href="main_8h.html#a740ef1b33bb02cd952ad7d8708999472" target="_top" xlink:title=" ">
<polygon fill="none" stroke="black" points="194,-222.884 194,-240.884 256,-240.884 256,-222.884 194,-222.884"/>
<text text-anchor="middle" x="225" y="-229.684" font-family="Calibri" font-size="9.00">coarse_cap</text>
</a>
</g>
</g>
<!-- Node5&#45;&gt;Node6 -->
<g id="edge5" class="edge"><title>Node5&#45;&gt;Node6</title>
<path fill="none" stroke="midnightblue" d="M148.843,-260.878C161.387,-256.039 177.064,-249.991 190.851,-244.672"/>
<polygon fill="midnightblue" stroke="midnightblue" points="192.413,-247.821 200.483,-240.956 189.894,-241.29 192.413,-247.821"/>
</g>
<!-- Node5&#45;&gt;Node7 -->
<g id="edge40" class="edge"><title>Node5&#45;&gt;Node7</title>
<path fill="none" stroke="midnightblue" d="M133.319,-260.831C145.07,-247.879 168.628,-224.363 194,-212.884 221.801,-200.305 256.454,-195.858 281.542,-194.379"/>
<polygon fill="midnightblue" stroke="midnightblue" points="281.833,-197.869 291.661,-193.912 281.51,-190.877 281.833,-197.869"/>
</g>
<!-- Node6&#45;&gt;Node3 -->
<g id="edge39" class="edge"><title>Node6&#45;&gt;Node3</title>
<path fill="none" stroke="midnightblue" d="M256.19,-226.366C313.962,-217.42 442.369,-205.45 532,-255.884 555.865,-269.312 547.505,-287.723 568,-305.884 569.746,-307.431 571.64,-308.904 573.611,-310.294"/>
<polygon fill="midnightblue" stroke="midnightblue" points="572.187,-313.53 582.528,-315.837 575.883,-307.585 572.187,-313.53"/>
</g>
<!-- Node6&#45;&gt;Node7 -->
<g id="edge6" class="edge"><title>Node6&#45;&gt;Node7</title>
<path fill="none" stroke="midnightblue" d="M247.092,-222.878C258.205,-218.133 272.042,-212.225 284.32,-206.983"/>
<polygon fill="midnightblue" stroke="midnightblue" points="285.929,-210.102 293.751,-202.956 283.18,-203.664 285.929,-210.102"/>
</g>
<!-- Node8 -->
<g id="node8" class="node"><title>Node8</title>
<g id="a_node8"><a xlink:href="main_8h.html#ab37ca657b79c6b9176cb63e9d812a182" target="_top" xlink:title=" ">
<polygon fill="none" stroke="black" points="579,-278.884 579,-296.884 628,-296.884 628,-278.884 579,-278.884"/>
<text text-anchor="middle" x="603.5" y="-285.684" font-family="Calibri" font-size="9.00">get_pwr</text>
</a>
</g>
</g>
<!-- Node7&#45;&gt;Node8 -->
<g id="edge7" class="edge"><title>Node7&#45;&gt;Node8</title>
<path fill="none" stroke="midnightblue" d="M340.252,-190.609C381.89,-185.946 470.562,-181.584 532,-217.884 555.887,-231.997 547.321,-250.386 568,-268.884 569.739,-270.439 571.628,-271.918 573.595,-273.312"/>
<polygon fill="midnightblue" stroke="midnightblue" points="572.165,-276.545 582.503,-278.864 575.868,-270.605 572.165,-276.545"/>
</g>
<!-- Node12 -->
<g id="node12" class="node"><title>Node12</title>
<g id="a_node12"><a xlink:href="main_8c.html#a4ae0d4fa97fc0ca3611813fee4f9af7c" target="_top" xlink:title=" ">
<polygon fill="none" stroke="black" points="574.5,-52.8836 574.5,-70.8836 632.5,-70.8836 632.5,-52.8836 574.5,-52.8836"/>
<text text-anchor="middle" x="603.5" y="-59.6836" font-family="Calibri" font-size="9.00">show_pwr</text>
</a>
</g>
</g>
<!-- Node7&#45;&gt;Node12 -->
<g id="edge11" class="edge"><title>Node7&#45;&gt;Node12</title>
<path fill="none" stroke="midnightblue" d="M321.437,-184.783C329.781,-168.668 349.393,-135.184 376,-117.884 434.408,-79.9064 516.57,-67.6817 564.204,-63.7482"/>
<polygon fill="midnightblue" stroke="midnightblue" points="564.682,-67.2225 574.395,-62.9904 564.162,-60.2417 564.682,-67.2225"/>
</g>
<!-- Node15 -->
<g id="node15" class="node"><title>Node15</title>
<g id="a_node15"><a xlink:href="main_8c.html#a11724d8cce81ed96bec12a004ea3ea7a" target="_top" xlink:title=" ">
<polygon fill="none" stroke="black" points="376,-127.884 376,-145.884 440,-145.884 440,-127.884 376,-127.884"/>
<text text-anchor="middle" x="408" y="-134.684" font-family="Calibri" font-size="9.00">show_reset</text>
</a>
</g>
</g>
<!-- Node7&#45;&gt;Node15 -->
<g id="edge15" class="edge"><title>Node7&#45;&gt;Node15</title>
<path fill="none" stroke="midnightblue" d="M331.46,-184.726C345.631,-175.751 367.452,-161.931 384.004,-151.448"/>
<polygon fill="midnightblue" stroke="midnightblue" points="386,-154.326 392.576,-146.019 382.255,-148.413 386,-154.326"/>
</g>
<!-- Node9 -->
<g id="node9" class="node"><title>Node9</title>
<g id="a_node9"><a xlink:href="main_8h.html#ab19e6e081315a9a200394b74d10de395" target="_top" xlink:title=" ">
<polygon fill="none" stroke="black" points="687,-315.884 687,-333.884 744,-333.884 744,-315.884 687,-315.884"/>
<text text-anchor="middle" x="715.5" y="-322.684" font-family="Calibri" font-size="9.00">correction</text>
</a>
</g>
</g>
<!-- Node8&#45;&gt;Node9 -->
<g id="edge8" class="edge"><title>Node8&#45;&gt;Node9</title>
<path fill="none" stroke="midnightblue" d="M628.098,-295.821C642.526,-300.674 661.291,-306.986 677.646,-312.487"/>
<polygon fill="midnightblue" stroke="midnightblue" points="676.863,-315.916 687.457,-315.787 679.094,-309.282 676.863,-315.916"/>
</g>
<!-- Node10 -->
<g id="node10" class="node"><title>Node10</title>
<g id="a_node10"><a xlink:href="main_8h.html#acfd46f8711e9c1c20fffdfc8bdaa0ddd" target="_top" xlink:title=" ">
<polygon fill="none" stroke="black" points="683,-278.884 683,-296.884 748,-296.884 748,-278.884 683,-278.884"/>
<text text-anchor="middle" x="715.5" y="-285.684" font-family="Calibri" font-size="9.00">get_forward</text>
</a>
</g>
</g>
<!-- Node8&#45;&gt;Node10 -->
<g id="edge9" class="edge"><title>Node8&#45;&gt;Node10</title>
<path fill="none" stroke="midnightblue" d="M628.098,-287.884C641.023,-287.884 657.428,-287.884 672.463,-287.884"/>
<polygon fill="midnightblue" stroke="midnightblue" points="672.593,-291.384 682.593,-287.884 672.593,-284.384 672.593,-291.384"/>
</g>
<!-- Node11 -->
<g id="node11" class="node"><title>Node11</title>
<g id="a_node11"><a xlink:href="main_8h.html#aa6b9a2b3d88f578ba6a9fefd911eae75" target="_top" xlink:title=" ">
<polygon fill="none" stroke="black" points="683.5,-352.884 683.5,-370.884 747.5,-370.884 747.5,-352.884 683.5,-352.884"/>
<text text-anchor="middle" x="715.5" y="-359.684" font-family="Calibri" font-size="9.00">get_reverse</text>
</a>
</g>
</g>
<!-- Node8&#45;&gt;Node11 -->
<g id="edge10" class="edge"><title>Node8&#45;&gt;Node11</title>
<path fill="none" stroke="midnightblue" d="M624.49,-296.941C629.42,-299.54 634.557,-302.575 639,-305.884 657.403,-319.585 656.376,-329.483 675,-342.884 677.513,-344.692 680.225,-346.405 683.01,-348.009"/>
<polygon fill="midnightblue" stroke="midnightblue" points="681.514,-351.177 691.994,-352.734 684.773,-344.981 681.514,-351.177"/>
</g>
<!-- Node13 -->
<g id="node13" class="node"><title>Node13</title>
<g id="a_node13"><a xlink:href="main_8c.html#a6911b3f075cdf1d54cb14f17f6e5ef6b" target="_top" xlink:title=" ">
<polygon fill="none" stroke="black" points="692,-90.8836 692,-108.884 739,-108.884 739,-90.8836 692,-90.8836"/>
<text text-anchor="middle" x="715.5" y="-97.6836" font-family="Calibri" font-size="9.00">lcd_ind</text>
</a>
</g>
</g>
<!-- Node12&#45;&gt;Node13 -->
<g id="edge12" class="edge"><title>Node12&#45;&gt;Node13</title>
<path fill="none" stroke="midnightblue" d="M630.568,-70.8891C646.037,-76.2326 665.773,-83.0506 682.22,-88.7324"/>
<polygon fill="midnightblue" stroke="midnightblue" points="681.373,-92.1428 691.968,-92.0999 683.659,-85.5265 681.373,-92.1428"/>
</g>
<!-- Node14 -->
<g id="node14" class="node"><title>Node14</title>
<g id="a_node14"><a xlink:href="oled__control_8h.html#ab272af1010175ba1166b08b8b3df6874" target="_top" xlink:title=" ">
<polygon fill="none" stroke="black" points="800.5,-90.8836 800.5,-108.884 859.5,-108.884 859.5,-90.8836 800.5,-90.8836"/>
<text text-anchor="middle" x="830" y="-97.6836" font-family="Calibri" font-size="9.00">led_wr_str</text>
</a>
</g>
</g>
<!-- Node12&#45;&gt;Node14 -->
<g id="edge14" class="edge"><title>Node12&#45;&gt;Node14</title>
<path fill="none" stroke="midnightblue" d="M632.594,-64.3055C663.138,-67.1943 713.306,-72.6864 756,-80.8836 767.324,-83.0578 779.493,-85.9839 790.588,-88.8876"/>
<polygon fill="midnightblue" stroke="midnightblue" points="789.853,-92.3143 800.419,-91.5257 791.668,-85.5535 789.853,-92.3143"/>
</g>
<!-- Node13&#45;&gt;Node14 -->
<g id="edge13" class="edge"><title>Node13&#45;&gt;Node14</title>
<path fill="none" stroke="midnightblue" d="M739.266,-99.8836C753.835,-99.8836 773.114,-99.8836 790.068,-99.8836"/>
<polygon fill="midnightblue" stroke="midnightblue" points="790.261,-103.384 800.261,-99.8836 790.261,-96.3837 790.261,-103.384"/>
</g>
<!-- Node15&#45;&gt;Node2 -->
<g id="edge16" class="edge"><title>Node15&#45;&gt;Node2</title>
<path fill="none" stroke="midnightblue" d="M412.457,-145.967C426.189,-182.051 477.048,-315.69 495.905,-365.24"/>
<polygon fill="midnightblue" stroke="midnightblue" points="492.684,-366.616 499.512,-374.717 499.226,-364.126 492.684,-366.616"/>
</g>
<!-- Node15&#45;&gt;Node13 -->
<g id="edge17" class="edge"><title>Node15&#45;&gt;Node13</title>
<path fill="none" stroke="midnightblue" d="M440.258,-133.098C498.359,-126.061 622.456,-111.031 681.702,-103.856"/>
<polygon fill="midnightblue" stroke="midnightblue" points="682.137,-107.329 691.644,-102.652 681.295,-100.38 682.137,-107.329"/>
</g>
<!-- Node15&#45;&gt;Node14 -->
<g id="edge37" class="edge"><title>Node15&#45;&gt;Node14</title>
<path fill="none" stroke="midnightblue" d="M415.551,-127.679C435.017,-101.323 495.68,-26.1633 568,-5.88364 660.648,20.0964 767.652,-51.7267 810.176,-84.5202"/>
<polygon fill="midnightblue" stroke="midnightblue" points="808.222,-87.4366 818.243,-90.8763 812.554,-81.9382 808.222,-87.4366"/>
</g>
<!-- Node16 -->
<g id="node16" class="node"><title>Node16</title>
<g id="a_node16"><a xlink:href="main_8c.html#ae5a14b4884e85f47ad8a4a716f13203a" target="_top" xlink:title=" ">
<polygon fill="none" stroke="black" points="480,-146.884 480,-164.884 528,-164.884 528,-146.884 480,-146.884"/>
<text text-anchor="middle" x="504" y="-153.684" font-family="Calibri" font-size="9.00">lcd_pwr</text>
</a>
</g>
</g>
<!-- Node15&#45;&gt;Node16 -->
<g id="edge18" class="edge"><title>Node15&#45;&gt;Node16</title>
<path fill="none" stroke="midnightblue" d="M440.04,-143.158C449.543,-145.079 460.035,-147.199 469.684,-149.15"/>
<polygon fill="midnightblue" stroke="midnightblue" points="469.241,-152.631 479.737,-151.181 470.628,-145.77 469.241,-152.631"/>
</g>
<!-- Node15&#45;&gt;Node25 -->
<g id="edge38" class="edge"><title>Node15&#45;&gt;Node25</title>
<path fill="none" stroke="midnightblue" d="M423.754,-127.806C451.656,-110.717 514.188,-72.8008 568,-42.8836 570.408,-41.5449 572.924,-40.1759 575.453,-38.8203"/>
<polygon fill="midnightblue" stroke="midnightblue" points="577.287,-41.81 584.497,-34.0469 574.02,-35.6193 577.287,-41.81"/>
</g>
<!-- Node16&#45;&gt;Node3 -->
<g id="edge33" class="edge"><title>Node16&#45;&gt;Node3</title>
<path fill="none" stroke="midnightblue" d="M509.09,-165.1C514.436,-177.185 524.054,-199.064 532,-217.884 548.437,-256.813 539.887,-274.334 568,-305.884 569.331,-307.377 570.808,-308.777 572.38,-310.086"/>
<polygon fill="midnightblue" stroke="midnightblue" points="570.579,-313.095 580.803,-315.876 574.545,-307.327 570.579,-313.095"/>
</g>
<!-- Node16&#45;&gt;Node4 -->
<g id="edge34" class="edge"><title>Node16&#45;&gt;Node4</title>
<path fill="none" stroke="midnightblue" d="M507.743,-164.936C516.051,-192.14 541.972,-275.448 568,-342.884 576.134,-363.958 586.67,-387.644 593.947,-403.536"/>
<polygon fill="midnightblue" stroke="midnightblue" points="590.831,-405.137 598.201,-412.748 597.186,-402.202 590.831,-405.137"/>
</g>
<!-- Node16&#45;&gt;Node8 -->
<g id="edge29" class="edge"><title>Node16&#45;&gt;Node8</title>
<path fill="none" stroke="midnightblue" d="M517.449,-164.897C522.48,-169.022 528.024,-174.246 532,-179.884 556.593,-214.753 539.676,-236.971 568,-268.884 569.186,-270.22 570.489,-271.481 571.873,-272.669"/>
<polygon fill="midnightblue" stroke="midnightblue" points="570.237,-275.797 580.433,-278.678 574.259,-270.067 570.237,-275.797"/>
</g>
<!-- Node16&#45;&gt;Node12 -->
<g id="edge36" class="edge"><title>Node16&#45;&gt;Node12</title>
<path fill="none" stroke="midnightblue" d="M514.349,-146.871C530.759,-131.049 564.961,-98.0756 585.605,-78.1721"/>
<polygon fill="midnightblue" stroke="midnightblue" points="588.266,-80.468 593.036,-71.0076 583.408,-75.4286 588.266,-80.468"/>
</g>
<!-- Node16&#45;&gt;Node14 -->
<g id="edge32" class="edge"><title>Node16&#45;&gt;Node14</title>
<path fill="none" stroke="midnightblue" d="M528.076,-161.024C573.43,-170.032 676.669,-185.094 756,-155.884 778.554,-147.579 799.815,-129.69 813.51,-116.353"/>
<polygon fill="midnightblue" stroke="midnightblue" points="816.108,-118.704 820.652,-109.133 811.131,-113.781 816.108,-118.704"/>
</g>
<!-- Node17 -->
<g id="node17" class="node"><title>Node17</title>
<g id="a_node17"><a xlink:href="main_8c.html#a593218c5fe00b499d494826fc0aa5279" target="_top" xlink:title=" ">
<polygon fill="none" stroke="black" points="568,-204.884 568,-222.884 639,-222.884 639,-204.884 568,-204.884"/>
<text text-anchor="middle" x="603.5" y="-211.684" font-family="Calibri" font-size="9.00">button_delay</text>
</a>
</g>
</g>
<!-- Node16&#45;&gt;Node17 -->
<g id="edge19" class="edge"><title>Node16&#45;&gt;Node17</title>
<path fill="none" stroke="midnightblue" d="M520.234,-164.946C535.741,-174.171 560.017,-188.612 578.185,-199.42"/>
<polygon fill="midnightblue" stroke="midnightblue" points="576.667,-202.589 587.051,-204.693 580.246,-196.573 576.667,-202.589"/>
</g>
<!-- Node18 -->
<g id="node18" class="node"><title>Node18</title>
<g id="a_node18"><a xlink:href="oled__control_8c.html#a5febfdc847aa6f3bc3f3c8f7818b8699" target="_top" xlink:title=" ">
<polygon fill="none" stroke="black" points="572.5,-241.884 572.5,-259.884 634.5,-259.884 634.5,-241.884 572.5,-241.884"/>
<text text-anchor="middle" x="603.5" y="-248.684" font-family="Calibri" font-size="9.00">display_on</text>
</a>
</g>
</g>
<!-- Node16&#45;&gt;Node18 -->
<g id="edge20" class="edge"><title>Node16&#45;&gt;Node18</title>
<path fill="none" stroke="midnightblue" d="M516.33,-164.904C521.387,-169.187 527.26,-174.531 532,-179.884 550.637,-200.926 547.135,-213.048 568,-231.884 569.691,-233.41 571.526,-234.861 573.439,-236.23"/>
<polygon fill="midnightblue" stroke="midnightblue" points="571.791,-239.329 582.12,-241.69 575.518,-233.403 571.791,-239.329"/>
</g>
<!-- Node24 -->
<g id="node24" class="node"><title>Node24</title>
<g id="a_node24"><a xlink:href="main_8c.html#aa8fd50019a763561abc6621bb224417f" target="_top" xlink:title=" ">
<polygon fill="none" stroke="black" points="692,-128.884 692,-146.884 739,-146.884 739,-128.884 692,-128.884"/>
<text text-anchor="middle" x="715.5" y="-135.684" font-family="Calibri" font-size="9.00">lcd_swr</text>
</a>
</g>
</g>
<!-- Node16&#45;&gt;Node24 -->
<g id="edge30" class="edge"><title>Node16&#45;&gt;Node24</title>
<path fill="none" stroke="midnightblue" d="M528.221,-153.889C565.541,-150.682 638.996,-144.371 681.667,-140.705"/>
<polygon fill="midnightblue" stroke="midnightblue" points="682.149,-144.176 691.812,-139.833 681.549,-137.202 682.149,-144.176"/>
</g>
<!-- Node16&#45;&gt;Node25 -->
<g id="edge35" class="edge"><title>Node16&#45;&gt;Node25</title>
<path fill="none" stroke="midnightblue" d="M507.993,-146.836C515.256,-126.071 535.637,-74.3617 568,-42.8836 569.265,-41.653 570.631,-40.4862 572.065,-39.3828"/>
<polygon fill="midnightblue" stroke="midnightblue" points="574.274,-42.1225 580.775,-33.7567 570.476,-36.2424 574.274,-42.1225"/>
</g>
<!-- Node19 -->
<g id="node19" class="node"><title>Node19</title>
<g id="a_node19"><a xlink:href="oled__control_8c.html#a5a5d7ef6b1877aaf94c1f4b7fc0f2d2d" target="_top" xlink:title=" ">
<polygon fill="none" stroke="black" points="688,-204.884 688,-222.884 743,-222.884 743,-204.884 688,-204.884"/>
<text text-anchor="middle" x="715.5" y="-211.684" font-family="Calibri" font-size="9.00">led_send</text>
</a>
</g>
</g>
<!-- Node18&#45;&gt;Node19 -->
<g id="edge21" class="edge"><title>Node18&#45;&gt;Node19</title>
<path fill="none" stroke="midnightblue" d="M631.409,-241.832C645.496,-237.094 662.945,-231.225 678.21,-226.09"/>
<polygon fill="midnightblue" stroke="midnightblue" points="679.506,-229.347 687.869,-222.841 677.275,-222.712 679.506,-229.347"/>
</g>
<!-- Node23 -->
<g id="node23" class="node"><title>Node23</title>
<g id="a_node23"><a xlink:href="oled__control_8c.html#ad141ed038278a6fcad6c307932f01ec8" target="_top" xlink:title=" ">
<polygon fill="none" stroke="black" points="675,-241.884 675,-259.884 756,-259.884 756,-241.884 675,-241.884"/>
<text text-anchor="middle" x="715.5" y="-248.684" font-family="Calibri" font-size="9.00">send_command</text>
</a>
</g>
</g>
<!-- Node18&#45;&gt;Node23 -->
<g id="edge25" class="edge"><title>Node18&#45;&gt;Node23</title>
<path fill="none" stroke="midnightblue" d="M634.558,-250.884C643.909,-250.884 654.48,-250.884 664.8,-250.884"/>
<polygon fill="midnightblue" stroke="midnightblue" points="664.982,-254.384 674.982,-250.884 664.982,-247.384 664.982,-254.384"/>
</g>
<!-- Node20 -->
<g id="node20" class="node"><title>Node20</title>
<g id="a_node20"><a xlink:href="oled__control_8c.html#ab7f6b5c6c1483f6286f2de5786c028d9" target="_top" xlink:title=" ">
<polygon fill="none" stroke="black" points="794,-222.884 794,-240.884 866,-240.884 866,-222.884 794,-222.884"/>
<text text-anchor="middle" x="830" y="-229.684" font-family="Calibri" font-size="9.00">Soft_I2C_Start</text>
</a>
</g>
</g>
<!-- Node19&#45;&gt;Node20 -->
<g id="edge22" class="edge"><title>Node19&#45;&gt;Node20</title>
<path fill="none" stroke="midnightblue" d="M743.161,-218.149C755.173,-220.071 769.703,-222.396 783.365,-224.582"/>
<polygon fill="midnightblue" stroke="midnightblue" points="783.16,-228.094 793.588,-226.218 784.266,-221.182 783.16,-228.094"/>
</g>
<!-- Node21 -->
<g id="node21" class="node"><title>Node21</title>
<g id="a_node21"><a xlink:href="oled__control_8c.html#a16eb842aa672ca44820ae6d5f9933425" target="_top" xlink:title=" ">
<polygon fill="none" stroke="black" points="794.5,-185.884 794.5,-203.884 865.5,-203.884 865.5,-185.884 794.5,-185.884"/>
<text text-anchor="middle" x="830" y="-192.684" font-family="Calibri" font-size="9.00">Soft_I2C_Stop</text>
</a>
</g>
</g>
<!-- Node19&#45;&gt;Node21 -->
<g id="edge23" class="edge"><title>Node19&#45;&gt;Node21</title>
<path fill="none" stroke="midnightblue" d="M743.161,-209.381C755.5,-207.297 770.495,-204.764 784.478,-202.403"/>
<polygon fill="midnightblue" stroke="midnightblue" points="785.152,-205.839 794.429,-200.722 783.986,-198.937 785.152,-205.839"/>
</g>
<!-- Node22 -->
<g id="node22" class="node"><title>Node22</title>
<g id="a_node22"><a xlink:href="oled__control_8c.html#a73610916645f17c19124e697b005f694" target="_top" xlink:title=" ">
<polygon fill="none" stroke="black" points="792,-259.884 792,-277.884 868,-277.884 868,-259.884 792,-259.884"/>
<text text-anchor="middle" x="830" y="-266.684" font-family="Calibri" font-size="9.00">Soft_I2C_Write</text>
</a>
</g>
</g>
<!-- Node19&#45;&gt;Node22 -->
<g id="edge24" class="edge"><title>Node19&#45;&gt;Node22</title>
<path fill="none" stroke="midnightblue" d="M737.077,-223.065C743.191,-225.846 749.888,-228.944 756,-231.884 764.805,-236.119 785.218,-246.482 802.226,-255.167"/>
<polygon fill="midnightblue" stroke="midnightblue" points="800.732,-258.334 811.229,-259.77 803.918,-252.101 800.732,-258.334"/>
</g>
<!-- Node23&#45;&gt;Node20 -->
<g id="edge26" class="edge"><title>Node23&#45;&gt;Node20</title>
<path fill="none" stroke="midnightblue" d="M756.163,-244.185C765.08,-242.679 774.608,-241.07 783.734,-239.529"/>
<polygon fill="midnightblue" stroke="midnightblue" points="784.535,-242.943 793.813,-237.826 783.37,-236.041 784.535,-242.943"/>
</g>
<!-- Node23&#45;&gt;Node21 -->
<g id="edge27" class="edge"><title>Node23&#45;&gt;Node21</title>
<path fill="none" stroke="midnightblue" d="M735.858,-241.749C742.291,-238.667 749.477,-235.172 756,-231.884 772.155,-223.739 775.863,-221.064 792,-212.884 794.931,-211.398 798.003,-209.865 801.071,-208.349"/>
<polygon fill="midnightblue" stroke="midnightblue" points="802.675,-211.461 810.118,-203.922 799.597,-205.174 802.675,-211.461"/>
</g>
<!-- Node23&#45;&gt;Node22 -->
<g id="edge28" class="edge"><title>Node23&#45;&gt;Node22</title>
<path fill="none" stroke="midnightblue" d="M756.163,-257.23C764.53,-258.568 773.433,-259.993 782.039,-261.37"/>
<polygon fill="midnightblue" stroke="midnightblue" points="781.526,-264.832 791.954,-262.956 782.632,-257.92 781.526,-264.832"/>
</g>
<!-- Node24&#45;&gt;Node14 -->
<g id="edge31" class="edge"><title>Node24&#45;&gt;Node14</title>
<path fill="none" stroke="midnightblue" d="M739.266,-130.194C754.509,-125.045 774.909,-118.154 792.406,-112.244"/>
<polygon fill="midnightblue" stroke="midnightblue" points="793.958,-115.414 802.312,-108.898 791.718,-108.782 793.958,-115.414"/>
</g>
<!-- Node26&#45;&gt;Node3 -->
<g id="edge49" class="edge"><title>Node26&#45;&gt;Node3</title>
<path fill="none" stroke="midnightblue" d="M254.608,-309.175C323.14,-312.27 496.419,-320.094 569.345,-323.387"/>
<polygon fill="midnightblue" stroke="midnightblue" points="569.205,-326.884 579.352,-323.838 569.52,-319.891 569.205,-326.884"/>
</g>
<!-- Node26&#45;&gt;Node7 -->
<g id="edge48" class="edge"><title>Node26&#45;&gt;Node7</title>
<path fill="none" stroke="midnightblue" d="M233.283,-298.555C248.221,-279.421 282.521,-235.486 301.592,-211.058"/>
<polygon fill="midnightblue" stroke="midnightblue" points="304.47,-213.059 307.865,-203.023 298.952,-208.752 304.47,-213.059"/>
</g>
<!-- Node27&#45;&gt;Node4 -->
<g id="edge52" class="edge"><title>Node27&#45;&gt;Node4</title>
<path fill="none" stroke="midnightblue" d="M251.627,-392.951C303.988,-410.43 427.157,-446.193 532,-435.884 544.487,-434.656 558.04,-432.233 569.896,-429.743"/>
<polygon fill="midnightblue" stroke="midnightblue" points="570.792,-433.13 579.809,-427.566 569.291,-426.293 570.792,-433.13"/>
</g>
<!-- Node27&#45;&gt;Node7 -->
<g id="edge51" class="edge"><title>Node27&#45;&gt;Node7</title>
<path fill="none" stroke="midnightblue" d="M231.051,-374.523C237.152,-363.127 247.637,-343.247 256,-325.884 275.338,-285.732 296.23,-237.785 307.22,-212.167"/>
<polygon fill="midnightblue" stroke="midnightblue" points="310.457,-213.499 311.169,-202.928 304.02,-210.748 310.457,-213.499"/>
</g>
</g>
</svg>
