<?xml version="1.0" encoding="UTF-8" standalone="no"?>
<!DOCTYPE svg PUBLIC "-//W3C//DTD SVG 1.1//EN"
 "http://www.w3.org/Graphics/SVG/1.1/DTD/svg11.dtd">
<!-- Generated by graphviz version 2.38.0 (20140413.2041)
 -->
<!-- Title: sharp_ind Pages: 1 -->
<!--zoomable 443 -->
<svg id="main" version="1.1" xmlns="http://www.w3.org/2000/svg" xmlns:xlink="http://www.w3.org/1999/xlink" xml:space="preserve" onload="init(evt)">
<style type="text/css"><![CDATA[
.edge:hover path { stroke: red; }
.edge:hover polygon { stroke: red; fill: red; }
]]></style>
<script type="text/javascript"><![CDATA[
var edges = document.getElementsByTagName('g');
if (edges && edges.length) {
  for (var i=0;i<edges.length;i++) {
    if (edges[i].id.substr(0,4)=='edge') {
      edges[i].setAttribute('class','edge');
    }
  }
}
]]></script>
        <defs>
                <circle id="rim" cx="0" cy="0" r="7"/>
                <circle id="rim2" cx="0" cy="0" r="3.5"/>
                <g id="zoomPlus">
                        <use xlink:href="#rim" fill="#404040">
                                <set attributeName="fill" to="#808080" begin="zoomplus.mouseover" end="zoomplus.mouseout"/>
                        </use>
                        <path d="M-4,0h8M0,-4v8" fill="none" stroke="white" stroke-width="1.5" pointer-events="none"/>
                </g>
                <g id="zoomMin">
                        <use xlink:href="#rim" fill="#404040">
                                <set attributeName="fill" to="#808080" begin="zoomminus.mouseover" end="zoomminus.mouseout"/>
                        </use>
                        <path d="M-4,0h8" fill="none" stroke="white" stroke-width="1.5" pointer-events="none"/>
                </g>
                <g id="dirArrow">
                        <path fill="none" stroke="white" stroke-width="1.5" d="M0,-3.0v7 M-2.5,-0.5L0,-3.0L2.5,-0.5"/>
                </g>
               <g id="resetDef">
                       <use xlink:href="#rim2" fill="#404040">
                               <set attributeName="fill" to="#808080" begin="reset.mouseover" end="reset.mouseout"/>
                       </use>
               </g>
        </defs>

<script type="text/javascript">
var viewWidth = 984;
var viewHeight = 443;
var sectionId = 'dynsection-31';
</script>
<script xlink:href="svgpan.js"/>
<svg id="graph" class="graph">
<g id="viewport">
<title>sharp_ind</title>
<!-- Node373 -->
<g id="node1" class="node"><title>Node373</title>
<polygon fill="#bfbfbf" stroke="black" points="0,-229.185 0,-247.185 58,-247.185 58,-229.185 0,-229.185"/>
<text text-anchor="middle" x="29" y="-235.985" font-family="Calibri" font-size="9.00">sharp_ind</text>
</g>
<!-- Node374 -->
<g id="node2" class="node"><title>Node374</title>
<g id="a_node2"><a xlink:href="main__main_8h.html#a6c26e075660bdd7a54df984ec3fc7ff4" target="_top" xlink:title="get_swr">
<polygon fill="none" stroke="black" points="94,-248.185 94,-266.185 142,-266.185 142,-248.185 94,-248.185"/>
<text text-anchor="middle" x="118" y="-254.985" font-family="Calibri" font-size="9.00">get_swr</text>
</a>
</g>
</g>
<!-- Node373&#45;&gt;Node374 -->
<g id="edge1" class="edge"><title>Node373&#45;&gt;Node374</title>
<path fill="none" stroke="midnightblue" d="M58.0062,-244.301C66.2699,-246.106 75.3917,-248.098 83.9415,-249.965"/>
<polygon fill="midnightblue" stroke="midnightblue" points="83.4741,-253.445 93.9906,-252.16 84.9677,-246.607 83.4741,-253.445"/>
</g>
<!-- Node402 -->
<g id="node30" class="node"><title>Node402</title>
<g id="a_node30"><a xlink:href="main__main_8h.html#a1f2ddaf3b672288a70778abe6e145b9c" target="_top" xlink:title="set_ind">
<polygon fill="none" stroke="black" points="94.5,-211.185 94.5,-229.185 141.5,-229.185 141.5,-211.185 94.5,-211.185"/>
<text text-anchor="middle" x="118" y="-217.985" font-family="Calibri" font-size="9.00">set_ind</text>
</a>
</g>
</g>
<!-- Node373&#45;&gt;Node402 -->
<g id="edge45" class="edge"><title>Node373&#45;&gt;Node402</title>
<path fill="none" stroke="midnightblue" d="M58.0062,-232.39C66.4321,-230.647 75.7501,-228.719 84.4443,-226.92"/>
<polygon fill="midnightblue" stroke="midnightblue" points="85.1897,-230.34 94.2732,-224.887 83.7714,-223.486 85.1897,-230.34"/>
</g>
<!-- Node375 -->
<g id="node3" class="node"><title>Node375</title>
<g id="a_node3"><a xlink:href="main__main_8h.html#ab37ca657b79c6b9176cb63e9d812a182" target="_top" xlink:title="get_pwr">
<polygon fill="none" stroke="black" points="185.5,-360.185 185.5,-378.185 234.5,-378.185 234.5,-360.185 185.5,-360.185"/>
<text text-anchor="middle" x="210" y="-366.985" font-family="Calibri" font-size="9.00">get_pwr</text>
</a>
</g>
</g>
<!-- Node374&#45;&gt;Node375 -->
<g id="edge2" class="edge"><title>Node374&#45;&gt;Node375</title>
<path fill="none" stroke="midnightblue" d="M126.365,-266.35C141.396,-285.055 175.813,-327.885 195.154,-351.954"/>
<polygon fill="midnightblue" stroke="midnightblue" points="192.541,-354.29 201.533,-359.893 197.997,-349.905 192.541,-354.29"/>
</g>
<!-- Node379 -->
<g id="node7" class="node"><title>Node379</title>
<g id="a_node7"><a xlink:href="main__main_8h.html#ad9d02e37f1f201576a9d93fd36fc4768" target="_top" xlink:title="show_reset">
<polygon fill="none" stroke="black" points="178,-135.185 178,-153.185 242,-153.185 242,-135.185 178,-135.185"/>
<text text-anchor="middle" x="210" y="-141.985" font-family="Calibri" font-size="9.00">show_reset</text>
</a>
</g>
</g>
<!-- Node374&#45;&gt;Node379 -->
<g id="edge6" class="edge"><title>Node374&#45;&gt;Node379</title>
<path fill="none" stroke="midnightblue" d="M132.22,-247.906C135.579,-245.269 139.064,-242.271 142,-239.185 165.193,-214.807 186.593,-181.89 198.699,-161.895"/>
<polygon fill="midnightblue" stroke="midnightblue" points="201.76,-163.595 203.863,-153.211 195.744,-160.017 201.76,-163.595"/>
</g>
<!-- Node376 -->
<g id="node4" class="node"><title>Node376</title>
<g id="a_node4"><a xlink:href="main__main_8h.html#ab19e6e081315a9a200394b74d10de395" target="_top" xlink:title="correction">
<polygon fill="none" stroke="black" points="282,-342.185 282,-360.185 339,-360.185 339,-342.185 282,-342.185"/>
<text text-anchor="middle" x="310.5" y="-348.985" font-family="Calibri" font-size="9.00">correction</text>
</a>
</g>
</g>
<!-- Node375&#45;&gt;Node376 -->
<g id="edge3" class="edge"><title>Node375&#45;&gt;Node376</title>
<path fill="none" stroke="midnightblue" d="M234.593,-364.873C245.709,-362.842 259.245,-360.368 271.736,-358.086"/>
<polygon fill="midnightblue" stroke="midnightblue" points="272.7,-361.468 281.908,-356.227 271.441,-354.582 272.7,-361.468"/>
</g>
<!-- Node377 -->
<g id="node5" class="node"><title>Node377</title>
<g id="a_node5"><a xlink:href="main__main_8h.html#acfd46f8711e9c1c20fffdfc8bdaa0ddd" target="_top" xlink:title="get_forward">
<polygon fill="none" stroke="black" points="278,-416.185 278,-434.185 343,-434.185 343,-416.185 278,-416.185"/>
<text text-anchor="middle" x="310.5" y="-422.985" font-family="Calibri" font-size="9.00">get_forward</text>
</a>
</g>
</g>
<!-- Node375&#45;&gt;Node377 -->
<g id="edge4" class="edge"><title>Node375&#45;&gt;Node377</title>
<path fill="none" stroke="midnightblue" d="M227.265,-378.432C242.9,-387.321 266.742,-400.876 284.735,-411.105"/>
<polygon fill="midnightblue" stroke="midnightblue" points="283.114,-414.21 293.537,-416.11 286.574,-408.125 283.114,-414.21"/>
</g>
<!-- Node378 -->
<g id="node6" class="node"><title>Node378</title>
<g id="a_node6"><a xlink:href="main__main_8h.html#aa6b9a2b3d88f578ba6a9fefd911eae75" target="_top" xlink:title="get_reverse">
<polygon fill="none" stroke="black" points="278.5,-379.185 278.5,-397.185 342.5,-397.185 342.5,-379.185 278.5,-379.185"/>
<text text-anchor="middle" x="310.5" y="-385.985" font-family="Calibri" font-size="9.00">get_reverse</text>
</a>
</g>
</g>
<!-- Node375&#45;&gt;Node378 -->
<g id="edge5" class="edge"><title>Node375&#45;&gt;Node378</title>
<path fill="none" stroke="midnightblue" d="M234.593,-373.736C244.718,-375.689 256.849,-378.029 268.371,-380.251"/>
<polygon fill="midnightblue" stroke="midnightblue" points="267.792,-383.704 278.274,-382.161 269.118,-376.831 267.792,-383.704"/>
</g>
<!-- Node380 -->
<g id="node8" class="node"><title>Node380</title>
<g id="a_node8"><a xlink:href="main_8h.html#a9dff326a6079fe726285b11ee837ad60" target="_top" xlink:title="atu_reset">
<polygon fill="none" stroke="black" points="282.5,-59.1848 282.5,-77.1848 338.5,-77.1848 338.5,-59.1848 282.5,-59.1848"/>
<text text-anchor="middle" x="310.5" y="-65.9848" font-family="Calibri" font-size="9.00">atu_reset</text>
</a>
</g>
</g>
<!-- Node379&#45;&gt;Node380 -->
<g id="edge7" class="edge"><title>Node379&#45;&gt;Node380</title>
<path fill="none" stroke="midnightblue" d="M222.686,-135.168C239.2,-122.427 269.585,-98.9821 289.668,-83.4863"/>
<polygon fill="midnightblue" stroke="midnightblue" points="292.05,-86.0695 297.829,-77.1897 287.774,-80.5274 292.05,-86.0695"/>
</g>
<!-- Node383 -->
<g id="node11" class="node"><title>Node383</title>
<g id="a_node11"><a xlink:href="main_8h.html#ae0c1e0ec712704e43db40473f103d621" target="_top" xlink:title="Set the state of the switch. ">
<polygon fill="none" stroke="black" points="288,-117.185 288,-135.185 333,-135.185 333,-117.185 288,-117.185"/>
<text text-anchor="middle" x="310.5" y="-123.985" font-family="Calibri" font-size="9.00">set_sw</text>
</a>
</g>
</g>
<!-- Node379&#45;&gt;Node383 -->
<g id="edge10" class="edge"><title>Node379&#45;&gt;Node383</title>
<path fill="none" stroke="midnightblue" d="M242.166,-138.489C253.558,-136.408 266.45,-134.052 277.881,-131.963"/>
<polygon fill="midnightblue" stroke="midnightblue" points="278.676,-135.376 287.884,-130.135 277.417,-128.49 278.676,-135.376"/>
</g>
<!-- Node384 -->
<g id="node12" class="node"><title>Node384</title>
<g id="a_node12"><a xlink:href="main_8c.html#a6911b3f075cdf1d54cb14f17f6e5ef6b" target="_top" xlink:title="lcd_ind">
<polygon fill="none" stroke="black" points="495,-323.185 495,-341.185 542,-341.185 542,-323.185 495,-323.185"/>
<text text-anchor="middle" x="518.5" y="-329.985" font-family="Calibri" font-size="9.00">lcd_ind</text>
</a>
</g>
</g>
<!-- Node379&#45;&gt;Node384 -->
<g id="edge11" class="edge"><title>Node379&#45;&gt;Node384</title>
<path fill="none" stroke="midnightblue" d="M218.65,-153.547C240.667,-179.865 307.218,-255.127 379,-294.185 412.55,-312.44 455.541,-322.455 484.661,-327.554"/>
<polygon fill="midnightblue" stroke="midnightblue" points="484.281,-331.039 494.718,-329.216 485.423,-324.132 484.281,-331.039"/>
</g>
<!-- Node385 -->
<g id="node13" class="node"><title>Node385</title>
<g id="a_node13"><a xlink:href="oled__control_8c.html#a9d56c6c2e653b24a0caf505492ad818a" target="_top" xlink:title="led_wr_str">
<polygon fill="none" stroke="black" points="587,-210.185 587,-228.185 646,-228.185 646,-210.185 587,-210.185"/>
<text text-anchor="middle" x="616.5" y="-216.985" font-family="Calibri" font-size="9.00">led_wr_str</text>
</a>
</g>
</g>
<!-- Node379&#45;&gt;Node385 -->
<g id="edge24" class="edge"><title>Node379&#45;&gt;Node385</title>
<path fill="none" stroke="midnightblue" d="M215.142,-134.94C224.008,-116.15 246.602,-73.2453 278,-49.1848 340.066,-1.624 375.839,12.6008 450,-12.1848 503.281,-29.9919 515.171,-44.9157 551,-88.1848 579.989,-123.193 600.011,-173.423 609.406,-200.38"/>
<polygon fill="midnightblue" stroke="midnightblue" points="606.17,-201.737 612.68,-210.096 612.803,-199.502 606.17,-201.737"/>
</g>
<!-- Node392 -->
<g id="node20" class="node"><title>Node392</title>
<g id="a_node20"><a xlink:href="main_8c.html#ae5a14b4884e85f47ad8a4a716f13203a" target="_top" xlink:title="lcd_pwr">
<polygon fill="none" stroke="black" points="286.5,-154.185 286.5,-172.185 334.5,-172.185 334.5,-154.185 286.5,-154.185"/>
<text text-anchor="middle" x="310.5" y="-160.985" font-family="Calibri" font-size="9.00">lcd_pwr</text>
</a>
</g>
</g>
<!-- Node379&#45;&gt;Node392 -->
<g id="edge25" class="edge"><title>Node379&#45;&gt;Node392</title>
<path fill="none" stroke="midnightblue" d="M242.166,-150.196C253.015,-152.289 265.223,-154.644 276.236,-156.768"/>
<polygon fill="midnightblue" stroke="midnightblue" points="275.862,-160.261 286.344,-158.718 277.188,-153.387 275.862,-160.261"/>
</g>
<!-- Node381 -->
<g id="node9" class="node"><title>Node381</title>
<g id="a_node9"><a xlink:href="main_8h.html#a2a7963b9b09696c6654b96c67900c6ea" target="_top" xlink:title="set_cap">
<polygon fill="none" stroke="black" points="390.5,-22.1848 390.5,-40.1848 438.5,-40.1848 438.5,-22.1848 390.5,-22.1848"/>
<text text-anchor="middle" x="414.5" y="-28.9848" font-family="Calibri" font-size="9.00">set_cap</text>
</a>
</g>
</g>
<!-- Node380&#45;&gt;Node381 -->
<g id="edge8" class="edge"><title>Node380&#45;&gt;Node381</title>
<path fill="none" stroke="midnightblue" d="M336.452,-59.1335C349.774,-54.3011 366.337,-48.293 380.689,-43.087"/>
<polygon fill="midnightblue" stroke="midnightblue" points="381.997,-46.3356 390.204,-39.6353 379.61,-39.7551 381.997,-46.3356"/>
</g>
<!-- Node382 -->
<g id="node10" class="node"><title>Node382</title>
<g id="a_node10"><a xlink:href="main_8h.html#aecc83cd8bceb4bc24be844732ead2c2c" target="_top" xlink:title="set_ind">
<polygon fill="none" stroke="black" points="391,-59.1848 391,-77.1848 438,-77.1848 438,-59.1848 391,-59.1848"/>
<text text-anchor="middle" x="414.5" y="-65.9848" font-family="Calibri" font-size="9.00">set_ind</text>
</a>
</g>
</g>
<!-- Node380&#45;&gt;Node382 -->
<g id="edge9" class="edge"><title>Node380&#45;&gt;Node382</title>
<path fill="none" stroke="midnightblue" d="M338.566,-68.1848C351.42,-68.1848 366.896,-68.1848 380.438,-68.1848"/>
<polygon fill="midnightblue" stroke="midnightblue" points="380.798,-71.6849 390.798,-68.1848 380.798,-64.6849 380.798,-71.6849"/>
</g>
<!-- Node384&#45;&gt;Node385 -->
<g id="edge12" class="edge"><title>Node384&#45;&gt;Node385</title>
<path fill="none" stroke="midnightblue" d="M533.082,-323.176C538.919,-318.977 545.621,-313.694 551,-308.185 572.682,-285.977 592.849,-256.062 604.674,-237.198"/>
<polygon fill="midnightblue" stroke="midnightblue" points="607.803,-238.792 610.061,-228.44 601.841,-235.124 607.803,-238.792"/>
</g>
<!-- Node386 -->
<g id="node14" class="node"><title>Node386</title>
<g id="a_node14"><a xlink:href="oled__control_8c.html#a7c3a2e5f1fed76dc27692132a2574d27" target="_top" xlink:title="oled_wr_str">
<polygon fill="none" stroke="black" points="682,-286.185 682,-304.185 747,-304.185 747,-286.185 682,-286.185"/>
<text text-anchor="middle" x="714.5" y="-292.985" font-family="Calibri" font-size="9.00">oled_wr_str</text>
</a>
</g>
</g>
<!-- Node385&#45;&gt;Node386 -->
<g id="edge13" class="edge"><title>Node385&#45;&gt;Node386</title>
<path fill="none" stroke="midnightblue" d="M626.662,-228.247C638.775,-239.995 661.039,-260.797 682,-276.185 684.072,-277.706 686.271,-279.218 688.507,-280.687"/>
<polygon fill="midnightblue" stroke="midnightblue" points="686.777,-283.734 697.112,-286.064 690.485,-277.797 686.777,-283.734"/>
</g>
<!-- Node391 -->
<g id="node19" class="node"><title>Node391</title>
<g id="a_node19"><a xlink:href="oled__control_8c.html#ad25764a33e482f4e9db2701198e02551" target="_top" xlink:title="led_send">
<polygon fill="none" stroke="black" points="796,-211.185 796,-229.185 851,-229.185 851,-211.185 796,-211.185"/>
<text text-anchor="middle" x="823.5" y="-217.985" font-family="Calibri" font-size="9.00">led_send</text>
</a>
</g>
</g>
<!-- Node385&#45;&gt;Node391 -->
<g id="edge20" class="edge"><title>Node385&#45;&gt;Node391</title>
<path fill="none" stroke="midnightblue" d="M646.004,-219.324C682.462,-219.502 745.664,-219.81 785.717,-220.005"/>
<polygon fill="midnightblue" stroke="midnightblue" points="785.847,-223.506 795.864,-220.055 785.881,-216.506 785.847,-223.506"/>
</g>
<!-- Node387 -->
<g id="node15" class="node"><title>Node387</title>
<g id="a_node15"><a xlink:href="oled__control_8c.html#ab7f6b5c6c1483f6286f2de5786c028d9" target="_top" xlink:title="Soft_I2C_Start">
<polygon fill="none" stroke="black" points="902,-314.185 902,-332.185 974,-332.185 974,-314.185 902,-314.185"/>
<text text-anchor="middle" x="938" y="-320.985" font-family="Calibri" font-size="9.00">Soft_I2C_Start</text>
</a>
</g>
</g>
<!-- Node386&#45;&gt;Node387 -->
<g id="edge14" class="edge"><title>Node386&#45;&gt;Node387</title>
<path fill="none" stroke="midnightblue" d="M722.588,-304.316C733.727,-317.832 756.783,-342.596 783,-352.185 825.883,-367.869 878.73,-350.523 910.044,-336.715"/>
<polygon fill="midnightblue" stroke="midnightblue" points="911.793,-339.763 919.414,-332.403 908.867,-333.404 911.793,-339.763"/>
</g>
<!-- Node388 -->
<g id="node16" class="node"><title>Node388</title>
<g id="a_node16"><a xlink:href="oled__control_8c.html#a73610916645f17c19124e697b005f694" target="_top" xlink:title="Soft_I2C_Write">
<polygon fill="none" stroke="black" points="900,-258.185 900,-276.185 976,-276.185 976,-258.185 900,-258.185"/>
<text text-anchor="middle" x="938" y="-264.985" font-family="Calibri" font-size="9.00">Soft_I2C_Write</text>
</a>
</g>
</g>
<!-- Node386&#45;&gt;Node388 -->
<g id="edge15" class="edge"><title>Node386&#45;&gt;Node388</title>
<path fill="none" stroke="midnightblue" d="M747.236,-291.173C784.556,-286.455 846.856,-278.58 889.834,-273.147"/>
<polygon fill="midnightblue" stroke="midnightblue" points="890.294,-276.617 899.776,-271.89 889.416,-269.672 890.294,-276.617"/>
</g>
<!-- Node389 -->
<g id="node17" class="node"><title>Node389</title>
<g id="a_node17"><a xlink:href="oled__control_8c.html#a6df77e8ec83c50ed6a5ddaf54aa3a9c2" target="_top" xlink:title="set_addressing">
<polygon fill="none" stroke="black" points="783.5,-324.185 783.5,-342.185 863.5,-342.185 863.5,-324.185 783.5,-324.185"/>
<text text-anchor="middle" x="823.5" y="-330.985" font-family="Calibri" font-size="9.00">set_addressing</text>
</a>
</g>
</g>
<!-- Node386&#45;&gt;Node389 -->
<g id="edge16" class="edge"><title>Node386&#45;&gt;Node389</title>
<path fill="none" stroke="midnightblue" d="M740.858,-304.19C754.748,-309.123 772.177,-315.313 787.36,-320.705"/>
<polygon fill="midnightblue" stroke="midnightblue" points="786.359,-324.064 796.954,-324.112 788.702,-317.467 786.359,-324.064"/>
</g>
<!-- Node390 -->
<g id="node18" class="node"><title>Node390</title>
<g id="a_node18"><a xlink:href="oled__control_8c.html#a16eb842aa672ca44820ae6d5f9933425" target="_top" xlink:title="Soft_I2C_Stop">
<polygon fill="none" stroke="black" points="902.5,-211.185 902.5,-229.185 973.5,-229.185 973.5,-211.185 902.5,-211.185"/>
<text text-anchor="middle" x="938" y="-217.985" font-family="Calibri" font-size="9.00">Soft_I2C_Stop</text>
</a>
</g>
</g>
<!-- Node386&#45;&gt;Node390 -->
<g id="edge19" class="edge"><title>Node386&#45;&gt;Node390</title>
<path fill="none" stroke="midnightblue" d="M734.479,-286.142C738.966,-283.389 743.467,-280.051 747,-276.185 771.673,-249.186 751.993,-221.582 783,-202.185 821.674,-177.992 876.632,-193.718 909.366,-207.113"/>
<polygon fill="midnightblue" stroke="midnightblue" points="908.199,-210.421 918.768,-211.149 910.959,-203.988 908.199,-210.421"/>
</g>
<!-- Node389&#45;&gt;Node387 -->
<g id="edge17" class="edge"><title>Node389&#45;&gt;Node387</title>
<path fill="none" stroke="midnightblue" d="M863.531,-329.715C872.569,-328.912 882.262,-328.05 891.548,-327.225"/>
<polygon fill="midnightblue" stroke="midnightblue" points="892.151,-330.685 901.802,-326.313 891.531,-323.713 892.151,-330.685"/>
</g>
<!-- Node389&#45;&gt;Node388 -->
<g id="edge18" class="edge"><title>Node389&#45;&gt;Node388</title>
<path fill="none" stroke="midnightblue" d="M840.143,-324.008C858.949,-312.974 890.724,-294.333 912.726,-281.426"/>
<polygon fill="midnightblue" stroke="midnightblue" points="914.636,-284.363 921.49,-276.284 911.094,-278.325 914.636,-284.363"/>
</g>
<!-- Node391&#45;&gt;Node387 -->
<g id="edge21" class="edge"><title>Node391&#45;&gt;Node387</title>
<path fill="none" stroke="midnightblue" d="M848.141,-229.332C853.648,-232.048 859.277,-235.344 864,-239.185 884.414,-255.786 882.66,-266.395 900,-286.185 906.146,-293.199 913.312,-300.537 919.693,-306.812"/>
<polygon fill="midnightblue" stroke="midnightblue" points="917.596,-309.653 927.218,-314.087 922.461,-304.62 917.596,-309.653"/>
</g>
<!-- Node391&#45;&gt;Node388 -->
<g id="edge22" class="edge"><title>Node391&#45;&gt;Node388</title>
<path fill="none" stroke="midnightblue" d="M846.191,-229.247C863.155,-236.334 886.966,-246.282 905.95,-254.213"/>
<polygon fill="midnightblue" stroke="midnightblue" points="904.799,-257.525 915.375,-258.151 907.498,-251.066 904.799,-257.525"/>
</g>
<!-- Node391&#45;&gt;Node390 -->
<g id="edge23" class="edge"><title>Node391&#45;&gt;Node390</title>
<path fill="none" stroke="midnightblue" d="M851.161,-220.185C863.381,-220.185 878.204,-220.185 892.071,-220.185"/>
<polygon fill="midnightblue" stroke="midnightblue" points="892.429,-223.685 902.429,-220.185 892.429,-216.685 892.429,-223.685"/>
</g>
<!-- Node392&#45;&gt;Node381 -->
<g id="edge31" class="edge"><title>Node392&#45;&gt;Node381</title>
<path fill="none" stroke="midnightblue" d="M332.371,-154.007C336.283,-151.573 340.06,-148.638 343,-145.185 372.537,-110.486 348.805,-83.3123 379,-49.1848 379.881,-48.1886 380.831,-47.2393 381.834,-46.3354"/>
<polygon fill="midnightblue" stroke="midnightblue" points="384.201,-48.9445 390.291,-40.2743 380.124,-43.2549 384.201,-48.9445"/>
</g>
<!-- Node392&#45;&gt;Node382 -->
<g id="edge30" class="edge"><title>Node392&#45;&gt;Node382</title>
<path fill="none" stroke="midnightblue" d="M330.779,-154.019C335.061,-151.496 339.394,-148.522 343,-145.185 363.9,-125.845 358.977,-112.432 379,-92.1848 382.117,-89.0331 385.697,-86.0257 389.345,-83.2716"/>
<polygon fill="midnightblue" stroke="midnightblue" points="391.611,-85.9584 397.796,-77.3564 387.596,-80.2238 391.611,-85.9584"/>
</g>
<!-- Node392&#45;&gt;Node385 -->
<g id="edge44" class="edge"><title>Node392&#45;&gt;Node385</title>
<path fill="none" stroke="midnightblue" d="M334.545,-158.202C378.348,-149.813 475.952,-136.354 551,-164.185 571.374,-171.74 589.703,-188.877 601.568,-202.029"/>
<polygon fill="midnightblue" stroke="midnightblue" points="599.213,-204.658 608.388,-209.956 604.519,-200.093 599.213,-204.658"/>
</g>
<!-- Node393 -->
<g id="node21" class="node"><title>Node393</title>
<g id="a_node21"><a xlink:href="main_8h.html#ab37ca657b79c6b9176cb63e9d812a182" target="_top" xlink:title="get_pwr">
<polygon fill="none" stroke="black" points="390,-210.185 390,-228.185 439,-228.185 439,-210.185 390,-210.185"/>
<text text-anchor="middle" x="414.5" y="-216.985" font-family="Calibri" font-size="9.00">get_pwr</text>
</a>
</g>
</g>
<!-- Node392&#45;&gt;Node393 -->
<g id="edge26" class="edge"><title>Node392&#45;&gt;Node393</title>
<path fill="none" stroke="midnightblue" d="M327.242,-172.234C340.872,-180.024 361.148,-191.506 379,-201.185 381.561,-202.573 384.239,-204.005 386.92,-205.426"/>
<polygon fill="midnightblue" stroke="midnightblue" points="385.411,-208.586 395.892,-210.135 388.664,-202.388 385.411,-208.586"/>
</g>
<!-- Node397 -->
<g id="node25" class="node"><title>Node397</title>
<g id="a_node25"><a xlink:href="oled__control_8c.html#a2c663a2db505aa3f2271f6cf4bae1521" target="_top" xlink:title="dysp_on">
<polygon fill="none" stroke="black" points="689.5,-248.185 689.5,-266.185 739.5,-266.185 739.5,-248.185 689.5,-248.185"/>
<text text-anchor="middle" x="714.5" y="-254.985" font-family="Calibri" font-size="9.00">dysp_on</text>
</a>
</g>
</g>
<!-- Node392&#45;&gt;Node397 -->
<g id="edge32" class="edge"><title>Node392&#45;&gt;Node397</title>
<path fill="none" stroke="midnightblue" d="M314.084,-172.265C321.04,-195.303 342.168,-256.845 379,-294.185 416.839,-332.545 433.723,-338.129 486,-351.185 514.028,-358.185 523.099,-358.673 551,-351.185 566.035,-347.15 649.134,-296.784 690.331,-271.487"/>
<polygon fill="midnightblue" stroke="midnightblue" points="692.229,-274.429 698.912,-266.209 688.561,-268.467 692.229,-274.429"/>
</g>
<!-- Node399 -->
<g id="node27" class="node"><title>Node399</title>
<g id="a_node27"><a xlink:href="main_8c.html#a593218c5fe00b499d494826fc0aa5279" target="_top" xlink:title="button_delay">
<polygon fill="none" stroke="black" points="379,-173.185 379,-191.185 450,-191.185 450,-173.185 379,-173.185"/>
<text text-anchor="middle" x="414.5" y="-179.985" font-family="Calibri" font-size="9.00">button_delay</text>
</a>
</g>
</g>
<!-- Node392&#45;&gt;Node399 -->
<g id="edge38" class="edge"><title>Node392&#45;&gt;Node399</title>
<path fill="none" stroke="midnightblue" d="M334.645,-167.496C344.738,-169.376 356.929,-171.647 368.677,-173.835"/>
<polygon fill="midnightblue" stroke="midnightblue" points="368.351,-177.335 378.823,-175.725 369.633,-170.453 368.351,-177.335"/>
</g>
<!-- Node400 -->
<g id="node28" class="node"><title>Node400</title>
<g id="a_node28"><a xlink:href="main_8c.html#aa8fd50019a763561abc6621bb224417f" target="_top" xlink:title="lcd_swr">
<polygon fill="none" stroke="black" points="495,-97.1848 495,-115.185 542,-115.185 542,-97.1848 495,-97.1848"/>
<text text-anchor="middle" x="518.5" y="-103.985" font-family="Calibri" font-size="9.00">lcd_swr</text>
</a>
</g>
</g>
<!-- Node392&#45;&gt;Node400 -->
<g id="edge39" class="edge"><title>Node392&#45;&gt;Node400</title>
<path fill="none" stroke="midnightblue" d="M326.794,-154.146C340.144,-146.643 360.261,-136.253 379,-130.185 414.203,-118.786 456.293,-112.47 484.762,-109.216"/>
<polygon fill="midnightblue" stroke="midnightblue" points="485.397,-112.667 494.963,-108.114 484.645,-105.708 485.397,-112.667"/>
</g>
<!-- Node401 -->
<g id="node29" class="node"><title>Node401</title>
<g id="a_node29"><a xlink:href="main_8c.html#a4ae0d4fa97fc0ca3611813fee4f9af7c" target="_top" xlink:title="show_pwr">
<polygon fill="none" stroke="black" points="385.5,-266.185 385.5,-284.185 443.5,-284.185 443.5,-266.185 385.5,-266.185"/>
<text text-anchor="middle" x="414.5" y="-272.985" font-family="Calibri" font-size="9.00">show_pwr</text>
</a>
</g>
</g>
<!-- Node392&#45;&gt;Node401 -->
<g id="edge41" class="edge"><title>Node392&#45;&gt;Node401</title>
<path fill="none" stroke="midnightblue" d="M319.761,-172.469C332.433,-186.686 357.464,-214.676 379,-238.185 385.174,-244.924 392.029,-252.298 397.992,-258.677"/>
<polygon fill="midnightblue" stroke="midnightblue" points="395.557,-261.198 404.948,-266.103 400.666,-256.412 395.557,-261.198"/>
</g>
<!-- Node394 -->
<g id="node22" class="node"><title>Node394</title>
<g id="a_node22"><a xlink:href="main_8h.html#ab19e6e081315a9a200394b74d10de395" target="_top" xlink:title="correction">
<polygon fill="none" stroke="black" points="490,-247.185 490,-265.185 547,-265.185 547,-247.185 490,-247.185"/>
<text text-anchor="middle" x="518.5" y="-253.985" font-family="Calibri" font-size="9.00">correction</text>
</a>
</g>
</g>
<!-- Node393&#45;&gt;Node394 -->
<g id="edge27" class="edge"><title>Node393&#45;&gt;Node394</title>
<path fill="none" stroke="midnightblue" d="M439.157,-227.766C452.163,-232.484 468.538,-238.424 482.95,-243.652"/>
<polygon fill="midnightblue" stroke="midnightblue" points="481.954,-247.014 492.548,-247.134 484.341,-240.433 481.954,-247.014"/>
</g>
<!-- Node395 -->
<g id="node23" class="node"><title>Node395</title>
<g id="a_node23"><a xlink:href="main_8h.html#acfd46f8711e9c1c20fffdfc8bdaa0ddd" target="_top" xlink:title="get_forward">
<polygon fill="none" stroke="black" points="486,-210.185 486,-228.185 551,-228.185 551,-210.185 486,-210.185"/>
<text text-anchor="middle" x="518.5" y="-216.985" font-family="Calibri" font-size="9.00">get_forward</text>
</a>
</g>
</g>
<!-- Node393&#45;&gt;Node395 -->
<g id="edge28" class="edge"><title>Node393&#45;&gt;Node395</title>
<path fill="none" stroke="midnightblue" d="M439.157,-219.185C450.008,-219.185 463.203,-219.185 475.647,-219.185"/>
<polygon fill="midnightblue" stroke="midnightblue" points="475.855,-222.685 485.855,-219.185 475.855,-215.685 475.855,-222.685"/>
</g>
<!-- Node396 -->
<g id="node24" class="node"><title>Node396</title>
<g id="a_node24"><a xlink:href="main_8h.html#aa6b9a2b3d88f578ba6a9fefd911eae75" target="_top" xlink:title="get_reverse">
<polygon fill="none" stroke="black" points="486.5,-173.185 486.5,-191.185 550.5,-191.185 550.5,-173.185 486.5,-173.185"/>
<text text-anchor="middle" x="518.5" y="-179.985" font-family="Calibri" font-size="9.00">get_reverse</text>
</a>
</g>
</g>
<!-- Node393&#45;&gt;Node396 -->
<g id="edge29" class="edge"><title>Node393&#45;&gt;Node396</title>
<path fill="none" stroke="midnightblue" d="M439.157,-210.603C452.163,-205.885 468.538,-199.946 482.95,-194.718"/>
<polygon fill="midnightblue" stroke="midnightblue" points="484.341,-197.936 492.548,-191.236 481.954,-191.356 484.341,-197.936"/>
</g>
<!-- Node397&#45;&gt;Node391 -->
<g id="edge37" class="edge"><title>Node397&#45;&gt;Node391</title>
<path fill="none" stroke="midnightblue" d="M739.513,-248.881C753.362,-244.092 771.045,-237.978 786.526,-232.624"/>
<polygon fill="midnightblue" stroke="midnightblue" points="788.012,-235.814 796.32,-229.238 785.725,-229.198 788.012,-235.814"/>
</g>
<!-- Node398 -->
<g id="node26" class="node"><title>Node398</title>
<g id="a_node26"><a xlink:href="oled__control_8c.html#ad141ed038278a6fcad6c307932f01ec8" target="_top" xlink:title="send_command">
<polygon fill="none" stroke="black" points="783,-248.185 783,-266.185 864,-266.185 864,-248.185 783,-248.185"/>
<text text-anchor="middle" x="823.5" y="-254.985" font-family="Calibri" font-size="9.00">send_command</text>
</a>
</g>
</g>
<!-- Node397&#45;&gt;Node398 -->
<g id="edge33" class="edge"><title>Node397&#45;&gt;Node398</title>
<path fill="none" stroke="midnightblue" d="M739.513,-257.185C749.33,-257.185 761.073,-257.185 772.594,-257.185"/>
<polygon fill="midnightblue" stroke="midnightblue" points="772.606,-260.685 782.606,-257.185 772.606,-253.685 772.606,-260.685"/>
</g>
<!-- Node398&#45;&gt;Node387 -->
<g id="edge34" class="edge"><title>Node398&#45;&gt;Node387</title>
<path fill="none" stroke="midnightblue" d="M840.143,-266.362C858.949,-277.395 890.724,-296.036 912.726,-308.944"/>
<polygon fill="midnightblue" stroke="midnightblue" points="911.094,-312.044 921.49,-314.086 914.636,-306.007 911.094,-312.044"/>
</g>
<!-- Node398&#45;&gt;Node388 -->
<g id="edge35" class="edge"><title>Node398&#45;&gt;Node388</title>
<path fill="none" stroke="midnightblue" d="M864.163,-260.71C872.439,-261.446 881.24,-262.228 889.758,-262.985"/>
<polygon fill="midnightblue" stroke="midnightblue" points="889.683,-266.493 899.954,-263.892 890.303,-259.52 889.683,-266.493"/>
</g>
<!-- Node398&#45;&gt;Node390 -->
<g id="edge36" class="edge"><title>Node398&#45;&gt;Node390</title>
<path fill="none" stroke="midnightblue" d="M852.021,-248.134C866.321,-243.43 884.009,-237.613 899.538,-232.506"/>
<polygon fill="midnightblue" stroke="midnightblue" points="900.968,-235.72 909.374,-229.271 898.781,-229.07 900.968,-235.72"/>
</g>
<!-- Node400&#45;&gt;Node385 -->
<g id="edge40" class="edge"><title>Node400&#45;&gt;Node385</title>
<path fill="none" stroke="midnightblue" d="M533.082,-115.193C538.919,-119.393 545.621,-124.675 551,-130.185 572.682,-152.393 592.849,-182.307 604.674,-201.171"/>
<polygon fill="midnightblue" stroke="midnightblue" points="601.841,-203.245 610.061,-209.929 607.803,-199.578 601.841,-203.245"/>
</g>
<!-- Node401&#45;&gt;Node384 -->
<g id="edge43" class="edge"><title>Node401&#45;&gt;Node384</title>
<path fill="none" stroke="midnightblue" d="M431.888,-284.343C448.171,-293.442 473.367,-307.522 492.216,-318.056"/>
<polygon fill="midnightblue" stroke="midnightblue" points="490.716,-321.227 501.153,-323.049 494.131,-315.116 490.716,-321.227"/>
</g>
<!-- Node401&#45;&gt;Node385 -->
<g id="edge42" class="edge"><title>Node401&#45;&gt;Node385</title>
<path fill="none" stroke="midnightblue" d="M443.762,-280.782C471.901,-285.083 515.851,-288.314 551,-275.185 571.708,-267.45 590.169,-249.736 601.978,-236.287"/>
<polygon fill="midnightblue" stroke="midnightblue" points="604.688,-238.502 608.433,-228.591 599.325,-234.004 604.688,-238.502"/>
</g>
</g>
</svg>
        <g id="navigator" transform="translate(0 0)" fill="#404254">
                <rect fill="#f2f5e9" fill-opacity="0.5" stroke="#606060" stroke-width=".5" x="0" y="0" width="60" height="60"/>
                <use id="zoomplus" xlink:href="#zoomPlus" x="17" y="9" onmousedown="handleZoom(evt,'in')"/>
                <use id="zoomminus" xlink:href="#zoomMin" x="42" y="9" onmousedown="handleZoom(evt,'out')"/>
                <use id="reset" xlink:href="#resetDef" x="30" y="36" onmousedown="handleReset()"/>
                <g id="arrowUp" xlink:href="#dirArrow" transform="translate(30 24)" onmousedown="handlePan(0,-1)">
                  <use xlink:href="#rim" fill="#404040">
                        <set attributeName="fill" to="#808080" begin="arrowUp.mouseover" end="arrowUp.mouseout"/>
                  </use>
                  <path fill="none" stroke="white" stroke-width="1.5" d="M0,-3.0v7 M-2.5,-0.5L0,-3.0L2.5,-0.5"/>
                </g>
                <g id="arrowRight" xlink:href="#dirArrow" transform="rotate(90) translate(36 -43)" onmousedown="handlePan(1,0)">
                  <use xlink:href="#rim" fill="#404040">
                        <set attributeName="fill" to="#808080" begin="arrowRight.mouseover" end="arrowRight.mouseout"/>
                  </use>
                  <path fill="none" stroke="white" stroke-width="1.5" d="M0,-3.0v7 M-2.5,-0.5L0,-3.0L2.5,-0.5"/>
                </g>
                <g id="arrowDown" xlink:href="#dirArrow" transform="rotate(180) translate(-30 -48)" onmousedown="handlePan(0,1)">
                  <use xlink:href="#rim" fill="#404040">
                        <set attributeName="fill" to="#808080" begin="arrowDown.mouseover" end="arrowDown.mouseout"/>
                  </use>
                  <path fill="none" stroke="white" stroke-width="1.5" d="M0,-3.0v7 M-2.5,-0.5L0,-3.0L2.5,-0.5"/>
                </g>
                <g id="arrowLeft" xlink:href="#dirArrow" transform="rotate(270) translate(-36 17)" onmousedown="handlePan(-1,0)">
                  <use xlink:href="#rim" fill="#404040">
                        <set attributeName="fill" to="#808080" begin="arrowLeft.mouseover" end="arrowLeft.mouseout"/>
                  </use>
                  <path fill="none" stroke="white" stroke-width="1.5" d="M0,-3.0v7 M-2.5,-0.5L0,-3.0L2.5,-0.5"/>
                </g>
        </g>
        <svg viewBox="0 0 15 15" width="100%" height="30px" preserveAspectRatio="xMaxYMin meet">
         <g id="arrow_out" transform="scale(0.3 0.3)">
          <a xlink:href="main__main_8h_a72210b3ed1d5691c5bbda8c7f1e97197_cgraph_org.svg" target="_base">
           <rect id="button" ry="5" rx="5" y="6" x="6" height="38" width="38"
                fill="#f2f5e9" fill-opacity="0.5" stroke="#606060" stroke-width="1.0"/>
           <path id="arrow"
             d="M 11.500037,31.436501 C 11.940474,20.09759 22.043105,11.32322 32.158766,21.979434 L 37.068811,17.246167 C 37.068811,17.246167 37.088388,32 37.088388,32 L 22.160133,31.978069 C 22.160133,31.978069 26.997745,27.140456 26.997745,27.140456 C 18.528582,18.264221 13.291696,25.230495 11.500037,31.436501 z"
             style="fill:#404040;"/>
          </a>
         </g>
        </svg>
</svg>
