<?xml version="1.0" encoding="UTF-8" standalone="no"?>
<!DOCTYPE svg PUBLIC "-//W3C//DTD SVG 1.1//EN"
 "http://www.w3.org/Graphics/SVG/1.1/DTD/svg11.dtd">
<!-- Generated by graphviz version 2.38.0 (20140413.2041)
 -->
<!-- Title: btn_push Pages: 1 -->
<svg width="238pt" height="27pt"
 viewBox="0.00 0.00 238.00 27.00" xmlns="http://www.w3.org/2000/svg" xmlns:xlink="http://www.w3.org/1999/xlink">
<g id="graph0" class="graph" transform="scale(1 1) rotate(0) translate(4 23)">
<title>btn_push</title>
<!-- Node1 -->
<g id="node1" class="node"><title>Node1</title>
<g id="a_node1"><a xlink:title=" ">
<polygon fill="#bfbfbf" stroke="black" points="175,-0.5 175,-18.5 230,-18.5 230,-0.5 175,-0.5"/>
<text text-anchor="middle" x="202.5" y="-7.3" font-family="Calibri" font-size="9.00">btn_push</text>
</a>
</g>
</g>
<!-- Node2 -->
<g id="node2" class="node"><title>Node2</title>
<g id="a_node2"><a xlink:href="main_8c.html#a1c9e5d54d8cf7f3d041aa2e0b330b3dd" target="_top" xlink:title="Handle the process of the buttons being pressed.">
<polygon fill="none" stroke="black" points="74,-0.5 74,-18.5 139,-18.5 139,-0.5 74,-0.5"/>
<text text-anchor="middle" x="106.5" y="-7.3" font-family="Calibri" font-size="9.00">button_proc</text>
</a>
</g>
</g>
<!-- Node1&#45;&gt;Node2 -->
<g id="edge1" class="edge"><title>Node1&#45;&gt;Node2</title>
<path fill="none" stroke="midnightblue" d="M164.545,-9.5C156.183,-9.5 147.376,-9.5 139.25,-9.5"/>
<polygon fill="midnightblue" stroke="midnightblue" points="164.815,-13.0001 174.815,-9.5 164.815,-6.0001 164.815,-13.0001"/>
</g>
<!-- Node3 -->
<g id="node3" class="node"><title>Node3</title>
<g id="a_node3"><a xlink:href="main_8c.html#acdef7a1fd863a6d3770c1268cb06add3" target="_top" xlink:title=" ">
<polygon fill="none" stroke="black" points="0,-0.5 0,-18.5 38,-18.5 38,-0.5 0,-0.5"/>
<text text-anchor="middle" x="19" y="-7.3" font-family="Calibri" font-size="9.00">main</text>
</a>
</g>
</g>
<!-- Node2&#45;&gt;Node3 -->
<g id="edge2" class="edge"><title>Node2&#45;&gt;Node3</title>
<path fill="none" stroke="midnightblue" d="M63.658,-9.5C54.7022,-9.5 45.6933,-9.5 38.2043,-9.5"/>
<polygon fill="midnightblue" stroke="midnightblue" points="63.663,-13.0001 73.663,-9.5 63.6629,-6.0001 63.663,-13.0001"/>
</g>
</g>
</svg>
