<?xml version="1.0" encoding="UTF-8" standalone="no"?>
<!DOCTYPE svg PUBLIC "-//W3C//DTD SVG 1.1//EN"
 "http://www.w3.org/Graphics/SVG/1.1/DTD/svg11.dtd">
<!-- Generated by graphviz version 2.38.0 (20140413.2041)
 -->
<!-- Title: get_swr Pages: 1 -->
<svg width="584pt" height="483pt"
 viewBox="0.00 0.00 584.00 482.92" xmlns="http://www.w3.org/2000/svg" xmlns:xlink="http://www.w3.org/1999/xlink">
<g id="graph0" class="graph" transform="scale(1 1) rotate(0) translate(4 478.921)">
<title>get_swr</title>
<!-- Node1 -->
<g id="node1" class="node"><title>Node1</title>
<g id="a_node1"><a xlink:title=" ">
<polygon fill="#bfbfbf" stroke="black" points="0,-271.421 0,-289.421 48,-289.421 48,-271.421 0,-271.421"/>
<text text-anchor="middle" x="24" y="-278.221" font-family="Calibri" font-size="9.00">get_swr</text>
</a>
</g>
</g>
<!-- Node2 -->
<g id="node2" class="node"><title>Node2</title>
<g id="a_node2"><a xlink:href="main_8h.html#ab37ca657b79c6b9176cb63e9d812a182" target="_top" xlink:title=" ">
<polygon fill="none" stroke="black" points="287,-382.421 287,-400.421 336,-400.421 336,-382.421 287,-382.421"/>
<text text-anchor="middle" x="311.5" y="-389.221" font-family="Calibri" font-size="9.00">get_pwr</text>
</a>
</g>
</g>
<!-- Node1&#45;&gt;Node2 -->
<g id="edge1" class="edge"><title>Node1&#45;&gt;Node2</title>
<path fill="none" stroke="midnightblue" d="M48.3637,-289.505C99.0982,-309.23 219.46,-356.026 277.747,-378.687"/>
<polygon fill="midnightblue" stroke="midnightblue" points="276.625,-382.006 287.214,-382.368 279.162,-375.482 276.625,-382.006"/>
</g>
<!-- Node6 -->
<g id="node6" class="node"><title>Node6</title>
<g id="a_node6"><a xlink:href="main_8c.html#a4ae0d4fa97fc0ca3611813fee4f9af7c" target="_top" xlink:title=" ">
<polygon fill="none" stroke="black" points="282.5,-271.421 282.5,-289.421 340.5,-289.421 340.5,-271.421 282.5,-271.421"/>
<text text-anchor="middle" x="311.5" y="-278.221" font-family="Calibri" font-size="9.00">show_pwr</text>
</a>
</g>
</g>
<!-- Node1&#45;&gt;Node6 -->
<g id="edge5" class="edge"><title>Node1&#45;&gt;Node6</title>
<path fill="none" stroke="midnightblue" d="M48.3637,-280.421C97.4858,-280.421 211.88,-280.421 272.006,-280.421"/>
<polygon fill="midnightblue" stroke="midnightblue" points="272.223,-283.921 282.223,-280.421 272.223,-276.921 272.223,-283.921"/>
</g>
<!-- Node9 -->
<g id="node9" class="node"><title>Node9</title>
<g id="a_node9"><a xlink:href="main_8c.html#a11724d8cce81ed96bec12a004ea3ea7a" target="_top" xlink:title=" ">
<polygon fill="none" stroke="black" points="84,-101.421 84,-119.421 148,-119.421 148,-101.421 84,-101.421"/>
<text text-anchor="middle" x="116" y="-108.221" font-family="Calibri" font-size="9.00">show_reset</text>
</a>
</g>
</g>
<!-- Node1&#45;&gt;Node9 -->
<g id="edge9" class="edge"><title>Node1&#45;&gt;Node9</title>
<path fill="none" stroke="midnightblue" d="M29.8388,-271.281C44.1228,-244.301 86.2992,-164.634 105.403,-128.549"/>
<polygon fill="midnightblue" stroke="midnightblue" points="108.552,-130.082 110.137,-119.607 102.365,-126.807 108.552,-130.082"/>
</g>
<!-- Node3 -->
<g id="node3" class="node"><title>Node3</title>
<g id="a_node3"><a xlink:href="main_8h.html#ab19e6e081315a9a200394b74d10de395" target="_top" xlink:title=" ">
<polygon fill="none" stroke="black" points="395,-419.421 395,-437.421 452,-437.421 452,-419.421 395,-419.421"/>
<text text-anchor="middle" x="423.5" y="-426.221" font-family="Calibri" font-size="9.00">correction</text>
</a>
</g>
</g>
<!-- Node2&#45;&gt;Node3 -->
<g id="edge2" class="edge"><title>Node2&#45;&gt;Node3</title>
<path fill="none" stroke="midnightblue" d="M336.098,-399.359C350.526,-404.212 369.291,-410.524 385.646,-416.025"/>
<polygon fill="midnightblue" stroke="midnightblue" points="384.863,-419.454 395.457,-419.325 387.094,-412.819 384.863,-419.454"/>
</g>
<!-- Node4 -->
<g id="node4" class="node"><title>Node4</title>
<g id="a_node4"><a xlink:href="main_8h.html#acfd46f8711e9c1c20fffdfc8bdaa0ddd" target="_top" xlink:title=" ">
<polygon fill="none" stroke="black" points="391,-382.421 391,-400.421 456,-400.421 456,-382.421 391,-382.421"/>
<text text-anchor="middle" x="423.5" y="-389.221" font-family="Calibri" font-size="9.00">get_forward</text>
</a>
</g>
</g>
<!-- Node2&#45;&gt;Node4 -->
<g id="edge3" class="edge"><title>Node2&#45;&gt;Node4</title>
<path fill="none" stroke="midnightblue" d="M336.098,-391.421C349.023,-391.421 365.428,-391.421 380.463,-391.421"/>
<polygon fill="midnightblue" stroke="midnightblue" points="380.593,-394.921 390.593,-391.421 380.593,-387.921 380.593,-394.921"/>
</g>
<!-- Node5 -->
<g id="node5" class="node"><title>Node5</title>
<g id="a_node5"><a xlink:href="main_8h.html#aa6b9a2b3d88f578ba6a9fefd911eae75" target="_top" xlink:title=" ">
<polygon fill="none" stroke="black" points="391.5,-456.421 391.5,-474.421 455.5,-474.421 455.5,-456.421 391.5,-456.421"/>
<text text-anchor="middle" x="423.5" y="-463.221" font-family="Calibri" font-size="9.00">get_reverse</text>
</a>
</g>
</g>
<!-- Node2&#45;&gt;Node5 -->
<g id="edge4" class="edge"><title>Node2&#45;&gt;Node5</title>
<path fill="none" stroke="midnightblue" d="M322.962,-400.753C336.287,-412.354 360.313,-432.342 383,-446.421 386.001,-448.284 389.211,-450.095 392.457,-451.813"/>
<polygon fill="midnightblue" stroke="midnightblue" points="391.045,-455.02 401.554,-456.371 394.181,-448.762 391.045,-455.02"/>
</g>
<!-- Node7 -->
<g id="node7" class="node"><title>Node7</title>
<g id="a_node7"><a xlink:href="main_8c.html#a6911b3f075cdf1d54cb14f17f6e5ef6b" target="_top" xlink:title=" ">
<polygon fill="none" stroke="black" points="400,-195.421 400,-213.421 447,-213.421 447,-195.421 400,-195.421"/>
<text text-anchor="middle" x="423.5" y="-202.221" font-family="Calibri" font-size="9.00">lcd_ind</text>
</a>
</g>
</g>
<!-- Node6&#45;&gt;Node7 -->
<g id="edge6" class="edge"><title>Node6&#45;&gt;Node7</title>
<path fill="none" stroke="midnightblue" d="M331.452,-271.407C336.706,-268.536 342.263,-265.132 347,-261.421 365.572,-246.877 363.891,-236.252 383,-222.421 385.484,-220.624 388.176,-218.943 390.948,-217.387"/>
<polygon fill="midnightblue" stroke="midnightblue" points="392.568,-220.489 399.912,-212.853 389.409,-214.243 392.568,-220.489"/>
</g>
<!-- Node8 -->
<g id="node8" class="node"><title>Node8</title>
<g id="a_node8"><a xlink:href="oled__control_8h.html#ab272af1010175ba1166b08b8b3df6874" target="_top" xlink:title=" ">
<polygon fill="none" stroke="black" points="508.5,-195.421 508.5,-213.421 567.5,-213.421 567.5,-195.421 508.5,-195.421"/>
<text text-anchor="middle" x="538" y="-202.221" font-family="Calibri" font-size="9.00">led_wr_str</text>
</a>
</g>
</g>
<!-- Node6&#45;&gt;Node8 -->
<g id="edge8" class="edge"><title>Node6&#45;&gt;Node8</title>
<path fill="none" stroke="midnightblue" d="M340.686,-280.694C371.964,-280.06 423.382,-276.199 464,-259.421 485.823,-250.407 506.939,-233.291 520.798,-220.536"/>
<polygon fill="midnightblue" stroke="midnightblue" points="523.233,-223.051 528.069,-213.624 518.41,-217.977 523.233,-223.051"/>
</g>
<!-- Node7&#45;&gt;Node8 -->
<g id="edge7" class="edge"><title>Node7&#45;&gt;Node8</title>
<path fill="none" stroke="midnightblue" d="M447.266,-204.421C461.835,-204.421 481.114,-204.421 498.068,-204.421"/>
<polygon fill="midnightblue" stroke="midnightblue" points="498.261,-207.921 508.261,-204.421 498.261,-200.921 498.261,-207.921"/>
</g>
<!-- Node9&#45;&gt;Node7 -->
<g id="edge13" class="edge"><title>Node9&#45;&gt;Node7</title>
<path fill="none" stroke="midnightblue" d="M127.455,-101.162C161.548,-72.133 271.632,12.3372 347,-36.4214 398.844,-69.9612 415.433,-148.49 420.456,-185.054"/>
<polygon fill="midnightblue" stroke="midnightblue" points="417.025,-185.838 421.71,-195.341 423.974,-184.991 417.025,-185.838"/>
</g>
<!-- Node9&#45;&gt;Node8 -->
<g id="edge33" class="edge"><title>Node9&#45;&gt;Node8</title>
<path fill="none" stroke="midnightblue" d="M121.606,-101.326C130.83,-84.1668 153.343,-47.235 184,-30.4214 247.69,4.50968 279.742,9.01959 347,-18.4214 432.501,-53.3055 500.397,-147.249 525.991,-186.648"/>
<polygon fill="midnightblue" stroke="midnightblue" points="523.252,-188.862 531.572,-195.421 529.158,-185.105 523.252,-188.862"/>
</g>
<!-- Node10 -->
<g id="node10" class="node"><title>Node10</title>
<g id="a_node10"><a xlink:href="main_8h.html#a9dff326a6079fe726285b11ee837ad60" target="_top" xlink:title=" ">
<polygon fill="none" stroke="black" points="184,-82.4214 184,-100.421 240,-100.421 240,-82.4214 184,-82.4214"/>
<text text-anchor="middle" x="212" y="-89.2214" font-family="Calibri" font-size="9.00">atu_reset</text>
</a>
</g>
</g>
<!-- Node9&#45;&gt;Node10 -->
<g id="edge10" class="edge"><title>Node9&#45;&gt;Node10</title>
<path fill="none" stroke="midnightblue" d="M148.04,-104.147C156.252,-102.488 165.201,-100.679 173.707,-98.9592"/>
<polygon fill="midnightblue" stroke="midnightblue" points="174.675,-102.334 183.784,-96.9225 173.288,-95.4732 174.675,-102.334"/>
</g>
<!-- Node13 -->
<g id="node13" class="node"><title>Node13</title>
<g id="a_node13"><a xlink:href="main_8c.html#ae5a14b4884e85f47ad8a4a716f13203a" target="_top" xlink:title=" ">
<polygon fill="none" stroke="black" points="188,-177.421 188,-195.421 236,-195.421 236,-177.421 188,-177.421"/>
<text text-anchor="middle" x="212" y="-184.221" font-family="Calibri" font-size="9.00">lcd_pwr</text>
</a>
</g>
</g>
<!-- Node9&#45;&gt;Node13 -->
<g id="edge14" class="edge"><title>Node9&#45;&gt;Node13</title>
<path fill="none" stroke="midnightblue" d="M128.152,-119.438C143.911,-132.179 172.909,-155.624 192.074,-171.12"/>
<polygon fill="midnightblue" stroke="midnightblue" points="189.885,-173.851 199.862,-177.416 194.287,-168.407 189.885,-173.851"/>
</g>
<!-- Node22 -->
<g id="node22" class="node"><title>Node22</title>
<g id="a_node22"><a xlink:href="main_8h.html#ae0c1e0ec712704e43db40473f103d621" target="_top" xlink:title="Set the state of the switch.">
<polygon fill="none" stroke="black" points="289,-120.421 289,-138.421 334,-138.421 334,-120.421 289,-120.421"/>
<text text-anchor="middle" x="311.5" y="-127.221" font-family="Calibri" font-size="9.00">set_sw</text>
</a>
</g>
</g>
<!-- Node9&#45;&gt;Node22 -->
<g id="edge34" class="edge"><title>Node9&#45;&gt;Node22</title>
<path fill="none" stroke="midnightblue" d="M148.089,-113.474C183.968,-116.997 242.659,-122.76 278.796,-126.308"/>
<polygon fill="midnightblue" stroke="midnightblue" points="278.501,-129.796 288.795,-127.29 279.185,-122.83 278.501,-129.796"/>
</g>
<!-- Node11 -->
<g id="node11" class="node"><title>Node11</title>
<g id="a_node11"><a xlink:href="main_8h.html#a2a7963b9b09696c6654b96c67900c6ea" target="_top" xlink:title=" ">
<polygon fill="none" stroke="black" points="287.5,-46.4214 287.5,-64.4214 335.5,-64.4214 335.5,-46.4214 287.5,-46.4214"/>
<text text-anchor="middle" x="311.5" y="-53.2214" font-family="Calibri" font-size="9.00">set_cap</text>
</a>
</g>
</g>
<!-- Node10&#45;&gt;Node11 -->
<g id="edge11" class="edge"><title>Node10&#45;&gt;Node11</title>
<path fill="none" stroke="midnightblue" d="M237.603,-82.3371C249.741,-77.8555 264.55,-72.3874 277.643,-67.5533"/>
<polygon fill="midnightblue" stroke="midnightblue" points="279.078,-70.7543 287.247,-64.0071 276.654,-64.1876 279.078,-70.7543"/>
</g>
<!-- Node12 -->
<g id="node12" class="node"><title>Node12</title>
<g id="a_node12"><a xlink:href="main_8h.html#aecc83cd8bceb4bc24be844732ead2c2c" target="_top" xlink:title=" ">
<polygon fill="none" stroke="black" points="288,-83.4214 288,-101.421 335,-101.421 335,-83.4214 288,-83.4214"/>
<text text-anchor="middle" x="311.5" y="-90.2214" font-family="Calibri" font-size="9.00">set_ind</text>
</a>
</g>
</g>
<!-- Node10&#45;&gt;Node12 -->
<g id="edge12" class="edge"><title>Node10&#45;&gt;Node12</title>
<path fill="none" stroke="midnightblue" d="M240.159,-91.6999C251.752,-91.8188 265.385,-91.9587 277.548,-92.0834"/>
<polygon fill="midnightblue" stroke="midnightblue" points="277.734,-95.5854 287.769,-92.1882 277.806,-88.5858 277.734,-95.5854"/>
</g>
<!-- Node13&#45;&gt;Node2 -->
<g id="edge25" class="edge"><title>Node13&#45;&gt;Node2</title>
<path fill="none" stroke="midnightblue" d="M216.363,-195.713C225.088,-219.486 249.613,-284.249 276,-335.421 282.8,-348.609 291.585,-362.837 298.589,-373.651"/>
<polygon fill="midnightblue" stroke="midnightblue" points="295.769,-375.733 304.189,-382.163 301.617,-371.886 295.769,-375.733"/>
</g>
<!-- Node13&#45;&gt;Node6 -->
<g id="edge32" class="edge"><title>Node13&#45;&gt;Node6</title>
<path fill="none" stroke="midnightblue" d="M219.073,-195.674C229.378,-210.849 251.561,-241.343 276,-261.421 277.988,-263.055 280.137,-264.618 282.356,-266.097"/>
<polygon fill="midnightblue" stroke="midnightblue" points="280.704,-269.188 291.075,-271.352 284.317,-263.193 280.704,-269.188"/>
</g>
<!-- Node13&#45;&gt;Node8 -->
<g id="edge28" class="edge"><title>Node13&#45;&gt;Node8</title>
<path fill="none" stroke="midnightblue" d="M236.31,-184.301C280.798,-180.703 380.794,-174.771 464,-185.421 475.636,-186.911 488.067,-189.684 499.312,-192.661"/>
<polygon fill="midnightblue" stroke="midnightblue" points="498.676,-196.117 509.248,-195.42 500.55,-189.372 498.676,-196.117"/>
</g>
<!-- Node13&#45;&gt;Node11 -->
<g id="edge29" class="edge"><title>Node13&#45;&gt;Node11</title>
<path fill="none" stroke="midnightblue" d="M215.993,-177.374C223.256,-156.608 243.637,-104.899 276,-73.4214 277.232,-72.2232 278.56,-71.0854 279.952,-70.0078"/>
<polygon fill="midnightblue" stroke="midnightblue" points="281.948,-72.8849 288.415,-64.4934 278.126,-67.0199 281.948,-72.8849"/>
</g>
<!-- Node13&#45;&gt;Node12 -->
<g id="edge30" class="edge"><title>Node13&#45;&gt;Node12</title>
<path fill="none" stroke="midnightblue" d="M218.994,-176.977C229.185,-161.5 251.208,-130.46 276,-110.421 277.576,-109.147 279.257,-107.925 280.996,-106.759"/>
<polygon fill="midnightblue" stroke="midnightblue" points="283.154,-109.548 289.962,-101.429 279.577,-103.53 283.154,-109.548"/>
</g>
<!-- Node14 -->
<g id="node14" class="node"><title>Node14</title>
<g id="a_node14"><a xlink:href="main_8c.html#a593218c5fe00b499d494826fc0aa5279" target="_top" xlink:title=" ">
<polygon fill="none" stroke="black" points="276,-234.421 276,-252.421 347,-252.421 347,-234.421 276,-234.421"/>
<text text-anchor="middle" x="311.5" y="-241.221" font-family="Calibri" font-size="9.00">button_delay</text>
</a>
</g>
</g>
<!-- Node13&#45;&gt;Node14 -->
<g id="edge15" class="edge"><title>Node13&#45;&gt;Node14</title>
<path fill="none" stroke="midnightblue" d="M228.665,-195.579C244.159,-204.637 268.095,-218.631 286.085,-229.148"/>
<polygon fill="midnightblue" stroke="midnightblue" points="284.474,-232.261 294.874,-234.286 288.007,-226.218 284.474,-232.261"/>
</g>
<!-- Node15 -->
<g id="node15" class="node"><title>Node15</title>
<g id="a_node15"><a xlink:href="oled__control_8c.html#a5febfdc847aa6f3bc3f3c8f7818b8699" target="_top" xlink:title=" ">
<polygon fill="none" stroke="black" points="280.5,-308.421 280.5,-326.421 342.5,-326.421 342.5,-308.421 280.5,-308.421"/>
<text text-anchor="middle" x="311.5" y="-315.221" font-family="Calibri" font-size="9.00">display_on</text>
</a>
</g>
</g>
<!-- Node13&#45;&gt;Node15 -->
<g id="edge16" class="edge"><title>Node13&#45;&gt;Node15</title>
<path fill="none" stroke="midnightblue" d="M216.176,-195.646C223.683,-216.321 244.308,-267.013 276,-298.421 277.457,-299.865 279.046,-301.232 280.717,-302.519"/>
<polygon fill="midnightblue" stroke="midnightblue" points="279.23,-305.729 289.511,-308.288 283.07,-299.876 279.23,-305.729"/>
</g>
<!-- Node21 -->
<g id="node21" class="node"><title>Node21</title>
<g id="a_node21"><a xlink:href="main_8c.html#aa8fd50019a763561abc6621bb224417f" target="_top" xlink:title=" ">
<polygon fill="none" stroke="black" points="400,-232.421 400,-250.421 447,-250.421 447,-232.421 400,-232.421"/>
<text text-anchor="middle" x="423.5" y="-239.221" font-family="Calibri" font-size="9.00">lcd_swr</text>
</a>
</g>
</g>
<!-- Node13&#45;&gt;Node21 -->
<g id="edge26" class="edge"><title>Node13&#45;&gt;Node21</title>
<path fill="none" stroke="midnightblue" d="M236.221,-192.517C273.62,-202.336 347.307,-221.681 389.938,-232.873"/>
<polygon fill="midnightblue" stroke="midnightblue" points="389.251,-236.311 399.812,-235.465 391.029,-229.541 389.251,-236.311"/>
</g>
<!-- Node13&#45;&gt;Node22 -->
<g id="edge31" class="edge"><title>Node13&#45;&gt;Node22</title>
<path fill="none" stroke="midnightblue" d="M228.665,-177.263C244.159,-168.205 268.095,-154.212 286.085,-143.695"/>
<polygon fill="midnightblue" stroke="midnightblue" points="288.007,-146.625 294.874,-138.557 284.474,-140.582 288.007,-146.625"/>
</g>
<!-- Node16 -->
<g id="node16" class="node"><title>Node16</title>
<g id="a_node16"><a xlink:href="oled__control_8c.html#a5a5d7ef6b1877aaf94c1f4b7fc0f2d2d" target="_top" xlink:title=" ">
<polygon fill="none" stroke="black" points="396,-345.421 396,-363.421 451,-363.421 451,-345.421 396,-345.421"/>
<text text-anchor="middle" x="423.5" y="-352.221" font-family="Calibri" font-size="9.00">led_send</text>
</a>
</g>
</g>
<!-- Node15&#45;&gt;Node16 -->
<g id="edge17" class="edge"><title>Node15&#45;&gt;Node16</title>
<path fill="none" stroke="midnightblue" d="M339.409,-326.473C353.496,-331.211 370.945,-337.08 386.21,-342.215"/>
<polygon fill="midnightblue" stroke="midnightblue" points="385.275,-345.593 395.869,-345.464 387.506,-338.958 385.275,-345.593"/>
</g>
<!-- Node20 -->
<g id="node20" class="node"><title>Node20</title>
<g id="a_node20"><a xlink:href="oled__control_8c.html#ad141ed038278a6fcad6c307932f01ec8" target="_top" xlink:title=" ">
<polygon fill="none" stroke="black" points="383,-308.421 383,-326.421 464,-326.421 464,-308.421 383,-308.421"/>
<text text-anchor="middle" x="423.5" y="-315.221" font-family="Calibri" font-size="9.00">send_command</text>
</a>
</g>
</g>
<!-- Node15&#45;&gt;Node20 -->
<g id="edge21" class="edge"><title>Node15&#45;&gt;Node20</title>
<path fill="none" stroke="midnightblue" d="M342.558,-317.421C351.909,-317.421 362.48,-317.421 372.8,-317.421"/>
<polygon fill="midnightblue" stroke="midnightblue" points="372.982,-320.921 382.982,-317.421 372.982,-313.921 372.982,-320.921"/>
</g>
<!-- Node17 -->
<g id="node17" class="node"><title>Node17</title>
<g id="a_node17"><a xlink:href="oled__control_8c.html#ab7f6b5c6c1483f6286f2de5786c028d9" target="_top" xlink:title=" ">
<polygon fill="none" stroke="black" points="502,-289.421 502,-307.421 574,-307.421 574,-289.421 502,-289.421"/>
<text text-anchor="middle" x="538" y="-296.221" font-family="Calibri" font-size="9.00">Soft_I2C_Start</text>
</a>
</g>
</g>
<!-- Node16&#45;&gt;Node17 -->
<g id="edge18" class="edge"><title>Node16&#45;&gt;Node17</title>
<path fill="none" stroke="midnightblue" d="M443.858,-345.287C450.291,-342.204 457.477,-338.71 464,-335.421 480.155,-327.277 483.863,-324.602 500,-316.421 502.931,-314.936 506.003,-313.403 509.071,-311.887"/>
<polygon fill="midnightblue" stroke="midnightblue" points="510.675,-314.999 518.118,-307.459 507.597,-308.712 510.675,-314.999"/>
</g>
<!-- Node18 -->
<g id="node18" class="node"><title>Node18</title>
<g id="a_node18"><a xlink:href="oled__control_8c.html#a16eb842aa672ca44820ae6d5f9933425" target="_top" xlink:title=" ">
<polygon fill="none" stroke="black" points="502.5,-363.421 502.5,-381.421 573.5,-381.421 573.5,-363.421 502.5,-363.421"/>
<text text-anchor="middle" x="538" y="-370.221" font-family="Calibri" font-size="9.00">Soft_I2C_Stop</text>
</a>
</g>
</g>
<!-- Node16&#45;&gt;Node18 -->
<g id="edge19" class="edge"><title>Node16&#45;&gt;Node18</title>
<path fill="none" stroke="midnightblue" d="M451.161,-358.687C463.5,-360.661 478.495,-363.061 492.478,-365.298"/>
<polygon fill="midnightblue" stroke="midnightblue" points="492.002,-368.766 502.429,-366.89 493.108,-361.854 492.002,-368.766"/>
</g>
<!-- Node19 -->
<g id="node19" class="node"><title>Node19</title>
<g id="a_node19"><a xlink:href="oled__control_8c.html#a73610916645f17c19124e697b005f694" target="_top" xlink:title=" ">
<polygon fill="none" stroke="black" points="500,-326.421 500,-344.421 576,-344.421 576,-326.421 500,-326.421"/>
<text text-anchor="middle" x="538" y="-333.221" font-family="Calibri" font-size="9.00">Soft_I2C_Write</text>
</a>
</g>
</g>
<!-- Node16&#45;&gt;Node19 -->
<g id="edge20" class="edge"><title>Node16&#45;&gt;Node19</title>
<path fill="none" stroke="midnightblue" d="M451.161,-349.919C462.759,-347.96 476.704,-345.605 489.949,-343.368"/>
<polygon fill="midnightblue" stroke="midnightblue" points="490.613,-346.805 499.891,-341.689 489.447,-339.903 490.613,-346.805"/>
</g>
<!-- Node20&#45;&gt;Node17 -->
<g id="edge22" class="edge"><title>Node20&#45;&gt;Node17</title>
<path fill="none" stroke="midnightblue" d="M464.163,-310.723C473.08,-309.217 482.608,-307.608 491.734,-306.066"/>
<polygon fill="midnightblue" stroke="midnightblue" points="492.535,-309.481 501.813,-304.364 491.37,-302.578 492.535,-309.481"/>
</g>
<!-- Node20&#45;&gt;Node18 -->
<g id="edge23" class="edge"><title>Node20&#45;&gt;Node18</title>
<path fill="none" stroke="midnightblue" d="M445.077,-326.603C451.191,-329.384 457.888,-332.481 464,-335.421 472.805,-339.657 493.218,-350.02 510.226,-358.705"/>
<polygon fill="midnightblue" stroke="midnightblue" points="508.732,-361.872 519.229,-363.308 511.918,-355.639 508.732,-361.872"/>
</g>
<!-- Node20&#45;&gt;Node19 -->
<g id="edge24" class="edge"><title>Node20&#45;&gt;Node19</title>
<path fill="none" stroke="midnightblue" d="M464.163,-323.768C472.53,-325.106 481.433,-326.531 490.039,-327.908"/>
<polygon fill="midnightblue" stroke="midnightblue" points="489.526,-331.37 499.954,-329.494 490.632,-324.458 489.526,-331.37"/>
</g>
<!-- Node21&#45;&gt;Node8 -->
<g id="edge27" class="edge"><title>Node21&#45;&gt;Node8</title>
<path fill="none" stroke="midnightblue" d="M447.266,-233.934C462.294,-228.991 482.335,-222.4 499.665,-216.7"/>
<polygon fill="midnightblue" stroke="midnightblue" points="501.091,-219.916 509.497,-213.467 498.904,-213.266 501.091,-219.916"/>
</g>
</g>
</svg>
