<?xml version="1.0" encoding="UTF-8" standalone="no"?>
<!DOCTYPE svg PUBLIC "-//W3C//DTD SVG 1.1//EN"
 "http://www.w3.org/Graphics/SVG/1.1/DTD/svg11.dtd">
<!-- Generated by graphviz version 2.38.0 (20140413.2041)
 -->
<!-- Title: coarse_tune Pages: 1 -->
<!--zoomable 451 -->
<svg id="main" version="1.1" xmlns="http://www.w3.org/2000/svg" xmlns:xlink="http://www.w3.org/1999/xlink" xml:space="preserve" onload="init(evt)">
<style type="text/css"><![CDATA[
.edge:hover path { stroke: red; }
.edge:hover polygon { stroke: red; fill: red; }
]]></style>
<script type="text/javascript"><![CDATA[
var edges = document.getElementsByTagName('g');
if (edges && edges.length) {
  for (var i=0;i<edges.length;i++) {
    if (edges[i].id.substr(0,4)=='edge') {
      edges[i].setAttribute('class','edge');
    }
  }
}
]]></script>
        <defs>
                <circle id="rim" cx="0" cy="0" r="7"/>
                <circle id="rim2" cx="0" cy="0" r="3.5"/>
                <g id="zoomPlus">
                        <use xlink:href="#rim" fill="#404040">
                                <set attributeName="fill" to="#808080" begin="zoomplus.mouseover" end="zoomplus.mouseout"/>
                        </use>
                        <path d="M-4,0h8M0,-4v8" fill="none" stroke="white" stroke-width="1.5" pointer-events="none"/>
                </g>
                <g id="zoomMin">
                        <use xlink:href="#rim" fill="#404040">
                                <set attributeName="fill" to="#808080" begin="zoomminus.mouseover" end="zoomminus.mouseout"/>
                        </use>
                        <path d="M-4,0h8" fill="none" stroke="white" stroke-width="1.5" pointer-events="none"/>
                </g>
                <g id="dirArrow">
                        <path fill="none" stroke="white" stroke-width="1.5" d="M0,-3.0v7 M-2.5,-0.5L0,-3.0L2.5,-0.5"/>
                </g>
               <g id="resetDef">
                       <use xlink:href="#rim2" fill="#404040">
                               <set attributeName="fill" to="#808080" begin="reset.mouseover" end="reset.mouseout"/>
                       </use>
               </g>
        </defs>

<script type="text/javascript">
var viewWidth = 785;
var viewHeight = 451;
var sectionId = 'dynsection-13';
</script>
<script xlink:href="svgpan.js"/>
<svg id="graph" class="graph">
<g id="viewport">
<title>coarse_tune</title>
<!-- Node1 -->
<g id="node1" class="node"><title>Node1</title>
<g id="a_node1"><a xlink:title=" ">
<polygon fill="#bfbfbf" stroke="black" points="0,-48 0,-66 67,-66 67,-48 0,-48"/>
<text text-anchor="middle" x="33.5" y="-54.8" font-family="Calibri" font-size="9.00">coarse_tune</text>
</a>
</g>
</g>
<!-- Node2 -->
<g id="node2" class="node"><title>Node2</title>
<g id="a_node2"><a xlink:href="main_8h.html#a740ef1b33bb02cd952ad7d8708999472" target="_top" xlink:title=" ">
<polygon fill="none" stroke="black" points="103,-29 103,-47 165,-47 165,-29 103,-29"/>
<text text-anchor="middle" x="134" y="-35.8" font-family="Calibri" font-size="9.00">coarse_cap</text>
</a>
</g>
</g>
<!-- Node1&#45;&gt;Node2 -->
<g id="edge1" class="edge"><title>Node1&#45;&gt;Node2</title>
<path fill="none" stroke="midnightblue" d="M67.0256,-50.726C75.3225,-49.1256 84.3381,-47.3866 92.9627,-45.7229"/>
<polygon fill="midnightblue" stroke="midnightblue" points="93.6853,-49.1482 102.841,-43.8174 92.3594,-42.2749 93.6853,-49.1482"/>
</g>
<!-- Node3 -->
<g id="node3" class="node"><title>Node3</title>
<g id="a_node3"><a xlink:href="main_8h.html#ad7eb7423e0b17ccfba1ae42f3a3274e0" target="_top" xlink:title=" ">
<polygon fill="none" stroke="black" points="201,-181 201,-199 249,-199 249,-181 201,-181"/>
<text text-anchor="middle" x="225" y="-187.8" font-family="Calibri" font-size="9.00">get_swr</text>
</a>
</g>
</g>
<!-- Node1&#45;&gt;Node3 -->
<g id="edge38" class="edge"><title>Node1&#45;&gt;Node3</title>
<path fill="none" stroke="midnightblue" d="M47.5251,-66.1416C79.6518,-88.6897 162.934,-147.141 202.508,-174.916"/>
<polygon fill="midnightblue" stroke="midnightblue" points="200.938,-178.09 211.134,-180.97 204.96,-172.361 200.938,-178.09"/>
</g>
<!-- Node13 -->
<g id="node13" class="node"><title>Node13</title>
<g id="a_node13"><a xlink:href="main_8h.html#a2a7963b9b09696c6654b96c67900c6ea" target="_top" xlink:title=" ">
<polygon fill="none" stroke="black" points="488.5,-29 488.5,-47 536.5,-47 536.5,-29 488.5,-29"/>
<text text-anchor="middle" x="512.5" y="-35.8" font-family="Calibri" font-size="9.00">set_cap</text>
</a>
</g>
</g>
<!-- Node1&#45;&gt;Node13 -->
<g id="edge39" class="edge"><title>Node1&#45;&gt;Node13</title>
<path fill="none" stroke="midnightblue" d="M47.4927,-47.9609C60.809,-39.1492 82.4225,-26.074 103,-19 154.48,-1.30271 169.563,-0 224,-0 224,-0 224,-0 318,-0 375.11,-0 439.955,-16.1355 478.204,-27.3778"/>
<polygon fill="midnightblue" stroke="midnightblue" points="477.674,-30.8732 488.258,-30.4015 479.69,-24.1698 477.674,-30.8732"/>
</g>
<!-- Node14 -->
<g id="node14" class="node"><title>Node14</title>
<g id="a_node14"><a xlink:href="main_8h.html#aecc83cd8bceb4bc24be844732ead2c2c" target="_top" xlink:title=" ">
<polygon fill="none" stroke="black" points="489,-66 489,-84 536,-84 536,-66 489,-66"/>
<text text-anchor="middle" x="512.5" y="-72.8" font-family="Calibri" font-size="9.00">set_ind</text>
</a>
</g>
</g>
<!-- Node1&#45;&gt;Node14 -->
<g id="edge40" class="edge"><title>Node1&#45;&gt;Node14</title>
<path fill="none" stroke="midnightblue" d="M67.2648,-62.2926C104.965,-67.9145 168.783,-76 224,-76 224,-76 224,-76 318,-76 374.501,-76 440.281,-75.5684 478.761,-75.2723"/>
<polygon fill="midnightblue" stroke="midnightblue" points="478.888,-78.7715 488.86,-75.1928 478.833,-71.7717 478.888,-78.7715"/>
</g>
<!-- Node2&#45;&gt;Node3 -->
<g id="edge2" class="edge"><title>Node2&#45;&gt;Node3</title>
<path fill="none" stroke="midnightblue" d="M140.301,-47.0531C154.612,-71.4953 194.242,-139.178 213.383,-171.867"/>
<polygon fill="midnightblue" stroke="midnightblue" points="210.541,-173.941 218.614,-180.802 216.582,-170.404 210.541,-173.941"/>
</g>
<!-- Node2&#45;&gt;Node13 -->
<g id="edge37" class="edge"><title>Node2&#45;&gt;Node13</title>
<path fill="none" stroke="midnightblue" d="M165.174,-38C234.552,-38 405.021,-38 477.742,-38"/>
<polygon fill="midnightblue" stroke="midnightblue" points="478.142,-41.5001 488.142,-38 478.141,-34.5001 478.142,-41.5001"/>
</g>
<!-- Node4 -->
<g id="node4" class="node"><title>Node4</title>
<g id="a_node4"><a xlink:href="main_8h.html#ab37ca657b79c6b9176cb63e9d812a182" target="_top" xlink:title=" ">
<polygon fill="none" stroke="black" points="488,-367 488,-385 537,-385 537,-367 488,-367"/>
<text text-anchor="middle" x="512.5" y="-373.8" font-family="Calibri" font-size="9.00">get_pwr</text>
</a>
</g>
</g>
<!-- Node3&#45;&gt;Node4 -->
<g id="edge3" class="edge"><title>Node3&#45;&gt;Node4</title>
<path fill="none" stroke="midnightblue" d="M233.294,-199.099C243.785,-211.796 264.174,-235.061 285,-251 349.463,-300.337 435.802,-342.315 480.996,-362.734"/>
<polygon fill="midnightblue" stroke="midnightblue" points="479.697,-365.987 490.255,-366.874 482.555,-359.597 479.697,-365.987"/>
</g>
<!-- Node8 -->
<g id="node8" class="node"><title>Node8</title>
<g id="a_node8"><a xlink:href="main_8c.html#a4ae0d4fa97fc0ca3611813fee4f9af7c" target="_top" xlink:title=" ">
<polygon fill="none" stroke="black" points="483.5,-330 483.5,-348 541.5,-348 541.5,-330 483.5,-330"/>
<text text-anchor="middle" x="512.5" y="-336.8" font-family="Calibri" font-size="9.00">show_pwr</text>
</a>
</g>
</g>
<!-- Node3&#45;&gt;Node8 -->
<g id="edge7" class="edge"><title>Node3&#45;&gt;Node8</title>
<path fill="none" stroke="midnightblue" d="M243.43,-199.096C291.711,-224.294 427.415,-295.117 485.062,-325.202"/>
<polygon fill="midnightblue" stroke="midnightblue" points="483.451,-328.309 493.936,-329.833 486.69,-322.104 483.451,-328.309"/>
</g>
<!-- Node11 -->
<g id="node11" class="node"><title>Node11</title>
<g id="a_node11"><a xlink:href="main_8c.html#a11724d8cce81ed96bec12a004ea3ea7a" target="_top" xlink:title=" ">
<polygon fill="none" stroke="black" points="285,-181 285,-199 349,-199 349,-181 285,-181"/>
<text text-anchor="middle" x="317" y="-187.8" font-family="Calibri" font-size="9.00">show_reset</text>
</a>
</g>
</g>
<!-- Node3&#45;&gt;Node11 -->
<g id="edge11" class="edge"><title>Node3&#45;&gt;Node11</title>
<path fill="none" stroke="midnightblue" d="M249.177,-190C256.964,-190 265.9,-190 274.651,-190"/>
<polygon fill="midnightblue" stroke="midnightblue" points="274.759,-193.5 284.759,-190 274.759,-186.5 274.759,-193.5"/>
</g>
<!-- Node5 -->
<g id="node5" class="node"><title>Node5</title>
<g id="a_node5"><a xlink:href="main_8h.html#ab19e6e081315a9a200394b74d10de395" target="_top" xlink:title=" ">
<polygon fill="none" stroke="black" points="596,-330 596,-348 653,-348 653,-330 596,-330"/>
<text text-anchor="middle" x="624.5" y="-336.8" font-family="Calibri" font-size="9.00">correction</text>
</a>
</g>
</g>
<!-- Node4&#45;&gt;Node5 -->
<g id="edge4" class="edge"><title>Node4&#45;&gt;Node5</title>
<path fill="none" stroke="midnightblue" d="M537.098,-368.063C551.526,-363.209 570.291,-356.897 586.646,-351.396"/>
<polygon fill="midnightblue" stroke="midnightblue" points="588.094,-354.602 596.457,-348.096 585.863,-347.967 588.094,-354.602"/>
</g>
<!-- Node6 -->
<g id="node6" class="node"><title>Node6</title>
<g id="a_node6"><a xlink:href="main_8h.html#acfd46f8711e9c1c20fffdfc8bdaa0ddd" target="_top" xlink:title=" ">
<polygon fill="none" stroke="black" points="592,-404 592,-422 657,-422 657,-404 592,-404"/>
<text text-anchor="middle" x="624.5" y="-410.8" font-family="Calibri" font-size="9.00">get_forward</text>
</a>
</g>
</g>
<!-- Node4&#45;&gt;Node6 -->
<g id="edge5" class="edge"><title>Node4&#45;&gt;Node6</title>
<path fill="none" stroke="midnightblue" d="M537.098,-383.937C551.526,-388.791 570.291,-395.103 586.646,-400.604"/>
<polygon fill="midnightblue" stroke="midnightblue" points="585.863,-404.033 596.457,-403.904 588.094,-397.398 585.863,-404.033"/>
</g>
<!-- Node7 -->
<g id="node7" class="node"><title>Node7</title>
<g id="a_node7"><a xlink:href="main_8h.html#aa6b9a2b3d88f578ba6a9fefd911eae75" target="_top" xlink:title=" ">
<polygon fill="none" stroke="black" points="592.5,-367 592.5,-385 656.5,-385 656.5,-367 592.5,-367"/>
<text text-anchor="middle" x="624.5" y="-373.8" font-family="Calibri" font-size="9.00">get_reverse</text>
</a>
</g>
</g>
<!-- Node4&#45;&gt;Node7 -->
<g id="edge6" class="edge"><title>Node4&#45;&gt;Node7</title>
<path fill="none" stroke="midnightblue" d="M537.098,-376C550.228,-376 566.95,-376 582.178,-376"/>
<polygon fill="midnightblue" stroke="midnightblue" points="582.42,-379.5 592.419,-376 582.419,-372.5 582.42,-379.5"/>
</g>
<!-- Node9 -->
<g id="node9" class="node"><title>Node9</title>
<g id="a_node9"><a xlink:href="main_8c.html#a6911b3f075cdf1d54cb14f17f6e5ef6b" target="_top" xlink:title=" ">
<polygon fill="none" stroke="black" points="601,-254 601,-272 648,-272 648,-254 601,-254"/>
<text text-anchor="middle" x="624.5" y="-260.8" font-family="Calibri" font-size="9.00">lcd_ind</text>
</a>
</g>
</g>
<!-- Node8&#45;&gt;Node9 -->
<g id="edge8" class="edge"><title>Node8&#45;&gt;Node9</title>
<path fill="none" stroke="midnightblue" d="M527.053,-329.818C533.461,-325.415 541.183,-320.017 548,-315 564.326,-302.986 567.311,-298.504 584,-287 588.707,-283.755 593.854,-280.458 598.831,-277.388"/>
<polygon fill="midnightblue" stroke="midnightblue" points="600.723,-280.334 607.475,-272.169 597.105,-274.341 600.723,-280.334"/>
</g>
<!-- Node10 -->
<g id="node10" class="node"><title>Node10</title>
<g id="a_node10"><a xlink:href="oled__control_8h.html#ab272af1010175ba1166b08b8b3df6874" target="_top" xlink:title=" ">
<polygon fill="none" stroke="black" points="709.5,-254 709.5,-272 768.5,-272 768.5,-254 709.5,-254"/>
<text text-anchor="middle" x="739" y="-260.8" font-family="Calibri" font-size="9.00">led_wr_str</text>
</a>
</g>
</g>
<!-- Node8&#45;&gt;Node10 -->
<g id="edge10" class="edge"><title>Node8&#45;&gt;Node10</title>
<path fill="none" stroke="midnightblue" d="M540.135,-329.983C580.304,-316.385 656.486,-290.595 701.701,-275.288"/>
<polygon fill="midnightblue" stroke="midnightblue" points="703.05,-278.527 711.4,-272.005 700.806,-271.896 703.05,-278.527"/>
</g>
<!-- Node9&#45;&gt;Node10 -->
<g id="edge9" class="edge"><title>Node9&#45;&gt;Node10</title>
<path fill="none" stroke="midnightblue" d="M648.266,-263C662.835,-263 682.114,-263 699.068,-263"/>
<polygon fill="midnightblue" stroke="midnightblue" points="699.261,-266.5 709.261,-263 699.261,-259.5 699.261,-266.5"/>
</g>
<!-- Node11&#45;&gt;Node9 -->
<g id="edge15" class="edge"><title>Node11&#45;&gt;Node9</title>
<path fill="none" stroke="midnightblue" d="M329.04,-199.106C353.684,-218.769 415.833,-264.734 477,-281 515.324,-291.191 560.849,-282.484 590.864,-274.002"/>
<polygon fill="midnightblue" stroke="midnightblue" points="592.213,-277.252 600.797,-271.042 590.214,-270.543 592.213,-277.252"/>
</g>
<!-- Node11&#45;&gt;Node10 -->
<g id="edge35" class="edge"><title>Node11&#45;&gt;Node10</title>
<path fill="none" stroke="midnightblue" d="M322.641,-199.299C339.097,-231.343 397.934,-338.313 477,-395 517.894,-424.319 534.377,-423.663 584,-432 619.502,-437.965 634.917,-451.775 665,-432 716.572,-398.099 731.877,-319.185 736.285,-282.453"/>
<polygon fill="midnightblue" stroke="midnightblue" points="739.806,-282.43 737.365,-272.12 732.844,-281.702 739.806,-282.43"/>
</g>
<!-- Node12 -->
<g id="node12" class="node"><title>Node12</title>
<g id="a_node12"><a xlink:href="main_8h.html#a9dff326a6079fe726285b11ee837ad60" target="_top" xlink:title=" ">
<polygon fill="none" stroke="black" points="385,-105 385,-123 441,-123 441,-105 385,-105"/>
<text text-anchor="middle" x="413" y="-111.8" font-family="Calibri" font-size="9.00">atu_reset</text>
</a>
</g>
</g>
<!-- Node11&#45;&gt;Node12 -->
<g id="edge12" class="edge"><title>Node11&#45;&gt;Node12</title>
<path fill="none" stroke="midnightblue" d="M329.152,-180.983C344.911,-168.242 373.909,-144.797 393.074,-129.302"/>
<polygon fill="midnightblue" stroke="midnightblue" points="395.287,-132.014 400.862,-123.005 390.885,-126.57 395.287,-132.014"/>
</g>
<!-- Node15 -->
<g id="node15" class="node"><title>Node15</title>
<g id="a_node15"><a xlink:href="main_8c.html#ae5a14b4884e85f47ad8a4a716f13203a" target="_top" xlink:title=" ">
<polygon fill="none" stroke="black" points="389,-181 389,-199 437,-199 437,-181 389,-181"/>
<text text-anchor="middle" x="413" y="-187.8" font-family="Calibri" font-size="9.00">lcd_pwr</text>
</a>
</g>
</g>
<!-- Node11&#45;&gt;Node15 -->
<g id="edge16" class="edge"><title>Node11&#45;&gt;Node15</title>
<path fill="none" stroke="midnightblue" d="M349.04,-190C358.543,-190 369.035,-190 378.684,-190"/>
<polygon fill="midnightblue" stroke="midnightblue" points="378.737,-193.5 388.737,-190 378.737,-186.5 378.737,-193.5"/>
</g>
<!-- Node24 -->
<g id="node24" class="node"><title>Node24</title>
<g id="a_node24"><a xlink:href="main_8h.html#ae0c1e0ec712704e43db40473f103d621" target="_top" xlink:title="Set the state of the switch.">
<polygon fill="none" stroke="black" points="490,-103 490,-121 535,-121 535,-103 490,-103"/>
<text text-anchor="middle" x="512.5" y="-109.8" font-family="Calibri" font-size="9.00">set_sw</text>
</a>
</g>
</g>
<!-- Node11&#45;&gt;Node24 -->
<g id="edge36" class="edge"><title>Node11&#45;&gt;Node24</title>
<path fill="none" stroke="midnightblue" d="M340.576,-180.9C375.224,-166.933 441.591,-140.18 480.65,-124.436"/>
<polygon fill="midnightblue" stroke="midnightblue" points="481.99,-127.669 489.956,-120.684 479.373,-121.177 481.99,-127.669"/>
</g>
<!-- Node12&#45;&gt;Node13 -->
<g id="edge13" class="edge"><title>Node12&#45;&gt;Node13</title>
<path fill="none" stroke="midnightblue" d="M422.34,-104.955C433.842,-92.8158 455.591,-71.0429 477,-56 478.886,-54.6746 480.883,-53.3827 482.927,-52.1389"/>
<polygon fill="midnightblue" stroke="midnightblue" points="484.993,-54.9921 491.994,-47.0396 481.562,-48.8908 484.993,-54.9921"/>
</g>
<!-- Node12&#45;&gt;Node14 -->
<g id="edge14" class="edge"><title>Node12&#45;&gt;Node14</title>
<path fill="none" stroke="midnightblue" d="M436.614,-104.955C449.32,-99.872 465.39,-93.444 479.383,-87.8469"/>
<polygon fill="midnightblue" stroke="midnightblue" points="480.686,-91.0951 488.671,-84.1315 478.087,-84.5958 480.686,-91.0951"/>
</g>
<!-- Node15&#45;&gt;Node4 -->
<g id="edge27" class="edge"><title>Node15&#45;&gt;Node4</title>
<path fill="none" stroke="midnightblue" d="M415.186,-199.086C419.148,-226.18 434.179,-307.589 477,-357 478.17,-358.35 479.46,-359.622 480.835,-360.819"/>
<polygon fill="midnightblue" stroke="midnightblue" points="479.18,-363.935 489.364,-366.854 483.223,-358.221 479.18,-363.935"/>
</g>
<!-- Node15&#45;&gt;Node8 -->
<g id="edge34" class="edge"><title>Node15&#45;&gt;Node8</title>
<path fill="none" stroke="midnightblue" d="M420.099,-199.321C435.967,-223.57 478.756,-288.96 499.669,-320.92"/>
<polygon fill="midnightblue" stroke="midnightblue" points="496.999,-323.232 505.403,-329.683 502.856,-319.399 496.999,-323.232"/>
</g>
<!-- Node15&#45;&gt;Node10 -->
<g id="edge30" class="edge"><title>Node15&#45;&gt;Node10</title>
<path fill="none" stroke="midnightblue" d="M437.344,-194.889C490.892,-206.125 621.309,-233.619 665,-244 676.218,-246.665 688.355,-249.745 699.451,-252.638"/>
<polygon fill="midnightblue" stroke="midnightblue" points="698.732,-256.068 709.293,-255.226 700.512,-249.298 698.732,-256.068"/>
</g>
<!-- Node15&#45;&gt;Node13 -->
<g id="edge31" class="edge"><title>Node15&#45;&gt;Node13</title>
<path fill="none" stroke="midnightblue" d="M418.238,-180.886C432.181,-150.914 475.804,-57.2463 477,-56 478.052,-54.9031 479.186,-53.86 480.379,-52.8697"/>
<polygon fill="midnightblue" stroke="midnightblue" points="482.574,-55.6099 488.871,-47.0897 478.635,-49.8232 482.574,-55.6099"/>
</g>
<!-- Node15&#45;&gt;Node14 -->
<g id="edge32" class="edge"><title>Node15&#45;&gt;Node14</title>
<path fill="none" stroke="midnightblue" d="M417.961,-180.876C426.42,-162.27 447.878,-119.475 477,-93 478.306,-91.8127 479.705,-90.6803 481.164,-89.604"/>
<polygon fill="midnightblue" stroke="midnightblue" points="483.361,-92.3559 489.951,-84.0601 479.626,-86.4356 483.361,-92.3559"/>
</g>
<!-- Node16 -->
<g id="node16" class="node"><title>Node16</title>
<g id="a_node16"><a xlink:href="main_8c.html#a593218c5fe00b499d494826fc0aa5279" target="_top" xlink:title=" ">
<polygon fill="none" stroke="black" points="477,-254 477,-272 548,-272 548,-254 477,-254"/>
<text text-anchor="middle" x="512.5" y="-260.8" font-family="Calibri" font-size="9.00">button_delay</text>
</a>
</g>
</g>
<!-- Node15&#45;&gt;Node16 -->
<g id="edge17" class="edge"><title>Node15&#45;&gt;Node16</title>
<path fill="none" stroke="midnightblue" d="M425.47,-199.218C437.99,-209.21 458.698,-225.531 477,-239 481.047,-241.979 485.414,-245.092 489.636,-248.051"/>
<polygon fill="midnightblue" stroke="midnightblue" points="487.736,-250.993 497.947,-253.818 491.727,-245.242 487.736,-250.993"/>
</g>
<!-- Node17 -->
<g id="node17" class="node"><title>Node17</title>
<g id="a_node17"><a xlink:href="oled__control_8c.html#a5febfdc847aa6f3bc3f3c8f7818b8699" target="_top" xlink:title=" ">
<polygon fill="none" stroke="black" points="481.5,-140 481.5,-158 543.5,-158 543.5,-140 481.5,-140"/>
<text text-anchor="middle" x="512.5" y="-146.8" font-family="Calibri" font-size="9.00">display_on</text>
</a>
</g>
</g>
<!-- Node15&#45;&gt;Node17 -->
<g id="edge18" class="edge"><title>Node15&#45;&gt;Node17</title>
<path fill="none" stroke="midnightblue" d="M435.638,-180.901C448.766,-175.38 465.74,-168.243 480.303,-162.119"/>
<polygon fill="midnightblue" stroke="midnightblue" points="482.061,-165.177 489.922,-158.074 479.347,-158.724 482.061,-165.177"/>
</g>
<!-- Node23 -->
<g id="node23" class="node"><title>Node23</title>
<g id="a_node23"><a xlink:href="main_8c.html#aa8fd50019a763561abc6621bb224417f" target="_top" xlink:title=" ">
<polygon fill="none" stroke="black" points="601,-178 601,-196 648,-196 648,-178 601,-178"/>
<text text-anchor="middle" x="624.5" y="-184.8" font-family="Calibri" font-size="9.00">lcd_swr</text>
</a>
</g>
</g>
<!-- Node15&#45;&gt;Node23 -->
<g id="edge28" class="edge"><title>Node15&#45;&gt;Node23</title>
<path fill="none" stroke="midnightblue" d="M437.221,-189.667C474.541,-189.133 547.996,-188.081 590.667,-187.47"/>
<polygon fill="midnightblue" stroke="midnightblue" points="590.863,-190.968 600.812,-187.325 590.763,-183.969 590.863,-190.968"/>
</g>
<!-- Node15&#45;&gt;Node24 -->
<g id="edge33" class="edge"><title>Node15&#45;&gt;Node24</title>
<path fill="none" stroke="midnightblue" d="M424.644,-180.795C429.667,-176.387 435.707,-170.991 441,-166 457.463,-150.477 458.758,-143.388 477,-130 478.814,-128.668 480.741,-127.379 482.719,-126.142"/>
<polygon fill="midnightblue" stroke="midnightblue" points="484.596,-129.101 491.541,-121.1 481.122,-123.024 484.596,-129.101"/>
</g>
<!-- Node18 -->
<g id="node18" class="node"><title>Node18</title>
<g id="a_node18"><a xlink:href="oled__control_8c.html#a5a5d7ef6b1877aaf94c1f4b7fc0f2d2d" target="_top" xlink:title=" ">
<polygon fill="none" stroke="black" points="597,-104 597,-122 652,-122 652,-104 597,-104"/>
<text text-anchor="middle" x="624.5" y="-110.8" font-family="Calibri" font-size="9.00">led_send</text>
</a>
</g>
</g>
<!-- Node17&#45;&gt;Node18 -->
<g id="edge19" class="edge"><title>Node17&#45;&gt;Node18</title>
<path fill="none" stroke="midnightblue" d="M541.258,-139.916C555.116,-135.38 572.063,-129.834 586.964,-124.957"/>
<polygon fill="midnightblue" stroke="midnightblue" points="588.474,-128.146 596.89,-121.709 586.297,-121.493 588.474,-128.146"/>
</g>
<!-- Node22 -->
<g id="node22" class="node"><title>Node22</title>
<g id="a_node22"><a xlink:href="oled__control_8c.html#ad141ed038278a6fcad6c307932f01ec8" target="_top" xlink:title=" ">
<polygon fill="none" stroke="black" points="584,-141 584,-159 665,-159 665,-141 584,-141"/>
<text text-anchor="middle" x="624.5" y="-147.8" font-family="Calibri" font-size="9.00">send_command</text>
</a>
</g>
</g>
<!-- Node17&#45;&gt;Node22 -->
<g id="edge23" class="edge"><title>Node17&#45;&gt;Node22</title>
<path fill="none" stroke="midnightblue" d="M543.558,-149.273C552.909,-149.358 563.48,-149.454 573.8,-149.548"/>
<polygon fill="midnightblue" stroke="midnightblue" points="573.95,-153.05 583.982,-149.641 574.014,-146.05 573.95,-153.05"/>
</g>
<!-- Node19 -->
<g id="node19" class="node"><title>Node19</title>
<g id="a_node19"><a xlink:href="oled__control_8c.html#ab7f6b5c6c1483f6286f2de5786c028d9" target="_top" xlink:title=" ">
<polygon fill="none" stroke="black" points="703,-123 703,-141 775,-141 775,-123 703,-123"/>
<text text-anchor="middle" x="739" y="-129.8" font-family="Calibri" font-size="9.00">Soft_I2C_Start</text>
</a>
</g>
</g>
<!-- Node18&#45;&gt;Node19 -->
<g id="edge20" class="edge"><title>Node18&#45;&gt;Node19</title>
<path fill="none" stroke="midnightblue" d="M652.161,-117.503C664.173,-119.532 678.703,-121.985 692.365,-124.293"/>
<polygon fill="midnightblue" stroke="midnightblue" points="692.144,-127.805 702.588,-126.019 693.31,-120.903 692.144,-127.805"/>
</g>
<!-- Node20 -->
<g id="node20" class="node"><title>Node20</title>
<g id="a_node20"><a xlink:href="oled__control_8c.html#a16eb842aa672ca44820ae6d5f9933425" target="_top" xlink:title=" ">
<polygon fill="none" stroke="black" points="703.5,-86 703.5,-104 774.5,-104 774.5,-86 703.5,-86"/>
<text text-anchor="middle" x="739" y="-92.8" font-family="Calibri" font-size="9.00">Soft_I2C_Stop</text>
</a>
</g>
</g>
<!-- Node18&#45;&gt;Node20 -->
<g id="edge21" class="edge"><title>Node18&#45;&gt;Node20</title>
<path fill="none" stroke="midnightblue" d="M652.161,-108.734C664.5,-106.76 679.495,-104.361 693.478,-102.123"/>
<polygon fill="midnightblue" stroke="midnightblue" points="694.108,-105.567 703.429,-100.531 693.002,-98.6553 694.108,-105.567"/>
</g>
<!-- Node21 -->
<g id="node21" class="node"><title>Node21</title>
<g id="a_node21"><a xlink:href="oled__control_8c.html#a73610916645f17c19124e697b005f694" target="_top" xlink:title=" ">
<polygon fill="none" stroke="black" points="701,-160 701,-178 777,-178 777,-160 701,-160"/>
<text text-anchor="middle" x="739" y="-166.8" font-family="Calibri" font-size="9.00">Soft_I2C_Write</text>
</a>
</g>
</g>
<!-- Node18&#45;&gt;Node21 -->
<g id="edge22" class="edge"><title>Node18&#45;&gt;Node21</title>
<path fill="none" stroke="midnightblue" d="M646.107,-122.118C652.223,-124.897 658.912,-128.01 665,-131 681.238,-138.977 684.953,-141.645 701,-150 704.335,-151.736 707.843,-153.552 711.317,-155.343"/>
<polygon fill="midnightblue" stroke="midnightblue" points="709.794,-158.496 720.288,-159.956 712.995,-152.27 709.794,-158.496"/>
</g>
<!-- Node22&#45;&gt;Node19 -->
<g id="edge24" class="edge"><title>Node22&#45;&gt;Node19</title>
<path fill="none" stroke="midnightblue" d="M665.163,-143.654C674.08,-142.227 683.608,-140.703 692.734,-139.243"/>
<polygon fill="midnightblue" stroke="midnightblue" points="693.491,-142.666 702.813,-137.63 692.385,-135.754 693.491,-142.666"/>
</g>
<!-- Node22&#45;&gt;Node20 -->
<g id="edge25" class="edge"><title>Node22&#45;&gt;Node20</title>
<path fill="none" stroke="midnightblue" d="M644.415,-140.974C650.947,-137.838 658.304,-134.284 665,-131 681.061,-123.123 684.957,-120.913 701,-113 703.947,-111.546 707.03,-110.034 710.104,-108.531"/>
<polygon fill="midnightblue" stroke="midnightblue" points="711.703,-111.645 719.158,-104.118 708.635,-105.353 711.703,-111.645"/>
</g>
<!-- Node22&#45;&gt;Node21 -->
<g id="edge26" class="edge"><title>Node22&#45;&gt;Node21</title>
<path fill="none" stroke="midnightblue" d="M665.163,-156.699C673.53,-158.112 682.433,-159.615 691.039,-161.069"/>
<polygon fill="midnightblue" stroke="midnightblue" points="690.511,-164.529 700.954,-162.743 691.676,-157.627 690.511,-164.529"/>
</g>
<!-- Node23&#45;&gt;Node10 -->
<g id="edge29" class="edge"><title>Node23&#45;&gt;Node10</title>
<path fill="none" stroke="midnightblue" d="M641.045,-196.089C648.388,-200.472 657.227,-205.88 665,-211 683.079,-222.908 703.068,-237.231 717.551,-247.827"/>
<polygon fill="midnightblue" stroke="midnightblue" points="715.662,-250.783 725.791,-253.888 719.809,-245.144 715.662,-250.783"/>
</g>
</g>
</svg>
        <g id="navigator" transform="translate(0 0)" fill="#404254">
                <rect fill="#f2f5e9" fill-opacity="0.5" stroke="#606060" stroke-width=".5" x="0" y="0" width="60" height="60"/>
                <use id="zoomplus" xlink:href="#zoomPlus" x="17" y="9" onmousedown="handleZoom(evt,'in')"/>
                <use id="zoomminus" xlink:href="#zoomMin" x="42" y="9" onmousedown="handleZoom(evt,'out')"/>
                <use id="reset" xlink:href="#resetDef" x="30" y="36" onmousedown="handleReset()"/>
                <g id="arrowUp" xlink:href="#dirArrow" transform="translate(30 24)" onmousedown="handlePan(0,-1)">
                  <use xlink:href="#rim" fill="#404040">
                        <set attributeName="fill" to="#808080" begin="arrowUp.mouseover" end="arrowUp.mouseout"/>
                  </use>
                  <path fill="none" stroke="white" stroke-width="1.5" d="M0,-3.0v7 M-2.5,-0.5L0,-3.0L2.5,-0.5"/>
                </g>
                <g id="arrowRight" xlink:href="#dirArrow" transform="rotate(90) translate(36 -43)" onmousedown="handlePan(1,0)">
                  <use xlink:href="#rim" fill="#404040">
                        <set attributeName="fill" to="#808080" begin="arrowRight.mouseover" end="arrowRight.mouseout"/>
                  </use>
                  <path fill="none" stroke="white" stroke-width="1.5" d="M0,-3.0v7 M-2.5,-0.5L0,-3.0L2.5,-0.5"/>
                </g>
                <g id="arrowDown" xlink:href="#dirArrow" transform="rotate(180) translate(-30 -48)" onmousedown="handlePan(0,1)">
                  <use xlink:href="#rim" fill="#404040">
                        <set attributeName="fill" to="#808080" begin="arrowDown.mouseover" end="arrowDown.mouseout"/>
                  </use>
                  <path fill="none" stroke="white" stroke-width="1.5" d="M0,-3.0v7 M-2.5,-0.5L0,-3.0L2.5,-0.5"/>
                </g>
                <g id="arrowLeft" xlink:href="#dirArrow" transform="rotate(270) translate(-36 17)" onmousedown="handlePan(-1,0)">
                  <use xlink:href="#rim" fill="#404040">
                        <set attributeName="fill" to="#808080" begin="arrowLeft.mouseover" end="arrowLeft.mouseout"/>
                  </use>
                  <path fill="none" stroke="white" stroke-width="1.5" d="M0,-3.0v7 M-2.5,-0.5L0,-3.0L2.5,-0.5"/>
                </g>
        </g>
        <svg viewBox="0 0 15 15" width="100%" height="30px" preserveAspectRatio="xMaxYMin meet">
         <g id="arrow_out" transform="scale(0.3 0.3)">
          <a xlink:href="main_8h_a5c7c60c7d70cf76cc52e87722bb0f614_cgraph_org.svg" target="_base">
           <rect id="button" ry="5" rx="5" y="6" x="6" height="38" width="38"
                fill="#f2f5e9" fill-opacity="0.5" stroke="#606060" stroke-width="1.0"/>
           <path id="arrow"
             d="M 11.500037,31.436501 C 11.940474,20.09759 22.043105,11.32322 32.158766,21.979434 L 37.068811,17.246167 C 37.068811,17.246167 37.088388,32 37.088388,32 L 22.160133,31.978069 C 22.160133,31.978069 26.997745,27.140456 26.997745,27.140456 C 18.528582,18.264221 13.291696,25.230495 11.500037,31.436501 z"
             style="fill:#404040;"/>
          </a>
         </g>
        </svg>
</svg>
