<?xml version="1.0" encoding="UTF-8" standalone="no"?>
<!DOCTYPE svg PUBLIC "-//W3C//DTD SVG 1.1//EN"
 "http://www.w3.org/Graphics/SVG/1.1/DTD/svg11.dtd">
<!-- Generated by graphviz version 2.38.0 (20140413.2041)
 -->
<!-- Title: set_sw Pages: 1 -->
<!--zoomable 555 -->
<svg id="main" version="1.1" xmlns="http://www.w3.org/2000/svg" xmlns:xlink="http://www.w3.org/1999/xlink" xml:space="preserve" onload="init(evt)">
<style type="text/css"><![CDATA[
.edge:hover path { stroke: red; }
.edge:hover polygon { stroke: red; fill: red; }
]]></style>
<script type="text/javascript"><![CDATA[
var edges = document.getElementsByTagName('g');
if (edges && edges.length) {
  for (var i=0;i<edges.length;i++) {
    if (edges[i].id.substr(0,4)=='edge') {
      edges[i].setAttribute('class','edge');
    }
  }
}
]]></script>
        <defs>
                <circle id="rim" cx="0" cy="0" r="7"/>
                <circle id="rim2" cx="0" cy="0" r="3.5"/>
                <g id="zoomPlus">
                        <use xlink:href="#rim" fill="#404040">
                                <set attributeName="fill" to="#808080" begin="zoomplus.mouseover" end="zoomplus.mouseout"/>
                        </use>
                        <path d="M-4,0h8M0,-4v8" fill="none" stroke="white" stroke-width="1.5" pointer-events="none"/>
                </g>
                <g id="zoomMin">
                        <use xlink:href="#rim" fill="#404040">
                                <set attributeName="fill" to="#808080" begin="zoomminus.mouseover" end="zoomminus.mouseout"/>
                        </use>
                        <path d="M-4,0h8" fill="none" stroke="white" stroke-width="1.5" pointer-events="none"/>
                </g>
                <g id="dirArrow">
                        <path fill="none" stroke="white" stroke-width="1.5" d="M0,-3.0v7 M-2.5,-0.5L0,-3.0L2.5,-0.5"/>
                </g>
               <g id="resetDef">
                       <use xlink:href="#rim2" fill="#404040">
                               <set attributeName="fill" to="#808080" begin="reset.mouseover" end="reset.mouseout"/>
                       </use>
               </g>
        </defs>

<script type="text/javascript">
var viewWidth = 975;
var viewHeight = 555;
var sectionId = 'dynsection-37';
</script>
<script xlink:href="svgpan.js"/>
<svg id="graph" class="graph">
<g id="viewport">
<title>set_sw</title>
<!-- Node1 -->
<g id="node1" class="node"><title>Node1</title>
<g id="a_node1"><a xlink:title="Set the state of the switch.">
<polygon fill="#bfbfbf" stroke="black" points="922,-348.456 922,-366.456 967,-366.456 967,-348.456 922,-348.456"/>
<text text-anchor="middle" x="944.5" y="-355.256" font-family="Calibri" font-size="9.00">set_sw</text>
</a>
</g>
</g>
<!-- Node2 -->
<g id="node2" class="node"><title>Node2</title>
<g id="a_node2"><a xlink:href="main_8c.html#a1c9e5d54d8cf7f3d041aa2e0b330b3dd" target="_top" xlink:title="Handle the process of the buttons being pressed.">
<polygon fill="none" stroke="black" points="74,-315.456 74,-333.456 139,-333.456 139,-315.456 74,-315.456"/>
<text text-anchor="middle" x="106.5" y="-322.256" font-family="Calibri" font-size="9.00">button_proc</text>
</a>
</g>
</g>
<!-- Node1&#45;&gt;Node2 -->
<g id="edge1" class="edge"><title>Node1&#45;&gt;Node2</title>
<path fill="none" stroke="midnightblue" d="M941.329,-338.393C932.59,-271.785 893.744,-53.4564 760,-53.4564 760,-53.4564 760,-53.4564 282.5,-53.4564 229.807,-53.4564 209.584,-63.7007 175,-103.456 117.863,-169.138 109.091,-282.262 107.744,-315.205"/>
<polygon fill="midnightblue" stroke="midnightblue" points="937.86,-338.861 942.556,-348.358 944.808,-338.005 937.86,-338.861"/>
</g>
<!-- Node3 -->
<g id="node3" class="node"><title>Node3</title>
<g id="a_node3"><a xlink:href="main_8c.html#acdef7a1fd863a6d3770c1268cb06add3" target="_top" xlink:title=" ">
<polygon fill="none" stroke="black" points="0,-462.456 0,-480.456 38,-480.456 38,-462.456 0,-462.456"/>
<text text-anchor="middle" x="19" y="-469.256" font-family="Calibri" font-size="9.00">main</text>
</a>
</g>
</g>
<!-- Node1&#45;&gt;Node3 -->
<g id="edge28" class="edge"><title>Node1&#45;&gt;Node3</title>
<path fill="none" stroke="midnightblue" d="M936.161,-376.096C915.954,-423.96 854.647,-547.456 760,-547.456 760,-547.456 760,-547.456 201.5,-547.456 142.496,-547.456 127.028,-536.332 74,-510.456 57.5789,-502.444 40.8579,-489.466 30.4623,-480.704"/>
<polygon fill="midnightblue" stroke="midnightblue" points="939.49,-377.201 940.037,-366.62 933.011,-374.551 939.49,-377.201"/>
</g>
<!-- Node4 -->
<g id="node4" class="node"><title>Node4</title>
<g id="a_node4"><a xlink:href="main_8c.html#ac445892220ccb3b4b337dd3e764bd6c6" target="_top" xlink:title="Handle the process of the buttons being pressed (in test mode)">
<polygon fill="none" stroke="black" points="716,-500.456 716,-518.456 802,-518.456 802,-500.456 716,-500.456"/>
<text text-anchor="middle" x="759" y="-507.256" font-family="Calibri" font-size="9.00">button_proc_test</text>
</a>
</g>
</g>
<!-- Node1&#45;&gt;Node4 -->
<g id="edge3" class="edge"><title>Node1&#45;&gt;Node4</title>
<path fill="none" stroke="midnightblue" d="M932.582,-375.11C922.008,-391.285 904.842,-415.259 886,-432.456 853.395,-462.215 839.839,-462.723 802,-485.456 793.649,-490.473 784.243,-495.872 776.452,-500.275"/>
<polygon fill="midnightblue" stroke="midnightblue" points="935.584,-376.912 938.01,-366.598 929.682,-373.148 935.584,-376.912"/>
</g>
<!-- Node5 -->
<g id="node5" class="node"><title>Node5</title>
<g id="a_node5"><a xlink:href="main_8c.html#ae5a14b4884e85f47ad8a4a716f13203a" target="_top" xlink:title=" ">
<polygon fill="none" stroke="black" points="838,-405.456 838,-423.456 886,-423.456 886,-405.456 838,-405.456"/>
<text text-anchor="middle" x="862" y="-412.256" font-family="Calibri" font-size="9.00">lcd_pwr</text>
</a>
</g>
</g>
<!-- Node1&#45;&gt;Node5 -->
<g id="edge5" class="edge"><title>Node1&#45;&gt;Node5</title>
<path fill="none" stroke="midnightblue" d="M922.066,-372.633C907.361,-383.046 888.331,-396.52 875.902,-405.321"/>
<polygon fill="midnightblue" stroke="midnightblue" points="924.428,-375.25 930.566,-366.614 920.382,-369.537 924.428,-375.25"/>
</g>
<!-- Node7 -->
<g id="node7" class="node"><title>Node7</title>
<g id="a_node7"><a xlink:href="main_8c.html#a11724d8cce81ed96bec12a004ea3ea7a" target="_top" xlink:title=" ">
<polygon fill="none" stroke="black" points="727,-253.456 727,-271.456 791,-271.456 791,-253.456 727,-253.456"/>
<text text-anchor="middle" x="759" y="-260.256" font-family="Calibri" font-size="9.00">show_reset</text>
</a>
</g>
</g>
<!-- Node1&#45;&gt;Node7 -->
<g id="edge29" class="edge"><title>Node1&#45;&gt;Node7</title>
<path fill="none" stroke="midnightblue" d="M916.935,-343.703C878.867,-323.995 809.835,-288.257 777.541,-271.538"/>
<polygon fill="midnightblue" stroke="midnightblue" points="915.416,-346.858 925.905,-348.347 918.634,-340.642 915.416,-346.858"/>
</g>
<!-- Node11 -->
<g id="node11" class="node"><title>Node11</title>
<g id="a_node11"><a xlink:href="main_8h.html#a454a7687c8039514766571b23516ca9c" target="_top" xlink:title=" ">
<polygon fill="none" stroke="black" points="337,-244.456 337,-262.456 392,-262.456 392,-244.456 337,-244.456"/>
<text text-anchor="middle" x="364.5" y="-251.256" font-family="Calibri" font-size="9.00">sub_tune</text>
</a>
</g>
</g>
<!-- Node1&#45;&gt;Node11 -->
<g id="edge30" class="edge"><title>Node1&#45;&gt;Node11</title>
<path fill="none" stroke="midnightblue" d="M911.685,-357.456C875.091,-357.456 813.207,-357.456 760,-357.456 760,-357.456 760,-357.456 653.5,-357.456 597.815,-357.456 440.394,-287.806 385.043,-262.504"/>
<polygon fill="midnightblue" stroke="midnightblue" points="911.75,-360.956 921.75,-357.456 911.75,-353.956 911.75,-360.956"/>
</g>
<!-- Node15 -->
<g id="node15" class="node"><title>Node15</title>
<g id="a_node15"><a xlink:href="main_8c.html#a7a367b10f22edd310a36627b6c941255" target="_top" xlink:title=" ">
<polygon fill="none" stroke="black" points="629,-6.45637 629,-24.4564 680,-24.4564 680,-6.45637 629,-6.45637"/>
<text text-anchor="middle" x="654.5" y="-13.2564" font-family="Calibri" font-size="9.00">test_init</text>
</a>
</g>
</g>
<!-- Node1&#45;&gt;Node15 -->
<g id="edge31" class="edge"><title>Node1&#45;&gt;Node15</title>
<path fill="none" stroke="midnightblue" d="M942.925,-338.055C940.641,-275.423 930.053,-80.3175 886,-39.4564 829.069,13.3501 726.969,0.17533 680.164,-9.50723"/>
<polygon fill="midnightblue" stroke="midnightblue" points="939.44,-338.559 943.27,-348.437 946.436,-338.326 939.44,-338.559"/>
</g>
<!-- Node2&#45;&gt;Node3 -->
<g id="edge2" class="edge"><title>Node2&#45;&gt;Node3</title>
<path fill="none" stroke="midnightblue" d="M95.1226,-342.298C76.7811,-373.833 39.2592,-438.344 25.3464,-462.264"/>
<polygon fill="midnightblue" stroke="midnightblue" points="98.1493,-344.056 100.152,-333.652 92.0983,-340.536 98.1493,-344.056"/>
</g>
<!-- Node4&#45;&gt;Node3 -->
<g id="edge4" class="edge"><title>Node4&#45;&gt;Node3</title>
<path fill="none" stroke="midnightblue" d="M705.647,-509.456C666.386,-509.456 611.325,-509.456 563,-509.456 563,-509.456 563,-509.456 201.5,-509.456 140.493,-509.456 70.3526,-488.634 38.0291,-477.817"/>
<polygon fill="midnightblue" stroke="midnightblue" points="705.777,-512.956 715.777,-509.456 705.777,-505.956 705.777,-512.956"/>
</g>
<!-- Node5&#45;&gt;Node2 -->
<g id="edge8" class="edge"><title>Node5&#45;&gt;Node2</title>
<path fill="none" stroke="midnightblue" d="M827.832,-419.42C787.28,-425.05 716.511,-433.456 655.5,-433.456 655.5,-433.456 655.5,-433.456 282.5,-433.456 207.334,-433.456 137.727,-360.109 115.14,-333.75"/>
<polygon fill="midnightblue" stroke="midnightblue" points="828.541,-422.855 837.95,-417.986 827.558,-415.924 828.541,-422.855"/>
</g>
<!-- Node5&#45;&gt;Node3 -->
<g id="edge10" class="edge"><title>Node5&#45;&gt;Node3</title>
<path fill="none" stroke="midnightblue" d="M834.805,-427.994C824.749,-432.775 813.036,-437.853 802,-441.456 738.82,-462.084 721.962,-471.456 655.5,-471.456 655.5,-471.456 655.5,-471.456 201.5,-471.456 141.63,-471.456 70.6518,-471.456 38.0329,-471.456"/>
<polygon fill="midnightblue" stroke="midnightblue" points="836.42,-431.1 843.862,-423.558 833.342,-424.813 836.42,-431.1"/>
</g>
<!-- Node5&#45;&gt;Node4 -->
<g id="edge9" class="edge"><title>Node5&#45;&gt;Node4</title>
<path fill="none" stroke="midnightblue" d="M849.019,-432.221C838.046,-447.592 820.705,-469.756 802,-485.456 795.182,-491.18 786.809,-496.278 779.338,-500.288"/>
<polygon fill="midnightblue" stroke="midnightblue" points="852.146,-433.854 854.984,-423.647 846.4,-429.857 852.146,-433.854"/>
</g>
<!-- Node6 -->
<g id="node6" class="node"><title>Node6</title>
<g id="a_node6"><a xlink:href="main_8c.html#af18ed7edda7874a97cacaa11a2759260" target="_top" xlink:title=" ">
<polygon fill="none" stroke="black" points="175,-315.456 175,-333.456 230,-333.456 230,-315.456 175,-315.456"/>
<text text-anchor="middle" x="202.5" y="-322.256" font-family="Calibri" font-size="9.00">btn_push</text>
</a>
</g>
</g>
<!-- Node5&#45;&gt;Node6 -->
<g id="edge6" class="edge"><title>Node5&#45;&gt;Node6</title>
<path fill="none" stroke="midnightblue" d="M827.832,-409.492C787.28,-403.863 716.511,-395.456 655.5,-395.456 655.5,-395.456 655.5,-395.456 363.5,-395.456 303.328,-395.456 240.522,-352.984 215.151,-333.738"/>
<polygon fill="midnightblue" stroke="midnightblue" points="827.558,-412.989 837.95,-410.927 828.541,-406.058 827.558,-412.989"/>
</g>
<!-- Node5&#45;&gt;Node7 -->
<g id="edge11" class="edge"><title>Node5&#45;&gt;Node7</title>
<path fill="none" stroke="midnightblue" d="M849.358,-396.935C827.838,-364.549 782.536,-296.372 766.112,-271.654"/>
<polygon fill="midnightblue" stroke="midnightblue" points="846.535,-399.011 854.984,-405.403 852.365,-395.137 846.535,-399.011"/>
</g>
<!-- Node6&#45;&gt;Node2 -->
<g id="edge7" class="edge"><title>Node6&#45;&gt;Node2</title>
<path fill="none" stroke="midnightblue" d="M164.545,-324.456C156.183,-324.456 147.376,-324.456 139.25,-324.456"/>
<polygon fill="midnightblue" stroke="midnightblue" points="164.815,-327.956 174.815,-324.456 164.815,-320.956 164.815,-327.956"/>
</g>
<!-- Node7&#45;&gt;Node2 -->
<g id="edge12" class="edge"><title>Node7&#45;&gt;Node2</title>
<path fill="none" stroke="midnightblue" d="M748.538,-244.222C724.212,-200.151 654.901,-91.4564 563,-91.4564 563,-91.4564 563,-91.4564 282.5,-91.4564 168.419,-91.4564 119.532,-272.244 109.502,-315.322"/>
<polygon fill="midnightblue" stroke="midnightblue" points="745.578,-246.109 753.393,-253.263 751.745,-242.797 745.578,-246.109"/>
</g>
<!-- Node8 -->
<g id="node8" class="node"><title>Node8</title>
<g id="a_node8"><a xlink:href="main_8h.html#ad7eb7423e0b17ccfba1ae42f3a3274e0" target="_top" xlink:title=" ">
<polygon fill="none" stroke="black" points="630.5,-234.456 630.5,-252.456 678.5,-252.456 678.5,-234.456 630.5,-234.456"/>
<text text-anchor="middle" x="654.5" y="-241.256" font-family="Calibri" font-size="9.00">get_swr</text>
</a>
</g>
</g>
<!-- Node7&#45;&gt;Node8 -->
<g id="edge13" class="edge"><title>Node7&#45;&gt;Node8</title>
<path fill="none" stroke="midnightblue" d="M716.797,-254.819C703.79,-252.408 689.884,-249.83 678.611,-247.74"/>
<polygon fill="midnightblue" stroke="midnightblue" points="716.498,-258.323 726.968,-256.704 717.774,-251.44 716.498,-258.323"/>
</g>
<!-- Node9 -->
<g id="node9" class="node"><title>Node9</title>
<g id="a_node9"><a xlink:href="main_8h.html#a740ef1b33bb02cd952ad7d8708999472" target="_top" xlink:title=" ">
<polygon fill="none" stroke="black" points="531,-234.456 531,-252.456 593,-252.456 593,-234.456 531,-234.456"/>
<text text-anchor="middle" x="562" y="-241.256" font-family="Calibri" font-size="9.00">coarse_cap</text>
</a>
</g>
</g>
<!-- Node8&#45;&gt;Node9 -->
<g id="edge14" class="edge"><title>Node8&#45;&gt;Node9</title>
<path fill="none" stroke="midnightblue" d="M620.166,-243.456C611.29,-243.456 601.755,-243.456 593.064,-243.456"/>
<polygon fill="midnightblue" stroke="midnightblue" points="620.194,-246.956 630.194,-243.456 620.194,-239.956 620.194,-246.956"/>
</g>
<!-- Node10 -->
<g id="node10" class="node"><title>Node10</title>
<g id="a_node10"><a xlink:href="main_8h.html#a5c7c60c7d70cf76cc52e87722bb0f614" target="_top" xlink:title=" ">
<polygon fill="none" stroke="black" points="428,-244.456 428,-262.456 495,-262.456 495,-244.456 428,-244.456"/>
<text text-anchor="middle" x="461.5" y="-251.256" font-family="Calibri" font-size="9.00">coarse_tune</text>
</a>
</g>
</g>
<!-- Node8&#45;&gt;Node10 -->
<g id="edge19" class="edge"><title>Node8&#45;&gt;Node10</title>
<path fill="none" stroke="midnightblue" d="M620.692,-255.092C611.819,-257.72 602.14,-260.126 593,-261.456 559.869,-266.281 521.593,-262.89 495.101,-259.149"/>
<polygon fill="midnightblue" stroke="midnightblue" points="621.803,-258.411 630.295,-252.075 619.706,-251.733 621.803,-258.411"/>
</g>
<!-- Node8&#45;&gt;Node11 -->
<g id="edge26" class="edge"><title>Node8&#45;&gt;Node11</title>
<path fill="none" stroke="midnightblue" d="M620.735,-231.177C611.862,-228.402 602.172,-225.863 593,-224.456 520.381,-213.321 500.062,-220.152 428,-234.456 415.652,-236.907 402.262,-240.805 391.055,-244.434"/>
<polygon fill="midnightblue" stroke="midnightblue" points="619.741,-234.535 630.334,-234.361 621.945,-227.891 619.741,-234.535"/>
</g>
<!-- Node12 -->
<g id="node12" class="node"><title>Node12</title>
<g id="a_node12"><a xlink:href="main_8h.html#a1849f2e5bd63d11a7b9549470e287d17" target="_top" xlink:title=" ">
<polygon fill="none" stroke="black" points="266,-244.456 266,-262.456 301,-262.456 301,-244.456 266,-244.456"/>
<text text-anchor="middle" x="283.5" y="-251.256" font-family="Calibri" font-size="9.00">tune</text>
</a>
</g>
</g>
<!-- Node8&#45;&gt;Node12 -->
<g id="edge27" class="edge"><title>Node8&#45;&gt;Node12</title>
<path fill="none" stroke="midnightblue" d="M643.271,-225.257C632.832,-208.405 615.056,-183.973 593,-170.456 529.92,-131.8 499.582,-129.765 428,-148.456 383.141,-160.17 373.764,-171.208 337,-199.456 319.167,-213.159 301.598,-232.825 291.988,-244.256"/>
<polygon fill="midnightblue" stroke="midnightblue" points="640.439,-227.343 648.547,-234.163 646.462,-223.776 640.439,-227.343"/>
</g>
<!-- Node13 -->
<g id="node13" class="node"><title>Node13</title>
<g id="a_node13"><a xlink:href="main_8h.html#ab518a3d2c723f12d3af3024a195606ce" target="_top" xlink:title=" ">
<polygon fill="none" stroke="black" points="432,-329.456 432,-347.456 491,-347.456 491,-329.456 432,-329.456"/>
<text text-anchor="middle" x="461.5" y="-336.256" font-family="Calibri" font-size="9.00">sharp_cap</text>
</a>
</g>
</g>
<!-- Node8&#45;&gt;Node13 -->
<g id="edge20" class="edge"><title>Node8&#45;&gt;Node13</title>
<path fill="none" stroke="midnightblue" d="M628.818,-257.878C617.937,-264.092 604.936,-271.324 593,-277.456 554.739,-297.115 508.981,-317.894 483.072,-329.413"/>
<polygon fill="midnightblue" stroke="midnightblue" points="630.834,-260.756 637.754,-252.733 627.341,-254.69 630.834,-260.756"/>
</g>
<!-- Node14 -->
<g id="node14" class="node"><title>Node14</title>
<g id="a_node14"><a xlink:href="main_8h.html#a72210b3ed1d5691c5bbda8c7f1e97197" target="_top" xlink:title=" ">
<polygon fill="none" stroke="black" points="432.5,-158.456 432.5,-176.456 490.5,-176.456 490.5,-158.456 432.5,-158.456"/>
<text text-anchor="middle" x="461.5" y="-165.256" font-family="Calibri" font-size="9.00">sharp_ind</text>
</a>
</g>
</g>
<!-- Node8&#45;&gt;Node14 -->
<g id="edge23" class="edge"><title>Node8&#45;&gt;Node14</title>
<path fill="none" stroke="midnightblue" d="M638.599,-226.596C627.271,-214.878 610.666,-199.901 593,-191.456 560.058,-175.709 517.882,-170.261 490.535,-168.396"/>
<polygon fill="midnightblue" stroke="midnightblue" points="636.174,-229.128 645.547,-234.068 641.3,-224.361 636.174,-229.128"/>
</g>
<!-- Node9&#45;&gt;Node10 -->
<g id="edge15" class="edge"><title>Node9&#45;&gt;Node10</title>
<path fill="none" stroke="midnightblue" d="M520.77,-247.541C512.245,-248.406 503.347,-249.309 495.145,-250.142"/>
<polygon fill="midnightblue" stroke="midnightblue" points="521.316,-251.003 530.912,-246.511 520.609,-244.039 521.316,-251.003"/>
</g>
<!-- Node10&#45;&gt;Node11 -->
<g id="edge16" class="edge"><title>Node10&#45;&gt;Node11</title>
<path fill="none" stroke="midnightblue" d="M417.785,-253.456C409.104,-253.456 400.207,-253.456 392.271,-253.456"/>
<polygon fill="midnightblue" stroke="midnightblue" points="417.806,-256.956 427.806,-253.456 417.806,-249.956 417.806,-256.956"/>
</g>
<!-- Node11&#45;&gt;Node12 -->
<g id="edge17" class="edge"><title>Node11&#45;&gt;Node12</title>
<path fill="none" stroke="midnightblue" d="M326.487,-253.456C317.583,-253.456 308.509,-253.456 301.085,-253.456"/>
<polygon fill="midnightblue" stroke="midnightblue" points="326.754,-256.956 336.754,-253.456 326.754,-249.956 326.754,-256.956"/>
</g>
<!-- Node12&#45;&gt;Node6 -->
<g id="edge18" class="edge"><title>Node12&#45;&gt;Node6</title>
<path fill="none" stroke="midnightblue" d="M264.615,-269.53C248.842,-283.706 226.423,-303.855 213.581,-315.397"/>
<polygon fill="midnightblue" stroke="midnightblue" points="267.074,-272.026 272.172,-262.738 262.395,-266.82 267.074,-272.026"/>
</g>
<!-- Node13&#45;&gt;Node11 -->
<g id="edge21" class="edge"><title>Node13&#45;&gt;Node11</title>
<path fill="none" stroke="midnightblue" d="M438.871,-323.13C435.176,-320.33 431.427,-317.37 428,-314.456 407.67,-297.17 385.753,-274.82 374.04,-262.54"/>
<polygon fill="midnightblue" stroke="midnightblue" points="437.09,-326.165 447.217,-329.276 441.241,-320.528 437.09,-326.165"/>
</g>
<!-- Node13&#45;&gt;Node12 -->
<g id="edge22" class="edge"><title>Node13&#45;&gt;Node12</title>
<path fill="none" stroke="midnightblue" d="M432.42,-324.895C395.36,-306.997 331.298,-276.058 301.127,-261.486"/>
<polygon fill="midnightblue" stroke="midnightblue" points="431.138,-328.163 441.665,-329.36 434.182,-321.859 431.138,-328.163"/>
</g>
<!-- Node14&#45;&gt;Node11 -->
<g id="edge24" class="edge"><title>Node14&#45;&gt;Node11</title>
<path fill="none" stroke="midnightblue" d="M438.851,-182.76C435.158,-185.562 431.415,-188.529 428,-191.456 407.578,-208.965 385.695,-231.704 374.013,-244.206"/>
<polygon fill="midnightblue" stroke="midnightblue" points="441.221,-185.361 447.198,-176.613 437.07,-179.724 441.221,-185.361"/>
</g>
<!-- Node14&#45;&gt;Node12 -->
<g id="edge25" class="edge"><title>Node14&#45;&gt;Node12</title>
<path fill="none" stroke="midnightblue" d="M432.785,-180.999C395.813,-199.065 331.504,-230.489 301.203,-245.295"/>
<polygon fill="midnightblue" stroke="midnightblue" points="434.549,-184.032 441.998,-176.497 431.476,-177.743 434.549,-184.032"/>
</g>
<!-- Node15&#45;&gt;Node3 -->
<g id="edge32" class="edge"><title>Node15&#45;&gt;Node3</title>
<path fill="none" stroke="midnightblue" d="M618.669,-15.4564C580.382,-15.4564 517.058,-15.4564 462.5,-15.4564 462.5,-15.4564 462.5,-15.4564 201.5,-15.4564 101.595,-15.4564 32.4251,-398.079 21.5115,-462.348"/>
<polygon fill="midnightblue" stroke="midnightblue" points="618.775,-18.9565 628.775,-15.4564 618.775,-11.9565 618.775,-18.9565"/>
</g>
</g>
</svg>
        <g id="navigator" transform="translate(0 0)" fill="#404254">
                <rect fill="#f2f5e9" fill-opacity="0.5" stroke="#606060" stroke-width=".5" x="0" y="0" width="60" height="60"/>
                <use id="zoomplus" xlink:href="#zoomPlus" x="17" y="9" onmousedown="handleZoom(evt,'in')"/>
                <use id="zoomminus" xlink:href="#zoomMin" x="42" y="9" onmousedown="handleZoom(evt,'out')"/>
                <use id="reset" xlink:href="#resetDef" x="30" y="36" onmousedown="handleReset()"/>
                <g id="arrowUp" xlink:href="#dirArrow" transform="translate(30 24)" onmousedown="handlePan(0,-1)">
                  <use xlink:href="#rim" fill="#404040">
                        <set attributeName="fill" to="#808080" begin="arrowUp.mouseover" end="arrowUp.mouseout"/>
                  </use>
                  <path fill="none" stroke="white" stroke-width="1.5" d="M0,-3.0v7 M-2.5,-0.5L0,-3.0L2.5,-0.5"/>
                </g>
                <g id="arrowRight" xlink:href="#dirArrow" transform="rotate(90) translate(36 -43)" onmousedown="handlePan(1,0)">
                  <use xlink:href="#rim" fill="#404040">
                        <set attributeName="fill" to="#808080" begin="arrowRight.mouseover" end="arrowRight.mouseout"/>
                  </use>
                  <path fill="none" stroke="white" stroke-width="1.5" d="M0,-3.0v7 M-2.5,-0.5L0,-3.0L2.5,-0.5"/>
                </g>
                <g id="arrowDown" xlink:href="#dirArrow" transform="rotate(180) translate(-30 -48)" onmousedown="handlePan(0,1)">
                  <use xlink:href="#rim" fill="#404040">
                        <set attributeName="fill" to="#808080" begin="arrowDown.mouseover" end="arrowDown.mouseout"/>
                  </use>
                  <path fill="none" stroke="white" stroke-width="1.5" d="M0,-3.0v7 M-2.5,-0.5L0,-3.0L2.5,-0.5"/>
                </g>
                <g id="arrowLeft" xlink:href="#dirArrow" transform="rotate(270) translate(-36 17)" onmousedown="handlePan(-1,0)">
                  <use xlink:href="#rim" fill="#404040">
                        <set attributeName="fill" to="#808080" begin="arrowLeft.mouseover" end="arrowLeft.mouseout"/>
                  </use>
                  <path fill="none" stroke="white" stroke-width="1.5" d="M0,-3.0v7 M-2.5,-0.5L0,-3.0L2.5,-0.5"/>
                </g>
        </g>
        <svg viewBox="0 0 15 15" width="100%" height="30px" preserveAspectRatio="xMaxYMin meet">
         <g id="arrow_out" transform="scale(0.3 0.3)">
          <a xlink:href="main_8h_aa3ee146d5fca99f368e8ddb5d5dd72cb_icgraph_org.svg" target="_base">
           <rect id="button" ry="5" rx="5" y="6" x="6" height="38" width="38"
                fill="#f2f5e9" fill-opacity="0.5" stroke="#606060" stroke-width="1.0"/>
           <path id="arrow"
             d="M 11.500037,31.436501 C 11.940474,20.09759 22.043105,11.32322 32.158766,21.979434 L 37.068811,17.246167 C 37.068811,17.246167 37.088388,32 37.088388,32 L 22.160133,31.978069 C 22.160133,31.978069 26.997745,27.140456 26.997745,27.140456 C 18.528582,18.264221 13.291696,25.230495 11.500037,31.436501 z"
             style="fill:#404040;"/>
          </a>
         </g>
        </svg>
</svg>
