<?xml version="1.0" encoding="UTF-8" standalone="no"?>
<!DOCTYPE svg PUBLIC "-//W3C//DTD SVG 1.1//EN"
 "http://www.w3.org/Graphics/SVG/1.1/DTD/svg11.dtd">
<!-- Generated by graphviz version 2.38.0 (20140413.2041)
 -->
<!-- Title: sharp_cap Pages: 1 -->
<!--zoomable 443 -->
<svg id="main" version="1.1" xmlns="http://www.w3.org/2000/svg" xmlns:xlink="http://www.w3.org/1999/xlink" xml:space="preserve" onload="init(evt)">
<style type="text/css"><![CDATA[
.edge:hover path { stroke: red; }
.edge:hover polygon { stroke: red; fill: red; }
]]></style>
<script type="text/javascript"><![CDATA[
var edges = document.getElementsByTagName('g');
if (edges && edges.length) {
  for (var i=0;i<edges.length;i++) {
    if (edges[i].id.substr(0,4)=='edge') {
      edges[i].setAttribute('class','edge');
    }
  }
}
]]></script>
        <defs>
                <circle id="rim" cx="0" cy="0" r="7"/>
                <circle id="rim2" cx="0" cy="0" r="3.5"/>
                <g id="zoomPlus">
                        <use xlink:href="#rim" fill="#404040">
                                <set attributeName="fill" to="#808080" begin="zoomplus.mouseover" end="zoomplus.mouseout"/>
                        </use>
                        <path d="M-4,0h8M0,-4v8" fill="none" stroke="white" stroke-width="1.5" pointer-events="none"/>
                </g>
                <g id="zoomMin">
                        <use xlink:href="#rim" fill="#404040">
                                <set attributeName="fill" to="#808080" begin="zoomminus.mouseover" end="zoomminus.mouseout"/>
                        </use>
                        <path d="M-4,0h8" fill="none" stroke="white" stroke-width="1.5" pointer-events="none"/>
                </g>
                <g id="dirArrow">
                        <path fill="none" stroke="white" stroke-width="1.5" d="M0,-3.0v7 M-2.5,-0.5L0,-3.0L2.5,-0.5"/>
                </g>
               <g id="resetDef">
                       <use xlink:href="#rim2" fill="#404040">
                               <set attributeName="fill" to="#808080" begin="reset.mouseover" end="reset.mouseout"/>
                       </use>
               </g>
        </defs>

<script type="text/javascript">
var viewWidth = 985;
var viewHeight = 443;
var sectionId = 'dynsection-29';
</script>
<script xlink:href="svgpan.js"/>
<svg id="graph" class="graph">
<g id="viewport">
<title>sharp_cap</title>
<!-- Node341 -->
<g id="node1" class="node"><title>Node341</title>
<polygon fill="#bfbfbf" stroke="black" points="0,-229.185 0,-247.185 59,-247.185 59,-229.185 0,-229.185"/>
<text text-anchor="middle" x="29.5" y="-235.985" font-family="Calibri" font-size="9.00">sharp_cap</text>
</g>
<!-- Node342 -->
<g id="node2" class="node"><title>Node342</title>
<g id="a_node2"><a xlink:href="main__main_8h.html#a6c26e075660bdd7a54df984ec3fc7ff4" target="_top" xlink:title="get_swr">
<polygon fill="none" stroke="black" points="95,-248.185 95,-266.185 143,-266.185 143,-248.185 95,-248.185"/>
<text text-anchor="middle" x="119" y="-254.985" font-family="Calibri" font-size="9.00">get_swr</text>
</a>
</g>
</g>
<!-- Node341&#45;&gt;Node342 -->
<g id="edge1" class="edge"><title>Node341&#45;&gt;Node342</title>
<path fill="none" stroke="midnightblue" d="M59.1508,-244.406C67.3715,-246.191 76.4028,-248.152 84.8694,-249.991"/>
<polygon fill="midnightblue" stroke="midnightblue" points="84.3093,-253.451 94.8243,-252.152 85.7948,-246.61 84.3093,-253.451"/>
</g>
<!-- Node370 -->
<g id="node30" class="node"><title>Node370</title>
<g id="a_node30"><a xlink:href="main__main_8h.html#a452291def610d28ec8eee31b70d56054" target="_top" xlink:title="set_cap">
<polygon fill="none" stroke="black" points="95,-211.185 95,-229.185 143,-229.185 143,-211.185 95,-211.185"/>
<text text-anchor="middle" x="119" y="-217.985" font-family="Calibri" font-size="9.00">set_cap</text>
</a>
</g>
</g>
<!-- Node341&#45;&gt;Node370 -->
<g id="edge45" class="edge"><title>Node341&#45;&gt;Node370</title>
<path fill="none" stroke="midnightblue" d="M59.1508,-232.291C67.3715,-230.6 76.4028,-228.742 84.8694,-227"/>
<polygon fill="midnightblue" stroke="midnightblue" points="85.7347,-230.396 94.8243,-224.952 84.3242,-223.539 85.7347,-230.396"/>
</g>
<!-- Node343 -->
<g id="node3" class="node"><title>Node343</title>
<g id="a_node3"><a xlink:href="main__main_8h.html#ab37ca657b79c6b9176cb63e9d812a182" target="_top" xlink:title="get_pwr">
<polygon fill="none" stroke="black" points="186.5,-360.185 186.5,-378.185 235.5,-378.185 235.5,-360.185 186.5,-360.185"/>
<text text-anchor="middle" x="211" y="-366.985" font-family="Calibri" font-size="9.00">get_pwr</text>
</a>
</g>
</g>
<!-- Node342&#45;&gt;Node343 -->
<g id="edge2" class="edge"><title>Node342&#45;&gt;Node343</title>
<path fill="none" stroke="midnightblue" d="M127.365,-266.35C142.396,-285.055 176.813,-327.885 196.154,-351.954"/>
<polygon fill="midnightblue" stroke="midnightblue" points="193.541,-354.29 202.533,-359.893 198.997,-349.905 193.541,-354.29"/>
</g>
<!-- Node347 -->
<g id="node7" class="node"><title>Node347</title>
<g id="a_node7"><a xlink:href="main__main_8h.html#ad9d02e37f1f201576a9d93fd36fc4768" target="_top" xlink:title="show_reset">
<polygon fill="none" stroke="black" points="179,-135.185 179,-153.185 243,-153.185 243,-135.185 179,-135.185"/>
<text text-anchor="middle" x="211" y="-141.985" font-family="Calibri" font-size="9.00">show_reset</text>
</a>
</g>
</g>
<!-- Node342&#45;&gt;Node347 -->
<g id="edge6" class="edge"><title>Node342&#45;&gt;Node347</title>
<path fill="none" stroke="midnightblue" d="M133.22,-247.906C136.579,-245.269 140.064,-242.271 143,-239.185 166.193,-214.807 187.593,-181.89 199.699,-161.895"/>
<polygon fill="midnightblue" stroke="midnightblue" points="202.76,-163.595 204.863,-153.211 196.744,-160.017 202.76,-163.595"/>
</g>
<!-- Node344 -->
<g id="node4" class="node"><title>Node344</title>
<g id="a_node4"><a xlink:href="main__main_8h.html#ab19e6e081315a9a200394b74d10de395" target="_top" xlink:title="correction">
<polygon fill="none" stroke="black" points="283,-342.185 283,-360.185 340,-360.185 340,-342.185 283,-342.185"/>
<text text-anchor="middle" x="311.5" y="-348.985" font-family="Calibri" font-size="9.00">correction</text>
</a>
</g>
</g>
<!-- Node343&#45;&gt;Node344 -->
<g id="edge3" class="edge"><title>Node343&#45;&gt;Node344</title>
<path fill="none" stroke="midnightblue" d="M235.593,-364.873C246.709,-362.842 260.245,-360.368 272.736,-358.086"/>
<polygon fill="midnightblue" stroke="midnightblue" points="273.7,-361.468 282.908,-356.227 272.441,-354.582 273.7,-361.468"/>
</g>
<!-- Node345 -->
<g id="node5" class="node"><title>Node345</title>
<g id="a_node5"><a xlink:href="main__main_8h.html#acfd46f8711e9c1c20fffdfc8bdaa0ddd" target="_top" xlink:title="get_forward">
<polygon fill="none" stroke="black" points="279,-416.185 279,-434.185 344,-434.185 344,-416.185 279,-416.185"/>
<text text-anchor="middle" x="311.5" y="-422.985" font-family="Calibri" font-size="9.00">get_forward</text>
</a>
</g>
</g>
<!-- Node343&#45;&gt;Node345 -->
<g id="edge4" class="edge"><title>Node343&#45;&gt;Node345</title>
<path fill="none" stroke="midnightblue" d="M228.265,-378.432C243.9,-387.321 267.742,-400.876 285.735,-411.105"/>
<polygon fill="midnightblue" stroke="midnightblue" points="284.114,-414.21 294.537,-416.11 287.574,-408.125 284.114,-414.21"/>
</g>
<!-- Node346 -->
<g id="node6" class="node"><title>Node346</title>
<g id="a_node6"><a xlink:href="main__main_8h.html#aa6b9a2b3d88f578ba6a9fefd911eae75" target="_top" xlink:title="get_reverse">
<polygon fill="none" stroke="black" points="279.5,-379.185 279.5,-397.185 343.5,-397.185 343.5,-379.185 279.5,-379.185"/>
<text text-anchor="middle" x="311.5" y="-385.985" font-family="Calibri" font-size="9.00">get_reverse</text>
</a>
</g>
</g>
<!-- Node343&#45;&gt;Node346 -->
<g id="edge5" class="edge"><title>Node343&#45;&gt;Node346</title>
<path fill="none" stroke="midnightblue" d="M235.593,-373.736C245.718,-375.689 257.849,-378.029 269.371,-380.251"/>
<polygon fill="midnightblue" stroke="midnightblue" points="268.792,-383.704 279.274,-382.161 270.118,-376.831 268.792,-383.704"/>
</g>
<!-- Node348 -->
<g id="node8" class="node"><title>Node348</title>
<g id="a_node8"><a xlink:href="main_8h.html#a9dff326a6079fe726285b11ee837ad60" target="_top" xlink:title="atu_reset">
<polygon fill="none" stroke="black" points="283.5,-59.1848 283.5,-77.1848 339.5,-77.1848 339.5,-59.1848 283.5,-59.1848"/>
<text text-anchor="middle" x="311.5" y="-65.9848" font-family="Calibri" font-size="9.00">atu_reset</text>
</a>
</g>
</g>
<!-- Node347&#45;&gt;Node348 -->
<g id="edge7" class="edge"><title>Node347&#45;&gt;Node348</title>
<path fill="none" stroke="midnightblue" d="M223.686,-135.168C240.2,-122.427 270.585,-98.9821 290.668,-83.4863"/>
<polygon fill="midnightblue" stroke="midnightblue" points="293.05,-86.0695 298.829,-77.1897 288.774,-80.5274 293.05,-86.0695"/>
</g>
<!-- Node351 -->
<g id="node11" class="node"><title>Node351</title>
<g id="a_node11"><a xlink:href="main_8h.html#ae0c1e0ec712704e43db40473f103d621" target="_top" xlink:title="Set the state of the switch. ">
<polygon fill="none" stroke="black" points="289,-117.185 289,-135.185 334,-135.185 334,-117.185 289,-117.185"/>
<text text-anchor="middle" x="311.5" y="-123.985" font-family="Calibri" font-size="9.00">set_sw</text>
</a>
</g>
</g>
<!-- Node347&#45;&gt;Node351 -->
<g id="edge10" class="edge"><title>Node347&#45;&gt;Node351</title>
<path fill="none" stroke="midnightblue" d="M243.166,-138.489C254.558,-136.408 267.45,-134.052 278.881,-131.963"/>
<polygon fill="midnightblue" stroke="midnightblue" points="279.676,-135.376 288.884,-130.135 278.417,-128.49 279.676,-135.376"/>
</g>
<!-- Node352 -->
<g id="node12" class="node"><title>Node352</title>
<g id="a_node12"><a xlink:href="main_8c.html#a6911b3f075cdf1d54cb14f17f6e5ef6b" target="_top" xlink:title="lcd_ind">
<polygon fill="none" stroke="black" points="496,-323.185 496,-341.185 543,-341.185 543,-323.185 496,-323.185"/>
<text text-anchor="middle" x="519.5" y="-329.985" font-family="Calibri" font-size="9.00">lcd_ind</text>
</a>
</g>
</g>
<!-- Node347&#45;&gt;Node352 -->
<g id="edge11" class="edge"><title>Node347&#45;&gt;Node352</title>
<path fill="none" stroke="midnightblue" d="M219.65,-153.547C241.667,-179.865 308.218,-255.127 380,-294.185 413.55,-312.44 456.541,-322.455 485.661,-327.554"/>
<polygon fill="midnightblue" stroke="midnightblue" points="485.281,-331.039 495.718,-329.216 486.423,-324.132 485.281,-331.039"/>
</g>
<!-- Node353 -->
<g id="node13" class="node"><title>Node353</title>
<g id="a_node13"><a xlink:href="oled__control_8c.html#a9d56c6c2e653b24a0caf505492ad818a" target="_top" xlink:title="led_wr_str">
<polygon fill="none" stroke="black" points="588,-210.185 588,-228.185 647,-228.185 647,-210.185 588,-210.185"/>
<text text-anchor="middle" x="617.5" y="-216.985" font-family="Calibri" font-size="9.00">led_wr_str</text>
</a>
</g>
</g>
<!-- Node347&#45;&gt;Node353 -->
<g id="edge24" class="edge"><title>Node347&#45;&gt;Node353</title>
<path fill="none" stroke="midnightblue" d="M216.142,-134.94C225.008,-116.15 247.602,-73.2453 279,-49.1848 341.066,-1.624 376.839,12.6008 451,-12.1848 504.281,-29.9919 516.171,-44.9157 552,-88.1848 580.989,-123.193 601.011,-173.423 610.406,-200.38"/>
<polygon fill="midnightblue" stroke="midnightblue" points="607.17,-201.737 613.68,-210.096 613.803,-199.502 607.17,-201.737"/>
</g>
<!-- Node360 -->
<g id="node20" class="node"><title>Node360</title>
<g id="a_node20"><a xlink:href="main_8c.html#ae5a14b4884e85f47ad8a4a716f13203a" target="_top" xlink:title="lcd_pwr">
<polygon fill="none" stroke="black" points="287.5,-154.185 287.5,-172.185 335.5,-172.185 335.5,-154.185 287.5,-154.185"/>
<text text-anchor="middle" x="311.5" y="-160.985" font-family="Calibri" font-size="9.00">lcd_pwr</text>
</a>
</g>
</g>
<!-- Node347&#45;&gt;Node360 -->
<g id="edge25" class="edge"><title>Node347&#45;&gt;Node360</title>
<path fill="none" stroke="midnightblue" d="M243.166,-150.196C254.015,-152.289 266.223,-154.644 277.236,-156.768"/>
<polygon fill="midnightblue" stroke="midnightblue" points="276.862,-160.261 287.344,-158.718 278.188,-153.387 276.862,-160.261"/>
</g>
<!-- Node349 -->
<g id="node9" class="node"><title>Node349</title>
<g id="a_node9"><a xlink:href="main_8h.html#a2a7963b9b09696c6654b96c67900c6ea" target="_top" xlink:title="set_cap">
<polygon fill="none" stroke="black" points="391.5,-22.1848 391.5,-40.1848 439.5,-40.1848 439.5,-22.1848 391.5,-22.1848"/>
<text text-anchor="middle" x="415.5" y="-28.9848" font-family="Calibri" font-size="9.00">set_cap</text>
</a>
</g>
</g>
<!-- Node348&#45;&gt;Node349 -->
<g id="edge8" class="edge"><title>Node348&#45;&gt;Node349</title>
<path fill="none" stroke="midnightblue" d="M337.452,-59.1335C350.774,-54.3011 367.337,-48.293 381.689,-43.087"/>
<polygon fill="midnightblue" stroke="midnightblue" points="382.997,-46.3356 391.204,-39.6353 380.61,-39.7551 382.997,-46.3356"/>
</g>
<!-- Node350 -->
<g id="node10" class="node"><title>Node350</title>
<g id="a_node10"><a xlink:href="main_8h.html#aecc83cd8bceb4bc24be844732ead2c2c" target="_top" xlink:title="set_ind">
<polygon fill="none" stroke="black" points="392,-59.1848 392,-77.1848 439,-77.1848 439,-59.1848 392,-59.1848"/>
<text text-anchor="middle" x="415.5" y="-65.9848" font-family="Calibri" font-size="9.00">set_ind</text>
</a>
</g>
</g>
<!-- Node348&#45;&gt;Node350 -->
<g id="edge9" class="edge"><title>Node348&#45;&gt;Node350</title>
<path fill="none" stroke="midnightblue" d="M339.566,-68.1848C352.42,-68.1848 367.896,-68.1848 381.438,-68.1848"/>
<polygon fill="midnightblue" stroke="midnightblue" points="381.798,-71.6849 391.798,-68.1848 381.798,-64.6849 381.798,-71.6849"/>
</g>
<!-- Node352&#45;&gt;Node353 -->
<g id="edge12" class="edge"><title>Node352&#45;&gt;Node353</title>
<path fill="none" stroke="midnightblue" d="M534.082,-323.176C539.919,-318.977 546.621,-313.694 552,-308.185 573.682,-285.977 593.849,-256.062 605.674,-237.198"/>
<polygon fill="midnightblue" stroke="midnightblue" points="608.803,-238.792 611.061,-228.44 602.841,-235.124 608.803,-238.792"/>
</g>
<!-- Node354 -->
<g id="node14" class="node"><title>Node354</title>
<g id="a_node14"><a xlink:href="oled__control_8c.html#a7c3a2e5f1fed76dc27692132a2574d27" target="_top" xlink:title="oled_wr_str">
<polygon fill="none" stroke="black" points="683,-286.185 683,-304.185 748,-304.185 748,-286.185 683,-286.185"/>
<text text-anchor="middle" x="715.5" y="-292.985" font-family="Calibri" font-size="9.00">oled_wr_str</text>
</a>
</g>
</g>
<!-- Node353&#45;&gt;Node354 -->
<g id="edge13" class="edge"><title>Node353&#45;&gt;Node354</title>
<path fill="none" stroke="midnightblue" d="M627.662,-228.247C639.775,-239.995 662.039,-260.797 683,-276.185 685.072,-277.706 687.271,-279.218 689.507,-280.687"/>
<polygon fill="midnightblue" stroke="midnightblue" points="687.777,-283.734 698.112,-286.064 691.485,-277.797 687.777,-283.734"/>
</g>
<!-- Node359 -->
<g id="node19" class="node"><title>Node359</title>
<g id="a_node19"><a xlink:href="oled__control_8c.html#ad25764a33e482f4e9db2701198e02551" target="_top" xlink:title="led_send">
<polygon fill="none" stroke="black" points="797,-211.185 797,-229.185 852,-229.185 852,-211.185 797,-211.185"/>
<text text-anchor="middle" x="824.5" y="-217.985" font-family="Calibri" font-size="9.00">led_send</text>
</a>
</g>
</g>
<!-- Node353&#45;&gt;Node359 -->
<g id="edge20" class="edge"><title>Node353&#45;&gt;Node359</title>
<path fill="none" stroke="midnightblue" d="M647.004,-219.324C683.462,-219.502 746.664,-219.81 786.717,-220.005"/>
<polygon fill="midnightblue" stroke="midnightblue" points="786.847,-223.506 796.864,-220.055 786.881,-216.506 786.847,-223.506"/>
</g>
<!-- Node355 -->
<g id="node15" class="node"><title>Node355</title>
<g id="a_node15"><a xlink:href="oled__control_8c.html#ab7f6b5c6c1483f6286f2de5786c028d9" target="_top" xlink:title="Soft_I2C_Start">
<polygon fill="none" stroke="black" points="903,-314.185 903,-332.185 975,-332.185 975,-314.185 903,-314.185"/>
<text text-anchor="middle" x="939" y="-320.985" font-family="Calibri" font-size="9.00">Soft_I2C_Start</text>
</a>
</g>
</g>
<!-- Node354&#45;&gt;Node355 -->
<g id="edge14" class="edge"><title>Node354&#45;&gt;Node355</title>
<path fill="none" stroke="midnightblue" d="M723.588,-304.316C734.727,-317.832 757.783,-342.596 784,-352.185 826.883,-367.869 879.73,-350.523 911.044,-336.715"/>
<polygon fill="midnightblue" stroke="midnightblue" points="912.793,-339.763 920.414,-332.403 909.867,-333.404 912.793,-339.763"/>
</g>
<!-- Node356 -->
<g id="node16" class="node"><title>Node356</title>
<g id="a_node16"><a xlink:href="oled__control_8c.html#a73610916645f17c19124e697b005f694" target="_top" xlink:title="Soft_I2C_Write">
<polygon fill="none" stroke="black" points="901,-258.185 901,-276.185 977,-276.185 977,-258.185 901,-258.185"/>
<text text-anchor="middle" x="939" y="-264.985" font-family="Calibri" font-size="9.00">Soft_I2C_Write</text>
</a>
</g>
</g>
<!-- Node354&#45;&gt;Node356 -->
<g id="edge15" class="edge"><title>Node354&#45;&gt;Node356</title>
<path fill="none" stroke="midnightblue" d="M748.236,-291.173C785.556,-286.455 847.856,-278.58 890.834,-273.147"/>
<polygon fill="midnightblue" stroke="midnightblue" points="891.294,-276.617 900.776,-271.89 890.416,-269.672 891.294,-276.617"/>
</g>
<!-- Node357 -->
<g id="node17" class="node"><title>Node357</title>
<g id="a_node17"><a xlink:href="oled__control_8c.html#a6df77e8ec83c50ed6a5ddaf54aa3a9c2" target="_top" xlink:title="set_addressing">
<polygon fill="none" stroke="black" points="784.5,-324.185 784.5,-342.185 864.5,-342.185 864.5,-324.185 784.5,-324.185"/>
<text text-anchor="middle" x="824.5" y="-330.985" font-family="Calibri" font-size="9.00">set_addressing</text>
</a>
</g>
</g>
<!-- Node354&#45;&gt;Node357 -->
<g id="edge16" class="edge"><title>Node354&#45;&gt;Node357</title>
<path fill="none" stroke="midnightblue" d="M741.858,-304.19C755.748,-309.123 773.177,-315.313 788.36,-320.705"/>
<polygon fill="midnightblue" stroke="midnightblue" points="787.359,-324.064 797.954,-324.112 789.702,-317.467 787.359,-324.064"/>
</g>
<!-- Node358 -->
<g id="node18" class="node"><title>Node358</title>
<g id="a_node18"><a xlink:href="oled__control_8c.html#a16eb842aa672ca44820ae6d5f9933425" target="_top" xlink:title="Soft_I2C_Stop">
<polygon fill="none" stroke="black" points="903.5,-211.185 903.5,-229.185 974.5,-229.185 974.5,-211.185 903.5,-211.185"/>
<text text-anchor="middle" x="939" y="-217.985" font-family="Calibri" font-size="9.00">Soft_I2C_Stop</text>
</a>
</g>
</g>
<!-- Node354&#45;&gt;Node358 -->
<g id="edge19" class="edge"><title>Node354&#45;&gt;Node358</title>
<path fill="none" stroke="midnightblue" d="M735.479,-286.142C739.966,-283.389 744.467,-280.051 748,-276.185 772.673,-249.186 752.993,-221.582 784,-202.185 822.674,-177.992 877.632,-193.718 910.366,-207.113"/>
<polygon fill="midnightblue" stroke="midnightblue" points="909.199,-210.421 919.768,-211.149 911.959,-203.988 909.199,-210.421"/>
</g>
<!-- Node357&#45;&gt;Node355 -->
<g id="edge17" class="edge"><title>Node357&#45;&gt;Node355</title>
<path fill="none" stroke="midnightblue" d="M864.531,-329.715C873.569,-328.912 883.262,-328.05 892.548,-327.225"/>
<polygon fill="midnightblue" stroke="midnightblue" points="893.151,-330.685 902.802,-326.313 892.531,-323.713 893.151,-330.685"/>
</g>
<!-- Node357&#45;&gt;Node356 -->
<g id="edge18" class="edge"><title>Node357&#45;&gt;Node356</title>
<path fill="none" stroke="midnightblue" d="M841.143,-324.008C859.949,-312.974 891.724,-294.333 913.726,-281.426"/>
<polygon fill="midnightblue" stroke="midnightblue" points="915.636,-284.363 922.49,-276.284 912.094,-278.325 915.636,-284.363"/>
</g>
<!-- Node359&#45;&gt;Node355 -->
<g id="edge21" class="edge"><title>Node359&#45;&gt;Node355</title>
<path fill="none" stroke="midnightblue" d="M849.141,-229.332C854.648,-232.048 860.277,-235.344 865,-239.185 885.414,-255.786 883.66,-266.395 901,-286.185 907.146,-293.199 914.312,-300.537 920.693,-306.812"/>
<polygon fill="midnightblue" stroke="midnightblue" points="918.596,-309.653 928.218,-314.087 923.461,-304.62 918.596,-309.653"/>
</g>
<!-- Node359&#45;&gt;Node356 -->
<g id="edge22" class="edge"><title>Node359&#45;&gt;Node356</title>
<path fill="none" stroke="midnightblue" d="M847.191,-229.247C864.155,-236.334 887.966,-246.282 906.95,-254.213"/>
<polygon fill="midnightblue" stroke="midnightblue" points="905.799,-257.525 916.375,-258.151 908.498,-251.066 905.799,-257.525"/>
</g>
<!-- Node359&#45;&gt;Node358 -->
<g id="edge23" class="edge"><title>Node359&#45;&gt;Node358</title>
<path fill="none" stroke="midnightblue" d="M852.161,-220.185C864.381,-220.185 879.204,-220.185 893.071,-220.185"/>
<polygon fill="midnightblue" stroke="midnightblue" points="893.429,-223.685 903.429,-220.185 893.429,-216.685 893.429,-223.685"/>
</g>
<!-- Node360&#45;&gt;Node349 -->
<g id="edge31" class="edge"><title>Node360&#45;&gt;Node349</title>
<path fill="none" stroke="midnightblue" d="M333.371,-154.007C337.283,-151.573 341.06,-148.638 344,-145.185 373.537,-110.486 349.805,-83.3123 380,-49.1848 380.881,-48.1886 381.831,-47.2393 382.834,-46.3354"/>
<polygon fill="midnightblue" stroke="midnightblue" points="385.201,-48.9445 391.291,-40.2743 381.124,-43.2549 385.201,-48.9445"/>
</g>
<!-- Node360&#45;&gt;Node350 -->
<g id="edge30" class="edge"><title>Node360&#45;&gt;Node350</title>
<path fill="none" stroke="midnightblue" d="M331.779,-154.019C336.061,-151.496 340.394,-148.522 344,-145.185 364.9,-125.845 359.977,-112.432 380,-92.1848 383.117,-89.0331 386.697,-86.0257 390.345,-83.2716"/>
<polygon fill="midnightblue" stroke="midnightblue" points="392.611,-85.9584 398.796,-77.3564 388.596,-80.2238 392.611,-85.9584"/>
</g>
<!-- Node360&#45;&gt;Node353 -->
<g id="edge44" class="edge"><title>Node360&#45;&gt;Node353</title>
<path fill="none" stroke="midnightblue" d="M335.545,-158.202C379.348,-149.813 476.952,-136.354 552,-164.185 572.374,-171.74 590.703,-188.877 602.568,-202.029"/>
<polygon fill="midnightblue" stroke="midnightblue" points="600.213,-204.658 609.388,-209.956 605.519,-200.093 600.213,-204.658"/>
</g>
<!-- Node361 -->
<g id="node21" class="node"><title>Node361</title>
<g id="a_node21"><a xlink:href="main_8h.html#ab37ca657b79c6b9176cb63e9d812a182" target="_top" xlink:title="get_pwr">
<polygon fill="none" stroke="black" points="391,-210.185 391,-228.185 440,-228.185 440,-210.185 391,-210.185"/>
<text text-anchor="middle" x="415.5" y="-216.985" font-family="Calibri" font-size="9.00">get_pwr</text>
</a>
</g>
</g>
<!-- Node360&#45;&gt;Node361 -->
<g id="edge26" class="edge"><title>Node360&#45;&gt;Node361</title>
<path fill="none" stroke="midnightblue" d="M328.242,-172.234C341.872,-180.024 362.148,-191.506 380,-201.185 382.561,-202.573 385.239,-204.005 387.92,-205.426"/>
<polygon fill="midnightblue" stroke="midnightblue" points="386.411,-208.586 396.892,-210.135 389.664,-202.388 386.411,-208.586"/>
</g>
<!-- Node365 -->
<g id="node25" class="node"><title>Node365</title>
<g id="a_node25"><a xlink:href="oled__control_8c.html#a2c663a2db505aa3f2271f6cf4bae1521" target="_top" xlink:title="dysp_on">
<polygon fill="none" stroke="black" points="690.5,-248.185 690.5,-266.185 740.5,-266.185 740.5,-248.185 690.5,-248.185"/>
<text text-anchor="middle" x="715.5" y="-254.985" font-family="Calibri" font-size="9.00">dysp_on</text>
</a>
</g>
</g>
<!-- Node360&#45;&gt;Node365 -->
<g id="edge32" class="edge"><title>Node360&#45;&gt;Node365</title>
<path fill="none" stroke="midnightblue" d="M315.084,-172.265C322.04,-195.303 343.168,-256.845 380,-294.185 417.839,-332.545 434.723,-338.129 487,-351.185 515.028,-358.185 524.099,-358.673 552,-351.185 567.035,-347.15 650.134,-296.784 691.331,-271.487"/>
<polygon fill="midnightblue" stroke="midnightblue" points="693.229,-274.429 699.912,-266.209 689.561,-268.467 693.229,-274.429"/>
</g>
<!-- Node367 -->
<g id="node27" class="node"><title>Node367</title>
<g id="a_node27"><a xlink:href="main_8c.html#a593218c5fe00b499d494826fc0aa5279" target="_top" xlink:title="button_delay">
<polygon fill="none" stroke="black" points="380,-173.185 380,-191.185 451,-191.185 451,-173.185 380,-173.185"/>
<text text-anchor="middle" x="415.5" y="-179.985" font-family="Calibri" font-size="9.00">button_delay</text>
</a>
</g>
</g>
<!-- Node360&#45;&gt;Node367 -->
<g id="edge38" class="edge"><title>Node360&#45;&gt;Node367</title>
<path fill="none" stroke="midnightblue" d="M335.645,-167.496C345.738,-169.376 357.929,-171.647 369.677,-173.835"/>
<polygon fill="midnightblue" stroke="midnightblue" points="369.351,-177.335 379.823,-175.725 370.633,-170.453 369.351,-177.335"/>
</g>
<!-- Node368 -->
<g id="node28" class="node"><title>Node368</title>
<g id="a_node28"><a xlink:href="main_8c.html#aa8fd50019a763561abc6621bb224417f" target="_top" xlink:title="lcd_swr">
<polygon fill="none" stroke="black" points="496,-97.1848 496,-115.185 543,-115.185 543,-97.1848 496,-97.1848"/>
<text text-anchor="middle" x="519.5" y="-103.985" font-family="Calibri" font-size="9.00">lcd_swr</text>
</a>
</g>
</g>
<!-- Node360&#45;&gt;Node368 -->
<g id="edge39" class="edge"><title>Node360&#45;&gt;Node368</title>
<path fill="none" stroke="midnightblue" d="M327.794,-154.146C341.144,-146.643 361.261,-136.253 380,-130.185 415.203,-118.786 457.293,-112.47 485.762,-109.216"/>
<polygon fill="midnightblue" stroke="midnightblue" points="486.397,-112.667 495.963,-108.114 485.645,-105.708 486.397,-112.667"/>
</g>
<!-- Node369 -->
<g id="node29" class="node"><title>Node369</title>
<g id="a_node29"><a xlink:href="main_8c.html#a4ae0d4fa97fc0ca3611813fee4f9af7c" target="_top" xlink:title="show_pwr">
<polygon fill="none" stroke="black" points="386.5,-266.185 386.5,-284.185 444.5,-284.185 444.5,-266.185 386.5,-266.185"/>
<text text-anchor="middle" x="415.5" y="-272.985" font-family="Calibri" font-size="9.00">show_pwr</text>
</a>
</g>
</g>
<!-- Node360&#45;&gt;Node369 -->
<g id="edge41" class="edge"><title>Node360&#45;&gt;Node369</title>
<path fill="none" stroke="midnightblue" d="M320.761,-172.469C333.433,-186.686 358.464,-214.676 380,-238.185 386.174,-244.924 393.029,-252.298 398.992,-258.677"/>
<polygon fill="midnightblue" stroke="midnightblue" points="396.557,-261.198 405.948,-266.103 401.666,-256.412 396.557,-261.198"/>
</g>
<!-- Node362 -->
<g id="node22" class="node"><title>Node362</title>
<g id="a_node22"><a xlink:href="main_8h.html#ab19e6e081315a9a200394b74d10de395" target="_top" xlink:title="correction">
<polygon fill="none" stroke="black" points="491,-247.185 491,-265.185 548,-265.185 548,-247.185 491,-247.185"/>
<text text-anchor="middle" x="519.5" y="-253.985" font-family="Calibri" font-size="9.00">correction</text>
</a>
</g>
</g>
<!-- Node361&#45;&gt;Node362 -->
<g id="edge27" class="edge"><title>Node361&#45;&gt;Node362</title>
<path fill="none" stroke="midnightblue" d="M440.157,-227.766C453.163,-232.484 469.538,-238.424 483.95,-243.652"/>
<polygon fill="midnightblue" stroke="midnightblue" points="482.954,-247.014 493.548,-247.134 485.341,-240.433 482.954,-247.014"/>
</g>
<!-- Node363 -->
<g id="node23" class="node"><title>Node363</title>
<g id="a_node23"><a xlink:href="main_8h.html#acfd46f8711e9c1c20fffdfc8bdaa0ddd" target="_top" xlink:title="get_forward">
<polygon fill="none" stroke="black" points="487,-210.185 487,-228.185 552,-228.185 552,-210.185 487,-210.185"/>
<text text-anchor="middle" x="519.5" y="-216.985" font-family="Calibri" font-size="9.00">get_forward</text>
</a>
</g>
</g>
<!-- Node361&#45;&gt;Node363 -->
<g id="edge28" class="edge"><title>Node361&#45;&gt;Node363</title>
<path fill="none" stroke="midnightblue" d="M440.157,-219.185C451.008,-219.185 464.203,-219.185 476.647,-219.185"/>
<polygon fill="midnightblue" stroke="midnightblue" points="476.855,-222.685 486.855,-219.185 476.855,-215.685 476.855,-222.685"/>
</g>
<!-- Node364 -->
<g id="node24" class="node"><title>Node364</title>
<g id="a_node24"><a xlink:href="main_8h.html#aa6b9a2b3d88f578ba6a9fefd911eae75" target="_top" xlink:title="get_reverse">
<polygon fill="none" stroke="black" points="487.5,-173.185 487.5,-191.185 551.5,-191.185 551.5,-173.185 487.5,-173.185"/>
<text text-anchor="middle" x="519.5" y="-179.985" font-family="Calibri" font-size="9.00">get_reverse</text>
</a>
</g>
</g>
<!-- Node361&#45;&gt;Node364 -->
<g id="edge29" class="edge"><title>Node361&#45;&gt;Node364</title>
<path fill="none" stroke="midnightblue" d="M440.157,-210.603C453.163,-205.885 469.538,-199.946 483.95,-194.718"/>
<polygon fill="midnightblue" stroke="midnightblue" points="485.341,-197.936 493.548,-191.236 482.954,-191.356 485.341,-197.936"/>
</g>
<!-- Node365&#45;&gt;Node359 -->
<g id="edge37" class="edge"><title>Node365&#45;&gt;Node359</title>
<path fill="none" stroke="midnightblue" d="M740.513,-248.881C754.362,-244.092 772.045,-237.978 787.526,-232.624"/>
<polygon fill="midnightblue" stroke="midnightblue" points="789.012,-235.814 797.32,-229.238 786.725,-229.198 789.012,-235.814"/>
</g>
<!-- Node366 -->
<g id="node26" class="node"><title>Node366</title>
<g id="a_node26"><a xlink:href="oled__control_8c.html#ad141ed038278a6fcad6c307932f01ec8" target="_top" xlink:title="send_command">
<polygon fill="none" stroke="black" points="784,-248.185 784,-266.185 865,-266.185 865,-248.185 784,-248.185"/>
<text text-anchor="middle" x="824.5" y="-254.985" font-family="Calibri" font-size="9.00">send_command</text>
</a>
</g>
</g>
<!-- Node365&#45;&gt;Node366 -->
<g id="edge33" class="edge"><title>Node365&#45;&gt;Node366</title>
<path fill="none" stroke="midnightblue" d="M740.513,-257.185C750.33,-257.185 762.073,-257.185 773.594,-257.185"/>
<polygon fill="midnightblue" stroke="midnightblue" points="773.606,-260.685 783.606,-257.185 773.606,-253.685 773.606,-260.685"/>
</g>
<!-- Node366&#45;&gt;Node355 -->
<g id="edge34" class="edge"><title>Node366&#45;&gt;Node355</title>
<path fill="none" stroke="midnightblue" d="M841.143,-266.362C859.949,-277.395 891.724,-296.036 913.726,-308.944"/>
<polygon fill="midnightblue" stroke="midnightblue" points="912.094,-312.044 922.49,-314.086 915.636,-306.007 912.094,-312.044"/>
</g>
<!-- Node366&#45;&gt;Node356 -->
<g id="edge35" class="edge"><title>Node366&#45;&gt;Node356</title>
<path fill="none" stroke="midnightblue" d="M865.163,-260.71C873.439,-261.446 882.24,-262.228 890.758,-262.985"/>
<polygon fill="midnightblue" stroke="midnightblue" points="890.683,-266.493 900.954,-263.892 891.303,-259.52 890.683,-266.493"/>
</g>
<!-- Node366&#45;&gt;Node358 -->
<g id="edge36" class="edge"><title>Node366&#45;&gt;Node358</title>
<path fill="none" stroke="midnightblue" d="M853.021,-248.134C867.321,-243.43 885.009,-237.613 900.538,-232.506"/>
<polygon fill="midnightblue" stroke="midnightblue" points="901.968,-235.72 910.374,-229.271 899.781,-229.07 901.968,-235.72"/>
</g>
<!-- Node368&#45;&gt;Node353 -->
<g id="edge40" class="edge"><title>Node368&#45;&gt;Node353</title>
<path fill="none" stroke="midnightblue" d="M534.082,-115.193C539.919,-119.393 546.621,-124.675 552,-130.185 573.682,-152.393 593.849,-182.307 605.674,-201.171"/>
<polygon fill="midnightblue" stroke="midnightblue" points="602.841,-203.245 611.061,-209.929 608.803,-199.578 602.841,-203.245"/>
</g>
<!-- Node369&#45;&gt;Node352 -->
<g id="edge43" class="edge"><title>Node369&#45;&gt;Node352</title>
<path fill="none" stroke="midnightblue" d="M432.888,-284.343C449.171,-293.442 474.367,-307.522 493.216,-318.056"/>
<polygon fill="midnightblue" stroke="midnightblue" points="491.716,-321.227 502.153,-323.049 495.131,-315.116 491.716,-321.227"/>
</g>
<!-- Node369&#45;&gt;Node353 -->
<g id="edge42" class="edge"><title>Node369&#45;&gt;Node353</title>
<path fill="none" stroke="midnightblue" d="M444.762,-280.782C472.901,-285.083 516.851,-288.314 552,-275.185 572.708,-267.45 591.169,-249.736 602.978,-236.287"/>
<polygon fill="midnightblue" stroke="midnightblue" points="605.688,-238.502 609.433,-228.591 600.325,-234.004 605.688,-238.502"/>
</g>
</g>
</svg>
        <g id="navigator" transform="translate(0 0)" fill="#404254">
                <rect fill="#f2f5e9" fill-opacity="0.5" stroke="#606060" stroke-width=".5" x="0" y="0" width="60" height="60"/>
                <use id="zoomplus" xlink:href="#zoomPlus" x="17" y="9" onmousedown="handleZoom(evt,'in')"/>
                <use id="zoomminus" xlink:href="#zoomMin" x="42" y="9" onmousedown="handleZoom(evt,'out')"/>
                <use id="reset" xlink:href="#resetDef" x="30" y="36" onmousedown="handleReset()"/>
                <g id="arrowUp" xlink:href="#dirArrow" transform="translate(30 24)" onmousedown="handlePan(0,-1)">
                  <use xlink:href="#rim" fill="#404040">
                        <set attributeName="fill" to="#808080" begin="arrowUp.mouseover" end="arrowUp.mouseout"/>
                  </use>
                  <path fill="none" stroke="white" stroke-width="1.5" d="M0,-3.0v7 M-2.5,-0.5L0,-3.0L2.5,-0.5"/>
                </g>
                <g id="arrowRight" xlink:href="#dirArrow" transform="rotate(90) translate(36 -43)" onmousedown="handlePan(1,0)">
                  <use xlink:href="#rim" fill="#404040">
                        <set attributeName="fill" to="#808080" begin="arrowRight.mouseover" end="arrowRight.mouseout"/>
                  </use>
                  <path fill="none" stroke="white" stroke-width="1.5" d="M0,-3.0v7 M-2.5,-0.5L0,-3.0L2.5,-0.5"/>
                </g>
                <g id="arrowDown" xlink:href="#dirArrow" transform="rotate(180) translate(-30 -48)" onmousedown="handlePan(0,1)">
                  <use xlink:href="#rim" fill="#404040">
                        <set attributeName="fill" to="#808080" begin="arrowDown.mouseover" end="arrowDown.mouseout"/>
                  </use>
                  <path fill="none" stroke="white" stroke-width="1.5" d="M0,-3.0v7 M-2.5,-0.5L0,-3.0L2.5,-0.5"/>
                </g>
                <g id="arrowLeft" xlink:href="#dirArrow" transform="rotate(270) translate(-36 17)" onmousedown="handlePan(-1,0)">
                  <use xlink:href="#rim" fill="#404040">
                        <set attributeName="fill" to="#808080" begin="arrowLeft.mouseover" end="arrowLeft.mouseout"/>
                  </use>
                  <path fill="none" stroke="white" stroke-width="1.5" d="M0,-3.0v7 M-2.5,-0.5L0,-3.0L2.5,-0.5"/>
                </g>
        </g>
        <svg viewBox="0 0 15 15" width="100%" height="30px" preserveAspectRatio="xMaxYMin meet">
         <g id="arrow_out" transform="scale(0.3 0.3)">
          <a xlink:href="main__main_8h_ab518a3d2c723f12d3af3024a195606ce_cgraph_org.svg" target="_base">
           <rect id="button" ry="5" rx="5" y="6" x="6" height="38" width="38"
                fill="#f2f5e9" fill-opacity="0.5" stroke="#606060" stroke-width="1.0"/>
           <path id="arrow"
             d="M 11.500037,31.436501 C 11.940474,20.09759 22.043105,11.32322 32.158766,21.979434 L 37.068811,17.246167 C 37.068811,17.246167 37.088388,32 37.088388,32 L 22.160133,31.978069 C 22.160133,31.978069 26.997745,27.140456 26.997745,27.140456 C 18.528582,18.264221 13.291696,25.230495 11.500037,31.436501 z"
             style="fill:#404040;"/>
          </a>
         </g>
        </svg>
</svg>
