<?xml version="1.0" encoding="UTF-8" standalone="no"?>
<!DOCTYPE svg PUBLIC "-//W3C//DTD SVG 1.1//EN"
 "http://www.w3.org/Graphics/SVG/1.1/DTD/svg11.dtd">
<!-- Generated by graphviz version 2.38.0 (20140413.2041)
 -->
<!-- Title: get_swr Pages: 1 -->
<!--zoomable 195 -->
<svg id="main" version="1.1" xmlns="http://www.w3.org/2000/svg" xmlns:xlink="http://www.w3.org/1999/xlink" xml:space="preserve" onload="init(evt)">
<style type="text/css"><![CDATA[
.edge:hover path { stroke: red; }
.edge:hover polygon { stroke: red; fill: red; }
]]></style>
<script type="text/javascript"><![CDATA[
var edges = document.getElementsByTagName('g');
if (edges && edges.length) {
  for (var i=0;i<edges.length;i++) {
    if (edges[i].id.substr(0,4)=='edge') {
      edges[i].setAttribute('class','edge');
    }
  }
}
]]></script>
        <defs>
                <circle id="rim" cx="0" cy="0" r="7"/>
                <circle id="rim2" cx="0" cy="0" r="3.5"/>
                <g id="zoomPlus">
                        <use xlink:href="#rim" fill="#404040">
                                <set attributeName="fill" to="#808080" begin="zoomplus.mouseover" end="zoomplus.mouseout"/>
                        </use>
                        <path d="M-4,0h8M0,-4v8" fill="none" stroke="white" stroke-width="1.5" pointer-events="none"/>
                </g>
                <g id="zoomMin">
                        <use xlink:href="#rim" fill="#404040">
                                <set attributeName="fill" to="#808080" begin="zoomminus.mouseover" end="zoomminus.mouseout"/>
                        </use>
                        <path d="M-4,0h8" fill="none" stroke="white" stroke-width="1.5" pointer-events="none"/>
                </g>
                <g id="dirArrow">
                        <path fill="none" stroke="white" stroke-width="1.5" d="M0,-3.0v7 M-2.5,-0.5L0,-3.0L2.5,-0.5"/>
                </g>
               <g id="resetDef">
                       <use xlink:href="#rim2" fill="#404040">
                               <set attributeName="fill" to="#808080" begin="reset.mouseover" end="reset.mouseout"/>
                       </use>
               </g>
        </defs>

<script type="text/javascript">
var viewWidth = 685;
var viewHeight = 195;
var sectionId = 'dynsection-15';
</script>
<script xlink:href="svgpan.js"/>
<svg id="graph" class="graph">
<g id="viewport">
<title>get_swr</title>
<!-- Node195 -->
<g id="node1" class="node"><title>Node195</title>
<polygon fill="#bfbfbf" stroke="black" points="0,-95.5 0,-113.5 48,-113.5 48,-95.5 0,-95.5"/>
<text text-anchor="middle" x="24" y="-102.3" font-family="Calibri" font-size="9.00">get_swr</text>
</g>
<!-- Node196 -->
<g id="node2" class="node"><title>Node196</title>
<g id="a_node2"><a xlink:href="main_8h.html#a740ef1b33bb02cd952ad7d8708999472" target="_top" xlink:title="coarse_cap">
<polygon fill="none" stroke="black" points="84,-152.5 84,-170.5 146,-170.5 146,-152.5 84,-152.5"/>
<text text-anchor="middle" x="115" y="-159.3" font-family="Calibri" font-size="9.00">coarse_cap</text>
</a>
</g>
</g>
<!-- Node195&#45;&gt;Node196 -->
<g id="edge1" class="edge"><title>Node195&#45;&gt;Node196</title>
<path fill="none" stroke="midnightblue" d="M47.7818,-119.091C64.1589,-129.579 85.7356,-143.398 99.7361,-152.365"/>
<polygon fill="midnightblue" stroke="midnightblue" points="49.608,-116.104 39.2994,-113.658 45.8328,-121.999 49.608,-116.104"/>
</g>
<!-- Node197 -->
<g id="node3" class="node"><title>Node197</title>
<g id="a_node3"><a xlink:href="main_8h.html#a5c7c60c7d70cf76cc52e87722bb0f614" target="_top" xlink:title="coarse_tune">
<polygon fill="none" stroke="black" points="182,-114.5 182,-132.5 249,-132.5 249,-114.5 182,-114.5"/>
<text text-anchor="middle" x="215.5" y="-121.3" font-family="Calibri" font-size="9.00">coarse_tune</text>
</a>
</g>
</g>
<!-- Node195&#45;&gt;Node197 -->
<g id="edge8" class="edge"><title>Node195&#45;&gt;Node197</title>
<path fill="none" stroke="midnightblue" d="M58.3682,-107.846C93.1599,-111.334 147.337,-116.766 181.856,-120.227"/>
<polygon fill="midnightblue" stroke="midnightblue" points="58.5357,-104.345 48.2364,-106.83 57.8373,-111.31 58.5357,-104.345"/>
</g>
<!-- Node198 -->
<g id="node4" class="node"><title>Node198</title>
<g id="a_node4"><a xlink:href="main_8h.html#a454a7687c8039514766571b23516ca9c" target="_top" xlink:title="sub_tune">
<polygon fill="none" stroke="black" points="285,-76.5 285,-94.5 340,-94.5 340,-76.5 285,-76.5"/>
<text text-anchor="middle" x="312.5" y="-83.3" font-family="Calibri" font-size="9.00">sub_tune</text>
</a>
</g>
</g>
<!-- Node195&#45;&gt;Node198 -->
<g id="edge15" class="edge"><title>Node195&#45;&gt;Node198</title>
<path fill="none" stroke="midnightblue" d="M58.4688,-102.28C115.975,-98.4668 232.402,-90.7456 284.838,-87.2682"/>
<polygon fill="midnightblue" stroke="midnightblue" points="58.1919,-98.791 48.4455,-102.945 58.6552,-105.776 58.1919,-98.791"/>
</g>
<!-- Node199 -->
<g id="node5" class="node"><title>Node199</title>
<g id="a_node5"><a xlink:href="main_8h.html#a1849f2e5bd63d11a7b9549470e287d17" target="_top" xlink:title="tune">
<polygon fill="none" stroke="black" points="376,-57.5 376,-75.5 411,-75.5 411,-57.5 376,-57.5"/>
<text text-anchor="middle" x="393.5" y="-64.3" font-family="Calibri" font-size="9.00">tune</text>
</a>
</g>
</g>
<!-- Node195&#45;&gt;Node199 -->
<g id="edge16" class="edge"><title>Node195&#45;&gt;Node199</title>
<path fill="none" stroke="midnightblue" d="M33.1925,-122.902C42.5258,-141.327 59.697,-168.6 84,-180.5 108.748,-192.618 118.894,-185.46 146,-180.5 237.25,-163.803 258.802,-148.36 340,-103.5 354.836,-95.3037 370.562,-83.7966 380.892,-75.7997"/>
<polygon fill="midnightblue" stroke="midnightblue" points="36.2821,-121.25 28.8181,-113.731 29.964,-124.263 36.2821,-121.25"/>
</g>
<!-- Node203 -->
<g id="node9" class="node"><title>Node203</title>
<g id="a_node9"><a xlink:href="main_8h.html#ab518a3d2c723f12d3af3024a195606ce" target="_top" xlink:title="sharp_cap">
<polygon fill="none" stroke="black" points="186,-38.5 186,-56.5 245,-56.5 245,-38.5 186,-38.5"/>
<text text-anchor="middle" x="215.5" y="-45.3" font-family="Calibri" font-size="9.00">sharp_cap</text>
</a>
</g>
</g>
<!-- Node195&#45;&gt;Node203 -->
<g id="edge9" class="edge"><title>Node195&#45;&gt;Node203</title>
<path fill="none" stroke="midnightblue" d="M47.1406,-89.8308C57.8739,-83.3265 71.1905,-76.1167 84,-71.5 117.808,-59.3152 158.872,-53.0685 185.795,-50.0475"/>
<polygon fill="midnightblue" stroke="midnightblue" points="45.062,-87.003 38.451,-95.2822 48.782,-92.9327 45.062,-87.003"/>
</g>
<!-- Node204 -->
<g id="node10" class="node"><title>Node204</title>
<g id="a_node10"><a xlink:href="main_8h.html#a72210b3ed1d5691c5bbda8c7f1e97197" target="_top" xlink:title="sharp_ind">
<polygon fill="none" stroke="black" points="186.5,-0.5 186.5,-18.5 244.5,-18.5 244.5,-0.5 186.5,-0.5"/>
<text text-anchor="middle" x="215.5" y="-7.3" font-family="Calibri" font-size="9.00">sharp_ind</text>
</a>
</g>
</g>
<!-- Node195&#45;&gt;Node204 -->
<g id="edge12" class="edge"><title>Node195&#45;&gt;Node204</title>
<path fill="none" stroke="midnightblue" d="M40.5315,-87.6112C51.691,-76.3315 67.6038,-61.8956 84,-52.5 116.805,-33.7015 159.013,-21.6974 186.406,-15.2805"/>
<polygon fill="midnightblue" stroke="midnightblue" points="37.6992,-85.5081 33.3068,-95.1496 42.753,-90.3516 37.6992,-85.5081"/>
</g>
<!-- Node196&#45;&gt;Node197 -->
<g id="edge2" class="edge"><title>Node196&#45;&gt;Node197</title>
<path fill="none" stroke="midnightblue" d="M148.959,-148.785C162.728,-143.473 178.411,-137.423 190.983,-132.573"/>
<polygon fill="midnightblue" stroke="midnightblue" points="147.413,-145.63 139.343,-152.495 149.933,-152.161 147.413,-145.63"/>
</g>
<!-- Node197&#45;&gt;Node198 -->
<g id="edge3" class="edge"><title>Node197&#45;&gt;Node198</title>
<path fill="none" stroke="midnightblue" d="M248.675,-110.63C261.861,-105.356 276.811,-99.3756 288.819,-94.5725"/>
<polygon fill="midnightblue" stroke="midnightblue" points="246.999,-107.531 239.014,-114.495 249.598,-114.03 246.999,-107.531"/>
</g>
<!-- Node198&#45;&gt;Node199 -->
<g id="edge4" class="edge"><title>Node198&#45;&gt;Node199</title>
<path fill="none" stroke="midnightblue" d="M350.222,-76.6681C359.22,-74.5041 368.411,-72.2936 375.915,-70.4888"/>
<polygon fill="midnightblue" stroke="midnightblue" points="349.15,-73.326 340.246,-79.0675 350.787,-80.132 349.15,-73.326"/>
</g>
<!-- Node200 -->
<g id="node6" class="node"><title>Node200</title>
<g id="a_node6"><a xlink:href="main__main_8h.html#ae9b379f911db06ddd04a15d876ac0732" target="_top" xlink:title="btn_push">
<polygon fill="none" stroke="black" points="447,-57.5 447,-75.5 502,-75.5 502,-57.5 447,-57.5"/>
<text text-anchor="middle" x="474.5" y="-64.3" font-family="Calibri" font-size="9.00">btn_push</text>
</a>
</g>
</g>
<!-- Node199&#45;&gt;Node200 -->
<g id="edge5" class="edge"><title>Node199&#45;&gt;Node200</title>
<path fill="none" stroke="midnightblue" d="M421.432,-66.5C429.633,-66.5 438.64,-66.5 446.823,-66.5"/>
<polygon fill="midnightblue" stroke="midnightblue" points="421.254,-63.0001 411.254,-66.5 421.254,-70.0001 421.254,-63.0001"/>
</g>
<!-- Node201 -->
<g id="node7" class="node"><title>Node201</title>
<g id="a_node7"><a xlink:href="main__main_8h.html#a1c9e5d54d8cf7f3d041aa2e0b330b3dd" target="_top" xlink:title="button_proc">
<polygon fill="none" stroke="black" points="538,-57.5 538,-75.5 603,-75.5 603,-57.5 538,-57.5"/>
<text text-anchor="middle" x="570.5" y="-64.3" font-family="Calibri" font-size="9.00">button_proc</text>
</a>
</g>
</g>
<!-- Node200&#45;&gt;Node201 -->
<g id="edge6" class="edge"><title>Node200&#45;&gt;Node201</title>
<path fill="none" stroke="midnightblue" d="M512.455,-66.5C520.817,-66.5 529.624,-66.5 537.75,-66.5"/>
<polygon fill="midnightblue" stroke="midnightblue" points="512.185,-63.0001 502.185,-66.5 512.185,-70.0001 512.185,-63.0001"/>
</g>
<!-- Node202 -->
<g id="node8" class="node"><title>Node202</title>
<g id="a_node8"><a xlink:href="main_8c.html#acdef7a1fd863a6d3770c1268cb06add3" target="_top" xlink:title="main">
<polygon fill="none" stroke="black" points="639,-57.5 639,-75.5 677,-75.5 677,-57.5 639,-57.5"/>
<text text-anchor="middle" x="658" y="-64.3" font-family="Calibri" font-size="9.00">main</text>
</a>
</g>
</g>
<!-- Node201&#45;&gt;Node202 -->
<g id="edge7" class="edge"><title>Node201&#45;&gt;Node202</title>
<path fill="none" stroke="midnightblue" d="M613.342,-66.5C622.298,-66.5 631.307,-66.5 638.796,-66.5"/>
<polygon fill="midnightblue" stroke="midnightblue" points="613.337,-63.0001 603.337,-66.5 613.337,-70.0001 613.337,-63.0001"/>
</g>
<!-- Node203&#45;&gt;Node198 -->
<g id="edge10" class="edge"><title>Node203&#45;&gt;Node198</title>
<path fill="none" stroke="midnightblue" d="M248.675,-60.37C261.861,-65.6443 276.811,-71.6244 288.819,-76.4275"/>
<polygon fill="midnightblue" stroke="midnightblue" points="249.598,-56.9698 239.014,-56.5055 246.999,-63.4691 249.598,-56.9698"/>
</g>
<!-- Node203&#45;&gt;Node199 -->
<g id="edge11" class="edge"><title>Node203&#45;&gt;Node199</title>
<path fill="none" stroke="midnightblue" d="M255.255,-51.6838C292.806,-55.7376 348.001,-61.6961 375.552,-64.6704"/>
<polygon fill="midnightblue" stroke="midnightblue" points="255.487,-48.1886 245.169,-50.595 254.736,-55.1481 255.487,-48.1886"/>
</g>
<!-- Node204&#45;&gt;Node198 -->
<g id="edge13" class="edge"><title>Node204&#45;&gt;Node198</title>
<path fill="none" stroke="midnightblue" d="M242.327,-23.9172C244.625,-25.4029 246.881,-26.9412 249,-28.5 269.584,-43.6413 291.06,-64.5325 302.706,-76.3624"/>
<polygon fill="midnightblue" stroke="midnightblue" points="243.822,-20.7296 233.461,-18.5154 240.18,-26.7075 243.822,-20.7296"/>
</g>
<!-- Node204&#45;&gt;Node199 -->
<g id="edge14" class="edge"><title>Node204&#45;&gt;Node199</title>
<path fill="none" stroke="midnightblue" d="M254.015,-21.6497C291.722,-33.8617 348.117,-52.1261 375.864,-61.1123"/>
<polygon fill="midnightblue" stroke="midnightblue" points="254.98,-18.2832 244.388,-18.5318 252.823,-24.9427 254.98,-18.2832"/>
</g>
</g>
</svg>
        <g id="navigator" transform="translate(0 0)" fill="#404254">
                <rect fill="#f2f5e9" fill-opacity="0.5" stroke="#606060" stroke-width=".5" x="0" y="0" width="60" height="60"/>
                <use id="zoomplus" xlink:href="#zoomPlus" x="17" y="9" onmousedown="handleZoom(evt,'in')"/>
                <use id="zoomminus" xlink:href="#zoomMin" x="42" y="9" onmousedown="handleZoom(evt,'out')"/>
                <use id="reset" xlink:href="#resetDef" x="30" y="36" onmousedown="handleReset()"/>
                <g id="arrowUp" xlink:href="#dirArrow" transform="translate(30 24)" onmousedown="handlePan(0,-1)">
                  <use xlink:href="#rim" fill="#404040">
                        <set attributeName="fill" to="#808080" begin="arrowUp.mouseover" end="arrowUp.mouseout"/>
                  </use>
                  <path fill="none" stroke="white" stroke-width="1.5" d="M0,-3.0v7 M-2.5,-0.5L0,-3.0L2.5,-0.5"/>
                </g>
                <g id="arrowRight" xlink:href="#dirArrow" transform="rotate(90) translate(36 -43)" onmousedown="handlePan(1,0)">
                  <use xlink:href="#rim" fill="#404040">
                        <set attributeName="fill" to="#808080" begin="arrowRight.mouseover" end="arrowRight.mouseout"/>
                  </use>
                  <path fill="none" stroke="white" stroke-width="1.5" d="M0,-3.0v7 M-2.5,-0.5L0,-3.0L2.5,-0.5"/>
                </g>
                <g id="arrowDown" xlink:href="#dirArrow" transform="rotate(180) translate(-30 -48)" onmousedown="handlePan(0,1)">
                  <use xlink:href="#rim" fill="#404040">
                        <set attributeName="fill" to="#808080" begin="arrowDown.mouseover" end="arrowDown.mouseout"/>
                  </use>
                  <path fill="none" stroke="white" stroke-width="1.5" d="M0,-3.0v7 M-2.5,-0.5L0,-3.0L2.5,-0.5"/>
                </g>
                <g id="arrowLeft" xlink:href="#dirArrow" transform="rotate(270) translate(-36 17)" onmousedown="handlePan(-1,0)">
                  <use xlink:href="#rim" fill="#404040">
                        <set attributeName="fill" to="#808080" begin="arrowLeft.mouseover" end="arrowLeft.mouseout"/>
                  </use>
                  <path fill="none" stroke="white" stroke-width="1.5" d="M0,-3.0v7 M-2.5,-0.5L0,-3.0L2.5,-0.5"/>
                </g>
        </g>
        <svg viewBox="0 0 15 15" width="100%" height="30px" preserveAspectRatio="xMaxYMin meet">
         <g id="arrow_out" transform="scale(0.3 0.3)">
          <a xlink:href="main_8h_a6c26e075660bdd7a54df984ec3fc7ff4_icgraph_org.svg" target="_base">
           <rect id="button" ry="5" rx="5" y="6" x="6" height="38" width="38"
                fill="#f2f5e9" fill-opacity="0.5" stroke="#606060" stroke-width="1.0"/>
           <path id="arrow"
             d="M 11.500037,31.436501 C 11.940474,20.09759 22.043105,11.32322 32.158766,21.979434 L 37.068811,17.246167 C 37.068811,17.246167 37.088388,32 37.088388,32 L 22.160133,31.978069 C 22.160133,31.978069 26.997745,27.140456 26.997745,27.140456 C 18.528582,18.264221 13.291696,25.230495 11.500037,31.436501 z"
             style="fill:#404040;"/>
          </a>
         </g>
        </svg>
</svg>
