<?xml version="1.0" encoding="UTF-8" standalone="no"?>
<!DOCTYPE svg PUBLIC "-//W3C//DTD SVG 1.1//EN"
 "http://www.w3.org/Graphics/SVG/1.1/DTD/svg11.dtd">
<!-- Generated by graphviz version 2.38.0 (20140413.2041)
 -->
<!-- Title: btn_push Pages: 1 -->
<!--zoomable 666 -->
<svg id="main" version="1.1" xmlns="http://www.w3.org/2000/svg" xmlns:xlink="http://www.w3.org/1999/xlink" xml:space="preserve" onload="init(evt)">
<style type="text/css"><![CDATA[
.edge:hover path { stroke: red; }
.edge:hover polygon { stroke: red; fill: red; }
]]></style>
<script type="text/javascript"><![CDATA[
var edges = document.getElementsByTagName('g');
if (edges && edges.length) {
  for (var i=0;i<edges.length;i++) {
    if (edges[i].id.substr(0,4)=='edge') {
      edges[i].setAttribute('class','edge');
    }
  }
}
]]></script>
        <defs>
                <circle id="rim" cx="0" cy="0" r="7"/>
                <circle id="rim2" cx="0" cy="0" r="3.5"/>
                <g id="zoomPlus">
                        <use xlink:href="#rim" fill="#404040">
                                <set attributeName="fill" to="#808080" begin="zoomplus.mouseover" end="zoomplus.mouseout"/>
                        </use>
                        <path d="M-4,0h8M0,-4v8" fill="none" stroke="white" stroke-width="1.5" pointer-events="none"/>
                </g>
                <g id="zoomMin">
                        <use xlink:href="#rim" fill="#404040">
                                <set attributeName="fill" to="#808080" begin="zoomminus.mouseover" end="zoomminus.mouseout"/>
                        </use>
                        <path d="M-4,0h8" fill="none" stroke="white" stroke-width="1.5" pointer-events="none"/>
                </g>
                <g id="dirArrow">
                        <path fill="none" stroke="white" stroke-width="1.5" d="M0,-3.0v7 M-2.5,-0.5L0,-3.0L2.5,-0.5"/>
                </g>
               <g id="resetDef">
                       <use xlink:href="#rim2" fill="#404040">
                               <set attributeName="fill" to="#808080" begin="reset.mouseover" end="reset.mouseout"/>
                       </use>
               </g>
        </defs>

<script type="text/javascript">
var viewWidth = 1159;
var viewHeight = 666;
var sectionId = 'dynsection-2';
</script>
<script xlink:href="svgpan.js"/>
<svg id="graph" class="graph">
<g id="viewport">
<title>btn_push</title>
<!-- Node5 -->
<g id="node1" class="node"><title>Node5</title>
<polygon fill="#bfbfbf" stroke="black" points="0,-579.5 0,-597.5 55,-597.5 55,-579.5 0,-579.5"/>
<text text-anchor="middle" x="27.5" y="-586.3" font-family="Calibri" font-size="9.00">btn_push</text>
</g>
<!-- Node6 -->
<g id="node2" class="node"><title>Node6</title>
<g id="a_node2"><a xlink:href="main_8c.html#a6911b3f075cdf1d54cb14f17f6e5ef6b" target="_top" xlink:title="lcd_ind">
<polygon fill="none" stroke="black" points="670,-608.5 670,-626.5 717,-626.5 717,-608.5 670,-608.5"/>
<text text-anchor="middle" x="693.5" y="-615.3" font-family="Calibri" font-size="9.00">lcd_ind</text>
</a>
</g>
</g>
<!-- Node5&#45;&gt;Node6 -->
<g id="edge1" class="edge"><title>Node5&#45;&gt;Node6</title>
<path fill="none" stroke="midnightblue" d="M55.1268,-596.348C86.6657,-604.936 140.932,-617.5 188.5,-617.5 188.5,-617.5 188.5,-617.5 490.5,-617.5 550.09,-617.5 619.569,-617.5 659.555,-617.5"/>
<polygon fill="midnightblue" stroke="midnightblue" points="659.78,-621 669.78,-617.5 659.78,-614 659.78,-621"/>
</g>
<!-- Node7 -->
<g id="node3" class="node"><title>Node7</title>
<g id="a_node3"><a xlink:href="oled__control_8c.html#a9d56c6c2e653b24a0caf505492ad818a" target="_top" xlink:title="led_wr_str">
<polygon fill="none" stroke="black" points="762,-532.5 762,-550.5 821,-550.5 821,-532.5 762,-532.5"/>
<text text-anchor="middle" x="791.5" y="-539.3" font-family="Calibri" font-size="9.00">led_wr_str</text>
</a>
</g>
</g>
<!-- Node5&#45;&gt;Node7 -->
<g id="edge34" class="edge"><title>Node5&#45;&gt;Node7</title>
<path fill="none" stroke="midnightblue" d="M40.6248,-597.536C66.4057,-615.824 129.174,-655.5 188.5,-655.5 188.5,-655.5 188.5,-655.5 594,-655.5 653.336,-655.5 675.724,-667.013 726,-635.5 754.535,-617.614 773.633,-581.977 783.232,-560.087"/>
<polygon fill="midnightblue" stroke="midnightblue" points="786.576,-561.161 787.181,-550.584 780.111,-558.475 786.576,-561.161"/>
</g>
<!-- Node14 -->
<g id="node10" class="node"><title>Node14</title>
<g id="a_node10"><a xlink:href="main_8c.html#ae5a14b4884e85f47ad8a4a716f13203a" target="_top" xlink:title="lcd_pwr">
<polygon fill="none" stroke="black" points="363,-494.5 363,-512.5 411,-512.5 411,-494.5 363,-494.5"/>
<text text-anchor="middle" x="387" y="-501.3" font-family="Calibri" font-size="9.00">lcd_pwr</text>
</a>
</g>
</g>
<!-- Node5&#45;&gt;Node14 -->
<g id="edge14" class="edge"><title>Node5&#45;&gt;Node14</title>
<path fill="none" stroke="midnightblue" d="M55.0785,-582.181C119.108,-566.957 281.817,-528.271 352.439,-511.48"/>
<polygon fill="midnightblue" stroke="midnightblue" points="353.642,-514.791 362.561,-509.073 352.022,-507.981 353.642,-514.791"/>
</g>
<!-- Node26 -->
<g id="node22" class="node"><title>Node26</title>
<g id="a_node22"><a xlink:href="main_8h.html#a1849f2e5bd63d11a7b9549470e287d17" target="_top" xlink:title="tune">
<polygon fill="none" stroke="black" points="91,-342.5 91,-360.5 126,-360.5 126,-342.5 91,-342.5"/>
<text text-anchor="middle" x="108.5" y="-349.3" font-family="Calibri" font-size="9.00">tune</text>
</a>
</g>
</g>
<!-- Node5&#45;&gt;Node26 -->
<g id="edge35" class="edge"><title>Node5&#45;&gt;Node26</title>
<path fill="none" stroke="midnightblue" d="M31.5004,-579.499C43.1099,-544.67 85.2301,-418.31 101.254,-370.238"/>
<polygon fill="midnightblue" stroke="midnightblue" points="104.655,-371.104 104.497,-360.51 98.0138,-368.89 104.655,-371.104"/>
</g>
<!-- Node6&#45;&gt;Node7 -->
<g id="edge2" class="edge"><title>Node6&#45;&gt;Node7</title>
<path fill="none" stroke="midnightblue" d="M706.526,-608.46C712.423,-603.995 719.615,-598.505 726,-593.5 741.269,-581.532 758.352,-567.741 771.1,-557.37"/>
<polygon fill="midnightblue" stroke="midnightblue" points="773.619,-559.832 779.157,-550.8 769.195,-554.407 773.619,-559.832"/>
</g>
<!-- Node8 -->
<g id="node4" class="node"><title>Node8</title>
<g id="a_node4"><a xlink:href="oled__control_8c.html#a7c3a2e5f1fed76dc27692132a2574d27" target="_top" xlink:title="oled_wr_str">
<polygon fill="none" stroke="black" points="857,-532.5 857,-550.5 922,-550.5 922,-532.5 857,-532.5"/>
<text text-anchor="middle" x="889.5" y="-539.3" font-family="Calibri" font-size="9.00">oled_wr_str</text>
</a>
</g>
</g>
<!-- Node7&#45;&gt;Node8 -->
<g id="edge3" class="edge"><title>Node7&#45;&gt;Node8</title>
<path fill="none" stroke="midnightblue" d="M821.043,-541.5C829.147,-541.5 838.142,-541.5 846.852,-541.5"/>
<polygon fill="midnightblue" stroke="midnightblue" points="846.877,-545 856.877,-541.5 846.877,-538 846.877,-545"/>
</g>
<!-- Node13 -->
<g id="node9" class="node"><title>Node13</title>
<g id="a_node9"><a xlink:href="oled__control_8c.html#ad25764a33e482f4e9db2701198e02551" target="_top" xlink:title="led_send">
<polygon fill="none" stroke="black" points="971,-466.5 971,-484.5 1026,-484.5 1026,-466.5 971,-466.5"/>
<text text-anchor="middle" x="998.5" y="-473.3" font-family="Calibri" font-size="9.00">led_send</text>
</a>
</g>
</g>
<!-- Node7&#45;&gt;Node13 -->
<g id="edge10" class="edge"><title>Node7&#45;&gt;Node13</title>
<path fill="none" stroke="midnightblue" d="M820.575,-532.461C857.068,-520.712 920.87,-500.171 961.062,-487.231"/>
<polygon fill="midnightblue" stroke="midnightblue" points="962.294,-490.512 970.74,-484.115 960.149,-483.848 962.294,-490.512"/>
</g>
<!-- Node9 -->
<g id="node5" class="node"><title>Node9</title>
<g id="a_node5"><a xlink:href="oled__control_8c.html#ab7f6b5c6c1483f6286f2de5786c028d9" target="_top" xlink:title="Soft_I2C_Start">
<polygon fill="none" stroke="black" points="1077,-532.5 1077,-550.5 1149,-550.5 1149,-532.5 1077,-532.5"/>
<text text-anchor="middle" x="1113" y="-539.3" font-family="Calibri" font-size="9.00">Soft_I2C_Start</text>
</a>
</g>
</g>
<!-- Node8&#45;&gt;Node9 -->
<g id="edge4" class="edge"><title>Node8&#45;&gt;Node9</title>
<path fill="none" stroke="midnightblue" d="M907.116,-550.562C920.434,-557.283 939.834,-565.882 958,-569.5 993.306,-576.532 1003.6,-576.056 1039,-569.5 1054.68,-566.596 1071.34,-560.46 1084.78,-554.671"/>
<polygon fill="midnightblue" stroke="midnightblue" points="1086.25,-557.851 1093.94,-550.567 1083.38,-551.462 1086.25,-557.851"/>
</g>
<!-- Node10 -->
<g id="node6" class="node"><title>Node10</title>
<g id="a_node6"><a xlink:href="oled__control_8c.html#a73610916645f17c19124e697b005f694" target="_top" xlink:title="Soft_I2C_Write">
<polygon fill="none" stroke="black" points="1075,-476.5 1075,-494.5 1151,-494.5 1151,-476.5 1075,-476.5"/>
<text text-anchor="middle" x="1113" y="-483.3" font-family="Calibri" font-size="9.00">Soft_I2C_Write</text>
</a>
</g>
</g>
<!-- Node8&#45;&gt;Node10 -->
<g id="edge5" class="edge"><title>Node8&#45;&gt;Node10</title>
<path fill="none" stroke="midnightblue" d="M922.236,-533.477C959.999,-523.929 1023.34,-507.916 1066.36,-497.04"/>
<polygon fill="midnightblue" stroke="midnightblue" points="1067.45,-500.373 1076.29,-494.529 1065.73,-493.587 1067.45,-500.373"/>
</g>
<!-- Node11 -->
<g id="node7" class="node"><title>Node11</title>
<g id="a_node7"><a xlink:href="oled__control_8c.html#a6df77e8ec83c50ed6a5ddaf54aa3a9c2" target="_top" xlink:title="set_addressing">
<polygon fill="none" stroke="black" points="958.5,-542.5 958.5,-560.5 1038.5,-560.5 1038.5,-542.5 958.5,-542.5"/>
<text text-anchor="middle" x="998.5" y="-549.3" font-family="Calibri" font-size="9.00">set_addressing</text>
</a>
</g>
</g>
<!-- Node8&#45;&gt;Node11 -->
<g id="edge6" class="edge"><title>Node8&#45;&gt;Node11</title>
<path fill="none" stroke="midnightblue" d="M922.025,-544.446C930.177,-545.208 939.154,-546.047 947.985,-546.872"/>
<polygon fill="midnightblue" stroke="midnightblue" points="947.944,-550.384 958.227,-547.83 948.596,-543.414 947.944,-550.384"/>
</g>
<!-- Node12 -->
<g id="node8" class="node"><title>Node12</title>
<g id="a_node8"><a xlink:href="oled__control_8c.html#a16eb842aa672ca44820ae6d5f9933425" target="_top" xlink:title="Soft_I2C_Stop">
<polygon fill="none" stroke="black" points="1077.5,-429.5 1077.5,-447.5 1148.5,-447.5 1148.5,-429.5 1077.5,-429.5"/>
<text text-anchor="middle" x="1113" y="-436.3" font-family="Calibri" font-size="9.00">Soft_I2C_Stop</text>
</a>
</g>
</g>
<!-- Node8&#45;&gt;Node12 -->
<g id="edge9" class="edge"><title>Node8&#45;&gt;Node12</title>
<path fill="none" stroke="midnightblue" d="M894.134,-532.349C904.71,-506.234 936.105,-432.409 958,-419.5 997.116,-396.438 1051.49,-411.984 1084.07,-425.293"/>
<polygon fill="midnightblue" stroke="midnightblue" points="1082.87,-428.587 1093.44,-429.307 1085.62,-422.152 1082.87,-428.587"/>
</g>
<!-- Node11&#45;&gt;Node9 -->
<g id="edge7" class="edge"><title>Node11&#45;&gt;Node9</title>
<path fill="none" stroke="midnightblue" d="M1038.53,-548.031C1047.57,-547.227 1057.26,-546.366 1066.55,-545.54"/>
<polygon fill="midnightblue" stroke="midnightblue" points="1067.15,-549 1076.8,-544.629 1066.53,-542.028 1067.15,-549"/>
</g>
<!-- Node11&#45;&gt;Node10 -->
<g id="edge8" class="edge"><title>Node11&#45;&gt;Node10</title>
<path fill="none" stroke="midnightblue" d="M1015.14,-542.323C1033.95,-531.29 1065.72,-512.649 1087.73,-499.741"/>
<polygon fill="midnightblue" stroke="midnightblue" points="1089.64,-502.678 1096.49,-494.599 1086.09,-496.64 1089.64,-502.678"/>
</g>
<!-- Node13&#45;&gt;Node9 -->
<g id="edge11" class="edge"><title>Node13&#45;&gt;Node9</title>
<path fill="none" stroke="midnightblue" d="M1015.14,-484.677C1033.95,-495.71 1065.72,-514.351 1087.73,-527.259"/>
<polygon fill="midnightblue" stroke="midnightblue" points="1086.09,-530.36 1096.49,-532.401 1089.64,-524.322 1086.09,-530.36"/>
</g>
<!-- Node13&#45;&gt;Node10 -->
<g id="edge12" class="edge"><title>Node13&#45;&gt;Node10</title>
<path fill="none" stroke="midnightblue" d="M1026.16,-477.87C1037.65,-478.891 1051.43,-480.116 1064.56,-481.283"/>
<polygon fill="midnightblue" stroke="midnightblue" points="1064.62,-484.802 1074.89,-482.201 1065.24,-477.83 1064.62,-484.802"/>
</g>
<!-- Node13&#45;&gt;Node12 -->
<g id="edge13" class="edge"><title>Node13&#45;&gt;Node12</title>
<path fill="none" stroke="midnightblue" d="M1026.16,-466.732C1040.69,-461.953 1058.9,-455.964 1074.8,-450.733"/>
<polygon fill="midnightblue" stroke="midnightblue" points="1075.95,-454.041 1084.36,-447.592 1073.76,-447.391 1075.95,-454.041"/>
</g>
<!-- Node14&#45;&gt;Node7 -->
<g id="edge33" class="edge"><title>Node14&#45;&gt;Node7</title>
<path fill="none" stroke="midnightblue" d="M411.075,-509.21C423.684,-512.124 439.618,-515.472 454,-517.5 561.179,-532.616 688.979,-538.415 751.77,-540.471"/>
<polygon fill="midnightblue" stroke="midnightblue" points="751.894,-543.977 761.999,-540.792 752.113,-536.98 751.894,-543.977"/>
</g>
<!-- Node15 -->
<g id="node11" class="node"><title>Node15</title>
<g id="a_node11"><a xlink:href="main_8h.html#ab37ca657b79c6b9176cb63e9d812a182" target="_top" xlink:title="get_pwr">
<polygon fill="none" stroke="black" points="568.5,-361.5 568.5,-379.5 617.5,-379.5 617.5,-361.5 568.5,-361.5"/>
<text text-anchor="middle" x="593" y="-368.3" font-family="Calibri" font-size="9.00">get_pwr</text>
</a>
</g>
</g>
<!-- Node14&#45;&gt;Node15 -->
<g id="edge15" class="edge"><title>Node14&#45;&gt;Node15</title>
<path fill="none" stroke="midnightblue" d="M399.404,-494.392C405.009,-489.911 411.862,-484.427 418,-479.5 434.022,-466.638 437.063,-462.13 454,-450.5 491.329,-424.867 537.272,-399.341 565.596,-384.243"/>
<polygon fill="midnightblue" stroke="midnightblue" points="567.287,-387.308 574.489,-379.537 564.013,-381.121 567.287,-387.308"/>
</g>
<!-- Node19 -->
<g id="node15" class="node"><title>Node19</title>
<g id="a_node15"><a xlink:href="main_8h.html#aecc83cd8bceb4bc24be844732ead2c2c" target="_top" xlink:title="set_ind">
<polygon fill="none" stroke="black" points="466,-228.5 466,-246.5 513,-246.5 513,-228.5 466,-228.5"/>
<text text-anchor="middle" x="489.5" y="-235.3" font-family="Calibri" font-size="9.00">set_ind</text>
</a>
</g>
</g>
<!-- Node14&#45;&gt;Node19 -->
<g id="edge19" class="edge"><title>Node14&#45;&gt;Node19</title>
<path fill="none" stroke="midnightblue" d="M393.363,-494.114C399.772,-482.654 410.56,-462.563 418,-444.5 437.912,-396.154 437.073,-381.97 454,-332.5 463.112,-305.869 474.351,-275.312 481.473,-256.205"/>
<polygon fill="midnightblue" stroke="midnightblue" points="484.829,-257.223 485.055,-246.631 478.273,-254.77 484.829,-257.223"/>
</g>
<!-- Node20 -->
<g id="node16" class="node"><title>Node20</title>
<g id="a_node16"><a xlink:href="main_8h.html#a2a7963b9b09696c6654b96c67900c6ea" target="_top" xlink:title="set_cap">
<polygon fill="none" stroke="black" points="465.5,-152.5 465.5,-170.5 513.5,-170.5 513.5,-152.5 465.5,-152.5"/>
<text text-anchor="middle" x="489.5" y="-159.3" font-family="Calibri" font-size="9.00">set_cap</text>
</a>
</g>
</g>
<!-- Node14&#45;&gt;Node20 -->
<g id="edge20" class="edge"><title>Node14&#45;&gt;Node20</title>
<path fill="none" stroke="midnightblue" d="M393.838,-494.288C400.714,-483 411.963,-463.079 418,-444.5 449.433,-347.768 419.016,-314.005 454,-218.5 459.222,-204.244 468.158,-189.623 475.627,-178.759"/>
<polygon fill="midnightblue" stroke="midnightblue" points="478.484,-180.78 481.442,-170.607 472.785,-176.715 478.484,-180.78"/>
</g>
<!-- Node21 -->
<g id="node17" class="node"><title>Node21</title>
<g id="a_node17"><a xlink:href="oled__control_8c.html#a2c663a2db505aa3f2271f6cf4bae1521" target="_top" xlink:title="dysp_on">
<polygon fill="none" stroke="black" points="864.5,-429.5 864.5,-447.5 914.5,-447.5 914.5,-429.5 864.5,-429.5"/>
<text text-anchor="middle" x="889.5" y="-436.3" font-family="Calibri" font-size="9.00">dysp_on</text>
</a>
</g>
</g>
<!-- Node14&#45;&gt;Node21 -->
<g id="edge21" class="edge"><title>Node14&#45;&gt;Node21</title>
<path fill="none" stroke="midnightblue" d="M408.793,-494.425C440.774,-480.983 504.289,-456.314 561,-446.5 666.735,-428.203 794.504,-432.53 854.397,-436.072"/>
<polygon fill="midnightblue" stroke="midnightblue" points="854.234,-439.569 864.432,-436.697 854.669,-432.582 854.234,-439.569"/>
</g>
<!-- Node23 -->
<g id="node19" class="node"><title>Node23</title>
<g id="a_node19"><a xlink:href="main_8c.html#a593218c5fe00b499d494826fc0aa5279" target="_top" xlink:title="button_delay">
<polygon fill="none" stroke="black" points="454,-379.5 454,-397.5 525,-397.5 525,-379.5 454,-379.5"/>
<text text-anchor="middle" x="489.5" y="-386.3" font-family="Calibri" font-size="9.00">button_delay</text>
</a>
</g>
</g>
<!-- Node14&#45;&gt;Node23 -->
<g id="edge27" class="edge"><title>Node14&#45;&gt;Node23</title>
<path fill="none" stroke="midnightblue" d="M401.561,-494.486C407.105,-490.361 413.304,-485.137 418,-479.5 439.636,-453.527 431.507,-437.734 454,-412.5 456.895,-409.252 460.313,-406.216 463.853,-403.468"/>
<polygon fill="midnightblue" stroke="midnightblue" points="465.993,-406.241 472.147,-397.617 461.958,-400.521 465.993,-406.241"/>
</g>
<!-- Node24 -->
<g id="node20" class="node"><title>Node24</title>
<g id="a_node20"><a xlink:href="main_8c.html#aa8fd50019a763561abc6621bb224417f" target="_top" xlink:title="lcd_swr">
<polygon fill="none" stroke="black" points="569.5,-494.5 569.5,-512.5 616.5,-512.5 616.5,-494.5 569.5,-494.5"/>
<text text-anchor="middle" x="593" y="-501.3" font-family="Calibri" font-size="9.00">lcd_swr</text>
</a>
</g>
</g>
<!-- Node14&#45;&gt;Node24 -->
<g id="edge28" class="edge"><title>Node14&#45;&gt;Node24</title>
<path fill="none" stroke="midnightblue" d="M411.005,-503.5C447.239,-503.5 517.741,-503.5 559.251,-503.5"/>
<polygon fill="midnightblue" stroke="midnightblue" points="559.391,-507 569.391,-503.5 559.39,-500 559.391,-507"/>
</g>
<!-- Node25 -->
<g id="node21" class="node"><title>Node25</title>
<g id="a_node21"><a xlink:href="main_8c.html#a4ae0d4fa97fc0ca3611813fee4f9af7c" target="_top" xlink:title="show_pwr">
<polygon fill="none" stroke="black" points="564,-570.5 564,-588.5 622,-588.5 622,-570.5 564,-570.5"/>
<text text-anchor="middle" x="593" y="-577.3" font-family="Calibri" font-size="9.00">show_pwr</text>
</a>
</g>
</g>
<!-- Node14&#45;&gt;Node25 -->
<g id="edge30" class="edge"><title>Node14&#45;&gt;Node25</title>
<path fill="none" stroke="midnightblue" d="M396.842,-512.904C408.661,-524.851 430.821,-545.156 454,-555.5 485.843,-569.71 525.309,-575.531 553.869,-577.903"/>
<polygon fill="midnightblue" stroke="midnightblue" points="553.636,-581.395 563.863,-578.63 554.143,-574.413 553.636,-581.395"/>
</g>
<!-- Node16 -->
<g id="node12" class="node"><title>Node16</title>
<g id="a_node12"><a xlink:href="main_8h.html#ab19e6e081315a9a200394b74d10de395" target="_top" xlink:title="correction">
<polygon fill="none" stroke="black" points="665,-380.5 665,-398.5 722,-398.5 722,-380.5 665,-380.5"/>
<text text-anchor="middle" x="693.5" y="-387.3" font-family="Calibri" font-size="9.00">correction</text>
</a>
</g>
</g>
<!-- Node15&#45;&gt;Node16 -->
<g id="edge16" class="edge"><title>Node15&#45;&gt;Node16</title>
<path fill="none" stroke="midnightblue" d="M617.593,-375.051C628.709,-377.195 642.245,-379.806 654.736,-382.216"/>
<polygon fill="midnightblue" stroke="midnightblue" points="654.426,-385.72 664.908,-384.178 655.752,-378.847 654.426,-385.72"/>
</g>
<!-- Node17 -->
<g id="node13" class="node"><title>Node17</title>
<g id="a_node13"><a xlink:href="main_8h.html#acfd46f8711e9c1c20fffdfc8bdaa0ddd" target="_top" xlink:title="get_forward">
<polygon fill="none" stroke="black" points="661,-343.5 661,-361.5 726,-361.5 726,-343.5 661,-343.5"/>
<text text-anchor="middle" x="693.5" y="-350.3" font-family="Calibri" font-size="9.00">get_forward</text>
</a>
</g>
</g>
<!-- Node15&#45;&gt;Node17 -->
<g id="edge17" class="edge"><title>Node15&#45;&gt;Node17</title>
<path fill="none" stroke="midnightblue" d="M617.593,-366.189C627.528,-364.373 639.396,-362.204 650.724,-360.134"/>
<polygon fill="midnightblue" stroke="midnightblue" points="651.696,-363.515 660.904,-358.274 650.438,-356.629 651.696,-363.515"/>
</g>
<!-- Node18 -->
<g id="node14" class="node"><title>Node18</title>
<g id="a_node14"><a xlink:href="main_8h.html#aa6b9a2b3d88f578ba6a9fefd911eae75" target="_top" xlink:title="get_reverse">
<polygon fill="none" stroke="black" points="661.5,-306.5 661.5,-324.5 725.5,-324.5 725.5,-306.5 661.5,-306.5"/>
<text text-anchor="middle" x="693.5" y="-313.3" font-family="Calibri" font-size="9.00">get_reverse</text>
</a>
</g>
</g>
<!-- Node15&#45;&gt;Node18 -->
<g id="edge18" class="edge"><title>Node15&#45;&gt;Node18</title>
<path fill="none" stroke="midnightblue" d="M610.265,-361.418C625.807,-352.74 649.458,-339.533 667.414,-329.508"/>
<polygon fill="midnightblue" stroke="midnightblue" points="669.186,-332.527 676.211,-324.596 665.773,-326.415 669.186,-332.527"/>
</g>
<!-- Node21&#45;&gt;Node13 -->
<g id="edge26" class="edge"><title>Node21&#45;&gt;Node13</title>
<path fill="none" stroke="midnightblue" d="M914.513,-446.804C928.362,-451.592 946.045,-457.707 961.526,-463.06"/>
<polygon fill="midnightblue" stroke="midnightblue" points="960.725,-466.487 971.32,-466.447 963.012,-459.871 960.725,-466.487"/>
</g>
<!-- Node22 -->
<g id="node18" class="node"><title>Node22</title>
<g id="a_node18"><a xlink:href="oled__control_8c.html#ad141ed038278a6fcad6c307932f01ec8" target="_top" xlink:title="send_command">
<polygon fill="none" stroke="black" points="958,-429.5 958,-447.5 1039,-447.5 1039,-429.5 958,-429.5"/>
<text text-anchor="middle" x="998.5" y="-436.3" font-family="Calibri" font-size="9.00">send_command</text>
</a>
</g>
</g>
<!-- Node21&#45;&gt;Node22 -->
<g id="edge22" class="edge"><title>Node21&#45;&gt;Node22</title>
<path fill="none" stroke="midnightblue" d="M914.513,-438.5C924.33,-438.5 936.073,-438.5 947.594,-438.5"/>
<polygon fill="midnightblue" stroke="midnightblue" points="947.606,-442 957.606,-438.5 947.606,-435 947.606,-442"/>
</g>
<!-- Node22&#45;&gt;Node9 -->
<g id="edge23" class="edge"><title>Node22&#45;&gt;Node9</title>
<path fill="none" stroke="midnightblue" d="M1024.39,-447.591C1029.5,-450.057 1034.64,-453.027 1039,-456.5 1059.59,-472.889 1057.79,-483.595 1075,-503.5 1081.41,-510.91 1088.88,-518.723 1095.42,-525.325"/>
<polygon fill="midnightblue" stroke="midnightblue" points="1093,-527.853 1102.56,-532.421 1097.94,-522.889 1093,-527.853"/>
</g>
<!-- Node22&#45;&gt;Node10 -->
<g id="edge24" class="edge"><title>Node22&#45;&gt;Node10</title>
<path fill="none" stroke="midnightblue" d="M1021.19,-447.562C1038.16,-454.649 1061.97,-464.597 1080.95,-472.528"/>
<polygon fill="midnightblue" stroke="midnightblue" points="1079.8,-475.84 1090.38,-476.466 1082.5,-469.381 1079.8,-475.84"/>
</g>
<!-- Node22&#45;&gt;Node12 -->
<g id="edge25" class="edge"><title>Node22&#45;&gt;Node12</title>
<path fill="none" stroke="midnightblue" d="M1039.16,-438.5C1048.17,-438.5 1057.8,-438.5 1067.02,-438.5"/>
<polygon fill="midnightblue" stroke="midnightblue" points="1067.18,-442 1077.18,-438.5 1067.18,-435 1067.18,-442"/>
</g>
<!-- Node24&#45;&gt;Node7 -->
<g id="edge29" class="edge"><title>Node24&#45;&gt;Node7</title>
<path fill="none" stroke="midnightblue" d="M616.937,-507.428C643.303,-511.998 687.853,-519.894 726,-527.5 734.481,-529.191 743.567,-531.102 752.164,-532.955"/>
<polygon fill="midnightblue" stroke="midnightblue" points="751.451,-536.382 761.967,-535.089 752.94,-529.542 751.451,-536.382"/>
</g>
<!-- Node25&#45;&gt;Node6 -->
<g id="edge32" class="edge"><title>Node25&#45;&gt;Node6</title>
<path fill="none" stroke="midnightblue" d="M617.343,-588.505C630.07,-593.415 646.023,-599.57 659.953,-604.944"/>
<polygon fill="midnightblue" stroke="midnightblue" points="659.075,-608.356 669.664,-608.69 661.594,-601.825 659.075,-608.356"/>
</g>
<!-- Node25&#45;&gt;Node7 -->
<g id="edge31" class="edge"><title>Node25&#45;&gt;Node7</title>
<path fill="none" stroke="midnightblue" d="M622.12,-574.672C648.879,-570.01 690.251,-562.628 726,-555.5 734.481,-553.809 743.567,-551.898 752.164,-550.045"/>
<polygon fill="midnightblue" stroke="midnightblue" points="752.94,-553.458 761.967,-547.911 751.451,-546.618 752.94,-553.458"/>
</g>
<!-- Node27 -->
<g id="node23" class="node"><title>Node27</title>
<g id="a_node23"><a xlink:href="main_8h.html#a9dff326a6079fe726285b11ee837ad60" target="_top" xlink:title="atu_reset">
<polygon fill="none" stroke="black" points="258.5,-152.5 258.5,-170.5 314.5,-170.5 314.5,-152.5 258.5,-152.5"/>
<text text-anchor="middle" x="286.5" y="-159.3" font-family="Calibri" font-size="9.00">atu_reset</text>
</a>
</g>
</g>
<!-- Node26&#45;&gt;Node27 -->
<g id="edge36" class="edge"><title>Node26&#45;&gt;Node27</title>
<path fill="none" stroke="midnightblue" d="M111.787,-342.202C117.308,-321.346 133.089,-270.109 162,-237.5 176.303,-221.367 226.752,-192.801 258.575,-175.66"/>
<polygon fill="midnightblue" stroke="midnightblue" points="260.623,-178.535 267.793,-170.734 257.324,-172.361 260.623,-178.535"/>
</g>
<!-- Node28 -->
<g id="node24" class="node"><title>Node28</title>
<g id="a_node24"><a xlink:href="main_8h.html#a6c26e075660bdd7a54df984ec3fc7ff4" target="_top" xlink:title="get_swr">
<polygon fill="none" stroke="black" points="465.5,-342.5 465.5,-360.5 513.5,-360.5 513.5,-342.5 465.5,-342.5"/>
<text text-anchor="middle" x="489.5" y="-349.3" font-family="Calibri" font-size="9.00">get_swr</text>
</a>
</g>
</g>
<!-- Node26&#45;&gt;Node28 -->
<g id="edge39" class="edge"><title>Node26&#45;&gt;Node28</title>
<path fill="none" stroke="midnightblue" d="M117.449,-360.856C126.984,-371.495 143.955,-388.662 162,-398.5 239.801,-440.917 267.835,-435.604 356,-444.5 383.416,-447.266 394.677,-459.175 418,-444.5 449.295,-424.808 428.295,-396.077 454,-369.5 455.057,-368.407 456.194,-367.368 457.39,-366.38"/>
<polygon fill="midnightblue" stroke="midnightblue" points="459.583,-369.122 465.893,-360.611 455.653,-363.33 459.583,-369.122"/>
</g>
<!-- Node31 -->
<g id="node27" class="node"><title>Node31</title>
<g id="a_node27"><a xlink:href="main_8h.html#abf3918c21112474db61609b3462577ee" target="_top" xlink:title="lcd_ind">
<polygon fill="none" stroke="black" points="166,-171.5 166,-189.5 213,-189.5 213,-171.5 166,-171.5"/>
<text text-anchor="middle" x="189.5" y="-178.3" font-family="Calibri" font-size="9.00">lcd_ind</text>
</a>
</g>
</g>
<!-- Node26&#45;&gt;Node31 -->
<g id="edge45" class="edge"><title>Node26&#45;&gt;Node31</title>
<path fill="none" stroke="midnightblue" d="M111.177,-342.18C115.892,-317.819 130.99,-250.92 162,-204.5 163.862,-201.713 166.117,-199.034 168.518,-196.541"/>
<polygon fill="midnightblue" stroke="midnightblue" points="170.945,-199.063 175.904,-189.7 166.189,-193.928 170.945,-199.063"/>
</g>
<!-- Node32 -->
<g id="node28" class="node"><title>Node32</title>
<g id="a_node28"><a xlink:href="main_8h.html#ab518a3d2c723f12d3af3024a195606ce" target="_top" xlink:title="sharp_cap">
<polygon fill="none" stroke="black" points="357.5,-417.5 357.5,-435.5 416.5,-435.5 416.5,-417.5 357.5,-417.5"/>
<text text-anchor="middle" x="387" y="-424.3" font-family="Calibri" font-size="9.00">sharp_cap</text>
</a>
</g>
</g>
<!-- Node26&#45;&gt;Node32 -->
<g id="edge46" class="edge"><title>Node26&#45;&gt;Node32</title>
<path fill="none" stroke="midnightblue" d="M126.118,-360.598C136.248,-365.842 149.593,-372.222 162,-376.5 225.255,-398.309 301.904,-413.02 347.16,-420.561"/>
<polygon fill="midnightblue" stroke="midnightblue" points="346.71,-424.034 357.143,-422.193 347.839,-417.126 346.71,-424.034"/>
</g>
<!-- Node33 -->
<g id="node29" class="node"><title>Node33</title>
<g id="a_node29"><a xlink:href="main_8h.html#a72210b3ed1d5691c5bbda8c7f1e97197" target="_top" xlink:title="sharp_ind">
<polygon fill="none" stroke="black" points="358,-380.5 358,-398.5 416,-398.5 416,-380.5 358,-380.5"/>
<text text-anchor="middle" x="387" y="-387.3" font-family="Calibri" font-size="9.00">sharp_ind</text>
</a>
</g>
</g>
<!-- Node26&#45;&gt;Node33 -->
<g id="edge49" class="edge"><title>Node26&#45;&gt;Node33</title>
<path fill="none" stroke="midnightblue" d="M126.38,-353.82C169.94,-359.806 286.975,-375.891 347.923,-384.267"/>
<polygon fill="midnightblue" stroke="midnightblue" points="347.53,-387.746 357.913,-385.64 348.483,-380.811 347.53,-387.746"/>
</g>
<!-- Node34 -->
<g id="node30" class="node"><title>Node34</title>
<g id="a_node30"><a xlink:href="main_8h.html#a454a7687c8039514766571b23516ca9c" target="_top" xlink:title="sub_tune">
<polygon fill="none" stroke="black" points="162,-247.5 162,-265.5 217,-265.5 217,-247.5 162,-247.5"/>
<text text-anchor="middle" x="189.5" y="-254.3" font-family="Calibri" font-size="9.00">sub_tune</text>
</a>
</g>
</g>
<!-- Node26&#45;&gt;Node34 -->
<g id="edge52" class="edge"><title>Node26&#45;&gt;Node34</title>
<path fill="none" stroke="midnightblue" d="M117.075,-342.391C130.254,-326.543 157.594,-293.665 174.364,-273.499"/>
<polygon fill="midnightblue" stroke="midnightblue" points="177.129,-275.648 180.832,-265.721 171.747,-271.172 177.129,-275.648"/>
</g>
<!-- Node27&#45;&gt;Node19 -->
<g id="edge38" class="edge"><title>Node27&#45;&gt;Node19</title>
<path fill="none" stroke="midnightblue" d="M314.522,-162.914C341.657,-165.139 384.178,-170.852 418,-185.5 438.11,-194.209 457.917,-209.589 471.391,-221.37"/>
<polygon fill="midnightblue" stroke="midnightblue" points="469.138,-224.051 478.908,-228.149 473.826,-218.853 469.138,-224.051"/>
</g>
<!-- Node27&#45;&gt;Node20 -->
<g id="edge37" class="edge"><title>Node27&#45;&gt;Node20</title>
<path fill="none" stroke="midnightblue" d="M295.687,-152.321C307.534,-139.806 330.812,-117.978 356,-109.5 382.116,-100.71 391.824,-100.891 418,-109.5 439.296,-116.504 459.442,-132.683 472.701,-145.149"/>
<polygon fill="midnightblue" stroke="midnightblue" points="470.423,-147.817 480.016,-152.315 475.322,-142.817 470.423,-147.817"/>
</g>
<!-- Node28&#45;&gt;Node15 -->
<g id="edge40" class="edge"><title>Node28&#45;&gt;Node15</title>
<path fill="none" stroke="midnightblue" d="M513.532,-355.811C526.71,-358.278 543.486,-361.419 558.141,-364.162"/>
<polygon fill="midnightblue" stroke="midnightblue" points="557.882,-367.674 568.355,-366.074 559.17,-360.794 557.882,-367.674"/>
</g>
<!-- Node29 -->
<g id="node25" class="node"><title>Node29</title>
<g id="a_node25"><a xlink:href="main_8h.html#a3cfc40ce98a046339c33b0ee86777042" target="_top" xlink:title="show_pwr">
<polygon fill="none" stroke="black" points="564,-456.5 564,-474.5 622,-474.5 622,-456.5 564,-456.5"/>
<text text-anchor="middle" x="593" y="-463.3" font-family="Calibri" font-size="9.00">show_pwr</text>
</a>
</g>
</g>
<!-- Node28&#45;&gt;Node29 -->
<g id="edge41" class="edge"><title>Node28&#45;&gt;Node29</title>
<path fill="none" stroke="midnightblue" d="M511.964,-360.655C516.537,-363.146 521.144,-366.11 525,-369.5 550.711,-392.104 571.593,-426.522 582.871,-447.423"/>
<polygon fill="midnightblue" stroke="midnightblue" points="579.876,-449.249 587.614,-456.486 586.078,-446.003 579.876,-449.249"/>
</g>
<!-- Node30 -->
<g id="node26" class="node"><title>Node30</title>
<g id="a_node26"><a xlink:href="main_8h.html#ad9d02e37f1f201576a9d93fd36fc4768" target="_top" xlink:title="show_reset">
<polygon fill="none" stroke="black" points="561,-324.5 561,-342.5 625,-342.5 625,-324.5 561,-324.5"/>
<text text-anchor="middle" x="593" y="-331.3" font-family="Calibri" font-size="9.00">show_reset</text>
</a>
</g>
</g>
<!-- Node28&#45;&gt;Node30 -->
<g id="edge44" class="edge"><title>Node28&#45;&gt;Node30</title>
<path fill="none" stroke="midnightblue" d="M513.532,-347.416C524.608,-345.451 538.226,-343.036 550.99,-340.773"/>
<polygon fill="midnightblue" stroke="midnightblue" points="551.743,-344.194 560.978,-339.001 550.52,-337.301 551.743,-344.194"/>
</g>
<!-- Node29&#45;&gt;Node6 -->
<g id="edge42" class="edge"><title>Node29&#45;&gt;Node6</title>
<path fill="none" stroke="midnightblue" d="M612.631,-474.629C617.047,-477.38 621.49,-480.696 625,-484.5 656.781,-518.938 677.362,-571.153 686.695,-598.8"/>
<polygon fill="midnightblue" stroke="midnightblue" points="683.399,-599.983 689.817,-608.412 690.056,-597.82 683.399,-599.983"/>
</g>
<!-- Node29&#45;&gt;Node7 -->
<g id="edge43" class="edge"><title>Node29&#45;&gt;Node7</title>
<path fill="none" stroke="midnightblue" d="M622.113,-474.392C649.045,-483.122 690.693,-497.179 726,-511.5 738.428,-516.541 751.918,-522.703 763.333,-528.129"/>
<polygon fill="midnightblue" stroke="midnightblue" points="761.836,-531.293 772.365,-532.472 764.87,-524.984 761.836,-531.293"/>
</g>
<!-- Node32&#45;&gt;Node20 -->
<g id="edge48" class="edge"><title>Node32&#45;&gt;Node20</title>
<path fill="none" stroke="midnightblue" d="M407.42,-417.484C411.454,-414.793 415.296,-411.476 418,-407.5 466.087,-336.792 423.377,-298.339 454,-218.5 459.383,-204.467 468.189,-189.994 475.557,-179.144"/>
<polygon fill="midnightblue" stroke="midnightblue" points="478.647,-180.836 481.54,-170.644 472.922,-176.807 478.647,-180.836"/>
</g>
<!-- Node32&#45;&gt;Node28 -->
<g id="edge47" class="edge"><title>Node32&#45;&gt;Node28</title>
<path fill="none" stroke="midnightblue" d="M404.079,-417.341C408.736,-414.42 413.715,-411.025 418,-407.5 435.965,-392.718 435.433,-383.517 454,-369.5 455.796,-368.144 457.709,-366.836 459.678,-365.587"/>
<polygon fill="midnightblue" stroke="midnightblue" points="461.561,-368.541 468.479,-360.517 458.067,-362.476 461.561,-368.541"/>
</g>
<!-- Node33&#45;&gt;Node19 -->
<g id="edge51" class="edge"><title>Node33&#45;&gt;Node19</title>
<path fill="none" stroke="midnightblue" d="M393.986,-380.447C410.216,-355.899 455.284,-287.738 476.789,-255.212"/>
<polygon fill="midnightblue" stroke="midnightblue" points="479.823,-256.97 482.419,-246.698 473.984,-253.109 479.823,-256.97"/>
</g>
<!-- Node33&#45;&gt;Node28 -->
<g id="edge50" class="edge"><title>Node33&#45;&gt;Node28</title>
<path fill="none" stroke="midnightblue" d="M411.817,-380.495C424.928,-375.537 441.395,-369.311 455.706,-363.9"/>
<polygon fill="midnightblue" stroke="midnightblue" points="457.085,-367.12 465.201,-360.31 454.609,-360.573 457.085,-367.12"/>
</g>
<!-- Node34&#45;&gt;Node19 -->
<g id="edge63" class="edge"><title>Node34&#45;&gt;Node19</title>
<path fill="none" stroke="midnightblue" d="M201.144,-247.481C212.936,-238.133 232.946,-224.118 253,-218.5 323.503,-198.749 410.183,-215.779 456.203,-227.9"/>
<polygon fill="midnightblue" stroke="midnightblue" points="455.354,-231.296 465.922,-230.548 457.194,-224.542 455.354,-231.296"/>
</g>
<!-- Node34&#45;&gt;Node20 -->
<g id="edge62" class="edge"><title>Node34&#45;&gt;Node20</title>
<path fill="none" stroke="midnightblue" d="M194.584,-247.286C205.486,-223.016 235.629,-158.12 253,-142.5 289.887,-109.33 307.36,-109.245 356,-99.5 383.019,-94.0866 392.217,-89.7757 418,-99.5 441.457,-108.347 462.177,-128.945 474.981,-143.979"/>
<polygon fill="midnightblue" stroke="midnightblue" points="472.535,-146.518 481.566,-152.057 477.961,-142.095 472.535,-146.518"/>
</g>
<!-- Node34&#45;&gt;Node27 -->
<g id="edge53" class="edge"><title>Node34&#45;&gt;Node27</title>
<path fill="none" stroke="midnightblue" d="M201.491,-247.344C206.427,-243.034 212.207,-237.705 217,-232.5 234.825,-213.145 234.232,-203.942 253,-185.5 256.152,-182.403 259.721,-179.377 263.31,-176.574"/>
<polygon fill="midnightblue" stroke="midnightblue" points="265.563,-179.262 271.538,-170.512 261.411,-173.626 265.563,-179.262"/>
</g>
<!-- Node34&#45;&gt;Node28 -->
<g id="edge61" class="edge"><title>Node34&#45;&gt;Node28</title>
<path fill="none" stroke="midnightblue" d="M217.192,-259.668C244.396,-263.752 287.146,-272.579 320,-290.5 339.055,-300.894 336.699,-313.571 356,-323.5 387.331,-339.617 427.384,-346.459 455.212,-349.363"/>
<polygon fill="midnightblue" stroke="midnightblue" points="454.954,-352.854 465.235,-350.294 455.602,-345.884 454.954,-352.854"/>
</g>
<!-- Node34&#45;&gt;Node32 -->
<g id="edge65" class="edge"><title>Node34&#45;&gt;Node32</title>
<path fill="none" stroke="midnightblue" d="M197.207,-265.732C208.045,-280.335 230.481,-309.28 253,-330.5 294.597,-369.697 308.933,-375.074 356,-407.5 358.132,-408.969 360.372,-410.467 362.628,-411.946"/>
<polygon fill="midnightblue" stroke="midnightblue" points="360.897,-414.994 371.204,-417.447 364.676,-409.102 360.897,-414.994"/>
</g>
<!-- Node34&#45;&gt;Node33 -->
<g id="edge66" class="edge"><title>Node34&#45;&gt;Node33</title>
<path fill="none" stroke="midnightblue" d="M206.403,-265.691C231.19,-280.183 280.311,-309.575 320,-337.5 324.716,-340.818 348.787,-359.877 366.503,-373.964"/>
<polygon fill="midnightblue" stroke="midnightblue" points="364.573,-376.901 374.577,-380.39 368.932,-371.424 364.573,-376.901"/>
</g>
<!-- Node35 -->
<g id="node31" class="node"><title>Node35</title>
<g id="a_node31"><a xlink:href="main_8h.html#a5c7c60c7d70cf76cc52e87722bb0f614" target="_top" xlink:title="coarse_tune">
<polygon fill="none" stroke="black" points="253,-228.5 253,-246.5 320,-246.5 320,-228.5 253,-228.5"/>
<text text-anchor="middle" x="286.5" y="-235.3" font-family="Calibri" font-size="9.00">coarse_tune</text>
</a>
</g>
</g>
<!-- Node34&#45;&gt;Node35 -->
<g id="edge54" class="edge"><title>Node34&#45;&gt;Node35</title>
<path fill="none" stroke="midnightblue" d="M217.216,-251.157C225.184,-249.563 234.123,-247.775 242.843,-246.031"/>
<polygon fill="midnightblue" stroke="midnightblue" points="243.788,-249.412 252.907,-244.019 242.415,-242.548 243.788,-249.412"/>
</g>
<!-- Node37 -->
<g id="node33" class="node"><title>Node37</title>
<g id="a_node33"><a xlink:href="main_8h.html#ae0c1e0ec712704e43db40473f103d621" target="_top" xlink:title="Set the state of the switch. ">
<polygon fill="none" stroke="black" points="264,-0.5 264,-18.5 309,-18.5 309,-0.5 264,-0.5"/>
<text text-anchor="middle" x="286.5" y="-7.3" font-family="Calibri" font-size="9.00">set_sw</text>
</a>
</g>
</g>
<!-- Node34&#45;&gt;Node37 -->
<g id="edge64" class="edge"><title>Node34&#45;&gt;Node37</title>
<path fill="none" stroke="midnightblue" d="M195.448,-247.306C201.316,-236.073 211.05,-216.355 217,-198.5 240.732,-127.292 212.195,-96.498 253,-33.5 255.066,-30.31 257.714,-27.3951 260.604,-24.7818"/>
<polygon fill="midnightblue" stroke="midnightblue" points="262.834,-27.4821 268.589,-18.587 258.543,-21.9513 262.834,-27.4821"/>
</g>
<!-- Node35&#45;&gt;Node19 -->
<g id="edge60" class="edge"><title>Node35&#45;&gt;Node19</title>
<path fill="none" stroke="midnightblue" d="M320.241,-237.5C357.5,-237.5 418.017,-237.5 455.417,-237.5"/>
<polygon fill="midnightblue" stroke="midnightblue" points="455.773,-241 465.773,-237.5 455.773,-234 455.773,-241"/>
</g>
<!-- Node35&#45;&gt;Node20 -->
<g id="edge59" class="edge"><title>Node35&#45;&gt;Node20</title>
<path fill="none" stroke="midnightblue" d="M311.347,-228.483C347.276,-214.898 415.388,-189.144 455.884,-173.832"/>
<polygon fill="midnightblue" stroke="midnightblue" points="457.189,-177.081 465.305,-170.27 454.713,-170.533 457.189,-177.081"/>
</g>
<!-- Node35&#45;&gt;Node28 -->
<g id="edge58" class="edge"><title>Node35&#45;&gt;Node28</title>
<path fill="none" stroke="midnightblue" d="M300.358,-246.585C306.415,-250.967 313.68,-256.375 320,-261.5 336.627,-274.983 337.973,-281.955 356,-293.5 387.828,-313.884 428.033,-330.348 455.762,-340.455"/>
<polygon fill="midnightblue" stroke="midnightblue" points="454.78,-343.821 465.374,-343.887 457.133,-337.229 454.78,-343.821"/>
</g>
<!-- Node36 -->
<g id="node32" class="node"><title>Node36</title>
<g id="a_node32"><a xlink:href="main_8h.html#a740ef1b33bb02cd952ad7d8708999472" target="_top" xlink:title="coarse_cap">
<polygon fill="none" stroke="black" points="356,-266.5 356,-284.5 418,-284.5 418,-266.5 356,-266.5"/>
<text text-anchor="middle" x="387" y="-273.3" font-family="Calibri" font-size="9.00">coarse_cap</text>
</a>
</g>
</g>
<!-- Node35&#45;&gt;Node36 -->
<g id="edge55" class="edge"><title>Node35&#45;&gt;Node36</title>
<path fill="none" stroke="midnightblue" d="M310.843,-246.505C323.387,-251.345 339.064,-257.393 352.851,-262.711"/>
<polygon fill="midnightblue" stroke="midnightblue" points="351.894,-266.094 362.483,-266.427 354.413,-259.563 351.894,-266.094"/>
</g>
<!-- Node36&#45;&gt;Node20 -->
<g id="edge57" class="edge"><title>Node36&#45;&gt;Node20</title>
<path fill="none" stroke="midnightblue" d="M396.224,-266.171C413.166,-246.953 452.164,-202.717 473.642,-178.354"/>
<polygon fill="midnightblue" stroke="midnightblue" points="476.455,-180.455 480.443,-170.639 471.204,-175.826 476.455,-180.455"/>
</g>
<!-- Node36&#45;&gt;Node28 -->
<g id="edge56" class="edge"><title>Node36&#45;&gt;Node28</title>
<path fill="none" stroke="midnightblue" d="M399.923,-284.517C416.848,-297.315 448.053,-320.913 468.541,-336.406"/>
<polygon fill="midnightblue" stroke="midnightblue" points="466.505,-339.255 476.592,-342.495 470.727,-333.672 466.505,-339.255"/>
</g>
</g>
</svg>
        <g id="navigator" transform="translate(0 0)" fill="#404254">
                <rect fill="#f2f5e9" fill-opacity="0.5" stroke="#606060" stroke-width=".5" x="0" y="0" width="60" height="60"/>
                <use id="zoomplus" xlink:href="#zoomPlus" x="17" y="9" onmousedown="handleZoom(evt,'in')"/>
                <use id="zoomminus" xlink:href="#zoomMin" x="42" y="9" onmousedown="handleZoom(evt,'out')"/>
                <use id="reset" xlink:href="#resetDef" x="30" y="36" onmousedown="handleReset()"/>
                <g id="arrowUp" xlink:href="#dirArrow" transform="translate(30 24)" onmousedown="handlePan(0,-1)">
                  <use xlink:href="#rim" fill="#404040">
                        <set attributeName="fill" to="#808080" begin="arrowUp.mouseover" end="arrowUp.mouseout"/>
                  </use>
                  <path fill="none" stroke="white" stroke-width="1.5" d="M0,-3.0v7 M-2.5,-0.5L0,-3.0L2.5,-0.5"/>
                </g>
                <g id="arrowRight" xlink:href="#dirArrow" transform="rotate(90) translate(36 -43)" onmousedown="handlePan(1,0)">
                  <use xlink:href="#rim" fill="#404040">
                        <set attributeName="fill" to="#808080" begin="arrowRight.mouseover" end="arrowRight.mouseout"/>
                  </use>
                  <path fill="none" stroke="white" stroke-width="1.5" d="M0,-3.0v7 M-2.5,-0.5L0,-3.0L2.5,-0.5"/>
                </g>
                <g id="arrowDown" xlink:href="#dirArrow" transform="rotate(180) translate(-30 -48)" onmousedown="handlePan(0,1)">
                  <use xlink:href="#rim" fill="#404040">
                        <set attributeName="fill" to="#808080" begin="arrowDown.mouseover" end="arrowDown.mouseout"/>
                  </use>
                  <path fill="none" stroke="white" stroke-width="1.5" d="M0,-3.0v7 M-2.5,-0.5L0,-3.0L2.5,-0.5"/>
                </g>
                <g id="arrowLeft" xlink:href="#dirArrow" transform="rotate(270) translate(-36 17)" onmousedown="handlePan(-1,0)">
                  <use xlink:href="#rim" fill="#404040">
                        <set attributeName="fill" to="#808080" begin="arrowLeft.mouseover" end="arrowLeft.mouseout"/>
                  </use>
                  <path fill="none" stroke="white" stroke-width="1.5" d="M0,-3.0v7 M-2.5,-0.5L0,-3.0L2.5,-0.5"/>
                </g>
        </g>
        <svg viewBox="0 0 15 15" width="100%" height="30px" preserveAspectRatio="xMaxYMin meet">
         <g id="arrow_out" transform="scale(0.3 0.3)">
          <a xlink:href="main__main_8h_ae9b379f911db06ddd04a15d876ac0732_cgraph_org.svg" target="_base">
           <rect id="button" ry="5" rx="5" y="6" x="6" height="38" width="38"
                fill="#f2f5e9" fill-opacity="0.5" stroke="#606060" stroke-width="1.0"/>
           <path id="arrow"
             d="M 11.500037,31.436501 C 11.940474,20.09759 22.043105,11.32322 32.158766,21.979434 L 37.068811,17.246167 C 37.068811,17.246167 37.088388,32 37.088388,32 L 22.160133,31.978069 C 22.160133,31.978069 26.997745,27.140456 26.997745,27.140456 C 18.528582,18.264221 13.291696,25.230495 11.500037,31.436501 z"
             style="fill:#404040;"/>
          </a>
         </g>
        </svg>
</svg>
