<?xml version="1.0" encoding="UTF-8" standalone="no"?>
<!DOCTYPE svg PUBLIC "-//W3C//DTD SVG 1.1//EN"
 "http://www.w3.org/Graphics/SVG/1.1/DTD/svg11.dtd">
<!-- Generated by graphviz version 2.38.0 (20140413.2041)
 -->
<!-- Title: atu_reset Pages: 1 -->
<svg width="240pt" height="76pt"
 viewBox="0.00 0.00 240.00 75.83" xmlns="http://www.w3.org/2000/svg" xmlns:xlink="http://www.w3.org/1999/xlink">
<g id="graph0" class="graph" transform="scale(1 1) rotate(0) translate(4 71.8349)">
<title>atu_reset</title>
<!-- Node1 -->
<g id="node1" class="node"><title>Node1</title>
<g id="a_node1"><a xlink:title=" ">
<polygon fill="#bfbfbf" stroke="black" points="0,-37.5 0,-55.5 56,-55.5 56,-37.5 0,-37.5"/>
<text text-anchor="middle" x="28" y="-44.3" font-family="Calibri" font-size="9.00">atu_reset</text>
</a>
</g>
</g>
<!-- Node2 -->
<g id="node2" class="node"><title>Node2</title>
<g id="a_node2"><a xlink:href="main_8h.html#a85fb3ccca120f3b843a1dc7567908a04" target="_top" xlink:title=" ">
<polygon fill="none" stroke="black" points="176,-37.5 176,-55.5 232,-55.5 232,-37.5 176,-37.5"/>
<text text-anchor="middle" x="204" y="-44.3" font-family="Calibri" font-size="9.00">delay_ms</text>
</a>
</g>
</g>
<!-- Node1&#45;&gt;Node2 -->
<g id="edge1" class="edge"><title>Node1&#45;&gt;Node2</title>
<path fill="none" stroke="midnightblue" d="M53.1541,-55.5969C64.7256,-59.4837 78.8899,-63.5661 92,-65.5 113.105,-68.6132 118.895,-68.6132 140,-65.5 149.628,-64.0798 159.824,-61.5009 169.144,-58.6917"/>
<polygon fill="midnightblue" stroke="midnightblue" points="170.383,-61.9705 178.846,-55.5969 168.255,-55.3016 170.383,-61.9705"/>
</g>
<!-- Node3 -->
<g id="node3" class="node"><title>Node3</title>
<g id="a_node3"><a xlink:href="main_8h.html#a2a7963b9b09696c6654b96c67900c6ea" target="_top" xlink:title=" ">
<polygon fill="none" stroke="black" points="92,-37.5 92,-55.5 140,-55.5 140,-37.5 92,-37.5"/>
<text text-anchor="middle" x="116" y="-44.3" font-family="Calibri" font-size="9.00">set_cap</text>
</a>
</g>
</g>
<!-- Node1&#45;&gt;Node3 -->
<g id="edge2" class="edge"><title>Node1&#45;&gt;Node3</title>
<path fill="none" stroke="midnightblue" d="M56.2109,-46.5C64.2383,-46.5 73.1181,-46.5 81.4923,-46.5"/>
<polygon fill="midnightblue" stroke="midnightblue" points="81.7272,-50.0001 91.7272,-46.5 81.7271,-43.0001 81.7272,-50.0001"/>
</g>
<!-- Node4 -->
<g id="node4" class="node"><title>Node4</title>
<g id="a_node4"><a xlink:href="main_8h.html#aecc83cd8bceb4bc24be844732ead2c2c" target="_top" xlink:title=" ">
<polygon fill="none" stroke="black" points="92.5,-0.5 92.5,-18.5 139.5,-18.5 139.5,-0.5 92.5,-0.5"/>
<text text-anchor="middle" x="116" y="-7.3" font-family="Calibri" font-size="9.00">set_ind</text>
</a>
</g>
</g>
<!-- Node1&#45;&gt;Node4 -->
<g id="edge4" class="edge"><title>Node1&#45;&gt;Node4</title>
<path fill="none" stroke="midnightblue" d="M50.2584,-37.3539C60.6728,-32.8733 73.3962,-27.3993 84.7985,-22.4937"/>
<polygon fill="midnightblue" stroke="midnightblue" points="86.1834,-25.7081 93.9861,-18.5409 83.4169,-19.2779 86.1834,-25.7081"/>
</g>
<!-- Node3&#45;&gt;Node2 -->
<g id="edge3" class="edge"><title>Node3&#45;&gt;Node2</title>
<path fill="none" stroke="midnightblue" d="M140.046,-46.5C147.985,-46.5 157.09,-46.5 165.863,-46.5"/>
<polygon fill="midnightblue" stroke="midnightblue" points="165.92,-50.0001 175.92,-46.5 165.92,-43.0001 165.92,-50.0001"/>
</g>
<!-- Node4&#45;&gt;Node2 -->
<g id="edge5" class="edge"><title>Node4&#45;&gt;Node2</title>
<path fill="none" stroke="midnightblue" d="M138.258,-18.6461C148.673,-23.1267 161.396,-28.6007 172.799,-33.5063"/>
<polygon fill="midnightblue" stroke="midnightblue" points="171.417,-36.7221 181.986,-37.4591 174.183,-30.2919 171.417,-36.7221"/>
</g>
</g>
</svg>
