<?xml version="1.0" encoding="UTF-8" standalone="no"?>
<!DOCTYPE svg PUBLIC "-//W3C//DTD SVG 1.1//EN"
 "http://www.w3.org/Graphics/SVG/1.1/DTD/svg11.dtd">
<!-- Generated by graphviz version 2.38.0 (20140413.2041)
 -->
<!-- Title: get_reverse Pages: 1 -->
<svg width="513pt" height="179pt"
 viewBox="0.00 0.00 513.00 179.00" xmlns="http://www.w3.org/2000/svg" xmlns:xlink="http://www.w3.org/1999/xlink">
<g id="graph0" class="graph" transform="scale(1 1) rotate(0) translate(4 175)">
<title>get_reverse</title>
<!-- Node204 -->
<g id="node1" class="node"><title>Node204</title>
<polygon fill="#bfbfbf" stroke="black" points="0,-76.5 0,-94.5 64,-94.5 64,-76.5 0,-76.5"/>
<text text-anchor="middle" x="32" y="-83.3" font-family="Calibri" font-size="9.00">get_reverse</text>
</g>
<!-- Node205 -->
<g id="node2" class="node"><title>Node205</title>
<g id="a_node2"><a xlink:href="main__main_8h.html#ab37ca657b79c6b9176cb63e9d812a182" target="_top" xlink:title="get_pwr">
<polygon fill="none" stroke="black" points="100,-76.5 100,-94.5 149,-94.5 149,-76.5 100,-76.5"/>
<text text-anchor="middle" x="124.5" y="-83.3" font-family="Calibri" font-size="9.00">get_pwr</text>
</a>
</g>
</g>
<!-- Node204&#45;&gt;Node205 -->
<g id="edge1" class="edge"><title>Node204&#45;&gt;Node205</title>
<path fill="none" stroke="midnightblue" d="M74.2314,-85.5C82.9697,-85.5 91.9094,-85.5 99.7333,-85.5"/>
<polygon fill="midnightblue" stroke="midnightblue" points="74.145,-82.0001 64.145,-85.5 74.1449,-89.0001 74.145,-82.0001"/>
</g>
<!-- Node206 -->
<g id="node3" class="node"><title>Node206</title>
<g id="a_node3"><a xlink:href="main__main_8h.html#a6c26e075660bdd7a54df984ec3fc7ff4" target="_top" xlink:title="get_swr">
<polygon fill="none" stroke="black" points="185,-76.5 185,-94.5 233,-94.5 233,-76.5 185,-76.5"/>
<text text-anchor="middle" x="209" y="-83.3" font-family="Calibri" font-size="9.00">get_swr</text>
</a>
</g>
</g>
<!-- Node205&#45;&gt;Node206 -->
<g id="edge2" class="edge"><title>Node205&#45;&gt;Node206</title>
<path fill="none" stroke="midnightblue" d="M159.436,-85.5C167.953,-85.5 176.899,-85.5 184.76,-85.5"/>
<polygon fill="midnightblue" stroke="midnightblue" points="159.362,-82.0001 149.362,-85.5 159.362,-89.0001 159.362,-82.0001"/>
</g>
<!-- Node207 -->
<g id="node4" class="node"><title>Node207</title>
<g id="a_node4"><a xlink:href="main__main_8h.html#a740ef1b33bb02cd952ad7d8708999472" target="_top" xlink:title="coarse_cap">
<polygon fill="none" stroke="black" points="269,-152.5 269,-170.5 331,-170.5 331,-152.5 269,-152.5"/>
<text text-anchor="middle" x="300" y="-159.3" font-family="Calibri" font-size="9.00">coarse_cap</text>
</a>
</g>
</g>
<!-- Node206&#45;&gt;Node207 -->
<g id="edge3" class="edge"><title>Node206&#45;&gt;Node207</title>
<path fill="none" stroke="midnightblue" d="M227.991,-101.754C239.579,-112.124 255.034,-125.77 269,-137.5 274.925,-142.476 281.64,-147.87 287.213,-152.282"/>
<polygon fill="midnightblue" stroke="midnightblue" points="230.092,-98.9365 220.314,-94.8572 225.414,-104.144 230.092,-98.9365"/>
</g>
<!-- Node208 -->
<g id="node5" class="node"><title>Node208</title>
<g id="a_node5"><a xlink:href="main__main_8h.html#a5c7c60c7d70cf76cc52e87722bb0f614" target="_top" xlink:title="coarse_tune">
<polygon fill="none" stroke="black" points="367,-114.5 367,-132.5 434,-132.5 434,-114.5 367,-114.5"/>
<text text-anchor="middle" x="400.5" y="-121.3" font-family="Calibri" font-size="9.00">coarse_tune</text>
</a>
</g>
</g>
<!-- Node206&#45;&gt;Node208 -->
<g id="edge6" class="edge"><title>Node206&#45;&gt;Node208</title>
<path fill="none" stroke="midnightblue" d="M243.085,-93.6648C251.517,-95.6591 260.577,-97.7274 269,-99.5 302.25,-106.498 340.507,-113.399 366.963,-117.992"/>
<polygon fill="midnightblue" stroke="midnightblue" points="243.737,-90.2221 233.197,-91.2937 242.105,-97.0291 243.737,-90.2221"/>
</g>
<!-- Node209 -->
<g id="node6" class="node"><title>Node209</title>
<g id="a_node6"><a xlink:href="main__main_8h.html#a1849f2e5bd63d11a7b9549470e287d17" target="_top" xlink:title="tune">
<polygon fill="none" stroke="black" points="470,-57.5 470,-75.5 505,-75.5 505,-57.5 470,-57.5"/>
<text text-anchor="middle" x="487.5" y="-64.3" font-family="Calibri" font-size="9.00">tune</text>
</a>
</g>
</g>
<!-- Node206&#45;&gt;Node209 -->
<g id="edge11" class="edge"><title>Node206&#45;&gt;Node209</title>
<path fill="none" stroke="midnightblue" d="M243.086,-83.2265C302.502,-79.1436 425.239,-70.7096 469.838,-67.6449"/>
<polygon fill="midnightblue" stroke="midnightblue" points="242.835,-79.7353 233.099,-83.9128 243.315,-86.7189 242.835,-79.7353"/>
</g>
<!-- Node210 -->
<g id="node7" class="node"><title>Node210</title>
<g id="a_node7"><a xlink:href="main__main_8h.html#ab518a3d2c723f12d3af3024a195606ce" target="_top" xlink:title="sharp_cap">
<polygon fill="none" stroke="black" points="371,-38.5 371,-56.5 430,-56.5 430,-38.5 371,-38.5"/>
<text text-anchor="middle" x="400.5" y="-45.3" font-family="Calibri" font-size="9.00">sharp_cap</text>
</a>
</g>
</g>
<!-- Node206&#45;&gt;Node210 -->
<g id="edge7" class="edge"><title>Node206&#45;&gt;Node210</title>
<path fill="none" stroke="midnightblue" d="M243.085,-77.3352C251.517,-75.3409 260.577,-73.2726 269,-71.5 303.941,-64.1466 344.411,-56.8995 370.905,-52.3256"/>
<polygon fill="midnightblue" stroke="midnightblue" points="242.105,-73.9709 233.197,-79.7063 243.737,-80.7779 242.105,-73.9709"/>
</g>
<!-- Node211 -->
<g id="node8" class="node"><title>Node211</title>
<g id="a_node8"><a xlink:href="main__main_8h.html#a72210b3ed1d5691c5bbda8c7f1e97197" target="_top" xlink:title="sharp_ind">
<polygon fill="none" stroke="black" points="271,-0.5 271,-18.5 329,-18.5 329,-0.5 271,-0.5"/>
<text text-anchor="middle" x="300" y="-7.3" font-family="Calibri" font-size="9.00">sharp_ind</text>
</a>
</g>
</g>
<!-- Node206&#45;&gt;Node211 -->
<g id="edge9" class="edge"><title>Node206&#45;&gt;Node211</title>
<path fill="none" stroke="midnightblue" d="M227.991,-69.2456C239.579,-58.8761 255.034,-45.2296 269,-33.5 274.925,-28.524 281.64,-23.1298 287.213,-18.718"/>
<polygon fill="midnightblue" stroke="midnightblue" points="225.414,-66.8562 220.314,-76.1428 230.092,-72.0635 225.414,-66.8562"/>
</g>
<!-- Node207&#45;&gt;Node208 -->
<g id="edge4" class="edge"><title>Node207&#45;&gt;Node208</title>
<path fill="none" stroke="midnightblue" d="M333.959,-148.785C347.728,-143.473 363.411,-137.423 375.983,-132.573"/>
<polygon fill="midnightblue" stroke="midnightblue" points="332.413,-145.63 324.343,-152.495 334.933,-152.161 332.413,-145.63"/>
</g>
<!-- Node208&#45;&gt;Node209 -->
<g id="edge5" class="edge"><title>Node208&#45;&gt;Node209</title>
<path fill="none" stroke="midnightblue" d="M423.694,-108.617C439.28,-98.1652 459.63,-84.5189 472.877,-75.6353"/>
<polygon fill="midnightblue" stroke="midnightblue" points="421.513,-105.865 415.157,-114.342 425.412,-111.679 421.513,-105.865"/>
</g>
<!-- Node210&#45;&gt;Node209 -->
<g id="edge8" class="edge"><title>Node210&#45;&gt;Node209</title>
<path fill="none" stroke="midnightblue" d="M440.056,-56.1184C450.443,-58.4401 461.146,-60.8326 469.656,-62.7349"/>
<polygon fill="midnightblue" stroke="midnightblue" points="440.8,-52.6984 430.277,-53.9325 439.273,-59.5298 440.8,-52.6984"/>
</g>
<!-- Node211&#45;&gt;Node209 -->
<g id="edge10" class="edge"><title>Node211&#45;&gt;Node209</title>
<path fill="none" stroke="midnightblue" d="M339.314,-10.1161C366.594,-11.7015 403.647,-16.228 434,-28.5 450.69,-35.2479 467.025,-48.4047 476.93,-57.3233"/>
<polygon fill="midnightblue" stroke="midnightblue" points="339.159,-6.605 329.005,-9.629 338.829,-13.5972 339.159,-6.605"/>
</g>
</g>
</svg>
