<?xml version="1.0" encoding="UTF-8" standalone="no"?>
<!DOCTYPE svg PUBLIC "-//W3C//DTD SVG 1.1//EN"
 "http://www.w3.org/Graphics/SVG/1.1/DTD/svg11.dtd">
<!-- Generated by graphviz version 2.38.0 (20140413.2041)
 -->
<!-- Title: button_proc_test Pages: 1 -->
<!--zoomable 390 -->
<svg id="main" version="1.1" xmlns="http://www.w3.org/2000/svg" xmlns:xlink="http://www.w3.org/1999/xlink" xml:space="preserve" onload="init(evt)">
<style type="text/css"><![CDATA[
.edge:hover path { stroke: red; }
.edge:hover polygon { stroke: red; fill: red; }
]]></style>
<script type="text/javascript"><![CDATA[
var edges = document.getElementsByTagName('g');
if (edges && edges.length) {
  for (var i=0;i<edges.length;i++) {
    if (edges[i].id.substr(0,4)=='edge') {
      edges[i].setAttribute('class','edge');
    }
  }
}
]]></script>
        <defs>
                <circle id="rim" cx="0" cy="0" r="7"/>
                <circle id="rim2" cx="0" cy="0" r="3.5"/>
                <g id="zoomPlus">
                        <use xlink:href="#rim" fill="#404040">
                                <set attributeName="fill" to="#808080" begin="zoomplus.mouseover" end="zoomplus.mouseout"/>
                        </use>
                        <path d="M-4,0h8M0,-4v8" fill="none" stroke="white" stroke-width="1.5" pointer-events="none"/>
                </g>
                <g id="zoomMin">
                        <use xlink:href="#rim" fill="#404040">
                                <set attributeName="fill" to="#808080" begin="zoomminus.mouseover" end="zoomminus.mouseout"/>
                        </use>
                        <path d="M-4,0h8" fill="none" stroke="white" stroke-width="1.5" pointer-events="none"/>
                </g>
                <g id="dirArrow">
                        <path fill="none" stroke="white" stroke-width="1.5" d="M0,-3.0v7 M-2.5,-0.5L0,-3.0L2.5,-0.5"/>
                </g>
               <g id="resetDef">
                       <use xlink:href="#rim2" fill="#404040">
                               <set attributeName="fill" to="#808080" begin="reset.mouseover" end="reset.mouseout"/>
                       </use>
               </g>
        </defs>

<script type="text/javascript">
var viewWidth = 514;
var viewHeight = 390;
var sectionId = 'dynsection-9';
</script>
<script xlink:href="svgpan.js"/>
<svg id="graph" class="graph">
<g id="viewport">
<title>button_proc_test</title>
<!-- Node1 -->
<g id="node1" class="node"><title>Node1</title>
<g id="a_node1"><a xlink:title="Handle the process of the buttons being pressed (in test mode)">
<polygon fill="#bfbfbf" stroke="black" points="0,-111.5 0,-129.5 86,-129.5 86,-111.5 0,-111.5"/>
<text text-anchor="middle" x="43" y="-118.3" font-family="Calibri" font-size="9.00">button_proc_test</text>
</a>
</g>
</g>
<!-- Node2 -->
<g id="node2" class="node"><title>Node2</title>
<g id="a_node2"><a xlink:href="main_8c.html#a6911b3f075cdf1d54cb14f17f6e5ef6b" target="_top" xlink:title=" ">
<polygon fill="none" stroke="black" points="330,-337.5 330,-355.5 377,-355.5 377,-337.5 330,-337.5"/>
<text text-anchor="middle" x="353.5" y="-344.3" font-family="Calibri" font-size="9.00">lcd_ind</text>
</a>
</g>
</g>
<!-- Node1&#45;&gt;Node2 -->
<g id="edge1" class="edge"><title>Node1&#45;&gt;Node2</title>
<path fill="none" stroke="midnightblue" d="M47.9592,-129.511C62.9713,-162.485 119.927,-277.213 206,-326.5 240.972,-346.525 288.145,-349.511 319.403,-348.825"/>
<polygon fill="midnightblue" stroke="midnightblue" points="319.882,-352.31 329.749,-348.452 319.63,-345.315 319.882,-352.31"/>
</g>
<!-- Node3 -->
<g id="node3" class="node"><title>Node3</title>
<g id="a_node3"><a xlink:href="oled__control_8h.html#ab272af1010175ba1166b08b8b3df6874" target="_top" xlink:title=" ">
<polygon fill="none" stroke="black" points="438.5,-299.5 438.5,-317.5 497.5,-317.5 497.5,-299.5 438.5,-299.5"/>
<text text-anchor="middle" x="468" y="-306.3" font-family="Calibri" font-size="9.00">led_wr_str</text>
</a>
</g>
</g>
<!-- Node1&#45;&gt;Node3 -->
<g id="edge27" class="edge"><title>Node1&#45;&gt;Node3</title>
<path fill="none" stroke="midnightblue" d="M46.4639,-129.885C53.981,-157.149 78.7811,-237.753 122,-290.5 151.242,-326.189 163.137,-334.425 206,-351.5 283.838,-382.508 314.774,-392.767 394,-365.5 417.132,-357.539 438.552,-338.908 452.125,-325.102"/>
<polygon fill="midnightblue" stroke="midnightblue" points="454.843,-327.321 459.164,-317.648 449.754,-322.516 454.843,-327.321"/>
</g>
<!-- Node4 -->
<g id="node4" class="node"><title>Node4</title>
<g id="a_node4"><a xlink:href="main_8c.html#ae5a14b4884e85f47ad8a4a716f13203a" target="_top" xlink:title=" ">
<polygon fill="none" stroke="black" points="122,-131.5 122,-149.5 170,-149.5 170,-131.5 122,-131.5"/>
<text text-anchor="middle" x="146" y="-138.3" font-family="Calibri" font-size="9.00">lcd_pwr</text>
</a>
</g>
</g>
<!-- Node1&#45;&gt;Node4 -->
<g id="edge3" class="edge"><title>Node1&#45;&gt;Node4</title>
<path fill="none" stroke="midnightblue" d="M86.2479,-128.866C94.8377,-130.567 103.755,-132.333 111.969,-133.959"/>
<polygon fill="midnightblue" stroke="midnightblue" points="111.43,-137.42 121.92,-135.93 112.79,-130.554 111.43,-137.42"/>
</g>
<!-- Node17 -->
<g id="node17" class="node"><title>Node17</title>
<g id="a_node17"><a xlink:href="main_8h.html#a2a7963b9b09696c6654b96c67900c6ea" target="_top" xlink:title=" ">
<polygon fill="none" stroke="black" points="217.5,-74.5 217.5,-92.5 265.5,-92.5 265.5,-74.5 217.5,-74.5"/>
<text text-anchor="middle" x="241.5" y="-81.3" font-family="Calibri" font-size="9.00">set_cap</text>
</a>
</g>
</g>
<!-- Node1&#45;&gt;Node17 -->
<g id="edge28" class="edge"><title>Node1&#45;&gt;Node17</title>
<path fill="none" stroke="midnightblue" d="M86.1542,-112.563C122.38,-105.741 173.906,-96.0393 207.273,-89.7564"/>
<polygon fill="midnightblue" stroke="midnightblue" points="208.247,-93.1347 217.426,-87.8446 206.951,-86.2556 208.247,-93.1347"/>
</g>
<!-- Node18 -->
<g id="node18" class="node"><title>Node18</title>
<g id="a_node18"><a xlink:href="main_8h.html#aecc83cd8bceb4bc24be844732ead2c2c" target="_top" xlink:title=" ">
<polygon fill="none" stroke="black" points="218,-37.5 218,-55.5 265,-55.5 265,-37.5 218,-37.5"/>
<text text-anchor="middle" x="241.5" y="-44.3" font-family="Calibri" font-size="9.00">set_ind</text>
</a>
</g>
</g>
<!-- Node1&#45;&gt;Node18 -->
<g id="edge29" class="edge"><title>Node1&#45;&gt;Node18</title>
<path fill="none" stroke="midnightblue" d="M68.0948,-111.426C103.334,-98.1552 169.003,-73.4251 208.334,-58.6135"/>
<polygon fill="midnightblue" stroke="midnightblue" points="209.606,-61.8744 217.731,-55.0746 207.139,-55.3235 209.606,-61.8744"/>
</g>
<!-- Node19 -->
<g id="node19" class="node"><title>Node19</title>
<g id="a_node19"><a xlink:href="main_8h.html#ae0c1e0ec712704e43db40473f103d621" target="_top" xlink:title="Set the state of the switch.">
<polygon fill="none" stroke="black" points="219,-0.5 219,-18.5 264,-18.5 264,-0.5 219,-0.5"/>
<text text-anchor="middle" x="241.5" y="-7.3" font-family="Calibri" font-size="9.00">set_sw</text>
</a>
</g>
</g>
<!-- Node1&#45;&gt;Node19 -->
<g id="edge30" class="edge"><title>Node1&#45;&gt;Node19</title>
<path fill="none" stroke="midnightblue" d="M57.6092,-111.495C73.0207,-101.405 98.9848,-84.7299 122,-71.5 158.538,-50.4966 168.651,-47.0252 206,-27.5 208.582,-26.1502 211.273,-24.7444 213.963,-23.3398"/>
<polygon fill="midnightblue" stroke="midnightblue" points="215.7,-26.3812 222.946,-18.6515 212.461,-20.1756 215.7,-26.3812"/>
</g>
<!-- Node2&#45;&gt;Node3 -->
<g id="edge2" class="edge"><title>Node2&#45;&gt;Node3</title>
<path fill="none" stroke="midnightblue" d="M377.266,-338.81C392.509,-333.662 412.909,-326.771 430.406,-320.861"/>
<polygon fill="midnightblue" stroke="midnightblue" points="431.958,-324.031 440.312,-317.515 429.718,-317.399 431.958,-324.031"/>
</g>
<!-- Node4&#45;&gt;Node3 -->
<g id="edge20" class="edge"><title>Node4&#45;&gt;Node3</title>
<path fill="none" stroke="midnightblue" d="M149.911,-149.568C156.574,-168.843 174.813,-214.038 206,-237.5 272.982,-287.891 373.445,-302.529 428.136,-306.773"/>
<polygon fill="midnightblue" stroke="midnightblue" points="427.899,-310.265 438.118,-307.471 428.387,-303.282 427.899,-310.265"/>
</g>
<!-- Node5 -->
<g id="node5" class="node"><title>Node5</title>
<g id="a_node5"><a xlink:href="main_8c.html#a593218c5fe00b499d494826fc0aa5279" target="_top" xlink:title=" ">
<polygon fill="none" stroke="black" points="206,-185.5 206,-203.5 277,-203.5 277,-185.5 206,-185.5"/>
<text text-anchor="middle" x="241.5" y="-192.3" font-family="Calibri" font-size="9.00">button_delay</text>
</a>
</g>
</g>
<!-- Node4&#45;&gt;Node5 -->
<g id="edge4" class="edge"><title>Node4&#45;&gt;Node5</title>
<path fill="none" stroke="midnightblue" d="M161.957,-149.552C173.838,-156.699 190.905,-166.869 206,-175.5 208.849,-177.129 211.843,-178.815 214.827,-180.48"/>
<polygon fill="midnightblue" stroke="midnightblue" points="213.149,-183.552 223.594,-185.33 216.538,-177.427 213.149,-183.552"/>
</g>
<!-- Node6 -->
<g id="node6" class="node"><title>Node6</title>
<g id="a_node6"><a xlink:href="oled__control_8c.html#a5febfdc847aa6f3bc3f3c8f7818b8699" target="_top" xlink:title=" ">
<polygon fill="none" stroke="black" points="210.5,-148.5 210.5,-166.5 272.5,-166.5 272.5,-148.5 210.5,-148.5"/>
<text text-anchor="middle" x="241.5" y="-155.3" font-family="Calibri" font-size="9.00">display_on</text>
</a>
</g>
</g>
<!-- Node4&#45;&gt;Node6 -->
<g id="edge5" class="edge"><title>Node4&#45;&gt;Node6</title>
<path fill="none" stroke="midnightblue" d="M170.112,-144.702C179.197,-146.354 189.899,-148.3 200.178,-150.169"/>
<polygon fill="midnightblue" stroke="midnightblue" points="199.775,-153.653 210.24,-151.998 201.028,-146.766 199.775,-153.653"/>
</g>
<!-- Node12 -->
<g id="node12" class="node"><title>Node12</title>
<g id="a_node12"><a xlink:href="main_8h.html#ab37ca657b79c6b9176cb63e9d812a182" target="_top" xlink:title=" ">
<polygon fill="none" stroke="black" points="217,-111.5 217,-129.5 266,-129.5 266,-111.5 217,-111.5"/>
<text text-anchor="middle" x="241.5" y="-118.3" font-family="Calibri" font-size="9.00">get_pwr</text>
</a>
</g>
</g>
<!-- Node4&#45;&gt;Node12 -->
<g id="edge14" class="edge"><title>Node4&#45;&gt;Node12</title>
<path fill="none" stroke="midnightblue" d="M170.112,-135.556C181.181,-133.188 194.65,-130.308 206.83,-127.702"/>
<polygon fill="midnightblue" stroke="midnightblue" points="207.631,-131.11 216.677,-125.596 206.166,-124.265 207.631,-131.11"/>
</g>
<!-- Node16 -->
<g id="node16" class="node"><title>Node16</title>
<g id="a_node16"><a xlink:href="main_8c.html#aa8fd50019a763561abc6621bb224417f" target="_top" xlink:title=" ">
<polygon fill="none" stroke="black" points="330,-223.5 330,-241.5 377,-241.5 377,-223.5 330,-223.5"/>
<text text-anchor="middle" x="353.5" y="-230.3" font-family="Calibri" font-size="9.00">lcd_swr</text>
</a>
</g>
</g>
<!-- Node4&#45;&gt;Node16 -->
<g id="edge18" class="edge"><title>Node4&#45;&gt;Node16</title>
<path fill="none" stroke="midnightblue" d="M151.531,-149.65C159.888,-165.451 179.343,-197.589 206,-212.5 241.171,-232.173 288.299,-235.239 319.492,-234.667"/>
<polygon fill="midnightblue" stroke="midnightblue" points="319.934,-238.155 329.816,-234.335 319.708,-231.159 319.934,-238.155"/>
</g>
<!-- Node4&#45;&gt;Node17 -->
<g id="edge21" class="edge"><title>Node4&#45;&gt;Node17</title>
<path fill="none" stroke="midnightblue" d="M159.877,-131.432C171.667,-123.263 189.709,-111.1 206,-101.5 208.321,-100.132 210.756,-98.7541 213.213,-97.4017"/>
<polygon fill="midnightblue" stroke="midnightblue" points="214.875,-100.482 222.045,-92.682 211.576,-94.3083 214.875,-100.482"/>
</g>
<!-- Node4&#45;&gt;Node18 -->
<g id="edge22" class="edge"><title>Node4&#45;&gt;Node18</title>
<path fill="none" stroke="midnightblue" d="M152.472,-131.027C161.813,-115.511 182.153,-84.4146 206,-64.5 207.517,-63.2334 209.137,-62.0212 210.818,-60.8676"/>
<polygon fill="midnightblue" stroke="midnightblue" points="212.775,-63.7744 219.523,-55.6063 209.154,-57.7836 212.775,-63.7744"/>
</g>
<!-- Node4&#45;&gt;Node19 -->
<g id="edge23" class="edge"><title>Node4&#45;&gt;Node19</title>
<path fill="none" stroke="midnightblue" d="M149.643,-131.449C156.111,-110.675 174.541,-58.9499 206,-27.5 207.248,-26.2522 208.601,-25.0716 210.024,-23.9575"/>
<polygon fill="midnightblue" stroke="midnightblue" points="212.237,-26.6926 218.702,-18.2988 208.414,-20.829 212.237,-26.6926"/>
</g>
<!-- Node20 -->
<g id="node20" class="node"><title>Node20</title>
<g id="a_node20"><a xlink:href="main_8c.html#a4ae0d4fa97fc0ca3611813fee4f9af7c" target="_top" xlink:title=" ">
<polygon fill="none" stroke="black" points="212.5,-299.5 212.5,-317.5 270.5,-317.5 270.5,-299.5 212.5,-299.5"/>
<text text-anchor="middle" x="241.5" y="-306.3" font-family="Calibri" font-size="9.00">show_pwr</text>
</a>
</g>
</g>
<!-- Node4&#45;&gt;Node20 -->
<g id="edge24" class="edge"><title>Node4&#45;&gt;Node20</title>
<path fill="none" stroke="midnightblue" d="M148.812,-149.512C154.031,-173.648 171.012,-240.871 206,-284.5 208.596,-287.737 211.742,-290.721 215.064,-293.403"/>
<polygon fill="midnightblue" stroke="midnightblue" points="213.308,-296.45 223.476,-299.425 217.382,-290.758 213.308,-296.45"/>
</g>
<!-- Node7 -->
<g id="node7" class="node"><title>Node7</title>
<g id="a_node7"><a xlink:href="oled__control_8c.html#a5a5d7ef6b1877aaf94c1f4b7fc0f2d2d" target="_top" xlink:title=" ">
<polygon fill="none" stroke="black" points="326,-185.5 326,-203.5 381,-203.5 381,-185.5 326,-185.5"/>
<text text-anchor="middle" x="353.5" y="-192.3" font-family="Calibri" font-size="9.00">led_send</text>
</a>
</g>
</g>
<!-- Node6&#45;&gt;Node7 -->
<g id="edge6" class="edge"><title>Node6&#45;&gt;Node7</title>
<path fill="none" stroke="midnightblue" d="M269.409,-166.551C283.496,-171.29 300.945,-177.159 316.21,-182.293"/>
<polygon fill="midnightblue" stroke="midnightblue" points="315.275,-185.671 325.869,-185.542 317.506,-179.037 315.275,-185.671"/>
</g>
<!-- Node11 -->
<g id="node11" class="node"><title>Node11</title>
<g id="a_node11"><a xlink:href="oled__control_8c.html#ad141ed038278a6fcad6c307932f01ec8" target="_top" xlink:title=" ">
<polygon fill="none" stroke="black" points="313,-148.5 313,-166.5 394,-166.5 394,-148.5 313,-148.5"/>
<text text-anchor="middle" x="353.5" y="-155.3" font-family="Calibri" font-size="9.00">send_command</text>
</a>
</g>
</g>
<!-- Node6&#45;&gt;Node11 -->
<g id="edge10" class="edge"><title>Node6&#45;&gt;Node11</title>
<path fill="none" stroke="midnightblue" d="M272.558,-157.5C281.909,-157.5 292.48,-157.5 302.8,-157.5"/>
<polygon fill="midnightblue" stroke="midnightblue" points="302.982,-161 312.982,-157.5 302.982,-154 302.982,-161"/>
</g>
<!-- Node8 -->
<g id="node8" class="node"><title>Node8</title>
<g id="a_node8"><a xlink:href="oled__control_8c.html#ab7f6b5c6c1483f6286f2de5786c028d9" target="_top" xlink:title=" ">
<polygon fill="none" stroke="black" points="432,-204.5 432,-222.5 504,-222.5 504,-204.5 432,-204.5"/>
<text text-anchor="middle" x="468" y="-211.3" font-family="Calibri" font-size="9.00">Soft_I2C_Start</text>
</a>
</g>
</g>
<!-- Node7&#45;&gt;Node8 -->
<g id="edge7" class="edge"><title>Node7&#45;&gt;Node8</title>
<path fill="none" stroke="midnightblue" d="M381.161,-199.003C393.173,-201.032 407.703,-203.485 421.365,-205.793"/>
<polygon fill="midnightblue" stroke="midnightblue" points="421.144,-209.305 431.588,-207.519 422.31,-202.403 421.144,-209.305"/>
</g>
<!-- Node9 -->
<g id="node9" class="node"><title>Node9</title>
<g id="a_node9"><a xlink:href="oled__control_8c.html#a16eb842aa672ca44820ae6d5f9933425" target="_top" xlink:title=" ">
<polygon fill="none" stroke="black" points="432.5,-167.5 432.5,-185.5 503.5,-185.5 503.5,-167.5 432.5,-167.5"/>
<text text-anchor="middle" x="468" y="-174.3" font-family="Calibri" font-size="9.00">Soft_I2C_Stop</text>
</a>
</g>
</g>
<!-- Node7&#45;&gt;Node9 -->
<g id="edge8" class="edge"><title>Node7&#45;&gt;Node9</title>
<path fill="none" stroke="midnightblue" d="M381.161,-190.234C393.5,-188.26 408.495,-185.861 422.478,-183.623"/>
<polygon fill="midnightblue" stroke="midnightblue" points="423.108,-187.067 432.429,-182.031 422.002,-180.155 423.108,-187.067"/>
</g>
<!-- Node10 -->
<g id="node10" class="node"><title>Node10</title>
<g id="a_node10"><a xlink:href="oled__control_8c.html#a73610916645f17c19124e697b005f694" target="_top" xlink:title=" ">
<polygon fill="none" stroke="black" points="430,-130.5 430,-148.5 506,-148.5 506,-130.5 430,-130.5"/>
<text text-anchor="middle" x="468" y="-137.3" font-family="Calibri" font-size="9.00">Soft_I2C_Write</text>
</a>
</g>
</g>
<!-- Node7&#45;&gt;Node10 -->
<g id="edge9" class="edge"><title>Node7&#45;&gt;Node10</title>
<path fill="none" stroke="midnightblue" d="M373.415,-185.474C379.947,-182.338 387.304,-178.784 394,-175.5 410.061,-167.623 413.957,-165.413 430,-157.5 432.947,-156.046 436.03,-154.534 439.104,-153.031"/>
<polygon fill="midnightblue" stroke="midnightblue" points="440.703,-156.145 448.158,-148.618 437.635,-149.853 440.703,-156.145"/>
</g>
<!-- Node11&#45;&gt;Node8 -->
<g id="edge11" class="edge"><title>Node11&#45;&gt;Node8</title>
<path fill="none" stroke="midnightblue" d="M375.107,-166.618C381.223,-169.397 387.912,-172.51 394,-175.5 410.238,-183.477 413.953,-186.145 430,-194.5 433.335,-196.236 436.843,-198.052 440.317,-199.843"/>
<polygon fill="midnightblue" stroke="midnightblue" points="438.794,-202.996 449.288,-204.456 441.995,-196.77 438.794,-202.996"/>
</g>
<!-- Node11&#45;&gt;Node9 -->
<g id="edge12" class="edge"><title>Node11&#45;&gt;Node9</title>
<path fill="none" stroke="midnightblue" d="M394.163,-164.199C403.269,-165.737 413.011,-167.382 422.313,-168.953"/>
<polygon fill="midnightblue" stroke="midnightblue" points="421.739,-172.405 432.182,-170.62 422.904,-165.503 421.739,-172.405"/>
</g>
<!-- Node11&#45;&gt;Node10 -->
<g id="edge13" class="edge"><title>Node11&#45;&gt;Node10</title>
<path fill="none" stroke="midnightblue" d="M394.163,-151.154C402.53,-149.815 411.433,-148.391 420.039,-147.014"/>
<polygon fill="midnightblue" stroke="midnightblue" points="420.632,-150.463 429.954,-145.427 419.526,-143.551 420.632,-150.463"/>
</g>
<!-- Node13 -->
<g id="node13" class="node"><title>Node13</title>
<g id="a_node13"><a xlink:href="main_8h.html#ab19e6e081315a9a200394b74d10de395" target="_top" xlink:title=" ">
<polygon fill="none" stroke="black" points="325,-111.5 325,-129.5 382,-129.5 382,-111.5 325,-111.5"/>
<text text-anchor="middle" x="353.5" y="-118.3" font-family="Calibri" font-size="9.00">correction</text>
</a>
</g>
</g>
<!-- Node12&#45;&gt;Node13 -->
<g id="edge15" class="edge"><title>Node12&#45;&gt;Node13</title>
<path fill="none" stroke="midnightblue" d="M266.098,-120.5C280.183,-120.5 298.401,-120.5 314.474,-120.5"/>
<polygon fill="midnightblue" stroke="midnightblue" points="314.662,-124 324.662,-120.5 314.662,-117 314.662,-124"/>
</g>
<!-- Node14 -->
<g id="node14" class="node"><title>Node14</title>
<g id="a_node14"><a xlink:href="main_8h.html#acfd46f8711e9c1c20fffdfc8bdaa0ddd" target="_top" xlink:title=" ">
<polygon fill="none" stroke="black" points="321,-74.5 321,-92.5 386,-92.5 386,-74.5 321,-74.5"/>
<text text-anchor="middle" x="353.5" y="-81.3" font-family="Calibri" font-size="9.00">get_forward</text>
</a>
</g>
</g>
<!-- Node12&#45;&gt;Node14 -->
<g id="edge16" class="edge"><title>Node12&#45;&gt;Node14</title>
<path fill="none" stroke="midnightblue" d="M266.098,-112.563C280.526,-107.709 299.291,-101.397 315.646,-95.8964"/>
<polygon fill="midnightblue" stroke="midnightblue" points="317.094,-99.1019 325.457,-92.5964 314.863,-92.4672 317.094,-99.1019"/>
</g>
<!-- Node15 -->
<g id="node15" class="node"><title>Node15</title>
<g id="a_node15"><a xlink:href="main_8h.html#aa6b9a2b3d88f578ba6a9fefd911eae75" target="_top" xlink:title=" ">
<polygon fill="none" stroke="black" points="321.5,-37.5 321.5,-55.5 385.5,-55.5 385.5,-37.5 321.5,-37.5"/>
<text text-anchor="middle" x="353.5" y="-44.3" font-family="Calibri" font-size="9.00">get_reverse</text>
</a>
</g>
</g>
<!-- Node12&#45;&gt;Node15 -->
<g id="edge17" class="edge"><title>Node12&#45;&gt;Node15</title>
<path fill="none" stroke="midnightblue" d="M261.39,-111.404C266.642,-108.533 272.214,-105.148 277,-101.5 295.248,-87.5919 294.238,-77.7065 313,-64.5 315.103,-63.0197 317.347,-61.6143 319.658,-60.2899"/>
<polygon fill="midnightblue" stroke="midnightblue" points="321.461,-63.298 328.738,-55.5979 318.247,-57.0791 321.461,-63.298"/>
</g>
<!-- Node16&#45;&gt;Node3 -->
<g id="edge19" class="edge"><title>Node16&#45;&gt;Node3</title>
<path fill="none" stroke="midnightblue" d="M370.045,-241.589C377.388,-245.972 386.227,-251.38 394,-256.5 412.079,-268.408 432.068,-282.731 446.551,-293.327"/>
<polygon fill="midnightblue" stroke="midnightblue" points="444.662,-296.283 454.791,-299.388 448.809,-290.644 444.662,-296.283"/>
</g>
<!-- Node20&#45;&gt;Node2 -->
<g id="edge25" class="edge"><title>Node20&#45;&gt;Node2</title>
<path fill="none" stroke="midnightblue" d="M268.568,-317.505C284.037,-322.849 303.773,-329.667 320.22,-335.349"/>
<polygon fill="midnightblue" stroke="midnightblue" points="319.373,-338.759 329.968,-338.716 321.659,-332.143 319.373,-338.759"/>
</g>
<!-- Node20&#45;&gt;Node3 -->
<g id="edge26" class="edge"><title>Node20&#45;&gt;Node3</title>
<path fill="none" stroke="midnightblue" d="M270.933,-308.5C310.802,-308.5 383.448,-308.5 428.24,-308.5"/>
<polygon fill="midnightblue" stroke="midnightblue" points="428.444,-312 438.444,-308.5 428.444,-305 428.444,-312"/>
</g>
</g>
</svg>
        <g id="navigator" transform="translate(0 0)" fill="#404254">
                <rect fill="#f2f5e9" fill-opacity="0.5" stroke="#606060" stroke-width=".5" x="0" y="0" width="60" height="60"/>
                <use id="zoomplus" xlink:href="#zoomPlus" x="17" y="9" onmousedown="handleZoom(evt,'in')"/>
                <use id="zoomminus" xlink:href="#zoomMin" x="42" y="9" onmousedown="handleZoom(evt,'out')"/>
                <use id="reset" xlink:href="#resetDef" x="30" y="36" onmousedown="handleReset()"/>
                <g id="arrowUp" xlink:href="#dirArrow" transform="translate(30 24)" onmousedown="handlePan(0,-1)">
                  <use xlink:href="#rim" fill="#404040">
                        <set attributeName="fill" to="#808080" begin="arrowUp.mouseover" end="arrowUp.mouseout"/>
                  </use>
                  <path fill="none" stroke="white" stroke-width="1.5" d="M0,-3.0v7 M-2.5,-0.5L0,-3.0L2.5,-0.5"/>
                </g>
                <g id="arrowRight" xlink:href="#dirArrow" transform="rotate(90) translate(36 -43)" onmousedown="handlePan(1,0)">
                  <use xlink:href="#rim" fill="#404040">
                        <set attributeName="fill" to="#808080" begin="arrowRight.mouseover" end="arrowRight.mouseout"/>
                  </use>
                  <path fill="none" stroke="white" stroke-width="1.5" d="M0,-3.0v7 M-2.5,-0.5L0,-3.0L2.5,-0.5"/>
                </g>
                <g id="arrowDown" xlink:href="#dirArrow" transform="rotate(180) translate(-30 -48)" onmousedown="handlePan(0,1)">
                  <use xlink:href="#rim" fill="#404040">
                        <set attributeName="fill" to="#808080" begin="arrowDown.mouseover" end="arrowDown.mouseout"/>
                  </use>
                  <path fill="none" stroke="white" stroke-width="1.5" d="M0,-3.0v7 M-2.5,-0.5L0,-3.0L2.5,-0.5"/>
                </g>
                <g id="arrowLeft" xlink:href="#dirArrow" transform="rotate(270) translate(-36 17)" onmousedown="handlePan(-1,0)">
                  <use xlink:href="#rim" fill="#404040">
                        <set attributeName="fill" to="#808080" begin="arrowLeft.mouseover" end="arrowLeft.mouseout"/>
                  </use>
                  <path fill="none" stroke="white" stroke-width="1.5" d="M0,-3.0v7 M-2.5,-0.5L0,-3.0L2.5,-0.5"/>
                </g>
        </g>
        <svg viewBox="0 0 15 15" width="100%" height="30px" preserveAspectRatio="xMaxYMin meet">
         <g id="arrow_out" transform="scale(0.3 0.3)">
          <a xlink:href="main_8h_ac445892220ccb3b4b337dd3e764bd6c6_cgraph_org.svg" target="_base">
           <rect id="button" ry="5" rx="5" y="6" x="6" height="38" width="38"
                fill="#f2f5e9" fill-opacity="0.5" stroke="#606060" stroke-width="1.0"/>
           <path id="arrow"
             d="M 11.500037,31.436501 C 11.940474,20.09759 22.043105,11.32322 32.158766,21.979434 L 37.068811,17.246167 C 37.068811,17.246167 37.088388,32 37.088388,32 L 22.160133,31.978069 C 22.160133,31.978069 26.997745,27.140456 26.997745,27.140456 C 18.528582,18.264221 13.291696,25.230495 11.500037,31.436501 z"
             style="fill:#404040;"/>
          </a>
         </g>
        </svg>
</svg>
