<?xml version="1.0" encoding="UTF-8" standalone="no"?>
<!DOCTYPE svg PUBLIC "-//W3C//DTD SVG 1.1//EN"
 "http://www.w3.org/Graphics/SVG/1.1/DTD/svg11.dtd">
<!-- Generated by graphviz version 2.38.0 (20140413.2041)
 -->
<!-- Title: sharp_cap Pages: 1 -->
<!--zoomable 442 -->
<svg id="main" version="1.1" xmlns="http://www.w3.org/2000/svg" xmlns:xlink="http://www.w3.org/1999/xlink" xml:space="preserve" onload="init(evt)">
<style type="text/css"><![CDATA[
.edge:hover path { stroke: red; }
.edge:hover polygon { stroke: red; fill: red; }
]]></style>
<script type="text/javascript"><![CDATA[
var edges = document.getElementsByTagName('g');
if (edges && edges.length) {
  for (var i=0;i<edges.length;i++) {
    if (edges[i].id.substr(0,4)=='edge') {
      edges[i].setAttribute('class','edge');
    }
  }
}
]]></script>
        <defs>
                <circle id="rim" cx="0" cy="0" r="7"/>
                <circle id="rim2" cx="0" cy="0" r="3.5"/>
                <g id="zoomPlus">
                        <use xlink:href="#rim" fill="#404040">
                                <set attributeName="fill" to="#808080" begin="zoomplus.mouseover" end="zoomplus.mouseout"/>
                        </use>
                        <path d="M-4,0h8M0,-4v8" fill="none" stroke="white" stroke-width="1.5" pointer-events="none"/>
                </g>
                <g id="zoomMin">
                        <use xlink:href="#rim" fill="#404040">
                                <set attributeName="fill" to="#808080" begin="zoomminus.mouseover" end="zoomminus.mouseout"/>
                        </use>
                        <path d="M-4,0h8" fill="none" stroke="white" stroke-width="1.5" pointer-events="none"/>
                </g>
                <g id="dirArrow">
                        <path fill="none" stroke="white" stroke-width="1.5" d="M0,-3.0v7 M-2.5,-0.5L0,-3.0L2.5,-0.5"/>
                </g>
               <g id="resetDef">
                       <use xlink:href="#rim2" fill="#404040">
                               <set attributeName="fill" to="#808080" begin="reset.mouseover" end="reset.mouseout"/>
                       </use>
               </g>
        </defs>

<script type="text/javascript">
var viewWidth = 976;
var viewHeight = 442;
var sectionId = 'dynsection-38';
</script>
<script xlink:href="svgpan.js"/>
<svg id="graph" class="graph">
<g id="viewport">
<title>sharp_cap</title>
<!-- Node1 -->
<g id="node1" class="node"><title>Node1</title>
<g id="a_node1"><a xlink:title=" ">
<polygon fill="#bfbfbf" stroke="black" points="0,-299.455 0,-317.455 59,-317.455 59,-299.455 0,-299.455"/>
<text text-anchor="middle" x="29.5" y="-306.255" font-family="Calibri" font-size="9.00">sharp_cap</text>
</a>
</g>
</g>
<!-- Node2 -->
<g id="node2" class="node"><title>Node2</title>
<g id="a_node2"><a xlink:href="main_8h.html#ad7eb7423e0b17ccfba1ae42f3a3274e0" target="_top" xlink:title=" ">
<polygon fill="none" stroke="black" points="95,-186.455 95,-204.455 143,-204.455 143,-186.455 95,-186.455"/>
<text text-anchor="middle" x="119" y="-193.255" font-family="Calibri" font-size="9.00">get_swr</text>
</a>
</g>
</g>
<!-- Node1&#45;&gt;Node2 -->
<g id="edge1" class="edge"><title>Node1&#45;&gt;Node2</title>
<path fill="none" stroke="midnightblue" d="M37.6605,-299.208C52.3464,-280.242 86.0683,-236.693 104.818,-212.479"/>
<polygon fill="midnightblue" stroke="midnightblue" points="107.63,-214.564 110.985,-204.515 102.095,-210.278 107.63,-214.564"/>
</g>
<!-- Node19 -->
<g id="node19" class="node"><title>Node19</title>
<g id="a_node19"><a xlink:href="main_8h.html#a2a7963b9b09696c6654b96c67900c6ea" target="_top" xlink:title=" ">
<polygon fill="none" stroke="black" points="382.5,-399.455 382.5,-417.455 430.5,-417.455 430.5,-399.455 382.5,-399.455"/>
<text text-anchor="middle" x="406.5" y="-406.255" font-family="Calibri" font-size="9.00">set_cap</text>
</a>
</g>
</g>
<!-- Node1&#45;&gt;Node19 -->
<g id="edge48" class="edge"><title>Node1&#45;&gt;Node19</title>
<path fill="none" stroke="midnightblue" d="M59.303,-316.136C127.795,-334.401 300.065,-380.339 372.55,-399.669"/>
<polygon fill="midnightblue" stroke="midnightblue" points="371.931,-403.126 382.496,-402.321 373.735,-396.362 371.931,-403.126"/>
</g>
<!-- Node3 -->
<g id="node3" class="node"><title>Node3</title>
<g id="a_node3"><a xlink:href="main_8h.html#ab37ca657b79c6b9176cb63e9d812a182" target="_top" xlink:title=" ">
<polygon fill="none" stroke="black" points="382,-96.4554 382,-114.455 431,-114.455 431,-96.4554 382,-96.4554"/>
<text text-anchor="middle" x="406.5" y="-103.255" font-family="Calibri" font-size="9.00">get_pwr</text>
</a>
</g>
</g>
<!-- Node2&#45;&gt;Node3 -->
<g id="edge2" class="edge"><title>Node2&#45;&gt;Node3</title>
<path fill="none" stroke="midnightblue" d="M143.364,-188.09C193.868,-172.17 313.368,-134.499 371.949,-116.032"/>
<polygon fill="midnightblue" stroke="midnightblue" points="373.328,-119.267 381.814,-112.922 371.224,-112.591 373.328,-119.267"/>
</g>
<!-- Node7 -->
<g id="node7" class="node"><title>Node7</title>
<g id="a_node7"><a xlink:href="main_8c.html#a4ae0d4fa97fc0ca3611813fee4f9af7c" target="_top" xlink:title=" ">
<polygon fill="none" stroke="black" points="377.5,-20.4554 377.5,-38.4554 435.5,-38.4554 435.5,-20.4554 377.5,-20.4554"/>
<text text-anchor="middle" x="406.5" y="-27.2554" font-family="Calibri" font-size="9.00">show_pwr</text>
</a>
</g>
</g>
<!-- Node2&#45;&gt;Node7 -->
<g id="edge6" class="edge"><title>Node2&#45;&gt;Node7</title>
<path fill="none" stroke="midnightblue" d="M127.095,-186.314C147.551,-160.665 209.629,-87.673 279,-53.4554 306.663,-39.8104 341.258,-33.9022 367.274,-31.3547"/>
<polygon fill="midnightblue" stroke="midnightblue" points="367.833,-34.8199 377.498,-30.4817 367.237,-27.8452 367.833,-34.8199"/>
</g>
<!-- Node16 -->
<g id="node16" class="node"><title>Node16</title>
<g id="a_node16"><a xlink:href="main_8c.html#a11724d8cce81ed96bec12a004ea3ea7a" target="_top" xlink:title=" ">
<polygon fill="none" stroke="black" points="179,-239.455 179,-257.455 243,-257.455 243,-239.455 179,-239.455"/>
<text text-anchor="middle" x="211" y="-246.255" font-family="Calibri" font-size="9.00">show_reset</text>
</a>
</g>
</g>
<!-- Node2&#45;&gt;Node16 -->
<g id="edge21" class="edge"><title>Node2&#45;&gt;Node16</title>
<path fill="none" stroke="midnightblue" d="M135.677,-204.687C149.486,-212.819 169.819,-224.793 185.729,-234.163"/>
<polygon fill="midnightblue" stroke="midnightblue" points="184.11,-237.271 194.503,-239.329 187.662,-231.239 184.11,-237.271"/>
</g>
<!-- Node4 -->
<g id="node4" class="node"><title>Node4</title>
<g id="a_node4"><a xlink:href="main_8h.html#ab19e6e081315a9a200394b74d10de395" target="_top" xlink:title=" ">
<polygon fill="none" stroke="black" points="482,-133.455 482,-151.455 539,-151.455 539,-133.455 482,-133.455"/>
<text text-anchor="middle" x="510.5" y="-140.255" font-family="Calibri" font-size="9.00">correction</text>
</a>
</g>
</g>
<!-- Node3&#45;&gt;Node4 -->
<g id="edge3" class="edge"><title>Node3&#45;&gt;Node4</title>
<path fill="none" stroke="midnightblue" d="M431.157,-114.037C444.163,-118.755 460.538,-124.695 474.95,-129.922"/>
<polygon fill="midnightblue" stroke="midnightblue" points="473.954,-133.284 484.548,-133.404 476.341,-126.704 473.954,-133.284"/>
</g>
<!-- Node5 -->
<g id="node5" class="node"><title>Node5</title>
<g id="a_node5"><a xlink:href="main_8h.html#acfd46f8711e9c1c20fffdfc8bdaa0ddd" target="_top" xlink:title=" ">
<polygon fill="none" stroke="black" points="478,-96.4554 478,-114.455 543,-114.455 543,-96.4554 478,-96.4554"/>
<text text-anchor="middle" x="510.5" y="-103.255" font-family="Calibri" font-size="9.00">get_forward</text>
</a>
</g>
</g>
<!-- Node3&#45;&gt;Node5 -->
<g id="edge4" class="edge"><title>Node3&#45;&gt;Node5</title>
<path fill="none" stroke="midnightblue" d="M431.157,-105.455C442.008,-105.455 455.203,-105.455 467.647,-105.455"/>
<polygon fill="midnightblue" stroke="midnightblue" points="467.855,-108.955 477.855,-105.455 467.855,-101.955 467.855,-108.955"/>
</g>
<!-- Node6 -->
<g id="node6" class="node"><title>Node6</title>
<g id="a_node6"><a xlink:href="main_8h.html#aa6b9a2b3d88f578ba6a9fefd911eae75" target="_top" xlink:title=" ">
<polygon fill="none" stroke="black" points="478.5,-59.4554 478.5,-77.4554 542.5,-77.4554 542.5,-59.4554 478.5,-59.4554"/>
<text text-anchor="middle" x="510.5" y="-66.2554" font-family="Calibri" font-size="9.00">get_reverse</text>
</a>
</g>
</g>
<!-- Node3&#45;&gt;Node6 -->
<g id="edge5" class="edge"><title>Node3&#45;&gt;Node6</title>
<path fill="none" stroke="midnightblue" d="M431.157,-96.8738C444.163,-92.1559 460.538,-86.2161 474.95,-80.9883"/>
<polygon fill="midnightblue" stroke="midnightblue" points="476.341,-84.2069 484.548,-77.5066 473.954,-77.6265 476.341,-84.2069"/>
</g>
<!-- Node8 -->
<g id="node8" class="node"><title>Node8</title>
<g id="a_node8"><a xlink:href="main_8c.html#a6911b3f075cdf1d54cb14f17f6e5ef6b" target="_top" xlink:title=" ">
<polygon fill="none" stroke="black" points="487,-22.4554 487,-40.4554 534,-40.4554 534,-22.4554 487,-22.4554"/>
<text text-anchor="middle" x="510.5" y="-29.2554" font-family="Calibri" font-size="9.00">lcd_ind</text>
</a>
</g>
</g>
<!-- Node7&#45;&gt;Node8 -->
<g id="edge7" class="edge"><title>Node7&#45;&gt;Node8</title>
<path fill="none" stroke="midnightblue" d="M435.642,-30.0072C448.391,-30.2572 463.543,-30.5542 476.795,-30.8141"/>
<polygon fill="midnightblue" stroke="midnightblue" points="476.866,-34.3161 486.933,-31.0129 477.004,-27.3174 476.866,-34.3161"/>
</g>
<!-- Node9 -->
<g id="node9" class="node"><title>Node9</title>
<g id="a_node9"><a xlink:href="oled__control_8c.html#a1c8eef09adf01c9a7e3c6188f25c3c48" target="_top" xlink:title=" ">
<polygon fill="none" stroke="black" points="579,-171.455 579,-189.455 638,-189.455 638,-171.455 579,-171.455"/>
<text text-anchor="middle" x="608.5" y="-178.255" font-family="Calibri" font-size="9.00">led_wr_str</text>
</a>
</g>
</g>
<!-- Node7&#45;&gt;Node9 -->
<g id="edge20" class="edge"><title>Node7&#45;&gt;Node9</title>
<path fill="none" stroke="midnightblue" d="M425.094,-20.3143C452.777,-7.33939 507.048,12.2526 543,-12.4554 592.72,-46.625 604.131,-124.834 606.737,-161.202"/>
<polygon fill="midnightblue" stroke="midnightblue" points="603.256,-161.643 607.311,-171.431 610.245,-161.251 603.256,-161.643"/>
</g>
<!-- Node8&#45;&gt;Node9 -->
<g id="edge8" class="edge"><title>Node8&#45;&gt;Node9</title>
<path fill="none" stroke="midnightblue" d="M531.456,-40.4654C535.613,-42.9646 539.721,-45.9678 543,-49.4554 574.287,-82.7323 593.484,-134.059 602.111,-161.544"/>
<polygon fill="midnightblue" stroke="midnightblue" points="598.853,-162.865 605.079,-171.437 605.558,-160.853 598.853,-162.865"/>
</g>
<!-- Node10 -->
<g id="node10" class="node"><title>Node10</title>
<g id="a_node10"><a xlink:href="oled__control_8c.html#a3d35666326cc069eda3b63c70983fdbc" target="_top" xlink:title=" ">
<polygon fill="none" stroke="black" points="788,-211.455 788,-229.455 843,-229.455 843,-211.455 788,-211.455"/>
<text text-anchor="middle" x="815.5" y="-218.255" font-family="Calibri" font-size="9.00">led_send</text>
</a>
</g>
</g>
<!-- Node9&#45;&gt;Node10 -->
<g id="edge9" class="edge"><title>Node9&#45;&gt;Node10</title>
<path fill="none" stroke="midnightblue" d="M638.218,-189.245C649.324,-192.439 662.184,-195.891 674,-198.455 709.027,-206.058 749.509,-212.113 777.996,-215.93"/>
<polygon fill="midnightblue" stroke="midnightblue" points="777.545,-219.401 787.916,-217.234 778.458,-212.461 777.545,-219.401"/>
</g>
<!-- Node14 -->
<g id="node14" class="node"><title>Node14</title>
<g id="a_node14"><a xlink:href="oled__control_8c.html#a6e85fd05697e2238e4d9babf1c952772" target="_top" xlink:title=" ">
<polygon fill="none" stroke="black" points="674,-171.455 674,-189.455 739,-189.455 739,-171.455 674,-171.455"/>
<text text-anchor="middle" x="706.5" y="-178.255" font-family="Calibri" font-size="9.00">oled_wr_str</text>
</a>
</g>
</g>
<!-- Node9&#45;&gt;Node14 -->
<g id="edge13" class="edge"><title>Node9&#45;&gt;Node14</title>
<path fill="none" stroke="midnightblue" d="M638.043,-180.455C646.147,-180.455 655.142,-180.455 663.852,-180.455"/>
<polygon fill="midnightblue" stroke="midnightblue" points="663.877,-183.955 673.877,-180.455 663.877,-176.955 663.877,-183.955"/>
</g>
<!-- Node11 -->
<g id="node11" class="node"><title>Node11</title>
<g id="a_node11"><a xlink:href="oled__control_8c.html#ab7f6b5c6c1483f6286f2de5786c028d9" target="_top" xlink:title=" ">
<polygon fill="none" stroke="black" points="894,-192.455 894,-210.455 966,-210.455 966,-192.455 894,-192.455"/>
<text text-anchor="middle" x="930" y="-199.255" font-family="Calibri" font-size="9.00">Soft_I2C_Start</text>
</a>
</g>
</g>
<!-- Node10&#45;&gt;Node11 -->
<g id="edge10" class="edge"><title>Node10&#45;&gt;Node11</title>
<path fill="none" stroke="midnightblue" d="M843.161,-215.953C855.173,-213.924 869.703,-211.47 883.365,-209.163"/>
<polygon fill="midnightblue" stroke="midnightblue" points="884.31,-212.553 893.588,-207.436 883.144,-205.65 884.31,-212.553"/>
</g>
<!-- Node12 -->
<g id="node12" class="node"><title>Node12</title>
<g id="a_node12"><a xlink:href="oled__control_8c.html#a16eb842aa672ca44820ae6d5f9933425" target="_top" xlink:title=" ">
<polygon fill="none" stroke="black" points="894.5,-248.455 894.5,-266.455 965.5,-266.455 965.5,-248.455 894.5,-248.455"/>
<text text-anchor="middle" x="930" y="-255.255" font-family="Calibri" font-size="9.00">Soft_I2C_Stop</text>
</a>
</g>
</g>
<!-- Node10&#45;&gt;Node12 -->
<g id="edge11" class="edge"><title>Node10&#45;&gt;Node12</title>
<path fill="none" stroke="midnightblue" d="M843.161,-229.224C857.689,-234.002 875.899,-239.991 891.804,-245.222"/>
<polygon fill="midnightblue" stroke="midnightblue" points="890.763,-248.564 901.356,-248.363 892.95,-241.914 890.763,-248.564"/>
</g>
<!-- Node13 -->
<g id="node13" class="node"><title>Node13</title>
<g id="a_node13"><a xlink:href="oled__control_8c.html#a73610916645f17c19124e697b005f694" target="_top" xlink:title=" ">
<polygon fill="none" stroke="black" points="892,-145.455 892,-163.455 968,-163.455 968,-145.455 892,-145.455"/>
<text text-anchor="middle" x="930" y="-152.255" font-family="Calibri" font-size="9.00">Soft_I2C_Write</text>
</a>
</g>
</g>
<!-- Node10&#45;&gt;Node13 -->
<g id="edge12" class="edge"><title>Node10&#45;&gt;Node13</title>
<path fill="none" stroke="midnightblue" d="M832.143,-211.278C850.949,-200.245 882.724,-181.604 904.726,-168.696"/>
<polygon fill="midnightblue" stroke="midnightblue" points="906.636,-171.633 913.49,-163.554 903.094,-165.596 906.636,-171.633"/>
</g>
<!-- Node14&#45;&gt;Node11 -->
<g id="edge17" class="edge"><title>Node14&#45;&gt;Node11</title>
<path fill="none" stroke="midnightblue" d="M739.236,-183.464C777.03,-187.047 840.441,-193.059 883.462,-197.138"/>
<polygon fill="midnightblue" stroke="midnightblue" points="883.376,-200.645 893.662,-198.105 884.037,-193.677 883.376,-200.645"/>
</g>
<!-- Node14&#45;&gt;Node12 -->
<g id="edge18" class="edge"><title>Node14&#45;&gt;Node12</title>
<path fill="none" stroke="midnightblue" d="M712.635,-189.774C725,-211.819 756.752,-266.036 775,-275.455 814.669,-295.932 867.571,-282.324 899.913,-270.199"/>
<polygon fill="midnightblue" stroke="midnightblue" points="901.229,-273.443 909.252,-266.523 898.665,-266.929 901.229,-273.443"/>
</g>
<!-- Node14&#45;&gt;Node13 -->
<g id="edge19" class="edge"><title>Node14&#45;&gt;Node13</title>
<path fill="none" stroke="midnightblue" d="M715.037,-171.203C726.408,-158.062 749.365,-134.577 775,-125.455 818.019,-110.148 870.824,-127.377 902.092,-141.059"/>
<polygon fill="midnightblue" stroke="midnightblue" points="900.897,-144.361 911.448,-145.331 903.805,-137.994 900.897,-144.361"/>
</g>
<!-- Node15 -->
<g id="node15" class="node"><title>Node15</title>
<g id="a_node15"><a xlink:href="oled__control_8c.html#a3cf32ac4d3d7c92be54c385c1ed8cc76" target="_top" xlink:title=" ">
<polygon fill="none" stroke="black" points="775.5,-135.455 775.5,-153.455 855.5,-153.455 855.5,-135.455 775.5,-135.455"/>
<text text-anchor="middle" x="815.5" y="-142.255" font-family="Calibri" font-size="9.00">set_addressing</text>
</a>
</g>
</g>
<!-- Node14&#45;&gt;Node15 -->
<g id="edge14" class="edge"><title>Node14&#45;&gt;Node15</title>
<path fill="none" stroke="midnightblue" d="M734.501,-171.371C747.68,-166.937 763.729,-161.537 777.984,-156.741"/>
<polygon fill="midnightblue" stroke="midnightblue" points="779.146,-160.043 787.508,-153.537 776.914,-153.408 779.146,-160.043"/>
</g>
<!-- Node15&#45;&gt;Node11 -->
<g id="edge15" class="edge"><title>Node15&#45;&gt;Node11</title>
<path fill="none" stroke="midnightblue" d="M834.326,-153.487C852.486,-162.688 880.881,-177.075 901.841,-187.695"/>
<polygon fill="midnightblue" stroke="midnightblue" points="900.383,-190.879 910.885,-192.277 903.546,-184.635 900.383,-190.879"/>
</g>
<!-- Node15&#45;&gt;Node13 -->
<g id="edge16" class="edge"><title>Node15&#45;&gt;Node13</title>
<path fill="none" stroke="midnightblue" d="M855.531,-147.925C864.015,-148.679 873.078,-149.485 881.838,-150.263"/>
<polygon fill="midnightblue" stroke="midnightblue" points="881.66,-153.761 891.931,-151.16 882.28,-146.789 881.66,-153.761"/>
</g>
<!-- Node16&#45;&gt;Node8 -->
<g id="edge28" class="edge"><title>Node16&#45;&gt;Node8</title>
<path fill="none" stroke="midnightblue" d="M218.879,-239.079C239.234,-211.924 302.067,-132.249 371,-86.4554 404.156,-64.4288 447.486,-49.0118 476.785,-40.2159"/>
<polygon fill="midnightblue" stroke="midnightblue" points="477.9,-43.5366 486.523,-37.3808 475.943,-36.8156 477.9,-43.5366"/>
</g>
<!-- Node16&#45;&gt;Node9 -->
<g id="edge46" class="edge"><title>Node16&#45;&gt;Node9</title>
<path fill="none" stroke="midnightblue" d="M216,-257.588C225.084,-277.634 248.84,-326.337 279,-359.455 331.852,-417.492 366.08,-447.4 442,-427.455 491.853,-414.359 510.106,-410.138 543,-370.455 585.928,-318.667 600.794,-236.902 605.507,-199.85"/>
<polygon fill="midnightblue" stroke="midnightblue" points="609.033,-199.821 606.703,-189.485 602.079,-199.018 609.033,-199.821"/>
</g>
<!-- Node17 -->
<g id="node17" class="node"><title>Node17</title>
<g id="a_node17"><a xlink:href="main_8h.html#a9dff326a6079fe726285b11ee837ad60" target="_top" xlink:title=" ">
<polygon fill="none" stroke="black" points="279,-332.455 279,-350.455 335,-350.455 335,-332.455 279,-332.455"/>
<text text-anchor="middle" x="307" y="-339.255" font-family="Calibri" font-size="9.00">atu_reset</text>
</a>
</g>
</g>
<!-- Node16&#45;&gt;Node17 -->
<g id="edge22" class="edge"><title>Node16&#45;&gt;Node17</title>
<path fill="none" stroke="midnightblue" d="M221.357,-257.713C237.263,-273.45 269.77,-305.611 289.547,-325.177"/>
<polygon fill="midnightblue" stroke="midnightblue" points="287.111,-327.691 296.681,-332.236 292.034,-322.714 287.111,-327.691"/>
</g>
<!-- Node21 -->
<g id="node21" class="node"><title>Node21</title>
<g id="a_node21"><a xlink:href="main_8c.html#ae5a14b4884e85f47ad8a4a716f13203a" target="_top" xlink:title=" ">
<polygon fill="none" stroke="black" points="283,-224.455 283,-242.455 331,-242.455 331,-224.455 283,-224.455"/>
<text text-anchor="middle" x="307" y="-231.255" font-family="Calibri" font-size="9.00">lcd_pwr</text>
</a>
</g>
</g>
<!-- Node16&#45;&gt;Node21 -->
<g id="edge29" class="edge"><title>Node16&#45;&gt;Node21</title>
<path fill="none" stroke="midnightblue" d="M243.04,-243.502C252.543,-241.986 263.035,-240.311 272.684,-238.772"/>
<polygon fill="midnightblue" stroke="midnightblue" points="273.413,-242.2 282.737,-237.168 272.31,-235.287 273.413,-242.2"/>
</g>
<!-- Node26 -->
<g id="node26" class="node"><title>Node26</title>
<g id="a_node26"><a xlink:href="main_8h.html#aa3ee146d5fca99f368e8ddb5d5dd72cb" target="_top" xlink:title="Set the state of the switch.">
<polygon fill="none" stroke="black" points="384,-286.455 384,-304.455 429,-304.455 429,-286.455 384,-286.455"/>
<text text-anchor="middle" x="406.5" y="-293.255" font-family="Calibri" font-size="9.00">set_sw</text>
</a>
</g>
</g>
<!-- Node16&#45;&gt;Node26 -->
<g id="edge47" class="edge"><title>Node16&#45;&gt;Node26</title>
<path fill="none" stroke="midnightblue" d="M243.089,-256.007C278.968,-264.722 337.659,-278.977 373.796,-287.755"/>
<polygon fill="midnightblue" stroke="midnightblue" points="373.251,-291.224 383.795,-290.183 374.903,-284.422 373.251,-291.224"/>
</g>
<!-- Node18 -->
<g id="node18" class="node"><title>Node18</title>
<g id="a_node18"><a xlink:href="main_8h.html#a85fb3ccca120f3b843a1dc7567908a04" target="_top" xlink:title=" ">
<polygon fill="none" stroke="black" points="482.5,-342.455 482.5,-360.455 538.5,-360.455 538.5,-342.455 482.5,-342.455"/>
<text text-anchor="middle" x="510.5" y="-349.255" font-family="Calibri" font-size="9.00">delay_ms</text>
</a>
</g>
</g>
<!-- Node17&#45;&gt;Node18 -->
<g id="edge23" class="edge"><title>Node17&#45;&gt;Node18</title>
<path fill="none" stroke="midnightblue" d="M335.201,-346.158C346.271,-347.858 359.211,-349.575 371,-350.455 405.233,-353.012 444.357,-353.029 472.271,-352.542"/>
<polygon fill="midnightblue" stroke="midnightblue" points="472.46,-356.039 482.386,-352.336 472.317,-349.041 472.46,-356.039"/>
</g>
<!-- Node17&#45;&gt;Node19 -->
<g id="edge24" class="edge"><title>Node17&#45;&gt;Node19</title>
<path fill="none" stroke="midnightblue" d="M321.149,-350.491C337.214,-361.53 364.618,-380.362 383.82,-393.557"/>
<polygon fill="midnightblue" stroke="midnightblue" points="382.024,-396.57 392.248,-399.349 385.988,-390.801 382.024,-396.57"/>
</g>
<!-- Node20 -->
<g id="node20" class="node"><title>Node20</title>
<g id="a_node20"><a xlink:href="main_8h.html#aecc83cd8bceb4bc24be844732ead2c2c" target="_top" xlink:title=" ">
<polygon fill="none" stroke="black" points="383,-323.455 383,-341.455 430,-341.455 430,-323.455 383,-323.455"/>
<text text-anchor="middle" x="406.5" y="-330.255" font-family="Calibri" font-size="9.00">set_ind</text>
</a>
</g>
</g>
<!-- Node17&#45;&gt;Node20 -->
<g id="edge26" class="edge"><title>Node17&#45;&gt;Node20</title>
<path fill="none" stroke="midnightblue" d="M335.159,-338.948C346.752,-337.878 360.385,-336.62 372.548,-335.497"/>
<polygon fill="midnightblue" stroke="midnightblue" points="373.133,-338.958 382.769,-334.554 372.49,-331.988 373.133,-338.958"/>
</g>
<!-- Node19&#45;&gt;Node18 -->
<g id="edge25" class="edge"><title>Node19&#45;&gt;Node18</title>
<path fill="none" stroke="midnightblue" d="M423.888,-399.297C440.171,-390.198 465.367,-376.118 484.216,-365.585"/>
<polygon fill="midnightblue" stroke="midnightblue" points="486.131,-368.524 493.153,-360.591 482.716,-362.414 486.131,-368.524"/>
</g>
<!-- Node20&#45;&gt;Node18 -->
<g id="edge27" class="edge"><title>Node20&#45;&gt;Node18</title>
<path fill="none" stroke="midnightblue" d="M430.137,-336.672C442.511,-338.977 458.151,-341.89 472.269,-344.52"/>
<polygon fill="midnightblue" stroke="midnightblue" points="471.74,-347.982 482.212,-346.372 473.022,-341.1 471.74,-347.982"/>
</g>
<!-- Node21&#45;&gt;Node3 -->
<g id="edge37" class="edge"><title>Node21&#45;&gt;Node3</title>
<path fill="none" stroke="midnightblue" d="M311.961,-224.261C320.573,-205.018 342.537,-159.775 371,-129.455 374.034,-126.224 377.57,-123.174 381.201,-120.403"/>
<polygon fill="midnightblue" stroke="midnightblue" points="383.466,-123.089 389.648,-114.484 379.449,-117.356 383.466,-123.089"/>
</g>
<!-- Node21&#45;&gt;Node7 -->
<g id="edge45" class="edge"><title>Node21&#45;&gt;Node7</title>
<path fill="none" stroke="midnightblue" d="M311.408,-224.306C320.238,-200.892 344.989,-137.085 371,-86.4554 377.95,-72.9271 386.862,-58.2589 393.887,-47.1906"/>
<polygon fill="midnightblue" stroke="midnightblue" points="397.006,-48.812 399.478,-38.5096 391.121,-45.0217 397.006,-48.812"/>
</g>
<!-- Node21&#45;&gt;Node9 -->
<g id="edge40" class="edge"><title>Node21&#45;&gt;Node9</title>
<path fill="none" stroke="midnightblue" d="M312.709,-224.291C321.572,-208.185 342.443,-175.295 371,-162.455 388.529,-154.574 506.278,-167.762 568.744,-175.48"/>
<polygon fill="midnightblue" stroke="midnightblue" points="568.643,-178.994 579,-176.759 569.51,-172.048 568.643,-178.994"/>
</g>
<!-- Node21&#45;&gt;Node19 -->
<g id="edge41" class="edge"><title>Node21&#45;&gt;Node19</title>
<path fill="none" stroke="midnightblue" d="M312.77,-242.63C323.114,-262.455 348.491,-310.708 371,-350.455 378.668,-363.995 387.665,-379.097 394.549,-390.496"/>
<polygon fill="midnightblue" stroke="midnightblue" points="391.58,-392.349 399.758,-399.084 397.565,-388.719 391.58,-392.349"/>
</g>
<!-- Node21&#45;&gt;Node20 -->
<g id="edge42" class="edge"><title>Node21&#45;&gt;Node20</title>
<path fill="none" stroke="midnightblue" d="M313.452,-242.584C323.325,-258.536 345.522,-291.84 371,-313.455 372.779,-314.965 374.697,-316.41 376.685,-317.78"/>
<polygon fill="midnightblue" stroke="midnightblue" points="375.285,-321.028 385.637,-323.282 378.95,-315.064 375.285,-321.028"/>
</g>
<!-- Node22 -->
<g id="node22" class="node"><title>Node22</title>
<g id="a_node22"><a xlink:href="main_8c.html#a593218c5fe00b499d494826fc0aa5279" target="_top" xlink:title=" ">
<polygon fill="none" stroke="black" points="371,-172.455 371,-190.455 442,-190.455 442,-172.455 371,-172.455"/>
<text text-anchor="middle" x="406.5" y="-179.255" font-family="Calibri" font-size="9.00">button_delay</text>
</a>
</g>
</g>
<!-- Node21&#45;&gt;Node22 -->
<g id="edge30" class="edge"><title>Node21&#45;&gt;Node22</title>
<path fill="none" stroke="midnightblue" d="M324.983,-224.398C339.99,-216.394 362.112,-204.596 379.372,-195.391"/>
<polygon fill="midnightblue" stroke="midnightblue" points="381.208,-198.378 388.384,-190.584 377.914,-192.201 381.208,-198.378"/>
</g>
<!-- Node23 -->
<g id="node23" class="node"><title>Node23</title>
<g id="a_node23"><a xlink:href="oled__control_8c.html#a5febfdc847aa6f3bc3f3c8f7818b8699" target="_top" xlink:title=" ">
<polygon fill="none" stroke="black" points="675.5,-248.455 675.5,-266.455 737.5,-266.455 737.5,-248.455 675.5,-248.455"/>
<text text-anchor="middle" x="706.5" y="-255.255" font-family="Calibri" font-size="9.00">display_on</text>
</a>
</g>
</g>
<!-- Node21&#45;&gt;Node23 -->
<g id="edge31" class="edge"><title>Node21&#45;&gt;Node23</title>
<path fill="none" stroke="midnightblue" d="M331.29,-236.856C343.153,-238.475 357.82,-240.305 371,-241.455 476.945,-250.701 602.266,-254.903 665.185,-256.549"/>
<polygon fill="midnightblue" stroke="midnightblue" points="665.377,-260.054 675.462,-256.809 665.554,-253.057 665.377,-260.054"/>
</g>
<!-- Node25 -->
<g id="node25" class="node"><title>Node25</title>
<g id="a_node25"><a xlink:href="main_8c.html#aa8fd50019a763561abc6621bb224417f" target="_top" xlink:title=" ">
<polygon fill="none" stroke="black" points="487,-210.455 487,-228.455 534,-228.455 534,-210.455 487,-210.455"/>
<text text-anchor="middle" x="510.5" y="-217.255" font-family="Calibri" font-size="9.00">lcd_swr</text>
</a>
</g>
</g>
<!-- Node21&#45;&gt;Node25 -->
<g id="edge38" class="edge"><title>Node21&#45;&gt;Node25</title>
<path fill="none" stroke="midnightblue" d="M331.115,-231.849C366.966,-229.358 436.096,-224.555 476.971,-221.715"/>
<polygon fill="midnightblue" stroke="midnightblue" points="477.229,-225.206 486.963,-221.021 476.744,-218.223 477.229,-225.206"/>
</g>
<!-- Node21&#45;&gt;Node26 -->
<g id="edge43" class="edge"><title>Node21&#45;&gt;Node26</title>
<path fill="none" stroke="midnightblue" d="M322.386,-242.604C338.228,-252.677 363.92,-269.015 382.55,-280.862"/>
<polygon fill="midnightblue" stroke="midnightblue" points="380.738,-283.857 391.055,-286.27 384.494,-277.95 380.738,-283.857"/>
</g>
<!-- Node23&#45;&gt;Node10 -->
<g id="edge32" class="edge"><title>Node23&#45;&gt;Node10</title>
<path fill="none" stroke="midnightblue" d="M733.675,-248.404C747.147,-243.746 763.779,-237.994 778.447,-232.922"/>
<polygon fill="midnightblue" stroke="midnightblue" points="779.917,-236.117 788.224,-229.541 777.629,-229.502 779.917,-236.117"/>
</g>
<!-- Node24 -->
<g id="node24" class="node"><title>Node24</title>
<g id="a_node24"><a xlink:href="oled__control_8c.html#a78a346ba6e89c3140dd554a46e56c719" target="_top" xlink:title=" ">
<polygon fill="none" stroke="black" points="775,-248.455 775,-266.455 856,-266.455 856,-248.455 775,-248.455"/>
<text text-anchor="middle" x="815.5" y="-255.255" font-family="Calibri" font-size="9.00">send_command</text>
</a>
</g>
</g>
<!-- Node23&#45;&gt;Node24 -->
<g id="edge33" class="edge"><title>Node23&#45;&gt;Node24</title>
<path fill="none" stroke="midnightblue" d="M737.59,-257.455C745.944,-257.455 755.245,-257.455 764.413,-257.455"/>
<polygon fill="midnightblue" stroke="midnightblue" points="764.649,-260.955 774.649,-257.455 764.649,-253.955 764.649,-260.955"/>
</g>
<!-- Node24&#45;&gt;Node11 -->
<g id="edge34" class="edge"><title>Node24&#45;&gt;Node11</title>
<path fill="none" stroke="midnightblue" d="M835.425,-248.45C841.958,-245.316 849.313,-241.758 856,-238.455 871.423,-230.839 888.584,-222.151 902.391,-215.109"/>
<polygon fill="midnightblue" stroke="midnightblue" points="904.038,-218.198 911.35,-210.53 900.853,-211.965 904.038,-218.198"/>
</g>
<!-- Node24&#45;&gt;Node12 -->
<g id="edge35" class="edge"><title>Node24&#45;&gt;Node12</title>
<path fill="none" stroke="midnightblue" d="M856.163,-257.455C865.172,-257.455 874.804,-257.455 884.016,-257.455"/>
<polygon fill="midnightblue" stroke="midnightblue" points="884.182,-260.955 894.182,-257.455 884.182,-253.955 884.182,-260.955"/>
</g>
<!-- Node24&#45;&gt;Node13 -->
<g id="edge36" class="edge"><title>Node24&#45;&gt;Node13</title>
<path fill="none" stroke="midnightblue" d="M840.784,-248.374C846.149,-245.686 851.553,-242.387 856,-238.455 878.168,-218.859 871.893,-204.162 892,-182.455 896.278,-177.837 901.393,-173.428 906.435,-169.532"/>
<polygon fill="midnightblue" stroke="midnightblue" points="908.672,-172.233 914.69,-163.513 904.548,-166.577 908.672,-172.233"/>
</g>
<!-- Node25&#45;&gt;Node9 -->
<g id="edge39" class="edge"><title>Node25&#45;&gt;Node9</title>
<path fill="none" stroke="midnightblue" d="M533.766,-210.41C546.156,-205.376 561.795,-199.023 575.479,-193.464"/>
<polygon fill="midnightblue" stroke="midnightblue" points="577.075,-196.593 585.023,-189.587 574.441,-190.108 577.075,-196.593"/>
</g>
<!-- Node26&#45;&gt;Node18 -->
<g id="edge44" class="edge"><title>Node26&#45;&gt;Node18</title>
<path fill="none" stroke="midnightblue" d="M425.108,-304.505C430.544,-307.335 436.536,-310.493 442,-313.455 456.226,-321.168 471.991,-330.026 484.706,-337.248"/>
<polygon fill="midnightblue" stroke="midnightblue" points="483.337,-340.496 493.758,-342.406 486.802,-334.414 483.337,-340.496"/>
</g>
</g>
</svg>
        <g id="navigator" transform="translate(0 0)" fill="#404254">
                <rect fill="#f2f5e9" fill-opacity="0.5" stroke="#606060" stroke-width=".5" x="0" y="0" width="60" height="60"/>
                <use id="zoomplus" xlink:href="#zoomPlus" x="17" y="9" onmousedown="handleZoom(evt,'in')"/>
                <use id="zoomminus" xlink:href="#zoomMin" x="42" y="9" onmousedown="handleZoom(evt,'out')"/>
                <use id="reset" xlink:href="#resetDef" x="30" y="36" onmousedown="handleReset()"/>
                <g id="arrowUp" xlink:href="#dirArrow" transform="translate(30 24)" onmousedown="handlePan(0,-1)">
                  <use xlink:href="#rim" fill="#404040">
                        <set attributeName="fill" to="#808080" begin="arrowUp.mouseover" end="arrowUp.mouseout"/>
                  </use>
                  <path fill="none" stroke="white" stroke-width="1.5" d="M0,-3.0v7 M-2.5,-0.5L0,-3.0L2.5,-0.5"/>
                </g>
                <g id="arrowRight" xlink:href="#dirArrow" transform="rotate(90) translate(36 -43)" onmousedown="handlePan(1,0)">
                  <use xlink:href="#rim" fill="#404040">
                        <set attributeName="fill" to="#808080" begin="arrowRight.mouseover" end="arrowRight.mouseout"/>
                  </use>
                  <path fill="none" stroke="white" stroke-width="1.5" d="M0,-3.0v7 M-2.5,-0.5L0,-3.0L2.5,-0.5"/>
                </g>
                <g id="arrowDown" xlink:href="#dirArrow" transform="rotate(180) translate(-30 -48)" onmousedown="handlePan(0,1)">
                  <use xlink:href="#rim" fill="#404040">
                        <set attributeName="fill" to="#808080" begin="arrowDown.mouseover" end="arrowDown.mouseout"/>
                  </use>
                  <path fill="none" stroke="white" stroke-width="1.5" d="M0,-3.0v7 M-2.5,-0.5L0,-3.0L2.5,-0.5"/>
                </g>
                <g id="arrowLeft" xlink:href="#dirArrow" transform="rotate(270) translate(-36 17)" onmousedown="handlePan(-1,0)">
                  <use xlink:href="#rim" fill="#404040">
                        <set attributeName="fill" to="#808080" begin="arrowLeft.mouseover" end="arrowLeft.mouseout"/>
                  </use>
                  <path fill="none" stroke="white" stroke-width="1.5" d="M0,-3.0v7 M-2.5,-0.5L0,-3.0L2.5,-0.5"/>
                </g>
        </g>
        <svg viewBox="0 0 15 15" width="100%" height="30px" preserveAspectRatio="xMaxYMin meet">
         <g id="arrow_out" transform="scale(0.3 0.3)">
          <a xlink:href="main_8h_ab518a3d2c723f12d3af3024a195606ce_cgraph_org.svg" target="_base">
           <rect id="button" ry="5" rx="5" y="6" x="6" height="38" width="38"
                fill="#f2f5e9" fill-opacity="0.5" stroke="#606060" stroke-width="1.0"/>
           <path id="arrow"
             d="M 11.500037,31.436501 C 11.940474,20.09759 22.043105,11.32322 32.158766,21.979434 L 37.068811,17.246167 C 37.068811,17.246167 37.088388,32 37.088388,32 L 22.160133,31.978069 C 22.160133,31.978069 26.997745,27.140456 26.997745,27.140456 C 18.528582,18.264221 13.291696,25.230495 11.500037,31.436501 z"
             style="fill:#404040;"/>
          </a>
         </g>
        </svg>
</svg>
