<?xml version="1.0" encoding="UTF-8" standalone="no"?>
<!DOCTYPE svg PUBLIC "-//W3C//DTD SVG 1.1//EN"
 "http://www.w3.org/Graphics/SVG/1.1/DTD/svg11.dtd">
<!-- Generated by graphviz version 2.38.0 (20140413.2041)
 -->
<!-- Title: lcd_prep Pages: 1 -->
<svg width="567pt" height="170pt"
 viewBox="0.00 0.00 567.00 170.19" xmlns="http://www.w3.org/2000/svg" xmlns:xlink="http://www.w3.org/1999/xlink">
<g id="graph0" class="graph" transform="scale(1 1) rotate(0) translate(4 166.194)">
<title>lcd_prep</title>
<!-- Node1 -->
<g id="node1" class="node"><title>Node1</title>
<g id="a_node1"><a xlink:title=" ">
<polygon fill="#bfbfbf" stroke="black" points="0,-74.4684 0,-92.4684 52,-92.4684 52,-74.4684 0,-74.4684"/>
<text text-anchor="middle" x="26" y="-81.2684" font-family="Calibri" font-size="9.00">lcd_prep</text>
</a>
</g>
</g>
<!-- Node2 -->
<g id="node2" class="node"><title>Node2</title>
<g id="a_node2"><a xlink:href="main_8c.html#a6911b3f075cdf1d54cb14f17f6e5ef6b" target="_top" xlink:title=" ">
<polygon fill="none" stroke="black" points="88,-55.4684 88,-73.4684 135,-73.4684 135,-55.4684 88,-55.4684"/>
<text text-anchor="middle" x="111.5" y="-62.2684" font-family="Calibri" font-size="9.00">lcd_ind</text>
</a>
</g>
</g>
<!-- Node1&#45;&gt;Node2 -->
<g id="edge1" class="edge"><title>Node1&#45;&gt;Node2</title>
<path fill="none" stroke="midnightblue" d="M52.0528,-77.7678C60.2012,-75.9137 69.3656,-73.8284 77.9784,-71.8686"/>
<polygon fill="midnightblue" stroke="midnightblue" points="78.7677,-75.2785 87.7419,-69.6469 77.2145,-68.453 78.7677,-75.2785"/>
</g>
<!-- Node3 -->
<g id="node3" class="node"><title>Node3</title>
<g id="a_node3"><a xlink:href="oled__control_8c.html#a1c8eef09adf01c9a7e3c6188f25c3c48" target="_top" xlink:title=" ">
<polygon fill="none" stroke="black" points="171,-74.4684 171,-92.4684 230,-92.4684 230,-74.4684 171,-74.4684"/>
<text text-anchor="middle" x="200.5" y="-81.2684" font-family="Calibri" font-size="9.00">led_wr_str</text>
</a>
</g>
</g>
<!-- Node1&#45;&gt;Node3 -->
<g id="edge14" class="edge"><title>Node1&#45;&gt;Node3</title>
<path fill="none" stroke="midnightblue" d="M52.083,-83.4684C80.5822,-83.4684 127.438,-83.4684 160.668,-83.4684"/>
<polygon fill="midnightblue" stroke="midnightblue" points="160.938,-86.9685 170.938,-83.4684 160.938,-79.9685 160.938,-86.9685"/>
</g>
<!-- Node2&#45;&gt;Node3 -->
<g id="edge2" class="edge"><title>Node2&#45;&gt;Node3</title>
<path fill="none" stroke="midnightblue" d="M135.358,-69.4605C143.174,-71.1674 152.148,-73.1272 160.858,-75.0294"/>
<polygon fill="midnightblue" stroke="midnightblue" points="160.361,-78.5032 170.877,-77.2175 161.854,-71.6644 160.361,-78.5032"/>
</g>
<!-- Node4 -->
<g id="node4" class="node"><title>Node4</title>
<g id="a_node4"><a xlink:href="oled__control_8c.html#a3d35666326cc069eda3b63c70983fdbc" target="_top" xlink:title=" ">
<polygon fill="none" stroke="black" points="271,-112.468 271,-130.468 326,-130.468 326,-112.468 271,-112.468"/>
<text text-anchor="middle" x="298.5" y="-119.268" font-family="Calibri" font-size="9.00">led_send</text>
</a>
</g>
</g>
<!-- Node3&#45;&gt;Node4 -->
<g id="edge3" class="edge"><title>Node3&#45;&gt;Node4</title>
<path fill="none" stroke="midnightblue" d="M224.251,-92.4739C236.476,-97.313 251.755,-103.361 265.192,-108.68"/>
<polygon fill="midnightblue" stroke="midnightblue" points="263.994,-111.97 274.58,-112.396 266.57,-105.461 263.994,-111.97"/>
</g>
<!-- Node8 -->
<g id="node8" class="node"><title>Node8</title>
<g id="a_node8"><a xlink:href="oled__control_8c.html#a6e85fd05697e2238e4d9babf1c952772" target="_top" xlink:title=" ">
<polygon fill="none" stroke="black" points="266,-55.4684 266,-73.4684 331,-73.4684 331,-55.4684 266,-55.4684"/>
<text text-anchor="middle" x="298.5" y="-62.2684" font-family="Calibri" font-size="9.00">oled_wr_str</text>
</a>
</g>
</g>
<!-- Node3&#45;&gt;Node8 -->
<g id="edge7" class="edge"><title>Node3&#45;&gt;Node8</title>
<path fill="none" stroke="midnightblue" d="M230.043,-77.8193C238.147,-76.2154 247.142,-74.4352 255.852,-72.7112"/>
<polygon fill="midnightblue" stroke="midnightblue" points="256.747,-76.1022 265.877,-70.7272 255.388,-69.2354 256.747,-76.1022"/>
</g>
<!-- Node5 -->
<g id="node5" class="node"><title>Node5</title>
<g id="a_node5"><a xlink:href="oled__control_8c.html#ab7f6b5c6c1483f6286f2de5786c028d9" target="_top" xlink:title=" ">
<polygon fill="none" stroke="black" points="485,-17.4684 485,-35.4684 557,-35.4684 557,-17.4684 485,-17.4684"/>
<text text-anchor="middle" x="521" y="-24.2684" font-family="Calibri" font-size="9.00">Soft_I2C_Start</text>
</a>
</g>
</g>
<!-- Node4&#45;&gt;Node5 -->
<g id="edge4" class="edge"><title>Node4&#45;&gt;Node5</title>
<path fill="none" stroke="midnightblue" d="M326.078,-129.418C357.552,-137.154 410.322,-144.679 447,-121.468 478.583,-101.482 456.998,-72.3168 483,-45.4684 484.551,-43.8669 486.266,-42.3753 488.083,-40.9904"/>
<polygon fill="midnightblue" stroke="midnightblue" points="489.977,-43.9337 496.509,-35.5921 486.201,-38.0396 489.977,-43.9337"/>
</g>
<!-- Node6 -->
<g id="node6" class="node"><title>Node6</title>
<g id="a_node6"><a xlink:href="oled__control_8c.html#a16eb842aa672ca44820ae6d5f9933425" target="_top" xlink:title=" ">
<polygon fill="none" stroke="black" points="371.5,-93.4684 371.5,-111.468 442.5,-111.468 442.5,-93.4684 371.5,-93.4684"/>
<text text-anchor="middle" x="407" y="-100.268" font-family="Calibri" font-size="9.00">Soft_I2C_Stop</text>
</a>
</g>
</g>
<!-- Node4&#45;&gt;Node6 -->
<g id="edge5" class="edge"><title>Node4&#45;&gt;Node6</title>
<path fill="none" stroke="midnightblue" d="M326.1,-116.723C336.785,-114.817 349.4,-112.566 361.411,-110.423"/>
<polygon fill="midnightblue" stroke="midnightblue" points="362.072,-113.861 371.302,-108.659 360.842,-106.97 362.072,-113.861"/>
</g>
<!-- Node7 -->
<g id="node7" class="node"><title>Node7</title>
<g id="a_node7"><a xlink:href="oled__control_8c.html#a73610916645f17c19124e697b005f694" target="_top" xlink:title=" ">
<polygon fill="none" stroke="black" points="483,-55.4684 483,-73.4684 559,-73.4684 559,-55.4684 483,-55.4684"/>
<text text-anchor="middle" x="521" y="-62.2684" font-family="Calibri" font-size="9.00">Soft_I2C_Write</text>
</a>
</g>
</g>
<!-- Node4&#45;&gt;Node7 -->
<g id="edge6" class="edge"><title>Node4&#45;&gt;Node7</title>
<path fill="none" stroke="midnightblue" d="M314.019,-130.688C341.29,-146.742 401.517,-176.14 447,-154.468 478.045,-139.676 500.177,-104.514 511.459,-82.7782"/>
<polygon fill="midnightblue" stroke="midnightblue" points="514.704,-84.1117 515.994,-73.5957 508.427,-81.0115 514.704,-84.1117"/>
</g>
<!-- Node8&#45;&gt;Node5 -->
<g id="edge11" class="edge"><title>Node8&#45;&gt;Node5</title>
<path fill="none" stroke="midnightblue" d="M306.588,-55.3372C317.727,-41.8215 340.783,-17.0571 367,-7.46845 407.036,7.17429 456.474,-3.75588 488.12,-14.1072"/>
<polygon fill="midnightblue" stroke="midnightblue" points="487.141,-17.4715 497.735,-17.4146 489.418,-10.8521 487.141,-17.4715"/>
</g>
<!-- Node8&#45;&gt;Node6 -->
<g id="edge12" class="edge"><title>Node8&#45;&gt;Node6</title>
<path fill="none" stroke="midnightblue" d="M324.739,-73.4739C338.565,-78.407 355.912,-84.5966 371.024,-89.9888"/>
<polygon fill="midnightblue" stroke="midnightblue" points="369.978,-93.3317 380.573,-93.3959 372.331,-86.7389 369.978,-93.3317"/>
</g>
<!-- Node8&#45;&gt;Node7 -->
<g id="edge13" class="edge"><title>Node8&#45;&gt;Node7</title>
<path fill="none" stroke="midnightblue" d="M331.092,-64.4684C368.166,-64.4684 430.001,-64.4684 472.776,-64.4684"/>
<polygon fill="midnightblue" stroke="midnightblue" points="472.944,-67.9685 482.944,-64.4684 472.944,-60.9685 472.944,-67.9685"/>
</g>
<!-- Node9 -->
<g id="node9" class="node"><title>Node9</title>
<g id="a_node9"><a xlink:href="oled__control_8c.html#a3cf32ac4d3d7c92be54c385c1ed8cc76" target="_top" xlink:title=" ">
<polygon fill="none" stroke="black" points="367,-17.4684 367,-35.4684 447,-35.4684 447,-17.4684 367,-17.4684"/>
<text text-anchor="middle" x="407" y="-24.2684" font-family="Calibri" font-size="9.00">set_addressing</text>
</a>
</g>
</g>
<!-- Node8&#45;&gt;Node9 -->
<g id="edge8" class="edge"><title>Node8&#45;&gt;Node9</title>
<path fill="none" stroke="midnightblue" d="M324.739,-55.463C338.565,-50.5299 355.912,-44.3403 371.024,-38.9481"/>
<polygon fill="midnightblue" stroke="midnightblue" points="372.331,-42.198 380.573,-35.541 369.978,-35.6051 372.331,-42.198"/>
</g>
<!-- Node9&#45;&gt;Node5 -->
<g id="edge9" class="edge"><title>Node9&#45;&gt;Node5</title>
<path fill="none" stroke="midnightblue" d="M447.172,-26.4684C456.064,-26.4684 465.579,-26.4684 474.701,-26.4684"/>
<polygon fill="midnightblue" stroke="midnightblue" points="474.779,-29.9685 484.779,-26.4684 474.779,-22.9685 474.779,-29.9685"/>
</g>
<!-- Node9&#45;&gt;Node7 -->
<g id="edge10" class="edge"><title>Node9&#45;&gt;Node7</title>
<path fill="none" stroke="midnightblue" d="M434.542,-35.4739C449.22,-40.4539 467.673,-46.7146 483.671,-52.1427"/>
<polygon fill="midnightblue" stroke="midnightblue" points="482.666,-55.4973 493.26,-55.3959 484.915,-48.8685 482.666,-55.4973"/>
</g>
</g>
</svg>
