<?xml version="1.0" encoding="UTF-8" standalone="no"?>
<!DOCTYPE svg PUBLIC "-//W3C//DTD SVG 1.1//EN"
 "http://www.w3.org/Graphics/SVG/1.1/DTD/svg11.dtd">
<!-- Generated by graphviz version 2.38.0 (20140413.2041)
 -->
<!-- Title: ADC_DefaultInterruptHandler Pages: 1 -->
<svg width="454pt" height="27pt"
 viewBox="0.00 0.00 454.00 27.00" xmlns="http://www.w3.org/2000/svg" xmlns:xlink="http://www.w3.org/1999/xlink">
<g id="graph0" class="graph" transform="scale(1 1) rotate(0) translate(4 23)">
<title>ADC_DefaultInterruptHandler</title>
<!-- Node1 -->
<g id="node1" class="node"><title>Node1</title>
<g id="a_node1"><a xlink:title=" ">
<polygon fill="#bfbfbf" stroke="black" points="309,-0.5 309,-18.5 446,-18.5 446,-0.5 309,-0.5"/>
<text text-anchor="middle" x="377.5" y="-7.3" font-family="Calibri" font-size="9.00">ADC_DefaultInterruptHandler</text>
</a>
</g>
</g>
<!-- Node2 -->
<g id="node2" class="node"><title>Node2</title>
<g id="a_node2"><a xlink:href="mcc__generated__files_2adc_8c.html#ab0e0ea1662a8e789547210a2d33127e1" target="_top" xlink:title=" ">
<polygon fill="none" stroke="black" points="199,-0.5 199,-18.5 273,-18.5 273,-0.5 199,-0.5"/>
<text text-anchor="middle" x="236" y="-7.3" font-family="Calibri" font-size="9.00">ADC_Initialize</text>
</a>
</g>
</g>
<!-- Node1&#45;&gt;Node2 -->
<g id="edge1" class="edge"><title>Node1&#45;&gt;Node2</title>
<path fill="none" stroke="midnightblue" d="M298.669,-9.5C289.742,-9.5 280.994,-9.5 273.02,-9.5"/>
<polygon fill="midnightblue" stroke="midnightblue" points="298.793,-13.0001 308.793,-9.5 298.793,-6.0001 298.793,-13.0001"/>
</g>
<!-- Node3 -->
<g id="node3" class="node"><title>Node3</title>
<g id="a_node3"><a xlink:href="mcc_8c.html#a5e8391114a0cf91ac20002be25e3d352" target="_top" xlink:title=" ">
<polygon fill="none" stroke="black" points="74,-0.5 74,-18.5 163,-18.5 163,-0.5 74,-0.5"/>
<text text-anchor="middle" x="118.5" y="-7.3" font-family="Calibri" font-size="9.00">SYSTEM_Initialize</text>
</a>
</g>
</g>
<!-- Node2&#45;&gt;Node3 -->
<g id="edge2" class="edge"><title>Node2&#45;&gt;Node3</title>
<path fill="none" stroke="midnightblue" d="M188.751,-9.5C180.357,-9.5 171.624,-9.5 163.303,-9.5"/>
<polygon fill="midnightblue" stroke="midnightblue" points="188.772,-13.0001 198.772,-9.5 188.772,-6.0001 188.772,-13.0001"/>
</g>
<!-- Node4 -->
<g id="node4" class="node"><title>Node4</title>
<g id="a_node4"><a xlink:href="main_8c.html#a6288eba0f8e8ad3ab1544ad731eb7667" target="_top" xlink:title=" ">
<polygon fill="none" stroke="black" points="0,-0.5 0,-18.5 38,-18.5 38,-0.5 0,-0.5"/>
<text text-anchor="middle" x="19" y="-7.3" font-family="Calibri" font-size="9.00">main</text>
</a>
</g>
</g>
<!-- Node3&#45;&gt;Node4 -->
<g id="edge3" class="edge"><title>Node3&#45;&gt;Node4</title>
<path fill="none" stroke="midnightblue" d="M63.8291,-9.5C54.5911,-9.5 45.5913,-9.5 38.1747,-9.5"/>
<polygon fill="midnightblue" stroke="midnightblue" points="63.8832,-13.0001 73.8831,-9.5 63.8831,-6.0001 63.8832,-13.0001"/>
</g>
</g>
</svg>
