<?xml version="1.0" encoding="UTF-8" standalone="no"?>
<!DOCTYPE svg PUBLIC "-//W3C//DTD SVG 1.1//EN"
 "http://www.w3.org/Graphics/SVG/1.1/DTD/svg11.dtd">
<!-- Generated by graphviz version 2.38.0 (20140413.2041)
 -->
<!-- Title: mcc_generated_files/mcc.h Pages: 1 -->
<svg width="293pt" height="102pt"
 viewBox="0.00 0.00 292.50 102.00" xmlns="http://www.w3.org/2000/svg" xmlns:xlink="http://www.w3.org/1999/xlink">
<g id="graph0" class="graph" transform="scale(1 1) rotate(0) translate(4 98)">
<title>mcc_generated_files/mcc.h</title>
<!-- Node1 -->
<g id="node1" class="node"><title>Node1</title>
<g id="a_node1"><a xlink:title=" ">
<polygon fill="#bfbfbf" stroke="black" points="63.5,-65.5 63.5,-93.5 164.5,-93.5 164.5,-65.5 63.5,-65.5"/>
<text text-anchor="start" x="71.5" y="-82.3" font-family="Calibri" font-size="9.00">mcc_generated_files</text>
<text text-anchor="middle" x="114" y="-72.3" font-family="Calibri" font-size="9.00">/mcc.h</text>
</a>
</g>
</g>
<!-- Node2 -->
<g id="node2" class="node"><title>Node2</title>
<g id="a_node2"><a xlink:href="main_8c.html" target="_top" xlink:title=" ">
<polygon fill="none" stroke="black" points="0,-5.5 0,-23.5 44,-23.5 44,-5.5 0,-5.5"/>
<text text-anchor="middle" x="22" y="-12.3" font-family="Calibri" font-size="9.00">main.c</text>
</a>
</g>
</g>
<!-- Node1&#45;&gt;Node2 -->
<g id="edge1" class="edge"><title>Node1&#45;&gt;Node2</title>
<path fill="none" stroke="midnightblue" d="M86.2141,-59.4727C68.6676,-47.4572 46.9042,-32.554 33.7526,-23.548"/>
<polygon fill="midnightblue" stroke="midnightblue" points="84.7091,-62.6841 94.9375,-65.4464 88.6642,-56.9085 84.7091,-62.6841"/>
</g>
<!-- Node3 -->
<g id="node3" class="node"><title>Node3</title>
<g id="a_node3"><a xlink:href="interrupt__manager_8c.html" target="_top" xlink:title=" ">
<polygon fill="none" stroke="black" points="62.5,-0.5 62.5,-28.5 165.5,-28.5 165.5,-0.5 62.5,-0.5"/>
<text text-anchor="start" x="70.5" y="-17.3" font-family="Calibri" font-size="9.00">mcc_generated_files</text>
<text text-anchor="middle" x="114" y="-7.3" font-family="Calibri" font-size="9.00">/interrupt_manager.c</text>
</a>
</g>
</g>
<!-- Node1&#45;&gt;Node3 -->
<g id="edge2" class="edge"><title>Node1&#45;&gt;Node3</title>
<path fill="none" stroke="midnightblue" d="M114,-55.1641C114,-46.1693 114,-36.2205 114,-28.5369"/>
<polygon fill="midnightblue" stroke="midnightblue" points="110.5,-55.4463 114,-65.4464 117.5,-55.4464 110.5,-55.4463"/>
</g>
<!-- Node4 -->
<g id="node4" class="node"><title>Node4</title>
<g id="a_node4"><a xlink:href="mcc_8c.html" target="_top" xlink:title=" ">
<polygon fill="none" stroke="black" points="183.5,-0.5 183.5,-28.5 284.5,-28.5 284.5,-0.5 183.5,-0.5"/>
<text text-anchor="start" x="191.5" y="-17.3" font-family="Calibri" font-size="9.00">mcc_generated_files</text>
<text text-anchor="middle" x="234" y="-7.3" font-family="Calibri" font-size="9.00">/mcc.c</text>
</a>
</g>
</g>
<!-- Node1&#45;&gt;Node4 -->
<g id="edge3" class="edge"><title>Node1&#45;&gt;Node4</title>
<path fill="none" stroke="midnightblue" d="M147.746,-60.7834C167.263,-50.5371 191.396,-37.867 209.168,-28.5369"/>
<polygon fill="midnightblue" stroke="midnightblue" points="146.091,-57.6991 138.864,-65.4464 149.345,-63.8969 146.091,-57.6991"/>
</g>
</g>
</svg>
