<?xml version="1.0" encoding="UTF-8" standalone="no"?>
<!DOCTYPE svg PUBLIC "-//W3C//DTD SVG 1.1//EN"
 "http://www.w3.org/Graphics/SVG/1.1/DTD/svg11.dtd">
<!-- Generated by graphviz version 2.38.0 (20140413.2041)
 -->
<!-- Title: mcc_generated_files/mcc.h Pages: 1 -->
<!--zoomable 147 -->
<svg id="main" version="1.1" xmlns="http://www.w3.org/2000/svg" xmlns:xlink="http://www.w3.org/1999/xlink" xml:space="preserve" onload="init(evt)">
<style type="text/css"><![CDATA[
.edge:hover path { stroke: red; }
.edge:hover polygon { stroke: red; fill: red; }
]]></style>
<script type="text/javascript"><![CDATA[
var edges = document.getElementsByTagName('g');
if (edges && edges.length) {
  for (var i=0;i<edges.length;i++) {
    if (edges[i].id.substr(0,4)=='edge') {
      edges[i].setAttribute('class','edge');
    }
  }
}
]]></script>
        <defs>
                <circle id="rim" cx="0" cy="0" r="7"/>
                <circle id="rim2" cx="0" cy="0" r="3.5"/>
                <g id="zoomPlus">
                        <use xlink:href="#rim" fill="#404040">
                                <set attributeName="fill" to="#808080" begin="zoomplus.mouseover" end="zoomplus.mouseout"/>
                        </use>
                        <path d="M-4,0h8M0,-4v8" fill="none" stroke="white" stroke-width="1.5" pointer-events="none"/>
                </g>
                <g id="zoomMin">
                        <use xlink:href="#rim" fill="#404040">
                                <set attributeName="fill" to="#808080" begin="zoomminus.mouseover" end="zoomminus.mouseout"/>
                        </use>
                        <path d="M-4,0h8" fill="none" stroke="white" stroke-width="1.5" pointer-events="none"/>
                </g>
                <g id="dirArrow">
                        <path fill="none" stroke="white" stroke-width="1.5" d="M0,-3.0v7 M-2.5,-0.5L0,-3.0L2.5,-0.5"/>
                </g>
               <g id="resetDef">
                       <use xlink:href="#rim2" fill="#404040">
                               <set attributeName="fill" to="#808080" begin="reset.mouseover" end="reset.mouseout"/>
                       </use>
               </g>
        </defs>

<script type="text/javascript">
var viewWidth = 585;
var viewHeight = 147;
var sectionId = 'dynsection-0';
</script>
<script xlink:href="svgpan.js"/>
<svg id="graph" class="graph">
<g id="viewport">
<title>mcc_generated_files/mcc.h</title>
<!-- Node1 -->
<g id="node1" class="node"><title>Node1</title>
<g id="a_node1"><a xlink:title=" ">
<polygon fill="#bfbfbf" stroke="black" points="186.75,-110.5 186.75,-138.5 287.75,-138.5 287.75,-110.5 186.75,-110.5"/>
<text text-anchor="start" x="194.75" y="-127.3" font-family="Calibri" font-size="9.00">mcc_generated_files</text>
<text text-anchor="middle" x="237.25" y="-117.3" font-family="Calibri" font-size="9.00">/mcc.h</text>
</a>
</g>
</g>
<!-- Node2 -->
<g id="node2" class="node"><title>Node2</title>
<g id="a_node2"><a xlink:title=" ">
<polygon fill="none" stroke="#bfbfbf" points="76.2499,-0.5 76.2499,-18.5 108.25,-18.5 108.25,-0.5 76.2499,-0.5"/>
<text text-anchor="middle" x="92.2499" y="-7.3" font-family="Calibri" font-size="9.00">xc.h</text>
</a>
</g>
</g>
<!-- Node1&#45;&gt;Node2 -->
<g id="edge1" class="edge"><title>Node1&#45;&gt;Node2</title>
<path fill="none" stroke="midnightblue" d="M186.702,-119.974C125.447,-114.526 27.6261,-101.654 5.24989,-74 -15.4468,-48.4215 33.4085,-28.0059 65.9828,-17.7398"/>
<polygon fill="midnightblue" stroke="midnightblue" points="67.3064,-20.9968 75.878,-14.7696 65.2939,-14.2923 67.3064,-20.9968"/>
</g>
<!-- Node3 -->
<g id="node3" class="node"><title>Node3</title>
<g id="a_node3"><a xlink:href="device__config_8h.html" target="_top" xlink:title=" ">
<polygon fill="none" stroke="black" points="312.25,-55.5 312.25,-73.5 392.25,-73.5 392.25,-55.5 312.25,-55.5"/>
<text text-anchor="middle" x="352.25" y="-62.3" font-family="Calibri" font-size="9.00">device_config.h</text>
</a>
</g>
</g>
<!-- Node1&#45;&gt;Node3 -->
<g id="edge2" class="edge"><title>Node1&#45;&gt;Node3</title>
<path fill="none" stroke="midnightblue" d="M263.058,-110.484C282.206,-100.826 308.173,-87.73 327.15,-78.159"/>
<polygon fill="midnightblue" stroke="midnightblue" points="328.751,-81.2717 336.103,-73.6434 325.599,-75.0216 328.751,-81.2717"/>
</g>
<!-- Node4 -->
<g id="node4" class="node"><title>Node4</title>
<g id="a_node4"><a xlink:href="pin__manager_8h.html" target="_top" xlink:title=" ">
<polygon fill="none" stroke="black" points="14.2499,-55.5 14.2499,-73.5 92.2499,-73.5 92.2499,-55.5 14.2499,-55.5"/>
<text text-anchor="middle" x="53.2499" y="-62.3" font-family="Calibri" font-size="9.00">pin_manager.h</text>
</a>
</g>
</g>
<!-- Node1&#45;&gt;Node4 -->
<g id="edge3" class="edge"><title>Node1&#45;&gt;Node4</title>
<path fill="none" stroke="midnightblue" d="M195.957,-110.484C163.686,-100.311 119.31,-86.3232 88.65,-76.6587"/>
<polygon fill="midnightblue" stroke="midnightblue" points="89.4051,-73.227 78.8154,-73.5587 87.3006,-79.9032 89.4051,-73.227"/>
</g>
<!-- Node5 -->
<g id="node5" class="node"><title>Node5</title>
<g id="a_node5"><a xlink:title=" ">
<polygon fill="none" stroke="#bfbfbf" points="172.25,-0.5 172.25,-18.5 220.25,-18.5 220.25,-0.5 172.25,-0.5"/>
<text text-anchor="middle" x="196.25" y="-7.3" font-family="Calibri" font-size="9.00">stdint.h</text>
</a>
</g>
</g>
<!-- Node1&#45;&gt;Node5 -->
<g id="edge5" class="edge"><title>Node1&#45;&gt;Node5</title>
<path fill="none" stroke="midnightblue" d="M228.199,-110.194C222.018,-100.535 214.098,-86.9446 209.25,-74 203.694,-59.166 200.318,-41.446 198.404,-28.499"/>
<polygon fill="midnightblue" stroke="midnightblue" points="201.867,-27.994 197.08,-18.5425 194.928,-28.9165 201.867,-27.994"/>
</g>
<!-- Node6 -->
<g id="node6" class="node"><title>Node6</title>
<g id="a_node6"><a xlink:title=" ">
<polygon fill="none" stroke="#bfbfbf" points="250.25,-0.5 250.25,-18.5 306.25,-18.5 306.25,-0.5 250.25,-0.5"/>
<text text-anchor="middle" x="278.25" y="-7.3" font-family="Calibri" font-size="9.00">stdbool.h</text>
</a>
</g>
</g>
<!-- Node1&#45;&gt;Node6 -->
<g id="edge6" class="edge"><title>Node1&#45;&gt;Node6</title>
<path fill="none" stroke="midnightblue" d="M246.301,-110.194C252.482,-100.535 260.402,-86.9446 265.25,-74 270.806,-59.166 274.182,-41.446 276.096,-28.499"/>
<polygon fill="midnightblue" stroke="midnightblue" points="279.571,-28.9165 277.42,-18.5425 272.632,-27.994 279.571,-28.9165"/>
</g>
<!-- Node7 -->
<g id="node7" class="node"><title>Node7</title>
<g id="a_node7"><a xlink:title=" ">
<polygon fill="none" stroke="#bfbfbf" points="410.75,-55.5 410.75,-73.5 457.75,-73.5 457.75,-55.5 410.75,-55.5"/>
<text text-anchor="middle" x="434.25" y="-62.3" font-family="Calibri" font-size="9.00">conio.h</text>
</a>
</g>
</g>
<!-- Node1&#45;&gt;Node7 -->
<g id="edge7" class="edge"><title>Node1&#45;&gt;Node7</title>
<path fill="none" stroke="midnightblue" d="M281.461,-110.484C317.648,-99.8294 368.054,-84.9892 400.913,-75.3151"/>
<polygon fill="midnightblue" stroke="midnightblue" points="401.907,-78.6708 410.512,-72.4889 399.93,-71.9558 401.907,-78.6708"/>
</g>
<!-- Node8 -->
<g id="node8" class="node"><title>Node8</title>
<g id="a_node8"><a xlink:href="interrupt__manager_8h.html" target="_top" xlink:title=" ">
<polygon fill="none" stroke="black" points="475.75,-55.5 475.75,-73.5 576.75,-73.5 576.75,-55.5 475.75,-55.5"/>
<text text-anchor="middle" x="526.25" y="-62.3" font-family="Calibri" font-size="9.00">interrupt_manager.h</text>
</a>
</g>
</g>
<!-- Node1&#45;&gt;Node8 -->
<g id="edge8" class="edge"><title>Node1&#45;&gt;Node8</title>
<path fill="none" stroke="midnightblue" d="M287.921,-113.331C340.887,-102.701 423.484,-86.1242 476.213,-75.5421"/>
<polygon fill="midnightblue" stroke="midnightblue" points="477.227,-78.9084 486.342,-73.5091 475.849,-72.0453 477.227,-78.9084"/>
</g>
<!-- Node9 -->
<g id="node9" class="node"><title>Node9</title>
<g id="a_node9"><a xlink:href="ext__int_8h.html" target="_top" xlink:title=" ">
<polygon fill="none" stroke="black" points="110.25,-55.5 110.25,-73.5 162.25,-73.5 162.25,-55.5 110.25,-55.5"/>
<text text-anchor="middle" x="136.25" y="-62.3" font-family="Calibri" font-size="9.00">ext_int.h</text>
</a>
</g>
</g>
<!-- Node1&#45;&gt;Node9 -->
<g id="edge9" class="edge"><title>Node1&#45;&gt;Node9</title>
<path fill="none" stroke="midnightblue" d="M214.584,-110.484C198.15,-101.047 175.999,-88.3262 159.445,-78.82"/>
<polygon fill="midnightblue" stroke="midnightblue" points="160.845,-75.5882 150.431,-73.6434 157.36,-81.6585 160.845,-75.5882"/>
</g>
<!-- Node10 -->
<g id="node10" class="node"><title>Node10</title>
<g id="a_node10"><a xlink:href="adc_8h.html" target="_top" xlink:title=" ">
<polygon fill="none" stroke="black" points="218.25,-55.5 218.25,-73.5 256.25,-73.5 256.25,-55.5 218.25,-55.5"/>
<text text-anchor="middle" x="237.25" y="-62.3" font-family="Calibri" font-size="9.00">adc.h</text>
</a>
</g>
</g>
<!-- Node1&#45;&gt;Node10 -->
<g id="edge11" class="edge"><title>Node1&#45;&gt;Node10</title>
<path fill="none" stroke="midnightblue" d="M237.25,-110.339C237.25,-102.531 237.25,-92.5122 237.25,-83.9265"/>
<polygon fill="midnightblue" stroke="midnightblue" points="240.75,-83.7714 237.25,-73.7715 233.75,-83.7715 240.75,-83.7714"/>
</g>
<!-- Node4&#45;&gt;Node2 -->
<g id="edge4" class="edge"><title>Node4&#45;&gt;Node2</title>
<path fill="none" stroke="midnightblue" d="M59.3436,-55.2188C64.9284,-47.6292 73.3568,-36.1753 80.2852,-26.7597"/>
<polygon fill="midnightblue" stroke="midnightblue" points="83.2188,-28.6784 86.3266,-18.5496 77.5807,-24.5296 83.2188,-28.6784"/>
</g>
<!-- Node9&#45;&gt;Node2 -->
<g id="edge10" class="edge"><title>Node9&#45;&gt;Node2</title>
<path fill="none" stroke="midnightblue" d="M129.375,-55.2188C123.009,-47.5509 113.369,-35.9387 105.507,-26.4691"/>
<polygon fill="midnightblue" stroke="midnightblue" points="108.013,-24.008 98.9325,-18.5496 102.627,-28.4793 108.013,-24.008"/>
</g>
<!-- Node10&#45;&gt;Node2 -->
<g id="edge12" class="edge"><title>Node10&#45;&gt;Node2</title>
<path fill="none" stroke="midnightblue" d="M217.995,-56.462C192.335,-47.0827 146.841,-30.454 118.181,-19.9782"/>
<polygon fill="midnightblue" stroke="midnightblue" points="119.045,-16.5677 108.451,-16.4219 116.642,-23.1423 119.045,-16.5677"/>
</g>
<!-- Node10&#45;&gt;Node5 -->
<g id="edge13" class="edge"><title>Node10&#45;&gt;Node5</title>
<path fill="none" stroke="midnightblue" d="M230.844,-55.2188C224.912,-47.5509 215.929,-35.9387 208.603,-26.4691"/>
<polygon fill="midnightblue" stroke="midnightblue" points="211.364,-24.3176 202.477,-18.5496 205.827,-28.6007 211.364,-24.3176"/>
</g>
<!-- Node10&#45;&gt;Node6 -->
<g id="edge14" class="edge"><title>Node10&#45;&gt;Node6</title>
<path fill="none" stroke="midnightblue" d="M243.656,-55.2188C249.588,-47.5509 258.571,-35.9387 265.896,-26.4691"/>
<polygon fill="midnightblue" stroke="midnightblue" points="268.672,-28.6007 272.023,-18.5496 263.136,-24.3176 268.672,-28.6007"/>
</g>
</g>
</svg>
        <g id="navigator" transform="translate(0 0)" fill="#404254">
                <rect fill="#f2f5e9" fill-opacity="0.5" stroke="#606060" stroke-width=".5" x="0" y="0" width="60" height="60"/>
                <use id="zoomplus" xlink:href="#zoomPlus" x="17" y="9" onmousedown="handleZoom(evt,'in')"/>
                <use id="zoomminus" xlink:href="#zoomMin" x="42" y="9" onmousedown="handleZoom(evt,'out')"/>
                <use id="reset" xlink:href="#resetDef" x="30" y="36" onmousedown="handleReset()"/>
                <g id="arrowUp" xlink:href="#dirArrow" transform="translate(30 24)" onmousedown="handlePan(0,-1)">
                  <use xlink:href="#rim" fill="#404040">
                        <set attributeName="fill" to="#808080" begin="arrowUp.mouseover" end="arrowUp.mouseout"/>
                  </use>
                  <path fill="none" stroke="white" stroke-width="1.5" d="M0,-3.0v7 M-2.5,-0.5L0,-3.0L2.5,-0.5"/>
                </g>
                <g id="arrowRight" xlink:href="#dirArrow" transform="rotate(90) translate(36 -43)" onmousedown="handlePan(1,0)">
                  <use xlink:href="#rim" fill="#404040">
                        <set attributeName="fill" to="#808080" begin="arrowRight.mouseover" end="arrowRight.mouseout"/>
                  </use>
                  <path fill="none" stroke="white" stroke-width="1.5" d="M0,-3.0v7 M-2.5,-0.5L0,-3.0L2.5,-0.5"/>
                </g>
                <g id="arrowDown" xlink:href="#dirArrow" transform="rotate(180) translate(-30 -48)" onmousedown="handlePan(0,1)">
                  <use xlink:href="#rim" fill="#404040">
                        <set attributeName="fill" to="#808080" begin="arrowDown.mouseover" end="arrowDown.mouseout"/>
                  </use>
                  <path fill="none" stroke="white" stroke-width="1.5" d="M0,-3.0v7 M-2.5,-0.5L0,-3.0L2.5,-0.5"/>
                </g>
                <g id="arrowLeft" xlink:href="#dirArrow" transform="rotate(270) translate(-36 17)" onmousedown="handlePan(-1,0)">
                  <use xlink:href="#rim" fill="#404040">
                        <set attributeName="fill" to="#808080" begin="arrowLeft.mouseover" end="arrowLeft.mouseout"/>
                  </use>
                  <path fill="none" stroke="white" stroke-width="1.5" d="M0,-3.0v7 M-2.5,-0.5L0,-3.0L2.5,-0.5"/>
                </g>
        </g>
        <svg viewBox="0 0 15 15" width="100%" height="30px" preserveAspectRatio="xMaxYMin meet">
         <g id="arrow_out" transform="scale(0.3 0.3)">
          <a xlink:href="mcc_8h__incl_org.svg" target="_base">
           <rect id="button" ry="5" rx="5" y="6" x="6" height="38" width="38"
                fill="#f2f5e9" fill-opacity="0.5" stroke="#606060" stroke-width="1.0"/>
           <path id="arrow"
             d="M 11.500037,31.436501 C 11.940474,20.09759 22.043105,11.32322 32.158766,21.979434 L 37.068811,17.246167 C 37.068811,17.246167 37.088388,32 37.088388,32 L 22.160133,31.978069 C 22.160133,31.978069 26.997745,27.140456 26.997745,27.140456 C 18.528582,18.264221 13.291696,25.230495 11.500037,31.436501 z"
             style="fill:#404040;"/>
          </a>
         </g>
        </svg>
</svg>
