<?xml version="1.0" encoding="UTF-8" standalone="no"?>
<!DOCTYPE svg PUBLIC "-//W3C//DTD SVG 1.1//EN"
 "http://www.w3.org/Graphics/SVG/1.1/DTD/svg11.dtd">
<!-- Generated by graphviz version 2.38.0 (20140413.2041)
 -->
<!-- Title: mcc_generated_files/adc.c Pages: 1 -->
<svg width="196pt" height="147pt"
 viewBox="0.00 0.00 196.00 147.00" xmlns="http://www.w3.org/2000/svg" xmlns:xlink="http://www.w3.org/1999/xlink">
<g id="graph0" class="graph" transform="scale(1 1) rotate(0) translate(4 143)">
<title>mcc_generated_files/adc.c</title>
<!-- Node1 -->
<g id="node1" class="node"><title>Node1</title>
<g id="a_node1"><a xlink:title=" ">
<polygon fill="#bfbfbf" stroke="black" points="20.5,-110.5 20.5,-138.5 121.5,-138.5 121.5,-110.5 20.5,-110.5"/>
<text text-anchor="start" x="28.5" y="-127.3" font-family="Calibri" font-size="9.00">mcc_generated_files</text>
<text text-anchor="middle" x="71" y="-117.3" font-family="Calibri" font-size="9.00">/adc.c</text>
</a>
</g>
</g>
<!-- Node2 -->
<g id="node2" class="node"><title>Node2</title>
<g id="a_node2"><a xlink:title=" ">
<polygon fill="none" stroke="#bfbfbf" points="0,-0.5 0,-18.5 32,-18.5 32,-0.5 0,-0.5"/>
<text text-anchor="middle" x="16" y="-7.3" font-family="Calibri" font-size="9.00">xc.h</text>
</a>
</g>
</g>
<!-- Node1&#45;&gt;Node2 -->
<g id="edge1" class="edge"><title>Node1&#45;&gt;Node2</title>
<path fill="none" stroke="midnightblue" d="M62.9787,-110.274C57.1406,-100.428 49.2042,-86.5727 43,-74 35.5452,-58.8931 28.1333,-41.2221 22.9666,-28.3625"/>
<polygon fill="midnightblue" stroke="midnightblue" points="26.1377,-26.864 19.203,-18.854 19.629,-29.4402 26.1377,-26.864"/>
</g>
<!-- Node3 -->
<g id="node3" class="node"><title>Node3</title>
<g id="a_node3"><a xlink:href="adc_8h.html" target="_top" xlink:title=" ">
<polygon fill="none" stroke="black" points="52,-55.5 52,-73.5 90,-73.5 90,-55.5 52,-55.5"/>
<text text-anchor="middle" x="71" y="-62.3" font-family="Calibri" font-size="9.00">adc.h</text>
</a>
</g>
</g>
<!-- Node1&#45;&gt;Node3 -->
<g id="edge2" class="edge"><title>Node1&#45;&gt;Node3</title>
<path fill="none" stroke="midnightblue" d="M71,-110.339C71,-102.531 71,-92.5122 71,-83.9265"/>
<polygon fill="midnightblue" stroke="midnightblue" points="74.5001,-83.7714 71,-73.7715 67.5001,-83.7715 74.5001,-83.7714"/>
</g>
<!-- Node6 -->
<g id="node6" class="node"><title>Node6</title>
<g id="a_node6"><a xlink:href="device__config_8h.html" target="_top" xlink:title=" ">
<polygon fill="none" stroke="black" points="108,-55.5 108,-73.5 188,-73.5 188,-55.5 108,-55.5"/>
<text text-anchor="middle" x="148" y="-62.3" font-family="Calibri" font-size="9.00">device_config.h</text>
</a>
</g>
</g>
<!-- Node1&#45;&gt;Node6 -->
<g id="edge6" class="edge"><title>Node1&#45;&gt;Node6</title>
<path fill="none" stroke="midnightblue" d="M88.4725,-110.339C100.469,-101.302 116.396,-89.3057 128.756,-79.9954"/>
<polygon fill="midnightblue" stroke="midnightblue" points="131.137,-82.5837 137.019,-73.7715 126.926,-76.9924 131.137,-82.5837"/>
</g>
<!-- Node3&#45;&gt;Node2 -->
<g id="edge3" class="edge"><title>Node3&#45;&gt;Node2</title>
<path fill="none" stroke="midnightblue" d="M62.4063,-55.2188C54.2055,-47.3162 41.657,-35.2241 31.6757,-25.6057"/>
<polygon fill="midnightblue" stroke="midnightblue" points="33.9828,-22.9682 24.3533,-18.5496 29.1255,-28.0088 33.9828,-22.9682"/>
</g>
<!-- Node4 -->
<g id="node4" class="node"><title>Node4</title>
<g id="a_node4"><a xlink:title=" ">
<polygon fill="none" stroke="#bfbfbf" points="50,-0.5 50,-18.5 98,-18.5 98,-0.5 50,-0.5"/>
<text text-anchor="middle" x="74" y="-7.3" font-family="Calibri" font-size="9.00">stdint.h</text>
</a>
</g>
</g>
<!-- Node3&#45;&gt;Node4 -->
<g id="edge4" class="edge"><title>Node3&#45;&gt;Node4</title>
<path fill="none" stroke="midnightblue" d="M71.4688,-55.2188C71.8673,-48.1769 72.4542,-37.8083 72.9626,-28.8277"/>
<polygon fill="midnightblue" stroke="midnightblue" points="76.4735,-28.7314 73.5444,-18.5496 69.4847,-28.3357 76.4735,-28.7314"/>
</g>
<!-- Node5 -->
<g id="node5" class="node"><title>Node5</title>
<g id="a_node5"><a xlink:title=" ">
<polygon fill="none" stroke="#bfbfbf" points="116,-0.5 116,-18.5 172,-18.5 172,-0.5 116,-0.5"/>
<text text-anchor="middle" x="144" y="-7.3" font-family="Calibri" font-size="9.00">stdbool.h</text>
</a>
</g>
</g>
<!-- Node3&#45;&gt;Node5 -->
<g id="edge5" class="edge"><title>Node3&#45;&gt;Node5</title>
<path fill="none" stroke="midnightblue" d="M82.0871,-55.4504C93.3424,-47.2788 110.998,-34.4604 124.58,-24.5996"/>
<polygon fill="midnightblue" stroke="midnightblue" points="126.773,-27.3327 132.809,-18.6253 122.66,-21.6682 126.773,-27.3327"/>
</g>
</g>
</svg>
