<?xml version="1.0" encoding="UTF-8" standalone="no"?>
<!DOCTYPE svg PUBLIC "-//W3C//DTD SVG 1.1//EN"
 "http://www.w3.org/Graphics/SVG/1.1/DTD/svg11.dtd">
<!-- Generated by graphviz version 2.38.0 (20140413.2041)
 -->
<!-- Title: SYSTEM_Initialize Pages: 1 -->
<svg width="434pt" height="360pt"
 viewBox="0.00 0.00 434.00 360.00" xmlns="http://www.w3.org/2000/svg" xmlns:xlink="http://www.w3.org/1999/xlink">
<g id="graph0" class="graph" transform="scale(1 1) rotate(0) translate(4 356)">
<title>SYSTEM_Initialize</title>
<!-- Node1 -->
<g id="node1" class="node"><title>Node1</title>
<g id="a_node1"><a xlink:title=" ">
<polygon fill="#bfbfbf" stroke="black" points="0,-175.5 0,-193.5 89,-193.5 89,-175.5 0,-175.5"/>
<text text-anchor="middle" x="44.5" y="-182.3" font-family="Calibri" font-size="9.00">SYSTEM_Initialize</text>
</a>
</g>
</g>
<!-- Node2 -->
<g id="node2" class="node"><title>Node2</title>
<g id="a_node2"><a xlink:href="mcc__generated__files_2adc_8c.html#ab0e0ea1662a8e789547210a2d33127e1" target="_top" xlink:title=" ">
<polygon fill="none" stroke="black" points="146,-296.5 146,-314.5 220,-314.5 220,-296.5 146,-296.5"/>
<text text-anchor="middle" x="183" y="-303.3" font-family="Calibri" font-size="9.00">ADC_Initialize</text>
</a>
</g>
</g>
<!-- Node1&#45;&gt;Node2 -->
<g id="edge1" class="edge"><title>Node1&#45;&gt;Node2</title>
<path fill="none" stroke="midnightblue" d="M55.7597,-193.595C78.7835,-214.004 134.816,-263.674 163.865,-289.425"/>
<polygon fill="midnightblue" stroke="midnightblue" points="161.816,-292.285 171.621,-296.3 166.46,-287.047 161.816,-292.285"/>
</g>
<!-- Node5 -->
<g id="node5" class="node"><title>Node5</title>
<g id="a_node5"><a xlink:href="ext__int_8c.html#a6c40d2f45ec674f28815ad65b2c753d5" target="_top" xlink:title=" ">
<polygon fill="none" stroke="black" points="138,-222.5 138,-240.5 228,-240.5 228,-222.5 138,-222.5"/>
<text text-anchor="middle" x="183" y="-229.3" font-family="Calibri" font-size="9.00">EXT_INT_Initialize</text>
</a>
</g>
</g>
<!-- Node1&#45;&gt;Node5 -->
<g id="edge4" class="edge"><title>Node1&#45;&gt;Node5</title>
<path fill="none" stroke="midnightblue" d="M71.8186,-193.562C92.9682,-200.844 122.889,-211.147 146.214,-219.178"/>
<polygon fill="midnightblue" stroke="midnightblue" points="145.168,-222.519 155.762,-222.466 147.447,-215.901 145.168,-222.519"/>
</g>
<!-- Node8 -->
<g id="node8" class="node"><title>Node8</title>
<g id="a_node8"><a xlink:href="mcc_8c.html#a4777dd92514a7e4ef803f9e869006f5d" target="_top" xlink:title=" ">
<polygon fill="none" stroke="black" points="130.5,-175.5 130.5,-193.5 235.5,-193.5 235.5,-175.5 130.5,-175.5"/>
<text text-anchor="middle" x="183" y="-182.3" font-family="Calibri" font-size="9.00">OSCILLATOR_Initialize</text>
</a>
</g>
</g>
<!-- Node1&#45;&gt;Node8 -->
<g id="edge7" class="edge"><title>Node1&#45;&gt;Node8</title>
<path fill="none" stroke="midnightblue" d="M89.0648,-184.5C98.8956,-184.5 109.516,-184.5 119.942,-184.5"/>
<polygon fill="midnightblue" stroke="midnightblue" points="120.268,-188 130.267,-184.5 120.267,-181 120.268,-188"/>
</g>
<!-- Node9 -->
<g id="node9" class="node"><title>Node9</title>
<g id="a_node9"><a xlink:href="pin__manager_8c.html#a50357774183a136d9490f64ad0d5c6cb" target="_top" xlink:title=" ">
<polygon fill="none" stroke="black" points="125,-120.5 125,-138.5 241,-138.5 241,-120.5 125,-120.5"/>
<text text-anchor="middle" x="183" y="-127.3" font-family="Calibri" font-size="9.00">PIN_MANAGER_Initialize</text>
</a>
</g>
</g>
<!-- Node1&#45;&gt;Node9 -->
<g id="edge8" class="edge"><title>Node1&#45;&gt;Node9</title>
<path fill="none" stroke="midnightblue" d="M68.0402,-175.418C90.3676,-166.421 124.774,-152.558 149.942,-142.417"/>
<polygon fill="midnightblue" stroke="midnightblue" points="151.459,-145.579 159.426,-138.596 148.843,-139.087 151.459,-145.579"/>
</g>
<!-- Node16 -->
<g id="node16" class="node"><title>Node16</title>
<g id="a_node16"><a xlink:href="mcc_8c.html#a6de6e2435c7dc554df52111e28586835" target="_top" xlink:title=" ">
<polygon fill="none" stroke="black" points="144.5,-83.5 144.5,-101.5 221.5,-101.5 221.5,-83.5 144.5,-83.5"/>
<text text-anchor="middle" x="183" y="-90.3" font-family="Calibri" font-size="9.00">WDT_Initialize</text>
</a>
</g>
</g>
<!-- Node1&#45;&gt;Node16 -->
<g id="edge15" class="edge"><title>Node1&#45;&gt;Node16</title>
<path fill="none" stroke="midnightblue" d="M53.3454,-175.078C66.6092,-159.709 94.9688,-129.188 125,-111.5 128.949,-109.174 133.222,-107.087 137.59,-105.225"/>
<polygon fill="midnightblue" stroke="midnightblue" points="139.154,-108.373 147.22,-101.503 136.63,-101.844 139.154,-108.373"/>
</g>
<!-- Node3 -->
<g id="node3" class="node"><title>Node3</title>
<g id="a_node3"><a xlink:href="mcc__generated__files_2adc_8c.html#a93877141ffb34f4b2090baab6554a001" target="_top" xlink:title=" ">
<polygon fill="none" stroke="black" points="283,-333.5 283,-351.5 420,-351.5 420,-333.5 283,-333.5"/>
<text text-anchor="middle" x="351.5" y="-340.3" font-family="Calibri" font-size="9.00">ADC_DefaultInterruptHandler</text>
</a>
</g>
</g>
<!-- Node2&#45;&gt;Node3 -->
<g id="edge2" class="edge"><title>Node2&#45;&gt;Node3</title>
<path fill="none" stroke="midnightblue" d="M220.128,-313.528C243.432,-318.707 274.081,-325.518 299.807,-331.235"/>
<polygon fill="midnightblue" stroke="midnightblue" points="299.242,-334.695 309.763,-333.447 300.76,-327.861 299.242,-334.695"/>
</g>
<!-- Node4 -->
<g id="node4" class="node"><title>Node4</title>
<g id="a_node4"><a xlink:href="mcc__generated__files_2adc_8c.html#a853bf4f29c400aa205e0474a03f64e32" target="_top" xlink:title=" ">
<polygon fill="none" stroke="black" points="292,-296.5 292,-314.5 411,-314.5 411,-296.5 292,-296.5"/>
<text text-anchor="middle" x="351.5" y="-303.3" font-family="Calibri" font-size="9.00">ADC_SetInterruptHandler</text>
</a>
</g>
</g>
<!-- Node2&#45;&gt;Node4 -->
<g id="edge3" class="edge"><title>Node2&#45;&gt;Node4</title>
<path fill="none" stroke="midnightblue" d="M220.128,-305.5C238.128,-305.5 260.511,-305.5 281.622,-305.5"/>
<polygon fill="midnightblue" stroke="midnightblue" points="281.859,-309 291.859,-305.5 281.859,-302 281.859,-309"/>
</g>
<!-- Node6 -->
<g id="node6" class="node"><title>Node6</title>
<g id="a_node6"><a xlink:href="ext__int_8c.html#a5ecd9e927fdf5b02d5490e1c8780781f" target="_top" xlink:title=" ">
<polygon fill="none" stroke="black" points="284.5,-259.5 284.5,-277.5 418.5,-277.5 418.5,-259.5 284.5,-259.5"/>
<text text-anchor="middle" x="351.5" y="-266.3" font-family="Calibri" font-size="9.00">INT_DefaultInterruptHandler</text>
</a>
</g>
</g>
<!-- Node5&#45;&gt;Node6 -->
<g id="edge5" class="edge"><title>Node5&#45;&gt;Node6</title>
<path fill="none" stroke="midnightblue" d="M224.73,-240.551C247.391,-245.587 275.797,-251.899 299.876,-257.25"/>
<polygon fill="midnightblue" stroke="midnightblue" points="299.381,-260.725 309.902,-259.478 300.899,-253.892 299.381,-260.725"/>
</g>
<!-- Node7 -->
<g id="node7" class="node"><title>Node7</title>
<g id="a_node7"><a xlink:href="ext__int_8c.html#aa10124a96d50bd41454b93d0bddd8465" target="_top" xlink:title=" ">
<polygon fill="none" stroke="black" points="293.5,-222.5 293.5,-240.5 409.5,-240.5 409.5,-222.5 293.5,-222.5"/>
<text text-anchor="middle" x="351.5" y="-229.3" font-family="Calibri" font-size="9.00">INT_SetInterruptHandler</text>
</a>
</g>
</g>
<!-- Node5&#45;&gt;Node7 -->
<g id="edge6" class="edge"><title>Node5&#45;&gt;Node7</title>
<path fill="none" stroke="midnightblue" d="M228.182,-231.5C245.008,-231.5 264.589,-231.5 283.086,-231.5"/>
<polygon fill="midnightblue" stroke="midnightblue" points="283.227,-235 293.227,-231.5 283.227,-228 283.227,-235"/>
</g>
<!-- Node10 -->
<g id="node10" class="node"><title>Node10</title>
<g id="a_node10"><a xlink:href="pin__manager_8c.html#a7785df331b1ef41d8cb46f09192cff38" target="_top" xlink:title=" ">
<polygon fill="none" stroke="black" points="277,-185.5 277,-203.5 426,-203.5 426,-185.5 277,-185.5"/>
<text text-anchor="middle" x="351.5" y="-192.3" font-family="Calibri" font-size="9.00">IOCBF0_DefaultInterruptHandler</text>
</a>
</g>
</g>
<!-- Node9&#45;&gt;Node10 -->
<g id="edge9" class="edge"><title>Node9&#45;&gt;Node10</title>
<path fill="none" stroke="midnightblue" d="M199.307,-138.608C217.35,-149.015 248.493,-165.963 277,-176.5 283.292,-178.826 289.999,-180.94 296.703,-182.834"/>
<polygon fill="midnightblue" stroke="midnightblue" points="295.912,-186.246 306.478,-185.452 297.723,-179.484 295.912,-186.246"/>
</g>
<!-- Node11 -->
<g id="node11" class="node"><title>Node11</title>
<g id="a_node11"><a xlink:href="pin__manager_8c.html#a1fa094f74ec24d587df5fd9e546e55a2" target="_top" xlink:title=" ">
<polygon fill="none" stroke="black" points="286,-148.5 286,-166.5 417,-166.5 417,-148.5 286,-148.5"/>
<text text-anchor="middle" x="351.5" y="-155.3" font-family="Calibri" font-size="9.00">IOCBF0_SetInterruptHandler</text>
</a>
</g>
</g>
<!-- Node9&#45;&gt;Node11 -->
<g id="edge10" class="edge"><title>Node9&#45;&gt;Node11</title>
<path fill="none" stroke="midnightblue" d="M237.598,-138.514C253.265,-141.148 270.542,-144.054 286.772,-146.783"/>
<polygon fill="midnightblue" stroke="midnightblue" points="286.275,-150.248 296.717,-148.455 287.436,-143.345 286.275,-150.248"/>
</g>
<!-- Node12 -->
<g id="node12" class="node"><title>Node12</title>
<g id="a_node12"><a xlink:href="pin__manager_8c.html#a2c53046b5d2acd8ec288693fb774b7e0" target="_top" xlink:title=" ">
<polygon fill="none" stroke="black" points="277,-111.5 277,-129.5 426,-129.5 426,-111.5 277,-111.5"/>
<text text-anchor="middle" x="351.5" y="-118.3" font-family="Calibri" font-size="9.00">IOCBF1_DefaultInterruptHandler</text>
</a>
</g>
</g>
<!-- Node9&#45;&gt;Node12 -->
<g id="edge11" class="edge"><title>Node9&#45;&gt;Node12</title>
<path fill="none" stroke="midnightblue" d="M241.3,-126.403C249.548,-125.957 258.175,-125.491 266.807,-125.024"/>
<polygon fill="midnightblue" stroke="midnightblue" points="267.125,-128.512 276.922,-124.477 266.747,-121.522 267.125,-128.512"/>
</g>
<!-- Node13 -->
<g id="node13" class="node"><title>Node13</title>
<g id="a_node13"><a xlink:href="pin__manager_8c.html#ab6e3f9544fa93cfae6f302dd5d9ddc3a" target="_top" xlink:title=" ">
<polygon fill="none" stroke="black" points="286,-74.5 286,-92.5 417,-92.5 417,-74.5 286,-74.5"/>
<text text-anchor="middle" x="351.5" y="-81.3" font-family="Calibri" font-size="9.00">IOCBF1_SetInterruptHandler</text>
</a>
</g>
</g>
<!-- Node9&#45;&gt;Node13 -->
<g id="edge12" class="edge"><title>Node9&#45;&gt;Node13</title>
<path fill="none" stroke="midnightblue" d="M214.513,-120.395C232.633,-115.049 256.085,-108.238 277,-102.5 285.961,-100.042 295.56,-97.4963 304.767,-95.0984"/>
<polygon fill="midnightblue" stroke="midnightblue" points="305.751,-98.4593 314.555,-92.5654 303.997,-91.6826 305.751,-98.4593"/>
</g>
<!-- Node14 -->
<g id="node14" class="node"><title>Node14</title>
<g id="a_node14"><a xlink:href="pin__manager_8c.html#a3f33852f958a791164d014913d9b7225" target="_top" xlink:title=" ">
<polygon fill="none" stroke="black" points="277,-37.5 277,-55.5 426,-55.5 426,-37.5 277,-37.5"/>
<text text-anchor="middle" x="351.5" y="-44.3" font-family="Calibri" font-size="9.00">IOCBF2_DefaultInterruptHandler</text>
</a>
</g>
</g>
<!-- Node9&#45;&gt;Node14 -->
<g id="edge13" class="edge"><title>Node9&#45;&gt;Node14</title>
<path fill="none" stroke="midnightblue" d="M223.48,-120.473C229.643,-118.113 235.713,-115.166 241,-111.5 262.334,-96.7063 255.283,-79.7242 277,-65.5 280.535,-63.1847 284.338,-61.1513 288.285,-59.3655"/>
<polygon fill="midnightblue" stroke="midnightblue" points="289.695,-62.5714 297.701,-55.6319 287.115,-56.0642 289.695,-62.5714"/>
</g>
<!-- Node15 -->
<g id="node15" class="node"><title>Node15</title>
<g id="a_node15"><a xlink:href="pin__manager_8c.html#ab095f91ecd95fdfe136b510f161a9034" target="_top" xlink:title=" ">
<polygon fill="none" stroke="black" points="286,-0.5 286,-18.5 417,-18.5 417,-0.5 286,-0.5"/>
<text text-anchor="middle" x="351.5" y="-7.3" font-family="Calibri" font-size="9.00">IOCBF2_SetInterruptHandler</text>
</a>
</g>
</g>
<!-- Node9&#45;&gt;Node15 -->
<g id="edge14" class="edge"><title>Node9&#45;&gt;Node15</title>
<path fill="none" stroke="midnightblue" d="M226.977,-120.443C232.079,-118.113 236.915,-115.183 241,-111.5 270.863,-84.5745 246.435,-54.6261 277,-28.5 279.254,-26.5732 281.68,-24.8383 284.23,-23.2765"/>
<polygon fill="midnightblue" stroke="midnightblue" points="286.016,-26.2933 293.307,-18.6058 282.814,-20.0689 286.016,-26.2933"/>
</g>
</g>
</svg>
