<?xml version="1.0" encoding="UTF-8" standalone="no"?>
<!DOCTYPE svg PUBLIC "-//W3C//DTD SVG 1.1//EN"
 "http://www.w3.org/Graphics/SVG/1.1/DTD/svg11.dtd">
<!-- Generated by graphviz version 2.38.0 (20140413.2041)
 -->
<!-- Title: mcc_generated_files/mcc.c Pages: 1 -->
<!--zoomable 202 -->
<svg id="main" version="1.1" xmlns="http://www.w3.org/2000/svg" xmlns:xlink="http://www.w3.org/1999/xlink" xml:space="preserve" onload="init(evt)">
<style type="text/css"><![CDATA[
.edge:hover path { stroke: red; }
.edge:hover polygon { stroke: red; fill: red; }
]]></style>
<script type="text/javascript"><![CDATA[
var edges = document.getElementsByTagName('g');
if (edges && edges.length) {
  for (var i=0;i<edges.length;i++) {
    if (edges[i].id.substr(0,4)=='edge') {
      edges[i].setAttribute('class','edge');
    }
  }
}
]]></script>
        <defs>
                <circle id="rim" cx="0" cy="0" r="7"/>
                <circle id="rim2" cx="0" cy="0" r="3.5"/>
                <g id="zoomPlus">
                        <use xlink:href="#rim" fill="#404040">
                                <set attributeName="fill" to="#808080" begin="zoomplus.mouseover" end="zoomplus.mouseout"/>
                        </use>
                        <path d="M-4,0h8M0,-4v8" fill="none" stroke="white" stroke-width="1.5" pointer-events="none"/>
                </g>
                <g id="zoomMin">
                        <use xlink:href="#rim" fill="#404040">
                                <set attributeName="fill" to="#808080" begin="zoomminus.mouseover" end="zoomminus.mouseout"/>
                        </use>
                        <path d="M-4,0h8" fill="none" stroke="white" stroke-width="1.5" pointer-events="none"/>
                </g>
                <g id="dirArrow">
                        <path fill="none" stroke="white" stroke-width="1.5" d="M0,-3.0v7 M-2.5,-0.5L0,-3.0L2.5,-0.5"/>
                </g>
               <g id="resetDef">
                       <use xlink:href="#rim2" fill="#404040">
                               <set attributeName="fill" to="#808080" begin="reset.mouseover" end="reset.mouseout"/>
                       </use>
               </g>
        </defs>

<script type="text/javascript">
var viewWidth = 585;
var viewHeight = 202;
var sectionId = 'dynsection-0';
</script>
<script xlink:href="svgpan.js"/>
<svg id="graph" class="graph">
<g id="viewport">
<title>mcc_generated_files/mcc.c</title>
<!-- Node1 -->
<g id="node1" class="node"><title>Node1</title>
<g id="a_node1"><a xlink:title=" ">
<polygon fill="#bfbfbf" stroke="black" points="186.855,-165.5 186.855,-193.5 287.855,-193.5 287.855,-165.5 186.855,-165.5"/>
<text text-anchor="start" x="194.855" y="-182.3" font-family="Calibri" font-size="9.00">mcc_generated_files</text>
<text text-anchor="middle" x="237.355" y="-172.3" font-family="Calibri" font-size="9.00">/mcc.c</text>
</a>
</g>
</g>
<!-- Node2 -->
<g id="node2" class="node"><title>Node2</title>
<g id="a_node2"><a xlink:href="mcc_8h.html" target="_top" xlink:title=" ">
<polygon fill="none" stroke="black" points="217.855,-110.5 217.855,-128.5 256.855,-128.5 256.855,-110.5 217.855,-110.5"/>
<text text-anchor="middle" x="237.355" y="-117.3" font-family="Calibri" font-size="9.00">mcc.h</text>
</a>
</g>
</g>
<!-- Node1&#45;&gt;Node2 -->
<g id="edge1" class="edge"><title>Node1&#45;&gt;Node2</title>
<path fill="none" stroke="midnightblue" d="M237.355,-165.339C237.355,-157.531 237.355,-147.512 237.355,-138.927"/>
<polygon fill="midnightblue" stroke="midnightblue" points="240.855,-138.771 237.355,-128.771 233.855,-138.772 240.855,-138.771"/>
</g>
<!-- Node3 -->
<g id="node3" class="node"><title>Node3</title>
<g id="a_node3"><a xlink:title=" ">
<polygon fill="none" stroke="#bfbfbf" points="76.3549,-0.5 76.3549,-18.5 108.355,-18.5 108.355,-0.5 76.3549,-0.5"/>
<text text-anchor="middle" x="92.3549" y="-7.3" font-family="Calibri" font-size="9.00">xc.h</text>
</a>
</g>
</g>
<!-- Node2&#45;&gt;Node3 -->
<g id="edge2" class="edge"><title>Node2&#45;&gt;Node3</title>
<path fill="none" stroke="midnightblue" d="M217.713,-117.813C166.742,-115.578 32.33,-106.641 5.35486,-74 -15.6055,-48.6371 33.3486,-28.1407 66.0105,-17.803"/>
<polygon fill="midnightblue" stroke="midnightblue" points="67.3699,-21.0488 75.9332,-14.8103 65.3485,-14.347 67.3699,-21.0488"/>
</g>
<!-- Node4 -->
<g id="node4" class="node"><title>Node4</title>
<g id="a_node4"><a xlink:href="device__config_8h.html" target="_top" xlink:title=" ">
<polygon fill="none" stroke="black" points="312.355,-55.5 312.355,-73.5 392.355,-73.5 392.355,-55.5 312.355,-55.5"/>
<text text-anchor="middle" x="352.355" y="-62.3" font-family="Calibri" font-size="9.00">device_config.h</text>
</a>
</g>
</g>
<!-- Node2&#45;&gt;Node4 -->
<g id="edge3" class="edge"><title>Node2&#45;&gt;Node4</title>
<path fill="none" stroke="midnightblue" d="M254.821,-110.45C273.565,-101.812 303.577,-87.9803 325.363,-77.9396"/>
<polygon fill="midnightblue" stroke="midnightblue" points="327.108,-80.9896 334.724,-73.6253 324.178,-74.6323 327.108,-80.9896"/>
</g>
<!-- Node5 -->
<g id="node5" class="node"><title>Node5</title>
<g id="a_node5"><a xlink:href="pin__manager_8h.html" target="_top" xlink:title=" ">
<polygon fill="none" stroke="black" points="14.3549,-55.5 14.3549,-73.5 92.3549,-73.5 92.3549,-55.5 14.3549,-55.5"/>
<text text-anchor="middle" x="53.3549" y="-62.3" font-family="Calibri" font-size="9.00">pin_manager.h</text>
</a>
</g>
</g>
<!-- Node2&#45;&gt;Node5 -->
<g id="edge4" class="edge"><title>Node2&#45;&gt;Node5</title>
<path fill="none" stroke="midnightblue" d="M217.664,-112.828C187.537,-104.15 129.464,-87.4227 91.0548,-76.3592"/>
<polygon fill="midnightblue" stroke="midnightblue" points="91.8411,-72.9435 81.263,-73.5388 89.9035,-79.67 91.8411,-72.9435"/>
</g>
<!-- Node6 -->
<g id="node6" class="node"><title>Node6</title>
<g id="a_node6"><a xlink:title=" ">
<polygon fill="none" stroke="#bfbfbf" points="172.355,-0.5 172.355,-18.5 220.355,-18.5 220.355,-0.5 172.355,-0.5"/>
<text text-anchor="middle" x="196.355" y="-7.3" font-family="Calibri" font-size="9.00">stdint.h</text>
</a>
</g>
</g>
<!-- Node2&#45;&gt;Node6 -->
<g id="edge6" class="edge"><title>Node2&#45;&gt;Node6</title>
<path fill="none" stroke="midnightblue" d="M231.03,-110.457C224.613,-101.898 214.864,-87.7224 209.355,-74 203.453,-59.3001 200.111,-41.5668 198.298,-28.5805"/>
<polygon fill="midnightblue" stroke="midnightblue" points="201.764,-28.0856 197.073,-18.5859 194.816,-28.9376 201.764,-28.0856"/>
</g>
<!-- Node7 -->
<g id="node7" class="node"><title>Node7</title>
<g id="a_node7"><a xlink:title=" ">
<polygon fill="none" stroke="#bfbfbf" points="250.355,-0.5 250.355,-18.5 306.355,-18.5 306.355,-0.5 250.355,-0.5"/>
<text text-anchor="middle" x="278.355" y="-7.3" font-family="Calibri" font-size="9.00">stdbool.h</text>
</a>
</g>
</g>
<!-- Node2&#45;&gt;Node7 -->
<g id="edge7" class="edge"><title>Node2&#45;&gt;Node7</title>
<path fill="none" stroke="midnightblue" d="M243.68,-110.457C250.096,-101.898 259.846,-87.7224 265.355,-74 271.257,-59.3001 274.599,-41.5668 276.411,-28.5805"/>
<polygon fill="midnightblue" stroke="midnightblue" points="279.894,-28.9376 277.637,-18.5859 272.946,-28.0856 279.894,-28.9376"/>
</g>
<!-- Node8 -->
<g id="node8" class="node"><title>Node8</title>
<g id="a_node8"><a xlink:title=" ">
<polygon fill="none" stroke="#bfbfbf" points="410.855,-55.5 410.855,-73.5 457.855,-73.5 457.855,-55.5 410.855,-55.5"/>
<text text-anchor="middle" x="434.355" y="-62.3" font-family="Calibri" font-size="9.00">conio.h</text>
</a>
</g>
</g>
<!-- Node2&#45;&gt;Node8 -->
<g id="edge8" class="edge"><title>Node2&#45;&gt;Node8</title>
<path fill="none" stroke="midnightblue" d="M256.964,-113.224C290.519,-104.197 359.323,-85.6862 400.687,-74.5579"/>
<polygon fill="midnightblue" stroke="midnightblue" points="401.826,-77.8759 410.574,-71.898 400.008,-71.1162 401.826,-77.8759"/>
</g>
<!-- Node9 -->
<g id="node9" class="node"><title>Node9</title>
<g id="a_node9"><a xlink:href="interrupt__manager_8h.html" target="_top" xlink:title=" ">
<polygon fill="none" stroke="black" points="475.855,-55.5 475.855,-73.5 576.855,-73.5 576.855,-55.5 475.855,-55.5"/>
<text text-anchor="middle" x="526.355" y="-62.3" font-family="Calibri" font-size="9.00">interrupt_manager.h</text>
</a>
</g>
</g>
<!-- Node2&#45;&gt;Node9 -->
<g id="edge9" class="edge"><title>Node2&#45;&gt;Node9</title>
<path fill="none" stroke="midnightblue" d="M257.219,-114.857C301.039,-106.821 407.263,-87.3403 472.393,-75.3962"/>
<polygon fill="midnightblue" stroke="midnightblue" points="473.272,-78.7934 482.477,-73.5469 472.009,-71.9082 473.272,-78.7934"/>
</g>
<!-- Node10 -->
<g id="node10" class="node"><title>Node10</title>
<g id="a_node10"><a xlink:href="ext__int_8h.html" target="_top" xlink:title=" ">
<polygon fill="none" stroke="black" points="110.355,-55.5 110.355,-73.5 162.355,-73.5 162.355,-55.5 110.355,-55.5"/>
<text text-anchor="middle" x="136.355" y="-62.3" font-family="Calibri" font-size="9.00">ext_int.h</text>
</a>
</g>
</g>
<!-- Node2&#45;&gt;Node10 -->
<g id="edge10" class="edge"><title>Node2&#45;&gt;Node10</title>
<path fill="none" stroke="midnightblue" d="M222.015,-110.45C205.775,-101.929 179.905,-88.3532 160.84,-78.3487"/>
<polygon fill="midnightblue" stroke="midnightblue" points="162.32,-75.1728 151.839,-73.6253 159.068,-81.3712 162.32,-75.1728"/>
</g>
<!-- Node11 -->
<g id="node11" class="node"><title>Node11</title>
<g id="a_node11"><a xlink:href="adc_8h.html" target="_top" xlink:title=" ">
<polygon fill="none" stroke="black" points="218.355,-55.5 218.355,-73.5 256.355,-73.5 256.355,-55.5 218.355,-55.5"/>
<text text-anchor="middle" x="237.355" y="-62.3" font-family="Calibri" font-size="9.00">adc.h</text>
</a>
</g>
</g>
<!-- Node2&#45;&gt;Node11 -->
<g id="edge12" class="edge"><title>Node2&#45;&gt;Node11</title>
<path fill="none" stroke="midnightblue" d="M237.355,-110.219C237.355,-103.177 237.355,-92.8083 237.355,-83.8277"/>
<polygon fill="midnightblue" stroke="midnightblue" points="240.855,-83.5495 237.355,-73.5496 233.855,-83.5496 240.855,-83.5495"/>
</g>
<!-- Node5&#45;&gt;Node3 -->
<g id="edge5" class="edge"><title>Node5&#45;&gt;Node3</title>
<path fill="none" stroke="midnightblue" d="M59.4486,-55.2188C65.0334,-47.6292 73.4617,-36.1753 80.3902,-26.7597"/>
<polygon fill="midnightblue" stroke="midnightblue" points="83.3238,-28.6784 86.4316,-18.5496 77.6857,-24.5296 83.3238,-28.6784"/>
</g>
<!-- Node10&#45;&gt;Node3 -->
<g id="edge11" class="edge"><title>Node10&#45;&gt;Node3</title>
<path fill="none" stroke="midnightblue" d="M129.48,-55.2188C123.114,-47.5509 113.474,-35.9387 105.612,-26.4691"/>
<polygon fill="midnightblue" stroke="midnightblue" points="108.118,-24.008 99.0375,-18.5496 102.732,-28.4793 108.118,-24.008"/>
</g>
<!-- Node11&#45;&gt;Node3 -->
<g id="edge13" class="edge"><title>Node11&#45;&gt;Node3</title>
<path fill="none" stroke="midnightblue" d="M218.1,-56.462C192.44,-47.0827 146.946,-30.454 118.286,-19.9782"/>
<polygon fill="midnightblue" stroke="midnightblue" points="119.15,-16.5677 108.556,-16.4219 116.747,-23.1423 119.15,-16.5677"/>
</g>
<!-- Node11&#45;&gt;Node6 -->
<g id="edge14" class="edge"><title>Node11&#45;&gt;Node6</title>
<path fill="none" stroke="midnightblue" d="M230.949,-55.2188C225.017,-47.5509 216.034,-35.9387 208.708,-26.4691"/>
<polygon fill="midnightblue" stroke="midnightblue" points="211.469,-24.3176 202.582,-18.5496 205.932,-28.6007 211.469,-24.3176"/>
</g>
<!-- Node11&#45;&gt;Node7 -->
<g id="edge15" class="edge"><title>Node11&#45;&gt;Node7</title>
<path fill="none" stroke="midnightblue" d="M243.761,-55.2188C249.693,-47.5509 258.676,-35.9387 266.001,-26.4691"/>
<polygon fill="midnightblue" stroke="midnightblue" points="268.777,-28.6007 272.128,-18.5496 263.241,-24.3176 268.777,-28.6007"/>
</g>
</g>
</svg>
        <g id="navigator" transform="translate(0 0)" fill="#404254">
                <rect fill="#f2f5e9" fill-opacity="0.5" stroke="#606060" stroke-width=".5" x="0" y="0" width="60" height="60"/>
                <use id="zoomplus" xlink:href="#zoomPlus" x="17" y="9" onmousedown="handleZoom(evt,'in')"/>
                <use id="zoomminus" xlink:href="#zoomMin" x="42" y="9" onmousedown="handleZoom(evt,'out')"/>
                <use id="reset" xlink:href="#resetDef" x="30" y="36" onmousedown="handleReset()"/>
                <g id="arrowUp" xlink:href="#dirArrow" transform="translate(30 24)" onmousedown="handlePan(0,-1)">
                  <use xlink:href="#rim" fill="#404040">
                        <set attributeName="fill" to="#808080" begin="arrowUp.mouseover" end="arrowUp.mouseout"/>
                  </use>
                  <path fill="none" stroke="white" stroke-width="1.5" d="M0,-3.0v7 M-2.5,-0.5L0,-3.0L2.5,-0.5"/>
                </g>
                <g id="arrowRight" xlink:href="#dirArrow" transform="rotate(90) translate(36 -43)" onmousedown="handlePan(1,0)">
                  <use xlink:href="#rim" fill="#404040">
                        <set attributeName="fill" to="#808080" begin="arrowRight.mouseover" end="arrowRight.mouseout"/>
                  </use>
                  <path fill="none" stroke="white" stroke-width="1.5" d="M0,-3.0v7 M-2.5,-0.5L0,-3.0L2.5,-0.5"/>
                </g>
                <g id="arrowDown" xlink:href="#dirArrow" transform="rotate(180) translate(-30 -48)" onmousedown="handlePan(0,1)">
                  <use xlink:href="#rim" fill="#404040">
                        <set attributeName="fill" to="#808080" begin="arrowDown.mouseover" end="arrowDown.mouseout"/>
                  </use>
                  <path fill="none" stroke="white" stroke-width="1.5" d="M0,-3.0v7 M-2.5,-0.5L0,-3.0L2.5,-0.5"/>
                </g>
                <g id="arrowLeft" xlink:href="#dirArrow" transform="rotate(270) translate(-36 17)" onmousedown="handlePan(-1,0)">
                  <use xlink:href="#rim" fill="#404040">
                        <set attributeName="fill" to="#808080" begin="arrowLeft.mouseover" end="arrowLeft.mouseout"/>
                  </use>
                  <path fill="none" stroke="white" stroke-width="1.5" d="M0,-3.0v7 M-2.5,-0.5L0,-3.0L2.5,-0.5"/>
                </g>
        </g>
        <svg viewBox="0 0 15 15" width="100%" height="30px" preserveAspectRatio="xMaxYMin meet">
         <g id="arrow_out" transform="scale(0.3 0.3)">
          <a xlink:href="mcc_8c__incl_org.svg" target="_base">
           <rect id="button" ry="5" rx="5" y="6" x="6" height="38" width="38"
                fill="#f2f5e9" fill-opacity="0.5" stroke="#606060" stroke-width="1.0"/>
           <path id="arrow"
             d="M 11.500037,31.436501 C 11.940474,20.09759 22.043105,11.32322 32.158766,21.979434 L 37.068811,17.246167 C 37.068811,17.246167 37.088388,32 37.088388,32 L 22.160133,31.978069 C 22.160133,31.978069 26.997745,27.140456 26.997745,27.140456 C 18.528582,18.264221 13.291696,25.230495 11.500037,31.436501 z"
             style="fill:#404040;"/>
          </a>
         </g>
        </svg>
</svg>
