<?xml version="1.0" encoding="UTF-8" standalone="no"?>
<!DOCTYPE svg PUBLIC "-//W3C//DTD SVG 1.1//EN"
 "http://www.w3.org/Graphics/SVG/1.1/DTD/svg11.dtd">
<!-- Generated by graphviz version 2.38.0 (20140413.2041)
 -->
<!-- Title: led_send Pages: 1 -->
<!--zoomable 892 -->
<svg id="main" version="1.1" xmlns="http://www.w3.org/2000/svg" xmlns:xlink="http://www.w3.org/1999/xlink" xml:space="preserve" onload="init(evt)">
<style type="text/css"><![CDATA[
.edge:hover path { stroke: red; }
.edge:hover polygon { stroke: red; fill: red; }
]]></style>
<script type="text/javascript"><![CDATA[
var edges = document.getElementsByTagName('g');
if (edges && edges.length) {
  for (var i=0;i<edges.length;i++) {
    if (edges[i].id.substr(0,4)=='edge') {
      edges[i].setAttribute('class','edge');
    }
  }
}
]]></script>
        <defs>
                <circle id="rim" cx="0" cy="0" r="7"/>
                <circle id="rim2" cx="0" cy="0" r="3.5"/>
                <g id="zoomPlus">
                        <use xlink:href="#rim" fill="#404040">
                                <set attributeName="fill" to="#808080" begin="zoomplus.mouseover" end="zoomplus.mouseout"/>
                        </use>
                        <path d="M-4,0h8M0,-4v8" fill="none" stroke="white" stroke-width="1.5" pointer-events="none"/>
                </g>
                <g id="zoomMin">
                        <use xlink:href="#rim" fill="#404040">
                                <set attributeName="fill" to="#808080" begin="zoomminus.mouseover" end="zoomminus.mouseout"/>
                        </use>
                        <path d="M-4,0h8" fill="none" stroke="white" stroke-width="1.5" pointer-events="none"/>
                </g>
                <g id="dirArrow">
                        <path fill="none" stroke="white" stroke-width="1.5" d="M0,-3.0v7 M-2.5,-0.5L0,-3.0L2.5,-0.5"/>
                </g>
               <g id="resetDef">
                       <use xlink:href="#rim2" fill="#404040">
                               <set attributeName="fill" to="#808080" begin="reset.mouseover" end="reset.mouseout"/>
                       </use>
               </g>
        </defs>

<script type="text/javascript">
var viewWidth = 1297;
var viewHeight = 892;
var sectionId = 'dynsection-8';
</script>
<script xlink:href="svgpan.js"/>
<svg id="graph" class="graph">
<g id="viewport">
<title>led_send</title>
<!-- Node1 -->
<g id="node1" class="node"><title>Node1</title>
<g id="a_node1"><a xlink:title=" ">
<polygon fill="#bfbfbf" stroke="black" points="1234,-271.5 1234,-289.5 1289,-289.5 1289,-271.5 1234,-271.5"/>
<text text-anchor="middle" x="1261.5" y="-278.3" font-family="Calibri" font-size="9.00">led_send</text>
</a>
</g>
</g>
<!-- Node2 -->
<g id="node2" class="node"><title>Node2</title>
<g id="a_node2"><a xlink:href="oled__control_8c.html#a5febfdc847aa6f3bc3f3c8f7818b8699" target="_top" xlink:title=" ">
<polygon fill="none" stroke="black" points="934,-722.5 934,-740.5 996,-740.5 996,-722.5 934,-722.5"/>
<text text-anchor="middle" x="965" y="-729.3" font-family="Calibri" font-size="9.00">display_on</text>
</a>
</g>
</g>
<!-- Node1&#45;&gt;Node2 -->
<g id="edge1" class="edge"><title>Node1&#45;&gt;Node2</title>
<path fill="none" stroke="midnightblue" d="M1258.06,-299.7C1252.09,-342.742 1234.51,-449.592 1198,-531.5 1159.56,-617.745 1157.32,-654.749 1079,-707.5 1054.38,-724.082 1020.46,-729.513 996.221,-731.144"/>
<polygon fill="midnightblue" stroke="midnightblue" points="1261.56,-299.914 1259.41,-289.539 1254.62,-298.989 1261.56,-299.914"/>
</g>
<!-- Node16 -->
<g id="node16" class="node"><title>Node16</title>
<g id="a_node16"><a xlink:href="oled__control_8c.html#a7eb4d382bdd4b42c57dbb7154d03ac66" target="_top" xlink:title=" ">
<polygon fill="none" stroke="black" points="537.5,-38.5 537.5,-56.5 586.5,-56.5 586.5,-38.5 537.5,-38.5"/>
<text text-anchor="middle" x="562" y="-45.3" font-family="Calibri" font-size="9.00">led_init</text>
</a>
</g>
</g>
<!-- Node1&#45;&gt;Node16 -->
<g id="edge28" class="edge"><title>Node1&#45;&gt;Node16</title>
<path fill="none" stroke="midnightblue" d="M1254.43,-261.753C1235.22,-206.396 1170.16,-47.5 1056.5,-47.5 1056.5,-47.5 1056.5,-47.5 767,-47.5 701.656,-47.5 624.539,-47.5 586.559,-47.5"/>
<polygon fill="midnightblue" stroke="midnightblue" points="1251.16,-263.003 1257.67,-271.366 1257.8,-260.772 1251.16,-263.003"/>
</g>
<!-- Node17 -->
<g id="node17" class="node"><title>Node17</title>
<g id="a_node17"><a xlink:href="oled__control_8c.html#a1c8eef09adf01c9a7e3c6188f25c3c48" target="_top" xlink:title=" ">
<polygon fill="none" stroke="black" points="1127,-504.5 1127,-522.5 1186,-522.5 1186,-504.5 1127,-504.5"/>
<text text-anchor="middle" x="1156.5" y="-511.3" font-family="Calibri" font-size="9.00">led_wr_str</text>
</a>
</g>
</g>
<!-- Node1&#45;&gt;Node17 -->
<g id="edge30" class="edge"><title>Node1&#45;&gt;Node17</title>
<path fill="none" stroke="midnightblue" d="M1252.34,-298.953C1231.49,-346.135 1176.78,-469.886 1161.51,-504.429"/>
<polygon fill="midnightblue" stroke="midnightblue" points="1255.62,-300.195 1256.46,-289.634 1249.22,-297.365 1255.62,-300.195"/>
</g>
<!-- Node24 -->
<g id="node24" class="node"><title>Node24</title>
<g id="a_node24"><a xlink:href="oled__control_8c.html#ac620c45e67383b8f8addda11fa5655af" target="_top" xlink:title=" ">
<polygon fill="none" stroke="black" points="1115,-0.5 1115,-18.5 1198,-18.5 1198,-0.5 1115,-0.5"/>
<text text-anchor="middle" x="1156.5" y="-7.3" font-family="Calibri" font-size="9.00">vodisplay_offoff</text>
</a>
</g>
</g>
<!-- Node1&#45;&gt;Node24 -->
<g id="edge58" class="edge"><title>Node1&#45;&gt;Node24</title>
<path fill="none" stroke="midnightblue" d="M1260.46,-261.365C1259.44,-216.883 1251.35,-104.88 1198,-33.5 1193.3,-27.2152 1186.43,-22.269 1179.68,-18.5413"/>
<polygon fill="midnightblue" stroke="midnightblue" points="1256.96,-261.422 1260.59,-271.375 1263.96,-261.33 1256.96,-261.422"/>
</g>
<!-- Node3 -->
<g id="node3" class="node"><title>Node3</title>
<g id="a_node3"><a xlink:href="main_8c.html#a1c9e5d54d8cf7f3d041aa2e0b330b3dd" target="_top" xlink:title="Handle the process of the buttons being pressed.">
<polygon fill="none" stroke="black" points="74,-608.5 74,-626.5 139,-626.5 139,-608.5 74,-608.5"/>
<text text-anchor="middle" x="106.5" y="-615.3" font-family="Calibri" font-size="9.00">button_proc</text>
</a>
</g>
</g>
<!-- Node2&#45;&gt;Node3 -->
<g id="edge2" class="edge"><title>Node2&#45;&gt;Node3</title>
<path fill="none" stroke="midnightblue" d="M924.108,-739.701C866.196,-750.872 755.334,-769.5 660,-769.5 660,-769.5 660,-769.5 282.5,-769.5 194.772,-769.5 129.553,-659.276 112.124,-626.553"/>
<polygon fill="midnightblue" stroke="midnightblue" points="924.81,-743.13 933.952,-737.775 923.466,-736.26 924.81,-743.13"/>
</g>
<!-- Node5 -->
<g id="node5" class="node"><title>Node5</title>
<g id="a_node5"><a xlink:href="main_8c.html#ae5a14b4884e85f47ad8a4a716f13203a" target="_top" xlink:title=" ">
<polygon fill="none" stroke="black" points="848.5,-608.5 848.5,-626.5 896.5,-626.5 896.5,-608.5 848.5,-608.5"/>
<text text-anchor="middle" x="872.5" y="-615.3" font-family="Calibri" font-size="9.00">lcd_pwr</text>
</a>
</g>
</g>
<!-- Node2&#45;&gt;Node5 -->
<g id="edge4" class="edge"><title>Node2&#45;&gt;Node5</title>
<path fill="none" stroke="midnightblue" d="M950.172,-714.082C930.677,-689.525 895.814,-645.608 880.755,-626.639"/>
<polygon fill="midnightblue" stroke="midnightblue" points="947.635,-716.515 956.594,-722.171 953.118,-712.163 947.635,-716.515"/>
</g>
<!-- Node4 -->
<g id="node4" class="node"><title>Node4</title>
<g id="a_node4"><a xlink:href="main_8c.html#acdef7a1fd863a6d3770c1268cb06add3" target="_top" xlink:title=" ">
<polygon fill="none" stroke="black" points="0,-608.5 0,-626.5 38,-626.5 38,-608.5 0,-608.5"/>
<text text-anchor="middle" x="19" y="-615.3" font-family="Calibri" font-size="9.00">main</text>
</a>
</g>
</g>
<!-- Node3&#45;&gt;Node4 -->
<g id="edge3" class="edge"><title>Node3&#45;&gt;Node4</title>
<path fill="none" stroke="midnightblue" d="M63.658,-617.5C54.7022,-617.5 45.6933,-617.5 38.2043,-617.5"/>
<polygon fill="midnightblue" stroke="midnightblue" points="63.663,-621 73.663,-617.5 63.6629,-614 63.663,-621"/>
</g>
<!-- Node5&#45;&gt;Node3 -->
<g id="edge7" class="edge"><title>Node5&#45;&gt;Node3</title>
<path fill="none" stroke="midnightblue" d="M838.472,-627.193C797.131,-638.452 723.969,-655.5 660,-655.5 660,-655.5 660,-655.5 282.5,-655.5 228.093,-655.5 166.293,-637.743 132.632,-626.505"/>
<polygon fill="midnightblue" stroke="midnightblue" points="839.575,-630.52 848.272,-624.47 837.7,-623.775 839.575,-630.52"/>
</g>
<!-- Node5&#45;&gt;Node4 -->
<g id="edge10" class="edge"><title>Node5&#45;&gt;Node4</title>
<path fill="none" stroke="midnightblue" d="M854.801,-634.069C821.081,-665.684 741.138,-731.5 660,-731.5 660,-731.5 660,-731.5 201.5,-731.5 122.986,-731.5 50.5978,-654.056 27.5749,-626.829"/>
<polygon fill="midnightblue" stroke="midnightblue" points="857.556,-636.277 862.351,-626.829 852.711,-631.224 857.556,-636.277"/>
</g>
<!-- Node6 -->
<g id="node6" class="node"><title>Node6</title>
<g id="a_node6"><a xlink:href="main_8c.html#af18ed7edda7874a97cacaa11a2759260" target="_top" xlink:title=" ">
<polygon fill="none" stroke="black" points="175,-456.5 175,-474.5 230,-474.5 230,-456.5 175,-456.5"/>
<text text-anchor="middle" x="202.5" y="-463.3" font-family="Calibri" font-size="9.00">btn_push</text>
</a>
</g>
</g>
<!-- Node5&#45;&gt;Node6 -->
<g id="edge5" class="edge"><title>Node5&#45;&gt;Node6</title>
<path fill="none" stroke="midnightblue" d="M838.213,-617.5C796.548,-617.5 722.997,-617.5 660,-617.5 660,-617.5 660,-617.5 363.5,-617.5 279.975,-617.5 222.678,-507.276 207.508,-474.553"/>
<polygon fill="midnightblue" stroke="midnightblue" points="838.341,-621 848.341,-617.5 838.341,-614 838.341,-621"/>
</g>
<!-- Node7 -->
<g id="node7" class="node"><title>Node7</title>
<g id="a_node7"><a xlink:href="main_8c.html#ac445892220ccb3b4b337dd3e764bd6c6" target="_top" xlink:title="Handle the process of the buttons being pressed (in test mode)">
<polygon fill="none" stroke="black" points="725,-798.5 725,-816.5 811,-816.5 811,-798.5 725,-798.5"/>
<text text-anchor="middle" x="768" y="-805.3" font-family="Calibri" font-size="9.00">button_proc_test</text>
</a>
</g>
</g>
<!-- Node5&#45;&gt;Node7 -->
<g id="edge8" class="edge"><title>Node5&#45;&gt;Node7</title>
<path fill="none" stroke="midnightblue" d="M863.726,-636.233C852.965,-661.582 832.422,-707.952 811,-745.5 799.918,-764.923 784.768,-786.234 776.019,-798.128"/>
<polygon fill="midnightblue" stroke="midnightblue" points="867.066,-637.319 867.712,-626.744 860.612,-634.607 867.066,-637.319"/>
</g>
<!-- Node8 -->
<g id="node8" class="node"><title>Node8</title>
<g id="a_node8"><a xlink:href="main_8c.html#a11724d8cce81ed96bec12a004ea3ea7a" target="_top" xlink:title=" ">
<polygon fill="none" stroke="black" points="736,-504.5 736,-522.5 800,-522.5 800,-504.5 736,-504.5"/>
<text text-anchor="middle" x="768" y="-511.3" font-family="Calibri" font-size="9.00">show_reset</text>
</a>
</g>
</g>
<!-- Node5&#45;&gt;Node8 -->
<g id="edge11" class="edge"><title>Node5&#45;&gt;Node8</title>
<path fill="none" stroke="midnightblue" d="M855.136,-600.897C833.238,-578.678 795.163,-540.046 777.929,-522.56"/>
<polygon fill="midnightblue" stroke="midnightblue" points="852.891,-603.605 862.404,-608.271 857.877,-598.692 852.891,-603.605"/>
</g>
<!-- Node6&#45;&gt;Node3 -->
<g id="edge6" class="edge"><title>Node6&#45;&gt;Node3</title>
<path fill="none" stroke="midnightblue" d="M190.405,-483.44C170.275,-515.992 128.409,-583.69 113.188,-608.302"/>
<polygon fill="midnightblue" stroke="midnightblue" points="193.618,-484.899 195.901,-474.553 187.665,-481.217 193.618,-484.899"/>
</g>
<!-- Node7&#45;&gt;Node4 -->
<g id="edge9" class="edge"><title>Node7&#45;&gt;Node4</title>
<path fill="none" stroke="midnightblue" d="M714.723,-807.5C673.511,-807.5 614.587,-807.5 563,-807.5 563,-807.5 563,-807.5 201.5,-807.5 138.489,-807.5 117.351,-791.229 74,-745.5 40.1496,-709.792 25.9578,-649.713 21.589,-626.778"/>
<polygon fill="midnightblue" stroke="midnightblue" points="714.804,-811 724.804,-807.5 714.804,-804 714.804,-811"/>
</g>
<!-- Node8&#45;&gt;Node3 -->
<g id="edge12" class="edge"><title>Node8&#45;&gt;Node3</title>
<path fill="none" stroke="midnightblue" d="M741.692,-527.374C703.949,-546.732 630.145,-579.5 563,-579.5 563,-579.5 563,-579.5 282.5,-579.5 228.093,-579.5 166.293,-597.257 132.632,-608.495"/>
<polygon fill="midnightblue" stroke="midnightblue" points="743.685,-530.282 750.916,-522.539 740.434,-524.082 743.685,-530.282"/>
</g>
<!-- Node9 -->
<g id="node9" class="node"><title>Node9</title>
<g id="a_node9"><a xlink:href="main_8h.html#ad7eb7423e0b17ccfba1ae42f3a3274e0" target="_top" xlink:title=" ">
<polygon fill="none" stroke="black" points="635,-461.5 635,-479.5 683,-479.5 683,-461.5 635,-461.5"/>
<text text-anchor="middle" x="659" y="-468.3" font-family="Calibri" font-size="9.00">get_swr</text>
</a>
</g>
</g>
<!-- Node8&#45;&gt;Node9 -->
<g id="edge13" class="edge"><title>Node8&#45;&gt;Node9</title>
<path fill="none" stroke="midnightblue" d="M735.05,-500.66C718.089,-493.844 697.66,-485.634 682.401,-479.502"/>
<polygon fill="midnightblue" stroke="midnightblue" points="733.985,-504.004 744.569,-504.486 736.596,-497.509 733.985,-504.004"/>
</g>
<!-- Node10 -->
<g id="node10" class="node"><title>Node10</title>
<g id="a_node10"><a xlink:href="main_8h.html#a740ef1b33bb02cd952ad7d8708999472" target="_top" xlink:title=" ">
<polygon fill="none" stroke="black" points="531,-418.5 531,-436.5 593,-436.5 593,-418.5 531,-418.5"/>
<text text-anchor="middle" x="562" y="-425.3" font-family="Calibri" font-size="9.00">coarse_cap</text>
</a>
</g>
</g>
<!-- Node9&#45;&gt;Node10 -->
<g id="edge14" class="edge"><title>Node9&#45;&gt;Node10</title>
<path fill="none" stroke="midnightblue" d="M628.619,-457.201C613.852,-450.517 596.337,-442.589 583.118,-436.606"/>
<polygon fill="midnightblue" stroke="midnightblue" points="627.299,-460.446 637.853,-461.381 630.186,-454.069 627.299,-460.446"/>
</g>
<!-- Node11 -->
<g id="node11" class="node"><title>Node11</title>
<g id="a_node11"><a xlink:href="main_8h.html#a5c7c60c7d70cf76cc52e87722bb0f614" target="_top" xlink:title=" ">
<polygon fill="none" stroke="black" points="428,-418.5 428,-436.5 495,-436.5 495,-418.5 428,-418.5"/>
<text text-anchor="middle" x="461.5" y="-425.3" font-family="Calibri" font-size="9.00">coarse_tune</text>
</a>
</g>
</g>
<!-- Node9&#45;&gt;Node11 -->
<g id="edge19" class="edge"><title>Node9&#45;&gt;Node11</title>
<path fill="none" stroke="midnightblue" d="M645.842,-453.013C634.242,-438.001 615.268,-417.417 593,-408.5 556.017,-393.691 509.02,-407.79 482.707,-418.342"/>
<polygon fill="midnightblue" stroke="midnightblue" points="643.037,-455.106 651.789,-461.077 648.671,-450.951 643.037,-455.106"/>
</g>
<!-- Node12 -->
<g id="node12" class="node"><title>Node12</title>
<g id="a_node12"><a xlink:href="main_8h.html#a454a7687c8039514766571b23516ca9c" target="_top" xlink:title=" ">
<polygon fill="none" stroke="black" points="337,-418.5 337,-436.5 392,-436.5 392,-418.5 337,-418.5"/>
<text text-anchor="middle" x="364.5" y="-425.3" font-family="Calibri" font-size="9.00">sub_tune</text>
</a>
</g>
</g>
<!-- Node9&#45;&gt;Node12 -->
<g id="edge26" class="edge"><title>Node9&#45;&gt;Node12</title>
<path fill="none" stroke="midnightblue" d="M648.057,-452.714C637.135,-435.2 617.8,-409.522 593,-398.5 521.505,-366.724 425.728,-400.815 385.069,-418.379"/>
<polygon fill="midnightblue" stroke="midnightblue" points="645.131,-454.641 653.241,-461.458 651.153,-451.072 645.131,-454.641"/>
</g>
<!-- Node13 -->
<g id="node13" class="node"><title>Node13</title>
<g id="a_node13"><a xlink:href="main_8h.html#a1849f2e5bd63d11a7b9549470e287d17" target="_top" xlink:title=" ">
<polygon fill="none" stroke="black" points="266,-456.5 266,-474.5 301,-474.5 301,-456.5 266,-456.5"/>
<text text-anchor="middle" x="283.5" y="-463.3" font-family="Calibri" font-size="9.00">tune</text>
</a>
</g>
</g>
<!-- Node9&#45;&gt;Node13 -->
<g id="edge27" class="edge"><title>Node9&#45;&gt;Node13</title>
<path fill="none" stroke="midnightblue" d="M633.591,-484.443C621.669,-490.747 606.922,-497.817 593,-502.5 523.034,-526.035 501.299,-530.235 428,-521.5 386.683,-516.577 375.228,-515.931 337,-499.5 321.836,-492.982 306.171,-482.218 295.946,-474.548"/>
<polygon fill="midnightblue" stroke="midnightblue" points="635.363,-487.463 642.476,-479.612 632.019,-481.314 635.363,-487.463"/>
</g>
<!-- Node14 -->
<g id="node14" class="node"><title>Node14</title>
<g id="a_node14"><a xlink:href="main_8h.html#ab518a3d2c723f12d3af3024a195606ce" target="_top" xlink:title=" ">
<polygon fill="none" stroke="black" points="432,-494.5 432,-512.5 491,-512.5 491,-494.5 432,-494.5"/>
<text text-anchor="middle" x="461.5" y="-501.3" font-family="Calibri" font-size="9.00">sharp_cap</text>
</a>
</g>
</g>
<!-- Node9&#45;&gt;Node14 -->
<g id="edge20" class="edge"><title>Node9&#45;&gt;Node14</title>
<path fill="none" stroke="midnightblue" d="M624.722,-476.796C614.549,-478.679 603.323,-480.717 593,-482.5 557.95,-488.555 517.503,-494.976 491.044,-499.1"/>
<polygon fill="midnightblue" stroke="midnightblue" points="625.67,-480.179 634.859,-474.906 624.387,-473.298 625.67,-480.179"/>
</g>
<!-- Node15 -->
<g id="node15" class="node"><title>Node15</title>
<g id="a_node15"><a xlink:href="main_8h.html#a72210b3ed1d5691c5bbda8c7f1e97197" target="_top" xlink:title=" ">
<polygon fill="none" stroke="black" points="432.5,-456.5 432.5,-474.5 490.5,-474.5 490.5,-456.5 432.5,-456.5"/>
<text text-anchor="middle" x="461.5" y="-463.3" font-family="Calibri" font-size="9.00">sharp_ind</text>
</a>
</g>
</g>
<!-- Node9&#45;&gt;Node15 -->
<g id="edge23" class="edge"><title>Node9&#45;&gt;Node15</title>
<path fill="none" stroke="midnightblue" d="M624.342,-469.639C586.603,-468.674 526.071,-467.126 490.712,-466.222"/>
<polygon fill="midnightblue" stroke="midnightblue" points="624.72,-473.15 634.806,-469.907 624.899,-466.152 624.72,-473.15"/>
</g>
<!-- Node10&#45;&gt;Node11 -->
<g id="edge15" class="edge"><title>Node10&#45;&gt;Node11</title>
<path fill="none" stroke="midnightblue" d="M520.77,-427.5C512.245,-427.5 503.347,-427.5 495.145,-427.5"/>
<polygon fill="midnightblue" stroke="midnightblue" points="520.912,-431 530.912,-427.5 520.912,-424 520.912,-431"/>
</g>
<!-- Node11&#45;&gt;Node12 -->
<g id="edge16" class="edge"><title>Node11&#45;&gt;Node12</title>
<path fill="none" stroke="midnightblue" d="M417.785,-427.5C409.104,-427.5 400.207,-427.5 392.271,-427.5"/>
<polygon fill="midnightblue" stroke="midnightblue" points="417.806,-431 427.806,-427.5 417.806,-424 417.806,-431"/>
</g>
<!-- Node12&#45;&gt;Node13 -->
<g id="edge17" class="edge"><title>Node12&#45;&gt;Node13</title>
<path fill="none" stroke="midnightblue" d="M335.566,-440.936C324.085,-446.459 311.174,-452.669 301.207,-457.464"/>
<polygon fill="midnightblue" stroke="midnightblue" points="337.284,-443.994 344.778,-436.505 334.249,-437.686 337.284,-443.994"/>
</g>
<!-- Node13&#45;&gt;Node6 -->
<g id="edge18" class="edge"><title>Node13&#45;&gt;Node6</title>
<path fill="none" stroke="midnightblue" d="M255.568,-465.5C247.367,-465.5 238.36,-465.5 230.177,-465.5"/>
<polygon fill="midnightblue" stroke="midnightblue" points="255.746,-469 265.746,-465.5 255.746,-462 255.746,-469"/>
</g>
<!-- Node14&#45;&gt;Node12 -->
<g id="edge21" class="edge"><title>Node14&#45;&gt;Node12</title>
<path fill="none" stroke="midnightblue" d="M435.955,-489.052C433.223,-487.252 430.52,-485.381 428,-483.5 407.917,-468.512 386.607,-448.385 374.785,-436.79"/>
<polygon fill="midnightblue" stroke="midnightblue" points="434.26,-492.121 444.588,-494.486 437.989,-486.197 434.26,-492.121"/>
</g>
<!-- Node14&#45;&gt;Node13 -->
<g id="edge22" class="edge"><title>Node14&#45;&gt;Node13</title>
<path fill="none" stroke="midnightblue" d="M421.972,-496.716C397.538,-492.241 365.309,-486.017 337,-479.5 325.05,-476.749 311.698,-473.182 301.45,-470.337"/>
<polygon fill="midnightblue" stroke="midnightblue" points="421.468,-500.182 431.933,-498.523 422.718,-493.294 421.468,-500.182"/>
</g>
<!-- Node15&#45;&gt;Node12 -->
<g id="edge24" class="edge"><title>Node15&#45;&gt;Node12</title>
<path fill="none" stroke="midnightblue" d="M428.325,-452.63C415.139,-447.356 400.189,-441.376 388.181,-436.573"/>
<polygon fill="midnightblue" stroke="midnightblue" points="427.402,-456.03 437.986,-456.495 430.001,-449.531 427.402,-456.03"/>
</g>
<!-- Node15&#45;&gt;Node13 -->
<g id="edge25" class="edge"><title>Node15&#45;&gt;Node13</title>
<path fill="none" stroke="midnightblue" d="M422.097,-465.5C384.36,-465.5 328.557,-465.5 301.055,-465.5"/>
<polygon fill="midnightblue" stroke="midnightblue" points="422.223,-469 432.223,-465.5 422.223,-462 422.223,-469"/>
</g>
<!-- Node16&#45;&gt;Node4 -->
<g id="edge29" class="edge"><title>Node16&#45;&gt;Node4</title>
<path fill="none" stroke="midnightblue" d="M526.966,-47.5C487.962,-47.5 422.119,-47.5 365.5,-47.5 365.5,-47.5 365.5,-47.5 201.5,-47.5 143.838,-47.5 112.951,-28.9831 74,-71.5 36.1167,-112.851 22.2349,-540.179 20.2546,-608.353"/>
<polygon fill="midnightblue" stroke="midnightblue" points="527.226,-51.0001 537.226,-47.5 527.226,-44.0001 527.226,-51.0001"/>
</g>
<!-- Node17&#45;&gt;Node3 -->
<g id="edge32" class="edge"><title>Node17&#45;&gt;Node3</title>
<path fill="none" stroke="midnightblue" d="M1118.01,-525.012C1116.96,-525.788 1115.95,-526.616 1115,-527.5 1085.26,-555.167 1104.35,-579.764 1079,-611.5 1040.27,-659.984 1028.05,-693.5 966,-693.5 966,-693.5 966,-693.5 282.5,-693.5 215.922,-693.5 146.01,-646.648 119.043,-626.517"/>
<polygon fill="midnightblue" stroke="midnightblue" points="1119.83,-528.005 1126.79,-520.021 1116.37,-521.919 1119.83,-528.005"/>
</g>
<!-- Node17&#45;&gt;Node4 -->
<g id="edge52" class="edge"><title>Node17&#45;&gt;Node4</title>
<path fill="none" stroke="midnightblue" d="M1154.77,-532.694C1150.76,-608.574 1125.26,-883.5 966,-883.5 966,-883.5 966,-883.5 201.5,-883.5 142.853,-883.5 114.803,-891.626 74,-849.5 41.9915,-816.453 24.8309,-665.597 20.8877,-626.681"/>
<polygon fill="midnightblue" stroke="midnightblue" points="1158.27,-532.796 1155.23,-522.646 1151.27,-532.475 1158.27,-532.796"/>
</g>
<!-- Node17&#45;&gt;Node5 -->
<g id="edge49" class="edge"><title>Node17&#45;&gt;Node5</title>
<path fill="none" stroke="midnightblue" d="M1143.23,-530.811C1129.67,-548.473 1106.14,-575.128 1079,-588.5 1018.4,-618.361 936.331,-620.037 896.75,-618.796"/>
<polygon fill="midnightblue" stroke="midnightblue" points="1146.23,-532.632 1149.37,-522.513 1140.61,-528.466 1146.23,-532.632"/>
</g>
<!-- Node17&#45;&gt;Node6 -->
<g id="edge31" class="edge"><title>Node17&#45;&gt;Node6</title>
<path fill="none" stroke="midnightblue" d="M1153.32,-494.257C1144.41,-425.994 1104.44,-199.5 966,-199.5 966,-199.5 966,-199.5 363.5,-199.5 240.898,-199.5 209.844,-409.57 204.449,-456.344"/>
<polygon fill="midnightblue" stroke="midnightblue" points="1149.88,-494.941 1154.56,-504.441 1156.82,-494.09 1149.88,-494.941"/>
</g>
<!-- Node17&#45;&gt;Node7 -->
<g id="edge33" class="edge"><title>Node17&#45;&gt;Node7</title>
<path fill="none" stroke="midnightblue" d="M1151.36,-532.688C1142.75,-569.42 1120.17,-651.03 1079,-707.5 1050.9,-746.033 1039.27,-755.446 996,-775.5 936.059,-803.282 858.407,-808.49 811.216,-808.717"/>
<polygon fill="midnightblue" stroke="midnightblue" points="1154.81,-533.333 1153.6,-522.807 1147.98,-531.791 1154.81,-533.333"/>
</g>
<!-- Node17&#45;&gt;Node8 -->
<g id="edge56" class="edge"><title>Node17&#45;&gt;Node8</title>
<path fill="none" stroke="midnightblue" d="M1116.56,-513.5C1039.73,-513.5 870.005,-513.5 800.061,-513.5"/>
<polygon fill="midnightblue" stroke="midnightblue" points="1116.77,-517 1126.77,-513.5 1116.77,-510 1116.77,-517"/>
</g>
<!-- Node18 -->
<g id="node18" class="node"><title>Node18</title>
<g id="a_node18"><a xlink:href="main_8c.html#a6911b3f075cdf1d54cb14f17f6e5ef6b" target="_top" xlink:title=" ">
<polygon fill="none" stroke="black" points="1032,-304.5 1032,-322.5 1079,-322.5 1079,-304.5 1032,-304.5"/>
<text text-anchor="middle" x="1055.5" y="-311.3" font-family="Calibri" font-size="9.00">lcd_ind</text>
</a>
</g>
</g>
<!-- Node17&#45;&gt;Node18 -->
<g id="edge34" class="edge"><title>Node17&#45;&gt;Node18</title>
<path fill="none" stroke="midnightblue" d="M1146.55,-495.423C1126.06,-454.023 1076.31,-353.528 1061.04,-322.667"/>
<polygon fill="midnightblue" stroke="midnightblue" points="1143.42,-496.977 1150.99,-504.387 1149.69,-493.872 1143.42,-496.977"/>
</g>
<!-- Node19 -->
<g id="node19" class="node"><title>Node19</title>
<g id="a_node19"><a xlink:href="main_8c.html#a46f52cccc77b5d2d91f35334046bc8eb" target="_top" xlink:title=" ">
<polygon fill="none" stroke="black" points="939,-114.5 939,-132.5 991,-132.5 991,-114.5 939,-114.5"/>
<text text-anchor="middle" x="965" y="-121.3" font-family="Calibri" font-size="9.00">lcd_prep</text>
</a>
</g>
</g>
<!-- Node17&#45;&gt;Node19 -->
<g id="edge48" class="edge"><title>Node17&#45;&gt;Node19</title>
<path fill="none" stroke="midnightblue" d="M1156.18,-493.992C1157.1,-439.397 1152.76,-282.712 1079,-185.5 1056.95,-156.442 1017.17,-139.252 991.175,-130.598"/>
<polygon fill="midnightblue" stroke="midnightblue" points="1152.68,-494.212 1155.92,-504.297 1159.68,-494.389 1152.68,-494.212"/>
</g>
<!-- Node20 -->
<g id="node20" class="node"><title>Node20</title>
<g id="a_node20"><a xlink:href="main_8c.html#a7a367b10f22edd310a36627b6c941255" target="_top" xlink:title=" ">
<polygon fill="none" stroke="black" points="847,-76.5 847,-94.5 898,-94.5 898,-76.5 847,-76.5"/>
<text text-anchor="middle" x="872.5" y="-83.3" font-family="Calibri" font-size="9.00">test_init</text>
</a>
</g>
</g>
<!-- Node17&#45;&gt;Node20 -->
<g id="edge57" class="edge"><title>Node17&#45;&gt;Node20</title>
<path fill="none" stroke="midnightblue" d="M1153.73,-494.332C1147.16,-426.872 1122.31,-201.486 1079,-145.5 1035.56,-89.3533 942.549,-83.5886 898.116,-84.281"/>
<polygon fill="midnightblue" stroke="midnightblue" points="1150.25,-494.767 1154.68,-504.39 1157.22,-494.104 1150.25,-494.767"/>
</g>
<!-- Node21 -->
<g id="node21" class="node"><title>Node21</title>
<g id="a_node21"><a xlink:href="main_8c.html#a4ae0d4fa97fc0ca3611813fee4f9af7c" target="_top" xlink:title=" ">
<polygon fill="none" stroke="black" points="936,-464.5 936,-482.5 994,-482.5 994,-464.5 936,-464.5"/>
<text text-anchor="middle" x="965" y="-471.3" font-family="Calibri" font-size="9.00">show_pwr</text>
</a>
</g>
</g>
<!-- Node17&#45;&gt;Node21 -->
<g id="edge55" class="edge"><title>Node17&#45;&gt;Node21</title>
<path fill="none" stroke="midnightblue" d="M1116.93,-505.359C1080.49,-497.666 1026.68,-486.308 994.122,-479.436"/>
<polygon fill="midnightblue" stroke="midnightblue" points="1116.21,-508.784 1126.72,-507.425 1117.66,-501.935 1116.21,-508.784"/>
</g>
<!-- Node22 -->
<g id="node22" class="node"><title>Node22</title>
<g id="a_node22"><a xlink:href="main_8c.html#aa8fd50019a763561abc6621bb224417f" target="_top" xlink:title=" ">
<polygon fill="none" stroke="black" points="1032,-561.5 1032,-579.5 1079,-579.5 1079,-561.5 1032,-561.5"/>
<text text-anchor="middle" x="1055.5" y="-568.3" font-family="Calibri" font-size="9.00">lcd_swr</text>
</a>
</g>
</g>
<!-- Node17&#45;&gt;Node22 -->
<g id="edge50" class="edge"><title>Node17&#45;&gt;Node22</title>
<path fill="none" stroke="midnightblue" d="M1130.91,-527.655C1112.61,-538.195 1088.16,-552.274 1072.37,-561.365"/>
<polygon fill="midnightblue" stroke="midnightblue" points="1132.67,-530.681 1139.59,-522.658 1129.18,-524.615 1132.67,-530.681"/>
</g>
<!-- Node23 -->
<g id="node23" class="node"><title>Node23</title>
<g id="a_node23"><a xlink:href="main_8c.html#aad7203cfd92bc4b814e43c04a209f634" target="_top" xlink:title=" ">
<polygon fill="none" stroke="black" points="629,-836.5 629,-854.5 689,-854.5 689,-836.5 629,-836.5"/>
<text text-anchor="middle" x="659" y="-843.3" font-family="Calibri" font-size="9.00">show_loss</text>
</a>
</g>
</g>
<!-- Node17&#45;&gt;Node23 -->
<g id="edge53" class="edge"><title>Node17&#45;&gt;Node23</title>
<path fill="none" stroke="midnightblue" d="M1153.81,-532.936C1146.48,-603.985 1110.91,-845.5 966,-845.5 966,-845.5 966,-845.5 871.5,-845.5 806.324,-845.5 729.851,-845.5 689.08,-845.5"/>
<polygon fill="midnightblue" stroke="midnightblue" points="1157.32,-533.014 1154.79,-522.726 1150.35,-532.348 1157.32,-533.014"/>
</g>
<!-- Node18&#45;&gt;Node3 -->
<g id="edge36" class="edge"><title>Node18&#45;&gt;Node3</title>
<path fill="none" stroke="midnightblue" d="M1033.92,-298.464C1001.52,-276.311 935.849,-237.5 873.5,-237.5 873.5,-237.5 873.5,-237.5 282.5,-237.5 113.631,-237.5 107.151,-550.937 107.384,-608.481"/>
<polygon fill="midnightblue" stroke="midnightblue" points="1032.31,-301.61 1042.51,-304.483 1036.33,-295.878 1032.31,-301.61"/>
</g>
<!-- Node18&#45;&gt;Node4 -->
<g id="edge42" class="edge"><title>Node18&#45;&gt;Node4</title>
<path fill="none" stroke="midnightblue" d="M1044.59,-295.703C1020.77,-255.572 956.141,-161.5 873.5,-161.5 873.5,-161.5 873.5,-161.5 201.5,-161.5 101.595,-161.5 32.4251,-544.123 21.5115,-608.391"/>
<polygon fill="midnightblue" stroke="midnightblue" points="1041.6,-297.534 1049.63,-304.447 1047.67,-294.036 1041.6,-297.534"/>
</g>
<!-- Node18&#45;&gt;Node6 -->
<g id="edge35" class="edge"><title>Node18&#45;&gt;Node6</title>
<path fill="none" stroke="midnightblue" d="M1022.06,-302.455C986.166,-291.236 926.395,-275.5 873.5,-275.5 873.5,-275.5 873.5,-275.5 363.5,-275.5 267.764,-275.5 217.748,-418.383 206.151,-456.336"/>
<polygon fill="midnightblue" stroke="midnightblue" points="1021.37,-305.91 1031.96,-305.626 1023.51,-299.243 1021.37,-305.91"/>
</g>
<!-- Node18&#45;&gt;Node7 -->
<g id="edge37" class="edge"><title>Node18&#45;&gt;Node7</title>
<path fill="none" stroke="midnightblue" d="M1052.49,-333.068C1043.9,-415.833 1010.12,-733.625 996,-749.5 983.649,-763.385 873.251,-787.003 811.086,-799.382"/>
<polygon fill="midnightblue" stroke="midnightblue" points="1056.02,-332.933 1053.57,-322.626 1049.06,-332.213 1056.02,-332.933"/>
</g>
<!-- Node18&#45;&gt;Node8 -->
<g id="edge46" class="edge"><title>Node18&#45;&gt;Node8</title>
<path fill="none" stroke="midnightblue" d="M1033.03,-328.542C976.94,-367.833 827.257,-472.689 782.086,-504.333"/>
<polygon fill="midnightblue" stroke="midnightblue" points="1035.31,-331.217 1041.49,-322.613 1031.29,-325.484 1035.31,-331.217"/>
</g>
<!-- Node18&#45;&gt;Node13 -->
<g id="edge47" class="edge"><title>Node18&#45;&gt;Node13</title>
<path fill="none" stroke="midnightblue" d="M1021.46,-313.5C985.176,-313.5 925.187,-313.5 873.5,-313.5 873.5,-313.5 873.5,-313.5 460.5,-313.5 372.486,-313.5 306.743,-423.724 289.165,-456.447"/>
<polygon fill="midnightblue" stroke="midnightblue" points="1021.93,-317 1031.93,-313.5 1021.93,-310 1021.93,-317"/>
</g>
<!-- Node18&#45;&gt;Node19 -->
<g id="edge38" class="edge"><title>Node18&#45;&gt;Node19</title>
<path fill="none" stroke="midnightblue" d="M1051.34,-294.422C1045.19,-261.802 1029.23,-194.303 996,-147.5 991.907,-141.735 986.06,-136.63 980.613,-132.626"/>
<polygon fill="midnightblue" stroke="midnightblue" points="1047.92,-295.181 1053.11,-304.415 1054.81,-293.957 1047.92,-295.181"/>
</g>
<!-- Node18&#45;&gt;Node21 -->
<g id="edge43" class="edge"><title>Node18&#45;&gt;Node21</title>
<path fill="none" stroke="midnightblue" d="M1044.59,-331.415C1025.78,-365.427 985.49,-438.263 971.177,-464.14"/>
<polygon fill="midnightblue" stroke="midnightblue" points="1047.71,-333.005 1049.49,-322.561 1041.59,-329.617 1047.71,-333.005"/>
</g>
<!-- Node19&#45;&gt;Node4 -->
<g id="edge39" class="edge"><title>Node19&#45;&gt;Node4</title>
<path fill="none" stroke="midnightblue" d="M928.439,-123.5C889.351,-123.5 824.701,-123.5 769,-123.5 769,-123.5 769,-123.5 201.5,-123.5 143.838,-123.5 113.286,-105.292 74,-147.5 41.2636,-182.671 23.2559,-546.235 20.4026,-608.463"/>
<polygon fill="midnightblue" stroke="midnightblue" points="928.758,-127 938.758,-123.5 928.758,-120 928.758,-127"/>
</g>
<!-- Node19&#45;&gt;Node20 -->
<g id="edge40" class="edge"><title>Node19&#45;&gt;Node20</title>
<path fill="none" stroke="midnightblue" d="M932.979,-110.475C920.509,-105.239 906.434,-99.3285 895.107,-94.5725"/>
<polygon fill="midnightblue" stroke="midnightblue" points="931.978,-113.85 942.553,-114.495 934.688,-107.396 931.978,-113.85"/>
</g>
<!-- Node20&#45;&gt;Node4 -->
<g id="edge41" class="edge"><title>Node20&#45;&gt;Node4</title>
<path fill="none" stroke="midnightblue" d="M836.52,-85.5C794.578,-85.5 722.152,-85.5 660,-85.5 660,-85.5 660,-85.5 201.5,-85.5 143.838,-85.5 113.107,-67.126 74,-109.5 38.7364,-147.71 22.7663,-542.173 20.3325,-608.161"/>
<polygon fill="midnightblue" stroke="midnightblue" points="836.754,-89.0001 846.754,-85.5 836.754,-82.0001 836.754,-89.0001"/>
</g>
<!-- Node21&#45;&gt;Node5 -->
<g id="edge45" class="edge"><title>Node21&#45;&gt;Node5</title>
<path fill="none" stroke="midnightblue" d="M953.016,-490.978C933.602,-521.869 893.886,-585.063 879.159,-608.496"/>
<polygon fill="midnightblue" stroke="midnightblue" points="955.981,-492.837 958.339,-482.508 950.054,-489.112 955.981,-492.837"/>
</g>
<!-- Node21&#45;&gt;Node9 -->
<g id="edge44" class="edge"><title>Node21&#45;&gt;Node9</title>
<path fill="none" stroke="midnightblue" d="M925.896,-473.124C862.09,-472.494 735.498,-471.245 683.318,-470.73"/>
<polygon fill="midnightblue" stroke="midnightblue" points="925.911,-476.624 935.945,-473.223 925.98,-469.625 925.911,-476.624"/>
</g>
<!-- Node22&#45;&gt;Node5 -->
<g id="edge51" class="edge"><title>Node22&#45;&gt;Node5</title>
<path fill="none" stroke="midnightblue" d="M1021.41,-575.561C996.997,-579.663 963.109,-586.131 934,-594.5 920.717,-598.319 906.231,-603.778 894.766,-608.419"/>
<polygon fill="midnightblue" stroke="midnightblue" points="1022.27,-578.966 1031.58,-573.897 1021.14,-572.058 1022.27,-578.966"/>
</g>
<!-- Node23&#45;&gt;Node4 -->
<g id="edge54" class="edge"><title>Node23&#45;&gt;Node4</title>
<path fill="none" stroke="midnightblue" d="M618.85,-845.5C579.382,-845.5 516.713,-845.5 462.5,-845.5 462.5,-845.5 462.5,-845.5 201.5,-845.5 143.838,-845.5 116.228,-860.764 74,-821.5 44.4865,-794.058 25.819,-663.123 21.1524,-626.84"/>
<polygon fill="midnightblue" stroke="midnightblue" points="618.853,-849 628.853,-845.5 618.853,-842 618.853,-849"/>
</g>
</g>
</svg>
        <g id="navigator" transform="translate(0 0)" fill="#404254">
                <rect fill="#f2f5e9" fill-opacity="0.5" stroke="#606060" stroke-width=".5" x="0" y="0" width="60" height="60"/>
                <use id="zoomplus" xlink:href="#zoomPlus" x="17" y="9" onmousedown="handleZoom(evt,'in')"/>
                <use id="zoomminus" xlink:href="#zoomMin" x="42" y="9" onmousedown="handleZoom(evt,'out')"/>
                <use id="reset" xlink:href="#resetDef" x="30" y="36" onmousedown="handleReset()"/>
                <g id="arrowUp" xlink:href="#dirArrow" transform="translate(30 24)" onmousedown="handlePan(0,-1)">
                  <use xlink:href="#rim" fill="#404040">
                        <set attributeName="fill" to="#808080" begin="arrowUp.mouseover" end="arrowUp.mouseout"/>
                  </use>
                  <path fill="none" stroke="white" stroke-width="1.5" d="M0,-3.0v7 M-2.5,-0.5L0,-3.0L2.5,-0.5"/>
                </g>
                <g id="arrowRight" xlink:href="#dirArrow" transform="rotate(90) translate(36 -43)" onmousedown="handlePan(1,0)">
                  <use xlink:href="#rim" fill="#404040">
                        <set attributeName="fill" to="#808080" begin="arrowRight.mouseover" end="arrowRight.mouseout"/>
                  </use>
                  <path fill="none" stroke="white" stroke-width="1.5" d="M0,-3.0v7 M-2.5,-0.5L0,-3.0L2.5,-0.5"/>
                </g>
                <g id="arrowDown" xlink:href="#dirArrow" transform="rotate(180) translate(-30 -48)" onmousedown="handlePan(0,1)">
                  <use xlink:href="#rim" fill="#404040">
                        <set attributeName="fill" to="#808080" begin="arrowDown.mouseover" end="arrowDown.mouseout"/>
                  </use>
                  <path fill="none" stroke="white" stroke-width="1.5" d="M0,-3.0v7 M-2.5,-0.5L0,-3.0L2.5,-0.5"/>
                </g>
                <g id="arrowLeft" xlink:href="#dirArrow" transform="rotate(270) translate(-36 17)" onmousedown="handlePan(-1,0)">
                  <use xlink:href="#rim" fill="#404040">
                        <set attributeName="fill" to="#808080" begin="arrowLeft.mouseover" end="arrowLeft.mouseout"/>
                  </use>
                  <path fill="none" stroke="white" stroke-width="1.5" d="M0,-3.0v7 M-2.5,-0.5L0,-3.0L2.5,-0.5"/>
                </g>
        </g>
        <svg viewBox="0 0 15 15" width="100%" height="30px" preserveAspectRatio="xMaxYMin meet">
         <g id="arrow_out" transform="scale(0.3 0.3)">
          <a xlink:href="oled__control_8h_a9a67e6ead083d25fcf79470a33cbb629_icgraph_org.svg" target="_base">
           <rect id="button" ry="5" rx="5" y="6" x="6" height="38" width="38"
                fill="#f2f5e9" fill-opacity="0.5" stroke="#606060" stroke-width="1.0"/>
           <path id="arrow"
             d="M 11.500037,31.436501 C 11.940474,20.09759 22.043105,11.32322 32.158766,21.979434 L 37.068811,17.246167 C 37.068811,17.246167 37.088388,32 37.088388,32 L 22.160133,31.978069 C 22.160133,31.978069 26.997745,27.140456 26.997745,27.140456 C 18.528582,18.264221 13.291696,25.230495 11.500037,31.436501 z"
             style="fill:#404040;"/>
          </a>
         </g>
        </svg>
</svg>
