<?xml version="1.0" encoding="UTF-8" standalone="no"?>
<!DOCTYPE svg PUBLIC "-//W3C//DTD SVG 1.1//EN"
 "http://www.w3.org/Graphics/SVG/1.1/DTD/svg11.dtd">
<!-- Generated by graphviz version 2.38.0 (20140413.2041)
 -->
<!-- Title: set_addressing Pages: 1 -->
<svg width="1384pt" height="854pt"
 viewBox="0.00 0.00 1384.00 853.50" xmlns="http://www.w3.org/2000/svg" xmlns:xlink="http://www.w3.org/1999/xlink">
<g id="graph0" class="graph" transform="scale(1 1) rotate(0) translate(4 849.5)">
<title>set_addressing</title>
<!-- Node1 -->
<g id="node1" class="node"><title>Node1</title>
<g id="a_node1"><a xlink:title=" ">
<polygon fill="#bfbfbf" stroke="black" points="1296,-712 1296,-730 1376,-730 1376,-712 1296,-712"/>
<text text-anchor="middle" x="1336" y="-718.8" font-family="Calibri" font-size="9.00">set_addressing</text>
</a>
</g>
</g>
<!-- Node2 -->
<g id="node2" class="node"><title>Node2</title>
<g id="a_node2"><a xlink:href="oled__control_8c.html#ad95f850c4c6d949229270c8da88c02cb" target="_top" xlink:title=" ">
<polygon fill="none" stroke="black" points="1200.5,-769 1200.5,-787 1254.5,-787 1254.5,-769 1200.5,-769"/>
<text text-anchor="middle" x="1227.5" y="-775.8" font-family="Calibri" font-size="9.00">oled_init</text>
</a>
</g>
</g>
<!-- Node1&#45;&gt;Node2 -->
<g id="edge1" class="edge"><title>Node1&#45;&gt;Node2</title>
<path fill="none" stroke="midnightblue" d="M1308.82,-735.011C1289.1,-745.566 1262.63,-759.732 1245.57,-768.865"/>
<polygon fill="midnightblue" stroke="midnightblue" points="1310.72,-737.963 1317.89,-730.158 1307.42,-731.791 1310.72,-737.963"/>
</g>
<!-- Node5 -->
<g id="node5" class="node"><title>Node5</title>
<g id="a_node5"><a xlink:href="oled__control_8c.html#a6e85fd05697e2238e4d9babf1c952772" target="_top" xlink:title=" ">
<polygon fill="none" stroke="black" points="1195,-656 1195,-674 1260,-674 1260,-656 1195,-656"/>
<text text-anchor="middle" x="1227.5" y="-662.8" font-family="Calibri" font-size="9.00">oled_wr_str</text>
</a>
</g>
</g>
<!-- Node1&#45;&gt;Node5 -->
<g id="edge4" class="edge"><title>Node1&#45;&gt;Node5</title>
<path fill="none" stroke="midnightblue" d="M1308.38,-707.003C1288.78,-696.698 1262.7,-682.984 1245.76,-674.075"/>
<polygon fill="midnightblue" stroke="midnightblue" points="1306.93,-710.196 1317.41,-711.753 1310.19,-704.001 1306.93,-710.196"/>
</g>
<!-- Node3 -->
<g id="node3" class="node"><title>Node3</title>
<g id="a_node3"><a xlink:href="oled__control_8c.html#a7eb4d382bdd4b42c57dbb7154d03ac66" target="_top" xlink:title=" ">
<polygon fill="none" stroke="black" points="629,-827 629,-845 678,-845 678,-827 629,-827"/>
<text text-anchor="middle" x="653.5" y="-833.8" font-family="Calibri" font-size="9.00">led_init</text>
</a>
</g>
</g>
<!-- Node2&#45;&gt;Node3 -->
<g id="edge2" class="edge"><title>Node2&#45;&gt;Node3</title>
<path fill="none" stroke="midnightblue" d="M1200.65,-791.598C1165.6,-808.741 1100.57,-836 1041.5,-836 1041.5,-836 1041.5,-836 860.5,-836 794.516,-836 716.642,-836 678.29,-836"/>
<polygon fill="midnightblue" stroke="midnightblue" points="1202.34,-794.668 1209.71,-787.063 1199.2,-788.409 1202.34,-794.668"/>
</g>
<!-- Node4 -->
<g id="node4" class="node"><title>Node4</title>
<g id="a_node4"><a xlink:href="main_8c.html#acdef7a1fd863a6d3770c1268cb06add3" target="_top" xlink:title=" ">
<polygon fill="none" stroke="black" points="0,-675 0,-693 38,-693 38,-675 0,-675"/>
<text text-anchor="middle" x="19" y="-681.8" font-family="Calibri" font-size="9.00">main</text>
</a>
</g>
</g>
<!-- Node3&#45;&gt;Node4 -->
<g id="edge3" class="edge"><title>Node3&#45;&gt;Node4</title>
<path fill="none" stroke="midnightblue" d="M618.798,-836C580.816,-836 517.225,-836 462.5,-836 462.5,-836 462.5,-836 201.5,-836 142.737,-836 118.825,-838.998 74,-801 39.3575,-771.634 25.7007,-715.271 21.5307,-693.192"/>
<polygon fill="midnightblue" stroke="midnightblue" points="618.803,-839.5 628.803,-836 618.803,-832.5 618.803,-839.5"/>
</g>
<!-- Node6 -->
<g id="node6" class="node"><title>Node6</title>
<g id="a_node6"><a xlink:href="oled__control_8c.html#a1c8eef09adf01c9a7e3c6188f25c3c48" target="_top" xlink:title=" ">
<polygon fill="none" stroke="black" points="1100,-504 1100,-522 1159,-522 1159,-504 1100,-504"/>
<text text-anchor="middle" x="1129.5" y="-510.8" font-family="Calibri" font-size="9.00">led_wr_str</text>
</a>
</g>
</g>
<!-- Node5&#45;&gt;Node6 -->
<g id="edge5" class="edge"><title>Node5&#45;&gt;Node6</title>
<path fill="none" stroke="midnightblue" d="M1215.43,-647.479C1194.98,-615.093 1151.92,-546.916 1136.31,-522.198"/>
<polygon fill="midnightblue" stroke="midnightblue" points="1212.48,-649.361 1220.78,-655.947 1218.4,-645.623 1212.48,-649.361"/>
</g>
<!-- Node6&#45;&gt;Node4 -->
<g id="edge51" class="edge"><title>Node6&#45;&gt;Node4</title>
<path fill="none" stroke="midnightblue" d="M1127.3,-532.554C1123.93,-571.334 1111.24,-658.744 1064,-711 1027.84,-751.004 1006.93,-760 953,-760 953,-760 953,-760 201.5,-760 142.496,-760 127.028,-748.875 74,-723 57.5789,-714.987 40.8579,-702.009 30.4623,-693.247"/>
<polygon fill="midnightblue" stroke="midnightblue" points="1130.82,-532.405 1128.08,-522.172 1123.84,-531.884 1130.82,-532.405"/>
</g>
<!-- Node7 -->
<g id="node7" class="node"><title>Node7</title>
<g id="a_node7"><a xlink:href="main_8c.html#af18ed7edda7874a97cacaa11a2759260" target="_top" xlink:title=" ">
<polygon fill="none" stroke="black" points="175,-284 175,-302 230,-302 230,-284 175,-284"/>
<text text-anchor="middle" x="202.5" y="-290.8" font-family="Calibri" font-size="9.00">btn_push</text>
</a>
</g>
</g>
<!-- Node6&#45;&gt;Node7 -->
<g id="edge6" class="edge"><title>Node6&#45;&gt;Node7</title>
<path fill="none" stroke="midnightblue" d="M1112.28,-496.975C1083.08,-469.896 1018.55,-418 953,-418 953,-418 953,-418 363.5,-418 288.418,-418 227.513,-331.465 209.171,-302.395"/>
<polygon fill="midnightblue" stroke="midnightblue" points="1109.9,-499.536 1119.55,-503.891 1114.72,-494.463 1109.9,-499.536"/>
</g>
<!-- Node8 -->
<g id="node8" class="node"><title>Node8</title>
<g id="a_node8"><a xlink:href="main_8c.html#a1c9e5d54d8cf7f3d041aa2e0b330b3dd" target="_top" xlink:title="Handle the process of the buttons being pressed.">
<polygon fill="none" stroke="black" points="74,-214 74,-232 139,-232 139,-214 74,-214"/>
<text text-anchor="middle" x="106.5" y="-220.8" font-family="Calibri" font-size="9.00">button_proc</text>
</a>
</g>
</g>
<!-- Node6&#45;&gt;Node8 -->
<g id="edge9" class="edge"><title>Node6&#45;&gt;Node8</title>
<path fill="none" stroke="midnightblue" d="M1126.23,-493.604C1114.74,-400.061 1059.4,-0 953,-0 953,-0 953,-0 363.5,-0 271.042,-0 241.25,-23.507 175,-88 136.321,-125.653 116.183,-190.124 109.792,-213.871"/>
<polygon fill="midnightblue" stroke="midnightblue" points="1122.77,-494.147 1127.44,-503.658 1129.72,-493.312 1122.77,-494.147"/>
</g>
<!-- Node9 -->
<g id="node9" class="node"><title>Node9</title>
<g id="a_node9"><a xlink:href="main_8c.html#ac445892220ccb3b4b337dd3e764bd6c6" target="_top" xlink:title="Handle the process of the buttons being pressed (in test mode)">
<polygon fill="none" stroke="black" points="714,-618 714,-636 800,-636 800,-618 714,-618"/>
<text text-anchor="middle" x="757" y="-624.8" font-family="Calibri" font-size="9.00">button_proc_test</text>
</a>
</g>
</g>
<!-- Node6&#45;&gt;Node9 -->
<g id="edge10" class="edge"><title>Node6&#45;&gt;Node9</title>
<path fill="none" stroke="midnightblue" d="M1110.08,-528.528C1083.37,-550.248 1031.53,-589.452 981,-611 922.089,-636.124 846.479,-635.508 800.169,-631.896"/>
<polygon fill="midnightblue" stroke="midnightblue" points="1112.35,-531.196 1117.84,-522.134 1107.9,-525.794 1112.35,-531.196"/>
</g>
<!-- Node10 -->
<g id="node10" class="node"><title>Node10</title>
<g id="a_node10"><a xlink:href="main_8c.html#a6911b3f075cdf1d54cb14f17f6e5ef6b" target="_top" xlink:title=" ">
<polygon fill="none" stroke="black" points="1017,-504 1017,-522 1064,-522 1064,-504 1017,-504"/>
<text text-anchor="middle" x="1040.5" y="-510.8" font-family="Calibri" font-size="9.00">lcd_ind</text>
</a>
</g>
</g>
<!-- Node6&#45;&gt;Node10 -->
<g id="edge12" class="edge"><title>Node6&#45;&gt;Node10</title>
<path fill="none" stroke="midnightblue" d="M1089.49,-513C1080.77,-513 1071.8,-513 1064.02,-513"/>
<polygon fill="midnightblue" stroke="midnightblue" points="1089.53,-516.5 1099.53,-513 1089.53,-509.5 1089.53,-516.5"/>
</g>
<!-- Node11 -->
<g id="node11" class="node"><title>Node11</title>
<g id="a_node11"><a xlink:href="main_8c.html#a46f52cccc77b5d2d91f35334046bc8eb" target="_top" xlink:title=" ">
<polygon fill="none" stroke="black" points="926,-675 926,-693 978,-693 978,-675 926,-675"/>
<text text-anchor="middle" x="952" y="-681.8" font-family="Calibri" font-size="9.00">lcd_prep</text>
</a>
</g>
</g>
<!-- Node6&#45;&gt;Node11 -->
<g id="edge47" class="edge"><title>Node6&#45;&gt;Node11</title>
<path fill="none" stroke="midnightblue" d="M1125.69,-532.532C1120.02,-564.367 1104.17,-627.174 1064,-660 1039.73,-679.837 1002.79,-684.291 978.277,-684.818"/>
<polygon fill="midnightblue" stroke="midnightblue" points="1129.2,-532.749 1127.34,-522.318 1122.29,-531.632 1129.2,-532.749"/>
</g>
<!-- Node12 -->
<g id="node12" class="node"><title>Node12</title>
<g id="a_node12"><a xlink:href="main_8c.html#a7a367b10f22edd310a36627b6c941255" target="_top" xlink:title=" ">
<polygon fill="none" stroke="black" points="836,-713 836,-731 887,-731 887,-713 836,-713"/>
<text text-anchor="middle" x="861.5" y="-719.8" font-family="Calibri" font-size="9.00">test_init</text>
</a>
</g>
</g>
<!-- Node6&#45;&gt;Node12 -->
<g id="edge56" class="edge"><title>Node6&#45;&gt;Node12</title>
<path fill="none" stroke="midnightblue" d="M1127.08,-532.146C1123.37,-567.757 1110.17,-644.164 1064,-684 1013.46,-727.602 928.86,-727.719 887.205,-724.659"/>
<polygon fill="midnightblue" stroke="midnightblue" points="1130.57,-532.389 1127.98,-522.116 1123.6,-531.763 1130.57,-532.389"/>
</g>
<!-- Node13 -->
<g id="node13" class="node"><title>Node13</title>
<g id="a_node13"><a xlink:href="main_8c.html#a4ae0d4fa97fc0ca3611813fee4f9af7c" target="_top" xlink:title=" ">
<polygon fill="none" stroke="black" points="923,-333 923,-351 981,-351 981,-333 923,-333"/>
<text text-anchor="middle" x="952" y="-339.8" font-family="Calibri" font-size="9.00">show_pwr</text>
</a>
</g>
</g>
<!-- Node6&#45;&gt;Node13 -->
<g id="edge54" class="edge"><title>Node6&#45;&gt;Node13</title>
<path fill="none" stroke="midnightblue" d="M1121.07,-494.257C1111.02,-470.801 1091.16,-430.495 1064,-404 1038.56,-379.186 1001.22,-361.061 977.002,-351.026"/>
<polygon fill="midnightblue" stroke="midnightblue" points="1117.93,-495.836 1124.99,-503.739 1124.4,-493.161 1117.93,-495.836"/>
</g>
<!-- Node21 -->
<g id="node21" class="node"><title>Node21</title>
<g id="a_node21"><a xlink:href="main_8c.html#ae5a14b4884e85f47ad8a4a716f13203a" target="_top" xlink:title=" ">
<polygon fill="none" stroke="black" points="837.5,-238 837.5,-256 885.5,-256 885.5,-238 837.5,-238"/>
<text text-anchor="middle" x="861.5" y="-244.8" font-family="Calibri" font-size="9.00">lcd_pwr</text>
</a>
</g>
</g>
<!-- Node6&#45;&gt;Node21 -->
<g id="edge48" class="edge"><title>Node6&#45;&gt;Node21</title>
<path fill="none" stroke="midnightblue" d="M1126.14,-494.013C1119.24,-441.685 1097.49,-297.146 1064,-265 1015.61,-218.545 927.259,-231.39 885.515,-240.907"/>
<polygon fill="midnightblue" stroke="midnightblue" points="1122.67,-494.488 1127.41,-503.961 1129.61,-493.597 1122.67,-494.488"/>
</g>
<!-- Node22 -->
<g id="node22" class="node"><title>Node22</title>
<g id="a_node22"><a xlink:href="main_8c.html#a11724d8cce81ed96bec12a004ea3ea7a" target="_top" xlink:title=" ">
<polygon fill="none" stroke="black" points="725,-295 725,-313 789,-313 789,-295 725,-295"/>
<text text-anchor="middle" x="757" y="-301.8" font-family="Calibri" font-size="9.00">show_reset</text>
</a>
</g>
</g>
<!-- Node6&#45;&gt;Node22 -->
<g id="edge55" class="edge"><title>Node6&#45;&gt;Node22</title>
<path fill="none" stroke="midnightblue" d="M1124.18,-493.655C1116.59,-463.559 1098.33,-405.131 1064,-368 991.964,-290.093 851.494,-293.852 789.123,-299.98"/>
<polygon fill="midnightblue" stroke="midnightblue" points="1120.85,-494.784 1126.57,-503.699 1127.66,-493.16 1120.85,-494.784"/>
</g>
<!-- Node23 -->
<g id="node23" class="node"><title>Node23</title>
<g id="a_node23"><a xlink:href="main_8c.html#aa8fd50019a763561abc6621bb224417f" target="_top" xlink:title=" ">
<polygon fill="none" stroke="black" points="928.5,-257 928.5,-275 975.5,-275 975.5,-257 928.5,-257"/>
<text text-anchor="middle" x="952" y="-263.8" font-family="Calibri" font-size="9.00">lcd_swr</text>
</a>
</g>
</g>
<!-- Node6&#45;&gt;Node23 -->
<g id="edge49" class="edge"><title>Node6&#45;&gt;Node23</title>
<path fill="none" stroke="midnightblue" d="M1129.05,-493.629C1129.15,-450.297 1122.95,-345.04 1064,-290 1040.08,-267.665 1000.51,-264.204 975.641,-264.532"/>
<polygon fill="midnightblue" stroke="midnightblue" points="1125.55,-493.632 1128.9,-503.681 1132.55,-493.733 1125.55,-493.632"/>
</g>
<!-- Node24 -->
<g id="node24" class="node"><title>Node24</title>
<g id="a_node24"><a xlink:href="main_8c.html#aad7203cfd92bc4b814e43c04a209f634" target="_top" xlink:title=" ">
<polygon fill="none" stroke="black" points="532,-789 532,-807 592,-807 592,-789 532,-789"/>
<text text-anchor="middle" x="562" y="-795.8" font-family="Calibri" font-size="9.00">show_loss</text>
</a>
</g>
</g>
<!-- Node6&#45;&gt;Node24 -->
<g id="edge52" class="edge"><title>Node6&#45;&gt;Node24</title>
<path fill="none" stroke="midnightblue" d="M1126.37,-532.262C1119.96,-586.697 1099.09,-739.923 1064,-774 1027.79,-809.163 1003.47,-798 953,-798 953,-798 953,-798 756,-798 697.865,-798 629.881,-798 592.1,-798"/>
<polygon fill="midnightblue" stroke="midnightblue" points="1129.86,-532.558 1127.52,-522.225 1122.9,-531.762 1129.86,-532.558"/>
</g>
<!-- Node7&#45;&gt;Node8 -->
<g id="edge7" class="edge"><title>Node7&#45;&gt;Node8</title>
<path fill="none" stroke="midnightblue" d="M181.039,-277.763C162.354,-263.849 135.345,-243.736 119.792,-232.154"/>
<polygon fill="midnightblue" stroke="midnightblue" points="179.1,-280.683 189.211,-283.849 183.281,-275.069 179.1,-280.683"/>
</g>
<!-- Node8&#45;&gt;Node4 -->
<g id="edge8" class="edge"><title>Node8&#45;&gt;Node4</title>
<path fill="none" stroke="midnightblue" d="M101.939,-242.202C87.3142,-321.054 32.1548,-618.464 21.712,-674.769"/>
<polygon fill="midnightblue" stroke="midnightblue" points="105.41,-242.679 103.792,-232.209 98.5271,-241.403 105.41,-242.679"/>
</g>
<!-- Node9&#45;&gt;Node4 -->
<g id="edge11" class="edge"><title>Node9&#45;&gt;Node4</title>
<path fill="none" stroke="midnightblue" d="M703.846,-631.166C665.032,-633.911 610.739,-637 563,-637 563,-637 563,-637 201.5,-637 139.981,-637 70.3704,-662.618 38.1474,-676.027"/>
<polygon fill="midnightblue" stroke="midnightblue" points="704.144,-634.654 713.865,-630.441 703.638,-627.672 704.144,-634.654"/>
</g>
<!-- Node10&#45;&gt;Node4 -->
<g id="edge20" class="edge"><title>Node10&#45;&gt;Node4</title>
<path fill="none" stroke="midnightblue" d="M1013.85,-526.845C980.142,-543.716 918.621,-570 862.5,-570 862.5,-570 862.5,-570 201.5,-570 122.986,-570 50.5978,-647.444 27.5749,-674.671"/>
<polygon fill="midnightblue" stroke="midnightblue" points="1015.69,-529.836 1022.99,-522.158 1012.49,-523.608 1015.69,-529.836"/>
</g>
<!-- Node10&#45;&gt;Node7 -->
<g id="edge13" class="edge"><title>Node10&#45;&gt;Node7</title>
<path fill="none" stroke="midnightblue" d="M1006.72,-507.359C971.271,-501.758 913.055,-494 862.5,-494 862.5,-494 862.5,-494 363.5,-494 264.038,-494 216.449,-341.48 205.832,-302.159"/>
<polygon fill="midnightblue" stroke="midnightblue" points="1006.52,-510.873 1016.95,-509.017 1007.64,-503.963 1006.52,-510.873"/>
</g>
<!-- Node10&#45;&gt;Node8 -->
<g id="edge14" class="edge"><title>Node10&#45;&gt;Node8</title>
<path fill="none" stroke="midnightblue" d="M1006.72,-518.641C971.271,-524.242 913.055,-532 862.5,-532 862.5,-532 862.5,-532 282.5,-532 141.009,-532 112.562,-283.662 108.189,-232.248"/>
<polygon fill="midnightblue" stroke="midnightblue" points="1007.64,-522.037 1016.95,-516.983 1006.52,-515.127 1007.64,-522.037"/>
</g>
<!-- Node10&#45;&gt;Node9 -->
<g id="edge15" class="edge"><title>Node10&#45;&gt;Node9</title>
<path fill="none" stroke="midnightblue" d="M1029.72,-530.847C1019.71,-547.343 1002.58,-571.18 981,-584 924.56,-617.53 847.205,-625.634 800.016,-627.202"/>
<polygon fill="midnightblue" stroke="midnightblue" points="1032.79,-532.529 1034.77,-522.121 1026.73,-529.022 1032.79,-532.529"/>
</g>
<!-- Node10&#45;&gt;Node11 -->
<g id="edge16" class="edge"><title>Node10&#45;&gt;Node11</title>
<path fill="none" stroke="midnightblue" d="M1030.31,-531.173C1011.97,-567.422 971.432,-647.562 957.674,-674.761"/>
<polygon fill="midnightblue" stroke="midnightblue" points="1033.46,-532.697 1034.85,-522.194 1027.21,-529.537 1033.46,-532.697"/>
</g>
<!-- Node10&#45;&gt;Node13 -->
<g id="edge21" class="edge"><title>Node10&#45;&gt;Node13</title>
<path fill="none" stroke="midnightblue" d="M1035.14,-494.199C1027.67,-464.788 1010.31,-407.02 981,-366 976.98,-360.374 971.368,-355.224 966.224,-351.149"/>
<polygon fill="midnightblue" stroke="midnightblue" points="1031.76,-495.102 1037.52,-503.989 1038.56,-493.445 1031.76,-495.102"/>
</g>
<!-- Node18 -->
<g id="node18" class="node"><title>Node18</title>
<g id="a_node18"><a xlink:href="main_8h.html#a1849f2e5bd63d11a7b9549470e287d17" target="_top" xlink:title=" ">
<polygon fill="none" stroke="black" points="266,-284 266,-302 301,-302 301,-284 266,-284"/>
<text text-anchor="middle" x="283.5" y="-290.8" font-family="Calibri" font-size="9.00">tune</text>
</a>
</g>
</g>
<!-- Node10&#45;&gt;Node18 -->
<g id="edge46" class="edge"><title>Node10&#45;&gt;Node18</title>
<path fill="none" stroke="midnightblue" d="M1017.53,-498.427C1006.88,-491.944 993.677,-484.724 981,-480 930.647,-461.235 916.236,-456 862.5,-456 862.5,-456 862.5,-456 460.5,-456 369.294,-456 305.334,-336.712 288.751,-302.231"/>
<polygon fill="midnightblue" stroke="midnightblue" points="1015.82,-501.489 1026.15,-503.854 1019.55,-495.565 1015.82,-501.489"/>
</g>
<!-- Node10&#45;&gt;Node22 -->
<g id="edge45" class="edge"><title>Node10&#45;&gt;Node22</title>
<path fill="none" stroke="midnightblue" d="M1027.51,-495.387C1016.57,-480.114 999.33,-458.009 981,-442 913.273,-382.851 817.32,-332.831 777.003,-313.059"/>
<polygon fill="midnightblue" stroke="midnightblue" points="1024.87,-497.713 1033.47,-503.898 1030.6,-493.699 1024.87,-497.713"/>
</g>
<!-- Node11&#45;&gt;Node4 -->
<g id="edge17" class="edge"><title>Node11&#45;&gt;Node4</title>
<path fill="none" stroke="midnightblue" d="M915.481,-684C876.761,-684 812.976,-684 758,-684 758,-684 758,-684 201.5,-684 141.63,-684 70.6518,-684 38.0329,-684"/>
<polygon fill="midnightblue" stroke="midnightblue" points="915.709,-687.5 925.709,-684 915.709,-680.5 915.709,-687.5"/>
</g>
<!-- Node11&#45;&gt;Node12 -->
<g id="edge18" class="edge"><title>Node11&#45;&gt;Node12</title>
<path fill="none" stroke="midnightblue" d="M920.665,-697.025C908.47,-702.261 894.706,-708.171 883.629,-712.927"/>
<polygon fill="midnightblue" stroke="midnightblue" points="922.219,-700.167 930.027,-693.005 919.457,-693.735 922.219,-700.167"/>
</g>
<!-- Node12&#45;&gt;Node4 -->
<g id="edge19" class="edge"><title>Node12&#45;&gt;Node4</title>
<path fill="none" stroke="midnightblue" d="M825.761,-722C784.812,-722 714.707,-722 654.5,-722 654.5,-722 654.5,-722 201.5,-722 140.493,-722 70.3526,-701.178 38.0291,-690.36"/>
<polygon fill="midnightblue" stroke="midnightblue" points="825.767,-725.5 835.767,-722 825.767,-718.5 825.767,-725.5"/>
</g>
<!-- Node14 -->
<g id="node14" class="node"><title>Node14</title>
<g id="a_node14"><a xlink:href="main_8h.html#ad7eb7423e0b17ccfba1ae42f3a3274e0" target="_top" xlink:title=" ">
<polygon fill="none" stroke="black" points="629.5,-295 629.5,-313 677.5,-313 677.5,-295 629.5,-295"/>
<text text-anchor="middle" x="653.5" y="-301.8" font-family="Calibri" font-size="9.00">get_swr</text>
</a>
</g>
</g>
<!-- Node13&#45;&gt;Node14 -->
<g id="edge22" class="edge"><title>Node13&#45;&gt;Node14</title>
<path fill="none" stroke="midnightblue" d="M912.571,-341.226C865.412,-339.711 783.189,-335.233 714,-322 701.81,-319.669 688.565,-315.799 677.673,-312.245"/>
<polygon fill="midnightblue" stroke="midnightblue" points="912.55,-344.727 922.648,-341.521 912.755,-337.73 912.55,-344.727"/>
</g>
<!-- Node13&#45;&gt;Node21 -->
<g id="edge37" class="edge"><title>Node13&#45;&gt;Node21</title>
<path fill="none" stroke="midnightblue" d="M935.547,-325.412C916.839,-305.33 885.994,-272.22 871.09,-256.221"/>
<polygon fill="midnightblue" stroke="midnightblue" points="933.137,-327.96 942.514,-332.891 938.259,-323.188 933.137,-327.96"/>
</g>
<!-- Node15 -->
<g id="node15" class="node"><title>Node15</title>
<g id="a_node15"><a xlink:href="main_8h.html#a740ef1b33bb02cd952ad7d8708999472" target="_top" xlink:title=" ">
<polygon fill="none" stroke="black" points="531,-295 531,-313 593,-313 593,-295 531,-295"/>
<text text-anchor="middle" x="562" y="-301.8" font-family="Calibri" font-size="9.00">coarse_cap</text>
</a>
</g>
</g>
<!-- Node14&#45;&gt;Node15 -->
<g id="edge23" class="edge"><title>Node14&#45;&gt;Node15</title>
<path fill="none" stroke="midnightblue" d="M619.346,-304C610.735,-304 601.508,-304 593.065,-304"/>
<polygon fill="midnightblue" stroke="midnightblue" points="619.452,-307.5 629.452,-304 619.451,-300.5 619.452,-307.5"/>
</g>
<!-- Node16 -->
<g id="node16" class="node"><title>Node16</title>
<g id="a_node16"><a xlink:href="main_8h.html#a5c7c60c7d70cf76cc52e87722bb0f614" target="_top" xlink:title=" ">
<polygon fill="none" stroke="black" points="428,-295 428,-313 495,-313 495,-295 428,-295"/>
<text text-anchor="middle" x="461.5" y="-301.8" font-family="Calibri" font-size="9.00">coarse_tune</text>
</a>
</g>
</g>
<!-- Node14&#45;&gt;Node16 -->
<g id="edge28" class="edge"><title>Node14&#45;&gt;Node16</title>
<path fill="none" stroke="midnightblue" d="M619.741,-315.787C611.153,-318.355 601.824,-320.694 593,-322 565.741,-326.033 558.328,-325.531 531,-322 517.342,-320.235 502.523,-316.57 490.174,-313.004"/>
<polygon fill="midnightblue" stroke="midnightblue" points="620.937,-319.079 629.407,-312.713 618.816,-312.408 620.937,-319.079"/>
</g>
<!-- Node17 -->
<g id="node17" class="node"><title>Node17</title>
<g id="a_node17"><a xlink:href="main_8h.html#a454a7687c8039514766571b23516ca9c" target="_top" xlink:title=" ">
<polygon fill="none" stroke="black" points="337,-284 337,-302 392,-302 392,-284 337,-284"/>
<text text-anchor="middle" x="364.5" y="-290.8" font-family="Calibri" font-size="9.00">sub_tune</text>
</a>
</g>
</g>
<!-- Node14&#45;&gt;Node17 -->
<g id="edge35" class="edge"><title>Node14&#45;&gt;Node17</title>
<path fill="none" stroke="midnightblue" d="M620.008,-291.632C611.359,-288.892 601.933,-286.392 593,-285 521.148,-273.806 435.056,-282.836 392.314,-288.801"/>
<polygon fill="midnightblue" stroke="midnightblue" points="619.136,-295.031 629.73,-294.905 621.37,-288.397 619.136,-295.031"/>
</g>
<!-- Node14&#45;&gt;Node18 -->
<g id="edge36" class="edge"><title>Node14&#45;&gt;Node18</title>
<path fill="none" stroke="midnightblue" d="M642.513,-285.8C632.299,-268.948 614.854,-244.516 593,-231 555.035,-207.52 539.368,-213.919 495,-209 422.782,-200.993 398.809,-212.8 337,-251 321.113,-260.818 304.577,-274.77 294.409,-283.853"/>
<polygon fill="midnightblue" stroke="midnightblue" points="639.63,-287.806 647.669,-294.707 645.688,-284.299 639.63,-287.806"/>
</g>
<!-- Node19 -->
<g id="node19" class="node"><title>Node19</title>
<g id="a_node19"><a xlink:href="main_8h.html#ab518a3d2c723f12d3af3024a195606ce" target="_top" xlink:title=" ">
<polygon fill="none" stroke="black" points="432,-219 432,-237 491,-237 491,-219 432,-219"/>
<text text-anchor="middle" x="461.5" y="-225.8" font-family="Calibri" font-size="9.00">sharp_cap</text>
</a>
</g>
</g>
<!-- Node14&#45;&gt;Node19 -->
<g id="edge29" class="edge"><title>Node14&#45;&gt;Node19</title>
<path fill="none" stroke="midnightblue" d="M637.9,-287.135C626.785,-275.414 610.464,-260.437 593,-252 560.331,-236.217 518.464,-230.77 491.083,-228.915"/>
<polygon fill="midnightblue" stroke="midnightblue" points="635.389,-289.576 644.713,-294.608 640.562,-284.86 635.389,-289.576"/>
</g>
<!-- Node20 -->
<g id="node20" class="node"><title>Node20</title>
<g id="a_node20"><a xlink:href="main_8h.html#a72210b3ed1d5691c5bbda8c7f1e97197" target="_top" xlink:title=" ">
<polygon fill="none" stroke="black" points="432.5,-332 432.5,-350 490.5,-350 490.5,-332 432.5,-332"/>
<text text-anchor="middle" x="461.5" y="-338.8" font-family="Calibri" font-size="9.00">sharp_ind</text>
</a>
</g>
</g>
<!-- Node14&#45;&gt;Node20 -->
<g id="edge32" class="edge"><title>Node14&#45;&gt;Node20</title>
<path fill="none" stroke="midnightblue" d="M632.121,-319.022C621.125,-326.226 606.971,-334.118 593,-338 558.719,-347.527 517.403,-346.497 490.574,-344.275"/>
<polygon fill="midnightblue" stroke="midnightblue" points="634.282,-321.784 640.542,-313.236 630.318,-316.014 634.282,-321.784"/>
</g>
<!-- Node15&#45;&gt;Node16 -->
<g id="edge24" class="edge"><title>Node15&#45;&gt;Node16</title>
<path fill="none" stroke="midnightblue" d="M520.77,-304C512.245,-304 503.347,-304 495.145,-304"/>
<polygon fill="midnightblue" stroke="midnightblue" points="520.912,-307.5 530.912,-304 520.912,-300.5 520.912,-307.5"/>
</g>
<!-- Node16&#45;&gt;Node17 -->
<g id="edge25" class="edge"><title>Node16&#45;&gt;Node17</title>
<path fill="none" stroke="midnightblue" d="M417.785,-299.054C409.104,-298.049 400.207,-297.019 392.271,-296.1"/>
<polygon fill="midnightblue" stroke="midnightblue" points="417.47,-302.541 427.806,-300.214 418.275,-295.587 417.47,-302.541"/>
</g>
<!-- Node17&#45;&gt;Node18 -->
<g id="edge26" class="edge"><title>Node17&#45;&gt;Node18</title>
<path fill="none" stroke="midnightblue" d="M326.487,-293C317.583,-293 308.509,-293 301.085,-293"/>
<polygon fill="midnightblue" stroke="midnightblue" points="326.754,-296.5 336.754,-293 326.754,-289.5 326.754,-296.5"/>
</g>
<!-- Node18&#45;&gt;Node7 -->
<g id="edge27" class="edge"><title>Node18&#45;&gt;Node7</title>
<path fill="none" stroke="midnightblue" d="M255.568,-293C247.367,-293 238.36,-293 230.177,-293"/>
<polygon fill="midnightblue" stroke="midnightblue" points="255.746,-296.5 265.746,-293 255.746,-289.5 255.746,-296.5"/>
</g>
<!-- Node19&#45;&gt;Node17 -->
<g id="edge30" class="edge"><title>Node19&#45;&gt;Node17</title>
<path fill="none" stroke="midnightblue" d="M438.916,-242.768C420.467,-255.391 394.5,-273.158 378.903,-283.829"/>
<polygon fill="midnightblue" stroke="midnightblue" points="441.014,-245.573 447.291,-237.038 437.061,-239.796 441.014,-245.573"/>
</g>
<!-- Node19&#45;&gt;Node18 -->
<g id="edge31" class="edge"><title>Node19&#45;&gt;Node18</title>
<path fill="none" stroke="midnightblue" d="M426.517,-240.551C388.99,-254.41 330.092,-276.162 301.376,-286.768"/>
<polygon fill="midnightblue" stroke="midnightblue" points="427.86,-243.786 436.028,-237.038 425.435,-237.219 427.86,-243.786"/>
</g>
<!-- Node20&#45;&gt;Node17 -->
<g id="edge33" class="edge"><title>Node20&#45;&gt;Node17</title>
<path fill="none" stroke="midnightblue" d="M433.277,-327.245C417.34,-319.193 397.653,-309.246 383.612,-302.151"/>
<polygon fill="midnightblue" stroke="midnightblue" points="432.127,-330.586 442.631,-331.972 435.284,-324.338 432.127,-330.586"/>
</g>
<!-- Node20&#45;&gt;Node18 -->
<g id="edge34" class="edge"><title>Node20&#45;&gt;Node18</title>
<path fill="none" stroke="midnightblue" d="M422.356,-332.689C397.826,-327.109 365.353,-319.285 337,-311 324.977,-307.487 311.626,-302.9 301.397,-299.236"/>
<polygon fill="midnightblue" stroke="midnightblue" points="421.823,-336.156 432.347,-334.937 423.36,-329.327 421.823,-336.156"/>
</g>
<!-- Node21&#45;&gt;Node4 -->
<g id="edge41" class="edge"><title>Node21&#45;&gt;Node4</title>
<path fill="none" stroke="midnightblue" d="M859.364,-227.601C856.215,-192.142 844.376,-116.772 800,-76 750.784,-30.7807 721.336,-38 654.5,-38 654.5,-38 654.5,-38 363.5,-38 215.182,-38 133.693,-68.2242 74,-204 34.7654,-293.242 22.2558,-616.304 20.2897,-674.864"/>
<polygon fill="midnightblue" stroke="midnightblue" points="855.904,-228.274 860.133,-237.988 862.885,-227.757 855.904,-228.274"/>
</g>
<!-- Node21&#45;&gt;Node7 -->
<g id="edge38" class="edge"><title>Node21&#45;&gt;Node7</title>
<path fill="none" stroke="midnightblue" d="M846.643,-229.723C816.082,-193.725 738.875,-114 654.5,-114 654.5,-114 654.5,-114 460.5,-114 340.334,-114 236.112,-247.401 209.86,-283.877"/>
<polygon fill="midnightblue" stroke="midnightblue" points="844.308,-232.391 853.384,-237.858 849.698,-227.925 844.308,-232.391"/>
</g>
<!-- Node21&#45;&gt;Node8 -->
<g id="edge39" class="edge"><title>Node21&#45;&gt;Node8</title>
<path fill="none" stroke="midnightblue" d="M856.129,-228.035C848.964,-201.121 832.186,-152.012 800,-124 748.634,-79.2961 722.595,-76 654.5,-76 654.5,-76 654.5,-76 282.5,-76 196.398,-76 130.525,-181.623 112.452,-213.804"/>
<polygon fill="midnightblue" stroke="midnightblue" points="852.744,-228.925 858.558,-237.782 859.536,-227.232 852.744,-228.925"/>
</g>
<!-- Node21&#45;&gt;Node9 -->
<g id="edge40" class="edge"><title>Node21&#45;&gt;Node9</title>
<path fill="none" stroke="midnightblue" d="M855.413,-265.86C836.93,-334.383 773.723,-568.711 760.455,-617.897"/>
<polygon fill="midnightblue" stroke="midnightblue" points="858.842,-266.585 858.067,-256.019 852.084,-264.762 858.842,-266.585"/>
</g>
<!-- Node21&#45;&gt;Node22 -->
<g id="edge42" class="edge"><title>Node21&#45;&gt;Node22</title>
<path fill="none" stroke="midnightblue" d="M835.045,-261.155C816.093,-271.695 790.776,-285.774 774.428,-294.865"/>
<polygon fill="midnightblue" stroke="midnightblue" points="836.993,-264.077 844.032,-256.158 833.591,-257.959 836.993,-264.077"/>
</g>
<!-- Node22&#45;&gt;Node8 -->
<g id="edge43" class="edge"><title>Node22&#45;&gt;Node8</title>
<path fill="none" stroke="midnightblue" d="M745.292,-286.457C719.387,-246.47 649.078,-152 563,-152 563,-152 563,-152 282.5,-152 217.581,-152 148.398,-194.473 120.381,-213.718"/>
<polygon fill="midnightblue" stroke="midnightblue" points="742.353,-288.359 750.651,-294.947 748.273,-284.622 742.353,-288.359"/>
</g>
<!-- Node22&#45;&gt;Node14 -->
<g id="edge44" class="edge"><title>Node22&#45;&gt;Node14</title>
<path fill="none" stroke="midnightblue" d="M714.638,-304C701.996,-304 688.549,-304 677.583,-304"/>
<polygon fill="midnightblue" stroke="midnightblue" points="714.995,-307.5 724.995,-304 714.995,-300.5 714.995,-307.5"/>
</g>
<!-- Node23&#45;&gt;Node21 -->
<g id="edge50" class="edge"><title>Node23&#45;&gt;Node21</title>
<path fill="none" stroke="midnightblue" d="M918.193,-258.957C907.333,-256.625 895.486,-254.082 885.521,-251.942"/>
<polygon fill="midnightblue" stroke="midnightblue" points="917.697,-262.43 928.209,-261.107 919.167,-255.586 917.697,-262.43"/>
</g>
<!-- Node24&#45;&gt;Node4 -->
<g id="edge53" class="edge"><title>Node24&#45;&gt;Node4</title>
<path fill="none" stroke="midnightblue" d="M521.85,-798C482.382,-798 419.713,-798 365.5,-798 365.5,-798 365.5,-798 201.5,-798 143.838,-798 121.321,-806.948 74,-774 44.6902,-753.592 28.6072,-711.678 22.6784,-693.151"/>
<polygon fill="midnightblue" stroke="midnightblue" points="521.853,-801.5 531.853,-798 521.853,-794.5 521.853,-801.5"/>
</g>
</g>
</svg>
