<?xml version="1.0" encoding="UTF-8" standalone="no"?>
<!DOCTYPE svg PUBLIC "-//W3C//DTD SVG 1.1//EN"
 "http://www.w3.org/Graphics/SVG/1.1/DTD/svg11.dtd">
<!-- Generated by graphviz version 2.38.0 (20140413.2041)
 -->
<!-- Title: oled_wr_str Pages: 1 -->
<svg width="301pt" height="121pt"
 viewBox="0.00 0.00 301.00 121.00" xmlns="http://www.w3.org/2000/svg" xmlns:xlink="http://www.w3.org/1999/xlink">
<g id="graph0" class="graph" transform="scale(1 1) rotate(0) translate(4 117)">
<title>oled_wr_str</title>
<!-- Node1 -->
<g id="node1" class="node"><title>Node1</title>
<g id="a_node1"><a xlink:title=" ">
<polygon fill="#bfbfbf" stroke="black" points="0,-57.5 0,-75.5 65,-75.5 65,-57.5 0,-57.5"/>
<text text-anchor="middle" x="32.5" y="-64.3" font-family="Calibri" font-size="9.00">oled_wr_str</text>
</a>
</g>
</g>
<!-- Node2 -->
<g id="node2" class="node"><title>Node2</title>
<g id="a_node2"><a xlink:href="oled__control_8c.html#a6df77e8ec83c50ed6a5ddaf54aa3a9c2" target="_top" xlink:title=" ">
<polygon fill="none" stroke="black" points="101,-76.5 101,-94.5 181,-94.5 181,-76.5 101,-76.5"/>
<text text-anchor="middle" x="141" y="-83.3" font-family="Calibri" font-size="9.00">set_addressing</text>
</a>
</g>
</g>
<!-- Node1&#45;&gt;Node2 -->
<g id="edge1" class="edge"><title>Node1&#45;&gt;Node2</title>
<path fill="none" stroke="midnightblue" d="M65.1652,-72.1492C73.1859,-73.5801 81.9932,-75.1514 90.6614,-76.6978"/>
<polygon fill="midnightblue" stroke="midnightblue" points="90.2587,-80.1811 100.718,-78.4919 91.4881,-73.29 90.2587,-80.1811"/>
</g>
<!-- Node3 -->
<g id="node3" class="node"><title>Node3</title>
<g id="a_node3"><a xlink:href="oled__control_8c.html#ab7f6b5c6c1483f6286f2de5786c028d9" target="_top" xlink:title=" ">
<polygon fill="none" stroke="black" points="219,-94.5 219,-112.5 291,-112.5 291,-94.5 219,-94.5"/>
<text text-anchor="middle" x="255" y="-101.3" font-family="Calibri" font-size="9.00">Soft_I2C_Start</text>
</a>
</g>
</g>
<!-- Node1&#45;&gt;Node3 -->
<g id="edge4" class="edge"><title>Node1&#45;&gt;Node3</title>
<path fill="none" stroke="midnightblue" d="M45.1212,-75.5289C57.9641,-84.8852 79.6659,-98.9075 101,-104.5 136.32,-113.759 177.823,-112.786 208.685,-109.9"/>
<polygon fill="midnightblue" stroke="midnightblue" points="209.133,-113.373 218.719,-108.86 208.412,-106.41 209.133,-113.373"/>
</g>
<!-- Node4 -->
<g id="node4" class="node"><title>Node4</title>
<g id="a_node4"><a xlink:href="oled__control_8c.html#a73610916645f17c19124e697b005f694" target="_top" xlink:title=" ">
<polygon fill="none" stroke="black" points="217,-57.5 217,-75.5 293,-75.5 293,-57.5 217,-57.5"/>
<text text-anchor="middle" x="255" y="-64.3" font-family="Calibri" font-size="9.00">Soft_I2C_Write</text>
</a>
</g>
</g>
<!-- Node1&#45;&gt;Node4 -->
<g id="edge6" class="edge"><title>Node1&#45;&gt;Node4</title>
<path fill="none" stroke="midnightblue" d="M65.0923,-66.5C102.166,-66.5 164.001,-66.5 206.776,-66.5"/>
<polygon fill="midnightblue" stroke="midnightblue" points="206.944,-70.0001 216.944,-66.5 206.944,-63.0001 206.944,-70.0001"/>
</g>
<!-- Node5 -->
<g id="node5" class="node"><title>Node5</title>
<g id="a_node5"><a xlink:href="oled__control_8c.html#a16eb842aa672ca44820ae6d5f9933425" target="_top" xlink:title=" ">
<polygon fill="none" stroke="black" points="105.5,-0.5 105.5,-18.5 176.5,-18.5 176.5,-0.5 105.5,-0.5"/>
<text text-anchor="middle" x="141" y="-7.3" font-family="Calibri" font-size="9.00">Soft_I2C_Stop</text>
</a>
</g>
</g>
<!-- Node1&#45;&gt;Node5 -->
<g id="edge5" class="edge"><title>Node1&#45;&gt;Node5</title>
<path fill="none" stroke="midnightblue" d="M50.6111,-57.342C67.6903,-48.2009 94.1609,-34.0336 113.87,-23.4851"/>
<polygon fill="midnightblue" stroke="midnightblue" points="115.766,-26.44 122.931,-18.6353 112.463,-20.2683 115.766,-26.44"/>
</g>
<!-- Node2&#45;&gt;Node3 -->
<g id="edge2" class="edge"><title>Node2&#45;&gt;Node3</title>
<path fill="none" stroke="midnightblue" d="M181.172,-91.7955C190.064,-93.2245 199.579,-94.7538 208.701,-96.2198"/>
<polygon fill="midnightblue" stroke="midnightblue" points="208.35,-99.7082 218.779,-97.8394 209.461,-92.7969 208.35,-99.7082"/>
</g>
<!-- Node2&#45;&gt;Node4 -->
<g id="edge3" class="edge"><title>Node2&#45;&gt;Node4</title>
<path fill="none" stroke="midnightblue" d="M181.172,-78.8547C189.515,-77.4395 198.406,-75.9311 207.007,-74.472"/>
<polygon fill="midnightblue" stroke="midnightblue" points="207.646,-77.9138 216.919,-72.7904 206.475,-71.0124 207.646,-77.9138"/>
</g>
</g>
</svg>
