<?xml version="1.0" encoding="UTF-8" standalone="no"?>
<!DOCTYPE svg PUBLIC "-//W3C//DTD SVG 1.1//EN"
 "http://www.w3.org/Graphics/SVG/1.1/DTD/svg11.dtd">
<!-- Generated by graphviz version 2.38.0 (20140413.2041)
 -->
<!-- Title: led_init Pages: 1 -->
<svg width="376pt" height="178pt"
 viewBox="0.00 0.00 376.00 178.38" xmlns="http://www.w3.org/2000/svg" xmlns:xlink="http://www.w3.org/1999/xlink">
<g id="graph0" class="graph" transform="scale(1 1) rotate(0) translate(4 174.383)">
<title>led_init</title>
<!-- Node1 -->
<g id="node1" class="node"><title>Node1</title>
<g id="a_node1"><a xlink:title=" ">
<polygon fill="#bfbfbf" stroke="black" points="0,-77.2939 0,-95.2939 49,-95.2939 49,-77.2939 0,-77.2939"/>
<text text-anchor="middle" x="24.5" y="-84.0939" font-family="Calibri" font-size="9.00">led_init</text>
</a>
</g>
</g>
<!-- Node2 -->
<g id="node2" class="node"><title>Node2</title>
<g id="a_node2"><a xlink:href="oled__control_8c.html#a3d35666326cc069eda3b63c70983fdbc" target="_top" xlink:title=" ">
<polygon fill="none" stroke="black" points="188,-58.2939 188,-76.2939 243,-76.2939 243,-58.2939 188,-58.2939"/>
<text text-anchor="middle" x="215.5" y="-65.0939" font-family="Calibri" font-size="9.00">led_send</text>
</a>
</g>
</g>
<!-- Node1&#45;&gt;Node2 -->
<g id="edge1" class="edge"><title>Node1&#45;&gt;Node2</title>
<path fill="none" stroke="midnightblue" d="M49.0548,-83.926C81.3457,-80.6798 139.681,-74.8154 177.745,-70.9888"/>
<polygon fill="midnightblue" stroke="midnightblue" points="178.306,-74.4502 187.905,-69.9675 177.605,-67.4854 178.306,-74.4502"/>
</g>
<!-- Node6 -->
<g id="node6" class="node"><title>Node6</title>
<g id="a_node6"><a xlink:href="oled__control_8c.html#ad95f850c4c6d949229270c8da88c02cb" target="_top" xlink:title=" ">
<polygon fill="none" stroke="black" points="85,-96.2939 85,-114.294 139,-114.294 139,-96.2939 85,-96.2939"/>
<text text-anchor="middle" x="112" y="-103.094" font-family="Calibri" font-size="9.00">oled_init</text>
</a>
</g>
</g>
<!-- Node1&#45;&gt;Node6 -->
<g id="edge5" class="edge"><title>Node1&#45;&gt;Node6</title>
<path fill="none" stroke="midnightblue" d="M49.3165,-91.5865C57.2718,-93.3543 66.3233,-95.3658 74.9949,-97.2928"/>
<polygon fill="midnightblue" stroke="midnightblue" points="74.3905,-100.744 84.9117,-99.4965 75.9091,-93.9105 74.3905,-100.744"/>
</g>
<!-- Node3 -->
<g id="node3" class="node"><title>Node3</title>
<g id="a_node3"><a xlink:href="oled__control_8c.html#ab7f6b5c6c1483f6286f2de5786c028d9" target="_top" xlink:title=" ">
<polygon fill="none" stroke="black" points="294,-21.2939 294,-39.2939 366,-39.2939 366,-21.2939 294,-21.2939"/>
<text text-anchor="middle" x="330" y="-28.0939" font-family="Calibri" font-size="9.00">Soft_I2C_Start</text>
</a>
</g>
</g>
<!-- Node2&#45;&gt;Node3 -->
<g id="edge2" class="edge"><title>Node2&#45;&gt;Node3</title>
<path fill="none" stroke="midnightblue" d="M243.161,-58.5254C257.689,-53.7473 275.899,-47.7583 291.804,-42.5273"/>
<polygon fill="midnightblue" stroke="midnightblue" points="292.95,-45.835 301.356,-39.3859 290.763,-39.1854 292.95,-45.835"/>
</g>
<!-- Node4 -->
<g id="node4" class="node"><title>Node4</title>
<g id="a_node4"><a xlink:href="oled__control_8c.html#a16eb842aa672ca44820ae6d5f9933425" target="_top" xlink:title=" ">
<polygon fill="none" stroke="black" points="294.5,-134.294 294.5,-152.294 365.5,-152.294 365.5,-134.294 294.5,-134.294"/>
<text text-anchor="middle" x="330" y="-141.094" font-family="Calibri" font-size="9.00">Soft_I2C_Stop</text>
</a>
</g>
</g>
<!-- Node2&#45;&gt;Node4 -->
<g id="edge3" class="edge"><title>Node2&#45;&gt;Node4</title>
<path fill="none" stroke="midnightblue" d="M229.847,-76.3106C248.961,-89.2233 284.348,-113.129 307.269,-128.613"/>
<polygon fill="midnightblue" stroke="midnightblue" points="305.425,-131.591 315.67,-134.289 309.343,-125.791 305.425,-131.591"/>
</g>
<!-- Node5 -->
<g id="node5" class="node"><title>Node5</title>
<g id="a_node5"><a xlink:href="oled__control_8c.html#a73610916645f17c19124e697b005f694" target="_top" xlink:title=" ">
<polygon fill="none" stroke="black" points="292,-77.2939 292,-95.2939 368,-95.2939 368,-77.2939 292,-77.2939"/>
<text text-anchor="middle" x="330" y="-84.0939" font-family="Calibri" font-size="9.00">Soft_I2C_Write</text>
</a>
</g>
</g>
<!-- Node2&#45;&gt;Node5 -->
<g id="edge4" class="edge"><title>Node2&#45;&gt;Node5</title>
<path fill="none" stroke="midnightblue" d="M243.161,-71.7967C254.759,-73.7555 268.704,-76.1105 281.949,-78.3475"/>
<polygon fill="midnightblue" stroke="midnightblue" points="281.447,-81.8123 291.891,-80.0265 282.613,-74.91 281.447,-81.8123"/>
</g>
<!-- Node6&#45;&gt;Node3 -->
<g id="edge13" class="edge"><title>Node6&#45;&gt;Node3</title>
<path fill="none" stroke="midnightblue" d="M115.758,-96.1315C122.281,-76.3069 140.745,-29.7353 175,-11.2939 214.768,10.1154 268.498,-4.66669 300.846,-17.4187"/>
<polygon fill="midnightblue" stroke="midnightblue" points="299.581,-20.6829 310.16,-21.2687 302.255,-14.2138 299.581,-20.6829"/>
</g>
<!-- Node6&#45;&gt;Node4 -->
<g id="edge14" class="edge"><title>Node6&#45;&gt;Node4</title>
<path fill="none" stroke="midnightblue" d="M119.332,-114.406C129.329,-127.897 150.206,-152.629 175,-162.294 215.314,-178.009 265.662,-166.525 297.584,-155.786"/>
<polygon fill="midnightblue" stroke="midnightblue" points="299.005,-158.996 307.265,-152.361 296.67,-152.397 299.005,-158.996"/>
</g>
<!-- Node6&#45;&gt;Node5 -->
<g id="edge15" class="edge"><title>Node6&#45;&gt;Node5</title>
<path fill="none" stroke="midnightblue" d="M139.055,-103.002C174.269,-99.9045 237.681,-94.3266 281.491,-90.4729"/>
<polygon fill="midnightblue" stroke="midnightblue" points="281.97,-93.9444 291.625,-89.5815 281.357,-86.9713 281.97,-93.9444"/>
</g>
<!-- Node7 -->
<g id="node7" class="node"><title>Node7</title>
<g id="a_node7"><a xlink:href="oled__control_8c.html#a78a346ba6e89c3140dd554a46e56c719" target="_top" xlink:title=" ">
<polygon fill="none" stroke="black" points="175,-134.294 175,-152.294 256,-152.294 256,-134.294 175,-134.294"/>
<text text-anchor="middle" x="215.5" y="-141.094" font-family="Calibri" font-size="9.00">send_command</text>
</a>
</g>
</g>
<!-- Node6&#45;&gt;Node7 -->
<g id="edge6" class="edge"><title>Node6&#45;&gt;Node7</title>
<path fill="none" stroke="midnightblue" d="M137.054,-114.299C150.105,-119.185 166.449,-125.304 180.754,-130.66"/>
<polygon fill="midnightblue" stroke="midnightblue" points="179.674,-133.993 190.267,-134.221 182.129,-127.437 179.674,-133.993"/>
</g>
<!-- Node8 -->
<g id="node8" class="node"><title>Node8</title>
<g id="a_node8"><a xlink:href="oled__control_8c.html#a3cf32ac4d3d7c92be54c385c1ed8cc76" target="_top" xlink:title=" ">
<polygon fill="none" stroke="black" points="175.5,-21.2939 175.5,-39.2939 255.5,-39.2939 255.5,-21.2939 175.5,-21.2939"/>
<text text-anchor="middle" x="215.5" y="-28.0939" font-family="Calibri" font-size="9.00">set_addressing</text>
</a>
</g>
</g>
<!-- Node6&#45;&gt;Node8 -->
<g id="edge10" class="edge"><title>Node6&#45;&gt;Node8</title>
<path fill="none" stroke="midnightblue" d="M121.096,-96.24C132.291,-84.1233 153.552,-62.5147 175,-48.2939 177.277,-46.7843 179.701,-45.3413 182.185,-43.9762"/>
<polygon fill="midnightblue" stroke="midnightblue" points="183.928,-47.0174 191.286,-39.395 180.78,-40.7648 183.928,-47.0174"/>
</g>
<!-- Node7&#45;&gt;Node3 -->
<g id="edge7" class="edge"><title>Node7&#45;&gt;Node3</title>
<path fill="none" stroke="midnightblue" d="M225.789,-133.924C240.025,-119.567 268.105,-91.2684 292,-67.2939 298.674,-60.5983 306.035,-53.2324 312.423,-46.8474"/>
<polygon fill="midnightblue" stroke="midnightblue" points="315.268,-48.9528 319.868,-39.4088 310.32,-44.0008 315.268,-48.9528"/>
</g>
<!-- Node7&#45;&gt;Node4 -->
<g id="edge8" class="edge"><title>Node7&#45;&gt;Node4</title>
<path fill="none" stroke="midnightblue" d="M256.163,-143.294C265.172,-143.294 274.804,-143.294 284.016,-143.294"/>
<polygon fill="midnightblue" stroke="midnightblue" points="284.182,-146.794 294.182,-143.294 284.182,-139.794 284.182,-146.794"/>
</g>
<!-- Node7&#45;&gt;Node5 -->
<g id="edge9" class="edge"><title>Node7&#45;&gt;Node5</title>
<path fill="none" stroke="midnightblue" d="M234.326,-134.262C252.486,-125.061 280.881,-110.674 301.841,-100.054"/>
<polygon fill="midnightblue" stroke="midnightblue" points="303.546,-103.114 310.885,-95.4722 300.383,-96.8698 303.546,-103.114"/>
</g>
<!-- Node8&#45;&gt;Node3 -->
<g id="edge11" class="edge"><title>Node8&#45;&gt;Node3</title>
<path fill="none" stroke="midnightblue" d="M255.531,-30.2939C264.569,-30.2939 274.262,-30.2939 283.548,-30.2939"/>
<polygon fill="midnightblue" stroke="midnightblue" points="283.802,-33.794 293.802,-30.2939 283.802,-26.794 283.802,-33.794"/>
</g>
<!-- Node8&#45;&gt;Node5 -->
<g id="edge12" class="edge"><title>Node8&#45;&gt;Node5</title>
<path fill="none" stroke="midnightblue" d="M237.097,-39.4336C243.212,-42.2134 249.904,-45.3208 256,-48.2939 271.86,-56.0289 289.407,-65.1446 303.322,-72.5087"/>
<polygon fill="midnightblue" stroke="midnightblue" points="301.837,-75.6833 312.31,-77.2885 305.124,-69.5029 301.837,-75.6833"/>
</g>
</g>
</svg>
