<?xml version="1.0" encoding="UTF-8" standalone="no"?>
<!DOCTYPE svg PUBLIC "-//W3C//DTD SVG 1.1//EN"
 "http://www.w3.org/Graphics/SVG/1.1/DTD/svg11.dtd">
<!-- Generated by graphviz version 2.38.0 (20140413.2041)
 -->
<!-- Title: led_send Pages: 1 -->
<svg width="1118pt" height="558pt"
 viewBox="0.00 0.00 1118.00 558.00" xmlns="http://www.w3.org/2000/svg" xmlns:xlink="http://www.w3.org/1999/xlink">
<g id="graph0" class="graph" transform="scale(1 1) rotate(0) translate(4 554)">
<title>led_send</title>
<!-- Node1 -->
<g id="node1" class="node"><title>Node1</title>
<g id="a_node1"><a xlink:title=" ">
<polygon fill="#bfbfbf" stroke="black" points="1055,-56.5 1055,-74.5 1110,-74.5 1110,-56.5 1055,-56.5"/>
<text text-anchor="middle" x="1082.5" y="-63.3" font-family="Calibri" font-size="9.00">led_send</text>
</a>
</g>
</g>
<!-- Node2 -->
<g id="node2" class="node"><title>Node2</title>
<g id="a_node2"><a xlink:href="oled__control_8c.html#a5febfdc847aa6f3bc3f3c8f7818b8699" target="_top" xlink:title=" ">
<polygon fill="none" stroke="black" points="946.5,-113.5 946.5,-131.5 1008.5,-131.5 1008.5,-113.5 946.5,-113.5"/>
<text text-anchor="middle" x="977.5" y="-120.3" font-family="Calibri" font-size="9.00">display_on</text>
</a>
</g>
</g>
<!-- Node1&#45;&gt;Node2 -->
<g id="edge1" class="edge"><title>Node1&#45;&gt;Node2</title>
<path fill="none" stroke="midnightblue" d="M1056.18,-79.5113C1037.11,-90.0658 1011.51,-104.232 995.008,-113.365"/>
<polygon fill="midnightblue" stroke="midnightblue" points="1057.9,-82.5624 1064.95,-74.658 1054.51,-76.4377 1057.9,-82.5624"/>
</g>
<!-- Node16 -->
<g id="node16" class="node"><title>Node16</title>
<g id="a_node16"><a xlink:href="oled__control_8c.html#a7eb4d382bdd4b42c57dbb7154d03ac66" target="_top" xlink:title=" ">
<polygon fill="none" stroke="black" points="851,-75.5 851,-93.5 900,-93.5 900,-75.5 851,-75.5"/>
<text text-anchor="middle" x="875.5" y="-82.3" font-family="Calibri" font-size="9.00">led_init</text>
</a>
</g>
</g>
<!-- Node1&#45;&gt;Node16 -->
<g id="edge28" class="edge"><title>Node1&#45;&gt;Node16</title>
<path fill="none" stroke="midnightblue" d="M1044.62,-68.9178C1002.71,-72.8021 935.548,-79.0272 900.129,-82.31"/>
<polygon fill="midnightblue" stroke="midnightblue" points="1045.07,-72.3919 1054.7,-67.9839 1044.42,-65.4218 1045.07,-72.3919"/>
</g>
<!-- Node17 -->
<g id="node17" class="node"><title>Node17</title>
<g id="a_node17"><a xlink:href="oled__control_8c.html#a9d56c6c2e653b24a0caf505492ad818a" target="_top" xlink:title=" ">
<polygon fill="none" stroke="black" points="948,-37.5 948,-55.5 1007,-55.5 1007,-37.5 948,-37.5"/>
<text text-anchor="middle" x="977.5" y="-44.3" font-family="Calibri" font-size="9.00">led_wr_str</text>
</a>
</g>
</g>
<!-- Node1&#45;&gt;Node17 -->
<g id="edge30" class="edge"><title>Node1&#45;&gt;Node17</title>
<path fill="none" stroke="midnightblue" d="M1044.91,-58.7508C1032.49,-56.4599 1018.81,-53.9354 1007.1,-51.7764"/>
<polygon fill="midnightblue" stroke="midnightblue" points="1044.51,-62.2348 1054.97,-60.607 1045.78,-55.351 1044.51,-62.2348"/>
</g>
<!-- Node18 -->
<g id="node18" class="node"><title>Node18</title>
<g id="a_node18"><a xlink:href="oled__control_8c.html#ac620c45e67383b8f8addda11fa5655af" target="_top" xlink:title=" ">
<polygon fill="none" stroke="black" points="936,-0.5 936,-18.5 1019,-18.5 1019,-0.5 936,-0.5"/>
<text text-anchor="middle" x="977.5" y="-7.3" font-family="Calibri" font-size="9.00">vodisplay_offoff</text>
</a>
</g>
</g>
<!-- Node1&#45;&gt;Node18 -->
<g id="edge31" class="edge"><title>Node1&#45;&gt;Node18</title>
<path fill="none" stroke="midnightblue" d="M1058.74,-50.6933C1047.06,-43.3495 1032.49,-34.5636 1019,-27.5 1013,-24.3597 1006.34,-21.2514 1000.18,-18.5242"/>
<polygon fill="midnightblue" stroke="midnightblue" points="1057.09,-53.7931 1067.4,-56.2134 1060.85,-47.889 1057.09,-53.7931"/>
</g>
<!-- Node3 -->
<g id="node3" class="node"><title>Node3</title>
<g id="a_node3"><a xlink:href="main_8c.html#a1c9e5d54d8cf7f3d041aa2e0b330b3dd" target="_top" xlink:title="Handle the process of the buttons being pressed.">
<polygon fill="none" stroke="black" points="74,-227.5 74,-245.5 139,-245.5 139,-227.5 74,-227.5"/>
<text text-anchor="middle" x="106.5" y="-234.3" font-family="Calibri" font-size="9.00">button_proc</text>
</a>
</g>
</g>
<!-- Node2&#45;&gt;Node3 -->
<g id="edge2" class="edge"><title>Node2&#45;&gt;Node3</title>
<path fill="none" stroke="midnightblue" d="M936.104,-122.5C897.153,-122.5 836.543,-122.5 784,-122.5 784,-122.5 784,-122.5 282.5,-122.5 231.042,-122.5 217.598,-136.632 175,-165.5 148.812,-183.247 125.046,-212.686 114.006,-227.458"/>
<polygon fill="midnightblue" stroke="midnightblue" points="936.491,-126 946.491,-122.5 936.491,-119 936.491,-126"/>
</g>
<!-- Node5 -->
<g id="node5" class="node"><title>Node5</title>
<g id="a_node5"><a xlink:href="main_8c.html#ae5a14b4884e85f47ad8a4a716f13203a" target="_top" xlink:title=" ">
<polygon fill="none" stroke="black" points="851.5,-255.5 851.5,-273.5 899.5,-273.5 899.5,-255.5 851.5,-255.5"/>
<text text-anchor="middle" x="875.5" y="-262.3" font-family="Calibri" font-size="9.00">lcd_pwr</text>
</a>
</g>
</g>
<!-- Node2&#45;&gt;Node5 -->
<g id="edge4" class="edge"><title>Node2&#45;&gt;Node5</title>
<path fill="none" stroke="midnightblue" d="M964.024,-140.216C942.542,-170.721 899.3,-232.124 882.955,-255.333"/>
<polygon fill="midnightblue" stroke="midnightblue" points="967.043,-142.008 969.939,-131.817 961.319,-137.978 967.043,-142.008"/>
</g>
<!-- Node4 -->
<g id="node4" class="node"><title>Node4</title>
<g id="a_node4"><a xlink:href="main_8c.html#acdef7a1fd863a6d3770c1268cb06add3" target="_top" xlink:title=" ">
<polygon fill="none" stroke="black" points="0,-360.5 0,-378.5 38,-378.5 38,-360.5 0,-360.5"/>
<text text-anchor="middle" x="19" y="-367.3" font-family="Calibri" font-size="9.00">main</text>
</a>
</g>
</g>
<!-- Node3&#45;&gt;Node4 -->
<g id="edge3" class="edge"><title>Node3&#45;&gt;Node4</title>
<path fill="none" stroke="midnightblue" d="M94.091,-254.247C75.6632,-282.913 39.9932,-338.399 25.9179,-360.294"/>
<polygon fill="midnightblue" stroke="midnightblue" points="97.1597,-255.946 99.6232,-245.642 91.2715,-252.161 97.1597,-255.946"/>
</g>
<!-- Node5&#45;&gt;Node3 -->
<g id="edge7" class="edge"><title>Node5&#45;&gt;Node3</title>
<path fill="none" stroke="midnightblue" d="M860.976,-247.608C849.853,-234.72 833.034,-217.383 815,-206.5 758.201,-172.224 739.34,-160.5 673,-160.5 673,-160.5 673,-160.5 282.5,-160.5 215.922,-160.5 146.01,-207.352 119.043,-227.483"/>
<polygon fill="midnightblue" stroke="midnightblue" points="858.322,-249.891 867.418,-255.323 863.695,-245.404 858.322,-249.891"/>
</g>
<!-- Node5&#45;&gt;Node4 -->
<g id="edge10" class="edge"><title>Node5&#45;&gt;Node4</title>
<path fill="none" stroke="midnightblue" d="M868.828,-283.275C850.567,-339.474 787.708,-502.5 673,-502.5 673,-502.5 673,-502.5 201.5,-502.5 117.51,-502.5 46.5783,-408.69 26.0122,-378.642"/>
<polygon fill="midnightblue" stroke="midnightblue" points="872.229,-284.129 871.888,-273.539 865.551,-282.03 872.229,-284.129"/>
</g>
<!-- Node6 -->
<g id="node6" class="node"><title>Node6</title>
<g id="a_node6"><a xlink:href="main_8c.html#af18ed7edda7874a97cacaa11a2759260" target="_top" xlink:title=" ">
<polygon fill="none" stroke="black" points="175,-227.5 175,-245.5 230,-245.5 230,-227.5 175,-227.5"/>
<text text-anchor="middle" x="202.5" y="-234.3" font-family="Calibri" font-size="9.00">btn_push</text>
</a>
</g>
</g>
<!-- Node5&#45;&gt;Node6 -->
<g id="edge5" class="edge"><title>Node5&#45;&gt;Node6</title>
<path fill="none" stroke="midnightblue" d="M849.523,-250.626C812.268,-231.268 739.401,-198.5 673,-198.5 673,-198.5 673,-198.5 363.5,-198.5 313.537,-198.5 257.115,-216.257 226.412,-227.495"/>
<polygon fill="midnightblue" stroke="midnightblue" points="848.154,-253.862 858.627,-255.461 851.437,-247.68 848.154,-253.862"/>
</g>
<!-- Node7 -->
<g id="node7" class="node"><title>Node7</title>
<g id="a_node7"><a xlink:href="main_8c.html#ac445892220ccb3b4b337dd3e764bd6c6" target="_top" xlink:title="Handle the process of the buttons being pressed (in test mode)">
<polygon fill="none" stroke="black" points="629,-531.5 629,-549.5 715,-549.5 715,-531.5 629,-531.5"/>
<text text-anchor="middle" x="672" y="-538.3" font-family="Calibri" font-size="9.00">button_proc_test</text>
</a>
</g>
</g>
<!-- Node5&#45;&gt;Node7 -->
<g id="edge8" class="edge"><title>Node5&#45;&gt;Node7</title>
<path fill="none" stroke="midnightblue" d="M872.661,-283.853C867.187,-337.181 849.218,-484.418 815,-516.5 788.552,-541.296 746.509,-545.702 715.022,-544.862"/>
<polygon fill="midnightblue" stroke="midnightblue" points="876.162,-284.01 873.665,-273.714 869.196,-283.32 876.162,-284.01"/>
</g>
<!-- Node8 -->
<g id="node8" class="node"><title>Node8</title>
<g id="a_node8"><a xlink:href="main_8c.html#a11724d8cce81ed96bec12a004ea3ea7a" target="_top" xlink:title=" ">
<polygon fill="none" stroke="black" points="751,-322.5 751,-340.5 815,-340.5 815,-322.5 751,-322.5"/>
<text text-anchor="middle" x="783" y="-329.3" font-family="Calibri" font-size="9.00">show_reset</text>
</a>
</g>
</g>
<!-- Node5&#45;&gt;Node8 -->
<g id="edge11" class="edge"><title>Node5&#45;&gt;Node8</title>
<path fill="none" stroke="midnightblue" d="M854.248,-279.493C836.47,-292.655 811.189,-311.371 796.301,-322.393"/>
<polygon fill="midnightblue" stroke="midnightblue" points="856.34,-282.299 862.295,-273.536 852.175,-276.673 856.34,-282.299"/>
</g>
<!-- Node6&#45;&gt;Node3 -->
<g id="edge6" class="edge"><title>Node6&#45;&gt;Node3</title>
<path fill="none" stroke="midnightblue" d="M164.545,-236.5C156.183,-236.5 147.376,-236.5 139.25,-236.5"/>
<polygon fill="midnightblue" stroke="midnightblue" points="164.815,-240 174.815,-236.5 164.815,-233 164.815,-240"/>
</g>
<!-- Node7&#45;&gt;Node4 -->
<g id="edge9" class="edge"><title>Node7&#45;&gt;Node4</title>
<path fill="none" stroke="midnightblue" d="M618.635,-540.5C576.468,-540.5 515.671,-540.5 462.5,-540.5 462.5,-540.5 462.5,-540.5 201.5,-540.5 143.838,-540.5 118.013,-553.753 74,-516.5 30.6271,-479.789 22.082,-405.042 20.4063,-378.833"/>
<polygon fill="midnightblue" stroke="midnightblue" points="618.671,-544 628.671,-540.5 618.671,-537 618.671,-544"/>
</g>
<!-- Node8&#45;&gt;Node3 -->
<g id="edge12" class="edge"><title>Node8&#45;&gt;Node3</title>
<path fill="none" stroke="midnightblue" d="M767.45,-348.321C734.789,-384.098 651.54,-464.5 563,-464.5 563,-464.5 563,-464.5 282.5,-464.5 170.227,-464.5 120.126,-288.375 109.638,-245.72"/>
<polygon fill="midnightblue" stroke="midnightblue" points="770.258,-350.432 774.307,-340.642 765.036,-345.77 770.258,-350.432"/>
</g>
<!-- Node9 -->
<g id="node9" class="node"><title>Node9</title>
<g id="a_node9"><a xlink:href="main_8h.html#ad7eb7423e0b17ccfba1ae42f3a3274e0" target="_top" xlink:title=" ">
<polygon fill="none" stroke="black" points="648,-322.5 648,-340.5 696,-340.5 696,-322.5 648,-322.5"/>
<text text-anchor="middle" x="672" y="-329.3" font-family="Calibri" font-size="9.00">get_swr</text>
</a>
</g>
</g>
<!-- Node8&#45;&gt;Node9 -->
<g id="edge13" class="edge"><title>Node8&#45;&gt;Node9</title>
<path fill="none" stroke="midnightblue" d="M740.65,-331.5C725.625,-331.5 709.181,-331.5 696.268,-331.5"/>
<polygon fill="midnightblue" stroke="midnightblue" points="740.765,-335 750.765,-331.5 740.765,-328 740.765,-335"/>
</g>
<!-- Node10 -->
<g id="node10" class="node"><title>Node10</title>
<g id="a_node10"><a xlink:href="main_8h.html#a740ef1b33bb02cd952ad7d8708999472" target="_top" xlink:title=" ">
<polygon fill="none" stroke="black" points="531,-303.5 531,-321.5 593,-321.5 593,-303.5 531,-303.5"/>
<text text-anchor="middle" x="562" y="-310.3" font-family="Calibri" font-size="9.00">coarse_cap</text>
</a>
</g>
</g>
<!-- Node9&#45;&gt;Node10 -->
<g id="edge14" class="edge"><title>Node9&#45;&gt;Node10</title>
<path fill="none" stroke="midnightblue" d="M637.912,-325.679C623.631,-323.167 607.043,-320.248 593.112,-317.797"/>
<polygon fill="midnightblue" stroke="midnightblue" points="637.376,-329.138 647.831,-327.424 638.589,-322.244 637.376,-329.138"/>
</g>
<!-- Node11 -->
<g id="node11" class="node"><title>Node11</title>
<g id="a_node11"><a xlink:href="main_8h.html#a5c7c60c7d70cf76cc52e87722bb0f614" target="_top" xlink:title=" ">
<polygon fill="none" stroke="black" points="428,-322.5 428,-340.5 495,-340.5 495,-322.5 428,-322.5"/>
<text text-anchor="middle" x="461.5" y="-329.3" font-family="Calibri" font-size="9.00">coarse_tune</text>
</a>
</g>
</g>
<!-- Node9&#45;&gt;Node11 -->
<g id="edge19" class="edge"><title>Node9&#45;&gt;Node11</title>
<path fill="none" stroke="midnightblue" d="M637.82,-331.5C598.733,-331.5 534.206,-331.5 495.29,-331.5"/>
<polygon fill="midnightblue" stroke="midnightblue" points="637.89,-335 647.89,-331.5 637.89,-328 637.89,-335"/>
</g>
<!-- Node12 -->
<g id="node12" class="node"><title>Node12</title>
<g id="a_node12"><a xlink:href="main_8h.html#a454a7687c8039514766571b23516ca9c" target="_top" xlink:title=" ">
<polygon fill="none" stroke="black" points="337,-322.5 337,-340.5 392,-340.5 392,-322.5 337,-322.5"/>
<text text-anchor="middle" x="364.5" y="-329.3" font-family="Calibri" font-size="9.00">sub_tune</text>
</a>
</g>
</g>
<!-- Node9&#45;&gt;Node12 -->
<g id="edge26" class="edge"><title>Node9&#45;&gt;Node12</title>
<path fill="none" stroke="midnightblue" d="M637.848,-338.796C590.917,-348.057 502.519,-361.577 428,-350.5 414.987,-348.566 400.935,-344.483 389.457,-340.597"/>
<polygon fill="midnightblue" stroke="midnightblue" points="638.659,-342.202 647.761,-336.78 637.264,-335.343 638.659,-342.202"/>
</g>
<!-- Node13 -->
<g id="node13" class="node"><title>Node13</title>
<g id="a_node13"><a xlink:href="main_8h.html#a1849f2e5bd63d11a7b9549470e287d17" target="_top" xlink:title=" ">
<polygon fill="none" stroke="black" points="266,-265.5 266,-283.5 301,-283.5 301,-265.5 266,-265.5"/>
<text text-anchor="middle" x="283.5" y="-272.3" font-family="Calibri" font-size="9.00">tune</text>
</a>
</g>
</g>
<!-- Node9&#45;&gt;Node13 -->
<g id="edge27" class="edge"><title>Node9&#45;&gt;Node13</title>
<path fill="none" stroke="midnightblue" d="M647.331,-317.377C632.311,-309.16 612.16,-299.471 593,-294.5 484.681,-266.399 348.165,-270.805 301.234,-273.408"/>
<polygon fill="midnightblue" stroke="midnightblue" points="645.969,-320.628 656.398,-322.499 649.412,-314.533 645.969,-320.628"/>
</g>
<!-- Node14 -->
<g id="node14" class="node"><title>Node14</title>
<g id="a_node14"><a xlink:href="main_8h.html#ab518a3d2c723f12d3af3024a195606ce" target="_top" xlink:title=" ">
<polygon fill="none" stroke="black" points="432,-227.5 432,-245.5 491,-245.5 491,-227.5 432,-227.5"/>
<text text-anchor="middle" x="461.5" y="-234.3" font-family="Calibri" font-size="9.00">sharp_cap</text>
</a>
</g>
</g>
<!-- Node9&#45;&gt;Node14 -->
<g id="edge20" class="edge"><title>Node9&#45;&gt;Node14</title>
<path fill="none" stroke="midnightblue" d="M657.42,-314.553C643.185,-298.022 619.266,-273.519 593,-260.5 560.492,-244.387 518.588,-239.016 491.154,-237.269"/>
<polygon fill="midnightblue" stroke="midnightblue" points="654.848,-316.934 663.942,-322.369 660.222,-312.449 654.848,-316.934"/>
</g>
<!-- Node15 -->
<g id="node15" class="node"><title>Node15</title>
<g id="a_node15"><a xlink:href="main_8h.html#a72210b3ed1d5691c5bbda8c7f1e97197" target="_top" xlink:title=" ">
<polygon fill="none" stroke="black" points="432.5,-417.5 432.5,-435.5 490.5,-435.5 490.5,-417.5 432.5,-417.5"/>
<text text-anchor="middle" x="461.5" y="-424.3" font-family="Calibri" font-size="9.00">sharp_ind</text>
</a>
</g>
</g>
<!-- Node9&#45;&gt;Node15 -->
<g id="edge23" class="edge"><title>Node9&#45;&gt;Node15</title>
<path fill="none" stroke="midnightblue" d="M657.42,-348.447C643.185,-364.978 619.266,-389.481 593,-402.5 560.286,-418.715 518.056,-424.051 490.634,-425.764"/>
<polygon fill="midnightblue" stroke="midnightblue" points="660.222,-350.551 663.942,-340.631 654.848,-346.066 660.222,-350.551"/>
</g>
<!-- Node10&#45;&gt;Node11 -->
<g id="edge15" class="edge"><title>Node10&#45;&gt;Node11</title>
<path fill="none" stroke="midnightblue" d="M521.051,-320.206C512.441,-321.867 503.437,-323.603 495.145,-325.203"/>
<polygon fill="midnightblue" stroke="midnightblue" points="521.755,-323.635 530.912,-318.304 520.43,-316.761 521.755,-323.635"/>
</g>
<!-- Node11&#45;&gt;Node12 -->
<g id="edge16" class="edge"><title>Node11&#45;&gt;Node12</title>
<path fill="none" stroke="midnightblue" d="M417.785,-331.5C409.104,-331.5 400.207,-331.5 392.271,-331.5"/>
<polygon fill="midnightblue" stroke="midnightblue" points="417.806,-335 427.806,-331.5 417.806,-328 417.806,-335"/>
</g>
<!-- Node12&#45;&gt;Node13 -->
<g id="edge17" class="edge"><title>Node12&#45;&gt;Node13</title>
<path fill="none" stroke="midnightblue" d="M342.466,-316.323C328.034,-305.911 309.359,-292.436 297.161,-283.635"/>
<polygon fill="midnightblue" stroke="midnightblue" points="340.65,-319.329 350.807,-322.342 344.746,-313.652 340.65,-319.329"/>
</g>
<!-- Node13&#45;&gt;Node6 -->
<g id="edge18" class="edge"><title>Node13&#45;&gt;Node6</title>
<path fill="none" stroke="midnightblue" d="M256.5,-261.994C245.385,-256.647 232.649,-250.521 222.448,-245.614"/>
<polygon fill="midnightblue" stroke="midnightblue" points="255.217,-265.26 265.746,-266.441 258.252,-258.952 255.217,-265.26"/>
</g>
<!-- Node14&#45;&gt;Node12 -->
<g id="edge21" class="edge"><title>Node14&#45;&gt;Node12</title>
<path fill="none" stroke="midnightblue" d="M444.179,-252.821C424.125,-272.875 390.791,-306.209 374.721,-322.279"/>
<polygon fill="midnightblue" stroke="midnightblue" points="446.795,-255.155 451.391,-245.609 441.845,-250.205 446.795,-255.155"/>
</g>
<!-- Node14&#45;&gt;Node13 -->
<g id="edge22" class="edge"><title>Node14&#45;&gt;Node13</title>
<path fill="none" stroke="midnightblue" d="M421.972,-243.284C397.538,-247.759 365.309,-253.983 337,-260.5 325.05,-263.251 311.698,-266.818 301.45,-269.663"/>
<polygon fill="midnightblue" stroke="midnightblue" points="422.718,-246.706 431.933,-241.477 421.468,-239.818 422.718,-246.706"/>
</g>
<!-- Node15&#45;&gt;Node12 -->
<g id="edge24" class="edge"><title>Node15&#45;&gt;Node12</title>
<path fill="none" stroke="midnightblue" d="M438.487,-411.24C434.877,-408.459 431.256,-405.488 428,-402.5 405.98,-382.291 383.68,-354.931 372.628,-340.802"/>
<polygon fill="midnightblue" stroke="midnightblue" points="436.587,-414.187 446.713,-417.304 440.741,-408.553 436.587,-414.187"/>
</g>
<!-- Node15&#45;&gt;Node13 -->
<g id="edge25" class="edge"><title>Node15&#45;&gt;Node13</title>
<path fill="none" stroke="midnightblue" d="M431.203,-412.877C404.599,-399.542 365.307,-377.349 337,-350.5 315.358,-329.973 297.45,-299.155 289.275,-283.835"/>
<polygon fill="midnightblue" stroke="midnightblue" points="429.867,-416.12 440.387,-417.381 432.95,-409.835 429.867,-416.12"/>
</g>
<!-- Node16&#45;&gt;Node4 -->
<g id="edge29" class="edge"><title>Node16&#45;&gt;Node4</title>
<path fill="none" stroke="midnightblue" d="M840.919,-84.5C800.922,-84.5 732.088,-84.5 673,-84.5 673,-84.5 673,-84.5 201.5,-84.5 67.46,-84.5 28.1021,-311.558 21.193,-360.34"/>
<polygon fill="midnightblue" stroke="midnightblue" points="840.924,-88.0001 850.924,-84.5 840.924,-81.0001 840.924,-88.0001"/>
</g>
</g>
</svg>
