<?xml version="1.0" encoding="UTF-8" standalone="no"?>
<!DOCTYPE svg PUBLIC "-//W3C//DTD SVG 1.1//EN"
 "http://www.w3.org/Graphics/SVG/1.1/DTD/svg11.dtd">
<!-- Generated by graphviz version 2.38.0 (20140413.2041)
 -->
<!-- Title: Soft_I2C_Stop Pages: 1 -->
<!--zoomable 977 -->
<svg id="main" version="1.1" xmlns="http://www.w3.org/2000/svg" xmlns:xlink="http://www.w3.org/1999/xlink" xml:space="preserve" onload="init(evt)">
<style type="text/css"><![CDATA[
.edge:hover path { stroke: red; }
.edge:hover polygon { stroke: red; fill: red; }
]]></style>
<script type="text/javascript"><![CDATA[
var edges = document.getElementsByTagName('g');
if (edges && edges.length) {
  for (var i=0;i<edges.length;i++) {
    if (edges[i].id.substr(0,4)=='edge') {
      edges[i].setAttribute('class','edge');
    }
  }
}
]]></script>
        <defs>
                <circle id="rim" cx="0" cy="0" r="7"/>
                <circle id="rim2" cx="0" cy="0" r="3.5"/>
                <g id="zoomPlus">
                        <use xlink:href="#rim" fill="#404040">
                                <set attributeName="fill" to="#808080" begin="zoomplus.mouseover" end="zoomplus.mouseout"/>
                        </use>
                        <path d="M-4,0h8M0,-4v8" fill="none" stroke="white" stroke-width="1.5" pointer-events="none"/>
                </g>
                <g id="zoomMin">
                        <use xlink:href="#rim" fill="#404040">
                                <set attributeName="fill" to="#808080" begin="zoomminus.mouseover" end="zoomminus.mouseout"/>
                        </use>
                        <path d="M-4,0h8" fill="none" stroke="white" stroke-width="1.5" pointer-events="none"/>
                </g>
                <g id="dirArrow">
                        <path fill="none" stroke="white" stroke-width="1.5" d="M0,-3.0v7 M-2.5,-0.5L0,-3.0L2.5,-0.5"/>
                </g>
               <g id="resetDef">
                       <use xlink:href="#rim2" fill="#404040">
                               <set attributeName="fill" to="#808080" begin="reset.mouseover" end="reset.mouseout"/>
                       </use>
               </g>
        </defs>

<script type="text/javascript">
var viewWidth = 1432;
var viewHeight = 977;
var sectionId = 'dynsection-19';
</script>
<script xlink:href="svgpan.js"/>
<svg id="graph" class="graph">
<g id="viewport">
<title>Soft_I2C_Stop</title>
<!-- Node1 -->
<g id="node1" class="node"><title>Node1</title>
<g id="a_node1"><a xlink:title=" ">
<polygon fill="#bfbfbf" stroke="black" points="1353,-94.5 1353,-112.5 1424,-112.5 1424,-94.5 1353,-94.5"/>
<text text-anchor="middle" x="1388.5" y="-101.3" font-family="Calibri" font-size="9.00">Soft_I2C_Stop</text>
</a>
</g>
</g>
<!-- Node2 -->
<g id="node2" class="node"><title>Node2</title>
<g id="a_node2"><a xlink:href="oled__control_8c.html#a3d35666326cc069eda3b63c70983fdbc" target="_top" xlink:title=" ">
<polygon fill="none" stroke="black" points="1249,-114.5 1249,-132.5 1304,-132.5 1304,-114.5 1249,-114.5"/>
<text text-anchor="middle" x="1276.5" y="-121.3" font-family="Calibri" font-size="9.00">led_send</text>
</a>
</g>
</g>
<!-- Node1&#45;&gt;Node2 -->
<g id="edge1" class="edge"><title>Node1&#45;&gt;Node2</title>
<path fill="none" stroke="midnightblue" d="M1343.13,-111.568C1329.94,-113.966 1315.9,-116.519 1304.2,-118.645"/>
<polygon fill="midnightblue" stroke="midnightblue" points="1343.78,-115.006 1353,-109.773 1342.53,-108.119 1343.78,-115.006"/>
</g>
<!-- Node26 -->
<g id="node26" class="node"><title>Node26</title>
<g id="a_node26"><a xlink:href="oled__control_8c.html#ad95f850c4c6d949229270c8da88c02cb" target="_top" xlink:title=" ">
<polygon fill="none" stroke="black" points="1131.5,-0.5 1131.5,-18.5 1185.5,-18.5 1185.5,-0.5 1131.5,-0.5"/>
<text text-anchor="middle" x="1158.5" y="-7.3" font-family="Calibri" font-size="9.00">oled_init</text>
</a>
</g>
</g>
<!-- Node1&#45;&gt;Node26 -->
<g id="edge60" class="edge"><title>Node1&#45;&gt;Node26</title>
<path fill="none" stroke="midnightblue" d="M1368.03,-88.2065C1354.37,-78.0765 1335.35,-65.1165 1317,-56.5 1272.96,-35.8209 1217.72,-21.8389 1185.73,-14.806"/>
<polygon fill="midnightblue" stroke="midnightblue" points="1366.08,-91.1239 1376.17,-94.3806 1370.31,-85.5476 1366.08,-91.1239"/>
</g>
<!-- Node27 -->
<g id="node27" class="node"><title>Node27</title>
<g id="a_node27"><a xlink:href="oled__control_8c.html#a6e85fd05697e2238e4d9babf1c952772" target="_top" xlink:title=" ">
<polygon fill="none" stroke="black" points="1244,-408.5 1244,-426.5 1309,-426.5 1309,-408.5 1244,-408.5"/>
<text text-anchor="middle" x="1276.5" y="-415.3" font-family="Calibri" font-size="9.00">oled_wr_str</text>
</a>
</g>
</g>
<!-- Node1&#45;&gt;Node27 -->
<g id="edge62" class="edge"><title>Node1&#45;&gt;Node27</title>
<path fill="none" stroke="midnightblue" d="M1380.96,-122.155C1360.13,-181.625 1295.77,-365.348 1280.69,-408.404"/>
<polygon fill="midnightblue" stroke="midnightblue" points="1384.32,-123.154 1384.33,-112.559 1377.72,-120.839 1384.32,-123.154"/>
</g>
<!-- Node28 -->
<g id="node28" class="node"><title>Node28</title>
<g id="a_node28"><a xlink:href="oled__control_8c.html#a78a346ba6e89c3140dd554a46e56c719" target="_top" xlink:title=" ">
<polygon fill="none" stroke="black" points="1236,-66.5 1236,-84.5 1317,-84.5 1317,-66.5 1236,-66.5"/>
<text text-anchor="middle" x="1276.5" y="-73.3" font-family="Calibri" font-size="9.00">send_command</text>
</a>
</g>
</g>
<!-- Node1&#45;&gt;Node28 -->
<g id="edge64" class="edge"><title>Node1&#45;&gt;Node28</title>
<path fill="none" stroke="midnightblue" d="M1343.18,-92.2194C1333.15,-89.6662 1322.63,-86.9876 1313.02,-84.541"/>
<polygon fill="midnightblue" stroke="midnightblue" points="1342.44,-95.6424 1353,-94.7174 1344.17,-88.8587 1342.44,-95.6424"/>
</g>
<!-- Node3 -->
<g id="node3" class="node"><title>Node3</title>
<g id="a_node3"><a xlink:href="oled__control_8c.html#a5febfdc847aa6f3bc3f3c8f7818b8699" target="_top" xlink:title=" ">
<polygon fill="none" stroke="black" points="934,-228.5 934,-246.5 996,-246.5 996,-228.5 934,-228.5"/>
<text text-anchor="middle" x="965" y="-235.3" font-family="Calibri" font-size="9.00">display_on</text>
</a>
</g>
</g>
<!-- Node2&#45;&gt;Node3 -->
<g id="edge2" class="edge"><title>Node2&#45;&gt;Node3</title>
<path fill="none" stroke="midnightblue" d="M1241.49,-136.029C1178.59,-159.196 1045.51,-208.212 990.547,-228.458"/>
<polygon fill="midnightblue" stroke="midnightblue" points="1242.78,-139.281 1250.96,-132.541 1240.36,-132.713 1242.78,-139.281"/>
</g>
<!-- Node17 -->
<g id="node17" class="node"><title>Node17</title>
<g id="a_node17"><a xlink:href="oled__control_8c.html#a7eb4d382bdd4b42c57dbb7154d03ac66" target="_top" xlink:title=" ">
<polygon fill="none" stroke="black" points="1032,-0.5 1032,-18.5 1081,-18.5 1081,-0.5 1032,-0.5"/>
<text text-anchor="middle" x="1056.5" y="-7.3" font-family="Calibri" font-size="9.00">led_init</text>
</a>
</g>
</g>
<!-- Node2&#45;&gt;Node17 -->
<g id="edge29" class="edge"><title>Node2&#45;&gt;Node17</title>
<path fill="none" stroke="midnightblue" d="M1238.77,-127.339C1204.6,-129.064 1153.6,-126.751 1117,-103.5 1084.72,-82.9925 1066.78,-37.9762 1060.31,-18.6309"/>
<polygon fill="midnightblue" stroke="midnightblue" points="1239.05,-130.829 1248.8,-126.693 1238.6,-123.844 1239.05,-130.829"/>
</g>
<!-- Node18 -->
<g id="node18" class="node"><title>Node18</title>
<g id="a_node18"><a xlink:href="oled__control_8c.html#a1c8eef09adf01c9a7e3c6188f25c3c48" target="_top" xlink:title=" ">
<polygon fill="none" stroke="black" points="1129,-665.5 1129,-683.5 1188,-683.5 1188,-665.5 1129,-665.5"/>
<text text-anchor="middle" x="1158.5" y="-672.3" font-family="Calibri" font-size="9.00">led_wr_str</text>
</a>
</g>
</g>
<!-- Node2&#45;&gt;Node18 -->
<g id="edge31" class="edge"><title>Node2&#45;&gt;Node18</title>
<path fill="none" stroke="midnightblue" d="M1271.48,-142.616C1252.76,-231.508 1174.6,-602.78 1161.4,-665.486"/>
<polygon fill="midnightblue" stroke="midnightblue" points="1274.95,-143.11 1273.58,-132.604 1268.1,-141.668 1274.95,-143.11"/>
</g>
<!-- Node25 -->
<g id="node25" class="node"><title>Node25</title>
<g id="a_node25"><a xlink:href="oled__control_8c.html#ac620c45e67383b8f8addda11fa5655af" target="_top" xlink:title=" ">
<polygon fill="none" stroke="black" points="1117,-76.5 1117,-94.5 1200,-94.5 1200,-76.5 1117,-76.5"/>
<text text-anchor="middle" x="1158.5" y="-83.3" font-family="Calibri" font-size="9.00">vodisplay_offoff</text>
</a>
</g>
</g>
<!-- Node2&#45;&gt;Node25 -->
<g id="edge59" class="edge"><title>Node2&#45;&gt;Node25</title>
<path fill="none" stroke="midnightblue" d="M1239.36,-111.662C1222.53,-106.149 1202.83,-99.6931 1187.2,-94.574"/>
<polygon fill="midnightblue" stroke="midnightblue" points="1238.29,-114.995 1248.89,-114.782 1240.47,-108.343 1238.29,-114.995"/>
</g>
<!-- Node4 -->
<g id="node4" class="node"><title>Node4</title>
<g id="a_node4"><a xlink:href="main_8c.html#a1c9e5d54d8cf7f3d041aa2e0b330b3dd" target="_top" xlink:title="Handle the process of the buttons being pressed.">
<polygon fill="none" stroke="black" points="74,-342.5 74,-360.5 139,-360.5 139,-342.5 74,-342.5"/>
<text text-anchor="middle" x="106.5" y="-349.3" font-family="Calibri" font-size="9.00">button_proc</text>
</a>
</g>
</g>
<!-- Node3&#45;&gt;Node4 -->
<g id="edge3" class="edge"><title>Node3&#45;&gt;Node4</title>
<path fill="none" stroke="midnightblue" d="M923.904,-231.169C851.857,-220.36 695.637,-199.5 563,-199.5 563,-199.5 563,-199.5 282.5,-199.5 194.772,-199.5 129.553,-309.724 112.124,-342.447"/>
<polygon fill="midnightblue" stroke="midnightblue" points="923.498,-234.648 933.91,-232.687 924.548,-227.727 923.498,-234.648"/>
</g>
<!-- Node6 -->
<g id="node6" class="node"><title>Node6</title>
<g id="a_node6"><a xlink:href="main_8c.html#ae5a14b4884e85f47ad8a4a716f13203a" target="_top" xlink:title=" ">
<polygon fill="none" stroke="black" points="848.5,-684.5 848.5,-702.5 896.5,-702.5 896.5,-684.5 848.5,-684.5"/>
<text text-anchor="middle" x="872.5" y="-691.3" font-family="Calibri" font-size="9.00">lcd_pwr</text>
</a>
</g>
</g>
<!-- Node3&#45;&gt;Node6 -->
<g id="edge5" class="edge"><title>Node3&#45;&gt;Node6</title>
<path fill="none" stroke="midnightblue" d="M960.23,-256.494C944.751,-334.491 886.366,-628.675 875.312,-684.37"/>
<polygon fill="midnightblue" stroke="midnightblue" points="963.679,-257.099 962.192,-246.609 956.812,-255.736 963.679,-257.099"/>
</g>
<!-- Node5 -->
<g id="node5" class="node"><title>Node5</title>
<g id="a_node5"><a xlink:href="main_8c.html#acdef7a1fd863a6d3770c1268cb06add3" target="_top" xlink:title=" ">
<polygon fill="none" stroke="black" points="0,-798.5 0,-816.5 38,-816.5 38,-798.5 0,-798.5"/>
<text text-anchor="middle" x="19" y="-805.3" font-family="Calibri" font-size="9.00">main</text>
</a>
</g>
</g>
<!-- Node4&#45;&gt;Node5 -->
<g id="edge4" class="edge"><title>Node4&#45;&gt;Node5</title>
<path fill="none" stroke="midnightblue" d="M101.939,-370.494C87.3142,-448.491 32.1548,-742.675 21.712,-798.37"/>
<polygon fill="midnightblue" stroke="midnightblue" points="105.389,-371.083 103.792,-360.609 98.5091,-369.792 105.389,-371.083"/>
</g>
<!-- Node6&#45;&gt;Node4 -->
<g id="edge8" class="edge"><title>Node6&#45;&gt;Node4</title>
<path fill="none" stroke="midnightblue" d="M838.472,-703.193C797.131,-714.452 723.969,-731.5 660,-731.5 660,-731.5 660,-731.5 282.5,-731.5 113.631,-731.5 107.151,-418.063 107.384,-360.519"/>
<polygon fill="midnightblue" stroke="midnightblue" points="839.575,-706.52 848.272,-700.47 837.7,-699.775 839.575,-706.52"/>
</g>
<!-- Node6&#45;&gt;Node5 -->
<g id="edge11" class="edge"><title>Node6&#45;&gt;Node5</title>
<path fill="none" stroke="midnightblue" d="M851.87,-709.037C840.499,-717.361 825.585,-727.176 811,-733.5 747.702,-760.945 728.992,-769.5 660,-769.5 660,-769.5 660,-769.5 201.5,-769.5 140.493,-769.5 70.3526,-790.322 38.0291,-801.14"/>
<polygon fill="midnightblue" stroke="midnightblue" points="854.287,-711.597 860.155,-702.775 850.067,-706.012 854.287,-711.597"/>
</g>
<!-- Node7 -->
<g id="node7" class="node"><title>Node7</title>
<g id="a_node7"><a xlink:href="main_8c.html#af18ed7edda7874a97cacaa11a2759260" target="_top" xlink:title=" ">
<polygon fill="none" stroke="black" points="175,-532.5 175,-550.5 230,-550.5 230,-532.5 175,-532.5"/>
<text text-anchor="middle" x="202.5" y="-539.3" font-family="Calibri" font-size="9.00">btn_push</text>
</a>
</g>
</g>
<!-- Node6&#45;&gt;Node7 -->
<g id="edge6" class="edge"><title>Node6&#45;&gt;Node7</title>
<path fill="none" stroke="midnightblue" d="M838.213,-693.5C796.548,-693.5 722.997,-693.5 660,-693.5 660,-693.5 660,-693.5 363.5,-693.5 318.873,-693.5 300.73,-697.525 266,-669.5 226.355,-637.508 210.043,-574.12 205.184,-550.58"/>
<polygon fill="midnightblue" stroke="midnightblue" points="838.341,-697 848.341,-693.5 838.341,-690 838.341,-697"/>
</g>
<!-- Node8 -->
<g id="node8" class="node"><title>Node8</title>
<g id="a_node8"><a xlink:href="main_8c.html#ac445892220ccb3b4b337dd3e764bd6c6" target="_top" xlink:title="Handle the process of the buttons being pressed (in test mode)">
<polygon fill="none" stroke="black" points="725,-798.5 725,-816.5 811,-816.5 811,-798.5 725,-798.5"/>
<text text-anchor="middle" x="768" y="-805.3" font-family="Calibri" font-size="9.00">button_proc_test</text>
</a>
</g>
</g>
<!-- Node6&#45;&gt;Node8 -->
<g id="edge9" class="edge"><title>Node6&#45;&gt;Node8</title>
<path fill="none" stroke="midnightblue" d="M862.503,-711.744C852.161,-731.319 833.66,-762.43 811,-783.5 804.604,-789.447 796.473,-794.524 789.072,-798.455"/>
<polygon fill="midnightblue" stroke="midnightblue" points="865.705,-713.17 867.146,-702.674 859.474,-709.98 865.705,-713.17"/>
</g>
<!-- Node9 -->
<g id="node9" class="node"><title>Node9</title>
<g id="a_node9"><a xlink:href="main_8c.html#a11724d8cce81ed96bec12a004ea3ea7a" target="_top" xlink:title=" ">
<polygon fill="none" stroke="black" points="736,-380.5 736,-398.5 800,-398.5 800,-380.5 736,-380.5"/>
<text text-anchor="middle" x="768" y="-387.3" font-family="Calibri" font-size="9.00">show_reset</text>
</a>
</g>
</g>
<!-- Node6&#45;&gt;Node9 -->
<g id="edge12" class="edge"><title>Node6&#45;&gt;Node9</title>
<path fill="none" stroke="midnightblue" d="M865.152,-674.672C845.511,-616.421 786.206,-440.531 772.056,-398.563"/>
<polygon fill="midnightblue" stroke="midnightblue" points="861.921,-676.044 868.432,-684.402 868.554,-673.808 861.921,-676.044"/>
</g>
<!-- Node7&#45;&gt;Node4 -->
<g id="edge7" class="edge"><title>Node7&#45;&gt;Node4</title>
<path fill="none" stroke="midnightblue" d="M192.463,-523.234C172.767,-483.422 126.564,-390.035 111.988,-360.572"/>
<polygon fill="midnightblue" stroke="midnightblue" points="189.395,-524.925 196.966,-532.336 195.669,-521.821 189.395,-524.925"/>
</g>
<!-- Node8&#45;&gt;Node5 -->
<g id="edge10" class="edge"><title>Node8&#45;&gt;Node5</title>
<path fill="none" stroke="midnightblue" d="M714.723,-807.5C673.511,-807.5 614.587,-807.5 563,-807.5 563,-807.5 563,-807.5 201.5,-807.5 141.63,-807.5 70.6518,-807.5 38.0329,-807.5"/>
<polygon fill="midnightblue" stroke="midnightblue" points="714.804,-811 724.804,-807.5 714.804,-804 714.804,-811"/>
</g>
<!-- Node9&#45;&gt;Node4 -->
<g id="edge13" class="edge"><title>Node9&#45;&gt;Node4</title>
<path fill="none" stroke="midnightblue" d="M727.783,-377.753C687.003,-366.591 621.12,-351.5 563,-351.5 563,-351.5 563,-351.5 282.5,-351.5 232.37,-351.5 174.162,-351.5 139.114,-351.5"/>
<polygon fill="midnightblue" stroke="midnightblue" points="727.017,-381.173 737.59,-380.495 728.901,-374.431 727.017,-381.173"/>
</g>
<!-- Node10 -->
<g id="node10" class="node"><title>Node10</title>
<g id="a_node10"><a xlink:href="main_8h.html#ad7eb7423e0b17ccfba1ae42f3a3274e0" target="_top" xlink:title=" ">
<polygon fill="none" stroke="black" points="635,-509.5 635,-527.5 683,-527.5 683,-509.5 635,-509.5"/>
<text text-anchor="middle" x="659" y="-516.3" font-family="Calibri" font-size="9.00">get_swr</text>
</a>
</g>
</g>
<!-- Node9&#45;&gt;Node10 -->
<g id="edge14" class="edge"><title>Node9&#45;&gt;Node10</title>
<path fill="none" stroke="midnightblue" d="M752.651,-406.799C729.664,-434.512 685.37,-487.913 667.625,-509.307"/>
<polygon fill="midnightblue" stroke="midnightblue" points="755.614,-408.709 759.305,-398.777 750.227,-404.24 755.614,-408.709"/>
</g>
<!-- Node11 -->
<g id="node11" class="node"><title>Node11</title>
<g id="a_node11"><a xlink:href="main_8h.html#a740ef1b33bb02cd952ad7d8708999472" target="_top" xlink:title=" ">
<polygon fill="none" stroke="black" points="531,-456.5 531,-474.5 593,-474.5 593,-456.5 531,-456.5"/>
<text text-anchor="middle" x="562" y="-463.3" font-family="Calibri" font-size="9.00">coarse_cap</text>
</a>
</g>
</g>
<!-- Node10&#45;&gt;Node11 -->
<g id="edge15" class="edge"><title>Node10&#45;&gt;Node11</title>
<path fill="none" stroke="midnightblue" d="M632.632,-504.348C615.729,-494.917 594.01,-482.8 579.358,-474.626"/>
<polygon fill="midnightblue" stroke="midnightblue" points="631.014,-507.453 641.452,-509.268 634.425,-501.34 631.014,-507.453"/>
</g>
<!-- Node12 -->
<g id="node12" class="node"><title>Node12</title>
<g id="a_node12"><a xlink:href="main_8h.html#a5c7c60c7d70cf76cc52e87722bb0f614" target="_top" xlink:title=" ">
<polygon fill="none" stroke="black" points="428,-456.5 428,-474.5 495,-474.5 495,-456.5 428,-456.5"/>
<text text-anchor="middle" x="461.5" y="-463.3" font-family="Calibri" font-size="9.00">coarse_tune</text>
</a>
</g>
</g>
<!-- Node10&#45;&gt;Node12 -->
<g id="edge20" class="edge"><title>Node10&#45;&gt;Node12</title>
<path fill="none" stroke="midnightblue" d="M648.057,-500.714C637.135,-483.2 617.8,-457.522 593,-446.5 555.968,-430.041 507.76,-445.425 481.533,-456.487"/>
<polygon fill="midnightblue" stroke="midnightblue" points="645.131,-502.641 653.241,-509.458 651.153,-499.072 645.131,-502.641"/>
</g>
<!-- Node13 -->
<g id="node13" class="node"><title>Node13</title>
<g id="a_node13"><a xlink:href="main_8h.html#a454a7687c8039514766571b23516ca9c" target="_top" xlink:title=" ">
<polygon fill="none" stroke="black" points="337,-494.5 337,-512.5 392,-512.5 392,-494.5 337,-494.5"/>
<text text-anchor="middle" x="364.5" y="-501.3" font-family="Calibri" font-size="9.00">sub_tune</text>
</a>
</g>
</g>
<!-- Node10&#45;&gt;Node13 -->
<g id="edge27" class="edge"><title>Node10&#45;&gt;Node13</title>
<path fill="none" stroke="midnightblue" d="M624.35,-516.774C565.71,-513.767 445.948,-507.626 392.408,-504.88"/>
<polygon fill="midnightblue" stroke="midnightblue" points="624.392,-520.281 634.558,-517.298 624.75,-513.29 624.392,-520.281"/>
</g>
<!-- Node14 -->
<g id="node14" class="node"><title>Node14</title>
<g id="a_node14"><a xlink:href="main_8h.html#a1849f2e5bd63d11a7b9549470e287d17" target="_top" xlink:title=" ">
<polygon fill="none" stroke="black" points="266,-532.5 266,-550.5 301,-550.5 301,-532.5 266,-532.5"/>
<text text-anchor="middle" x="283.5" y="-539.3" font-family="Calibri" font-size="9.00">tune</text>
</a>
</g>
</g>
<!-- Node10&#45;&gt;Node14 -->
<g id="edge28" class="edge"><title>Node10&#45;&gt;Node14</title>
<path fill="none" stroke="midnightblue" d="M640.409,-534.46C627.937,-545.07 610.39,-558.633 593,-567.5 552.42,-588.191 540.049,-590.759 495,-597.5 424.881,-607.992 402.137,-603.498 337,-575.5 321.836,-568.982 306.171,-558.218 295.946,-550.548"/>
<polygon fill="midnightblue" stroke="midnightblue" points="642.941,-536.895 648.168,-527.68 638.335,-531.624 642.941,-536.895"/>
</g>
<!-- Node15 -->
<g id="node15" class="node"><title>Node15</title>
<g id="a_node15"><a xlink:href="main_8h.html#ab518a3d2c723f12d3af3024a195606ce" target="_top" xlink:title=" ">
<polygon fill="none" stroke="black" points="432,-570.5 432,-588.5 491,-588.5 491,-570.5 432,-570.5"/>
<text text-anchor="middle" x="461.5" y="-577.3" font-family="Calibri" font-size="9.00">sharp_cap</text>
</a>
</g>
</g>
<!-- Node10&#45;&gt;Node15 -->
<g id="edge21" class="edge"><title>Node10&#45;&gt;Node15</title>
<path fill="none" stroke="midnightblue" d="M627.7,-531.484C616.856,-535.9 604.478,-540.68 593,-544.5 558.391,-556.018 517.677,-566.457 491.044,-572.878"/>
<polygon fill="midnightblue" stroke="midnightblue" points="629.256,-534.628 637.157,-527.569 626.579,-528.161 629.256,-534.628"/>
</g>
<!-- Node16 -->
<g id="node16" class="node"><title>Node16</title>
<g id="a_node16"><a xlink:href="main_8h.html#a72210b3ed1d5691c5bbda8c7f1e97197" target="_top" xlink:title=" ">
<polygon fill="none" stroke="black" points="432.5,-532.5 432.5,-550.5 490.5,-550.5 490.5,-532.5 432.5,-532.5"/>
<text text-anchor="middle" x="461.5" y="-539.3" font-family="Calibri" font-size="9.00">sharp_ind</text>
</a>
</g>
</g>
<!-- Node10&#45;&gt;Node16 -->
<g id="edge24" class="edge"><title>Node10&#45;&gt;Node16</title>
<path fill="none" stroke="midnightblue" d="M624.827,-522.403C587.123,-526.839 526.222,-534.003 490.712,-538.181"/>
<polygon fill="midnightblue" stroke="midnightblue" points="625.283,-525.873 634.806,-521.229 624.465,-518.921 625.283,-525.873"/>
</g>
<!-- Node11&#45;&gt;Node12 -->
<g id="edge16" class="edge"><title>Node11&#45;&gt;Node12</title>
<path fill="none" stroke="midnightblue" d="M520.77,-465.5C512.245,-465.5 503.347,-465.5 495.145,-465.5"/>
<polygon fill="midnightblue" stroke="midnightblue" points="520.912,-469 530.912,-465.5 520.912,-462 520.912,-469"/>
</g>
<!-- Node12&#45;&gt;Node13 -->
<g id="edge17" class="edge"><title>Node12&#45;&gt;Node13</title>
<path fill="none" stroke="midnightblue" d="M428.325,-478.37C415.139,-483.644 400.189,-489.624 388.181,-494.427"/>
<polygon fill="midnightblue" stroke="midnightblue" points="430.001,-481.469 437.986,-474.505 427.402,-474.97 430.001,-481.469"/>
</g>
<!-- Node13&#45;&gt;Node14 -->
<g id="edge18" class="edge"><title>Node13&#45;&gt;Node14</title>
<path fill="none" stroke="midnightblue" d="M335.566,-516.936C324.085,-522.459 311.174,-528.669 301.207,-533.464"/>
<polygon fill="midnightblue" stroke="midnightblue" points="337.284,-519.994 344.778,-512.505 334.249,-513.686 337.284,-519.994"/>
</g>
<!-- Node14&#45;&gt;Node7 -->
<g id="edge19" class="edge"><title>Node14&#45;&gt;Node7</title>
<path fill="none" stroke="midnightblue" d="M255.568,-541.5C247.367,-541.5 238.36,-541.5 230.177,-541.5"/>
<polygon fill="midnightblue" stroke="midnightblue" points="255.746,-545 265.746,-541.5 255.746,-538 255.746,-545"/>
</g>
<!-- Node15&#45;&gt;Node13 -->
<g id="edge22" class="edge"><title>Node15&#45;&gt;Node13</title>
<path fill="none" stroke="midnightblue" d="M435.955,-565.052C433.223,-563.252 430.52,-561.381 428,-559.5 407.917,-544.512 386.607,-524.385 374.785,-512.79"/>
<polygon fill="midnightblue" stroke="midnightblue" points="434.26,-568.121 444.588,-570.486 437.989,-562.197 434.26,-568.121"/>
</g>
<!-- Node15&#45;&gt;Node14 -->
<g id="edge23" class="edge"><title>Node15&#45;&gt;Node14</title>
<path fill="none" stroke="midnightblue" d="M421.972,-572.716C397.538,-568.241 365.309,-562.017 337,-555.5 325.05,-552.749 311.698,-549.182 301.45,-546.337"/>
<polygon fill="midnightblue" stroke="midnightblue" points="421.468,-576.182 431.933,-574.523 422.718,-569.294 421.468,-576.182"/>
</g>
<!-- Node16&#45;&gt;Node13 -->
<g id="edge25" class="edge"><title>Node16&#45;&gt;Node13</title>
<path fill="none" stroke="midnightblue" d="M428.325,-528.63C415.139,-523.356 400.189,-517.376 388.181,-512.573"/>
<polygon fill="midnightblue" stroke="midnightblue" points="427.402,-532.03 437.986,-532.495 430.001,-525.531 427.402,-532.03"/>
</g>
<!-- Node16&#45;&gt;Node14 -->
<g id="edge26" class="edge"><title>Node16&#45;&gt;Node14</title>
<path fill="none" stroke="midnightblue" d="M422.097,-541.5C384.36,-541.5 328.557,-541.5 301.055,-541.5"/>
<polygon fill="midnightblue" stroke="midnightblue" points="422.223,-545 432.223,-541.5 422.223,-538 422.223,-545"/>
</g>
<!-- Node17&#45;&gt;Node5 -->
<g id="edge30" class="edge"><title>Node17&#45;&gt;Node5</title>
<path fill="none" stroke="midnightblue" d="M1029.53,-23.128C994.914,-39.9898 931.306,-66.5 873.5,-66.5 873.5,-66.5 873.5,-66.5 201.5,-66.5 91.5503,-66.5 108.753,-174.187 74,-278.5 39.9328,-380.755 23.0867,-736.573 20.3886,-798.329"/>
<polygon fill="midnightblue" stroke="midnightblue" points="1031.1,-26.2527 1038.49,-18.658 1027.98,-19.9883 1031.1,-26.2527"/>
</g>
<!-- Node18&#45;&gt;Node4 -->
<g id="edge33" class="edge"><title>Node18&#45;&gt;Node4</title>
<path fill="none" stroke="midnightblue" d="M1155.79,-655.359C1149.02,-582.678 1122.46,-324.384 1081,-254.5 1047.46,-197.968 1031.73,-161.5 966,-161.5 966,-161.5 966,-161.5 282.5,-161.5 229.807,-161.5 212.518,-174.5 175,-211.5 135.231,-250.72 115.643,-318.049 109.601,-342.387"/>
<polygon fill="midnightblue" stroke="midnightblue" points="1152.31,-655.733 1156.7,-665.372 1159.28,-655.095 1152.31,-655.733"/>
</g>
<!-- Node18&#45;&gt;Node5 -->
<g id="edge53" class="edge"><title>Node18&#45;&gt;Node5</title>
<path fill="none" stroke="midnightblue" d="M1154.91,-693.903C1148.81,-732.377 1130.17,-819.047 1081,-870.5 1042.37,-910.921 1021.91,-921.5 966,-921.5 966,-921.5 966,-921.5 201.5,-921.5 142.496,-921.5 121.994,-918.823 74,-884.5 48.766,-866.454 31.2433,-832.78 23.8853,-816.617"/>
<polygon fill="midnightblue" stroke="midnightblue" points="1158.43,-694.005 1156.42,-683.603 1151.5,-692.99 1158.43,-694.005"/>
</g>
<!-- Node18&#45;&gt;Node6 -->
<g id="edge50" class="edge"><title>Node18&#45;&gt;Node6</title>
<path fill="none" stroke="midnightblue" d="M1123.74,-686.949C1110.55,-691.437 1095.21,-696.202 1081,-699.5 1017.15,-714.32 998.867,-720.945 934,-711.5 921.421,-709.668 907.819,-705.801 896.705,-702.119"/>
<polygon fill="midnightblue" stroke="midnightblue" points="1125.06,-690.196 1133.35,-683.601 1122.75,-683.586 1125.06,-690.196"/>
</g>
<!-- Node18&#45;&gt;Node7 -->
<g id="edge32" class="edge"><title>Node18&#45;&gt;Node7</title>
<path fill="none" stroke="midnightblue" d="M1154.18,-655.447C1138.24,-566.856 1066.09,-199.5 966,-199.5 966,-199.5 966,-199.5 871.5,-199.5 733.353,-199.5 701.147,-237.5 563,-237.5 563,-237.5 563,-237.5 363.5,-237.5 226.623,-237.5 206.573,-481.82 203.888,-532.402"/>
<polygon fill="midnightblue" stroke="midnightblue" points="1150.76,-656.2 1155.95,-665.435 1157.66,-654.978 1150.76,-656.2"/>
</g>
<!-- Node18&#45;&gt;Node8 -->
<g id="edge34" class="edge"><title>Node18&#45;&gt;Node8</title>
<path fill="none" stroke="midnightblue" d="M1134.9,-689.025C1119.93,-698.336 1099.68,-710.347 1081,-719.5 1002.37,-758.032 982.894,-771.034 898,-792.5 869.474,-799.713 836.509,-803.47 811.044,-805.42"/>
<polygon fill="midnightblue" stroke="midnightblue" points="1136.88,-691.914 1143.48,-683.626 1133.15,-685.99 1136.88,-691.914"/>
</g>
<!-- Node18&#45;&gt;Node9 -->
<g id="edge57" class="edge"><title>Node18&#45;&gt;Node9</title>
<path fill="none" stroke="midnightblue" d="M1153.63,-655.51C1141.51,-601.445 1098.77,-446.355 996,-380.5 932.242,-339.643 836.433,-365.134 792.514,-380.433"/>
<polygon fill="midnightblue" stroke="midnightblue" points="1150.25,-656.403 1155.77,-665.445 1157.09,-654.934 1150.25,-656.403"/>
</g>
<!-- Node19 -->
<g id="node19" class="node"><title>Node19</title>
<g id="a_node19"><a xlink:href="main_8c.html#a6911b3f075cdf1d54cb14f17f6e5ef6b" target="_top" xlink:title=" ">
<polygon fill="none" stroke="black" points="1033,-608.5 1033,-626.5 1080,-626.5 1080,-608.5 1033,-608.5"/>
<text text-anchor="middle" x="1056.5" y="-615.3" font-family="Calibri" font-size="9.00">lcd_ind</text>
</a>
</g>
</g>
<!-- Node18&#45;&gt;Node19 -->
<g id="edge35" class="edge"><title>Node18&#45;&gt;Node19</title>
<path fill="none" stroke="midnightblue" d="M1132.67,-660.345C1114.18,-649.805 1089.48,-635.726 1073.53,-626.635"/>
<polygon fill="midnightblue" stroke="midnightblue" points="1131.01,-663.431 1141.43,-665.342 1134.48,-657.349 1131.01,-663.431"/>
</g>
<!-- Node20 -->
<g id="node20" class="node"><title>Node20</title>
<g id="a_node20"><a xlink:href="main_8c.html#a46f52cccc77b5d2d91f35334046bc8eb" target="_top" xlink:title=" ">
<polygon fill="none" stroke="black" points="939,-836.5 939,-854.5 991,-854.5 991,-836.5 939,-836.5"/>
<text text-anchor="middle" x="965" y="-843.3" font-family="Calibri" font-size="9.00">lcd_prep</text>
</a>
</g>
</g>
<!-- Node18&#45;&gt;Node20 -->
<g id="edge49" class="edge"><title>Node18&#45;&gt;Node20</title>
<path fill="none" stroke="midnightblue" d="M1153.16,-693.722C1144.93,-725.579 1123.87,-789.019 1081,-821.5 1054.99,-841.206 1016.57,-845.654 991.413,-846.22"/>
<polygon fill="midnightblue" stroke="midnightblue" points="1156.6,-694.417 1155.56,-683.874 1149.79,-692.764 1156.6,-694.417"/>
</g>
<!-- Node21 -->
<g id="node21" class="node"><title>Node21</title>
<g id="a_node21"><a xlink:href="main_8c.html#a7a367b10f22edd310a36627b6c941255" target="_top" xlink:title=" ">
<polygon fill="none" stroke="black" points="847,-874.5 847,-892.5 898,-892.5 898,-874.5 847,-874.5"/>
<text text-anchor="middle" x="872.5" y="-881.3" font-family="Calibri" font-size="9.00">test_init</text>
</a>
</g>
</g>
<!-- Node18&#45;&gt;Node21 -->
<g id="edge58" class="edge"><title>Node18&#45;&gt;Node21</title>
<path fill="none" stroke="midnightblue" d="M1154.56,-693.54C1148.04,-728.952 1128.99,-804.928 1081,-844.5 1027.69,-888.456 940.385,-888.825 898.052,-885.963"/>
<polygon fill="midnightblue" stroke="midnightblue" points="1158.03,-694.011 1156.25,-683.566 1151.13,-692.838 1158.03,-694.011"/>
</g>
<!-- Node22 -->
<g id="node22" class="node"><title>Node22</title>
<g id="a_node22"><a xlink:href="main_8c.html#a4ae0d4fa97fc0ca3611813fee4f9af7c" target="_top" xlink:title=" ">
<polygon fill="none" stroke="black" points="936,-647.5 936,-665.5 994,-665.5 994,-647.5 936,-647.5"/>
<text text-anchor="middle" x="965" y="-654.3" font-family="Calibri" font-size="9.00">show_pwr</text>
</a>
</g>
</g>
<!-- Node18&#45;&gt;Node22 -->
<g id="edge56" class="edge"><title>Node18&#45;&gt;Node22</title>
<path fill="none" stroke="midnightblue" d="M1118.46,-670.83C1081.56,-667.362 1027.1,-662.243 994.24,-659.154"/>
<polygon fill="midnightblue" stroke="midnightblue" points="1118.55,-674.354 1128.83,-671.805 1119.2,-667.385 1118.55,-674.354"/>
</g>
<!-- Node23 -->
<g id="node23" class="node"><title>Node23</title>
<g id="a_node23"><a xlink:href="main_8c.html#aa8fd50019a763561abc6621bb224417f" target="_top" xlink:title=" ">
<polygon fill="none" stroke="black" points="941.5,-684.5 941.5,-702.5 988.5,-702.5 988.5,-684.5 941.5,-684.5"/>
<text text-anchor="middle" x="965" y="-691.3" font-family="Calibri" font-size="9.00">lcd_swr</text>
</a>
</g>
</g>
<!-- Node18&#45;&gt;Node23 -->
<g id="edge51" class="edge"><title>Node18&#45;&gt;Node23</title>
<path fill="none" stroke="midnightblue" d="M1118.86,-678.334C1079.75,-682.214 1020.62,-688.081 988.568,-691.261"/>
<polygon fill="midnightblue" stroke="midnightblue" points="1119.22,-681.815 1128.83,-677.344 1118.53,-674.849 1119.22,-681.815"/>
</g>
<!-- Node24 -->
<g id="node24" class="node"><title>Node24</title>
<g id="a_node24"><a xlink:href="main_8c.html#aad7203cfd92bc4b814e43c04a209f634" target="_top" xlink:title=" ">
<polygon fill="none" stroke="black" points="629,-950.5 629,-968.5 689,-968.5 689,-950.5 629,-950.5"/>
<text text-anchor="middle" x="659" y="-957.3" font-family="Calibri" font-size="9.00">show_loss</text>
</a>
</g>
</g>
<!-- Node18&#45;&gt;Node24 -->
<g id="edge54" class="edge"><title>Node18&#45;&gt;Node24</title>
<path fill="none" stroke="midnightblue" d="M1158.07,-693.586C1158.39,-741.89 1152.13,-869.803 1081,-935.5 1042.64,-970.926 1018.21,-959.5 966,-959.5 966,-959.5 966,-959.5 871.5,-959.5 806.324,-959.5 729.851,-959.5 689.08,-959.5"/>
<polygon fill="midnightblue" stroke="midnightblue" points="1161.57,-693.514 1157.89,-683.577 1154.57,-693.636 1161.57,-693.514"/>
</g>
<!-- Node19&#45;&gt;Node4 -->
<g id="edge37" class="edge"><title>Node19&#45;&gt;Node4</title>
<path fill="none" stroke="midnightblue" d="M1053.39,-598.264C1047.38,-547.203 1028.5,-410.125 996,-380.5 852.086,-249.312 757.735,-313.5 563,-313.5 563,-313.5 563,-313.5 282.5,-313.5 228.093,-313.5 166.293,-331.257 132.632,-342.495"/>
<polygon fill="midnightblue" stroke="midnightblue" points="1049.92,-598.75 1054.53,-608.289 1056.88,-597.957 1049.92,-598.75"/>
</g>
<!-- Node19&#45;&gt;Node5 -->
<g id="edge43" class="edge"><title>Node19&#45;&gt;Node5</title>
<path fill="none" stroke="midnightblue" d="M1053.95,-598.162C1048.97,-540.555 1031.58,-371.611 996,-331.5 927.048,-253.759 872.914,-275.5 769,-275.5 769,-275.5 769,-275.5 201.5,-275.5 139.428,-275.5 110.659,-282.41 74,-332.5 17.0175,-410.359 18.9974,-738.59 19.8411,-798.195"/>
<polygon fill="midnightblue" stroke="midnightblue" points="1050.49,-598.73 1054.81,-608.404 1057.46,-598.148 1050.49,-598.73"/>
</g>
<!-- Node19&#45;&gt;Node7 -->
<g id="edge36" class="edge"><title>Node19&#45;&gt;Node7</title>
<path fill="none" stroke="midnightblue" d="M1022.84,-621.066C933.357,-630.519 676.627,-655.5 462.5,-655.5 462.5,-655.5 462.5,-655.5 363.5,-655.5 291.533,-655.5 229.505,-578.056 209.922,-550.829"/>
<polygon fill="midnightblue" stroke="midnightblue" points="1023.34,-624.533 1032.91,-619.993 1022.6,-617.573 1023.34,-624.533"/>
</g>
<!-- Node19&#45;&gt;Node8 -->
<g id="edge38" class="edge"><title>Node19&#45;&gt;Node8</title>
<path fill="none" stroke="midnightblue" d="M1047.96,-635.869C1038.57,-656.723 1020.7,-690.556 996,-711.5 940.192,-758.821 857.657,-785.757 809.001,-798.428"/>
<polygon fill="midnightblue" stroke="midnightblue" points="1051.24,-637.104 1051.98,-626.536 1044.81,-634.332 1051.24,-637.104"/>
</g>
<!-- Node19&#45;&gt;Node9 -->
<g id="edge47" class="edge"><title>Node19&#45;&gt;Node9</title>
<path fill="none" stroke="midnightblue" d="M1056.35,-598.263C1057.01,-557.103 1052.15,-460.427 996,-413.5 940.354,-366.993 848.267,-374.712 800.273,-382.897"/>
<polygon fill="midnightblue" stroke="midnightblue" points="1052.85,-598.215 1056.05,-608.313 1059.85,-598.42 1052.85,-598.215"/>
</g>
<!-- Node19&#45;&gt;Node14 -->
<g id="edge48" class="edge"><title>Node19&#45;&gt;Node14</title>
<path fill="none" stroke="midnightblue" d="M1029.8,-603.363C961.357,-566.622 767.938,-468.682 593,-435.5 479.186,-413.912 431.883,-418.04 337,-484.5 317.606,-498.084 300.064,-519.932 290.995,-532.26"/>
<polygon fill="midnightblue" stroke="midnightblue" points="1028.51,-606.646 1038.97,-608.325 1031.84,-600.489 1028.51,-606.646"/>
</g>
<!-- Node19&#45;&gt;Node20 -->
<g id="edge39" class="edge"><title>Node19&#45;&gt;Node20</title>
<path fill="none" stroke="midnightblue" d="M1049.41,-636.546C1039.29,-667.67 1017.95,-731.206 996,-783.5 987.947,-802.685 976.982,-824.433 970.783,-836.397"/>
<polygon fill="midnightblue" stroke="midnightblue" points="1052.87,-637.218 1052.61,-626.627 1046.21,-635.069 1052.87,-637.218"/>
</g>
<!-- Node19&#45;&gt;Node22 -->
<g id="edge44" class="edge"><title>Node19&#45;&gt;Node22</title>
<path fill="none" stroke="midnightblue" d="M1025.49,-630.576C1012.85,-636.087 998.429,-642.369 986.956,-647.369"/>
<polygon fill="midnightblue" stroke="midnightblue" points="1026.97,-633.749 1034.74,-626.545 1024.18,-627.332 1026.97,-633.749"/>
</g>
<!-- Node20&#45;&gt;Node5 -->
<g id="edge40" class="edge"><title>Node20&#45;&gt;Node5</title>
<path fill="none" stroke="midnightblue" d="M928.439,-845.5C889.351,-845.5 824.701,-845.5 769,-845.5 769,-845.5 769,-845.5 201.5,-845.5 140.493,-845.5 70.3526,-824.678 38.0291,-813.86"/>
<polygon fill="midnightblue" stroke="midnightblue" points="928.758,-849 938.758,-845.5 928.758,-842 928.758,-849"/>
</g>
<!-- Node20&#45;&gt;Node21 -->
<g id="edge41" class="edge"><title>Node20&#45;&gt;Node21</title>
<path fill="none" stroke="midnightblue" d="M932.979,-858.525C920.509,-863.761 906.434,-869.671 895.107,-874.427"/>
<polygon fill="midnightblue" stroke="midnightblue" points="934.688,-861.604 942.553,-854.505 931.978,-855.15 934.688,-861.604"/>
</g>
<!-- Node21&#45;&gt;Node5 -->
<g id="edge42" class="edge"><title>Node21&#45;&gt;Node5</title>
<path fill="none" stroke="midnightblue" d="M836.52,-883.5C794.578,-883.5 722.152,-883.5 660,-883.5 660,-883.5 660,-883.5 201.5,-883.5 143.838,-883.5 125.244,-885.937 74,-859.5 53.8744,-849.117 36.1604,-828.826 26.8772,-816.892"/>
<polygon fill="midnightblue" stroke="midnightblue" points="836.754,-887 846.754,-883.5 836.754,-880 836.754,-887"/>
</g>
<!-- Node22&#45;&gt;Node6 -->
<g id="edge46" class="edge"><title>Node22&#45;&gt;Node6</title>
<path fill="none" stroke="midnightblue" d="M932.296,-669.462C920.183,-674.414 906.644,-679.95 895.613,-684.459"/>
<polygon fill="midnightblue" stroke="midnightblue" points="933.697,-672.67 941.629,-665.646 931.048,-666.191 933.697,-672.67"/>
</g>
<!-- Node22&#45;&gt;Node10 -->
<g id="edge45" class="edge"><title>Node22&#45;&gt;Node10</title>
<path fill="none" stroke="midnightblue" d="M934.924,-643.301C873.607,-615.466 732.389,-551.361 680.02,-527.588"/>
<polygon fill="midnightblue" stroke="midnightblue" points="933.501,-646.499 944.054,-647.445 936.395,-640.125 933.501,-646.499"/>
</g>
<!-- Node23&#45;&gt;Node6 -->
<g id="edge52" class="edge"><title>Node23&#45;&gt;Node6</title>
<path fill="none" stroke="midnightblue" d="M931.086,-693.5C919.665,-693.5 907.109,-693.5 896.644,-693.5"/>
<polygon fill="midnightblue" stroke="midnightblue" points="931.163,-697 941.163,-693.5 931.163,-690 931.163,-697"/>
</g>
<!-- Node24&#45;&gt;Node5 -->
<g id="edge55" class="edge"><title>Node24&#45;&gt;Node5</title>
<path fill="none" stroke="midnightblue" d="M618.85,-959.5C579.382,-959.5 516.713,-959.5 462.5,-959.5 462.5,-959.5 462.5,-959.5 201.5,-959.5 143.838,-959.5 118.879,-971.704 74,-935.5 35.3295,-904.304 23.9282,-840.431 20.9497,-816.671"/>
<polygon fill="midnightblue" stroke="midnightblue" points="618.853,-963 628.853,-959.5 618.853,-956 618.853,-963"/>
</g>
<!-- Node26&#45;&gt;Node17 -->
<g id="edge61" class="edge"><title>Node26&#45;&gt;Node17</title>
<path fill="none" stroke="midnightblue" d="M1121.21,-9.5C1107.93,-9.5 1093.25,-9.5 1081.33,-9.5"/>
<polygon fill="midnightblue" stroke="midnightblue" points="1121.49,-13.0001 1131.49,-9.5 1121.49,-6.0001 1121.49,-13.0001"/>
</g>
<!-- Node27&#45;&gt;Node18 -->
<g id="edge63" class="edge"><title>Node27&#45;&gt;Node18</title>
<path fill="none" stroke="midnightblue" d="M1267.24,-435.796C1244.3,-486.629 1180.36,-628.274 1163.58,-665.463"/>
<polygon fill="midnightblue" stroke="midnightblue" points="1270.45,-437.201 1271.37,-426.647 1264.07,-434.321 1270.45,-437.201"/>
</g>
<!-- Node28&#45;&gt;Node3 -->
<g id="edge65" class="edge"><title>Node28&#45;&gt;Node3</title>
<path fill="none" stroke="midnightblue" d="M1237.94,-63.9065C1204.65,-55.7766 1155.48,-49.1444 1117,-66.5 1039.38,-101.51 985.631,-198.327 970.406,-228.441"/>
<polygon fill="midnightblue" stroke="midnightblue" points="1237.18,-67.3238 1247.74,-66.4527 1238.94,-60.549 1237.18,-67.3238"/>
</g>
<!-- Node28&#45;&gt;Node25 -->
<g id="edge67" class="edge"><title>Node28&#45;&gt;Node25</title>
<path fill="none" stroke="midnightblue" d="M1225.67,-79.7961C1217.13,-80.5318 1208.36,-81.2881 1200.1,-81.9999"/>
<polygon fill="midnightblue" stroke="midnightblue" points="1226.24,-83.2595 1235.9,-78.9135 1225.64,-76.2854 1226.24,-83.2595"/>
</g>
<!-- Node28&#45;&gt;Node26 -->
<g id="edge66" class="edge"><title>Node28&#45;&gt;Node26</title>
<path fill="none" stroke="midnightblue" d="M1250.61,-61.3404C1227.87,-48.3994 1194.91,-29.6455 1175.49,-18.5991"/>
<polygon fill="midnightblue" stroke="midnightblue" points="1248.95,-64.4198 1259.37,-66.323 1252.41,-58.3356 1248.95,-64.4198"/>
</g>
</g>
</svg>
        <g id="navigator" transform="translate(0 0)" fill="#404254">
                <rect fill="#f2f5e9" fill-opacity="0.5" stroke="#606060" stroke-width=".5" x="0" y="0" width="60" height="60"/>
                <use id="zoomplus" xlink:href="#zoomPlus" x="17" y="9" onmousedown="handleZoom(evt,'in')"/>
                <use id="zoomminus" xlink:href="#zoomMin" x="42" y="9" onmousedown="handleZoom(evt,'out')"/>
                <use id="reset" xlink:href="#resetDef" x="30" y="36" onmousedown="handleReset()"/>
                <g id="arrowUp" xlink:href="#dirArrow" transform="translate(30 24)" onmousedown="handlePan(0,-1)">
                  <use xlink:href="#rim" fill="#404040">
                        <set attributeName="fill" to="#808080" begin="arrowUp.mouseover" end="arrowUp.mouseout"/>
                  </use>
                  <path fill="none" stroke="white" stroke-width="1.5" d="M0,-3.0v7 M-2.5,-0.5L0,-3.0L2.5,-0.5"/>
                </g>
                <g id="arrowRight" xlink:href="#dirArrow" transform="rotate(90) translate(36 -43)" onmousedown="handlePan(1,0)">
                  <use xlink:href="#rim" fill="#404040">
                        <set attributeName="fill" to="#808080" begin="arrowRight.mouseover" end="arrowRight.mouseout"/>
                  </use>
                  <path fill="none" stroke="white" stroke-width="1.5" d="M0,-3.0v7 M-2.5,-0.5L0,-3.0L2.5,-0.5"/>
                </g>
                <g id="arrowDown" xlink:href="#dirArrow" transform="rotate(180) translate(-30 -48)" onmousedown="handlePan(0,1)">
                  <use xlink:href="#rim" fill="#404040">
                        <set attributeName="fill" to="#808080" begin="arrowDown.mouseover" end="arrowDown.mouseout"/>
                  </use>
                  <path fill="none" stroke="white" stroke-width="1.5" d="M0,-3.0v7 M-2.5,-0.5L0,-3.0L2.5,-0.5"/>
                </g>
                <g id="arrowLeft" xlink:href="#dirArrow" transform="rotate(270) translate(-36 17)" onmousedown="handlePan(-1,0)">
                  <use xlink:href="#rim" fill="#404040">
                        <set attributeName="fill" to="#808080" begin="arrowLeft.mouseover" end="arrowLeft.mouseout"/>
                  </use>
                  <path fill="none" stroke="white" stroke-width="1.5" d="M0,-3.0v7 M-2.5,-0.5L0,-3.0L2.5,-0.5"/>
                </g>
        </g>
        <svg viewBox="0 0 15 15" width="100%" height="30px" preserveAspectRatio="xMaxYMin meet">
         <g id="arrow_out" transform="scale(0.3 0.3)">
          <a xlink:href="oled__control_8c_a16eb842aa672ca44820ae6d5f9933425_icgraph_org.svg" target="_base">
           <rect id="button" ry="5" rx="5" y="6" x="6" height="38" width="38"
                fill="#f2f5e9" fill-opacity="0.5" stroke="#606060" stroke-width="1.0"/>
           <path id="arrow"
             d="M 11.500037,31.436501 C 11.940474,20.09759 22.043105,11.32322 32.158766,21.979434 L 37.068811,17.246167 C 37.068811,17.246167 37.088388,32 37.088388,32 L 22.160133,31.978069 C 22.160133,31.978069 26.997745,27.140456 26.997745,27.140456 C 18.528582,18.264221 13.291696,25.230495 11.500037,31.436501 z"
             style="fill:#404040;"/>
          </a>
         </g>
        </svg>
</svg>
