<?xml version="1.0" encoding="UTF-8" standalone="no"?>
<!DOCTYPE svg PUBLIC "-//W3C//DTD SVG 1.1//EN"
 "http://www.w3.org/Graphics/SVG/1.1/DTD/svg11.dtd">
<!-- Generated by graphviz version 2.38.0 (20140413.2041)
 -->
<!-- Title: send_command Pages: 1 -->
<!--zoomable 521 -->
<svg id="main" version="1.1" xmlns="http://www.w3.org/2000/svg" xmlns:xlink="http://www.w3.org/1999/xlink" xml:space="preserve" onload="init(evt)">
<style type="text/css"><![CDATA[
.edge:hover path { stroke: red; }
.edge:hover polygon { stroke: red; fill: red; }
]]></style>
<script type="text/javascript"><![CDATA[
var edges = document.getElementsByTagName('g');
if (edges && edges.length) {
  for (var i=0;i<edges.length;i++) {
    if (edges[i].id.substr(0,4)=='edge') {
      edges[i].setAttribute('class','edge');
    }
  }
}
]]></script>
        <defs>
                <circle id="rim" cx="0" cy="0" r="7"/>
                <circle id="rim2" cx="0" cy="0" r="3.5"/>
                <g id="zoomPlus">
                        <use xlink:href="#rim" fill="#404040">
                                <set attributeName="fill" to="#808080" begin="zoomplus.mouseover" end="zoomplus.mouseout"/>
                        </use>
                        <path d="M-4,0h8M0,-4v8" fill="none" stroke="white" stroke-width="1.5" pointer-events="none"/>
                </g>
                <g id="zoomMin">
                        <use xlink:href="#rim" fill="#404040">
                                <set attributeName="fill" to="#808080" begin="zoomminus.mouseover" end="zoomminus.mouseout"/>
                        </use>
                        <path d="M-4,0h8" fill="none" stroke="white" stroke-width="1.5" pointer-events="none"/>
                </g>
                <g id="dirArrow">
                        <path fill="none" stroke="white" stroke-width="1.5" d="M0,-3.0v7 M-2.5,-0.5L0,-3.0L2.5,-0.5"/>
                </g>
               <g id="resetDef">
                       <use xlink:href="#rim2" fill="#404040">
                               <set attributeName="fill" to="#808080" begin="reset.mouseover" end="reset.mouseout"/>
                       </use>
               </g>
        </defs>

<script type="text/javascript">
var viewWidth = 1149;
var viewHeight = 521;
var sectionId = 'dynsection-16';
</script>
<script xlink:href="svgpan.js"/>
<svg id="graph" class="graph">
<g id="viewport">
<title>send_command</title>
<!-- Node1 -->
<g id="node1" class="node"><title>Node1</title>
<g id="a_node1"><a xlink:title=" ">
<polygon fill="#bfbfbf" stroke="black" points="1060,-38.5 1060,-56.5 1141,-56.5 1141,-38.5 1060,-38.5"/>
<text text-anchor="middle" x="1100.5" y="-45.3" font-family="Calibri" font-size="9.00">send_command</text>
</a>
</g>
</g>
<!-- Node2 -->
<g id="node2" class="node"><title>Node2</title>
<g id="a_node2"><a xlink:href="oled__control_8c.html#a5febfdc847aa6f3bc3f3c8f7818b8699" target="_top" xlink:title=" ">
<polygon fill="none" stroke="black" points="951.5,-76.5 951.5,-94.5 1013.5,-94.5 1013.5,-76.5 951.5,-76.5"/>
<text text-anchor="middle" x="982.5" y="-83.3" font-family="Calibri" font-size="9.00">display_on</text>
</a>
</g>
</g>
<!-- Node1&#45;&gt;Node2 -->
<g id="edge1" class="edge"><title>Node1&#45;&gt;Node2</title>
<path fill="none" stroke="midnightblue" d="M1062.1,-59.7528C1045.55,-65.1734 1026.43,-71.436 1011.2,-76.4275"/>
<polygon fill="midnightblue" stroke="midnightblue" points="1063.6,-62.9447 1072.01,-56.5055 1061.42,-56.2925 1063.6,-62.9447"/>
</g>
<!-- Node16 -->
<g id="node16" class="node"><title>Node16</title>
<g id="a_node16"><a xlink:href="oled__control_8c.html#ad95f850c4c6d949229270c8da88c02cb" target="_top" xlink:title=" ">
<polygon fill="none" stroke="black" points="851,-38.5 851,-56.5 905,-56.5 905,-38.5 851,-38.5"/>
<text text-anchor="middle" x="878" y="-45.3" font-family="Calibri" font-size="9.00">oled_init</text>
</a>
</g>
</g>
<!-- Node1&#45;&gt;Node16 -->
<g id="edge28" class="edge"><title>Node1&#45;&gt;Node16</title>
<path fill="none" stroke="midnightblue" d="M1049.72,-47.5C1004.9,-47.5 940.761,-47.5 905.227,-47.5"/>
<polygon fill="midnightblue" stroke="midnightblue" points="1049.82,-51.0001 1059.82,-47.5 1049.82,-44.0001 1049.82,-51.0001"/>
</g>
<!-- Node18 -->
<g id="node18" class="node"><title>Node18</title>
<g id="a_node18"><a xlink:href="oled__control_8c.html#ac620c45e67383b8f8addda11fa5655af" target="_top" xlink:title=" ">
<polygon fill="none" stroke="black" points="941,-0.5 941,-18.5 1024,-18.5 1024,-0.5 941,-0.5"/>
<text text-anchor="middle" x="982.5" y="-7.3" font-family="Calibri" font-size="9.00">vodisplay_offoff</text>
</a>
</g>
</g>
<!-- Node1&#45;&gt;Node18 -->
<g id="edge31" class="edge"><title>Node1&#45;&gt;Node18</title>
<path fill="none" stroke="midnightblue" d="M1062.1,-35.2472C1045.55,-29.8266 1026.43,-23.564 1011.2,-18.5725"/>
<polygon fill="midnightblue" stroke="midnightblue" points="1061.42,-38.7075 1072.01,-38.4945 1063.6,-32.0553 1061.42,-38.7075"/>
</g>
<!-- Node3 -->
<g id="node3" class="node"><title>Node3</title>
<g id="a_node3"><a xlink:href="main_8c.html#a1c9e5d54d8cf7f3d041aa2e0b330b3dd" target="_top" xlink:title="Handle the process of the buttons being pressed.">
<polygon fill="none" stroke="black" points="74,-190.5 74,-208.5 139,-208.5 139,-190.5 74,-190.5"/>
<text text-anchor="middle" x="106.5" y="-197.3" font-family="Calibri" font-size="9.00">button_proc</text>
</a>
</g>
</g>
<!-- Node2&#45;&gt;Node3 -->
<g id="edge2" class="edge"><title>Node2&#45;&gt;Node3</title>
<path fill="none" stroke="midnightblue" d="M941.26,-85.5C901.35,-85.5 838.453,-85.5 784,-85.5 784,-85.5 784,-85.5 282.5,-85.5 230.875,-85.5 217.723,-100.519 175,-129.5 149.293,-146.938 125.669,-175.471 114.414,-190.141"/>
<polygon fill="midnightblue" stroke="midnightblue" points="941.386,-89.0001 951.386,-85.5 941.386,-82.0001 941.386,-89.0001"/>
</g>
<!-- Node5 -->
<g id="node5" class="node"><title>Node5</title>
<g id="a_node5"><a xlink:href="main_8c.html#ae5a14b4884e85f47ad8a4a716f13203a" target="_top" xlink:title=" ">
<polygon fill="none" stroke="black" points="854,-218.5 854,-236.5 902,-236.5 902,-218.5 854,-218.5"/>
<text text-anchor="middle" x="878" y="-225.3" font-family="Calibri" font-size="9.00">lcd_pwr</text>
</a>
</g>
</g>
<!-- Node2&#45;&gt;Node5 -->
<g id="edge4" class="edge"><title>Node2&#45;&gt;Node5</title>
<path fill="none" stroke="midnightblue" d="M968.712,-103.216C946.693,-133.721 902.37,-195.124 885.617,-218.333"/>
<polygon fill="midnightblue" stroke="midnightblue" points="971.76,-104.974 974.775,-94.817 966.084,-100.877 971.76,-104.974"/>
</g>
<!-- Node4 -->
<g id="node4" class="node"><title>Node4</title>
<g id="a_node4"><a xlink:href="main_8c.html#acdef7a1fd863a6d3770c1268cb06add3" target="_top" xlink:title=" ">
<polygon fill="none" stroke="black" points="0,-323.5 0,-341.5 38,-341.5 38,-323.5 0,-323.5"/>
<text text-anchor="middle" x="19" y="-330.3" font-family="Calibri" font-size="9.00">main</text>
</a>
</g>
</g>
<!-- Node3&#45;&gt;Node4 -->
<g id="edge3" class="edge"><title>Node3&#45;&gt;Node4</title>
<path fill="none" stroke="midnightblue" d="M94.091,-217.247C75.6632,-245.913 39.9932,-301.399 25.9179,-323.294"/>
<polygon fill="midnightblue" stroke="midnightblue" points="97.1597,-218.946 99.6232,-208.642 91.2715,-215.161 97.1597,-218.946"/>
</g>
<!-- Node5&#45;&gt;Node3 -->
<g id="edge7" class="edge"><title>Node5&#45;&gt;Node3</title>
<path fill="none" stroke="midnightblue" d="M862.296,-210.542C850.589,-197.96 833.197,-181.199 815,-170.5 757.693,-136.806 739.478,-123.5 673,-123.5 673,-123.5 673,-123.5 282.5,-123.5 215.922,-123.5 146.01,-170.352 119.043,-190.483"/>
<polygon fill="midnightblue" stroke="midnightblue" points="859.82,-213.023 869.119,-218.101 865.017,-208.333 859.82,-213.023"/>
</g>
<!-- Node5&#45;&gt;Node4 -->
<g id="edge10" class="edge"><title>Node5&#45;&gt;Node4</title>
<path fill="none" stroke="midnightblue" d="M871.184,-246.275C852.485,-302.474 788.304,-465.5 673,-465.5 673,-465.5 673,-465.5 201.5,-465.5 117.51,-465.5 46.5783,-371.69 26.0122,-341.642"/>
<polygon fill="midnightblue" stroke="midnightblue" points="874.585,-247.131 874.319,-236.539 867.922,-244.985 874.585,-247.131"/>
</g>
<!-- Node6 -->
<g id="node6" class="node"><title>Node6</title>
<g id="a_node6"><a xlink:href="main_8c.html#af18ed7edda7874a97cacaa11a2759260" target="_top" xlink:title=" ">
<polygon fill="none" stroke="black" points="175,-190.5 175,-208.5 230,-208.5 230,-190.5 175,-190.5"/>
<text text-anchor="middle" x="202.5" y="-197.3" font-family="Calibri" font-size="9.00">btn_push</text>
</a>
</g>
</g>
<!-- Node5&#45;&gt;Node6 -->
<g id="edge5" class="edge"><title>Node5&#45;&gt;Node6</title>
<path fill="none" stroke="midnightblue" d="M851.692,-213.626C813.949,-194.268 740.145,-161.5 673,-161.5 673,-161.5 673,-161.5 363.5,-161.5 313.537,-161.5 257.115,-179.257 226.412,-190.495"/>
<polygon fill="midnightblue" stroke="midnightblue" points="850.434,-216.918 860.916,-218.461 853.685,-210.718 850.434,-216.918"/>
</g>
<!-- Node7 -->
<g id="node7" class="node"><title>Node7</title>
<g id="a_node7"><a xlink:href="main_8c.html#ac445892220ccb3b4b337dd3e764bd6c6" target="_top" xlink:title="Handle the process of the buttons being pressed (in test mode)">
<polygon fill="none" stroke="black" points="629,-494.5 629,-512.5 715,-512.5 715,-494.5 629,-494.5"/>
<text text-anchor="middle" x="672" y="-501.3" font-family="Calibri" font-size="9.00">button_proc_test</text>
</a>
</g>
</g>
<!-- Node5&#45;&gt;Node7 -->
<g id="edge8" class="edge"><title>Node5&#45;&gt;Node7</title>
<path fill="none" stroke="midnightblue" d="M874.959,-246.862C868.933,-300.213 849.446,-447.507 815,-479.5 788.528,-504.087 746.698,-508.564 715.282,-507.8"/>
<polygon fill="midnightblue" stroke="midnightblue" points="878.461,-247.04 876.069,-236.718 871.502,-246.278 878.461,-247.04"/>
</g>
<!-- Node8 -->
<g id="node8" class="node"><title>Node8</title>
<g id="a_node8"><a xlink:href="main_8c.html#a11724d8cce81ed96bec12a004ea3ea7a" target="_top" xlink:title=" ">
<polygon fill="none" stroke="black" points="751,-285.5 751,-303.5 815,-303.5 815,-285.5 751,-285.5"/>
<text text-anchor="middle" x="783" y="-292.3" font-family="Calibri" font-size="9.00">show_reset</text>
</a>
</g>
</g>
<!-- Node5&#45;&gt;Node8 -->
<g id="edge11" class="edge"><title>Node5&#45;&gt;Node8</title>
<path fill="none" stroke="midnightblue" d="M856.189,-242.493C837.92,-255.655 811.94,-274.371 796.641,-285.393"/>
<polygon fill="midnightblue" stroke="midnightblue" points="858.39,-245.221 864.458,-236.536 854.298,-239.542 858.39,-245.221"/>
</g>
<!-- Node6&#45;&gt;Node3 -->
<g id="edge6" class="edge"><title>Node6&#45;&gt;Node3</title>
<path fill="none" stroke="midnightblue" d="M164.545,-199.5C156.183,-199.5 147.376,-199.5 139.25,-199.5"/>
<polygon fill="midnightblue" stroke="midnightblue" points="164.815,-203 174.815,-199.5 164.815,-196 164.815,-203"/>
</g>
<!-- Node7&#45;&gt;Node4 -->
<g id="edge9" class="edge"><title>Node7&#45;&gt;Node4</title>
<path fill="none" stroke="midnightblue" d="M618.635,-503.5C576.468,-503.5 515.671,-503.5 462.5,-503.5 462.5,-503.5 462.5,-503.5 201.5,-503.5 143.838,-503.5 118.013,-516.753 74,-479.5 30.6271,-442.789 22.082,-368.042 20.4063,-341.833"/>
<polygon fill="midnightblue" stroke="midnightblue" points="618.671,-507 628.671,-503.5 618.671,-500 618.671,-507"/>
</g>
<!-- Node8&#45;&gt;Node3 -->
<g id="edge12" class="edge"><title>Node8&#45;&gt;Node3</title>
<path fill="none" stroke="midnightblue" d="M767.45,-311.321C734.789,-347.098 651.54,-427.5 563,-427.5 563,-427.5 563,-427.5 282.5,-427.5 170.227,-427.5 120.126,-251.375 109.638,-208.72"/>
<polygon fill="midnightblue" stroke="midnightblue" points="770.258,-313.432 774.307,-303.642 765.036,-308.77 770.258,-313.432"/>
</g>
<!-- Node9 -->
<g id="node9" class="node"><title>Node9</title>
<g id="a_node9"><a xlink:href="main_8h.html#ad7eb7423e0b17ccfba1ae42f3a3274e0" target="_top" xlink:title=" ">
<polygon fill="none" stroke="black" points="648,-285.5 648,-303.5 696,-303.5 696,-285.5 648,-285.5"/>
<text text-anchor="middle" x="672" y="-292.3" font-family="Calibri" font-size="9.00">get_swr</text>
</a>
</g>
</g>
<!-- Node8&#45;&gt;Node9 -->
<g id="edge13" class="edge"><title>Node8&#45;&gt;Node9</title>
<path fill="none" stroke="midnightblue" d="M740.65,-294.5C725.625,-294.5 709.181,-294.5 696.268,-294.5"/>
<polygon fill="midnightblue" stroke="midnightblue" points="740.765,-298 750.765,-294.5 740.765,-291 740.765,-298"/>
</g>
<!-- Node10 -->
<g id="node10" class="node"><title>Node10</title>
<g id="a_node10"><a xlink:href="main_8h.html#a740ef1b33bb02cd952ad7d8708999472" target="_top" xlink:title=" ">
<polygon fill="none" stroke="black" points="531,-266.5 531,-284.5 593,-284.5 593,-266.5 531,-266.5"/>
<text text-anchor="middle" x="562" y="-273.3" font-family="Calibri" font-size="9.00">coarse_cap</text>
</a>
</g>
</g>
<!-- Node9&#45;&gt;Node10 -->
<g id="edge14" class="edge"><title>Node9&#45;&gt;Node10</title>
<path fill="none" stroke="midnightblue" d="M637.912,-288.679C623.631,-286.167 607.043,-283.248 593.112,-280.797"/>
<polygon fill="midnightblue" stroke="midnightblue" points="637.376,-292.138 647.831,-290.424 638.589,-285.244 637.376,-292.138"/>
</g>
<!-- Node11 -->
<g id="node11" class="node"><title>Node11</title>
<g id="a_node11"><a xlink:href="main_8h.html#a5c7c60c7d70cf76cc52e87722bb0f614" target="_top" xlink:title=" ">
<polygon fill="none" stroke="black" points="428,-285.5 428,-303.5 495,-303.5 495,-285.5 428,-285.5"/>
<text text-anchor="middle" x="461.5" y="-292.3" font-family="Calibri" font-size="9.00">coarse_tune</text>
</a>
</g>
</g>
<!-- Node9&#45;&gt;Node11 -->
<g id="edge19" class="edge"><title>Node9&#45;&gt;Node11</title>
<path fill="none" stroke="midnightblue" d="M637.82,-294.5C598.733,-294.5 534.206,-294.5 495.29,-294.5"/>
<polygon fill="midnightblue" stroke="midnightblue" points="637.89,-298 647.89,-294.5 637.89,-291 637.89,-298"/>
</g>
<!-- Node12 -->
<g id="node12" class="node"><title>Node12</title>
<g id="a_node12"><a xlink:href="main_8h.html#a454a7687c8039514766571b23516ca9c" target="_top" xlink:title=" ">
<polygon fill="none" stroke="black" points="337,-285.5 337,-303.5 392,-303.5 392,-285.5 337,-285.5"/>
<text text-anchor="middle" x="364.5" y="-292.3" font-family="Calibri" font-size="9.00">sub_tune</text>
</a>
</g>
</g>
<!-- Node9&#45;&gt;Node12 -->
<g id="edge26" class="edge"><title>Node9&#45;&gt;Node12</title>
<path fill="none" stroke="midnightblue" d="M637.864,-301.42C590.951,-310.205 502.575,-323.025 428,-312.5 415.477,-310.733 401.949,-307.066 390.692,-303.501"/>
<polygon fill="midnightblue" stroke="midnightblue" points="638.617,-304.84 647.772,-299.508 637.29,-297.966 638.617,-304.84"/>
</g>
<!-- Node13 -->
<g id="node13" class="node"><title>Node13</title>
<g id="a_node13"><a xlink:href="main_8h.html#a1849f2e5bd63d11a7b9549470e287d17" target="_top" xlink:title=" ">
<polygon fill="none" stroke="black" points="266,-228.5 266,-246.5 301,-246.5 301,-228.5 266,-228.5"/>
<text text-anchor="middle" x="283.5" y="-235.3" font-family="Calibri" font-size="9.00">tune</text>
</a>
</g>
</g>
<!-- Node9&#45;&gt;Node13 -->
<g id="edge27" class="edge"><title>Node9&#45;&gt;Node13</title>
<path fill="none" stroke="midnightblue" d="M647.664,-280.124C632.637,-271.641 612.358,-261.596 593,-256.5 484.804,-228.016 348.211,-233.326 301.247,-236.278"/>
<polygon fill="midnightblue" stroke="midnightblue" points="646.317,-283.39 656.719,-285.405 649.844,-277.344 646.317,-283.39"/>
</g>
<!-- Node14 -->
<g id="node14" class="node"><title>Node14</title>
<g id="a_node14"><a xlink:href="main_8h.html#ab518a3d2c723f12d3af3024a195606ce" target="_top" xlink:title=" ">
<polygon fill="none" stroke="black" points="432,-190.5 432,-208.5 491,-208.5 491,-190.5 432,-190.5"/>
<text text-anchor="middle" x="461.5" y="-197.3" font-family="Calibri" font-size="9.00">sharp_cap</text>
</a>
</g>
</g>
<!-- Node9&#45;&gt;Node14 -->
<g id="edge20" class="edge"><title>Node9&#45;&gt;Node14</title>
<path fill="none" stroke="midnightblue" d="M657.42,-277.553C643.185,-261.022 619.266,-236.519 593,-223.5 560.492,-207.387 518.588,-202.016 491.154,-200.269"/>
<polygon fill="midnightblue" stroke="midnightblue" points="654.848,-279.934 663.942,-285.369 660.222,-275.449 654.848,-279.934"/>
</g>
<!-- Node15 -->
<g id="node15" class="node"><title>Node15</title>
<g id="a_node15"><a xlink:href="main_8h.html#a72210b3ed1d5691c5bbda8c7f1e97197" target="_top" xlink:title=" ">
<polygon fill="none" stroke="black" points="432.5,-380.5 432.5,-398.5 490.5,-398.5 490.5,-380.5 432.5,-380.5"/>
<text text-anchor="middle" x="461.5" y="-387.3" font-family="Calibri" font-size="9.00">sharp_ind</text>
</a>
</g>
</g>
<!-- Node9&#45;&gt;Node15 -->
<g id="edge23" class="edge"><title>Node9&#45;&gt;Node15</title>
<path fill="none" stroke="midnightblue" d="M657.42,-311.447C643.185,-327.978 619.266,-352.481 593,-365.5 560.286,-381.715 518.056,-387.051 490.634,-388.764"/>
<polygon fill="midnightblue" stroke="midnightblue" points="660.222,-313.551 663.942,-303.631 654.848,-309.066 660.222,-313.551"/>
</g>
<!-- Node10&#45;&gt;Node11 -->
<g id="edge15" class="edge"><title>Node10&#45;&gt;Node11</title>
<path fill="none" stroke="midnightblue" d="M521.051,-283.206C512.441,-284.867 503.437,-286.603 495.145,-288.203"/>
<polygon fill="midnightblue" stroke="midnightblue" points="521.755,-286.635 530.912,-281.304 520.43,-279.761 521.755,-286.635"/>
</g>
<!-- Node11&#45;&gt;Node12 -->
<g id="edge16" class="edge"><title>Node11&#45;&gt;Node12</title>
<path fill="none" stroke="midnightblue" d="M417.785,-294.5C409.104,-294.5 400.207,-294.5 392.271,-294.5"/>
<polygon fill="midnightblue" stroke="midnightblue" points="417.806,-298 427.806,-294.5 417.806,-291 417.806,-298"/>
</g>
<!-- Node12&#45;&gt;Node13 -->
<g id="edge17" class="edge"><title>Node12&#45;&gt;Node13</title>
<path fill="none" stroke="midnightblue" d="M342.466,-279.323C328.034,-268.911 309.359,-255.436 297.161,-246.635"/>
<polygon fill="midnightblue" stroke="midnightblue" points="340.65,-282.329 350.807,-285.342 344.746,-276.652 340.65,-282.329"/>
</g>
<!-- Node13&#45;&gt;Node6 -->
<g id="edge18" class="edge"><title>Node13&#45;&gt;Node6</title>
<path fill="none" stroke="midnightblue" d="M256.5,-224.994C245.385,-219.647 232.649,-213.521 222.448,-208.614"/>
<polygon fill="midnightblue" stroke="midnightblue" points="255.217,-228.26 265.746,-229.441 258.252,-221.952 255.217,-228.26"/>
</g>
<!-- Node14&#45;&gt;Node12 -->
<g id="edge21" class="edge"><title>Node14&#45;&gt;Node12</title>
<path fill="none" stroke="midnightblue" d="M444.179,-215.821C424.125,-235.875 390.791,-269.209 374.721,-285.279"/>
<polygon fill="midnightblue" stroke="midnightblue" points="446.795,-218.155 451.391,-208.609 441.845,-213.205 446.795,-218.155"/>
</g>
<!-- Node14&#45;&gt;Node13 -->
<g id="edge22" class="edge"><title>Node14&#45;&gt;Node13</title>
<path fill="none" stroke="midnightblue" d="M421.972,-206.284C397.538,-210.759 365.309,-216.983 337,-223.5 325.05,-226.251 311.698,-229.818 301.45,-232.663"/>
<polygon fill="midnightblue" stroke="midnightblue" points="422.718,-209.706 431.933,-204.477 421.468,-202.818 422.718,-209.706"/>
</g>
<!-- Node15&#45;&gt;Node12 -->
<g id="edge24" class="edge"><title>Node15&#45;&gt;Node12</title>
<path fill="none" stroke="midnightblue" d="M438.487,-374.24C434.877,-371.459 431.256,-368.488 428,-365.5 405.98,-345.291 383.68,-317.931 372.628,-303.802"/>
<polygon fill="midnightblue" stroke="midnightblue" points="436.587,-377.187 446.713,-380.304 440.741,-371.553 436.587,-377.187"/>
</g>
<!-- Node15&#45;&gt;Node13 -->
<g id="edge25" class="edge"><title>Node15&#45;&gt;Node13</title>
<path fill="none" stroke="midnightblue" d="M431.71,-375.809C405.135,-362.24 365.578,-339.596 337,-312.5 315.547,-292.16 297.554,-261.784 289.317,-246.694"/>
<polygon fill="midnightblue" stroke="midnightblue" points="430.36,-379.047 440.869,-380.389 433.491,-372.786 430.36,-379.047"/>
</g>
<!-- Node17 -->
<g id="node17" class="node"><title>Node17</title>
<g id="a_node17"><a xlink:href="oled__control_8c.html#a7eb4d382bdd4b42c57dbb7154d03ac66" target="_top" xlink:title=" ">
<polygon fill="none" stroke="black" points="758.5,-38.5 758.5,-56.5 807.5,-56.5 807.5,-38.5 758.5,-38.5"/>
<text text-anchor="middle" x="783" y="-45.3" font-family="Calibri" font-size="9.00">led_init</text>
</a>
</g>
</g>
<!-- Node16&#45;&gt;Node17 -->
<g id="edge29" class="edge"><title>Node16&#45;&gt;Node17</title>
<path fill="none" stroke="midnightblue" d="M840.357,-47.5C829.339,-47.5 817.546,-47.5 807.611,-47.5"/>
<polygon fill="midnightblue" stroke="midnightblue" points="840.599,-51.0001 850.599,-47.5 840.599,-44.0001 840.599,-51.0001"/>
</g>
<!-- Node17&#45;&gt;Node4 -->
<g id="edge30" class="edge"><title>Node17&#45;&gt;Node4</title>
<path fill="none" stroke="midnightblue" d="M748.153,-47.5C705.123,-47.5 628.544,-47.5 563,-47.5 563,-47.5 563,-47.5 201.5,-47.5 67.46,-47.5 28.1021,-274.558 21.193,-323.34"/>
<polygon fill="midnightblue" stroke="midnightblue" points="748.343,-51.0001 758.343,-47.5 748.343,-44.0001 748.343,-51.0001"/>
</g>
</g>
</svg>
        <g id="navigator" transform="translate(0 0)" fill="#404254">
                <rect fill="#f2f5e9" fill-opacity="0.5" stroke="#606060" stroke-width=".5" x="0" y="0" width="60" height="60"/>
                <use id="zoomplus" xlink:href="#zoomPlus" x="17" y="9" onmousedown="handleZoom(evt,'in')"/>
                <use id="zoomminus" xlink:href="#zoomMin" x="42" y="9" onmousedown="handleZoom(evt,'out')"/>
                <use id="reset" xlink:href="#resetDef" x="30" y="36" onmousedown="handleReset()"/>
                <g id="arrowUp" xlink:href="#dirArrow" transform="translate(30 24)" onmousedown="handlePan(0,-1)">
                  <use xlink:href="#rim" fill="#404040">
                        <set attributeName="fill" to="#808080" begin="arrowUp.mouseover" end="arrowUp.mouseout"/>
                  </use>
                  <path fill="none" stroke="white" stroke-width="1.5" d="M0,-3.0v7 M-2.5,-0.5L0,-3.0L2.5,-0.5"/>
                </g>
                <g id="arrowRight" xlink:href="#dirArrow" transform="rotate(90) translate(36 -43)" onmousedown="handlePan(1,0)">
                  <use xlink:href="#rim" fill="#404040">
                        <set attributeName="fill" to="#808080" begin="arrowRight.mouseover" end="arrowRight.mouseout"/>
                  </use>
                  <path fill="none" stroke="white" stroke-width="1.5" d="M0,-3.0v7 M-2.5,-0.5L0,-3.0L2.5,-0.5"/>
                </g>
                <g id="arrowDown" xlink:href="#dirArrow" transform="rotate(180) translate(-30 -48)" onmousedown="handlePan(0,1)">
                  <use xlink:href="#rim" fill="#404040">
                        <set attributeName="fill" to="#808080" begin="arrowDown.mouseover" end="arrowDown.mouseout"/>
                  </use>
                  <path fill="none" stroke="white" stroke-width="1.5" d="M0,-3.0v7 M-2.5,-0.5L0,-3.0L2.5,-0.5"/>
                </g>
                <g id="arrowLeft" xlink:href="#dirArrow" transform="rotate(270) translate(-36 17)" onmousedown="handlePan(-1,0)">
                  <use xlink:href="#rim" fill="#404040">
                        <set attributeName="fill" to="#808080" begin="arrowLeft.mouseover" end="arrowLeft.mouseout"/>
                  </use>
                  <path fill="none" stroke="white" stroke-width="1.5" d="M0,-3.0v7 M-2.5,-0.5L0,-3.0L2.5,-0.5"/>
                </g>
        </g>
        <svg viewBox="0 0 15 15" width="100%" height="30px" preserveAspectRatio="xMaxYMin meet">
         <g id="arrow_out" transform="scale(0.3 0.3)">
          <a xlink:href="oled__control_8h_a23927072783d0629f1240aa641e5ca5a_icgraph_org.svg" target="_base">
           <rect id="button" ry="5" rx="5" y="6" x="6" height="38" width="38"
                fill="#f2f5e9" fill-opacity="0.5" stroke="#606060" stroke-width="1.0"/>
           <path id="arrow"
             d="M 11.500037,31.436501 C 11.940474,20.09759 22.043105,11.32322 32.158766,21.979434 L 37.068811,17.246167 C 37.068811,17.246167 37.088388,32 37.088388,32 L 22.160133,31.978069 C 22.160133,31.978069 26.997745,27.140456 26.997745,27.140456 C 18.528582,18.264221 13.291696,25.230495 11.500037,31.436501 z"
             style="fill:#404040;"/>
          </a>
         </g>
        </svg>
</svg>
