<?xml version="1.0" encoding="UTF-8" standalone="no"?>
<!DOCTYPE svg PUBLIC "-//W3C//DTD SVG 1.1//EN"
 "http://www.w3.org/Graphics/SVG/1.1/DTD/svg11.dtd">
<!-- Generated by graphviz version 2.38.0 (20140413.2041)
 -->
<!-- Title: led_wr_str Pages: 1 -->
<svg width="396pt" height="170pt"
 viewBox="0.00 0.00 396.00 170.19" xmlns="http://www.w3.org/2000/svg" xmlns:xlink="http://www.w3.org/1999/xlink">
<g id="graph0" class="graph" transform="scale(1 1) rotate(0) translate(4 166.194)">
<title>led_wr_str</title>
<!-- Node1 -->
<g id="node1" class="node"><title>Node1</title>
<g id="a_node1"><a xlink:title=" ">
<polygon fill="#bfbfbf" stroke="black" points="0,-83.4684 0,-101.468 59,-101.468 59,-83.4684 0,-83.4684"/>
<text text-anchor="middle" x="29.5" y="-90.2684" font-family="Calibri" font-size="9.00">led_wr_str</text>
</a>
</g>
</g>
<!-- Node2 -->
<g id="node2" class="node"><title>Node2</title>
<g id="a_node2"><a xlink:href="oled__control_8c.html#a5a5d7ef6b1877aaf94c1f4b7fc0f2d2d" target="_top" xlink:title=" ">
<polygon fill="none" stroke="black" points="100,-112.468 100,-130.468 155,-130.468 155,-112.468 100,-112.468"/>
<text text-anchor="middle" x="127.5" y="-119.268" font-family="Calibri" font-size="9.00">led_send</text>
</a>
</g>
</g>
<!-- Node1&#45;&gt;Node2 -->
<g id="edge1" class="edge"><title>Node1&#45;&gt;Node2</title>
<path fill="none" stroke="midnightblue" d="M59.0432,-101.091C68.8442,-104.052 79.9478,-107.406 90.2762,-110.526"/>
<polygon fill="midnightblue" stroke="midnightblue" points="89.2883,-113.884 99.8732,-113.425 91.3126,-107.183 89.2883,-113.884"/>
</g>
<!-- Node6 -->
<g id="node6" class="node"><title>Node6</title>
<g id="a_node6"><a xlink:href="oled__control_8c.html#a7c3a2e5f1fed76dc27692132a2574d27" target="_top" xlink:title=" ">
<polygon fill="none" stroke="black" points="95,-55.4684 95,-73.4684 160,-73.4684 160,-55.4684 95,-55.4684"/>
<text text-anchor="middle" x="127.5" y="-62.2684" font-family="Calibri" font-size="9.00">oled_wr_str</text>
</a>
</g>
</g>
<!-- Node1&#45;&gt;Node6 -->
<g id="edge5" class="edge"><title>Node1&#45;&gt;Node6</title>
<path fill="none" stroke="midnightblue" d="M59.0432,-84.1433C67.4857,-81.6809 76.8948,-78.9366 85.9424,-76.2977"/>
<polygon fill="midnightblue" stroke="midnightblue" points="86.9352,-79.6541 95.5552,-73.494 84.9752,-72.9341 86.9352,-79.6541"/>
</g>
<!-- Node3 -->
<g id="node3" class="node"><title>Node3</title>
<g id="a_node3"><a xlink:href="oled__control_8c.html#ab7f6b5c6c1483f6286f2de5786c028d9" target="_top" xlink:title=" ">
<polygon fill="none" stroke="black" points="314,-17.4684 314,-35.4684 386,-35.4684 386,-17.4684 314,-17.4684"/>
<text text-anchor="middle" x="350" y="-24.2684" font-family="Calibri" font-size="9.00">Soft_I2C_Start</text>
</a>
</g>
</g>
<!-- Node2&#45;&gt;Node3 -->
<g id="edge2" class="edge"><title>Node2&#45;&gt;Node3</title>
<path fill="none" stroke="midnightblue" d="M155.057,-129.386C186.511,-137.09 239.263,-144.585 276,-121.468 307.295,-101.777 286.49,-73.2336 312,-46.4684 313.807,-44.5722 315.835,-42.8146 317.985,-41.1941"/>
<polygon fill="midnightblue" stroke="midnightblue" points="320.151,-43.9628 326.682,-35.6199 316.374,-38.0694 320.151,-43.9628"/>
</g>
<!-- Node4 -->
<g id="node4" class="node"><title>Node4</title>
<g id="a_node4"><a xlink:href="oled__control_8c.html#a16eb842aa672ca44820ae6d5f9933425" target="_top" xlink:title=" ">
<polygon fill="none" stroke="black" points="200.5,-93.4684 200.5,-111.468 271.5,-111.468 271.5,-93.4684 200.5,-93.4684"/>
<text text-anchor="middle" x="236" y="-100.268" font-family="Calibri" font-size="9.00">Soft_I2C_Stop</text>
</a>
</g>
</g>
<!-- Node2&#45;&gt;Node4 -->
<g id="edge3" class="edge"><title>Node2&#45;&gt;Node4</title>
<path fill="none" stroke="midnightblue" d="M155.1,-116.723C165.785,-114.817 178.4,-112.566 190.411,-110.423"/>
<polygon fill="midnightblue" stroke="midnightblue" points="191.072,-113.861 200.302,-108.659 189.842,-106.97 191.072,-113.861"/>
</g>
<!-- Node5 -->
<g id="node5" class="node"><title>Node5</title>
<g id="a_node5"><a xlink:href="oled__control_8c.html#a73610916645f17c19124e697b005f694" target="_top" xlink:title=" ">
<polygon fill="none" stroke="black" points="312,-55.4684 312,-73.4684 388,-73.4684 388,-55.4684 312,-55.4684"/>
<text text-anchor="middle" x="350" y="-62.2684" font-family="Calibri" font-size="9.00">Soft_I2C_Write</text>
</a>
</g>
</g>
<!-- Node2&#45;&gt;Node5 -->
<g id="edge4" class="edge"><title>Node2&#45;&gt;Node5</title>
<path fill="none" stroke="midnightblue" d="M143.019,-130.688C170.29,-146.742 230.517,-176.14 276,-154.468 307.045,-139.676 329.177,-104.514 340.459,-82.7782"/>
<polygon fill="midnightblue" stroke="midnightblue" points="343.704,-84.1117 344.994,-73.5957 337.427,-81.0115 343.704,-84.1117"/>
</g>
<!-- Node6&#45;&gt;Node3 -->
<g id="edge9" class="edge"><title>Node6&#45;&gt;Node3</title>
<path fill="none" stroke="midnightblue" d="M135.588,-55.3372C146.727,-41.8215 169.783,-17.0571 196,-7.46845 236.036,7.17429 285.474,-3.75588 317.12,-14.1072"/>
<polygon fill="midnightblue" stroke="midnightblue" points="316.141,-17.4715 326.735,-17.4146 318.418,-10.8521 316.141,-17.4715"/>
</g>
<!-- Node6&#45;&gt;Node4 -->
<g id="edge10" class="edge"><title>Node6&#45;&gt;Node4</title>
<path fill="none" stroke="midnightblue" d="M153.739,-73.4739C167.565,-78.407 184.912,-84.5966 200.024,-89.9888"/>
<polygon fill="midnightblue" stroke="midnightblue" points="198.978,-93.3317 209.573,-93.3959 201.331,-86.7389 198.978,-93.3317"/>
</g>
<!-- Node6&#45;&gt;Node5 -->
<g id="edge11" class="edge"><title>Node6&#45;&gt;Node5</title>
<path fill="none" stroke="midnightblue" d="M160.092,-64.4684C197.166,-64.4684 259.001,-64.4684 301.776,-64.4684"/>
<polygon fill="midnightblue" stroke="midnightblue" points="301.944,-67.9685 311.944,-64.4684 301.944,-60.9685 301.944,-67.9685"/>
</g>
<!-- Node7 -->
<g id="node7" class="node"><title>Node7</title>
<g id="a_node7"><a xlink:href="oled__control_8c.html#a6df77e8ec83c50ed6a5ddaf54aa3a9c2" target="_top" xlink:title=" ">
<polygon fill="none" stroke="black" points="196,-17.4684 196,-35.4684 276,-35.4684 276,-17.4684 196,-17.4684"/>
<text text-anchor="middle" x="236" y="-24.2684" font-family="Calibri" font-size="9.00">set_addressing</text>
</a>
</g>
</g>
<!-- Node6&#45;&gt;Node7 -->
<g id="edge6" class="edge"><title>Node6&#45;&gt;Node7</title>
<path fill="none" stroke="midnightblue" d="M153.739,-55.463C167.565,-50.5299 184.912,-44.3403 200.024,-38.9481"/>
<polygon fill="midnightblue" stroke="midnightblue" points="201.331,-42.198 209.573,-35.541 198.978,-35.6051 201.331,-42.198"/>
</g>
<!-- Node7&#45;&gt;Node3 -->
<g id="edge7" class="edge"><title>Node7&#45;&gt;Node3</title>
<path fill="none" stroke="midnightblue" d="M276.172,-26.4684C285.064,-26.4684 294.579,-26.4684 303.701,-26.4684"/>
<polygon fill="midnightblue" stroke="midnightblue" points="303.779,-29.9685 313.779,-26.4684 303.779,-22.9685 303.779,-29.9685"/>
</g>
<!-- Node7&#45;&gt;Node5 -->
<g id="edge8" class="edge"><title>Node7&#45;&gt;Node5</title>
<path fill="none" stroke="midnightblue" d="M263.542,-35.4739C278.22,-40.4539 296.673,-46.7146 312.671,-52.1427"/>
<polygon fill="midnightblue" stroke="midnightblue" points="311.666,-55.4973 322.26,-55.3959 313.915,-48.8685 311.666,-55.4973"/>
</g>
</g>
</svg>
