<?xml version="1.0" encoding="UTF-8" standalone="no"?>
<!DOCTYPE svg PUBLIC "-//W3C//DTD SVG 1.1//EN"
 "http://www.w3.org/Graphics/SVG/1.1/DTD/svg11.dtd">
<!-- Generated by graphviz version 2.38.0 (20140413.2041)
 -->
<!-- Title: Soft_I2C_Start Pages: 1 -->
<!--zoomable 489 -->
<svg id="main" version="1.1" xmlns="http://www.w3.org/2000/svg" xmlns:xlink="http://www.w3.org/1999/xlink" xml:space="preserve" onload="init(evt)">
<style type="text/css"><![CDATA[
.edge:hover path { stroke: red; }
.edge:hover polygon { stroke: red; fill: red; }
]]></style>
<script type="text/javascript"><![CDATA[
var edges = document.getElementsByTagName('g');
if (edges && edges.length) {
  for (var i=0;i<edges.length;i++) {
    if (edges[i].id.substr(0,4)=='edge') {
      edges[i].setAttribute('class','edge');
    }
  }
}
]]></script>
        <defs>
                <circle id="rim" cx="0" cy="0" r="7"/>
                <circle id="rim2" cx="0" cy="0" r="3.5"/>
                <g id="zoomPlus">
                        <use xlink:href="#rim" fill="#404040">
                                <set attributeName="fill" to="#808080" begin="zoomplus.mouseover" end="zoomplus.mouseout"/>
                        </use>
                        <path d="M-4,0h8M0,-4v8" fill="none" stroke="white" stroke-width="1.5" pointer-events="none"/>
                </g>
                <g id="zoomMin">
                        <use xlink:href="#rim" fill="#404040">
                                <set attributeName="fill" to="#808080" begin="zoomminus.mouseover" end="zoomminus.mouseout"/>
                        </use>
                        <path d="M-4,0h8" fill="none" stroke="white" stroke-width="1.5" pointer-events="none"/>
                </g>
                <g id="dirArrow">
                        <path fill="none" stroke="white" stroke-width="1.5" d="M0,-3.0v7 M-2.5,-0.5L0,-3.0L2.5,-0.5"/>
                </g>
               <g id="resetDef">
                       <use xlink:href="#rim2" fill="#404040">
                               <set attributeName="fill" to="#808080" begin="reset.mouseover" end="reset.mouseout"/>
                       </use>
               </g>
        </defs>

<script type="text/javascript">
var viewWidth = 1262;
var viewHeight = 489;
var sectionId = 'dynsection-17';
</script>
<script xlink:href="svgpan.js"/>
<svg id="graph" class="graph">
<g id="viewport">
<title>Soft_I2C_Start</title>
<!-- Node1 -->
<g id="node1" class="node"><title>Node1</title>
<g id="a_node1"><a xlink:title=" ">
<polygon fill="#bfbfbf" stroke="black" points="1182,-55.4651 1182,-73.4651 1254,-73.4651 1254,-55.4651 1182,-55.4651"/>
<text text-anchor="middle" x="1218" y="-62.2651" font-family="Calibri" font-size="9.00">Soft_I2C_Start</text>
</a>
</g>
</g>
<!-- Node2 -->
<g id="node2" class="node"><title>Node2</title>
<g id="a_node2"><a xlink:href="oled__control_8c.html#a5a5d7ef6b1877aaf94c1f4b7fc0f2d2d" target="_top" xlink:title=" ">
<polygon fill="none" stroke="black" points="1078,-130.465 1078,-148.465 1133,-148.465 1133,-130.465 1078,-130.465"/>
<text text-anchor="middle" x="1105.5" y="-137.265" font-family="Calibri" font-size="9.00">led_send</text>
</a>
</g>
</g>
<!-- Node1&#45;&gt;Node2 -->
<g id="edge1" class="edge"><title>Node1&#45;&gt;Node2</title>
<path fill="none" stroke="midnightblue" d="M1199.16,-80.3449C1185.27,-92.25 1165.19,-108.486 1146,-120.465 1140.19,-124.092 1133.58,-127.517 1127.46,-130.434"/>
<polygon fill="midnightblue" stroke="midnightblue" points="1201.7,-82.7742 1206.95,-73.5686 1197.1,-77.4942 1201.7,-82.7742"/>
</g>
<!-- Node20 -->
<g id="node20" class="node"><title>Node20</title>
<g id="a_node20"><a xlink:href="oled__control_8c.html#ad95f850c4c6d949229270c8da88c02cb" target="_top" xlink:title=" ">
<polygon fill="none" stroke="black" points="960.5,-54.4651 960.5,-72.4651 1014.5,-72.4651 1014.5,-54.4651 960.5,-54.4651"/>
<text text-anchor="middle" x="987.5" y="-61.2651" font-family="Calibri" font-size="9.00">oled_init</text>
</a>
</g>
</g>
<!-- Node1&#45;&gt;Node20 -->
<g id="edge33" class="edge"><title>Node1&#45;&gt;Node20</title>
<path fill="none" stroke="midnightblue" d="M1171.58,-64.2664C1124.54,-64.0605 1052.7,-63.7461 1014.5,-63.5789"/>
<polygon fill="midnightblue" stroke="midnightblue" points="1171.78,-67.7672 1181.8,-64.3111 1171.81,-60.7673 1171.78,-67.7672"/>
</g>
<!-- Node21 -->
<g id="node21" class="node"><title>Node21</title>
<g id="a_node21"><a xlink:href="oled__control_8c.html#a7c3a2e5f1fed76dc27692132a2574d27" target="_top" xlink:title=" ">
<polygon fill="none" stroke="black" points="955,-17.4651 955,-35.4651 1020,-35.4651 1020,-17.4651 955,-17.4651"/>
<text text-anchor="middle" x="987.5" y="-24.2651" font-family="Calibri" font-size="9.00">oled_wr_str</text>
</a>
</g>
</g>
<!-- Node1&#45;&gt;Node21 -->
<g id="edge35" class="edge"><title>Node1&#45;&gt;Node21</title>
<path fill="none" stroke="midnightblue" d="M1202.63,-47.8725C1189.48,-34.072 1168.69,-15.445 1146,-7.46515 1100.14,8.66497 1042.65,-6.4784 1011.37,-17.4394"/>
<polygon fill="midnightblue" stroke="midnightblue" points="1200.11,-50.3026 1209.44,-55.3233 1205.27,-45.5803 1200.11,-50.3026"/>
</g>
<!-- Node22 -->
<g id="node22" class="node"><title>Node22</title>
<g id="a_node22"><a xlink:href="oled__control_8c.html#ad141ed038278a6fcad6c307932f01ec8" target="_top" xlink:title=" ">
<polygon fill="none" stroke="black" points="1065,-93.4651 1065,-111.465 1146,-111.465 1146,-93.4651 1065,-93.4651"/>
<text text-anchor="middle" x="1105.5" y="-100.265" font-family="Calibri" font-size="9.00">send_command</text>
</a>
</g>
</g>
<!-- Node1&#45;&gt;Node22 -->
<g id="edge37" class="edge"><title>Node1&#45;&gt;Node22</title>
<path fill="none" stroke="midnightblue" d="M1180.92,-76.8716C1165.26,-82.2566 1147.26,-88.4483 1132.88,-93.3926"/>
<polygon fill="midnightblue" stroke="midnightblue" points="1182.49,-80.0324 1190.81,-73.4706 1180.22,-73.4129 1182.49,-80.0324"/>
</g>
<!-- Node23 -->
<g id="node23" class="node"><title>Node23</title>
<g id="a_node23"><a xlink:href="oled__control_8c.html#a6df77e8ec83c50ed6a5ddaf54aa3a9c2" target="_top" xlink:title=" ">
<polygon fill="none" stroke="black" points="1065.5,-17.4651 1065.5,-35.4651 1145.5,-35.4651 1145.5,-17.4651 1065.5,-17.4651"/>
<text text-anchor="middle" x="1105.5" y="-24.2651" font-family="Calibri" font-size="9.00">set_addressing</text>
</a>
</g>
</g>
<!-- Node1&#45;&gt;Node23 -->
<g id="edge41" class="edge"><title>Node1&#45;&gt;Node23</title>
<path fill="none" stroke="midnightblue" d="M1180.92,-52.0587C1165.26,-46.6737 1147.26,-40.482 1132.88,-35.5377"/>
<polygon fill="midnightblue" stroke="midnightblue" points="1180.22,-55.5174 1190.81,-55.4597 1182.49,-48.8979 1180.22,-55.5174"/>
</g>
<!-- Node3 -->
<g id="node3" class="node"><title>Node3</title>
<g id="a_node3"><a xlink:href="oled__control_8c.html#a5febfdc847aa6f3bc3f3c8f7818b8699" target="_top" xlink:title=" ">
<polygon fill="none" stroke="black" points="956.5,-205.465 956.5,-223.465 1018.5,-223.465 1018.5,-205.465 956.5,-205.465"/>
<text text-anchor="middle" x="987.5" y="-212.265" font-family="Calibri" font-size="9.00">display_on</text>
</a>
</g>
</g>
<!-- Node2&#45;&gt;Node3 -->
<g id="edge2" class="edge"><title>Node2&#45;&gt;Node3</title>
<path fill="none" stroke="midnightblue" d="M1083.02,-154.472C1068.03,-164.819 1047.48,-178.761 1029,-190.465 1020.99,-195.537 1011.92,-200.941 1004.4,-205.334"/>
<polygon fill="midnightblue" stroke="midnightblue" points="1085.34,-157.122 1091.56,-148.547 1081.35,-151.369 1085.34,-157.122"/>
</g>
<!-- Node17 -->
<g id="node17" class="node"><title>Node17</title>
<g id="a_node17"><a xlink:href="oled__control_8c.html#a7eb4d382bdd4b42c57dbb7154d03ac66" target="_top" xlink:title=" ">
<polygon fill="none" stroke="black" points="856,-54.4651 856,-72.4651 905,-72.4651 905,-54.4651 856,-54.4651"/>
<text text-anchor="middle" x="880.5" y="-61.2651" font-family="Calibri" font-size="9.00">led_init</text>
</a>
</g>
</g>
<!-- Node2&#45;&gt;Node17 -->
<g id="edge29" class="edge"><title>Node2&#45;&gt;Node17</title>
<path fill="none" stroke="midnightblue" d="M1072.05,-151.705C1038.58,-162.22 985.783,-172.766 946,-152.465 912.515,-135.379 892.37,-91.8854 884.863,-72.7454"/>
<polygon fill="midnightblue" stroke="midnightblue" points="1073.4,-154.947 1081.79,-148.477 1071.19,-148.303 1073.4,-154.947"/>
</g>
<!-- Node18 -->
<g id="node18" class="node"><title>Node18</title>
<g id="a_node18"><a xlink:href="oled__control_8c.html#a9d56c6c2e653b24a0caf505492ad818a" target="_top" xlink:title=" ">
<polygon fill="none" stroke="black" points="851,-17.4651 851,-35.4651 910,-35.4651 910,-17.4651 851,-17.4651"/>
<text text-anchor="middle" x="880.5" y="-24.2651" font-family="Calibri" font-size="9.00">led_wr_str</text>
</a>
</g>
</g>
<!-- Node2&#45;&gt;Node18 -->
<g id="edge31" class="edge"><title>Node2&#45;&gt;Node18</title>
<path fill="none" stroke="midnightblue" d="M1067.73,-143.901C1033.11,-146.088 981.398,-143.997 946,-118.465 916.337,-97.0694 934.394,-71.7162 910,-44.4651 906.956,-41.0641 903.12,-38.0645 899.259,-35.5375"/>
<polygon fill="midnightblue" stroke="midnightblue" points="1068.2,-147.375 1077.9,-143.106 1067.65,-140.396 1068.2,-147.375"/>
</g>
<!-- Node19 -->
<g id="node19" class="node"><title>Node19</title>
<g id="a_node19"><a xlink:href="oled__control_8c.html#ac620c45e67383b8f8addda11fa5655af" target="_top" xlink:title=" ">
<polygon fill="none" stroke="black" points="946,-91.4651 946,-109.465 1029,-109.465 1029,-91.4651 946,-91.4651"/>
<text text-anchor="middle" x="987.5" y="-98.2651" font-family="Calibri" font-size="9.00">vodisplay_offoff</text>
</a>
</g>
</g>
<!-- Node2&#45;&gt;Node19 -->
<g id="edge32" class="edge"><title>Node2&#45;&gt;Node19</title>
<path fill="none" stroke="midnightblue" d="M1068.22,-127.267C1051.13,-121.522 1031.1,-114.787 1015.39,-109.506"/>
<polygon fill="midnightblue" stroke="midnightblue" points="1067.29,-130.648 1077.89,-130.518 1069.52,-124.013 1067.29,-130.648"/>
</g>
<!-- Node4 -->
<g id="node4" class="node"><title>Node4</title>
<g id="a_node4"><a xlink:href="main_8c.html#a1c9e5d54d8cf7f3d041aa2e0b330b3dd" target="_top" xlink:title="Handle the process of the buttons being pressed.">
<polygon fill="none" stroke="black" points="74,-339.465 74,-357.465 139,-357.465 139,-339.465 74,-339.465"/>
<text text-anchor="middle" x="106.5" y="-346.265" font-family="Calibri" font-size="9.00">button_proc</text>
</a>
</g>
</g>
<!-- Node3&#45;&gt;Node4 -->
<g id="edge3" class="edge"><title>Node3&#45;&gt;Node4</title>
<path fill="none" stroke="midnightblue" d="M982.027,-233.522C966.449,-294.591 908.6,-481.465 784,-481.465 784,-481.465 784,-481.465 282.5,-481.465 230.355,-481.465 216.234,-466.385 175,-434.465 146.183,-412.158 122.623,-374.936 112.644,-357.72"/>
<polygon fill="midnightblue" stroke="midnightblue" points="985.464,-234.202 984.451,-223.656 978.666,-232.532 985.464,-234.202"/>
</g>
<!-- Node6 -->
<g id="node6" class="node"><title>Node6</title>
<g id="a_node6"><a xlink:href="main_8c.html#ae5a14b4884e85f47ad8a4a716f13203a" target="_top" xlink:title=" ">
<polygon fill="none" stroke="black" points="856.5,-205.465 856.5,-223.465 904.5,-223.465 904.5,-205.465 856.5,-205.465"/>
<text text-anchor="middle" x="880.5" y="-212.265" font-family="Calibri" font-size="9.00">lcd_pwr</text>
</a>
</g>
</g>
<!-- Node3&#45;&gt;Node6 -->
<g id="edge5" class="edge"><title>Node3&#45;&gt;Node6</title>
<path fill="none" stroke="midnightblue" d="M946.401,-214.465C932.258,-214.465 916.841,-214.465 904.583,-214.465"/>
<polygon fill="midnightblue" stroke="midnightblue" points="946.411,-217.965 956.411,-214.465 946.411,-210.965 946.411,-217.965"/>
</g>
<!-- Node5 -->
<g id="node5" class="node"><title>Node5</title>
<g id="a_node5"><a xlink:href="main_8c.html#acdef7a1fd863a6d3770c1268cb06add3" target="_top" xlink:title=" ">
<polygon fill="none" stroke="black" points="0,-73.4651 0,-91.4651 38,-91.4651 38,-73.4651 0,-73.4651"/>
<text text-anchor="middle" x="19" y="-80.2651" font-family="Calibri" font-size="9.00">main</text>
</a>
</g>
</g>
<!-- Node4&#45;&gt;Node5 -->
<g id="edge4" class="edge"><title>Node4&#45;&gt;Node5</title>
<path fill="none" stroke="midnightblue" d="M99.4281,-329.575C82.4948,-276.893 35.1886,-129.719 22.9307,-91.583"/>
<polygon fill="midnightblue" stroke="midnightblue" points="96.1646,-330.86 102.557,-339.309 102.829,-328.717 96.1646,-330.86"/>
</g>
<!-- Node6&#45;&gt;Node4 -->
<g id="edge8" class="edge"><title>Node6&#45;&gt;Node4</title>
<path fill="none" stroke="midnightblue" d="M875.509,-233.574C868.231,-264.378 850.199,-325.495 815,-364.465 766.591,-418.06 745.221,-443.465 673,-443.465 673,-443.465 673,-443.465 282.5,-443.465 210.94,-443.465 140.687,-381.352 116.415,-357.574"/>
<polygon fill="midnightblue" stroke="midnightblue" points="878.952,-234.216 877.716,-223.693 872.12,-232.69 878.952,-234.216"/>
</g>
<!-- Node6&#45;&gt;Node5 -->
<g id="edge11" class="edge"><title>Node6&#45;&gt;Node5</title>
<path fill="none" stroke="midnightblue" d="M863.243,-198.042C830.404,-166.704 752.493,-101.465 673,-101.465 673,-101.465 673,-101.465 201.5,-101.465 141.461,-101.465 70.8557,-91.0542 38.2251,-85.6453"/>
<polygon fill="midnightblue" stroke="midnightblue" points="860.994,-200.737 870.595,-205.218 865.884,-195.728 860.994,-200.737"/>
</g>
<!-- Node7 -->
<g id="node7" class="node"><title>Node7</title>
<g id="a_node7"><a xlink:href="main_8c.html#af18ed7edda7874a97cacaa11a2759260" target="_top" xlink:title=" ">
<polygon fill="none" stroke="black" points="175,-339.465 175,-357.465 230,-357.465 230,-339.465 175,-339.465"/>
<text text-anchor="middle" x="202.5" y="-346.265" font-family="Calibri" font-size="9.00">btn_push</text>
</a>
</g>
</g>
<!-- Node6&#45;&gt;Node7 -->
<g id="edge6" class="edge"><title>Node6&#45;&gt;Node7</title>
<path fill="none" stroke="midnightblue" d="M870.749,-232.901C846.589,-280.797 774.002,-405.465 673,-405.465 673,-405.465 673,-405.465 363.5,-405.465 307.178,-405.465 245.834,-373.736 218.314,-357.623"/>
<polygon fill="midnightblue" stroke="midnightblue" points="874.012,-234.197 875.277,-223.677 867.728,-231.112 874.012,-234.197"/>
</g>
<!-- Node8 -->
<g id="node8" class="node"><title>Node8</title>
<g id="a_node8"><a xlink:href="main_8c.html#ac445892220ccb3b4b337dd3e764bd6c6" target="_top" xlink:title="Handle the process of the buttons being pressed (in test mode)">
<polygon fill="none" stroke="black" points="629,-54.4651 629,-72.4651 715,-72.4651 715,-54.4651 629,-54.4651"/>
<text text-anchor="middle" x="672" y="-61.2651" font-family="Calibri" font-size="9.00">button_proc_test</text>
</a>
</g>
</g>
<!-- Node6&#45;&gt;Node8 -->
<g id="edge9" class="edge"><title>Node6&#45;&gt;Node8</title>
<path fill="none" stroke="midnightblue" d="M875.52,-195.383C868.535,-166.99 851.229,-114.111 815,-87.4651 786.299,-66.3555 745.551,-61.3105 715.062,-60.9864"/>
<polygon fill="midnightblue" stroke="midnightblue" points="872.14,-196.306 877.776,-205.278 878.965,-194.75 872.14,-196.306"/>
</g>
<!-- Node9 -->
<g id="node9" class="node"><title>Node9</title>
<g id="a_node9"><a xlink:href="main_8c.html#a11724d8cce81ed96bec12a004ea3ea7a" target="_top" xlink:title=" ">
<polygon fill="none" stroke="black" points="751,-205.465 751,-223.465 815,-223.465 815,-205.465 751,-205.465"/>
<text text-anchor="middle" x="783" y="-212.265" font-family="Calibri" font-size="9.00">show_reset</text>
</a>
</g>
</g>
<!-- Node6&#45;&gt;Node9 -->
<g id="edge12" class="edge"><title>Node6&#45;&gt;Node9</title>
<path fill="none" stroke="midnightblue" d="M846.299,-214.465C836.208,-214.465 825.159,-214.465 815.204,-214.465"/>
<polygon fill="midnightblue" stroke="midnightblue" points="846.382,-217.965 856.382,-214.465 846.382,-210.965 846.382,-217.965"/>
</g>
<!-- Node7&#45;&gt;Node4 -->
<g id="edge7" class="edge"><title>Node7&#45;&gt;Node4</title>
<path fill="none" stroke="midnightblue" d="M164.545,-348.465C156.183,-348.465 147.376,-348.465 139.25,-348.465"/>
<polygon fill="midnightblue" stroke="midnightblue" points="164.815,-351.965 174.815,-348.465 164.815,-344.965 164.815,-351.965"/>
</g>
<!-- Node8&#45;&gt;Node5 -->
<g id="edge10" class="edge"><title>Node8&#45;&gt;Node5</title>
<path fill="none" stroke="midnightblue" d="M618.635,-63.4651C576.468,-63.4651 515.671,-63.4651 462.5,-63.4651 462.5,-63.4651 462.5,-63.4651 201.5,-63.4651 141.461,-63.4651 70.8557,-73.8761 38.2251,-79.285"/>
<polygon fill="midnightblue" stroke="midnightblue" points="618.671,-66.9652 628.671,-63.4651 618.671,-59.9652 618.671,-66.9652"/>
</g>
<!-- Node9&#45;&gt;Node4 -->
<g id="edge13" class="edge"><title>Node9&#45;&gt;Node4</title>
<path fill="none" stroke="midnightblue" d="M757.86,-200.3C718.465,-178.563 637.283,-139.465 563,-139.465 563,-139.465 563,-139.465 282.5,-139.465 176.729,-139.465 122.257,-298.767 110.131,-339.215"/>
<polygon fill="midnightblue" stroke="midnightblue" points="756.515,-203.56 766.945,-205.418 759.95,-197.461 756.515,-203.56"/>
</g>
<!-- Node10 -->
<g id="node10" class="node"><title>Node10</title>
<g id="a_node10"><a xlink:href="main_8h.html#ad7eb7423e0b17ccfba1ae42f3a3274e0" target="_top" xlink:title=" ">
<polygon fill="none" stroke="black" points="648,-244.465 648,-262.465 696,-262.465 696,-244.465 648,-244.465"/>
<text text-anchor="middle" x="672" y="-251.265" font-family="Calibri" font-size="9.00">get_swr</text>
</a>
</g>
</g>
<!-- Node9&#45;&gt;Node10 -->
<g id="edge14" class="edge"><title>Node9&#45;&gt;Node10</title>
<path fill="none" stroke="midnightblue" d="M747.299,-226.881C730.643,-232.841 711.131,-239.822 696.283,-245.135"/>
<polygon fill="midnightblue" stroke="midnightblue" points="748.483,-230.175 756.719,-223.511 746.125,-223.584 748.483,-230.175"/>
</g>
<!-- Node11 -->
<g id="node11" class="node"><title>Node11</title>
<g id="a_node11"><a xlink:href="main_8h.html#a740ef1b33bb02cd952ad7d8708999472" target="_top" xlink:title=" ">
<polygon fill="none" stroke="black" points="531,-244.465 531,-262.465 593,-262.465 593,-244.465 531,-244.465"/>
<text text-anchor="middle" x="562" y="-251.265" font-family="Calibri" font-size="9.00">coarse_cap</text>
</a>
</g>
</g>
<!-- Node10&#45;&gt;Node11 -->
<g id="edge15" class="edge"><title>Node10&#45;&gt;Node11</title>
<path fill="none" stroke="midnightblue" d="M637.495,-253.465C623.31,-253.465 606.908,-253.465 593.112,-253.465"/>
<polygon fill="midnightblue" stroke="midnightblue" points="637.831,-256.965 647.831,-253.465 637.831,-249.965 637.831,-256.965"/>
</g>
<!-- Node12 -->
<g id="node12" class="node"><title>Node12</title>
<g id="a_node12"><a xlink:href="main_8h.html#a5c7c60c7d70cf76cc52e87722bb0f614" target="_top" xlink:title=" ">
<polygon fill="none" stroke="black" points="428,-282.465 428,-300.465 495,-300.465 495,-282.465 428,-282.465"/>
<text text-anchor="middle" x="461.5" y="-289.265" font-family="Calibri" font-size="9.00">coarse_tune</text>
</a>
</g>
</g>
<!-- Node10&#45;&gt;Node12 -->
<g id="edge20" class="edge"><title>Node10&#45;&gt;Node12</title>
<path fill="none" stroke="midnightblue" d="M637.858,-261.689C624.039,-264.968 607.792,-268.629 593,-271.465 559.797,-277.831 521.532,-283.501 495.062,-287.163"/>
<polygon fill="midnightblue" stroke="midnightblue" points="638.984,-265.018 647.888,-259.276 637.346,-258.213 638.984,-265.018"/>
</g>
<!-- Node13 -->
<g id="node13" class="node"><title>Node13</title>
<g id="a_node13"><a xlink:href="main_8h.html#a454a7687c8039514766571b23516ca9c" target="_top" xlink:title=" ">
<polygon fill="none" stroke="black" points="337,-282.465 337,-300.465 392,-300.465 392,-282.465 337,-282.465"/>
<text text-anchor="middle" x="364.5" y="-289.265" font-family="Calibri" font-size="9.00">sub_tune</text>
</a>
</g>
</g>
<!-- Node10&#45;&gt;Node13 -->
<g id="edge27" class="edge"><title>Node10&#45;&gt;Node13</title>
<path fill="none" stroke="midnightblue" d="M646.583,-267.497C631.558,-275.584 611.665,-285.332 593,-291.465 522.918,-314.495 501.045,-319.774 428,-309.465 415.477,-307.698 401.949,-304.032 390.692,-300.466"/>
<polygon fill="midnightblue" stroke="midnightblue" points="648.622,-270.369 655.691,-262.477 645.244,-264.239 648.622,-270.369"/>
</g>
<!-- Node14 -->
<g id="node14" class="node"><title>Node14</title>
<g id="a_node14"><a xlink:href="main_8h.html#a1849f2e5bd63d11a7b9549470e287d17" target="_top" xlink:title=" ">
<polygon fill="none" stroke="black" points="266,-282.465 266,-300.465 301,-300.465 301,-282.465 266,-282.465"/>
<text text-anchor="middle" x="283.5" y="-289.265" font-family="Calibri" font-size="9.00">tune</text>
</a>
</g>
</g>
<!-- Node10&#45;&gt;Node14 -->
<g id="edge28" class="edge"><title>Node10&#45;&gt;Node14</title>
<path fill="none" stroke="midnightblue" d="M655.243,-270.096C640.584,-284.43 617.389,-304.361 593,-314.465 487.866,-358.022 447.048,-338.445 337,-309.465 324.887,-306.275 311.538,-301.683 301.332,-297.936"/>
<polygon fill="midnightblue" stroke="midnightblue" points="657.911,-272.376 662.461,-262.808 652.938,-267.45 657.911,-272.376"/>
</g>
<!-- Node15 -->
<g id="node15" class="node"><title>Node15</title>
<g id="a_node15"><a xlink:href="main_8h.html#ab518a3d2c723f12d3af3024a195606ce" target="_top" xlink:title=" ">
<polygon fill="none" stroke="black" points="432,-244.465 432,-262.465 491,-262.465 491,-244.465 432,-244.465"/>
<text text-anchor="middle" x="461.5" y="-251.265" font-family="Calibri" font-size="9.00">sharp_cap</text>
</a>
</g>
</g>
<!-- Node10&#45;&gt;Node15 -->
<g id="edge21" class="edge"><title>Node10&#45;&gt;Node15</title>
<path fill="none" stroke="midnightblue" d="M637.758,-243.513C624.036,-239.893 607.887,-236.252 593,-234.465 565.641,-231.181 558.304,-230.749 531,-234.465 516.815,-236.396 501.42,-240.478 488.825,-244.366"/>
<polygon fill="midnightblue" stroke="midnightblue" points="637.147,-246.975 647.717,-246.247 639,-240.224 637.147,-246.975"/>
</g>
<!-- Node16 -->
<g id="node16" class="node"><title>Node16</title>
<g id="a_node16"><a xlink:href="main_8h.html#a72210b3ed1d5691c5bbda8c7f1e97197" target="_top" xlink:title=" ">
<polygon fill="none" stroke="black" points="432.5,-206.465 432.5,-224.465 490.5,-224.465 490.5,-206.465 432.5,-206.465"/>
<text text-anchor="middle" x="461.5" y="-213.265" font-family="Calibri" font-size="9.00">sharp_ind</text>
</a>
</g>
</g>
<!-- Node10&#45;&gt;Node16 -->
<g id="edge24" class="edge"><title>Node10&#45;&gt;Node16</title>
<path fill="none" stroke="midnightblue" d="M638.253,-241.272C624.459,-236.583 608.125,-231.606 593,-228.465 558.112,-221.221 517.109,-217.976 490.506,-216.547"/>
<polygon fill="midnightblue" stroke="midnightblue" points="637.199,-244.611 647.794,-244.605 639.508,-238.003 637.199,-244.611"/>
</g>
<!-- Node11&#45;&gt;Node12 -->
<g id="edge16" class="edge"><title>Node11&#45;&gt;Node12</title>
<path fill="none" stroke="midnightblue" d="M528.041,-266.18C514.272,-271.492 498.589,-277.542 486.017,-282.393"/>
<polygon fill="midnightblue" stroke="midnightblue" points="529.587,-269.335 537.657,-262.471 527.067,-262.805 529.587,-269.335"/>
</g>
<!-- Node12&#45;&gt;Node13 -->
<g id="edge17" class="edge"><title>Node12&#45;&gt;Node13</title>
<path fill="none" stroke="midnightblue" d="M417.785,-291.465C409.104,-291.465 400.207,-291.465 392.271,-291.465"/>
<polygon fill="midnightblue" stroke="midnightblue" points="417.806,-294.965 427.806,-291.465 417.806,-287.965 417.806,-294.965"/>
</g>
<!-- Node13&#45;&gt;Node14 -->
<g id="edge18" class="edge"><title>Node13&#45;&gt;Node14</title>
<path fill="none" stroke="midnightblue" d="M326.487,-291.465C317.583,-291.465 308.509,-291.465 301.085,-291.465"/>
<polygon fill="midnightblue" stroke="midnightblue" points="326.754,-294.965 336.754,-291.465 326.754,-287.965 326.754,-294.965"/>
</g>
<!-- Node14&#45;&gt;Node7 -->
<g id="edge19" class="edge"><title>Node14&#45;&gt;Node7</title>
<path fill="none" stroke="midnightblue" d="M261.466,-306.642C247.034,-317.055 228.359,-330.529 216.161,-339.33"/>
<polygon fill="midnightblue" stroke="midnightblue" points="263.746,-309.313 269.807,-300.623 259.65,-303.636 263.746,-309.313"/>
</g>
<!-- Node15&#45;&gt;Node13 -->
<g id="edge22" class="edge"><title>Node15&#45;&gt;Node13</title>
<path fill="none" stroke="midnightblue" d="M428.325,-266.335C415.139,-271.609 400.189,-277.59 388.181,-282.393"/>
<polygon fill="midnightblue" stroke="midnightblue" points="430.001,-269.434 437.986,-262.471 427.402,-262.935 430.001,-269.434"/>
</g>
<!-- Node15&#45;&gt;Node14 -->
<g id="edge23" class="edge"><title>Node15&#45;&gt;Node14</title>
<path fill="none" stroke="midnightblue" d="M421.727,-257.466C397.198,-260.479 364.955,-265.329 337,-272.465 324.791,-275.582 311.443,-280.433 301.262,-284.453"/>
<polygon fill="midnightblue" stroke="midnightblue" points="422.211,-260.934 431.732,-256.286 421.391,-253.982 422.211,-260.934"/>
</g>
<!-- Node16&#45;&gt;Node13 -->
<g id="edge25" class="edge"><title>Node16&#45;&gt;Node13</title>
<path fill="none" stroke="midnightblue" d="M434.673,-229.882C432.375,-231.368 430.119,-232.906 428,-234.465 407.416,-249.606 385.94,-270.498 374.294,-282.328"/>
<polygon fill="midnightblue" stroke="midnightblue" points="436.82,-232.673 443.539,-224.481 433.178,-226.695 436.82,-232.673"/>
</g>
<!-- Node16&#45;&gt;Node14 -->
<g id="edge26" class="edge"><title>Node16&#45;&gt;Node14</title>
<path fill="none" stroke="midnightblue" d="M422.518,-226.244C397.628,-233.896 364.695,-245.151 337,-258.465 322.834,-265.275 307.75,-275.051 297.403,-282.195"/>
<polygon fill="midnightblue" stroke="midnightblue" points="423.749,-229.528 432.313,-223.29 421.729,-222.826 423.749,-229.528"/>
</g>
<!-- Node17&#45;&gt;Node5 -->
<g id="edge30" class="edge"><title>Node17&#45;&gt;Node5</title>
<path fill="none" stroke="midnightblue" d="M846.287,-53.4982C805.769,-42.2393 735.001,-25.4651 673,-25.4651 673,-25.4651 673,-25.4651 201.5,-25.4651 138.417,-25.4651 68.4326,-57.1945 36.9605,-73.3071"/>
<polygon fill="midnightblue" stroke="midnightblue" points="845.336,-56.8667 855.912,-56.2282 847.246,-50.1323 845.336,-56.8667"/>
</g>
<!-- Node20&#45;&gt;Node17 -->
<g id="edge34" class="edge"><title>Node20&#45;&gt;Node17</title>
<path fill="none" stroke="midnightblue" d="M949.898,-63.4651C935.089,-63.4651 918.417,-63.4651 905.241,-63.4651"/>
<polygon fill="midnightblue" stroke="midnightblue" points="950.275,-66.9652 960.275,-63.4651 950.275,-59.9652 950.275,-66.9652"/>
</g>
<!-- Node21&#45;&gt;Node18 -->
<g id="edge36" class="edge"><title>Node21&#45;&gt;Node18</title>
<path fill="none" stroke="midnightblue" d="M944.988,-26.4651C933.306,-26.4651 920.864,-26.4651 910.118,-26.4651"/>
<polygon fill="midnightblue" stroke="midnightblue" points="944.997,-29.9652 954.997,-26.4651 944.997,-22.9652 944.997,-29.9652"/>
</g>
<!-- Node22&#45;&gt;Node3 -->
<g id="edge38" class="edge"><title>Node22&#45;&gt;Node3</title>
<path fill="none" stroke="midnightblue" d="M1070.7,-116.543C1068.71,-117.773 1066.79,-119.08 1065,-120.465 1032.53,-145.544 1005.14,-186.957 993.929,-205.269"/>
<polygon fill="midnightblue" stroke="midnightblue" points="1072.57,-119.506 1079.69,-111.654 1069.23,-113.357 1072.57,-119.506"/>
</g>
<!-- Node22&#45;&gt;Node19 -->
<g id="edge40" class="edge"><title>Node22&#45;&gt;Node19</title>
<path fill="none" stroke="midnightblue" d="M1054.67,-101.606C1046.13,-101.459 1037.36,-101.308 1029.1,-101.165"/>
<polygon fill="midnightblue" stroke="midnightblue" points="1054.84,-105.109 1064.9,-101.782 1054.97,-98.1105 1054.84,-105.109"/>
</g>
<!-- Node22&#45;&gt;Node20 -->
<g id="edge39" class="edge"><title>Node22&#45;&gt;Node20</title>
<path fill="none" stroke="midnightblue" d="M1067.86,-90.1459C1050.65,-84.3615 1030.53,-77.5973 1014.86,-72.327"/>
<polygon fill="midnightblue" stroke="midnightblue" points="1067,-93.5504 1077.6,-93.4197 1069.23,-86.9154 1067,-93.5504"/>
</g>
<!-- Node23&#45;&gt;Node20 -->
<g id="edge42" class="edge"><title>Node23&#45;&gt;Node20</title>
<path fill="none" stroke="midnightblue" d="M1066.47,-38.594C1049.49,-44.0124 1029.9,-50.2613 1014.6,-55.14"/>
<polygon fill="midnightblue" stroke="midnightblue" points="1067.66,-41.8897 1076.12,-35.5164 1065.53,-35.2208 1067.66,-41.8897"/>
</g>
<!-- Node23&#45;&gt;Node21 -->
<g id="edge43" class="edge"><title>Node23&#45;&gt;Node21</title>
<path fill="none" stroke="midnightblue" d="M1054.99,-26.4651C1043.15,-26.4651 1030.82,-26.4651 1020.04,-26.4651"/>
<polygon fill="midnightblue" stroke="midnightblue" points="1055.23,-29.9652 1065.23,-26.4651 1055.23,-22.9652 1055.23,-29.9652"/>
</g>
</g>
</svg>
        <g id="navigator" transform="translate(0 0)" fill="#404254">
                <rect fill="#f2f5e9" fill-opacity="0.5" stroke="#606060" stroke-width=".5" x="0" y="0" width="60" height="60"/>
                <use id="zoomplus" xlink:href="#zoomPlus" x="17" y="9" onmousedown="handleZoom(evt,'in')"/>
                <use id="zoomminus" xlink:href="#zoomMin" x="42" y="9" onmousedown="handleZoom(evt,'out')"/>
                <use id="reset" xlink:href="#resetDef" x="30" y="36" onmousedown="handleReset()"/>
                <g id="arrowUp" xlink:href="#dirArrow" transform="translate(30 24)" onmousedown="handlePan(0,-1)">
                  <use xlink:href="#rim" fill="#404040">
                        <set attributeName="fill" to="#808080" begin="arrowUp.mouseover" end="arrowUp.mouseout"/>
                  </use>
                  <path fill="none" stroke="white" stroke-width="1.5" d="M0,-3.0v7 M-2.5,-0.5L0,-3.0L2.5,-0.5"/>
                </g>
                <g id="arrowRight" xlink:href="#dirArrow" transform="rotate(90) translate(36 -43)" onmousedown="handlePan(1,0)">
                  <use xlink:href="#rim" fill="#404040">
                        <set attributeName="fill" to="#808080" begin="arrowRight.mouseover" end="arrowRight.mouseout"/>
                  </use>
                  <path fill="none" stroke="white" stroke-width="1.5" d="M0,-3.0v7 M-2.5,-0.5L0,-3.0L2.5,-0.5"/>
                </g>
                <g id="arrowDown" xlink:href="#dirArrow" transform="rotate(180) translate(-30 -48)" onmousedown="handlePan(0,1)">
                  <use xlink:href="#rim" fill="#404040">
                        <set attributeName="fill" to="#808080" begin="arrowDown.mouseover" end="arrowDown.mouseout"/>
                  </use>
                  <path fill="none" stroke="white" stroke-width="1.5" d="M0,-3.0v7 M-2.5,-0.5L0,-3.0L2.5,-0.5"/>
                </g>
                <g id="arrowLeft" xlink:href="#dirArrow" transform="rotate(270) translate(-36 17)" onmousedown="handlePan(-1,0)">
                  <use xlink:href="#rim" fill="#404040">
                        <set attributeName="fill" to="#808080" begin="arrowLeft.mouseover" end="arrowLeft.mouseout"/>
                  </use>
                  <path fill="none" stroke="white" stroke-width="1.5" d="M0,-3.0v7 M-2.5,-0.5L0,-3.0L2.5,-0.5"/>
                </g>
        </g>
        <svg viewBox="0 0 15 15" width="100%" height="30px" preserveAspectRatio="xMaxYMin meet">
         <g id="arrow_out" transform="scale(0.3 0.3)">
          <a xlink:href="oled__control_8h_a1f4f27e6bb2e8fd13f1ecb58ff343fbb_icgraph_org.svg" target="_base">
           <rect id="button" ry="5" rx="5" y="6" x="6" height="38" width="38"
                fill="#f2f5e9" fill-opacity="0.5" stroke="#606060" stroke-width="1.0"/>
           <path id="arrow"
             d="M 11.500037,31.436501 C 11.940474,20.09759 22.043105,11.32322 32.158766,21.979434 L 37.068811,17.246167 C 37.068811,17.246167 37.088388,32 37.088388,32 L 22.160133,31.978069 C 22.160133,31.978069 26.997745,27.140456 26.997745,27.140456 C 18.528582,18.264221 13.291696,25.230495 11.500037,31.436501 z"
             style="fill:#404040;"/>
          </a>
         </g>
        </svg>
</svg>
