<?xml version="1.0" encoding="UTF-8" standalone="no"?>
<!DOCTYPE svg PUBLIC "-//W3C//DTD SVG 1.1//EN"
 "http://www.w3.org/Graphics/SVG/1.1/DTD/svg11.dtd">
<!-- Generated by graphviz version 2.38.0 (20140413.2041)
 -->
<!-- Title: led_wr_str Pages: 1 -->
<!--zoomable 778 -->
<svg id="main" version="1.1" xmlns="http://www.w3.org/2000/svg" xmlns:xlink="http://www.w3.org/1999/xlink" xml:space="preserve" onload="init(evt)">
<style type="text/css"><![CDATA[
.edge:hover path { stroke: red; }
.edge:hover polygon { stroke: red; fill: red; }
]]></style>
<script type="text/javascript"><![CDATA[
var edges = document.getElementsByTagName('g');
if (edges && edges.length) {
  for (var i=0;i<edges.length;i++) {
    if (edges[i].id.substr(0,4)=='edge') {
      edges[i].setAttribute('class','edge');
    }
  }
}
]]></script>
        <defs>
                <circle id="rim" cx="0" cy="0" r="7"/>
                <circle id="rim2" cx="0" cy="0" r="3.5"/>
                <g id="zoomPlus">
                        <use xlink:href="#rim" fill="#404040">
                                <set attributeName="fill" to="#808080" begin="zoomplus.mouseover" end="zoomplus.mouseout"/>
                        </use>
                        <path d="M-4,0h8M0,-4v8" fill="none" stroke="white" stroke-width="1.5" pointer-events="none"/>
                </g>
                <g id="zoomMin">
                        <use xlink:href="#rim" fill="#404040">
                                <set attributeName="fill" to="#808080" begin="zoomminus.mouseover" end="zoomminus.mouseout"/>
                        </use>
                        <path d="M-4,0h8" fill="none" stroke="white" stroke-width="1.5" pointer-events="none"/>
                </g>
                <g id="dirArrow">
                        <path fill="none" stroke="white" stroke-width="1.5" d="M0,-3.0v7 M-2.5,-0.5L0,-3.0L2.5,-0.5"/>
                </g>
               <g id="resetDef">
                       <use xlink:href="#rim2" fill="#404040">
                               <set attributeName="fill" to="#808080" begin="reset.mouseover" end="reset.mouseout"/>
                       </use>
               </g>
        </defs>

<script type="text/javascript">
var viewWidth = 1178;
var viewHeight = 778;
var sectionId = 'dynsection-9';
</script>
<script xlink:href="svgpan.js"/>
<svg id="graph" class="graph">
<g id="viewport">
<title>led_wr_str</title>
<!-- Node1 -->
<g id="node1" class="node"><title>Node1</title>
<g id="a_node1"><a xlink:title=" ">
<polygon fill="#bfbfbf" stroke="black" points="1111,-247.5 1111,-265.5 1170,-265.5 1170,-247.5 1111,-247.5"/>
<text text-anchor="middle" x="1140.5" y="-254.3" font-family="Calibri" font-size="9.00">led_wr_str</text>
</a>
</g>
</g>
<!-- Node2 -->
<g id="node2" class="node"><title>Node2</title>
<g id="a_node2"><a xlink:href="main_8c.html#af18ed7edda7874a97cacaa11a2759260" target="_top" xlink:title=" ">
<polygon fill="none" stroke="black" points="175,-456.5 175,-474.5 230,-474.5 230,-456.5 175,-456.5"/>
<text text-anchor="middle" x="202.5" y="-463.3" font-family="Calibri" font-size="9.00">btn_push</text>
</a>
</g>
</g>
<!-- Node1&#45;&gt;Node2 -->
<g id="edge1" class="edge"><title>Node1&#45;&gt;Node2</title>
<path fill="none" stroke="midnightblue" d="M1139.92,-275.661C1140.61,-355.235 1132.06,-655.5 964,-655.5 964,-655.5 964,-655.5 363.5,-655.5 267.764,-655.5 217.748,-512.617 206.151,-474.664"/>
<polygon fill="midnightblue" stroke="midnightblue" points="1143.42,-275.53 1139.77,-265.583 1136.42,-275.634 1143.42,-275.53"/>
</g>
<!-- Node3 -->
<g id="node3" class="node"><title>Node3</title>
<g id="a_node3"><a xlink:href="main_8c.html#a1c9e5d54d8cf7f3d041aa2e0b330b3dd" target="_top" xlink:title="Handle the process of the buttons being pressed.">
<polygon fill="none" stroke="black" points="74,-361.5 74,-379.5 139,-379.5 139,-361.5 74,-361.5"/>
<text text-anchor="middle" x="106.5" y="-368.3" font-family="Calibri" font-size="9.00">button_proc</text>
</a>
</g>
</g>
<!-- Node1&#45;&gt;Node3 -->
<g id="edge4" class="edge"><title>Node1&#45;&gt;Node3</title>
<path fill="none" stroke="midnightblue" d="M1137.83,-275.567C1131.72,-342.73 1109.07,-567.668 1075,-630.5 1043.21,-689.135 1030.7,-731.5 964,-731.5 964,-731.5 964,-731.5 282.5,-731.5 121.262,-731.5 108.531,-436.291 107.571,-379.786"/>
<polygon fill="midnightblue" stroke="midnightblue" points="1141.32,-275.828 1138.73,-265.556 1134.35,-275.205 1141.32,-275.828"/>
</g>
<!-- Node4 -->
<g id="node4" class="node"><title>Node4</title>
<g id="a_node4"><a xlink:href="main_8c.html#acdef7a1fd863a6d3770c1268cb06add3" target="_top" xlink:title=" ">
<polygon fill="none" stroke="black" points="0,-133.5 0,-151.5 38,-151.5 38,-133.5 0,-133.5"/>
<text text-anchor="middle" x="19" y="-140.3" font-family="Calibri" font-size="9.00">main</text>
</a>
</g>
</g>
<!-- Node1&#45;&gt;Node4 -->
<g id="edge46" class="edge"><title>Node1&#45;&gt;Node4</title>
<path fill="none" stroke="midnightblue" d="M1138.47,-275.97C1134.26,-349.899 1116.61,-612.613 1075,-683.5 1043.41,-737.321 1026.41,-769.5 964,-769.5 964,-769.5 964,-769.5 201.5,-769.5 97.9518,-769.5 109.673,-671.709 74,-574.5 14.8911,-413.428 18.1495,-198.338 19.6463,-151.674"/>
<polygon fill="midnightblue" stroke="midnightblue" points="1141.97,-275.962 1139.03,-265.785 1134.98,-275.577 1141.97,-275.962"/>
</g>
<!-- Node5 -->
<g id="node5" class="node"><title>Node5</title>
<g id="a_node5"><a xlink:href="main_8c.html#ac445892220ccb3b4b337dd3e764bd6c6" target="_top" xlink:title="Handle the process of the buttons being pressed (in test mode)">
<polygon fill="none" stroke="black" points="725,-114.5 725,-132.5 811,-132.5 811,-114.5 725,-114.5"/>
<text text-anchor="middle" x="768" y="-121.3" font-family="Calibri" font-size="9.00">button_proc_test</text>
</a>
</g>
</g>
<!-- Node1&#45;&gt;Node5 -->
<g id="edge5" class="edge"><title>Node1&#45;&gt;Node5</title>
<path fill="none" stroke="midnightblue" d="M1117.06,-242.019C1104.93,-234.614 1089.51,-225.85 1075,-219.5 981.652,-178.661 865.396,-147.153 806.684,-132.504"/>
<polygon fill="midnightblue" stroke="midnightblue" points="1115.28,-245.034 1125.62,-247.354 1118.98,-239.094 1115.28,-245.034"/>
</g>
<!-- Node6 -->
<g id="node6" class="node"><title>Node6</title>
<g id="a_node6"><a xlink:href="main_8c.html#a6911b3f075cdf1d54cb14f17f6e5ef6b" target="_top" xlink:title=" ">
<polygon fill="none" stroke="black" points="1028,-380.5 1028,-398.5 1075,-398.5 1075,-380.5 1028,-380.5"/>
<text text-anchor="middle" x="1051.5" y="-387.3" font-family="Calibri" font-size="9.00">lcd_ind</text>
</a>
</g>
</g>
<!-- Node1&#45;&gt;Node6 -->
<g id="edge7" class="edge"><title>Node1&#45;&gt;Node6</title>
<path fill="none" stroke="midnightblue" d="M1127.89,-274.247C1109.14,-302.913 1072.84,-358.399 1058.52,-380.294"/>
<polygon fill="midnightblue" stroke="midnightblue" points="1130.97,-275.926 1133.52,-265.642 1125.12,-272.094 1130.97,-275.926"/>
</g>
<!-- Node7 -->
<g id="node7" class="node"><title>Node7</title>
<g id="a_node7"><a xlink:href="main_8c.html#a46f52cccc77b5d2d91f35334046bc8eb" target="_top" xlink:title=" ">
<polygon fill="none" stroke="black" points="937,-86.5 937,-104.5 989,-104.5 989,-86.5 937,-86.5"/>
<text text-anchor="middle" x="963" y="-93.3" font-family="Calibri" font-size="9.00">lcd_prep</text>
</a>
</g>
</g>
<!-- Node1&#45;&gt;Node7 -->
<g id="edge42" class="edge"><title>Node1&#45;&gt;Node7</title>
<path fill="none" stroke="midnightblue" d="M1135.03,-237.408C1127.48,-209.404 1109.55,-157.391 1075,-128.5 1050.48,-107.993 1013.6,-100.229 989.171,-97.2903"/>
<polygon fill="midnightblue" stroke="midnightblue" points="1131.66,-238.343 1137.5,-247.18 1138.44,-236.628 1131.66,-238.343"/>
</g>
<!-- Node8 -->
<g id="node8" class="node"><title>Node8</title>
<g id="a_node8"><a xlink:href="main_8c.html#a7a367b10f22edd310a36627b6c941255" target="_top" xlink:title=" ">
<polygon fill="none" stroke="black" points="847,-38.5 847,-56.5 898,-56.5 898,-38.5 847,-38.5"/>
<text text-anchor="middle" x="872.5" y="-45.3" font-family="Calibri" font-size="9.00">test_init</text>
</a>
</g>
</g>
<!-- Node1&#45;&gt;Node8 -->
<g id="edge51" class="edge"><title>Node1&#45;&gt;Node8</title>
<path fill="none" stroke="midnightblue" d="M1136.78,-237.367C1131.16,-204.946 1115.25,-139.17 1075,-102.5 1024.74,-56.7108 940.009,-48.4913 898.264,-47.371"/>
<polygon fill="midnightblue" stroke="midnightblue" points="1133.34,-238.012 1138.36,-247.341 1140.25,-236.916 1133.34,-238.012"/>
</g>
<!-- Node9 -->
<g id="node9" class="node"><title>Node9</title>
<g id="a_node9"><a xlink:href="main_8c.html#a4ae0d4fa97fc0ca3611813fee4f9af7c" target="_top" xlink:title=" ">
<polygon fill="none" stroke="black" points="934,-342.5 934,-360.5 992,-360.5 992,-342.5 934,-342.5"/>
<text text-anchor="middle" x="963" y="-349.3" font-family="Calibri" font-size="9.00">show_pwr</text>
</a>
</g>
</g>
<!-- Node1&#45;&gt;Node9 -->
<g id="edge49" class="edge"><title>Node1&#45;&gt;Node9</title>
<path fill="none" stroke="midnightblue" d="M1113.63,-270.504C1077.13,-290.264 1011.53,-325.771 980.777,-342.419"/>
<polygon fill="midnightblue" stroke="midnightblue" points="1115.54,-273.447 1122.67,-265.609 1112.21,-267.291 1115.54,-273.447"/>
</g>
<!-- Node17 -->
<g id="node17" class="node"><title>Node17</title>
<g id="a_node17"><a xlink:href="main_8c.html#ae5a14b4884e85f47ad8a4a716f13203a" target="_top" xlink:title=" ">
<polygon fill="none" stroke="black" points="848.5,-228.5 848.5,-246.5 896.5,-246.5 896.5,-228.5 848.5,-228.5"/>
<text text-anchor="middle" x="872.5" y="-235.3" font-family="Calibri" font-size="9.00">lcd_pwr</text>
</a>
</g>
</g>
<!-- Node1&#45;&gt;Node17 -->
<g id="edge43" class="edge"><title>Node1&#45;&gt;Node17</title>
<path fill="none" stroke="midnightblue" d="M1107.84,-243.954C1067.57,-229.54 995.824,-209.02 934,-218.5 921.377,-220.436 907.771,-224.518 896.666,-228.405"/>
<polygon fill="midnightblue" stroke="midnightblue" points="1106.78,-247.294 1117.38,-247.465 1109.2,-240.725 1106.78,-247.294"/>
</g>
<!-- Node18 -->
<g id="node18" class="node"><title>Node18</title>
<g id="a_node18"><a xlink:href="main_8c.html#a11724d8cce81ed96bec12a004ea3ea7a" target="_top" xlink:title=" ">
<polygon fill="none" stroke="black" points="736,-266.5 736,-284.5 800,-284.5 800,-266.5 736,-266.5"/>
<text text-anchor="middle" x="768" y="-273.3" font-family="Calibri" font-size="9.00">show_reset</text>
</a>
</g>
</g>
<!-- Node1&#45;&gt;Node18 -->
<g id="edge50" class="edge"><title>Node1&#45;&gt;Node18</title>
<path fill="none" stroke="midnightblue" d="M1100.85,-259.696C1092.34,-260.344 1083.37,-260.984 1075,-261.5 974.679,-267.682 855.7,-272.367 800.294,-274.395"/>
<polygon fill="midnightblue" stroke="midnightblue" points="1101.24,-263.177 1110.94,-258.91 1100.69,-256.198 1101.24,-263.177"/>
</g>
<!-- Node19 -->
<g id="node19" class="node"><title>Node19</title>
<g id="a_node19"><a xlink:href="main_8c.html#aa8fd50019a763561abc6621bb224417f" target="_top" xlink:title=" ">
<polygon fill="none" stroke="black" points="939.5,-228.5 939.5,-246.5 986.5,-246.5 986.5,-228.5 939.5,-228.5"/>
<text text-anchor="middle" x="963" y="-235.3" font-family="Calibri" font-size="9.00">lcd_swr</text>
</a>
</g>
</g>
<!-- Node1&#45;&gt;Node19 -->
<g id="edge44" class="edge"><title>Node1&#45;&gt;Node19</title>
<path fill="none" stroke="midnightblue" d="M1100.59,-252.288C1065.64,-248.504 1015.51,-243.077 986.707,-239.958"/>
<polygon fill="midnightblue" stroke="midnightblue" points="1100.59,-255.808 1110.91,-253.405 1101.35,-248.849 1100.59,-255.808"/>
</g>
<!-- Node20 -->
<g id="node20" class="node"><title>Node20</title>
<g id="a_node20"><a xlink:href="main_8c.html#aad7203cfd92bc4b814e43c04a209f634" target="_top" xlink:title=" ">
<polygon fill="none" stroke="black" points="629,-0.5 629,-18.5 689,-18.5 689,-0.5 629,-0.5"/>
<text text-anchor="middle" x="659" y="-7.3" font-family="Calibri" font-size="9.00">show_loss</text>
</a>
</g>
</g>
<!-- Node1&#45;&gt;Node20 -->
<g id="edge47" class="edge"><title>Node1&#45;&gt;Node20</title>
<path fill="none" stroke="midnightblue" d="M1137.37,-236.954C1132.48,-200.363 1117.37,-120.698 1075,-70.5 1038.69,-27.4835 1020.29,-9.5 964,-9.5 964,-9.5 964,-9.5 871.5,-9.5 806.324,-9.5 729.851,-9.5 689.08,-9.5"/>
<polygon fill="midnightblue" stroke="midnightblue" points="1133.94,-237.726 1138.63,-247.228 1140.89,-236.878 1133.94,-237.726"/>
</g>
<!-- Node2&#45;&gt;Node3 -->
<g id="edge2" class="edge"><title>Node2&#45;&gt;Node3</title>
<path fill="none" stroke="midnightblue" d="M185.35,-449.179C165.508,-429.125 132.525,-395.791 116.624,-379.721"/>
<polygon fill="midnightblue" stroke="midnightblue" points="182.965,-451.744 192.487,-456.391 187.941,-446.821 182.965,-451.744"/>
</g>
<!-- Node3&#45;&gt;Node4 -->
<g id="edge3" class="edge"><title>Node3&#45;&gt;Node4</title>
<path fill="none" stroke="midnightblue" d="M98.4925,-351.813C81.042,-305.279 36.1328,-185.521 23.4069,-151.585"/>
<polygon fill="midnightblue" stroke="midnightblue" points="95.254,-353.145 102.042,-361.28 101.808,-350.687 95.254,-353.145"/>
</g>
<!-- Node5&#45;&gt;Node4 -->
<g id="edge6" class="edge"><title>Node5&#45;&gt;Node4</title>
<path fill="none" stroke="midnightblue" d="M714.723,-123.5C673.511,-123.5 614.587,-123.5 563,-123.5 563,-123.5 563,-123.5 201.5,-123.5 141.461,-123.5 70.8557,-133.911 38.2251,-139.32"/>
<polygon fill="midnightblue" stroke="midnightblue" points="714.804,-127 724.804,-123.5 714.804,-120 714.804,-127"/>
</g>
<!-- Node6&#45;&gt;Node2 -->
<g id="edge8" class="edge"><title>Node6&#45;&gt;Node2</title>
<path fill="none" stroke="midnightblue" d="M1045.77,-408.532C1038.31,-435.261 1021.51,-484.152 992,-515.5 950.975,-559.087 933.357,-579.5 873.5,-579.5 873.5,-579.5 873.5,-579.5 363.5,-579.5 291.533,-579.5 229.505,-502.056 209.922,-474.829"/>
<polygon fill="midnightblue" stroke="midnightblue" points="1049.24,-409.112 1048.41,-398.55 1042.47,-407.323 1049.24,-409.112"/>
</g>
<!-- Node6&#45;&gt;Node3 -->
<g id="edge9" class="edge"><title>Node6&#45;&gt;Node3</title>
<path fill="none" stroke="midnightblue" d="M1048.33,-408.824C1043.64,-442.357 1029.76,-511.905 992,-555.5 953.085,-600.43 932.94,-617.5 873.5,-617.5 873.5,-617.5 873.5,-617.5 282.5,-617.5 163.465,-617.5 118.074,-424.146 109.194,-379.584"/>
<polygon fill="midnightblue" stroke="midnightblue" points="1051.84,-408.927 1049.63,-398.567 1044.9,-408.048 1051.84,-408.927"/>
</g>
<!-- Node6&#45;&gt;Node4 -->
<g id="edge15" class="edge"><title>Node6&#45;&gt;Node4</title>
<path fill="none" stroke="midnightblue" d="M1048.65,-408.563C1041.04,-475.172 1005.99,-693.5 873.5,-693.5 873.5,-693.5 873.5,-693.5 201.5,-693.5 82.4035,-693.5 28.4537,-223.244 20.9258,-151.604"/>
<polygon fill="midnightblue" stroke="midnightblue" points="1052.13,-408.912 1049.71,-398.598 1045.17,-408.172 1052.13,-408.912"/>
</g>
<!-- Node6&#45;&gt;Node5 -->
<g id="edge10" class="edge"><title>Node6&#45;&gt;Node5</title>
<path fill="none" stroke="midnightblue" d="M1035.91,-372.463C1003.63,-334.876 926.732,-246.001 898,-218.5 861.945,-183.991 852.14,-175.755 811,-147.5 803.247,-142.175 794.238,-136.916 786.557,-132.684"/>
<polygon fill="midnightblue" stroke="midnightblue" points="1033.6,-375.145 1042.77,-380.456 1038.91,-370.587 1033.6,-375.145"/>
</g>
<!-- Node6&#45;&gt;Node7 -->
<g id="edge11" class="edge"><title>Node6&#45;&gt;Node7</title>
<path fill="none" stroke="midnightblue" d="M1044.92,-370.54C1028.16,-313.576 978.671,-145.365 966.652,-104.515"/>
<polygon fill="midnightblue" stroke="midnightblue" points="1041.64,-371.773 1047.82,-380.379 1048.35,-369.797 1041.64,-371.773"/>
</g>
<!-- Node6&#45;&gt;Node9 -->
<g id="edge16" class="edge"><title>Node6&#45;&gt;Node9</title>
<path fill="none" stroke="midnightblue" d="M1020.5,-376.319C1008.67,-371.122 995.371,-365.281 984.652,-360.573"/>
<polygon fill="midnightblue" stroke="midnightblue" points="1019.44,-379.677 1030,-380.495 1022.25,-373.268 1019.44,-379.677"/>
</g>
<!-- Node14 -->
<g id="node14" class="node"><title>Node14</title>
<g id="a_node14"><a xlink:href="main_8h.html#a1849f2e5bd63d11a7b9549470e287d17" target="_top" xlink:title=" ">
<polygon fill="none" stroke="black" points="266,-456.5 266,-474.5 301,-474.5 301,-456.5 266,-456.5"/>
<text text-anchor="middle" x="283.5" y="-463.3" font-family="Calibri" font-size="9.00">tune</text>
</a>
</g>
</g>
<!-- Node6&#45;&gt;Node14 -->
<g id="edge41" class="edge"><title>Node6&#45;&gt;Node14</title>
<path fill="none" stroke="midnightblue" d="M1040.91,-407.297C1017.84,-447.428 955.075,-541.5 873.5,-541.5 873.5,-541.5 873.5,-541.5 460.5,-541.5 393.602,-541.5 323.256,-494.648 296.117,-474.517"/>
<polygon fill="midnightblue" stroke="midnightblue" points="1043.97,-408.99 1045.79,-398.553 1037.86,-405.577 1043.97,-408.99"/>
</g>
<!-- Node6&#45;&gt;Node18 -->
<g id="edge40" class="edge"><title>Node6&#45;&gt;Node18</title>
<path fill="none" stroke="midnightblue" d="M1017.32,-386.896C993.577,-384.296 961.141,-379.221 934,-369.5 872.856,-347.6 808.107,-303.741 781.509,-284.688"/>
<polygon fill="midnightblue" stroke="midnightblue" points="1017.27,-390.409 1027.57,-387.925 1017.97,-383.444 1017.27,-390.409"/>
</g>
<!-- Node7&#45;&gt;Node4 -->
<g id="edge12" class="edge"><title>Node7&#45;&gt;Node4</title>
<path fill="none" stroke="midnightblue" d="M926.51,-92.5578C887.814,-89.6077 824.05,-85.5 769,-85.5 769,-85.5 769,-85.5 201.5,-85.5 138.417,-85.5 68.4326,-117.229 36.9605,-133.342"/>
<polygon fill="midnightblue" stroke="midnightblue" points="926.489,-96.0667 936.731,-93.3547 927.033,-89.0879 926.489,-96.0667"/>
</g>
<!-- Node7&#45;&gt;Node8 -->
<g id="edge13" class="edge"><title>Node7&#45;&gt;Node8</title>
<path fill="none" stroke="midnightblue" d="M936.218,-81.5166C921.447,-73.5052 903.33,-63.679 890.372,-56.6511"/>
<polygon fill="midnightblue" stroke="midnightblue" points="934.895,-84.7805 945.354,-86.4716 938.232,-78.6273 934.895,-84.7805"/>
</g>
<!-- Node8&#45;&gt;Node4 -->
<g id="edge14" class="edge"><title>Node8&#45;&gt;Node4</title>
<path fill="none" stroke="midnightblue" d="M836.52,-47.5C794.578,-47.5 722.152,-47.5 660,-47.5 660,-47.5 660,-47.5 201.5,-47.5 143.838,-47.5 123.058,-41.1982 74,-71.5 49.2297,-86.8 31.7182,-117.919 24.163,-133.371"/>
<polygon fill="midnightblue" stroke="midnightblue" points="836.754,-51.0001 846.754,-47.5 836.754,-44.0001 836.754,-51.0001"/>
</g>
<!-- Node10 -->
<g id="node10" class="node"><title>Node10</title>
<g id="a_node10"><a xlink:href="main_8h.html#ad7eb7423e0b17ccfba1ae42f3a3274e0" target="_top" xlink:title=" ">
<polygon fill="none" stroke="black" points="635,-361.5 635,-379.5 683,-379.5 683,-361.5 635,-361.5"/>
<text text-anchor="middle" x="659" y="-368.3" font-family="Calibri" font-size="9.00">get_swr</text>
</a>
</g>
</g>
<!-- Node9&#45;&gt;Node10 -->
<g id="edge17" class="edge"><title>Node9&#45;&gt;Node10</title>
<path fill="none" stroke="midnightblue" d="M923.854,-353.9C860.353,-357.895 734.838,-365.792 683.113,-369.046"/>
<polygon fill="midnightblue" stroke="midnightblue" points="924.099,-357.391 933.86,-353.27 923.66,-350.405 924.099,-357.391"/>
</g>
<!-- Node9&#45;&gt;Node17 -->
<g id="edge32" class="edge"><title>Node9&#45;&gt;Node17</title>
<path fill="none" stroke="midnightblue" d="M942.31,-335.818C939.399,-333.166 936.532,-330.346 934,-327.5 910.1,-300.632 888.185,-263.757 878.598,-246.764"/>
<polygon fill="midnightblue" stroke="midnightblue" points="940.046,-338.487 949.913,-342.347 944.607,-333.177 940.046,-338.487"/>
</g>
<!-- Node11 -->
<g id="node11" class="node"><title>Node11</title>
<g id="a_node11"><a xlink:href="main_8h.html#a740ef1b33bb02cd952ad7d8708999472" target="_top" xlink:title=" ">
<polygon fill="none" stroke="black" points="531,-380.5 531,-398.5 593,-398.5 593,-380.5 531,-380.5"/>
<text text-anchor="middle" x="562" y="-387.3" font-family="Calibri" font-size="9.00">coarse_cap</text>
</a>
</g>
</g>
<!-- Node10&#45;&gt;Node11 -->
<g id="edge18" class="edge"><title>Node10&#45;&gt;Node11</title>
<path fill="none" stroke="midnightblue" d="M624.635,-377.173C614.348,-379.23 603.087,-381.483 593.038,-383.492"/>
<polygon fill="midnightblue" stroke="midnightblue" points="625.397,-380.59 634.517,-375.197 624.025,-373.726 625.397,-380.59"/>
</g>
<!-- Node12 -->
<g id="node12" class="node"><title>Node12</title>
<g id="a_node12"><a xlink:href="main_8h.html#a5c7c60c7d70cf76cc52e87722bb0f614" target="_top" xlink:title=" ">
<polygon fill="none" stroke="black" points="428,-418.5 428,-436.5 495,-436.5 495,-418.5 428,-418.5"/>
<text text-anchor="middle" x="461.5" y="-425.3" font-family="Calibri" font-size="9.00">coarse_tune</text>
</a>
</g>
</g>
<!-- Node10&#45;&gt;Node12 -->
<g id="edge23" class="edge"><title>Node10&#45;&gt;Node12</title>
<path fill="none" stroke="midnightblue" d="M636.665,-385.292C624.416,-393.091 608.441,-402.128 593,-407.5 560.852,-418.683 522.089,-423.622 495.203,-425.798"/>
<polygon fill="midnightblue" stroke="midnightblue" points="638.807,-388.073 645.235,-379.652 634.958,-382.226 638.807,-388.073"/>
</g>
<!-- Node13 -->
<g id="node13" class="node"><title>Node13</title>
<g id="a_node13"><a xlink:href="main_8h.html#a454a7687c8039514766571b23516ca9c" target="_top" xlink:title=" ">
<polygon fill="none" stroke="black" points="337,-418.5 337,-436.5 392,-436.5 392,-418.5 337,-418.5"/>
<text text-anchor="middle" x="364.5" y="-425.3" font-family="Calibri" font-size="9.00">sub_tune</text>
</a>
</g>
</g>
<!-- Node10&#45;&gt;Node13 -->
<g id="edge30" class="edge"><title>Node10&#45;&gt;Node13</title>
<path fill="none" stroke="midnightblue" d="M624.871,-367.524C599.097,-365.923 562.536,-365.221 531,-370.5 476.151,-379.681 415.148,-404.863 384.818,-418.478"/>
<polygon fill="midnightblue" stroke="midnightblue" points="624.648,-371.017 634.868,-368.223 625.137,-364.034 624.648,-371.017"/>
</g>
<!-- Node10&#45;&gt;Node14 -->
<g id="edge31" class="edge"><title>Node10&#45;&gt;Node14</title>
<path fill="none" stroke="midnightblue" d="M624.768,-365.615C614.597,-364.335 603.36,-363.135 593,-362.5 519.577,-357.999 499.509,-358.249 428,-375.5 386.178,-385.589 372.816,-384.665 337,-408.5 317.287,-421.618 299.865,-443.64 290.901,-456.123"/>
<polygon fill="midnightblue" stroke="midnightblue" points="624.526,-369.114 634.9,-366.959 625.446,-362.174 624.526,-369.114"/>
</g>
<!-- Node15 -->
<g id="node15" class="node"><title>Node15</title>
<g id="a_node15"><a xlink:href="main_8h.html#ab518a3d2c723f12d3af3024a195606ce" target="_top" xlink:title=" ">
<polygon fill="none" stroke="black" points="432,-494.5 432,-512.5 491,-512.5 491,-494.5 432,-494.5"/>
<text text-anchor="middle" x="461.5" y="-501.3" font-family="Calibri" font-size="9.00">sharp_cap</text>
</a>
</g>
</g>
<!-- Node10&#45;&gt;Node15 -->
<g id="edge24" class="edge"><title>Node10&#45;&gt;Node15</title>
<path fill="none" stroke="midnightblue" d="M648.176,-388.464C637.045,-407.3 617.259,-436.599 593,-454.5 562.038,-477.347 519.195,-490.716 491.174,-497.567"/>
<polygon fill="midnightblue" stroke="midnightblue" points="651.27,-390.104 653.185,-379.684 645.19,-386.635 651.27,-390.104"/>
</g>
<!-- Node16 -->
<g id="node16" class="node"><title>Node16</title>
<g id="a_node16"><a xlink:href="main_8h.html#a72210b3ed1d5691c5bbda8c7f1e97197" target="_top" xlink:title=" ">
<polygon fill="none" stroke="black" points="432.5,-456.5 432.5,-474.5 490.5,-474.5 490.5,-456.5 432.5,-456.5"/>
<text text-anchor="middle" x="461.5" y="-463.3" font-family="Calibri" font-size="9.00">sharp_ind</text>
</a>
</g>
</g>
<!-- Node10&#45;&gt;Node16 -->
<g id="edge27" class="edge"><title>Node10&#45;&gt;Node16</title>
<path fill="none" stroke="midnightblue" d="M643.382,-387.16C631.127,-400.162 612.539,-417.765 593,-428.5 560.287,-446.474 518.057,-456.374 490.634,-461.309"/>
<polygon fill="midnightblue" stroke="midnightblue" points="645.981,-389.504 650.145,-379.762 640.815,-384.781 645.981,-389.504"/>
</g>
<!-- Node11&#45;&gt;Node12 -->
<g id="edge19" class="edge"><title>Node11&#45;&gt;Node12</title>
<path fill="none" stroke="midnightblue" d="M528.041,-402.215C514.272,-407.527 498.589,-413.577 486.017,-418.427"/>
<polygon fill="midnightblue" stroke="midnightblue" points="529.587,-405.37 537.657,-398.505 527.067,-398.839 529.587,-405.37"/>
</g>
<!-- Node12&#45;&gt;Node13 -->
<g id="edge20" class="edge"><title>Node12&#45;&gt;Node13</title>
<path fill="none" stroke="midnightblue" d="M417.785,-427.5C409.104,-427.5 400.207,-427.5 392.271,-427.5"/>
<polygon fill="midnightblue" stroke="midnightblue" points="417.806,-431 427.806,-427.5 417.806,-424 417.806,-431"/>
</g>
<!-- Node13&#45;&gt;Node14 -->
<g id="edge21" class="edge"><title>Node13&#45;&gt;Node14</title>
<path fill="none" stroke="midnightblue" d="M335.566,-440.936C324.085,-446.459 311.174,-452.669 301.207,-457.464"/>
<polygon fill="midnightblue" stroke="midnightblue" points="337.284,-443.994 344.778,-436.505 334.249,-437.686 337.284,-443.994"/>
</g>
<!-- Node14&#45;&gt;Node2 -->
<g id="edge22" class="edge"><title>Node14&#45;&gt;Node2</title>
<path fill="none" stroke="midnightblue" d="M255.568,-465.5C247.367,-465.5 238.36,-465.5 230.177,-465.5"/>
<polygon fill="midnightblue" stroke="midnightblue" points="255.746,-469 265.746,-465.5 255.746,-462 255.746,-469"/>
</g>
<!-- Node15&#45;&gt;Node13 -->
<g id="edge25" class="edge"><title>Node15&#45;&gt;Node13</title>
<path fill="none" stroke="midnightblue" d="M435.955,-489.052C433.223,-487.252 430.52,-485.381 428,-483.5 407.917,-468.512 386.607,-448.385 374.785,-436.79"/>
<polygon fill="midnightblue" stroke="midnightblue" points="434.26,-492.121 444.588,-494.486 437.989,-486.197 434.26,-492.121"/>
</g>
<!-- Node15&#45;&gt;Node14 -->
<g id="edge26" class="edge"><title>Node15&#45;&gt;Node14</title>
<path fill="none" stroke="midnightblue" d="M421.972,-496.716C397.538,-492.241 365.309,-486.017 337,-479.5 325.05,-476.749 311.698,-473.182 301.45,-470.337"/>
<polygon fill="midnightblue" stroke="midnightblue" points="421.468,-500.182 431.933,-498.523 422.718,-493.294 421.468,-500.182"/>
</g>
<!-- Node16&#45;&gt;Node13 -->
<g id="edge28" class="edge"><title>Node16&#45;&gt;Node13</title>
<path fill="none" stroke="midnightblue" d="M428.325,-452.63C415.139,-447.356 400.189,-441.376 388.181,-436.573"/>
<polygon fill="midnightblue" stroke="midnightblue" points="427.402,-456.03 437.986,-456.495 430.001,-449.531 427.402,-456.03"/>
</g>
<!-- Node16&#45;&gt;Node14 -->
<g id="edge29" class="edge"><title>Node16&#45;&gt;Node14</title>
<path fill="none" stroke="midnightblue" d="M422.097,-465.5C384.36,-465.5 328.557,-465.5 301.055,-465.5"/>
<polygon fill="midnightblue" stroke="midnightblue" points="422.223,-469 432.223,-465.5 422.223,-462 422.223,-469"/>
</g>
<!-- Node17&#45;&gt;Node2 -->
<g id="edge33" class="edge"><title>Node17&#45;&gt;Node2</title>
<path fill="none" stroke="midnightblue" d="M838.213,-237.5C796.548,-237.5 722.997,-237.5 660,-237.5 660,-237.5 660,-237.5 363.5,-237.5 254.696,-237.5 213.553,-413.625 205.184,-456.28"/>
<polygon fill="midnightblue" stroke="midnightblue" points="838.341,-241 848.341,-237.5 838.341,-234 838.341,-241"/>
</g>
<!-- Node17&#45;&gt;Node3 -->
<g id="edge34" class="edge"><title>Node17&#45;&gt;Node3</title>
<path fill="none" stroke="midnightblue" d="M838.472,-227.807C797.131,-216.548 723.969,-199.5 660,-199.5 660,-199.5 660,-199.5 282.5,-199.5 189.048,-199.5 126.975,-325.788 111.365,-361.306"/>
<polygon fill="midnightblue" stroke="midnightblue" points="837.7,-231.225 848.272,-230.53 839.575,-224.48 837.7,-231.225"/>
</g>
<!-- Node17&#45;&gt;Node4 -->
<g id="edge36" class="edge"><title>Node17&#45;&gt;Node4</title>
<path fill="none" stroke="midnightblue" d="M849.953,-222.682C838.733,-215.491 824.556,-207.197 811,-201.5 746.997,-174.601 729.426,-161.5 660,-161.5 660,-161.5 660,-161.5 201.5,-161.5 141.461,-161.5 70.8557,-151.089 38.2251,-145.68"/>
<polygon fill="midnightblue" stroke="midnightblue" points="848.328,-225.803 858.604,-228.382 852.18,-219.957 848.328,-225.803"/>
</g>
<!-- Node17&#45;&gt;Node5 -->
<g id="edge35" class="edge"><title>Node17&#45;&gt;Node5</title>
<path fill="none" stroke="midnightblue" d="M853.243,-220.841C851.028,-218.473 848.886,-215.993 847,-213.5 826.845,-186.85 834.392,-171.359 811,-147.5 805.121,-141.503 797.426,-136.529 790.231,-132.694"/>
<polygon fill="midnightblue" stroke="midnightblue" points="851.216,-223.759 860.784,-228.31 856.143,-218.786 851.216,-223.759"/>
</g>
<!-- Node17&#45;&gt;Node18 -->
<g id="edge37" class="edge"><title>Node17&#45;&gt;Node18</title>
<path fill="none" stroke="midnightblue" d="M838.747,-249.643C824.015,-255.104 806.929,-261.439 793.355,-266.471"/>
<polygon fill="midnightblue" stroke="midnightblue" points="840.337,-252.786 848.497,-246.028 837.904,-246.222 840.337,-252.786"/>
</g>
<!-- Node18&#45;&gt;Node3 -->
<g id="edge38" class="edge"><title>Node18&#45;&gt;Node3</title>
<path fill="none" stroke="midnightblue" d="M725.698,-275.5C684.489,-275.5 619.364,-275.5 563,-275.5 563,-275.5 563,-275.5 282.5,-275.5 210.94,-275.5 140.687,-337.613 116.415,-361.391"/>
<polygon fill="midnightblue" stroke="midnightblue" points="725.895,-279 735.895,-275.5 725.895,-272 725.895,-279"/>
</g>
<!-- Node18&#45;&gt;Node10 -->
<g id="edge39" class="edge"><title>Node18&#45;&gt;Node10</title>
<path fill="none" stroke="midnightblue" d="M749.213,-291.292C726.696,-311.284 688.646,-345.067 670.386,-361.279"/>
<polygon fill="midnightblue" stroke="midnightblue" points="751.586,-293.866 756.74,-284.609 746.939,-288.631 751.586,-293.866"/>
</g>
<!-- Node19&#45;&gt;Node17 -->
<g id="edge45" class="edge"><title>Node19&#45;&gt;Node17</title>
<path fill="none" stroke="midnightblue" d="M929.193,-237.5C918.333,-237.5 906.486,-237.5 896.521,-237.5"/>
<polygon fill="midnightblue" stroke="midnightblue" points="929.209,-241 939.209,-237.5 929.209,-234 929.209,-241"/>
</g>
<!-- Node20&#45;&gt;Node4 -->
<g id="edge48" class="edge"><title>Node20&#45;&gt;Node4</title>
<path fill="none" stroke="midnightblue" d="M618.85,-9.5C579.382,-9.5 516.713,-9.5 462.5,-9.5 462.5,-9.5 462.5,-9.5 201.5,-9.5 143.838,-9.5 119.958,1.32459 74,-33.5 39.9993,-59.264 26.0345,-112.235 21.6559,-133.435"/>
<polygon fill="midnightblue" stroke="midnightblue" points="618.853,-13.0001 628.853,-9.5 618.853,-6.0001 618.853,-13.0001"/>
</g>
</g>
</svg>
        <g id="navigator" transform="translate(0 0)" fill="#404254">
                <rect fill="#f2f5e9" fill-opacity="0.5" stroke="#606060" stroke-width=".5" x="0" y="0" width="60" height="60"/>
                <use id="zoomplus" xlink:href="#zoomPlus" x="17" y="9" onmousedown="handleZoom(evt,'in')"/>
                <use id="zoomminus" xlink:href="#zoomMin" x="42" y="9" onmousedown="handleZoom(evt,'out')"/>
                <use id="reset" xlink:href="#resetDef" x="30" y="36" onmousedown="handleReset()"/>
                <g id="arrowUp" xlink:href="#dirArrow" transform="translate(30 24)" onmousedown="handlePan(0,-1)">
                  <use xlink:href="#rim" fill="#404040">
                        <set attributeName="fill" to="#808080" begin="arrowUp.mouseover" end="arrowUp.mouseout"/>
                  </use>
                  <path fill="none" stroke="white" stroke-width="1.5" d="M0,-3.0v7 M-2.5,-0.5L0,-3.0L2.5,-0.5"/>
                </g>
                <g id="arrowRight" xlink:href="#dirArrow" transform="rotate(90) translate(36 -43)" onmousedown="handlePan(1,0)">
                  <use xlink:href="#rim" fill="#404040">
                        <set attributeName="fill" to="#808080" begin="arrowRight.mouseover" end="arrowRight.mouseout"/>
                  </use>
                  <path fill="none" stroke="white" stroke-width="1.5" d="M0,-3.0v7 M-2.5,-0.5L0,-3.0L2.5,-0.5"/>
                </g>
                <g id="arrowDown" xlink:href="#dirArrow" transform="rotate(180) translate(-30 -48)" onmousedown="handlePan(0,1)">
                  <use xlink:href="#rim" fill="#404040">
                        <set attributeName="fill" to="#808080" begin="arrowDown.mouseover" end="arrowDown.mouseout"/>
                  </use>
                  <path fill="none" stroke="white" stroke-width="1.5" d="M0,-3.0v7 M-2.5,-0.5L0,-3.0L2.5,-0.5"/>
                </g>
                <g id="arrowLeft" xlink:href="#dirArrow" transform="rotate(270) translate(-36 17)" onmousedown="handlePan(-1,0)">
                  <use xlink:href="#rim" fill="#404040">
                        <set attributeName="fill" to="#808080" begin="arrowLeft.mouseover" end="arrowLeft.mouseout"/>
                  </use>
                  <path fill="none" stroke="white" stroke-width="1.5" d="M0,-3.0v7 M-2.5,-0.5L0,-3.0L2.5,-0.5"/>
                </g>
        </g>
        <svg viewBox="0 0 15 15" width="100%" height="30px" preserveAspectRatio="xMaxYMin meet">
         <g id="arrow_out" transform="scale(0.3 0.3)">
          <a xlink:href="oled__control_8h_ab272af1010175ba1166b08b8b3df6874_icgraph_org.svg" target="_base">
           <rect id="button" ry="5" rx="5" y="6" x="6" height="38" width="38"
                fill="#f2f5e9" fill-opacity="0.5" stroke="#606060" stroke-width="1.0"/>
           <path id="arrow"
             d="M 11.500037,31.436501 C 11.940474,20.09759 22.043105,11.32322 32.158766,21.979434 L 37.068811,17.246167 C 37.068811,17.246167 37.088388,32 37.088388,32 L 22.160133,31.978069 C 22.160133,31.978069 26.997745,27.140456 26.997745,27.140456 C 18.528582,18.264221 13.291696,25.230495 11.500037,31.436501 z"
             style="fill:#404040;"/>
          </a>
         </g>
        </svg>
</svg>
