<?xml version="1.0" encoding="UTF-8" standalone="no"?>
<!DOCTYPE svg PUBLIC "-//W3C//DTD SVG 1.1//EN"
 "http://www.w3.org/Graphics/SVG/1.1/DTD/svg11.dtd">
<!-- Generated by graphviz version 2.38.0 (20140413.2041)
 -->
<!-- Title: dysp_on Pages: 1 -->
<svg width="287pt" height="101pt"
 viewBox="0.00 0.00 287.00 101.00" xmlns="http://www.w3.org/2000/svg" xmlns:xlink="http://www.w3.org/1999/xlink">
<g id="graph0" class="graph" transform="scale(1 1) rotate(0) translate(4 97)">
<title>dysp_on</title>
<!-- Node1 -->
<g id="node1" class="node"><title>Node1</title>
<g id="a_node1"><a xlink:title=" ">
<polygon fill="#bfbfbf" stroke="black" points="0,-36.5 0,-54.5 50,-54.5 50,-36.5 0,-36.5"/>
<text text-anchor="middle" x="25" y="-43.3" font-family="Calibri" font-size="9.00">dysp_on</text>
</a>
</g>
</g>
<!-- Node2 -->
<g id="node2" class="node"><title>Node2</title>
<g id="a_node2"><a xlink:href="oled__control_8c.html#ad25764a33e482f4e9db2701198e02551" target="_top" xlink:title=" ">
<polygon fill="none" stroke="black" points="99,-55.5 99,-73.5 154,-73.5 154,-55.5 99,-55.5"/>
<text text-anchor="middle" x="126.5" y="-62.3" font-family="Calibri" font-size="9.00">led_send</text>
</a>
</g>
</g>
<!-- Node1&#45;&gt;Node2 -->
<g id="edge1" class="edge"><title>Node1&#45;&gt;Node2</title>
<path fill="none" stroke="midnightblue" d="M50.0862,-50.0994C61.7041,-52.3179 75.8932,-55.0274 88.8164,-57.4951"/>
<polygon fill="midnightblue" stroke="midnightblue" points="88.3568,-60.9705 98.8358,-59.4083 89.6698,-54.0947 88.3568,-60.9705"/>
</g>
<!-- Node6 -->
<g id="node6" class="node"><title>Node6</title>
<g id="a_node6"><a xlink:href="oled__control_8c.html#ad141ed038278a6fcad6c307932f01ec8" target="_top" xlink:title=" ">
<polygon fill="none" stroke="black" points="86,-18.5 86,-36.5 167,-36.5 167,-18.5 86,-18.5"/>
<text text-anchor="middle" x="126.5" y="-25.3" font-family="Calibri" font-size="9.00">send_command</text>
</a>
</g>
</g>
<!-- Node1&#45;&gt;Node6 -->
<g id="edge5" class="edge"><title>Node1&#45;&gt;Node6</title>
<path fill="none" stroke="midnightblue" d="M50.0862,-41.1427C57.8587,-39.7366 66.7821,-38.1223 75.7073,-36.5077"/>
<polygon fill="midnightblue" stroke="midnightblue" points="76.5064,-39.9201 85.7236,-34.6957 75.2603,-33.0319 76.5064,-39.9201"/>
</g>
<!-- Node3 -->
<g id="node3" class="node"><title>Node3</title>
<g id="a_node3"><a xlink:href="oled__control_8c.html#ab7f6b5c6c1483f6286f2de5786c028d9" target="_top" xlink:title=" ">
<polygon fill="none" stroke="black" points="205,-74.5 205,-92.5 277,-92.5 277,-74.5 205,-74.5"/>
<text text-anchor="middle" x="241" y="-81.3" font-family="Calibri" font-size="9.00">Soft_I2C_Start</text>
</a>
</g>
</g>
<!-- Node2&#45;&gt;Node3 -->
<g id="edge2" class="edge"><title>Node2&#45;&gt;Node3</title>
<path fill="none" stroke="midnightblue" d="M154.161,-69.0027C166.173,-71.0315 180.703,-73.4853 194.365,-75.7928"/>
<polygon fill="midnightblue" stroke="midnightblue" points="194.144,-79.305 204.588,-77.5192 195.31,-72.4027 194.144,-79.305"/>
</g>
<!-- Node4 -->
<g id="node4" class="node"><title>Node4</title>
<g id="a_node4"><a xlink:href="oled__control_8c.html#a16eb842aa672ca44820ae6d5f9933425" target="_top" xlink:title=" ">
<polygon fill="none" stroke="black" points="205.5,-37.5 205.5,-55.5 276.5,-55.5 276.5,-37.5 205.5,-37.5"/>
<text text-anchor="middle" x="241" y="-44.3" font-family="Calibri" font-size="9.00">Soft_I2C_Stop</text>
</a>
</g>
</g>
<!-- Node2&#45;&gt;Node4 -->
<g id="edge3" class="edge"><title>Node2&#45;&gt;Node4</title>
<path fill="none" stroke="midnightblue" d="M154.161,-60.2343C166.5,-58.26 181.495,-55.8607 195.478,-53.6234"/>
<polygon fill="midnightblue" stroke="midnightblue" points="196.108,-57.0674 205.429,-52.0314 195.002,-50.1553 196.108,-57.0674"/>
</g>
<!-- Node5 -->
<g id="node5" class="node"><title>Node5</title>
<g id="a_node5"><a xlink:href="oled__control_8c.html#a73610916645f17c19124e697b005f694" target="_top" xlink:title=" ">
<polygon fill="none" stroke="black" points="203,-0.5 203,-18.5 279,-18.5 279,-0.5 203,-0.5"/>
<text text-anchor="middle" x="241" y="-7.3" font-family="Calibri" font-size="9.00">Soft_I2C_Write</text>
</a>
</g>
</g>
<!-- Node2&#45;&gt;Node5 -->
<g id="edge4" class="edge"><title>Node2&#45;&gt;Node5</title>
<path fill="none" stroke="midnightblue" d="M148.077,-55.3185C154.191,-52.5376 160.888,-49.44 167,-46.5 175.805,-42.2647 196.218,-31.9012 213.226,-23.2164"/>
<polygon fill="midnightblue" stroke="midnightblue" points="214.918,-26.2822 222.229,-18.6138 211.732,-20.0494 214.918,-26.2822"/>
</g>
<!-- Node6&#45;&gt;Node3 -->
<g id="edge6" class="edge"><title>Node6&#45;&gt;Node3</title>
<path fill="none" stroke="midnightblue" d="M146.858,-36.6342C153.291,-39.7171 160.477,-43.2112 167,-46.5 183.155,-54.6448 186.863,-57.3194 203,-65.5 205.931,-66.9858 209.003,-68.5189 212.071,-70.0342"/>
<polygon fill="midnightblue" stroke="midnightblue" points="210.597,-73.2095 221.118,-74.4619 213.675,-66.9222 210.597,-73.2095"/>
</g>
<!-- Node6&#45;&gt;Node4 -->
<g id="edge7" class="edge"><title>Node6&#45;&gt;Node4</title>
<path fill="none" stroke="midnightblue" d="M167.163,-34.1987C176.269,-35.7365 186.011,-37.3819 195.313,-38.9528"/>
<polygon fill="midnightblue" stroke="midnightblue" points="194.739,-42.4054 205.182,-40.6196 195.904,-35.5031 194.739,-42.4054"/>
</g>
<!-- Node6&#45;&gt;Node5 -->
<g id="edge8" class="edge"><title>Node6&#45;&gt;Node5</title>
<path fill="none" stroke="midnightblue" d="M167.163,-21.1539C175.53,-19.8153 184.433,-18.3907 193.039,-17.0138"/>
<polygon fill="midnightblue" stroke="midnightblue" points="193.632,-20.4634 202.954,-15.4274 192.526,-13.5513 193.632,-20.4634"/>
</g>
</g>
</svg>
