<?xml version="1.0" encoding="UTF-8" standalone="no"?>
<!DOCTYPE svg PUBLIC "-//W3C//DTD SVG 1.1//EN"
 "http://www.w3.org/Graphics/SVG/1.1/DTD/svg11.dtd">
<!-- Generated by graphviz version 2.38.0 (20140413.2041)
 -->
<!-- Title: set_addressing Pages: 1 -->
<svg width="1386pt" height="825pt"
 viewBox="0.00 0.00 1386.00 825.00" xmlns="http://www.w3.org/2000/svg" xmlns:xlink="http://www.w3.org/1999/xlink">
<g id="graph0" class="graph" transform="scale(1 1) rotate(0) translate(4 821)">
<title>set_addressing</title>
<!-- Node104 -->
<g id="node1" class="node"><title>Node104</title>
<polygon fill="#bfbfbf" stroke="black" points="0,-693.5 0,-711.5 80,-711.5 80,-693.5 0,-693.5"/>
<text text-anchor="middle" x="40" y="-700.3" font-family="Calibri" font-size="9.00">set_addressing</text>
</g>
<!-- Node105 -->
<g id="node2" class="node"><title>Node105</title>
<g id="a_node2"><a xlink:href="oled__control_8h.html#ad95f850c4c6d949229270c8da88c02cb" target="_top" xlink:title="oled_init">
<polygon fill="none" stroke="black" points="121.5,-740.5 121.5,-758.5 175.5,-758.5 175.5,-740.5 121.5,-740.5"/>
<text text-anchor="middle" x="148.5" y="-747.3" font-family="Calibri" font-size="9.00">oled_init</text>
</a>
</g>
</g>
<!-- Node104&#45;&gt;Node105 -->
<g id="edge1" class="edge"><title>Node104&#45;&gt;Node105</title>
<path fill="none" stroke="midnightblue" d="M70.9607,-715.722C88.8609,-723.622 111.134,-733.451 127.029,-740.466"/>
<polygon fill="midnightblue" stroke="midnightblue" points="72.0961,-712.398 61.5343,-711.562 69.2699,-718.802 72.0961,-712.398"/>
</g>
<!-- Node108 -->
<g id="node5" class="node"><title>Node108</title>
<g id="a_node5"><a xlink:href="oled__control_8c.html#a7c3a2e5f1fed76dc27692132a2574d27" target="_top" xlink:title="oled_wr_str">
<polygon fill="none" stroke="black" points="116,-646.5 116,-664.5 181,-664.5 181,-646.5 116,-646.5"/>
<text text-anchor="middle" x="148.5" y="-653.3" font-family="Calibri" font-size="9.00">oled_wr_str</text>
</a>
</g>
</g>
<!-- Node104&#45;&gt;Node108 -->
<g id="edge4" class="edge"><title>Node104&#45;&gt;Node108</title>
<path fill="none" stroke="midnightblue" d="M70.9607,-689.278C88.8609,-681.378 111.134,-671.549 127.029,-664.534"/>
<polygon fill="midnightblue" stroke="midnightblue" points="69.2699,-686.198 61.5343,-693.438 72.0961,-692.602 69.2699,-686.198"/>
</g>
<!-- Node106 -->
<g id="node3" class="node"><title>Node106</title>
<g id="a_node3"><a xlink:href="oled__control_8h.html#a7eb4d382bdd4b42c57dbb7154d03ac66" target="_top" xlink:title="led_init">
<polygon fill="none" stroke="black" points="700,-798.5 700,-816.5 749,-816.5 749,-798.5 700,-798.5"/>
<text text-anchor="middle" x="724.5" y="-805.3" font-family="Calibri" font-size="9.00">led_init</text>
</a>
</g>
</g>
<!-- Node105&#45;&gt;Node106 -->
<g id="edge2" class="edge"><title>Node105&#45;&gt;Node106</title>
<path fill="none" stroke="midnightblue" d="M175.351,-763.098C210.404,-780.241 275.428,-807.5 334.5,-807.5 334.5,-807.5 334.5,-807.5 516.5,-807.5 582.984,-807.5 661.48,-807.5 699.907,-807.5"/>
<polygon fill="midnightblue" stroke="midnightblue" points="176.798,-759.909 166.289,-758.563 173.665,-766.168 176.798,-759.909"/>
</g>
<!-- Node107 -->
<g id="node4" class="node"><title>Node107</title>
<g id="a_node4"><a xlink:href="main_8c.html#acdef7a1fd863a6d3770c1268cb06add3" target="_top" xlink:title="main">
<polygon fill="none" stroke="black" points="1340,-646.5 1340,-664.5 1378,-664.5 1378,-646.5 1340,-646.5"/>
<text text-anchor="middle" x="1359" y="-653.3" font-family="Calibri" font-size="9.00">main</text>
</a>
</g>
</g>
<!-- Node106&#45;&gt;Node107 -->
<g id="edge3" class="edge"><title>Node106&#45;&gt;Node107</title>
<path fill="none" stroke="midnightblue" d="M759.202,-807.5C797.184,-807.5 860.775,-807.5 915.5,-807.5 915.5,-807.5 915.5,-807.5 1176.5,-807.5 1235.26,-807.5 1259.18,-810.498 1304,-772.5 1338.64,-743.134 1352.3,-686.771 1356.47,-664.692"/>
<polygon fill="midnightblue" stroke="midnightblue" points="759.197,-804 749.197,-807.5 759.197,-811 759.197,-804"/>
</g>
<!-- Node109 -->
<g id="node6" class="node"><title>Node109</title>
<g id="a_node6"><a xlink:href="oled__control_8c.html#a9d56c6c2e653b24a0caf505492ad818a" target="_top" xlink:title="led_wr_str">
<polygon fill="none" stroke="black" points="217,-532.5 217,-550.5 276,-550.5 276,-532.5 217,-532.5"/>
<text text-anchor="middle" x="246.5" y="-539.3" font-family="Calibri" font-size="9.00">led_wr_str</text>
</a>
</g>
</g>
<!-- Node108&#45;&gt;Node109 -->
<g id="edge5" class="edge"><title>Node108&#45;&gt;Node109</title>
<path fill="none" stroke="midnightblue" d="M163.897,-638.404C184.523,-613.91 221.76,-569.691 237.804,-550.639"/>
<polygon fill="midnightblue" stroke="midnightblue" points="161.12,-636.267 157.356,-646.171 166.475,-640.776 161.12,-636.267"/>
</g>
<!-- Node109&#45;&gt;Node107 -->
<g id="edge6" class="edge"><title>Node109&#45;&gt;Node107</title>
<path fill="none" stroke="midnightblue" d="M254.276,-560.14C273.009,-608.004 330.321,-731.5 423,-731.5 423,-731.5 423,-731.5 1176.5,-731.5 1235.5,-731.5 1250.97,-720.375 1304,-694.5 1320.42,-686.487 1337.14,-673.509 1347.54,-664.747"/>
<polygon fill="midnightblue" stroke="midnightblue" points="257.503,-558.777 250.689,-550.664 250.956,-561.256 257.503,-558.777"/>
</g>
<!-- Node110 -->
<g id="node7" class="node"><title>Node110</title>
<g id="a_node7"><a xlink:href="main_8h.html#ac445892220ccb3b4b337dd3e764bd6c6" target="_top" xlink:title="button_proc_test">
<polygon fill="none" stroke="black" points="578,-684.5 578,-702.5 664,-702.5 664,-684.5 578,-684.5"/>
<text text-anchor="middle" x="621" y="-691.3" font-family="Calibri" font-size="9.00">button_proc_test</text>
</a>
</g>
</g>
<!-- Node109&#45;&gt;Node110 -->
<g id="edge7" class="edge"><title>Node109&#45;&gt;Node110</title>
<path fill="none" stroke="midnightblue" d="M263.692,-558.056C276.106,-570.1 294.096,-586.209 312,-597.5 384.563,-643.262 406.486,-651.024 489,-674.5 518.067,-682.77 551.837,-687.557 577.81,-690.257"/>
<polygon fill="midnightblue" stroke="midnightblue" points="265.96,-555.376 256.396,-550.819 261.031,-560.346 265.96,-555.376"/>
</g>
<!-- Node111 -->
<g id="node8" class="node"><title>Node111</title>
<g id="a_node8"><a xlink:href="main_8h.html#a1c9e5d54d8cf7f3d041aa2e0b330b3dd" target="_top" xlink:title="button_proc">
<polygon fill="none" stroke="black" points="1239,-304.5 1239,-322.5 1304,-322.5 1304,-304.5 1239,-304.5"/>
<text text-anchor="middle" x="1271.5" y="-311.3" font-family="Calibri" font-size="9.00">button_proc</text>
</a>
</g>
</g>
<!-- Node109&#45;&gt;Node111 -->
<g id="edge9" class="edge"><title>Node109&#45;&gt;Node111</title>
<path fill="none" stroke="midnightblue" d="M250.507,-522.399C264.642,-435.947 327.813,-85.5 423,-85.5 423,-85.5 423,-85.5 817,-85.5 992.201,-85.5 1066.07,-56.2048 1203,-165.5 1249.35,-202.496 1265.08,-278.387 1269.23,-304.465"/>
<polygon fill="midnightblue" stroke="midnightblue" points="247.032,-521.963 248.901,-532.391 253.944,-523.073 247.032,-521.963"/>
</g>
<!-- Node112 -->
<g id="node9" class="node"><title>Node112</title>
<g id="a_node9"><a xlink:href="main_8h.html#ad9d02e37f1f201576a9d93fd36fc4768" target="_top" xlink:title="show_reset">
<polygon fill="none" stroke="black" points="589,-418.5 589,-436.5 653,-436.5 653,-418.5 589,-418.5"/>
<text text-anchor="middle" x="621" y="-425.3" font-family="Calibri" font-size="9.00">show_reset</text>
</a>
</g>
</g>
<!-- Node109&#45;&gt;Node112 -->
<g id="edge11" class="edge"><title>Node109&#45;&gt;Node112</title>
<path fill="none" stroke="midnightblue" d="M270.172,-526.842C282.359,-519.207 297.768,-509.938 312,-502.5 347.795,-483.793 356.337,-477.178 395,-465.5 462.504,-445.111 544.914,-434.704 588.865,-430.255"/>
<polygon fill="midnightblue" stroke="midnightblue" points="268.126,-523.995 261.553,-532.305 271.873,-529.908 268.126,-523.995"/>
</g>
<!-- Node118 -->
<g id="node15" class="node"><title>Node118</title>
<g id="a_node15"><a xlink:href="main_8h.html#ae9b379f911db06ddd04a15d876ac0732" target="_top" xlink:title="btn_push">
<polygon fill="none" stroke="black" points="1148,-418.5 1148,-436.5 1203,-436.5 1203,-418.5 1148,-418.5"/>
<text text-anchor="middle" x="1175.5" y="-425.3" font-family="Calibri" font-size="9.00">btn_push</text>
</a>
</g>
</g>
<!-- Node109&#45;&gt;Node118 -->
<g id="edge29" class="edge"><title>Node109&#45;&gt;Node118</title>
<path fill="none" stroke="midnightblue" d="M286.491,-541.5C322.056,-541.5 376.059,-541.5 423,-541.5 423,-541.5 423,-541.5 1014.5,-541.5 1086.47,-541.5 1148.49,-464.056 1168.08,-436.829"/>
<polygon fill="midnightblue" stroke="midnightblue" points="286.074,-538 276.074,-541.5 286.074,-545 286.074,-538"/>
</g>
<!-- Node121 -->
<g id="node18" class="node"><title>Node121</title>
<g id="a_node18"><a xlink:href="main_8h.html#a5b51833f12193accc58a0162848dc02e" target="_top" xlink:title="lcd_prep">
<polygon fill="none" stroke="black" points="398,-38.5 398,-56.5 450,-56.5 450,-38.5 398,-38.5"/>
<text text-anchor="middle" x="424" y="-45.3" font-family="Calibri" font-size="9.00">lcd_prep</text>
</a>
</g>
</g>
<!-- Node109&#45;&gt;Node121 -->
<g id="edge30" class="edge"><title>Node109&#45;&gt;Node121</title>
<path fill="none" stroke="midnightblue" d="M247.322,-521.949C247.004,-441.671 249.988,-138.451 312,-71.5 333.704,-48.0671 372.389,-44.6807 397.872,-45.3531"/>
<polygon fill="midnightblue" stroke="midnightblue" points="243.823,-522.144 247.386,-532.121 250.823,-522.099 243.823,-522.144"/>
</g>
<!-- Node122 -->
<g id="node19" class="node"><title>Node122</title>
<g id="a_node19"><a xlink:href="main_8c.html#a5eca6549371bdbac746144deefa131ca" target="_top" xlink:title="Test_init">
<polygon fill="none" stroke="black" points="489,-0.5 489,-18.5 542,-18.5 542,-0.5 489,-0.5"/>
<text text-anchor="middle" x="515.5" y="-7.3" font-family="Calibri" font-size="9.00">Test_init</text>
</a>
</g>
</g>
<!-- Node109&#45;&gt;Node122 -->
<g id="edge54" class="edge"><title>Node109&#45;&gt;Node122</title>
<path fill="none" stroke="midnightblue" d="M247.149,-522.193C246.06,-439.517 246.134,-116.338 312,-45.5 357.711,3.6621 445.494,0.0324032 488.903,-5.36458"/>
<polygon fill="midnightblue" stroke="midnightblue" points="243.653,-522.455 247.307,-532.4 250.652,-522.347 243.653,-522.455"/>
</g>
<!-- Node123 -->
<g id="node20" class="node"><title>Node123</title>
<g id="a_node20"><a xlink:href="main_8h.html#ac719b8f1806a4dae51a6c47c20573fa2" target="_top" xlink:title="lcd_swr">
<polygon fill="none" stroke="black" points="400.5,-570.5 400.5,-588.5 447.5,-588.5 447.5,-570.5 400.5,-570.5"/>
<text text-anchor="middle" x="424" y="-577.3" font-family="Calibri" font-size="9.00">lcd_swr</text>
</a>
</g>
</g>
<!-- Node109&#45;&gt;Node123 -->
<g id="edge34" class="edge"><title>Node109&#45;&gt;Node123</title>
<path fill="none" stroke="midnightblue" d="M285.879,-549.836C294.474,-551.701 303.548,-553.669 312,-555.5 342.638,-562.137 378.037,-569.788 400.464,-574.633"/>
<polygon fill="midnightblue" stroke="midnightblue" points="286.59,-546.409 276.076,-547.708 285.106,-553.249 286.59,-546.409"/>
</g>
<!-- Node124 -->
<g id="node21" class="node"><title>Node124</title>
<g id="a_node21"><a xlink:href="main_8h.html#a236d4ed610f158cf424d552ac88e666c" target="_top" xlink:title="lcd_pwr">
<polygon fill="none" stroke="black" points="491.5,-570.5 491.5,-588.5 539.5,-588.5 539.5,-570.5 491.5,-570.5"/>
<text text-anchor="middle" x="515.5" y="-577.3" font-family="Calibri" font-size="9.00">lcd_pwr</text>
</a>
</g>
</g>
<!-- Node109&#45;&gt;Node124 -->
<g id="edge44" class="edge"><title>Node109&#45;&gt;Node124</title>
<path fill="none" stroke="midnightblue" d="M271.836,-555.431C283.692,-561.831 298.313,-569.166 312,-574.5 347.666,-588.4 357.07,-592.342 395,-597.5 420.543,-600.974 427.483,-601.157 453,-597.5 465.995,-595.637 480.076,-591.668 491.482,-587.929"/>
<polygon fill="midnightblue" stroke="midnightblue" points="273.439,-552.318 262.992,-550.555 270.059,-558.448 273.439,-552.318"/>
</g>
<!-- Node125 -->
<g id="node22" class="node"><title>Node125</title>
<g id="a_node22"><a xlink:href="main_8h.html#a3cfc40ce98a046339c33b0ee86777042" target="_top" xlink:title="show_pwr">
<polygon fill="none" stroke="black" points="395,-475.5 395,-493.5 453,-493.5 453,-475.5 395,-475.5"/>
<text text-anchor="middle" x="424" y="-482.3" font-family="Calibri" font-size="9.00">show_pwr</text>
</a>
</g>
</g>
<!-- Node109&#45;&gt;Node125 -->
<g id="edge41" class="edge"><title>Node109&#45;&gt;Node125</title>
<path fill="none" stroke="midnightblue" d="M285.052,-529.304C318.035,-518.591 365.275,-503.248 395.032,-493.584"/>
<polygon fill="midnightblue" stroke="midnightblue" points="283.738,-526.05 275.308,-532.468 285.901,-532.708 283.738,-526.05"/>
</g>
<!-- Node126 -->
<g id="node23" class="node"><title>Node126</title>
<g id="a_node23"><a xlink:href="main_8h.html#abf3918c21112474db61609b3462577ee" target="_top" xlink:title="lcd_ind">
<polygon fill="none" stroke="black" points="312,-266.5 312,-284.5 359,-284.5 359,-266.5 312,-266.5"/>
<text text-anchor="middle" x="335.5" y="-273.3" font-family="Calibri" font-size="9.00">lcd_ind</text>
</a>
</g>
</g>
<!-- Node109&#45;&gt;Node126 -->
<g id="edge45" class="edge"><title>Node109&#45;&gt;Node126</title>
<path fill="none" stroke="midnightblue" d="M253.678,-522.61C270.909,-469.928 319.045,-322.753 331.518,-284.618"/>
<polygon fill="midnightblue" stroke="midnightblue" points="250.277,-521.751 250.495,-532.344 256.93,-523.927 250.277,-521.751"/>
</g>
<!-- Node127 -->
<g id="node24" class="node"><title>Node127</title>
<g id="a_node24"><a xlink:href="main_8h.html#aad7203cfd92bc4b814e43c04a209f634" target="_top" xlink:title="show_loss">
<polygon fill="none" stroke="black" points="786,-760.5 786,-778.5 846,-778.5 846,-760.5 786,-760.5"/>
<text text-anchor="middle" x="816" y="-767.3" font-family="Calibri" font-size="9.00">show_loss</text>
</a>
</g>
</g>
<!-- Node109&#45;&gt;Node127 -->
<g id="edge55" class="edge"><title>Node109&#45;&gt;Node127</title>
<path fill="none" stroke="midnightblue" d="M247.578,-561.151C248.867,-601.969 257.897,-696.222 312,-745.5 349.315,-779.487 372.527,-769.5 423,-769.5 423,-769.5 423,-769.5 622,-769.5 680.135,-769.5 748.119,-769.5 785.9,-769.5"/>
<polygon fill="midnightblue" stroke="midnightblue" points="251.073,-560.861 247.388,-550.928 244.074,-560.991 251.073,-560.861"/>
</g>
<!-- Node110&#45;&gt;Node107 -->
<g id="edge8" class="edge"><title>Node110&#45;&gt;Node107</title>
<path fill="none" stroke="midnightblue" d="M674.192,-693.5C713.025,-693.5 767.325,-693.5 815,-693.5 815,-693.5 815,-693.5 1176.5,-693.5 1237.51,-693.5 1307.65,-672.678 1339.97,-661.86"/>
<polygon fill="midnightblue" stroke="midnightblue" points="674.168,-690 664.167,-693.5 674.167,-697 674.168,-690"/>
</g>
<!-- Node111&#45;&gt;Node107 -->
<g id="edge10" class="edge"><title>Node111&#45;&gt;Node107</title>
<path fill="none" stroke="midnightblue" d="M1277.26,-332.55C1293.21,-396.342 1344.37,-600.991 1355.75,-646.483"/>
<polygon fill="midnightblue" stroke="midnightblue" points="1280.61,-331.5 1274.79,-322.648 1273.82,-333.198 1280.61,-331.5"/>
</g>
<!-- Node112&#45;&gt;Node111 -->
<g id="edge12" class="edge"><title>Node112&#45;&gt;Node111</title>
<path fill="none" stroke="midnightblue" d="M636.806,-410.789C685.133,-358.191 844.834,-199.5 1012.5,-199.5 1012.5,-199.5 1012.5,-199.5 1095.5,-199.5 1172.01,-199.5 1241.28,-276.944 1263.27,-304.171"/>
<polygon fill="midnightblue" stroke="midnightblue" points="634.14,-408.518 630.021,-418.28 639.329,-413.218 634.14,-408.518"/>
</g>
<!-- Node113 -->
<g id="node10" class="node"><title>Node113</title>
<g id="a_node10"><a xlink:href="main_8h.html#ad7eb7423e0b17ccfba1ae42f3a3274e0" target="_top" xlink:title="get_swr">
<polygon fill="none" stroke="black" points="700.5,-418.5 700.5,-436.5 748.5,-436.5 748.5,-418.5 700.5,-418.5"/>
<text text-anchor="middle" x="724.5" y="-425.3" font-family="Calibri" font-size="9.00">get_swr</text>
</a>
</g>
</g>
<!-- Node112&#45;&gt;Node113 -->
<g id="edge13" class="edge"><title>Node112&#45;&gt;Node113</title>
<path fill="none" stroke="midnightblue" d="M663.362,-427.5C676.004,-427.5 689.451,-427.5 700.417,-427.5"/>
<polygon fill="midnightblue" stroke="midnightblue" points="663.005,-424 653.005,-427.5 663.005,-431 663.005,-424"/>
</g>
<!-- Node114 -->
<g id="node11" class="node"><title>Node114</title>
<g id="a_node11"><a xlink:href="main_8h.html#a740ef1b33bb02cd952ad7d8708999472" target="_top" xlink:title="coarse_cap">
<polygon fill="none" stroke="black" points="785,-342.5 785,-360.5 847,-360.5 847,-342.5 785,-342.5"/>
<text text-anchor="middle" x="816" y="-349.3" font-family="Calibri" font-size="9.00">coarse_cap</text>
</a>
</g>
</g>
<!-- Node113&#45;&gt;Node114 -->
<g id="edge14" class="edge"><title>Node113&#45;&gt;Node114</title>
<path fill="none" stroke="midnightblue" d="M743.662,-411.264C755.355,-400.902 770.943,-387.256 785,-375.5 791.037,-370.451 797.883,-364.957 803.509,-360.502"/>
<polygon fill="midnightblue" stroke="midnightblue" points="741.06,-408.894 735.914,-418.155 745.712,-414.125 741.06,-408.894"/>
</g>
<!-- Node115 -->
<g id="node12" class="node"><title>Node115</title>
<g id="a_node12"><a xlink:href="main_8h.html#a5c7c60c7d70cf76cc52e87722bb0f614" target="_top" xlink:title="coarse_tune">
<polygon fill="none" stroke="black" points="883,-380.5 883,-398.5 950,-398.5 950,-380.5 883,-380.5"/>
<text text-anchor="middle" x="916.5" y="-387.3" font-family="Calibri" font-size="9.00">coarse_tune</text>
</a>
</g>
</g>
<!-- Node113&#45;&gt;Node115 -->
<g id="edge20" class="edge"><title>Node113&#45;&gt;Node115</title>
<path fill="none" stroke="midnightblue" d="M758.365,-419.462C767.01,-417.431 776.34,-415.314 785,-413.5 818.257,-406.534 856.513,-399.628 882.967,-395.025"/>
<polygon fill="midnightblue" stroke="midnightblue" points="757.529,-416.063 748.611,-421.783 759.15,-422.873 757.529,-416.063"/>
</g>
<!-- Node116 -->
<g id="node13" class="node"><title>Node116</title>
<g id="a_node13"><a xlink:href="main_8h.html#a454a7687c8039514766571b23516ca9c" target="_top" xlink:title="sub_tune">
<polygon fill="none" stroke="black" points="986,-418.5 986,-436.5 1041,-436.5 1041,-418.5 986,-418.5"/>
<text text-anchor="middle" x="1013.5" y="-425.3" font-family="Calibri" font-size="9.00">sub_tune</text>
</a>
</g>
</g>
<!-- Node113&#45;&gt;Node116 -->
<g id="edge27" class="edge"><title>Node113&#45;&gt;Node116</title>
<path fill="none" stroke="midnightblue" d="M758.848,-427.5C816.349,-427.5 933.036,-427.5 985.674,-427.5"/>
<polygon fill="midnightblue" stroke="midnightblue" points="758.501,-424 748.501,-427.5 758.501,-431 758.501,-424"/>
</g>
<!-- Node117 -->
<g id="node14" class="node"><title>Node117</title>
<g id="a_node14"><a xlink:href="main_8h.html#a1849f2e5bd63d11a7b9549470e287d17" target="_top" xlink:title="tune">
<polygon fill="none" stroke="black" points="1077,-418.5 1077,-436.5 1112,-436.5 1112,-418.5 1077,-418.5"/>
<text text-anchor="middle" x="1094.5" y="-425.3" font-family="Calibri" font-size="9.00">tune</text>
</a>
</g>
</g>
<!-- Node113&#45;&gt;Node117 -->
<g id="edge28" class="edge"><title>Node113&#45;&gt;Node117</title>
<path fill="none" stroke="midnightblue" d="M731.084,-408.682C738.963,-385.934 755.751,-348.693 785,-332.5 809.108,-319.153 819.874,-327.656 847,-332.5 937.75,-348.706 1037.95,-398.028 1076.82,-418.473"/>
<polygon fill="midnightblue" stroke="midnightblue" points="727.734,-407.666 727.997,-418.258 734.396,-409.814 727.734,-407.666"/>
</g>
<!-- Node119 -->
<g id="node16" class="node"><title>Node119</title>
<g id="a_node16"><a xlink:href="main_8h.html#ab518a3d2c723f12d3af3024a195606ce" target="_top" xlink:title="sharp_cap">
<polygon fill="none" stroke="black" points="887,-494.5 887,-512.5 946,-512.5 946,-494.5 887,-494.5"/>
<text text-anchor="middle" x="916.5" y="-501.3" font-family="Calibri" font-size="9.00">sharp_cap</text>
</a>
</g>
</g>
<!-- Node113&#45;&gt;Node119 -->
<g id="edge21" class="edge"><title>Node113&#45;&gt;Node119</title>
<path fill="none" stroke="midnightblue" d="M748.523,-442.148C759.325,-448.627 772.539,-456.006 785,-461.5 818.974,-476.479 860.001,-488.798 886.871,-496.137"/>
<polygon fill="midnightblue" stroke="midnightblue" points="750.086,-439 739.731,-436.755 746.426,-444.967 750.086,-439"/>
</g>
<!-- Node120 -->
<g id="node17" class="node"><title>Node120</title>
<g id="a_node17"><a xlink:href="main_8h.html#a72210b3ed1d5691c5bbda8c7f1e97197" target="_top" xlink:title="sharp_ind">
<polygon fill="none" stroke="black" points="887.5,-456.5 887.5,-474.5 945.5,-474.5 945.5,-456.5 887.5,-456.5"/>
<text text-anchor="middle" x="916.5" y="-463.3" font-family="Calibri" font-size="9.00">sharp_ind</text>
</a>
</g>
</g>
<!-- Node113&#45;&gt;Node120 -->
<g id="edge24" class="edge"><title>Node113&#45;&gt;Node120</title>
<path fill="none" stroke="midnightblue" d="M758.365,-435.538C767.01,-437.569 776.34,-439.686 785,-441.5 820.173,-448.868 860.939,-456.168 887.42,-460.747"/>
<polygon fill="midnightblue" stroke="midnightblue" points="759.15,-432.127 748.611,-433.217 757.529,-438.937 759.15,-432.127"/>
</g>
<!-- Node114&#45;&gt;Node115 -->
<g id="edge15" class="edge"><title>Node114&#45;&gt;Node115</title>
<path fill="none" stroke="midnightblue" d="M849.959,-364.215C863.728,-369.527 879.411,-375.577 891.983,-380.427"/>
<polygon fill="midnightblue" stroke="midnightblue" points="850.933,-360.839 840.343,-360.505 848.413,-367.37 850.933,-360.839"/>
</g>
<!-- Node115&#45;&gt;Node116 -->
<g id="edge16" class="edge"><title>Node115&#45;&gt;Node116</title>
<path fill="none" stroke="midnightblue" d="M949.675,-402.37C962.861,-407.644 977.811,-413.624 989.819,-418.427"/>
<polygon fill="midnightblue" stroke="midnightblue" points="950.598,-398.97 940.014,-398.505 947.999,-405.469 950.598,-398.97"/>
</g>
<!-- Node116&#45;&gt;Node117 -->
<g id="edge17" class="edge"><title>Node116&#45;&gt;Node117</title>
<path fill="none" stroke="midnightblue" d="M1051.51,-427.5C1060.42,-427.5 1069.49,-427.5 1076.91,-427.5"/>
<polygon fill="midnightblue" stroke="midnightblue" points="1051.25,-424 1041.25,-427.5 1051.25,-431 1051.25,-424"/>
</g>
<!-- Node117&#45;&gt;Node118 -->
<g id="edge18" class="edge"><title>Node117&#45;&gt;Node118</title>
<path fill="none" stroke="midnightblue" d="M1122.43,-427.5C1130.63,-427.5 1139.64,-427.5 1147.82,-427.5"/>
<polygon fill="midnightblue" stroke="midnightblue" points="1122.25,-424 1112.25,-427.5 1122.25,-431 1122.25,-424"/>
</g>
<!-- Node118&#45;&gt;Node111 -->
<g id="edge19" class="edge"><title>Node118&#45;&gt;Node111</title>
<path fill="none" stroke="midnightblue" d="M1190.6,-410.404C1210.79,-385.91 1247.25,-341.691 1262.96,-322.639"/>
<polygon fill="midnightblue" stroke="midnightblue" points="1187.85,-408.229 1184.19,-418.171 1193.25,-412.682 1187.85,-408.229"/>
</g>
<!-- Node119&#45;&gt;Node116 -->
<g id="edge22" class="edge"><title>Node119&#45;&gt;Node116</title>
<path fill="none" stroke="midnightblue" d="M942.045,-489.052C944.777,-487.252 947.48,-485.381 950,-483.5 970.083,-468.512 991.393,-448.385 1003.22,-436.79"/>
<polygon fill="midnightblue" stroke="midnightblue" points="940.011,-486.197 933.412,-494.486 943.74,-492.121 940.011,-486.197"/>
</g>
<!-- Node119&#45;&gt;Node117 -->
<g id="edge23" class="edge"><title>Node119&#45;&gt;Node117</title>
<path fill="none" stroke="midnightblue" d="M956.074,-495.101C981.078,-488.829 1013.91,-479.004 1041,-465.5 1056.71,-457.668 1072.77,-445.27 1082.92,-436.78"/>
<polygon fill="midnightblue" stroke="midnightblue" points="955.113,-491.733 946.221,-497.492 956.764,-498.535 955.113,-491.733"/>
</g>
<!-- Node120&#45;&gt;Node116 -->
<g id="edge25" class="edge"><title>Node120&#45;&gt;Node116</title>
<path fill="none" stroke="midnightblue" d="M949.675,-452.63C962.861,-447.356 977.811,-441.376 989.819,-436.573"/>
<polygon fill="midnightblue" stroke="midnightblue" points="947.999,-449.531 940.014,-456.495 950.598,-456.03 947.999,-449.531"/>
</g>
<!-- Node120&#45;&gt;Node117 -->
<g id="edge26" class="edge"><title>Node120&#45;&gt;Node117</title>
<path fill="none" stroke="midnightblue" d="M955.744,-461.012C980.314,-457.71 1012.79,-452.565 1041,-445.5 1053.15,-442.457 1066.5,-437.862 1076.7,-434.077"/>
<polygon fill="midnightblue" stroke="midnightblue" points="955.199,-457.553 945.734,-462.314 956.102,-464.494 955.199,-457.553"/>
</g>
<!-- Node121&#45;&gt;Node107 -->
<g id="edge31" class="edge"><title>Node121&#45;&gt;Node107</title>
<path fill="none" stroke="midnightblue" d="M460.561,-47.5C499.649,-47.5 564.299,-47.5 620,-47.5 620,-47.5 620,-47.5 1176.5,-47.5 1234.16,-47.5 1265.18,-28.8591 1304,-71.5 1344.44,-115.925 1356.21,-574.756 1357.8,-646.177"/>
<polygon fill="midnightblue" stroke="midnightblue" points="460.242,-44.0001 450.242,-47.5 460.242,-51.0001 460.242,-44.0001"/>
</g>
<!-- Node121&#45;&gt;Node122 -->
<g id="edge32" class="edge"><title>Node121&#45;&gt;Node122</title>
<path fill="none" stroke="midnightblue" d="M455.678,-34.4747C468.01,-29.2386 481.93,-23.3285 493.132,-18.5725"/>
<polygon fill="midnightblue" stroke="midnightblue" points="454.047,-31.3647 446.21,-38.4945 456.783,-37.808 454.047,-31.3647"/>
</g>
<!-- Node122&#45;&gt;Node107 -->
<g id="edge33" class="edge"><title>Node122&#45;&gt;Node107</title>
<path fill="none" stroke="midnightblue" d="M552.425,-9.5C593.71,-9.5 663.497,-9.5 723.5,-9.5 723.5,-9.5 723.5,-9.5 1176.5,-9.5 1234.16,-9.5 1265.3,9.24946 1304,-33.5 1347.01,-81.0129 1356.64,-571.589 1357.86,-646.05"/>
<polygon fill="midnightblue" stroke="midnightblue" points="552.317,-6.0001 542.317,-9.5 552.317,-13.0001 552.317,-6.0001"/>
</g>
<!-- Node123&#45;&gt;Node124 -->
<g id="edge35" class="edge"><title>Node123&#45;&gt;Node124</title>
<path fill="none" stroke="midnightblue" d="M457.814,-579.5C468.924,-579.5 481.093,-579.5 491.299,-579.5"/>
<polygon fill="midnightblue" stroke="midnightblue" points="457.585,-576 447.585,-579.5 457.585,-583 457.585,-576"/>
</g>
<!-- Node124&#45;&gt;Node107 -->
<g id="edge39" class="edge"><title>Node124&#45;&gt;Node107</title>
<path fill="none" stroke="midnightblue" d="M536.171,-594.729C547.791,-603.085 563.104,-613.033 578,-619.5 639.106,-646.03 656.883,-655.5 723.5,-655.5 723.5,-655.5 723.5,-655.5 1176.5,-655.5 1236.37,-655.5 1307.35,-655.5 1339.97,-655.5"/>
<polygon fill="midnightblue" stroke="midnightblue" points="538.192,-591.871 528.073,-588.732 534.027,-597.496 538.192,-591.871"/>
</g>
<!-- Node124&#45;&gt;Node110 -->
<g id="edge38" class="edge"><title>Node124&#45;&gt;Node110</title>
<path fill="none" stroke="midnightblue" d="M535.063,-595.623C537.529,-598.141 539.919,-600.805 542,-603.5 562.421,-629.947 554.608,-645.641 578,-669.5 583.879,-675.497 591.574,-680.471 598.769,-684.306"/>
<polygon fill="midnightblue" stroke="midnightblue" points="537.344,-592.962 527.678,-588.623 532.528,-598.042 537.344,-592.962"/>
</g>
<!-- Node124&#45;&gt;Node111 -->
<g id="edge37" class="edge"><title>Node124&#45;&gt;Node111</title>
<path fill="none" stroke="midnightblue" d="M549.396,-589.356C589.946,-600.615 661.15,-617.5 723.5,-617.5 723.5,-617.5 723.5,-617.5 1095.5,-617.5 1235.26,-617.5 1265.08,-373.18 1269.76,-322.598"/>
<polygon fill="midnightblue" stroke="midnightblue" points="550.105,-585.919 539.529,-586.558 548.195,-592.654 550.105,-585.919"/>
</g>
<!-- Node124&#45;&gt;Node112 -->
<g id="edge40" class="edge"><title>Node124&#45;&gt;Node112</title>
<path fill="none" stroke="midnightblue" d="M528.431,-561.979C550.483,-529.593 596.906,-461.416 613.737,-436.698"/>
<polygon fill="midnightblue" stroke="midnightblue" points="525.4,-560.211 522.664,-570.447 531.186,-564.151 525.4,-560.211"/>
</g>
<!-- Node124&#45;&gt;Node118 -->
<g id="edge36" class="edge"><title>Node124&#45;&gt;Node118</title>
<path fill="none" stroke="midnightblue" d="M549.998,-579.5C590.933,-579.5 662.304,-579.5 723.5,-579.5 723.5,-579.5 723.5,-579.5 1014.5,-579.5 1059.13,-579.5 1077.27,-583.525 1112,-555.5 1151.65,-523.508 1167.96,-460.12 1172.82,-436.58"/>
<polygon fill="midnightblue" stroke="midnightblue" points="549.783,-576 539.783,-579.5 549.783,-583 549.783,-576"/>
</g>
<!-- Node125&#45;&gt;Node113 -->
<g id="edge42" class="edge"><title>Node125&#45;&gt;Node113</title>
<path fill="none" stroke="midnightblue" d="M463.333,-479.832C510.794,-473.69 593.939,-461.739 664,-445.5 676.091,-442.698 689.325,-438.781 700.237,-435.316"/>
<polygon fill="midnightblue" stroke="midnightblue" points="462.675,-476.388 453.199,-481.125 463.561,-483.331 462.675,-476.388"/>
</g>
<!-- Node125&#45;&gt;Node124 -->
<g id="edge43" class="edge"><title>Node125&#45;&gt;Node124</title>
<path fill="none" stroke="midnightblue" d="M440.628,-501.088C459.547,-521.17 490.74,-554.28 505.813,-570.279"/>
<polygon fill="midnightblue" stroke="midnightblue" points="442.986,-498.488 433.582,-493.609 437.891,-503.288 442.986,-498.488"/>
</g>
<!-- Node126&#45;&gt;Node107 -->
<g id="edge50" class="edge"><title>Node126&#45;&gt;Node107</title>
<path fill="none" stroke="midnightblue" d="M342.105,-256.599C350.114,-232.686 367.04,-191.708 395,-167.5 437.788,-130.455 457.903,-123.5 514.5,-123.5 514.5,-123.5 514.5,-123.5 817,-123.5 941.044,-123.5 969.456,-85.5 1093.5,-85.5 1093.5,-85.5 1093.5,-85.5 1176.5,-85.5 1202.92,-85.5 1204.86,-16.2626 1304,-294.5 1351.64,-428.216 1357.25,-604.32 1357.91,-646.256"/>
<polygon fill="midnightblue" stroke="midnightblue" points="338.726,-255.674 339.045,-266.264 345.4,-257.787 338.726,-255.674"/>
</g>
<!-- Node126&#45;&gt;Node110 -->
<g id="edge48" class="edge"><title>Node126&#45;&gt;Node110</title>
<path fill="none" stroke="midnightblue" d="M337.66,-295.06C341.716,-357.393 357.124,-550.045 395,-597.5 420.433,-629.365 534.279,-667.433 589.613,-684.475"/>
<polygon fill="midnightblue" stroke="midnightblue" points="341.13,-294.469 337.015,-284.706 334.144,-294.904 341.13,-294.469"/>
</g>
<!-- Node126&#45;&gt;Node111 -->
<g id="edge47" class="edge"><title>Node126&#45;&gt;Node111</title>
<path fill="none" stroke="midnightblue" d="M347.961,-257.814C358.572,-242.658 375.603,-221.17 395,-207.5 441.519,-174.716 457.59,-161.5 514.5,-161.5 514.5,-161.5 514.5,-161.5 1095.5,-161.5 1147.47,-161.5 1163.39,-173.861 1203,-207.5 1236.09,-235.604 1258.52,-284.067 1266.87,-304.255"/>
<polygon fill="midnightblue" stroke="midnightblue" points="344.922,-256.061 342.221,-266.306 350.721,-259.981 344.922,-256.061"/>
</g>
<!-- Node126&#45;&gt;Node112 -->
<g id="edge52" class="edge"><title>Node126&#45;&gt;Node112</title>
<path fill="none" stroke="midnightblue" d="M362.511,-289.446C419.819,-320.172 555.647,-392.997 603.203,-418.494"/>
<polygon fill="midnightblue" stroke="midnightblue" points="363.852,-286.194 353.385,-284.553 360.545,-292.363 363.852,-286.194"/>
</g>
<!-- Node126&#45;&gt;Node117 -->
<g id="edge53" class="edge"><title>Node126&#45;&gt;Node117</title>
<path fill="none" stroke="midnightblue" d="M369.583,-275.5C405.325,-275.5 463.95,-275.5 514.5,-275.5 514.5,-275.5 514.5,-275.5 917.5,-275.5 1005.51,-275.5 1071.26,-385.724 1088.84,-418.447"/>
<polygon fill="midnightblue" stroke="midnightblue" points="369.26,-272 359.26,-275.5 369.26,-279 369.26,-272"/>
</g>
<!-- Node126&#45;&gt;Node118 -->
<g id="edge46" class="edge"><title>Node126&#45;&gt;Node118</title>
<path fill="none" stroke="midnightblue" d="M356.697,-260.464C388.514,-238.311 453.029,-199.5 514.5,-199.5 514.5,-199.5 514.5,-199.5 725.5,-199.5 871.941,-199.5 917.373,-216.006 1041,-294.5 1097.9,-330.624 1149.67,-394.732 1167.72,-418.395"/>
<polygon fill="midnightblue" stroke="midnightblue" points="354.371,-257.824 348.266,-266.483 358.438,-263.521 354.371,-257.824"/>
</g>
<!-- Node126&#45;&gt;Node121 -->
<g id="edge49" class="edge"><title>Node126&#45;&gt;Node121</title>
<path fill="none" stroke="midnightblue" d="M342.606,-256.509C352.718,-225.464 373.924,-162.036 395,-109.5 402.651,-90.4269 412.837,-68.6389 418.577,-56.6378"/>
<polygon fill="midnightblue" stroke="midnightblue" points="339.153,-255.81 339.403,-266.402 345.813,-257.966 339.153,-255.81"/>
</g>
<!-- Node126&#45;&gt;Node125 -->
<g id="edge51" class="edge"><title>Node126&#45;&gt;Node125</title>
<path fill="none" stroke="midnightblue" d="M344.196,-294.094C362.106,-337.369 406.054,-443.557 419.216,-475.357"/>
<polygon fill="midnightblue" stroke="midnightblue" points="347.387,-292.652 340.328,-284.75 340.919,-295.329 347.387,-292.652"/>
</g>
<!-- Node127&#45;&gt;Node107 -->
<g id="edge56" class="edge"><title>Node127&#45;&gt;Node107</title>
<path fill="none" stroke="midnightblue" d="M856.15,-769.5C895.618,-769.5 958.287,-769.5 1012.5,-769.5 1012.5,-769.5 1012.5,-769.5 1176.5,-769.5 1234.16,-769.5 1256.68,-778.448 1304,-745.5 1333.31,-725.092 1349.39,-683.178 1355.32,-664.651"/>
<polygon fill="midnightblue" stroke="midnightblue" points="856.147,-766 846.147,-769.5 856.147,-773 856.147,-766"/>
</g>
</g>
</svg>
