<?xml version="1.0" encoding="UTF-8" standalone="no"?>
<!DOCTYPE svg PUBLIC "-//W3C//DTD SVG 1.1//EN"
 "http://www.w3.org/Graphics/SVG/1.1/DTD/svg11.dtd">
<!-- Generated by graphviz version 2.38.0 (20140413.2041)
 -->
<!-- Title: vodisplay_offoff Pages: 1 -->
<svg width="320pt" height="101pt"
 viewBox="0.00 0.00 320.00 101.00" xmlns="http://www.w3.org/2000/svg" xmlns:xlink="http://www.w3.org/1999/xlink">
<g id="graph0" class="graph" transform="scale(1 1) rotate(0) translate(4 97)">
<title>vodisplay_offoff</title>
<!-- Node1 -->
<g id="node1" class="node"><title>Node1</title>
<g id="a_node1"><a xlink:title=" ">
<polygon fill="#bfbfbf" stroke="black" points="0,-36.5 0,-54.5 83,-54.5 83,-36.5 0,-36.5"/>
<text text-anchor="middle" x="41.5" y="-43.3" font-family="Calibri" font-size="9.00">vodisplay_offoff</text>
</a>
</g>
</g>
<!-- Node2 -->
<g id="node2" class="node"><title>Node2</title>
<g id="a_node2"><a xlink:href="oled__control_8c.html#a3d35666326cc069eda3b63c70983fdbc" target="_top" xlink:title=" ">
<polygon fill="none" stroke="black" points="132,-55.5 132,-73.5 187,-73.5 187,-55.5 132,-55.5"/>
<text text-anchor="middle" x="159.5" y="-62.3" font-family="Calibri" font-size="9.00">led_send</text>
</a>
</g>
</g>
<!-- Node1&#45;&gt;Node2 -->
<g id="edge1" class="edge"><title>Node1&#45;&gt;Node2</title>
<path fill="none" stroke="midnightblue" d="M83.0712,-52.1453C95.7296,-54.2186 109.609,-56.492 121.973,-58.5171"/>
<polygon fill="midnightblue" stroke="midnightblue" points="121.508,-61.9875 131.942,-60.15 122.639,-55.0795 121.508,-61.9875"/>
</g>
<!-- Node6 -->
<g id="node6" class="node"><title>Node6</title>
<g id="a_node6"><a xlink:href="oled__control_8c.html#a78a346ba6e89c3140dd554a46e56c719" target="_top" xlink:title=" ">
<polygon fill="none" stroke="black" points="119,-18.5 119,-36.5 200,-36.5 200,-18.5 119,-18.5"/>
<text text-anchor="middle" x="159.5" y="-25.3" font-family="Calibri" font-size="9.00">send_command</text>
</a>
</g>
</g>
<!-- Node1&#45;&gt;Node6 -->
<g id="edge5" class="edge"><title>Node1&#45;&gt;Node6</title>
<path fill="none" stroke="midnightblue" d="M83.0712,-39.2045C91.4298,-37.9074 100.321,-36.5278 108.956,-35.1878"/>
<polygon fill="midnightblue" stroke="midnightblue" points="109.584,-38.6324 118.929,-33.6403 108.511,-31.7152 109.584,-38.6324"/>
</g>
<!-- Node3 -->
<g id="node3" class="node"><title>Node3</title>
<g id="a_node3"><a xlink:href="oled__control_8c.html#ab7f6b5c6c1483f6286f2de5786c028d9" target="_top" xlink:title=" ">
<polygon fill="none" stroke="black" points="238,-74.5 238,-92.5 310,-92.5 310,-74.5 238,-74.5"/>
<text text-anchor="middle" x="274" y="-81.3" font-family="Calibri" font-size="9.00">Soft_I2C_Start</text>
</a>
</g>
</g>
<!-- Node2&#45;&gt;Node3 -->
<g id="edge2" class="edge"><title>Node2&#45;&gt;Node3</title>
<path fill="none" stroke="midnightblue" d="M187.161,-69.0027C199.173,-71.0315 213.703,-73.4853 227.365,-75.7928"/>
<polygon fill="midnightblue" stroke="midnightblue" points="227.144,-79.305 237.588,-77.5192 228.31,-72.4027 227.144,-79.305"/>
</g>
<!-- Node4 -->
<g id="node4" class="node"><title>Node4</title>
<g id="a_node4"><a xlink:href="oled__control_8c.html#a16eb842aa672ca44820ae6d5f9933425" target="_top" xlink:title=" ">
<polygon fill="none" stroke="black" points="238.5,-37.5 238.5,-55.5 309.5,-55.5 309.5,-37.5 238.5,-37.5"/>
<text text-anchor="middle" x="274" y="-44.3" font-family="Calibri" font-size="9.00">Soft_I2C_Stop</text>
</a>
</g>
</g>
<!-- Node2&#45;&gt;Node4 -->
<g id="edge3" class="edge"><title>Node2&#45;&gt;Node4</title>
<path fill="none" stroke="midnightblue" d="M187.161,-60.2343C199.5,-58.26 214.495,-55.8607 228.478,-53.6234"/>
<polygon fill="midnightblue" stroke="midnightblue" points="229.108,-57.0674 238.429,-52.0314 228.002,-50.1553 229.108,-57.0674"/>
</g>
<!-- Node5 -->
<g id="node5" class="node"><title>Node5</title>
<g id="a_node5"><a xlink:href="oled__control_8c.html#a73610916645f17c19124e697b005f694" target="_top" xlink:title=" ">
<polygon fill="none" stroke="black" points="236,-0.5 236,-18.5 312,-18.5 312,-0.5 236,-0.5"/>
<text text-anchor="middle" x="274" y="-7.3" font-family="Calibri" font-size="9.00">Soft_I2C_Write</text>
</a>
</g>
</g>
<!-- Node2&#45;&gt;Node5 -->
<g id="edge4" class="edge"><title>Node2&#45;&gt;Node5</title>
<path fill="none" stroke="midnightblue" d="M181.077,-55.3185C187.191,-52.5376 193.888,-49.44 200,-46.5 208.805,-42.2647 229.218,-31.9012 246.226,-23.2164"/>
<polygon fill="midnightblue" stroke="midnightblue" points="247.918,-26.2822 255.229,-18.6138 244.732,-20.0494 247.918,-26.2822"/>
</g>
<!-- Node6&#45;&gt;Node3 -->
<g id="edge6" class="edge"><title>Node6&#45;&gt;Node3</title>
<path fill="none" stroke="midnightblue" d="M179.858,-36.6342C186.291,-39.7171 193.477,-43.2112 200,-46.5 216.155,-54.6448 219.863,-57.3194 236,-65.5 238.931,-66.9858 242.003,-68.5189 245.071,-70.0342"/>
<polygon fill="midnightblue" stroke="midnightblue" points="243.597,-73.2095 254.118,-74.4619 246.675,-66.9222 243.597,-73.2095"/>
</g>
<!-- Node6&#45;&gt;Node4 -->
<g id="edge7" class="edge"><title>Node6&#45;&gt;Node4</title>
<path fill="none" stroke="midnightblue" d="M200.163,-34.1987C209.269,-35.7365 219.011,-37.3819 228.313,-38.9528"/>
<polygon fill="midnightblue" stroke="midnightblue" points="227.739,-42.4054 238.182,-40.6196 228.904,-35.5031 227.739,-42.4054"/>
</g>
<!-- Node6&#45;&gt;Node5 -->
<g id="edge8" class="edge"><title>Node6&#45;&gt;Node5</title>
<path fill="none" stroke="midnightblue" d="M200.163,-21.1539C208.53,-19.8153 217.433,-18.3907 226.039,-17.0138"/>
<polygon fill="midnightblue" stroke="midnightblue" points="226.632,-20.4634 235.954,-15.4274 225.526,-13.5513 226.632,-20.4634"/>
</g>
</g>
</svg>
