<?xml version="1.0" encoding="UTF-8" standalone="no"?>
<!DOCTYPE svg PUBLIC "-//W3C//DTD SVG 1.1//EN"
 "http://www.w3.org/Graphics/SVG/1.1/DTD/svg11.dtd">
<!-- Generated by graphviz version 2.38.0 (20140413.2041)
 -->
<!-- Title: include/oled_control.h Pages: 1 -->
<svg width="174pt" height="82pt"
 viewBox="0.00 0.00 174.00 82.00" xmlns="http://www.w3.org/2000/svg" xmlns:xlink="http://www.w3.org/1999/xlink">
<g id="graph0" class="graph" transform="scale(1 1) rotate(0) translate(4 78)">
<title>include/oled_control.h</title>
<!-- Node1 -->
<g id="node1" class="node"><title>Node1</title>
<g id="a_node1"><a xlink:title="OLED/LCD control definitions for ATU&#45;100 EXT PIC16F1938.">
<polygon fill="#bfbfbf" stroke="black" points="20.5,-55.5 20.5,-73.5 130.5,-73.5 130.5,-55.5 20.5,-55.5"/>
<text text-anchor="middle" x="75.5" y="-62.3" font-family="Calibri" font-size="9.00">include/oled_control.h</text>
</a>
</g>
</g>
<!-- Node2 -->
<g id="node2" class="node"><title>Node2</title>
<g id="a_node2"><a xlink:href="main_8c.html" target="_top" xlink:title="ATU&#45;100 EXT firmware for PIC16F1938 main program.">
<polygon fill="none" stroke="black" points="0,-0.5 0,-18.5 59,-18.5 59,-0.5 0,-0.5"/>
<text text-anchor="middle" x="29.5" y="-7.3" font-family="Calibri" font-size="9.00">src/main.c</text>
</a>
</g>
</g>
<!-- Node1&#45;&gt;Node2 -->
<g id="edge1" class="edge"><title>Node1&#45;&gt;Node2</title>
<path fill="none" stroke="midnightblue" d="M61.642,-47.5331C53.3395,-37.9673 43.1388,-26.2143 36.4864,-18.5496"/>
<polygon fill="midnightblue" stroke="midnightblue" points="59.1145,-49.9607 68.3125,-55.2188 64.401,-45.3724 59.1145,-49.9607"/>
</g>
<!-- Node3 -->
<g id="node3" class="node"><title>Node3</title>
<g id="a_node3"><a xlink:href="oled__control_8c.html" target="_top" xlink:title="OLED/LCD control routines for ATU&#45;100 EXT PIC16F1938.">
<polygon fill="none" stroke="black" points="77,-0.5 77,-18.5 166,-18.5 166,-0.5 77,-0.5"/>
<text text-anchor="middle" x="121.5" y="-7.3" font-family="Calibri" font-size="9.00">src/oled_control.c</text>
</a>
</g>
</g>
<!-- Node1&#45;&gt;Node3 -->
<g id="edge2" class="edge"><title>Node1&#45;&gt;Node3</title>
<path fill="none" stroke="midnightblue" d="M89.358,-47.5331C97.6605,-37.9673 107.861,-26.2143 114.514,-18.5496"/>
<polygon fill="midnightblue" stroke="midnightblue" points="86.599,-45.3724 82.6875,-55.2188 91.8855,-49.9607 86.599,-45.3724"/>
</g>
</g>
</svg>
