<?xml version="1.0" encoding="UTF-8" standalone="no"?>
<!DOCTYPE svg PUBLIC "-//W3C//DTD SVG 1.1//EN"
 "http://www.w3.org/Graphics/SVG/1.1/DTD/svg11.dtd">
<!-- Generated by graphviz version 2.38.0 (20140413.2041)
 -->
<!-- Title: display_on Pages: 1 -->
<!--zoomable 426 -->
<svg id="main" version="1.1" xmlns="http://www.w3.org/2000/svg" xmlns:xlink="http://www.w3.org/1999/xlink" xml:space="preserve" onload="init(evt)">
<style type="text/css"><![CDATA[
.edge:hover path { stroke: red; }
.edge:hover polygon { stroke: red; fill: red; }
]]></style>
<script type="text/javascript"><![CDATA[
var edges = document.getElementsByTagName('g');
if (edges && edges.length) {
  for (var i=0;i<edges.length;i++) {
    if (edges[i].id.substr(0,4)=='edge') {
      edges[i].setAttribute('class','edge');
    }
  }
}
]]></script>
        <defs>
                <circle id="rim" cx="0" cy="0" r="7"/>
                <circle id="rim2" cx="0" cy="0" r="3.5"/>
                <g id="zoomPlus">
                        <use xlink:href="#rim" fill="#404040">
                                <set attributeName="fill" to="#808080" begin="zoomplus.mouseover" end="zoomplus.mouseout"/>
                        </use>
                        <path d="M-4,0h8M0,-4v8" fill="none" stroke="white" stroke-width="1.5" pointer-events="none"/>
                </g>
                <g id="zoomMin">
                        <use xlink:href="#rim" fill="#404040">
                                <set attributeName="fill" to="#808080" begin="zoomminus.mouseover" end="zoomminus.mouseout"/>
                        </use>
                        <path d="M-4,0h8" fill="none" stroke="white" stroke-width="1.5" pointer-events="none"/>
                </g>
                <g id="dirArrow">
                        <path fill="none" stroke="white" stroke-width="1.5" d="M0,-3.0v7 M-2.5,-0.5L0,-3.0L2.5,-0.5"/>
                </g>
               <g id="resetDef">
                       <use xlink:href="#rim2" fill="#404040">
                               <set attributeName="fill" to="#808080" begin="reset.mouseover" end="reset.mouseout"/>
                       </use>
               </g>
        </defs>

<script type="text/javascript">
var viewWidth = 1005;
var viewHeight = 426;
var sectionId = 'dynsection-4';
</script>
<script xlink:href="svgpan.js"/>
<svg id="graph" class="graph">
<g id="viewport">
<title>display_on</title>
<!-- Node1 -->
<g id="node1" class="node"><title>Node1</title>
<g id="a_node1"><a xlink:title=" ">
<polygon fill="#bfbfbf" stroke="black" points="935,-128 935,-146 997,-146 997,-128 935,-128"/>
<text text-anchor="middle" x="966" y="-134.8" font-family="Calibri" font-size="9.00">display_on</text>
</a>
</g>
</g>
<!-- Node2 -->
<g id="node2" class="node"><title>Node2</title>
<g id="a_node2"><a xlink:href="main_8c.html#a1c9e5d54d8cf7f3d041aa2e0b330b3dd" target="_top" xlink:title="Handle the process of the buttons being pressed.">
<polygon fill="none" stroke="black" points="74,-67 74,-85 139,-85 139,-67 74,-67"/>
<text text-anchor="middle" x="106.5" y="-73.8" font-family="Calibri" font-size="9.00">button_proc</text>
</a>
</g>
</g>
<!-- Node1&#45;&gt;Node2 -->
<g id="edge1" class="edge"><title>Node1&#45;&gt;Node2</title>
<path fill="none" stroke="midnightblue" d="M953.433,-119.204C927.768,-82.1224 862.112,-0 784,-0 784,-0 784,-0 282.5,-0 215.922,-0 146.01,-46.8517 119.043,-66.9834"/>
<polygon fill="midnightblue" stroke="midnightblue" points="950.589,-121.246 959.079,-127.583 956.394,-117.335 950.589,-121.246"/>
</g>
<!-- Node4 -->
<g id="node4" class="node"><title>Node4</title>
<g id="a_node4"><a xlink:href="main_8c.html#ae5a14b4884e85f47ad8a4a716f13203a" target="_top" xlink:title=" ">
<polygon fill="none" stroke="black" points="851,-266 851,-284 899,-284 899,-266 851,-266"/>
<text text-anchor="middle" x="875" y="-272.8" font-family="Calibri" font-size="9.00">lcd_pwr</text>
</a>
</g>
</g>
<!-- Node1&#45;&gt;Node4 -->
<g id="edge3" class="edge"><title>Node1&#45;&gt;Node4</title>
<path fill="none" stroke="midnightblue" d="M953.678,-154.555C934.587,-184.157 896.642,-242.994 881.978,-265.731"/>
<polygon fill="midnightblue" stroke="midnightblue" points="956.682,-156.355 959.16,-146.055 950.799,-152.561 956.682,-156.355"/>
</g>
<!-- Node3 -->
<g id="node3" class="node"><title>Node3</title>
<g id="a_node3"><a xlink:href="main_8c.html#acdef7a1fd863a6d3770c1268cb06add3" target="_top" xlink:title=" ">
<polygon fill="none" stroke="black" points="0,-371 0,-389 38,-389 38,-371 0,-371"/>
<text text-anchor="middle" x="19" y="-377.8" font-family="Calibri" font-size="9.00">main</text>
</a>
</g>
</g>
<!-- Node2&#45;&gt;Node3 -->
<g id="edge2" class="edge"><title>Node2&#45;&gt;Node3</title>
<path fill="none" stroke="midnightblue" d="M100.205,-94.8277C83.8214,-153.079 34.3524,-328.969 22.5489,-370.937"/>
<polygon fill="midnightblue" stroke="midnightblue" points="103.603,-95.6723 102.941,-85.0981 96.8643,-93.777 103.603,-95.6723"/>
</g>
<!-- Node4&#45;&gt;Node2 -->
<g id="edge6" class="edge"><title>Node4&#45;&gt;Node2</title>
<path fill="none" stroke="midnightblue" d="M868.332,-256.304C850.087,-200.341 787.308,-38 673,-38 673,-38 673,-38 282.5,-38 228.093,-38 166.293,-55.7574 132.632,-66.9945"/>
<polygon fill="midnightblue" stroke="midnightblue" points="865.044,-257.514 871.389,-265.999 871.72,-255.409 865.044,-257.514"/>
</g>
<!-- Node4&#45;&gt;Node3 -->
<g id="edge9" class="edge"><title>Node4&#45;&gt;Node3</title>
<path fill="none" stroke="midnightblue" d="M868.56,-293.986C860.71,-317.921 843.882,-358.636 815,-381 763.434,-420.93 738.218,-418 673,-418 673,-418 673,-418 201.5,-418 140.493,-418 70.3526,-397.178 38.0291,-386.36"/>
<polygon fill="midnightblue" stroke="midnightblue" points="871.946,-294.883 871.547,-284.295 865.257,-292.821 871.946,-294.883"/>
</g>
<!-- Node5 -->
<g id="node5" class="node"><title>Node5</title>
<g id="a_node5"><a xlink:href="main_8c.html#af18ed7edda7874a97cacaa11a2759260" target="_top" xlink:title=" ">
<polygon fill="none" stroke="black" points="175,-162 175,-180 230,-180 230,-162 175,-162"/>
<text text-anchor="middle" x="202.5" y="-168.8" font-family="Calibri" font-size="9.00">btn_push</text>
</a>
</g>
</g>
<!-- Node4&#45;&gt;Node5 -->
<g id="edge4" class="edge"><title>Node4&#45;&gt;Node5</title>
<path fill="none" stroke="midnightblue" d="M849.398,-288.935C812.36,-308.566 739.519,-342 673,-342 673,-342 673,-342 363.5,-342 274.056,-342 220.18,-215.712 206.796,-180.194"/>
<polygon fill="midnightblue" stroke="midnightblue" points="851.314,-291.877 858.439,-284.036 847.979,-285.722 851.314,-291.877"/>
</g>
<!-- Node6 -->
<g id="node6" class="node"><title>Node6</title>
<g id="a_node6"><a xlink:href="main_8c.html#ac445892220ccb3b4b337dd3e764bd6c6" target="_top" xlink:title="Handle the process of the buttons being pressed (in test mode)">
<polygon fill="none" stroke="black" points="629,-371 629,-389 715,-389 715,-371 629,-371"/>
<text text-anchor="middle" x="672" y="-377.8" font-family="Calibri" font-size="9.00">button_proc_test</text>
</a>
</g>
</g>
<!-- Node4&#45;&gt;Node6 -->
<g id="edge7" class="edge"><title>Node4&#45;&gt;Node6</title>
<path fill="none" stroke="midnightblue" d="M865.947,-293.185C856.564,-312.105 839.2,-341.018 815,-356 785.026,-374.557 744.993,-379.953 715.075,-381.056"/>
<polygon fill="midnightblue" stroke="midnightblue" points="869.136,-294.629 870.226,-284.091 862.802,-291.649 869.136,-294.629"/>
</g>
<!-- Node7 -->
<g id="node7" class="node"><title>Node7</title>
<g id="a_node7"><a xlink:href="main_8c.html#a11724d8cce81ed96bec12a004ea3ea7a" target="_top" xlink:title=" ">
<polygon fill="none" stroke="black" points="751,-200 751,-218 815,-218 815,-200 751,-200"/>
<text text-anchor="middle" x="783" y="-206.8" font-family="Calibri" font-size="9.00">show_reset</text>
</a>
</g>
</g>
<!-- Node4&#45;&gt;Node7 -->
<g id="edge10" class="edge"><title>Node4&#45;&gt;Node7</title>
<path fill="none" stroke="midnightblue" d="M853.022,-259.616C835.464,-246.74 811.003,-228.802 796.408,-218.099"/>
<polygon fill="midnightblue" stroke="midnightblue" points="851.352,-262.732 861.486,-265.823 855.492,-257.087 851.352,-262.732"/>
</g>
<!-- Node5&#45;&gt;Node2 -->
<g id="edge5" class="edge"><title>Node5&#45;&gt;Node2</title>
<path fill="none" stroke="midnightblue" d="M185.35,-154.679C165.508,-134.625 132.525,-101.291 116.624,-85.221"/>
<polygon fill="midnightblue" stroke="midnightblue" points="182.965,-157.244 192.487,-161.891 187.941,-152.321 182.965,-157.244"/>
</g>
<!-- Node6&#45;&gt;Node3 -->
<g id="edge8" class="edge"><title>Node6&#45;&gt;Node3</title>
<path fill="none" stroke="midnightblue" d="M618.635,-380C576.468,-380 515.671,-380 462.5,-380 462.5,-380 462.5,-380 201.5,-380 141.63,-380 70.6518,-380 38.0329,-380"/>
<polygon fill="midnightblue" stroke="midnightblue" points="618.671,-383.5 628.671,-380 618.671,-376.5 618.671,-383.5"/>
</g>
<!-- Node7&#45;&gt;Node2 -->
<g id="edge11" class="edge"><title>Node7&#45;&gt;Node2</title>
<path fill="none" stroke="midnightblue" d="M767.45,-192.179C734.789,-156.402 651.54,-76 563,-76 563,-76 563,-76 282.5,-76 232.37,-76 174.162,-76 139.114,-76"/>
<polygon fill="midnightblue" stroke="midnightblue" points="765.036,-194.73 774.307,-199.858 770.258,-190.068 765.036,-194.73"/>
</g>
<!-- Node8 -->
<g id="node8" class="node"><title>Node8</title>
<g id="a_node8"><a xlink:href="main_8h.html#ad7eb7423e0b17ccfba1ae42f3a3274e0" target="_top" xlink:title=" ">
<polygon fill="none" stroke="black" points="648,-200 648,-218 696,-218 696,-200 648,-200"/>
<text text-anchor="middle" x="672" y="-206.8" font-family="Calibri" font-size="9.00">get_swr</text>
</a>
</g>
</g>
<!-- Node7&#45;&gt;Node8 -->
<g id="edge12" class="edge"><title>Node7&#45;&gt;Node8</title>
<path fill="none" stroke="midnightblue" d="M740.65,-209C725.625,-209 709.181,-209 696.268,-209"/>
<polygon fill="midnightblue" stroke="midnightblue" points="740.765,-212.5 750.765,-209 740.765,-205.5 740.765,-212.5"/>
</g>
<!-- Node9 -->
<g id="node9" class="node"><title>Node9</title>
<g id="a_node9"><a xlink:href="main_8h.html#a740ef1b33bb02cd952ad7d8708999472" target="_top" xlink:title=" ">
<polygon fill="none" stroke="black" points="531,-219 531,-237 593,-237 593,-219 531,-219"/>
<text text-anchor="middle" x="562" y="-225.8" font-family="Calibri" font-size="9.00">coarse_cap</text>
</a>
</g>
</g>
<!-- Node8&#45;&gt;Node9 -->
<g id="edge13" class="edge"><title>Node8&#45;&gt;Node9</title>
<path fill="none" stroke="midnightblue" d="M637.912,-214.821C623.631,-217.333 607.043,-220.252 593.112,-222.703"/>
<polygon fill="midnightblue" stroke="midnightblue" points="638.589,-218.256 647.831,-213.076 637.376,-211.362 638.589,-218.256"/>
</g>
<!-- Node10 -->
<g id="node10" class="node"><title>Node10</title>
<g id="a_node10"><a xlink:href="main_8h.html#a5c7c60c7d70cf76cc52e87722bb0f614" target="_top" xlink:title=" ">
<polygon fill="none" stroke="black" points="428,-219 428,-237 495,-237 495,-219 428,-219"/>
<text text-anchor="middle" x="461.5" y="-225.8" font-family="Calibri" font-size="9.00">coarse_tune</text>
</a>
</g>
</g>
<!-- Node8&#45;&gt;Node10 -->
<g id="edge18" class="edge"><title>Node8&#45;&gt;Node10</title>
<path fill="none" stroke="midnightblue" d="M647.715,-223.405C632.707,-231.822 612.431,-241.625 593,-246 557.301,-254.038 515.249,-244.997 488.73,-237.086"/>
<polygon fill="midnightblue" stroke="midnightblue" points="649.872,-226.199 656.755,-218.145 646.351,-220.149 649.872,-226.199"/>
</g>
<!-- Node11 -->
<g id="node11" class="node"><title>Node11</title>
<g id="a_node11"><a xlink:href="main_8h.html#a454a7687c8039514766571b23516ca9c" target="_top" xlink:title=" ">
<polygon fill="none" stroke="black" points="337,-181 337,-199 392,-199 392,-181 337,-181"/>
<text text-anchor="middle" x="364.5" y="-187.8" font-family="Calibri" font-size="9.00">sub_tune</text>
</a>
</g>
</g>
<!-- Node8&#45;&gt;Node11 -->
<g id="edge25" class="edge"><title>Node8&#45;&gt;Node11</title>
<path fill="none" stroke="midnightblue" d="M637.533,-206.919C576.384,-203.116 447.783,-195.117 392.118,-191.655"/>
<polygon fill="midnightblue" stroke="midnightblue" points="637.589,-210.429 647.787,-207.556 638.024,-203.442 637.589,-210.429"/>
</g>
<!-- Node12 -->
<g id="node12" class="node"><title>Node12</title>
<g id="a_node12"><a xlink:href="main_8h.html#a1849f2e5bd63d11a7b9549470e287d17" target="_top" xlink:title=" ">
<polygon fill="none" stroke="black" points="266,-162 266,-180 301,-180 301,-162 266,-162"/>
<text text-anchor="middle" x="283.5" y="-168.8" font-family="Calibri" font-size="9.00">tune</text>
</a>
</g>
</g>
<!-- Node8&#45;&gt;Node12 -->
<g id="edge26" class="edge"><title>Node8&#45;&gt;Node12</title>
<path fill="none" stroke="midnightblue" d="M651.378,-193.972C636.162,-182.941 614.167,-168.318 593,-159 551.757,-140.844 539.684,-138.827 495,-133 424.633,-123.824 405.524,-137.556 337,-156 324.917,-159.252 311.337,-163.139 301.015,-166.141"/>
<polygon fill="midnightblue" stroke="midnightblue" points="649.377,-196.845 659.496,-199.983 653.543,-191.219 649.377,-196.845"/>
</g>
<!-- Node13 -->
<g id="node13" class="node"><title>Node13</title>
<g id="a_node13"><a xlink:href="main_8h.html#ab518a3d2c723f12d3af3024a195606ce" target="_top" xlink:title=" ">
<polygon fill="none" stroke="black" points="432,-143 432,-161 491,-161 491,-143 432,-143"/>
<text text-anchor="middle" x="461.5" y="-149.8" font-family="Calibri" font-size="9.00">sharp_cap</text>
</a>
</g>
</g>
<!-- Node8&#45;&gt;Node13 -->
<g id="edge19" class="edge"><title>Node8&#45;&gt;Node13</title>
<path fill="none" stroke="midnightblue" d="M643.339,-195.551C628.666,-188.868 610.166,-181.142 593,-176 558.685,-165.721 517.908,-159.074 491.18,-155.44"/>
<polygon fill="midnightblue" stroke="midnightblue" points="642.28,-198.919 652.823,-199.967 645.235,-192.573 642.28,-198.919"/>
</g>
<!-- Node14 -->
<g id="node14" class="node"><title>Node14</title>
<g id="a_node14"><a xlink:href="main_8h.html#a72210b3ed1d5691c5bbda8c7f1e97197" target="_top" xlink:title=" ">
<polygon fill="none" stroke="black" points="432.5,-256 432.5,-274 490.5,-274 490.5,-256 432.5,-256"/>
<text text-anchor="middle" x="461.5" y="-262.8" font-family="Calibri" font-size="9.00">sharp_ind</text>
</a>
</g>
</g>
<!-- Node8&#45;&gt;Node14 -->
<g id="edge22" class="edge"><title>Node8&#45;&gt;Node14</title>
<path fill="none" stroke="midnightblue" d="M653.627,-225.19C638.782,-237.872 616.201,-254.571 593,-262 559.115,-272.851 517.709,-271.521 490.752,-268.869"/>
<polygon fill="midnightblue" stroke="midnightblue" points="656.254,-227.538 661.419,-218.287 651.613,-222.298 656.254,-227.538"/>
</g>
<!-- Node9&#45;&gt;Node10 -->
<g id="edge14" class="edge"><title>Node9&#45;&gt;Node10</title>
<path fill="none" stroke="midnightblue" d="M520.77,-228C512.245,-228 503.347,-228 495.145,-228"/>
<polygon fill="midnightblue" stroke="midnightblue" points="520.912,-231.5 530.912,-228 520.912,-224.5 520.912,-231.5"/>
</g>
<!-- Node10&#45;&gt;Node11 -->
<g id="edge15" class="edge"><title>Node10&#45;&gt;Node11</title>
<path fill="none" stroke="midnightblue" d="M428.325,-215.13C415.139,-209.856 400.189,-203.876 388.181,-199.073"/>
<polygon fill="midnightblue" stroke="midnightblue" points="427.402,-218.53 437.986,-218.995 430.001,-212.031 427.402,-218.53"/>
</g>
<!-- Node11&#45;&gt;Node12 -->
<g id="edge16" class="edge"><title>Node11&#45;&gt;Node12</title>
<path fill="none" stroke="midnightblue" d="M326.778,-181.168C317.78,-179.004 308.589,-176.794 301.085,-174.989"/>
<polygon fill="midnightblue" stroke="midnightblue" points="326.213,-184.632 336.754,-183.567 327.85,-177.826 326.213,-184.632"/>
</g>
<!-- Node12&#45;&gt;Node5 -->
<g id="edge17" class="edge"><title>Node12&#45;&gt;Node5</title>
<path fill="none" stroke="midnightblue" d="M255.568,-171C247.367,-171 238.36,-171 230.177,-171"/>
<polygon fill="midnightblue" stroke="midnightblue" points="255.746,-174.5 265.746,-171 255.746,-167.5 255.746,-174.5"/>
</g>
<!-- Node13&#45;&gt;Node11 -->
<g id="edge20" class="edge"><title>Node13&#45;&gt;Node11</title>
<path fill="none" stroke="midnightblue" d="M428.325,-164.87C415.139,-170.144 400.189,-176.124 388.181,-180.927"/>
<polygon fill="midnightblue" stroke="midnightblue" points="430.001,-167.969 437.986,-161.005 427.402,-161.47 430.001,-167.969"/>
</g>
<!-- Node13&#45;&gt;Node12 -->
<g id="edge21" class="edge"><title>Node13&#45;&gt;Node12</title>
<path fill="none" stroke="midnightblue" d="M421.745,-156.184C384.194,-160.238 328.999,-166.196 301.448,-169.17"/>
<polygon fill="midnightblue" stroke="midnightblue" points="422.264,-159.648 431.831,-155.095 421.513,-152.689 422.264,-159.648"/>
</g>
<!-- Node14&#45;&gt;Node11 -->
<g id="edge23" class="edge"><title>Node14&#45;&gt;Node11</title>
<path fill="none" stroke="midnightblue" d="M434.688,-250.563C432.387,-249.081 430.126,-247.549 428,-246 407.749,-231.24 386.497,-211.035 374.73,-199.364"/>
<polygon fill="midnightblue" stroke="midnightblue" points="433.195,-253.752 443.558,-255.958 436.833,-247.771 433.195,-253.752"/>
</g>
<!-- Node14&#45;&gt;Node12 -->
<g id="edge24" class="edge"><title>Node14&#45;&gt;Node12</title>
<path fill="none" stroke="midnightblue" d="M428.056,-251.939C402.669,-241.269 366.797,-225.186 337,-208 322.318,-199.532 306.563,-188.076 296.184,-180.165"/>
<polygon fill="midnightblue" stroke="midnightblue" points="426.996,-255.289 437.573,-255.893 429.681,-248.824 426.996,-255.289"/>
</g>
</g>
</svg>
        <g id="navigator" transform="translate(0 0)" fill="#404254">
                <rect fill="#f2f5e9" fill-opacity="0.5" stroke="#606060" stroke-width=".5" x="0" y="0" width="60" height="60"/>
                <use id="zoomplus" xlink:href="#zoomPlus" x="17" y="9" onmousedown="handleZoom(evt,'in')"/>
                <use id="zoomminus" xlink:href="#zoomMin" x="42" y="9" onmousedown="handleZoom(evt,'out')"/>
                <use id="reset" xlink:href="#resetDef" x="30" y="36" onmousedown="handleReset()"/>
                <g id="arrowUp" xlink:href="#dirArrow" transform="translate(30 24)" onmousedown="handlePan(0,-1)">
                  <use xlink:href="#rim" fill="#404040">
                        <set attributeName="fill" to="#808080" begin="arrowUp.mouseover" end="arrowUp.mouseout"/>
                  </use>
                  <path fill="none" stroke="white" stroke-width="1.5" d="M0,-3.0v7 M-2.5,-0.5L0,-3.0L2.5,-0.5"/>
                </g>
                <g id="arrowRight" xlink:href="#dirArrow" transform="rotate(90) translate(36 -43)" onmousedown="handlePan(1,0)">
                  <use xlink:href="#rim" fill="#404040">
                        <set attributeName="fill" to="#808080" begin="arrowRight.mouseover" end="arrowRight.mouseout"/>
                  </use>
                  <path fill="none" stroke="white" stroke-width="1.5" d="M0,-3.0v7 M-2.5,-0.5L0,-3.0L2.5,-0.5"/>
                </g>
                <g id="arrowDown" xlink:href="#dirArrow" transform="rotate(180) translate(-30 -48)" onmousedown="handlePan(0,1)">
                  <use xlink:href="#rim" fill="#404040">
                        <set attributeName="fill" to="#808080" begin="arrowDown.mouseover" end="arrowDown.mouseout"/>
                  </use>
                  <path fill="none" stroke="white" stroke-width="1.5" d="M0,-3.0v7 M-2.5,-0.5L0,-3.0L2.5,-0.5"/>
                </g>
                <g id="arrowLeft" xlink:href="#dirArrow" transform="rotate(270) translate(-36 17)" onmousedown="handlePan(-1,0)">
                  <use xlink:href="#rim" fill="#404040">
                        <set attributeName="fill" to="#808080" begin="arrowLeft.mouseover" end="arrowLeft.mouseout"/>
                  </use>
                  <path fill="none" stroke="white" stroke-width="1.5" d="M0,-3.0v7 M-2.5,-0.5L0,-3.0L2.5,-0.5"/>
                </g>
        </g>
        <svg viewBox="0 0 15 15" width="100%" height="30px" preserveAspectRatio="xMaxYMin meet">
         <g id="arrow_out" transform="scale(0.3 0.3)">
          <a xlink:href="oled__control_8h_aacdf9e1bdb75f04b68032b228d23e3e3_icgraph_org.svg" target="_base">
           <rect id="button" ry="5" rx="5" y="6" x="6" height="38" width="38"
                fill="#f2f5e9" fill-opacity="0.5" stroke="#606060" stroke-width="1.0"/>
           <path id="arrow"
             d="M 11.500037,31.436501 C 11.940474,20.09759 22.043105,11.32322 32.158766,21.979434 L 37.068811,17.246167 C 37.068811,17.246167 37.088388,32 37.088388,32 L 22.160133,31.978069 C 22.160133,31.978069 26.997745,27.140456 26.997745,27.140456 C 18.528582,18.264221 13.291696,25.230495 11.500037,31.436501 z"
             style="fill:#404040;"/>
          </a>
         </g>
        </svg>
</svg>
