<?xml version="1.0" encoding="UTF-8" standalone="no"?>
<!DOCTYPE svg PUBLIC "-//W3C//DTD SVG 1.1//EN"
 "http://www.w3.org/Graphics/SVG/1.1/DTD/svg11.dtd">
<!-- Generated by graphviz version 2.38.0 (20140413.2041)
 -->
<!-- Title: dysp_off Pages: 1 -->
<svg width="288pt" height="101pt"
 viewBox="0.00 0.00 288.00 101.00" xmlns="http://www.w3.org/2000/svg" xmlns:xlink="http://www.w3.org/1999/xlink">
<g id="graph0" class="graph" transform="scale(1 1) rotate(0) translate(4 97)">
<title>dysp_off</title>
<!-- Node1 -->
<g id="node1" class="node"><title>Node1</title>
<g id="a_node1"><a xlink:title=" ">
<polygon fill="#bfbfbf" stroke="black" points="0,-36.5 0,-54.5 51,-54.5 51,-36.5 0,-36.5"/>
<text text-anchor="middle" x="25.5" y="-43.3" font-family="Calibri" font-size="9.00">dysp_off</text>
</a>
</g>
</g>
<!-- Node2 -->
<g id="node2" class="node"><title>Node2</title>
<g id="a_node2"><a xlink:href="oled__control_8c.html#ad25764a33e482f4e9db2701198e02551" target="_top" xlink:title=" ">
<polygon fill="none" stroke="black" points="100,-55.5 100,-73.5 155,-73.5 155,-55.5 100,-55.5"/>
<text text-anchor="middle" x="127.5" y="-62.3" font-family="Calibri" font-size="9.00">led_send</text>
</a>
</g>
</g>
<!-- Node1&#45;&gt;Node2 -->
<g id="edge1" class="edge"><title>Node1&#45;&gt;Node2</title>
<path fill="none" stroke="midnightblue" d="M51.2191,-50.1966C62.9023,-52.4164 77.0846,-55.1111 89.9754,-57.5603"/>
<polygon fill="midnightblue" stroke="midnightblue" points="89.4868,-61.03 99.9644,-59.4582 90.7935,-54.1531 89.4868,-61.03"/>
</g>
<!-- Node6 -->
<g id="node6" class="node"><title>Node6</title>
<g id="a_node6"><a xlink:href="oled__control_8c.html#ad141ed038278a6fcad6c307932f01ec8" target="_top" xlink:title=" ">
<polygon fill="none" stroke="black" points="87,-18.5 87,-36.5 168,-36.5 168,-18.5 87,-18.5"/>
<text text-anchor="middle" x="127.5" y="-25.3" font-family="Calibri" font-size="9.00">send_command</text>
</a>
</g>
</g>
<!-- Node1&#45;&gt;Node6 -->
<g id="edge5" class="edge"><title>Node1&#45;&gt;Node6</title>
<path fill="none" stroke="midnightblue" d="M51.2191,-41.0506C59.0353,-39.6436 67.9701,-38.0354 76.8883,-36.4301"/>
<polygon fill="midnightblue" stroke="midnightblue" points="77.6681,-39.8461 86.8898,-34.6298 76.4279,-32.9568 77.6681,-39.8461"/>
</g>
<!-- Node3 -->
<g id="node3" class="node"><title>Node3</title>
<g id="a_node3"><a xlink:href="oled__control_8c.html#ab7f6b5c6c1483f6286f2de5786c028d9" target="_top" xlink:title=" ">
<polygon fill="none" stroke="black" points="206,-74.5 206,-92.5 278,-92.5 278,-74.5 206,-74.5"/>
<text text-anchor="middle" x="242" y="-81.3" font-family="Calibri" font-size="9.00">Soft_I2C_Start</text>
</a>
</g>
</g>
<!-- Node2&#45;&gt;Node3 -->
<g id="edge2" class="edge"><title>Node2&#45;&gt;Node3</title>
<path fill="none" stroke="midnightblue" d="M155.161,-69.0027C167.173,-71.0315 181.703,-73.4853 195.365,-75.7928"/>
<polygon fill="midnightblue" stroke="midnightblue" points="195.144,-79.305 205.588,-77.5192 196.31,-72.4027 195.144,-79.305"/>
</g>
<!-- Node4 -->
<g id="node4" class="node"><title>Node4</title>
<g id="a_node4"><a xlink:href="oled__control_8c.html#a16eb842aa672ca44820ae6d5f9933425" target="_top" xlink:title=" ">
<polygon fill="none" stroke="black" points="206.5,-37.5 206.5,-55.5 277.5,-55.5 277.5,-37.5 206.5,-37.5"/>
<text text-anchor="middle" x="242" y="-44.3" font-family="Calibri" font-size="9.00">Soft_I2C_Stop</text>
</a>
</g>
</g>
<!-- Node2&#45;&gt;Node4 -->
<g id="edge3" class="edge"><title>Node2&#45;&gt;Node4</title>
<path fill="none" stroke="midnightblue" d="M155.161,-60.2343C167.5,-58.26 182.495,-55.8607 196.478,-53.6234"/>
<polygon fill="midnightblue" stroke="midnightblue" points="197.108,-57.0674 206.429,-52.0314 196.002,-50.1553 197.108,-57.0674"/>
</g>
<!-- Node5 -->
<g id="node5" class="node"><title>Node5</title>
<g id="a_node5"><a xlink:href="oled__control_8c.html#a73610916645f17c19124e697b005f694" target="_top" xlink:title=" ">
<polygon fill="none" stroke="black" points="204,-0.5 204,-18.5 280,-18.5 280,-0.5 204,-0.5"/>
<text text-anchor="middle" x="242" y="-7.3" font-family="Calibri" font-size="9.00">Soft_I2C_Write</text>
</a>
</g>
</g>
<!-- Node2&#45;&gt;Node5 -->
<g id="edge4" class="edge"><title>Node2&#45;&gt;Node5</title>
<path fill="none" stroke="midnightblue" d="M149.077,-55.3185C155.191,-52.5376 161.888,-49.44 168,-46.5 176.805,-42.2647 197.218,-31.9012 214.226,-23.2164"/>
<polygon fill="midnightblue" stroke="midnightblue" points="215.918,-26.2822 223.229,-18.6138 212.732,-20.0494 215.918,-26.2822"/>
</g>
<!-- Node6&#45;&gt;Node3 -->
<g id="edge6" class="edge"><title>Node6&#45;&gt;Node3</title>
<path fill="none" stroke="midnightblue" d="M147.858,-36.6342C154.291,-39.7171 161.477,-43.2112 168,-46.5 184.155,-54.6448 187.863,-57.3194 204,-65.5 206.931,-66.9858 210.003,-68.5189 213.071,-70.0342"/>
<polygon fill="midnightblue" stroke="midnightblue" points="211.597,-73.2095 222.118,-74.4619 214.675,-66.9222 211.597,-73.2095"/>
</g>
<!-- Node6&#45;&gt;Node4 -->
<g id="edge7" class="edge"><title>Node6&#45;&gt;Node4</title>
<path fill="none" stroke="midnightblue" d="M168.163,-34.1987C177.269,-35.7365 187.011,-37.3819 196.313,-38.9528"/>
<polygon fill="midnightblue" stroke="midnightblue" points="195.739,-42.4054 206.182,-40.6196 196.904,-35.5031 195.739,-42.4054"/>
</g>
<!-- Node6&#45;&gt;Node5 -->
<g id="edge8" class="edge"><title>Node6&#45;&gt;Node5</title>
<path fill="none" stroke="midnightblue" d="M168.163,-21.1539C176.53,-19.8153 185.433,-18.3907 194.039,-17.0138"/>
<polygon fill="midnightblue" stroke="midnightblue" points="194.632,-20.4634 203.954,-15.4274 193.526,-13.5513 194.632,-20.4634"/>
</g>
</g>
</svg>
