<?xml version="1.0" encoding="UTF-8" standalone="no"?>
<!DOCTYPE svg PUBLIC "-//W3C//DTD SVG 1.1//EN"
 "http://www.w3.org/Graphics/SVG/1.1/DTD/svg11.dtd">
<!-- Generated by graphviz version 2.38.0 (20140413.2041)
 -->
<!-- Title: led_send Pages: 1 -->
<!--zoomable 521 -->
<svg id="main" version="1.1" xmlns="http://www.w3.org/2000/svg" xmlns:xlink="http://www.w3.org/1999/xlink" xml:space="preserve" onload="init(evt)">
<style type="text/css"><![CDATA[
.edge:hover path { stroke: red; }
.edge:hover polygon { stroke: red; fill: red; }
]]></style>
<script type="text/javascript"><![CDATA[
var edges = document.getElementsByTagName('g');
if (edges && edges.length) {
  for (var i=0;i<edges.length;i++) {
    if (edges[i].id.substr(0,4)=='edge') {
      edges[i].setAttribute('class','edge');
    }
  }
}
]]></script>
        <defs>
                <circle id="rim" cx="0" cy="0" r="7"/>
                <circle id="rim2" cx="0" cy="0" r="3.5"/>
                <g id="zoomPlus">
                        <use xlink:href="#rim" fill="#404040">
                                <set attributeName="fill" to="#808080" begin="zoomplus.mouseover" end="zoomplus.mouseout"/>
                        </use>
                        <path d="M-4,0h8M0,-4v8" fill="none" stroke="white" stroke-width="1.5" pointer-events="none"/>
                </g>
                <g id="zoomMin">
                        <use xlink:href="#rim" fill="#404040">
                                <set attributeName="fill" to="#808080" begin="zoomminus.mouseover" end="zoomminus.mouseout"/>
                        </use>
                        <path d="M-4,0h8" fill="none" stroke="white" stroke-width="1.5" pointer-events="none"/>
                </g>
                <g id="dirArrow">
                        <path fill="none" stroke="white" stroke-width="1.5" d="M0,-3.0v7 M-2.5,-0.5L0,-3.0L2.5,-0.5"/>
                </g>
               <g id="resetDef">
                       <use xlink:href="#rim2" fill="#404040">
                               <set attributeName="fill" to="#808080" begin="reset.mouseover" end="reset.mouseout"/>
                       </use>
               </g>
        </defs>

<script type="text/javascript">
var viewWidth = 1096;
var viewHeight = 521;
var sectionId = 'dynsection-8';
</script>
<script xlink:href="svgpan.js"/>
<svg id="graph" class="graph">
<g id="viewport">
<title>led_send</title>
<!-- Node1 -->
<g id="node1" class="node"><title>Node1</title>
<g id="a_node1"><a xlink:title=" ">
<polygon fill="#bfbfbf" stroke="black" points="1033,-114.5 1033,-132.5 1088,-132.5 1088,-114.5 1033,-114.5"/>
<text text-anchor="middle" x="1060.5" y="-121.3" font-family="Calibri" font-size="9.00">led_send</text>
</a>
</g>
</g>
<!-- Node2 -->
<g id="node2" class="node"><title>Node2</title>
<g id="a_node2"><a xlink:href="oled__control_8c.html#a2713541ce4c2489974d11921618a56d1" target="_top" xlink:title=" ">
<polygon fill="none" stroke="black" points="851,-494.5 851,-512.5 902,-512.5 902,-494.5 851,-494.5"/>
<text text-anchor="middle" x="876.5" y="-501.3" font-family="Calibri" font-size="9.00">dysp_off</text>
</a>
</g>
</g>
<!-- Node1&#45;&gt;Node2 -->
<g id="edge1" class="edge"><title>Node1&#45;&gt;Node2</title>
<path fill="none" stroke="midnightblue" d="M1053.91,-142.53C1037.06,-197.976 982.865,-362.839 902,-479.5 898.201,-484.981 893.037,-490.26 888.429,-494.464"/>
<polygon fill="midnightblue" stroke="midnightblue" points="1057.34,-143.263 1056.86,-132.68 1050.64,-141.256 1057.34,-143.263"/>
</g>
<!-- Node4 -->
<g id="node4" class="node"><title>Node4</title>
<g id="a_node4"><a xlink:href="oled__control_8c.html#a2c663a2db505aa3f2271f6cf4bae1521" target="_top" xlink:title=" ">
<polygon fill="none" stroke="black" points="942.5,-133.5 942.5,-151.5 992.5,-151.5 992.5,-133.5 942.5,-133.5"/>
<text text-anchor="middle" x="967.5" y="-140.3" font-family="Calibri" font-size="9.00">dysp_on</text>
</a>
</g>
</g>
<!-- Node1&#45;&gt;Node4 -->
<g id="edge3" class="edge"><title>Node1&#45;&gt;Node4</title>
<path fill="none" stroke="midnightblue" d="M1022.81,-131.16C1012.65,-133.281 1001.89,-135.529 992.64,-137.46"/>
<polygon fill="midnightblue" stroke="midnightblue" points="1023.62,-134.568 1032.69,-129.098 1022.18,-127.716 1023.62,-134.568"/>
</g>
<!-- Node17 -->
<g id="node17" class="node"><title>Node17</title>
<g id="a_node17"><a xlink:href="oled__control_8c.html#a7eb4d382bdd4b42c57dbb7154d03ac66" target="_top" xlink:title=" ">
<polygon fill="none" stroke="black" points="758.5,-0.5 758.5,-18.5 807.5,-18.5 807.5,-0.5 758.5,-0.5"/>
<text text-anchor="middle" x="783" y="-7.3" font-family="Calibri" font-size="9.00">led_init</text>
</a>
</g>
</g>
<!-- Node1&#45;&gt;Node17 -->
<g id="edge30" class="edge"><title>Node1&#45;&gt;Node17</title>
<path fill="none" stroke="midnightblue" d="M1022.67,-113.168C998.322,-105.977 965.881,-95.6977 938,-84.5 886.672,-63.8856 828.634,-33.6345 800.733,-18.6323"/>
<polygon fill="midnightblue" stroke="midnightblue" points="1021.99,-116.615 1032.57,-116.054 1023.95,-109.895 1021.99,-116.615"/>
</g>
<!-- Node18 -->
<g id="node18" class="node"><title>Node18</title>
<g id="a_node18"><a xlink:href="oled__control_8c.html#a9d56c6c2e653b24a0caf505492ad818a" target="_top" xlink:title=" ">
<polygon fill="none" stroke="black" points="938,-57.5 938,-75.5 997,-75.5 997,-57.5 938,-57.5"/>
<text text-anchor="middle" x="967.5" y="-64.3" font-family="Calibri" font-size="9.00">led_wr_str</text>
</a>
</g>
</g>
<!-- Node1&#45;&gt;Node18 -->
<g id="edge32" class="edge"><title>Node1&#45;&gt;Node18</title>
<path fill="none" stroke="midnightblue" d="M1036.21,-108.909C1019.46,-98.4207 997.4,-84.6019 983.084,-75.6353"/>
<polygon fill="midnightblue" stroke="midnightblue" points="1034.55,-112 1044.88,-114.342 1038.26,-106.067 1034.55,-112"/>
</g>
<!-- Node3 -->
<g id="node3" class="node"><title>Node3</title>
<g id="a_node3"><a xlink:href="main_8c.html#acdef7a1fd863a6d3770c1268cb06add3" target="_top" xlink:title=" ">
<polygon fill="none" stroke="black" points="0,-76.5 0,-94.5 38,-94.5 38,-76.5 0,-76.5"/>
<text text-anchor="middle" x="19" y="-83.3" font-family="Calibri" font-size="9.00">main</text>
</a>
</g>
</g>
<!-- Node2&#45;&gt;Node3 -->
<g id="edge2" class="edge"><title>Node2&#45;&gt;Node3</title>
<path fill="none" stroke="midnightblue" d="M840.764,-503.5C800.43,-503.5 731.897,-503.5 673,-503.5 673,-503.5 673,-503.5 201.5,-503.5 16.7658,-503.5 18.0294,-155.748 19.6786,-94.6193"/>
<polygon fill="midnightblue" stroke="midnightblue" points="840.874,-507 850.874,-503.5 840.874,-500 840.874,-507"/>
</g>
<!-- Node5 -->
<g id="node5" class="node"><title>Node5</title>
<g id="a_node5"><a xlink:href="main_8c.html#a1c9e5d54d8cf7f3d041aa2e0b330b3dd" target="_top" xlink:title=" ">
<polygon fill="none" stroke="black" points="74,-190.5 74,-208.5 139,-208.5 139,-190.5 74,-190.5"/>
<text text-anchor="middle" x="106.5" y="-197.3" font-family="Calibri" font-size="9.00">button_proc</text>
</a>
</g>
</g>
<!-- Node4&#45;&gt;Node5 -->
<g id="edge4" class="edge"><title>Node4&#45;&gt;Node5</title>
<path fill="none" stroke="midnightblue" d="M960.372,-161.432C937.427,-230.585 854.308,-465.5 784,-465.5 784,-465.5 784,-465.5 282.5,-465.5 227.345,-465.5 209.835,-446.262 175,-403.5 124.343,-341.316 111.164,-239.693 108.241,-208.737"/>
<polygon fill="midnightblue" stroke="midnightblue" points="963.735,-162.411 963.527,-151.818 957.084,-160.229 963.735,-162.411"/>
</g>
<!-- Node6 -->
<g id="node6" class="node"><title>Node6</title>
<g id="a_node6"><a xlink:href="main_8c.html#ae5a14b4884e85f47ad8a4a716f13203a" target="_top" xlink:title=" ">
<polygon fill="none" stroke="black" points="852.5,-133.5 852.5,-151.5 900.5,-151.5 900.5,-133.5 852.5,-133.5"/>
<text text-anchor="middle" x="876.5" y="-140.3" font-family="Calibri" font-size="9.00">lcd_pwr</text>
</a>
</g>
</g>
<!-- Node4&#45;&gt;Node6 -->
<g id="edge6" class="edge"><title>Node4&#45;&gt;Node6</title>
<path fill="none" stroke="midnightblue" d="M932.003,-142.5C921.468,-142.5 910.146,-142.5 900.564,-142.5"/>
<polygon fill="midnightblue" stroke="midnightblue" points="932.18,-146 942.18,-142.5 932.18,-139 932.18,-146"/>
</g>
<!-- Node5&#45;&gt;Node3 -->
<g id="edge5" class="edge"><title>Node5&#45;&gt;Node3</title>
<path fill="none" stroke="midnightblue" d="M92.4362,-182.082C74.0185,-157.525 41.081,-113.608 26.8545,-94.6394"/>
<polygon fill="midnightblue" stroke="midnightblue" points="89.7031,-184.271 98.5032,-190.171 95.3031,-180.071 89.7031,-184.271"/>
</g>
<!-- Node6&#45;&gt;Node3 -->
<g id="edge12" class="edge"><title>Node6&#45;&gt;Node3</title>
<path fill="none" stroke="midnightblue" d="M847.228,-129.22C808.718,-112.377 737.203,-85.5 673,-85.5 673,-85.5 673,-85.5 201.5,-85.5 141.63,-85.5 70.6518,-85.5 38.0329,-85.5"/>
<polygon fill="midnightblue" stroke="midnightblue" points="846.175,-132.583 856.733,-133.468 849.032,-126.192 846.175,-132.583"/>
</g>
<!-- Node6&#45;&gt;Node5 -->
<g id="edge9" class="edge"><title>Node6&#45;&gt;Node5</title>
<path fill="none" stroke="midnightblue" d="M842.495,-137.491C802.486,-131.861 732.966,-123.5 673,-123.5 673,-123.5 673,-123.5 282.5,-123.5 215.922,-123.5 146.01,-170.352 119.043,-190.483"/>
<polygon fill="midnightblue" stroke="midnightblue" points="842.089,-140.968 852.486,-138.926 843.085,-134.039 842.089,-140.968"/>
</g>
<!-- Node7 -->
<g id="node7" class="node"><title>Node7</title>
<g id="a_node7"><a xlink:href="main_8c.html#af18ed7edda7874a97cacaa11a2759260" target="_top" xlink:title=" ">
<polygon fill="none" stroke="black" points="175,-190.5 175,-208.5 230,-208.5 230,-190.5 175,-190.5"/>
<text text-anchor="middle" x="202.5" y="-197.3" font-family="Calibri" font-size="9.00">btn_push</text>
</a>
</g>
</g>
<!-- Node6&#45;&gt;Node7 -->
<g id="edge7" class="edge"><title>Node6&#45;&gt;Node7</title>
<path fill="none" stroke="midnightblue" d="M842.495,-147.509C802.486,-153.139 732.966,-161.5 673,-161.5 673,-161.5 673,-161.5 363.5,-161.5 313.537,-161.5 257.115,-179.257 226.412,-190.495"/>
<polygon fill="midnightblue" stroke="midnightblue" points="843.085,-150.961 852.486,-146.074 842.089,-144.032 843.085,-150.961"/>
</g>
<!-- Node8 -->
<g id="node8" class="node"><title>Node8</title>
<g id="a_node8"><a xlink:href="main_8c.html#ac445892220ccb3b4b337dd3e764bd6c6" target="_top" xlink:title=" ">
<polygon fill="none" stroke="black" points="629,-38.5 629,-56.5 715,-56.5 715,-38.5 629,-38.5"/>
<text text-anchor="middle" x="672" y="-45.3" font-family="Calibri" font-size="9.00">button_proc_test</text>
</a>
</g>
</g>
<!-- Node6&#45;&gt;Node8 -->
<g id="edge10" class="edge"><title>Node6&#45;&gt;Node8</title>
<path fill="none" stroke="midnightblue" d="M858.311,-126.278C855.799,-123.732 853.289,-121.086 851,-118.5 833.558,-98.7994 837.537,-85.08 815,-71.5 784.912,-53.3701 745.078,-47.9115 715.259,-46.6764"/>
<polygon fill="midnightblue" stroke="midnightblue" points="856.047,-128.96 865.64,-133.457 860.946,-123.959 856.047,-128.96"/>
</g>
<!-- Node9 -->
<g id="node9" class="node"><title>Node9</title>
<g id="a_node9"><a xlink:href="main_8c.html#a11724d8cce81ed96bec12a004ea3ea7a" target="_top" xlink:title=" ">
<polygon fill="none" stroke="black" points="751,-285.5 751,-303.5 815,-303.5 815,-285.5 751,-285.5"/>
<text text-anchor="middle" x="783" y="-292.3" font-family="Calibri" font-size="9.00">show_reset</text>
</a>
</g>
</g>
<!-- Node6&#45;&gt;Node9 -->
<g id="edge13" class="edge"><title>Node6&#45;&gt;Node9</title>
<path fill="none" stroke="midnightblue" d="M864.7,-160.44C845.105,-192.992 804.353,-260.69 789.537,-285.302"/>
<polygon fill="midnightblue" stroke="midnightblue" points="867.891,-161.926 870.05,-151.553 861.894,-158.315 867.891,-161.926"/>
</g>
<!-- Node7&#45;&gt;Node5 -->
<g id="edge8" class="edge"><title>Node7&#45;&gt;Node5</title>
<path fill="none" stroke="midnightblue" d="M164.545,-199.5C156.183,-199.5 147.376,-199.5 139.25,-199.5"/>
<polygon fill="midnightblue" stroke="midnightblue" points="164.815,-203 174.815,-199.5 164.815,-196 164.815,-203"/>
</g>
<!-- Node8&#45;&gt;Node3 -->
<g id="edge11" class="edge"><title>Node8&#45;&gt;Node3</title>
<path fill="none" stroke="midnightblue" d="M618.635,-47.5C576.468,-47.5 515.671,-47.5 462.5,-47.5 462.5,-47.5 462.5,-47.5 201.5,-47.5 140.493,-47.5 70.3526,-68.322 38.0291,-79.1397"/>
<polygon fill="midnightblue" stroke="midnightblue" points="618.671,-51.0001 628.671,-47.5 618.671,-44.0001 618.671,-51.0001"/>
</g>
<!-- Node9&#45;&gt;Node5 -->
<g id="edge14" class="edge"><title>Node9&#45;&gt;Node5</title>
<path fill="none" stroke="midnightblue" d="M767.45,-311.321C734.789,-347.098 651.54,-427.5 563,-427.5 563,-427.5 563,-427.5 282.5,-427.5 170.227,-427.5 120.126,-251.375 109.638,-208.72"/>
<polygon fill="midnightblue" stroke="midnightblue" points="770.258,-313.432 774.307,-303.642 765.036,-308.77 770.258,-313.432"/>
</g>
<!-- Node10 -->
<g id="node10" class="node"><title>Node10</title>
<g id="a_node10"><a xlink:href="main_8h.html#ad7eb7423e0b17ccfba1ae42f3a3274e0" target="_top" xlink:title=" ">
<polygon fill="none" stroke="black" points="648,-285.5 648,-303.5 696,-303.5 696,-285.5 648,-285.5"/>
<text text-anchor="middle" x="672" y="-292.3" font-family="Calibri" font-size="9.00">get_swr</text>
</a>
</g>
</g>
<!-- Node9&#45;&gt;Node10 -->
<g id="edge15" class="edge"><title>Node9&#45;&gt;Node10</title>
<path fill="none" stroke="midnightblue" d="M740.65,-294.5C725.625,-294.5 709.181,-294.5 696.268,-294.5"/>
<polygon fill="midnightblue" stroke="midnightblue" points="740.765,-298 750.765,-294.5 740.765,-291 740.765,-298"/>
</g>
<!-- Node11 -->
<g id="node11" class="node"><title>Node11</title>
<g id="a_node11"><a xlink:href="main_8h.html#a740ef1b33bb02cd952ad7d8708999472" target="_top" xlink:title=" ">
<polygon fill="none" stroke="black" points="531,-304.5 531,-322.5 593,-322.5 593,-304.5 531,-304.5"/>
<text text-anchor="middle" x="562" y="-311.3" font-family="Calibri" font-size="9.00">coarse_cap</text>
</a>
</g>
</g>
<!-- Node10&#45;&gt;Node11 -->
<g id="edge16" class="edge"><title>Node10&#45;&gt;Node11</title>
<path fill="none" stroke="midnightblue" d="M637.912,-300.321C623.631,-302.833 607.043,-305.752 593.112,-308.203"/>
<polygon fill="midnightblue" stroke="midnightblue" points="638.589,-303.756 647.831,-298.576 637.376,-296.862 638.589,-303.756"/>
</g>
<!-- Node12 -->
<g id="node12" class="node"><title>Node12</title>
<g id="a_node12"><a xlink:href="main_8h.html#a5c7c60c7d70cf76cc52e87722bb0f614" target="_top" xlink:title=" ">
<polygon fill="none" stroke="black" points="428,-266.5 428,-284.5 495,-284.5 495,-266.5 428,-266.5"/>
<text text-anchor="middle" x="461.5" y="-273.3" font-family="Calibri" font-size="9.00">coarse_tune</text>
</a>
</g>
</g>
<!-- Node10&#45;&gt;Node12 -->
<g id="edge21" class="edge"><title>Node10&#45;&gt;Node12</title>
<path fill="none" stroke="midnightblue" d="M637.82,-291.476C598.733,-287.915 534.206,-282.034 495.29,-278.488"/>
<polygon fill="midnightblue" stroke="midnightblue" points="637.614,-294.972 647.89,-292.394 638.249,-288.001 637.614,-294.972"/>
</g>
<!-- Node13 -->
<g id="node13" class="node"><title>Node13</title>
<g id="a_node13"><a xlink:href="main_8h.html#a454a7687c8039514766571b23516ca9c" target="_top" xlink:title=" ">
<polygon fill="none" stroke="black" points="337,-266.5 337,-284.5 392,-284.5 392,-266.5 337,-266.5"/>
<text text-anchor="middle" x="364.5" y="-273.3" font-family="Calibri" font-size="9.00">sub_tune</text>
</a>
</g>
</g>
<!-- Node10&#45;&gt;Node13 -->
<g id="edge28" class="edge"><title>Node10&#45;&gt;Node13</title>
<path fill="none" stroke="midnightblue" d="M647.715,-308.905C632.707,-317.322 612.431,-327.125 593,-331.5 513.239,-349.459 418.481,-304.694 381.446,-284.631"/>
<polygon fill="midnightblue" stroke="midnightblue" points="649.872,-311.699 656.755,-303.645 646.351,-305.649 649.872,-311.699"/>
</g>
<!-- Node14 -->
<g id="node14" class="node"><title>Node14</title>
<g id="a_node14"><a xlink:href="main_8h.html#a1849f2e5bd63d11a7b9549470e287d17" target="_top" xlink:title=" ">
<polygon fill="none" stroke="black" points="266,-228.5 266,-246.5 301,-246.5 301,-228.5 266,-228.5"/>
<text text-anchor="middle" x="283.5" y="-235.3" font-family="Calibri" font-size="9.00">tune</text>
</a>
</g>
</g>
<!-- Node10&#45;&gt;Node14 -->
<g id="edge29" class="edge"><title>Node10&#45;&gt;Node14</title>
<path fill="none" stroke="midnightblue" d="M654.223,-310.697C639.45,-323.752 616.655,-341.111 593,-348.5 566.698,-356.716 558.474,-350.621 531,-348.5 441.646,-341.601 410.392,-344.934 337,-293.5 317.792,-280.039 300.181,-258.618 291.049,-246.545"/>
<polygon fill="midnightblue" stroke="midnightblue" points="656.939,-312.955 661.94,-303.615 652.206,-307.797 656.939,-312.955"/>
</g>
<!-- Node15 -->
<g id="node15" class="node"><title>Node15</title>
<g id="a_node15"><a xlink:href="main_8h.html#ab518a3d2c723f12d3af3024a195606ce" target="_top" xlink:title=" ">
<polygon fill="none" stroke="black" points="432,-228.5 432,-246.5 491,-246.5 491,-228.5 432,-228.5"/>
<text text-anchor="middle" x="461.5" y="-235.3" font-family="Calibri" font-size="9.00">sharp_cap</text>
</a>
</g>
</g>
<!-- Node10&#45;&gt;Node15 -->
<g id="edge22" class="edge"><title>Node10&#45;&gt;Node15</title>
<path fill="none" stroke="midnightblue" d="M638.226,-285.54C597.725,-274.468 529.468,-255.808 491.03,-245.3"/>
<polygon fill="midnightblue" stroke="midnightblue" points="637.321,-288.921 647.89,-288.182 639.167,-282.169 637.321,-288.921"/>
</g>
<!-- Node16 -->
<g id="node16" class="node"><title>Node16</title>
<g id="a_node16"><a xlink:href="main_8h.html#a72210b3ed1d5691c5bbda8c7f1e97197" target="_top" xlink:title=" ">
<polygon fill="none" stroke="black" points="432.5,-190.5 432.5,-208.5 490.5,-208.5 490.5,-190.5 432.5,-190.5"/>
<text text-anchor="middle" x="461.5" y="-197.3" font-family="Calibri" font-size="9.00">sharp_ind</text>
</a>
</g>
</g>
<!-- Node10&#45;&gt;Node16 -->
<g id="edge25" class="edge"><title>Node10&#45;&gt;Node16</title>
<path fill="none" stroke="midnightblue" d="M644.939,-280.516C629.895,-272.6 610.537,-262.678 593,-254.5 555.788,-237.147 511.592,-219.029 485.359,-208.528"/>
<polygon fill="midnightblue" stroke="midnightblue" points="643.665,-283.801 654.14,-285.39 646.941,-277.616 643.665,-283.801"/>
</g>
<!-- Node11&#45;&gt;Node12 -->
<g id="edge17" class="edge"><title>Node11&#45;&gt;Node12</title>
<path fill="none" stroke="midnightblue" d="M528.041,-300.785C514.272,-295.473 498.589,-289.423 486.017,-284.573"/>
<polygon fill="midnightblue" stroke="midnightblue" points="527.067,-304.161 537.657,-304.495 529.587,-297.63 527.067,-304.161"/>
</g>
<!-- Node12&#45;&gt;Node13 -->
<g id="edge18" class="edge"><title>Node12&#45;&gt;Node13</title>
<path fill="none" stroke="midnightblue" d="M417.785,-275.5C409.104,-275.5 400.207,-275.5 392.271,-275.5"/>
<polygon fill="midnightblue" stroke="midnightblue" points="417.806,-279 427.806,-275.5 417.806,-272 417.806,-279"/>
</g>
<!-- Node13&#45;&gt;Node14 -->
<g id="edge19" class="edge"><title>Node13&#45;&gt;Node14</title>
<path fill="none" stroke="midnightblue" d="M335.566,-262.064C324.085,-256.541 311.174,-250.331 301.207,-245.536"/>
<polygon fill="midnightblue" stroke="midnightblue" points="334.249,-265.314 344.778,-266.495 337.284,-259.006 334.249,-265.314"/>
</g>
<!-- Node14&#45;&gt;Node7 -->
<g id="edge20" class="edge"><title>Node14&#45;&gt;Node7</title>
<path fill="none" stroke="midnightblue" d="M256.5,-224.994C245.385,-219.647 232.649,-213.521 222.448,-208.614"/>
<polygon fill="midnightblue" stroke="midnightblue" points="255.217,-228.26 265.746,-229.441 258.252,-221.952 255.217,-228.26"/>
</g>
<!-- Node15&#45;&gt;Node13 -->
<g id="edge23" class="edge"><title>Node15&#45;&gt;Node13</title>
<path fill="none" stroke="midnightblue" d="M428.325,-250.37C415.139,-255.644 400.189,-261.624 388.181,-266.427"/>
<polygon fill="midnightblue" stroke="midnightblue" points="430.001,-253.469 437.986,-246.505 427.402,-246.97 430.001,-253.469"/>
</g>
<!-- Node15&#45;&gt;Node14 -->
<g id="edge24" class="edge"><title>Node15&#45;&gt;Node14</title>
<path fill="none" stroke="midnightblue" d="M421.745,-237.5C384.194,-237.5 328.999,-237.5 301.448,-237.5"/>
<polygon fill="midnightblue" stroke="midnightblue" points="421.831,-241 431.831,-237.5 421.831,-234 421.831,-241"/>
</g>
<!-- Node16&#45;&gt;Node13 -->
<g id="edge26" class="edge"><title>Node16&#45;&gt;Node13</title>
<path fill="none" stroke="midnightblue" d="M434.673,-213.917C432.375,-215.403 430.119,-216.941 428,-218.5 407.416,-233.641 385.94,-254.532 374.294,-266.362"/>
<polygon fill="midnightblue" stroke="midnightblue" points="436.82,-216.707 443.539,-208.515 433.178,-210.73 436.82,-216.707"/>
</g>
<!-- Node16&#45;&gt;Node14 -->
<g id="edge27" class="edge"><title>Node16&#45;&gt;Node14</title>
<path fill="none" stroke="midnightblue" d="M422.097,-207.792C384.36,-215.939 328.557,-227.988 301.055,-233.926"/>
<polygon fill="midnightblue" stroke="midnightblue" points="423.186,-211.137 432.223,-205.605 421.709,-204.295 423.186,-211.137"/>
</g>
<!-- Node17&#45;&gt;Node3 -->
<g id="edge31" class="edge"><title>Node17&#45;&gt;Node3</title>
<path fill="none" stroke="midnightblue" d="M748.153,-9.5C705.123,-9.5 628.544,-9.5 563,-9.5 563,-9.5 563,-9.5 201.5,-9.5 132.836,-9.5 60.1064,-56.3517 32.025,-76.4834"/>
<polygon fill="midnightblue" stroke="midnightblue" points="748.343,-13.0001 758.343,-9.5 748.343,-6.0001 748.343,-13.0001"/>
</g>
</g>
</svg>
        <g id="navigator" transform="translate(0 0)" fill="#404254">
                <rect fill="#f2f5e9" fill-opacity="0.5" stroke="#606060" stroke-width=".5" x="0" y="0" width="60" height="60"/>
                <use id="zoomplus" xlink:href="#zoomPlus" x="17" y="9" onmousedown="handleZoom(evt,'in')"/>
                <use id="zoomminus" xlink:href="#zoomMin" x="42" y="9" onmousedown="handleZoom(evt,'out')"/>
                <use id="reset" xlink:href="#resetDef" x="30" y="36" onmousedown="handleReset()"/>
                <g id="arrowUp" xlink:href="#dirArrow" transform="translate(30 24)" onmousedown="handlePan(0,-1)">
                  <use xlink:href="#rim" fill="#404040">
                        <set attributeName="fill" to="#808080" begin="arrowUp.mouseover" end="arrowUp.mouseout"/>
                  </use>
                  <path fill="none" stroke="white" stroke-width="1.5" d="M0,-3.0v7 M-2.5,-0.5L0,-3.0L2.5,-0.5"/>
                </g>
                <g id="arrowRight" xlink:href="#dirArrow" transform="rotate(90) translate(36 -43)" onmousedown="handlePan(1,0)">
                  <use xlink:href="#rim" fill="#404040">
                        <set attributeName="fill" to="#808080" begin="arrowRight.mouseover" end="arrowRight.mouseout"/>
                  </use>
                  <path fill="none" stroke="white" stroke-width="1.5" d="M0,-3.0v7 M-2.5,-0.5L0,-3.0L2.5,-0.5"/>
                </g>
                <g id="arrowDown" xlink:href="#dirArrow" transform="rotate(180) translate(-30 -48)" onmousedown="handlePan(0,1)">
                  <use xlink:href="#rim" fill="#404040">
                        <set attributeName="fill" to="#808080" begin="arrowDown.mouseover" end="arrowDown.mouseout"/>
                  </use>
                  <path fill="none" stroke="white" stroke-width="1.5" d="M0,-3.0v7 M-2.5,-0.5L0,-3.0L2.5,-0.5"/>
                </g>
                <g id="arrowLeft" xlink:href="#dirArrow" transform="rotate(270) translate(-36 17)" onmousedown="handlePan(-1,0)">
                  <use xlink:href="#rim" fill="#404040">
                        <set attributeName="fill" to="#808080" begin="arrowLeft.mouseover" end="arrowLeft.mouseout"/>
                  </use>
                  <path fill="none" stroke="white" stroke-width="1.5" d="M0,-3.0v7 M-2.5,-0.5L0,-3.0L2.5,-0.5"/>
                </g>
        </g>
        <svg viewBox="0 0 15 15" width="100%" height="30px" preserveAspectRatio="xMaxYMin meet">
         <g id="arrow_out" transform="scale(0.3 0.3)">
          <a xlink:href="oled__control_8c_ad25764a33e482f4e9db2701198e02551_icgraph_org.svg" target="_base">
           <rect id="button" ry="5" rx="5" y="6" x="6" height="38" width="38"
                fill="#f2f5e9" fill-opacity="0.5" stroke="#606060" stroke-width="1.0"/>
           <path id="arrow"
             d="M 11.500037,31.436501 C 11.940474,20.09759 22.043105,11.32322 32.158766,21.979434 L 37.068811,17.246167 C 37.068811,17.246167 37.088388,32 37.088388,32 L 22.160133,31.978069 C 22.160133,31.978069 26.997745,27.140456 26.997745,27.140456 C 18.528582,18.264221 13.291696,25.230495 11.500037,31.436501 z"
             style="fill:#404040;"/>
          </a>
         </g>
        </svg>
</svg>
