<?xml version="1.0" encoding="UTF-8" standalone="no"?>
<!DOCTYPE svg PUBLIC "-//W3C//DTD SVG 1.1//EN"
 "http://www.w3.org/Graphics/SVG/1.1/DTD/svg11.dtd">
<!-- Generated by graphviz version 2.38.0 (20140413.2041)
 -->
<!-- Title: display_on Pages: 1 -->
<svg width="299pt" height="101pt"
 viewBox="0.00 0.00 299.00 101.00" xmlns="http://www.w3.org/2000/svg" xmlns:xlink="http://www.w3.org/1999/xlink">
<g id="graph0" class="graph" transform="scale(1 1) rotate(0) translate(4 97)">
<title>display_on</title>
<!-- Node1 -->
<g id="node1" class="node"><title>Node1</title>
<g id="a_node1"><a xlink:title=" ">
<polygon fill="#bfbfbf" stroke="black" points="0,-36.5 0,-54.5 62,-54.5 62,-36.5 0,-36.5"/>
<text text-anchor="middle" x="31" y="-43.3" font-family="Calibri" font-size="9.00">display_on</text>
</a>
</g>
</g>
<!-- Node2 -->
<g id="node2" class="node"><title>Node2</title>
<g id="a_node2"><a xlink:href="oled__control_8c.html#a5a5d7ef6b1877aaf94c1f4b7fc0f2d2d" target="_top" xlink:title=" ">
<polygon fill="none" stroke="black" points="111,-55.5 111,-73.5 166,-73.5 166,-55.5 111,-55.5"/>
<text text-anchor="middle" x="138.5" y="-62.3" font-family="Calibri" font-size="9.00">led_send</text>
</a>
</g>
</g>
<!-- Node1&#45;&gt;Node2 -->
<g id="edge1" class="edge"><title>Node1&#45;&gt;Node2</title>
<path fill="none" stroke="midnightblue" d="M62.2321,-50.9446C74.2195,-53.1035 88.117,-55.6064 100.683,-57.8695"/>
<polygon fill="midnightblue" stroke="midnightblue" points="100.392,-61.3734 110.854,-59.7013 101.633,-54.4842 100.392,-61.3734"/>
</g>
<!-- Node6 -->
<g id="node6" class="node"><title>Node6</title>
<g id="a_node6"><a xlink:href="oled__control_8c.html#ad141ed038278a6fcad6c307932f01ec8" target="_top" xlink:title=" ">
<polygon fill="none" stroke="black" points="98,-18.5 98,-36.5 179,-36.5 179,-18.5 98,-18.5"/>
<text text-anchor="middle" x="138.5" y="-25.3" font-family="Calibri" font-size="9.00">send_command</text>
</a>
</g>
</g>
<!-- Node1&#45;&gt;Node6 -->
<g id="edge5" class="edge"><title>Node1&#45;&gt;Node6</title>
<path fill="none" stroke="midnightblue" d="M62.2321,-40.3419C70.1971,-38.983 79.0053,-37.4801 87.706,-35.9957"/>
<polygon fill="midnightblue" stroke="midnightblue" points="88.5446,-39.4032 97.8134,-34.2712 87.3672,-32.503 88.5446,-39.4032"/>
</g>
<!-- Node3 -->
<g id="node3" class="node"><title>Node3</title>
<g id="a_node3"><a xlink:href="oled__control_8c.html#ab7f6b5c6c1483f6286f2de5786c028d9" target="_top" xlink:title=" ">
<polygon fill="none" stroke="black" points="217,-74.5 217,-92.5 289,-92.5 289,-74.5 217,-74.5"/>
<text text-anchor="middle" x="253" y="-81.3" font-family="Calibri" font-size="9.00">Soft_I2C_Start</text>
</a>
</g>
</g>
<!-- Node2&#45;&gt;Node3 -->
<g id="edge2" class="edge"><title>Node2&#45;&gt;Node3</title>
<path fill="none" stroke="midnightblue" d="M166.161,-69.0027C178.173,-71.0315 192.703,-73.4853 206.365,-75.7928"/>
<polygon fill="midnightblue" stroke="midnightblue" points="206.144,-79.305 216.588,-77.5192 207.31,-72.4027 206.144,-79.305"/>
</g>
<!-- Node4 -->
<g id="node4" class="node"><title>Node4</title>
<g id="a_node4"><a xlink:href="oled__control_8c.html#a16eb842aa672ca44820ae6d5f9933425" target="_top" xlink:title=" ">
<polygon fill="none" stroke="black" points="217.5,-37.5 217.5,-55.5 288.5,-55.5 288.5,-37.5 217.5,-37.5"/>
<text text-anchor="middle" x="253" y="-44.3" font-family="Calibri" font-size="9.00">Soft_I2C_Stop</text>
</a>
</g>
</g>
<!-- Node2&#45;&gt;Node4 -->
<g id="edge3" class="edge"><title>Node2&#45;&gt;Node4</title>
<path fill="none" stroke="midnightblue" d="M166.161,-60.2343C178.5,-58.26 193.495,-55.8607 207.478,-53.6234"/>
<polygon fill="midnightblue" stroke="midnightblue" points="208.108,-57.0674 217.429,-52.0314 207.002,-50.1553 208.108,-57.0674"/>
</g>
<!-- Node5 -->
<g id="node5" class="node"><title>Node5</title>
<g id="a_node5"><a xlink:href="oled__control_8c.html#a73610916645f17c19124e697b005f694" target="_top" xlink:title=" ">
<polygon fill="none" stroke="black" points="215,-0.5 215,-18.5 291,-18.5 291,-0.5 215,-0.5"/>
<text text-anchor="middle" x="253" y="-7.3" font-family="Calibri" font-size="9.00">Soft_I2C_Write</text>
</a>
</g>
</g>
<!-- Node2&#45;&gt;Node5 -->
<g id="edge4" class="edge"><title>Node2&#45;&gt;Node5</title>
<path fill="none" stroke="midnightblue" d="M160.077,-55.3185C166.191,-52.5376 172.888,-49.44 179,-46.5 187.805,-42.2647 208.218,-31.9012 225.226,-23.2164"/>
<polygon fill="midnightblue" stroke="midnightblue" points="226.918,-26.2822 234.229,-18.6138 223.732,-20.0494 226.918,-26.2822"/>
</g>
<!-- Node6&#45;&gt;Node3 -->
<g id="edge6" class="edge"><title>Node6&#45;&gt;Node3</title>
<path fill="none" stroke="midnightblue" d="M158.858,-36.6342C165.291,-39.7171 172.477,-43.2112 179,-46.5 195.155,-54.6448 198.863,-57.3194 215,-65.5 217.931,-66.9858 221.003,-68.5189 224.071,-70.0342"/>
<polygon fill="midnightblue" stroke="midnightblue" points="222.597,-73.2095 233.118,-74.4619 225.675,-66.9222 222.597,-73.2095"/>
</g>
<!-- Node6&#45;&gt;Node4 -->
<g id="edge7" class="edge"><title>Node6&#45;&gt;Node4</title>
<path fill="none" stroke="midnightblue" d="M179.163,-34.1987C188.269,-35.7365 198.011,-37.3819 207.313,-38.9528"/>
<polygon fill="midnightblue" stroke="midnightblue" points="206.739,-42.4054 217.182,-40.6196 207.904,-35.5031 206.739,-42.4054"/>
</g>
<!-- Node6&#45;&gt;Node5 -->
<g id="edge8" class="edge"><title>Node6&#45;&gt;Node5</title>
<path fill="none" stroke="midnightblue" d="M179.163,-21.1539C187.53,-19.8153 196.433,-18.3907 205.039,-17.0138"/>
<polygon fill="midnightblue" stroke="midnightblue" points="205.632,-20.4634 214.954,-15.4274 204.526,-13.5513 205.632,-20.4634"/>
</g>
</g>
</svg>
