<?xml version="1.0" encoding="UTF-8" standalone="no"?>
<!DOCTYPE svg PUBLIC "-//W3C//DTD SVG 1.1//EN"
 "http://www.w3.org/Graphics/SVG/1.1/DTD/svg11.dtd">
<!-- Generated by graphviz version 2.38.0 (20140413.2041)
 -->
<!-- Title: include/pic_init.h Pages: 1 -->
<svg width="212pt" height="137pt"
 viewBox="0.00 0.00 212.00 137.00" xmlns="http://www.w3.org/2000/svg" xmlns:xlink="http://www.w3.org/1999/xlink">
<g id="graph0" class="graph" transform="scale(1 1) rotate(0) translate(4 133)">
<title>include/pic_init.h</title>
<!-- Node1 -->
<g id="node1" class="node"><title>Node1</title>
<g id="a_node1"><a xlink:title="PIC microcontroller initialization definitions for ATU&#45;100 EXT PIC16F1938.">
<polygon fill="#bfbfbf" stroke="black" points="63.5,-110.5 63.5,-128.5 152.5,-128.5 152.5,-110.5 63.5,-110.5"/>
<text text-anchor="middle" x="108" y="-117.3" font-family="Calibri" font-size="9.00">include/pic_init.h</text>
</a>
</g>
</g>
<!-- Node2 -->
<g id="node2" class="node"><title>Node2</title>
<g id="a_node2"><a xlink:href="main_8h.html" target="_top" xlink:title="ATU&#45;100 EXT firmware definitions for PIC16F1938 main program.">
<polygon fill="none" stroke="black" points="0,-55.5 0,-73.5 80,-73.5 80,-55.5 0,-55.5"/>
<text text-anchor="middle" x="40" y="-62.3" font-family="Calibri" font-size="9.00">include/main.h</text>
</a>
</g>
</g>
<!-- Node1&#45;&gt;Node2 -->
<g id="edge1" class="edge"><title>Node1&#45;&gt;Node2</title>
<path fill="none" stroke="midnightblue" d="M89.6651,-104.21C77.086,-94.4052 60.8458,-81.7474 50.4249,-73.6253"/>
<polygon fill="midnightblue" stroke="midnightblue" points="87.6334,-107.064 97.6723,-110.45 91.9366,-101.542 87.6334,-107.064"/>
</g>
<!-- Node3 -->
<g id="node3" class="node"><title>Node3</title>
<g id="a_node3"><a xlink:href="main_8c.html" target="_top" xlink:title="ATU&#45;100 EXT firmware for PIC16F1938 main program.">
<polygon fill="none" stroke="black" points="44.5,-0.5 44.5,-18.5 103.5,-18.5 103.5,-0.5 44.5,-0.5"/>
<text text-anchor="middle" x="74" y="-7.3" font-family="Calibri" font-size="9.00">src/main.c</text>
</a>
</g>
</g>
<!-- Node1&#45;&gt;Node3 -->
<g id="edge3" class="edge"><title>Node1&#45;&gt;Node3</title>
<path fill="none" stroke="midnightblue" d="M102.777,-100.444C99.049,-87.7083 93.8554,-70.2667 89,-55 84.9476,-42.2583 79.9313,-27.5791 76.8493,-18.674"/>
<polygon fill="midnightblue" stroke="midnightblue" points="99.4762,-101.628 105.63,-110.252 106.198,-99.6726 99.4762,-101.628"/>
</g>
<!-- Node4 -->
<g id="node4" class="node"><title>Node4</title>
<g id="a_node4"><a xlink:href="pic__init_8c.html" target="_top" xlink:title="PIC microcontroller initialization routines for ATU&#45;100 EXT PIC16F1938.">
<polygon fill="none" stroke="black" points="136,-55.5 136,-73.5 204,-73.5 204,-55.5 136,-55.5"/>
<text text-anchor="middle" x="170" y="-62.3" font-family="Calibri" font-size="9.00">src/pic_init.c</text>
</a>
</g>
</g>
<!-- Node1&#45;&gt;Node4 -->
<g id="edge4" class="edge"><title>Node1&#45;&gt;Node4</title>
<path fill="none" stroke="midnightblue" d="M125.049,-103.926C136.471,-94.1622 151.085,-81.6693 160.495,-73.6253"/>
<polygon fill="midnightblue" stroke="midnightblue" points="122.743,-101.292 117.416,-110.45 127.292,-106.613 122.743,-101.292"/>
</g>
<!-- Node2&#45;&gt;Node3 -->
<g id="edge2" class="edge"><title>Node2&#45;&gt;Node3</title>
<path fill="none" stroke="midnightblue" d="M50.8045,-46.6576C56.834,-37.2587 64.0681,-25.9821 68.8361,-18.5496"/>
<polygon fill="midnightblue" stroke="midnightblue" points="47.7662,-44.9119 45.3125,-55.2188 53.658,-48.6917 47.7662,-44.9119"/>
</g>
</g>
</svg>
