<?xml version="1.0" encoding="UTF-8" standalone="no"?>
<!DOCTYPE svg PUBLIC "-//W3C//DTD SVG 1.1//EN"
 "http://www.w3.org/Graphics/SVG/1.1/DTD/svg11.dtd">
<!-- Generated by graphviz version 2.38.0 (20140413.2041)
 -->
<!-- Title: mcc_generated_files/pin_manager.c Pages: 1 -->
<svg width="109pt" height="147pt"
 viewBox="0.00 0.00 109.00 147.00" xmlns="http://www.w3.org/2000/svg" xmlns:xlink="http://www.w3.org/1999/xlink">
<g id="graph0" class="graph" transform="scale(1 1) rotate(0) translate(4 143)">
<title>mcc_generated_files/pin_manager.c</title>
<!-- Node1 -->
<g id="node1" class="node"><title>Node1</title>
<g id="a_node1"><a xlink:title=" ">
<polygon fill="#bfbfbf" stroke="black" points="0,-110.5 0,-138.5 101,-138.5 101,-110.5 0,-110.5"/>
<text text-anchor="start" x="8" y="-127.3" font-family="Calibri" font-size="9.00">mcc_generated_files</text>
<text text-anchor="middle" x="50.5" y="-117.3" font-family="Calibri" font-size="9.00">/pin_manager.c</text>
</a>
</g>
</g>
<!-- Node2 -->
<g id="node2" class="node"><title>Node2</title>
<g id="a_node2"><a xlink:href="pin__manager_8h.html" target="_top" xlink:title=" ">
<polygon fill="none" stroke="black" points="11.5,-55.5 11.5,-73.5 89.5,-73.5 89.5,-55.5 11.5,-55.5"/>
<text text-anchor="middle" x="50.5" y="-62.3" font-family="Calibri" font-size="9.00">pin_manager.h</text>
</a>
</g>
</g>
<!-- Node1&#45;&gt;Node2 -->
<g id="edge1" class="edge"><title>Node1&#45;&gt;Node2</title>
<path fill="none" stroke="midnightblue" d="M50.5,-110.339C50.5,-102.531 50.5,-92.5122 50.5,-83.9265"/>
<polygon fill="midnightblue" stroke="midnightblue" points="54.0001,-83.7714 50.5,-73.7715 47.0001,-83.7715 54.0001,-83.7714"/>
</g>
<!-- Node3 -->
<g id="node3" class="node"><title>Node3</title>
<g id="a_node3"><a xlink:title=" ">
<polygon fill="none" stroke="#bfbfbf" points="34.5,-0.5 34.5,-18.5 66.5,-18.5 66.5,-0.5 34.5,-0.5"/>
<text text-anchor="middle" x="50.5" y="-7.3" font-family="Calibri" font-size="9.00">xc.h</text>
</a>
</g>
</g>
<!-- Node2&#45;&gt;Node3 -->
<g id="edge2" class="edge"><title>Node2&#45;&gt;Node3</title>
<path fill="none" stroke="midnightblue" d="M50.5,-55.2188C50.5,-48.1769 50.5,-37.8083 50.5,-28.8277"/>
<polygon fill="midnightblue" stroke="midnightblue" points="54.0001,-28.5495 50.5,-18.5496 47.0001,-28.5496 54.0001,-28.5495"/>
</g>
</g>
</svg>
