<?xml version="1.0" encoding="UTF-8" standalone="no"?>
<!DOCTYPE svg PUBLIC "-//W3C//DTD SVG 1.1//EN"
 "http://www.w3.org/Graphics/SVG/1.1/DTD/svg11.dtd">
<!-- Generated by graphviz version 2.38.0 (20140413.2041)
 -->
<!-- Title: IOCBF2_ISR Pages: 1 -->
<svg width="296pt" height="27pt"
 viewBox="0.00 0.00 296.00 27.00" xmlns="http://www.w3.org/2000/svg" xmlns:xlink="http://www.w3.org/1999/xlink">
<g id="graph0" class="graph" transform="scale(1 1) rotate(0) translate(4 23)">
<title>IOCBF2_ISR</title>
<!-- Node1 -->
<g id="node1" class="node"><title>Node1</title>
<g id="a_node1"><a xlink:title=" ">
<polygon fill="#bfbfbf" stroke="black" points="226,-0.5 226,-18.5 288,-18.5 288,-0.5 226,-0.5"/>
<text text-anchor="middle" x="257" y="-7.3" font-family="Calibri" font-size="9.00">IOCBF2_ISR</text>
</a>
</g>
</g>
<!-- Node2 -->
<g id="node2" class="node"><title>Node2</title>
<g id="a_node2"><a xlink:href="pin__manager_8c.html#a6ff320d017cf9b99ba9045f24d7ec896" target="_top" xlink:title=" ">
<polygon fill="none" stroke="black" points="98,-0.5 98,-18.5 190,-18.5 190,-0.5 98,-0.5"/>
<text text-anchor="middle" x="144" y="-7.3" font-family="Calibri" font-size="9.00">PIN_MANAGER_IOC</text>
</a>
</g>
</g>
<!-- Node1&#45;&gt;Node2 -->
<g id="edge1" class="edge"><title>Node1&#45;&gt;Node2</title>
<path fill="none" stroke="midnightblue" d="M215.735,-9.5C207.402,-9.5 198.572,-9.5 190.08,-9.5"/>
<polygon fill="midnightblue" stroke="midnightblue" points="215.962,-13.0001 225.962,-9.5 215.962,-6.0001 215.962,-13.0001"/>
</g>
<!-- Node3 -->
<g id="node3" class="node"><title>Node3</title>
<g id="a_node3"><a xlink:href="interrupt__manager_8c.html#a703db4fffea50c48ff3c430fb1daa6b7" target="_top" xlink:title=" ">
<polygon fill="none" stroke="black" points="0,-0.5 0,-18.5 62,-18.5 62,-0.5 0,-0.5"/>
<text text-anchor="middle" x="31" y="-7.3" font-family="Calibri" font-size="9.00">__interrupt</text>
</a>
</g>
</g>
<!-- Node2&#45;&gt;Node3 -->
<g id="edge2" class="edge"><title>Node2&#45;&gt;Node3</title>
<path fill="none" stroke="midnightblue" d="M87.6169,-9.5C78.8519,-9.5 70.083,-9.5 62.1846,-9.5"/>
<polygon fill="midnightblue" stroke="midnightblue" points="87.8521,-13.0001 97.8521,-9.5 87.852,-6.0001 87.8521,-13.0001"/>
</g>
</g>
</svg>
