<?xml version="1.0" encoding="UTF-8" standalone="no"?>
<!DOCTYPE svg PUBLIC "-//W3C//DTD SVG 1.1//EN"
 "http://www.w3.org/Graphics/SVG/1.1/DTD/svg11.dtd">
<!-- Generated by graphviz version 2.38.0 (20140413.2041)
 -->
<!-- Title: IOCBF1_SetInterruptHandler Pages: 1 -->
<svg width="490pt" height="27pt"
 viewBox="0.00 0.00 490.00 27.00" xmlns="http://www.w3.org/2000/svg" xmlns:xlink="http://www.w3.org/1999/xlink">
<g id="graph0" class="graph" transform="scale(1 1) rotate(0) translate(4 23)">
<title>IOCBF1_SetInterruptHandler</title>
<!-- Node1 -->
<g id="node1" class="node"><title>Node1</title>
<g id="a_node1"><a xlink:title=" ">
<polygon fill="#bfbfbf" stroke="black" points="351,-0.5 351,-18.5 482,-18.5 482,-0.5 351,-0.5"/>
<text text-anchor="middle" x="416.5" y="-7.3" font-family="Calibri" font-size="9.00">IOCBF1_SetInterruptHandler</text>
</a>
</g>
</g>
<!-- Node2 -->
<g id="node2" class="node"><title>Node2</title>
<g id="a_node2"><a xlink:href="pin__manager_8c.html#a50357774183a136d9490f64ad0d5c6cb" target="_top" xlink:title=" ">
<polygon fill="none" stroke="black" points="199,-0.5 199,-18.5 315,-18.5 315,-0.5 199,-0.5"/>
<text text-anchor="middle" x="257" y="-7.3" font-family="Calibri" font-size="9.00">PIN_MANAGER_Initialize</text>
</a>
</g>
</g>
<!-- Node1&#45;&gt;Node2 -->
<g id="edge1" class="edge"><title>Node1&#45;&gt;Node2</title>
<path fill="none" stroke="midnightblue" d="M340.868,-9.5C332.203,-9.5 323.471,-9.5 315.094,-9.5"/>
<polygon fill="midnightblue" stroke="midnightblue" points="340.984,-13.0001 350.984,-9.5 340.984,-6.0001 340.984,-13.0001"/>
</g>
<!-- Node3 -->
<g id="node3" class="node"><title>Node3</title>
<g id="a_node3"><a xlink:href="mcc_8c.html#a5e8391114a0cf91ac20002be25e3d352" target="_top" xlink:title=" ">
<polygon fill="none" stroke="black" points="74,-0.5 74,-18.5 163,-18.5 163,-0.5 74,-0.5"/>
<text text-anchor="middle" x="118.5" y="-7.3" font-family="Calibri" font-size="9.00">SYSTEM_Initialize</text>
</a>
</g>
</g>
<!-- Node2&#45;&gt;Node3 -->
<g id="edge2" class="edge"><title>Node2&#45;&gt;Node3</title>
<path fill="none" stroke="midnightblue" d="M188.716,-9.5C180.001,-9.5 171.265,-9.5 163.076,-9.5"/>
<polygon fill="midnightblue" stroke="midnightblue" points="188.903,-13.0001 198.903,-9.5 188.903,-6.0001 188.903,-13.0001"/>
</g>
<!-- Node4 -->
<g id="node4" class="node"><title>Node4</title>
<g id="a_node4"><a xlink:href="main_8c.html#a6288eba0f8e8ad3ab1544ad731eb7667" target="_top" xlink:title=" ">
<polygon fill="none" stroke="black" points="0,-0.5 0,-18.5 38,-18.5 38,-0.5 0,-0.5"/>
<text text-anchor="middle" x="19" y="-7.3" font-family="Calibri" font-size="9.00">main</text>
</a>
</g>
</g>
<!-- Node3&#45;&gt;Node4 -->
<g id="edge3" class="edge"><title>Node3&#45;&gt;Node4</title>
<path fill="none" stroke="midnightblue" d="M63.8291,-9.5C54.5911,-9.5 45.5913,-9.5 38.1747,-9.5"/>
<polygon fill="midnightblue" stroke="midnightblue" points="63.8832,-13.0001 73.8831,-9.5 63.8831,-6.0001 63.8832,-13.0001"/>
</g>
</g>
</svg>
