<?xml version="1.0" encoding="UTF-8" standalone="no"?>
<!DOCTYPE svg PUBLIC "-//W3C//DTD SVG 1.1//EN"
 "http://www.w3.org/Graphics/SVG/1.1/DTD/svg11.dtd">
<!-- Generated by graphviz version 2.38.0 (20140413.2041)
 -->
<!-- Title: PIN_MANAGER_Initialize Pages: 1 -->
<svg width="309pt" height="212pt"
 viewBox="0.00 0.00 309.00 212.00" xmlns="http://www.w3.org/2000/svg" xmlns:xlink="http://www.w3.org/1999/xlink">
<g id="graph0" class="graph" transform="scale(1 1) rotate(0) translate(4 208)">
<title>PIN_MANAGER_Initialize</title>
<!-- Node1 -->
<g id="node1" class="node"><title>Node1</title>
<g id="a_node1"><a xlink:title=" ">
<polygon fill="#bfbfbf" stroke="black" points="0,-92.5 0,-110.5 116,-110.5 116,-92.5 0,-92.5"/>
<text text-anchor="middle" x="58" y="-99.3" font-family="Calibri" font-size="9.00">PIN_MANAGER_Initialize</text>
</a>
</g>
</g>
<!-- Node2 -->
<g id="node2" class="node"><title>Node2</title>
<g id="a_node2"><a xlink:href="pin__manager_8c.html#a7785df331b1ef41d8cb46f09192cff38" target="_top" xlink:title=" ">
<polygon fill="none" stroke="black" points="152,-185.5 152,-203.5 301,-203.5 301,-185.5 152,-185.5"/>
<text text-anchor="middle" x="226.5" y="-192.3" font-family="Calibri" font-size="9.00">IOCBF0_DefaultInterruptHandler</text>
</a>
</g>
</g>
<!-- Node1&#45;&gt;Node2 -->
<g id="edge1" class="edge"><title>Node1&#45;&gt;Node2</title>
<path fill="none" stroke="midnightblue" d="M67.5558,-110.651C82.9172,-126.521 116.862,-159.117 152,-176.5 156.521,-178.736 161.338,-180.707 166.262,-182.441"/>
<polygon fill="midnightblue" stroke="midnightblue" points="165.222,-185.783 175.812,-185.492 167.352,-179.115 165.222,-185.783"/>
</g>
<!-- Node3 -->
<g id="node3" class="node"><title>Node3</title>
<g id="a_node3"><a xlink:href="pin__manager_8c.html#a1fa094f74ec24d587df5fd9e546e55a2" target="_top" xlink:title=" ">
<polygon fill="none" stroke="black" points="161,-148.5 161,-166.5 292,-166.5 292,-148.5 161,-148.5"/>
<text text-anchor="middle" x="226.5" y="-155.3" font-family="Calibri" font-size="9.00">IOCBF0_SetInterruptHandler</text>
</a>
</g>
</g>
<!-- Node1&#45;&gt;Node3 -->
<g id="edge2" class="edge"><title>Node1&#45;&gt;Node3</title>
<path fill="none" stroke="midnightblue" d="M78.6394,-110.518C97.2481,-118.823 126.122,-131.095 152,-139.5 159.124,-141.814 166.721,-143.99 174.226,-145.975"/>
<polygon fill="midnightblue" stroke="midnightblue" points="173.437,-149.385 183.992,-148.469 175.17,-142.603 173.437,-149.385"/>
</g>
<!-- Node4 -->
<g id="node4" class="node"><title>Node4</title>
<g id="a_node4"><a xlink:href="pin__manager_8c.html#a2c53046b5d2acd8ec288693fb774b7e0" target="_top" xlink:title=" ">
<polygon fill="none" stroke="black" points="152,-111.5 152,-129.5 301,-129.5 301,-111.5 152,-111.5"/>
<text text-anchor="middle" x="226.5" y="-118.3" font-family="Calibri" font-size="9.00">IOCBF1_DefaultInterruptHandler</text>
</a>
</g>
</g>
<!-- Node1&#45;&gt;Node4 -->
<g id="edge3" class="edge"><title>Node1&#45;&gt;Node4</title>
<path fill="none" stroke="midnightblue" d="M116.3,-108.039C124.548,-108.98 133.175,-109.964 141.807,-110.949"/>
<polygon fill="midnightblue" stroke="midnightblue" points="141.589,-114.447 151.922,-112.104 142.383,-107.492 141.589,-114.447"/>
</g>
<!-- Node5 -->
<g id="node5" class="node"><title>Node5</title>
<g id="a_node5"><a xlink:href="pin__manager_8c.html#ab6e3f9544fa93cfae6f302dd5d9ddc3a" target="_top" xlink:title=" ">
<polygon fill="none" stroke="black" points="161,-74.5 161,-92.5 292,-92.5 292,-74.5 161,-74.5"/>
<text text-anchor="middle" x="226.5" y="-81.3" font-family="Calibri" font-size="9.00">IOCBF1_SetInterruptHandler</text>
</a>
</g>
</g>
<!-- Node1&#45;&gt;Node5 -->
<g id="edge4" class="edge"><title>Node1&#45;&gt;Node5</title>
<path fill="none" stroke="midnightblue" d="M116.3,-95.3054C127.431,-94.102 139.251,-92.8242 150.845,-91.5708"/>
<polygon fill="midnightblue" stroke="midnightblue" points="151.388,-95.0326 160.954,-90.478 150.635,-88.0732 151.388,-95.0326"/>
</g>
<!-- Node6 -->
<g id="node6" class="node"><title>Node6</title>
<g id="a_node6"><a xlink:href="pin__manager_8c.html#a3f33852f958a791164d014913d9b7225" target="_top" xlink:title=" ">
<polygon fill="none" stroke="black" points="152,-37.5 152,-55.5 301,-55.5 301,-37.5 152,-37.5"/>
<text text-anchor="middle" x="226.5" y="-44.3" font-family="Calibri" font-size="9.00">IOCBF2_DefaultInterruptHandler</text>
</a>
</g>
</g>
<!-- Node1&#45;&gt;Node6 -->
<g id="edge5" class="edge"><title>Node1&#45;&gt;Node6</title>
<path fill="none" stroke="midnightblue" d="M80.1712,-92.4922C98.8587,-84.7376 126.947,-73.5568 152,-65.5 160.116,-62.8898 168.824,-60.3856 177.306,-58.1004"/>
<polygon fill="midnightblue" stroke="midnightblue" points="178.327,-61.451 187.11,-55.5253 176.549,-54.6806 178.327,-61.451"/>
</g>
<!-- Node7 -->
<g id="node7" class="node"><title>Node7</title>
<g id="a_node7"><a xlink:href="pin__manager_8c.html#ab095f91ecd95fdfe136b510f161a9034" target="_top" xlink:title=" ">
<polygon fill="none" stroke="black" points="161,-0.5 161,-18.5 292,-18.5 292,-0.5 161,-0.5"/>
<text text-anchor="middle" x="226.5" y="-7.3" font-family="Calibri" font-size="9.00">IOCBF2_SetInterruptHandler</text>
</a>
</g>
</g>
<!-- Node1&#45;&gt;Node7 -->
<g id="edge6" class="edge"><title>Node1&#45;&gt;Node7</title>
<path fill="none" stroke="midnightblue" d="M67.8776,-92.4049C83.4683,-76.9562 117.409,-45.6047 152,-28.5 157.298,-25.8802 162.995,-23.5952 168.789,-21.6081"/>
<polygon fill="midnightblue" stroke="midnightblue" points="170.083,-24.8704 178.578,-18.5387 167.989,-18.1911 170.083,-24.8704"/>
</g>
</g>
</svg>
