<?xml version="1.0" encoding="UTF-8" standalone="no"?>
<!DOCTYPE svg PUBLIC "-//W3C//DTD SVG 1.1//EN"
 "http://www.w3.org/Graphics/SVG/1.1/DTD/svg11.dtd">
<!-- Generated by graphviz version 2.38.0 (20140413.2041)
 -->
<!-- Title: PIN_MANAGER_IOC Pages: 1 -->
<svg width="198pt" height="101pt"
 viewBox="0.00 0.00 198.00 101.00" xmlns="http://www.w3.org/2000/svg" xmlns:xlink="http://www.w3.org/1999/xlink">
<g id="graph0" class="graph" transform="scale(1 1) rotate(0) translate(4 97)">
<title>PIN_MANAGER_IOC</title>
<!-- Node1 -->
<g id="node1" class="node"><title>Node1</title>
<g id="a_node1"><a xlink:title=" ">
<polygon fill="#bfbfbf" stroke="black" points="0,-37.5 0,-55.5 92,-55.5 92,-37.5 0,-37.5"/>
<text text-anchor="middle" x="46" y="-44.3" font-family="Calibri" font-size="9.00">PIN_MANAGER_IOC</text>
</a>
</g>
</g>
<!-- Node2 -->
<g id="node2" class="node"><title>Node2</title>
<g id="a_node2"><a xlink:href="pin__manager_8c.html#af604943b8a79191100d2c31fecadbb76" target="_top" xlink:title=" ">
<polygon fill="none" stroke="black" points="128,-74.5 128,-92.5 190,-92.5 190,-74.5 128,-74.5"/>
<text text-anchor="middle" x="159" y="-81.3" font-family="Calibri" font-size="9.00">IOCBF0_ISR</text>
</a>
</g>
</g>
<!-- Node1&#45;&gt;Node2 -->
<g id="edge1" class="edge"><title>Node1&#45;&gt;Node2</title>
<path fill="none" stroke="midnightblue" d="M74.1537,-55.5512C88.2638,-60.2546 105.715,-66.0718 121.037,-71.1791"/>
<polygon fill="midnightblue" stroke="midnightblue" points="120.148,-74.572 130.742,-74.414 122.362,-67.9313 120.148,-74.572"/>
</g>
<!-- Node3 -->
<g id="node3" class="node"><title>Node3</title>
<g id="a_node3"><a xlink:href="pin__manager_8c.html#a1c49145af28b17da71ec6502dd51f75f" target="_top" xlink:title=" ">
<polygon fill="none" stroke="black" points="128,-37.5 128,-55.5 190,-55.5 190,-37.5 128,-37.5"/>
<text text-anchor="middle" x="159" y="-44.3" font-family="Calibri" font-size="9.00">IOCBF1_ISR</text>
</a>
</g>
</g>
<!-- Node1&#45;&gt;Node3 -->
<g id="edge2" class="edge"><title>Node1&#45;&gt;Node3</title>
<path fill="none" stroke="midnightblue" d="M92.1479,-46.5C100.588,-46.5 109.36,-46.5 117.644,-46.5"/>
<polygon fill="midnightblue" stroke="midnightblue" points="117.815,-50.0001 127.815,-46.5 117.815,-43.0001 117.815,-50.0001"/>
</g>
<!-- Node4 -->
<g id="node4" class="node"><title>Node4</title>
<g id="a_node4"><a xlink:href="pin__manager_8c.html#aef5b3df4417711a012a3234ef9cce5d0" target="_top" xlink:title=" ">
<polygon fill="none" stroke="black" points="128,-0.5 128,-18.5 190,-18.5 190,-0.5 128,-0.5"/>
<text text-anchor="middle" x="159" y="-7.3" font-family="Calibri" font-size="9.00">IOCBF2_ISR</text>
</a>
</g>
</g>
<!-- Node1&#45;&gt;Node4 -->
<g id="edge3" class="edge"><title>Node1&#45;&gt;Node4</title>
<path fill="none" stroke="midnightblue" d="M74.1537,-37.4488C88.2638,-32.7454 105.715,-26.9282 121.037,-21.8209"/>
<polygon fill="midnightblue" stroke="midnightblue" points="122.362,-25.0687 130.742,-18.586 120.148,-18.428 122.362,-25.0687"/>
</g>
</g>
</svg>
