<?xml version="1.0" encoding="UTF-8" standalone="no"?>
<!DOCTYPE svg PUBLIC "-//W3C//DTD SVG 1.1//EN"
 "http://www.w3.org/Graphics/SVG/1.1/DTD/svg11.dtd">
<!-- Generated by graphviz version 2.38.0 (20140413.2041)
 -->
<!-- Title: include/preprocessor.h Pages: 1 -->
<!--zoomable 302 -->
<svg id="main" version="1.1" xmlns="http://www.w3.org/2000/svg" xmlns:xlink="http://www.w3.org/1999/xlink" xml:space="preserve" onload="init(evt)">
<style type="text/css"><![CDATA[
.edge:hover path { stroke: red; }
.edge:hover polygon { stroke: red; fill: red; }
]]></style>
<script type="text/javascript"><![CDATA[
var edges = document.getElementsByTagName('g');
if (edges && edges.length) {
  for (var i=0;i<edges.length;i++) {
    if (edges[i].id.substr(0,4)=='edge') {
      edges[i].setAttribute('class','edge');
    }
  }
}
]]></script>
        <defs>
                <circle id="rim" cx="0" cy="0" r="7"/>
                <circle id="rim2" cx="0" cy="0" r="3.5"/>
                <g id="zoomPlus">
                        <use xlink:href="#rim" fill="#404040">
                                <set attributeName="fill" to="#808080" begin="zoomplus.mouseover" end="zoomplus.mouseout"/>
                        </use>
                        <path d="M-4,0h8M0,-4v8" fill="none" stroke="white" stroke-width="1.5" pointer-events="none"/>
                </g>
                <g id="zoomMin">
                        <use xlink:href="#rim" fill="#404040">
                                <set attributeName="fill" to="#808080" begin="zoomminus.mouseover" end="zoomminus.mouseout"/>
                        </use>
                        <path d="M-4,0h8" fill="none" stroke="white" stroke-width="1.5" pointer-events="none"/>
                </g>
                <g id="dirArrow">
                        <path fill="none" stroke="white" stroke-width="1.5" d="M0,-3.0v7 M-2.5,-0.5L0,-3.0L2.5,-0.5"/>
                </g>
               <g id="resetDef">
                       <use xlink:href="#rim2" fill="#404040">
                               <set attributeName="fill" to="#808080" begin="reset.mouseover" end="reset.mouseout"/>
                       </use>
               </g>
        </defs>

<script type="text/javascript">
var viewWidth = 752;
var viewHeight = 302;
var sectionId = 'dynsection-1';
</script>
<script xlink:href="svgpan.js"/>
<svg id="graph" class="graph">
<g id="viewport">
<title>include/preprocessor.h</title>
<!-- Node1 -->
<g id="node1" class="node"><title>Node1</title>
<g id="a_node1"><a xlink:title=" ">
<polygon fill="#bfbfbf" stroke="black" points="307.652,-275.5 307.652,-293.5 419.652,-293.5 419.652,-275.5 307.652,-275.5"/>
<text text-anchor="middle" x="363.652" y="-282.3" font-family="Calibri" font-size="9.00">include/preprocessor.h</text>
</a>
</g>
</g>
<!-- Node2 -->
<g id="node2" class="node"><title>Node2</title>
<g id="a_node2"><a xlink:href="common_8h.html" target="_top" xlink:title=" ">
<polygon fill="none" stroke="black" points="317.152,-220.5 317.152,-238.5 410.152,-238.5 410.152,-220.5 317.152,-220.5"/>
<text text-anchor="middle" x="363.652" y="-227.3" font-family="Calibri" font-size="9.00">include/common.h</text>
</a>
</g>
</g>
<!-- Node1&#45;&gt;Node2 -->
<g id="edge1" class="edge"><title>Node1&#45;&gt;Node2</title>
<path fill="none" stroke="midnightblue" d="M357.196,-265.175C356.523,-256.094 357.005,-245.595 358.643,-238.55"/>
<polygon fill="midnightblue" stroke="midnightblue" points="353.748,-265.795 358.589,-275.219 360.682,-264.833 353.748,-265.795"/>
</g>
<!-- Node3 -->
<g id="node3" class="node"><title>Node3</title>
<g id="a_node3"><a xlink:href="extratypes_8h.html" target="_top" xlink:title=" ">
<polygon fill="none" stroke="black" points="393.152,-165.5 393.152,-183.5 494.152,-183.5 494.152,-165.5 393.152,-165.5"/>
<text text-anchor="middle" x="443.652" y="-172.3" font-family="Calibri" font-size="9.00">include/extratypes.h</text>
</a>
</g>
</g>
<!-- Node1&#45;&gt;Node3 -->
<g id="edge25" class="edge"><title>Node1&#45;&gt;Node3</title>
<path fill="none" stroke="midnightblue" d="M385.932,-269.525C396.986,-261.671 409.825,-251.035 418.652,-239 431.545,-221.421 438.819,-196.308 441.891,-183.572"/>
<polygon fill="midnightblue" stroke="midnightblue" points="383.874,-266.692 377.561,-275.2 387.802,-272.486 383.874,-266.692"/>
</g>
<!-- Node4 -->
<g id="node4" class="node"><title>Node4</title>
<g id="a_node4"><a xlink:href="font5x8_8h.html" target="_top" xlink:title="Definition of 5x8 font characters for use by OLED displays for ATU&#45;100 EXT PIC16F1938.">
<polygon fill="none" stroke="black" points="11.652,-110.5 11.652,-128.5 99.652,-128.5 99.652,-110.5 11.652,-110.5"/>
<text text-anchor="middle" x="55.652" y="-117.3" font-family="Calibri" font-size="9.00">include/font5x8.h</text>
</a>
</g>
</g>
<!-- Node1&#45;&gt;Node4 -->
<g id="edge26" class="edge"><title>Node1&#45;&gt;Node4</title>
<path fill="none" stroke="midnightblue" d="M297.563,-274.574C236.059,-263.165 145.184,-237.985 85.652,-184 68.8524,-168.766 60.6279,-142.148 57.3862,-128.73"/>
<polygon fill="midnightblue" stroke="midnightblue" points="297.092,-278.045 307.551,-276.354 298.32,-271.154 297.092,-278.045"/>
</g>
<!-- Node5 -->
<g id="node5" class="node"><title>Node5</title>
<g id="a_node5"><a xlink:href="oled__control_8c.html" target="_top" xlink:title="OLED/LCD control routines for ATU&#45;100 EXT PIC16F1938.">
<polygon fill="none" stroke="black" points="48.152,-55.5 48.152,-73.5 137.152,-73.5 137.152,-55.5 48.152,-55.5"/>
<text text-anchor="middle" x="92.652" y="-62.3" font-family="Calibri" font-size="9.00">src/oled_control.c</text>
</a>
</g>
</g>
<!-- Node1&#45;&gt;Node5 -->
<g id="edge31" class="edge"><title>Node1&#45;&gt;Node5</title>
<path fill="none" stroke="midnightblue" d="M297.594,-279.854C208.109,-270.738 53.6779,-239.017 2.652,-129 -10.3822,-100.897 29.1206,-82.933 59.8879,-73.53"/>
<polygon fill="midnightblue" stroke="midnightblue" points="297.354,-283.347 307.641,-280.81 298.018,-276.378 297.354,-283.347"/>
</g>
<!-- Node6 -->
<g id="node6" class="node"><title>Node6</title>
<g id="a_node6"><a xlink:href="main_8h.html" target="_top" xlink:title="ATU&#45;100 EXT firmware definitions for PIC16F1938 main program.">
<polygon fill="none" stroke="black" points="400.652,-55.5 400.652,-73.5 480.652,-73.5 480.652,-55.5 400.652,-55.5"/>
<text text-anchor="middle" x="440.652" y="-62.3" font-family="Calibri" font-size="9.00">include/main.h</text>
</a>
</g>
</g>
<!-- Node1&#45;&gt;Node6 -->
<g id="edge27" class="edge"><title>Node1&#45;&gt;Node6</title>
<path fill="none" stroke="midnightblue" d="M337.804,-270.071C326.327,-262.606 313.998,-252.149 307.652,-239 303.982,-231.395 304.792,-227.945 307.652,-220 332.109,-152.068 402.044,-94.2935 429.446,-73.6256"/>
<polygon fill="midnightblue" stroke="midnightblue" points="336.321,-273.262 346.696,-275.41 339.924,-267.261 336.321,-273.262"/>
</g>
<!-- Node7 -->
<g id="node7" class="node"><title>Node7</title>
<g id="a_node7"><a xlink:href="main_8c.html" target="_top" xlink:title="ATU&#45;100 EXT firmware for PIC16F1938 main program.">
<polygon fill="none" stroke="black" points="488.152,-0.5 488.152,-18.5 547.152,-18.5 547.152,-0.5 488.152,-0.5"/>
<text text-anchor="middle" x="517.652" y="-7.3" font-family="Calibri" font-size="9.00">src/main.c</text>
</a>
</g>
</g>
<!-- Node1&#45;&gt;Node7 -->
<g id="edge30" class="edge"><title>Node1&#45;&gt;Node7</title>
<path fill="none" stroke="midnightblue" d="M429.952,-278.324C538.852,-267.976 743.652,-239.948 743.652,-175.5 743.652,-175.5 743.652,-175.5 743.652,-118.5 743.652,-32.3977 608.458,-14.8787 547.198,-11.3601"/>
<polygon fill="midnightblue" stroke="midnightblue" points="429.357,-274.864 419.722,-279.271 430.002,-281.834 429.357,-274.864"/>
</g>
<!-- Node8 -->
<g id="node8" class="node"><title>Node8</title>
<g id="a_node8"><a xlink:href="oled__control_8h.html" target="_top" xlink:title="OLED/LCD control definitions for ATU&#45;100 EXT PIC16F1938.">
<polygon fill="none" stroke="black" points="193.652,-110.5 193.652,-128.5 303.652,-128.5 303.652,-110.5 193.652,-110.5"/>
<text text-anchor="middle" x="248.652" y="-117.3" font-family="Calibri" font-size="9.00">include/oled_control.h</text>
</a>
</g>
</g>
<!-- Node1&#45;&gt;Node8 -->
<g id="edge28" class="edge"><title>Node1&#45;&gt;Node8</title>
<path fill="none" stroke="midnightblue" d="M323.005,-271.94C305.692,-265.046 286.741,-254.526 274.652,-239 248.126,-204.932 247.41,-149.438 248.178,-128.679"/>
<polygon fill="midnightblue" stroke="midnightblue" points="321.808,-275.229 332.401,-275.406 324.231,-268.662 321.808,-275.229"/>
</g>
<!-- Node9 -->
<g id="node9" class="node"><title>Node9</title>
<g id="a_node9"><a xlink:href="pic__init_8h.html" target="_top" xlink:title="PIC microcontroller initialization definitions for ATU&#45;100 EXT PIC16F1938.">
<polygon fill="none" stroke="black" points="550.152,-110.5 550.152,-128.5 639.152,-128.5 639.152,-110.5 550.152,-110.5"/>
<text text-anchor="middle" x="594.652" y="-117.3" font-family="Calibri" font-size="9.00">include/pic_init.h</text>
</a>
</g>
</g>
<!-- Node1&#45;&gt;Node9 -->
<g id="edge29" class="edge"><title>Node1&#45;&gt;Node9</title>
<path fill="none" stroke="midnightblue" d="M402.162,-272.413C445.815,-258.163 516.843,-229.665 562.652,-184 578.914,-167.789 588.438,-141.613 592.43,-128.511"/>
<polygon fill="midnightblue" stroke="midnightblue" points="400.957,-269.124 392.485,-275.486 403.075,-275.796 400.957,-269.124"/>
</g>
<!-- Node10 -->
<g id="node10" class="node"><title>Node10</title>
<g id="a_node10"><a xlink:href="pic__init_8c.html" target="_top" xlink:title="PIC microcontroller initialization routines for ATU&#45;100 EXT PIC16F1938.">
<polygon fill="none" stroke="black" points="498.652,-55.5 498.652,-73.5 566.652,-73.5 566.652,-55.5 498.652,-55.5"/>
<text text-anchor="middle" x="532.652" y="-62.3" font-family="Calibri" font-size="9.00">src/pic_init.c</text>
</a>
</g>
</g>
<!-- Node1&#45;&gt;Node10 -->
<g id="edge32" class="edge"><title>Node1&#45;&gt;Node10</title>
<path fill="none" stroke="midnightblue" d="M420.903,-273.252C491.596,-256.986 607.424,-217.521 647.652,-129 663.882,-93.2872 606.39,-76.8985 566.913,-69.9886"/>
<polygon fill="midnightblue" stroke="midnightblue" points="419.821,-269.907 410.814,-275.487 421.335,-276.741 419.821,-269.907"/>
</g>
<!-- Node2&#45;&gt;Node1 -->
<g id="edge21" class="edge"><title>Node2&#45;&gt;Node1</title>
<path fill="none" stroke="midnightblue" d="M370.086,-248.529C370.784,-257.577 370.327,-268.099 368.714,-275.219"/>
<polygon fill="midnightblue" stroke="midnightblue" points="373.539,-247.955 368.661,-238.55 366.609,-248.944 373.539,-247.955"/>
</g>
<!-- Node2&#45;&gt;Node3 -->
<g id="edge2" class="edge"><title>Node2&#45;&gt;Node3</title>
<path fill="none" stroke="midnightblue" d="M384.374,-214.772C399.284,-204.894 418.892,-191.904 431.387,-183.625"/>
<polygon fill="midnightblue" stroke="midnightblue" points="382.206,-212.01 375.802,-220.45 386.072,-217.845 382.206,-212.01"/>
</g>
<!-- Node2&#45;&gt;Node4 -->
<g id="edge17" class="edge"><title>Node2&#45;&gt;Node4</title>
<path fill="none" stroke="midnightblue" d="M306.685,-228.625C253.646,-226.454 173.93,-217.196 113.652,-184 89.0642,-170.459 69.3099,-142.56 60.5503,-128.695"/>
<polygon fill="midnightblue" stroke="midnightblue" points="306.812,-232.131 316.924,-228.97 307.047,-225.135 306.812,-232.131"/>
</g>
<!-- Node2&#45;&gt;Node5 -->
<g id="edge23" class="edge"><title>Node2&#45;&gt;Node5</title>
<path fill="none" stroke="midnightblue" d="M306.602,-223.092C270.762,-217.568 224.828,-206.428 189.652,-184 143.248,-154.413 108.467,-95.1955 96.8525,-73.6104"/>
<polygon fill="midnightblue" stroke="midnightblue" points="306.505,-226.614 316.9,-224.57 307.499,-219.685 306.505,-226.614"/>
</g>
<!-- Node2&#45;&gt;Node6 -->
<g id="edge18" class="edge"><title>Node2&#45;&gt;Node6</title>
<path fill="none" stroke="midnightblue" d="M368.195,-210.544C371.73,-197.617 377.127,-179.904 383.652,-165 399.221,-129.438 424.144,-90.3212 435.137,-73.6986"/>
<polygon fill="midnightblue" stroke="midnightblue" points="364.74,-209.919 365.584,-220.48 371.51,-211.698 364.74,-209.919"/>
</g>
<!-- Node2&#45;&gt;Node7 -->
<g id="edge22" class="edge"><title>Node2&#45;&gt;Node7</title>
<path fill="none" stroke="midnightblue" d="M316.43,-218.074C251.126,-201.394 145.474,-164.896 184.652,-110 220.667,-59.5363 413.44,-25.9744 488.094,-14.697"/>
<polygon fill="midnightblue" stroke="midnightblue" points="315.594,-221.473 326.143,-220.486 317.281,-214.679 315.594,-221.473"/>
</g>
<!-- Node2&#45;&gt;Node8 -->
<g id="edge19" class="edge"><title>Node2&#45;&gt;Node8</title>
<path fill="none" stroke="midnightblue" d="M347.546,-213.375C322.893,-190.222 276.638,-146.782 257.396,-128.712"/>
<polygon fill="midnightblue" stroke="midnightblue" points="345.323,-216.088 355.008,-220.382 350.115,-210.985 345.323,-216.088"/>
</g>
<!-- Node2&#45;&gt;Node9 -->
<g id="edge20" class="edge"><title>Node2&#45;&gt;Node9</title>
<path fill="none" stroke="midnightblue" d="M420.334,-222.313C455.756,-216.487 501.21,-205.303 536.652,-184 560.455,-169.693 580.287,-142.655 589.353,-128.938"/>
<polygon fill="midnightblue" stroke="midnightblue" points="419.504,-218.9 410.156,-223.887 420.574,-225.818 419.504,-218.9"/>
</g>
<!-- Node2&#45;&gt;Node10 -->
<g id="edge24" class="edge"><title>Node2&#45;&gt;Node10</title>
<path fill="none" stroke="midnightblue" d="M420.622,-223.203C448.911,-217.69 481.477,-206.527 502.652,-184 532.594,-152.146 533.774,-94.8256 533.092,-73.65"/>
<polygon fill="midnightblue" stroke="midnightblue" points="419.668,-219.817 410.422,-224.989 420.876,-226.712 419.668,-219.817"/>
</g>
<!-- Node3&#45;&gt;Node4 -->
<g id="edge3" class="edge"><title>Node3&#45;&gt;Node4</title>
<path fill="none" stroke="midnightblue" d="M382.689,-165.173C304.066,-154.433 169.205,-136.011 99.7887,-126.529"/>
<polygon fill="midnightblue" stroke="midnightblue" points="382.546,-168.685 392.928,-166.571 383.494,-161.75 382.546,-168.685"/>
</g>
<!-- Node3&#45;&gt;Node5 -->
<g id="edge15" class="edge"><title>Node3&#45;&gt;Node5</title>
<path fill="none" stroke="midnightblue" d="M421.118,-160.4C395.589,-146.082 352.36,-123.4 312.652,-110 253.577,-90.0638 182.408,-77.665 137.339,-71.1695"/>
<polygon fill="midnightblue" stroke="midnightblue" points="419.568,-163.545 429.992,-165.441 423.026,-157.458 419.568,-163.545"/>
</g>
<!-- Node3&#45;&gt;Node6 -->
<g id="edge5" class="edge"><title>Node3&#45;&gt;Node6</title>
<path fill="none" stroke="midnightblue" d="M443.145,-155.243C442.485,-131.493 441.36,-90.9967 440.88,-73.7118"/>
<polygon fill="midnightblue" stroke="midnightblue" points="439.65,-155.484 443.427,-165.382 446.647,-155.289 439.65,-155.484"/>
</g>
<!-- Node3&#45;&gt;Node7 -->
<g id="edge14" class="edge"><title>Node3&#45;&gt;Node7</title>
<path fill="none" stroke="midnightblue" d="M504.651,-168.509C558.09,-162.721 629.923,-151.014 647.652,-129 685.675,-81.7881 586.573,-36.5457 540.136,-18.6038"/>
<polygon fill="midnightblue" stroke="midnightblue" points="504.152,-165.042 494.567,-169.556 504.875,-172.004 504.152,-165.042"/>
</g>
<!-- Node3&#45;&gt;Node8 -->
<g id="edge7" class="edge"><title>Node3&#45;&gt;Node8</title>
<path fill="none" stroke="midnightblue" d="M404.025,-162.73C366.757,-152.6 311.808,-137.666 278.227,-128.538"/>
<polygon fill="midnightblue" stroke="midnightblue" points="403.468,-166.205 414.036,-165.45 405.304,-159.45 403.468,-166.205"/>
</g>
<!-- Node3&#45;&gt;Node9 -->
<g id="edge10" class="edge"><title>Node3&#45;&gt;Node9</title>
<path fill="none" stroke="midnightblue" d="M476.176,-162.084C504.886,-152.007 546.026,-137.567 571.503,-128.625"/>
<polygon fill="midnightblue" stroke="midnightblue" points="474.862,-158.836 466.586,-165.45 477.18,-165.441 474.862,-158.836"/>
</g>
<!-- Node3&#45;&gt;Node10 -->
<g id="edge16" class="edge"><title>Node3&#45;&gt;Node10</title>
<path fill="none" stroke="midnightblue" d="M456.872,-157.458C476.126,-134.093 511.188,-91.5466 525.885,-73.7118"/>
<polygon fill="midnightblue" stroke="midnightblue" points="454,-155.439 450.341,-165.382 459.402,-159.891 454,-155.439"/>
</g>
<!-- Node4&#45;&gt;Node5 -->
<g id="edge4" class="edge"><title>Node4&#45;&gt;Node5</title>
<path fill="none" stroke="midnightblue" d="M67.2053,-101.951C73.8071,-92.4941 81.7897,-81.0595 87.0325,-73.5496"/>
<polygon fill="midnightblue" stroke="midnightblue" points="64.2877,-100.016 61.4332,-110.219 70.0274,-104.023 64.2877,-100.016"/>
</g>
<!-- Node6&#45;&gt;Node7 -->
<g id="edge6" class="edge"><title>Node6&#45;&gt;Node7</title>
<path fill="none" stroke="midnightblue" d="M460.597,-49.7719C474.948,-39.8937 493.82,-26.9036 505.847,-18.6253"/>
<polygon fill="midnightblue" stroke="midnightblue" points="458.6,-46.8975 452.347,-55.4504 462.568,-52.6636 458.6,-46.8975"/>
</g>
<!-- Node8&#45;&gt;Node5 -->
<g id="edge9" class="edge"><title>Node8&#45;&gt;Node5</title>
<path fill="none" stroke="midnightblue" d="M215.409,-107.206C185.638,-97.0914 142.718,-82.5095 116.312,-73.5383"/>
<polygon fill="midnightblue" stroke="midnightblue" points="214.365,-110.547 224.959,-110.45 216.616,-103.92 214.365,-110.547"/>
</g>
<!-- Node8&#45;&gt;Node7 -->
<g id="edge8" class="edge"><title>Node8&#45;&gt;Node7</title>
<path fill="none" stroke="midnightblue" d="M274.903,-106.1C303.386,-92.8199 350.335,-71.4401 391.652,-55 426.356,-41.191 467.245,-27.1503 492.813,-18.6312"/>
<polygon fill="midnightblue" stroke="midnightblue" points="273.209,-103.028 265.637,-110.438 276.178,-109.367 273.209,-103.028"/>
</g>
<!-- Node9&#45;&gt;Node6 -->
<g id="edge11" class="edge"><title>Node9&#45;&gt;Node6</title>
<path fill="none" stroke="midnightblue" d="M561.452,-107.074C532.078,-96.9647 489.963,-82.4705 464.009,-73.5383"/>
<polygon fill="midnightblue" stroke="midnightblue" points="560.668,-110.506 571.263,-110.45 562.946,-103.887 560.668,-110.506"/>
</g>
<!-- Node9&#45;&gt;Node7 -->
<g id="edge12" class="edge"><title>Node9&#45;&gt;Node7</title>
<path fill="none" stroke="midnightblue" d="M592.312,-100.436C589.876,-86.9655 585.04,-68.6192 575.652,-55 564.631,-39.0123 546.066,-26.2398 532.912,-18.55"/>
<polygon fill="midnightblue" stroke="midnightblue" points="588.863,-101.04 593.84,-110.393 595.782,-99.9781 588.863,-101.04"/>
</g>
<!-- Node9&#45;&gt;Node10 -->
<g id="edge13" class="edge"><title>Node9&#45;&gt;Node10</title>
<path fill="none" stroke="midnightblue" d="M577.603,-103.926C566.181,-94.1622 551.567,-81.6693 542.157,-73.6253"/>
<polygon fill="midnightblue" stroke="midnightblue" points="575.36,-106.613 585.236,-110.45 579.909,-101.292 575.36,-106.613"/>
</g>
</g>
</svg>
        <g id="navigator" transform="translate(0 0)" fill="#404254">
                <rect fill="#f2f5e9" fill-opacity="0.5" stroke="#606060" stroke-width=".5" x="0" y="0" width="60" height="60"/>
                <use id="zoomplus" xlink:href="#zoomPlus" x="17" y="9" onmousedown="handleZoom(evt,'in')"/>
                <use id="zoomminus" xlink:href="#zoomMin" x="42" y="9" onmousedown="handleZoom(evt,'out')"/>
                <use id="reset" xlink:href="#resetDef" x="30" y="36" onmousedown="handleReset()"/>
                <g id="arrowUp" xlink:href="#dirArrow" transform="translate(30 24)" onmousedown="handlePan(0,-1)">
                  <use xlink:href="#rim" fill="#404040">
                        <set attributeName="fill" to="#808080" begin="arrowUp.mouseover" end="arrowUp.mouseout"/>
                  </use>
                  <path fill="none" stroke="white" stroke-width="1.5" d="M0,-3.0v7 M-2.5,-0.5L0,-3.0L2.5,-0.5"/>
                </g>
                <g id="arrowRight" xlink:href="#dirArrow" transform="rotate(90) translate(36 -43)" onmousedown="handlePan(1,0)">
                  <use xlink:href="#rim" fill="#404040">
                        <set attributeName="fill" to="#808080" begin="arrowRight.mouseover" end="arrowRight.mouseout"/>
                  </use>
                  <path fill="none" stroke="white" stroke-width="1.5" d="M0,-3.0v7 M-2.5,-0.5L0,-3.0L2.5,-0.5"/>
                </g>
                <g id="arrowDown" xlink:href="#dirArrow" transform="rotate(180) translate(-30 -48)" onmousedown="handlePan(0,1)">
                  <use xlink:href="#rim" fill="#404040">
                        <set attributeName="fill" to="#808080" begin="arrowDown.mouseover" end="arrowDown.mouseout"/>
                  </use>
                  <path fill="none" stroke="white" stroke-width="1.5" d="M0,-3.0v7 M-2.5,-0.5L0,-3.0L2.5,-0.5"/>
                </g>
                <g id="arrowLeft" xlink:href="#dirArrow" transform="rotate(270) translate(-36 17)" onmousedown="handlePan(-1,0)">
                  <use xlink:href="#rim" fill="#404040">
                        <set attributeName="fill" to="#808080" begin="arrowLeft.mouseover" end="arrowLeft.mouseout"/>
                  </use>
                  <path fill="none" stroke="white" stroke-width="1.5" d="M0,-3.0v7 M-2.5,-0.5L0,-3.0L2.5,-0.5"/>
                </g>
        </g>
        <svg viewBox="0 0 15 15" width="100%" height="30px" preserveAspectRatio="xMaxYMin meet">
         <g id="arrow_out" transform="scale(0.3 0.3)">
          <a xlink:href="preprocessor_8h__dep__incl_org.svg" target="_base">
           <rect id="button" ry="5" rx="5" y="6" x="6" height="38" width="38"
                fill="#f2f5e9" fill-opacity="0.5" stroke="#606060" stroke-width="1.0"/>
           <path id="arrow"
             d="M 11.500037,31.436501 C 11.940474,20.09759 22.043105,11.32322 32.158766,21.979434 L 37.068811,17.246167 C 37.068811,17.246167 37.088388,32 37.088388,32 L 22.160133,31.978069 C 22.160133,31.978069 26.997745,27.140456 26.997745,27.140456 C 18.528582,18.264221 13.291696,25.230495 11.500037,31.436501 z"
             style="fill:#404040;"/>
          </a>
         </g>
        </svg>
</svg>
