<?xml version="1.0" encoding="UTF-8" standalone="no"?>
<!DOCTYPE svg PUBLIC "-//W3C//DTD SVG 1.1//EN"
 "http://www.w3.org/Graphics/SVG/1.1/DTD/svg11.dtd">
<!-- Generated by graphviz version 2.38.0 (20140413.2041)
 -->
<!-- Title: main Pages: 1 -->
<svg width="1589pt" height="1510pt"
 viewBox="0.00 0.00 1589.00 1509.83" xmlns="http://www.w3.org/2000/svg" xmlns:xlink="http://www.w3.org/1999/xlink">
<g id="graph0" class="graph" transform="scale(1 1) rotate(0) translate(4 1505.83)">
<title>main</title>
<!-- Node1 -->
<g id="node1" class="node"><title>Node1</title>
<g id="a_node1"><a xlink:title=" ">
<polygon fill="#bfbfbf" stroke="black" points="0,-904.969 0,-922.969 38,-922.969 38,-904.969 0,-904.969"/>
<text text-anchor="middle" x="19" y="-911.769" font-family="Calibri" font-size="9.00">main</text>
</a>
</g>
</g>
<!-- Node2 -->
<g id="node2" class="node"><title>Node2</title>
<g id="a_node2"><a xlink:href="src_2main_8c.html#a1c9e5d54d8cf7f3d041aa2e0b330b3dd" target="_top" xlink:title="Handle the process of the buttons being pressed.">
<polygon fill="none" stroke="black" points="98.5,-801.969 98.5,-819.969 163.5,-819.969 163.5,-801.969 98.5,-801.969"/>
<text text-anchor="middle" x="131" y="-808.769" font-family="Calibri" font-size="9.00">button_proc</text>
</a>
</g>
</g>
<!-- Node1&#45;&gt;Node2 -->
<g id="edge1" class="edge"><title>Node1&#45;&gt;Node2</title>
<path fill="none" stroke="midnightblue" d="M23.3505,-904.807C30.1667,-887.435 47.3007,-849.601 74,-828.969 78.4443,-825.534 83.5638,-822.745 88.8632,-820.481"/>
<polygon fill="midnightblue" stroke="midnightblue" points="90.3064,-823.68 98.4894,-816.95 87.8958,-817.108 90.3064,-823.68"/>
</g>
<!-- Node4 -->
<g id="node4" class="node"><title>Node4</title>
<g id="a_node4"><a xlink:href="src_2main_8c.html#a6911b3f075cdf1d54cb14f17f6e5ef6b" target="_top" xlink:title=" ">
<polygon fill="none" stroke="black" points="1097,-1143.97 1097,-1161.97 1144,-1161.97 1144,-1143.97 1097,-1143.97"/>
<text text-anchor="middle" x="1120.5" y="-1150.77" font-family="Calibri" font-size="9.00">lcd_ind</text>
</a>
</g>
</g>
<!-- Node1&#45;&gt;Node4 -->
<g id="edge94" class="edge"><title>Node1&#45;&gt;Node4</title>
<path fill="none" stroke="midnightblue" d="M20.6097,-923.034C23.8193,-968.651 39.9164,-1172.94 74,-1224.97 126.215,-1304.68 157.714,-1342.97 253,-1342.97 253,-1342.97 253,-1342.97 811,-1342.97 942.46,-1342.97 1064.88,-1216.34 1105.41,-1169.83"/>
<polygon fill="midnightblue" stroke="midnightblue" points="1108.16,-1172 1112.01,-1162.13 1102.85,-1167.45 1108.16,-1172"/>
</g>
<!-- Node5 -->
<g id="node5" class="node"><title>Node5</title>
<g id="a_node5"><a xlink:href="oled__control_8c.html#a1c8eef09adf01c9a7e3c6188f25c3c48" target="_top" xlink:title=" ">
<polygon fill="none" stroke="black" points="1190.5,-1010.97 1190.5,-1028.97 1249.5,-1028.97 1249.5,-1010.97 1190.5,-1010.97"/>
<text text-anchor="middle" x="1220" y="-1017.77" font-family="Calibri" font-size="9.00">led_wr_str</text>
</a>
</g>
</g>
<!-- Node1&#45;&gt;Node5 -->
<g id="edge107" class="edge"><title>Node1&#45;&gt;Node5</title>
<path fill="none" stroke="midnightblue" d="M20.2438,-923.188C22.1448,-991.899 35.554,-1422.58 74,-1463.97 128.952,-1523.12 172.26,-1494.97 253,-1494.97 253,-1494.97 253,-1494.97 1017.5,-1494.97 1083.54,-1494.97 1112.88,-1486.43 1153,-1433.97 1201.48,-1370.59 1215.33,-1112.06 1218.31,-1039.18"/>
<polygon fill="midnightblue" stroke="midnightblue" points="1221.81,-1039.26 1218.7,-1029.13 1214.81,-1038.99 1221.81,-1039.26"/>
</g>
<!-- Node12 -->
<g id="node12" class="node"><title>Node12</title>
<g id="a_node12"><a xlink:href="src_2main_8c.html#ae5a14b4884e85f47ad8a4a716f13203a" target="_top" xlink:title=" ">
<polygon fill="none" stroke="black" points="893,-687.969 893,-705.969 941,-705.969 941,-687.969 893,-687.969"/>
<text text-anchor="middle" x="917" y="-694.769" font-family="Calibri" font-size="9.00">lcd_pwr</text>
</a>
</g>
</g>
<!-- Node1&#45;&gt;Node12 -->
<g id="edge98" class="edge"><title>Node1&#45;&gt;Node12</title>
<path fill="none" stroke="midnightblue" d="M38.2046,-914.949C69.0961,-916.37 133.717,-918.288 188,-912.969 394.725,-892.71 446.418,-878.936 647,-824.969 693.828,-812.369 811.195,-777.544 853,-752.969 871.214,-742.262 888.921,-725.82 900.9,-713.518"/>
<polygon fill="midnightblue" stroke="midnightblue" points="903.559,-715.801 907.893,-706.133 898.476,-710.988 903.559,-715.801"/>
</g>
<!-- Node21 -->
<g id="node21" class="node"><title>Node21</title>
<g id="a_node21"><a xlink:href="main_8h.html#a2a7963b9b09696c6654b96c67900c6ea" target="_top" xlink:title=" ">
<polygon fill="none" stroke="black" points="992.5,-544.969 992.5,-562.969 1040.5,-562.969 1040.5,-544.969 992.5,-544.969"/>
<text text-anchor="middle" x="1016.5" y="-551.769" font-family="Calibri" font-size="9.00">set_cap</text>
</a>
</g>
</g>
<!-- Node1&#45;&gt;Node21 -->
<g id="edge109" class="edge"><title>Node1&#45;&gt;Node21</title>
<path fill="none" stroke="midnightblue" d="M21.3002,-904.674C25.0101,-881.785 37.817,-822.358 74,-791.969 379.409,-535.461 560.91,-683.421 945,-575.969 957.32,-572.522 970.745,-568.42 982.543,-564.698"/>
<polygon fill="midnightblue" stroke="midnightblue" points="983.958,-567.92 992.423,-561.55 981.833,-561.251 983.958,-567.92"/>
</g>
<!-- Node23 -->
<g id="node23" class="node"><title>Node23</title>
<g id="a_node23"><a xlink:href="main_8h.html#aecc83cd8bceb4bc24be844732ead2c2c" target="_top" xlink:title=" ">
<polygon fill="none" stroke="black" points="993,-231.969 993,-249.969 1040,-249.969 1040,-231.969 993,-231.969"/>
<text text-anchor="middle" x="1016.5" y="-238.769" font-family="Calibri" font-size="9.00">set_ind</text>
</a>
</g>
</g>
<!-- Node1&#45;&gt;Node23 -->
<g id="edge110" class="edge"><title>Node1&#45;&gt;Node23</title>
<path fill="none" stroke="midnightblue" d="M20.5182,-904.968C23.1951,-860.902 36.7963,-663.704 74,-506.969 120.939,-309.218 71.6547,-209.502 224,-74.9685 262.322,-41.1273 285.375,-50.9685 336.5,-50.9685 336.5,-50.9685 336.5,-50.9685 617,-50.9685 773.005,-50.9685 812.368,-93.8333 945,-175.969 966.534,-189.304 987.372,-209.746 1000.74,-224.138"/>
<polygon fill="midnightblue" stroke="midnightblue" points="998.383,-226.753 1007.69,-231.814 1003.57,-222.053 998.383,-226.753"/>
</g>
<!-- Node24 -->
<g id="node24" class="node"><title>Node24</title>
<g id="a_node24"><a xlink:href="main_8h.html#aa3ee146d5fca99f368e8ddb5d5dd72cb" target="_top" xlink:title="Set the state of the switch.">
<polygon fill="none" stroke="black" points="994,-877.969 994,-895.969 1039,-895.969 1039,-877.969 994,-877.969"/>
<text text-anchor="middle" x="1016.5" y="-884.769" font-family="Calibri" font-size="9.00">set_sw</text>
</a>
</g>
</g>
<!-- Node1&#45;&gt;Node24 -->
<g id="edge111" class="edge"><title>Node1&#45;&gt;Node24</title>
<path fill="none" stroke="midnightblue" d="M19.5299,-923.073C18.2074,-957.684 17.7009,-1083.05 74,-1160.97 128.149,-1235.91 160.542,-1266.97 253,-1266.97 253,-1266.97 253,-1266.97 617,-1266.97 723.573,-1266.97 946.792,-978.716 1002.63,-904.32"/>
<polygon fill="midnightblue" stroke="midnightblue" points="1005.67,-906.093 1008.85,-895.987 1000.06,-901.905 1005.67,-906.093"/>
</g>
<!-- Node35 -->
<g id="node35" class="node"><title>Node35</title>
<g id="a_node35"><a xlink:href="src_2main_8c.html#ac445892220ccb3b4b337dd3e764bd6c6" target="_top" xlink:title="Handle the process of the buttons being pressed (in test mode)">
<polygon fill="none" stroke="black" points="767,-991.969 767,-1009.97 853,-1009.97 853,-991.969 767,-991.969"/>
<text text-anchor="middle" x="810" y="-998.769" font-family="Calibri" font-size="9.00">button_proc_test</text>
</a>
</g>
</g>
<!-- Node1&#45;&gt;Node35 -->
<g id="edge85" class="edge"><title>Node1&#45;&gt;Node35</title>
<path fill="none" stroke="midnightblue" d="M21.8806,-923.056C33.1456,-974.704 96.5486,-1228.97 253,-1228.97 253,-1228.97 253,-1228.97 617,-1228.97 725.93,-1228.97 785.536,-1074.82 803.283,-1020.02"/>
<polygon fill="midnightblue" stroke="midnightblue" points="806.712,-1020.78 806.358,-1010.19 800.032,-1018.69 806.712,-1020.78"/>
</g>
<!-- Node36 -->
<g id="node36" class="node"><title>Node36</title>
<g id="a_node36"><a xlink:href="oled__control_8h.html#afe5714734a8fea7b1617ba377b3c0a06" target="_top" xlink:title=" ">
<polygon fill="none" stroke="black" points="100,-885.969 100,-903.969 162,-903.969 162,-885.969 100,-885.969"/>
<text text-anchor="middle" x="131" y="-892.769" font-family="Calibri" font-size="9.00">display_off</text>
</a>
</g>
</g>
<!-- Node1&#45;&gt;Node36 -->
<g id="edge92" class="edge"><title>Node1&#45;&gt;Node36</title>
<path fill="none" stroke="midnightblue" d="M38.1643,-910.831C52.1411,-908.417 71.9916,-904.988 89.6633,-901.936"/>
<polygon fill="midnightblue" stroke="midnightblue" points="90.4972,-905.344 99.7556,-900.193 89.3057,-898.446 90.4972,-905.344"/>
</g>
<!-- Node37 -->
<g id="node37" class="node"><title>Node37</title>
<g id="a_node37"><a xlink:href="src_2main_8c.html#a2fedd901102411d0236411571e35914e" target="_top" xlink:title="Initialize the runtime data used by the ATU&#45;100 firmware from the data stored in the EEPROM.">
<polygon fill="none" stroke="black" points="74,-838.969 74,-866.969 188,-866.969 188,-838.969 74,-838.969"/>
<text text-anchor="start" x="82" y="-855.769" font-family="Calibri" font-size="9.00">init_runtime_data_from</text>
<text text-anchor="middle" x="131" y="-845.769" font-family="Calibri" font-size="9.00">_eeprom</text>
</a>
</g>
</g>
<!-- Node1&#45;&gt;Node37 -->
<g id="edge93" class="edge"><title>Node1&#45;&gt;Node37</title>
<path fill="none" stroke="midnightblue" d="M31.5139,-904.72C42.1227,-896.482 58.5196,-884.455 74,-875.969 76.9031,-874.377 79.9397,-872.829 83.0329,-871.338"/>
<polygon fill="midnightblue" stroke="midnightblue" points="84.7693,-874.392 92.4056,-867.048 81.8561,-868.027 84.7693,-874.392"/>
</g>
<!-- Node38 -->
<g id="node38" class="node"><title>Node38</title>
<g id="a_node38"><a xlink:href="src_2main_8c.html#a46f52cccc77b5d2d91f35334046bc8eb" target="_top" xlink:title=" ">
<polygon fill="none" stroke="black" points="891,-1409.97 891,-1427.97 943,-1427.97 943,-1409.97 891,-1409.97"/>
<text text-anchor="middle" x="917" y="-1416.77" font-family="Calibri" font-size="9.00">lcd_prep</text>
</a>
</g>
</g>
<!-- Node1&#45;&gt;Node38 -->
<g id="edge95" class="edge"><title>Node1&#45;&gt;Node38</title>
<path fill="none" stroke="midnightblue" d="M20.3911,-923.088C23.1672,-985.88 40.7479,-1352.73 74,-1387.97 129.411,-1446.69 172.26,-1418.97 253,-1418.97 253,-1418.97 253,-1418.97 708,-1418.97 768.625,-1418.97 839.19,-1418.97 880.584,-1418.97"/>
<polygon fill="midnightblue" stroke="midnightblue" points="880.705,-1422.47 890.705,-1418.97 880.705,-1415.47 880.705,-1422.47"/>
</g>
<!-- Node39 -->
<g id="node39" class="node"><title>Node39</title>
<g id="a_node39"><a xlink:href="oled__control_8c.html#a7eb4d382bdd4b42c57dbb7154d03ac66" target="_top" xlink:title=" ">
<polygon fill="none" stroke="black" points="1195.5,-231.969 1195.5,-249.969 1244.5,-249.969 1244.5,-231.969 1195.5,-231.969"/>
<text text-anchor="middle" x="1220" y="-238.769" font-family="Calibri" font-size="9.00">led_init</text>
</a>
</g>
</g>
<!-- Node1&#45;&gt;Node39 -->
<g id="edge99" class="edge"><title>Node1&#45;&gt;Node39</title>
<path fill="none" stroke="midnightblue" d="M20.2265,-904.742C22.522,-812.877 42.1571,-65.2643 74,-31.9685 129.295,25.8491 172.998,-12.9685 253,-12.9685 253,-12.9685 253,-12.9685 1017.5,-12.9685 1084.1,-12.9685 1107.31,-28.5132 1153,-76.9685 1192.74,-119.114 1209.76,-188.262 1215.96,-221.686"/>
<polygon fill="midnightblue" stroke="midnightblue" points="1212.57,-222.654 1217.72,-231.915 1219.47,-221.466 1212.57,-222.654"/>
</g>
<!-- Node41 -->
<g id="node41" class="node"><title>Node41</title>
<g id="a_node41"><a xlink:href="pic__init_8c.html#afc70164c232cee70941b16e3f2ca029a" target="_top" xlink:title=" ">
<polygon fill="none" stroke="black" points="107.5,-516.969 107.5,-534.969 154.5,-534.969 154.5,-516.969 107.5,-516.969"/>
<text text-anchor="middle" x="131" y="-523.769" font-family="Calibri" font-size="9.00">pic_init</text>
</a>
</g>
</g>
<!-- Node1&#45;&gt;Node41 -->
<g id="edge108" class="edge"><title>Node1&#45;&gt;Node41</title>
<path fill="none" stroke="midnightblue" d="M20.1776,-904.941C21.3365,-854.531 29.2506,-608.035 74,-549.969 79.927,-542.278 88.804,-537.016 97.7531,-533.431"/>
<polygon fill="midnightblue" stroke="midnightblue" points="99.0168,-536.698 107.356,-530.163 96.7616,-530.072 99.0168,-536.698"/>
</g>
<!-- Node42 -->
<g id="node42" class="node"><title>Node42</title>
<g id="a_node42"><a xlink:href="src_2main_8c.html#aad7203cfd92bc4b814e43c04a209f634" target="_top" xlink:title=" ">
<polygon fill="none" stroke="black" points="224,-1447.97 224,-1465.97 284,-1465.97 284,-1447.97 224,-1447.97"/>
<text text-anchor="middle" x="254" y="-1454.77" font-family="Calibri" font-size="9.00">show_loss</text>
</a>
</g>
</g>
<!-- Node1&#45;&gt;Node42 -->
<g id="edge112" class="edge"><title>Node1&#45;&gt;Node42</title>
<path fill="none" stroke="midnightblue" d="M20.2821,-923.102C22.4138,-989.36 36.9277,-1394.78 74,-1432.97 109.662,-1469.7 172.655,-1469.34 213.604,-1464.26"/>
<polygon fill="midnightblue" stroke="midnightblue" points="214.342,-1467.69 223.764,-1462.85 213.378,-1460.76 214.342,-1467.69"/>
</g>
<!-- Node43 -->
<g id="node43" class="node"><title>Node43</title>
<g id="a_node43"><a xlink:href="oled__control_8c.html#a288e0ad298472a484eccff35c52bcebc" target="_top" xlink:title=" ">
<polygon fill="none" stroke="black" points="97,-41.9685 97,-59.9685 165,-59.9685 165,-41.9685 97,-41.9685"/>
<text text-anchor="middle" x="131" y="-48.7685" font-family="Calibri" font-size="9.00">Soft_I2C_Init</text>
</a>
</g>
</g>
<!-- Node1&#45;&gt;Node43 -->
<g id="edge114" class="edge"><title>Node1&#45;&gt;Node43</title>
<path fill="none" stroke="midnightblue" d="M20.0156,-904.851C20.236,-818.502 23.5708,-146.345 74,-74.9685 77.5191,-69.9877 82.2935,-66.033 87.5794,-62.895"/>
<polygon fill="midnightblue" stroke="midnightblue" points="89.3974,-65.9014 96.8267,-58.3478 86.3085,-59.6197 89.3974,-65.9014"/>
</g>
<!-- Node44 -->
<g id="node44" class="node"><title>Node44</title>
<g id="a_node44"><a xlink:href="src_2main_8c.html#a7a367b10f22edd310a36627b6c941255" target="_top" xlink:title=" ">
<polygon fill="none" stroke="black" points="784.5,-1371.97 784.5,-1389.97 835.5,-1389.97 835.5,-1371.97 784.5,-1371.97"/>
<text text-anchor="middle" x="810" y="-1378.77" font-family="Calibri" font-size="9.00">test_init</text>
</a>
</g>
</g>
<!-- Node1&#45;&gt;Node44 -->
<g id="edge115" class="edge"><title>Node1&#45;&gt;Node44</title>
<path fill="none" stroke="midnightblue" d="M20.4612,-923.276C23.5674,-984.226 42.279,-1324.87 74,-1356.97 130.417,-1414.07 172.733,-1380.97 253,-1380.97 253,-1380.97 253,-1380.97 617,-1380.97 671.996,-1380.97 735.853,-1380.97 774.307,-1380.97"/>
<polygon fill="midnightblue" stroke="midnightblue" points="774.45,-1384.47 784.45,-1380.97 774.45,-1377.47 774.45,-1384.47"/>
</g>
<!-- Node3 -->
<g id="node3" class="node"><title>Node3</title>
<g id="a_node3"><a xlink:href="src_2main_8c.html#af18ed7edda7874a97cacaa11a2759260" target="_top" xlink:title=" ">
<polygon fill="none" stroke="black" points="226.5,-961.969 226.5,-979.969 281.5,-979.969 281.5,-961.969 226.5,-961.969"/>
<text text-anchor="middle" x="254" y="-968.769" font-family="Calibri" font-size="9.00">btn_push</text>
</a>
</g>
</g>
<!-- Node2&#45;&gt;Node3 -->
<g id="edge2" class="edge"><title>Node2&#45;&gt;Node3</title>
<path fill="none" stroke="midnightblue" d="M163.75,-816.221C172.391,-818.89 181.224,-822.911 188,-828.969 217.068,-854.954 207.74,-873.531 224,-908.969 230.737,-923.65 238.496,-940.222 244.292,-952.536"/>
<polygon fill="midnightblue" stroke="midnightblue" points="241.203,-954.192 248.634,-961.745 247.535,-951.207 241.203,-954.192"/>
</g>
<!-- Node2&#45;&gt;Node4 -->
<g id="edge78" class="edge"><title>Node2&#45;&gt;Node4</title>
<path fill="none" stroke="midnightblue" d="M163.697,-815.128C172.646,-817.759 181.661,-822.034 188,-828.969 237.178,-882.767 198.001,-920.874 224,-988.969 260.655,-1084.97 233.738,-1190.97 336.5,-1190.97 336.5,-1190.97 336.5,-1190.97 617,-1190.97 810.558,-1190.97 860.543,-1198.41 1052,-1169.97 1063.62,-1168.24 1076.15,-1165.37 1087.23,-1162.48"/>
<polygon fill="midnightblue" stroke="midnightblue" points="1088.19,-1165.85 1096.92,-1159.85 1086.35,-1159.09 1088.19,-1165.85"/>
</g>
<!-- Node2&#45;&gt;Node5 -->
<g id="edge80" class="edge"><title>Node2&#45;&gt;Node5</title>
<path fill="none" stroke="midnightblue" d="M134.56,-801.593C154.375,-729.668 285.315,-265.683 391,-171.969 434.71,-133.21 456.081,-126.969 514.5,-126.969 514.5,-126.969 514.5,-126.969 811,-126.969 992.458,-126.969 1085.17,-181.665 1153,-349.969 1202.54,-472.894 1216.1,-903.815 1218.55,-1000.58"/>
<polygon fill="midnightblue" stroke="midnightblue" points="1215.06,-1000.77 1218.8,-1010.68 1222.05,-1000.6 1215.06,-1000.77"/>
</g>
<!-- Node2&#45;&gt;Node12 -->
<g id="edge79" class="edge"><title>Node2&#45;&gt;Node12</title>
<path fill="none" stroke="midnightblue" d="M163.53,-810.969C203.696,-810.969 275.257,-810.969 336.5,-810.969 336.5,-810.969 336.5,-810.969 617,-810.969 631.056,-810.969 809.808,-739.7 884.028,-709.863"/>
<polygon fill="midnightblue" stroke="midnightblue" points="885.398,-713.085 893.368,-706.105 882.785,-706.591 885.398,-713.085"/>
</g>
<!-- Node14 -->
<g id="node14" class="node"><title>Node14</title>
<g id="a_node14"><a xlink:href="oled__control_8c.html#a5febfdc847aa6f3bc3f3c8f7818b8699" target="_top" xlink:title=" ">
<polygon fill="none" stroke="black" points="1189,-269.969 1189,-287.969 1251,-287.969 1251,-269.969 1189,-269.969"/>
<text text-anchor="middle" x="1220" y="-276.769" font-family="Calibri" font-size="9.00">display_on</text>
</a>
</g>
</g>
<!-- Node2&#45;&gt;Node14 -->
<g id="edge77" class="edge"><title>Node2&#45;&gt;Node14</title>
<path fill="none" stroke="midnightblue" d="M133.976,-801.754C141.287,-767.624 167.438,-645.151 188,-543.969 230.363,-335.509 123.78,-88.9685 336.5,-88.9685 336.5,-88.9685 336.5,-88.9685 617,-88.9685 750.958,-88.9685 782.042,-50.9685 916,-50.9685 916,-50.9685 916,-50.9685 1017.5,-50.9685 1137.32,-50.9685 1100.09,-178.653 1189,-258.969 1190.91,-260.694 1192.98,-262.381 1195.11,-263.998"/>
<polygon fill="midnightblue" stroke="midnightblue" points="1193.21,-266.941 1203.41,-269.816 1197.23,-261.21 1193.21,-266.941"/>
</g>
<!-- Node2&#45;&gt;Node21 -->
<g id="edge81" class="edge"><title>Node2&#45;&gt;Node21</title>
<path fill="none" stroke="midnightblue" d="M161.484,-801.963C200.947,-790.726 273.305,-772.969 336.5,-772.969 336.5,-772.969 336.5,-772.969 516.5,-772.969 616.539,-772.969 863.003,-692.276 945,-634.969 969.854,-617.598 991.585,-589.603 1004.13,-571.496"/>
<polygon fill="midnightblue" stroke="midnightblue" points="1007.14,-573.288 1009.82,-563.037 1001.33,-569.382 1007.14,-573.288"/>
</g>
<!-- Node2&#45;&gt;Node23 -->
<g id="edge82" class="edge"><title>Node2&#45;&gt;Node23</title>
<path fill="none" stroke="midnightblue" d="M141.251,-801.684C167.301,-775.065 242.091,-695.289 284,-615.969 389.159,-416.935 289.394,-164.969 514.5,-164.969 514.5,-164.969 514.5,-164.969 811,-164.969 880.886,-164.969 956.265,-204.449 992.914,-226.499"/>
<polygon fill="midnightblue" stroke="midnightblue" points="991.429,-229.694 1001.78,-231.952 995.096,-223.732 991.429,-229.694"/>
</g>
<!-- Node2&#45;&gt;Node24 -->
<g id="edge83" class="edge"><title>Node2&#45;&gt;Node24</title>
<path fill="none" stroke="midnightblue" d="M161.176,-819.982C169.845,-822.758 179.338,-825.895 188,-828.969 204.179,-834.709 207.321,-838.902 224,-842.969 296.528,-860.65 316.703,-853.699 391,-860.969 611.629,-882.555 667.382,-883.593 889,-888.969 921.086,-889.747 957.758,-888.985 983.327,-888.188"/>
<polygon fill="midnightblue" stroke="midnightblue" points="983.681,-891.678 993.559,-887.848 983.448,-884.682 983.681,-891.678"/>
</g>
<!-- Node29 -->
<g id="node29" class="node"><title>Node29</title>
<g id="a_node29"><a xlink:href="src_2main_8c.html#a11724d8cce81ed96bec12a004ea3ea7a" target="_top" xlink:title=" ">
<polygon fill="none" stroke="black" points="778,-801.969 778,-819.969 842,-819.969 842,-801.969 778,-801.969"/>
<text text-anchor="middle" x="810" y="-808.769" font-family="Calibri" font-size="9.00">show_reset</text>
</a>
</g>
</g>
<!-- Node2&#45;&gt;Node29 -->
<g id="edge84" class="edge"><title>Node2&#45;&gt;Node29</title>
<path fill="none" stroke="midnightblue" d="M163.86,-816.366C181.538,-819.222 203.942,-822.615 224,-824.969 427.303,-848.825 478.477,-854.517 683,-862.969 704.315,-863.849 710.582,-869.151 731,-862.969 754.178,-855.951 776.763,-839.524 791.615,-826.996"/>
<polygon fill="midnightblue" stroke="midnightblue" points="794.192,-829.391 799.411,-820.171 789.581,-824.124 794.192,-829.391"/>
</g>
<!-- Node3&#45;&gt;Node4 -->
<g id="edge3" class="edge"><title>Node3&#45;&gt;Node4</title>
<path fill="none" stroke="midnightblue" d="M261.406,-980.244C287.853,-1017.33 392.888,-1152.97 514.5,-1152.97 514.5,-1152.97 514.5,-1152.97 617,-1152.97 778.78,-1152.97 819.22,-1154.52 981,-1154.97 1012.56,-1155.06 1020.45,-1155.44 1052,-1154.97 1063.28,-1154.8 1075.62,-1154.48 1086.63,-1154.14"/>
<polygon fill="midnightblue" stroke="midnightblue" points="1086.81,-1157.63 1096.7,-1153.81 1086.59,-1150.64 1086.81,-1157.63"/>
</g>
<!-- Node3&#45;&gt;Node5 -->
<g id="edge40" class="edge"><title>Node3&#45;&gt;Node5</title>
<path fill="none" stroke="midnightblue" d="M257.173,-980.25C270.403,-1034.19 345.242,-1304.97 514.5,-1304.97 514.5,-1304.97 514.5,-1304.97 1017.5,-1304.97 1148.12,-1304.97 1201.63,-1102.9 1215.28,-1039.06"/>
<polygon fill="midnightblue" stroke="midnightblue" points="1218.74,-1039.63 1217.32,-1029.13 1211.88,-1038.22 1218.74,-1039.63"/>
</g>
<!-- Node3&#45;&gt;Node12 -->
<g id="edge16" class="edge"><title>Node3&#45;&gt;Node12</title>
<path fill="none" stroke="midnightblue" d="M281.699,-973.586C375.105,-981.152 690.336,-993.013 853,-828.969 883.334,-798.377 869.262,-777.262 889,-738.969 893.3,-730.625 898.793,-721.826 903.701,-714.449"/>
<polygon fill="midnightblue" stroke="midnightblue" points="906.717,-716.238 909.47,-706.007 900.938,-712.289 906.717,-716.238"/>
</g>
<!-- Node26 -->
<g id="node26" class="node"><title>Node26</title>
<g id="a_node26"><a xlink:href="main_8h.html#a1849f2e5bd63d11a7b9549470e287d17" target="_top" xlink:title=" ">
<polygon fill="none" stroke="black" points="320,-573.969 320,-591.969 355,-591.969 355,-573.969 320,-573.969"/>
<text text-anchor="middle" x="337.5" y="-580.769" font-family="Calibri" font-size="9.00">tune</text>
</a>
</g>
</g>
<!-- Node3&#45;&gt;Node26 -->
<g id="edge41" class="edge"><title>Node3&#45;&gt;Node26</title>
<path fill="none" stroke="midnightblue" d="M256.934,-961.76C267.438,-911.755 317.693,-672.505 332.43,-602.346"/>
<polygon fill="midnightblue" stroke="midnightblue" points="335.917,-602.769 334.548,-592.263 329.067,-601.33 335.917,-602.769"/>
</g>
<!-- Node4&#45;&gt;Node5 -->
<g id="edge4" class="edge"><title>Node4&#45;&gt;Node5</title>
<path fill="none" stroke="midnightblue" d="M1128.2,-1143.83C1144.27,-1121.9 1185.23,-1066.03 1206.2,-1037.43"/>
<polygon fill="midnightblue" stroke="midnightblue" points="1209.16,-1039.31 1212.25,-1029.17 1203.52,-1035.17 1209.16,-1039.31"/>
</g>
<!-- Node6 -->
<g id="node6" class="node"><title>Node6</title>
<g id="a_node6"><a xlink:href="oled__control_8c.html#a3d35666326cc069eda3b63c70983fdbc" target="_top" xlink:title=" ">
<polygon fill="none" stroke="black" points="1401,-345.969 1401,-363.969 1456,-363.969 1456,-345.969 1401,-345.969"/>
<text text-anchor="middle" x="1428.5" y="-352.769" font-family="Calibri" font-size="9.00">led_send</text>
</a>
</g>
</g>
<!-- Node5&#45;&gt;Node6 -->
<g id="edge5" class="edge"><title>Node5&#45;&gt;Node6</title>
<path fill="none" stroke="midnightblue" d="M1221.12,-1010.75C1222.13,-945.417 1230.48,-552.189 1287,-449.969 1314.84,-399.612 1337.73,-396.973 1388,-368.969 1389.11,-368.351 1390.25,-367.753 1391.41,-367.174"/>
<polygon fill="midnightblue" stroke="midnightblue" points="1392.88,-370.354 1400.62,-363.121 1390.05,-363.947 1392.88,-370.354"/>
</g>
<!-- Node10 -->
<g id="node10" class="node"><title>Node10</title>
<g id="a_node10"><a xlink:href="oled__control_8c.html#a6e85fd05697e2238e4d9babf1c952772" target="_top" xlink:title=" ">
<polygon fill="none" stroke="black" points="1287,-459.969 1287,-477.969 1352,-477.969 1352,-459.969 1287,-459.969"/>
<text text-anchor="middle" x="1319.5" y="-466.769" font-family="Calibri" font-size="9.00">oled_wr_str</text>
</a>
</g>
</g>
<!-- Node5&#45;&gt;Node10 -->
<g id="edge9" class="edge"><title>Node5&#45;&gt;Node10</title>
<path fill="none" stroke="midnightblue" d="M1222.61,-1010.86C1233.76,-947.862 1299.46,-576.579 1315.14,-487.957"/>
<polygon fill="midnightblue" stroke="midnightblue" points="1318.61,-488.439 1316.91,-477.982 1311.72,-487.219 1318.61,-488.439"/>
</g>
<!-- Node7 -->
<g id="node7" class="node"><title>Node7</title>
<g id="a_node7"><a xlink:href="oled__control_8c.html#ab7f6b5c6c1483f6286f2de5786c028d9" target="_top" xlink:title=" ">
<polygon fill="none" stroke="black" points="1507,-363.969 1507,-381.969 1579,-381.969 1579,-363.969 1507,-363.969"/>
<text text-anchor="middle" x="1543" y="-370.769" font-family="Calibri" font-size="9.00">Soft_I2C_Start</text>
</a>
</g>
</g>
<!-- Node6&#45;&gt;Node7 -->
<g id="edge6" class="edge"><title>Node6&#45;&gt;Node7</title>
<path fill="none" stroke="midnightblue" d="M1456.16,-359.234C1468.17,-361.156 1482.7,-363.481 1496.37,-365.667"/>
<polygon fill="midnightblue" stroke="midnightblue" points="1496.16,-369.179 1506.59,-367.303 1497.27,-362.267 1496.16,-369.179"/>
</g>
<!-- Node8 -->
<g id="node8" class="node"><title>Node8</title>
<g id="a_node8"><a xlink:href="oled__control_8c.html#a16eb842aa672ca44820ae6d5f9933425" target="_top" xlink:title=" ">
<polygon fill="none" stroke="black" points="1507.5,-279.969 1507.5,-297.969 1578.5,-297.969 1578.5,-279.969 1507.5,-279.969"/>
<text text-anchor="middle" x="1543" y="-286.769" font-family="Calibri" font-size="9.00">Soft_I2C_Stop</text>
</a>
</g>
</g>
<!-- Node6&#45;&gt;Node8 -->
<g id="edge7" class="edge"><title>Node6&#45;&gt;Node8</title>
<path fill="none" stroke="midnightblue" d="M1445.14,-345.792C1463.95,-334.758 1495.72,-316.117 1517.73,-303.21"/>
<polygon fill="midnightblue" stroke="midnightblue" points="1519.64,-306.147 1526.49,-298.068 1516.09,-300.109 1519.64,-306.147"/>
</g>
<!-- Node9 -->
<g id="node9" class="node"><title>Node9</title>
<g id="a_node9"><a xlink:href="oled__control_8c.html#a73610916645f17c19124e697b005f694" target="_top" xlink:title=" ">
<polygon fill="none" stroke="black" points="1505,-326.969 1505,-344.969 1581,-344.969 1581,-326.969 1505,-326.969"/>
<text text-anchor="middle" x="1543" y="-333.769" font-family="Calibri" font-size="9.00">Soft_I2C_Write</text>
</a>
</g>
</g>
<!-- Node6&#45;&gt;Node9 -->
<g id="edge8" class="edge"><title>Node6&#45;&gt;Node9</title>
<path fill="none" stroke="midnightblue" d="M1456.16,-350.466C1467.76,-348.507 1481.7,-346.152 1494.95,-343.915"/>
<polygon fill="midnightblue" stroke="midnightblue" points="1495.61,-347.352 1504.89,-342.236 1494.45,-340.45 1495.61,-347.352"/>
</g>
<!-- Node10&#45;&gt;Node7 -->
<g id="edge13" class="edge"><title>Node10&#45;&gt;Node7</title>
<path fill="none" stroke="midnightblue" d="M1339.67,-478.089C1369.34,-490.78 1427.31,-509.779 1469,-486.969 1506.15,-466.645 1527.17,-418.459 1536.36,-391.698"/>
<polygon fill="midnightblue" stroke="midnightblue" points="1539.75,-392.578 1539.5,-381.986 1533.09,-390.426 1539.75,-392.578"/>
</g>
<!-- Node10&#45;&gt;Node8 -->
<g id="edge14" class="edge"><title>Node10&#45;&gt;Node8</title>
<path fill="none" stroke="midnightblue" d="M1328.44,-459.908C1340.31,-446.8 1363.89,-422.429 1388,-406.969 1420.87,-385.894 1439.1,-398.074 1469,-372.969 1491.66,-353.943 1484.89,-338.675 1505,-316.969 1509.28,-312.35 1514.39,-307.941 1519.43,-304.045"/>
<polygon fill="midnightblue" stroke="midnightblue" points="1521.67,-306.746 1527.69,-298.026 1517.55,-301.09 1521.67,-306.746"/>
</g>
<!-- Node10&#45;&gt;Node9 -->
<g id="edge15" class="edge"><title>Node10&#45;&gt;Node9</title>
<path fill="none" stroke="midnightblue" d="M1347.15,-459.917C1384.38,-446.929 1449.58,-422.829 1469,-406.969 1491.06,-388.957 1483.47,-372.604 1505,-353.969 1506.5,-352.671 1508.11,-351.444 1509.78,-350.286"/>
<polygon fill="midnightblue" stroke="midnightblue" points="1511.74,-353.197 1518.55,-345.08 1508.16,-347.178 1511.74,-353.197"/>
</g>
<!-- Node11 -->
<g id="node11" class="node"><title>Node11</title>
<g id="a_node11"><a xlink:href="oled__control_8c.html#a3cf32ac4d3d7c92be54c385c1ed8cc76" target="_top" xlink:title=" ">
<polygon fill="none" stroke="black" points="1388.5,-459.969 1388.5,-477.969 1468.5,-477.969 1468.5,-459.969 1388.5,-459.969"/>
<text text-anchor="middle" x="1428.5" y="-466.769" font-family="Calibri" font-size="9.00">set_addressing</text>
</a>
</g>
</g>
<!-- Node10&#45;&gt;Node11 -->
<g id="edge10" class="edge"><title>Node10&#45;&gt;Node11</title>
<path fill="none" stroke="midnightblue" d="M1352.02,-468.969C1360.18,-468.969 1369.15,-468.969 1377.98,-468.969"/>
<polygon fill="midnightblue" stroke="midnightblue" points="1378.23,-472.469 1388.23,-468.969 1378.23,-465.469 1378.23,-472.469"/>
</g>
<!-- Node11&#45;&gt;Node7 -->
<g id="edge11" class="edge"><title>Node11&#45;&gt;Node7</title>
<path fill="none" stroke="midnightblue" d="M1446.6,-459.75C1453.77,-455.59 1462.04,-450.396 1469,-444.969 1490.79,-427.976 1513,-405.113 1527.11,-389.75"/>
<polygon fill="midnightblue" stroke="midnightblue" points="1529.94,-391.835 1534.05,-382.072 1524.75,-387.138 1529.94,-391.835"/>
</g>
<!-- Node11&#45;&gt;Node9 -->
<g id="edge12" class="edge"><title>Node11&#45;&gt;Node9</title>
<path fill="none" stroke="midnightblue" d="M1449.86,-459.926C1456.67,-456.106 1463.83,-451.102 1469,-444.969 1497.05,-411.724 1475.44,-385.871 1505,-353.969 1506.03,-352.855 1507.15,-351.803 1508.33,-350.808"/>
<polygon fill="midnightblue" stroke="midnightblue" points="1510.48,-353.579 1516.79,-345.069 1506.55,-347.786 1510.48,-353.579"/>
</g>
<!-- Node12&#45;&gt;Node5 -->
<g id="edge30" class="edge"><title>Node12&#45;&gt;Node5</title>
<path fill="none" stroke="midnightblue" d="M928.742,-687.948C940.639,-678.6 960.819,-664.584 981,-658.969 1056.42,-637.983 1102.19,-637.407 1153,-696.969 1192.78,-743.598 1212.19,-938.275 1217.48,-1000.65"/>
<polygon fill="midnightblue" stroke="midnightblue" points="1213.99,-1001.01 1218.3,-1010.69 1220.97,-1000.44 1213.99,-1001.01"/>
</g>
<!-- Node13 -->
<g id="node13" class="node"><title>Node13</title>
<g id="a_node13"><a xlink:href="src_2main_8c.html#a593218c5fe00b499d494826fc0aa5279" target="_top" xlink:title=" ">
<polygon fill="none" stroke="black" points="981,-668.969 981,-686.969 1052,-686.969 1052,-668.969 981,-668.969"/>
<text text-anchor="middle" x="1016.5" y="-675.769" font-family="Calibri" font-size="9.00">button_delay</text>
</a>
</g>
</g>
<!-- Node12&#45;&gt;Node13 -->
<g id="edge17" class="edge"><title>Node12&#45;&gt;Node13</title>
<path fill="none" stroke="midnightblue" d="M941.106,-692.466C949.975,-690.737 960.428,-688.701 970.65,-686.709"/>
<polygon fill="midnightblue" stroke="midnightblue" points="971.582,-690.093 980.728,-684.745 970.243,-683.222 971.582,-690.093"/>
</g>
<!-- Node12&#45;&gt;Node14 -->
<g id="edge18" class="edge"><title>Node12&#45;&gt;Node14</title>
<path fill="none" stroke="midnightblue" d="M919.728,-687.889C929.352,-637.386 976.092,-393.13 981,-386.969 1030.93,-324.286 1125.25,-296.688 1178.94,-285.601"/>
<polygon fill="midnightblue" stroke="midnightblue" points="1179.66,-289.026 1188.79,-283.657 1178.31,-282.159 1179.66,-289.026"/>
</g>
<!-- Node16 -->
<g id="node16" class="node"><title>Node16</title>
<g id="a_node16"><a xlink:href="main_8h.html#ab37ca657b79c6b9176cb63e9d812a182" target="_top" xlink:title=" ">
<polygon fill="none" stroke="black" points="992,-396.969 992,-414.969 1041,-414.969 1041,-396.969 992,-396.969"/>
<text text-anchor="middle" x="1016.5" y="-403.769" font-family="Calibri" font-size="9.00">get_pwr</text>
</a>
</g>
</g>
<!-- Node12&#45;&gt;Node16 -->
<g id="edge24" class="edge"><title>Node12&#45;&gt;Node16</title>
<path fill="none" stroke="midnightblue" d="M921.025,-687.94C934.615,-647.379 990.187,-481.517 1009.14,-424.964"/>
<polygon fill="midnightblue" stroke="midnightblue" points="1012.56,-425.774 1012.41,-415.18 1005.92,-423.55 1012.56,-425.774"/>
</g>
<!-- Node20 -->
<g id="node20" class="node"><title>Node20</title>
<g id="a_node20"><a xlink:href="src_2main_8c.html#aa8fd50019a763561abc6621bb224417f" target="_top" xlink:title=" ">
<polygon fill="none" stroke="black" points="1097,-706.969 1097,-724.969 1144,-724.969 1144,-706.969 1097,-706.969"/>
<text text-anchor="middle" x="1120.5" y="-713.769" font-family="Calibri" font-size="9.00">lcd_swr</text>
</a>
</g>
</g>
<!-- Node12&#45;&gt;Node20 -->
<g id="edge28" class="edge"><title>Node12&#45;&gt;Node20</title>
<path fill="none" stroke="midnightblue" d="M941.115,-699.148C976.966,-702.529 1046.1,-709.047 1086.97,-712.901"/>
<polygon fill="midnightblue" stroke="midnightblue" points="1086.68,-716.389 1096.96,-713.843 1087.34,-709.42 1086.68,-716.389"/>
</g>
<!-- Node12&#45;&gt;Node21 -->
<g id="edge31" class="edge"><title>Node12&#45;&gt;Node21</title>
<path fill="none" stroke="midnightblue" d="M929.777,-687.875C934.805,-683.659 940.532,-678.388 945,-672.969 971.733,-640.545 994.862,-596.842 1006.82,-572.432"/>
<polygon fill="midnightblue" stroke="midnightblue" points="1010.06,-573.77 1011.24,-563.241 1003.75,-570.736 1010.06,-573.77"/>
</g>
<!-- Node12&#45;&gt;Node23 -->
<g id="edge33" class="edge"><title>Node12&#45;&gt;Node23</title>
<path fill="none" stroke="midnightblue" d="M919.993,-687.966C924.803,-666.009 937.226,-607.912 945,-558.969 955.326,-493.962 947.022,-321.342 981,-264.969 982.961,-261.715 985.551,-258.792 988.434,-256.2"/>
<polygon fill="midnightblue" stroke="midnightblue" points="990.634,-258.925 996.515,-250.112 986.422,-253.334 990.634,-258.925"/>
</g>
<!-- Node12&#45;&gt;Node24 -->
<g id="edge35" class="edge"><title>Node12&#45;&gt;Node24</title>
<path fill="none" stroke="midnightblue" d="M922.703,-706.133C937.89,-735.728 985.817,-829.125 1006.19,-868.827"/>
<polygon fill="midnightblue" stroke="midnightblue" points="1003.17,-870.597 1010.84,-877.896 1009.39,-867.401 1003.17,-870.597"/>
</g>
<!-- Node25 -->
<g id="node25" class="node"><title>Node25</title>
<g id="a_node25"><a xlink:href="src_2main_8c.html#a4ae0d4fa97fc0ca3611813fee4f9af7c" target="_top" xlink:title=" ">
<polygon fill="none" stroke="black" points="987.5,-1029.97 987.5,-1047.97 1045.5,-1047.97 1045.5,-1029.97 987.5,-1029.97"/>
<text text-anchor="middle" x="1016.5" y="-1036.77" font-family="Calibri" font-size="9.00">show_pwr</text>
</a>
</g>
</g>
<!-- Node12&#45;&gt;Node25 -->
<g id="edge37" class="edge"><title>Node12&#45;&gt;Node25</title>
<path fill="none" stroke="midnightblue" d="M920.608,-706.116C933.664,-751.912 992.012,-956.578 1010.12,-1020.1"/>
<polygon fill="midnightblue" stroke="midnightblue" points="1006.82,-1021.29 1012.93,-1029.95 1013.55,-1019.38 1006.82,-1021.29"/>
</g>
<!-- Node14&#45;&gt;Node6 -->
<g id="edge19" class="edge"><title>Node14&#45;&gt;Node6</title>
<path fill="none" stroke="midnightblue" d="M1229.43,-287.974C1241.14,-299.873 1263.54,-320.541 1287,-330.969 1320.13,-345.694 1361.36,-351.425 1390.56,-353.634"/>
<polygon fill="midnightblue" stroke="midnightblue" points="1390.53,-357.14 1400.74,-354.299 1390.99,-350.154 1390.53,-357.14"/>
</g>
<!-- Node15 -->
<g id="node15" class="node"><title>Node15</title>
<g id="a_node15"><a xlink:href="oled__control_8c.html#a78a346ba6e89c3140dd554a46e56c719" target="_top" xlink:title=" ">
<polygon fill="none" stroke="black" points="1388,-269.969 1388,-287.969 1469,-287.969 1469,-269.969 1388,-269.969"/>
<text text-anchor="middle" x="1428.5" y="-276.769" font-family="Calibri" font-size="9.00">send_command</text>
</a>
</g>
</g>
<!-- Node14&#45;&gt;Node15 -->
<g id="edge20" class="edge"><title>Node14&#45;&gt;Node15</title>
<path fill="none" stroke="midnightblue" d="M1251.03,-278.969C1284.19,-278.969 1338.13,-278.969 1377.66,-278.969"/>
<polygon fill="midnightblue" stroke="midnightblue" points="1377.88,-282.469 1387.88,-278.969 1377.88,-275.469 1377.88,-282.469"/>
</g>
<!-- Node15&#45;&gt;Node7 -->
<g id="edge21" class="edge"><title>Node15&#45;&gt;Node7</title>
<path fill="none" stroke="midnightblue" d="M1447.89,-288.053C1454.94,-292.052 1462.78,-297.164 1469,-302.969 1489.28,-321.902 1484.05,-335.773 1505,-353.969 1506.96,-355.667 1509.09,-357.263 1511.31,-358.752"/>
<polygon fill="midnightblue" stroke="midnightblue" points="1509.76,-361.897 1520.15,-363.95 1513.31,-355.863 1509.76,-361.897"/>
</g>
<!-- Node15&#45;&gt;Node8 -->
<g id="edge22" class="edge"><title>Node15&#45;&gt;Node8</title>
<path fill="none" stroke="midnightblue" d="M1469.16,-282.494C1478.17,-283.295 1487.8,-284.151 1497.02,-284.97"/>
<polygon fill="midnightblue" stroke="midnightblue" points="1496.91,-288.474 1507.18,-285.874 1497.53,-281.502 1496.91,-288.474"/>
</g>
<!-- Node15&#45;&gt;Node9 -->
<g id="edge23" class="edge"><title>Node15&#45;&gt;Node9</title>
<path fill="none" stroke="midnightblue" d="M1447.33,-288C1465.49,-297.201 1493.88,-311.588 1514.84,-322.208"/>
<polygon fill="midnightblue" stroke="midnightblue" points="1513.38,-325.393 1523.88,-326.79 1516.55,-319.148 1513.38,-325.393"/>
</g>
<!-- Node17 -->
<g id="node17" class="node"><title>Node17</title>
<g id="a_node17"><a xlink:href="main_8h.html#ab19e6e081315a9a200394b74d10de395" target="_top" xlink:title=" ">
<polygon fill="none" stroke="black" points="1092,-433.969 1092,-451.969 1149,-451.969 1149,-433.969 1092,-433.969"/>
<text text-anchor="middle" x="1120.5" y="-440.769" font-family="Calibri" font-size="9.00">correction</text>
</a>
</g>
</g>
<!-- Node16&#45;&gt;Node17 -->
<g id="edge25" class="edge"><title>Node16&#45;&gt;Node17</title>
<path fill="none" stroke="midnightblue" d="M1041.16,-414.55C1054.16,-419.268 1070.54,-425.208 1084.95,-430.436"/>
<polygon fill="midnightblue" stroke="midnightblue" points="1083.95,-433.797 1094.55,-433.917 1086.34,-427.217 1083.95,-433.797"/>
</g>
<!-- Node18 -->
<g id="node18" class="node"><title>Node18</title>
<g id="a_node18"><a xlink:href="main_8h.html#acfd46f8711e9c1c20fffdfc8bdaa0ddd" target="_top" xlink:title=" ">
<polygon fill="none" stroke="black" points="1088,-396.969 1088,-414.969 1153,-414.969 1153,-396.969 1088,-396.969"/>
<text text-anchor="middle" x="1120.5" y="-403.769" font-family="Calibri" font-size="9.00">get_forward</text>
</a>
</g>
</g>
<!-- Node16&#45;&gt;Node18 -->
<g id="edge26" class="edge"><title>Node16&#45;&gt;Node18</title>
<path fill="none" stroke="midnightblue" d="M1041.16,-405.969C1052.01,-405.969 1065.2,-405.969 1077.65,-405.969"/>
<polygon fill="midnightblue" stroke="midnightblue" points="1077.86,-409.469 1087.86,-405.969 1077.86,-402.469 1077.86,-409.469"/>
</g>
<!-- Node19 -->
<g id="node19" class="node"><title>Node19</title>
<g id="a_node19"><a xlink:href="main_8h.html#aa6b9a2b3d88f578ba6a9fefd911eae75" target="_top" xlink:title=" ">
<polygon fill="none" stroke="black" points="1088.5,-359.969 1088.5,-377.969 1152.5,-377.969 1152.5,-359.969 1088.5,-359.969"/>
<text text-anchor="middle" x="1120.5" y="-366.769" font-family="Calibri" font-size="9.00">get_reverse</text>
</a>
</g>
</g>
<!-- Node16&#45;&gt;Node19 -->
<g id="edge27" class="edge"><title>Node16&#45;&gt;Node19</title>
<path fill="none" stroke="midnightblue" d="M1041.16,-397.387C1054.16,-392.669 1070.54,-386.729 1084.95,-381.501"/>
<polygon fill="midnightblue" stroke="midnightblue" points="1086.34,-384.72 1094.55,-378.02 1083.95,-378.14 1086.34,-384.72"/>
</g>
<!-- Node20&#45;&gt;Node5 -->
<g id="edge29" class="edge"><title>Node20&#45;&gt;Node5</title>
<path fill="none" stroke="midnightblue" d="M1137.84,-725.188C1143.41,-729.081 1149.18,-734.086 1153,-739.969 1208.51,-825.505 1217.46,-952.699 1218.8,-1000.7"/>
<polygon fill="midnightblue" stroke="midnightblue" points="1215.31,-1000.96 1219.01,-1010.89 1222.31,-1000.82 1215.31,-1000.96"/>
</g>
<!-- Node22 -->
<g id="node22" class="node"><title>Node22</title>
<g id="a_node22"><a xlink:href="main_8h.html#a85fb3ccca120f3b843a1dc7567908a04" target="_top" xlink:title=" ">
<polygon fill="none" stroke="black" points="1092.5,-497.969 1092.5,-515.969 1148.5,-515.969 1148.5,-497.969 1092.5,-497.969"/>
<text text-anchor="middle" x="1120.5" y="-504.769" font-family="Calibri" font-size="9.00">delay_ms</text>
</a>
</g>
</g>
<!-- Node21&#45;&gt;Node22 -->
<g id="edge32" class="edge"><title>Node21&#45;&gt;Node22</title>
<path fill="none" stroke="midnightblue" d="M1037.17,-544.906C1052.27,-537.949 1073.35,-528.236 1090.4,-520.379"/>
<polygon fill="midnightblue" stroke="midnightblue" points="1092.28,-523.367 1099.89,-516.003 1089.35,-517.009 1092.28,-523.367"/>
</g>
<!-- Node23&#45;&gt;Node22 -->
<g id="edge34" class="edge"><title>Node23&#45;&gt;Node22</title>
<path fill="none" stroke="midnightblue" d="M1019.43,-250.13C1026.13,-280.987 1050.08,-383.521 1088,-460.969 1092.94,-471.055 1099.87,-481.448 1105.98,-489.798"/>
<polygon fill="midnightblue" stroke="midnightblue" points="1103.32,-492.083 1112.14,-497.945 1108.9,-487.859 1103.32,-492.083"/>
</g>
<!-- Node24&#45;&gt;Node22 -->
<g id="edge36" class="edge"><title>Node24&#45;&gt;Node22</title>
<path fill="none" stroke="midnightblue" d="M1019.92,-877.95C1033.07,-828.976 1095.96,-594.659 1114.41,-525.947"/>
<polygon fill="midnightblue" stroke="midnightblue" points="1117.84,-526.637 1117.06,-516.071 1111.08,-524.822 1117.84,-526.637"/>
</g>
<!-- Node25&#45;&gt;Node4 -->
<g id="edge38" class="edge"><title>Node25&#45;&gt;Node4</title>
<path fill="none" stroke="midnightblue" d="M1032.73,-1048.05C1039.04,-1052.18 1046.22,-1057.4 1052,-1062.97 1075.09,-1085.24 1096.33,-1115.98 1108.6,-1135.16"/>
<polygon fill="midnightblue" stroke="midnightblue" points="1105.73,-1137.18 1114.01,-1143.79 1111.66,-1133.46 1105.73,-1137.18"/>
</g>
<!-- Node25&#45;&gt;Node5 -->
<g id="edge39" class="edge"><title>Node25&#45;&gt;Node5</title>
<path fill="none" stroke="midnightblue" d="M1045.52,-1036.33C1080.56,-1033.02 1140.74,-1027.35 1180.19,-1023.63"/>
<polygon fill="midnightblue" stroke="midnightblue" points="1180.62,-1027.1 1190.24,-1022.68 1179.96,-1020.13 1180.62,-1027.1"/>
</g>
<!-- Node26&#45;&gt;Node4 -->
<g id="edge55" class="edge"><title>Node26&#45;&gt;Node4</title>
<path fill="none" stroke="midnightblue" d="M339.453,-592.202C346.989,-662.846 399.705,-1114.97 514.5,-1114.97 514.5,-1114.97 514.5,-1114.97 617,-1114.97 794.506,-1114.97 1006.28,-1138.84 1086.51,-1148.74"/>
<polygon fill="midnightblue" stroke="midnightblue" points="1086.15,-1152.22 1096.51,-1149.99 1087.02,-1145.28 1086.15,-1152.22"/>
</g>
<!-- Node27 -->
<g id="node27" class="node"><title>Node27</title>
<g id="a_node27"><a xlink:href="main_8h.html#a9dff326a6079fe726285b11ee837ad60" target="_top" xlink:title=" ">
<polygon fill="none" stroke="black" points="889,-383.969 889,-401.969 945,-401.969 945,-383.969 889,-383.969"/>
<text text-anchor="middle" x="917" y="-390.769" font-family="Calibri" font-size="9.00">atu_reset</text>
</a>
</g>
</g>
<!-- Node26&#45;&gt;Node27 -->
<g id="edge42" class="edge"><title>Node26&#45;&gt;Node27</title>
<path fill="none" stroke="midnightblue" d="M339.911,-573.741C346.645,-530.114 375.811,-345.785 391,-324.969 418.328,-287.516 438.034,-288.683 482,-273.969 641.123,-220.714 707.726,-259.995 853,-343.969 869.375,-353.434 886.199,-366.736 898.337,-377.093"/>
<polygon fill="midnightblue" stroke="midnightblue" points="896.091,-379.778 905.929,-383.709 900.69,-374.5 896.091,-379.778"/>
</g>
<!-- Node28 -->
<g id="node28" class="node"><title>Node28</title>
<g id="a_node28"><a xlink:href="main_8h.html#ad7eb7423e0b17ccfba1ae42f3a3274e0" target="_top" xlink:title=" ">
<polygon fill="none" stroke="black" points="683,-535.969 683,-553.969 731,-553.969 731,-535.969 683,-535.969"/>
<text text-anchor="middle" x="707" y="-542.769" font-family="Calibri" font-size="9.00">get_swr</text>
</a>
</g>
</g>
<!-- Node26&#45;&gt;Node28 -->
<g id="edge46" class="edge"><title>Node26&#45;&gt;Node28</title>
<path fill="none" stroke="midnightblue" d="M355.326,-588.453C365.53,-591.527 378.879,-595.109 391,-596.969 503.739,-614.269 540.735,-620.406 647,-578.969 659.949,-573.919 673.447,-566.337 684.26,-559.614"/>
<polygon fill="midnightblue" stroke="midnightblue" points="686.464,-562.358 692.989,-554.011 682.683,-556.467 686.464,-562.358"/>
</g>
<!-- Node30 -->
<g id="node30" class="node"><title>Node30</title>
<g id="a_node30"><a xlink:href="main_8h.html#ab518a3d2c723f12d3af3024a195606ce" target="_top" xlink:title=" ">
<polygon fill="none" stroke="black" points="486,-573.969 486,-591.969 545,-591.969 545,-573.969 486,-573.969"/>
<text text-anchor="middle" x="515.5" y="-580.769" font-family="Calibri" font-size="9.00">sharp_cap</text>
</a>
</g>
</g>
<!-- Node26&#45;&gt;Node30 -->
<g id="edge56" class="edge"><title>Node26&#45;&gt;Node30</title>
<path fill="none" stroke="midnightblue" d="M355.058,-582.969C382.434,-582.969 437.85,-582.969 475.576,-582.969"/>
<polygon fill="midnightblue" stroke="midnightblue" points="475.71,-586.469 485.71,-582.969 475.71,-579.469 475.71,-586.469"/>
</g>
<!-- Node31 -->
<g id="node31" class="node"><title>Node31</title>
<g id="a_node31"><a xlink:href="main_8h.html#a72210b3ed1d5691c5bbda8c7f1e97197" target="_top" xlink:title=" ">
<polygon fill="none" stroke="black" points="587,-269.969 587,-287.969 645,-287.969 645,-269.969 587,-269.969"/>
<text text-anchor="middle" x="616" y="-276.769" font-family="Calibri" font-size="9.00">sharp_ind</text>
</a>
</g>
</g>
<!-- Node26&#45;&gt;Node31 -->
<g id="edge59" class="edge"><title>Node26&#45;&gt;Node31</title>
<path fill="none" stroke="midnightblue" d="M339.726,-573.794C345.788,-532.554 376.623,-363.496 482,-297.969 510.277,-280.385 548.378,-276.504 576.551,-276.511"/>
<polygon fill="midnightblue" stroke="midnightblue" points="576.764,-280.015 586.822,-276.684 576.882,-273.016 576.764,-280.015"/>
</g>
<!-- Node32 -->
<g id="node32" class="node"><title>Node32</title>
<g id="a_node32"><a xlink:href="main_8h.html#a454a7687c8039514766571b23516ca9c" target="_top" xlink:title=" ">
<polygon fill="none" stroke="black" points="391,-440.969 391,-458.969 446,-458.969 446,-440.969 391,-440.969"/>
<text text-anchor="middle" x="418.5" y="-447.769" font-family="Calibri" font-size="9.00">sub_tune</text>
</a>
</g>
</g>
<!-- Node26&#45;&gt;Node32 -->
<g id="edge62" class="edge"><title>Node26&#45;&gt;Node32</title>
<path fill="none" stroke="midnightblue" d="M343.93,-573.827C356.896,-551.998 389.851,-496.517 406.908,-467.8"/>
<polygon fill="midnightblue" stroke="midnightblue" points="409.934,-469.559 412.032,-459.174 403.916,-465.984 409.934,-469.559"/>
</g>
<!-- Node27&#45;&gt;Node21 -->
<g id="edge44" class="edge"><title>Node27&#45;&gt;Node21</title>
<path fill="none" stroke="midnightblue" d="M930.203,-402.164C935.192,-406.32 940.772,-411.517 945,-416.969 974.525,-455.034 997.399,-507.343 1008.37,-535.017"/>
<polygon fill="midnightblue" stroke="midnightblue" points="1005.22,-536.582 1012.09,-544.644 1011.75,-534.055 1005.22,-536.582"/>
</g>
<!-- Node27&#45;&gt;Node22 -->
<g id="edge43" class="edge"><title>Node27&#45;&gt;Node22</title>
<path fill="none" stroke="midnightblue" d="M934.149,-402.105C969.312,-421.999 1053,-469.344 1094.82,-493.007"/>
<polygon fill="midnightblue" stroke="midnightblue" points="1093.13,-496.069 1103.55,-497.947 1096.57,-489.976 1093.13,-496.069"/>
</g>
<!-- Node27&#45;&gt;Node23 -->
<g id="edge45" class="edge"><title>Node27&#45;&gt;Node23</title>
<path fill="none" stroke="midnightblue" d="M922.185,-383.807C934.853,-356.171 972.441,-274.922 981,-264.969 983.836,-261.67 987.223,-258.606 990.75,-255.846"/>
<polygon fill="midnightblue" stroke="midnightblue" points="992.89,-258.619 999.04,-249.992 988.853,-252.901 992.89,-258.619"/>
</g>
<!-- Node28&#45;&gt;Node16 -->
<g id="edge47" class="edge"><title>Node28&#45;&gt;Node16</title>
<path fill="none" stroke="midnightblue" d="M713.795,-535.858C733.67,-505.582 802.635,-408.314 889,-373.969 923.905,-360.088 966.664,-377.614 992.46,-391.685"/>
<polygon fill="midnightblue" stroke="midnightblue" points="991.045,-394.908 1001.46,-396.836 994.521,-388.832 991.045,-394.908"/>
</g>
<!-- Node28&#45;&gt;Node25 -->
<g id="edge48" class="edge"><title>Node28&#45;&gt;Node25</title>
<path fill="none" stroke="midnightblue" d="M708.456,-554.125C711.682,-617.17 731.958,-985.42 767,-1018.97 823.098,-1072.68 922.641,-1060.92 977.166,-1049.08"/>
<polygon fill="midnightblue" stroke="midnightblue" points="978.152,-1052.45 987.123,-1046.81 976.595,-1045.62 978.152,-1052.45"/>
</g>
<!-- Node28&#45;&gt;Node29 -->
<g id="edge49" class="edge"><title>Node28&#45;&gt;Node29</title>
<path fill="none" stroke="midnightblue" d="M711.477,-554.125C726.015,-592.414 782.103,-740.13 801.972,-792.46"/>
<polygon fill="midnightblue" stroke="midnightblue" points="798.716,-793.744 805.538,-801.851 805.26,-791.26 798.716,-793.744"/>
</g>
<!-- Node29&#45;&gt;Node4 -->
<g id="edge51" class="edge"><title>Node29&#45;&gt;Node4</title>
<path fill="none" stroke="midnightblue" d="M815.207,-820.275C831.589,-855.608 894.511,-983.175 981,-1056.97 1007.62,-1079.68 1023.02,-1071.36 1052,-1090.97 1071.43,-1104.11 1090.86,-1122.67 1103.85,-1136.06"/>
<polygon fill="midnightblue" stroke="midnightblue" points="1101.63,-1138.79 1111.05,-1143.63 1106.7,-1133.97 1101.63,-1138.79"/>
</g>
<!-- Node29&#45;&gt;Node5 -->
<g id="edge53" class="edge"><title>Node29&#45;&gt;Node5</title>
<path fill="none" stroke="midnightblue" d="M842.109,-808.54C869.598,-807.236 910.557,-807.363 945,-815.969 1063.42,-845.556 1168.54,-959.432 1205.19,-1002.94"/>
<polygon fill="midnightblue" stroke="midnightblue" points="1202.7,-1005.41 1211.78,-1010.88 1208.09,-1000.95 1202.7,-1005.41"/>
</g>
<!-- Node29&#45;&gt;Node12 -->
<g id="edge52" class="edge"><title>Node29&#45;&gt;Node12</title>
<path fill="none" stroke="midnightblue" d="M832.231,-801.774C839.426,-797.939 847.121,-792.965 853,-786.969 876.392,-763.109 868.205,-747.122 889,-720.969 891.186,-718.219 893.707,-715.525 896.313,-712.992"/>
<polygon fill="midnightblue" stroke="midnightblue" points="899.019,-715.267 904.132,-705.988 894.348,-710.053 899.019,-715.267"/>
</g>
<!-- Node29&#45;&gt;Node24 -->
<g id="edge54" class="edge"><title>Node29&#45;&gt;Node24</title>
<path fill="none" stroke="midnightblue" d="M842.217,-812.533C870.138,-814.857 911.676,-820.629 945,-834.969 965.13,-843.631 984.935,-859.016 998.403,-870.812"/>
<polygon fill="midnightblue" stroke="midnightblue" points="996.15,-873.493 1005.92,-877.6 1000.84,-868.299 996.15,-873.493"/>
</g>
<!-- Node29&#45;&gt;Node27 -->
<g id="edge50" class="edge"><title>Node29&#45;&gt;Node27</title>
<path fill="none" stroke="midnightblue" d="M813.291,-801.849C826.47,-749.384 892.687,-485.776 911.19,-412.115"/>
<polygon fill="midnightblue" stroke="midnightblue" points="914.607,-412.878 913.649,-402.327 907.818,-411.173 914.607,-412.878"/>
</g>
<!-- Node30&#45;&gt;Node21 -->
<g id="edge58" class="edge"><title>Node30&#45;&gt;Node21</title>
<path fill="none" stroke="midnightblue" d="M545.024,-582.399C571.471,-581.798 611.909,-580.696 647,-578.969 770.762,-572.876 917.652,-561.736 982.234,-556.641"/>
<polygon fill="midnightblue" stroke="midnightblue" points="982.544,-560.127 992.236,-555.848 981.991,-553.149 982.544,-560.127"/>
</g>
<!-- Node30&#45;&gt;Node28 -->
<g id="edge57" class="edge"><title>Node30&#45;&gt;Node28</title>
<path fill="none" stroke="midnightblue" d="M545.095,-578.143C571.589,-573.569 612.059,-566.322 647,-558.969 655.423,-557.196 664.483,-555.128 672.915,-553.133"/>
<polygon fill="midnightblue" stroke="midnightblue" points="673.895,-556.498 682.803,-550.762 672.263,-549.691 673.895,-556.498"/>
</g>
<!-- Node31&#45;&gt;Node23 -->
<g id="edge61" class="edge"><title>Node31&#45;&gt;Node23</title>
<path fill="none" stroke="midnightblue" d="M645.022,-276.296C716.595,-269.471 905.882,-251.421 982.554,-244.11"/>
<polygon fill="midnightblue" stroke="midnightblue" points="982.979,-247.586 992.602,-243.152 982.315,-240.617 982.979,-247.586"/>
</g>
<!-- Node31&#45;&gt;Node28 -->
<g id="edge60" class="edge"><title>Node31&#45;&gt;Node28</title>
<path fill="none" stroke="midnightblue" d="M620.064,-288.125C632.848,-326.334 682.092,-473.513 699.697,-526.131"/>
<polygon fill="midnightblue" stroke="midnightblue" points="696.457,-527.478 702.949,-535.851 703.095,-525.257 696.457,-527.478"/>
</g>
<!-- Node32&#45;&gt;Node21 -->
<g id="edge72" class="edge"><title>Node32&#45;&gt;Node21</title>
<path fill="none" stroke="midnightblue" d="M443.457,-440.872C454.935,-436.985 468.987,-432.903 482,-430.969 511.454,-426.59 519.267,-429.34 549,-430.969 684.8,-438.408 721.304,-432.01 853,-465.969 895.676,-476.973 906.415,-481.673 945,-502.969 963.444,-513.148 982.714,-527.371 996.437,-538.211"/>
<polygon fill="midnightblue" stroke="midnightblue" points="994.604,-541.229 1004.59,-544.77 998.991,-535.775 994.604,-541.229"/>
</g>
<!-- Node32&#45;&gt;Node23 -->
<g id="edge73" class="edge"><title>Node32&#45;&gt;Node23</title>
<path fill="none" stroke="midnightblue" d="M420.705,-440.665C424.578,-414.476 439.067,-339.355 482,-297.969 622.448,-162.578 890.149,-210.561 982.9,-232.499"/>
<polygon fill="midnightblue" stroke="midnightblue" points="982.284,-235.951 992.827,-234.908 983.934,-229.149 982.284,-235.951"/>
</g>
<!-- Node32&#45;&gt;Node24 -->
<g id="edge74" class="edge"><title>Node32&#45;&gt;Node24</title>
<path fill="none" stroke="midnightblue" d="M421.616,-459.286C427.633,-484.265 446.727,-554.011 482,-600.969 579.424,-730.666 621.079,-758.117 767,-828.969 839.619,-864.228 934.761,-878.678 983.57,-884.079"/>
<polygon fill="midnightblue" stroke="midnightblue" points="983.509,-887.592 993.819,-885.154 984.239,-880.63 983.509,-887.592"/>
</g>
<!-- Node32&#45;&gt;Node27 -->
<g id="edge63" class="edge"><title>Node32&#45;&gt;Node27</title>
<path fill="none" stroke="midnightblue" d="M425.314,-440.821C435.232,-425.897 456.811,-396.246 482,-378.969 522.238,-351.369 536.966,-349.547 585,-340.969 648.878,-329.561 666.719,-332.106 731,-340.969 785.076,-348.424 845.599,-367.591 882.238,-380.453"/>
<polygon fill="midnightblue" stroke="midnightblue" points="881.319,-383.841 891.914,-383.899 883.668,-377.247 881.319,-383.841"/>
</g>
<!-- Node32&#45;&gt;Node28 -->
<g id="edge71" class="edge"><title>Node32&#45;&gt;Node28</title>
<path fill="none" stroke="midnightblue" d="M439.54,-459.055C470.329,-472.763 531.34,-498.936 585,-515.969 614.366,-525.289 648.568,-533.226 673.103,-538.427"/>
<polygon fill="midnightblue" stroke="midnightblue" points="672.48,-541.873 682.983,-540.485 673.907,-535.02 672.48,-541.873"/>
</g>
<!-- Node32&#45;&gt;Node30 -->
<g id="edge75" class="edge"><title>Node32&#45;&gt;Node30</title>
<path fill="none" stroke="midnightblue" d="M423.247,-459.252C431.595,-479.15 453.272,-526.717 482,-558.969 484.755,-562.062 487.969,-565.006 491.284,-567.704"/>
<polygon fill="midnightblue" stroke="midnightblue" points="489.416,-570.677 499.524,-573.851 493.601,-565.066 489.416,-570.677"/>
</g>
<!-- Node32&#45;&gt;Node31 -->
<g id="edge76" class="edge"><title>Node32&#45;&gt;Node31</title>
<path fill="none" stroke="midnightblue" d="M422.552,-440.841C429.799,-420.412 449.877,-370.489 482,-340.969 509.267,-315.911 548.45,-299.32 577.226,-289.659"/>
<polygon fill="midnightblue" stroke="midnightblue" points="578.49,-292.929 586.933,-286.529 576.342,-286.267 578.49,-292.929"/>
</g>
<!-- Node33 -->
<g id="node33" class="node"><title>Node33</title>
<g id="a_node33"><a xlink:href="main_8h.html#a5c7c60c7d70cf76cc52e87722bb0f614" target="_top" xlink:title=" ">
<polygon fill="none" stroke="black" points="482,-440.969 482,-458.969 549,-458.969 549,-440.969 482,-440.969"/>
<text text-anchor="middle" x="515.5" y="-447.769" font-family="Calibri" font-size="9.00">coarse_tune</text>
</a>
</g>
</g>
<!-- Node32&#45;&gt;Node33 -->
<g id="edge64" class="edge"><title>Node32&#45;&gt;Node33</title>
<path fill="none" stroke="midnightblue" d="M446.216,-449.969C454.184,-449.969 463.123,-449.969 471.843,-449.969"/>
<polygon fill="midnightblue" stroke="midnightblue" points="471.907,-453.469 481.907,-449.969 471.907,-446.469 471.907,-453.469"/>
</g>
<!-- Node33&#45;&gt;Node21 -->
<g id="edge69" class="edge"><title>Node33&#45;&gt;Node21</title>
<path fill="none" stroke="midnightblue" d="M549.064,-447.912C575.536,-446.733 613.801,-446.152 647,-449.969 782.681,-465.567 816.146,-479.699 945,-524.969 958.498,-529.711 973.168,-535.619 985.612,-540.863"/>
<polygon fill="midnightblue" stroke="midnightblue" points="984.479,-544.185 995.051,-544.891 987.227,-537.747 984.479,-544.185"/>
</g>
<!-- Node33&#45;&gt;Node23 -->
<g id="edge70" class="edge"><title>Node33&#45;&gt;Node23</title>
<path fill="none" stroke="midnightblue" d="M538.262,-440.854C617.626,-407.613 891.7,-292.82 984.5,-253.952"/>
<polygon fill="midnightblue" stroke="midnightblue" points="986.033,-257.105 993.904,-250.014 983.329,-250.649 986.033,-257.105"/>
</g>
<!-- Node33&#45;&gt;Node28 -->
<g id="edge68" class="edge"><title>Node33&#45;&gt;Node28</title>
<path fill="none" stroke="midnightblue" d="M532.715,-459.013C546.522,-466.645 566.934,-477.766 585,-486.969 616.153,-502.837 652.365,-520.033 676.998,-531.547"/>
<polygon fill="midnightblue" stroke="midnightblue" points="675.613,-534.763 686.156,-535.815 678.571,-528.419 675.613,-534.763"/>
</g>
<!-- Node34 -->
<g id="node34" class="node"><title>Node34</title>
<g id="a_node34"><a xlink:href="main_8h.html#a740ef1b33bb02cd952ad7d8708999472" target="_top" xlink:title=" ">
<polygon fill="none" stroke="black" points="585,-459.969 585,-477.969 647,-477.969 647,-459.969 585,-459.969"/>
<text text-anchor="middle" x="616" y="-466.769" font-family="Calibri" font-size="9.00">coarse_cap</text>
</a>
</g>
</g>
<!-- Node33&#45;&gt;Node34 -->
<g id="edge65" class="edge"><title>Node33&#45;&gt;Node34</title>
<path fill="none" stroke="midnightblue" d="M549.026,-456.242C557.323,-457.843 566.338,-459.582 574.963,-461.246"/>
<polygon fill="midnightblue" stroke="midnightblue" points="574.359,-464.694 584.841,-463.151 575.685,-457.82 574.359,-464.694"/>
</g>
<!-- Node34&#45;&gt;Node21 -->
<g id="edge67" class="edge"><title>Node34&#45;&gt;Node21</title>
<path fill="none" stroke="midnightblue" d="M647.279,-475.427C720.485,-491.042 906.613,-530.743 982.517,-546.933"/>
<polygon fill="midnightblue" stroke="midnightblue" points="981.962,-550.394 992.472,-549.057 983.422,-543.548 981.962,-550.394"/>
</g>
<!-- Node34&#45;&gt;Node28 -->
<g id="edge66" class="edge"><title>Node34&#45;&gt;Node28</title>
<path fill="none" stroke="midnightblue" d="M628.787,-478.187C634.36,-482.598 641.075,-487.993 647,-492.969 660.966,-504.698 676.421,-518.345 688.009,-528.714"/>
<polygon fill="midnightblue" stroke="midnightblue" points="685.908,-531.532 695.686,-535.611 690.586,-526.325 685.908,-531.532"/>
</g>
<!-- Node35&#45;&gt;Node4 -->
<g id="edge86" class="edge"><title>Node35&#45;&gt;Node4</title>
<path fill="none" stroke="midnightblue" d="M827.226,-1010.02C857.258,-1026.67 923.675,-1063 981,-1090.97 1017.64,-1108.84 1060.59,-1127.76 1088.84,-1139.93"/>
<polygon fill="midnightblue" stroke="midnightblue" points="1087.61,-1143.22 1098.18,-1143.94 1090.37,-1136.78 1087.61,-1143.22"/>
</g>
<!-- Node35&#45;&gt;Node5 -->
<g id="edge88" class="edge"><title>Node35&#45;&gt;Node5</title>
<path fill="none" stroke="midnightblue" d="M853.126,-1002.93C932.561,-1006.63 1103.38,-1014.58 1180.19,-1018.16"/>
<polygon fill="midnightblue" stroke="midnightblue" points="1180.24,-1021.67 1190.39,-1018.64 1180.56,-1014.67 1180.24,-1021.67"/>
</g>
<!-- Node35&#45;&gt;Node12 -->
<g id="edge87" class="edge"><title>Node35&#45;&gt;Node12</title>
<path fill="none" stroke="midnightblue" d="M819.146,-991.581C828.745,-980.007 844.466,-959.357 853,-938.969 884.5,-863.711 864.574,-836.811 889,-758.969 893.778,-743.741 901.095,-727.203 906.907,-715.041"/>
<polygon fill="midnightblue" stroke="midnightblue" points="910.091,-716.498 911.347,-705.978 903.804,-713.418 910.091,-716.498"/>
</g>
<!-- Node35&#45;&gt;Node21 -->
<g id="edge89" class="edge"><title>Node35&#45;&gt;Node21</title>
<path fill="none" stroke="midnightblue" d="M818.152,-991.671C827.038,-979.853 842.33,-958.621 853,-938.969 926.172,-804.197 989.296,-629.505 1009.08,-572.699"/>
<polygon fill="midnightblue" stroke="midnightblue" points="1012.39,-573.822 1012.35,-563.227 1005.78,-571.534 1012.39,-573.822"/>
</g>
<!-- Node35&#45;&gt;Node23 -->
<g id="edge90" class="edge"><title>Node35&#45;&gt;Node23</title>
<path fill="none" stroke="midnightblue" d="M813.33,-991.659C819.776,-965.853 838.341,-891.201 853,-828.969 856.683,-813.331 972.021,-278.29 981,-264.969 983.166,-261.754 985.919,-258.841 988.922,-256.241"/>
<polygon fill="midnightblue" stroke="midnightblue" points="991.263,-258.863 997.223,-250.103 987.102,-253.234 991.263,-258.863"/>
</g>
<!-- Node35&#45;&gt;Node24 -->
<g id="edge91" class="edge"><title>Node35&#45;&gt;Node24</title>
<path fill="none" stroke="midnightblue" d="M834.479,-991.802C861.813,-980.75 907.941,-960.903 945,-938.969 963.426,-928.063 982.906,-913.426 996.709,-902.46"/>
<polygon fill="midnightblue" stroke="midnightblue" points="998.921,-905.173 1004.51,-896.172 994.528,-899.723 998.921,-905.173"/>
</g>
<!-- Node38&#45;&gt;Node4 -->
<g id="edge96" class="edge"><title>Node38&#45;&gt;Node4</title>
<path fill="none" stroke="midnightblue" d="M928.798,-1409.81C953.045,-1388.84 1012.76,-1335.02 1052,-1280.97 1078.2,-1244.88 1100.53,-1197.28 1111.75,-1171.5"/>
<polygon fill="midnightblue" stroke="midnightblue" points="1115.02,-1172.74 1115.74,-1162.17 1108.59,-1169.99 1115.02,-1172.74"/>
</g>
<!-- Node38&#45;&gt;Node5 -->
<g id="edge97" class="edge"><title>Node38&#45;&gt;Node5</title>
<path fill="none" stroke="midnightblue" d="M943.197,-1420.34C991.474,-1421.48 1097.16,-1416.53 1153,-1356.97 1196.85,-1310.19 1213.61,-1104.08 1217.84,-1039.43"/>
<polygon fill="midnightblue" stroke="midnightblue" points="1221.36,-1039.28 1218.49,-1029.08 1214.37,-1038.84 1221.36,-1039.28"/>
</g>
<!-- Node39&#45;&gt;Node6 -->
<g id="edge100" class="edge"><title>Node39&#45;&gt;Node6</title>
<path fill="none" stroke="midnightblue" d="M1237.55,-250.105C1273.59,-269.999 1359.35,-317.344 1402.21,-341.007"/>
<polygon fill="midnightblue" stroke="midnightblue" points="1400.71,-344.178 1411.16,-345.947 1404.1,-338.05 1400.71,-344.178"/>
</g>
<!-- Node40 -->
<g id="node40" class="node"><title>Node40</title>
<g id="a_node40"><a xlink:href="oled__control_8c.html#ad95f850c4c6d949229270c8da88c02cb" target="_top" xlink:title=" ">
<polygon fill="none" stroke="black" points="1292.5,-231.969 1292.5,-249.969 1346.5,-249.969 1346.5,-231.969 1292.5,-231.969"/>
<text text-anchor="middle" x="1319.5" y="-238.769" font-family="Calibri" font-size="9.00">oled_init</text>
</a>
</g>
</g>
<!-- Node39&#45;&gt;Node40 -->
<g id="edge101" class="edge"><title>Node39&#45;&gt;Node40</title>
<path fill="none" stroke="midnightblue" d="M1244.6,-240.969C1255.87,-240.969 1269.62,-240.969 1282.18,-240.969"/>
<polygon fill="midnightblue" stroke="midnightblue" points="1282.37,-244.469 1292.37,-240.969 1282.37,-237.469 1282.37,-244.469"/>
</g>
<!-- Node40&#45;&gt;Node7 -->
<g id="edge104" class="edge"><title>Node40&#45;&gt;Node7</title>
<path fill="none" stroke="midnightblue" d="M1329.98,-250.12C1342.53,-261.93 1365.7,-282.657 1388,-296.969 1421.62,-318.551 1433.18,-318.269 1469,-335.969 1484.42,-343.588 1501.58,-352.276 1515.39,-359.317"/>
<polygon fill="midnightblue" stroke="midnightblue" points="1513.85,-362.462 1524.35,-363.895 1517.04,-356.229 1513.85,-362.462"/>
</g>
<!-- Node40&#45;&gt;Node8 -->
<g id="edge105" class="edge"><title>Node40&#45;&gt;Node8</title>
<path fill="none" stroke="midnightblue" d="M1346.33,-231.907C1376.67,-222.748 1428.04,-211.923 1469,-226.969 1493.23,-235.87 1514.92,-256.777 1528.24,-271.854"/>
<polygon fill="midnightblue" stroke="midnightblue" points="1525.6,-274.156 1534.74,-279.518 1530.94,-269.628 1525.6,-274.156"/>
</g>
<!-- Node40&#45;&gt;Node9 -->
<g id="edge106" class="edge"><title>Node40&#45;&gt;Node9</title>
<path fill="none" stroke="midnightblue" d="M1346.55,-238.499C1377.78,-236.782 1430.7,-237.929 1469,-259.969 1491.81,-273.093 1486.5,-288.259 1505,-306.969 1509.75,-311.767 1515.29,-316.491 1520.61,-320.688"/>
<polygon fill="midnightblue" stroke="midnightblue" points="1518.58,-323.537 1528.66,-326.785 1522.8,-317.957 1518.58,-323.537"/>
</g>
<!-- Node40&#45;&gt;Node11 -->
<g id="edge103" class="edge"><title>Node40&#45;&gt;Node11</title>
<path fill="none" stroke="midnightblue" d="M1324.83,-250.189C1340.89,-284.423 1397.31,-404.63 1418.95,-450.758"/>
<polygon fill="midnightblue" stroke="midnightblue" points="1415.82,-452.318 1423.24,-459.883 1422.16,-449.344 1415.82,-452.318"/>
</g>
<!-- Node40&#45;&gt;Node15 -->
<g id="edge102" class="edge"><title>Node40&#45;&gt;Node15</title>
<path fill="none" stroke="midnightblue" d="M1345.86,-249.974C1359.75,-254.907 1377.18,-261.097 1392.36,-266.489"/>
<polygon fill="midnightblue" stroke="midnightblue" points="1391.36,-269.848 1401.95,-269.896 1393.7,-263.251 1391.36,-269.848"/>
</g>
<!-- Node42&#45;&gt;Node5 -->
<g id="edge113" class="edge"><title>Node42&#45;&gt;Node5</title>
<path fill="none" stroke="midnightblue" d="M284.061,-1456.97C316.573,-1456.97 370.809,-1456.97 417.5,-1456.97 417.5,-1456.97 417.5,-1456.97 1017.5,-1456.97 1084.29,-1456.97 1112.6,-1445.16 1153,-1391.97 1196.03,-1335.31 1213.53,-1107.52 1217.87,-1039.34"/>
<polygon fill="midnightblue" stroke="midnightblue" points="1221.37,-1039.37 1218.49,-1029.17 1214.38,-1038.94 1221.37,-1039.37"/>
</g>
<!-- Node44&#45;&gt;Node5 -->
<g id="edge118" class="edge"><title>Node44&#45;&gt;Node5</title>
<path fill="none" stroke="midnightblue" d="M835.74,-1379.94C906.472,-1376.49 1107.39,-1362.94 1153,-1318.97 1193.72,-1279.71 1212.35,-1099.1 1217.48,-1039.27"/>
<polygon fill="midnightblue" stroke="midnightblue" points="1220.99,-1039.25 1218.32,-1029 1214.01,-1038.68 1220.99,-1039.25"/>
</g>
<!-- Node44&#45;&gt;Node24 -->
<g id="edge119" class="edge"><title>Node44&#45;&gt;Node24</title>
<path fill="none" stroke="midnightblue" d="M814.903,-1371.54C839.582,-1311.93 974.027,-987.152 1007.8,-905.569"/>
<polygon fill="midnightblue" stroke="midnightblue" points="1011.13,-906.675 1011.72,-896.097 1004.66,-903.997 1011.13,-906.675"/>
</g>
<!-- Node44&#45;&gt;Node27 -->
<g id="edge116" class="edge"><title>Node44&#45;&gt;Node27</title>
<path fill="none" stroke="midnightblue" d="M812.123,-1371.74C817.121,-1330.58 837.771,-1159.55 853,-1018.97 878.903,-779.848 906.856,-488.94 914.168,-412.246"/>
<polygon fill="midnightblue" stroke="midnightblue" points="917.664,-412.451 915.128,-402.164 910.696,-411.787 917.664,-412.451"/>
</g>
<!-- Node44&#45;&gt;Node38 -->
<g id="edge117" class="edge"><title>Node44&#45;&gt;Node38</title>
<path fill="none" stroke="midnightblue" d="M835.618,-1389.88C849.242,-1394.81 866.395,-1401.02 881.354,-1406.43"/>
<polygon fill="midnightblue" stroke="midnightblue" points="880.213,-1409.74 890.807,-1409.85 882.595,-1403.16 880.213,-1409.74"/>
</g>
</g>
</svg>
