<?xml version="1.0" encoding="UTF-8" standalone="no"?>
<!DOCTYPE svg PUBLIC "-//W3C//DTD SVG 1.1//EN"
 "http://www.w3.org/Graphics/SVG/1.1/DTD/svg11.dtd">
<!-- Generated by graphviz version 2.38.0 (20140413.2041)
 -->
<!-- Title: lcd_pwr Pages: 1 -->
<svg width="689pt" height="365pt"
 viewBox="0.00 0.00 689.00 365.00" xmlns="http://www.w3.org/2000/svg" xmlns:xlink="http://www.w3.org/1999/xlink">
<g id="graph0" class="graph" transform="scale(1 1) rotate(0) translate(4 361)">
<title>lcd_pwr</title>
<!-- Node1 -->
<g id="node1" class="node"><title>Node1</title>
<g id="a_node1"><a xlink:title=" ">
<polygon fill="#bfbfbf" stroke="black" points="0,-149.5 0,-167.5 48,-167.5 48,-149.5 0,-149.5"/>
<text text-anchor="middle" x="24" y="-156.3" font-family="Calibri" font-size="9.00">lcd_pwr</text>
</a>
</g>
</g>
<!-- Node2 -->
<g id="node2" class="node"><title>Node2</title>
<g id="a_node2"><a xlink:href="src_2main_8c.html#a593218c5fe00b499d494826fc0aa5279" target="_top" xlink:title=" ">
<polygon fill="none" stroke="black" points="84,-338.5 84,-356.5 155,-356.5 155,-338.5 84,-338.5"/>
<text text-anchor="middle" x="119.5" y="-345.3" font-family="Calibri" font-size="9.00">button_delay</text>
</a>
</g>
</g>
<!-- Node1&#45;&gt;Node2 -->
<g id="edge1" class="edge"><title>Node1&#45;&gt;Node2</title>
<path fill="none" stroke="midnightblue" d="M26.2695,-167.653C30.3451,-194.237 45.1742,-272.765 84,-323.5 86.4735,-326.732 89.507,-329.695 92.7391,-332.353"/>
<polygon fill="midnightblue" stroke="midnightblue" points="90.8225,-335.286 100.977,-338.31 94.9246,-329.614 90.8225,-335.286"/>
</g>
<!-- Node3 -->
<g id="node3" class="node"><title>Node3</title>
<g id="a_node3"><a xlink:href="oled__control_8c.html#a5febfdc847aa6f3bc3f3c8f7818b8699" target="_top" xlink:title=" ">
<polygon fill="none" stroke="black" points="388.5,-300.5 388.5,-318.5 450.5,-318.5 450.5,-300.5 388.5,-300.5"/>
<text text-anchor="middle" x="419.5" y="-307.3" font-family="Calibri" font-size="9.00">display_on</text>
</a>
</g>
</g>
<!-- Node1&#45;&gt;Node3 -->
<g id="edge2" class="edge"><title>Node1&#45;&gt;Node3</title>
<path fill="none" stroke="midnightblue" d="M28.8436,-167.511C36.7338,-185.026 56.3692,-223.919 84,-246.5 169.782,-316.603 309.31,-317.818 377.864,-313.444"/>
<polygon fill="midnightblue" stroke="midnightblue" points="378.513,-316.907 388.238,-312.704 378.015,-309.925 378.513,-316.907"/>
</g>
<!-- Node9 -->
<g id="node9" class="node"><title>Node9</title>
<g id="a_node9"><a xlink:href="main_8h.html#ab37ca657b79c6b9176cb63e9d812a182" target="_top" xlink:title=" ">
<polygon fill="none" stroke="black" points="95,-111.5 95,-129.5 144,-129.5 144,-111.5 95,-111.5"/>
<text text-anchor="middle" x="119.5" y="-118.3" font-family="Calibri" font-size="9.00">get_pwr</text>
</a>
</g>
</g>
<!-- Node1&#45;&gt;Node9 -->
<g id="edge11" class="edge"><title>Node1&#45;&gt;Node9</title>
<path fill="none" stroke="midnightblue" d="M47.1582,-149.495C58.9493,-144.702 73.658,-138.725 86.6516,-133.444"/>
<polygon fill="midnightblue" stroke="midnightblue" points="88.2305,-136.58 96.1768,-129.573 85.5949,-130.095 88.2305,-136.58"/>
</g>
<!-- Node13 -->
<g id="node13" class="node"><title>Node13</title>
<g id="a_node13"><a xlink:href="src_2main_8c.html#aa8fd50019a763561abc6621bb224417f" target="_top" xlink:title=" ">
<polygon fill="none" stroke="black" points="200,-262.5 200,-280.5 247,-280.5 247,-262.5 200,-262.5"/>
<text text-anchor="middle" x="223.5" y="-269.3" font-family="Calibri" font-size="9.00">lcd_swr</text>
</a>
</g>
</g>
<!-- Node1&#45;&gt;Node13 -->
<g id="edge15" class="edge"><title>Node1&#45;&gt;Node13</title>
<path fill="none" stroke="midnightblue" d="M32.5727,-167.529C43.0757,-179.585 63.1398,-200.985 84,-214.5 117.576,-236.252 160.821,-252.447 189.985,-261.907"/>
<polygon fill="midnightblue" stroke="midnightblue" points="189.084,-265.293 199.674,-264.971 191.194,-258.619 189.084,-265.293"/>
</g>
<!-- Node14 -->
<g id="node14" class="node"><title>Node14</title>
<g id="a_node14"><a xlink:href="oled__control_8c.html#a1c8eef09adf01c9a7e3c6188f25c3c48" target="_top" xlink:title=" ">
<polygon fill="none" stroke="black" points="292,-224.5 292,-242.5 351,-242.5 351,-224.5 292,-224.5"/>
<text text-anchor="middle" x="321.5" y="-231.3" font-family="Calibri" font-size="9.00">led_wr_str</text>
</a>
</g>
</g>
<!-- Node1&#45;&gt;Node14 -->
<g id="edge25" class="edge"><title>Node1&#45;&gt;Node14</title>
<path fill="none" stroke="midnightblue" d="M48.2757,-160.315C90.6879,-164.168 182.919,-175.078 256,-201.5 269.636,-206.43 284.156,-213.462 295.961,-219.679"/>
<polygon fill="midnightblue" stroke="midnightblue" points="294.314,-222.767 304.776,-224.434 297.637,-216.606 294.314,-222.767"/>
</g>
<!-- Node17 -->
<g id="node17" class="node"><title>Node17</title>
<g id="a_node17"><a xlink:href="main_8h.html#a2a7963b9b09696c6654b96c67900c6ea" target="_top" xlink:title=" ">
<polygon fill="none" stroke="black" points="95.5,-74.5 95.5,-92.5 143.5,-92.5 143.5,-74.5 95.5,-74.5"/>
<text text-anchor="middle" x="119.5" y="-81.3" font-family="Calibri" font-size="9.00">set_cap</text>
</a>
</g>
</g>
<!-- Node1&#45;&gt;Node17 -->
<g id="edge26" class="edge"><title>Node1&#45;&gt;Node17</title>
<path fill="none" stroke="midnightblue" d="M33.0942,-149.162C43.8643,-137.115 63.8959,-115.99 84,-101.5 85.8257,-100.184 87.7605,-98.9059 89.745,-97.6778"/>
<polygon fill="midnightblue" stroke="midnightblue" points="91.6174,-100.639 98.5799,-92.6535 88.157,-94.5545 91.6174,-100.639"/>
</g>
<!-- Node19 -->
<g id="node19" class="node"><title>Node19</title>
<g id="a_node19"><a xlink:href="main_8h.html#aecc83cd8bceb4bc24be844732ead2c2c" target="_top" xlink:title=" ">
<polygon fill="none" stroke="black" points="96,-37.5 96,-55.5 143,-55.5 143,-37.5 96,-37.5"/>
<text text-anchor="middle" x="119.5" y="-44.3" font-family="Calibri" font-size="9.00">set_ind</text>
</a>
</g>
</g>
<!-- Node1&#45;&gt;Node19 -->
<g id="edge28" class="edge"><title>Node1&#45;&gt;Node19</title>
<path fill="none" stroke="midnightblue" d="M28.7514,-149.374C36.6124,-131.187 56.3962,-89.989 84,-64.5 85.2967,-63.3027 86.688,-62.1622 88.1412,-61.0796"/>
<polygon fill="midnightblue" stroke="midnightblue" points="90.3416,-63.8286 96.9113,-55.5165 86.5921,-57.9175 90.3416,-63.8286"/>
</g>
<!-- Node20 -->
<g id="node20" class="node"><title>Node20</title>
<g id="a_node20"><a xlink:href="main_8h.html#aa3ee146d5fca99f368e8ddb5d5dd72cb" target="_top" xlink:title="Set the state of the switch.">
<polygon fill="none" stroke="black" points="97,-0.5 97,-18.5 142,-18.5 142,-0.5 97,-0.5"/>
<text text-anchor="middle" x="119.5" y="-7.3" font-family="Calibri" font-size="9.00">set_sw</text>
</a>
</g>
</g>
<!-- Node1&#45;&gt;Node20 -->
<g id="edge30" class="edge"><title>Node1&#45;&gt;Node20</title>
<path fill="none" stroke="midnightblue" d="M26.9128,-149.402C32.1816,-126.32 48.9013,-64.6852 84,-27.5 85.3564,-26.063 86.8532,-24.7193 88.4407,-23.4665"/>
<polygon fill="midnightblue" stroke="midnightblue" points="90.4389,-26.3419 96.9028,-17.9473 86.6148,-20.4788 90.4389,-26.3419"/>
</g>
<!-- Node21 -->
<g id="node21" class="node"><title>Node21</title>
<g id="a_node21"><a xlink:href="src_2main_8c.html#a4ae0d4fa97fc0ca3611813fee4f9af7c" target="_top" xlink:title=" ">
<polygon fill="none" stroke="black" points="90.5,-187.5 90.5,-205.5 148.5,-205.5 148.5,-187.5 90.5,-187.5"/>
<text text-anchor="middle" x="119.5" y="-194.3" font-family="Calibri" font-size="9.00">show_pwr</text>
</a>
</g>
</g>
<!-- Node1&#45;&gt;Node21 -->
<g id="edge32" class="edge"><title>Node1&#45;&gt;Node21</title>
<path fill="none" stroke="midnightblue" d="M47.1582,-167.505C58.9493,-172.298 73.658,-178.275 86.6516,-183.556"/>
<polygon fill="midnightblue" stroke="midnightblue" points="85.5949,-186.905 96.1768,-187.427 88.2305,-180.42 85.5949,-186.905"/>
</g>
<!-- Node4 -->
<g id="node4" class="node"><title>Node4</title>
<g id="a_node4"><a xlink:href="oled__control_8c.html#a3d35666326cc069eda3b63c70983fdbc" target="_top" xlink:title=" ">
<polygon fill="none" stroke="black" points="501,-263.5 501,-281.5 556,-281.5 556,-263.5 501,-263.5"/>
<text text-anchor="middle" x="528.5" y="-270.3" font-family="Calibri" font-size="9.00">led_send</text>
</a>
</g>
</g>
<!-- Node3&#45;&gt;Node4 -->
<g id="edge3" class="edge"><title>Node3&#45;&gt;Node4</title>
<path fill="none" stroke="midnightblue" d="M446.675,-300.449C460.147,-295.79 476.779,-290.039 491.447,-284.967"/>
<polygon fill="midnightblue" stroke="midnightblue" points="492.917,-288.162 501.224,-281.586 490.629,-281.546 492.917,-288.162"/>
</g>
<!-- Node8 -->
<g id="node8" class="node"><title>Node8</title>
<g id="a_node8"><a xlink:href="oled__control_8c.html#a78a346ba6e89c3140dd554a46e56c719" target="_top" xlink:title=" ">
<polygon fill="none" stroke="black" points="488,-300.5 488,-318.5 569,-318.5 569,-300.5 488,-300.5"/>
<text text-anchor="middle" x="528.5" y="-307.3" font-family="Calibri" font-size="9.00">send_command</text>
</a>
</g>
</g>
<!-- Node3&#45;&gt;Node8 -->
<g id="edge7" class="edge"><title>Node3&#45;&gt;Node8</title>
<path fill="none" stroke="midnightblue" d="M450.59,-309.5C458.944,-309.5 468.245,-309.5 477.413,-309.5"/>
<polygon fill="midnightblue" stroke="midnightblue" points="477.649,-313 487.649,-309.5 477.649,-306 477.649,-313"/>
</g>
<!-- Node5 -->
<g id="node5" class="node"><title>Node5</title>
<g id="a_node5"><a xlink:href="oled__control_8c.html#ab7f6b5c6c1483f6286f2de5786c028d9" target="_top" xlink:title=" ">
<polygon fill="none" stroke="black" points="607,-244.5 607,-262.5 679,-262.5 679,-244.5 607,-244.5"/>
<text text-anchor="middle" x="643" y="-251.3" font-family="Calibri" font-size="9.00">Soft_I2C_Start</text>
</a>
</g>
</g>
<!-- Node4&#45;&gt;Node5 -->
<g id="edge4" class="edge"><title>Node4&#45;&gt;Node5</title>
<path fill="none" stroke="midnightblue" d="M556.161,-267.997C568.173,-265.968 582.703,-263.515 596.365,-261.207"/>
<polygon fill="midnightblue" stroke="midnightblue" points="597.31,-264.597 606.588,-259.481 596.144,-257.695 597.31,-264.597"/>
</g>
<!-- Node6 -->
<g id="node6" class="node"><title>Node6</title>
<g id="a_node6"><a xlink:href="oled__control_8c.html#a16eb842aa672ca44820ae6d5f9933425" target="_top" xlink:title=" ">
<polygon fill="none" stroke="black" points="607.5,-300.5 607.5,-318.5 678.5,-318.5 678.5,-300.5 607.5,-300.5"/>
<text text-anchor="middle" x="643" y="-307.3" font-family="Calibri" font-size="9.00">Soft_I2C_Stop</text>
</a>
</g>
</g>
<!-- Node4&#45;&gt;Node6 -->
<g id="edge5" class="edge"><title>Node4&#45;&gt;Node6</title>
<path fill="none" stroke="midnightblue" d="M556.161,-281.268C570.689,-286.047 588.899,-292.036 604.804,-297.267"/>
<polygon fill="midnightblue" stroke="midnightblue" points="603.763,-300.609 614.356,-300.408 605.95,-293.959 603.763,-300.609"/>
</g>
<!-- Node7 -->
<g id="node7" class="node"><title>Node7</title>
<g id="a_node7"><a xlink:href="oled__control_8c.html#a73610916645f17c19124e697b005f694" target="_top" xlink:title=" ">
<polygon fill="none" stroke="black" points="605,-197.5 605,-215.5 681,-215.5 681,-197.5 605,-197.5"/>
<text text-anchor="middle" x="643" y="-204.3" font-family="Calibri" font-size="9.00">Soft_I2C_Write</text>
</a>
</g>
</g>
<!-- Node4&#45;&gt;Node7 -->
<g id="edge6" class="edge"><title>Node4&#45;&gt;Node7</title>
<path fill="none" stroke="midnightblue" d="M545.143,-263.323C563.949,-252.29 595.724,-233.649 617.726,-220.741"/>
<polygon fill="midnightblue" stroke="midnightblue" points="619.636,-223.678 626.49,-215.599 616.094,-217.64 619.636,-223.678"/>
</g>
<!-- Node8&#45;&gt;Node5 -->
<g id="edge8" class="edge"><title>Node8&#45;&gt;Node5</title>
<path fill="none" stroke="midnightblue" d="M550.097,-300.36C556.212,-297.581 562.904,-294.473 569,-291.5 584.86,-283.765 602.407,-274.649 616.322,-267.285"/>
<polygon fill="midnightblue" stroke="midnightblue" points="618.124,-270.291 625.31,-262.505 614.837,-264.111 618.124,-270.291"/>
</g>
<!-- Node8&#45;&gt;Node6 -->
<g id="edge9" class="edge"><title>Node8&#45;&gt;Node6</title>
<path fill="none" stroke="midnightblue" d="M569.163,-309.5C578.172,-309.5 587.804,-309.5 597.016,-309.5"/>
<polygon fill="midnightblue" stroke="midnightblue" points="597.182,-313 607.182,-309.5 597.182,-306 597.182,-313"/>
</g>
<!-- Node8&#45;&gt;Node7 -->
<g id="edge10" class="edge"><title>Node8&#45;&gt;Node7</title>
<path fill="none" stroke="midnightblue" d="M555.048,-300.5C559.999,-298.052 564.912,-295.068 569,-291.5 591.575,-271.799 584.727,-256.563 605,-234.5 609.26,-229.864 614.367,-225.449 619.408,-221.552"/>
<polygon fill="midnightblue" stroke="midnightblue" points="621.645,-224.253 627.666,-215.535 617.523,-218.595 621.645,-224.253"/>
</g>
<!-- Node10 -->
<g id="node10" class="node"><title>Node10</title>
<g id="a_node10"><a xlink:href="main_8h.html#ab19e6e081315a9a200394b74d10de395" target="_top" xlink:title=" ">
<polygon fill="none" stroke="black" points="195,-111.5 195,-129.5 252,-129.5 252,-111.5 195,-111.5"/>
<text text-anchor="middle" x="223.5" y="-118.3" font-family="Calibri" font-size="9.00">correction</text>
</a>
</g>
</g>
<!-- Node9&#45;&gt;Node10 -->
<g id="edge12" class="edge"><title>Node9&#45;&gt;Node10</title>
<path fill="none" stroke="midnightblue" d="M144.157,-120.5C156.257,-120.5 171.271,-120.5 184.909,-120.5"/>
<polygon fill="midnightblue" stroke="midnightblue" points="184.998,-124 194.998,-120.5 184.998,-117 184.998,-124"/>
</g>
<!-- Node11 -->
<g id="node11" class="node"><title>Node11</title>
<g id="a_node11"><a xlink:href="main_8h.html#acfd46f8711e9c1c20fffdfc8bdaa0ddd" target="_top" xlink:title=" ">
<polygon fill="none" stroke="black" points="191,-74.5 191,-92.5 256,-92.5 256,-74.5 191,-74.5"/>
<text text-anchor="middle" x="223.5" y="-81.3" font-family="Calibri" font-size="9.00">get_forward</text>
</a>
</g>
</g>
<!-- Node9&#45;&gt;Node11 -->
<g id="edge13" class="edge"><title>Node9&#45;&gt;Node11</title>
<path fill="none" stroke="midnightblue" d="M144.157,-111.918C157.163,-107.201 173.538,-101.261 187.95,-96.033"/>
<polygon fill="midnightblue" stroke="midnightblue" points="189.341,-99.2515 197.548,-92.5512 186.954,-92.6711 189.341,-99.2515"/>
</g>
<!-- Node12 -->
<g id="node12" class="node"><title>Node12</title>
<g id="a_node12"><a xlink:href="main_8h.html#aa6b9a2b3d88f578ba6a9fefd911eae75" target="_top" xlink:title=" ">
<polygon fill="none" stroke="black" points="191.5,-37.5 191.5,-55.5 255.5,-55.5 255.5,-37.5 191.5,-37.5"/>
<text text-anchor="middle" x="223.5" y="-44.3" font-family="Calibri" font-size="9.00">get_reverse</text>
</a>
</g>
</g>
<!-- Node9&#45;&gt;Node12 -->
<g id="edge14" class="edge"><title>Node9&#45;&gt;Node12</title>
<path fill="none" stroke="midnightblue" d="M139.39,-111.404C144.642,-108.533 150.214,-105.148 155,-101.5 173.248,-87.5919 172.862,-78.5513 191,-64.5 192.568,-63.2849 194.228,-62.0963 195.932,-60.9461"/>
<polygon fill="midnightblue" stroke="midnightblue" points="197.954,-63.8106 204.613,-55.5698 194.269,-57.8595 197.954,-63.8106"/>
</g>
<!-- Node13&#45;&gt;Node14 -->
<g id="edge16" class="edge"><title>Node13&#45;&gt;Node14</title>
<path fill="none" stroke="midnightblue" d="M247.251,-262.495C259.476,-257.655 274.755,-251.607 288.192,-246.289"/>
<polygon fill="midnightblue" stroke="midnightblue" points="289.57,-249.507 297.58,-242.573 286.994,-242.999 289.57,-249.507"/>
</g>
<!-- Node14&#45;&gt;Node4 -->
<g id="edge17" class="edge"><title>Node14&#45;&gt;Node4</title>
<path fill="none" stroke="midnightblue" d="M351.208,-242.333C362.313,-245.533 375.175,-248.977 387,-251.5 421.862,-258.94 462.145,-264.673 490.614,-268.255"/>
<polygon fill="midnightblue" stroke="midnightblue" points="490.559,-271.774 500.911,-269.521 491.413,-264.827 490.559,-271.774"/>
</g>
<!-- Node15 -->
<g id="node15" class="node"><title>Node15</title>
<g id="a_node15"><a xlink:href="oled__control_8c.html#a6e85fd05697e2238e4d9babf1c952772" target="_top" xlink:title=" ">
<polygon fill="none" stroke="black" points="387,-224.5 387,-242.5 452,-242.5 452,-224.5 387,-224.5"/>
<text text-anchor="middle" x="419.5" y="-231.3" font-family="Calibri" font-size="9.00">oled_wr_str</text>
</a>
</g>
</g>
<!-- Node14&#45;&gt;Node15 -->
<g id="edge18" class="edge"><title>Node14&#45;&gt;Node15</title>
<path fill="none" stroke="midnightblue" d="M351.043,-233.5C359.147,-233.5 368.142,-233.5 376.852,-233.5"/>
<polygon fill="midnightblue" stroke="midnightblue" points="376.877,-237 386.877,-233.5 376.877,-230 376.877,-237"/>
</g>
<!-- Node15&#45;&gt;Node5 -->
<g id="edge22" class="edge"><title>Node15&#45;&gt;Node5</title>
<path fill="none" stroke="midnightblue" d="M452.236,-236.366C490.03,-239.778 553.441,-245.504 596.462,-249.388"/>
<polygon fill="midnightblue" stroke="midnightblue" points="596.387,-252.896 606.662,-250.309 597.017,-245.924 596.387,-252.896"/>
</g>
<!-- Node15&#45;&gt;Node6 -->
<g id="edge23" class="edge"><title>Node15&#45;&gt;Node6</title>
<path fill="none" stroke="midnightblue" d="M425.635,-242.818C438,-264.864 469.752,-319.08 488,-328.5 527.916,-349.105 581.171,-334.806 613.452,-322.331"/>
<polygon fill="midnightblue" stroke="midnightblue" points="614.806,-325.559 622.759,-318.559 612.177,-319.071 614.806,-325.559"/>
</g>
<!-- Node15&#45;&gt;Node7 -->
<g id="edge24" class="edge"><title>Node15&#45;&gt;Node7</title>
<path fill="none" stroke="midnightblue" d="M427.998,-224.083C439.321,-210.709 462.219,-186.802 488,-177.5 530.951,-162.003 583.777,-179.291 615.068,-193.036"/>
<polygon fill="midnightblue" stroke="midnightblue" points="613.882,-196.343 624.431,-197.329 616.799,-189.98 613.882,-196.343"/>
</g>
<!-- Node16 -->
<g id="node16" class="node"><title>Node16</title>
<g id="a_node16"><a xlink:href="oled__control_8c.html#a3cf32ac4d3d7c92be54c385c1ed8cc76" target="_top" xlink:title=" ">
<polygon fill="none" stroke="black" points="488.5,-187.5 488.5,-205.5 568.5,-205.5 568.5,-187.5 488.5,-187.5"/>
<text text-anchor="middle" x="528.5" y="-194.3" font-family="Calibri" font-size="9.00">set_addressing</text>
</a>
</g>
</g>
<!-- Node15&#45;&gt;Node16 -->
<g id="edge19" class="edge"><title>Node15&#45;&gt;Node16</title>
<path fill="none" stroke="midnightblue" d="M446.675,-224.449C460.147,-219.79 476.779,-214.039 491.447,-208.967"/>
<polygon fill="midnightblue" stroke="midnightblue" points="492.917,-212.162 501.224,-205.586 490.629,-205.546 492.917,-212.162"/>
</g>
<!-- Node16&#45;&gt;Node5 -->
<g id="edge20" class="edge"><title>Node16&#45;&gt;Node5</title>
<path fill="none" stroke="midnightblue" d="M547.326,-205.532C565.486,-214.733 593.881,-229.12 614.841,-239.74"/>
<polygon fill="midnightblue" stroke="midnightblue" points="613.383,-242.924 623.885,-244.322 616.546,-236.68 613.383,-242.924"/>
</g>
<!-- Node16&#45;&gt;Node7 -->
<g id="edge21" class="edge"><title>Node16&#45;&gt;Node7</title>
<path fill="none" stroke="midnightblue" d="M568.531,-199.969C577.015,-200.724 586.078,-201.529 594.838,-202.308"/>
<polygon fill="midnightblue" stroke="midnightblue" points="594.66,-205.806 604.931,-203.205 595.28,-198.833 594.66,-205.806"/>
</g>
<!-- Node18 -->
<g id="node18" class="node"><title>Node18</title>
<g id="a_node18"><a xlink:href="main_8h.html#a85fb3ccca120f3b843a1dc7567908a04" target="_top" xlink:title=" ">
<polygon fill="none" stroke="black" points="195.5,-0.5 195.5,-18.5 251.5,-18.5 251.5,-0.5 195.5,-0.5"/>
<text text-anchor="middle" x="223.5" y="-7.3" font-family="Calibri" font-size="9.00">delay_ms</text>
</a>
</g>
</g>
<!-- Node17&#45;&gt;Node18 -->
<g id="edge27" class="edge"><title>Node17&#45;&gt;Node18</title>
<path fill="none" stroke="midnightblue" d="M139.39,-74.4044C144.642,-71.5325 150.214,-68.1476 155,-64.5 173.248,-50.5919 172.862,-41.5513 191,-27.5 192.568,-26.2849 194.228,-25.0963 195.932,-23.9461"/>
<polygon fill="midnightblue" stroke="midnightblue" points="197.954,-26.8106 204.613,-18.5698 194.269,-20.8595 197.954,-26.8106"/>
</g>
<!-- Node19&#45;&gt;Node18 -->
<g id="edge29" class="edge"><title>Node19&#45;&gt;Node18</title>
<path fill="none" stroke="midnightblue" d="M143.137,-38.2885C156.203,-33.5488 172.911,-27.488 187.624,-22.1511"/>
<polygon fill="midnightblue" stroke="midnightblue" points="189.214,-25.2974 197.421,-18.5971 186.827,-18.717 189.214,-25.2974"/>
</g>
<!-- Node20&#45;&gt;Node18 -->
<g id="edge31" class="edge"><title>Node20&#45;&gt;Node18</title>
<path fill="none" stroke="midnightblue" d="M142.132,-9.5C154.649,-9.5 170.746,-9.5 185.243,-9.5"/>
<polygon fill="midnightblue" stroke="midnightblue" points="185.442,-13.0001 195.442,-9.5 185.442,-6.0001 185.442,-13.0001"/>
</g>
<!-- Node21&#45;&gt;Node14 -->
<g id="edge35" class="edge"><title>Node21&#45;&gt;Node14</title>
<path fill="none" stroke="midnightblue" d="M148.715,-199.351C176.256,-202.392 219.259,-207.833 256,-215.5 264.507,-217.275 273.545,-219.548 282.079,-221.877"/>
<polygon fill="midnightblue" stroke="midnightblue" points="281.23,-225.274 291.804,-224.611 283.124,-218.535 281.23,-225.274"/>
</g>
<!-- Node22 -->
<g id="node22" class="node"><title>Node22</title>
<g id="a_node22"><a xlink:href="src_2main_8c.html#a6911b3f075cdf1d54cb14f17f6e5ef6b" target="_top" xlink:title=" ">
<polygon fill="none" stroke="black" points="200,-225.5 200,-243.5 247,-243.5 247,-225.5 200,-225.5"/>
<text text-anchor="middle" x="223.5" y="-232.3" font-family="Calibri" font-size="9.00">lcd_ind</text>
</a>
</g>
</g>
<!-- Node21&#45;&gt;Node22 -->
<g id="edge33" class="edge"><title>Node21&#45;&gt;Node22</title>
<path fill="none" stroke="midnightblue" d="M144.673,-205.505C158.266,-210.57 175.415,-216.959 190.153,-222.449"/>
<polygon fill="midnightblue" stroke="midnightblue" points="189.306,-225.868 199.898,-226.08 191.75,-219.309 189.306,-225.868"/>
</g>
<!-- Node22&#45;&gt;Node14 -->
<g id="edge34" class="edge"><title>Node22&#45;&gt;Node14</title>
<path fill="none" stroke="midnightblue" d="M247.251,-234.263C257.543,-234.156 270,-234.026 281.7,-233.904"/>
<polygon fill="midnightblue" stroke="midnightblue" points="281.75,-237.404 291.713,-233.8 281.677,-230.404 281.75,-237.404"/>
</g>
</g>
</svg>
