<?xml version="1.0" encoding="UTF-8" standalone="no"?>
<!DOCTYPE svg PUBLIC "-//W3C//DTD SVG 1.1//EN"
 "http://www.w3.org/Graphics/SVG/1.1/DTD/svg11.dtd">
<!-- Generated by graphviz version 2.38.0 (20140413.2041)
 -->
<!-- Title: src/main.c Pages: 1 -->
<svg width="1472pt" height="412pt"
 viewBox="0.00 0.00 1472.00 412.00" xmlns="http://www.w3.org/2000/svg" xmlns:xlink="http://www.w3.org/1999/xlink">
<g id="graph0" class="graph" transform="scale(1 1) rotate(0) translate(4 408)">
<title>src/main.c</title>
<!-- Node1 -->
<g id="node1" class="node"><title>Node1</title>
<g id="a_node1"><a xlink:title="ATU&#45;100 EXT firmware for PIC16F1938 main program.">
<polygon fill="#bfbfbf" stroke="black" points="749.5,-385.5 749.5,-403.5 808.5,-403.5 808.5,-385.5 749.5,-385.5"/>
<text text-anchor="middle" x="779" y="-392.3" font-family="Calibri" font-size="9.00">src/main.c</text>
</a>
</g>
</g>
<!-- Node2 -->
<g id="node2" class="node"><title>Node2</title>
<g id="a_node2"><a xlink:title=" ">
<polygon fill="none" stroke="#bfbfbf" points="1239,-0.5 1239,-18.5 1271,-18.5 1271,-0.5 1239,-0.5"/>
<text text-anchor="middle" x="1255" y="-7.3" font-family="Calibri" font-size="9.00">xc.h</text>
</a>
</g>
</g>
<!-- Node1&#45;&gt;Node2 -->
<g id="edge1" class="edge"><title>Node1&#45;&gt;Node2</title>
<path fill="none" stroke="midnightblue" d="M808.564,-392.533C908.189,-389.053 1230.97,-375.927 1331,-349 1394.25,-331.974 1464,-351.003 1464,-285.5 1464,-285.5 1464,-285.5 1464,-118.5 1464,-37.1333 1337.43,-17.0014 1281.28,-12.0738"/>
<polygon fill="midnightblue" stroke="midnightblue" points="1281.29,-8.56405 1271.05,-11.2774 1280.75,-15.5429 1281.29,-8.56405"/>
</g>
<!-- Node3 -->
<g id="node3" class="node"><title>Node3</title>
<g id="a_node3"><a xlink:title=" ">
<polygon fill="none" stroke="#bfbfbf" points="961,-0.5 961,-18.5 1017,-18.5 1017,-0.5 961,-0.5"/>
<text text-anchor="middle" x="989" y="-7.3" font-family="Calibri" font-size="9.00">stdbool.h</text>
</a>
</g>
</g>
<!-- Node1&#45;&gt;Node3 -->
<g id="edge2" class="edge"><title>Node1&#45;&gt;Node3</title>
<path fill="none" stroke="midnightblue" d="M808.509,-392.476C901.418,-388.998 1186.95,-376.306 1275,-349 1330.02,-331.936 1388,-343.109 1388,-285.5 1388,-285.5 1388,-285.5 1388,-118.5 1388,-44.2394 1127.23,-19.4633 1027.32,-12.696"/>
<polygon fill="midnightblue" stroke="midnightblue" points="1027.26,-9.18514 1017.06,-12.0264 1026.81,-16.1703 1027.26,-9.18514"/>
</g>
<!-- Node4 -->
<g id="node4" class="node"><title>Node4</title>
<g id="a_node4"><a xlink:title=" ">
<polygon fill="none" stroke="#bfbfbf" points="394,-0.5 394,-18.5 444,-18.5 444,-0.5 394,-0.5"/>
<text text-anchor="middle" x="419" y="-7.3" font-family="Calibri" font-size="9.00">stddef.h</text>
</a>
</g>
</g>
<!-- Node1&#45;&gt;Node4 -->
<g id="edge3" class="edge"><title>Node1&#45;&gt;Node4</title>
<path fill="none" stroke="midnightblue" d="M749.134,-391.855C619.737,-384.337 114,-350.781 114,-285.5 114,-285.5 114,-285.5 114,-228.5 114,-97.2241 303.325,-37.4839 383.648,-18.0457"/>
<polygon fill="midnightblue" stroke="midnightblue" points="384.845,-21.36 393.781,-15.6684 383.246,-14.5451 384.845,-21.36"/>
</g>
<!-- Node5 -->
<g id="node5" class="node"><title>Node5</title>
<g id="a_node5"><a xlink:title=" ">
<polygon fill="none" stroke="#bfbfbf" points="736,-0.5 736,-18.5 784,-18.5 784,-0.5 736,-0.5"/>
<text text-anchor="middle" x="760" y="-7.3" font-family="Calibri" font-size="9.00">stdint.h</text>
</a>
</g>
</g>
<!-- Node1&#45;&gt;Node5 -->
<g id="edge4" class="edge"><title>Node1&#45;&gt;Node5</title>
<path fill="none" stroke="midnightblue" d="M808.798,-393.861C921.045,-394.434 1312,-389.003 1312,-285.5 1312,-285.5 1312,-285.5 1312,-173.5 1312,-64.9849 914.664,-23.2726 794.205,-13.1203"/>
<polygon fill="midnightblue" stroke="midnightblue" points="794.327,-9.61859 784.074,-12.2864 793.753,-16.595 794.327,-9.61859"/>
</g>
<!-- Node6 -->
<g id="node6" class="node"><title>Node6</title>
<g id="a_node6"><a xlink:title=" ">
<polygon fill="none" stroke="#bfbfbf" points="109,-0.5 109,-18.5 157,-18.5 157,-0.5 109,-0.5"/>
<text text-anchor="middle" x="133" y="-7.3" font-family="Calibri" font-size="9.00">stdlib.h</text>
</a>
</g>
</g>
<!-- Node1&#45;&gt;Node6 -->
<g id="edge5" class="edge"><title>Node1&#45;&gt;Node6</title>
<path fill="none" stroke="midnightblue" d="M749.414,-392.576C607.12,-387.751 0,-362.643 0,-285.5 0,-285.5 0,-285.5 0,-118.5 0,-67.3607 59.9893,-36.1987 99.3902,-21.2467"/>
<polygon fill="midnightblue" stroke="midnightblue" points="100.707,-24.4921 108.915,-17.7923 98.3205,-17.9116 100.707,-24.4921"/>
</g>
<!-- Node7 -->
<g id="node7" class="node"><title>Node7</title>
<g id="a_node7"><a xlink:href="extratypes_8h.html" target="_top" xlink:title=" ">
<polygon fill="none" stroke="black" points="750,-220.5 750,-238.5 816,-238.5 816,-220.5 750,-220.5"/>
<text text-anchor="middle" x="783" y="-227.3" font-family="Calibri" font-size="9.00">extratypes.h</text>
</a>
</g>
</g>
<!-- Node1&#45;&gt;Node7 -->
<g id="edge6" class="edge"><title>Node1&#45;&gt;Node7</title>
<path fill="none" stroke="midnightblue" d="M779.204,-385.193C779.822,-360.013 781.684,-284.114 782.549,-248.862"/>
<polygon fill="midnightblue" stroke="midnightblue" points="786.055,-248.68 782.801,-238.597 779.057,-248.508 786.055,-248.68"/>
</g>
<!-- Node8 -->
<g id="node8" class="node"><title>Node8</title>
<g id="a_node8"><a xlink:href="eeprom__map_8h.html" target="_top" xlink:title=" ">
<polygon fill="none" stroke="black" points="529,-55.5 529,-73.5 607,-73.5 607,-55.5 529,-55.5"/>
<text text-anchor="middle" x="568" y="-62.3" font-family="Calibri" font-size="9.00">eeprom_map.h</text>
</a>
</g>
</g>
<!-- Node1&#45;&gt;Node8 -->
<g id="edge35" class="edge"><title>Node1&#45;&gt;Node8</title>
<path fill="none" stroke="midnightblue" d="M749.375,-389.169C718.124,-383.595 668.33,-371.785 631,-349 602.024,-331.314 598.995,-320.676 578,-294 540.445,-246.285 529.703,-225.632 533,-165 534.335,-140.447 530.728,-133.156 539,-110 542.606,-99.9049 548.917,-89.802 554.733,-81.78"/>
<polygon fill="midnightblue" stroke="midnightblue" points="557.608,-83.7829 560.918,-73.7184 552.054,-79.5218 557.608,-83.7829"/>
</g>
<!-- Node9 -->
<g id="node9" class="node"><title>Node9</title>
<g id="a_node9"><a xlink:href="preprocessor_8h.html" target="_top" xlink:title=" ">
<polygon fill="none" stroke="black" points="864.5,-165.5 864.5,-183.5 941.5,-183.5 941.5,-165.5 864.5,-165.5"/>
<text text-anchor="middle" x="903" y="-172.3" font-family="Calibri" font-size="9.00">preprocessor.h</text>
</a>
</g>
</g>
<!-- Node1&#45;&gt;Node9 -->
<g id="edge33" class="edge"><title>Node1&#45;&gt;Node9</title>
<path fill="none" stroke="midnightblue" d="M808.674,-386.611C849.539,-375.29 921.236,-348.363 949,-294 967.068,-258.622 936.984,-214.408 917.531,-191.275"/>
<polygon fill="midnightblue" stroke="midnightblue" points="919.943,-188.717 910.719,-183.504 914.679,-193.331 919.943,-188.717"/>
</g>
<!-- Node10 -->
<g id="node10" class="node"><title>Node10</title>
<g id="a_node10"><a xlink:href="common_8h.html" target="_top" xlink:title=" ">
<polygon fill="none" stroke="black" points="710.5,-110.5 710.5,-128.5 769.5,-128.5 769.5,-110.5 710.5,-110.5"/>
<text text-anchor="middle" x="740" y="-117.3" font-family="Calibri" font-size="9.00">common.h</text>
</a>
</g>
</g>
<!-- Node1&#45;&gt;Node10 -->
<g id="edge34" class="edge"><title>Node1&#45;&gt;Node10</title>
<path fill="none" stroke="midnightblue" d="M749.152,-387.207C707.352,-376.5 633.717,-350.188 609,-294 579.346,-226.589 670.999,-161.146 716.267,-133.832"/>
<polygon fill="midnightblue" stroke="midnightblue" points="718.321,-136.685 725.163,-128.596 714.769,-130.653 718.321,-136.685"/>
</g>
<!-- Node11 -->
<g id="node11" class="node"><title>Node11</title>
<g id="a_node11"><a xlink:href="oled__control_8h.html" target="_top" xlink:title="OLED/LCD control definitions for ATU&#45;100 EXT PIC16F1938.">
<polygon fill="none" stroke="black" points="864,-275.5 864,-293.5 940,-293.5 940,-275.5 864,-275.5"/>
<text text-anchor="middle" x="902" y="-282.3" font-family="Calibri" font-size="9.00">oled_control.h</text>
</a>
</g>
</g>
<!-- Node1&#45;&gt;Node11 -->
<g id="edge36" class="edge"><title>Node1&#45;&gt;Node11</title>
<path fill="none" stroke="midnightblue" d="M794.953,-385.456C810.042,-377.415 832.863,-364.099 850,-349 865.984,-334.918 881.033,-315.627 890.788,-302.014"/>
<polygon fill="midnightblue" stroke="midnightblue" points="893.787,-303.833 896.642,-293.63 888.047,-299.825 893.787,-303.833"/>
</g>
<!-- Node12 -->
<g id="node12" class="node"><title>Node12</title>
<g id="a_node12"><a xlink:href="pic__init_8h.html" target="_top" xlink:title="PIC microcontroller initialization definitions for ATU&#45;100 EXT PIC16F1938.">
<polygon fill="none" stroke="black" points="618.5,-275.5 618.5,-293.5 673.5,-293.5 673.5,-275.5 618.5,-275.5"/>
<text text-anchor="middle" x="646" y="-282.3" font-family="Calibri" font-size="9.00">pic_init.h</text>
</a>
</g>
</g>
<!-- Node1&#45;&gt;Node12 -->
<g id="edge46" class="edge"><title>Node1&#45;&gt;Node12</title>
<path fill="none" stroke="midnightblue" d="M755.16,-385.365C736.046,-378.004 709.318,-365.748 690,-349 674.995,-335.992 662.629,-316.789 654.868,-302.909"/>
<polygon fill="midnightblue" stroke="midnightblue" points="657.858,-301.078 650.059,-293.907 651.684,-304.377 657.858,-301.078"/>
</g>
<!-- Node13 -->
<g id="node13" class="node"><title>Node13</title>
<g id="a_node13"><a xlink:href="main_8h.html" target="_top" xlink:title="ATU&#45;100 EXT firmware definitions for PIC16F1938 main program.">
<polygon fill="none" stroke="black" points="699.5,-330.5 699.5,-348.5 744.5,-348.5 744.5,-330.5 699.5,-330.5"/>
<text text-anchor="middle" x="722" y="-337.3" font-family="Calibri" font-size="9.00">main.h</text>
</a>
</g>
</g>
<!-- Node1&#45;&gt;Node13 -->
<g id="edge56" class="edge"><title>Node1&#45;&gt;Node13</title>
<path fill="none" stroke="midnightblue" d="M770.094,-385.219C761.595,-377.316 748.59,-365.224 738.246,-355.606"/>
<polygon fill="midnightblue" stroke="midnightblue" points="740.364,-352.796 730.657,-348.55 735.597,-357.922 740.364,-352.796"/>
</g>
<!-- Node7&#45;&gt;Node2 -->
<g id="edge7" class="edge"><title>Node7&#45;&gt;Node2</title>
<path fill="none" stroke="midnightblue" d="M816.067,-223.948C854.574,-217.919 919.591,-205.461 972,-184 1059.11,-148.327 1072.82,-123.32 1153,-74 1180.89,-56.8458 1212.92,-36.8557 1233.54,-23.956"/>
<polygon fill="midnightblue" stroke="midnightblue" points="1235.53,-26.8375 1242.15,-18.5637 1231.81,-20.9047 1235.53,-26.8375"/>
</g>
<!-- Node7&#45;&gt;Node3 -->
<g id="edge8" class="edge"><title>Node7&#45;&gt;Node3</title>
<path fill="none" stroke="midnightblue" d="M816.249,-229.222C854.06,-228.147 915.064,-220.337 950,-184 991.332,-141.011 992.494,-64.1155 990.575,-28.9573"/>
<polygon fill="midnightblue" stroke="midnightblue" points="994.05,-28.4743 989.859,-18.7434 987.067,-28.9635 994.05,-28.4743"/>
</g>
<!-- Node7&#45;&gt;Node4 -->
<g id="edge9" class="edge"><title>Node7&#45;&gt;Node4</title>
<path fill="none" stroke="midnightblue" d="M767.045,-220.432C750.025,-211.737 722.357,-197.345 699,-184 600.287,-127.598 486.03,-54.1642 439.903,-24.1659"/>
<polygon fill="midnightblue" stroke="midnightblue" points="441.656,-21.1307 431.367,-18.6041 437.834,-26.9956 441.656,-21.1307"/>
</g>
<!-- Node7&#45;&gt;Node5 -->
<g id="edge10" class="edge"><title>Node7&#45;&gt;Node5</title>
<path fill="none" stroke="midnightblue" d="M783.039,-220.425C783.049,-201.221 782.59,-151.34 778,-110 774.811,-81.2798 768.281,-48.3552 764.025,-28.5077"/>
<polygon fill="midnightblue" stroke="midnightblue" points="767.435,-27.7193 761.877,-18.6995 760.597,-29.2168 767.435,-27.7193"/>
</g>
<!-- Node7&#45;&gt;Node6 -->
<g id="edge11" class="edge"><title>Node7&#45;&gt;Node6</title>
<path fill="none" stroke="midnightblue" d="M757.534,-220.466C686.494,-197.992 480.19,-132.31 310,-74 258.84,-56.4718 199.779,-35.0404 164.463,-22.0959"/>
<polygon fill="midnightblue" stroke="midnightblue" points="165.322,-18.6831 154.728,-18.5226 162.91,-25.2544 165.322,-18.6831"/>
</g>
<!-- Node7&#45;&gt;Node8 -->
<g id="edge12" class="edge"><title>Node7&#45;&gt;Node8</title>
<path fill="none" stroke="midnightblue" d="M772.338,-220.417C738.093,-194.454 630.589,-112.951 586.82,-79.7682"/>
<polygon fill="midnightblue" stroke="midnightblue" points="588.81,-76.8844 578.726,-73.632 584.58,-82.4625 588.81,-76.8844"/>
</g>
<!-- Node7&#45;&gt;Node9 -->
<g id="edge18" class="edge"><title>Node7&#45;&gt;Node9</title>
<path fill="none" stroke="midnightblue" d="M801.225,-220.45C820.961,-211.734 852.666,-197.731 875.447,-187.669"/>
<polygon fill="midnightblue" stroke="midnightblue" points="876.87,-190.867 884.603,-183.625 874.041,-184.464 876.87,-190.867"/>
</g>
<!-- Node7&#45;&gt;Node10 -->
<g id="edge32" class="edge"><title>Node7&#45;&gt;Node10</title>
<path fill="none" stroke="midnightblue" d="M779.768,-220.382C772.858,-203.026 756.507,-161.96 747.064,-138.241"/>
<polygon fill="midnightblue" stroke="midnightblue" points="750.22,-136.708 743.269,-128.712 743.717,-139.297 750.22,-136.708"/>
</g>
<!-- Node8&#45;&gt;Node2 -->
<g id="edge13" class="edge"><title>Node8&#45;&gt;Node2</title>
<path fill="none" stroke="midnightblue" d="M607.154,-60.4794C732.856,-50.7819 1124.1,-20.5983 1228.94,-12.5108"/>
<polygon fill="midnightblue" stroke="midnightblue" points="1229.26,-15.9959 1238.97,-11.737 1228.73,-9.01667 1229.26,-15.9959"/>
</g>
<!-- Node8&#45;&gt;Node3 -->
<g id="edge14" class="edge"><title>Node8&#45;&gt;Node3</title>
<path fill="none" stroke="midnightblue" d="M607.229,-58.5615C687.813,-48.4166 871.096,-25.343 950.799,-15.3091"/>
<polygon fill="midnightblue" stroke="midnightblue" points="951.405,-18.7606 960.89,-14.0388 950.531,-11.8154 951.405,-18.7606"/>
</g>
<!-- Node8&#45;&gt;Node4 -->
<g id="edge15" class="edge"><title>Node8&#45;&gt;Node4</title>
<path fill="none" stroke="midnightblue" d="M545.37,-55.4504C520.319,-46.5395 479.733,-32.1029 451.334,-22.0014"/>
<polygon fill="midnightblue" stroke="midnightblue" points="452.438,-18.6791 441.843,-18.6253 450.092,-25.2743 452.438,-18.6791"/>
</g>
<!-- Node8&#45;&gt;Node5 -->
<g id="edge16" class="edge"><title>Node8&#45;&gt;Node5</title>
<path fill="none" stroke="midnightblue" d="M597.161,-55.4504C631.777,-45.8949 689.411,-29.9855 726.015,-19.8812"/>
<polygon fill="midnightblue" stroke="midnightblue" points="727.037,-23.2301 735.745,-17.1953 725.175,-16.4824 727.037,-23.2301"/>
</g>
<!-- Node8&#45;&gt;Node6 -->
<g id="edge17" class="edge"><title>Node8&#45;&gt;Node6</title>
<path fill="none" stroke="midnightblue" d="M528.629,-58.7031C444.165,-48.4121 246.787,-24.3638 167.184,-14.6649"/>
<polygon fill="midnightblue" stroke="midnightblue" points="167.545,-11.1831 157.195,-13.4479 166.698,-18.1317 167.545,-11.1831"/>
</g>
<!-- Node9&#45;&gt;Node2 -->
<g id="edge19" class="edge"><title>Node9&#45;&gt;Node2</title>
<path fill="none" stroke="midnightblue" d="M920.456,-165.417C977.972,-138.783 1161.71,-53.6977 1229.53,-22.2923"/>
<polygon fill="midnightblue" stroke="midnightblue" points="1231.07,-25.4396 1238.67,-18.0615 1228.13,-19.0876 1231.07,-25.4396"/>
</g>
<!-- Node9&#45;&gt;Node3 -->
<g id="edge20" class="edge"><title>Node9&#45;&gt;Node3</title>
<path fill="none" stroke="midnightblue" d="M905.904,-165.443C913.108,-145.864 932.898,-94.4888 956,-55 961.778,-45.1233 969.313,-34.816 975.723,-26.6112"/>
<polygon fill="midnightblue" stroke="midnightblue" points="978.579,-28.6452 982.102,-18.6534 973.117,-24.267 978.579,-28.6452"/>
</g>
<!-- Node9&#45;&gt;Node4 -->
<g id="edge21" class="edge"><title>Node9&#45;&gt;Node4</title>
<path fill="none" stroke="midnightblue" d="M887.748,-165.388C864.342,-153.022 818.066,-128.902 778,-110 722.738,-83.9296 710.371,-73.0656 652,-55 583.566,-33.8198 500.554,-20.8771 454.372,-14.7563"/>
<polygon fill="midnightblue" stroke="midnightblue" points="454.642,-11.2621 444.275,-13.4495 453.743,-18.2042 454.642,-11.2621"/>
</g>
<!-- Node9&#45;&gt;Node5 -->
<g id="edge22" class="edge"><title>Node9&#45;&gt;Node5</title>
<path fill="none" stroke="midnightblue" d="M899.78,-165.432C891.285,-144.935 866.524,-90.0039 832,-55 819.049,-41.8692 801.491,-30.9175 786.956,-23.1644"/>
<polygon fill="midnightblue" stroke="midnightblue" points="788.417,-19.9801 777.92,-18.5406 785.228,-26.2117 788.417,-19.9801"/>
</g>
<!-- Node9&#45;&gt;Node6 -->
<g id="edge23" class="edge"><title>Node9&#45;&gt;Node6</title>
<path fill="none" stroke="midnightblue" d="M864.483,-166.496C779.742,-150.961 570.839,-111.981 397,-74 314.233,-55.9167 217.567,-31.9283 167.306,-19.2378"/>
<polygon fill="midnightblue" stroke="midnightblue" points="167.861,-15.7677 157.307,-16.7074 166.143,-22.5538 167.861,-15.7677"/>
</g>
<!-- Node9&#45;&gt;Node10 -->
<g id="edge24" class="edge"><title>Node9&#45;&gt;Node10</title>
<path fill="none" stroke="midnightblue" d="M873.234,-165.45C843.758,-156.539 799.136,-142.103 769.694,-132.001"/>
<polygon fill="midnightblue" stroke="midnightblue" points="770.557,-128.596 759.962,-128.625 768.263,-135.21 770.557,-128.596"/>
</g>
<!-- Node10&#45;&gt;Node2 -->
<g id="edge25" class="edge"><title>Node10&#45;&gt;Node2</title>
<path fill="none" stroke="midnightblue" d="M769.538,-112.306C861.457,-93.0295 1141.47,-34.3077 1228.74,-16.0064"/>
<polygon fill="midnightblue" stroke="midnightblue" points="1229.56,-19.4112 1238.63,-13.9332 1228.12,-12.5602 1229.56,-19.4112"/>
</g>
<!-- Node10&#45;&gt;Node3 -->
<g id="edge26" class="edge"><title>Node10&#45;&gt;Node3</title>
<path fill="none" stroke="midnightblue" d="M758.715,-110.382C802.083,-91.5726 909.65,-44.9168 960.936,-22.6723"/>
<polygon fill="midnightblue" stroke="midnightblue" points="962.626,-25.7546 970.407,-18.5644 959.84,-19.3327 962.626,-25.7546"/>
</g>
<!-- Node10&#45;&gt;Node4 -->
<g id="edge27" class="edge"><title>Node10&#45;&gt;Node4</title>
<path fill="none" stroke="midnightblue" d="M726.743,-110.292C704.588,-96.9045 658.294,-70.3294 616,-55 561.077,-35.0934 494.201,-22.2492 454.194,-15.7066"/>
<polygon fill="midnightblue" stroke="midnightblue" points="454.567,-12.2218 444.14,-14.103 453.464,-19.1345 454.567,-12.2218"/>
</g>
<!-- Node10&#45;&gt;Node5 -->
<g id="edge28" class="edge"><title>Node10&#45;&gt;Node5</title>
<path fill="none" stroke="midnightblue" d="M741.503,-110.382C744.703,-93.104 752.254,-52.3294 756.655,-28.5629"/>
<polygon fill="midnightblue" stroke="midnightblue" points="760.1,-29.1819 758.479,-18.7118 753.217,-27.9072 760.1,-29.1819"/>
</g>
<!-- Node10&#45;&gt;Node6 -->
<g id="edge29" class="edge"><title>Node10&#45;&gt;Node6</title>
<path fill="none" stroke="midnightblue" d="M710.312,-113.218C608.727,-95.1434 275.359,-35.8292 167.209,-16.5865"/>
<polygon fill="midnightblue" stroke="midnightblue" points="167.629,-13.1064 157.17,-14.8005 166.403,-19.9982 167.629,-13.1064"/>
</g>
<!-- Node10&#45;&gt;Node8 -->
<g id="edge30" class="edge"><title>Node10&#45;&gt;Node8</title>
<path fill="none" stroke="midnightblue" d="M713.877,-110.45C684.494,-101.396 636.599,-86.6382 603.758,-76.5185"/>
<polygon fill="midnightblue" stroke="midnightblue" points="604.674,-73.1383 594.087,-73.5383 602.612,-79.8279 604.674,-73.1383"/>
</g>
<!-- Node10&#45;&gt;Node9 -->
<g id="edge31" class="edge"><title>Node10&#45;&gt;Node9</title>
<path fill="none" stroke="midnightblue" d="M769.728,-128.538C799.278,-137.471 844.074,-151.965 873.526,-162.074"/>
<polygon fill="midnightblue" stroke="midnightblue" points="872.658,-165.478 883.253,-165.45 874.954,-158.865 872.658,-165.478"/>
</g>
<!-- Node11&#45;&gt;Node2 -->
<g id="edge37" class="edge"><title>Node11&#45;&gt;Node2</title>
<path fill="none" stroke="midnightblue" d="M940.222,-281.951C1006.54,-278.516 1139.17,-268.112 1174,-239 1239.52,-184.245 1252.06,-72.7745 1254.45,-28.8649"/>
<polygon fill="midnightblue" stroke="midnightblue" points="1257.95,-28.9399 1254.87,-18.8006 1250.95,-28.6434 1257.95,-28.9399"/>
</g>
<!-- Node11&#45;&gt;Node3 -->
<g id="edge38" class="edge"><title>Node11&#45;&gt;Node3</title>
<path fill="none" stroke="midnightblue" d="M940.051,-278.105C982.02,-271.285 1045.55,-258.084 1060,-239 1109.37,-173.806 1099.6,-126.551 1060,-55 1051.85,-40.278 1036.57,-29.7752 1022.27,-22.6843"/>
<polygon fill="midnightblue" stroke="midnightblue" points="1023.65,-19.466 1013.1,-18.5072 1020.75,-25.8367 1023.65,-19.466"/>
</g>
<!-- Node11&#45;&gt;Node4 -->
<g id="edge39" class="edge"><title>Node11&#45;&gt;Node4</title>
<path fill="none" stroke="midnightblue" d="M863.708,-279.302C823.848,-273.878 760.33,-262.228 710,-239 589.162,-183.232 473.311,-68.0637 433.525,-26.1718"/>
<polygon fill="midnightblue" stroke="midnightblue" points="436.003,-23.6978 426.603,-18.8098 430.903,-28.4928 436.003,-23.6978"/>
</g>
<!-- Node11&#45;&gt;Node5 -->
<g id="edge40" class="edge"><title>Node11&#45;&gt;Node5</title>
<path fill="none" stroke="midnightblue" d="M940.276,-277.815C966.356,-272.1 1000.01,-260.849 1022,-239 1043.4,-217.733 1046,-205.671 1046,-175.5 1046,-175.5 1046,-175.5 1046,-118.5 1046,-65.2746 870.449,-29.1576 794.423,-16.0118"/>
<polygon fill="midnightblue" stroke="midnightblue" points="794.829,-12.5308 784.384,-14.31 793.658,-19.4323 794.829,-12.5308"/>
</g>
<!-- Node11&#45;&gt;Node6 -->
<g id="edge41" class="edge"><title>Node11&#45;&gt;Node6</title>
<path fill="none" stroke="midnightblue" d="M863.712,-278.393C817.291,-271.692 736.952,-258.451 670,-239 478.202,-183.279 433.289,-157.817 252,-74 217.813,-58.194 179.61,-37.1834 155.933,-23.7474"/>
<polygon fill="midnightblue" stroke="midnightblue" points="157.441,-20.5783 147.022,-18.6586 153.97,-26.657 157.441,-20.5783"/>
</g>
<!-- Node11&#45;&gt;Node7 -->
<g id="edge42" class="edge"><title>Node11&#45;&gt;Node7</title>
<path fill="none" stroke="midnightblue" d="M883.926,-275.45C864.443,-266.773 833.195,-252.856 810.626,-242.804"/>
<polygon fill="midnightblue" stroke="midnightblue" points="811.803,-239.497 801.244,-238.625 808.955,-245.891 811.803,-239.497"/>
</g>
<!-- Node11&#45;&gt;Node8 -->
<g id="edge45" class="edge"><title>Node11&#45;&gt;Node8</title>
<path fill="none" stroke="midnightblue" d="M863.831,-278.422C829.844,-272.668 779.661,-261.064 741,-239 668.059,-197.372 604.726,-116.755 579.567,-82.049"/>
<polygon fill="midnightblue" stroke="midnightblue" points="582.161,-79.6592 573.506,-73.5482 576.461,-83.7227 582.161,-79.6592"/>
</g>
<!-- Node11&#45;&gt;Node9 -->
<g id="edge43" class="edge"><title>Node11&#45;&gt;Node9</title>
<path fill="none" stroke="midnightblue" d="M902.075,-275.382C902.234,-258.182 902.609,-217.698 902.83,-193.887"/>
<polygon fill="midnightblue" stroke="midnightblue" points="906.331,-193.744 902.924,-183.712 899.331,-193.679 906.331,-193.744"/>
</g>
<!-- Node11&#45;&gt;Node10 -->
<g id="edge44" class="edge"><title>Node11&#45;&gt;Node10</title>
<path fill="none" stroke="midnightblue" d="M893.744,-275.193C867.957,-249.247 788.647,-169.448 755.165,-135.759"/>
<polygon fill="midnightblue" stroke="midnightblue" points="757.579,-133.223 748.047,-128.597 752.614,-138.157 757.579,-133.223"/>
</g>
<!-- Node12&#45;&gt;Node2 -->
<g id="edge47" class="edge"><title>Node12&#45;&gt;Node2</title>
<path fill="none" stroke="midnightblue" d="M673.729,-284.032C729.448,-284.146 858.039,-279.553 956,-239 1020.33,-212.37 1184.8,-71.6966 1238.07,-25.334"/>
<polygon fill="midnightblue" stroke="midnightblue" points="1240.66,-27.7159 1245.9,-18.5038 1236.06,-22.4417 1240.66,-27.7159"/>
</g>
<!-- Node12&#45;&gt;Node3 -->
<g id="edge48" class="edge"><title>Node12&#45;&gt;Node3</title>
<path fill="none" stroke="midnightblue" d="M673.506,-281.268C757.984,-273.664 1008,-245.266 1008,-175.5 1008,-175.5 1008,-175.5 1008,-118.5 1008,-86.3861 999.751,-49.7022 994.123,-28.4139"/>
<polygon fill="midnightblue" stroke="midnightblue" points="997.435,-27.2562 991.406,-18.5437 990.686,-29.114 997.435,-27.2562"/>
</g>
<!-- Node12&#45;&gt;Node4 -->
<g id="edge49" class="edge"><title>Node12&#45;&gt;Node4</title>
<path fill="none" stroke="midnightblue" d="M618.238,-282.324C545.822,-277.52 352.342,-253.099 288,-129 262.368,-79.5626 339.007,-40.6381 385.73,-22.1858"/>
<polygon fill="midnightblue" stroke="midnightblue" points="387.109,-25.4054 395.198,-18.5626 384.607,-18.8678 387.109,-25.4054"/>
</g>
<!-- Node12&#45;&gt;Node5 -->
<g id="edge50" class="edge"><title>Node12&#45;&gt;Node5</title>
<path fill="none" stroke="midnightblue" d="M627.123,-275.477C611.28,-267.963 588.909,-255.434 574,-239 516.736,-175.878 465.505,-120.528 520,-55 545.753,-24.0328 665.585,-14.5187 725.584,-11.6723"/>
<polygon fill="midnightblue" stroke="midnightblue" points="725.874,-15.163 735.711,-11.2285 725.567,-8.16974 725.874,-15.163"/>
</g>
<!-- Node12&#45;&gt;Node6 -->
<g id="edge51" class="edge"><title>Node12&#45;&gt;Node6</title>
<path fill="none" stroke="midnightblue" d="M618.386,-280.164C516.433,-267.215 163.901,-216.597 102,-129 83.0127,-102.131 89.6804,-86.2406 100,-55 103.5,-44.4031 110.607,-34.2704 117.332,-26.3582"/>
<polygon fill="midnightblue" stroke="midnightblue" points="120.138,-28.4746 124.29,-18.7271 114.966,-23.7581 120.138,-28.4746"/>
</g>
<!-- Node12&#45;&gt;Node7 -->
<g id="edge52" class="edge"><title>Node12&#45;&gt;Node7</title>
<path fill="none" stroke="midnightblue" d="M666.807,-275.45C689.64,-266.617 726.508,-252.355 752.583,-242.267"/>
<polygon fill="midnightblue" stroke="midnightblue" points="753.933,-245.498 761.997,-238.625 751.408,-238.969 753.933,-245.498"/>
</g>
<!-- Node12&#45;&gt;Node8 -->
<g id="edge55" class="edge"><title>Node12&#45;&gt;Node8</title>
<path fill="none" stroke="midnightblue" d="M634.778,-275.485C614.601,-260.318 572.742,-225.218 556,-184 542.301,-150.274 553.117,-106.897 561.21,-83.0899"/>
<polygon fill="midnightblue" stroke="midnightblue" points="564.52,-84.2277 564.639,-73.6335 557.939,-81.8414 564.52,-84.2277"/>
</g>
<!-- Node12&#45;&gt;Node9 -->
<g id="edge53" class="edge"><title>Node12&#45;&gt;Node9</title>
<path fill="none" stroke="midnightblue" d="M655.897,-275.293C672.497,-261.909 707.439,-235.337 741,-220 777.542,-203.301 821.664,-191.688 854.628,-184.524"/>
<polygon fill="midnightblue" stroke="midnightblue" points="855.418,-187.934 864.479,-182.442 853.971,-181.085 855.418,-187.934"/>
</g>
<!-- Node12&#45;&gt;Node10 -->
<g id="edge54" class="edge"><title>Node12&#45;&gt;Node10</title>
<path fill="none" stroke="midnightblue" d="M649.825,-275.235C659.009,-255.621 683.376,-204.918 708,-165 713.944,-155.365 721.274,-145.075 727.418,-136.819"/>
<polygon fill="midnightblue" stroke="midnightblue" points="730.254,-138.872 733.499,-128.786 724.673,-134.647 730.254,-138.872"/>
</g>
<!-- Node13&#45;&gt;Node2 -->
<g id="edge57" class="edge"><title>Node13&#45;&gt;Node2</title>
<path fill="none" stroke="midnightblue" d="M744.949,-339.155C807.578,-340.271 986.031,-338.959 1125,-294 1172.15,-278.745 1191.7,-278.218 1222,-239 1268.4,-178.94 1256.14,-149.253 1266,-74 1268.02,-58.5556 1264.59,-41.1295 1261.04,-28.4447"/>
<polygon fill="midnightblue" stroke="midnightblue" points="1264.32,-27.2065 1258.02,-18.6869 1257.64,-29.2746 1264.32,-27.2065"/>
</g>
<!-- Node13&#45;&gt;Node3 -->
<g id="edge58" class="edge"><title>Node13&#45;&gt;Node3</title>
<path fill="none" stroke="midnightblue" d="M744.731,-337.414C831.512,-332.749 1139.98,-311.239 1198,-239 1223.61,-207.121 1272.26,-217.723 1080,-55 1063.16,-40.7464 1040.97,-29.7761 1022.72,-22.2942"/>
<polygon fill="midnightblue" stroke="midnightblue" points="1023.9,-18.9983 1013.32,-18.5993 1021.34,-25.5136 1023.9,-18.9983"/>
</g>
<!-- Node13&#45;&gt;Node4 -->
<g id="edge59" class="edge"><title>Node13&#45;&gt;Node4</title>
<path fill="none" stroke="midnightblue" d="M699.046,-336.26C630.712,-328.415 426.214,-296.234 311,-184 269.69,-143.759 256.909,-96.4556 297,-55 319.931,-31.2882 356.5,-20.1447 383.629,-14.9485"/>
<polygon fill="midnightblue" stroke="midnightblue" points="384.261,-18.3913 393.516,-13.2344 383.065,-11.4942 384.261,-18.3913"/>
</g>
<!-- Node13&#45;&gt;Node5 -->
<g id="edge60" class="edge"><title>Node13&#45;&gt;Node5</title>
<path fill="none" stroke="midnightblue" d="M699.367,-333.671C614.695,-314.503 325.288,-238.518 402,-110 428.398,-65.7754 455.331,-71.851 504,-55 580.45,-28.5304 675.423,-17.3081 725.447,-12.9606"/>
<polygon fill="midnightblue" stroke="midnightblue" points="726.03,-16.4244 735.708,-12.1113 725.453,-9.44821 726.03,-16.4244"/>
</g>
<!-- Node13&#45;&gt;Node6 -->
<g id="edge61" class="edge"><title>Node13&#45;&gt;Node6</title>
<path fill="none" stroke="midnightblue" d="M699.395,-337.233C618.026,-331.74 334.807,-304.476 144,-184 114.769,-165.544 102.229,-160.938 89,-129 84.2798,-117.604 77.8208,-84.36 90,-55 94.8535,-43.2998 104.358,-32.9376 113.199,-25.1627"/>
<polygon fill="midnightblue" stroke="midnightblue" points="115.464,-27.8317 120.98,-18.7858 111.027,-22.4176 115.464,-27.8317"/>
</g>
<!-- Node13&#45;&gt;Node7 -->
<g id="edge62" class="edge"><title>Node13&#45;&gt;Node7</title>
<path fill="none" stroke="midnightblue" d="M726.585,-330.382C736.476,-312.869 760.002,-271.218 773.339,-247.605"/>
<polygon fill="midnightblue" stroke="midnightblue" points="776.491,-249.14 778.362,-238.712 770.396,-245.698 776.491,-249.14"/>
</g>
<!-- Node13&#45;&gt;Node8 -->
<g id="edge65" class="edge"><title>Node13&#45;&gt;Node8</title>
<path fill="none" stroke="midnightblue" d="M699.236,-333.696C659.8,-323.932 580.456,-297.537 554,-239 530.353,-186.678 534.444,-166.028 547,-110 549.152,-100.399 553.618,-90.4303 557.88,-82.3675"/>
<polygon fill="midnightblue" stroke="midnightblue" points="560.944,-84.0603 562.809,-73.6311 554.847,-80.6206 560.944,-84.0603"/>
</g>
<!-- Node13&#45;&gt;Node9 -->
<g id="edge63" class="edge"><title>Node13&#45;&gt;Node9</title>
<path fill="none" stroke="midnightblue" d="M731.225,-330.193C760.158,-304.137 849.396,-223.773 886.527,-190.335"/>
<polygon fill="midnightblue" stroke="midnightblue" points="888.92,-192.89 894.009,-183.597 884.236,-187.688 888.92,-192.89"/>
</g>
<!-- Node13&#45;&gt;Node10 -->
<g id="edge64" class="edge"><title>Node13&#45;&gt;Node10</title>
<path fill="none" stroke="midnightblue" d="M722.662,-330.483C725.253,-299.107 734.744,-184.159 738.477,-138.944"/>
<polygon fill="midnightblue" stroke="midnightblue" points="741.978,-139.077 739.313,-128.823 735.002,-138.501 741.978,-139.077"/>
</g>
<!-- Node13&#45;&gt;Node12 -->
<g id="edge66" class="edge"><title>Node13&#45;&gt;Node12</title>
<path fill="none" stroke="midnightblue" d="M710.457,-330.45C698.739,-322.279 680.358,-309.46 666.218,-299.6"/>
<polygon fill="midnightblue" stroke="midnightblue" points="667.856,-296.475 657.651,-293.625 663.852,-302.216 667.856,-296.475"/>
</g>
</g>
</svg>
