<?xml version="1.0" encoding="UTF-8" standalone="no"?>
<!DOCTYPE svg PUBLIC "-//W3C//DTD SVG 1.1//EN"
 "http://www.w3.org/Graphics/SVG/1.1/DTD/svg11.dtd">
<!-- Generated by graphviz version 2.38.0 (20140413.2041)
 -->
<!-- Title: ADC_Initialize Pages: 1 -->
<svg width="255pt" height="64pt"
 viewBox="0.00 0.00 255.00 64.00" xmlns="http://www.w3.org/2000/svg" xmlns:xlink="http://www.w3.org/1999/xlink">
<g id="graph0" class="graph" transform="scale(1 1) rotate(0) translate(4 60)">
<title>ADC_Initialize</title>
<!-- Node1 -->
<g id="node1" class="node"><title>Node1</title>
<g id="a_node1"><a xlink:title=" ">
<polygon fill="#bfbfbf" stroke="black" points="0,-18.5 0,-36.5 74,-36.5 74,-18.5 0,-18.5"/>
<text text-anchor="middle" x="37" y="-25.3" font-family="Calibri" font-size="9.00">ADC_Initialize</text>
</a>
</g>
</g>
<!-- Node2 -->
<g id="node2" class="node"><title>Node2</title>
<g id="a_node2"><a xlink:href="mcc__generated__files_2adc_8c.html#a93877141ffb34f4b2090baab6554a001" target="_top" xlink:title=" ">
<polygon fill="none" stroke="black" points="110,-37.5 110,-55.5 247,-55.5 247,-37.5 110,-37.5"/>
<text text-anchor="middle" x="178.5" y="-44.3" font-family="Calibri" font-size="9.00">ADC_DefaultInterruptHandler</text>
</a>
</g>
</g>
<!-- Node1&#45;&gt;Node2 -->
<g id="edge1" class="edge"><title>Node1&#45;&gt;Node2</title>
<path fill="none" stroke="midnightblue" d="M74.2878,-32.4424C82.647,-33.581 91.8466,-34.8339 101.205,-36.1085"/>
<polygon fill="midnightblue" stroke="midnightblue" points="101.008,-39.614 111.389,-37.4957 101.953,-32.6781 101.008,-39.614"/>
</g>
<!-- Node3 -->
<g id="node3" class="node"><title>Node3</title>
<g id="a_node3"><a xlink:href="mcc__generated__files_2adc_8c.html#a853bf4f29c400aa205e0474a03f64e32" target="_top" xlink:title=" ">
<polygon fill="none" stroke="black" points="119,-0.5 119,-18.5 238,-18.5 238,-0.5 119,-0.5"/>
<text text-anchor="middle" x="178.5" y="-7.3" font-family="Calibri" font-size="9.00">ADC_SetInterruptHandler</text>
</a>
</g>
</g>
<!-- Node1&#45;&gt;Node3 -->
<g id="edge2" class="edge"><title>Node1&#45;&gt;Node3</title>
<path fill="none" stroke="midnightblue" d="M74.2878,-22.8177C84.9466,-21.4424 96.9716,-19.8908 108.949,-18.3452"/>
<polygon fill="midnightblue" stroke="midnightblue" points="109.499,-21.8035 118.969,-17.0524 108.603,-14.861 109.499,-21.8035"/>
</g>
</g>
</svg>
