<?xml version="1.0" encoding="UTF-8" standalone="no"?>
<!DOCTYPE svg PUBLIC "-//W3C//DTD SVG 1.1//EN"
 "http://www.w3.org/Graphics/SVG/1.1/DTD/svg11.dtd">
<!-- Generated by graphviz version 2.38.0 (20140413.2041)
 -->
<!-- Title: show_pwr Pages: 1 -->
<svg width="573pt" height="170pt"
 viewBox="0.00 0.00 573.00 170.19" xmlns="http://www.w3.org/2000/svg" xmlns:xlink="http://www.w3.org/1999/xlink">
<g id="graph0" class="graph" transform="scale(1 1) rotate(0) translate(4 166.194)">
<title>show_pwr</title>
<!-- Node1 -->
<g id="node1" class="node"><title>Node1</title>
<g id="a_node1"><a xlink:title=" ">
<polygon fill="#bfbfbf" stroke="black" points="0,-74.4684 0,-92.4684 58,-92.4684 58,-74.4684 0,-74.4684"/>
<text text-anchor="middle" x="29" y="-81.2684" font-family="Calibri" font-size="9.00">show_pwr</text>
</a>
</g>
</g>
<!-- Node2 -->
<g id="node2" class="node"><title>Node2</title>
<g id="a_node2"><a xlink:href="src_2main_8c.html#a6911b3f075cdf1d54cb14f17f6e5ef6b" target="_top" xlink:title=" ">
<polygon fill="none" stroke="black" points="94,-55.4684 94,-73.4684 141,-73.4684 141,-55.4684 94,-55.4684"/>
<text text-anchor="middle" x="117.5" y="-62.2684" font-family="Calibri" font-size="9.00">lcd_ind</text>
</a>
</g>
</g>
<!-- Node1&#45;&gt;Node2 -->
<g id="edge1" class="edge"><title>Node1&#45;&gt;Node2</title>
<path fill="none" stroke="midnightblue" d="M58.3233,-77.2471C66.5201,-75.4467 75.5322,-73.4672 83.9644,-71.615"/>
<polygon fill="midnightblue" stroke="midnightblue" points="84.8522,-75.0035 93.8685,-69.4395 83.3504,-68.1665 84.8522,-75.0035"/>
</g>
<!-- Node3 -->
<g id="node3" class="node"><title>Node3</title>
<g id="a_node3"><a xlink:href="oled__control_8c.html#a1c8eef09adf01c9a7e3c6188f25c3c48" target="_top" xlink:title=" ">
<polygon fill="none" stroke="black" points="177,-74.4684 177,-92.4684 236,-92.4684 236,-74.4684 177,-74.4684"/>
<text text-anchor="middle" x="206.5" y="-81.2684" font-family="Calibri" font-size="9.00">led_wr_str</text>
</a>
</g>
</g>
<!-- Node1&#45;&gt;Node3 -->
<g id="edge14" class="edge"><title>Node1&#45;&gt;Node3</title>
<path fill="none" stroke="midnightblue" d="M58.1971,-83.4684C87.5742,-83.4684 133.812,-83.4684 166.641,-83.4684"/>
<polygon fill="midnightblue" stroke="midnightblue" points="166.79,-86.9685 176.79,-83.4684 166.79,-79.9685 166.79,-86.9685"/>
</g>
<!-- Node2&#45;&gt;Node3 -->
<g id="edge2" class="edge"><title>Node2&#45;&gt;Node3</title>
<path fill="none" stroke="midnightblue" d="M141.358,-69.4605C149.174,-71.1674 158.148,-73.1272 166.858,-75.0294"/>
<polygon fill="midnightblue" stroke="midnightblue" points="166.361,-78.5032 176.877,-77.2175 167.854,-71.6644 166.361,-78.5032"/>
</g>
<!-- Node4 -->
<g id="node4" class="node"><title>Node4</title>
<g id="a_node4"><a xlink:href="oled__control_8c.html#a3d35666326cc069eda3b63c70983fdbc" target="_top" xlink:title=" ">
<polygon fill="none" stroke="black" points="277,-112.468 277,-130.468 332,-130.468 332,-112.468 277,-112.468"/>
<text text-anchor="middle" x="304.5" y="-119.268" font-family="Calibri" font-size="9.00">led_send</text>
</a>
</g>
</g>
<!-- Node3&#45;&gt;Node4 -->
<g id="edge3" class="edge"><title>Node3&#45;&gt;Node4</title>
<path fill="none" stroke="midnightblue" d="M230.251,-92.4739C242.476,-97.313 257.755,-103.361 271.192,-108.68"/>
<polygon fill="midnightblue" stroke="midnightblue" points="269.994,-111.97 280.58,-112.396 272.57,-105.461 269.994,-111.97"/>
</g>
<!-- Node8 -->
<g id="node8" class="node"><title>Node8</title>
<g id="a_node8"><a xlink:href="oled__control_8c.html#a6e85fd05697e2238e4d9babf1c952772" target="_top" xlink:title=" ">
<polygon fill="none" stroke="black" points="272,-55.4684 272,-73.4684 337,-73.4684 337,-55.4684 272,-55.4684"/>
<text text-anchor="middle" x="304.5" y="-62.2684" font-family="Calibri" font-size="9.00">oled_wr_str</text>
</a>
</g>
</g>
<!-- Node3&#45;&gt;Node8 -->
<g id="edge7" class="edge"><title>Node3&#45;&gt;Node8</title>
<path fill="none" stroke="midnightblue" d="M236.043,-77.8193C244.147,-76.2154 253.142,-74.4352 261.852,-72.7112"/>
<polygon fill="midnightblue" stroke="midnightblue" points="262.747,-76.1022 271.877,-70.7272 261.388,-69.2354 262.747,-76.1022"/>
</g>
<!-- Node5 -->
<g id="node5" class="node"><title>Node5</title>
<g id="a_node5"><a xlink:href="oled__control_8c.html#ab7f6b5c6c1483f6286f2de5786c028d9" target="_top" xlink:title=" ">
<polygon fill="none" stroke="black" points="491,-17.4684 491,-35.4684 563,-35.4684 563,-17.4684 491,-17.4684"/>
<text text-anchor="middle" x="527" y="-24.2684" font-family="Calibri" font-size="9.00">Soft_I2C_Start</text>
</a>
</g>
</g>
<!-- Node4&#45;&gt;Node5 -->
<g id="edge4" class="edge"><title>Node4&#45;&gt;Node5</title>
<path fill="none" stroke="midnightblue" d="M332.078,-129.418C363.552,-137.154 416.322,-144.679 453,-121.468 484.583,-101.482 462.998,-72.3168 489,-45.4684 490.551,-43.8669 492.266,-42.3753 494.083,-40.9904"/>
<polygon fill="midnightblue" stroke="midnightblue" points="495.977,-43.9337 502.509,-35.5921 492.201,-38.0396 495.977,-43.9337"/>
</g>
<!-- Node6 -->
<g id="node6" class="node"><title>Node6</title>
<g id="a_node6"><a xlink:href="oled__control_8c.html#a16eb842aa672ca44820ae6d5f9933425" target="_top" xlink:title=" ">
<polygon fill="none" stroke="black" points="377.5,-93.4684 377.5,-111.468 448.5,-111.468 448.5,-93.4684 377.5,-93.4684"/>
<text text-anchor="middle" x="413" y="-100.268" font-family="Calibri" font-size="9.00">Soft_I2C_Stop</text>
</a>
</g>
</g>
<!-- Node4&#45;&gt;Node6 -->
<g id="edge5" class="edge"><title>Node4&#45;&gt;Node6</title>
<path fill="none" stroke="midnightblue" d="M332.1,-116.723C342.785,-114.817 355.4,-112.566 367.411,-110.423"/>
<polygon fill="midnightblue" stroke="midnightblue" points="368.072,-113.861 377.302,-108.659 366.842,-106.97 368.072,-113.861"/>
</g>
<!-- Node7 -->
<g id="node7" class="node"><title>Node7</title>
<g id="a_node7"><a xlink:href="oled__control_8c.html#a73610916645f17c19124e697b005f694" target="_top" xlink:title=" ">
<polygon fill="none" stroke="black" points="489,-55.4684 489,-73.4684 565,-73.4684 565,-55.4684 489,-55.4684"/>
<text text-anchor="middle" x="527" y="-62.2684" font-family="Calibri" font-size="9.00">Soft_I2C_Write</text>
</a>
</g>
</g>
<!-- Node4&#45;&gt;Node7 -->
<g id="edge6" class="edge"><title>Node4&#45;&gt;Node7</title>
<path fill="none" stroke="midnightblue" d="M320.019,-130.688C347.29,-146.742 407.517,-176.14 453,-154.468 484.045,-139.676 506.177,-104.514 517.459,-82.7782"/>
<polygon fill="midnightblue" stroke="midnightblue" points="520.704,-84.1117 521.994,-73.5957 514.427,-81.0115 520.704,-84.1117"/>
</g>
<!-- Node8&#45;&gt;Node5 -->
<g id="edge11" class="edge"><title>Node8&#45;&gt;Node5</title>
<path fill="none" stroke="midnightblue" d="M312.588,-55.3372C323.727,-41.8215 346.783,-17.0571 373,-7.46845 413.036,7.17429 462.474,-3.75588 494.12,-14.1072"/>
<polygon fill="midnightblue" stroke="midnightblue" points="493.141,-17.4715 503.735,-17.4146 495.418,-10.8521 493.141,-17.4715"/>
</g>
<!-- Node8&#45;&gt;Node6 -->
<g id="edge12" class="edge"><title>Node8&#45;&gt;Node6</title>
<path fill="none" stroke="midnightblue" d="M330.739,-73.4739C344.565,-78.407 361.912,-84.5966 377.024,-89.9888"/>
<polygon fill="midnightblue" stroke="midnightblue" points="375.978,-93.3317 386.573,-93.3959 378.331,-86.7389 375.978,-93.3317"/>
</g>
<!-- Node8&#45;&gt;Node7 -->
<g id="edge13" class="edge"><title>Node8&#45;&gt;Node7</title>
<path fill="none" stroke="midnightblue" d="M337.092,-64.4684C374.166,-64.4684 436.001,-64.4684 478.776,-64.4684"/>
<polygon fill="midnightblue" stroke="midnightblue" points="478.944,-67.9685 488.944,-64.4684 478.944,-60.9685 478.944,-67.9685"/>
</g>
<!-- Node9 -->
<g id="node9" class="node"><title>Node9</title>
<g id="a_node9"><a xlink:href="oled__control_8c.html#a3cf32ac4d3d7c92be54c385c1ed8cc76" target="_top" xlink:title=" ">
<polygon fill="none" stroke="black" points="373,-17.4684 373,-35.4684 453,-35.4684 453,-17.4684 373,-17.4684"/>
<text text-anchor="middle" x="413" y="-24.2684" font-family="Calibri" font-size="9.00">set_addressing</text>
</a>
</g>
</g>
<!-- Node8&#45;&gt;Node9 -->
<g id="edge8" class="edge"><title>Node8&#45;&gt;Node9</title>
<path fill="none" stroke="midnightblue" d="M330.739,-55.463C344.565,-50.5299 361.912,-44.3403 377.024,-38.9481"/>
<polygon fill="midnightblue" stroke="midnightblue" points="378.331,-42.198 386.573,-35.541 375.978,-35.6051 378.331,-42.198"/>
</g>
<!-- Node9&#45;&gt;Node5 -->
<g id="edge9" class="edge"><title>Node9&#45;&gt;Node5</title>
<path fill="none" stroke="midnightblue" d="M453.172,-26.4684C462.064,-26.4684 471.579,-26.4684 480.701,-26.4684"/>
<polygon fill="midnightblue" stroke="midnightblue" points="480.779,-29.9685 490.779,-26.4684 480.779,-22.9685 480.779,-29.9685"/>
</g>
<!-- Node9&#45;&gt;Node7 -->
<g id="edge10" class="edge"><title>Node9&#45;&gt;Node7</title>
<path fill="none" stroke="midnightblue" d="M440.542,-35.4739C455.22,-40.4539 473.673,-46.7146 489.671,-52.1427"/>
<polygon fill="midnightblue" stroke="midnightblue" points="488.666,-55.4973 499.26,-55.3959 490.915,-48.8685 488.666,-55.4973"/>
</g>
</g>
</svg>
