<?xml version="1.0" encoding="UTF-8" standalone="no"?>
<!DOCTYPE svg PUBLIC "-//W3C//DTD SVG 1.1//EN"
 "http://www.w3.org/Graphics/SVG/1.1/DTD/svg11.dtd">
<!-- Generated by graphviz version 2.38.0 (20140413.2041)
 -->
<!-- Title: src/adc.c Pages: 1 -->
<svg width="196pt" height="137pt"
 viewBox="0.00 0.00 196.00 137.00" xmlns="http://www.w3.org/2000/svg" xmlns:xlink="http://www.w3.org/1999/xlink">
<g id="graph0" class="graph" transform="scale(1 1) rotate(0) translate(4 133)">
<title>src/adc.c</title>
<!-- Node1 -->
<g id="node1" class="node"><title>Node1</title>
<g id="a_node1"><a xlink:title=" ">
<polygon fill="#bfbfbf" stroke="black" points="45,-110.5 45,-128.5 97,-128.5 97,-110.5 45,-110.5"/>
<text text-anchor="middle" x="71" y="-117.3" font-family="Calibri" font-size="9.00">src/adc.c</text>
</a>
</g>
</g>
<!-- Node2 -->
<g id="node2" class="node"><title>Node2</title>
<g id="a_node2"><a xlink:title=" ">
<polygon fill="none" stroke="#bfbfbf" points="0,-0.5 0,-18.5 32,-18.5 32,-0.5 0,-0.5"/>
<text text-anchor="middle" x="16" y="-7.3" font-family="Calibri" font-size="9.00">xc.h</text>
</a>
</g>
</g>
<!-- Node1&#45;&gt;Node2 -->
<g id="edge1" class="edge"><title>Node1&#45;&gt;Node2</title>
<path fill="none" stroke="midnightblue" d="M65.2186,-110.207C59.2448,-101.443 49.8523,-87.1035 43,-74 35.1067,-58.906 27.6523,-40.9898 22.5843,-28.0428"/>
<polygon fill="midnightblue" stroke="midnightblue" points="25.7771,-26.5932 18.9312,-18.5071 19.2404,-29.0974 25.7771,-26.5932"/>
</g>
<!-- Node3 -->
<g id="node3" class="node"><title>Node3</title>
<g id="a_node3"><a xlink:href="adc_8h.html" target="_top" xlink:title=" ">
<polygon fill="none" stroke="black" points="52,-55.5 52,-73.5 90,-73.5 90,-55.5 52,-55.5"/>
<text text-anchor="middle" x="71" y="-62.3" font-family="Calibri" font-size="9.00">adc.h</text>
</a>
</g>
</g>
<!-- Node1&#45;&gt;Node3 -->
<g id="edge2" class="edge"><title>Node1&#45;&gt;Node3</title>
<path fill="none" stroke="midnightblue" d="M71,-110.219C71,-103.177 71,-92.8083 71,-83.8277"/>
<polygon fill="midnightblue" stroke="midnightblue" points="74.5001,-83.5495 71,-73.5496 67.5001,-83.5496 74.5001,-83.5495"/>
</g>
<!-- Node6 -->
<g id="node6" class="node"><title>Node6</title>
<g id="a_node6"><a xlink:href="device__config_8h.html" target="_top" xlink:title=" ">
<polygon fill="none" stroke="black" points="108,-55.5 108,-73.5 188,-73.5 188,-55.5 108,-55.5"/>
<text text-anchor="middle" x="148" y="-62.3" font-family="Calibri" font-size="9.00">device_config.h</text>
</a>
</g>
</g>
<!-- Node1&#45;&gt;Node6 -->
<g id="edge6" class="edge"><title>Node1&#45;&gt;Node6</title>
<path fill="none" stroke="midnightblue" d="M82.6946,-110.45C94.6797,-102.201 113.545,-89.2158 127.924,-79.3187"/>
<polygon fill="midnightblue" stroke="midnightblue" points="129.942,-82.1782 136.195,-73.6253 125.974,-76.4121 129.942,-82.1782"/>
</g>
<!-- Node3&#45;&gt;Node2 -->
<g id="edge3" class="edge"><title>Node3&#45;&gt;Node2</title>
<path fill="none" stroke="midnightblue" d="M62.4063,-55.2188C54.2055,-47.3162 41.657,-35.2241 31.6757,-25.6057"/>
<polygon fill="midnightblue" stroke="midnightblue" points="33.9828,-22.9682 24.3533,-18.5496 29.1255,-28.0088 33.9828,-22.9682"/>
</g>
<!-- Node4 -->
<g id="node4" class="node"><title>Node4</title>
<g id="a_node4"><a xlink:title=" ">
<polygon fill="none" stroke="#bfbfbf" points="50,-0.5 50,-18.5 98,-18.5 98,-0.5 50,-0.5"/>
<text text-anchor="middle" x="74" y="-7.3" font-family="Calibri" font-size="9.00">stdint.h</text>
</a>
</g>
</g>
<!-- Node3&#45;&gt;Node4 -->
<g id="edge4" class="edge"><title>Node3&#45;&gt;Node4</title>
<path fill="none" stroke="midnightblue" d="M71.4688,-55.2188C71.8673,-48.1769 72.4542,-37.8083 72.9626,-28.8277"/>
<polygon fill="midnightblue" stroke="midnightblue" points="76.4735,-28.7314 73.5444,-18.5496 69.4847,-28.3357 76.4735,-28.7314"/>
</g>
<!-- Node5 -->
<g id="node5" class="node"><title>Node5</title>
<g id="a_node5"><a xlink:title=" ">
<polygon fill="none" stroke="#bfbfbf" points="116,-0.5 116,-18.5 172,-18.5 172,-0.5 116,-0.5"/>
<text text-anchor="middle" x="144" y="-7.3" font-family="Calibri" font-size="9.00">stdbool.h</text>
</a>
</g>
</g>
<!-- Node3&#45;&gt;Node5 -->
<g id="edge5" class="edge"><title>Node3&#45;&gt;Node5</title>
<path fill="none" stroke="midnightblue" d="M82.0871,-55.4504C93.3424,-47.2788 110.998,-34.4604 124.58,-24.5996"/>
<polygon fill="midnightblue" stroke="midnightblue" points="126.773,-27.3327 132.809,-18.6253 122.66,-21.6682 126.773,-27.3327"/>
</g>
</g>
</svg>
