<?xml version="1.0" encoding="UTF-8" standalone="no"?>
<!DOCTYPE svg PUBLIC "-//W3C//DTD SVG 1.1//EN"
 "http://www.w3.org/Graphics/SVG/1.1/DTD/svg11.dtd">
<!-- Generated by graphviz version 2.38.0 (20140413.2041)
 -->
<!-- Title: show_reset Pages: 1 -->
<svg width="797pt" height="434pt"
 viewBox="0.00 0.00 797.00 434.46" xmlns="http://www.w3.org/2000/svg" xmlns:xlink="http://www.w3.org/1999/xlink">
<g id="graph0" class="graph" transform="scale(1 1) rotate(0) translate(4 430.464)">
<title>show_reset</title>
<!-- Node1 -->
<g id="node1" class="node"><title>Node1</title>
<g id="a_node1"><a xlink:title=" ">
<polygon fill="#bfbfbf" stroke="black" points="0,-281.457 0,-299.457 64,-299.457 64,-281.457 0,-281.457"/>
<text text-anchor="middle" x="32" y="-288.257" font-family="Calibri" font-size="9.00">show_reset</text>
</a>
</g>
</g>
<!-- Node2 -->
<g id="node2" class="node"><title>Node2</title>
<g id="a_node2"><a xlink:href="main_8h.html#a9dff326a6079fe726285b11ee837ad60" target="_top" xlink:title=" ">
<polygon fill="none" stroke="black" points="100,-375.457 100,-393.457 156,-393.457 156,-375.457 100,-375.457"/>
<text text-anchor="middle" x="128" y="-382.257" font-family="Calibri" font-size="9.00">atu_reset</text>
</a>
</g>
</g>
<!-- Node1&#45;&gt;Node2 -->
<g id="edge1" class="edge"><title>Node1&#45;&gt;Node2</title>
<path fill="none" stroke="midnightblue" d="M42.0131,-299.47C57.8343,-315.291 90.8081,-348.265 110.712,-368.169"/>
<polygon fill="midnightblue" stroke="midnightblue" points="108.33,-370.737 117.876,-375.333 113.28,-365.787 108.33,-370.737"/>
</g>
<!-- Node6 -->
<g id="node6" class="node"><title>Node6</title>
<g id="a_node6"><a xlink:href="src_2main_8c.html#a6911b3f075cdf1d54cb14f17f6e5ef6b" target="_top" xlink:title=" ">
<polygon fill="none" stroke="black" points="308,-18.457 308,-36.457 355,-36.457 355,-18.457 308,-18.457"/>
<text text-anchor="middle" x="331.5" y="-25.257" font-family="Calibri" font-size="9.00">lcd_ind</text>
</a>
</g>
</g>
<!-- Node1&#45;&gt;Node6 -->
<g id="edge7" class="edge"><title>Node1&#45;&gt;Node6</title>
<path fill="none" stroke="midnightblue" d="M35.8106,-281.375C47.6956,-244.653 97.6132,-106.266 192,-46.457 223.77,-26.3255 267.829,-23.6046 297.657,-24.5925"/>
<polygon fill="midnightblue" stroke="midnightblue" points="297.793,-28.1034 307.953,-25.0989 298.137,-21.1118 297.793,-28.1034"/>
</g>
<!-- Node7 -->
<g id="node7" class="node"><title>Node7</title>
<g id="a_node7"><a xlink:href="oled__control_8c.html#a1c8eef09adf01c9a7e3c6188f25c3c48" target="_top" xlink:title=" ">
<polygon fill="none" stroke="black" points="400,-144.457 400,-162.457 459,-162.457 459,-144.457 400,-144.457"/>
<text text-anchor="middle" x="429.5" y="-151.257" font-family="Calibri" font-size="9.00">led_wr_str</text>
</a>
</g>
</g>
<!-- Node1&#45;&gt;Node7 -->
<g id="edge42" class="edge"><title>Node1&#45;&gt;Node7</title>
<path fill="none" stroke="midnightblue" d="M64.1231,-295.575C126.341,-304.113 268.299,-314.943 364,-255.457 395.016,-236.178 413.698,-195.865 422.463,-172.1"/>
<polygon fill="midnightblue" stroke="midnightblue" points="425.829,-173.075 425.8,-162.48 419.216,-170.78 425.829,-173.075"/>
</g>
<!-- Node14 -->
<g id="node14" class="node"><title>Node14</title>
<g id="a_node14"><a xlink:href="src_2main_8c.html#ae5a14b4884e85f47ad8a4a716f13203a" target="_top" xlink:title=" ">
<polygon fill="none" stroke="black" points="104,-224.457 104,-242.457 152,-242.457 152,-224.457 104,-224.457"/>
<text text-anchor="middle" x="128" y="-231.257" font-family="Calibri" font-size="9.00">lcd_pwr</text>
</a>
</g>
</g>
<!-- Node1&#45;&gt;Node14 -->
<g id="edge20" class="edge"><title>Node1&#45;&gt;Node14</title>
<path fill="none" stroke="midnightblue" d="M48.1027,-281.299C62.9033,-272.324 85.6942,-258.504 102.982,-248.021"/>
<polygon fill="midnightblue" stroke="midnightblue" points="105.199,-250.77 111.935,-242.592 101.569,-244.785 105.199,-250.77"/>
</g>
<!-- Node23 -->
<g id="node23" class="node"><title>Node23</title>
<g id="a_node23"><a xlink:href="main_8h.html#aa3ee146d5fca99f368e8ddb5d5dd72cb" target="_top" xlink:title="Set the state of the switch.">
<polygon fill="none" stroke="black" points="205,-319.457 205,-337.457 250,-337.457 250,-319.457 205,-319.457"/>
<text text-anchor="middle" x="227.5" y="-326.257" font-family="Calibri" font-size="9.00">set_sw</text>
</a>
</g>
</g>
<!-- Node1&#45;&gt;Node23 -->
<g id="edge43" class="edge"><title>Node1&#45;&gt;Node23</title>
<path fill="none" stroke="midnightblue" d="M64.3342,-297.13C75.5734,-299.49 88.3461,-302.134 100,-304.457 132.37,-310.909 169.483,-317.902 195.098,-322.666"/>
<polygon fill="midnightblue" stroke="midnightblue" points="194.518,-326.118 204.989,-324.501 195.795,-319.236 194.518,-326.118"/>
</g>
<!-- Node3 -->
<g id="node3" class="node"><title>Node3</title>
<g id="a_node3"><a xlink:href="main_8h.html#a85fb3ccca120f3b843a1dc7567908a04" target="_top" xlink:title=" ">
<polygon fill="none" stroke="black" points="303.5,-374.457 303.5,-392.457 359.5,-392.457 359.5,-374.457 303.5,-374.457"/>
<text text-anchor="middle" x="331.5" y="-381.257" font-family="Calibri" font-size="9.00">delay_ms</text>
</a>
</g>
</g>
<!-- Node2&#45;&gt;Node3 -->
<g id="edge2" class="edge"><title>Node2&#45;&gt;Node3</title>
<path fill="none" stroke="midnightblue" d="M140.715,-393.665C152.78,-402.514 172.52,-415.284 192,-420.457 222.498,-428.556 232.431,-428.286 263,-420.457 279.876,-416.135 297.068,-406.62 309.878,-398.322"/>
<polygon fill="midnightblue" stroke="midnightblue" points="312.039,-401.086 318.364,-392.587 308.119,-395.287 312.039,-401.086"/>
</g>
<!-- Node4 -->
<g id="node4" class="node"><title>Node4</title>
<g id="a_node4"><a xlink:href="main_8h.html#a2a7963b9b09696c6654b96c67900c6ea" target="_top" xlink:title=" ">
<polygon fill="none" stroke="black" points="203.5,-393.457 203.5,-411.457 251.5,-411.457 251.5,-393.457 203.5,-393.457"/>
<text text-anchor="middle" x="227.5" y="-400.257" font-family="Calibri" font-size="9.00">set_cap</text>
</a>
</g>
</g>
<!-- Node2&#45;&gt;Node4 -->
<g id="edge3" class="edge"><title>Node2&#45;&gt;Node4</title>
<path fill="none" stroke="midnightblue" d="M156.159,-389.471C167.664,-391.595 181.18,-394.09 193.273,-396.323"/>
<polygon fill="midnightblue" stroke="midnightblue" points="192.979,-399.827 203.448,-398.201 194.25,-392.944 192.979,-399.827"/>
</g>
<!-- Node5 -->
<g id="node5" class="node"><title>Node5</title>
<g id="a_node5"><a xlink:href="main_8h.html#aecc83cd8bceb4bc24be844732ead2c2c" target="_top" xlink:title=" ">
<polygon fill="none" stroke="black" points="204,-356.457 204,-374.457 251,-374.457 251,-356.457 204,-356.457"/>
<text text-anchor="middle" x="227.5" y="-363.257" font-family="Calibri" font-size="9.00">set_ind</text>
</a>
</g>
</g>
<!-- Node2&#45;&gt;Node5 -->
<g id="edge5" class="edge"><title>Node2&#45;&gt;Node5</title>
<path fill="none" stroke="midnightblue" d="M156.159,-379.164C167.869,-376.883 181.661,-374.195 193.916,-371.807"/>
<polygon fill="midnightblue" stroke="midnightblue" points="194.624,-375.235 203.769,-369.887 193.285,-368.364 194.624,-375.235"/>
</g>
<!-- Node4&#45;&gt;Node3 -->
<g id="edge4" class="edge"><title>Node4&#45;&gt;Node3</title>
<path fill="none" stroke="midnightblue" d="M251.645,-398.146C264.037,-395.837 279.594,-392.939 293.609,-390.329"/>
<polygon fill="midnightblue" stroke="midnightblue" points="294.283,-393.763 303.473,-388.491 293.001,-386.882 294.283,-393.763"/>
</g>
<!-- Node5&#45;&gt;Node3 -->
<g id="edge6" class="edge"><title>Node5&#45;&gt;Node3</title>
<path fill="none" stroke="midnightblue" d="M251.137,-369.452C263.511,-371.635 279.151,-374.395 293.269,-376.887"/>
<polygon fill="midnightblue" stroke="midnightblue" points="292.756,-380.35 303.212,-378.641 293.972,-373.457 292.756,-380.35"/>
</g>
<!-- Node6&#45;&gt;Node7 -->
<g id="edge8" class="edge"><title>Node6&#45;&gt;Node7</title>
<path fill="none" stroke="midnightblue" d="M346.565,-36.531C352.356,-40.6661 358.891,-45.8813 364,-51.457 387.951,-77.5936 408.418,-113.739 419.544,-135.245"/>
<polygon fill="midnightblue" stroke="midnightblue" points="416.468,-136.919 424.104,-144.264 422.715,-133.76 416.468,-136.919"/>
</g>
<!-- Node8 -->
<g id="node8" class="node"><title>Node8</title>
<g id="a_node8"><a xlink:href="oled__control_8c.html#a3d35666326cc069eda3b63c70983fdbc" target="_top" xlink:title=" ">
<polygon fill="none" stroke="black" points="609,-78.457 609,-96.457 664,-96.457 664,-78.457 609,-78.457"/>
<text text-anchor="middle" x="636.5" y="-85.257" font-family="Calibri" font-size="9.00">led_send</text>
</a>
</g>
</g>
<!-- Node7&#45;&gt;Node8 -->
<g id="edge9" class="edge"><title>Node7&#45;&gt;Node8</title>
<path fill="none" stroke="midnightblue" d="M458.575,-144.418C495.068,-132.669 558.87,-112.128 599.062,-99.1884"/>
<polygon fill="midnightblue" stroke="midnightblue" points="600.294,-102.469 608.74,-96.0724 598.149,-95.8054 600.294,-102.469"/>
</g>
<!-- Node12 -->
<g id="node12" class="node"><title>Node12</title>
<g id="a_node12"><a xlink:href="oled__control_8c.html#a6e85fd05697e2238e4d9babf1c952772" target="_top" xlink:title=" ">
<polygon fill="none" stroke="black" points="495,-144.457 495,-162.457 560,-162.457 560,-144.457 495,-144.457"/>
<text text-anchor="middle" x="527.5" y="-151.257" font-family="Calibri" font-size="9.00">oled_wr_str</text>
</a>
</g>
</g>
<!-- Node7&#45;&gt;Node12 -->
<g id="edge13" class="edge"><title>Node7&#45;&gt;Node12</title>
<path fill="none" stroke="midnightblue" d="M459.043,-153.457C467.147,-153.457 476.142,-153.457 484.852,-153.457"/>
<polygon fill="midnightblue" stroke="midnightblue" points="484.877,-156.957 494.877,-153.457 484.877,-149.957 484.877,-156.957"/>
</g>
<!-- Node9 -->
<g id="node9" class="node"><title>Node9</title>
<g id="a_node9"><a xlink:href="oled__control_8c.html#ab7f6b5c6c1483f6286f2de5786c028d9" target="_top" xlink:title=" ">
<polygon fill="none" stroke="black" points="715,-88.457 715,-106.457 787,-106.457 787,-88.457 715,-88.457"/>
<text text-anchor="middle" x="751" y="-95.257" font-family="Calibri" font-size="9.00">Soft_I2C_Start</text>
</a>
</g>
</g>
<!-- Node8&#45;&gt;Node9 -->
<g id="edge10" class="edge"><title>Node8&#45;&gt;Node9</title>
<path fill="none" stroke="midnightblue" d="M664.161,-89.8268C676.173,-90.8946 690.703,-92.1861 704.365,-93.4005"/>
<polygon fill="midnightblue" stroke="midnightblue" points="704.317,-96.91 714.588,-94.3092 704.937,-89.9375 704.317,-96.91"/>
</g>
<!-- Node10 -->
<g id="node10" class="node"><title>Node10</title>
<g id="a_node10"><a xlink:href="oled__control_8c.html#a16eb842aa672ca44820ae6d5f9933425" target="_top" xlink:title=" ">
<polygon fill="none" stroke="black" points="715.5,-41.457 715.5,-59.457 786.5,-59.457 786.5,-41.457 715.5,-41.457"/>
<text text-anchor="middle" x="751" y="-48.257" font-family="Calibri" font-size="9.00">Soft_I2C_Stop</text>
</a>
</g>
</g>
<!-- Node8&#45;&gt;Node10 -->
<g id="edge11" class="edge"><title>Node8&#45;&gt;Node10</title>
<path fill="none" stroke="midnightblue" d="M664.161,-78.6885C678.689,-73.9103 696.899,-67.9214 712.804,-62.6904"/>
<polygon fill="midnightblue" stroke="midnightblue" points="713.95,-65.998 722.356,-59.5489 711.763,-59.3484 713.95,-65.998"/>
</g>
<!-- Node11 -->
<g id="node11" class="node"><title>Node11</title>
<g id="a_node11"><a xlink:href="oled__control_8c.html#a73610916645f17c19124e697b005f694" target="_top" xlink:title=" ">
<polygon fill="none" stroke="black" points="713,-144.457 713,-162.457 789,-162.457 789,-144.457 713,-144.457"/>
<text text-anchor="middle" x="751" y="-151.257" font-family="Calibri" font-size="9.00">Soft_I2C_Write</text>
</a>
</g>
</g>
<!-- Node8&#45;&gt;Node11 -->
<g id="edge12" class="edge"><title>Node8&#45;&gt;Node11</title>
<path fill="none" stroke="midnightblue" d="M653.143,-96.634C671.949,-107.667 703.724,-126.308 725.726,-139.216"/>
<polygon fill="midnightblue" stroke="midnightblue" points="724.094,-142.317 734.49,-144.358 727.636,-136.279 724.094,-142.317"/>
</g>
<!-- Node12&#45;&gt;Node9 -->
<g id="edge17" class="edge"><title>Node12&#45;&gt;Node9</title>
<path fill="none" stroke="midnightblue" d="M560.236,-145.434C598.11,-135.858 661.71,-119.779 704.734,-108.901"/>
<polygon fill="midnightblue" stroke="midnightblue" points="705.825,-112.236 714.662,-106.391 704.109,-105.449 705.825,-112.236"/>
</g>
<!-- Node12&#45;&gt;Node10 -->
<g id="edge18" class="edge"><title>Node12&#45;&gt;Node10</title>
<path fill="none" stroke="midnightblue" d="M532.134,-144.306C542.71,-118.191 574.105,-44.3655 596,-31.457 635.116,-8.39487 689.488,-23.9406 722.066,-37.2504"/>
<polygon fill="midnightblue" stroke="midnightblue" points="720.865,-40.5437 731.436,-41.264 723.622,-34.1092 720.865,-40.5437"/>
</g>
<!-- Node12&#45;&gt;Node11 -->
<g id="edge19" class="edge"><title>Node12&#45;&gt;Node11</title>
<path fill="none" stroke="midnightblue" d="M545.116,-162.519C558.434,-169.24 577.834,-177.839 596,-181.457 631.306,-188.489 641.602,-188.013 677,-181.457 692.681,-178.553 709.343,-172.417 722.784,-166.628"/>
<polygon fill="midnightblue" stroke="midnightblue" points="724.247,-169.807 731.942,-162.524 721.385,-163.419 724.247,-169.807"/>
</g>
<!-- Node13 -->
<g id="node13" class="node"><title>Node13</title>
<g id="a_node13"><a xlink:href="oled__control_8c.html#a3cf32ac4d3d7c92be54c385c1ed8cc76" target="_top" xlink:title=" ">
<polygon fill="none" stroke="black" points="596.5,-154.457 596.5,-172.457 676.5,-172.457 676.5,-154.457 596.5,-154.457"/>
<text text-anchor="middle" x="636.5" y="-161.257" font-family="Calibri" font-size="9.00">set_addressing</text>
</a>
</g>
</g>
<!-- Node12&#45;&gt;Node13 -->
<g id="edge14" class="edge"><title>Node12&#45;&gt;Node13</title>
<path fill="none" stroke="midnightblue" d="M560.025,-156.403C568.177,-157.165 577.154,-158.004 585.985,-158.829"/>
<polygon fill="midnightblue" stroke="midnightblue" points="585.944,-162.341 596.227,-159.787 586.596,-155.371 585.944,-162.341"/>
</g>
<!-- Node13&#45;&gt;Node9 -->
<g id="edge15" class="edge"><title>Node13&#45;&gt;Node9</title>
<path fill="none" stroke="midnightblue" d="M653.143,-154.28C671.949,-143.247 703.724,-124.606 725.726,-111.698"/>
<polygon fill="midnightblue" stroke="midnightblue" points="727.636,-114.635 734.49,-106.556 724.094,-108.597 727.636,-114.635"/>
</g>
<!-- Node13&#45;&gt;Node11 -->
<g id="edge16" class="edge"><title>Node13&#45;&gt;Node11</title>
<path fill="none" stroke="midnightblue" d="M676.531,-159.988C685.015,-159.233 694.078,-158.428 702.838,-157.649"/>
<polygon fill="midnightblue" stroke="midnightblue" points="703.28,-161.124 712.931,-156.752 702.66,-154.151 703.28,-161.124"/>
</g>
<!-- Node14&#45;&gt;Node4 -->
<g id="edge35" class="edge"><title>Node14&#45;&gt;Node4</title>
<path fill="none" stroke="midnightblue" d="M130.67,-242.693C135.677,-268.053 152.711,-339.776 192,-383.457 193.338,-384.944 194.82,-386.339 196.396,-387.644"/>
<polygon fill="midnightblue" stroke="midnightblue" points="194.603,-390.658 204.83,-393.425 198.56,-384.884 194.603,-390.658"/>
</g>
<!-- Node14&#45;&gt;Node5 -->
<g id="edge36" class="edge"><title>Node14&#45;&gt;Node5</title>
<path fill="none" stroke="midnightblue" d="M132.153,-242.765C139.615,-263.626 160.153,-314.775 192,-346.457 193.454,-347.904 195.042,-349.272 196.711,-350.561"/>
<polygon fill="midnightblue" stroke="midnightblue" points="195.221,-353.77 205.501,-356.334 199.064,-347.919 195.221,-353.77"/>
</g>
<!-- Node14&#45;&gt;Node7 -->
<g id="edge34" class="edge"><title>Node14&#45;&gt;Node7</title>
<path fill="none" stroke="midnightblue" d="M152.12,-239.545C195.958,-249.8 293.117,-266.277 364,-232.457 390.4,-219.861 409.587,-190.623 419.877,-171.467"/>
<polygon fill="midnightblue" stroke="midnightblue" points="423.019,-173.01 424.438,-162.511 416.781,-169.834 423.019,-173.01"/>
</g>
<!-- Node15 -->
<g id="node15" class="node"><title>Node15</title>
<g id="a_node15"><a xlink:href="src_2main_8c.html#a593218c5fe00b499d494826fc0aa5279" target="_top" xlink:title=" ">
<polygon fill="none" stroke="black" points="192,-205.457 192,-223.457 263,-223.457 263,-205.457 192,-205.457"/>
<text text-anchor="middle" x="227.5" y="-212.257" font-family="Calibri" font-size="9.00">button_delay</text>
</a>
</g>
</g>
<!-- Node14&#45;&gt;Node15 -->
<g id="edge21" class="edge"><title>Node14&#45;&gt;Node15</title>
<path fill="none" stroke="midnightblue" d="M152.106,-228.954C160.975,-227.226 171.428,-225.189 181.65,-223.197"/>
<polygon fill="midnightblue" stroke="midnightblue" points="182.582,-226.581 191.728,-221.233 181.243,-219.71 182.582,-226.581"/>
</g>
<!-- Node16 -->
<g id="node16" class="node"><title>Node16</title>
<g id="a_node16"><a xlink:href="oled__control_8c.html#a5febfdc847aa6f3bc3f3c8f7818b8699" target="_top" xlink:title=" ">
<polygon fill="none" stroke="black" points="496.5,-41.457 496.5,-59.457 558.5,-59.457 558.5,-41.457 496.5,-41.457"/>
<text text-anchor="middle" x="527.5" y="-48.257" font-family="Calibri" font-size="9.00">display_on</text>
</a>
</g>
</g>
<!-- Node14&#45;&gt;Node16 -->
<g id="edge22" class="edge"><title>Node14&#45;&gt;Node16</title>
<path fill="none" stroke="midnightblue" d="M129.379,-224.228C131.105,-194.279 140.584,-98.7173 192,-46.457 272.971,35.8438 429.897,-12.0876 495.986,-37.6184"/>
<polygon fill="midnightblue" stroke="midnightblue" points="494.837,-40.9278 505.423,-41.3525 497.413,-34.4188 494.837,-40.9278"/>
</g>
<!-- Node18 -->
<g id="node18" class="node"><title>Node18</title>
<g id="a_node18"><a xlink:href="main_8h.html#ab37ca657b79c6b9176cb63e9d812a182" target="_top" xlink:title=" ">
<polygon fill="none" stroke="black" points="203,-129.457 203,-147.457 252,-147.457 252,-129.457 203,-129.457"/>
<text text-anchor="middle" x="227.5" y="-136.257" font-family="Calibri" font-size="9.00">get_pwr</text>
</a>
</g>
</g>
<!-- Node14&#45;&gt;Node18 -->
<g id="edge28" class="edge"><title>Node14&#45;&gt;Node18</title>
<path fill="none" stroke="midnightblue" d="M136.129,-224.083C147.196,-209.859 169.579,-182.378 192,-162.457 195.532,-159.319 199.484,-156.233 203.418,-153.374"/>
<polygon fill="midnightblue" stroke="midnightblue" points="205.606,-156.116 211.831,-147.543 201.618,-150.363 205.606,-156.116"/>
</g>
<!-- Node22 -->
<g id="node22" class="node"><title>Node22</title>
<g id="a_node22"><a xlink:href="src_2main_8c.html#aa8fd50019a763561abc6621bb224417f" target="_top" xlink:title=" ">
<polygon fill="none" stroke="black" points="308,-205.457 308,-223.457 355,-223.457 355,-205.457 308,-205.457"/>
<text text-anchor="middle" x="331.5" y="-212.257" font-family="Calibri" font-size="9.00">lcd_swr</text>
</a>
</g>
</g>
<!-- Node14&#45;&gt;Node22 -->
<g id="edge32" class="edge"><title>Node14&#45;&gt;Node22</title>
<path fill="none" stroke="midnightblue" d="M139.742,-224.437C151.639,-215.088 171.819,-201.072 192,-195.457 227.402,-185.607 269.374,-194.054 297.762,-202.601"/>
<polygon fill="midnightblue" stroke="midnightblue" points="296.978,-206.024 307.568,-205.72 299.1,-199.354 296.978,-206.024"/>
</g>
<!-- Node14&#45;&gt;Node23 -->
<g id="edge37" class="edge"><title>Node14&#45;&gt;Node23</title>
<path fill="none" stroke="midnightblue" d="M138.349,-242.566C154.759,-258.555 188.961,-291.88 209.605,-311.995"/>
<polygon fill="midnightblue" stroke="midnightblue" points="207.431,-314.764 217.036,-319.236 212.317,-309.75 207.431,-314.764"/>
</g>
<!-- Node24 -->
<g id="node24" class="node"><title>Node24</title>
<g id="a_node24"><a xlink:href="src_2main_8c.html#a4ae0d4fa97fc0ca3611813fee4f9af7c" target="_top" xlink:title=" ">
<polygon fill="none" stroke="black" points="198.5,-56.457 198.5,-74.457 256.5,-74.457 256.5,-56.457 198.5,-56.457"/>
<text text-anchor="middle" x="227.5" y="-63.257" font-family="Calibri" font-size="9.00">show_pwr</text>
</a>
</g>
</g>
<!-- Node14&#45;&gt;Node24 -->
<g id="edge39" class="edge"><title>Node14&#45;&gt;Node24</title>
<path fill="none" stroke="midnightblue" d="M133.867,-224.183C144.194,-204.612 169.223,-157.741 192,-119.457 199.316,-107.159 207.99,-93.5872 214.81,-83.1258"/>
<polygon fill="midnightblue" stroke="midnightblue" points="217.898,-84.7992 220.46,-74.5188 212.047,-80.9578 217.898,-84.7992"/>
</g>
<!-- Node16&#45;&gt;Node8 -->
<g id="edge23" class="edge"><title>Node16&#45;&gt;Node8</title>
<path fill="none" stroke="midnightblue" d="M554.675,-59.5082C568.147,-64.1668 584.779,-69.918 599.447,-74.99"/>
<polygon fill="midnightblue" stroke="midnightblue" points="598.629,-78.4107 609.224,-78.371 600.917,-71.795 598.629,-78.4107"/>
</g>
<!-- Node17 -->
<g id="node17" class="node"><title>Node17</title>
<g id="a_node17"><a xlink:href="oled__control_8c.html#a78a346ba6e89c3140dd554a46e56c719" target="_top" xlink:title=" ">
<polygon fill="none" stroke="black" points="596,-41.457 596,-59.457 677,-59.457 677,-41.457 596,-41.457"/>
<text text-anchor="middle" x="636.5" y="-48.257" font-family="Calibri" font-size="9.00">send_command</text>
</a>
</g>
</g>
<!-- Node16&#45;&gt;Node17 -->
<g id="edge24" class="edge"><title>Node16&#45;&gt;Node17</title>
<path fill="none" stroke="midnightblue" d="M558.59,-50.457C566.944,-50.457 576.245,-50.457 585.413,-50.457"/>
<polygon fill="midnightblue" stroke="midnightblue" points="585.649,-53.9571 595.649,-50.457 585.649,-46.9571 585.649,-53.9571"/>
</g>
<!-- Node17&#45;&gt;Node9 -->
<g id="edge25" class="edge"><title>Node17&#45;&gt;Node9</title>
<path fill="none" stroke="midnightblue" d="M659.191,-59.5191C676.155,-66.6063 699.966,-76.554 718.95,-84.485"/>
<polygon fill="midnightblue" stroke="midnightblue" points="717.799,-87.7973 728.375,-88.4227 720.498,-81.3383 717.799,-87.7973"/>
</g>
<!-- Node17&#45;&gt;Node10 -->
<g id="edge26" class="edge"><title>Node17&#45;&gt;Node10</title>
<path fill="none" stroke="midnightblue" d="M677.163,-50.457C686.172,-50.457 695.804,-50.457 705.016,-50.457"/>
<polygon fill="midnightblue" stroke="midnightblue" points="705.182,-53.9571 715.182,-50.457 705.182,-46.9571 705.182,-53.9571"/>
</g>
<!-- Node17&#45;&gt;Node11 -->
<g id="edge27" class="edge"><title>Node17&#45;&gt;Node11</title>
<path fill="none" stroke="midnightblue" d="M662.391,-59.5477C667.496,-62.0142 672.637,-64.9836 677,-68.457 697.585,-84.8455 695.792,-95.5516 713,-115.457 719.406,-122.867 726.877,-130.68 733.421,-137.282"/>
<polygon fill="midnightblue" stroke="midnightblue" points="731,-139.81 740.559,-144.378 735.935,-134.846 731,-139.81"/>
</g>
<!-- Node19 -->
<g id="node19" class="node"><title>Node19</title>
<g id="a_node19"><a xlink:href="main_8h.html#ab19e6e081315a9a200394b74d10de395" target="_top" xlink:title=" ">
<polygon fill="none" stroke="black" points="303,-168.457 303,-186.457 360,-186.457 360,-168.457 303,-168.457"/>
<text text-anchor="middle" x="331.5" y="-175.257" font-family="Calibri" font-size="9.00">correction</text>
</a>
</g>
</g>
<!-- Node18&#45;&gt;Node19 -->
<g id="edge29" class="edge"><title>Node18&#45;&gt;Node19</title>
<path fill="none" stroke="midnightblue" d="M252.157,-147.502C265.45,-152.585 282.262,-159.013 296.9,-164.61"/>
<polygon fill="midnightblue" stroke="midnightblue" points="296.027,-168.023 306.618,-168.326 298.527,-161.485 296.027,-168.023"/>
</g>
<!-- Node20 -->
<g id="node20" class="node"><title>Node20</title>
<g id="a_node20"><a xlink:href="main_8h.html#acfd46f8711e9c1c20fffdfc8bdaa0ddd" target="_top" xlink:title=" ">
<polygon fill="none" stroke="black" points="299,-131.457 299,-149.457 364,-149.457 364,-131.457 299,-131.457"/>
<text text-anchor="middle" x="331.5" y="-138.257" font-family="Calibri" font-size="9.00">get_forward</text>
</a>
</g>
</g>
<!-- Node18&#45;&gt;Node20 -->
<g id="edge30" class="edge"><title>Node18&#45;&gt;Node20</title>
<path fill="none" stroke="midnightblue" d="M252.157,-138.921C263.008,-139.134 276.203,-139.392 288.647,-139.636"/>
<polygon fill="midnightblue" stroke="midnightblue" points="288.789,-143.14 298.855,-139.836 288.926,-136.141 288.789,-143.14"/>
</g>
<!-- Node21 -->
<g id="node21" class="node"><title>Node21</title>
<g id="a_node21"><a xlink:href="main_8h.html#aa6b9a2b3d88f578ba6a9fefd911eae75" target="_top" xlink:title=" ">
<polygon fill="none" stroke="black" points="299.5,-94.457 299.5,-112.457 363.5,-112.457 363.5,-94.457 299.5,-94.457"/>
<text text-anchor="middle" x="331.5" y="-101.257" font-family="Calibri" font-size="9.00">get_reverse</text>
</a>
</g>
</g>
<!-- Node18&#45;&gt;Node21 -->
<g id="edge31" class="edge"><title>Node18&#45;&gt;Node21</title>
<path fill="none" stroke="midnightblue" d="M252.157,-130.339C264.659,-126.049 280.274,-120.691 294.266,-115.89"/>
<polygon fill="midnightblue" stroke="midnightblue" points="295.777,-119.072 304.1,-112.516 293.505,-112.451 295.777,-119.072"/>
</g>
<!-- Node22&#45;&gt;Node7 -->
<g id="edge33" class="edge"><title>Node22&#45;&gt;Node7</title>
<path fill="none" stroke="midnightblue" d="M347.946,-205.285C353.077,-202.2 358.805,-198.714 364,-195.457 378.212,-186.547 393.996,-176.276 406.392,-168.122"/>
<polygon fill="midnightblue" stroke="midnightblue" points="408.329,-171.037 414.748,-162.608 404.474,-165.194 408.329,-171.037"/>
</g>
<!-- Node23&#45;&gt;Node3 -->
<g id="edge38" class="edge"><title>Node23&#45;&gt;Node3</title>
<path fill="none" stroke="midnightblue" d="M246.088,-337.545C251.522,-340.376 257.519,-343.526 263,-346.457 276.992,-353.941 292.525,-362.442 305.16,-369.407"/>
<polygon fill="midnightblue" stroke="midnightblue" points="303.738,-372.619 314.183,-374.391 307.122,-366.492 303.738,-372.619"/>
</g>
<!-- Node24&#45;&gt;Node6 -->
<g id="edge40" class="edge"><title>Node24&#45;&gt;Node6</title>
<path fill="none" stroke="midnightblue" d="M252.673,-56.4515C266.266,-51.3871 283.415,-44.9984 298.153,-39.5076"/>
<polygon fill="midnightblue" stroke="midnightblue" points="299.75,-42.6481 307.898,-35.8771 297.306,-36.0885 299.75,-42.6481"/>
</g>
<!-- Node24&#45;&gt;Node7 -->
<g id="edge41" class="edge"><title>Node24&#45;&gt;Node7</title>
<path fill="none" stroke="midnightblue" d="M256.61,-64.0796C285.219,-63.8546 330.063,-66.8234 364,-84.457 386.868,-96.339 405.967,-119.636 417.306,-135.855"/>
<polygon fill="midnightblue" stroke="midnightblue" points="414.585,-138.083 423.055,-144.447 420.403,-134.189 414.585,-138.083"/>
</g>
</g>
</svg>
