<?xml version="1.0" encoding="UTF-8" standalone="no"?>
<!DOCTYPE svg PUBLIC "-//W3C//DTD SVG 1.1//EN"
 "http://www.w3.org/Graphics/SVG/1.1/DTD/svg11.dtd">
<!-- Generated by graphviz version 2.38.0 (20140413.2041)
 -->
<!-- Title: capacitor_values_t Pages: 1 -->
<svg width="101pt" height="152pt"
 viewBox="0.00 0.00 101.00 152.00" xmlns="http://www.w3.org/2000/svg" xmlns:xlink="http://www.w3.org/1999/xlink">
<g id="graph0" class="graph" transform="scale(1 1) rotate(0) translate(4 148)">
<title>capacitor_values_t</title>
<!-- Node1 -->
<g id="node1" class="node"><title>Node1</title>
<g id="a_node1"><a xlink:title=" ">
<polygon fill="#bfbfbf" stroke="black" points="0,-0.5 0,-18.5 93,-18.5 93,-0.5 0,-0.5"/>
<text text-anchor="middle" x="46.5" y="-7.3" font-family="Calibri" font-size="9.00">capacitor_values_t</text>
</a>
</g>
</g>
<!-- Node2 -->
<g id="node2" class="node"><title>Node2</title>
<g id="a_node2"><a xlink:title=" ">
<polygon fill="none" stroke="#bfbfbf" points="32,-125.5 32,-143.5 61,-143.5 61,-125.5 32,-125.5"/>
<text text-anchor="middle" x="46.5" y="-132.3" font-family="Calibri" font-size="9.00">int</text>
</a>
</g>
</g>
<!-- Node2&#45;&gt;Node1 -->
<g id="edge1" class="edge"><title>Node2&#45;&gt;Node1</title>
<path fill="none" stroke="#9a32cd" stroke-dasharray="5,2" d="M46.5,-115.384C46.5,-88.3198 46.5,-38.4132 46.5,-18.7614"/>
<polygon fill="#9a32cd" stroke="#9a32cd" points="43.0001,-115.43 46.5,-125.43 50.0001,-115.43 43.0001,-115.43"/>
<text text-anchor="middle" x="52.5" y="-99.8" font-family="Calibri" font-size="9.00"> C1</text>
<text text-anchor="middle" x="52.5" y="-89.8" font-family="Calibri" font-size="9.00">C2</text>
<text text-anchor="middle" x="52.5" y="-79.8" font-family="Calibri" font-size="9.00">C3</text>
<text text-anchor="middle" x="52.5" y="-69.8" font-family="Calibri" font-size="9.00">C4</text>
<text text-anchor="middle" x="52.5" y="-59.8" font-family="Calibri" font-size="9.00">C5</text>
<text text-anchor="middle" x="52.5" y="-49.8" font-family="Calibri" font-size="9.00">C6</text>
<text text-anchor="middle" x="52.5" y="-39.8" font-family="Calibri" font-size="9.00">C7</text>
</g>
</g>
</svg>
