<?xml version="1.0" encoding="UTF-8" standalone="no"?>
<!DOCTYPE svg PUBLIC "-//W3C//DTD SVG 1.1//EN"
 "http://www.w3.org/Graphics/SVG/1.1/DTD/svg11.dtd">
<!-- Generated by graphviz version 2.38.0 (20140413.2041)
 -->
<!-- Title: display_t Pages: 1 -->
<svg width="150pt" height="92pt"
 viewBox="0.00 0.00 150.00 92.00" xmlns="http://www.w3.org/2000/svg" xmlns:xlink="http://www.w3.org/1999/xlink">
<g id="graph0" class="graph" transform="scale(1 1) rotate(0) translate(4 88)">
<title>display_t</title>
<!-- Node1 -->
<g id="node1" class="node"><title>Node1</title>
<g id="a_node1"><a xlink:title=" ">
<polygon fill="#bfbfbf" stroke="black" points="52.5,-0.5 52.5,-18.5 106.5,-18.5 106.5,-0.5 52.5,-0.5"/>
<text text-anchor="middle" x="79.5" y="-7.3" font-family="Calibri" font-size="9.00">display_t</text>
</a>
</g>
</g>
<!-- Node2 -->
<g id="node2" class="node"><title>Node2</title>
<g id="a_node2"><a xlink:title=" ">
<polygon fill="none" stroke="#bfbfbf" points="0,-65.5 0,-83.5 79,-83.5 79,-65.5 0,-65.5"/>
<text text-anchor="middle" x="39.5" y="-72.3" font-family="Calibri" font-size="9.00">anonymous:@3</text>
</a>
</g>
</g>
<!-- Node2&#45;&gt;Node1 -->
<g id="edge1" class="edge"><title>Node2&#45;&gt;Node1</title>
<path fill="none" stroke="#9a32cd" stroke-dasharray="5,2" d="M50.1338,-56.7518C57.9802,-44.3937 68.311,-28.1227 74.3959,-18.539"/>
<polygon fill="#9a32cd" stroke="#9a32cd" points="47.1347,-54.9457 44.7293,-65.2639 53.0442,-58.6978 47.1347,-54.9457"/>
<text text-anchor="middle" x="70.5" y="-39.8" font-family="Calibri" font-size="9.00"> @3</text>
</g>
<!-- Node3 -->
<g id="node3" class="node"><title>Node3</title>
<g id="a_node3"><a xlink:title=" ">
<polygon fill="none" stroke="#bfbfbf" points="97,-65.5 97,-83.5 142,-83.5 142,-65.5 97,-65.5"/>
<text text-anchor="middle" x="119.5" y="-72.3" font-family="Calibri" font-size="9.00">uint8_t</text>
</a>
</g>
</g>
<!-- Node3&#45;&gt;Node1 -->
<g id="edge2" class="edge"><title>Node3&#45;&gt;Node1</title>
<path fill="none" stroke="#9a32cd" stroke-dasharray="5,2" d="M108.866,-56.7518C101.02,-44.3937 90.689,-28.1227 84.6041,-18.539"/>
<polygon fill="#9a32cd" stroke="#9a32cd" points="105.956,-58.6978 114.271,-65.2639 111.865,-54.9457 105.956,-58.6978"/>
<text text-anchor="middle" x="105.5" y="-39.8" font-family="Calibri" font-size="9.00"> d</text>
</g>
</g>
</svg>
